<?xml version="1.0"?>
<svg version="1.1" xmlns="http://www.w3.org/2000/svg" xmlns:xlink="http://www.w3.org/1999/xlink" width="40" height="20">
    <desc iVinci="yes" version="4.6" gridStep="20" showGrid="no" snapToGrid="no" codePlatform="0"/>
    <g id="Layer1" name="Layer 1" opacity="1">
        <g id="Shape1">
            <desc shapeID="1" type="0" basicInfo-basicType="2" basicInfo-roundedRectRadius="8" basicInfo-polygonSides="6" basicInfo-starPoints="5" bounding="rect(-39.6531,-19.0976,79.3063,38.1953)" text="" font-familyName="Helvetica" font-pixelSize="20" font-bold="0" font-underline="0" font-alignment="1" strokeStyle="0" markerStart="0" markerEnd="0" shadowEnabled="0" shadowOffsetX="0" shadowOffsetY="2" shadowBlur="4" shadowOpacity="160" blurEnabled="0" blurRadius="4" transform="matrix(0.492171,0,0,0.492171,19.9721,9.96016)" pers-center="0,0" pers-size="0,0" pers-start="0,0" pers-end="0,0" locked="0" mesh="" flag=""/>
            <path id="shapePath1" d="M0.45599,4.49821 C0.45599,2.32366 2.21881,0.560844 4.39336,0.560844 L35.5509,0.560844 C37.7254,0.560844 39.4882,2.32366 39.4882,4.49821 L39.4882,15.4221 C39.4882,17.5966 37.7254,19.3595 35.5509,19.3595 L4.39336,19.3595 C2.21881,19.3595 0.45599,17.5966 0.45599,15.4221 L0.45599,4.49821 Z" style="stroke:none;fill-rule:evenodd;fill:url(#linearGradientFill1);fill-opacity:1;"/><defs><linearGradient id="linearGradientFill1" gradientUnits="userSpaceOnUse" x1="18.9617" y1="19.3595" x2="19.506" y2="0.560844"><stop offset="0" stop-color="#4181bc" stop-opacity="1"/><stop offset="1" stop-color="#2c67bc" stop-opacity="1"/></linearGradient></defs>
        </g>
        <g id="Shape2">
            <desc shapeID="2" type="0" basicInfo-basicType="0" basicInfo-roundedRectRadius="12" basicInfo-polygonSides="6" basicInfo-starPoints="5" bounding="rect(-32.9134,-8.42,65.8269,16.84)" text="agenda" font-familyName="Baloo" font-pixelSize="20" font-bold="0" font-underline="0" font-alignment="1" strokeStyle="0" markerStart="0" markerEnd="0" shadowEnabled="0" shadowOffsetX="0" shadowOffsetY="2" shadowBlur="4" shadowOpacity="160" blurEnabled="0" blurRadius="4" transform="matrix(0.553569,0,0,0.553569,20,10.3013)" pers-center="0,0" pers-size="0,0" pers-start="0,0" pers-end="0,0" locked="0" mesh="" flag=""/>
            <path id="shapePath2" d="M4.34869,11.7628 C4.47417,11.7628 4.61256,11.7498 4.76387,11.724 C4.91518,11.6982 5.02774,11.6631 5.10155,11.6188 L5.10155,10.7331 L4.30441,10.7995 C4.09774,10.8143 3.92798,10.8586 3.79512,10.9324 C3.66227,11.0062 3.59584,11.1169 3.59584,11.2645 C3.59584,11.4122 3.65304,11.5321 3.76744,11.6244 C3.88185,11.7166 4.0756,11.7628 4.34869,11.7628 M4.26012,7.4117 C4.65869,7.4117 5.0222,7.4523 5.35065,7.53349 C5.6791,7.61468 5.95958,7.73831 6.19208,7.90438 C6.42458,8.07045 6.60356,8.28081 6.72904,8.53545 C6.85452,8.79009 6.91725,9.09086 6.91725,9.43777 L6.91725,11.9178 C6.91725,12.1097 6.86374,12.2665 6.75672,12.3883 C6.6497,12.5101 6.52237,12.6153 6.37476,12.7038 C5.895,12.9917 5.21964,13.1356 4.34869,13.1356 C3.9575,13.1356 3.60506,13.0987 3.29138,13.0249 C2.97769,12.9511 2.70828,12.8404 2.48316,12.6928 C2.25805,12.5451 2.08459,12.3569 1.96281,12.1281 C1.84102,11.8993 1.78013,11.6336 1.78013,11.331 C1.78013,10.8217 1.93144,10.4305 2.23406,10.1574 C2.53667,9.88431 3.00536,9.71455 3.64012,9.64812 L5.09048,9.49312 L5.09048,9.41562 C5.09048,9.20158 4.99637,9.04842 4.80816,8.95616 C4.61994,8.8639 4.34869,8.81777 3.99441,8.81777 C3.71393,8.81777 3.44084,8.84729 3.17513,8.90634 C2.90941,8.96539 2.66953,9.0392 2.45549,9.12777 C2.35953,9.06134 2.27834,8.95985 2.21191,8.8233 C2.14549,8.68676 2.11227,8.54467 2.11227,8.39706 C2.11227,8.20515 2.1584,8.052 2.25066,7.93759 C2.34293,7.82319 2.48501,7.72539 2.67691,7.6442 C2.89096,7.56301 3.14375,7.50396 3.4353,7.46706 C3.72685,7.43015 4.00179,7.4117 4.26012,7.4117 M10.6898,7.4117 C11.1105,7.4117 11.4925,7.46521 11.8357,7.57224 C12.1789,7.67926 12.4686,7.81765 12.7048,7.98741 C12.8524,8.09075 12.9687,8.20515 13.0536,8.33063 C13.1385,8.4561 13.1809,8.61848 13.1809,8.81777 L13.1809,12.6928 C13.1809,13.0839 13.1071,13.4216 12.9595,13.7058 C12.8118,13.99 12.6107,14.2261 12.3561,14.4144 C12.1014,14.6026 11.8025,14.741 11.4593,14.8295 C11.1161,14.9181 10.7489,14.9624 10.3577,14.9624 C9.68602,14.9624 9.15829,14.872 8.77448,14.6911 C8.39067,14.5103 8.19877,14.2169 8.19877,13.811 C8.19877,13.6412 8.23383,13.4917 8.30394,13.3626 C8.37406,13.2334 8.45341,13.1356 8.54198,13.0692 C8.75603,13.1873 8.99775,13.2869 9.26715,13.3681 C9.53656,13.4493 9.81519,13.4899 10.103,13.4899 C10.5016,13.4899 10.819,13.4235 11.0552,13.2906 C11.2914,13.1578 11.4095,12.9437 11.4095,12.6485 L11.4095,12.4713 C11.1069,12.6042 10.7378,12.6706 10.3023,12.6706 C9.97019,12.6706 9.65465,12.6208 9.35573,12.5211 C9.0568,12.4215 8.79478,12.2665 8.56966,12.0561 C8.34454,11.8458 8.16371,11.5745 8.02716,11.2424 C7.89061,10.9103 7.82234,10.5154 7.82234,10.0578 C7.82234,9.60753 7.8943,9.21634 8.03823,8.8842 C8.18216,8.55206 8.38144,8.27712 8.63609,8.05938 C8.89073,7.84164 9.19335,7.67926 9.54394,7.57224 C9.89453,7.46521 10.2765,7.4117 10.6898,7.4117 M11.3763,9.01705 C11.3246,8.98753 11.2489,8.95801 11.1493,8.92848 C11.0496,8.89896 10.926,8.8842 10.7784,8.8842 C10.4167,8.8842 10.1455,8.98568 9.96465,9.18866 C9.78382,9.39164 9.6934,9.68134 9.6934,10.0578 C9.6934,10.4859 9.78382,10.794 9.96465,10.9822 C10.1455,11.1704 10.3761,11.2645 10.6566,11.2645 C10.9592,11.2645 11.1991,11.1944 11.3763,11.0542 L11.3763,9.01705 M17.1822,13.1356 C16.7467,13.1356 16.3426,13.0747 15.9698,12.9529 C15.5971,12.8311 15.2723,12.6485 14.9956,12.4049 C14.7188,12.1613 14.501,11.855 14.3423,11.486 C14.1837,11.1169 14.1043,10.6851 14.1043,10.1906 C14.1043,9.70348 14.1837,9.28461 14.3423,8.93402 C14.501,8.58342 14.7095,8.29557 14.9679,8.07045 C15.2262,7.84533 15.5215,7.67926 15.8536,7.57224 C16.1857,7.46521 16.5253,7.4117 16.8722,7.4117 C17.2633,7.4117 17.6195,7.47075 17.9405,7.58884 C18.2616,7.70694 18.5384,7.86932 18.7709,8.07599 C19.0034,8.28265 19.1842,8.52991 19.3134,8.81777 C19.4426,9.10562 19.5072,9.41931 19.5072,9.75884 C19.5072,10.0098 19.437,10.2017 19.2968,10.3345 C19.1566,10.4674 18.961,10.5523 18.71,10.5892 L15.9754,10.9988 C16.0566,11.2424 16.2226,11.4251 16.4736,11.5469 C16.7245,11.6687 17.0124,11.7295 17.3372,11.7295 C17.6398,11.7295 17.9258,11.6908 18.1952,11.6133 C18.4646,11.5358 18.6842,11.4454 18.8539,11.342 C18.972,11.4159 19.0717,11.5192 19.1529,11.652 C19.2341,11.7849 19.2747,11.9251 19.2747,12.0728 C19.2747,12.4049 19.1197,12.6522 18.8097,12.8145 C18.5735,12.94 18.3078,13.0249 18.0125,13.0692 C17.7173,13.1135 17.4405,13.1356 17.1822,13.1356 M16.8722,8.78455 C16.695,8.78455 16.5419,8.81408 16.4127,8.87313 C16.2835,8.93217 16.1784,9.00783 16.0972,9.10009 C16.016,9.19235 15.9551,9.29568 15.9145,9.41009 C15.8739,9.52449 15.8499,9.64074 15.8425,9.75884 L17.7357,9.44884 C17.7136,9.30122 17.6324,9.1536 17.4922,9.00598 C17.3519,8.85836 17.1453,8.78455 16.8722,8.78455 M23.8188,9.54848 C23.8188,9.31967 23.7542,9.15176 23.625,9.04473 C23.4958,8.93771 23.3206,8.8842 23.0991,8.8842 C22.9515,8.8842 22.8057,8.90265 22.6618,8.93955 C22.5179,8.97646 22.3942,9.03182 22.2909,9.10562 L22.2909,12.9474 C22.2171,12.9695 22.1009,12.9917 21.9422,13.0138 C21.7835,13.036 21.6192,13.047 21.4495,13.047 C21.2871,13.047 21.1413,13.036 21.0122,13.0138 C20.883,12.9917 20.7741,12.9474 20.6856,12.881 C20.597,12.8145 20.5287,12.7241 20.4807,12.6097 C20.4328,12.4953 20.4088,12.3459 20.4088,12.1613 L20.4088,8.83991 C20.4088,8.64063 20.4512,8.47825 20.5361,8.35277 C20.621,8.22729 20.7372,8.11289 20.8848,8.00956 C21.1358,7.83241 21.4513,7.68849 21.8314,7.57777 C22.2116,7.46706 22.6341,7.4117 23.0991,7.4117 C23.9332,7.4117 24.5753,7.59438 25.0255,7.95974 C25.4758,8.32509 25.7009,8.83253 25.7009,9.48205 L25.7009,12.9474 C25.6271,12.9695 25.5108,12.9917 25.3521,13.0138 C25.1935,13.036 25.0292,13.047 24.8595,13.047 C24.6971,13.047 24.5513,13.036 24.4222,13.0138 C24.293,12.9917 24.1841,12.9474 24.0955,12.881 C24.007,12.8145 23.9387,12.7241 23.8907,12.6097 C23.8428,12.4953 23.8188,12.3459 23.8188,12.1613 L23.8188,9.54848 M26.6288,10.2681 C26.6288,9.78098 26.7026,9.35842 26.8502,9.00045 C26.9979,8.64247 27.2027,8.34539 27.4647,8.1092 C27.7267,7.87301 28.033,7.69771 28.3836,7.58331 C28.7342,7.4689 29.1125,7.4117 29.5185,7.4117 C29.6661,7.4117 29.81,7.42462 29.9502,7.45045 C30.0905,7.47629 30.2049,7.50765 30.2934,7.54456 L30.2934,5.75099 C30.3673,5.72885 30.4854,5.70486 30.6477,5.67903 C30.8101,5.6532 30.9762,5.64028 31.1459,5.64028 C31.3083,5.64028 31.4541,5.65135 31.5833,5.67349 C31.7124,5.69564 31.8213,5.73992 31.9099,5.80635 C31.9984,5.87278 32.0649,5.9632 32.1092,6.0776 C32.1534,6.192 32.1756,6.34147 32.1756,6.52599 L32.1756,11.7738 C32.1756,12.1207 32.0132,12.3975 31.6884,12.6042 C31.4744,12.7444 31.1976,12.8681 30.8581,12.9751 C30.5186,13.0821 30.1274,13.1356 29.6845,13.1356 C29.2048,13.1356 28.7748,13.0692 28.3947,12.9363 C28.0146,12.8035 27.6935,12.6116 27.4315,12.3606 C27.1695,12.1097 26.9702,11.8089 26.8336,11.4583 C26.6971,11.1077 26.6288,10.711 26.6288,10.2681 M29.7731,8.8842 C29.3745,8.8842 29.0682,8.9986 28.8542,9.22741 C28.6401,9.45622 28.5331,9.80312 28.5331,10.2681 C28.5331,10.7257 28.6327,11.0708 28.832,11.3033 C29.0313,11.5358 29.3192,11.652 29.6956,11.652 C29.8284,11.652 29.9484,11.6317 30.0554,11.5912 C30.1624,11.5506 30.2455,11.5044 30.3045,11.4528 L30.3045,9.01705 C30.1569,8.92848 29.9798,8.8842 29.7731,8.8842 M35.6513,11.7628 C35.7768,11.7628 35.9152,11.7498 36.0665,11.724 C36.2178,11.6982 36.3304,11.6631 36.4042,11.6188 L36.4042,10.7331 L35.607,10.7995 C35.4004,10.8143 35.2306,10.8586 35.0977,10.9324 C34.9649,11.0062 34.8985,11.1169 34.8985,11.2645 C34.8985,11.4122 34.9557,11.5321 35.0701,11.6244 C35.1845,11.7166 35.3782,11.7628 35.6513,11.7628 M35.5627,7.4117 C35.9613,7.4117 36.3248,7.4523 36.6533,7.53349 C36.9817,7.61468 37.2622,7.73831 37.4947,7.90438 C37.7272,8.07045 37.9062,8.28081 38.0317,8.53545 C38.1571,8.79009 38.2199,9.09086 38.2199,9.43777 L38.2199,11.9178 C38.2199,12.1097 38.1664,12.2665 38.0593,12.3883 C37.9523,12.5101 37.825,12.6153 37.6774,12.7038 C37.1976,12.9917 36.5223,13.1356 35.6513,13.1356 C35.2601,13.1356 34.9077,13.0987 34.594,13.0249 C34.2803,12.9511 34.0109,12.8404 33.7858,12.6928 C33.5607,12.5451 33.3872,12.3569 33.2654,12.1281 C33.1436,11.8993 33.0827,11.6336 33.0827,11.331 C33.0827,10.8217 33.2341,10.4305 33.5367,10.1574 C33.8393,9.88431 34.308,9.71455 34.9427,9.64812 L36.3931,9.49312 L36.3931,9.41562 C36.3931,9.20158 36.299,9.04842 36.1108,8.95616 C35.9226,8.8639 35.6513,8.81777 35.297,8.81777 C35.0165,8.81777 34.7435,8.84729 34.4777,8.90634 C34.212,8.96539 33.9721,9.0392 33.7581,9.12777 C33.6621,9.06134 33.581,8.95985 33.5145,8.8233 C33.4481,8.68676 33.4149,8.54467 33.4149,8.39706 C33.4149,8.20515 33.461,8.052 33.5533,7.93759 C33.6455,7.82319 33.7876,7.72539 33.9795,7.6442 C34.1936,7.56301 34.4464,7.50396 34.7379,7.46706 C35.0295,7.43015 35.3044,7.4117 35.5627,7.4117 Z" style="stroke:none;fill-rule:nonzero;fill:#ffffff;fill-opacity:1;"/>
        </g>
    </g>
</svg>
