<?xml version="1.0"?>
<svg version="1.1" xmlns="http://www.w3.org/2000/svg" xmlns:xlink="http://www.w3.org/1999/xlink" width="100" height="100">
    <desc iVinci="yes" version="4.6" gridStep="20" showGrid="no" snapToGrid="no" codePlatform="0"/>
    <g id="Layer1" name="Layer 2" opacity="1">
        <g id="Shape1">
            <desc shapeID="1" type="0" basicInfo-basicType="0" basicInfo-roundedRectRadius="12" basicInfo-polygonSides="6" basicInfo-starPoints="5" bounding="rect(-36.2236,-43.3937,72.4473,86.7874)" text="" font-familyName="Helvetica" font-pixelSize="20" font-bold="0" font-underline="0" font-alignment="1" strokeStyle="0" markerStart="0" markerEnd="0" shadowEnabled="0" shadowOffsetX="0" shadowOffsetY="2" shadowBlur="4" shadowOpacity="160" blurEnabled="0" blurRadius="4" transform="matrix(1,0,0,1,47.3604,48.8168)" pers-center="0,0" pers-size="0,0" pers-start="0,0" pers-end="0,0" locked="0" mesh="" flag=""/>
            <path id="shapePath1" d="M21.3408,90.9041 C21.3408,90.9041 22.7672,58.7558 22.7672,58.7558 C22.7672,58.7558 20.9019,52.6114 20.9019,52.6114 C20.9019,52.6114 21.7797,46.2476 21.7797,46.2476 C21.7797,46.2476 19.0367,41.9684 19.0367,41.9684 C19.0367,41.9684 14.8672,39.5546 14.977,39.5546 C15.0867,39.5546 19.4755,30.9963 19.4755,30.9963 C19.4755,30.9963 18.0492,27.4852 18.0492,27.4852 C18.0492,27.4852 11.1367,23.9741 11.1367,23.9741 C11.1367,23.9741 14.2745,17.5281 14.2745,17.5281 C14.2745,17.5281 13.9538,11.6167 13.9538,11.6167 C13.9538,11.6167 22.4773,9.4629 22.4773,9.4629 C22.4773,9.4629 23.9437,10.6544 23.9437,10.6544 C23.9437,10.6544 23.4854,13.1289 23.4854,13.1289 C23.4854,13.1289 26.4182,13.5872 26.4182,13.5872 C26.4182,13.5872 31.7798,19.0862 31.7798,19.0862 C31.7798,19.0862 35.1708,15.5577 35.1708,15.5577 C35.1708,15.5577 41.3114,15.2827 41.3114,15.2827 C41.3114,15.2827 43.2819,16.7033 43.2819,16.7033 C43.2819,16.7033 47.9561,13.2206 47.9561,13.2206 C47.9561,13.2206 52.5844,15.3285 52.5844,15.3285 C52.5844,15.3285 56.4919,12.5511 56.4919,12.5511 C56.4919,12.5511 59.7186,17.2489 59.7186,17.2489 C59.7186,17.2489 62.4234,16.9642 62.4234,16.9642 C62.4234,16.9642 73.1476,6.33487 73.1476,6.33487 C73.1476,6.33487 76.1424,6.78497 76.1424,6.78497 C76.1424,6.78497 79.5957,5.42311 79.5957,5.42311 C79.5957,5.42311 83.584,7.36862 83.584,7.36862 C83.584,7.36862 80.5198,19.139 80.5198,19.139 C80.5198,19.139 80.8603,25.4132 80.8603,25.4132 C80.8603,25.4132 78.9634,32.2225 78.9634,32.2225 C78.9634,32.2225 81.4439,35.7731 81.4439,35.7731 C81.4439,35.7731 76.872,40.7341 76.872,40.7341 C76.872,40.7341 75.3156,42.6796 75.3156,42.6796 C75.3156,42.6796 75.0293,47.8934 75.0293,47.8934 C75.0293,47.8934 75.6193,72.5222 75.6193,72.5222 C75.6193,72.5222 77.094,81.2972 77.094,81.2972 C77.094,81.2972 76.5779,86.2377 76.5779,86.2377 C76.5779,86.2377 46.1237,92.2105 46.1237,92.2105 C46.1237,92.2105 21.3408,90.9041 21.3408,90.9041 Z" style="stroke:none;fill-rule:evenodd;fill:#f9f4ec;fill-opacity:1;"/>
        </g>
        <g id="Shape2">
            <desc shapeID="2" type="0" basicInfo-basicType="0" basicInfo-roundedRectRadius="12" basicInfo-polygonSides="6" basicInfo-starPoints="5" bounding="rect(0,0,0,0)" text="" font-familyName="Helvetica" font-pixelSize="20" font-bold="0" font-underline="0" font-alignment="1" strokeStyle="0" markerStart="0" markerEnd="0" shadowEnabled="0" shadowOffsetX="0" shadowOffsetY="2" shadowBlur="4" shadowOpacity="160" blurEnabled="0" blurRadius="4" transform="matrix(1,0,0,1,42.535,54.1681)" pers-center="0,0" pers-size="0,0" pers-start="0,0" pers-end="0,0" locked="0" mesh="" flag=""/>
            <path id="shapePath2" d="M42.535,54.1681 Z" style="stroke:none;fill-rule:evenodd;fill:#ebe6df;fill-opacity:1;"/>
        </g>
        <g id="Shape3">
            <desc shapeID="3" type="0" basicInfo-basicType="4" basicInfo-roundedRectRadius="12" basicInfo-polygonSides="6" basicInfo-starPoints="5" bounding="rect(-5.45358,-3.48423,10.9072,6.96846)" text="" font-familyName="Helvetica" font-pixelSize="20" font-bold="0" font-underline="0" font-alignment="1" strokeStyle="0" markerStart="0" markerEnd="0" shadowEnabled="0" shadowOffsetX="0" shadowOffsetY="2" shadowBlur="4" shadowOpacity="160" blurEnabled="0" blurRadius="4" transform="matrix(1,0,0,1,49.139,55.8423)" pers-center="0,0" pers-size="0,0" pers-start="0,0" pers-end="0,0" locked="0" mesh="" flag=""/>
            <path id="shapePath3" d="M43.6854,55.8423 C43.6854,53.9181 46.1271,52.3581 49.139,52.3581 C52.1509,52.3581 54.5926,53.9181 54.5926,55.8423 C54.5926,57.7666 52.1509,59.3266 49.139,59.3266 C46.1271,59.3266 43.6854,57.7666 43.6854,55.8423 Z" style="stroke:none;fill-rule:evenodd;fill:#876b65;fill-opacity:1;"/>
        </g>
        <g id="Shape4">
            <desc shapeID="4" type="0" basicInfo-basicType="0" basicInfo-roundedRectRadius="12" basicInfo-polygonSides="6" basicInfo-starPoints="5" bounding="rect(-26.9788,-7.83135,53.9576,15.6627)" text="" font-familyName="Helvetica" font-pixelSize="20" font-bold="0" font-underline="0" font-alignment="1" strokeStyle="0" markerStart="0" markerEnd="0" shadowEnabled="0" shadowOffsetX="0" shadowOffsetY="2" shadowBlur="4" shadowOpacity="160" blurEnabled="0" blurRadius="4" transform="matrix(1,0,0,1,48.3745,48.8616)" pers-center="0,0" pers-size="0,0" pers-start="0,0" pers-end="0,0" locked="0" mesh="" flag=""/>
            <path id="shapePath4" d="M22.1451,56.693 C22.1451,56.693 34.0495,51.5294 40.2809,49.7984 C43.1275,49.0077 46.1737,49.0408 49.1239,49.1989 C51.8147,49.343 54.3734,50.7405 57.0677,50.6977 C59.2189,50.6636 61.1385,49.0713 63.2878,48.974 C66.2036,48.8422 69.0678,49.8423 71.981,50.0232 C73.1074,50.0932 75.3533,49.7235 75.3533,49.7235 C75.3533,49.7235 74.6789,41.7048 74.6789,41.7048 C74.6789,41.7048 68.8335,41.0303 68.8335,41.0303 C68.8335,41.0303 65.6859,42.679 65.6859,42.679 C65.6859,42.679 59.166,42.0045 59.166,42.0045 C59.166,42.0045 52.2715,45.1521 52.2715,45.1521 C52.2715,45.1521 43.4284,42.679 43.4284,42.679 C43.4284,42.679 40.131,45.227 40.131,45.227 C40.131,45.227 36.7586,43.7282 36.7586,43.7282 C36.7586,43.7282 34.1357,42.9788 34.1357,42.9788 C34.1357,42.9788 26.3418,42.604 26.3418,42.604 C26.3418,42.604 21.9952,44.2528 21.9952,44.2528 C21.9952,44.2528 21.3957,48.1497 21.3957,48.1497 C21.3957,48.1497 22.1451,56.693 22.1451,56.693 Z" style="stroke:none;fill-rule:evenodd;fill:#e2cfbc;fill-opacity:1;"/>
        </g>
        <g id="Shape5">
            <desc shapeID="5" type="0" basicInfo-basicType="0" basicInfo-roundedRectRadius="12" basicInfo-polygonSides="6" basicInfo-starPoints="5" bounding="rect(-19.2874,-18.9184,38.5748,37.8368)" text="" font-familyName="" font-pixelSize="20" font-bold="0" font-underline="0" font-alignment="1" strokeStyle="0" markerStart="0" markerEnd="0" shadowEnabled="0" shadowOffsetX="0" shadowOffsetY="2" shadowBlur="4" shadowOpacity="160" blurEnabled="0" blurRadius="4" transform="matrix(0.590231,0,0,0.590231,72.9373,15.5282)" pers-center="0,0" pers-size="0,0" pers-start="0,0" pers-end="0,0" locked="0" mesh="" flag=""/>
            <path id="shapePath5" d="M77.1835,4.95359 C76.9474,5.30773 75.826,5.36675 74.5275,5.18968 C72.5797,4.89456 72.0485,5.07164 70.691,6.37014 C69.8646,7.19647 68.8022,7.90474 68.33,7.90474 C67.5627,7.90474 67.0906,8.43595 63.2541,13.4529 C61.4834,15.8138 61.0702,17.5845 62.1326,18.2338 C62.4867,18.4109 62.7228,18.3518 62.7228,18.1157 C62.7228,17.8206 63.077,17.0533 63.5492,16.4631 C64.2574,15.5187 64.4935,15.4597 65.2608,16.1089 C66.5593,17.1123 67.4447,16.4631 67.4447,14.4563 C67.4447,12.3315 68.4481,11.3871 70.1007,12.0364 C71.6944,12.6266 72.7568,11.8003 72.7568,9.91152 C72.7568,8.61302 74.0553,7.90474 76.5342,7.90474 C77.1835,7.90474 78.1278,7.5506 78.6001,7.07842 C79.9576,5.89796 82.4956,6.90135 81.9053,8.37693 C79.9576,12.8627 78.541,21.1849 79.3673,22.8966 C79.7805,23.6049 79.7215,24.1951 79.3083,24.6083 C78.0688,25.8477 78.6001,26.8512 80.3117,26.6741 C82.2004,26.438 82.7317,24.4902 81.6102,22.3064 C81.02,21.244 81.02,20.5357 81.8463,18.5289 C82.3775,17.2304 82.7907,15.5187 82.7907,14.6924 C82.7907,13.8661 83.2038,12.1544 83.735,10.8559 C84.9745,7.84572 84.1482,5.24871 82.2004,5.83894 C81.4332,6.07503 80.9019,5.89796 80.6659,5.30773 C80.2527,4.24532 77.7737,4.00922 77.1835,4.95359 Z" style="stroke:none;fill-rule:evenodd;fill:#000000;fill-opacity:1;"/>
        </g>
        <g id="Shape6">
            <desc shapeID="6" type="0" basicInfo-basicType="0" basicInfo-roundedRectRadius="12" basicInfo-polygonSides="6" basicInfo-starPoints="5" bounding="rect(-41.5048,-17.8563,83.0098,35.7125)" text="" font-familyName="" font-pixelSize="20" font-bold="0" font-underline="0" font-alignment="1" strokeStyle="0" markerStart="0" markerEnd="0" shadowEnabled="0" shadowOffsetX="0" shadowOffsetY="2" shadowBlur="4" shadowOpacity="160" blurEnabled="0" blurRadius="4" transform="matrix(0.590231,0,0,0.590231,35.2799,19.0343)" pers-center="0,0" pers-size="0,0" pers-start="0,0" pers-end="0,0" locked="0" mesh="" flag=""/>
            <path id="shapePath6" d="M19.636,9.0852 C19.1638,9.38032 17.7473,9.67543 16.5078,9.67543 C12.022,9.67543 11.3728,10.8559 12.7303,16.168 C13.3796,18.5879 13.3205,18.883 12.1401,20.1225 C11.2547,20.9488 10.7825,22.1293 10.7825,23.4868 C10.7825,25.2575 11.0187,25.6707 12.3171,25.9658 C13.1435,26.2019 14.501,26.9692 15.3273,27.7365 C17.2161,29.5072 18.9868,30.0384 19.8721,29.153 C20.3443,28.6809 20.0492,28.0906 18.6326,26.9102 C17.6292,26.0248 16.6849,24.7853 16.5668,24.1361 C16.3897,23.2507 15.9176,22.9556 14.7371,23.0737 C13.4976,23.1327 13.1435,22.8966 13.1435,22.0112 C13.1435,21.421 13.6156,20.4176 14.2059,19.8274 C14.9732,19.0601 15.1503,18.0567 15.0322,15.7548 C14.7961,12.8627 14.9142,12.6856 16.3307,12.3315 C17.157,12.1544 18.5736,11.8593 19.4589,11.6822 C20.3443,11.5052 21.2886,11.092 21.4657,10.7379 C22.174,9.61641 23.1774,10.8559 22.8233,12.3905 C22.5281,13.63 22.6462,13.807 23.9447,13.807 C24.9481,13.807 25.5383,14.2202 25.7154,15.1056 C25.9515,15.8729 26.6598,16.6992 27.4271,17.0533 C28.2534,17.4075 28.9026,18.3518 29.0797,19.4142 C29.3748,20.9488 29.6699,21.1849 31.1455,21.0669 C32.1489,21.0079 32.9752,20.6537 33.0933,20.2996 C33.2113,19.9454 33.9786,18.9421 34.7459,18.0567 C36.1035,16.5221 36.2215,16.5221 37.0478,17.5845 C37.9922,18.824 39.7038,18.4699 39.7038,17.0533 C39.7038,15.9319 40.5302,15.9319 41.4745,17.0533 C42.655,18.4108 44.3667,18.1157 46.0193,16.168 C47.79,14.0431 48.2032,13.9841 49.8558,15.8729 C51.5085,17.8206 52.0397,17.7616 54.0464,15.4597 C55.1088,14.2202 55.8171,13.807 55.9942,14.2202 C56.5254,15.4597 58.6502,17.9387 59.2405,17.9387 C60.1849,17.9387 59.8307,15.3417 58.5912,13.3349 C57.1747,11.033 54.9318,10.7969 52.866,12.7446 C52.0987,13.4529 51.5085,13.689 51.5085,13.2758 C51.5085,12.9217 50.8002,12.3315 49.9148,11.9773 C48.0261,11.2691 45.4291,12.1544 44.1896,13.9251 C43.4813,14.8695 43.1272,14.9875 42.1238,14.3973 C41.4155,14.0431 40.2941,13.9251 39.5268,14.1612 C38.8185,14.3973 37.638,14.5744 36.8707,14.4563 C35.2181,14.2792 32.8572,15.7548 32.326,17.2304 C32.0308,18.2928 31.7947,18.1748 29.788,16.227 C28.6075,15.0465 27.368,13.571 27.0139,12.9217 C26.6598,12.2724 25.8924,11.8003 25.3612,11.8003 C24.83,11.8593 24.5349,11.6232 24.712,11.3281 C25.2432,10.5018 23.1774,8.49497 21.7608,8.49497 C21.0526,8.49497 20.1082,8.79009 19.636,9.0852 Z" style="stroke:none;fill-rule:evenodd;fill:#000000;fill-opacity:1;"/>
        </g>
        <g id="Shape7">
            <desc shapeID="7" type="0" basicInfo-basicType="0" basicInfo-roundedRectRadius="12" basicInfo-polygonSides="6" basicInfo-starPoints="5" bounding="rect(-58.6769,-14.8343,117.354,29.6686)" text="" font-familyName="" font-pixelSize="20" font-bold="0" font-underline="0" font-alignment="1" strokeStyle="0" markerStart="0" markerEnd="0" shadowEnabled="0" shadowOffsetX="0" shadowOffsetY="2" shadowBlur="4" shadowOpacity="160" blurEnabled="0" blurRadius="4" transform="matrix(0.590231,0,0,0.590231,48.1578,39.0043)" pers-center="0,0" pers-size="0,0" pers-start="0,0" pers-end="0,0" locked="0" mesh="" flag=""/>
            <path id="shapePath7" d="M16.4487,33.6388 C13.4976,38.0655 12.9664,39.5411 14.0288,40.6035 C14.501,41.0757 15.4454,41.3118 16.0946,41.1347 C17.039,40.8986 17.2751,41.1347 17.2751,42.2562 C17.2751,45.4434 21.4067,47.0961 24.653,45.2073 C27.191,43.6727 31.4996,44.0859 31.7947,45.9156 C32.2079,48.5716 35.3952,48.2765 35.6903,45.5614 L35.8673,43.7908 L37.461,45.0302 C39.4677,46.6239 41.7697,46.6239 42.8321,45.0302 C43.6584,43.9088 43.8355,43.8498 45.4881,44.7351 C46.4915,45.2663 48.7344,45.8566 50.5051,46.0336 C53.2201,46.3878 54.2825,46.1517 57.1156,44.8532 C59.0044,44.0269 60.657,43.3186 60.8931,43.3186 C61.1292,43.3186 61.3063,44.0269 61.2473,44.9122 C61.2473,46.0336 61.6014,46.6239 62.3687,46.7419 C63.5492,46.978 64.6116,45.7976 64.2574,44.7351 C64.0804,44.381 65.0247,43.6727 66.2642,43.1415 C68.271,42.3742 68.9203,42.3742 71.4582,43.0825 C74.9406,44.0859 77.1245,43.4956 78.1869,41.2528 C78.541,40.4265 79.1312,39.7772 79.5444,39.7772 C80.7249,39.7772 82.7907,37.1212 82.7907,35.5275 C82.7907,33.7568 80.3707,31.514 78.482,31.514 C77.3605,31.514 77.4196,31.632 78.9542,33.2847 C80.7839,35.1734 80.6068,35.7046 77.9508,37.0621 C77.2425,37.4163 76.5933,38.1246 76.5342,38.5967 C76.4162,40.7216 76.2391,40.9577 74.8226,40.9577 C73.9962,40.9577 72.1665,40.6035 70.6319,40.2494 C68.0939,39.5411 67.9169,39.6001 66.9135,40.8986 C65.9691,42.1381 65.674,42.1971 63.5492,41.6069 C60.1258,40.6625 58.8863,40.7806 56.4074,42.4923 C54.4596,43.8498 53.7513,43.9678 50.6231,43.7317 C48.6754,43.6137 46.1964,42.9644 45.134,42.3742 L43.1862,41.2528 L41.7697,42.9054 L40.2941,44.5581 L37.9332,42.9644 C35.9264,41.6069 35.2181,41.4298 33.9196,41.902 C32.7981,42.3152 31.5587,42.2562 29.7289,41.7249 C27.368,41.0167 26.9549,41.0757 25.1842,42.1971 C22.233,44.0269 20.6984,43.5547 19.695,40.4855 C19.0458,38.4197 18.6917,37.9475 17.8063,38.1836 C16.8029,38.4787 16.8619,38.1246 18.4555,35.3505 C21.7018,29.6842 20.0492,28.2087 16.4487,33.6388 Z" style="stroke:none;fill-rule:evenodd;fill:#000000;fill-opacity:1;"/>
        </g>
        <g id="Shape8">
            <desc shapeID="8" type="0" basicInfo-basicType="0" basicInfo-roundedRectRadius="12" basicInfo-polygonSides="6" basicInfo-starPoints="5" bounding="rect(-3.611,-40.6155,7.22205,81.2312)" text="" font-familyName="" font-pixelSize="20" font-bold="0" font-underline="0" font-alignment="1" strokeStyle="0" markerStart="0" markerEnd="0" shadowEnabled="0" shadowOffsetX="0" shadowOffsetY="2" shadowBlur="4" shadowOpacity="160" blurEnabled="0" blurRadius="4" transform="matrix(0.590231,0,0,0.499158,75.9178,66.3026)" pers-center="0,0" pers-size="0,0" pers-start="0,0" pers-end="0,0" locked="0" mesh="" flag=""/>
            <path id="shapePath8" d="M74.2913,47.5803 C74.1143,48.6285 73.9372,54.1692 73.8192,59.9594 C73.7011,68.3952 73.8782,71.3901 74.7636,75.3834 C75.3538,78.0789 75.7079,81.6728 75.5899,83.32 C75.4718,85.8657 75.5899,86.4148 76.3572,86.5645 C78.2459,86.864 78.6001,81.3733 77.1835,74.9342 C76.5342,72.2387 76.2391,67.1473 76.1211,58.8613 C76.003,50.8248 75.7669,46.582 75.2947,46.1827 C74.8226,45.7833 74.5865,46.1327 74.2913,47.5803 Z" style="stroke:none;fill-rule:evenodd;fill:#000000;fill-opacity:1;"/>
        </g>
        <g id="Shape9">
            <desc shapeID="9" type="0" basicInfo-basicType="0" basicInfo-roundedRectRadius="12" basicInfo-polygonSides="6" basicInfo-starPoints="5" bounding="rect(-3.34485,-41.9477,6.68972,83.8954)" text="" font-familyName="" font-pixelSize="20" font-bold="0" font-underline="0" font-alignment="1" strokeStyle="0" markerStart="0" markerEnd="0" shadowEnabled="0" shadowOffsetX="0" shadowOffsetY="2" shadowBlur="4" shadowOpacity="160" blurEnabled="0" blurRadius="4" transform="matrix(0.590231,0,0,0.499158,21.7008,67.705)" pers-center="0,0" pers-size="0,0" pers-start="0,0" pers-end="0,0" locked="0" mesh="" flag=""/>
            <path id="shapePath9" d="M21.0526,48.0296 C19.636,49.8265 19.2819,53.9196 20.3443,55.3173 C21.5247,56.8646 21.9969,63.5035 21.2886,68.4451 C20.5804,73.7362 19.7541,87.2634 20.0492,88.0121 C20.4623,88.9605 22.4691,88.8108 22.8233,87.7625 C22.9413,87.3133 23.2364,80.2752 23.4725,72.1888 C23.8266,58.9112 23.7676,57.264 22.8823,55.3173 C21.8789,53.2707 21.8789,50.9746 22.9413,47.8299 C23.4725,46.3324 22.292,46.4322 21.0526,48.0296 Z" style="stroke:none;fill-rule:evenodd;fill:#000000;fill-opacity:1;"/>
        </g>
        <g id="Shape10">
            <desc shapeID="10" type="0" basicInfo-basicType="0" basicInfo-roundedRectRadius="12" basicInfo-polygonSides="6" basicInfo-starPoints="5" bounding="rect(-15.1896,-15.3869,30.3793,30.7739)" text="" font-familyName="" font-pixelSize="20" font-bold="0" font-underline="0" font-alignment="1" strokeStyle="0" markerStart="0" markerEnd="0" shadowEnabled="0" shadowOffsetX="0" shadowOffsetY="2" shadowBlur="4" shadowOpacity="160" blurEnabled="0" blurRadius="4" transform="matrix(0.590231,0,0,0.590231,49.5199,60.1389)" pers-center="0,0" pers-size="0,0" pers-start="0,0" pers-end="0,0" locked="0" mesh="" flag=""/>
            <path id="shapePath10" d="M46.6096,52.172 C45.37,52.7623 43.7765,53.3525 43.0682,53.4706 C40.9433,53.7657 41.0614,56.3627 43.2452,58.6055 C44.2486,59.6089 45.6062,60.4353 46.2554,60.4353 C47.1407,60.4353 47.3768,60.8484 47.3768,62.265 C47.3768,63.2684 47.672,64.5669 47.9671,65.2161 C48.5573,66.2785 48.3802,66.3376 44.7798,66.3376 C40.7663,66.3376 39.999,66.6917 40.8843,68.1083 C41.2975,68.7575 42.8911,69.0526 46.4325,69.1707 C51.7446,69.4068 53.6923,68.8756 57.1156,66.1015 C59.5946,64.0947 58.5322,63.5045 55.345,65.0391 C51.1543,67.0459 50.5051,66.8688 50.2099,63.3864 C50.0329,60.6123 50.1509,60.4353 51.7446,59.727 C53.4562,59.0187 55.6401,56.1266 55.6401,54.4739 C55.6401,54.0018 55.0498,52.9984 54.2825,52.2901 C52.5709,50.6965 49.6788,50.6374 46.6096,52.172 M52.6299,53.8837 C53.5743,54.533 53.1021,56.3627 51.5085,57.7792 C50.0919,59.0777 46.4325,58.3695 45.193,56.4807 C44.4257,55.3003 44.4847,55.1822 46.9047,54.3559 C49.8558,53.2935 51.5085,53.1754 52.6299,53.8837 Z" style="stroke:none;fill-rule:evenodd;fill:#000000;fill-opacity:1;"/>
        </g>
        <g id="Shape11">
            <desc shapeID="11" type="0" basicInfo-basicType="0" basicInfo-roundedRectRadius="12" basicInfo-polygonSides="6" basicInfo-starPoints="5" bounding="rect(-2.23152,-12.4372,4.46303,24.8744)" text="" font-familyName="" font-pixelSize="20" font-bold="0" font-underline="0" font-alignment="1" strokeStyle="0" markerStart="0" markerEnd="0" shadowEnabled="0" shadowOffsetX="0" shadowOffsetY="2" shadowBlur="4" shadowOpacity="160" blurEnabled="0" blurRadius="4" transform="matrix(0.583836,0.0866499,-0.0866499,0.583836,61.782,89.0126)" pers-center="0,0" pers-size="0,0" pers-start="0,0" pers-end="0,0" locked="0" mesh="" flag=""/>
            <path id="shapePath11" d="M61.7683,83.2004 C60.8812,85.1572 59.3735,95.3159 59.821,95.9194 C60.0198,96.1876 60.595,96.3326 61.1464,96.2354 C61.8904,96.0475 62.2388,94.9058 62.9234,90.2935 C63.8072,84.3384 63.8122,81.8927 62.9364,81.7627 C62.6445,81.7194 62.1318,82.3593 61.7683,83.2004 Z" style="stroke:none;fill-rule:evenodd;fill:#000000;fill-opacity:1;"/>
        </g>
        <g id="Shape12">
            <desc shapeID="12" type="0" basicInfo-basicType="0" basicInfo-roundedRectRadius="12" basicInfo-polygonSides="6" basicInfo-starPoints="5" bounding="rect(-11.2286,-12.5939,22.4571,25.1877)" text="" font-familyName="" font-pixelSize="20" font-bold="0" font-underline="0" font-alignment="1" strokeStyle="0" markerStart="0" markerEnd="0" shadowEnabled="0" shadowOffsetX="0" shadowOffsetY="2" shadowBlur="4" shadowOpacity="160" blurEnabled="0" blurRadius="4" transform="matrix(0.583836,0.0866499,-0.0866499,0.583836,28.2187,88.8984)" pers-center="0,0" pers-size="0,0" pers-start="0,0" pers-end="0,0" locked="0" mesh="" flag=""/>
            <path id="shapePath12" d="M32.6856,83.3593 C32.3978,84.0923 31.8501,86.5768 31.5035,88.9122 C30.8883,93.0574 30.8126,93.1655 29.6385,92.6332 C28.9142,92.2871 27.6753,91.3872 26.8862,90.6733 C26.0561,89.8341 24.7155,89.2175 23.8224,89.2043 C22.579,89.1391 22.1011,89.5455 21.4238,91.2947 C20.7464,93.0439 20.7095,93.6948 21.3061,94.4994 C22.3005,95.8404 25.0445,96.2476 26.1023,95.1516 C26.8074,94.4208 27.3999,94.4491 29.9492,95.3645 C33.1233,96.4919 34.2522,96.1225 34.0041,94.1762 C33.9566,93.6918 34.0026,91.3715 34.1567,89.1269 C34.4609,83.8615 34.3942,82.3002 33.752,82.2049 C33.4601,82.1615 33.0231,82.6934 32.6856,83.3593 M24.6627,92.7898 C24.602,93.1985 24.1824,93.6136 23.8148,93.6783 C23.3217,93.7842 23.0905,93.3322 23.2031,92.5732 C23.3157,91.8142 23.6683,91.4488 24.118,91.6349 C24.4424,91.8621 24.7233,92.3811 24.6627,92.7898 Z" style="stroke:none;fill-rule:evenodd;fill:#000000;fill-opacity:1;"/>
        </g>
        <g id="Shape13">
            <desc shapeID="13" type="0" basicInfo-basicType="0" basicInfo-roundedRectRadius="12" basicInfo-polygonSides="6" basicInfo-starPoints="5" bounding="rect(-11.9316,-6.38469,23.8632,12.7694)" text="" font-familyName="" font-pixelSize="20" font-bold="0" font-underline="0" font-alignment="1" strokeStyle="0" markerStart="0" markerEnd="0" shadowEnabled="0" shadowOffsetX="0" shadowOffsetY="2" shadowBlur="4" shadowOpacity="160" blurEnabled="0" blurRadius="4" transform="matrix(0.583836,0.0866499,-0.0866499,0.583836,71.4707,92.7342)" pers-center="0,0" pers-size="0,0" pers-start="0,0" pers-end="0,0" locked="0" mesh="" flag=""/>
            <path id="shapePath13" d="M76.7411,91.2702 C74.2256,93.3434 73.3822,93.3972 72.9179,91.2995 C72.4535,89.2018 71.435,89.2297 68.9022,91.4196 C66.9728,93.162 66.7306,93.1857 66.8369,92.0677 C66.9409,91.3672 66.913,90.3486 66.8072,89.8556 C66.4076,88.1255 64.7962,89.7361 64.4322,92.1882 C64.181,93.8813 64.3689,94.6253 65.2834,95.298 C66.3061,96.0465 66.6737,95.9817 68.3759,94.5636 C69.6001,93.5519 70.2359,93.2883 70.1493,93.8721 C70.0713,94.3975 70.6095,95.1935 71.3749,95.6651 C72.5143,96.4309 73.0571,96.3921 74.5386,95.6572 C76.3553,94.6738 79.1371,91.2082 78.9427,90.1053 C78.8693,89.796 77.8982,90.3083 76.7411,91.2702 Z" style="stroke:none;fill-rule:evenodd;fill:#000000;fill-opacity:1;"/>
        </g>
        <g id="Shape14">
            <desc shapeID="14" type="0" basicInfo-basicType="0" basicInfo-roundedRectRadius="12" basicInfo-polygonSides="6" basicInfo-starPoints="5" bounding="rect(-9.94441,-7.00787,19.8889,14.0158)" text="" font-familyName="" font-pixelSize="20" font-bold="0" font-underline="0" font-alignment="1" strokeStyle="0" markerStart="0" markerEnd="0" shadowEnabled="0" shadowOffsetX="0" shadowOffsetY="2" shadowBlur="4" shadowOpacity="160" blurEnabled="0" blurRadius="4" transform="matrix(0.583836,0.0866499,-0.0866499,0.583836,53.2553,91.7256)" pers-center="0,0" pers-size="0,0" pers-start="0,0" pers-end="0,0" locked="0" mesh="" flag=""/>
            <path id="shapePath14" d="M51.1125,88.66 C48.2253,90.0215 46.9815,91.5674 47.1713,93.505 C47.4108,95.5096 50.5549,96.0359 52.7178,94.3281 C54.0003,93.3251 54.4264,93.269 55.7496,94.0024 C56.6317,94.4913 57.7907,94.723 58.3422,94.6259 C59.2115,94.3969 59.0063,93.7697 56.851,91.0034 C55.4503,89.1844 54.1316,87.6163 53.8894,87.64 C53.6558,87.6054 52.3928,88.0743 51.1125,88.66 M53.1747,91.6512 C53.0881,92.235 50.6031,93.2983 50.2465,92.8873 C50.147,92.7532 50.5429,92.0959 51.1723,91.4733 C52.1717,90.3686 53.348,90.4835 53.1747,91.6512 Z" style="stroke:none;fill-rule:evenodd;fill:#000000;fill-opacity:1;"/>
        </g>
        <g id="Shape15">
            <desc shapeID="15" type="0" basicInfo-basicType="0" basicInfo-roundedRectRadius="12" basicInfo-polygonSides="6" basicInfo-starPoints="5" bounding="rect(-8.95868,-7.60427,17.9173,15.2085)" text="" font-familyName="" font-pixelSize="20" font-bold="0" font-underline="0" font-alignment="1" strokeStyle="0" markerStart="0" markerEnd="0" shadowEnabled="0" shadowOffsetX="0" shadowOffsetY="2" shadowBlur="4" shadowOpacity="160" blurEnabled="0" blurRadius="4" transform="matrix(0.583836,0.0866499,-0.0866499,0.583836,40.8869,92.1284)" pers-center="0,0" pers-size="0,0" pers-start="0,0" pers-end="0,0" locked="0" mesh="" flag=""/>
            <path id="shapePath15" d="M40.8973,88.3372 C40.6441,88.8367 40.313,89.8616 40.209,90.5622 C40.1051,91.2628 39.5988,92.2617 39.0948,92.8433 C38.1972,93.6648 38.0977,93.5307 38.068,91.3185 C38.0429,88.2716 37.2515,87.9752 36.0766,90.6649 C34.8173,93.5212 35.3487,95.5692 37.5089,95.8898 C38.3847,96.0197 39.4789,95.8838 39.8812,95.5855 C40.4176,95.1877 40.9841,95.3911 41.9397,96.1893 C43.252,97.3985 44.863,97.3989 45.512,96.2422 C46.001,95.36 45.6055,94.4063 44.5482,93.8913 C44.1655,93.6555 43.5387,92.2498 43.2212,90.7706 C42.636,87.8793 41.6977,86.9643 40.8973,88.3372 Z" style="stroke:none;fill-rule:evenodd;fill:#000000;fill-opacity:1;"/>
        </g>
    </g>
</svg>
