<?xml version="1.0"?>
<svg version="1.1" xmlns="http://www.w3.org/2000/svg" xmlns:xlink="http://www.w3.org/1999/xlink" width="600" height="160">
    <desc iVinci="yes" version="4.6" gridStep="20" showGrid="no" snapToGrid="no" codePlatform="0"/>
    <g id="Layer1" name="gmail" opacity="1">
        <g id="Shape1">
            <desc shapeID="1" type="0" basicInfo-basicType="0" basicInfo-roundedRectRadius="12" basicInfo-polygonSides="6" basicInfo-starPoints="5" bounding="rect(-5.09294,-5.1025,10.1858,10.2051)" text="+" font-familyName="Helvetica" font-pixelSize="20" font-bold="0" font-underline="0" font-alignment="1" strokeStyle="0" markerStart="0" markerEnd="0" shadowEnabled="0" shadowOffsetX="0" shadowOffsetY="2" shadowBlur="4" shadowOpacity="160" blurEnabled="0" blurRadius="4" transform="matrix(1.71022,0,0,1.71022,215.518,77.5793)" pers-center="0,0" pers-size="0,0" pers-start="0,0" pers-end="0,0" locked="0" mesh="" flag=""/>
            <path id="shapePath1" d="M206.808,78.9906 L206.808,76.1848 L214.09,76.1848 L214.09,68.8529 L216.946,68.8529 L216.946,76.1848 L224.228,76.1848 L224.228,78.9906 L216.946,78.9906 L216.946,86.3058 L214.09,86.3058 L214.09,78.9906 L206.808,78.9906 Z" style="stroke:none;fill-rule:evenodd;fill:#8a8c91;fill-opacity:1;"/>
        </g>
        <g id="Shape2">
            <desc shapeID="2" type="0" basicInfo-basicType="0" basicInfo-roundedRectRadius="12" basicInfo-polygonSides="6" basicInfo-starPoints="5" bounding="rect(-5.09296,-5.1025,10.1858,10.2051)" text="+" font-familyName="Helvetica" font-pixelSize="20" font-bold="0" font-underline="0" font-alignment="1" strokeStyle="0" markerStart="0" markerEnd="0" shadowEnabled="0" shadowOffsetX="0" shadowOffsetY="2" shadowBlur="4" shadowOpacity="160" blurEnabled="0" blurRadius="4" transform="matrix(1.71022,0,0,1.71022,366.95,79.8563)" pers-center="0,0" pers-size="0,0" pers-start="0,0" pers-end="0,0" locked="0" mesh="" flag=""/>
            <path id="shapePath2" d="M358.239,81.2676 L358.239,78.4618 L365.521,78.4618 L365.521,71.1299 L368.377,71.1299 L368.377,78.4618 L375.659,78.4618 L375.659,81.2676 L368.377,81.2676 L368.377,88.5828 L365.521,88.5828 L365.521,81.2676 L358.239,81.2676 Z" style="stroke:none;fill-rule:evenodd;fill:#8a8c91;fill-opacity:1;"/>
        </g>
        <g id="Shape3">
            <desc shapeID="3" type="0" basicInfo-basicType="0" basicInfo-roundedRectRadius="12" basicInfo-polygonSides="6" basicInfo-starPoints="5" bounding="rect(-137.9,-46.9998,275.799,93.9996)" text="" font-familyName="" font-pixelSize="20" font-bold="0" font-underline="0" font-alignment="1" strokeStyle="0" markerStart="0" markerEnd="0" shadowEnabled="0" shadowOffsetX="0" shadowOffsetY="2" shadowBlur="4" shadowOpacity="160" blurEnabled="0" blurRadius="4" transform="matrix(0.273416,0,0,0.273416,123,65.8495)" pers-center="0,0" pers-size="0,0" pers-start="0,0" pers-end="0,0" locked="0" mesh="" flag=""/>
            <path id="shapePath3" d="M105.064,70.853 C105.064,71.8647 105.174,72.6849 105.365,73.2864 C105.584,73.8879 105.857,74.5441 106.24,75.255 C106.377,75.4737 106.431,75.6925 106.431,75.8839 C106.431,76.1573 106.267,76.4307 105.912,76.7041 L104.189,77.8525 C103.943,78.0165 103.697,78.0985 103.478,78.0985 C103.205,78.0985 102.932,77.9618 102.658,77.7157 C102.275,77.3056 101.947,76.8682 101.674,76.4307 C101.4,75.9659 101.127,75.4464 100.826,74.8175 C98.694,77.333 96.014,78.5907 92.788,78.5907 C90.491,78.5907 88.659,77.9345 87.32,76.6221 C85.98,75.3097 85.296,73.5598 85.296,71.3725 C85.296,69.0485 86.117,67.1619 87.784,65.7401 C89.452,64.3184 91.667,63.6075 94.483,63.6075 C95.413,63.6075 96.37,63.6895 97.381,63.8262 C98.393,63.9629 99.432,64.1817 100.526,64.4277 L100.526,62.4318 C100.526,60.3538 100.088,58.9047 99.24,58.0572 C98.366,57.2096 96.889,56.7994 94.784,56.7994 C93.827,56.7994 92.843,56.9088 91.831,57.1549 C90.819,57.401 89.835,57.7017 88.878,58.0845 C88.441,58.2759 88.112,58.3852 87.921,58.4399 C87.73,58.4946 87.593,58.522 87.484,58.522 C87.101,58.522 86.909,58.2485 86.909,57.6744 L86.909,56.3346 C86.909,55.8972 86.964,55.5691 87.101,55.3777 C87.238,55.1863 87.484,54.9949 87.866,54.8035 C88.823,54.3114 89.972,53.9012 91.311,53.5731 C92.651,53.2177 94.073,53.0536 95.577,53.0536 C98.83,53.0536 101.209,53.7919 102.74,55.2683 C104.244,56.7447 105.01,58.9868 105.01,61.9943 L105.01,70.853 L105.064,70.853 M93.964,75.0089 C94.866,75.0089 95.795,74.8449 96.78,74.5168 C97.764,74.1887 98.639,73.5872 99.377,72.7669 C99.815,72.2474 100.143,71.6733 100.307,71.0171 C100.471,70.3609 100.58,69.568 100.58,68.6383 L100.58,67.49 C99.787,67.2986 98.94,67.1346 98.065,67.0252 C97.19,66.9158 96.342,66.8611 95.495,66.8611 C93.663,66.8611 92.323,67.2166 91.421,67.9548 C90.519,68.693 90.081,69.732 90.081,71.0991 C90.081,72.3841 90.409,73.3411 91.093,73.9973 C91.749,74.6808 92.706,75.0089 93.964,75.0089 M115.919,77.9618 C115.427,77.9618 115.099,77.8798 114.88,77.6884 C114.661,77.5244 114.47,77.1416 114.306,76.6221 L107.88,55.487 C107.716,54.9402 107.634,54.5848 107.634,54.3934 C107.634,53.9559 107.853,53.7098 108.291,53.7098 L110.97,53.7098 C111.49,53.7098 111.845,53.7919 112.036,53.9833 C112.255,54.1473 112.419,54.5301 112.583,55.0496 L117.177,73.1497 L121.442,55.0496 C121.579,54.5027 121.743,54.1473 121.961,53.9833 C122.18,53.8192 122.563,53.7098 123.055,53.7098 L125.242,53.7098 C125.762,53.7098 126.117,53.7919 126.336,53.9833 C126.555,54.1473 126.746,54.5301 126.855,55.0496 L131.175,73.3684 L135.906,55.0496 C136.07,54.5027 136.261,54.1473 136.452,53.9833 C136.671,53.8192 137.027,53.7098 137.519,53.7098 L140.061,53.7098 C140.499,53.7098 140.745,53.9286 140.745,54.3934 C140.745,54.5301 140.718,54.6668 140.69,54.8308 C140.663,54.9949 140.608,55.2136 140.499,55.5144 L133.91,76.6494 C133.746,77.1963 133.554,77.5517 133.335,77.7157 C133.117,77.8798 132.761,77.9892 132.296,77.9892 L129.945,77.9892 C129.426,77.9892 129.07,77.9071 128.851,77.7157 C128.633,77.5244 128.441,77.1689 128.332,76.6221 L124.094,58.9868 L119.883,76.5947 C119.747,77.1416 119.583,77.497 119.364,77.6884 C119.145,77.8798 118.762,77.9618 118.27,77.9618 L115.919,77.9618 M151.053,78.7 C149.631,78.7 148.209,78.536 146.842,78.2079 C145.475,77.8798 144.409,77.5244 143.698,77.1142 C143.26,76.8682 142.96,76.5947 142.85,76.3487 C142.741,76.1026 142.686,75.8292 142.686,75.5831 L142.686,74.1887 C142.686,73.6145 142.905,73.3411 143.315,73.3411 C143.479,73.3411 143.643,73.3684 143.807,73.4231 C143.971,73.4778 144.217,73.5872 144.491,73.6965 C145.42,74.1067 146.432,74.4348 147.498,74.6535 C148.592,74.8722 149.658,74.9816 150.752,74.9816 C152.475,74.9816 153.814,74.6808 154.744,74.0793 C155.674,73.4778 156.166,72.6029 156.166,71.4819 C156.166,70.7163 155.92,70.0874 155.427,69.568 C154.935,69.0485 154.006,68.5837 152.666,68.1462 L148.701,66.9158 C146.705,66.287 145.229,65.3574 144.327,64.127 C143.424,62.9239 142.96,61.5842 142.96,60.1625 C142.96,59.0141 143.206,58.0025 143.698,57.1275 C144.19,56.2526 144.846,55.487 145.666,54.8855 C146.487,54.2567 147.416,53.7919 148.51,53.4638 C149.604,53.1357 150.752,52.999 151.955,52.999 C152.557,52.999 153.185,53.0263 153.787,53.1083 C154.416,53.1903 154.99,53.2997 155.564,53.4091 C156.111,53.5458 156.63,53.6825 157.123,53.8465 C157.615,54.0106 157.998,54.1746 158.271,54.3387 C158.654,54.5574 158.927,54.7762 159.091,55.0222 C159.255,55.241 159.337,55.5417 159.337,55.9245 L159.337,57.2096 C159.337,57.7837 159.119,58.0845 158.708,58.0845 C158.49,58.0845 158.134,57.9751 157.669,57.7564 C156.111,57.0455 154.361,56.6901 152.42,56.6901 C150.861,56.6901 149.631,56.9361 148.783,57.4556 C147.936,57.9751 147.498,58.768 147.498,59.889 C147.498,60.6546 147.772,61.3108 148.319,61.8303 C148.865,62.3498 149.877,62.8693 151.326,63.3341 L155.209,64.5644 C157.177,65.1933 158.599,66.0682 159.447,67.1892 C160.294,68.3102 160.704,69.5953 160.704,71.0171 C160.704,72.1927 160.458,73.2591 159.993,74.1887 C159.501,75.1183 158.845,75.9385 157.998,76.5947 C157.15,77.2783 156.138,77.7704 154.963,78.1259 C153.732,78.5087 152.447,78.7 151.053,78.7 Z" style="stroke:none;fill-rule:evenodd;fill:#252f3e;fill-opacity:1;"/>
        </g>
        <g id="Shape4">
            <desc shapeID="4" type="0" basicInfo-basicType="0" basicInfo-roundedRectRadius="12" basicInfo-polygonSides="6" basicInfo-starPoints="5" bounding="rect(-137.11,-30.8794,274.22,61.7588)" text="" font-familyName="" font-pixelSize="20" font-bold="0" font-underline="0" font-alignment="1" strokeStyle="0" markerStart="0" markerEnd="0" shadowEnabled="0" shadowOffsetX="0" shadowOffsetY="2" shadowBlur="4" shadowOpacity="160" blurEnabled="0" blurRadius="4" transform="matrix(0.273416,0,0,0.273416,119.385,93.7167)" pers-center="0,0" pers-size="0,0" pers-start="0,0" pers-end="0,0" locked="0" mesh="" flag=""/>
            <path id="shapePath4" d="M156.22,91.9876 C147.225,98.6316 134.156,102.16 122.918,102.16 C107.17,102.16 92.979,96.3356 82.261,86.6565 C81.414,85.8909 82.179,84.8519 83.191,85.4534 C94.784,92.1796 109.083,96.2536 123.875,96.2536 C133.855,96.2536 144.819,94.1756 154.908,89.9106 C156.412,89.2266 157.697,90.8946 156.22,91.9876 Z" style="stroke:none;fill-rule:evenodd;fill:#ff9900;fill-opacity:1;"/>
        </g>
        <g id="Shape5">
            <desc shapeID="5" type="0" basicInfo-basicType="0" basicInfo-roundedRectRadius="12" basicInfo-polygonSides="6" basicInfo-starPoints="5" bounding="rect(-28.1759,-27.7557,56.3516,55.5115)" text="" font-familyName="" font-pixelSize="20" font-bold="0" font-underline="0" font-alignment="1" strokeStyle="0" markerStart="0" markerEnd="0" shadowEnabled="0" shadowOffsetX="0" shadowOffsetY="2" shadowBlur="4" shadowOpacity="160" blurEnabled="0" blurRadius="4" transform="matrix(0.273416,0,0,0.273416,156.402,91.2356)" pers-center="0,0" pers-size="0,0" pers-start="0,0" pers-end="0,0" locked="0" mesh="" flag=""/>
            <path id="shapePath5" d="M159.966,87.7228 C158.818,86.2463 152.365,87.0119 149.44,87.3673 C148.565,87.4767 148.428,86.7111 149.221,86.137 C154.361,82.5279 162.81,83.5668 163.794,84.7699 C164.778,86.0003 163.521,94.4486 158.708,98.4956 C157.97,99.1246 157.259,98.7966 157.587,97.9756 C158.681,95.2686 161.115,89.1719 159.966,87.7228 Z" style="stroke:none;fill-rule:evenodd;fill:#ff9900;fill-opacity:1;"/>
        </g>
        <g id="Shape6">
            <desc shapeID="6" type="0" basicInfo-basicType="0" basicInfo-roundedRectRadius="12" basicInfo-polygonSides="6" basicInfo-starPoints="5" bounding="rect(-91.2633,-104.875,182.527,209.752)" text="" font-familyName="" font-pixelSize="20" font-bold="0" font-underline="0" font-alignment="1" strokeStyle="0" markerStart="0" markerEnd="0" shadowEnabled="0" shadowOffsetX="0" shadowOffsetY="2" shadowBlur="4" shadowOpacity="160" blurEnabled="0" blurRadius="4" transform="matrix(0.277129,0,0,0.277129,427,77.579)" pers-center="0,0" pers-size="0,0" pers-start="0,0" pers-end="0,0" locked="0" mesh="" flag=""/>
            <path id="shapePath6" d="M424.793,48.8064 C423.99,49.1112 409.357,57.6468 406.336,59.5867 C405.921,59.8638 405.339,60.1964 405.034,60.335 C404.258,60.6952 402.845,62.2471 402.235,63.4111 C401.736,64.3256 401.708,65.2401 401.708,77.5447 C401.708,90.5143 401.708,90.736 402.318,91.8168 C402.928,92.9808 404.175,94.2833 405.145,94.8375 C405.45,95.0038 409.773,97.5534 414.733,100.518 C419.722,103.484 424.294,106.061 424.932,106.283 C427.149,107.059 429.172,106.615 432.248,104.62 C432.913,104.204 433.495,103.872 433.578,103.872 C433.634,103.872 434.354,103.456 435.158,102.93 C435.962,102.431 437.07,101.766 437.597,101.488 C441.449,99.3552 449.79,94.2001 450.455,93.5073 C452.284,91.5397 452.257,91.7337 452.284,77.6001 C452.312,65.545 452.284,64.769 451.786,63.6051 C450.982,61.776 449.735,60.7784 444.192,57.5082 C438.317,54.0441 438.4,54.0718 436.904,53.1573 C436.294,52.797 435.241,52.1874 434.548,51.7994 C433.855,51.4391 432.802,50.8017 432.193,50.4137 C429.92,48.9727 429.116,48.6401 427.481,48.5293 C426.484,48.4738 425.403,48.5847 424.793,48.8064 M438.982,56.1226 C446.88,60.8061 448.987,62.1917 449.735,63.134 C450.76,64.4642 450.871,64.963 450.095,64.5196 C448.959,63.9099 448.959,63.9099 441.532,68.5103 C440.285,69.2862 439.01,70.0345 438.761,70.2008 C438.483,70.3393 436.654,71.4756 434.687,72.7226 C432.691,73.942 430.585,75.2445 429.976,75.6325 C428.257,76.6579 427.315,77.5724 426.761,78.7918 C426.29,79.8171 426.234,80.8425 426.234,91.706 C426.234,103.234 426.234,103.539 426.816,104.26 L427.371,104.98 L426.373,104.98 C425.819,104.98 425.098,104.842 424.766,104.675 C423.602,104.066 417.505,100.491 416.064,99.5492 C415.26,99.0222 414.539,98.6062 414.484,98.6062 C414.373,98.6062 409.357,95.6412 407.944,94.7267 C407.722,94.5881 406.946,94.117 406.253,93.7013 C405.505,93.2856 404.563,92.3711 404.036,91.5951 L403.094,90.2095 L403.094,77.5447 L403.094,64.8799 L404.009,63.5219 C404.784,62.3857 405.616,61.776 409.135,59.6698 C411.436,58.2842 413.847,56.8708 414.456,56.4829 C416.452,55.2912 422.16,51.8825 423.574,51.0788 C425.153,50.1643 426.484,49.8872 428.036,50.1366 C428.784,50.2475 432.387,52.2151 438.982,56.1226 M435.407,82.1173 C436.183,81.951 436.211,81.9787 436.211,82.8933 C436.211,83.7801 436.156,83.8632 435.13,84.0295 C434.382,84.1404 433.828,84.4729 433.329,85.0549 C432.137,86.4682 432.414,87.1056 434.41,87.3828 C436.128,87.6322 436.433,87.8816 436.654,89.101 C436.904,90.3758 436.377,92.1217 435.352,93.3965 C434.881,94.0062 434.548,94.7544 434.548,95.2255 C434.548,96.0846 433.938,96.8329 433.44,96.528 C433.301,96.4449 433.163,96.1123 433.163,95.8075 C433.163,95.3918 432.969,95.2809 432.193,95.2809 C431.361,95.2809 431.223,95.1978 431.223,94.6436 C431.223,93.8399 431.638,93.2302 431.999,93.4519 C432.47,93.729 434.132,92.9253 434.659,92.2048 C435.269,91.318 435.241,90.0986 434.576,89.7384 C434.271,89.5998 433.606,89.4612 433.079,89.4612 C431.638,89.4612 431.112,88.713 431.278,86.8562 C431.361,85.72 431.611,85.1103 432.276,84.2512 C432.83,83.5584 433.163,82.8378 433.163,82.3113 C433.163,81.7293 433.384,81.3136 433.8,81.0088 C434.382,80.5931 434.41,80.5931 434.493,81.4245 C434.576,82.2282 434.659,82.2836 435.407,82.1173 Z" style="stroke:none;fill-rule:evenodd;fill:#4d4d4d;fill-opacity:1;"/>
        </g>
        <g id="Shape7">
            <desc shapeID="7" type="0" basicInfo-basicType="0" basicInfo-roundedRectRadius="12" basicInfo-polygonSides="6" basicInfo-starPoints="5" bounding="rect(-34.4015,-46.7456,68.8031,93.4912)" text="" font-familyName="" font-pixelSize="20" font-bold="0" font-underline="0" font-alignment="1" strokeStyle="0" markerStart="0" markerEnd="0" shadowEnabled="0" shadowOffsetX="0" shadowOffsetY="2" shadowBlur="4" shadowOpacity="160" blurEnabled="0" blurRadius="4" transform="matrix(0.277129,0,0,0.277129,509.803,77.5417)" pers-center="0,0" pers-size="0,0" pers-start="0,0" pers-end="0,0" locked="0" mesh="" flag=""/>
            <path id="shapePath7" d="M507.433,64.8244 C505.022,65.2956 502.639,67.0138 501.53,69.0922 C500.727,70.6164 500.727,73.1106 501.558,74.6625 C502.694,76.8518 505.216,78.5146 509.373,79.7894 C513.114,80.9534 514.583,82.3667 513.835,84.1126 C513.253,85.4706 512.283,85.9417 510.066,85.9694 C508.292,85.9694 507.96,85.8863 507.073,85.2211 C506.491,84.7778 505.964,84.0572 505.77,83.4475 C505.188,81.6739 504.8,81.4245 502.722,81.4245 C500.422,81.4245 500.089,81.7293 500.339,83.5584 C500.81,86.9948 504.274,89.9046 508.569,90.4312 C510.509,90.6806 513.779,90.1818 515.22,89.4612 C518.629,87.7153 520.237,83.8632 518.823,80.7871 C517.632,78.2098 515.387,76.6024 511.036,75.2445 C507.017,73.9697 505.715,72.7503 506.463,70.9767 C507.017,69.6742 508.043,69.1477 509.9,69.1477 C511.895,69.1477 513.059,69.8682 513.53,71.3924 C514.195,73.4709 514.445,73.6649 516.551,73.6649 C518.019,73.6649 518.518,73.554 518.879,73.166 C519.488,72.5009 519.461,72.0575 518.768,70.173 C517.216,66.0438 512.56,63.8268 507.433,64.8244 Z" style="stroke:none;fill-rule:evenodd;fill:#4d4d4d;fill-opacity:1;"/>
        </g>
        <g id="Shape8">
            <desc shapeID="8" type="0" basicInfo-basicType="0" basicInfo-roundedRectRadius="12" basicInfo-polygonSides="6" basicInfo-starPoints="5" bounding="rect(-32.4993,-45.9943,64.9986,91.9886)" text="" font-familyName="" font-pixelSize="20" font-bold="0" font-underline="0" font-alignment="1" strokeStyle="0" markerStart="0" markerEnd="0" shadowEnabled="0" shadowOffsetX="0" shadowOffsetY="2" shadowBlur="4" shadowOpacity="160" blurEnabled="0" blurRadius="4" transform="matrix(0.277129,0,0,0.277129,468.497,77.5406)" pers-center="0,0" pers-size="0,0" pers-start="0,0" pers-end="0,0" locked="0" mesh="" flag=""/>
            <path id="shapePath8" d="M459.795,65.2956 C459.601,65.6835 459.49,69.6188 459.49,77.6555 C459.49,88.325 459.545,89.4612 459.961,89.8769 C460.377,90.2926 461.014,90.348 465.698,90.2372 C470.048,90.1263 471.212,90.0155 472.238,89.5998 C475.84,88.1033 477.476,85.8863 477.503,82.5884 C477.503,80.5931 476.949,79.2629 475.48,77.7664 L474.566,76.7964 L475.48,75.7433 C477.808,73.0275 477.198,68.9537 474.122,66.6812 C472.155,65.2124 471.102,64.9907 465.393,64.8522 C460.266,64.7413 460.1,64.7413 459.795,65.2956 M469.55,69.6188 C471.129,70.2008 471.683,70.8104 471.683,72.0021 C471.683,72.6949 471.489,73.1938 471.074,73.5817 C469.965,74.5794 469.272,74.7734 467,74.7734 L464.755,74.7734 L464.755,72.0021 L464.755,69.2308 L466.64,69.2308 C467.665,69.2585 468.968,69.4248 469.55,69.6188 M470.547,79.7617 C471.185,80.0666 471.794,80.6485 472.071,81.2582 C472.653,82.4776 472.626,82.7547 471.961,83.8632 C471.129,85.1934 469.522,85.8586 466.917,85.8586 L464.755,85.8586 L464.755,82.533 L464.755,79.2075 L467.111,79.2075 C468.912,79.2075 469.744,79.346 470.547,79.7617 Z" style="stroke:none;fill-rule:evenodd;fill:#4d4d4d;fill-opacity:1;"/>
        </g>
        <g id="Shape9">
            <desc shapeID="9" type="0" basicInfo-basicType="0" basicInfo-roundedRectRadius="12" basicInfo-polygonSides="6" basicInfo-starPoints="5" bounding="rect(-36.1457,-45.9782,72.2915,91.9564)" text="" font-familyName="" font-pixelSize="20" font-bold="0" font-underline="0" font-alignment="1" strokeStyle="0" markerStart="0" markerEnd="0" shadowEnabled="0" shadowOffsetX="0" shadowOffsetY="2" shadowBlur="4" shadowOpacity="160" blurEnabled="0" blurRadius="4" transform="matrix(0.277129,0,0,0.277129,488.95,77.5386)" pers-center="0,0" pers-size="0,0" pers-start="0,0" pers-end="0,0" locked="0" mesh="" flag=""/>
            <path id="shapePath9" d="M486.953,65.3787 C486.676,65.6835 486.344,66.4041 486.233,66.9306 C486.15,67.4849 485.956,68.1223 485.817,68.3717 C485.679,68.6211 484.625,71.6141 483.489,75.0505 C482.353,78.4869 480.856,82.8933 480.164,84.8886 C478.806,88.7407 478.639,89.8492 479.332,90.1263 C479.942,90.348 483.129,90.3203 483.489,90.0709 C483.655,89.9601 484.127,88.8516 484.515,87.5768 C485.679,83.9187 485.346,84.1958 489.087,84.1958 L492.33,84.1958 L493.272,87.1056 C494.325,90.3758 494.325,90.3758 497.013,90.2372 C498.177,90.1818 498.731,90.0155 498.925,89.6829 C499.175,89.3227 498.343,86.5514 495.267,77.2953 C493.078,70.755 491.166,65.2678 490.999,65.1016 C490.833,64.9353 489.974,64.7967 489.087,64.7967 C487.84,64.7967 487.397,64.9076 486.953,65.3787 M490.113,77.129 C490.501,78.2929 490.805,79.3183 490.805,79.3737 C490.805,79.4292 490.002,79.4846 489.032,79.4846 L487.258,79.4846 L487.508,78.4315 C487.674,77.8772 487.979,76.8519 488.228,76.159 C488.45,75.4662 488.699,74.718 488.782,74.4963 C488.949,73.9143 489.226,74.4408 490.113,77.129 Z" style="stroke:none;fill-rule:evenodd;fill:#4d4d4d;fill-opacity:1;"/>
        </g>
        <g id="Shape10">
            <desc shapeID="10" type="0" basicInfo-basicType="0" basicInfo-roundedRectRadius="12" basicInfo-polygonSides="6" basicInfo-starPoints="5" bounding="rect(-32.5108,-46.1089,65.0214,92.2179)" text="" font-familyName="" font-pixelSize="20" font-bold="0" font-underline="0" font-alignment="1" strokeStyle="0" markerStart="0" markerEnd="0" shadowEnabled="0" shadowOffsetX="0" shadowOffsetY="2" shadowBlur="4" shadowOpacity="160" blurEnabled="0" blurRadius="4" transform="matrix(0.277129,0,0,0.277129,530.3,77.5447)" pers-center="0,0" pers-size="0,0" pers-start="0,0" pers-end="0,0" locked="0" mesh="" flag=""/>
            <path id="shapePath10" d="M521.733,65.2401 C521.345,65.6281 521.29,67.1246 521.29,77.5447 C521.29,87.9647 521.345,89.4612 521.733,89.8492 C522.287,90.4035 525.502,90.4589 525.973,89.9323 C526.139,89.7106 526.306,87.6876 526.333,84.5838 L526.417,79.6231 L530.38,79.54 L534.315,79.4569 L534.315,84.5838 C534.315,90.4866 534.232,90.2926 536.92,90.2926 C539.552,90.2926 539.303,91.5674 539.303,77.5447 C539.303,63.5219 539.552,64.7967 536.92,64.7967 C534.232,64.7967 534.315,64.6582 534.315,70.2007 L534.315,75.0505 L530.463,75.0505 C527.22,75.0505 526.583,74.9951 526.444,74.6071 C526.361,74.3577 526.278,72.2238 526.278,69.8128 C526.278,66.7921 526.167,65.351 525.945,65.1293 C525.447,64.6305 522.26,64.7136 521.733,65.2401 Z" style="stroke:none;fill-rule:evenodd;fill:#4d4d4d;fill-opacity:1;"/>
        </g>
        <g id="Shape11">
            <desc shapeID="11" type="0" basicInfo-basicType="0" basicInfo-roundedRectRadius="12" basicInfo-polygonSides="6" basicInfo-starPoints="5" bounding="rect(-18.7492,-17.2335,37.4985,34.4671)" text="" font-familyName="" font-pixelSize="20" font-bold="0" font-underline="0" font-alignment="1" strokeStyle="0" markerStart="0" markerEnd="0" shadowEnabled="0" shadowOffsetX="0" shadowOffsetY="2" shadowBlur="4" shadowOpacity="160" blurEnabled="0" blurRadius="4" transform="matrix(0.188656,0,0,0.188656,266.821,80.2336)" pers-center="0,0" pers-size="0,0" pers-start="0,0" pers-end="0,0" locked="0" mesh="" flag=""/>
            <path id="shapePath11" d="M263.982,81.6767 C264.126,84.6482 267.094,83.2733 268.439,82.3444 C269.715,81.4624 270.088,82.1955 270.2,80.455 C270.274,79.311 270.406,78.167 270.341,77.0184 C268.411,76.8436 266.312,77.3031 264.729,78.4526 C263.914,79.0448 262.386,80.9349 263.982,81.6767 Z" style="stroke:#000000;stroke-opacity:1;stroke-width:0.8;stroke-linejoin:miter;stroke-miterlimit:2;stroke-linecap:round;fill-rule:evenodd;fill:#f6d2a2;fill-opacity:1;"/>
        </g>
        <g id="Shape12">
            <desc shapeID="12" type="0" basicInfo-basicType="0" basicInfo-roundedRectRadius="12" basicInfo-polygonSides="6" basicInfo-starPoints="5" bounding="rect(-3.1355,-1.76401,6.271,3.52802)" text="" font-familyName="" font-pixelSize="20" font-bold="0" font-underline="0" font-alignment="1" strokeStyle="0" markerStart="0" markerEnd="0" shadowEnabled="0" shadowOffsetX="0" shadowOffsetY="2" shadowBlur="4" shadowOpacity="160" blurEnabled="0" blurRadius="4" transform="matrix(0.188656,0,0,0.188656,264.573,81.3439)" pers-center="0,0" pers-size="0,0" pers-start="0,0" pers-end="0,0" locked="0" mesh="" flag=""/>
            <path id="shapePath12" d="M263.982,81.6767 C264.414,81.516 264.872,81.4019 265.165,81.0112 " style="stroke:#000000;stroke-opacity:1;stroke-width:0.8;stroke-linejoin:miter;stroke-miterlimit:2;stroke-linecap:round;fill-rule:evenodd;fill:#c6b198;fill-opacity:1;"/>
        </g>
        <g id="Shape13">
            <desc shapeID="13" type="0" basicInfo-basicType="0" basicInfo-roundedRectRadius="12" basicInfo-polygonSides="6" basicInfo-starPoints="5" bounding="rect(-30.9981,-34.8225,61.9963,69.6449)" text="" font-familyName="" font-pixelSize="20" font-bold="0" font-underline="0" font-alignment="1" strokeStyle="0" markerStart="0" markerEnd="0" shadowEnabled="0" shadowOffsetX="0" shadowOffsetY="2" shadowBlur="4" shadowOpacity="160" blurEnabled="0" blurRadius="4" transform="matrix(0.188656,0,0,0.188656,271.212,39.708)" pers-center="0,0" pers-size="0,0" pers-start="0,0" pers-end="0,0" locked="0" mesh="" flag=""/>
            <path id="shapePath13" d="M270.842,46.2774 C259.466,43.0786 267.925,28.6072 277.06,34.5594 L270.842,46.2774 Z" style="stroke:#000000;stroke-opacity:1;stroke-width:0.8;stroke-linejoin:miter;stroke-miterlimit:2;stroke-linecap:round;fill-rule:evenodd;fill:#6ad7e5;fill-opacity:1;"/>
        </g>
        <g id="Shape14">
            <desc shapeID="14" type="0" basicInfo-basicType="0" basicInfo-roundedRectRadius="12" basicInfo-polygonSides="6" basicInfo-starPoints="5" bounding="rect(-30.7361,-34.8008,61.4722,69.6016)" text="" font-familyName="" font-pixelSize="20" font-bold="0" font-underline="0" font-alignment="1" strokeStyle="0" markerStart="0" markerEnd="0" shadowEnabled="0" shadowOffsetX="0" shadowOffsetY="2" shadowBlur="4" shadowOpacity="160" blurEnabled="0" blurRadius="4" transform="matrix(0.188656,0,0,0.188656,327.181,38.4428)" pers-center="0,0" pers-size="0,0" pers-start="0,0" pers-end="0,0" locked="0" mesh="" flag=""/>
            <path id="shapePath14" d="M321.382,33.4735 C330.386,27.1492 338.523,41.418 328.058,45.0081 L321.382,33.4735 Z" style="stroke:#000000;stroke-opacity:1;stroke-width:0.8;stroke-linejoin:miter;stroke-miterlimit:2;stroke-linecap:round;fill-rule:evenodd;fill:#6ad7e5;fill-opacity:1;"/>
        </g>
        <g id="Shape15">
            <desc shapeID="15" type="0" basicInfo-basicType="0" basicInfo-roundedRectRadius="12" basicInfo-polygonSides="6" basicInfo-starPoints="5" bounding="rect(-24.745,-22.7352,49.49,45.4704)" text="" font-familyName="" font-pixelSize="20" font-bold="0" font-underline="0" font-alignment="1" strokeStyle="0" markerStart="0" markerEnd="0" shadowEnabled="0" shadowOffsetX="0" shadowOffsetY="2" shadowBlur="4" shadowOpacity="160" blurEnabled="0" blurRadius="4" transform="matrix(0.188656,0,0,0.188656,322.989,122.537)" pers-center="0,0" pers-size="0,0" pers-start="0,0" pers-end="0,0" locked="0" mesh="" flag=""/>
            <path id="shapePath15" d="M323.319,118.248 C325.606,119.663 329.787,123.942 326.356,126.016 C323.059,129.035 321.214,122.703 318.321,121.826 C319.567,120.134 321.146,118.591 323.319,118.248 Z" style="stroke:#000000;stroke-opacity:1;stroke-width:0.8;stroke-linejoin:miter;stroke-miterlimit:2;stroke-linecap:round;fill-rule:evenodd;fill:#f6d2a2;fill-opacity:1;"/>
        </g>
        <g id="Shape16">
            <desc shapeID="16" type="0" basicInfo-basicType="0" basicInfo-roundedRectRadius="12" basicInfo-polygonSides="6" basicInfo-starPoints="5" bounding="rect(-4.05099,-7.96948,8.10199,15.939)" text="" font-familyName="" font-pixelSize="20" font-bold="0" font-underline="0" font-alignment="1" strokeStyle="0" markerStart="0" markerEnd="0" shadowEnabled="0" shadowOffsetX="0" shadowOffsetY="2" shadowBlur="4" shadowOpacity="160" blurEnabled="0" blurRadius="4" transform="matrix(0.188656,0,0,0.188656,325.591,124.513)" pers-center="0,0" pers-size="0,0" pers-start="0,0" pers-end="0,0" locked="0" mesh="" flag=""/>
            <path id="shapePath16" d="M326.356,126.016 C325.847,125.005 325.676,123.824 324.827,123.009 " style="stroke:#000000;stroke-opacity:1;stroke-width:0.8;stroke-linejoin:miter;stroke-miterlimit:2;stroke-linecap:round;fill:none;"/>
        </g>
        <g id="Shape17">
            <desc shapeID="17" type="0" basicInfo-basicType="0" basicInfo-roundedRectRadius="12" basicInfo-polygonSides="6" basicInfo-starPoints="5" bounding="rect(-28.8244,-22.6239,57.6488,45.2478)" text="" font-familyName="" font-pixelSize="20" font-bold="0" font-underline="0" font-alignment="1" strokeStyle="0" markerStart="0" markerEnd="0" shadowEnabled="0" shadowOffsetX="0" shadowOffsetY="2" shadowBlur="4" shadowOpacity="160" blurEnabled="0" blurRadius="4" transform="matrix(0.188656,0,0,0.188656,277.022,123.346)" pers-center="0,0" pers-size="0,0" pers-start="0,0" pers-end="0,0" locked="0" mesh="" flag=""/>
            <path id="shapePath17" d="M282.46,123.083 C279.775,123.499 278.264,125.92 276.027,127.15 C273.918,128.408 273.111,126.748 272.921,126.411 C272.591,126.26 272.618,126.551 272.108,126.037 C270.153,122.952 274.145,120.697 276.224,119.164 C279.119,118.579 280.933,121.089 282.46,123.083 Z" style="stroke:#000000;stroke-opacity:1;stroke-width:0.8;stroke-linejoin:miter;stroke-miterlimit:2;stroke-linecap:round;fill-rule:evenodd;fill:#f6d2a2;fill-opacity:1;"/>
        </g>
        <g id="Shape18">
            <desc shapeID="18" type="0" basicInfo-basicType="0" basicInfo-roundedRectRadius="12" basicInfo-polygonSides="6" basicInfo-starPoints="5" bounding="rect(-3.919,-7.8385,7.838,15.677)" text="" font-familyName="" font-pixelSize="20" font-bold="0" font-underline="0" font-alignment="1" strokeStyle="0" markerStart="0" markerEnd="0" shadowEnabled="0" shadowOffsetX="0" shadowOffsetY="2" shadowBlur="4" shadowOpacity="160" blurEnabled="0" blurRadius="4" transform="matrix(0.188656,0,0,0.188656,273.661,124.932)" pers-center="0,0" pers-size="0,0" pers-start="0,0" pers-end="0,0" locked="0" mesh="" flag=""/>
            <path id="shapePath18" d="M272.921,126.411 C273.023,125.235 273.956,124.447 274.4,123.453 " style="stroke:#000000;stroke-opacity:1;stroke-width:0.8;stroke-linejoin:miter;stroke-miterlimit:2;stroke-linecap:round;fill:none;"/>
        </g>
        <g id="Shape19">
            <desc shapeID="19" type="0" basicInfo-basicType="0" basicInfo-roundedRectRadius="12" basicInfo-polygonSides="6" basicInfo-starPoints="5" bounding="rect(-11.3036,-12.817,22.6072,25.6341)" text="" font-familyName="" font-pixelSize="20" font-bold="0" font-underline="0" font-alignment="1" strokeStyle="0" markerStart="0" markerEnd="0" shadowEnabled="0" shadowOffsetX="0" shadowOffsetY="2" shadowBlur="4" shadowOpacity="160" blurEnabled="0" blurRadius="4" transform="matrix(0.188656,0,0,0.188656,271.43,39.8625)" pers-center="0,0" pers-size="0,0" pers-start="0,0" pers-end="0,0" locked="0" mesh="" flag=""/>
            <path id="shapePath19" d="M271.317,42.2806 C269.816,41.4867 268.715,40.4085 269.633,38.6727 C270.483,37.0657 272.062,37.2402 273.562,38.0341 L271.317,42.2806 Z" style="stroke:none;fill-rule:evenodd;fill:#000000;fill-opacity:1;"/>
        </g>
        <g id="Shape20">
            <desc shapeID="20" type="0" basicInfo-basicType="0" basicInfo-roundedRectRadius="12" basicInfo-polygonSides="6" basicInfo-starPoints="5" bounding="rect(-11.3036,-12.817,22.6072,25.6341)" text="" font-familyName="" font-pixelSize="20" font-bold="0" font-underline="0" font-alignment="1" strokeStyle="0" markerStart="0" markerEnd="0" shadowEnabled="0" shadowOffsetX="0" shadowOffsetY="2" shadowBlur="4" shadowOpacity="160" blurEnabled="0" blurRadius="4" transform="matrix(0.188656,0,0,0.188656,325.574,38.3533)" pers-center="0,0" pers-size="0,0" pers-start="0,0" pers-end="0,0" locked="0" mesh="" flag=""/>
            <path id="shapePath20" d="M325.688,40.7713 C327.188,39.9774 328.289,38.8993 327.371,37.1635 C326.521,35.5565 324.943,35.731 323.442,36.5249 L325.688,40.7713 Z" style="stroke:none;fill-rule:evenodd;fill:#000000;fill-opacity:1;"/>
        </g>
        <g id="Shape21">
            <desc shapeID="21" type="0" basicInfo-basicType="0" basicInfo-roundedRectRadius="12" basicInfo-polygonSides="6" basicInfo-starPoints="5" bounding="rect(-18.7491,-17.2335,37.4983,34.4671)" text="" font-familyName="" font-pixelSize="20" font-bold="0" font-underline="0" font-alignment="1" strokeStyle="0" markerStart="0" markerEnd="0" shadowEnabled="0" shadowOffsetX="0" shadowOffsetY="2" shadowBlur="4" shadowOpacity="160" blurEnabled="0" blurRadius="4" transform="matrix(0.188656,0,0,0.188656,333.179,79.8563)" pers-center="0,0" pers-size="0,0" pers-start="0,0" pers-end="0,0" locked="0" mesh="" flag=""/>
            <path id="shapePath21" d="M336.018,81.2994 C335.874,84.2709 332.906,82.896 331.561,81.9671 C330.285,81.0851 329.912,81.8182 329.8,80.0777 C329.726,78.9337 329.594,77.7897 329.659,76.6411 C331.589,76.4663 333.688,76.9258 335.271,78.0753 C336.085,78.6675 337.614,80.5576 336.018,81.2994 Z" style="stroke:#000000;stroke-opacity:1;stroke-width:0.8;stroke-linejoin:miter;stroke-miterlimit:2;stroke-linecap:round;fill-rule:evenodd;fill:#f6d2a2;fill-opacity:1;"/>
        </g>
        <g id="Shape22">
            <desc shapeID="22" type="0" basicInfo-basicType="0" basicInfo-roundedRectRadius="12" basicInfo-polygonSides="6" basicInfo-starPoints="5" bounding="rect(-3.1355,-1.76401,6.271,3.52802)" text="" font-familyName="" font-pixelSize="20" font-bold="0" font-underline="0" font-alignment="1" strokeStyle="0" markerStart="0" markerEnd="0" shadowEnabled="0" shadowOffsetX="0" shadowOffsetY="2" shadowBlur="4" shadowOpacity="160" blurEnabled="0" blurRadius="4" transform="matrix(0.188656,0,0,0.188656,335.427,80.9666)" pers-center="0,0" pers-size="0,0" pers-start="0,0" pers-end="0,0" locked="0" mesh="" flag=""/>
            <path id="shapePath22" d="M336.018,81.2994 C335.586,81.1387 335.128,81.0246 334.835,80.6339 " style="stroke:#000000;stroke-opacity:1;stroke-width:0.8;stroke-linejoin:miter;stroke-miterlimit:2;stroke-linecap:round;fill-rule:evenodd;fill:#c6b198;fill-opacity:1;"/>
        </g>
        <g id="Shape23">
            <desc shapeID="23" type="0" basicInfo-basicType="0" basicInfo-roundedRectRadius="12" basicInfo-polygonSides="6" basicInfo-starPoints="5" bounding="rect(-164.597,-261.153,329.195,522.307)" text="" font-familyName="" font-pixelSize="20" font-bold="0" font-underline="0" font-alignment="1" strokeStyle="0" markerStart="0" markerEnd="0" shadowEnabled="0" shadowOffsetX="0" shadowOffsetY="2" shadowBlur="4" shadowOpacity="160" blurEnabled="0" blurRadius="4" transform="matrix(0.188656,0,0,0.188656,300.114,76.731)" pers-center="0,0" pers-size="0,0" pers-start="0,0" pers-end="0,0" locked="0" mesh="" flag=""/>
            <path id="shapePath23" d="M298.86,27.463 C310.248,27.463 320.924,29.0916 326.489,40.0329 C331.484,52.2966 329.708,65.521 330.47,78.482 C331.124,89.6112 332.574,102.469 327.412,112.782 C321.98,123.632 308.408,126.362 297.227,125.962 C288.444,125.648 277.834,122.782 272.877,114.758 C267.062,105.344 269.815,91.3461 270.237,80.8712 C270.738,68.4631 266.876,56.0173 270.953,43.8756 C275.181,31.2804 286.586,28.434 298.86,27.463 Z" style="stroke:#000000;stroke-opacity:1;stroke-width:0.8;stroke-linejoin:miter;stroke-miterlimit:2;stroke-linecap:round;fill-rule:evenodd;fill:#6ad7e5;fill-opacity:1;"/>
        </g>
        <g id="Shape24">
            <desc shapeID="24" type="0" basicInfo-basicType="0" basicInfo-roundedRectRadius="12" basicInfo-polygonSides="6" basicInfo-starPoints="5" bounding="rect(-50.2931,-46.2179,100.586,92.4358)" text="" font-familyName="" font-pixelSize="20" font-bold="0" font-underline="0" font-alignment="1" strokeStyle="0" markerStart="0" markerEnd="0" shadowEnabled="0" shadowOffsetX="0" shadowOffsetY="2" shadowBlur="4" shadowOpacity="160" blurEnabled="0" blurRadius="4" transform="matrix(0.188656,0,0,0.188656,310.339,41.5204)" pers-center="0,0" pers-size="0,0" pers-start="0,0" pers-end="0,0" locked="0" mesh="" flag=""/>
            <path id="shapePath24" d="M300.871,42.7509 C302.915,54.6367 322.344,51.4941 319.553,39.5066 C317.051,28.757 300.191,31.7324 300.871,42.7509 Z" style="stroke:#000000;stroke-opacity:1;stroke-width:0.8;stroke-linejoin:miter;stroke-miterlimit:2;stroke-linecap:round;fill-rule:evenodd;fill:#ffffff;fill-opacity:1;"/>
        </g>
        <g id="Shape25">
            <desc shapeID="25" type="0" basicInfo-basicType="0" basicInfo-roundedRectRadius="12" basicInfo-polygonSides="6" basicInfo-starPoints="5" bounding="rect(-49.9002,-46.1826,99.8004,92.3652)" text="" font-familyName="" font-pixelSize="20" font-bold="0" font-underline="0" font-alignment="1" strokeStyle="0" markerStart="0" markerEnd="0" shadowEnabled="0" shadowOffsetX="0" shadowOffsetY="2" shadowBlur="4" shadowOpacity="160" blurEnabled="0" blurRadius="4" transform="matrix(0.188656,0,0,0.188656,286.849,42.52)" pers-center="0,0" pers-size="0,0" pers-start="0,0" pers-end="0,0" locked="0" mesh="" flag=""/>
            <path id="shapePath25" d="M277.653,44.6733 C280.304,55.021 296.871,52.3717 296.246,41.9919 C295.498,29.5605 275.12,31.9592 277.653,44.6733 Z" style="stroke:#000000;stroke-opacity:1;stroke-width:0.8;stroke-linejoin:miter;stroke-miterlimit:2;stroke-linecap:round;fill-rule:evenodd;fill:#ffffff;fill-opacity:1;"/>
        </g>
        <g id="Shape26">
            <desc shapeID="26" type="0" basicInfo-basicType="0" basicInfo-roundedRectRadius="12" basicInfo-polygonSides="6" basicInfo-starPoints="5" bounding="rect(-10.8842,-19.039,21.7685,38.078)" text="" font-familyName="" font-pixelSize="20" font-bold="0" font-underline="0" font-alignment="1" strokeStyle="0" markerStart="0" markerEnd="0" shadowEnabled="0" shadowOffsetX="0" shadowOffsetY="2" shadowBlur="4" shadowOpacity="160" blurEnabled="0" blurRadius="4" transform="matrix(0.188656,0,0,0.188656,301.338,59.4716)" pers-center="0,0" pers-size="0,0" pers-start="0,0" pers-end="0,0" locked="0" mesh="" flag=""/>
            <path id="shapePath26" d="M303.215,57.0136 C303.223,58.5589 303.566,60.2938 303.273,61.9377 C302.879,62.6833 302.105,62.7621 301.438,63.0634 C300.516,62.9187 299.74,62.3129 299.37,61.45 C299.133,59.5737 299.458,57.7569 299.518,55.8798 L303.215,57.0136 Z" style="stroke:#000000;stroke-opacity:1;stroke-width:0.8;stroke-linejoin:miter;stroke-miterlimit:2;stroke-linecap:round;fill-rule:evenodd;fill:#ffffff;fill-opacity:1;"/>
        </g>
        <g id="Shape27">
            <desc shapeID="27" type="0" basicInfo-basicType="0" basicInfo-roundedRectRadius="12" basicInfo-polygonSides="6" basicInfo-starPoints="5" bounding="rect(-14.829,-16.062,29.658,32.124)" text="" font-familyName="" font-pixelSize="20" font-bold="0" font-underline="0" font-alignment="1" strokeStyle="0" markerStart="0" markerEnd="0" shadowEnabled="0" shadowOffsetX="0" shadowOffsetY="2" shadowBlur="4" shadowOpacity="160" blurEnabled="0" blurRadius="4" transform="matrix(0.188656,0,0,0.188656,282.223,42.9856)" pers-center="0,0" pers-size="0,0" pers-start="0,0" pers-end="0,0" locked="0" mesh="" flag=""/>
            <path id="shapePath27" d="M285.02,42.9856 C285.02,44.6591 283.768,46.0158 282.223,46.0158 C280.678,46.0158 279.425,44.6591 279.425,42.9856 C279.425,41.312 280.678,39.9554 282.223,39.9554 C283.768,39.9554 285.02,41.312 285.02,42.9856 Z" style="stroke:none;fill-rule:evenodd;fill:#000000;fill-opacity:1;"/>
        </g>
        <g id="Shape28">
            <desc shapeID="28" type="0" basicInfo-basicType="0" basicInfo-roundedRectRadius="12" basicInfo-polygonSides="6" basicInfo-starPoints="5" bounding="rect(-3.496,-4.082,6.992,8.164)" text="" font-familyName="" font-pixelSize="20" font-bold="0" font-underline="0" font-alignment="1" strokeStyle="0" markerStart="0" markerEnd="0" shadowEnabled="0" shadowOffsetX="0" shadowOffsetY="2" shadowBlur="4" shadowOpacity="160" blurEnabled="0" blurRadius="4" transform="matrix(0.188656,0,0,0.188656,283.495,43.6694)" pers-center="0,0" pers-size="0,0" pers-start="0,0" pers-end="0,0" locked="0" mesh="" flag=""/>
            <path id="shapePath28" d="M284.155,43.6694 C284.155,44.0947 283.86,44.4395 283.495,44.4395 C283.131,44.4395 282.836,44.0947 282.836,43.6694 C282.836,43.2441 283.131,42.8993 283.495,42.8993 C283.86,42.8993 284.155,43.2441 284.155,43.6694 Z" style="stroke:none;fill-rule:evenodd;fill:#ffffff;fill-opacity:1;"/>
        </g>
        <g id="Shape29">
            <desc shapeID="29" type="0" basicInfo-basicType="0" basicInfo-roundedRectRadius="12" basicInfo-polygonSides="6" basicInfo-starPoints="5" bounding="rect(-14.582,-16.062,29.164,32.124)" text="" font-familyName="" font-pixelSize="20" font-bold="0" font-underline="0" font-alignment="1" strokeStyle="0" markerStart="0" markerEnd="0" shadowEnabled="0" shadowOffsetX="0" shadowOffsetY="2" shadowBlur="4" shadowOpacity="160" blurEnabled="0" blurRadius="4" transform="matrix(0.188656,0,0,0.188656,305.663,42.2309)" pers-center="0,0" pers-size="0,0" pers-start="0,0" pers-end="0,0" locked="0" mesh="" flag=""/>
            <path id="shapePath29" d="M308.414,42.2309 C308.414,43.9045 307.182,45.2611 305.663,45.2611 C304.143,45.2611 302.912,43.9045 302.912,42.2309 C302.912,40.5574 304.143,39.2008 305.663,39.2008 C307.182,39.2008 308.414,40.5574 308.414,42.2309 Z" style="stroke:none;fill-rule:evenodd;fill:#000000;fill-opacity:1;"/>
        </g>
        <g id="Shape30">
            <desc shapeID="30" type="0" basicInfo-basicType="0" basicInfo-roundedRectRadius="12" basicInfo-polygonSides="6" basicInfo-starPoints="5" bounding="rect(-3.438,-4.082,6.87599,8.164)" text="" font-familyName="" font-pixelSize="20" font-bold="0" font-underline="0" font-alignment="1" strokeStyle="0" markerStart="0" markerEnd="0" shadowEnabled="0" shadowOffsetX="0" shadowOffsetY="2" shadowBlur="4" shadowOpacity="160" blurEnabled="0" blurRadius="4" transform="matrix(0.188656,0,0,0.188656,306.914,42.9148)" pers-center="0,0" pers-size="0,0" pers-start="0,0" pers-end="0,0" locked="0" mesh="" flag=""/>
            <path id="shapePath30" d="M307.563,42.9148 C307.563,43.3401 307.272,43.6849 306.914,43.6849 C306.556,43.6849 306.266,43.3401 306.266,42.9148 C306.266,42.4895 306.556,42.1447 306.914,42.1447 C307.272,42.1447 307.563,42.4895 307.563,42.9148 Z" style="stroke:none;fill-rule:evenodd;fill:#ffffff;fill-opacity:1;"/>
        </g>
        <g id="Shape31">
            <desc shapeID="31" type="0" basicInfo-basicType="0" basicInfo-roundedRectRadius="12" basicInfo-polygonSides="6" basicInfo-starPoints="5" bounding="rect(-11.9596,-18.8768,23.9191,37.7536)" text="" font-familyName="" font-pixelSize="20" font-bold="0" font-underline="0" font-alignment="1" strokeStyle="0" markerStart="0" markerEnd="0" shadowEnabled="0" shadowOffsetX="0" shadowOffsetY="2" shadowBlur="4" shadowOpacity="160" blurEnabled="0" blurRadius="4" transform="matrix(0.188656,0,0,0.188656,297.104,59.3467)" pers-center="0,0" pers-size="0,0" pers-start="0,0" pers-end="0,0" locked="0" mesh="" flag=""/>
            <path id="shapePath31" d="M295.22,56.8453 C293.999,59.8034 295.901,65.7187 299.212,61.3557 C298.976,59.4793 299.301,57.6626 299.361,55.7855 L295.22,56.8453 Z" style="stroke:#000000;stroke-opacity:1;stroke-width:0.8;stroke-linejoin:miter;stroke-miterlimit:2;stroke-linecap:round;fill-rule:evenodd;fill:#ffffff;fill-opacity:1;"/>
        </g>
        <g id="Shape32">
            <desc shapeID="32" type="0" basicInfo-basicType="0" basicInfo-roundedRectRadius="12" basicInfo-polygonSides="6" basicInfo-starPoints="5" bounding="rect(-39.5878,-17.7907,79.1757,35.5814)" text="" font-familyName="" font-pixelSize="20" font-bold="0" font-underline="0" font-alignment="1" strokeStyle="0" markerStart="0" markerEnd="0" shadowEnabled="0" shadowOffsetX="0" shadowOffsetY="2" shadowBlur="4" shadowOpacity="160" blurEnabled="0" blurRadius="4" transform="matrix(0.188656,0,0,0.188656,299.787,54.209)" pers-center="0,0" pers-size="0,0" pers-start="0,0" pers-end="0,0" locked="0" mesh="" flag=""/>
            <path id="shapePath32" d="M295.638,51.1485 C293.363,51.3424 291.503,54.0474 292.686,56.1873 C294.252,59.0217 297.749,55.9366 299.926,56.2256 C302.433,56.2769 304.486,58.8756 306.499,56.6953 C308.738,54.2704 305.535,51.9086 303.032,50.8527 L295.638,51.1485 Z" style="stroke:#231f20;stroke-opacity:1;stroke-width:0.8;stroke-linejoin:miter;stroke-miterlimit:2;stroke-linecap:round;fill-rule:evenodd;fill:#f6d2a2;fill-opacity:1;"/>
        </g>
        <g id="Shape33">
            <desc shapeID="33" type="0" basicInfo-basicType="0" basicInfo-roundedRectRadius="12" basicInfo-polygonSides="6" basicInfo-starPoints="5" bounding="rect(-22.3354,-13.6036,44.6708,27.2072)" text="" font-familyName="" font-pixelSize="20" font-bold="0" font-underline="0" font-alignment="1" strokeStyle="0" markerStart="0" markerEnd="0" shadowEnabled="0" shadowOffsetX="0" shadowOffsetY="2" shadowBlur="4" shadowOpacity="160" blurEnabled="0" blurRadius="4" transform="matrix(0.188656,0,0,0.188656,299.434,50.2796)" pers-center="0,0" pers-size="0,0" pers-start="0,0" pers-end="0,0" locked="0" mesh="" flag=""/>
            <path id="shapePath33" d="M295.351,51.03 C295.183,47.0888 302.697,46.5961 303.585,49.8951 C304.47,53.1864 295.721,53.9508 295.351,51.03 C295.056,48.6977 295.351,51.03 295.351,51.03 Z" style="stroke:none;fill-rule:evenodd;fill:#000000;fill-opacity:1;"/>
        </g>
    </g>
</svg>
