<?xml version="1.0"?>
<svg version="1.1" xmlns="http://www.w3.org/2000/svg" xmlns:xlink="http://www.w3.org/1999/xlink" width="100" height="100">
    <desc iVinci="yes" version="4.6" gridStep="20" showGrid="no" snapToGrid="no" codePlatform="0"/>
    <g id="Layer1" name="Layer 2" opacity="1">
        <g id="Shape1">
            <desc shapeID="1" type="0" basicInfo-basicType="0" basicInfo-roundedRectRadius="12" basicInfo-polygonSides="6" basicInfo-starPoints="5" bounding="rect(0,0,0,0)" text="" font-familyName="Helvetica" font-pixelSize="20" font-bold="0" font-underline="0" font-alignment="1" strokeStyle="0" markerStart="0" markerEnd="0" shadowEnabled="0" shadowOffsetX="0" shadowOffsetY="2" shadowBlur="4" shadowOpacity="160" blurEnabled="0" blurRadius="4" transform="matrix(1,0,0,1,37.5635,60.6032)" pers-center="0,0" pers-size="0,0" pers-start="0,0" pers-end="0,0" locked="0" mesh="" flag=""/>
            <path id="shapePath1" d="M37.5635,60.6032 Z" style="stroke:none;fill-rule:evenodd;fill:#000000;fill-opacity:1;"/>
        </g>
        <g id="Shape2">
            <desc shapeID="2" type="0" basicInfo-basicType="0" basicInfo-roundedRectRadius="12" basicInfo-polygonSides="6" basicInfo-starPoints="5" bounding="rect(-25.5481,-29.7907,51.0963,59.5813)" text="" font-familyName="Helvetica" font-pixelSize="20" font-bold="0" font-underline="0" font-alignment="1" strokeStyle="0" markerStart="0" markerEnd="0" shadowEnabled="0" shadowOffsetX="0" shadowOffsetY="2" shadowBlur="4" shadowOpacity="160" blurEnabled="0" blurRadius="4" transform="matrix(1,0,0,1,52.9543,56.3297)" pers-center="0,0" pers-size="0,0" pers-start="0,0" pers-end="0,0" locked="0" mesh="" flag=""/>
            <path id="shapePath2" d="M33.29,76.5205 C33.29,76.5205 39.7931,59.6742 39.7931,59.6742 C39.7931,59.6742 32.6706,60.6032 32.6706,60.6032 C32.6706,60.6032 31.9274,57.7542 31.9274,57.7542 C31.9274,57.7542 27.4062,52.9853 27.4062,52.9853 C27.4062,52.9853 29.1403,44.1905 29.1403,44.1905 C29.1403,44.1905 34.0951,34.7145 34.0951,34.7145 C34.0951,34.7145 35.8293,29.9455 35.8293,29.9455 C35.8293,29.9455 40.6602,29.3881 40.6602,29.3881 C40.6602,29.3881 43.5092,26.5391 43.5092,26.5391 C43.5092,26.5391 46.7918,29.3261 46.7918,29.3261 C46.7918,29.3261 54.5336,28.1494 54.5336,28.1494 C54.5336,28.1494 57.1349,30.9984 57.1349,30.9984 C57.1349,30.9984 63.3903,31.7416 63.3903,31.7416 C63.3903,31.7416 66.1774,33.9713 66.1774,33.9713 C66.1774,33.9713 70.1412,34.0951 70.1412,34.0951 C70.1412,34.0951 69.9554,38.988 69.9554,38.988 C69.9554,38.988 73.9192,36.9441 73.9192,36.9441 C73.9192,36.9441 77.945,37.1299 77.945,37.1299 C77.945,37.1299 78.5024,47.3492 78.5024,47.3492 C78.5024,47.3492 77.2637,56.3297 77.2637,56.3297 C77.2637,56.3297 62.3994,62.8948 62.3994,62.8948 C62.3994,62.8948 62.5852,71.0083 62.5852,71.0083 C62.5852,71.0083 67.8496,75.6534 67.8496,75.6534 C67.8496,75.6534 64.3193,79.1837 64.3193,79.1837 C64.3193,79.1837 60.7891,84.6959 60.7891,84.6959 C60.7891,84.6959 43.5712,86.1204 43.5712,86.1204 C43.5712,86.1204 37.8732,83.643 37.8732,83.643 C37.8732,83.643 33.29,76.5205 33.29,76.5205 Z" style="stroke:none;fill-rule:evenodd;fill:#b6e27c;fill-opacity:1;"/>
        </g>
        <g id="Shape3">
            <desc shapeID="3" type="0" basicInfo-basicType="0" basicInfo-roundedRectRadius="12" basicInfo-polygonSides="6" basicInfo-starPoints="5" bounding="rect(-15.0486,-7.72906,30.0973,15.4581)" text="" font-familyName="Helvetica" font-pixelSize="20" font-bold="0" font-underline="0" font-alignment="1" strokeStyle="0" markerStart="0" markerEnd="0" shadowEnabled="0" shadowOffsetX="0" shadowOffsetY="2" shadowBlur="4" shadowOpacity="160" blurEnabled="0" blurRadius="4" transform="matrix(1,0,0,1,52.5934,78.2887)" pers-center="0,0" pers-size="0,0" pers-start="0,0" pers-end="0,0" locked="0" mesh="" flag=""/>
            <path id="shapePath3" d="M37.5448,77.9304 C37.5448,77.9304 49.047,79.8594 53.1053,78.647 C57.5054,77.3324 62.1652,70.5597 62.2164,70.5597 C62.2676,70.5597 67.6421,74.7057 67.6421,74.7057 C67.6421,74.7057 65.134,78.9029 65.134,78.9029 C65.134,78.9029 63.4448,79.2612 63.4448,79.2612 C63.4448,79.2612 60.3225,85.1988 60.3225,85.1988 C60.3225,85.1988 38.5685,86.0178 38.5685,86.0178 C38.5685,86.0178 37.5448,77.9304 37.5448,77.9304 Z" style="stroke:none;fill-rule:evenodd;fill:#659e50;fill-opacity:1;"/>
        </g>
        <g id="Shape4">
            <desc shapeID="4" type="0" basicInfo-basicType="0" basicInfo-roundedRectRadius="12" basicInfo-polygonSides="6" basicInfo-starPoints="5" bounding="rect(-61.2969,-70.3554,122.594,140.711)" text="" font-familyName="" font-pixelSize="20" font-bold="0" font-underline="0" font-alignment="1" strokeStyle="0" markerStart="0" markerEnd="0" shadowEnabled="0" shadowOffsetX="0" shadowOffsetY="2" shadowBlur="4" shadowOpacity="160" blurEnabled="0" blurRadius="4" transform="matrix(0.456781,0,0,0.456781,52.7621,57.2865)" pers-center="0,0" pers-size="0,0" pers-start="0,0" pers-end="0,0" locked="0" mesh="" flag=""/>
            <path id="shapePath4" d="M41.1076,26.2346 C40.5594,26.8284 40.1027,27.5593 40.1027,27.8334 C40.1027,28.1531 39.3718,28.3815 38.2299,28.3815 C34.6213,28.3815 32.3374,30.7568 32.3374,34.6394 C32.3374,36.3752 32.1547,36.969 31.3782,37.4258 C30.4189,38.0653 28.5918,41.5825 28.9572,42.1306 C29.0486,42.3133 28.7288,42.5874 28.2264,42.7701 C27.7239,42.9071 26.7647,43.8207 26.0338,44.6886 C22.9277,48.7996 25.9424,57.6155 30.4646,57.6155 C31.1954,57.6155 31.2868,57.8439 31.1041,59.3513 C30.8757,60.9043 31.0584,61.2697 32.1547,62.1376 C33.1596,62.9598 33.8904,63.1425 35.1694,62.9598 C36.8595,62.7315 36.9052,62.7771 36.6311,63.9191 C36.4941,64.6042 35.3521,67.1622 34.0732,69.6288 C31.6065,74.425 31.2411,76.7089 32.5658,78.1707 C32.9769,78.6274 33.7991,79.1299 34.3929,79.2669 C35.3065,79.4953 35.5349,79.9064 35.7632,81.7335 C36.4027,86.7125 37.2249,87.9001 40.8335,88.9507 C43.5742,89.7272 45.5384,89.5902 49.4667,88.2198 C51.0654,87.6717 52.0703,87.5347 52.8469,87.8544 C54.1258,88.3112 56.3641,87.9458 57.6887,87.0322 C58.1912,86.6668 59.0134,86.3927 59.5615,86.3927 C61.1146,86.3927 63.3072,84.2458 63.9466,82.236 C64.2664,81.0027 64.9059,80.1805 65.7281,79.7694 C67.6009,78.7645 68.8799,76.8917 68.8799,75.1102 C68.8799,73.7399 68.4688,73.1461 66.3676,71.1819 C63.9923,69.035 63.8553,68.8066 63.8553,66.7055 C63.8553,64.4672 63.8553,64.4672 65.3627,64.4672 C67.5552,64.4215 70.6157,62.8685 71.5292,61.2697 C72.0317,60.3562 72.6712,59.8994 73.3563,59.8994 C78.1982,59.8994 82.5376,51.1749 80.0253,46.4244 C79.3858,45.191 79.3858,44.917 80.1167,43.3639 C81.1673,40.9887 80.7105,38.5677 78.9291,36.9233 C77.376,35.5073 76.5995,35.4159 73.9958,36.3295 L72.1687,36.969 L71.8946,35.1875 C71.5292,32.9036 69.9762,31.8074 67.6466,32.1728 C66.3219,32.4012 65.7281,32.2185 64.6775,31.3506 C63.6269,30.437 62.8047,30.2086 60.8862,30.2086 C58.8307,30.2086 58.3739,30.0716 58.1455,29.2951 C57.6887,27.879 55.6789,26.5544 53.9431,26.5544 C53.0753,26.5544 51.3395,27.0568 50.1062,27.6963 C48.3247,28.5642 47.8679,28.6556 47.8679,28.1074 C47.8679,27.742 47.3655,26.9198 46.726,26.326 C45.2186,24.7729 42.4779,24.7729 41.1076,26.2346 M45.3556,29.7518 C45.7668,30.5284 45.9495,31.3506 45.8124,31.6246 C45.6297,31.853 45.7668,32.3555 46.0408,32.7209 C46.4976,33.2691 46.9087,33.132 48.6902,31.7617 C49.8321,30.8938 51.2938,30.0716 51.8876,29.8889 C54.3542,29.2951 55.4505,31.5333 53.8518,33.8172 C52.6185,35.5073 52.6185,36.4209 53.8518,37.0603 C54.674,37.5171 55.0394,37.3344 56.8208,35.5073 C58.5566,33.6802 59.0591,33.4061 60.6578,33.4061 C62.759,33.4061 62.8047,33.5431 61.5714,35.0962 C60.8862,35.9641 60.7949,36.4665 61.1603,37.106 C61.7998,38.3393 63.3985,38.1566 65.2256,36.6036 C67.6009,34.548 68.0576,34.7764 67.875,37.8369 C67.6923,41.1257 68.286,41.3541 71.5749,39.1159 C74.2699,37.3344 75.9143,37.106 76.6451,38.385 C77.8328,40.6232 76.8279,42.8158 74.3156,43.638 C72.4884,44.2318 71.3465,46.1503 72.0317,47.5206 C72.7625,48.8453 73.6304,48.9367 75.4575,48.0231 C78.0155,46.6071 78.2439,48.4799 75.8686,52.4995 C74.7267,54.4637 74.7267,54.5094 72.6255,54.281 C71.4378,54.144 69.8391,53.8699 69.0626,53.7329 C67.2811,53.3217 66.9614,53.8242 67.5552,55.9254 C67.875,57.113 67.875,57.8896 67.4639,58.5747 C67.0071,59.4426 66.6873,59.534 64.7688,59.3056 C62.0282,58.9858 60.9775,59.671 60.201,62.366 C59.4702,64.924 59.927,69.7202 61.0689,71.593 C61.5257,72.3239 62.8504,73.4201 63.9923,74.014 C66.3676,75.2472 66.4132,75.3386 65.4997,76.6176 C64.9516,77.3484 64.8145,77.3941 64.5405,76.8003 C64.2207,75.9324 62.4849,75.704 62.2565,76.4806 C62.1652,76.8003 61.9825,77.9879 61.7998,79.1756 C61.48,81.5051 59.6986,83.9261 58.6023,83.4693 C58.1912,83.3323 57.369,83.4236 56.6838,83.6977 C55.0394,84.2915 47.5482,84.657 43.894,84.2915 C39.7372,83.8804 39.5088,83.6064 40.057,79.9064 C40.7422,75.704 40.5138,75.2472 37.8188,75.6127 C33.7077,76.1608 33.8904,74.288 38.2755,70.5424 C40.7422,68.4412 41.473,66.6598 41.7927,62.366 C42.2038,56.5649 41.1989,55.6513 36.9052,57.8439 C35.6719,58.4834 34.53,58.9858 34.3929,58.9858 C34.2558,58.9858 34.1645,58.4834 34.1645,57.8439 C34.1645,56.9303 33.9361,56.7019 33.1139,56.7019 C30.9214,56.7019 29.1399,53.5958 29.1399,49.8959 C29.1399,47.2922 30.2362,45.9676 32.109,46.2873 C33.7534,46.6071 34.804,45.6935 34.4386,44.2318 C34.3016,43.5923 33.7534,42.9071 33.2509,42.7701 C32.7485,42.6331 32.3374,42.222 32.3374,41.9022 C32.3374,40.8516 33.6164,39.5726 34.7126,39.5726 C35.7176,39.5726 35.7632,39.4356 35.6262,36.969 C35.3978,32.4012 37.2249,30.8481 39.8743,33.4061 C41.9755,35.4616 43.0261,35.0505 42.615,32.3098 C42.0668,28.7926 43.9396,27.0568 45.3556,29.7518 Z" style="stroke:none;fill-rule:nonzero;fill:#000000;fill-opacity:1;"/>
        </g>
        <g id="Shape5">
            <desc shapeID="5" type="0" basicInfo-basicType="0" basicInfo-roundedRectRadius="12" basicInfo-polygonSides="6" basicInfo-starPoints="5" bounding="rect(-2.92749,-3.38811,5.85493,6.77627)" text="" font-familyName="" font-pixelSize="20" font-bold="0" font-underline="0" font-alignment="1" strokeStyle="0" markerStart="0" markerEnd="0" shadowEnabled="0" shadowOffsetX="0" shadowOffsetY="2" shadowBlur="4" shadowOpacity="160" blurEnabled="0" blurRadius="4" transform="matrix(0.456781,0,0,0.456781,54.2235,63.2819)" pers-center="0,0" pers-size="0,0" pers-start="0,0" pers-end="0,0" locked="0" mesh="" flag=""/>
            <path id="shapePath5" d="M53.2123,62.0006 C52.6185,62.5944 52.8925,64.5129 53.5777,64.7413 C54.5369,65.1524 55.7246,64.0561 55.5419,62.9141 C55.4048,61.9549 53.8518,61.3611 53.2123,62.0006 Z" style="stroke:none;fill-rule:nonzero;fill:#000000;fill-opacity:1;"/>
        </g>
        <g id="Shape6">
            <desc shapeID="6" type="0" basicInfo-basicType="0" basicInfo-roundedRectRadius="12" basicInfo-polygonSides="6" basicInfo-starPoints="5" bounding="rect(-2.67546,-3.16523,5.35099,6.33045)" text="" font-familyName="" font-pixelSize="20" font-bold="0" font-underline="0" font-alignment="1" strokeStyle="0" markerStart="0" markerEnd="0" shadowEnabled="0" shadowOffsetX="0" shadowOffsetY="2" shadowBlur="4" shadowOpacity="160" blurEnabled="0" blurRadius="4" transform="matrix(0.456781,0,0,0.456781,46.8742,64.1634)" pers-center="0,0" pers-size="0,0" pers-start="0,0" pers-end="0,0" locked="0" mesh="" flag=""/>
            <path id="shapePath6" d="M46.1321,63.0512 C45.7668,63.2339 45.584,63.9191 45.6754,64.5129 C45.7668,65.3351 46.0865,65.6092 46.9544,65.6092 C47.9136,65.6092 48.0963,65.3808 48.0963,64.2388 C48.0963,62.8228 47.2284,62.3203 46.1321,63.0512 Z" style="stroke:none;fill-rule:nonzero;fill:#000000;fill-opacity:1;"/>
        </g>
    </g>
</svg>
