<?xml version="1.0"?>
<svg version="1.1" xmlns="http://www.w3.org/2000/svg" xmlns:xlink="http://www.w3.org/1999/xlink" width="150" height="150">
    <desc iVinci="yes" version="4.6" gridStep="20" showGrid="no" snapToGrid="no" codePlatform="0"/>
    <g id="Layer1" name="Layer 1" opacity="1">
        <g id="Shape1">
            <desc shapeID="1" type="0" basicInfo-basicType="0" basicInfo-roundedRectRadius="12" basicInfo-polygonSides="6" basicInfo-starPoints="5" bounding="rect(-92.3601,-109.673,184.72,219.346)" text="" font-familyName="" font-pixelSize="20" font-bold="0" font-underline="0" font-alignment="1" strokeStyle="0" markerStart="0" markerEnd="0" shadowEnabled="0" shadowOffsetX="0" shadowOffsetY="2" shadowBlur="4" shadowOpacity="160" blurEnabled="0" blurRadius="4" transform="matrix(0.567038,0,0,0.567038,55.0966,78.0193)" pers-center="0,0" pers-size="0,0" pers-start="0,0" pers-end="0,0" locked="0" mesh="" flag=""/>
            <path id="shapePath1" d="M97.125,16.5261 C96.7848,16.8664 96.4445,17.4334 96.4445,17.7169 C96.4445,18.0005 95.2537,19.6448 93.7227,21.4027 C92.2484,23.1605 90.2637,25.6555 89.2998,26.8463 C87.6555,29.0578 87.4853,29.1144 81.4179,30.1351 C74.4435,31.3259 64.18,34.3312 58.7931,36.8262 C56.8085,37.7901 54.8239,38.5273 54.3703,38.5273 C53.9166,38.5273 53.3496,38.7541 53.066,38.9809 C52.7258,39.2644 50.8546,40.1717 48.8133,41.0223 C44.844,42.7234 35.3745,48.7907 32.6526,51.5124 C31.7455,52.4197 29.9309,54.291 28.6268,55.6519 L26.3585,58.0901 L21.5387,57.92 C18.9303,57.8633 15.1311,57.2963 13.0899,56.7292 C8.78041,55.4251 4.52758,54.858 3.67702,55.4251 C2.71305,56.0488 2.3728,58.2603 3.16668,58.6005 C3.5636,58.7138 4.01723,59.7346 4.24406,60.7552 C4.69769,63.1935 8.1566,69.8845 10.4248,72.7197 C11.3888,73.9672 12.7497,75.8384 13.5435,76.9724 L14.9043,79.0139 L13.43,82.1326 C11.9558,85.4214 11.1052,88.1998 10.4815,92.1124 C10.3113,93.3599 9.91448,95.5147 9.68756,96.9323 C9.23399,99.2571 9.34744,109.067 9.85775,111.108 C9.97108,111.562 10.3681,113.547 10.765,115.475 C11.3321,117.97 12.0692,119.613 13.6569,121.485 C14.791,122.903 16.5487,125.341 17.5695,126.871 C18.5901,128.46 20.2913,130.388 21.3686,131.238 C23.41,132.826 30.4351,136.129 35.091,138.326 C36.1781,138.839 37.3945,139.015 38.5499,139.347 C39.1713,139.525 40.4211,139.857 40.4211,139.857 C41.4418,140.084 47.6225,140.254 54.1435,140.197 C65.9945,140.084 68.773,139.687 69.4535,137.986 C69.9072,136.796 69.17,135.377 68.3194,135.718 C67.8657,135.888 62.4789,136.171 56.3549,136.398 C44.5605,136.796 38.8901,136.171 34.9208,134.131 C34.0136,133.619 32.9362,133.223 32.596,133.223 C31.5753,133.223 24.9977,129.651 23.6935,128.403 C19.6675,124.548 15.0178,117.97 14.1105,114.85 C12.9764,110.882 12.9197,110.428 12.9197,104.02 C12.9197,98.1798 14.224,88.937 15.358,86.839 C18.8169,80.148 19.6675,77.0859 17.9663,77.0859 C17.5127,77.0859 16.9457,77.3127 16.7756,77.6529 C16.6054,77.9364 16.0951,78.22 15.7549,78.22 C15.358,78.22 15.5281,77.9364 16.0951,77.5963 C17.5127,76.7456 17.2859,75.8384 15.0745,73.6837 C13.9971,72.6063 13.0899,71.5856 13.0899,71.3588 C13.0899,71.132 12.1259,69.4309 10.9351,67.6163 C7.24936,62.0027 5.88845,57.0127 8.44016,58.317 C10.9918,59.6778 14.9611,60.5851 19.3273,60.8119 C21.9924,60.982 24.6007,61.2655 25.1677,61.4924 C25.9049,61.8325 26.7555,61.2655 28.57,59.2241 C30.8382,56.6725 38.2097,50.3784 40.5913,48.904 C43.88,46.8628 49.8339,43.6873 50.9114,43.4038 C51.8752,43.0636 52.4423,43.4038 53.5765,45.105 C54.3703,46.2958 54.8806,47.4298 54.7105,47.7134 C54.5404,47.9402 54.7105,48.1669 55.0507,48.1669 C55.3909,48.1669 55.5044,48.4505 55.3342,48.734 C55.1641,49.0742 55.3909,49.7546 55.9012,50.265 C56.6384,50.9454 57.092,51.0589 57.8292,50.6052 C59.0766,49.8113 58.7364,47.9969 56.7518,44.3678 L55.1074,41.4191 L57.092,40.7955 C59.5303,39.9449 60.2674,40.512 61.4582,43.8574 C61.8552,45.105 62.649,46.1256 63.1594,46.2391 C64.6904,46.4658 64.8605,44.311 63.6129,41.646 C62.9326,40.2284 62.4223,38.9809 62.4223,38.8675 C62.4223,38.6974 63.4429,38.2438 64.6904,37.9036 C67.5822,37.053 68.4895,37.7334 69.1132,41.4191 C69.3967,43.0636 69.8504,43.9142 70.3607,43.9142 C71.0412,43.9142 71.2113,43.0636 71.1546,39.8882 L71.1546,35.8055 L74.2733,35.125 C76.0311,34.7849 78.5828,34.1611 80.0004,33.8209 C81.4179,33.4806 84.1965,33.1971 86.1811,33.1404 L89.8669,33.1404 L91.171,30.5887 C91.8515,29.1711 92.7021,27.7535 93.0423,27.3566 C93.3258,26.9597 93.6093,26.4494 93.6093,26.1659 C93.6093,25.5421 98.0889,20.3821 98.6559,20.3821 C98.8261,20.3821 100.13,22.9337 101.491,26.0524 C102.852,29.1711 104.213,31.893 104.44,32.063 C105.347,32.5733 107.105,31.7228 107.388,30.5887 C107.558,30.0217 107.445,29.4546 107.162,29.3413 C106.878,29.2279 105.177,26.2225 103.362,22.6502 C100.074,16.0158 98.8261,14.8251 97.125,16.5261 Z" style="stroke:none;fill-rule:evenodd;fill:#000000;fill-opacity:1;"/>
        </g>
        <g id="Shape2">
            <desc shapeID="2" type="0" basicInfo-basicType="0" basicInfo-roundedRectRadius="12" basicInfo-polygonSides="6" basicInfo-starPoints="5" bounding="rect(-65.544,-93.0164,131.088,186.033)" text="" font-familyName="" font-pixelSize="20" font-bold="0" font-underline="0" font-alignment="1" strokeStyle="0" markerStart="0" markerEnd="0" shadowEnabled="0" shadowOffsetX="0" shadowOffsetY="2" shadowBlur="4" shadowOpacity="160" blurEnabled="0" blurRadius="4" transform="matrix(0.567038,0,0,0.567038,110.134,83.3996)" pers-center="0,0" pers-size="0,0" pers-start="0,0" pers-end="0,0" locked="0" mesh="" flag=""/>
            <path id="shapePath2" d="M110.053,31.4393 C108.636,33.1404 109.997,34.2745 113.796,34.4446 C117.369,34.6714 122.017,35.8055 123.209,36.7695 C125.477,38.6407 130.75,42.4966 131.034,42.4966 C131.26,42.4966 132.848,43.8575 134.493,45.5586 C137.271,48.337 140.333,53.2703 140.957,55.9354 C141.127,56.5024 141.751,58.7138 142.375,60.9254 C143.678,65.4049 144.133,72.4929 143.395,76.4055 C142.885,79.354 140.333,86.2152 139.03,88.4267 C137.782,90.468 132.735,97.0457 131.657,98.0663 C131.147,98.5199 129.957,99.9375 129.049,101.185 C127.178,103.624 125.25,105.495 122.472,107.707 C121.451,108.5 120.26,109.464 119.807,109.917 C119.409,110.372 117.311,111.959 115.271,113.433 C113.172,114.907 111.188,116.438 110.791,116.722 C110.45,117.062 107.615,118.65 104.553,120.238 C101.491,121.882 98.4859,123.526 97.8621,123.923 C97.2383,124.377 96.161,124.718 95.4239,124.718 C94.63,124.718 92.4753,125.511 90.5472,126.531 C88.6761,127.496 86.4079,128.63 85.5574,129.083 C84.7635,129.481 83.2892,129.821 82.382,129.821 C81.4179,129.821 80.5108,130.048 80.3406,130.331 C80.1705,130.614 79.0932,131.011 77.9024,131.238 C75.8043,131.635 72.2887,134.811 73.0825,135.604 C73.8197,136.284 75.7476,136.341 77.4487,135.661 C80.5674,134.471 87.6555,132.429 88.1658,132.542 C88.4493,132.656 88.8461,132.486 89.0163,132.259 C89.4699,131.691 95.1404,128.913 97.0116,128.403 C97.8054,128.176 98.7694,127.723 99.223,127.383 C99.6199,127.041 100.3,126.701 100.697,126.645 C101.434,126.531 110.11,121.428 110.621,120.805 C110.791,120.635 111.925,120.011 113.172,119.443 C118.276,117.062 129.162,107.082 134.606,99.8809 C135.91,98.1231 137.385,96.2518 137.895,95.7415 C141.808,91.7722 146.173,82.1892 146.968,75.725 C147.648,70.3949 147.251,64.0441 146.061,60.6417 C145.606,59.3376 145.21,57.8633 145.21,57.4664 C145.21,57.0695 144.473,55.0281 143.508,52.9868 C142.601,50.9454 141.808,49.0175 141.808,48.734 C141.808,48.3937 141.581,48.167 141.298,48.167 C141.013,48.167 140.56,47.4865 140.22,46.5793 C139.483,44.5379 137.668,42.7234 133.302,39.6614 C132.225,38.9242 131.09,38.0736 130.75,37.8469 C125.59,33.7074 121.564,31.3259 120.941,31.9497 C120.771,32.1198 120.317,32.0063 119.92,31.6662 C119.524,31.3259 117.311,30.929 115.043,30.7589 C111.584,30.5321 110.734,30.6455 110.053,31.4393 Z" style="stroke:none;fill-rule:evenodd;fill:#000000;fill-opacity:1;"/>
        </g>
        <g id="Shape3">
            <desc shapeID="3" type="0" basicInfo-basicType="0" basicInfo-roundedRectRadius="12" basicInfo-polygonSides="6" basicInfo-starPoints="5" bounding="rect(-10.721,-6.96483,21.442,13.9296)" text="" font-familyName="" font-pixelSize="20" font-bold="0" font-underline="0" font-alignment="1" strokeStyle="0" markerStart="0" markerEnd="0" shadowEnabled="0" shadowOffsetX="0" shadowOffsetY="2" shadowBlur="4" shadowOpacity="160" blurEnabled="0" blurRadius="4" transform="matrix(0.567038,0,0,0.567038,126.973,54.9785)" pers-center="0,0" pers-size="0,0" pers-start="0,0" pers-end="0,0" locked="0" mesh="" flag=""/>
            <path id="shapePath3" d="M128.425,51.5692 C127.745,51.8527 127.007,52.3631 126.782,52.7032 C126.554,53.0435 125.25,53.8373 123.946,54.4043 C121.564,55.4251 120.374,57.1262 121.111,58.3736 C121.621,59.2242 124.002,59.0541 124.967,58.1468 C126.27,56.8427 130.07,54.9714 131.43,54.9714 C132.168,54.9714 132.735,54.8013 132.792,54.5178 C132.792,54.291 132.905,53.6105 133.018,52.9868 C133.358,51.1722 131.147,50.4351 128.425,51.5692 Z" style="stroke:none;fill-rule:evenodd;fill:#000000;fill-opacity:1;"/>
        </g>
        <g id="Shape4">
            <desc shapeID="4" type="0" basicInfo-basicType="0" basicInfo-roundedRectRadius="12" basicInfo-polygonSides="6" basicInfo-starPoints="5" bounding="rect(-8.65362,-6.03077,17.3073,12.0615)" text="" font-familyName="" font-pixelSize="20" font-bold="0" font-underline="0" font-alignment="1" strokeStyle="0" markerStart="0" markerEnd="0" shadowEnabled="0" shadowOffsetX="0" shadowOffsetY="2" shadowBlur="4" shadowOpacity="160" blurEnabled="0" blurRadius="4" transform="matrix(0.567038,0,0,0.567038,130.394,62.2624)" pers-center="0,0" pers-size="0,0" pers-start="0,0" pers-end="0,0" locked="0" mesh="" flag=""/>
            <path id="shapePath4" d="M133.302,58.9974 C132.848,59.2242 131.204,59.9046 129.73,60.415 C126.837,61.4357 125.024,63.4203 125.59,64.8946 C126.044,66.142 127.575,65.9153 130.523,64.1574 C135.4,61.2655 135.797,60.8687 134.947,59.6211 C134.436,58.884 133.869,58.6571 133.302,58.9974 Z" style="stroke:none;fill-rule:evenodd;fill:#000000;fill-opacity:1;"/>
        </g>
        <g id="Shape5">
            <desc shapeID="5" type="0" basicInfo-basicType="0" basicInfo-roundedRectRadius="12" basicInfo-polygonSides="6" basicInfo-starPoints="5" bounding="rect(-7.11374,-6.18848,14.2274,12.377)" text="" font-familyName="" font-pixelSize="20" font-bold="0" font-underline="0" font-alignment="1" strokeStyle="0" markerStart="0" markerEnd="0" shadowEnabled="0" shadowOffsetX="0" shadowOffsetY="2" shadowBlur="4" shadowOpacity="160" blurEnabled="0" blurRadius="4" transform="matrix(0.567038,0,0,0.567038,90.0491,64.7746)" pers-center="0,0" pers-size="0,0" pers-start="0,0" pers-end="0,0" locked="0" mesh="" flag=""/>
            <path id="shapePath5" d="M89.9236,62.6831 C89.0163,63.4771 87.6555,64.6111 86.975,65.2348 C85.6141,66.3122 85.7275,67.6731 87.1451,68.2401 C87.5987,68.4102 88.5626,68.0699 89.1864,67.4463 C89.8669,66.8225 90.8308,66.3122 91.3412,66.3122 C92.532,66.3122 94.2898,64.4409 94.0629,63.4203 C93.8929,62.6831 92.4753,61.2655 91.9082,61.2655 C91.7381,61.2655 90.8875,61.8893 89.9236,62.6831 Z" style="stroke:none;fill-rule:evenodd;fill:#000000;fill-opacity:1;"/>
        </g>
        <g id="Shape6">
            <desc shapeID="6" type="0" basicInfo-basicType="0" basicInfo-roundedRectRadius="12" basicInfo-polygonSides="6" basicInfo-starPoints="5" bounding="rect(-9.24678,-4.63725,18.4935,9.27454)" text="" font-familyName="" font-pixelSize="20" font-bold="0" font-underline="0" font-alignment="1" strokeStyle="0" markerStart="0" markerEnd="0" shadowEnabled="0" shadowOffsetX="0" shadowOffsetY="2" shadowBlur="4" shadowOpacity="160" blurEnabled="0" blurRadius="4" transform="matrix(0.567038,0,0,0.567038,130.815,70.3832)" pers-center="0,0" pers-size="0,0" pers-start="0,0" pers-end="0,0" locked="0" mesh="" flag=""/>
            <path id="shapePath6" d="M131.6,68.0133 C131.147,68.2969 130.183,68.5804 129.447,68.5804 C128.709,68.5804 127.462,69.2609 126.667,70.0547 C125.307,71.4155 125.307,71.5856 126.157,72.4362 C126.952,73.2867 127.348,73.2301 131.034,72.0393 C133.529,71.2455 135.23,70.3382 135.627,69.6577 C135.967,68.9773 136.137,68.4102 136.023,68.2969 C135.4,67.7298 132.338,67.5596 131.6,68.0133 Z" style="stroke:none;fill-rule:evenodd;fill:#000000;fill-opacity:1;"/>
        </g>
        <g id="Shape7">
            <desc shapeID="7" type="0" basicInfo-basicType="0" basicInfo-roundedRectRadius="12" basicInfo-polygonSides="6" basicInfo-starPoints="5" bounding="rect(-25.0236,-31.9104,50.0471,63.8207)" text="" font-familyName="" font-pixelSize="20" font-bold="0" font-underline="0" font-alignment="1" strokeStyle="0" markerStart="0" markerEnd="0" shadowEnabled="0" shadowOffsetX="0" shadowOffsetY="2" shadowBlur="4" shadowOpacity="160" blurEnabled="0" blurRadius="4" transform="matrix(0.567038,0,0,0.567038,84.5729,87.2377)" pers-center="0,0" pers-size="0,0" pers-start="0,0" pers-end="0,0" locked="0" mesh="" flag=""/>
            <path id="shapePath7" d="M78.0725,69.9979 C77.9024,70.4515 77.3921,70.8485 76.9384,70.8485 C76.0878,70.8485 74.897,72.4929 74.897,73.6271 C74.897,73.9672 75.5208,74.3642 76.3146,74.591 C77.6189,74.9312 77.8457,75.2147 77.6756,76.2921 C77.6756,76.5189 77.9024,76.8591 78.1859,77.0293 C78.5262,77.1994 78.8663,78.1066 78.923,79.0705 C79.1498,80.6583 78.9797,80.8284 74.897,82.4729 C71.6083,83.8337 70.5875,84.5141 70.4742,85.4781 C70.3607,86.1586 70.5308,86.7256 70.8711,86.7256 C71.268,86.7256 71.268,87.1792 70.9278,88.1998 C69.5102,91.8857 70.9845,98.1798 73.933,101.412 C78.4127,106.175 84.8769,106.629 90.7741,102.602 C91.568,102.036 93.6093,101.129 95.3104,100.562 C97.0116,99.9944 98.5426,99.4273 98.5992,99.3706 C99.223,99.0871 97.9188,96.989 97.0116,96.7622 C95.7074,96.422 91.1143,97.953 88.3925,99.6541 C86.5214,100.789 82.949,101.752 80.9076,101.582 C78.6395,101.469 76.6549,100.164 75.0671,97.953 C73.6495,95.9117 73.4794,95.1177 73.4794,91.1485 C73.4794,87.973 73.6495,86.7256 74.1599,86.7256 C74.5568,86.7256 76.5981,85.8751 78.6962,84.9111 C80.8509,83.8904 84.48,82.4161 86.8049,81.5656 C90.4339,80.3181 91.0577,79.9211 91.2277,78.6737 C91.4545,76.6323 89.3566,76.1787 85.9544,77.6529 C83.0624,78.9005 82.0417,79.0705 82.552,78.2767 C82.7222,77.9365 82.4954,77.4829 81.985,77.2561 C80.6808,76.5189 80.2839,73.4569 81.3613,72.3795 C81.8716,71.9258 82.2685,71.132 82.2685,70.6784 C82.2685,69.0907 78.6395,68.5236 78.0725,69.9979 Z" style="stroke:none;fill-rule:evenodd;fill:#000000;fill-opacity:1;"/>
        </g>
        <g id="Shape8">
            <desc shapeID="8" type="0" basicInfo-basicType="0" basicInfo-roundedRectRadius="12" basicInfo-polygonSides="6" basicInfo-starPoints="5" bounding="rect(-5.79803,-4.93488,11.5961,9.86973)" text="" font-familyName="" font-pixelSize="20" font-bold="0" font-underline="0" font-alignment="1" strokeStyle="0" markerStart="0" markerEnd="0" shadowEnabled="0" shadowOffsetX="0" shadowOffsetY="2" shadowBlur="4" shadowOpacity="160" blurEnabled="0" blurRadius="4" transform="matrix(0.567038,0,0,0.567038,64.4101,75.5925)" pers-center="0,0" pers-size="0,0" pers-start="0,0" pers-end="0,0" locked="0" mesh="" flag=""/>
            <path id="shapePath8" d="M62.9325,73.8537 C61.0046,75.6117 60.6644,76.5756 61.685,77.7664 C62.4788,78.6169 62.649,78.6169 64.8604,77.6529 C66.7316,76.8024 67.2986,76.1786 67.5822,74.8178 C67.8091,73.7404 67.6956,73.1166 67.2986,73.1166 C66.9585,73.1166 66.1646,73.0032 65.5409,72.8331 C64.8604,72.6631 63.8398,73.0599 62.9325,73.8537 Z" style="stroke:none;fill-rule:evenodd;fill:#000000;fill-opacity:1;"/>
        </g>
        <g id="Shape9">
            <desc shapeID="9" type="0" basicInfo-basicType="0" basicInfo-roundedRectRadius="12" basicInfo-polygonSides="6" basicInfo-starPoints="5" bounding="rect(-7.85534,-6.61965,15.7107,13.2393)" text="" font-familyName="" font-pixelSize="20" font-bold="0" font-underline="0" font-alignment="1" strokeStyle="0" markerStart="0" markerEnd="0" shadowEnabled="0" shadowOffsetX="0" shadowOffsetY="2" shadowBlur="4" shadowOpacity="160" blurEnabled="0" blurRadius="4" transform="matrix(0.567038,0,0,0.567038,29.8428,100.248)" pers-center="0,0" pers-size="0,0" pers-start="0,0" pers-end="0,0" locked="0" mesh="" flag=""/>
            <path id="shapePath9" d="M29.2504,98.1231 C28.3433,99.0303 27.1523,99.8809 26.642,100.051 C25.1677,100.562 24.9409,103.112 26.2452,103.794 C27.1523,104.247 27.6628,104.02 29.1371,102.489 C30.1577,101.412 31.6887,100.108 32.596,99.5406 L34.2971,98.4633 L32.9929,97.4426 C31.3485,96.0817 31.2918,96.0817 29.2504,98.1231 Z" style="stroke:none;fill-rule:evenodd;fill:#000000;fill-opacity:1;"/>
        </g>
        <g id="Shape10">
            <desc shapeID="10" type="0" basicInfo-basicType="0" basicInfo-roundedRectRadius="12" basicInfo-polygonSides="6" basicInfo-starPoints="5" bounding="rect(-7.78198,-8.15297,15.564,16.3059)" text="" font-familyName="" font-pixelSize="20" font-bold="0" font-underline="0" font-alignment="1" strokeStyle="0" markerStart="0" markerEnd="0" shadowEnabled="0" shadowOffsetX="0" shadowOffsetY="2" shadowBlur="4" shadowOpacity="160" blurEnabled="0" blurRadius="4" transform="matrix(0.567038,0,0,0.567038,31.0837,107.304)" pers-center="0,0" pers-size="0,0" pers-start="0,0" pers-end="0,0" locked="0" mesh="" flag=""/>
            <path id="shapePath10" d="M33.0496,104.36 C32.3125,105.267 31.4052,106.005 30.9515,106.005 C30.5547,106.005 30.101,106.402 29.8742,106.855 C29.7041,107.309 28.9103,107.99 28.1163,108.387 C26.5853,109.067 26.1317,111.335 27.4359,111.845 C28.4566,112.242 30.1577,111.222 33.2197,108.33 C35.091,106.629 35.7147,105.608 35.4312,104.927 C35.261,104.417 35.0342,103.68 35.0342,103.283 C34.9775,102.262 34.4672,102.489 33.0496,104.36 Z" style="stroke:none;fill-rule:evenodd;fill:#000000;fill-opacity:1;"/>
        </g>
        <g id="Shape11">
            <desc shapeID="11" type="0" basicInfo-basicType="0" basicInfo-roundedRectRadius="12" basicInfo-polygonSides="6" basicInfo-starPoints="5" bounding="rect(-7.91887,-5.86805,15.8378,11.7361)" text="" font-familyName="" font-pixelSize="20" font-bold="0" font-underline="0" font-alignment="1" strokeStyle="0" markerStart="0" markerEnd="0" shadowEnabled="0" shadowOffsetX="0" shadowOffsetY="2" shadowBlur="4" shadowOpacity="160" blurEnabled="0" blurRadius="4" transform="matrix(0.567038,0,0,0.567038,31.7561,115.966)" pers-center="0,0" pers-size="0,0" pers-start="0,0" pers-end="0,0" locked="0" mesh="" flag=""/>
            <path id="shapePath11" d="M34.0702,112.695 C33.6166,112.866 33.1063,113.15 32.9361,113.32 C32.7661,113.547 31.4619,114.397 29.9876,115.248 C28.2865,116.212 27.2658,117.232 27.2658,117.856 C27.2658,119.103 29.2504,119.783 30.2712,118.877 C30.6114,118.48 31.9723,117.686 33.1631,117.062 C35.9982,115.588 36.9055,114.227 35.7714,113.15 C35.3177,112.753 34.5239,112.525 34.0702,112.695 Z" style="stroke:none;fill-rule:evenodd;fill:#000000;fill-opacity:1;"/>
        </g>
    </g>
</svg>
