<?xml version="1.0"?>
<svg version="1.1" xmlns="http://www.w3.org/2000/svg" xmlns:xlink="http://www.w3.org/1999/xlink" width="100" height="100">
    <desc iVinci="yes" version="4.6" gridStep="20" showGrid="no" snapToGrid="no" codePlatform="0"/>
    <g id="Layer1" name="Layer 2" opacity="1">
        <g id="Shape1">
            <desc shapeID="1" type="0" basicInfo-basicType="0" basicInfo-roundedRectRadius="12" basicInfo-polygonSides="6" basicInfo-starPoints="5" bounding="rect(-214.149,-193.332,428.298,386.663)" text="" font-familyName="Helvetica" font-pixelSize="20" font-bold="0" font-underline="0" font-alignment="1" strokeStyle="0" markerStart="0" markerEnd="0" shadowEnabled="0" shadowOffsetX="0" shadowOffsetY="2" shadowBlur="4" shadowOpacity="160" blurEnabled="0" blurRadius="4" transform="matrix(0.206025,0,0,0.206025,49.9628,43.346)" pers-center="0,0" pers-size="0,0" pers-start="0,0" pers-end="0,0" locked="0" mesh="" flag=""/>
            <path id="shapePath1" d="M5.99154,36.2626 C5.61262,35.4067 6.06091,34.3877 6.20366,33.4626 C6.41516,32.0921 6.23471,30.5101 7.05214,29.3899 C7.57578,28.6723 8.75248,28.7162 9.64002,28.7535 C10.5069,28.79 11.5092,28.9672 12.1006,29.602 C13.157,30.736 12.9233,32.9403 14.2643,33.7172 C15.4254,34.3899 18.2521,34.5076 18.2521,33.1657 C18.2521,32.6834 17.6057,28.5068 17.6582,26.1657 C17.6775,25.3028 18.8435,24.4804 18.4642,23.7051 C18.014,22.7845 16.574,22.8708 15.7491,22.2626 C14.5499,21.3786 13.0738,20.6085 12.4368,19.2616 C11.7536,17.8172 11.9602,16.0763 12.0691,14.4821 C12.1318,13.5638 12.4373,12.632 12.9423,11.8625 C14.3901,9.65629 15.9666,7.49672 17.8597,5.6583 C18.6706,4.87079 19.7919,4.39809 20.8929,4.14171 C22.0866,3.86373 23.4046,3.71454 24.5694,4.09576 C26.8682,4.84807 30.0824,6.80839 31.0035,7.45063 C31.0035,7.54117 36.118,5.26835 38.7967,4.56095 C41.1118,3.94959 43.5095,3.5571 45.9036,3.51583 C47.5986,3.4866 49.2363,4.15564 50.9201,4.35192 C53.0256,4.59735 55.1618,4.54265 57.2606,4.83965 C60.0929,5.24045 63.0451,5.35559 65.6912,6.44217 C67.969,7.37747 69.5953,9.45701 71.6833,10.762 C72.4002,11.2101 73.3615,12.1553 74.0522,11.6678 C75.0363,10.9731 74.4209,9.14 75.2367,8.25372 C76.4155,6.97302 78.0574,6.1238 79.6959,5.5364 C80.6144,5.20713 81.6642,5.4213 82.6222,5.60607 C84.9344,6.05199 87.4404,6.19077 89.4504,7.41762 C91.1967,8.48354 92.5756,10.2627 93.3522,12.1555 C94.1311,14.0542 94.2344,16.2606 93.9096,18.2869 C93.7189,19.4763 92.9227,20.6645 91.889,21.2829 C90.167,22.3131 88.3128,21.5702 87.0931,23.1637 C86.2356,24.284 87.4414,25.5216 87.5691,26.9266 C87.6205,27.4913 86.7449,27.7736 86.5937,28.3201 C86.0141,30.4142 86.1507,32.6878 85.4092,34.7302 C84.8043,36.3963 83.9545,38.0899 82.6222,39.2591 C81.5454,40.204 79.269,40.1041 79.4031,40.8821 C79.7648,42.981 80.9479,44.3311 81.5771,46.3659 C82.065,47.9438 82.1577,49.689 81.8558,51.3128 C81.4688,53.3948 80.5216,55.3502 79.5565,57.2352 C79.0209,58.2814 77.7559,58.9031 77.3966,60.0222 C76.9059,61.5505 77.0127,63.228 77.1179,64.8298 C77.2233,66.4342 78.0742,67.9605 78.0237,69.5676 C77.956,71.721 77.5573,73.9028 76.7695,75.9081 C76.2481,77.2353 75.4035,78.5707 74.1916,79.3221 C72.9218,80.1094 71.2923,80.3344 69.802,80.2279 C67.9404,80.0949 66.0648,79.5385 64.4371,78.6254 C63.1194,77.8862 62.3897,76.3912 61.232,75.4203 C60.2202,74.5717 59.1735,73.7053 57.9573,73.1907 C57.2939,72.9101 56.2595,72.5685 55.7974,73.1211 C54.9336,74.1539 55.4492,75.8708 54.7523,77.0229 C53.6196,78.8953 52.2951,80.8108 50.4419,81.9746 C48.8773,82.957 46.8635,82.9857 45.022,83.133 C43.3824,83.2642 41.7185,83.087 40.0985,82.802 C38.9517,82.6003 37.5788,82.5403 36.7887,81.685 C35.7426,80.5524 35.5691,78.8483 35.0924,77.3821 C34.657,76.043 34.7517,74.5117 34.058,73.2862 C32.6464,70.7922 30.1658,68.9826 28.8864,66.4182 C27.5834,63.8066 26.9543,60.8843 26.4374,58.0118 C25.8612,54.8101 25.8008,51.5348 25.6234,48.2866 C25.5719,47.3445 26.6223,45.8232 25.7519,45.459 C23.2842,44.4263 20.2962,45.7777 17.7404,44.9877 C14.6632,44.0366 11.8435,42.2811 9.25764,40.3607 C7.85525,39.3193 6.69869,37.8599 5.99154,36.2626 Z" style="stroke:none;fill-rule:evenodd;fill:#dca98d;fill-opacity:1;"/>
        </g>
        <g id="Shape2">
            <desc shapeID="2" type="0" basicInfo-basicType="0" basicInfo-roundedRectRadius="12" basicInfo-polygonSides="6" basicInfo-starPoints="5" bounding="rect(-15.7391,-18.0842,31.4782,36.1684)" text="" font-familyName="Helvetica" font-pixelSize="20" font-bold="0" font-underline="0" font-alignment="1" strokeStyle="0" markerStart="0" markerEnd="0" shadowEnabled="0" shadowOffsetX="0" shadowOffsetY="2" shadowBlur="4" shadowOpacity="160" blurEnabled="0" blurRadius="4" transform="matrix(0.206025,0,0,0.206025,49.3103,24.3318)" pers-center="0,0" pers-size="0,0" pers-start="0,0" pers-end="0,0" locked="0" mesh="" flag=""/>
            <path id="shapePath2" d="M46.0676,27.4257 C46.0676,27.4257 46.5136,25.01 46.5136,25.01 C46.5136,25.01 48.186,20.959 48.186,20.959 C48.186,20.959 49.5797,20.606 49.5797,20.606 C49.5797,20.606 51.1406,21.9439 51.1406,21.9439 C51.1406,21.9439 52.5529,25.6976 52.5529,25.6976 C52.5529,25.6976 51.6238,27.4072 51.6238,27.4072 C51.6238,27.4072 48.3718,28.0576 48.3718,28.0576 C48.3718,28.0576 46.0676,27.4257 46.0676,27.4257 Z" style="stroke:none;fill-rule:evenodd;fill:#6a5144;fill-opacity:1;"/>
        </g>
        <g id="Shape3">
            <desc shapeID="3" type="0" basicInfo-basicType="0" basicInfo-roundedRectRadius="12" basicInfo-polygonSides="6" basicInfo-starPoints="5" bounding="rect(-23.5757,-23.2976,47.1515,46.5952)" text="" font-familyName="Helvetica" font-pixelSize="20" font-bold="0" font-underline="0" font-alignment="1" strokeStyle="0" markerStart="0" markerEnd="0" shadowEnabled="0" shadowOffsetX="0" shadowOffsetY="2" shadowBlur="4" shadowOpacity="160" blurEnabled="0" blurRadius="4" transform="matrix(0.206025,0,0,0.206025,22.4376,13.0406)" pers-center="0,0" pers-size="0,0" pers-start="0,0" pers-end="0,0" locked="0" mesh="" flag=""/>
            <path id="shapePath3" d="M20.2261,17.8396 C22.1094,17.896 22.8304,15.1676 23.7879,14.0942 C25.156,12.5604 27.8228,11.773 27.2028,10.0183 C26.5332,8.12329 24.0113,7.97211 21.805,8.51278 C20.311,8.87889 17.7888,12.3084 17.619,13.8371 C17.3747,16.0355 18.2976,17.7818 20.2261,17.8396 Z" style="stroke:none;fill-rule:evenodd;fill:#ffc787;fill-opacity:1;"/>
        </g>
        <g id="Shape4">
            <desc shapeID="4" type="0" basicInfo-basicType="0" basicInfo-roundedRectRadius="12" basicInfo-polygonSides="6" basicInfo-starPoints="5" bounding="rect(-18.8443,-21.0524,37.6887,42.1047)" text="" font-familyName="Helvetica" font-pixelSize="20" font-bold="0" font-underline="0" font-alignment="1" strokeStyle="0" markerStart="0" markerEnd="0" shadowEnabled="0" shadowOffsetX="0" shadowOffsetY="2" shadowBlur="4" shadowOpacity="160" blurEnabled="0" blurRadius="4" transform="matrix(0.206025,0,0,0.206025,82.2958,15.2012)" pers-center="0,0" pers-size="0,0" pers-start="0,0" pers-end="0,0" locked="0" mesh="" flag=""/>
            <path id="shapePath4" d="M80.6558,16.065 C79.9099,15.2109 78.346,14.6366 78.4157,13.5048 C78.491,12.2813 79.7506,10.8234 80.9758,10.8647 C82.7726,10.9253 84.4559,12.3076 85.536,13.7449 C86.2853,14.7419 86.323,16.2794 85.936,17.465 C85.6196,18.4346 84.6417,19.7665 83.6559,19.5051 C82.1852,19.1152 81.6566,17.211 80.6558,16.065 Z" style="stroke:none;fill-rule:evenodd;fill:#ffc787;fill-opacity:1;"/>
        </g>
        <g id="Shape5">
            <desc shapeID="5" type="0" basicInfo-basicType="0" basicInfo-roundedRectRadius="12" basicInfo-polygonSides="6" basicInfo-starPoints="5" bounding="rect(-56.4778,-42.6969,112.956,85.3938)" text="" font-familyName="Helvetica" font-pixelSize="20" font-bold="0" font-underline="0" font-alignment="1" strokeStyle="0" markerStart="0" markerEnd="0" shadowEnabled="0" shadowOffsetX="0" shadowOffsetY="2" shadowBlur="4" shadowOpacity="160" blurEnabled="0" blurRadius="4" transform="matrix(0.206025,0,0,0.206025,51.5589,58.1003)" pers-center="0,0" pers-size="0,0" pers-start="0,0" pers-end="0,0" locked="0" mesh="" flag=""/>
            <path id="shapePath5" d="M39.9375,59.9041 C39.8015,57.8243 40.6451,55.6796 41.7727,53.9267 C42.8126,52.31 44.4237,50.9919 46.1771,50.2039 C47.3568,49.6738 48.7679,50.3071 50.0571,50.2039 C52.2699,50.0269 54.4659,49.0525 56.6637,49.365 C58.3361,49.6028 59.9966,50.5159 61.1205,51.777 C62.2781,53.0757 62.894,54.8749 63.113,56.6008 C63.3458,58.4353 63.0698,60.3708 62.4314,62.1063 C61.7954,63.8351 61.0106,65.8442 59.3903,66.7204 C58.1842,67.3726 56.7217,66.0134 55.3529,65.9339 C53.9879,65.8547 52.6278,66.3321 51.2631,66.2485 C48.3268,66.0687 45.0733,66.5851 42.5067,65.1474 C40.8087,64.1962 40.0646,61.8463 39.9375,59.9041 Z" style="stroke:none;fill-rule:evenodd;fill:#ffc787;fill-opacity:1;"/>
        </g>
        <g id="Shape6">
            <desc shapeID="6" type="0" basicInfo-basicType="0" basicInfo-roundedRectRadius="12" basicInfo-polygonSides="6" basicInfo-starPoints="5" bounding="rect(-2.90946,-7.90767,5.81894,15.8153)" text="" font-familyName="" font-pixelSize="20" font-bold="0" font-underline="0" font-alignment="1" strokeStyle="0" markerStart="0" markerEnd="0" shadowEnabled="0" shadowOffsetX="0" shadowOffsetY="2" shadowBlur="4" shadowOpacity="160" blurEnabled="0" blurRadius="4" transform="matrix(0.206025,0,0,0.206025,85.8312,3.14295)" pers-center="0,0" pers-size="0,0" pers-start="0,0" pers-end="0,0" locked="0" mesh="" flag=""/>
            <path id="shapePath6" d="M85.3796,2.96686 C85.256,3.77036 85.1942,4.53266 85.256,4.61505 C85.6269,5.21253 86.2862,4.0176 86.4098,2.51361 C86.4716,1.71011 86.4098,1.5865 86.0389,1.52468 C85.6681,1.46289 85.5857,1.6277 85.3796,2.96686 Z" style="stroke:none;fill-rule:nonzero;fill:#000000;fill-opacity:1;"/>
        </g>
        <g id="Shape7">
            <desc shapeID="7" type="0" basicInfo-basicType="0" basicInfo-roundedRectRadius="12" basicInfo-polygonSides="6" basicInfo-starPoints="5" bounding="rect(-2.52458,-5.36827,5.04909,10.7364)" text="" font-familyName="" font-pixelSize="20" font-bold="0" font-underline="0" font-alignment="1" strokeStyle="0" markerStart="0" markerEnd="0" shadowEnabled="0" shadowOffsetX="0" shadowOffsetY="2" shadowBlur="4" shadowOpacity="160" blurEnabled="0" blurRadius="4" transform="matrix(0.206025,0,0,0.206025,57.3663,3.26186)" pers-center="0,0" pers-size="0,0" pers-start="0,0" pers-end="0,0" locked="0" mesh="" flag=""/>
            <path id="shapePath7" d="M56.9277,2.47242 C56.701,2.88447 56.9895,4.36784 57.2779,4.36784 C57.8342,4.34724 57.999,3.95579 57.8136,3.11109 C57.6075,2.14276 57.2573,1.87494 56.9277,2.47242 Z" style="stroke:none;fill-rule:nonzero;fill:#000000;fill-opacity:1;"/>
        </g>
        <g id="Shape8">
            <desc shapeID="8" type="0" basicInfo-basicType="0" basicInfo-roundedRectRadius="12" basicInfo-polygonSides="6" basicInfo-starPoints="5" bounding="rect(-5.22068,-4.79773,10.4415,9.59552)" text="" font-familyName="" font-pixelSize="20" font-bold="0" font-underline="0" font-alignment="1" strokeStyle="0" markerStart="0" markerEnd="0" shadowEnabled="0" shadowOffsetX="0" shadowOffsetY="2" shadowBlur="4" shadowOpacity="160" blurEnabled="0" blurRadius="4" transform="matrix(0.206025,0,0,0.206025,61.0797,3.70809)" pers-center="0,0" pers-size="0,0" pers-start="0,0" pers-end="0,0" locked="0" mesh="" flag=""/>
            <path id="shapePath8" d="M60.8833,3.35831 C60.018,3.95578 59.7914,4.42965 60.2034,4.67687 C60.4301,4.82108 61.6456,4.14121 62.0371,3.66734 C62.2637,3.39953 62.1401,2.71964 61.8722,2.71964 C61.8104,2.74023 61.3572,3.00808 60.8833,3.35831 Z" style="stroke:none;fill-rule:nonzero;fill:#000000;fill-opacity:1;"/>
        </g>
        <g id="Shape9">
            <desc shapeID="9" type="0" basicInfo-basicType="0" basicInfo-roundedRectRadius="12" basicInfo-polygonSides="6" basicInfo-starPoints="5" bounding="rect(-82.4767,-10.5532,164.953,21.1066)" text="" font-familyName="" font-pixelSize="20" font-bold="0" font-underline="0" font-alignment="1" strokeStyle="0" markerStart="0" markerEnd="0" shadowEnabled="0" shadowOffsetX="0" shadowOffsetY="2" shadowBlur="4" shadowOpacity="160" blurEnabled="0" blurRadius="4" transform="matrix(0.206025,0,0,0.206025,34.5906,5.37824)" pers-center="0,0" pers-size="0,0" pers-start="0,0" pers-end="0,0" locked="0" mesh="" flag=""/>
            <path id="shapePath9" d="M21.5738,3.35831 C19.4312,3.87337 19.0603,4.0176 18.4216,4.53266 C17.7624,5.08892 17.3709,6.07785 17.7418,6.30447 C17.8448,6.38688 18.195,6.16024 18.5453,5.8306 C19.8638,4.49144 22.5009,4.0382 24.7672,4.73869 C26.9923,5.41855 28.2696,5.99543 28.8465,6.55169 C29.6706,7.33459 30.5153,7.72604 30.8243,7.4788 C30.9685,7.35519 31.257,7.31399 31.4836,7.37579 C31.7309,7.4376 32.7198,7.14917 33.8529,6.6547 C35.8719,5.78941 39.0653,4.98591 42.1145,4.55326 C43.8039,4.32664 47.6153,4.47085 50.6851,4.92409 C51.6534,5.04772 51.8594,4.71806 51.2002,4.12061 C50.7057,3.68794 50.2937,3.58493 48.357,3.46132 C47.4505,3.3789 46.0702,3.29651 45.2667,3.2347 C43.9893,3.13169 42.7738,3.27589 39.601,3.85277 C38.2,4.09999 34.6976,5.19193 33.5645,5.70699 C32.9258,5.99543 32.3283,6.22205 32.2459,6.22205 C32.1429,6.22205 31.8545,6.40748 31.6072,6.6341 L31.154,7.06675 L29.753,5.97483 C28.9907,5.35676 28.043,4.71806 27.6516,4.55326 C26.9099,4.203 24.7878,3.54373 24.0461,3.44072 C22.6451,3.1935 22.3155,3.1935 21.5738,3.35831 Z" style="stroke:none;fill-rule:nonzero;fill:#000000;fill-opacity:1;"/>
        </g>
        <g id="Shape10">
            <desc shapeID="10" type="0" basicInfo-basicType="0" basicInfo-roundedRectRadius="12" basicInfo-polygonSides="6" basicInfo-starPoints="5" bounding="rect(-4.68222,-4.9922,9.36459,9.98443)" text="" font-familyName="" font-pixelSize="20" font-bold="0" font-underline="0" font-alignment="1" strokeStyle="0" markerStart="0" markerEnd="0" shadowEnabled="0" shadowOffsetX="0" shadowOffsetY="2" shadowBlur="4" shadowOpacity="160" blurEnabled="0" blurRadius="4" transform="matrix(0.206025,0,0,0.206025,88.6045,4.81034)" pers-center="0,0" pers-size="0,0" pers-start="0,0" pers-end="0,0" locked="0" mesh="" flag=""/>
            <path id="shapePath10" d="M88.264,4.55326 C87.1309,5.95421 87.6459,6.32507 88.9645,5.08892 C89.5826,4.49144 89.6856,4.32664 89.4589,4.0588 C89.0881,3.60555 88.9851,3.66735 88.264,4.55326 Z" style="stroke:none;fill-rule:nonzero;fill:#000000;fill-opacity:1;"/>
        </g>
        <g id="Shape11">
            <desc shapeID="11" type="0" basicInfo-basicType="0" basicInfo-roundedRectRadius="12" basicInfo-polygonSides="6" basicInfo-starPoints="5" bounding="rect(-22.9443,-18.3661,45.8885,36.7321)" text="" font-familyName="" font-pixelSize="20" font-bold="0" font-underline="0" font-alignment="1" strokeStyle="0" markerStart="0" markerEnd="0" shadowEnabled="0" shadowOffsetX="0" shadowOffsetY="2" shadowBlur="4" shadowOpacity="160" blurEnabled="0" blurRadius="4" transform="matrix(0.206025,0,0,0.206025,78.3221,8.58062)" pers-center="0,0" pers-size="0,0" pers-start="0,0" pers-end="0,0" locked="0" mesh="" flag=""/>
            <path id="shapePath11" d="M79.1989,5.17133 C78.6014,5.37736 77.6949,5.8306 77.2005,6.20146 C76.706,6.55169 76.2322,6.84013 76.1291,6.84013 C75.4492,6.84013 73.6157,9.64206 73.595,10.6722 C73.595,11.4757 74.0277,12.4234 74.3985,12.3616 C74.6664,12.2998 74.7075,12.0938 74.6664,11.3521 C74.5428,9.55964 75.2844,8.52952 77.6743,7.10797 C79.2607,6.20146 80.5792,5.8512 81.733,6.03663 C82.3717,6.16024 82.6189,6.11904 82.8249,5.8512 C83.1958,5.37736 83.134,5.25375 82.4335,5.00651 C81.5064,4.67687 80.4557,4.73869 79.1989,5.17133 Z" style="stroke:none;fill-rule:nonzero;fill:#000000;fill-opacity:1;"/>
        </g>
        <g id="Shape12">
            <desc shapeID="12" type="0" basicInfo-basicType="0" basicInfo-roundedRectRadius="12" basicInfo-polygonSides="6" basicInfo-starPoints="5" bounding="rect(-18.5576,-12.7234,37.1151,25.4467)" text="" font-familyName="" font-pixelSize="20" font-bold="0" font-underline="0" font-alignment="1" strokeStyle="0" markerStart="0" markerEnd="0" shadowEnabled="0" shadowOffsetX="0" shadowOffsetY="2" shadowBlur="4" shadowOpacity="160" blurEnabled="0" blurRadius="4" transform="matrix(0.206025,0,0,0.206025,68.4494,8.77561)" pers-center="0,0" pers-size="0,0" pers-start="0,0" pers-end="0,0" locked="0" mesh="" flag=""/>
            <path id="shapePath12" d="M64.736,6.30447 C64.5506,6.55169 64.5918,6.69592 64.9214,7.02556 C65.1686,7.27278 65.5189,7.4582 65.7249,7.4582 C66.2194,7.4582 67.9706,8.50892 69.0625,9.45663 C71.1846,11.2903 71.6584,11.5787 72.0292,11.3109 C72.5031,10.9606 72.2971,10.528 71.3082,9.80689 C70.8343,9.47725 70.0308,8.79736 69.4951,8.3029 C68.0118,6.90195 65.2304,5.72759 64.736,6.30447 Z" style="stroke:none;fill-rule:nonzero;fill:#000000;fill-opacity:1;"/>
        </g>
        <g id="Shape13">
            <desc shapeID="13" type="0" basicInfo-basicType="0" basicInfo-roundedRectRadius="12" basicInfo-polygonSides="6" basicInfo-starPoints="5" bounding="rect(-17.6234,-38.4228,35.2467,76.8455)" text="" font-familyName="" font-pixelSize="20" font-bold="0" font-underline="0" font-alignment="1" strokeStyle="0" markerStart="0" markerEnd="0" shadowEnabled="0" shadowOffsetX="0" shadowOffsetY="2" shadowBlur="4" shadowOpacity="160" blurEnabled="0" blurRadius="4" transform="matrix(0.206025,0,0,0.206025,90.7135,14.9173)" pers-center="0,0" pers-size="0,0" pers-start="0,0" pers-end="0,0" locked="0" mesh="" flag=""/>
            <path id="shapePath13" d="M88.882,7.08735 C88.47,7.4994 88.5936,7.87025 89.2529,8.1381 C89.5826,8.2823 90.1182,8.77677 90.4479,9.20941 C90.7775,9.66266 91.2925,10.2601 91.581,10.5692 C92.3845,11.3521 93.2086,14.0304 93.3116,16.1112 C93.4558,19.5518 92.4257,20.891 89.1705,21.5709 C87.8931,21.8387 87.3163,22.0654 87.172,22.3332 C86.863,22.9101 87.3163,22.9719 89.1499,22.601 C91.3955,22.1271 92.5699,21.4885 93.3528,20.3141 C93.7031,19.7785 94.0121,19.2428 94.0121,19.1192 C94.0327,18.9956 94.0739,18.7071 94.1151,18.4805 C94.4241,16.6675 94.4241,15.555 94.0945,14.1952 C93.497,11.7023 93.1468,10.7752 92.5287,10.0953 C92.1991,9.74507 91.6634,9.0858 91.3543,8.61194 C90.6745,7.60241 89.2529,6.71652 88.882,7.08735 Z" style="stroke:none;fill-rule:nonzero;fill:#000000;fill-opacity:1;"/>
        </g>
        <g id="Shape14">
            <desc shapeID="14" type="0" basicInfo-basicType="0" basicInfo-roundedRectRadius="12" basicInfo-polygonSides="6" basicInfo-starPoints="5" bounding="rect(-6.95879,-3.13603,13.9177,6.27206)" text="" font-familyName="" font-pixelSize="20" font-bold="0" font-underline="0" font-alignment="1" strokeStyle="0" markerStart="0" markerEnd="0" shadowEnabled="0" shadowOffsetX="0" shadowOffsetY="2" shadowBlur="4" shadowOpacity="160" blurEnabled="0" blurRadius="4" transform="matrix(0.206025,0,0,0.206025,12.0022,7.70565)" pers-center="0,0" pers-size="0,0" pers-start="0,0" pers-end="0,0" locked="0" mesh="" flag=""/>
            <path id="shapePath14" d="M10.6133,7.37579 C10.4279,7.87025 10.7987,8.09687 12.0761,8.2617 C13.3328,8.42651 13.4359,8.40591 13.4359,7.84965 C13.4359,7.58181 13.168,7.43761 12.4057,7.27278 C11.0048,6.96374 10.7575,6.98434 10.6133,7.37579 Z" style="stroke:none;fill-rule:nonzero;fill:#000000;fill-opacity:1;"/>
        </g>
        <g id="Shape15">
            <desc shapeID="15" type="0" basicInfo-basicType="0" basicInfo-roundedRectRadius="12" basicInfo-polygonSides="6" basicInfo-starPoints="5" bounding="rect(-5.42961,-6.45203,10.8593,12.9042)" text="" font-familyName="" font-pixelSize="20" font-bold="0" font-underline="0" font-alignment="1" strokeStyle="0" markerStart="0" markerEnd="0" shadowEnabled="0" shadowOffsetX="0" shadowOffsetY="2" shadowBlur="4" shadowOpacity="160" blurEnabled="0" blurRadius="4" transform="matrix(0.206025,0,0,0.206025,26.5527,9.63132)" pers-center="0,0" pers-size="0,0" pers-start="0,0" pers-end="0,0" locked="0" mesh="" flag=""/>
            <path id="shapePath15" d="M25.4471,8.61193 C25.3647,8.81796 25.6737,9.27123 26.333,9.95109 C26.8687,10.5074 27.4043,10.9606 27.5073,10.9606 C27.94,10.9606 27.4455,9.45663 26.8481,8.87978 C26.1476,8.22048 25.6325,8.11747 25.4471,8.61193 Z" style="stroke:none;fill-rule:nonzero;fill:#000000;fill-opacity:1;"/>
        </g>
        <g id="Shape16">
            <desc shapeID="16" type="0" basicInfo-basicType="0" basicInfo-roundedRectRadius="12" basicInfo-polygonSides="6" basicInfo-starPoints="5" bounding="rect(-5.37795,-3.61518,10.756,7.23033)" text="" font-familyName="" font-pixelSize="20" font-bold="0" font-underline="0" font-alignment="1" strokeStyle="0" markerStart="0" markerEnd="0" shadowEnabled="0" shadowOffsetX="0" shadowOffsetY="2" shadowBlur="4" shadowOpacity="160" blurEnabled="0" blurRadius="4" transform="matrix(0.206025,0,0,0.206025,11.9264,10.8036)" pers-center="0,0" pers-size="0,0" pers-start="0,0" pers-end="0,0" locked="0" mesh="" flag=""/>
            <path id="shapePath16" d="M11.7877,10.3425 C10.7987,10.734 10.6545,10.8988 10.9636,11.3727 C11.1284,11.6405 11.2932,11.6199 12.0967,11.1872 C12.9414,10.734 13.2504,10.3014 12.8796,10.0747 C12.7766,10.0129 12.3027,10.1365 11.7877,10.3425 Z" style="stroke:none;fill-rule:nonzero;fill:#000000;fill-opacity:1;"/>
        </g>
        <g id="Shape17">
            <desc shapeID="17" type="0" basicInfo-basicType="0" basicInfo-roundedRectRadius="12" basicInfo-polygonSides="6" basicInfo-starPoints="5" bounding="rect(-3.03863,-6.93064,6.07709,13.8612)" text="" font-familyName="" font-pixelSize="20" font-bold="0" font-underline="0" font-alignment="1" strokeStyle="0" markerStart="0" markerEnd="0" shadowEnabled="0" shadowOffsetX="0" shadowOffsetY="2" shadowBlur="4" shadowOpacity="160" blurEnabled="0" blurRadius="4" transform="matrix(0.206025,0,0,0.206025,80.8245,11.593)" pers-center="0,0" pers-size="0,0" pers-start="0,0" pers-end="0,0" locked="0" mesh="" flag=""/>
            <path id="shapePath17" d="M80.8059,10.3425 C80.6411,10.4456 80.5999,10.5486 80.7029,10.5486 C80.8265,10.5486 80.7853,10.631 80.6411,10.7134 C80.4969,10.8164 80.332,11.3727 80.2496,11.9495 C80.1466,12.856 80.1878,13.0209 80.4762,13.0209 C80.6617,13.0209 80.8059,12.9179 80.8059,12.8148 C80.8059,12.6912 80.9707,12.238 81.1768,11.8053 C81.4446,11.2903 81.5064,10.8782 81.4034,10.5898 C81.1973,10.0747 81.2179,10.0747 80.8059,10.3425 Z" style="stroke:none;fill-rule:nonzero;fill:#000000;fill-opacity:1;"/>
        </g>
        <g id="Shape18">
            <desc shapeID="18" type="0" basicInfo-basicType="0" basicInfo-roundedRectRadius="12" basicInfo-polygonSides="6" basicInfo-starPoints="5" bounding="rect(-12.5009,-26.7765,25.0016,53.553)" text="" font-familyName="" font-pixelSize="20" font-bold="0" font-underline="0" font-alignment="1" strokeStyle="0" markerStart="0" markerEnd="0" shadowEnabled="0" shadowOffsetX="0" shadowOffsetY="2" shadowBlur="4" shadowOpacity="160" blurEnabled="0" blurRadius="4" transform="matrix(0.206025,0,0,0.206025,14.0953,17.3934)" pers-center="0,0" pers-size="0,0" pers-start="0,0" pers-end="0,0" locked="0" mesh="" flag=""/>
            <path id="shapePath18" d="M12.5293,12.0938 C11.9937,12.6294 11.5404,14.6073 11.5198,16.4203 C11.5198,17.883 11.6022,18.2951 12.1379,19.4282 C13.2092,21.6739 14.5484,22.9101 15.8876,22.9101 C17.0413,22.9101 16.8765,22.0448 15.6815,21.7769 C15.3519,21.6945 14.7956,21.4061 14.4454,21.1176 C13.7449,20.5202 12.7354,18.6865 12.9002,18.2745 C12.962,18.1097 12.9002,17.9655 12.756,17.9036 C12.5912,17.8624 12.5087,17.3062 12.4881,16.4203 C12.4676,15.0811 12.5706,14.4218 13.065,12.856 C13.3122,11.9907 13.0444,11.5993 12.5293,12.0938 Z" style="stroke:none;fill-rule:nonzero;fill:#000000;fill-opacity:1;"/>
        </g>
        <g id="Shape19">
            <desc shapeID="19" type="0" basicInfo-basicType="0" basicInfo-roundedRectRadius="12" basicInfo-polygonSides="6" basicInfo-starPoints="5" bounding="rect(-6.52883,-4.60183,13.0576,9.20367)" text="" font-familyName="" font-pixelSize="20" font-bold="0" font-underline="0" font-alignment="1" strokeStyle="0" markerStart="0" markerEnd="0" shadowEnabled="0" shadowOffsetX="0" shadowOffsetY="2" shadowBlur="4" shadowOpacity="160" blurEnabled="0" blurRadius="4" transform="matrix(0.206025,0,0,0.206025,22.392,13.3631)" pers-center="0,0" pers-size="0,0" pers-start="0,0" pers-end="0,0" locked="0" mesh="" flag=""/>
            <path id="shapePath19" d="M21.203,12.547 C20.9146,12.8148 21.0588,13.6389 21.3678,13.6389 C21.5532,13.6389 22.0271,13.8038 22.4597,14.0304 C23.2014,14.4012 23.7371,14.4012 23.7371,14.051 C23.7371,13.7831 22.913,13.0415 22.2125,12.7118 C21.5326,12.3616 21.3884,12.341 21.203,12.547 Z" style="stroke:none;fill-rule:nonzero;fill:#000000;fill-opacity:1;"/>
        </g>
        <g id="Shape20">
            <desc shapeID="20" type="0" basicInfo-basicType="0" basicInfo-roundedRectRadius="12" basicInfo-polygonSides="6" basicInfo-starPoints="5" bounding="rect(-7.8508,-2.75824,15.7018,5.51646)" text="" font-familyName="" font-pixelSize="20" font-bold="0" font-underline="0" font-alignment="1" strokeStyle="0" markerStart="0" markerEnd="0" shadowEnabled="0" shadowOffsetX="0" shadowOffsetY="2" shadowBlur="4" shadowOpacity="160" blurEnabled="0" blurRadius="4" transform="matrix(0.206025,0,0,0.206025,85.3383,13.7899)" pers-center="0,0" pers-size="0,0" pers-start="0,0" pers-end="0,0" locked="0" mesh="" flag=""/>
            <path id="shapePath20" d="M83.8963,13.5359 C83.4018,14.1128 83.9786,14.4424 85.2972,14.3394 C86.4922,14.2364 87.1515,13.8656 86.9042,13.4535 C86.6776,13.1033 84.2053,13.1651 83.8963,13.5359 Z" style="stroke:none;fill-rule:nonzero;fill:#000000;fill-opacity:1;"/>
        </g>
        <g id="Shape21">
            <desc shapeID="21" type="0" basicInfo-basicType="0" basicInfo-roundedRectRadius="12" basicInfo-polygonSides="6" basicInfo-starPoints="5" bounding="rect(-6.40524,-3.5,12.8104,7)" text="" font-familyName="" font-pixelSize="20" font-bold="0" font-underline="0" font-alignment="1" strokeStyle="0" markerStart="0" markerEnd="0" shadowEnabled="0" shadowOffsetX="0" shadowOffsetY="2" shadowBlur="4" shadowOpacity="160" blurEnabled="0" blurRadius="4" transform="matrix(0.206025,0,0,0.206025,19.3382,17.0383)" pers-center="0,0" pers-size="0,0" pers-start="0,0" pers-end="0,0" locked="0" mesh="" flag=""/>
            <path id="shapePath21" d="M18.092,16.5027 C17.7212,17.0795 18.8131,17.7594 20.0492,17.7594 C20.6055,17.7594 20.7497,17.5534 20.6055,16.9765 C20.5643,16.8323 18.9573,16.3379 18.4423,16.3173 C18.3186,16.3173 18.1538,16.3997 18.092,16.5027 Z" style="stroke:none;fill-rule:nonzero;fill:#000000;fill-opacity:1;"/>
        </g>
        <g id="Shape22">
            <desc shapeID="22" type="0" basicInfo-basicType="0" basicInfo-roundedRectRadius="12" basicInfo-polygonSides="6" basicInfo-starPoints="5" bounding="rect(-4.94644,-2.55394,9.89273,5.10777)" text="" font-familyName="" font-pixelSize="20" font-bold="0" font-underline="0" font-alignment="1" strokeStyle="0" markerStart="0" markerEnd="0" shadowEnabled="0" shadowOffsetX="0" shadowOffsetY="2" shadowBlur="4" shadowOpacity="160" blurEnabled="0" blurRadius="4" transform="matrix(0.206025,0,0,0.206025,85.7616,17.2633)" pers-center="0,0" pers-size="0,0" pers-start="0,0" pers-end="0,0" locked="0" mesh="" flag=""/>
            <path id="shapePath22" d="M84.7822,17.0589 C84.638,17.471 84.8852,17.7182 85.5445,17.7594 C86.4716,17.8419 86.7806,17.7594 86.7806,17.4504 C86.7806,16.7911 85.0294,16.4409 84.7822,17.0589 Z" style="stroke:none;fill-rule:nonzero;fill:#000000;fill-opacity:1;"/>
        </g>
        <g id="Shape23">
            <desc shapeID="23" type="0" basicInfo-basicType="0" basicInfo-roundedRectRadius="12" basicInfo-polygonSides="6" basicInfo-starPoints="5" bounding="rect(-2.625,-7,5.25003,14)" text="" font-familyName="" font-pixelSize="20" font-bold="0" font-underline="0" font-alignment="1" strokeStyle="0" markerStart="0" markerEnd="0" shadowEnabled="0" shadowOffsetX="0" shadowOffsetY="2" shadowBlur="4" shadowOpacity="160" blurEnabled="0" blurRadius="4" transform="matrix(0.206025,0,0,0.206025,54.5635,19.8197)" pers-center="0,0" pers-size="0,0" pers-start="0,0" pers-end="0,0" locked="0" mesh="" flag=""/>
            <path id="shapePath23" d="M54.0227,19.8197 C54.0227,20.9734 54.0845,21.2619 54.3317,21.2619 C54.6614,21.2619 55.0734,20.4584 54.9086,20.1699 C54.8674,20.0875 54.9086,20.0257 55.0116,20.0257 C55.1352,20.0257 55.1352,19.7167 55.0116,19.2016 C54.8468,18.6041 54.682,18.3775 54.4142,18.3775 C54.0639,18.3775 54.0227,18.5423 54.0227,19.8197 Z" style="stroke:none;fill-rule:nonzero;fill:#000000;fill-opacity:1;"/>
        </g>
        <g id="Shape24">
            <desc shapeID="24" type="0" basicInfo-basicType="0" basicInfo-roundedRectRadius="12" basicInfo-polygonSides="6" basicInfo-starPoints="5" bounding="rect(-2.21169,-5.19409,4.42348,10.3881)" text="" font-familyName="" font-pixelSize="20" font-bold="0" font-underline="0" font-alignment="1" strokeStyle="0" markerStart="0" markerEnd="0" shadowEnabled="0" shadowOffsetX="0" shadowOffsetY="2" shadowBlur="4" shadowOpacity="160" blurEnabled="0" blurRadius="4" transform="matrix(0.206025,0,0,0.206025,43.3688,19.6767)" pers-center="0,0" pers-size="0,0" pers-start="0,0" pers-end="0,0" locked="0" mesh="" flag=""/>
            <path id="shapePath24" d="M42.9386,19.6549 C43.0004,20.582 43.0622,20.7468 43.4124,20.7468 C43.7627,20.7468 43.8245,20.6026 43.8245,19.7167 C43.8245,18.7896 43.7833,18.6865 43.3506,18.6247 C42.8974,18.5629 42.8768,18.6041 42.9386,19.6549 Z" style="stroke:none;fill-rule:nonzero;fill:#000000;fill-opacity:1;"/>
        </g>
        <g id="Shape25">
            <desc shapeID="25" type="0" basicInfo-basicType="0" basicInfo-roundedRectRadius="12" basicInfo-polygonSides="6" basicInfo-starPoints="5" bounding="rect(-17.4259,-20.1973,34.8519,40.3946)" text="" font-familyName="" font-pixelSize="20" font-bold="0" font-underline="0" font-alignment="1" strokeStyle="0" markerStart="0" markerEnd="0" shadowEnabled="0" shadowOffsetX="0" shadowOffsetY="2" shadowBlur="4" shadowOpacity="160" blurEnabled="0" blurRadius="4" transform="matrix(0.206025,0,0,0.206025,49.1659,24.2963)" pers-center="0,0" pers-size="0,0" pers-start="0,0" pers-end="0,0" locked="0" mesh="" flag=""/>
            <path id="shapePath25" d="M48.563,20.2317 C48.1304,20.3966 47.4711,21.0558 47.7184,21.0558 C47.8008,21.0558 47.6978,21.303 47.4711,21.6121 C47.0179,22.2714 46.3586,24.208 45.8847,26.2683 C45.7199,27.0512 45.5757,27.7104 45.5757,27.731 C45.5757,27.7723 45.9465,27.9577 46.3998,28.1637 C47.0385,28.4521 47.5123,28.5139 48.6042,28.4109 C52.3539,28.0813 53.4664,26.6185 52.3333,23.5899 C51.5504,21.4267 50.7263,20.4584 49.4902,20.1699 C49.2017,20.1081 48.7897,20.1287 48.563,20.2317 M50.2318,21.9211 C51.468,23.4045 52.1067,25.8356 51.4268,26.4331 C50.7263,27.0305 48.9133,27.5044 47.7801,27.3808 C47.2239,27.2984 46.7088,27.2159 46.6676,27.1747 C46.5646,27.0717 47.2445,24.6406 47.7801,23.2191 C48.5836,21.0764 49.2223,20.7468 50.2318,21.9211 Z" style="stroke:none;fill-rule:nonzero;fill:#000000;fill-opacity:1;"/>
        </g>
        <g id="Shape26">
            <desc shapeID="26" type="0" basicInfo-basicType="0" basicInfo-roundedRectRadius="12" basicInfo-polygonSides="6" basicInfo-starPoints="5" bounding="rect(-171.513,-57.071,343.027,114.142)" text="" font-familyName="" font-pixelSize="20" font-bold="0" font-underline="0" font-alignment="1" strokeStyle="0" markerStart="0" markerEnd="0" shadowEnabled="0" shadowOffsetX="0" shadowOffsetY="2" shadowBlur="4" shadowOpacity="160" blurEnabled="0" blurRadius="4" transform="matrix(0.206025,0,0,0.206025,52.3032,34.075)" pers-center="0,0" pers-size="0,0" pers-start="0,0" pers-end="0,0" locked="0" mesh="" flag=""/>
            <path id="shapePath26" d="M18.2156,23.2603 C16.9383,26.1241 16.6911,28.1431 17.2473,31.0686 C17.6388,33.1495 19.2045,36.3016 20.2965,37.2288 C21.0794,37.9086 24.2521,39.598 24.726,39.598 C24.8702,39.598 25.4883,39.8865 26.0858,40.2161 C26.7038,40.5663 27.7958,41.0196 28.5168,41.2462 C30.1857,41.7407 31.3188,42.1527 31.4836,42.3382 C31.566,42.4206 31.8132,42.4824 32.0399,42.4824 C32.2665,42.4824 33.07,42.6678 33.8117,42.8738 C34.5534,43.1005 36.2016,43.4301 37.4377,43.6155 C39.5186,43.9039 42.2793,44.4396 46.1938,45.3049 C48.2128,45.7376 48.0274,45.7376 52.0861,45.82 C55.1764,45.8818 59.6266,45.717 61.9546,45.4697 C62.4079,45.4286 63.7059,45.3255 64.839,45.2431 C66.9817,45.0989 69.1449,44.6868 71.7408,43.9452 C72.5855,43.6979 73.4302,43.4713 73.595,43.4301 C74.6045,43.1828 77.2417,42.0291 78.313,41.3904 C78.725,41.1226 79.8788,40.6075 80.9089,40.2161 C82.2274,39.7011 82.9898,39.2478 83.5872,38.6709 C84.4525,37.8056 85.9565,35.0655 85.9565,34.3444 C85.9565,34.1178 86.1007,33.5409 86.2655,33.0876 C86.4304,32.6138 86.6158,31.7691 86.6982,31.2334 C86.76,30.6772 86.863,30.0797 86.8836,29.8737 C86.9248,29.6882 87.0278,29.1114 87.0896,28.5963 C87.172,28.0607 87.3163,27.5868 87.4193,27.525 C87.9756,27.1954 87.3781,24.2286 86.7188,24.0226 C86.0389,23.796 85.8535,24.2492 86.3479,25.0321 C86.863,25.8562 86.8836,26.5155 86.4922,27.5868 C86.3274,28.0195 86.0801,29.1114 85.9565,30.0179 C85.4826,33.5615 85.0088,35.0655 83.8756,36.7961 C83.0928,37.9705 81.6506,39.186 81.0325,39.186 C80.8883,39.186 79.5904,39.7217 78.1688,40.4015 C74.7076,41.9879 73.6774,42.3587 70.2162,43.2035 C67.0847,43.9658 62.8199,44.419 56.598,44.6456 C53.1368,44.7693 47.2239,44.5014 45.9877,44.1512 C45.1636,43.9039 40.3633,42.8738 39.601,42.7708 C39.3125,42.7296 38.6739,42.6678 38.1588,42.606 C36.5106,42.4206 35.0684,42.091 31.5042,41.0196 C27.7958,39.9071 27.1159,39.6599 26.6214,39.2684 C26.4566,39.1242 25.5913,38.7739 24.726,38.4649 C23.8401,38.1559 22.6658,37.5996 22.0889,37.2288 C21.0176,36.5489 19.8226,35.2097 19.8226,34.7358 C19.8226,34.5711 19.7402,34.4474 19.6578,34.4474 C19.3282,34.4474 18.4216,32.0781 18.1744,30.5742 C17.8448,28.5551 18.1744,25.0527 18.7925,24.2492 C19.1633,23.7547 19.3694,22.7452 19.1427,22.5186 C18.7719,22.1478 18.6895,22.2302 18.2156,23.2603 Z" style="stroke:none;fill-rule:nonzero;fill:#000000;fill-opacity:1;"/>
        </g>
        <g id="Shape27">
            <desc shapeID="27" type="0" basicInfo-basicType="0" basicInfo-roundedRectRadius="12" basicInfo-polygonSides="6" basicInfo-starPoints="5" bounding="rect(-21.2635,-15.3352,42.527,30.6705)" text="" font-familyName="" font-pixelSize="20" font-bold="0" font-underline="0" font-alignment="1" strokeStyle="0" markerStart="0" markerEnd="0" shadowEnabled="0" shadowOffsetX="0" shadowOffsetY="2" shadowBlur="4" shadowOpacity="160" blurEnabled="0" blurRadius="4" transform="matrix(0.206025,0,0,0.206025,10.2861,31.3762)" pers-center="0,0" pers-size="0,0" pers-start="0,0" pers-end="0,0" locked="0" mesh="" flag=""/>
            <path id="shapePath27" d="M7.35813,28.6787 C6.41042,29.3998 5.75112,31.4601 5.93655,33.0876 C6.01897,33.7263 6.16317,34.2414 6.24559,34.2414 C6.3486,34.2414 6.49283,34.262 6.57522,34.2826 C6.65764,34.3238 6.71946,33.6027 6.74005,32.6756 C6.78125,29.8943 7.60535,28.8848 9.6038,29.1732 C10.3043,29.2762 10.7163,29.5235 11.4992,30.3063 C12.0555,30.8626 12.5293,31.4807 12.5706,31.6661 C12.6118,31.8515 12.7972,32.3048 13.0032,32.655 C13.2092,33.0259 13.4359,33.5615 13.4977,33.85 C13.7037,34.6328 14.2188,34.7771 14.466,34.1178 C14.7338,33.4585 14.7338,33.2113 14.466,33.2113 C14.363,33.2113 14.2599,33.0465 14.2599,32.8199 C14.2599,31.8721 12.3851,29.235 11.2726,28.6375 C11.046,28.5139 10.2219,28.3491 9.45957,28.2667 C8.14103,28.1637 7.9762,28.1843 7.35813,28.6787 Z" style="stroke:none;fill-rule:nonzero;fill:#000000;fill-opacity:1;"/>
        </g>
        <g id="Shape28">
            <desc shapeID="28" type="0" basicInfo-basicType="0" basicInfo-roundedRectRadius="12" basicInfo-polygonSides="6" basicInfo-starPoints="5" bounding="rect(-176.128,-117,352.256,234)" text="" font-familyName="" font-pixelSize="20" font-bold="0" font-underline="0" font-alignment="1" strokeStyle="0" markerStart="0" markerEnd="0" shadowEnabled="0" shadowOffsetX="0" shadowOffsetY="2" shadowBlur="4" shadowOpacity="160" blurEnabled="0" blurRadius="4" transform="matrix(0.206025,0,0,0.206025,41.9424,59.7885)" pers-center="0,0" pers-size="0,0" pers-start="0,0" pers-end="0,0" locked="0" mesh="" flag=""/>
            <path id="shapePath28" d="M5.70993,36.3428 C5.95715,37.4554 6.3692,38.0941 8.03802,39.8247 C10.4897,42.4 13.0856,44.0894 15.9081,44.9547 C18.7307,45.7994 19.699,45.9848 22.2949,46.129 C23.7165,46.1908 24.932,46.335 24.9938,46.4381 C25.0556,46.5411 25.1174,47.6536 25.1381,48.931 C25.2411,54.7821 25.5707,57.584 26.5596,60.6126 C26.7244,61.1276 26.8893,61.6839 26.9305,61.8487 C27.1571,62.8995 27.3631,63.5999 28.0018,65.2481 C28.5375,66.6903 28.8259,67.1847 29.2997,67.4526 C29.6294,67.638 30.1238,68.2355 30.3917,68.7917 C30.6801,69.3274 31.1952,70.0485 31.5454,70.3781 C31.8956,70.7284 32.1841,71.0992 32.1841,71.2228 C32.1841,71.3258 32.4931,71.9027 32.864,72.459 C33.9353,74.066 34.2237,74.7871 34.3679,76.1468 C34.5122,77.6714 34.9448,79.0518 35.4805,79.814 C35.7071,80.1231 35.8925,80.4321 35.8925,80.4939 C35.8925,80.5558 36.1192,80.9678 36.4076,81.3799 C37.4377,82.9456 40.1984,83.8933 43.7215,83.8933 C46.0083,83.8933 46.9354,83.7079 49.5932,82.6984 C52.0655,81.7507 54.3523,79.0106 56.2066,74.7871 C56.392,74.375 56.4744,73.9218 56.392,73.8188 C56.186,73.4479 57.4221,73.5509 58.5964,74.0042 C59.1939,74.2308 59.9768,74.6429 60.3064,74.9519 C60.6567,75.2403 61.1717,75.6317 61.4602,75.7966 C61.7692,75.982 62.2637,76.5177 62.5521,76.9915 C63.1496,77.9186 64.7154,79.2166 65.5601,79.4638 C65.8485,79.5462 66.5902,79.8347 67.2083,80.0819 C69.9278,81.215 73.183,80.7823 75.202,79.0518 C75.8613,78.4749 77.3035,76.5588 77.3035,76.2292 C77.3035,76.1553 78.1251,72.9947 78.2203,69.8401 C78.3108,66.8418 77.6745,63.849 77.6982,63.5175 C77.8178,61.8487 78.1308,60.9834 77.6982,60.6126 C77.2449,60.2623 76.9153,60.5714 76.8535,61.3955 C76.8329,61.7251 76.6543,62.5882 76.6543,63.7658 C76.6543,64.4602 77.507,67.4299 77.2143,70.4536 C76.8876,73.8273 75.3905,77.2683 74.9342,77.692 C73.3684,79.1136 72.5649,79.4432 70.5047,79.5256 C68.8977,79.5874 68.6504,79.5462 67.4143,78.9694 C66.6726,78.6191 65.9103,78.3307 65.7249,78.3307 C65.4159,78.3307 64.9214,77.8774 62.7581,75.6112 C61.213,73.963 60.121,73.3037 58.308,72.871 C56.1241,72.356 54.888,72.5414 55.3825,73.3243 C55.5679,73.6333 55.4649,74.0042 54.785,75.3433 C54.3317,76.2498 53.7137,77.3624 53.4046,77.8156 C52.8484,78.5985 52.6011,78.9281 51.4062,80.2673 C50.7057,81.0502 48.2952,82.1421 46.2968,82.5542 C43.33,83.1723 39.0241,82.5336 37.6437,81.2768 C36.9432,80.6793 35.7071,77.9186 35.5011,76.5795 C35.1096,74.066 34.5122,72.5414 33.276,70.9756 C32.9052,70.5017 32.5961,70.0279 32.5961,69.9249 C32.5961,69.8013 32.5343,69.6776 32.4313,69.6365 C32.3489,69.5953 31.8339,68.9566 31.2982,68.1737 C30.7625,67.4114 30.2269,66.7933 30.1032,66.7933 C29.8148,66.7933 28.3314,63.5587 28.1666,62.5698 C28.1048,62.1166 27.8164,61.0864 27.5485,60.3035 C26.6214,57.5634 26.2506,54.7821 26.0858,49.137 C26.0033,46.1496 26.0239,45.9848 26.4154,45.7788 C26.9717,45.4904 26.9305,45.3049 26.23,44.8929 C25.7561,44.625 25.4471,44.5838 24.829,44.7075 C23.8813,44.9135 20.9557,44.8311 19.4106,44.522 C18.0714,44.2748 16.0112,43.6362 14.569,43.0387 C11.8907,41.9055 8.0174,38.7328 6.94608,36.7549 C6.49283,35.9102 6.26619,35.6836 5.85414,35.6836 C5.64811,35.6836 5.60691,35.869 5.70993,36.3428 Z" style="stroke:none;fill-rule:nonzero;fill:#000000;fill-opacity:1;"/>
        </g>
        <g id="Shape29">
            <desc shapeID="29" type="0" basicInfo-basicType="0" basicInfo-roundedRectRadius="12" basicInfo-polygonSides="6" basicInfo-starPoints="5" bounding="rect(-34.9456,-45.317,69.8912,90.6337)" text="" font-familyName="" font-pixelSize="20" font-bold="0" font-underline="0" font-alignment="1" strokeStyle="0" markerStart="0" markerEnd="0" shadowEnabled="0" shadowOffsetX="0" shadowOffsetY="2" shadowBlur="4" shadowOpacity="160" blurEnabled="0" blurRadius="4" transform="matrix(0.206025,0,0,0.206025,75.3443,51.701)" pers-center="0,0" pers-size="0,0" pers-start="0,0" pers-end="0,0" locked="0" mesh="" flag=""/>
            <path id="shapePath29" d="M79.4255,42.6061 C79.3637,42.7915 79.4049,43.1005 79.5285,43.2859 C79.9612,43.8834 81.0325,46.2733 81.3621,47.2828 C81.6506,48.2511 81.63,48.519 81.3003,51.4445 C81.0531,53.5666 79.8788,55.977 78.0452,58.1403 C76.4175,60.0769 72.194,60.7156 70.175,59.3352 C69.4333,58.8202 68.9595,57.481 69.1449,56.3685 C69.1861,56.0389 69.2479,55.7092 69.2479,55.6268 C69.2685,55.5444 69.3921,55.359 69.5363,55.2148 C70.2574,54.4525 71.7614,51.8359 72.4207,50.2083 C73.3684,47.8184 73.4714,47.3446 73.0593,47.015 C72.6267,46.6441 72.4001,46.9326 72.0292,48.3541 C71.5966,50.0229 70.4634,52.3716 69.4951,53.6696 C68.156,55.4414 67.8881,56.4509 68.362,58.2433 C68.568,59.0674 69.5981,60.3242 70.2986,60.6126 C71.988,61.3131 75.099,61.1277 76.8708,60.2005 C78.9516,59.1498 81.3416,55.7298 82.1244,52.7218 C82.2892,52.0832 82.3237,51.8313 82.3884,51.3621 C82.4355,51.0209 82.4578,50.6764 82.4541,50.332 C82.4509,50.0428 82.5159,49.4666 82.5159,49.4666 C82.6601,47.7979 82.248,46.1702 81.3003,44.3985 C80.332,42.6061 79.6727,41.9674 79.4255,42.6061 Z" style="stroke:none;fill-rule:evenodd;fill:#000000;fill-opacity:1;"/>
        </g>
        <g id="Shape30">
            <desc shapeID="30" type="0" basicInfo-basicType="0" basicInfo-roundedRectRadius="12" basicInfo-polygonSides="6" basicInfo-starPoints="5" bounding="rect(-3.15482,-3.96347,6.30968,7.92685)" text="" font-familyName="" font-pixelSize="20" font-bold="0" font-underline="0" font-alignment="1" strokeStyle="0" markerStart="0" markerEnd="0" shadowEnabled="0" shadowOffsetX="0" shadowOffsetY="2" shadowBlur="4" shadowOpacity="160" blurEnabled="0" blurRadius="4" transform="matrix(0.206025,0,0,0.206025,56.3464,49.5151)" pers-center="0,0" pers-size="0,0" pers-start="0,0" pers-end="0,0" locked="0" mesh="" flag=""/>
            <path id="shapePath30" d="M55.9799,48.9515 C55.6091,49.2194 55.6091,49.2606 55.9387,49.7756 C56.598,50.7646 57.3603,50.332 56.804,49.2812 C56.4332,48.5601 56.4744,48.5807 55.9799,48.9515 Z" style="stroke:none;fill-rule:nonzero;fill:#000000;fill-opacity:1;"/>
        </g>
        <g id="Shape31">
            <desc shapeID="31" type="0" basicInfo-basicType="0" basicInfo-roundedRectRadius="12" basicInfo-polygonSides="6" basicInfo-starPoints="5" bounding="rect(-2.37426,-4.35552,4.74847,8.71092)" text="" font-familyName="" font-pixelSize="20" font-bold="0" font-underline="0" font-alignment="1" strokeStyle="0" markerStart="0" markerEnd="0" shadowEnabled="0" shadowOffsetX="0" shadowOffsetY="2" shadowBlur="4" shadowOpacity="160" blurEnabled="0" blurRadius="4" transform="matrix(0.206025,0,0,0.206025,48.3662,50.0047)" pers-center="0,0" pers-size="0,0" pers-start="0,0" pers-end="0,0" locked="0" mesh="" flag=""/>
            <path id="shapePath31" d="M47.9244,49.3636 C47.7389,49.8375 48.1304,50.8264 48.5424,50.8882 C48.8515,50.95 48.8927,50.8264 48.8309,50.0641 C48.7897,49.4254 48.6661,49.1576 48.3982,49.1164 C48.2128,49.0752 47.9862,49.1782 47.9244,49.3636 Z" style="stroke:none;fill-rule:nonzero;fill:#000000;fill-opacity:1;"/>
        </g>
        <g id="Shape32">
            <desc shapeID="32" type="0" basicInfo-basicType="0" basicInfo-roundedRectRadius="12" basicInfo-polygonSides="6" basicInfo-starPoints="5" bounding="rect(-2.50162,-2.92958,5.00321,5.85927)" text="" font-familyName="" font-pixelSize="20" font-bold="0" font-underline="0" font-alignment="1" strokeStyle="0" markerStart="0" markerEnd="0" shadowEnabled="0" shadowOffsetX="0" shadowOffsetY="2" shadowBlur="4" shadowOpacity="160" blurEnabled="0" blurRadius="4" transform="matrix(0.206025,0,0,0.206025,61.1302,51.1499)" pers-center="0,0" pers-size="0,0" pers-start="0,0" pers-end="0,0" locked="0" mesh="" flag=""/>
            <path id="shapePath32" d="M60.8833,50.6616 C60.5743,50.7646 60.5125,51.7535 60.8009,51.7535 C61.316,51.7535 61.6456,51.4651 61.6456,51.0118 C61.6456,50.538 61.419,50.435 60.8833,50.6616 Z" style="stroke:none;fill-rule:nonzero;fill:#000000;fill-opacity:1;"/>
        </g>
        <g id="Shape33">
            <desc shapeID="33" type="0" basicInfo-basicType="0" basicInfo-roundedRectRadius="12" basicInfo-polygonSides="6" basicInfo-starPoints="5" bounding="rect(-4.3317,-4.24053,8.66332,8.48114)" text="" font-familyName="" font-pixelSize="20" font-bold="0" font-underline="0" font-alignment="1" strokeStyle="0" markerStart="0" markerEnd="0" shadowEnabled="0" shadowOffsetX="0" shadowOffsetY="2" shadowBlur="4" shadowOpacity="160" blurEnabled="0" blurRadius="4" transform="matrix(0.206025,0,0,0.206025,44.2739,51.8207)" pers-center="0,0" pers-size="0,0" pers-start="0,0" pers-end="0,0" locked="0" mesh="" flag=""/>
            <path id="shapePath33" d="M43.4124,51.1354 C43.1446,51.5681 44.6898,52.9896 45.04,52.6394 C45.3078,52.3716 45.143,51.9595 44.6074,51.4445 C44.0099,50.9088 43.6185,50.8058 43.4124,51.1354 Z" style="stroke:none;fill-rule:nonzero;fill:#000000;fill-opacity:1;"/>
        </g>
        <g id="Shape34">
            <desc shapeID="34" type="0" basicInfo-basicType="0" basicInfo-roundedRectRadius="12" basicInfo-polygonSides="6" basicInfo-starPoints="5" bounding="rect(-3.18576,-4.95818,6.37146,9.91643)" text="" font-familyName="" font-pixelSize="20" font-bold="0" font-underline="0" font-alignment="1" strokeStyle="0" markerStart="0" markerEnd="0" shadowEnabled="0" shadowOffsetX="0" shadowOffsetY="2" shadowBlur="4" shadowOpacity="160" blurEnabled="0" blurRadius="4" transform="matrix(0.206025,0,0,0.206025,41.1534,55.8826)" pers-center="0,0" pers-size="0,0" pers-start="0,0" pers-end="0,0" locked="0" mesh="" flag=""/>
            <path id="shapePath34" d="M40.5075,55.1117 C40.4663,55.2559 40.5487,55.7298 40.7341,56.1418 C40.9607,56.6775 41.1874,56.9041 41.4758,56.9041 C41.8054,56.9041 41.8672,56.8217 41.7642,56.5333 C41.6818,56.3479 41.5582,55.9976 41.4964,55.771 C41.2904,54.9469 40.7341,54.576 40.5075,55.1117 Z" style="stroke:none;fill-rule:nonzero;fill:#000000;fill-opacity:1;"/>
        </g>
        <g id="Shape35">
            <desc shapeID="35" type="0" basicInfo-basicType="0" basicInfo-roundedRectRadius="12" basicInfo-polygonSides="6" basicInfo-starPoints="5" bounding="rect(-4.54395,-3.96958,9.08794,7.93932)" text="" font-familyName="" font-pixelSize="20" font-bold="0" font-underline="0" font-alignment="1" strokeStyle="0" markerStart="0" markerEnd="0" shadowEnabled="0" shadowOffsetX="0" shadowOffsetY="2" shadowBlur="4" shadowOpacity="160" blurEnabled="0" blurRadius="4" transform="matrix(0.206025,0,0,0.206025,39.9643,59.3959)" pers-center="0,0" pers-size="0,0" pers-start="0,0" pers-end="0,0" locked="0" mesh="" flag=""/>
            <path id="shapePath35" d="M39.1683,58.882 C38.9211,59.1704 38.9829,59.294 39.498,59.7061 C40.6723,60.6538 41.4758,60.1593 40.3839,59.1704 C39.601,58.4493 39.5392,58.4287 39.1683,58.882 Z" style="stroke:none;fill-rule:nonzero;fill:#000000;fill-opacity:1;"/>
        </g>
        <g id="Shape36">
            <desc shapeID="36" type="0" basicInfo-basicType="0" basicInfo-roundedRectRadius="12" basicInfo-polygonSides="6" basicInfo-starPoints="5" bounding="rect(-5.04565,-4.12381,10.0912,8.24748)" text="" font-familyName="" font-pixelSize="20" font-bold="0" font-underline="0" font-alignment="1" strokeStyle="0" markerStart="0" markerEnd="0" shadowEnabled="0" shadowOffsetX="0" shadowOffsetY="2" shadowBlur="4" shadowOpacity="160" blurEnabled="0" blurRadius="4" transform="matrix(0.214421,0,0,0.214421,39.1981,66.0567)" pers-center="0,0" pers-size="0,0" pers-start="0,0" pers-end="0,0" locked="0" mesh="" flag=""/>
            <path id="shapePath36" d="M38.1162,65.5384 C38.1162,65.9458 38.8453,66.7392 39.4028,66.9107 C39.5743,66.975 39.8959,66.9322 40.0889,66.825 C40.4105,66.6749 40.3677,66.5462 39.6386,65.9029 C38.7381,65.0881 38.1162,64.938 38.1162,65.5384 Z" style="stroke:none;fill-rule:nonzero;fill:#000000;fill-opacity:1;"/>
        </g>
        <g id="Shape37">
            <desc shapeID="37" type="0" basicInfo-basicType="0" basicInfo-roundedRectRadius="12" basicInfo-polygonSides="6" basicInfo-starPoints="5" bounding="rect(-3.94153,-3.46041,7.88309,6.92085)" text="" font-familyName="" font-pixelSize="20" font-bold="0" font-underline="0" font-alignment="1" strokeStyle="0" markerStart="0" markerEnd="0" shadowEnabled="0" shadowOffsetX="0" shadowOffsetY="2" shadowBlur="4" shadowOpacity="160" blurEnabled="0" blurRadius="4" transform="matrix(0.214421,0,0,0.214421,47.7526,66.9835)" pers-center="0,0" pers-size="0,0" pers-start="0,0" pers-end="0,0" locked="0" mesh="" flag=""/>
            <path id="shapePath37" d="M46.9075,66.632 C46.9075,67.1037 47.658,67.7255 48.2369,67.7255 C48.7729,67.7255 48.7086,67.3182 48.0654,66.7392 C47.4221,66.1174 46.9075,66.0745 46.9075,66.632 Z" style="stroke:none;fill-rule:nonzero;fill:#000000;fill-opacity:1;"/>
        </g>
        <g id="Shape38">
            <desc shapeID="38" type="0" basicInfo-basicType="0" basicInfo-roundedRectRadius="12" basicInfo-polygonSides="6" basicInfo-starPoints="5" bounding="rect(-2.85838,-2.9562,5.71667,5.9125)" text="" font-familyName="" font-pixelSize="20" font-bold="0" font-underline="0" font-alignment="1" strokeStyle="0" markerStart="0" markerEnd="0" shadowEnabled="0" shadowOffsetX="0" shadowOffsetY="2" shadowBlur="4" shadowOpacity="160" blurEnabled="0" blurRadius="4" transform="matrix(0.214421,0,0,0.214421,52.2779,67.0916)" pers-center="0,0" pers-size="0,0" pers-start="0,0" pers-end="0,0" locked="0" mesh="" flag=""/>
            <path id="shapePath38" d="M51.6891,66.7821 C51.539,67.168 52.1179,67.7255 52.6325,67.7255 C52.9971,67.7255 52.9756,67.4896 52.5682,66.9107 C52.1822,66.3532 51.882,66.3103 51.6891,66.7821 Z" style="stroke:none;fill-rule:nonzero;fill:#000000;fill-opacity:1;"/>
        </g>
        <g id="Shape39">
            <desc shapeID="39" type="0" basicInfo-basicType="0" basicInfo-roundedRectRadius="12" basicInfo-polygonSides="6" basicInfo-starPoints="5" bounding="rect(-2.07198,-2.87603,4.14403,5.75201)" text="" font-familyName="" font-pixelSize="20" font-bold="0" font-underline="0" font-alignment="1" strokeStyle="0" markerStart="0" markerEnd="0" shadowEnabled="0" shadowOffsetX="0" shadowOffsetY="2" shadowBlur="4" shadowOpacity="160" blurEnabled="0" blurRadius="4" transform="matrix(0.214421,0,0,0.214421,56.0817,68.1809)" pers-center="0,0" pers-size="0,0" pers-start="0,0" pers-end="0,0" locked="0" mesh="" flag=""/>
            <path id="shapePath39" d="M55.7631,67.747 C55.4415,68.0686 55.7845,68.7976 56.2562,68.7976 C56.4921,68.7976 56.5564,68.6261 56.5136,68.2187 C56.4492,67.5754 56.1276,67.3824 55.7631,67.747 Z" style="stroke:none;fill-rule:nonzero;fill:#000000;fill-opacity:1;"/>
        </g>
        <g id="Shape40">
            <desc shapeID="40" type="0" basicInfo-basicType="0" basicInfo-roundedRectRadius="12" basicInfo-polygonSides="6" basicInfo-starPoints="5" bounding="rect(-3.18576,-4.95818,6.37146,9.91643)" text="" font-familyName="" font-pixelSize="20" font-bold="0" font-underline="0" font-alignment="1" strokeStyle="0" markerStart="0" markerEnd="0" shadowEnabled="0" shadowOffsetX="0" shadowOffsetY="2" shadowBlur="4" shadowOpacity="160" blurEnabled="0" blurRadius="4" transform="matrix(0.206025,0,0,0.206025,63.9954,56.9233)" pers-center="0,0" pers-size="0,0" pers-start="0,0" pers-end="0,0" locked="0" mesh="" flag=""/>
            <path id="shapePath40" d="M63.3495,56.1524 C63.3082,56.2966 63.3907,56.7705 63.5761,57.1825 C63.8027,57.7182 64.0293,57.9448 64.3178,57.9448 C64.6474,57.9448 64.7092,57.8624 64.6062,57.5739 C64.5238,57.3885 64.4002,57.0383 64.3384,56.8117 C64.1323,55.9876 63.5761,55.6167 63.3495,56.1524 Z" style="stroke:none;fill-rule:nonzero;fill:#000000;fill-opacity:1;"/>
        </g>
        <g id="Shape41">
            <desc shapeID="41" type="0" basicInfo-basicType="0" basicInfo-roundedRectRadius="12" basicInfo-polygonSides="6" basicInfo-starPoints="5" bounding="rect(-4.54395,-3.96958,9.08794,7.93932)" text="" font-familyName="" font-pixelSize="20" font-bold="0" font-underline="0" font-alignment="1" strokeStyle="0" markerStart="0" markerEnd="0" shadowEnabled="0" shadowOffsetX="0" shadowOffsetY="2" shadowBlur="4" shadowOpacity="160" blurEnabled="0" blurRadius="4" transform="matrix(0.206025,0,0,0.206025,62.8063,60.4366)" pers-center="0,0" pers-size="0,0" pers-start="0,0" pers-end="0,0" locked="0" mesh="" flag=""/>
            <path id="shapePath41" d="M62.0103,59.9227 C61.7631,60.2111 61.8249,60.3347 62.3399,60.7468 C63.5143,61.6944 64.3178,61.2 63.2259,60.2111 C62.443,59.49 62.3811,59.4694 62.0103,59.9227 Z" style="stroke:none;fill-rule:nonzero;fill:#000000;fill-opacity:1;"/>
        </g>
        <g id="Shape42">
            <desc shapeID="42" type="0" basicInfo-basicType="0" basicInfo-roundedRectRadius="12" basicInfo-polygonSides="6" basicInfo-starPoints="5" bounding="rect(-25.0212,-6.20773,50.0425,12.4155)" text="chocoala" font-familyName="godoMaum" font-pixelSize="26" font-bold="0" font-underline="0" font-alignment="1" strokeStyle="0" markerStart="0" markerEnd="0" shadowEnabled="0" shadowOffsetX="0" shadowOffsetY="2" shadowBlur="4" shadowOpacity="160" blurEnabled="0" blurRadius="4" transform="matrix(1,0,0,1,53.0007,91.4284)" pers-center="0,0" pers-size="0,0" pers-start="0,0" pers-end="0,0" locked="0" mesh="" flag=""/>
            <path id="shapePath42" d="M33.2834,96.2997 C33.1968,96.4211 33.0624,96.5337 32.8804,96.6377 C32.6984,96.7417 32.5034,96.8327 32.2954,96.9107 C32.0874,96.9887 31.8751,97.0537 31.6584,97.1057 C31.4418,97.1577 31.2554,97.1837 31.0994,97.1837 C30.8048,97.1837 30.4971,97.1534 30.1764,97.0927 C29.8558,97.0321 29.5524,96.9324 29.2664,96.7937 C28.9804,96.6551 28.7291,96.4731 28.5124,96.2477 C28.2958,96.0224 28.1528,95.7451 28.0834,95.4157 C28.0141,95.0517 27.9794,94.6661 27.9794,94.2587 C27.9794,93.8514 28.0184,93.4484 28.0964,93.0497 C28.1744,92.6511 28.3001,92.2784 28.4734,91.9317 C28.6468,91.5851 28.8894,91.2904 29.2014,91.0477 C29.4614,90.8397 29.7518,90.6924 30.0724,90.6057 C30.3931,90.5191 30.7181,90.4844 31.0474,90.5017 C31.3768,90.5191 31.6974,90.5927 32.0094,90.7227 C32.3214,90.8527 32.5901,91.0391 32.8154,91.2817 C33.0928,91.5764 33.1361,91.8884 32.9454,92.2177 C32.8414,92.4084 32.6768,92.4821 32.4514,92.4387 C32.2261,92.3954 32.0354,92.3564 31.8794,92.3217 C31.6368,92.2871 31.3941,92.2741 31.1514,92.2827 C30.9088,92.2914 30.6834,92.3651 30.4754,92.5037 C30.1114,92.7291 29.8818,93.0454 29.7864,93.4527 C29.6911,93.8601 29.6781,94.2544 29.7474,94.6357 C29.7994,94.8957 29.9121,95.0994 30.0854,95.2467 C30.2588,95.3941 30.4581,95.4981 30.6834,95.5587 C30.9088,95.6194 31.1428,95.6367 31.3854,95.6107 C31.6281,95.5847 31.8448,95.5197 32.0354,95.4157 C32.3994,95.2251 32.7158,95.1644 32.9844,95.2337 C33.2531,95.3031 33.4048,95.4764 33.4394,95.7537 C33.4568,95.9271 33.4048,96.1091 33.2834,96.2997 M41.1498,93.3877 C41.2365,93.8731 41.3231,94.3541 41.4098,94.8307 C41.4965,95.3074 41.5485,95.7971 41.5658,96.2997 C41.5658,96.6637 41.4921,96.9454 41.3448,97.1447 C41.1975,97.3441 41.0241,97.4654 40.8248,97.5087 C40.6255,97.5521 40.4305,97.5087 40.2398,97.3787 C40.0491,97.2487 39.9278,97.0364 39.8758,96.7417 C39.8065,96.4124 39.7545,96.0701 39.7198,95.7147 C39.6851,95.3594 39.6418,94.9997 39.5898,94.6357 C39.5378,94.2717 39.4641,93.9164 39.3688,93.5697 C39.2735,93.2231 39.1478,92.9024 38.9918,92.6077 C38.8358,92.6944 38.6668,92.8027 38.4848,92.9327 C38.3028,93.0627 38.1511,93.2231 38.0298,93.4137 C37.7005,93.8124 37.4231,94.2674 37.1978,94.7787 C36.9725,95.2901 36.7818,95.8057 36.6258,96.3257 C36.5391,96.6031 36.4005,96.8241 36.2098,96.9887 C36.0191,97.1534 35.8155,97.2531 35.5988,97.2877 C35.3821,97.3224 35.1871,97.2877 35.0138,97.1837 C34.8405,97.0797 34.7278,96.8804 34.6758,96.5857 C34.5371,95.4937 34.3855,94.4147 34.2208,93.3487 C34.0561,92.2827 33.9478,91.2037 33.8958,90.1117 C33.8785,89.7477 33.8698,89.3577 33.8698,88.9417 C33.8698,88.5257 33.9045,88.1141 33.9738,87.7067 C34.0431,87.2994 34.1558,86.9137 34.3118,86.5497 C34.4678,86.1857 34.6931,85.8564 34.9878,85.5617 C35.2131,85.3537 35.4341,85.2411 35.6508,85.2237 C35.8675,85.2064 36.0408,85.2627 36.1708,85.3927 C36.3008,85.5227 36.3658,85.7047 36.3658,85.9387 C36.3658,86.1727 36.2618,86.4284 36.0538,86.7057 C35.8978,86.9137 35.7981,87.1911 35.7548,87.5377 C35.7115,87.8844 35.6941,88.2441 35.7028,88.6167 C35.7115,88.9894 35.7375,89.3577 35.7808,89.7217 C35.8241,90.0857 35.8545,90.3891 35.8718,90.6317 C35.9238,91.0824 35.9715,91.4941 36.0148,91.8667 C36.0581,92.2394 36.1145,92.6424 36.1838,93.0757 C36.2878,92.9197 36.3745,92.7897 36.4438,92.6857 C36.5131,92.5817 36.6171,92.4517 36.7558,92.2957 C36.9291,92.0877 37.1285,91.8667 37.3538,91.6327 C37.5791,91.3987 37.8218,91.1994 38.0818,91.0347 C38.3418,90.8701 38.6191,90.7574 38.9138,90.6967 C39.2085,90.6361 39.5118,90.6837 39.8238,90.8397 C40.0491,90.9437 40.2355,91.0954 40.3828,91.2947 C40.5301,91.4941 40.6558,91.7107 40.7598,91.9447 C40.8638,92.1787 40.9418,92.4214 40.9938,92.6727 C41.0458,92.9241 41.0978,93.1624 41.1498,93.3877 M46.244,89.7997 C46.4867,90.0771 46.699,90.3977 46.881,90.7617 C47.063,91.1257 47.206,91.5027 47.31,91.8927 C47.414,92.2827 47.4834,92.6771 47.518,93.0757 C47.5527,93.4744 47.5527,93.8557 47.518,94.2197 C47.4834,94.5837 47.3794,94.9651 47.206,95.3637 C47.0327,95.7624 46.8117,96.1177 46.543,96.4297 C46.2744,96.7417 45.9537,96.9801 45.581,97.1447 C45.2084,97.3094 44.8054,97.3397 44.372,97.2357 C44.008,97.1491 43.7047,96.9931 43.462,96.7677 C43.2194,96.5424 43.0244,96.2781 42.877,95.9747 C42.7297,95.6714 42.6257,95.3421 42.565,94.9867 C42.5044,94.6314 42.4827,94.2891 42.5,93.9597 C42.5347,93.2144 42.7037,92.4951 43.007,91.8017 C43.3104,91.1084 43.8174,90.5884 44.528,90.2417 C44.5627,90.0857 44.645,89.9471 44.775,89.8257 C44.905,89.7044 45.0567,89.6134 45.23,89.5527 C45.4034,89.4921 45.581,89.4791 45.763,89.5137 C45.945,89.5484 46.1054,89.6437 46.244,89.7997 M44.788,95.5457 C45.0134,95.5284 45.191,95.4417 45.321,95.2857 C45.451,95.1297 45.5507,94.9477 45.62,94.7397 C45.6894,94.5317 45.7284,94.3151 45.737,94.0897 C45.7457,93.8644 45.7414,93.6564 45.724,93.4657 C45.7067,92.8937 45.5594,92.3131 45.282,91.7237 L45.1,91.8537 C44.944,91.9231 44.814,92.0401 44.71,92.2047 C44.606,92.3694 44.5237,92.5557 44.463,92.7637 C44.4024,92.9717 44.3634,93.1797 44.346,93.3877 C44.3287,93.5957 44.32,93.7777 44.32,93.9337 C44.32,94.1417 44.333,94.3497 44.359,94.5577 C44.385,94.7657 44.4414,94.9651 44.528,95.1557 C44.58,95.2597 44.6407,95.3507 44.71,95.4287 C44.7794,95.5067 44.8054,95.5457 44.788,95.5457 L44.762,95.5457 L44.788,95.5457 M53.9397,96.2997 C53.853,96.4211 53.7187,96.5337 53.5367,96.6377 C53.3547,96.7417 53.1597,96.8327 52.9517,96.9107 C52.7437,96.9887 52.5313,97.0537 52.3147,97.1057 C52.098,97.1577 51.9117,97.1837 51.7557,97.1837 C51.461,97.1837 51.1533,97.1534 50.8327,97.0927 C50.512,97.0321 50.2087,96.9324 49.9227,96.7937 C49.6367,96.6551 49.3853,96.4731 49.1687,96.2477 C48.952,96.0224 48.809,95.7451 48.7397,95.4157 C48.6703,95.0517 48.6357,94.6661 48.6357,94.2587 C48.6357,93.8514 48.6747,93.4484 48.7527,93.0497 C48.8307,92.6511 48.9563,92.2784 49.1297,91.9317 C49.303,91.5851 49.5457,91.2904 49.8577,91.0477 C50.1177,90.8397 50.408,90.6924 50.7287,90.6057 C51.0493,90.5191 51.3743,90.4844 51.7037,90.5017 C52.033,90.5191 52.3537,90.5927 52.6657,90.7227 C52.9777,90.8527 53.2463,91.0391 53.4717,91.2817 C53.749,91.5764 53.7923,91.8884 53.6017,92.2177 C53.4977,92.4084 53.333,92.4821 53.1077,92.4387 C52.8823,92.3954 52.6917,92.3564 52.5357,92.3217 C52.293,92.2871 52.0503,92.2741 51.8077,92.2827 C51.565,92.2914 51.3397,92.3651 51.1317,92.5037 C50.7677,92.7291 50.538,93.0454 50.4427,93.4527 C50.3473,93.8601 50.3343,94.2544 50.4037,94.6357 C50.4557,94.8957 50.5683,95.0994 50.7417,95.2467 C50.915,95.3941 51.1143,95.4981 51.3397,95.5587 C51.565,95.6194 51.799,95.6367 52.0417,95.6107 C52.2843,95.5847 52.501,95.5197 52.6917,95.4157 C53.0557,95.2251 53.372,95.1644 53.6407,95.2337 C53.9093,95.3031 54.061,95.4764 54.0957,95.7537 C54.113,95.9271 54.061,96.1091 53.9397,96.2997 M58.244,89.7997 C58.4867,90.0771 58.699,90.3977 58.881,90.7617 C59.063,91.1257 59.206,91.5027 59.31,91.8927 C59.414,92.2827 59.4834,92.6771 59.518,93.0757 C59.5527,93.4744 59.5527,93.8557 59.518,94.2197 C59.4834,94.5837 59.3794,94.9651 59.206,95.3637 C59.0327,95.7624 58.8117,96.1177 58.543,96.4297 C58.2744,96.7417 57.9537,96.9801 57.581,97.1447 C57.2084,97.3094 56.8054,97.3397 56.372,97.2357 C56.008,97.1491 55.7047,96.9931 55.462,96.7677 C55.2194,96.5424 55.0244,96.2781 54.877,95.9747 C54.7297,95.6714 54.6257,95.3421 54.565,94.9867 C54.5044,94.6314 54.4827,94.2891 54.5,93.9597 C54.5347,93.2144 54.7037,92.4951 55.007,91.8017 C55.3104,91.1084 55.8174,90.5884 56.528,90.2417 C56.5627,90.0857 56.645,89.9471 56.775,89.8257 C56.905,89.7044 57.0567,89.6134 57.23,89.5527 C57.4034,89.4921 57.581,89.4791 57.763,89.5137 C57.945,89.5484 58.1054,89.6437 58.244,89.7997 M56.788,95.5457 C57.0134,95.5284 57.191,95.4417 57.321,95.2857 C57.451,95.1297 57.5507,94.9477 57.62,94.7397 C57.6894,94.5317 57.7284,94.3151 57.737,94.0897 C57.7457,93.8644 57.7414,93.6564 57.724,93.4657 C57.7067,92.8937 57.5594,92.3131 57.282,91.7237 L57.1,91.8537 C56.944,91.9231 56.814,92.0401 56.71,92.2047 C56.606,92.3694 56.5237,92.5557 56.463,92.7637 C56.4024,92.9717 56.3634,93.1797 56.346,93.3877 C56.3287,93.5957 56.32,93.7777 56.32,93.9337 C56.32,94.1417 56.333,94.3497 56.359,94.5577 C56.385,94.7657 56.4414,94.9651 56.528,95.1557 C56.58,95.2597 56.6407,95.3507 56.71,95.4287 C56.7794,95.5067 56.8054,95.5457 56.788,95.5457 L56.762,95.5457 L56.788,95.5457 M66.0697,95.1297 C66.1737,95.1471 66.2603,95.1904 66.3297,95.2597 C66.399,95.3117 66.4597,95.3767 66.5117,95.4547 C66.5637,95.5327 66.5983,95.6324 66.6157,95.7537 C66.6157,95.9791 66.5853,96.1611 66.5247,96.2997 C66.464,96.4384 66.3903,96.5554 66.3037,96.6507 C66.217,96.7461 66.1217,96.8197 66.0177,96.8717 C65.9137,96.9237 65.8183,96.9757 65.7317,97.0277 C65.281,97.2357 64.8303,97.3787 64.3797,97.4567 C63.929,97.5347 63.5043,97.5564 63.1057,97.5217 C62.707,97.4871 62.3473,97.3874 62.0267,97.2227 C61.706,97.0581 61.4417,96.8371 61.2337,96.5597 C60.887,96.0744 60.757,95.6064 60.8437,95.1557 C60.9303,94.7051 61.1123,94.2544 61.3897,93.8037 C61.615,93.4571 61.888,93.1711 62.2087,92.9457 C62.5293,92.7204 62.889,92.5297 63.2877,92.3737 C63.4263,92.3391 63.578,92.2871 63.7427,92.2177 C63.9073,92.1484 64.059,92.0877 64.1977,92.0357 C64.215,92.0357 64.2063,91.9361 64.1717,91.7367 C64.137,91.5374 64.0633,91.3554 63.9507,91.1907 C63.838,91.0261 63.6777,90.9221 63.4697,90.8787 C63.2617,90.8354 62.9843,90.9697 62.6377,91.2817 C62.499,91.3684 62.3603,91.4594 62.2217,91.5547 C62.083,91.6501 61.927,91.6717 61.7537,91.6197 C61.563,91.5851 61.433,91.4854 61.3637,91.3207 C61.2943,91.1561 61.2943,90.9957 61.3637,90.8397 C61.6237,90.2504 61.9747,89.8474 62.4167,89.6307 C62.8587,89.4141 63.3743,89.2971 63.9637,89.2797 C64.241,89.2797 64.4793,89.3317 64.6787,89.4357 C64.878,89.5397 65.0427,89.6741 65.1727,89.8387 C65.3027,90.0034 65.411,90.1767 65.4977,90.3587 C65.5843,90.5407 65.6537,90.7011 65.7057,90.8397 C65.8443,91.2904 65.9397,91.7757 65.9917,92.2957 C66.0437,92.8157 66.0697,93.3357 66.0697,93.8557 C66.0697,94.0464 66.061,94.2674 66.0437,94.5187 C66.0263,94.7701 66.035,94.9737 66.0697,95.1297 M63.1057,96.0397 C63.227,96.0744 63.3657,96.0874 63.5217,96.0787 C63.6777,96.0701 63.8207,96.0484 63.9507,96.0137 C64.0807,95.9791 64.1933,95.9227 64.2887,95.8447 C64.384,95.7667 64.4317,95.6757 64.4317,95.5717 C64.4663,95.2771 64.4837,95.0561 64.4837,94.9087 C64.4837,94.7614 64.4837,94.5404 64.4837,94.2457 C64.4837,94.0724 64.436,93.9554 64.3407,93.8947 C64.2453,93.8341 64.137,93.8037 64.0157,93.8037 C63.8943,93.8037 63.7643,93.8341 63.6257,93.8947 C63.487,93.9554 63.3657,94.0204 63.2617,94.0897 C63.071,94.1937 62.9323,94.3151 62.8457,94.4537 C62.759,94.5924 62.6723,94.7744 62.5857,94.9997 C62.4643,95.3464 62.4817,95.5977 62.6377,95.7537 C62.7937,95.9097 62.9497,96.0051 63.1057,96.0397 M69.9384,92.0357 C69.9731,92.6077 70.0251,93.2577 70.0944,93.9857 C70.1638,94.7137 70.3371,95.4331 70.6144,96.1437 C70.7184,96.3864 70.7488,96.6161 70.7054,96.8327 C70.6621,97.0494 70.5754,97.2271 70.4454,97.3657 C70.3154,97.5044 70.1551,97.5911 69.9644,97.6257 C69.7738,97.6604 69.5744,97.6084 69.3664,97.4697 C69.0718,97.3137 68.8378,97.0191 68.6644,96.5857 C68.4911,96.1524 68.3524,95.6844 68.2484,95.1817 C68.1444,94.6791 68.0751,94.1764 68.0404,93.6737 C68.0058,93.1711 67.9798,92.7637 67.9624,92.4517 C67.9451,91.9664 67.9278,91.4767 67.9104,90.9827 C67.8931,90.4887 67.9018,89.9861 67.9364,89.4747 C67.9711,88.9634 68.0404,88.4521 68.1444,87.9407 C68.2484,87.4294 68.4218,86.9224 68.6644,86.4197 C68.7511,86.2117 68.9114,86.0601 69.1454,85.9647 C69.3794,85.8694 69.6178,85.8651 69.8604,85.9517 C70.0684,86.0384 70.1854,86.1814 70.2114,86.3807 C70.2374,86.5801 70.2244,86.7924 70.1724,87.0177 C70.0684,87.5897 69.9948,88.1011 69.9514,88.5517 C69.9081,89.0024 69.8821,89.4227 69.8734,89.8127 C69.8648,90.2027 69.8691,90.5754 69.8864,90.9307 C69.9038,91.2861 69.9211,91.6544 69.9384,92.0357 M77.4759,95.1297 C77.5799,95.1471 77.6666,95.1904 77.7359,95.2597 C77.8053,95.3117 77.8659,95.3767 77.9179,95.4547 C77.9699,95.5327 78.0046,95.6324 78.0219,95.7537 C78.0219,95.9791 77.9916,96.1611 77.9309,96.2997 C77.8703,96.4384 77.7966,96.5554 77.7099,96.6507 C77.6233,96.7461 77.5279,96.8197 77.4239,96.8717 C77.3199,96.9237 77.2246,96.9757 77.1379,97.0277 C76.6873,97.2357 76.2366,97.3787 75.7859,97.4567 C75.3353,97.5347 74.9106,97.5564 74.5119,97.5217 C74.1133,97.4871 73.7536,97.3874 73.4329,97.2227 C73.1123,97.0581 72.8479,96.8371 72.6399,96.5597 C72.2933,96.0744 72.1633,95.6064 72.2499,95.1557 C72.3366,94.7051 72.5186,94.2544 72.7959,93.8037 C73.0213,93.4571 73.2943,93.1711 73.6149,92.9457 C73.9356,92.7204 74.2953,92.5297 74.6939,92.3737 C74.8326,92.3391 74.9843,92.2871 75.1489,92.2177 C75.3136,92.1484 75.4653,92.0877 75.6039,92.0357 C75.6213,92.0357 75.6126,91.9361 75.5779,91.7367 C75.5433,91.5374 75.4696,91.3554 75.3569,91.1907 C75.2443,91.0261 75.0839,90.9221 74.8759,90.8787 C74.6679,90.8354 74.3906,90.9697 74.0439,91.2817 C73.9053,91.3684 73.7666,91.4594 73.6279,91.5547 C73.4893,91.6501 73.3333,91.6717 73.1599,91.6197 C72.9693,91.5851 72.8393,91.4854 72.7699,91.3207 C72.7006,91.1561 72.7006,90.9957 72.7699,90.8397 C73.0299,90.2504 73.3809,89.8474 73.8229,89.6307 C74.2649,89.4141 74.7806,89.2971 75.3699,89.2797 C75.6473,89.2797 75.8856,89.3317 76.0849,89.4357 C76.2843,89.5397 76.4489,89.6741 76.5789,89.8387 C76.7089,90.0034 76.8173,90.1767 76.9039,90.3587 C76.9906,90.5407 77.0599,90.7011 77.1119,90.8397 C77.2506,91.2904 77.3459,91.7757 77.3979,92.2957 C77.4499,92.8157 77.4759,93.3357 77.4759,93.8557 C77.4759,94.0464 77.4673,94.2674 77.4499,94.5187 C77.4326,94.7701 77.4413,94.9737 77.4759,95.1297 M74.5119,96.0397 C74.6333,96.0744 74.7719,96.0874 74.9279,96.0787 C75.0839,96.0701 75.2269,96.0484 75.3569,96.0137 C75.4869,95.9791 75.5996,95.9227 75.6949,95.8447 C75.7903,95.7667 75.8379,95.6757 75.8379,95.5717 C75.8726,95.2771 75.8899,95.0561 75.8899,94.9087 C75.8899,94.7614 75.8899,94.5404 75.8899,94.2457 C75.8899,94.0724 75.8423,93.9554 75.7469,93.8947 C75.6516,93.8341 75.5433,93.8037 75.4219,93.8037 C75.3006,93.8037 75.1706,93.8341 75.0319,93.8947 C74.8933,93.9554 74.7719,94.0204 74.6679,94.0897 C74.4773,94.1937 74.3386,94.3151 74.2519,94.4537 C74.1653,94.5924 74.0786,94.7744 73.9919,94.9997 C73.8706,95.3464 73.8879,95.5977 74.0439,95.7537 C74.1999,95.9097 74.3559,96.0051 74.5119,96.0397 Z" style="stroke:none;fill-rule:nonzero;fill:#000000;fill-opacity:1;"/>
        </g>
    </g>
</svg>
