<?xml version="1.0"?>
<svg version="1.1" xmlns="http://www.w3.org/2000/svg" xmlns:xlink="http://www.w3.org/1999/xlink" width="150" height="150">
    <desc iVinci="yes" version="4.6" gridStep="20" showGrid="no" snapToGrid="no" codePlatform="0"/>
    <g id="Layer1" name="Layer 1" opacity="1">
        <g id="Shape1">
            <desc shapeID="1" type="0" basicInfo-basicType="0" basicInfo-roundedRectRadius="12" basicInfo-polygonSides="6" basicInfo-starPoints="5" bounding="rect(-39.4563,-21.9112,78.9126,43.8225)" text="" font-familyName="" font-pixelSize="20" font-bold="0" font-underline="0" font-alignment="1" strokeStyle="0" markerStart="0" markerEnd="0" shadowEnabled="0" shadowOffsetX="0" shadowOffsetY="2" shadowBlur="4" shadowOpacity="160" blurEnabled="0" blurRadius="4" transform="matrix(-0.0191428,0.349944,-0.349944,-0.0191428,140.54,42.1562)" pers-center="0,0" pers-size="0,0" pers-start="0,0" pers-end="0,0" locked="0" mesh="" flag=""/>
            <path id="shapePath1" d="M148.141,39.1558 C148.113,36.4517 147.953,35.5304 147.254,34.1934 C146.302,32.3513 142.562,28.2156 141.956,28.393 C141.03,28.6232 141.406,29.4511 143.582,32.027 C144.868,33.5364 145.919,34.8575 145.915,34.9275 C145.912,34.9975 146.002,35.915 146.158,36.9063 C146.508,39.4877 146.247,44.9137 145.7,46.5686 C145.07,48.4646 141.039,52.2103 138.783,53.0345 C137.817,53.3678 135.962,53.8981 134.614,54.1753 C133.266,54.4175 132.157,54.8131 132.147,54.9881 C132.105,55.758 134.732,55.8666 137.05,55.1861 C141.258,53.9772 141.872,53.6598 143.96,51.4224 C145.079,50.22 146.116,49.2238 146.256,49.2315 C146.396,49.2391 146.864,48.3872 147.306,47.3584 C148.187,45.3709 148.218,44.811 148.141,39.1558 Z" style="stroke:none;fill-rule:nonzero;fill:#000000;fill-opacity:1;"/>
        </g>
        <g id="Shape2">
            <desc shapeID="2" type="0" basicInfo-basicType="0" basicInfo-roundedRectRadius="12" basicInfo-polygonSides="6" basicInfo-starPoints="5" bounding="rect(-5.54451,-9.95759,11.0891,19.9152)" text="" font-familyName="" font-pixelSize="20" font-bold="0" font-underline="0" font-alignment="1" strokeStyle="0" markerStart="0" markerEnd="0" shadowEnabled="0" shadowOffsetX="0" shadowOffsetY="2" shadowBlur="4" shadowOpacity="160" blurEnabled="0" blurRadius="4" transform="matrix(-0.0191428,0.349944,-0.349944,-0.0191428,138.69,24.2633)" pers-center="0,0" pers-size="0,0" pers-start="0,0" pers-end="0,0" locked="0" mesh="" flag=""/>
            <path id="shapePath2" d="M142.065,22.5375 C141.593,22.1957 137.292,23.8207 136.008,24.8386 C134.063,26.3818 135.395,26.4196 138.842,24.9936 C141.68,23.8151 142.742,22.9957 142.065,22.5375 Z" style="stroke:none;fill-rule:nonzero;fill:#000000;fill-opacity:1;"/>
        </g>
        <g id="Shape3">
            <desc shapeID="3" type="0" basicInfo-basicType="0" basicInfo-roundedRectRadius="12" basicInfo-polygonSides="6" basicInfo-starPoints="5" bounding="rect(-107.181,-177.838,214.362,355.675)" text="" font-familyName="" font-pixelSize="20" font-bold="0" font-underline="0" font-alignment="1" strokeStyle="0" markerStart="0" markerEnd="0" shadowEnabled="0" shadowOffsetX="0" shadowOffsetY="2" shadowBlur="4" shadowOpacity="160" blurEnabled="0" blurRadius="4" transform="matrix(-0.0191428,0.349944,-0.349944,-0.0191428,74.4546,89.5921)" pers-center="0,0" pers-size="0,0" pers-start="0,0" pers-end="0,0" locked="0" mesh="" flag=""/>
            <path id="shapePath3" d="M137.733,69.6492 C137.6,68.8698 137.459,67.5985 137.396,66.8228 C137.288,64.9567 135.845,59.8937 135.156,59.0136 C133.977,57.4749 131.72,55.1051 131.44,55.0898 C130.81,55.0553 131.087,56.4043 131.848,57.2532 C132.276,57.768 133.205,59.3982 133.894,60.9101 C135.018,63.4636 135.349,64.4645 135.631,66.3753 C136.493,72.4244 136.328,74.8021 134.745,78.7168 C132.557,84.0726 131.568,85.4576 126.39,90.2987 C125.057,91.5596 120.439,94.501 119.844,94.4684 C119.669,94.4589 118.668,94.7902 117.628,95.1896 C113.755,96.6976 111.691,97.2165 107.908,97.7115 C105.788,97.9816 102.499,98.4335 100.658,98.7189 C93.8292,99.7142 86.8779,100.387 84.0357,100.372 C82.4222,100.354 77.8595,100.35 73.8917,100.379 C69.9258,100.372 65.61,100.347 64.2434,100.307 C61.6849,100.237 53.8342,99.3866 52.0298,99.0071 C51.4756,98.8715 49.5955,98.5932 47.8515,98.3925 C44.1224,97.9077 33.4158,94.7247 29.7226,92.9432 C28.3203,92.2698 26.6866,91.338 26.1165,90.8506 C25.5465,90.3631 24.9707,89.9806 24.8657,89.9749 C24.7258,89.9672 24.3542,89.7012 24.0546,89.404 C23.7219,89.0699 22.4846,87.9493 21.2783,86.9005 C20.074,85.8168 18.9086,84.6649 18.6827,84.3016 C18.4219,83.9363 17.8984,83.2408 17.5015,82.7979 C13.7303,78.5903 13.6148,73.0032 17.1521,62.8776 C17.7765,61.0866 18.6263,59.0272 18.9795,58.3445 C19.523,57.3915 19.581,56.9734 19.2795,56.7112 C19.0791,56.5248 18.7329,56.4357 18.5503,56.5661 C18.0781,56.8561 16.8243,59.2445 16.788,59.9094 C16.7726,60.1893 16.4099,61.047 15.9828,61.7958 C15.5576,62.5096 14.683,65.024 14.028,67.3749 C12.528,72.9789 12.4828,77.0128 13.891,80.1435 C15.2039,83.0934 17.4322,85.9881 20.1481,88.3128 C20.7512,88.8372 21.9554,89.921 22.8232,90.7406 C24.3952,92.1604 25.4106,92.8477 29.03,94.6954 C30.5995,95.5183 36.6998,97.5718 41.1624,98.7636 C42.3038,99.0718 43.4783,99.4168 43.7525,99.5371 C44.0267,99.6574 45.7669,99.9281 47.5808,100.133 C49.3948,100.337 51.3799,100.621 51.936,100.722 C53.8122,101.07 61.3092,101.972 63.4458,102.053 C65.9654,102.191 76.1406,102.256 78.3567,102.167 C80.5729,102.078 83.7008,102.003 86.7918,101.962 C88.2304,101.97 91.5116,101.658 94.0231,101.304 C103.573,99.9664 107.816,99.3913 108.343,99.385 C110.869,99.4178 120.477,96.3633 123.487,94.5975 C124.719,93.8927 126.588,92.4506 127.625,91.4544 C128.699,90.4251 129.618,89.6681 129.683,89.7769 C129.749,89.8507 130.516,91.8582 131.405,94.2234 C132.293,96.5885 133.193,98.7437 133.355,98.9982 C133.553,99.2197 133.804,101.059 133.94,103.067 C134.237,107.26 133.678,110.423 131.602,115.645 C130.048,119.666 129.235,121.061 127.139,123.438 C125.756,124.977 124.915,125.598 122.871,126.399 C119.998,127.575 115.862,128.121 113.534,127.678 C111.693,127.332 108.935,125.145 108.387,123.606 C107.508,121.066 109.317,115.584 111.994,112.852 C112.514,112.319 112.932,111.745 112.941,111.57 C112.951,111.395 113.625,110.625 114.441,109.827 C115.96,108.366 117.082,106.462 117.149,105.237 C117.202,104.257 116.518,104.571 115.351,106.016 C114.411,107.158 113.961,107.695 112.613,109.236 C108.348,114.057 105.862,119.08 106.216,122.223 C106.504,124.661 107.152,125.644 110.146,128.019 C111.693,129.262 111.761,129.301 114.984,129.407 C114.984,129.407 117.183,129.548 118.28,129.482 C119.023,129.437 119.797,129.378 120.478,129.076 C122.986,127.961 125.857,126.983 127.776,125.263 C129.583,123.677 132.532,119.17 132.597,117.98 C132.615,117.666 132.776,117.288 132.925,117.121 C133.448,116.553 134.582,113.14 135.32,109.916 C135.915,107.387 136.009,106.304 135.845,103.522 C135.654,100.598 135.393,99.6011 133.663,95.2946 C132.582,92.603 131.39,90.0107 131.028,89.5697 C130.668,89.0937 130.551,88.6661 130.696,88.5688 C130.877,88.4734 131.77,87.5395 132.637,86.4637 C135.901,82.6059 138.427,74.2851 137.733,69.6492 Z" style="stroke:none;fill-rule:evenodd;fill:#000000;fill-opacity:1;"/>
        </g>
        <g id="Shape4">
            <desc shapeID="4" type="0" basicInfo-basicType="0" basicInfo-roundedRectRadius="12" basicInfo-polygonSides="6" basicInfo-starPoints="5" bounding="rect(-8.48247,-2.28966,16.965,4.57935)" text="" font-familyName="" font-pixelSize="20" font-bold="0" font-underline="0" font-alignment="1" strokeStyle="0" markerStart="0" markerEnd="0" shadowEnabled="0" shadowOffsetX="0" shadowOffsetY="2" shadowBlur="4" shadowOpacity="160" blurEnabled="0" blurRadius="4" transform="matrix(-0.0191428,0.349944,-0.349944,-0.0191428,131.714,22.6443)" pers-center="0,0" pers-size="0,0" pers-start="0,0" pers-end="0,0" locked="0" mesh="" flag=""/>
            <path id="shapePath4" d="M132.429,20.3256 C132.294,19.5811 131.705,19.4436 131.493,20.0989 C131.377,20.3032 131.162,21.6603 130.981,23.0543 C130.697,25.0394 130.738,25.5682 131.088,25.5873 C132.103,25.6428 132.87,22.5259 132.429,20.3256 Z" style="stroke:none;fill-rule:nonzero;fill:#000000;fill-opacity:1;"/>
        </g>
        <g id="Shape5">
            <desc shapeID="5" type="0" basicInfo-basicType="0" basicInfo-roundedRectRadius="12" basicInfo-polygonSides="6" basicInfo-starPoints="5" bounding="rect(-3.42037,-8.80869,6.84074,17.6173)" text="" font-familyName="" font-pixelSize="20" font-bold="0" font-underline="0" font-alignment="1" strokeStyle="0" markerStart="0" markerEnd="0" shadowEnabled="0" shadowOffsetX="0" shadowOffsetY="2" shadowBlur="4" shadowOpacity="160" blurEnabled="0" blurRadius="4" transform="matrix(-0.0191428,0.349944,-0.349944,-0.0191428,127.784,44.3304)" pers-center="0,0" pers-size="0,0" pers-start="0,0" pers-end="0,0" locked="0" mesh="" flag=""/>
            <path id="shapePath5" d="M130.749,43.3289 C130.345,43.026 125.614,44.1712 125.451,44.5834 C125.369,44.7896 125.156,44.8481 124.988,44.6985 C124.819,44.584 124.675,44.6463 124.664,44.8563 C124.654,45.0312 124.853,45.2527 125.059,45.3342 C125.607,45.5748 128.4,45.2011 129.652,44.7782 C130.618,44.4449 131.224,43.6357 130.749,43.3289 Z" style="stroke:none;fill-rule:nonzero;fill:#000000;fill-opacity:1;"/>
        </g>
        <g id="Shape6">
            <desc shapeID="6" type="0" basicInfo-basicType="0" basicInfo-roundedRectRadius="12" basicInfo-polygonSides="6" basicInfo-starPoints="5" bounding="rect(-16.8853,-26.5651,33.7706,53.1303)" text="" font-familyName="" font-pixelSize="20" font-bold="0" font-underline="0" font-alignment="1" strokeStyle="0" markerStart="0" markerEnd="0" shadowEnabled="0" shadowOffsetX="0" shadowOffsetY="2" shadowBlur="4" shadowOpacity="160" blurEnabled="0" blurRadius="4" transform="matrix(-0.0191428,0.349944,-0.349944,-0.0191428,117.932,28.4644)" pers-center="0,0" pers-size="0,0" pers-start="0,0" pers-end="0,0" locked="0" mesh="" flag=""/>
            <path id="shapePath6" d="M126.724,23.2426 C126.21,23.0039 125.689,22.9052 125.543,23.0026 C125.399,23.0649 124.025,23.1652 122.48,23.186 C116.753,23.2939 114.607,24.0189 111.757,26.706 C109.092,29.2278 108.308,30.7292 108.382,33.2253 C108.428,34.3159 109.464,33.9865 109.527,32.8317 C109.644,30.697 113.408,26.691 116.42,25.522 C117.532,25.0915 121.939,24.7358 125.411,24.7854 C126.884,24.7958 127.384,24.6476 127.477,24.2315 C127.568,23.8504 127.307,23.4851 126.724,23.2426 Z" style="stroke:none;fill-rule:nonzero;fill:#000000;fill-opacity:1;"/>
        </g>
        <g id="Shape7">
            <desc shapeID="7" type="0" basicInfo-basicType="0" basicInfo-roundedRectRadius="12" basicInfo-polygonSides="6" basicInfo-starPoints="5" bounding="rect(-5.70743,-7.34839,11.4149,14.6968)" text="" font-familyName="" font-pixelSize="20" font-bold="0" font-underline="0" font-alignment="1" strokeStyle="0" markerStart="0" markerEnd="0" shadowEnabled="0" shadowOffsetX="0" shadowOffsetY="2" shadowBlur="4" shadowOpacity="160" blurEnabled="0" blurRadius="4" transform="matrix(-0.0191428,0.349944,-0.349944,-0.0191428,123.102,39.0874)" pers-center="0,0" pers-size="0,0" pers-start="0,0" pers-end="0,0" locked="0" mesh="" flag=""/>
            <path id="shapePath7" d="M125.398,37.2098 C124.733,37.1734 120.818,39.4512 120.54,40.0327 C120.216,40.8223 120.821,41.3117 121.382,40.6755 C121.643,40.409 122.041,40.185 122.286,40.1984 C122.986,40.2367 125.723,38.3156 125.754,37.7557 C125.769,37.4758 125.608,37.2212 125.398,37.2098 Z" style="stroke:none;fill-rule:nonzero;fill:#000000;fill-opacity:1;"/>
        </g>
        <g id="Shape8">
            <desc shapeID="8" type="0" basicInfo-basicType="0" basicInfo-roundedRectRadius="12" basicInfo-polygonSides="6" basicInfo-starPoints="5" bounding="rect(-7.20927,-6.1877,14.4185,12.3754)" text="" font-familyName="" font-pixelSize="20" font-bold="0" font-underline="0" font-alignment="1" strokeStyle="0" markerStart="0" markerEnd="0" shadowEnabled="0" shadowOffsetX="0" shadowOffsetY="2" shadowBlur="4" shadowOpacity="160" blurEnabled="0" blurRadius="4" transform="matrix(-0.0191428,0.349944,-0.349944,-0.0191428,118.558,36.3255)" pers-center="0,0" pers-size="0,0" pers-start="0,0" pers-end="0,0" locked="0" mesh="" flag=""/>
            <path id="shapePath8" d="M120.661,33.9672 C119.751,33.2856 115.604,37.8674 116.365,38.7163 C116.628,39.0465 120.358,35.6705 120.757,34.7797 C120.881,34.4355 120.866,34.0837 120.661,33.9672 Z" style="stroke:none;fill-rule:nonzero;fill:#000000;fill-opacity:1;"/>
        </g>
        <g id="Shape9">
            <desc shapeID="9" type="0" basicInfo-basicType="0" basicInfo-roundedRectRadius="12" basicInfo-polygonSides="6" basicInfo-starPoints="5" bounding="rect(-15.0613,-39.9669,30.1226,79.9337)" text="" font-familyName="" font-pixelSize="20" font-bold="0" font-underline="0" font-alignment="1" strokeStyle="0" markerStart="0" markerEnd="0" shadowEnabled="0" shadowOffsetX="0" shadowOffsetY="2" shadowBlur="4" shadowOpacity="160" blurEnabled="0" blurRadius="4" transform="matrix(-0.0191428,0.349944,-0.349944,-0.0191428,94.3039,28.5843)" pers-center="0,0" pers-size="0,0" pers-start="0,0" pers-end="0,0" locked="0" mesh="" flag=""/>
            <path id="shapePath9" d="M106.886,32.3362 C106.248,31.8099 105.307,31.0564 104.805,30.6078 C104.303,30.1592 103.282,29.5768 102.525,29.2897 C101.769,29.0027 100.876,28.6379 100.571,28.4457 C100.23,28.2516 99.8182,28.0887 99.6082,28.0772 C99.3982,28.0657 98.6164,27.6017 97.8402,27.0328 C95.5817,25.3298 92.8205,24.4768 86.7309,23.5119 C84.6077,23.1851 82.8014,22.8406 82.6671,22.728 C82.1594,22.3843 80.5719,23.1749 80.5393,23.7699 C80.5106,24.2948 80.5787,24.3336 80.8835,23.894 C81.1107,23.5905 81.2526,23.5632 81.2392,23.8081 C81.2258,24.0531 82.0522,24.344 83.2344,24.5491 C90.8854,25.8451 94.5838,26.8898 96.7119,28.4101 C97.49,28.9441 98.2718,29.408 98.4818,29.4195 C98.6918,29.431 99.1041,29.594 99.4444,29.7881 C99.7498,29.9803 100.709,30.4188 101.566,30.7816 C102.424,31.1444 104.017,32.1792 105.091,33.0804 C106.2,33.9834 107.285,34.6746 107.571,34.5849 C108.393,34.314 108.096,33.315 106.886,32.3362 Z" style="stroke:none;fill-rule:nonzero;fill:#000000;fill-opacity:1;"/>
        </g>
        <g id="Shape10">
            <desc shapeID="10" type="0" basicInfo-basicType="0" basicInfo-roundedRectRadius="12" basicInfo-polygonSides="6" basicInfo-starPoints="5" bounding="rect(-2.87794,-2.17274,5.75586,4.34565)" text="" font-familyName="" font-pixelSize="20" font-bold="0" font-underline="0" font-alignment="1" strokeStyle="0" markerStart="0" markerEnd="0" shadowEnabled="0" shadowOffsetX="0" shadowOffsetY="2" shadowBlur="4" shadowOpacity="160" blurEnabled="0" blurRadius="4" transform="matrix(-0.0191428,0.349944,-0.349944,-0.0191428,95.7664,71.5882)" pers-center="0,0" pers-size="0,0" pers-start="0,0" pers-end="0,0" locked="0" mesh="" flag=""/>
            <path id="shapePath10" d="M96.1026,70.9871 C95.7114,70.4392 95.6415,70.4354 95.2609,70.9762 C94.7677,71.6512 94.9858,72.1545 95.8766,72.5542 C96.5961,72.8743 96.7178,71.9333 96.1026,70.9871 Z" style="stroke:none;fill-rule:nonzero;fill:#000000;fill-opacity:1;"/>
        </g>
        <g id="Shape11">
            <desc shapeID="11" type="0" basicInfo-basicType="0" basicInfo-roundedRectRadius="12" basicInfo-polygonSides="6" basicInfo-starPoints="5" bounding="rect(-3.49353,-1.82492,6.98706,3.64975)" text="" font-familyName="" font-pixelSize="20" font-bold="0" font-underline="0" font-alignment="1" strokeStyle="0" markerStart="0" markerEnd="0" shadowEnabled="0" shadowOffsetX="0" shadowOffsetY="2" shadowBlur="4" shadowOpacity="160" blurEnabled="0" blurRadius="4" transform="matrix(-0.0191428,0.349944,-0.349944,-0.0191428,90.2165,71.6105)" pers-center="0,0" pers-size="0,0" pers-start="0,0" pers-end="0,0" locked="0" mesh="" flag=""/>
            <path id="shapePath11" d="M90.4839,70.399 C89.819,70.3626 89.2391,71.9805 89.7684,72.5711 C90.2315,73.0878 90.418,72.8874 90.7726,71.5379 C90.9954,70.6726 90.9388,70.4238 90.4839,70.399 Z" style="stroke:none;fill-rule:nonzero;fill:#000000;fill-opacity:1;"/>
        </g>
        <g id="Shape12">
            <desc shapeID="12" type="0" basicInfo-basicType="0" basicInfo-roundedRectRadius="12" basicInfo-polygonSides="6" basicInfo-starPoints="5" bounding="rect(-3.64186,-1.99104,7.28371,3.98225)" text="" font-familyName="" font-pixelSize="20" font-bold="0" font-underline="0" font-alignment="1" strokeStyle="0" markerStart="0" markerEnd="0" shadowEnabled="0" shadowOffsetX="0" shadowOffsetY="2" shadowBlur="4" shadowOpacity="160" blurEnabled="0" blurRadius="4" transform="matrix(-0.0191428,0.349944,-0.349944,-0.0191428,85.6469,71.5033)" pers-center="0,0" pers-size="0,0" pers-start="0,0" pers-end="0,0" locked="0" mesh="" flag=""/>
            <path id="shapePath12" d="M86.0319,70.2958 C85.5904,70.026 84.9922,70.6952 84.9463,71.5351 C84.9099,72.2 85.7057,73.0508 86.0398,72.7181 C86.4458,72.3542 86.4366,70.5987 86.0319,70.2958 Z" style="stroke:none;fill-rule:nonzero;fill:#000000;fill-opacity:1;"/>
        </g>
        <g id="Shape13">
            <desc shapeID="13" type="0" basicInfo-basicType="0" basicInfo-roundedRectRadius="12" basicInfo-polygonSides="6" basicInfo-starPoints="5" bounding="rect(-6.90402,-2.65027,13.808,5.30066)" text="" font-familyName="" font-pixelSize="20" font-bold="0" font-underline="0" font-alignment="1" strokeStyle="0" markerStart="0" markerEnd="0" shadowEnabled="0" shadowOffsetX="0" shadowOffsetY="2" shadowBlur="4" shadowOpacity="160" blurEnabled="0" blurRadius="4" transform="matrix(-0.0191428,0.349944,-0.349944,-0.0191428,85.052,60.9424)" pers-center="0,0" pers-size="0,0" pers-start="0,0" pers-end="0,0" locked="0" mesh="" flag=""/>
            <path id="shapePath13" d="M85.9058,59.1274 C85.7481,58.8029 85.4815,58.5426 85.3065,58.533 C84.9216,58.512 84.1495,60.4353 84.0844,61.6251 C84.027,62.6749 84.8814,63.7396 85.3649,63.2395 C85.8467,62.7745 86.2194,59.8115 85.9058,59.1274 Z" style="stroke:none;fill-rule:nonzero;fill:#000000;fill-opacity:1;"/>
        </g>
        <g id="Shape14">
            <desc shapeID="14" type="0" basicInfo-basicType="0" basicInfo-roundedRectRadius="12" basicInfo-polygonSides="6" basicInfo-starPoints="5" bounding="rect(-25.1616,-25.3372,50.3233,50.6746)" text="" font-familyName="" font-pixelSize="20" font-bold="0" font-underline="0" font-alignment="1" strokeStyle="0" markerStart="0" markerEnd="0" shadowEnabled="0" shadowOffsetX="0" shadowOffsetY="2" shadowBlur="4" shadowOpacity="160" blurEnabled="0" blurRadius="4" transform="matrix(-0.0191428,0.349944,-0.349944,-0.0191428,72.5301,69.6871)" pers-center="0,0" pers-size="0,0" pers-start="0,0" pers-end="0,0" locked="0" mesh="" flag=""/>
            <path id="shapePath14" d="M81.1526,72.8719 C80.5914,69.0154 80.4255,68.1991 80.1005,67.725 C79.8707,67.4317 79.3956,66.4931 79.0197,65.6652 C77.6153,62.4646 74.5285,60.5057 71.5583,60.9048 C69.7195,61.1552 68.6549,62.0095 66.4936,64.9449 C64.6353,67.4757 63.6073,70.2274 63.4465,73.1669 C63.3451,75.0216 63.4386,75.2373 64.3783,76.0258 C65.9248,77.2687 68.2388,77.9569 72.1098,78.4143 C75.2497,78.7616 75.7784,78.7203 77.2865,78.1008 C80.2287,76.928 81.4793,75.2414 81.1526,72.8719 M75.2058,70.5811 C74.1136,68.7313 73.2475,65.3144 73.4972,63.9592 C73.6889,63.022 73.7238,63.0239 74.2091,64.4193 C74.517,65.2083 75.0079,66.4987 75.3157,67.2878 C76.1496,69.3691 76.2043,69.6529 76.1665,70.9846 L76.1364,72.1763 L75.2058,70.5811 Z" style="stroke:none;fill-rule:nonzero;fill:#000000;fill-opacity:1;"/>
        </g>
        <g id="Shape15">
            <desc shapeID="15" type="0" basicInfo-basicType="0" basicInfo-roundedRectRadius="12" basicInfo-polygonSides="6" basicInfo-starPoints="5" bounding="rect(-9.16812,-7.12866,18.3362,14.2575)" text="" font-familyName="" font-pixelSize="20" font-bold="0" font-underline="0" font-alignment="1" strokeStyle="0" markerStart="0" markerEnd="0" shadowEnabled="0" shadowOffsetX="0" shadowOffsetY="2" shadowBlur="4" shadowOpacity="160" blurEnabled="0" blurRadius="4" transform="matrix(-0.0191428,0.349944,-0.349944,-0.0191428,78.3613,17.846)" pers-center="0,0" pers-size="0,0" pers-start="0,0" pers-end="0,0" locked="0" mesh="" flag=""/>
            <path id="shapePath15" d="M80.773,15.0079 C80.3117,14.4561 79.6646,14.7366 78.9035,15.8182 C78.486,16.392 77.5014,17.707 76.7792,18.7205 C75.3053,20.6405 75.3585,21.5911 76.8622,20.4098 C77.6335,19.7851 80.9796,15.7211 80.9988,15.3712 C81.0026,15.3012 80.9072,15.1205 80.773,15.0079 Z" style="stroke:none;fill-rule:nonzero;fill:#000000;fill-opacity:1;"/>
        </g>
        <g id="Shape16">
            <desc shapeID="16" type="0" basicInfo-basicType="0" basicInfo-roundedRectRadius="12" basicInfo-polygonSides="6" basicInfo-starPoints="5" bounding="rect(-7.53083,-4.63075,15.0617,9.26171)" text="" font-familyName="" font-pixelSize="20" font-bold="0" font-underline="0" font-alignment="1" strokeStyle="0" markerStart="0" markerEnd="0" shadowEnabled="0" shadowOffsetX="0" shadowOffsetY="2" shadowBlur="4" shadowOpacity="160" blurEnabled="0" blurRadius="4" transform="matrix(-0.0191428,0.349944,-0.349944,-0.0191428,70.6865,19.7458)" pers-center="0,0" pers-size="0,0" pers-start="0,0" pers-end="0,0" locked="0" mesh="" flag=""/>
            <path id="shapePath16" d="M71.5945,21.1044 C71.1472,20.9395 70.8609,20.3974 70.7746,19.4099 C70.5769,17.8898 69.9345,16.8017 69.3574,17.086 C69.0309,17.2788 69.1012,19.8448 69.4891,21.0945 C69.7874,22.0585 71.1196,22.7281 71.7763,22.2726 C72.3999,21.7802 72.351,21.3915 71.5945,21.1044 Z" style="stroke:none;fill-rule:nonzero;fill:#000000;fill-opacity:1;"/>
        </g>
        <g id="Shape17">
            <desc shapeID="17" type="0" basicInfo-basicType="0" basicInfo-roundedRectRadius="12" basicInfo-polygonSides="6" basicInfo-starPoints="5" bounding="rect(-17.424,-34,34.848,68)" text="" font-familyName="" font-pixelSize="20" font-bold="0" font-underline="0" font-alignment="1" strokeStyle="0" markerStart="0" markerEnd="0" shadowEnabled="0" shadowOffsetX="0" shadowOffsetY="2" shadowBlur="4" shadowOpacity="160" blurEnabled="0" blurRadius="4" transform="matrix(-0.0191428,0.349944,-0.349944,-0.0191428,52.8961,28.6306)" pers-center="0,0" pers-size="0,0" pers-start="0,0" pers-end="0,0" locked="0" mesh="" flag=""/>
            <path id="shapePath17" d="M64.6677,23.2526 C63.6059,22.7733 59.1742,23.5839 56.0162,24.8502 C55.0114,25.2515 53.9055,25.5771 53.5906,25.5599 C52.7508,25.514 46.5206,28.4023 44.6943,29.7063 C42.9807,30.8762 40.7292,32.894 40.7101,33.244 C40.7043,33.349 40.827,33.6716 40.9886,33.9261 C41.1776,34.3225 41.6808,34.1044 43.0757,32.9873 C45.9355,30.757 46.225,30.5973 48.86,29.2673 C52.0702,27.688 52.7523,27.4094 54.9565,26.8982 C55.9497,26.7068 57.487,26.1942 58.3499,25.8202 C59.2146,25.4113 60.6354,25.1029 61.5141,25.0808 C63.9714,25.0748 65.0403,24.7823 65.0786,24.0824 C65.0978,23.7324 64.9069,23.371 64.6677,23.2526 Z" style="stroke:none;fill-rule:nonzero;fill:#000000;fill-opacity:1;"/>
        </g>
        <g id="Shape18">
            <desc shapeID="18" type="0" basicInfo-basicType="0" basicInfo-roundedRectRadius="12" basicInfo-polygonSides="6" basicInfo-starPoints="5" bounding="rect(-51.5287,-51.76,103.057,103.52)" text="" font-familyName="" font-pixelSize="20" font-bold="0" font-underline="0" font-alignment="1" strokeStyle="0" markerStart="0" markerEnd="0" shadowEnabled="0" shadowOffsetX="0" shadowOffsetY="2" shadowBlur="4" shadowOpacity="160" blurEnabled="0" blurRadius="4" transform="matrix(-0.0191428,0.349944,-0.349944,-0.0191428,38.7172,115.246)" pers-center="0,0" pers-size="0,0" pers-start="0,0" pers-end="0,0" locked="0" mesh="" flag=""/>
            <path id="shapePath18" d="M56.1971,120.997 C56.0081,120.6 55.0876,119.462 54.1614,118.428 C52.3401,116.433 50.2746,113.126 49.9313,111.703 C49.7831,111.204 49.3741,110.339 48.9867,109.721 C48.5975,109.138 48.1357,107.955 47.9367,107.102 C47.7395,106.213 47.4221,105.599 47.1715,105.691 C46.567,105.833 46.141,107.846 46.55,108.711 C46.7389,109.107 47.5219,110.835 48.2717,112.525 C49.0547,114.253 50.2366,116.388 50.9236,117.303 C51.6088,118.253 52.1577,119.126 52.15,119.266 C52.1405,119.441 52.3447,119.557 52.5897,119.571 C53.0446,119.596 53.7704,120.443 54.6056,121.857 C55.2112,122.978 54.7997,126.009 53.7826,127.919 C52.4976,130.236 49.2524,131.813 45.4519,131.991 C42.6021,132.116 36.0489,130.003 32.7598,127.893 C30.6221,126.547 27.0106,122.629 25.4375,119.946 C23.7964,117.223 22.7078,112.741 22.6868,108.634 C22.6917,105.335 22.7867,104.884 24.1228,100.99 C25.1158,98.2368 25.4781,96.7474 25.2465,96.489 C24.8845,96.048 23.3229,97.6474 22.9797,98.7869 C22.8518,99.201 22.3827,100.72 21.8785,102.237 C21.1629,104.409 20.9949,105.558 20.9855,108.295 C20.989,110.155 21.1172,112.303 21.2851,113.085 C21.451,113.901 21.6659,115.106 21.7694,115.779 C21.8731,116.451 22.4283,117.851 22.9715,118.828 C23.5479,119.842 24.1164,120.997 24.3016,121.463 C24.7302,122.61 29.0675,127.375 30.9856,128.884 C32.4018,129.944 36.5831,131.787 39.6555,132.727 C40.2427,132.9 41.0711,133.156 41.5553,133.288 C42.934,133.749 47.1448,133.769 48.7113,133.363 C50.9543,132.784 54.5254,130.382 55.3426,128.917 C56.2336,127.387 56.8026,122.118 56.1971,120.997 Z" style="stroke:none;fill-rule:nonzero;fill:#000000;fill-opacity:1;"/>
        </g>
        <g id="Shape19">
            <desc shapeID="19" type="0" basicInfo-basicType="0" basicInfo-roundedRectRadius="12" basicInfo-polygonSides="6" basicInfo-starPoints="5" bounding="rect(-5.3587,-3.39998,10.7174,6.79979)" text="" font-familyName="" font-pixelSize="20" font-bold="0" font-underline="0" font-alignment="1" strokeStyle="0" markerStart="0" markerEnd="0" shadowEnabled="0" shadowOffsetX="0" shadowOffsetY="2" shadowBlur="4" shadowOpacity="160" blurEnabled="0" blurRadius="4" transform="matrix(-0.0191428,0.349944,-0.349944,-0.0191428,56.727,60.3598)" pers-center="0,0" pers-size="0,0" pers-start="0,0" pers-end="0,0" locked="0" mesh="" flag=""/>
            <path id="shapePath19" d="M57.6579,60.2848 C57.3813,59.5677 57.3711,59.1109 57.5811,59.1223 C57.791,59.1338 57.8687,58.9977 57.7733,58.817 C57.6779,58.6362 57.1937,58.5045 56.7038,58.4777 C55.584,58.4164 55.456,58.8306 55.6025,61.9273 C55.6495,62.3511 57.2669,62.2992 57.6768,61.8653 C57.9389,61.5637 57.9307,61.0719 57.6579,60.2848 Z" style="stroke:none;fill-rule:nonzero;fill:#000000;fill-opacity:1;"/>
        </g>
        <g id="Shape20">
            <desc shapeID="20" type="0" basicInfo-basicType="0" basicInfo-roundedRectRadius="12" basicInfo-polygonSides="6" basicInfo-starPoints="5" bounding="rect(-4.21962,-1.8604,8.43925,3.72076)" text="" font-familyName="" font-pixelSize="20" font-bold="0" font-underline="0" font-alignment="1" strokeStyle="0" markerStart="0" markerEnd="0" shadowEnabled="0" shadowOffsetX="0" shadowOffsetY="2" shadowBlur="4" shadowOpacity="160" blurEnabled="0" blurRadius="4" transform="matrix(-0.0191428,0.349944,-0.349944,-0.0191428,55.1785,70.7865)" pers-center="0,0" pers-size="0,0" pers-start="0,0" pers-end="0,0" locked="0" mesh="" flag=""/>
            <path id="shapePath20" d="M55.2125,69.698 C54.3306,70.4219 54.2425,72.0317 55.1078,72.2545 C55.5239,72.3475 55.6811,72.0402 55.8219,70.7492 C55.9469,69.1064 55.9469,69.1064 55.2125,69.698 Z" style="stroke:none;fill-rule:nonzero;fill:#000000;fill-opacity:1;"/>
        </g>
        <g id="Shape21">
            <desc shapeID="21" type="0" basicInfo-basicType="0" basicInfo-roundedRectRadius="12" basicInfo-polygonSides="6" basicInfo-starPoints="5" bounding="rect(-4.4826,-2.40221,8.96521,4.80462)" text="" font-familyName="" font-pixelSize="20" font-bold="0" font-underline="0" font-alignment="1" strokeStyle="0" markerStart="0" markerEnd="0" shadowEnabled="0" shadowOffsetX="0" shadowOffsetY="2" shadowBlur="4" shadowOpacity="160" blurEnabled="0" blurRadius="4" transform="matrix(-0.0191428,0.349944,-0.349944,-0.0191428,52.1998,70.4045)" pers-center="0,0" pers-size="0,0" pers-start="0,0" pers-end="0,0" locked="0" mesh="" flag=""/>
            <path id="shapePath21" d="M52.7692,70.0908 L52.6262,68.8545 L51.9835,69.6968 C51.1562,70.7046 51.1485,70.8445 51.8101,71.5827 C52.3063,72.1363 53.0431,72.1415 52.9687,71.5759 C52.9414,71.434 52.8728,70.7634 52.7692,70.0908 Z" style="stroke:none;fill-rule:nonzero;fill:#000000;fill-opacity:1;"/>
        </g>
        <g id="Shape22">
            <desc shapeID="22" type="0" basicInfo-basicType="0" basicInfo-roundedRectRadius="12" basicInfo-polygonSides="6" basicInfo-starPoints="5" bounding="rect(-4.21181,-2.43506,8.42363,4.87026)" text="" font-familyName="" font-pixelSize="20" font-bold="0" font-underline="0" font-alignment="1" strokeStyle="0" markerStart="0" markerEnd="0" shadowEnabled="0" shadowOffsetX="0" shadowOffsetY="2" shadowBlur="4" shadowOpacity="160" blurEnabled="0" blurRadius="4" transform="matrix(-0.0191428,0.349944,-0.349944,-0.0191428,48.9887,71.0321)" pers-center="0,0" pers-size="0,0" pers-start="0,0" pers-end="0,0" locked="0" mesh="" flag=""/>
            <path id="shapePath22" d="M49.6744,70.2023 C49.5396,69.4579 49.2284,69.3706 48.601,69.933 C47.9736,70.4954 47.9919,71.444 48.6224,72.1103 C49.5485,73.1438 50.094,72.1557 49.6744,70.2023 Z" style="stroke:none;fill-rule:nonzero;fill:#000000;fill-opacity:1;"/>
        </g>
        <g id="Shape23">
            <desc shapeID="23" type="0" basicInfo-basicType="0" basicInfo-roundedRectRadius="12" basicInfo-polygonSides="6" basicInfo-starPoints="5" bounding="rect(-1,-1.2998,2,2.59961)" text="" font-familyName="" font-pixelSize="20" font-bold="0" font-underline="0" font-alignment="1" strokeStyle="0" markerStart="0" markerEnd="0" shadowEnabled="0" shadowOffsetX="0" shadowOffsetY="2" shadowBlur="4" shadowOpacity="160" blurEnabled="0" blurRadius="4" transform="matrix(-0.0191428,0.349944,-0.349944,-0.0191428,48.8373,68.8228)" pers-center="0,0" pers-size="0,0" pers-start="0,0" pers-end="0,0" locked="0" mesh="" flag=""/>
            <path id="shapePath23" d="M48.7514,68.4671 C48.4715,68.4518 48.3219,68.6191 48.4173,68.7998 C48.5108,69.0155 48.7481,69.1689 48.9581,69.1804 C49.1331,69.1899 49.2807,69.0576 49.2922,68.8476 C49.3018,68.6727 49.0664,68.4843 48.7514,68.4671 Z" style="stroke:none;fill-rule:nonzero;fill:#000000;fill-opacity:1;"/>
        </g>
        <g id="Shape24">
            <desc shapeID="24" type="0" basicInfo-basicType="0" basicInfo-roundedRectRadius="12" basicInfo-polygonSides="6" basicInfo-starPoints="5" bounding="rect(-11.7478,-20.1177,23.4956,40.2353)" text="" font-familyName="" font-pixelSize="20" font-bold="0" font-underline="0" font-alignment="1" strokeStyle="0" markerStart="0" markerEnd="0" shadowEnabled="0" shadowOffsetX="0" shadowOffsetY="2" shadowBlur="4" shadowOpacity="160" blurEnabled="0" blurRadius="4" transform="matrix(-0.0191428,0.349944,-0.349944,-0.0191428,32.451,27.5584)" pers-center="0,0" pers-size="0,0" pers-start="0,0" pers-end="0,0" locked="0" mesh="" flag=""/>
            <path id="shapePath24" d="M38.8464,29.4566 C38.529,28.8426 37.6047,27.7741 36.7992,27.0983 C35.9958,26.3875 35.2604,25.7155 35.163,25.5697 C35.0657,25.424 34.4823,25.1815 33.86,25.0071 C33.2358,24.8676 32.3101,24.466 31.7986,24.1923 C31.2871,23.9186 29.8346,23.5233 28.5824,23.3144 C26.8073,23.0418 26.2086,23.0793 25.8376,23.445 C25.2394,24.1143 25.6129,24.3453 28.2513,24.8758 C32.7662,25.7545 35.888,27.7153 37.5489,30.7194 C37.9967,31.5161 38.526,32.1066 38.7767,32.0151 C39.453,31.8415 39.5181,30.6516 38.8464,29.4566 Z" style="stroke:none;fill-rule:nonzero;fill:#000000;fill-opacity:1;"/>
        </g>
        <g id="Shape25">
            <desc shapeID="25" type="0" basicInfo-basicType="0" basicInfo-roundedRectRadius="12" basicInfo-polygonSides="6" basicInfo-starPoints="5" bounding="rect(-4.45374,-1.91535,8.9075,3.83094)" text="" font-familyName="" font-pixelSize="20" font-bold="0" font-underline="0" font-alignment="1" strokeStyle="0" markerStart="0" markerEnd="0" shadowEnabled="0" shadowOffsetX="0" shadowOffsetY="2" shadowBlur="4" shadowOpacity="160" blurEnabled="0" blurRadius="4" transform="matrix(-0.0191428,0.349944,-0.349944,-0.0191428,30.9953,38.2043)" pers-center="0,0" pers-size="0,0" pers-start="0,0" pers-end="0,0" locked="0" mesh="" flag=""/>
            <path id="shapePath25" d="M31.3799,36.9806 C31.156,36.5823 30.983,36.5377 30.6507,36.8354 C30.0602,37.3647 30.3869,39.7342 31.0518,39.7706 C31.6467,39.8031 31.8939,37.8511 31.3799,36.9806 Z" style="stroke:none;fill-rule:nonzero;fill:#000000;fill-opacity:1;"/>
        </g>
        <g id="Shape26">
            <desc shapeID="26" type="0" basicInfo-basicType="0" basicInfo-roundedRectRadius="12" basicInfo-polygonSides="6" basicInfo-starPoints="5" bounding="rect(-5.17287,-3.454,10.3458,6.90795)" text="" font-familyName="" font-pixelSize="20" font-bold="0" font-underline="0" font-alignment="1" strokeStyle="0" markerStart="0" markerEnd="0" shadowEnabled="0" shadowOffsetX="0" shadowOffsetY="2" shadowBlur="4" shadowOpacity="160" blurEnabled="0" blurRadius="4" transform="matrix(-0.0191428,0.349944,-0.349944,-0.0191428,26.0139,41.8536)" pers-center="0,0" pers-size="0,0" pers-start="0,0" pers-end="0,0" locked="0" mesh="" flag=""/>
            <path id="shapePath26" d="M26.7458,42.1324 C26.4716,42.0121 26.0823,41.4292 25.9029,40.8578 C25.6886,40.2845 25.3927,39.9173 25.212,40.0127 C24.633,40.332 24.7746,42.2351 25.4362,42.9733 C26.2301,43.8591 26.6482,43.9171 26.9683,43.1975 C27.2904,42.4429 27.2942,42.373 26.7458,42.1324 Z" style="stroke:none;fill-rule:nonzero;fill:#000000;fill-opacity:1;"/>
        </g>
        <g id="Shape27">
            <desc shapeID="27" type="0" basicInfo-basicType="0" basicInfo-roundedRectRadius="12" basicInfo-polygonSides="6" basicInfo-starPoints="5" bounding="rect(-3.01205,-4.76099,6.02413,9.52218)" text="" font-familyName="" font-pixelSize="20" font-bold="0" font-underline="0" font-alignment="1" strokeStyle="0" markerStart="0" markerEnd="0" shadowEnabled="0" shadowOffsetX="0" shadowOffsetY="2" shadowBlur="4" shadowOpacity="160" blurEnabled="0" blurRadius="4" transform="matrix(-0.0191428,0.349944,-0.349944,-0.0191428,21.1377,46.0903)" pers-center="0,0" pers-size="0,0" pers-start="0,0" pers-end="0,0" locked="0" mesh="" flag=""/>
            <path id="shapePath27" d="M21.5889,45.29 C19.2496,44.4249 18.6964,45.5529 20.8768,46.7603 C22.1371,47.461 22.7416,47.3186 22.7933,46.3737 C22.8162,45.9538 22.4135,45.6159 21.5889,45.29 Z" style="stroke:none;fill-rule:nonzero;fill:#000000;fill-opacity:1;"/>
        </g>
        <g id="Shape28">
            <desc shapeID="28" type="0" basicInfo-basicType="0" basicInfo-roundedRectRadius="12" basicInfo-polygonSides="6" basicInfo-starPoints="5" bounding="rect(-7.56876,-2.38437,15.1375,4.7688)" text="" font-familyName="" font-pixelSize="20" font-bold="0" font-underline="0" font-alignment="1" strokeStyle="0" markerStart="0" markerEnd="0" shadowEnabled="0" shadowOffsetX="0" shadowOffsetY="2" shadowBlur="4" shadowOpacity="160" blurEnabled="0" blurRadius="4" transform="matrix(-0.0191428,0.349944,-0.349944,-0.0191428,18.9067,24.0377)" pers-center="0,0" pers-size="0,0" pers-start="0,0" pers-end="0,0" locked="0" mesh="" flag=""/>
            <path id="shapePath28" d="M19.5156,23.5204 C19.4598,21.973 19.2806,21.4016 18.8956,21.3806 C18.1257,21.3384 17.7076,25.7732 18.4099,26.4083 C18.9781,26.9307 19.6914,26.7241 19.6228,26.0534 C19.6011,25.8065 19.5574,24.681 19.5156,23.5204 Z" style="stroke:none;fill-rule:nonzero;fill:#000000;fill-opacity:1;"/>
        </g>
        <g id="Shape29">
            <desc shapeID="29" type="0" basicInfo-basicType="0" basicInfo-roundedRectRadius="12" basicInfo-polygonSides="6" basicInfo-starPoints="5" bounding="rect(-1.35374,-2.89712,2.70747,5.79448)" text="" font-familyName="" font-pixelSize="20" font-bold="0" font-underline="0" font-alignment="1" strokeStyle="0" markerStart="0" markerEnd="0" shadowEnabled="0" shadowOffsetX="0" shadowOffsetY="2" shadowBlur="4" shadowOpacity="160" blurEnabled="0" blurRadius="4" transform="matrix(-0.0191428,0.349944,-0.349944,-0.0191428,16.3403,54.2179)" pers-center="0,0" pers-size="0,0" pers-start="0,0" pers-end="0,0" locked="0" mesh="" flag=""/>
            <path id="shapePath29" d="M16.5573,53.8597 C15.3853,54.1115 15.1326,54.2381 15.4304,54.5702 C15.5627,54.7179 15.8815,54.6651 16.1379,54.4686 C16.4313,54.2389 16.715,54.1842 16.8143,54.295 C16.9135,54.4057 17.1293,54.3122 17.2826,54.0749 C17.5099,53.7714 17.3368,53.7268 16.5573,53.8597 Z" style="stroke:none;fill-rule:nonzero;fill:#000000;fill-opacity:1;"/>
        </g>
        <g id="Shape30">
            <desc shapeID="30" type="0" basicInfo-basicType="0" basicInfo-roundedRectRadius="12" basicInfo-polygonSides="6" basicInfo-starPoints="5" bounding="rect(-32.8616,-19.9426,65.7231,39.8852)" text="" font-familyName="" font-pixelSize="20" font-bold="0" font-underline="0" font-alignment="1" strokeStyle="0" markerStart="0" markerEnd="0" shadowEnabled="0" shadowOffsetX="0" shadowOffsetY="2" shadowBlur="4" shadowOpacity="160" blurEnabled="0" blurRadius="4" transform="matrix(-0.0191428,0.349944,-0.349944,-0.0191428,8.62335,42.707)" pers-center="0,0" pers-size="0,0" pers-start="0,0" pers-end="0,0" locked="0" mesh="" flag=""/>
            <path id="shapePath30" d="M14.3604,53.5991 C14.0104,53.58 13.5338,53.3082 13.3023,53.0499 C13.1076,52.7584 12.1215,52.178 11.1589,51.8094 C10.1963,51.4409 9.10708,50.8197 8.74133,50.4487 C8.37742,50.0427 7.97282,49.7398 7.79785,49.7302 C7.20296,49.6977 4.85806,47.0072 4.89252,46.3773 C4.91166,46.0273 4.79086,45.6697 4.62163,45.5552 C4.45432,45.4056 4.086,44.4378 3.82852,43.3708 C2.84166,39.5963 3.82314,37.0526 7.71578,33.2643 C9.42319,31.5676 9.54725,31.2234 8.42744,31.1622 C7.37761,31.1047 6.16152,32.1614 3.93226,35.0579 C2.41954,37.046 2.06251,37.7987 1.83442,39.4008 C1.43251,42.2569 2.49566,46.5621 4.13626,48.6525 C5.02175,49.789 9.20031,52.9659 9.9002,53.0042 C10.1451,53.0176 10.8335,53.2658 11.3782,53.5764 C11.9227,53.887 12.9553,54.2593 13.6845,54.4045 C14.6878,54.67 14.9716,54.6153 14.9965,54.1604 C15.0118,53.8805 14.7452,53.6202 14.3604,53.5991 Z" style="stroke:none;fill-rule:nonzero;fill:#000000;fill-opacity:1;"/>
        </g>
        <g id="Shape31">
            <desc shapeID="31" type="0" basicInfo-basicType="0" basicInfo-roundedRectRadius="12" basicInfo-polygonSides="6" basicInfo-starPoints="5" bounding="rect(-4.80513,-5.95943,9.61028,11.9187)" text="" font-familyName="" font-pixelSize="20" font-bold="0" font-underline="0" font-alignment="1" strokeStyle="0" markerStart="0" markerEnd="0" shadowEnabled="0" shadowOffsetX="0" shadowOffsetY="2" shadowBlur="4" shadowOpacity="160" blurEnabled="0" blurRadius="4" transform="matrix(-0.0191428,0.349944,-0.349944,-0.0191428,13.6508,27.1686)" pers-center="0,0" pers-size="0,0" pers-start="0,0" pers-end="0,0" locked="0" mesh="" flag=""/>
            <path id="shapePath31" d="M14.145,26.7365 C12.6665,25.5325 11.6727,25.092 11.6459,25.582 C11.6287,25.8969 12.3239,27.3038 12.7228,27.7117 C13.3201,28.3411 14.9985,29.0998 15.36,28.9089 C15.9759,28.5565 15.7228,28.0513 14.145,26.7365 Z" style="stroke:none;fill-rule:nonzero;fill:#000000;fill-opacity:1;"/>
        </g>
    </g>
</svg>
