<?xml version="1.0"?>
<svg version="1.1" xmlns="http://www.w3.org/2000/svg" xmlns:xlink="http://www.w3.org/1999/xlink" width="250" height="250">
    <desc iVinci="yes" version="4.6" gridStep="20" showGrid="no" snapToGrid="no" codePlatform="0"/>
    <g id="Layer1" name="Layer 1" opacity="1">
        <g id="Shape1">
            <desc shapeID="1" type="0" basicInfo-basicType="0" basicInfo-roundedRectRadius="12" basicInfo-polygonSides="6" basicInfo-starPoints="5" bounding="rect(-98.3631,-39.8261,196.725,79.6522)" text="" font-familyName="" font-pixelSize="20" font-bold="0" font-underline="0" font-alignment="1" strokeStyle="0" markerStart="0" markerEnd="0" shadowEnabled="0" shadowOffsetX="0" shadowOffsetY="2" shadowBlur="4" shadowOpacity="160" blurEnabled="0" blurRadius="4" transform="matrix(1.18092,0,0,1.18092,124.761,53.0903)" pers-center="0,0" pers-size="0,0" pers-start="0,0" pers-end="0,0" locked="0" mesh="" flag=""/>
            <path id="shapePath1" d="M101.894,7.69209 C84.8893,11.1167 65.9946,19.6194 52.5321,29.8933 C44.5019,36.1522 31.748,49.4966 26.3157,57.1726 C18.7579,68.2732 8.60197,92.1277 8.60197,98.8589 C8.60197,101.033 11.7424,98.7021 14.6103,94.6711 C16.2604,92.3518 17.8203,89.0133 18.6398,86.8136 C24.5444,70.5169 33.6374,56.464 46.6275,43.9463 C75.7962,15.3681 119.018,5.09407 157.988,17.3756 C190.818,27.7677 217.152,52.2127 228.961,83.1527 C230.017,85.9067 231.503,91.1268 233.436,94.1231 C236.475,98.8359 240.094,100.788 240.889,99.9218 C241.125,99.6856 239.944,95.08 238.172,89.6478 C225.182,48.0795 190.818,16.9032 148.541,8.16445 C136.023,5.56644 113.586,5.33025 101.894,7.69209 Z" style="stroke:none;fill-rule:evenodd;fill:url(#linearGradientFill1);fill-opacity:1;"/><defs><linearGradient id="linearGradientFill1" gradientUnits="userSpaceOnUse" x1="124.48" y1="218.419" x2="124.369" y2="40.063"><stop offset="0.258093" stop-color="#3395ae" stop-opacity="1"/><stop offset="0.874202" stop-color="#5bae71" stop-opacity="1"/></linearGradient></defs>
        </g>
        <g id="Shape2">
            <desc shapeID="2" type="0" basicInfo-basicType="0" basicInfo-roundedRectRadius="12" basicInfo-polygonSides="6" basicInfo-starPoints="5" bounding="rect(-97.0934,-37.0796,194.187,74.1592)" text="" font-familyName="" font-pixelSize="20" font-bold="0" font-underline="0" font-alignment="1" strokeStyle="0" markerStart="0" markerEnd="0" shadowEnabled="0" shadowOffsetX="0" shadowOffsetY="2" shadowBlur="4" shadowOpacity="160" blurEnabled="0" blurRadius="4" transform="matrix(1.18092,0,0,1.18092,124.442,199.749)" pers-center="0,0" pers-size="0,0" pers-start="0,0" pers-end="0,0" locked="0" mesh="" flag=""/>
            <path id="shapePath2" d="M9.78286,156.184 C9.78286,159.608 17.3408,177.44 22.4187,185.943 C28.9137,197.043 42.3762,211.923 53.4769,220.307 C63.2785,227.747 82.0551,236.958 94.2185,240.265 C106.028,243.335 130.473,244.516 143.227,242.627 C172.159,238.139 201.21,220.78 218.805,197.398 C225.891,188.068 236.519,168.222 238.172,161.019 C238.172,161.019 238.876,159.025 238.999,157.984 C239.07,157.382 239.287,155.915 238.743,156.184 C236.966,157.061 235.406,158.892 234.405,160.252 C231.535,164.155 229.079,167.048 226.599,172.362 C215.499,196.099 197.313,214.403 173.458,225.976 C143.463,240.383 111.224,241.21 80.1656,228.338 C55.4844,218.064 34.7002,197.634 22.1825,171.417 C18.8759,164.686 16.3412,159.735 14.0975,158.082 C12.208,156.547 9.78286,155.475 9.78286,156.184 Z" style="stroke:none;fill-rule:evenodd;fill:url(#linearGradientFill2);fill-opacity:1;"/><defs><linearGradient id="linearGradientFill2" gradientUnits="userSpaceOnUse" x1="124.48" y1="218.419" x2="124.369" y2="40.063"><stop offset="0.258093" stop-color="#3395ae" stop-opacity="1"/><stop offset="0.874202" stop-color="#5bae71" stop-opacity="1"/></linearGradient></defs>
        </g>
        <g id="Shape3">
            <desc shapeID="3" type="0" basicInfo-basicType="0" basicInfo-roundedRectRadius="12" basicInfo-polygonSides="6" basicInfo-starPoints="5" bounding="rect(-102.019,-35.3305,204.039,70.6609)" text="circle" font-familyName="Avenir" font-pixelSize="92" font-bold="0" font-underline="0" font-alignment="1" strokeStyle="0" markerStart="0" markerEnd="0" shadowEnabled="0" shadowOffsetX="0" shadowOffsetY="2" shadowBlur="4" shadowOpacity="160" blurEnabled="0" blurRadius="4" transform="matrix(1.16134,0,0,1.16134,124.494,112.815)" pers-center="0,0" pers-size="0,0" pers-start="0,0" pers-end="0,0" locked="0" mesh="" flag=""/>
            <path id="shapePath3" d="M40.1949,108.859 C37.4795,107.683 35.103,107.648 32.5128,107.683 C29.8547,107.72 26.9747,108.075 24.6598,109.072 C22.3449,110.07 20.3683,111.459 18.73,113.239 C17.0917,115.02 15.8452,117.139 14.9905,119.596 C14.1357,122.054 13.7084,124.707 13.7084,127.556 C13.7084,130.405 14.1357,133.059 14.9905,135.516 C15.8452,137.974 17.0917,140.093 18.73,141.873 C20.3683,143.654 22.3449,145.043 24.6598,146.04 C26.9747,147.037 29.5924,147.5 32.5128,147.429 C35.2907,147.429 37.6509,146.569 39.9384,145.506 C42.7274,144.21 45.4109,143.262 50.783,145.185 C48.29,148.106 45.4764,150.261 42.3424,151.649 C39.2083,153.038 35.9318,153.769 32.5128,153.84 C28.4527,153.911 24.7844,153.288 21.5079,151.97 C18.2314,150.652 15.4357,148.818 13.1207,146.468 C10.8058,144.117 9.04287,141.321 7.832,138.08 C6.62108,134.839 6.01562,131.331 6.01562,127.556 C6.01562,123.781 6.62108,120.273 7.832,117.032 C9.04287,113.791 10.8058,110.996 13.1207,108.645 C15.4357,106.295 18.2314,104.46 21.5079,103.143 C24.7844,101.825 28.4527,101.202 32.5128,101.273 C35.9318,101.344 39.2083,102.074 42.3424,103.463 C45.4764,104.852 48.29,107.007 50.783,109.927 C46.7987,111.127 43.4504,110.268 40.1949,108.859 M69.7881,152.558 L63.1425,152.558 L63.1425,102.555 L69.7881,102.555 L69.7881,152.558 M86.4449,102.555 L92.9836,102.555 L92.9836,111.85 L93.1973,111.85 C93.6959,110.497 94.4082,109.197 95.3342,107.951 C97.322,105.279 100.134,102.62 103.294,101.565 C106.877,100.398 110.819,100.988 114.459,101.914 C113.316,104.749 111.761,108.514 107.943,109.736 C103.969,111.009 101.766,109.833 98.205,111.609 C96.4436,112.487 95.0315,113.745 94.426,115.597 C93.8206,117.449 93.5179,119.23 93.5179,120.939 L93.5179,152.558 L86.8722,152.558 L86.4449,102.555 M150.611,109.607 C147.243,108.174 145.74,107.773 143.185,107.683 C140.528,107.591 137.647,108.075 135.332,109.072 C133.017,110.07 131.04,111.459 129.402,113.239 C127.764,115.02 126.517,117.139 125.663,119.596 C124.808,122.054 124.38,124.707 124.38,127.556 C124.38,130.405 124.808,133.059 125.663,135.516 C126.517,137.974 127.764,140.093 129.402,141.873 C131.04,143.654 133.017,145.043 135.332,146.04 C137.647,147.037 140.265,147.5 143.185,147.429 C145.963,147.429 148.438,146.788 150.611,145.506 C153.646,143.947 155.838,143.352 161.455,145.185 C158.962,148.106 156.149,150.261 153.014,151.649 C149.88,153.038 146.604,153.769 143.185,153.84 C139.125,153.911 135.457,153.288 132.18,151.97 C128.904,150.652 126.152,148.618 123.793,146.468 C121.689,144.55 119.715,141.321 118.504,138.08 C117.293,134.839 116.688,131.331 116.688,127.556 C116.688,123.781 117.293,120.273 118.504,117.032 C119.715,113.791 121.478,110.996 123.793,108.645 C126.108,106.295 128.904,104.46 132.18,103.143 C135.457,101.825 139.125,101.202 143.185,101.273 C146.604,101.344 149.88,102.074 153.014,103.463 C156.149,104.852 158.962,107.007 161.455,109.927 C158.782,110.817 153.405,111.185 150.611,109.607 M179.404,152.558 L173.119,152.558 L173.119,71.7841 L179.404,71.7841 L179.404,152.558 M235.281,123.71 C235.281,118.938 233.857,115.073 231.008,112.117 C228.158,109.161 224.17,107.683 219.041,107.683 C216.762,107.683 214.554,108.129 212.417,109.019 C210.28,109.909 208.41,111.102 206.808,112.598 C205.205,114.094 203.923,115.804 202.961,117.727 C202,119.65 201.519,121.644 201.519,123.71 L235.281,123.71 M201.305,129.48 C201.519,131.973 202.124,134.323 203.122,136.531 C204.119,138.739 205.436,140.645 207.075,142.247 C208.713,143.85 210.601,145.114 212.737,146.04 C214.874,146.966 217.189,147.429 219.682,147.429 C223.457,147.429 226.645,146.44 229.458,144.812 C234.347,141.982 238.189,141.094 241.158,143.262 C238.166,147.037 234.872,149.744 231.275,151.382 C227.678,153.021 223.814,153.84 219.682,153.84 C215.978,153.84 212.542,153.181 209.372,151.863 C206.202,150.545 203.478,148.711 201.198,146.361 C198.919,144.01 197.121,141.232 195.803,138.027 C194.485,134.822 193.826,131.331 193.826,127.556 C193.826,123.781 194.467,120.291 195.749,117.086 C197.031,113.88 198.812,111.102 201.092,108.752 C203.371,106.401 206.042,104.567 209.105,103.249 C212.168,101.932 215.48,101.273 219.041,101.273 C222.816,101.273 226.2,101.95 229.191,103.303 C232.183,104.656 234.694,106.455 236.724,108.698 C238.754,110.942 240.303,113.578 241.371,116.605 C242.44,119.632 242.974,122.855 242.974,126.274 L242.974,129.48 L201.305,129.48 Z" style="stroke:none;fill-rule:evenodd;fill:url(#linearGradientFill3);fill-opacity:1;"/><defs><linearGradient id="linearGradientFill3" gradientUnits="userSpaceOnUse" x1="124.48" y1="218.419" x2="124.369" y2="40.063"><stop offset="0.258093" stop-color="#3395ae" stop-opacity="1"/><stop offset="0.874202" stop-color="#5bae71" stop-opacity="1"/></linearGradient></defs>
        </g>
        <g id="Shape4">
            <desc shapeID="4" type="0" basicInfo-basicType="0" basicInfo-roundedRectRadius="12" basicInfo-polygonSides="6" basicInfo-starPoints="5" bounding="rect(-4.41602,-4.41596,8.83204,8.83192)" text="circle" font-familyName="Avenir" font-pixelSize="92" font-bold="0" font-underline="0" font-alignment="1" strokeStyle="0" markerStart="0" markerEnd="0" shadowEnabled="0" shadowOffsetX="0" shadowOffsetY="2" shadowBlur="4" shadowOpacity="160" blurEnabled="0" blurRadius="4" transform="matrix(0.858024,0,0,0.858024,66.4338,88.3482)" pers-center="0,0" pers-size="0,0" pers-start="0,0" pers-end="0,0" locked="0" mesh="" flag=""/>
            <path id="shapePath4" d="M70.2229,88.3482 C70.2229,89.4533 69.8282,90.3611 69.0388,91.0716 C68.2494,91.782 67.3811,92.1372 66.4338,92.1372 C65.4866,92.1372 64.6182,91.782 63.8289,91.0716 C63.0395,90.3611 62.6448,89.4533 62.6448,88.3482 C62.6448,87.2431 63.0395,86.3353 63.8289,85.6248 C64.6182,84.9144 65.4866,84.5592 66.4338,84.5592 C67.3811,84.5592 68.2494,84.9144 69.0388,85.6248 C69.8282,86.3353 70.2229,87.2431 70.2229,88.3482 Z" style="stroke:none;fill-rule:evenodd;fill:url(#linearGradientFill4);fill-opacity:1;"/><defs><linearGradient id="linearGradientFill4" gradientUnits="userSpaceOnUse" x1="124.48" y1="218.419" x2="124.369" y2="40.063"><stop offset="0.258093" stop-color="#3395ae" stop-opacity="1"/><stop offset="0.874202" stop-color="#5bae71" stop-opacity="1"/></linearGradient></defs>
        </g>
    </g>
</svg>
