<?xml version="1.0"?>
<svg version="1.1" xmlns="http://www.w3.org/2000/svg" xmlns:xlink="http://www.w3.org/1999/xlink" width="500" height="260">
    <desc iVinci="yes" version="4.6" gridStep="20" showGrid="no" snapToGrid="no" codePlatform="0"/>
    <g id="Layer1" name="shadow" opacity="1">
        <g id="Shape1">
            <desc shapeID="1" type="0" basicInfo-basicType="4" basicInfo-roundedRectRadius="12" basicInfo-polygonSides="6" basicInfo-starPoints="5" bounding="rect(-164.417,-11.6059,328.834,23.2118)" text="" font-familyName="Helvetica" font-pixelSize="20" font-bold="0" font-underline="0" font-alignment="1" strokeStyle="0" markerStart="0" markerEnd="0" shadowEnabled="0" shadowOffsetX="0" shadowOffsetY="2" shadowBlur="4" shadowOpacity="160" blurEnabled="0" blurRadius="4" transform="matrix(0.891052,0,0,0.967305,225.58,238.366)" pers-center="0,0" pers-size="0,0" pers-start="0,0" pers-end="0,0" locked="0" mesh="" flag=""/>
            <path id="shapePath1" d="M79.0764,238.366 C79.0764,232.166 144.669,227.139 225.58,227.139 C306.492,227.139 372.084,232.166 372.084,238.366 C372.084,244.566 306.492,249.592 225.58,249.592 C144.669,249.592 79.0764,244.566 79.0764,238.366 Z" style="stroke:none;fill-rule:evenodd;fill:#efefef;fill-opacity:1;"/>
        </g>
    </g>
    <g id="Layer2" name="imac" opacity="1">
        <g id="Shape2">
            <desc shapeID="2" type="0" basicInfo-basicType="0" basicInfo-roundedRectRadius="12" basicInfo-polygonSides="6" basicInfo-starPoints="5" bounding="rect(-58.0579,-26.2911,116.116,52.5822)" text="" font-familyName="Helvetica" font-pixelSize="20" font-bold="0" font-underline="0" font-alignment="1" strokeStyle="0" markerStart="0" markerEnd="0" shadowEnabled="0" shadowOffsetX="0" shadowOffsetY="2" shadowBlur="4" shadowOpacity="160" blurEnabled="0" blurRadius="4" transform="matrix(0.891052,0,0,0.891052,211.158,222.555)" pers-center="0,0" pers-size="0,0" pers-start="0,0" pers-end="0,0" locked="0" mesh="" flag=""/>
            <path id="shapePath2" d="M180.038,199.815 C180.038,199.815 180.555,208.869 180.038,213.143 C179.63,216.519 179.491,219.591 177.29,222.555 C173.272,227.967 159.703,241.722 159.703,241.722 C159.703,241.722 158.744,243.176 160.39,244.745 C161.43,245.893 163.962,245.707 163.962,245.707 C163.962,245.707 260.417,245.981 260.417,245.981 C260.417,245.981 262.891,245.707 262.891,242.959 C262.891,240.466 260.83,239.111 260.83,239.111 C260.83,239.111 251.104,230.286 246.403,224.822 C244.031,222.065 242.838,217.765 242.281,213.967 C241.582,209.209 241.731,199.128 241.731,199.128 C241.731,199.128 180.038,199.815 180.038,199.815 Z" style="stroke:none;fill-rule:evenodd;fill:url(#linearGradientFill2);fill-opacity:1;"/><defs><linearGradient id="linearGradientFill2" gradientUnits="userSpaceOnUse" x1="190.54" y1="245.981" x2="190.54" y2="222.555"><stop offset="0.306866" stop-color="#cdced0" stop-opacity="1"/><stop offset="1" stop-color="#96989b" stop-opacity="1"/></linearGradient></defs>
        </g>
        <g id="Shape3">
            <desc shapeID="3" type="0" basicInfo-basicType="2" basicInfo-roundedRectRadius="10" basicInfo-polygonSides="6" basicInfo-starPoints="5" bounding="rect(-153.318,-90.4588,306.636,180.918)" text="" font-familyName="Helvetica" font-pixelSize="20" font-bold="0" font-underline="0" font-alignment="1" strokeStyle="0" markerStart="0" markerEnd="0" shadowEnabled="0" shadowOffsetX="0" shadowOffsetY="2" shadowBlur="4" shadowOpacity="160" blurEnabled="0" blurRadius="4" transform="matrix(0.90716,0,0,0.221476,211.158,182.015)" pers-center="0,0" pers-size="0,0" pers-start="0,0" pers-end="0,0" locked="0" mesh="" flag=""/>
            <path id="shapePath3" d="M72.0741,164.195 C72.0741,162.972 76.1356,161.98 81.1457,161.98 L341.17,161.98 C346.181,161.98 350.242,162.972 350.242,164.195 L350.242,199.834 C350.242,201.057 346.181,202.049 341.17,202.049 L81.1457,202.049 C76.1356,202.049 72.0741,201.057 72.0741,199.834 L72.0741,164.195 Z" style="stroke:none;fill-rule:evenodd;fill:url(#linearGradientFill3);fill-opacity:1;"/><defs><linearGradient id="linearGradientFill3" gradientUnits="userSpaceOnUse" x1="214.53" y1="202.049" x2="214.53" y2="171.615"><stop offset="0" stop-color="#b6b7bb" stop-opacity="1"/><stop offset="1" stop-color="#abacaf" stop-opacity="1"/></linearGradient></defs>
        </g>
        <g id="Shape4">
            <desc shapeID="4" type="0" basicInfo-basicType="2" basicInfo-roundedRectRadius="10" basicInfo-polygonSides="6" basicInfo-starPoints="5" bounding="rect(-153.318,-90.4588,306.636,180.918)" text="" font-familyName="Helvetica" font-pixelSize="20" font-bold="0" font-underline="0" font-alignment="1" strokeStyle="0" markerStart="0" markerEnd="0" shadowEnabled="0" shadowOffsetX="0" shadowOffsetY="2" shadowBlur="4" shadowOpacity="160" blurEnabled="0" blurRadius="4" transform="matrix(0.90716,0,0,0.891052,211.158,91.0113)" pers-center="0,0" pers-size="0,0" pers-start="0,0" pers-end="0,0" locked="0" mesh="" flag=""/>
            <path id="shapePath4" d="M72.074,19.3182 C72.074,14.3971 76.1355,10.4077 81.1456,10.4077 L341.17,10.4077 C346.18,10.4077 350.242,14.3971 350.242,19.3182 L350.242,162.704 C350.242,167.625 346.18,171.615 341.17,171.615 L81.1456,171.615 C76.1355,171.615 72.074,167.625 72.074,162.704 L72.074,19.3182 Z" style="stroke:none;fill-rule:evenodd;fill:#242021;fill-opacity:1;"/>
        </g>
        <g id="Shape5">
            <desc shapeID="5" type="0" basicInfo-basicType="0" basicInfo-roundedRectRadius="10" basicInfo-polygonSides="6" basicInfo-starPoints="5" bounding="rect(-89.4047,-90.4588,178.809,180.918)" text="" font-familyName="Helvetica" font-pixelSize="20" font-bold="0" font-underline="0" font-alignment="1" strokeStyle="0" markerStart="0" markerEnd="0" shadowEnabled="0" shadowOffsetX="0" shadowOffsetY="2" shadowBlur="4" shadowOpacity="160" blurEnabled="0" blurRadius="4" transform="matrix(0.90716,0,0,0.891052,153.178,91.0113)" pers-center="0,0" pers-size="0,0" pers-start="0,0" pers-end="0,0" locked="0" mesh="" flag=""/>
            <path id="shapePath5" d="M72.074,19.3182 C72.074,14.3971 76.1355,10.4077 81.1456,10.4077 L127.333,10.4077 C127.333,10.4077 171.784,47.0183 198.728,87.6324 C225.255,127.617 234.283,171.615 234.283,171.615 L81.1456,171.615 C76.1355,171.615 72.074,167.625 72.074,162.704 L72.074,19.3182 Z" style="stroke:none;fill-rule:evenodd;fill:url(#linearGradientFill5);fill-opacity:1;"/><defs><linearGradient id="linearGradientFill5" gradientUnits="userSpaceOnUse" x1="113.074" y1="171.615" x2="110.322" y2="8.86648"><stop offset="0" stop-color="#3f3b3c" stop-opacity="1"/><stop offset="1" stop-color="#434346" stop-opacity="1"/></linearGradient></defs>
        </g>
        <g id="Shape6">
            <desc shapeID="6" type="0" basicInfo-basicType="0" basicInfo-roundedRectRadius="12" basicInfo-polygonSides="6" basicInfo-starPoints="5" bounding="rect(-144.017,-76.9708,288.034,153.942)" text="" font-familyName="Helvetica" font-pixelSize="20" font-bold="0" font-underline="0" font-alignment="1" strokeStyle="0" markerStart="0" markerEnd="0" shadowEnabled="0" shadowOffsetX="0" shadowOffsetY="2" shadowBlur="4" shadowOpacity="160" blurEnabled="0" blurRadius="4" transform="matrix(0.89651,0,0,0.901265,210.934,89.1835)" pers-center="0,0" pers-size="0,0" pers-start="0,0" pers-end="0,0" locked="0" mesh="" flag=""/>
            <path id="shapePath6" d="M81.8208,19.8124 L340.046,19.8124 L340.046,158.555 L81.8208,158.555 L81.8208,19.8124 Z" style="stroke:none;fill-rule:evenodd;fill:#f4f4f4;fill-opacity:1;"/>
        </g>
        <g id="Shape7">
            <desc shapeID="7" type="0" basicInfo-basicType="0" basicInfo-roundedRectRadius="12" basicInfo-polygonSides="6" basicInfo-starPoints="5" bounding="rect(-58.0248,-2.774,116.05,5.54796)" text="" font-familyName="Helvetica" font-pixelSize="20" font-bold="0" font-underline="0" font-alignment="1" strokeStyle="0" markerStart="0" markerEnd="0" shadowEnabled="0" shadowOffsetX="0" shadowOffsetY="2" shadowBlur="4" shadowOpacity="160" blurEnabled="0" blurRadius="4" transform="matrix(0.891052,0,0,0.891052,211.187,243.51)" pers-center="0,0" pers-size="0,0" pers-start="0,0" pers-end="0,0" locked="0" mesh="" flag=""/>
            <path id="shapePath7" d="M162.074,243.65 C160.793,243.627 159.844,241.581 159.844,241.581 C159.844,241.581 158.744,243.176 160.39,244.745 C161.43,245.893 163.962,245.706 163.962,245.706 L260.417,245.981 C260.417,245.981 262.891,245.706 262.891,242.958 C262.891,240.466 262.11,241.113 262.11,241.113 C262.11,241.113 261.414,244.188 260.338,244.128 C227.923,244.981 194.495,244.219 162.074,243.65 Z" style="stroke:none;fill-rule:evenodd;fill:url(#linearGradientFill7);fill-opacity:1;"/><defs><linearGradient id="linearGradientFill7" gradientUnits="userSpaceOnUse" x1="190.569" y1="266.936" x2="190.569" y2="243.51"><stop offset="0.306866" stop-color="#cdced0" stop-opacity="1"/><stop offset="1" stop-color="#96989b" stop-opacity="1"/></linearGradient></defs>
        </g>
    </g>
    <g id="Layer3" name="macbook" opacity="1">
        <g id="Shape8">
            <desc shapeID="8" type="0" basicInfo-basicType="2" basicInfo-roundedRectRadius="6" basicInfo-polygonSides="6" basicInfo-starPoints="5" bounding="rect(-95.1496,-65.7157,190.299,131.431)" text="" font-familyName="Helvetica" font-pixelSize="20" font-bold="0" font-underline="0" font-alignment="1" strokeStyle="0" markerStart="0" markerEnd="0" shadowEnabled="0" shadowOffsetX="0" shadowOffsetY="2" shadowBlur="4" shadowOpacity="160" blurEnabled="0" blurRadius="4" transform="matrix(0.891052,0,0,0.891052,385.116,180.885)" pers-center="0,0" pers-size="0,0" pers-start="0,0" pers-end="0,0" locked="0" mesh="" flag=""/>
            <path id="shapePath8" d="M300.333,127.676 C300.333,124.723 302.727,122.329 305.68,122.329 L464.553,122.329 C467.506,122.329 469.9,124.723 469.9,127.676 L469.9,234.095 C469.9,237.048 467.506,239.441 464.553,239.441 L305.68,239.441 C302.727,239.441 300.333,237.048 300.333,234.095 L300.333,127.676 Z" style="stroke:none;fill-rule:evenodd;fill:#242021;fill-opacity:1;"/>
        </g>
        <g id="Shape9">
            <desc shapeID="9" type="0" basicInfo-basicType="0" basicInfo-roundedRectRadius="6" basicInfo-polygonSides="6" basicInfo-starPoints="5" bounding="rect(-66.8413,-65.7157,133.683,131.431)" text="" font-familyName="Helvetica" font-pixelSize="20" font-bold="0" font-underline="0" font-alignment="1" strokeStyle="0" markerStart="0" markerEnd="0" shadowEnabled="0" shadowOffsetX="0" shadowOffsetY="2" shadowBlur="4" shadowOpacity="160" blurEnabled="0" blurRadius="4" transform="matrix(0.891052,0,0,0.891052,359.892,180.885)" pers-center="0,0" pers-size="0,0" pers-start="0,0" pers-end="0,0" locked="0" mesh="" flag=""/>
            <path id="shapePath9" d="M300.333,127.676 C300.333,124.723 302.727,122.329 305.68,122.329 L351.632,122.329 C351.632,122.329 376.5,144.195 392.624,172.039 C410.335,202.622 419.451,239.441 419.451,239.441 L305.68,239.441 C302.727,239.441 300.333,237.048 300.333,234.095 L300.333,127.676 Z" style="stroke:none;fill-rule:evenodd;fill:url(#linearGradientFill9);fill-opacity:1;"/><defs><linearGradient id="linearGradientFill9" gradientUnits="userSpaceOnUse" x1="335.05" y1="236.383" x2="335.05" y2="122.329"><stop offset="0" stop-color="#3f3b3c" stop-opacity="1"/><stop offset="1" stop-color="#424245" stop-opacity="1"/></linearGradient></defs>
        </g>
        <g id="Shape10">
            <desc shapeID="10" type="0" basicInfo-basicType="1" basicInfo-roundedRectRadius="12" basicInfo-polygonSides="6" basicInfo-starPoints="5" bounding="rect(-87.3224,-55.2587,174.645,110.517)" text="" font-familyName="Helvetica" font-pixelSize="20" font-bold="0" font-underline="0" font-alignment="1" strokeStyle="0" markerStart="0" markerEnd="0" shadowEnabled="0" shadowOffsetX="0" shadowOffsetY="2" shadowBlur="4" shadowOpacity="160" blurEnabled="0" blurRadius="4" transform="matrix(0.891052,0,0,0.891052,385.158,179.361)" pers-center="0,0" pers-size="0,0" pers-start="0,0" pers-end="0,0" locked="0" mesh="" flag=""/>
            <path id="shapePath10" d="M307.349,130.123 L462.967,130.123 L462.967,228.6 L307.349,228.6 L307.349,130.123 Z" style="stroke:none;fill-rule:evenodd;fill:#f4f4f4;fill-opacity:1;"/>
        </g>
        <g id="Shape11">
            <desc shapeID="11" type="0" basicInfo-basicType="0" basicInfo-roundedRectRadius="12" basicInfo-polygonSides="6" basicInfo-starPoints="5" bounding="rect(-123.595,-4.55481,247.19,9.10959)" text="" font-familyName="Helvetica" font-pixelSize="20" font-bold="0" font-underline="0" font-alignment="1" strokeStyle="0" markerStart="0" markerEnd="0" shadowEnabled="0" shadowOffsetX="0" shadowOffsetY="2" shadowBlur="4" shadowOpacity="160" blurEnabled="0" blurRadius="4" transform="matrix(0.891052,0,0,0.891052,385.158,240.442)" pers-center="0,0" pers-size="0,0" pers-start="0,0" pers-end="0,0" locked="0" mesh="" flag=""/>
            <path id="shapePath11" d="M495.125,236.727 C495.125,236.727 275.143,236.383 275.143,236.383 C275.143,236.383 274.7,239.695 275.557,241.037 C276.663,242.769 280.324,244.5 280.324,244.5 C280.324,244.5 489.929,244.455 489.929,244.455 C489.929,244.455 493.166,243.229 494.556,241.162 C495.749,239.387 495.125,236.727 495.125,236.727 Z" style="stroke:none;fill-rule:evenodd;fill:url(#linearGradientFill11);fill-opacity:1;"/><defs><linearGradient id="linearGradientFill11" gradientUnits="userSpaceOnUse" x1="364.54" y1="244.5" x2="364.54" y2="239.666"><stop offset="0.306866" stop-color="#898a8d" stop-opacity="1"/><stop offset="1" stop-color="#e3e5e9" stop-opacity="1"/></linearGradient></defs>
        </g>
        <g id="Shape12">
            <desc shapeID="12" type="0" basicInfo-basicType="0" basicInfo-roundedRectRadius="12" basicInfo-polygonSides="6" basicInfo-starPoints="5" bounding="rect(-22.3572,-1.71604,44.7144,3.43209)" text="" font-familyName="Helvetica" font-pixelSize="20" font-bold="0" font-underline="0" font-alignment="1" strokeStyle="0" markerStart="0" markerEnd="0" shadowEnabled="0" shadowOffsetX="0" shadowOffsetY="2" shadowBlur="4" shadowOpacity="160" blurEnabled="0" blurRadius="4" transform="matrix(0.891052,0,0,0.891052,385.158,237.912)" pers-center="0,0" pers-size="0,0" pers-start="0,0" pers-end="0,0" locked="0" mesh="" flag=""/>
            <path id="shapePath12" d="M369.105,239.42 C380.006,239.471 390.418,239.43 401.33,239.296 C404.083,239.262 405.08,236.603 405.08,236.603 C405.08,236.603 365.237,236.383 365.237,236.383 C365.237,236.383 366.345,239.408 369.105,239.42 Z" style="stroke:none;fill-rule:evenodd;fill:url(#linearGradientFill12);fill-opacity:1;"/><defs><linearGradient id="linearGradientFill12" gradientUnits="userSpaceOnUse" x1="364.54" y1="241.971" x2="364.54" y2="237.137"><stop offset="0.306866" stop-color="#6d6f71" stop-opacity="1"/><stop offset="1" stop-color="#e3e5e9" stop-opacity="1"/></linearGradient></defs>
        </g>
    </g>
    <g id="Layer4" name="ipad" opacity="1">
        <g id="Shape13">
            <desc shapeID="13" type="0" basicInfo-basicType="2" basicInfo-roundedRectRadius="13" basicInfo-polygonSides="6" basicInfo-starPoints="5" bounding="rect(-47.5802,-70.4495,95.1603,140.899)" text="" font-familyName="Helvetica" font-pixelSize="20" font-bold="0" font-underline="0" font-alignment="1" strokeStyle="0" markerStart="0" markerEnd="0" shadowEnabled="0" shadowOffsetX="0" shadowOffsetY="2" shadowBlur="4" shadowOpacity="160" blurEnabled="0" blurRadius="4" transform="matrix(0.891052,0,0,0.891052,102.17,183.602)" pers-center="0,0" pers-size="0,0" pers-start="0,0" pers-end="0,0" locked="0" mesh="" flag=""/>
            <path id="shapePath13" d="M59.7733,132.411 C59.7733,126.014 64.9595,120.827 71.357,120.827 L132.982,120.827 C139.38,120.827 144.566,126.014 144.566,132.411 L144.566,234.792 C144.566,241.19 139.38,246.376 132.982,246.376 L71.357,246.376 C64.9595,246.376 59.7733,241.19 59.7733,234.792 L59.7733,132.411 Z" style="stroke:none;fill-rule:evenodd;fill:#242021;fill-opacity:1;"/>
        </g>
        <g id="Shape14">
            <desc shapeID="14" type="0" basicInfo-basicType="0" basicInfo-roundedRectRadius="13" basicInfo-polygonSides="6" basicInfo-starPoints="5" bounding="rect(-29.747,-70.4495,59.4939,140.899)" text="" font-familyName="Helvetica" font-pixelSize="20" font-bold="0" font-underline="0" font-alignment="1" strokeStyle="0" markerStart="0" markerEnd="0" shadowEnabled="0" shadowOffsetX="0" shadowOffsetY="2" shadowBlur="4" shadowOpacity="160" blurEnabled="0" blurRadius="4" transform="matrix(0.891052,0,0,0.891052,86.2795,183.602)" pers-center="0,0" pers-size="0,0" pers-start="0,0" pers-end="0,0" locked="0" mesh="" flag=""/>
            <path id="shapePath14" d="M59.7734,132.411 C59.7734,126.014 64.9596,120.827 71.3571,120.827 L87.0527,120.827 C87.0527,120.827 100.332,163.865 104.161,185.441 C107.76,205.716 112.786,246.376 112.786,246.376 L71.3571,246.376 C64.9596,246.376 59.7734,241.19 59.7734,234.792 L59.7734,132.411 Z" style="stroke:none;fill-rule:evenodd;fill:url(#linearGradientFill14);fill-opacity:1;"/><defs><linearGradient id="linearGradientFill14" gradientUnits="userSpaceOnUse" x1="85.042" y1="246.376" x2="75.2597" y2="120.827"><stop offset="0" stop-color="#3f3b3c" stop-opacity="1"/><stop offset="1" stop-color="#444447" stop-opacity="1"/></linearGradient></defs>
        </g>
        <g id="Shape15">
            <desc shapeID="15" type="0" basicInfo-basicType="1" basicInfo-roundedRectRadius="12" basicInfo-polygonSides="6" basicInfo-starPoints="5" bounding="rect(-43.3437,-52.9452,86.6874,105.89)" text="" font-familyName="Helvetica" font-pixelSize="20" font-bold="0" font-underline="0" font-alignment="1" strokeStyle="0" markerStart="0" markerEnd="0" shadowEnabled="0" shadowOffsetX="0" shadowOffsetY="2" shadowBlur="4" shadowOpacity="160" blurEnabled="0" blurRadius="4" transform="matrix(0.891052,0,0,0.891052,101.81,185.861)" pers-center="0,0" pers-size="0,0" pers-start="0,0" pers-end="0,0" locked="0" mesh="" flag=""/>
            <path id="shapePath15" d="M63.1889,138.684 L140.432,138.684 L140.432,233.038 L63.1889,233.038 L63.1889,138.684 Z" style="stroke:none;fill-rule:evenodd;fill:#f4f4f4;fill-opacity:1;"/>
        </g>
    </g>
    <g id="Layer5" name="iphone" opacity="1">
        <g id="Shape16">
            <desc shapeID="16" type="0" basicInfo-basicType="4" basicInfo-roundedRectRadius="12" basicInfo-polygonSides="6" basicInfo-starPoints="5" bounding="rect(-31.4386,-1.83313,62.8772,3.66629)" text="" font-familyName="Helvetica" font-pixelSize="20" font-bold="0" font-underline="0" font-alignment="1" strokeStyle="0" markerStart="0" markerEnd="0" shadowEnabled="0" shadowOffsetX="0" shadowOffsetY="2" shadowBlur="4" shadowOpacity="160" blurEnabled="0" blurRadius="4" transform="matrix(0.850752,0,0,1.47758,31.4585,246.376)" pers-center="0,0" pers-size="0,0" pers-start="0,0" pers-end="0,0" locked="0" mesh="" flag=""/>
            <path id="shapePath16" d="M4.71209,246.376 C4.71209,244.88 16.6869,243.667 31.4585,243.667 C46.2302,243.667 58.205,244.88 58.205,246.376 C58.205,247.872 46.2302,249.085 31.4585,249.085 C16.6869,249.085 4.71209,247.872 4.71209,246.376 Z" style="stroke:none;fill-rule:evenodd;fill:url(#radialGradientFill16);fill-opacity:1;"/><defs><radialGradient id="radialGradientFill16" gradientUnits="userSpaceOnUse" cx="31.4585" cy="243.667" r="47.9754" fx="29.9601" fy="245.023"><stop offset="0" stop-color="#e2e2e2" stop-opacity="1"/><stop offset="1" stop-color="#ffffff" stop-opacity="1"/></radialGradient></defs>
        </g>
        <g id="Shape17">
            <desc shapeID="17" type="0" basicInfo-basicType="2" basicInfo-roundedRectRadius="6" basicInfo-polygonSides="6" basicInfo-starPoints="5" bounding="rect(-21.6236,-43.37,43.2472,86.7401)" text="" font-familyName="Helvetica" font-pixelSize="20" font-bold="0" font-underline="0" font-alignment="1" strokeStyle="0" markerStart="0" markerEnd="0" shadowEnabled="0" shadowOffsetX="0" shadowOffsetY="2" shadowBlur="4" shadowOpacity="160" blurEnabled="0" blurRadius="4" transform="matrix(0.90216,0,0,0.90216,31.4585,206.66)" pers-center="0,0" pers-size="0,0" pers-start="0,0" pers-end="0,0" locked="0" mesh="" flag=""/>
            <path id="shapePath17" d="M11.9506,172.947 C11.9506,169.957 14.3741,167.534 17.3636,167.534 L45.5535,167.534 C48.543,167.534 50.9665,169.957 50.9665,172.947 L50.9665,240.374 C50.9665,243.364 48.543,245.787 45.5535,245.787 L17.3636,245.787 C14.3741,245.787 11.9506,243.364 11.9506,240.374 L11.9506,172.947 Z" style="stroke:none;fill-rule:evenodd;fill:#242021;fill-opacity:1;"/>
        </g>
        <g id="Shape18">
            <desc shapeID="18" type="0" basicInfo-basicType="0" basicInfo-roundedRectRadius="6" basicInfo-polygonSides="6" basicInfo-starPoints="5" bounding="rect(-15.3889,-43.37,30.7778,86.7401)" text="" font-familyName="Helvetica" font-pixelSize="20" font-bold="0" font-underline="0" font-alignment="1" strokeStyle="0" markerStart="0" markerEnd="0" shadowEnabled="0" shadowOffsetX="0" shadowOffsetY="2" shadowBlur="4" shadowOpacity="160" blurEnabled="0" blurRadius="4" transform="matrix(0.90216,0,0,0.90216,25.8338,206.66)" pers-center="0,0" pers-size="0,0" pers-start="0,0" pers-end="0,0" locked="0" mesh="" flag=""/>
            <path id="shapePath18" d="M11.9506,172.947 C11.9506,169.957 14.3741,167.534 17.3635,167.534 L24.0442,167.534 C24.0442,167.534 29.9324,186.042 33.3948,205.056 C37.0519,225.139 39.7171,245.787 39.7171,245.787 L17.3635,245.787 C14.3741,245.787 11.9506,243.364 11.9506,240.374 L11.9506,172.947 Z" style="stroke:none;fill-rule:evenodd;fill:url(#linearGradientFill18);fill-opacity:1;"/><defs><linearGradient id="linearGradientFill18" gradientUnits="userSpaceOnUse" x1="31.4585" y1="245.086" x2="16.9875" y2="169.548"><stop offset="0" stop-color="#3f3b3c" stop-opacity="1"/><stop offset="1" stop-color="#454548" stop-opacity="1"/></linearGradient></defs>
        </g>
        <g id="Shape19">
            <desc shapeID="19" type="0" basicInfo-basicType="1" basicInfo-roundedRectRadius="12" basicInfo-polygonSides="6" basicInfo-starPoints="5" bounding="rect(-18.6749,-32.3125,37.3498,64.625)" text="" font-familyName="Helvetica" font-pixelSize="20" font-bold="0" font-underline="0" font-alignment="1" strokeStyle="0" markerStart="0" markerEnd="0" shadowEnabled="0" shadowOffsetX="0" shadowOffsetY="2" shadowBlur="4" shadowOpacity="160" blurEnabled="0" blurRadius="4" transform="matrix(0.891052,0,0,0.891052,31.4585,206.66)" pers-center="0,0" pers-size="0,0" pers-start="0,0" pers-end="0,0" locked="0" mesh="" flag=""/>
            <path id="shapePath19" d="M14.8182,177.868 L48.0989,177.868 L48.0989,235.453 L14.8182,235.453 L14.8182,177.868 Z" style="stroke:none;fill-rule:evenodd;fill:#f4f4f4;fill-opacity:1;"/>
        </g>
        <g id="Shape20">
            <desc shapeID="20" type="0" basicInfo-basicType="2" basicInfo-roundedRectRadius="1" basicInfo-polygonSides="6" basicInfo-starPoints="5" bounding="rect(-3.68584,-0.737167,7.37168,1.47433)" text="" font-familyName="Helvetica" font-pixelSize="20" font-bold="0" font-underline="0" font-alignment="1" strokeStyle="0" markerStart="0" markerEnd="0" shadowEnabled="0" shadowOffsetX="0" shadowOffsetY="2" shadowBlur="4" shadowOpacity="160" blurEnabled="0" blurRadius="4" transform="matrix(1.00437,0,0,0.664411,31.4585,173.892)" pers-center="0,0" pers-size="0,0" pers-start="0,0" pers-end="0,0" locked="0" mesh="" flag=""/>
            <path id="shapePath20" d="M27.7566,173.892 C27.7566,173.622 28.2063,173.402 28.761,173.402 L34.1561,173.402 C34.7108,173.402 35.1605,173.622 35.1605,173.892 C35.1605,174.163 34.7108,174.382 34.1561,174.382 L28.761,174.382 C28.2063,174.382 27.7566,174.163 27.7566,173.892 Z" style="stroke:none;fill-rule:evenodd;fill:#3e3a3b;fill-opacity:1;"/>
        </g>
    </g>
</svg>
