<?xml version="1.0"?>
<svg version="1.1" xmlns="http://www.w3.org/2000/svg" xmlns:xlink="http://www.w3.org/1999/xlink" width="100" height="100">
    <desc iVinci="yes" version="4.6" gridStep="20" showGrid="no" snapToGrid="no" codePlatform="0"/>
    <g id="Layer1" name="Layer 1" opacity="1">
        <g id="Shape1">
            <desc shapeID="1" type="0" basicInfo-basicType="0" basicInfo-roundedRectRadius="12" basicInfo-polygonSides="6" basicInfo-starPoints="5" bounding="rect(-44.5595,-27.2652,89.1191,54.5304)" text="" font-familyName="" font-pixelSize="20" font-bold="0" font-underline="0" font-alignment="1" strokeStyle="0" markerStart="0" markerEnd="0" shadowEnabled="0" shadowOffsetX="0" shadowOffsetY="2" shadowBlur="4" shadowOpacity="160" blurEnabled="0" blurRadius="4" transform="matrix(0.581997,0,0,0.581997,42.5232,17.4942)" pers-center="0,0" pers-size="0,0" pers-start="0,0" pers-end="0,0" locked="0" mesh="" flag=""/>
            <path id="shapePath1" d="M46.9228,2.44176 C40.1135,3.25655 36.0395,4.59514 30.7433,7.85433 C26.0873,10.6479 20.5002,16.9917 19.2198,21.0074 C18.696,22.637 17.8812,24.383 17.4738,24.9068 C15.9024,26.6528 16.4844,29.5046 18.7542,31.658 C20.9076,33.695 22.3044,33.9278 22.0134,32.24 C21.897,31.5998 22.1298,31.367 22.77,31.5998 C23.934,32.0654 23.8758,31.0178 22.7118,30.0284 C21.897,29.3882 21.897,29.2718 22.8282,28.748 C23.5848,28.3406 24.0503,28.457 24.5742,29.1554 C25.389,30.3194 26.1456,29.5046 25.6218,28.1078 C25.1562,26.9438 22.9446,26.3618 21.024,26.8274 C20.2092,27.0602 19.569,27.002 19.569,26.711 C19.569,26.129 22.1298,24.8486 23.352,24.8486 C24.3996,24.8486 26.553,27.6422 26.553,29.039 C26.553,29.6792 26.844,29.9702 27.135,29.7956 C28.1243,29.2136 27.7751,26.2454 26.553,24.674 C25.8546,23.801 24.6323,23.1026 23.643,22.9862 L21.9552,22.8116 L23.0028,19.7271 C23.5848,18.0393 24.807,15.8859 25.6218,15.0129 C26.7276,13.8489 27.0186,13.2087 26.553,12.9177 C25.68,12.3357 30.2778,9.07651 35.2247,6.74853 C41.8595,3.60575 53.092,2.03436 58.2718,3.54755 C60.2506,4.12954 60.7161,4.42054 59.7268,4.42054 C53.8486,4.71154 36.2723,6.74853 35.8067,7.21413 C35.4575,7.56333 38.4257,7.67972 44.1292,7.44693 C49.018,7.27233 56.5258,7.15593 60.7744,7.15593 C66.8271,7.15593 68.4567,6.98133 68.4567,6.39933 C68.4567,5.40994 67.4673,5.00254 64.7901,4.88614 C63.6844,4.82794 62.8696,4.65334 62.9859,4.53695 C63.4516,4.07135 56.002,1.56876 54.4888,1.62696 C53.674,1.68516 50.2985,2.03436 46.9228,2.44176 Z" style="stroke:none;fill-rule:nonzero;fill:#000000;fill-opacity:1;"/>
        </g>
        <g id="Shape2">
            <desc shapeID="2" type="0" basicInfo-basicType="0" basicInfo-roundedRectRadius="12" basicInfo-polygonSides="6" basicInfo-starPoints="5" bounding="rect(-16.2055,-9.33443,32.411,18.6688)" text="" font-familyName="" font-pixelSize="20" font-bold="0" font-underline="0" font-alignment="1" strokeStyle="0" markerStart="0" markerEnd="0" shadowEnabled="0" shadowOffsetX="0" shadowOffsetY="2" shadowBlur="4" shadowOpacity="160" blurEnabled="0" blurRadius="4" transform="matrix(0.581997,0,0,0.581997,66.4138,16.3023)" pers-center="0,0" pers-size="0,0" pers-start="0,0" pers-end="0,0" locked="0" mesh="" flag=""/>
            <path id="shapePath2" d="M68.9223,12.3357 C67.7001,13.1505 66.4197,14.3727 66.0705,15.0711 C65.3721,16.2933 65.3721,16.2933 64.5574,14.7219 C64.0917,13.8489 63.3934,13.2669 63.0441,13.3833 C62.6949,13.4997 61.9384,13.0341 61.3564,12.3939 L60.3669,11.1717 L58.4464,13.0341 C56.9914,14.4891 56.7004,15.0711 57.2242,15.5949 C57.748,16.1187 58.1554,16.1187 58.8538,15.5367 C59.6104,14.8965 59.9014,14.9547 60.4834,15.7113 C60.8908,16.1769 62.2294,16.8753 63.5097,17.2245 C65.4885,17.8065 65.9541,17.7483 66.7107,16.8171 C68.3403,14.8965 70.9593,13.2087 72.2397,13.2087 C74.4513,13.2087 75.0333,16.4097 73.1709,18.0975 C72.1233,19.0869 72.0651,19.0287 72.1233,17.1663 C72.2397,15.6531 72.0069,15.1875 71.0175,15.0711 C69.6789,14.8965 66.7107,16.9917 66.7107,18.1557 C66.7107,19.5524 67.8165,19.6689 69.0387,18.4467 C70.4937,16.9917 71.1339,16.9917 71.1339,18.4467 C71.1339,19.1451 70.7265,19.6107 70.0863,19.6107 C68.7477,19.6107 68.1075,20.7746 69.0969,21.4148 C70.2027,22.1714 72.5889,21.5312 74.1021,20.0763 C75.7317,18.5631 76.3137,15.7695 75.4407,13.4997 C74.2767,10.4151 72.2397,10.0659 68.9223,12.3357 Z" style="stroke:none;fill-rule:nonzero;fill:#000000;fill-opacity:1;"/>
        </g>
        <g id="Shape3">
            <desc shapeID="3" type="0" basicInfo-basicType="0" basicInfo-roundedRectRadius="12" basicInfo-polygonSides="6" basicInfo-starPoints="5" bounding="rect(-4.96191,-6.72755,9.92378,13.4551)" text="" font-familyName="" font-pixelSize="20" font-bold="0" font-underline="0" font-alignment="1" strokeStyle="0" markerStart="0" markerEnd="0" shadowEnabled="0" shadowOffsetX="0" shadowOffsetY="2" shadowBlur="4" shadowOpacity="160" blurEnabled="0" blurRadius="4" transform="matrix(0.581997,0,0,0.581997,49.8107,15.6714)" pers-center="0,0" pers-size="0,0" pers-start="0,0" pers-end="0,0" locked="0" mesh="" flag=""/>
            <path id="shapePath3" d="M51.055,12.3939 C49.5418,13.4997 46.9228,17.4573 46.9228,18.7377 C46.9228,20.3673 48.0287,19.6107 49.6,16.8171 C50.473,15.3039 51.5788,13.6161 52.0444,13.0341 C53.2666,11.6955 52.6846,11.2881 51.055,12.3939 Z" style="stroke:none;fill-rule:nonzero;fill:#000000;fill-opacity:1;"/>
        </g>
        <g id="Shape4">
            <desc shapeID="4" type="0" basicInfo-basicType="0" basicInfo-roundedRectRadius="12" basicInfo-polygonSides="6" basicInfo-starPoints="5" bounding="rect(-4.48746,-4.19039,8.97488,8.38077)" text="" font-familyName="" font-pixelSize="20" font-bold="0" font-underline="0" font-alignment="1" strokeStyle="0" markerStart="0" markerEnd="0" shadowEnabled="0" shadowOffsetX="0" shadowOffsetY="2" shadowBlur="4" shadowOpacity="160" blurEnabled="0" blurRadius="4" transform="matrix(0.581997,0,0,0.581997,54.7871,13.8169)" pers-center="0,0" pers-size="0,0" pers-start="0,0" pers-end="0,0" locked="0" mesh="" flag=""/>
            <path id="shapePath4" d="M53.6158,12.9177 C52.219,14.2563 51.8116,15.5367 52.51,16.2351 C52.801,16.5843 57.3988,12.3939 57.3988,11.7537 C57.3988,10.8807 54.838,11.6373 53.6158,12.9177 Z" style="stroke:none;fill-rule:nonzero;fill:#000000;fill-opacity:1;"/>
        </g>
        <g id="Shape5">
            <desc shapeID="5" type="0" basicInfo-basicType="0" basicInfo-roundedRectRadius="12" basicInfo-polygonSides="6" basicInfo-starPoints="5" bounding="rect(-4.63329,-6.54796,9.26654,13.0959)" text="" font-familyName="" font-pixelSize="20" font-bold="0" font-underline="0" font-alignment="1" strokeStyle="0" markerStart="0" markerEnd="0" shadowEnabled="0" shadowOffsetX="0" shadowOffsetY="2" shadowBlur="4" shadowOpacity="160" blurEnabled="0" blurRadius="4" transform="matrix(0.581997,0,0,0.581997,43.2491,16.4063)" pers-center="0,0" pers-size="0,0" pers-start="0,0" pers-end="0,0" locked="0" mesh="" flag=""/>
            <path id="shapePath5" d="M42.9652,13.9071 C42.2669,14.6055 41.6849,14.8965 41.6849,14.4891 C41.6849,14.0817 41.4521,13.7907 41.1029,13.7907 C40.2881,13.7907 40.4045,17.2827 41.2775,18.9705 C42.2087,20.8329 43.0235,20.6 43.6055,18.3303 C43.8965,17.2827 44.5949,15.7695 45.235,14.8965 C46.981,12.4521 45.235,11.6955 42.9652,13.9071 Z" style="stroke:none;fill-rule:nonzero;fill:#000000;fill-opacity:1;"/>
        </g>
        <g id="Shape6">
            <desc shapeID="6" type="0" basicInfo-basicType="0" basicInfo-roundedRectRadius="12" basicInfo-polygonSides="6" basicInfo-starPoints="5" bounding="rect(-2.73362,-3.46037,5.46712,6.92073)" text="" font-familyName="" font-pixelSize="20" font-bold="0" font-underline="0" font-alignment="1" strokeStyle="0" markerStart="0" markerEnd="0" shadowEnabled="0" shadowOffsetX="0" shadowOffsetY="2" shadowBlur="4" shadowOpacity="160" blurEnabled="0" blurRadius="4" transform="matrix(0.581997,0,0,0.581997,38.0942,16.9565)" pers-center="0,0" pers-size="0,0" pers-start="0,0" pers-end="0,0" locked="0" mesh="" flag=""/>
            <path id="shapePath6" d="M36.5051,17.1081 C36.5633,18.5049 36.6797,18.8541 36.8543,17.9811 L37.0871,16.7007 L38.1929,17.9811 C39.6479,19.7853 40.2299,18.9705 39.0659,16.7589 C37.7855,14.1981 36.4469,14.3727 36.5051,17.1081 Z" style="stroke:none;fill-rule:nonzero;fill:#000000;fill-opacity:1;"/>
        </g>
        <g id="Shape7">
            <desc shapeID="7" type="0" basicInfo-basicType="0" basicInfo-roundedRectRadius="12" basicInfo-polygonSides="6" basicInfo-starPoints="5" bounding="rect(-7.95208,-6.92731,15.9042,13.8546)" text="" font-familyName="" font-pixelSize="20" font-bold="0" font-underline="0" font-alignment="1" strokeStyle="0" markerStart="0" markerEnd="0" shadowEnabled="0" shadowOffsetX="0" shadowOffsetY="2" shadowBlur="4" shadowOpacity="160" blurEnabled="0" blurRadius="4" transform="matrix(0.581997,0,0,0.581997,32.4008,21.8963)" pers-center="0,0" pers-size="0,0" pers-start="0,0" pers-end="0,0" locked="0" mesh="" flag=""/>
            <path id="shapePath7" d="M32.9549,19.727 C32.9549,21.4148 32.8967,21.473 31.9073,20.6 C30.5106,19.3197 28.3571,19.3197 27.8916,20.5418 C27.426,21.8222 28.4153,25.6052 29.3466,25.8962 C29.8703,26.0708 29.9868,25.547 29.6958,23.801 C29.3466,21.5312 30.1613,19.9016 30.8598,21.6476 C31.2671,22.7534 33.4787,22.8116 33.8861,21.7058 C34.0607,21.2402 34.7591,21.0656 35.6321,21.2402 L37.0289,21.473 L35.3411,19.6689 C34.4099,18.6795 33.4787,17.8647 33.3041,17.8647 C33.1296,17.8647 32.9549,18.6795 32.9549,19.727 Z" style="stroke:none;fill-rule:nonzero;fill:#000000;fill-opacity:1;"/>
        </g>
        <g id="Shape8">
            <desc shapeID="8" type="0" basicInfo-basicType="0" basicInfo-roundedRectRadius="12" basicInfo-polygonSides="6" basicInfo-starPoints="5" bounding="rect(-7.40735,-25.6884,14.8146,51.3768)" text="" font-familyName="" font-pixelSize="20" font-bold="0" font-underline="0" font-alignment="1" strokeStyle="0" markerStart="0" markerEnd="0" shadowEnabled="0" shadowOffsetX="0" shadowOffsetY="2" shadowBlur="4" shadowOpacity="160" blurEnabled="0" blurRadius="4" transform="matrix(0.581997,0,0,0.581997,80.3337,34.0509)" pers-center="0,0" pers-size="0,0" pers-start="0,0" pers-end="0,0" locked="0" mesh="" flag=""/>
            <path id="shapePath8" d="M76.0227,19.5525 C76.0227,19.9017 76.8957,21.3566 78.0015,22.7534 C81.4353,27.2348 82.1336,30.3194 82.0754,40.2715 L82.0754,49.0015 L83.1813,45.5095 C83.8214,43.4725 84.4616,39.6895 84.578,36.4304 C84.9272,29.33 83.9378,25.4306 80.8533,22.055 C78.6998,19.7271 76.0227,18.3303 76.0227,19.5525 Z" style="stroke:none;fill-rule:nonzero;fill:#000000;fill-opacity:1;"/>
        </g>
        <g id="Shape9">
            <desc shapeID="9" type="0" basicInfo-basicType="0" basicInfo-roundedRectRadius="12" basicInfo-polygonSides="6" basicInfo-starPoints="5" bounding="rect(-38.1728,-43.6352,76.3456,87.2704)" text="" font-familyName="" font-pixelSize="20" font-bold="0" font-underline="0" font-alignment="1" strokeStyle="0" markerStart="0" markerEnd="0" shadowEnabled="0" shadowOffsetX="0" shadowOffsetY="2" shadowBlur="4" shadowOpacity="160" blurEnabled="0" blurRadius="4" transform="matrix(0.581997,0,0,0.581997,41.2934,49.0974)" pers-center="0,0" pers-size="0,0" pers-start="0,0" pers-end="0,0" locked="0" mesh="" flag=""/>
            <path id="shapePath9" d="M37.8437,25.256 C38.1929,26.7692 38.8913,28.2242 42.6161,35.3246 C44.944,39.7477 44.8859,43.9963 42.3832,48.0703 C41.2775,49.8745 40.5791,51.6787 40.6955,52.3189 C40.8701,52.9591 40.5791,53.5992 39.8807,53.9484 C39.0659,54.414 38.7749,55.2288 38.7749,56.8584 C38.7749,59.8848 36.5633,61.7472 33.6533,61.2234 C30.0449,60.525 26.844,58.6044 25.2726,56.0436 C22.3626,51.5041 20.5002,41.0863 21.897,37.4197 C22.8864,34.6844 21.315,35.732 20.0346,38.5837 C19.1616,40.6207 18.9288,42.0175 19.1616,43.9963 C20.6166,55.578 24.6906,62.7948 33.0131,68.3238 C35.2829,69.837 35.3411,69.9534 34.1771,70.4771 C32.2566,71.2919 32.7221,71.9903 34.8173,71.3501 C37.1453,70.7099 37.6691,70.7099 38.7749,71.4083 C39.4733,71.8158 39.4151,72.1068 38.4839,73.2125 L37.3199,74.4929 L38.7749,74.0273 C40.4045,73.5035 41.7431,73.5035 48.2032,74.0855 C53.092,74.4929 56.875,73.8527 60.8908,71.9903 L63.5098,70.8264 L60.7744,71.0591 C57.3406,71.2919 57.0496,70.6518 59.203,67.6254 C61.2399,64.6572 62.5204,60.5832 61.5891,59.652 C61.1236,59.1864 60.1924,59.4774 58.1554,60.6414 C56.002,61.8636 54.6634,62.2128 52.219,62.2128 C47.7377,62.0964 46.7482,63.0858 49.891,64.4826 C53.4994,66.1122 55.8274,65.9376 58.33,63.6678 C60.3088,61.98 60.4251,61.9218 59.7268,63.2604 C58.0972,66.4614 56.1766,68.4984 54.7798,68.4984 C54.0232,68.4984 52.4518,67.6836 51.2878,66.6942 C48.9598,64.599 47.5048,64.7154 47.9122,66.9852 C48.3778,69.255 50.8805,71.0009 53.1502,70.6518 C54.6052,70.4189 55.0708,70.5354 55.0708,71.1756 C55.0708,72.1068 53.383,72.2231 49.018,71.6411 C46.981,71.3501 46.3409,71.0009 46.4572,70.3026 C46.5737,69.7206 46.2827,69.4296 45.7589,69.6042 C44.0129,70.0116 42.1505,69.7788 41.5103,69.1386 C40.9865,68.6148 41.1611,68.382 42.1505,68.1492 C42.8489,67.9164 43.4309,67.509 43.4309,67.218 C43.4309,66.8688 42.9652,66.8106 42.4415,67.0434 C39.4733,68.2656 37.5527,67.8 32.7803,64.5408 L31.0926,63.3768 L33.5369,63.3768 C37.6109,63.3186 39.9389,60.9324 39.9389,56.8584 C39.9389,55.869 40.3463,54.9378 40.9283,54.5886 C41.6267,54.2394 41.9177,53.4247 41.8012,52.3189 C41.7431,51.3295 41.9177,50.3983 42.2669,50.1655 C42.9652,49.7581 44.944,45.2767 45.4097,43.1233 C45.9335,40.6789 44.4785,35.9066 41.2775,29.3882 C38.5421,23.8592 37.0871,22.1132 37.8437,25.256 Z" style="stroke:none;fill-rule:nonzero;fill:#000000;fill-opacity:1;"/>
        </g>
        <g id="Shape10">
            <desc shapeID="10" type="0" basicInfo-basicType="0" basicInfo-roundedRectRadius="12" basicInfo-polygonSides="6" basicInfo-starPoints="5" bounding="rect(-8.14919,-16.9528,16.2984,33.9057)" text="" font-familyName="" font-pixelSize="20" font-bold="0" font-underline="0" font-alignment="1" strokeStyle="0" markerStart="0" markerEnd="0" shadowEnabled="0" shadowOffsetX="0" shadowOffsetY="2" shadowBlur="4" shadowOpacity="160" blurEnabled="0" blurRadius="4" transform="matrix(0.581997,0,0,0.581997,57.1679,34.1331)" pers-center="0,0" pers-size="0,0" pers-start="0,0" pers-end="0,0" locked="0" mesh="" flag=""/>
            <path id="shapePath10" d="M52.51,27.002 C52.0444,30.785 53.5576,37.9435 55.4782,40.7371 C57.2824,43.3561 58.4464,44.0545 60.7161,43.9963 C62.3457,43.9381 62.3457,43.9381 60.4834,43.4725 C56.1766,42.4831 54.6052,39.2821 54.0814,30.6686 C53.9068,27.1184 53.5576,24.2666 53.3248,24.2666 C53.092,24.2666 52.7428,25.4888 52.51,27.002 Z" style="stroke:none;fill-rule:nonzero;fill:#000000;fill-opacity:1;"/>
        </g>
        <g id="Shape11">
            <desc shapeID="11" type="0" basicInfo-basicType="0" basicInfo-roundedRectRadius="12" basicInfo-polygonSides="6" basicInfo-starPoints="5" bounding="rect(-19.1174,-42.2745,38.2347,84.549)" text="" font-familyName="" font-pixelSize="20" font-bold="0" font-underline="0" font-alignment="1" strokeStyle="0" markerStart="0" markerEnd="0" shadowEnabled="0" shadowOffsetX="0" shadowOffsetY="2" shadowBlur="4" shadowOpacity="160" blurEnabled="0" blurRadius="4" transform="matrix(0.581997,0,0,0.581997,70.1344,49.454)" pers-center="0,0" pers-size="0,0" pers-start="0,0" pers-end="0,0" locked="0" mesh="" flag=""/>
            <path id="shapePath11" d="M73.1127,25.0814 C73.1127,25.547 73.7529,26.6528 74.5095,27.584 C75.2079,28.457 76.139,29.7374 76.4883,30.4358 C77.4777,32.2982 79.1073,46.3243 78.758,49.8745 C78.3507,53.4247 75.3825,60.0012 72.5307,63.3768 C70.9593,65.2974 70.4355,65.5302 67.0017,65.8794 C62.8114,66.345 62.5204,66.927 66.2451,67.6254 L68.7477,68.091 L66.1287,68.4402 C62.2876,68.964 61.4146,69.7206 63.5098,70.5936 L65.2557,71.2919 L62.9278,72.2813 C58.4464,74.0855 58.1554,74.2601 60.3088,73.9109 C61.4146,73.7363 64.0336,72.8633 66.0705,71.9321 C68.1075,71.0009 70.2609,70.2444 70.8429,70.2444 C71.4831,70.2444 71.9487,69.9534 71.9487,69.6624 C71.9487,69.3132 71.7159,69.0804 71.3667,69.0804 C71.0757,69.0804 70.9593,68.7312 71.1339,68.2656 C71.3085,67.8 72.9963,66.927 74.8587,66.2286 C79.049,64.7154 79.8057,63.8424 76.5465,64.2498 L74.2185,64.599 L76.5465,60.9324 C79.34,56.6256 81.2607,50.9221 81.2607,47.0227 C81.2025,42.5413 79.1073,30.3776 78.176,28.8644 C76.7793,26.7692 73.1127,24.0338 73.1127,25.0814 Z" style="stroke:none;fill-rule:nonzero;fill:#000000;fill-opacity:1;"/>
        </g>
        <g id="Shape12">
            <desc shapeID="12" type="0" basicInfo-basicType="0" basicInfo-roundedRectRadius="12" basicInfo-polygonSides="6" basicInfo-starPoints="5" bounding="rect(-3.90293,-3.91346,7.80575,7.8269)" text="" font-familyName="" font-pixelSize="20" font-bold="0" font-underline="0" font-alignment="1" strokeStyle="0" markerStart="0" markerEnd="0" shadowEnabled="0" shadowOffsetX="0" shadowOffsetY="2" shadowBlur="4" shadowOpacity="160" blurEnabled="0" blurRadius="4" transform="matrix(0.581997,0,0,0.581997,59.1313,34.7473)" pers-center="0,0" pers-size="0,0" pers-start="0,0" pers-end="0,0" locked="0" mesh="" flag=""/>
            <path id="shapePath12" d="M57.748,33.2876 C56.584,34.4516 56.584,34.8008 57.6316,36.1976 C58.33,37.187 58.621,37.2452 60.0178,36.605 C61.2399,36.023 61.5309,35.5574 61.3564,34.277 C61.1236,32.4146 59.203,31.8326 57.748,33.2876 Z" style="stroke:none;fill-rule:nonzero;fill:#000000;fill-opacity:1;"/>
        </g>
        <g id="Shape13">
            <desc shapeID="13" type="0" basicInfo-basicType="0" basicInfo-roundedRectRadius="12" basicInfo-polygonSides="6" basicInfo-starPoints="5" bounding="rect(-2.48413,-12.87,4.96814,25.74)" text="" font-familyName="" font-pixelSize="20" font-bold="0" font-underline="0" font-alignment="1" strokeStyle="0" markerStart="0" markerEnd="0" shadowEnabled="0" shadowOffsetX="0" shadowOffsetY="2" shadowBlur="4" shadowOpacity="160" blurEnabled="0" blurRadius="4" transform="matrix(0.581997,0,0,0.581997,17.29,41.1383)" pers-center="0,0" pers-size="0,0" pers-start="0,0" pers-end="0,0" locked="0" mesh="" flag=""/>
            <path id="shapePath13" d="M16.2517,34.277 C16.0188,34.6844 15.8442,37.0123 15.8442,39.3985 C15.9024,42.7159 16.1934,44.3455 17.1828,46.2079 C18.696,49.1761 19.2198,49.4671 18.2304,46.7899 C17.8812,45.8005 17.5902,42.3667 17.532,39.2821 C17.532,33.8114 17.241,32.7638 16.2517,34.277 Z" style="stroke:none;fill-rule:nonzero;fill:#000000;fill-opacity:1;"/>
        </g>
        <g id="Shape14">
            <desc shapeID="14" type="0" basicInfo-basicType="0" basicInfo-roundedRectRadius="12" basicInfo-polygonSides="6" basicInfo-starPoints="5" bounding="rect(-4.55348,-4.39225,9.10695,8.7845)" text="" font-familyName="" font-pixelSize="20" font-bold="0" font-underline="0" font-alignment="1" strokeStyle="0" markerStart="0" markerEnd="0" shadowEnabled="0" shadowOffsetX="0" shadowOffsetY="2" shadowBlur="4" shadowOpacity="160" blurEnabled="0" blurRadius="4" transform="matrix(0.581997,0,0,0.581997,40.1214,37.3058)" pers-center="0,0" pers-size="0,0" pers-start="0,0" pers-end="0,0" locked="0" mesh="" flag=""/>
            <path id="shapePath14" d="M39.0077,35.2082 C37.6109,36.1393 37.0289,38.0017 37.8437,39.1075 C38.4257,39.8641 39.0077,40.0387 40.4627,39.6895 C42.6742,39.2239 43.2562,38.1181 42.3832,36.1393 C41.7431,34.7426 40.2881,34.3352 39.0077,35.2082 Z" style="stroke:none;fill-rule:nonzero;fill:#000000;fill-opacity:1;"/>
        </g>
        <g id="Shape15">
            <desc shapeID="15" type="0" basicInfo-basicType="0" basicInfo-roundedRectRadius="12" basicInfo-polygonSides="6" basicInfo-starPoints="5" bounding="rect(-8.90805,-6.76482,17.816,13.5296)" text="" font-familyName="" font-pixelSize="20" font-bold="0" font-underline="0" font-alignment="1" strokeStyle="0" markerStart="0" markerEnd="0" shadowEnabled="0" shadowOffsetX="0" shadowOffsetY="2" shadowBlur="4" shadowOpacity="160" blurEnabled="0" blurRadius="4" transform="matrix(0.581997,0,0,0.581997,72.0023,39.2803)" pers-center="0,0" pers-size="0,0" pers-start="0,0" pers-end="0,0" locked="0" mesh="" flag=""/>
            <path id="shapePath15" d="M75.7899,36.3722 C75.0915,38.5255 71.5995,41.6101 69.0969,42.3085 C67.7001,42.6577 66.7107,43.0651 66.8271,43.1815 C66.9435,43.2979 68.2239,43.1233 69.6207,42.7741 C72.3561,42.0757 77.1867,37.8853 77.1867,36.1976 C77.1867,34.9754 76.1973,35.0918 75.7899,36.3722 Z" style="stroke:none;fill-rule:nonzero;fill:#000000;fill-opacity:1;"/>
        </g>
        <g id="Shape16">
            <desc shapeID="16" type="0" basicInfo-basicType="0" basicInfo-roundedRectRadius="12" basicInfo-polygonSides="6" basicInfo-starPoints="5" bounding="rect(-8.72437,-16.4881,17.4487,32.9762)" text="" font-familyName="" font-pixelSize="20" font-bold="0" font-underline="0" font-alignment="1" strokeStyle="0" markerStart="0" markerEnd="0" shadowEnabled="0" shadowOffsetX="0" shadowOffsetY="2" shadowBlur="4" shadowOpacity="160" blurEnabled="0" blurRadius="4" transform="matrix(0.581997,0,0,0.581997,66.9247,87.9949)" pers-center="0,0" pers-size="0,0" pers-start="0,0" pers-end="0,0" locked="0" mesh="" flag=""/>
            <path id="shapePath16" d="M62.4575,79.0835 C61.7009,81.4696 61.7009,83.0992 62.1665,88.4536 C62.7485,94.3318 63.5633,97.5909 64.4945,97.5909 C65.7749,97.5909 66.7643,94.9137 66.4151,92.2948 C66.0659,89.6758 66.1241,89.5012 67.8701,88.57 C70.0816,87.4642 72.0022,84.5542 72.0022,82.2844 C72.0022,79.1416 68.5103,77.3957 65.4257,79.0253 C64.4945,79.549 64.1453,79.549 63.9707,79.0253 C63.6797,78.1523 62.6903,78.2105 62.4575,79.0835 M68.2193,80.9458 C69.2086,81.6442 69.2086,81.9352 68.5103,83.5648 C67.7536,85.4272 66.0659,86.824 65.3675,86.1256 C64.7273,85.4854 65.0183,81.5278 65.7167,80.8294 C66.5896,79.9565 66.8806,79.9565 68.2193,80.9458 Z" style="stroke:none;fill-rule:nonzero;fill:#000000;fill-opacity:1;"/>
        </g>
        <g id="Shape17">
            <desc shapeID="17" type="0" basicInfo-basicType="0" basicInfo-roundedRectRadius="12" basicInfo-polygonSides="6" basicInfo-starPoints="5" bounding="rect(-12.7554,-15.3344,25.5108,30.6688)" text="" font-familyName="" font-pixelSize="20" font-bold="0" font-underline="0" font-alignment="1" strokeStyle="0" markerStart="0" markerEnd="0" shadowEnabled="0" shadowOffsetX="0" shadowOffsetY="2" shadowBlur="4" shadowOpacity="160" blurEnabled="0" blurRadius="4" transform="matrix(0.581997,0,0,0.581997,45.323,90.142)" pers-center="0,0" pers-size="0,0" pers-start="0,0" pers-end="0,0" locked="0" mesh="" flag=""/>
            <path id="shapePath17" d="M38.2464,82.4008 C37.3153,84.205 38.4211,97.4745 39.6432,98.6385 C40.3416,99.3951 40.7491,99.2205 42.4368,97.5327 C43.4844,96.427 44.9394,94.7392 45.696,93.808 C46.4526,92.8186 46.8018,92.5858 46.4526,93.2842 C45.987,94.2736 46.0452,94.7392 46.6854,95.263 C47.9657,96.3105 49.188,95.554 49.77,93.4006 C50.0027,92.2948 50.7594,91.2472 51.516,90.898 C53.3202,90.0832 53.0873,89.3266 51.1667,89.5012 C49.188,89.734 47.3256,88.1044 46.7436,85.7764 C45.987,82.5172 41.5056,79.8983 40.2252,81.9352 C39.9342,82.4008 39.7014,82.4008 39.4104,81.877 C39.0612,81.3532 38.7702,81.4696 38.2464,82.4008 M43.1352,84.9034 C44.9394,87.4642 44.9394,89.8504 43.1352,92.5276 L41.4474,94.972 L40.8072,90.025 C40.458,87.2896 40.2834,84.7288 40.3998,84.3214 C40.8654,83.2156 42.1458,83.5066 43.1352,84.9034 Z" style="stroke:none;fill-rule:nonzero;fill:#000000;fill-opacity:1;"/>
        </g>
        <g id="Shape18">
            <desc shapeID="18" type="0" basicInfo-basicType="0" basicInfo-roundedRectRadius="12" basicInfo-polygonSides="6" basicInfo-starPoints="5" bounding="rect(-1,-1.5,2,3)" text="" font-familyName="" font-pixelSize="20" font-bold="0" font-underline="0" font-alignment="1" strokeStyle="0" markerStart="0" markerEnd="0" shadowEnabled="0" shadowOffsetX="0" shadowOffsetY="2" shadowBlur="4" shadowOpacity="160" blurEnabled="0" blurRadius="4" transform="matrix(0.581997,0,0,0.581997,56.2883,93.226)" pers-center="0,0" pers-size="0,0" pers-start="0,0" pers-end="0,0" locked="0" mesh="" flag=""/>
            <path id="shapePath18" d="M55.7063,93.226 C55.7063,93.6915 55.9973,94.0989 56.2883,94.0989 C56.6375,94.0989 56.8703,93.6915 56.8703,93.226 C56.8703,92.7604 56.6375,92.353 56.2883,92.353 C55.9973,92.353 55.7063,92.7604 55.7063,93.226 Z" style="stroke:none;fill-rule:nonzero;fill:#000000;fill-opacity:1;"/>
        </g>
    </g>
</svg>
