<?xml version="1.0"?>
<svg version="1.1" xmlns="http://www.w3.org/2000/svg" xmlns:xlink="http://www.w3.org/1999/xlink" width="100" height="100">
    <desc iVinci="yes" version="4.6" gridStep="20" showGrid="no" snapToGrid="no" codePlatform="0"/>
    <g id="Layer1" name="Layer 3" opacity="1">
        <g id="Shape1">
            <desc shapeID="1" type="0" basicInfo-basicType="0" basicInfo-roundedRectRadius="12" basicInfo-polygonSides="6" basicInfo-starPoints="5" bounding="rect(-47.7137,-13.5916,95.4275,27.1832)" text="" font-familyName="Helvetica" font-pixelSize="20" font-bold="0" font-underline="0" font-alignment="1" strokeStyle="0" markerStart="0" markerEnd="0" shadowEnabled="0" shadowOffsetX="0" shadowOffsetY="2" shadowBlur="4" shadowOpacity="160" blurEnabled="0" blurRadius="4" transform="matrix(1,0,0,1,50.5496,85.3264)" pers-center="0,0" pers-size="0,0" pers-start="0,0" pers-end="0,0" locked="0" mesh="" flag=""/>
            <path id="shapePath1" d="M9.92175,81.0167 C18.2241,78.8072 26.993,79.0518 35.5475,78.257 C44.9109,77.387 54.3098,76.9267 63.67,76.0229 C67.0183,75.6997 70.32,74.9975 73.6575,74.5774 C76.5853,74.2089 79.5115,73.6274 82.4622,73.6575 C83.8646,73.6718 85.1393,74.8345 86.5361,74.7088 C89.6364,74.4298 93.6872,70.0217 95.6036,72.4748 C98.6553,76.3809 99.2966,83.3077 96.3921,87.3245 C92.0717,93.2996 84.1139,95.9074 77.0742,98.1005 C72.3482,99.5728 67.1743,98.0197 62.2245,97.9691 C50.0467,97.8445 37.8698,97.604 25.6914,97.5748 C19.602,97.5602 12.9398,100.42 7.42488,97.8377 C3.86659,96.1716 2.37992,90.8167 2.95681,86.9303 C3.404,83.9177 6.97859,81.7999 9.92175,81.0167 Z" style="stroke:none;fill-rule:evenodd;fill:#b0e2a2;fill-opacity:1;"/>
        </g>
        <g id="Shape2">
            <desc shapeID="2" type="0" basicInfo-basicType="0" basicInfo-roundedRectRadius="12" basicInfo-polygonSides="6" basicInfo-starPoints="5" bounding="rect(-19.176,-11.5656,38.3519,23.1313)" text="" font-familyName="Helvetica" font-pixelSize="20" font-bold="0" font-underline="0" font-alignment="1" strokeStyle="0" markerStart="0" markerEnd="0" shadowEnabled="0" shadowOffsetX="0" shadowOffsetY="2" shadowBlur="4" shadowOpacity="160" blurEnabled="0" blurRadius="4" transform="matrix(1,0,0,1,53.3283,87.3178)" pers-center="0,0" pers-size="0,0" pers-start="0,0" pers-end="0,0" locked="0" mesh="" flag=""/>
            <path id="shapePath2" d="M48.9034,77.9407 C51.0661,74.8287 56.3067,75.9482 60.0964,75.9482 C60.9207,75.9482 60.7663,77.7231 61.5614,77.9407 C64.901,78.8545 68.556,78.1864 71.8754,79.1713 C72.5035,79.3577 72.7344,80.6907 72.227,81.1052 C71.0022,82.1056 69.0723,81.7594 67.7146,82.5702 C63.4019,85.1459 56.514,86.2982 55.3496,91.1847 C54.5425,94.5716 66.7501,93.743 64.4329,96.3417 C61.0015,100.19 54.2177,98.6401 49.0792,98.2169 C44.0407,97.802 37.1327,98.2239 34.5459,93.8804 C32.6548,90.705 38.0232,86.8749 41.2265,85.0315 C45.7269,82.4416 52.5429,84.8516 56.3572,81.3285 C58.362,79.4767 47.3458,80.1818 48.9034,77.9407 Z" style="stroke:none;fill-rule:evenodd;fill:#e2be8e;fill-opacity:1;"/>
        </g>
        <g id="Shape3">
            <desc shapeID="3" type="0" basicInfo-basicType="0" basicInfo-roundedRectRadius="12" basicInfo-polygonSides="6" basicInfo-starPoints="5" bounding="rect(-15.2803,-10.5342,30.5606,21.0683)" text="" font-familyName="Helvetica" font-pixelSize="20" font-bold="0" font-underline="0" font-alignment="1" strokeStyle="0" markerStart="0" markerEnd="0" shadowEnabled="0" shadowOffsetX="0" shadowOffsetY="2" shadowBlur="4" shadowOpacity="160" blurEnabled="0" blurRadius="4" transform="matrix(1,0,0,1,20.5242,70.0889)" pers-center="0,0" pers-size="0,0" pers-start="0,0" pers-end="0,0" locked="0" mesh="" flag=""/>
            <path id="shapePath3" d="M12.4637,80.3873 C12.4637,80.3873 34.4737,78.5958 34.4737,78.5958 C34.4737,78.5958 35.8045,75.8318 35.8045,75.8318 C35.8045,75.8318 34.0642,73.9891 34.0642,73.9891 C34.0642,73.9891 33.3988,69.4336 33.3988,69.4336 C33.3988,69.4336 30.6859,68.4099 30.6859,68.4099 C30.6859,68.4099 31.9655,64.6221 31.9655,64.6221 C31.9655,64.6221 29.7134,63.9055 29.7134,63.9055 C29.7134,63.9055 29.8157,59.5547 29.8157,59.5547 C29.8157,59.5547 23.1616,59.7083 23.1616,59.7083 C23.1616,59.7083 16.9169,60.3737 16.9169,60.3737 C16.9169,60.3737 15.842,64.2638 15.842,64.2638 C15.842,64.2638 10.9794,66.8231 10.9794,66.8231 C10.9794,66.8231 7.70347,72.044 7.70347,72.044 C7.70347,72.044 7.54761,74.286 6.8203,75.8318 C6.07283,77.4205 4.76206,78.3295 5.4258,79.4929 C6.46475,81.3138 12.4637,80.3873 12.4637,80.3873 Z" style="stroke:none;fill-rule:evenodd;fill:#77b86c;fill-opacity:1;"/>
        </g>
        <g id="Shape4">
            <desc shapeID="4" type="0" basicInfo-basicType="0" basicInfo-roundedRectRadius="12" basicInfo-polygonSides="6" basicInfo-starPoints="5" bounding="rect(-7.86205,-12.0807,15.7241,24.1614)" text="" font-familyName="Helvetica" font-pixelSize="20" font-bold="0" font-underline="0" font-alignment="1" strokeStyle="0" markerStart="0" markerEnd="0" shadowEnabled="0" shadowOffsetX="0" shadowOffsetY="2" shadowBlur="4" shadowOpacity="160" blurEnabled="0" blurRadius="4" transform="matrix(1,0,0,1,82.5275,62.7765)" pers-center="0,0" pers-size="0,0" pers-start="0,0" pers-end="0,0" locked="0" mesh="" flag=""/>
            <path id="shapePath4" d="M76.631,73.7067 C76.631,73.7067 87.5132,74.8572 87.5132,74.8572 C87.5132,74.8572 90.3895,70.7344 90.3895,70.7344 C90.3895,70.7344 89.1911,66.1802 89.1911,66.1802 C89.1911,66.1802 86.9859,64.8858 86.9859,64.8858 C86.9859,64.8858 89.9102,60.7631 89.9102,60.7631 C89.9102,60.7631 88.5679,58.1264 88.5679,58.1264 C88.5679,58.1264 89.3349,54.7706 89.3349,54.7706 C89.3349,54.7706 87.0338,54.4351 87.0338,54.4351 C87.0338,54.4351 84.5889,51.4149 84.5889,51.4149 C84.5889,51.4149 78.1171,50.6958 78.1171,50.6958 C78.1171,50.6958 75.7681,53.5242 75.7681,53.5242 C75.7681,53.5242 76.2954,56.4006 76.2954,56.4006 C76.2954,56.4006 74.6655,57.8867 74.6655,57.8867 C74.6655,57.8867 76.9186,61.1945 76.9186,61.1945 C76.9186,61.1945 75.9119,65.4611 75.9119,65.4611 C75.9119,65.4611 75.2982,66.5257 75.4282,68.0172 C75.5313,69.1984 76.83,69.9209 77.1005,71.0331 C77.3806,72.1852 76.631,73.7067 76.631,73.7067 Z" style="stroke:none;fill-rule:evenodd;fill:#77b86c;fill-opacity:1;"/>
        </g>
        <g id="Shape5">
            <desc shapeID="5" type="0" basicInfo-basicType="0" basicInfo-roundedRectRadius="12" basicInfo-polygonSides="6" basicInfo-starPoints="5" bounding="rect(0,0,0,0)" text="" font-familyName="Helvetica" font-pixelSize="20" font-bold="0" font-underline="0" font-alignment="1" strokeStyle="0" markerStart="0" markerEnd="0" shadowEnabled="0" shadowOffsetX="0" shadowOffsetY="2" shadowBlur="4" shadowOpacity="160" blurEnabled="0" blurRadius="4" transform="matrix(1,0,0,1,89.3349,74.1381)" pers-center="0,0" pers-size="0,0" pers-start="0,0" pers-end="0,0" locked="0" mesh="" flag=""/>
            <path id="shapePath5" d="M89.3349,74.1381 Z" style="stroke:none;fill-rule:evenodd;fill:#77b86c;fill-opacity:1;"/>
        </g>
        <g id="Shape6">
            <desc shapeID="6" type="0" basicInfo-basicType="0" basicInfo-roundedRectRadius="12" basicInfo-polygonSides="6" basicInfo-starPoints="5" bounding="rect(0,0,0,0)" text="" font-familyName="Helvetica" font-pixelSize="20" font-bold="0" font-underline="0" font-alignment="1" strokeStyle="0" markerStart="0" markerEnd="0" shadowEnabled="0" shadowOffsetX="0" shadowOffsetY="2" shadowBlur="4" shadowOpacity="160" blurEnabled="0" blurRadius="4" transform="matrix(1,0,0,1,90.8689,73.6587)" pers-center="0,0" pers-size="0,0" pers-start="0,0" pers-end="0,0" locked="0" mesh="" flag=""/>
            <path id="shapePath6" d="M90.8689,73.6587 Z" style="stroke:none;fill-rule:evenodd;fill:#77b86c;fill-opacity:1;"/>
        </g>
        <g id="Shape7">
            <desc shapeID="7" type="0" basicInfo-basicType="0" basicInfo-roundedRectRadius="12" basicInfo-polygonSides="6" basicInfo-starPoints="5" bounding="rect(-5.27332,-6.32798,10.5466,12.656)" text="" font-familyName="Helvetica" font-pixelSize="20" font-bold="0" font-underline="0" font-alignment="1" strokeStyle="0" markerStart="0" markerEnd="0" shadowEnabled="0" shadowOffsetX="0" shadowOffsetY="2" shadowBlur="4" shadowOpacity="160" blurEnabled="0" blurRadius="4" transform="matrix(1,0,0,1,93.1221,67.906)" pers-center="0,0" pers-size="0,0" pers-start="0,0" pers-end="0,0" locked="0" mesh="" flag=""/>
            <path id="shapePath7" d="M90.1498,74.234 C90.1498,74.234 90.3127,69.6176 90.1498,68.9152 C89.5441,66.3031 87.8488,64.3106 87.8488,64.3106 C87.8488,64.3106 92.4509,61.578 92.4509,61.578 C92.4509,61.578 98.3954,66.1323 98.3954,66.1323 C98.3954,66.1323 98.317,70.1102 96.3965,71.9972 C94.2113,74.1443 90.1498,74.234 90.1498,74.234 Z" style="stroke:none;fill-rule:evenodd;fill:#dbd7ba;fill-opacity:1;"/>
        </g>
        <g id="Shape8">
            <desc shapeID="8" type="0" basicInfo-basicType="0" basicInfo-roundedRectRadius="12" basicInfo-polygonSides="6" basicInfo-starPoints="5" bounding="rect(-46.0518,-27.0638,92.1036,54.1276)" text="" font-familyName="Helvetica" font-pixelSize="20" font-bold="0" font-underline="0" font-alignment="1" strokeStyle="0" markerStart="0" markerEnd="0" shadowEnabled="0" shadowOffsetX="0" shadowOffsetY="2" shadowBlur="4" shadowOpacity="160" blurEnabled="0" blurRadius="4" transform="matrix(1,0,0,1,49.1958,48.0211)" pers-center="0,0" pers-size="0,0" pers-start="0,0" pers-end="0,0" locked="0" mesh="" flag=""/>
            <path id="shapePath8" d="M4.40502,42.501 C1.34856,57.3943 4.58665,59.4001 6.35487,74.5007 C6.67789,77.2593 8.85,69.4676 10.6816,67.3796 C11.9236,65.9638 14.1073,65.6231 15.3689,64.2247 C16.6748,62.7772 16.5194,60.1349 18.1632,59.0867 C19.1807,58.4379 20.3825,60.2991 21.5885,60.2586 C24.0739,60.175 26.6656,57.614 28.8898,58.7262 C30.6086,59.5855 28.8024,62.8149 29.8814,64.405 C30.352,65.0985 31.6045,64.2182 32.3152,63.774 C33.3423,63.1321 33.8266,61.7513 34.9292,61.2501 C35.9428,60.7894 37.8447,62.101 38.2644,61.0698 C39.2161,58.7314 37.4128,55.9318 38.0841,53.4981 C38.4572,52.1457 40.5901,51.9004 41.1489,50.6136 C41.6756,49.4006 40.5139,47.8524 41.0587,46.6474 C42.1556,44.2217 43.9905,42.166 45.8362,40.2475 C46.3434,39.7202 47.2267,39.2631 47.9094,39.5264 C49.5522,40.16 50.3913,42.535 52.146,42.6813 C54.7906,42.9016 57.1546,40.5732 59.8078,40.5179 C60.5467,40.5025 60.0617,42.4565 60.7994,42.501 C63.0182,42.6346 65.0671,40.9223 67.2895,40.9686 C68.209,40.9878 69.2574,41.7825 69.4528,42.6813 C69.9195,44.8278 67.8614,47.442 69.0923,49.2615 C69.9382,50.512 72.2315,48.1713 73.5993,48.8108 C74.9355,49.4355 74.6124,52.1096 76.033,52.5065 C77.3795,52.8827 78.3345,50.6267 79.7288,50.5234 C80.3941,50.4742 80.2408,52.047 80.9006,52.146 C82.3225,52.3592 83.7711,50.8861 85.1372,51.3347 C86.1903,51.6805 86.0532,53.4639 86.94,54.129 C87.6237,54.6418 89.2183,53.7612 89.4639,54.5797 C89.8683,55.9278 88.1367,57.2372 88.2921,58.636 C88.4056,59.6575 89.8174,60.11 90.185,61.0698 C90.4023,61.6373 89.3214,62.7408 89.9146,62.8726 C91.1114,63.1386 93.0621,62.9604 93.43,61.7909 C94.9347,57.0082 95.7028,51.7866 94.9624,46.8277 C94.0682,40.8383 93.1096,33.8911 88.6526,29.7913 C82.879,24.4802 74.6836,20.9283 66.8388,20.9575 C57.5081,20.9924 49.6189,26.7585 40.3376,27.718 C32.2596,28.5532 23.9385,24.7737 16.2703,27.4476 C9.92067,29.6617 5.1054,39.0883 4.40502,42.501 Z" style="stroke:none;fill-rule:evenodd;fill:#dbb488;fill-opacity:1;"/>
        </g>
        <g id="Shape9">
            <desc shapeID="9" type="0" basicInfo-basicType="0" basicInfo-roundedRectRadius="12" basicInfo-polygonSides="6" basicInfo-starPoints="5" bounding="rect(-23.6406,-19.8402,47.2812,39.6804)" text="" font-familyName="Helvetica" font-pixelSize="20" font-bold="0" font-underline="0" font-alignment="1" strokeStyle="0" markerStart="0" markerEnd="0" shadowEnabled="0" shadowOffsetX="0" shadowOffsetY="2" shadowBlur="4" shadowOpacity="160" blurEnabled="0" blurRadius="4" transform="matrix(1,0,0,1,53.4688,58.7308)" pers-center="0,0" pers-size="0,0" pers-start="0,0" pers-end="0,0" locked="0" mesh="" flag=""/>
            <path id="shapePath9" d="M41.4938,77.9946 C41.4938,77.9946 44.8422,69.9891 44.8422,69.9891 C44.8422,69.9891 43.1722,61.9342 43.2705,61.9342 C43.3687,61.9342 47.6908,53.3882 47.7891,53.3882 C47.8873,53.3882 59.4785,51.2271 59.4785,51.2271 C59.4785,51.2271 64.9794,55.7457 64.9794,55.7457 C64.9794,55.7457 64.4882,68.0245 64.4882,68.0245 C64.4882,68.0245 67.2387,75.5882 67.2387,75.5882 C67.2387,75.5882 71.5469,75.2031 71.5469,75.2031 C71.5469,75.2031 76.4531,73.2969 76.4531,73.2969 C76.4531,73.2969 77.0156,71.0156 77.0156,71.0156 C77.0156,71.0156 74.8281,68.4219 74.8281,68.4219 C74.8281,68.4219 77.1094,62.3281 77.1094,62.3281 C77.1094,62.3281 76.8281,60.3281 76.8281,60.3281 C76.8281,60.3281 74.3594,57.8906 74.3594,57.8906 C74.3594,57.8906 76.2656,56.3594 76.2656,56.3594 C76.2656,56.3594 74.2344,48.8906 74.2344,48.8906 C74.2344,48.8906 71.8281,49.1094 71.8281,49.1094 C71.8281,49.1094 68.6094,50.2031 68.6094,50.2031 C68.6094,50.2031 69.5781,42.7031 69.5781,42.7031 C69.5781,42.7031 68.5781,41.1094 68.5781,41.1094 C68.5781,41.1094 65.4531,41.1719 65.4531,41.1719 C65.4531,41.1719 60.7344,42.9531 60.7344,42.9531 C60.7344,42.9531 60.0781,40.5469 60.0781,40.5469 C60.0781,40.5469 55.0156,41.6406 55.0156,41.6406 C55.0156,41.6406 51.9219,42.9531 51.9219,42.9531 C51.9219,42.9531 47.2656,38.8906 47.2656,38.8906 C47.2656,38.8906 46.0469,39.5156 46.0469,39.5156 C46.0469,39.5156 40.1094,47.0781 40.1094,47.0781 C40.1094,47.0781 41.0781,50.5781 41.0781,50.5781 C41.0781,50.5781 37.5469,51.2656 37.5469,51.2656 C37.5469,51.2656 38.6719,61.0469 38.6719,61.0469 C38.6719,61.0469 34.2031,61.6406 34.2031,61.6406 C34.2031,61.6406 31.6406,63.9219 31.6406,63.9219 C31.6406,63.9219 31.6406,66.2656 31.6406,66.2656 C31.6406,66.2656 29.8281,68.4219 29.8281,68.4219 C29.8281,68.4219 33.0469,69.0781 33.0469,69.0781 C33.0469,69.0781 33.7969,72.7969 33.7969,72.7969 C33.7969,72.7969 34.4161,76.6927 36.3441,77.9946 C38.2646,79.2915 41.4938,77.9946 41.4938,77.9946 Z" style="stroke:none;fill-rule:evenodd;fill:#ecd1b7;fill-opacity:1;"/>
        </g>
        <g id="Shape10">
            <desc shapeID="10" type="0" basicInfo-basicType="0" basicInfo-roundedRectRadius="12" basicInfo-polygonSides="6" basicInfo-starPoints="5" bounding="rect(-121.827,-60.8694,243.654,121.739)" text="" font-familyName="" font-pixelSize="20" font-bold="0" font-underline="0" font-alignment="1" strokeStyle="0" markerStart="0" markerEnd="0" shadowEnabled="0" shadowOffsetX="0" shadowOffsetY="2" shadowBlur="4" shadowOpacity="160" blurEnabled="0" blurRadius="4" transform="matrix(0.39215,0,0,0.39215,51.3481,62.4097)" pers-center="0,0" pers-size="0,0" pers-start="0,0" pers-end="0,0" locked="0" mesh="" flag=""/>
            <path id="shapePath10" d="M44.5299,40.0672 C43.5888,40.9692 42.4516,42.4201 42.0202,43.3221 C41.5888,44.224 40.7653,45.4005 40.2163,45.9103 C39.0398,47.0083 38.9614,47.5181 39.7849,49.0475 L40.3339,50.1455 L38.7261,50.3808 C36.2164,50.7337 35.9811,51.1651 36.4908,54.7729 C36.7262,56.4983 37.1575,58.3414 37.432,58.8904 C38.0594,60.1061 37.5889,60.6551 35.785,60.6943 L34.4909,60.7336 L34.4517,58.1454 C34.4517,56.7336 34.0203,53.9493 33.5105,52.0278 L32.5693,48.4985 L32.7654,53.5964 C32.8831,56.3807 33.0399,59.2042 33.1184,59.7924 C33.3144,61.0473 32.4909,63.008 31.589,63.3217 C31.0007,63.557 31.0007,63.557 30.2164,55.5572 C30.0204,53.4003 29.6674,50.6945 29.4321,49.5181 C29.1969,48.3808 29.0008,47.3612 29.0008,47.2828 C29.0008,47.2044 28.7263,47.1259 28.3734,47.1259 C27.8243,47.1259 27.7459,47.7534 27.8635,52.1847 L28.0204,57.2434 L27.0008,57.4003 L25.942,57.5571 L25.6675,54.0278 C25.3146,49.4788 24.2165,43.5966 23.7068,43.4789 C23.0401,43.3613 23.0401,45.9887 23.7068,51.4788 C24.6871,59.4787 24.7263,59.0081 23.0401,59.4394 C21.9029,59.714 21.2362,59.6355 19.9813,59.0865 C18.7264,58.4983 18.2167,58.4591 17.4324,58.812 C16.2951,59.3218 14.8834,61.4786 14.8834,62.6551 C14.8834,63.2433 14.5697,63.5962 13.903,63.7531 C13.3932,63.8708 11.8246,65.0864 10.4129,66.4589 C8.49133,68.302 7.78547,69.3216 7.43252,70.6157 C7.19724,71.5569 6.72665,72.7726 6.37371,73.2431 C6.05999,73.7529 5.90313,74.3412 6.05999,74.5764 C6.21687,74.8117 5.70705,75.7137 4.92275,76.5372 C3.39338,78.2234 3.31494,78.5372 3.94238,79.7528 C4.56983,80.9293 6.68743,81.6352 9.55014,81.6352 C11.6285,81.6352 12.2952,81.4783 13.1187,80.7332 C14.4912,79.5568 14.0991,78.498 12.2952,78.498 C11.354,78.498 10.9619,78.694 10.9619,79.0862 C10.9619,79.792 9.9815,79.8313 7.58939,79.243 L5.82471,78.7725 L7.07957,77.4784 C8.09918,76.4196 8.6874,76.1451 9.86386,76.1451 C11.0795,76.1451 11.354,76.0274 11.354,75.3607 C11.354,74.7725 10.9227,74.4588 9.62855,74.1059 C7.43252,73.5176 7.74623,72.851 10.0207,73.2039 C12.0207,73.4784 12.1383,73.2431 10.7658,71.2432 L9.82463,69.8314 L11.2756,68.2236 C12.0599,67.3609 13.2363,66.3413 13.8638,65.9491 C15.001,65.2041 15.001,65.2041 15.7461,66.1844 C17.1578,67.9491 18.3735,67.204 17.5892,65.0472 C17.2363,64.0276 17.2755,63.5178 17.7461,62.3022 C18.3343,60.9296 18.4912,60.8512 20.0598,60.8512 C21.0009,60.8512 22.1382,60.7336 22.6479,60.6159 C23.393,60.3806 23.5107,60.4983 23.5107,61.5178 C23.5107,62.5766 24.0989,63.5962 24.7263,63.5962 C24.8832,63.5962 25.3538,62.9688 25.8244,62.1845 C26.5694,60.9296 26.7263,60.8512 27.2753,61.4002 C28.0596,62.1845 28.2165,62.1845 28.8439,61.3218 C29.2753,60.7728 29.3145,61.008 29.1184,62.9688 L28.8831,65.2825 L29.9027,65.0864 C31.1968,64.8511 31.3145,65.5178 30.1772,66.5374 C28.8439,67.7138 29.3929,69.4785 31.0792,69.4785 C32.1772,69.4785 32.8831,70.6157 32.9223,72.3412 C32.9223,74.0274 33.8635,76.1451 34.6085,76.1451 C34.8438,76.1451 34.4517,76.6941 33.7066,77.2823 C32.9615,77.9097 32.4909,78.5764 32.6478,78.7332 C33.0399,79.1254 41.7457,78.9293 42.8437,78.5372 C43.2751,78.3803 44.3339,78.3803 45.2358,78.5372 C48.2161,79.047 55.0788,80.4979 55.2356,80.694 C55.5886,81.0077 54.9219,81.243 50.569,82.1842 C43.9809,83.6351 39.7849,84.9684 39.7849,85.5959 C39.7849,86.6939 43.3535,86.4586 49.1181,84.9684 C54.9611,83.4783 57.3925,82.4587 57.7846,81.3999 C58.1376,80.4587 57.0003,79.3607 55.3925,79.047 C53.667,78.7332 54.02,78.4195 56.5297,78.1058 C57.9415,77.9097 58.8826,77.9882 59.6669,78.3803 C60.2944,78.694 62.6865,79.1254 65.0002,79.3215 C67.3138,79.5568 69.7452,79.8705 70.3726,80.0273 C71.5099,80.3018 71.5099,80.3411 69.3923,81.0077 C65.3531,82.341 65.1178,83.6743 69.0785,82.8508 C72.451,82.1449 73.7843,81.3999 73.6275,80.3411 C73.4706,79.1646 71.3138,78.498 66.3727,78.145 C61.7845,77.7921 60.5689,77.3215 64.2943,77.3215 C65.6668,77.3215 67.7452,77.0078 68.9609,76.5764 C74.4118,74.7725 79.8627,74.2235 83.6273,75.2039 C85.5881,75.7137 86.2155,75.7137 88.7253,75.2039 C90.2939,74.8902 92.4507,74.5372 93.5879,74.3804 C95.8232,74.1059 96.6075,73.4784 96.2153,72.4196 C95.9801,71.8314 95.5879,71.753 93.7448,71.949 C91.588,72.1451 91.5488,72.1059 91.4703,71.0863 C91.1566,67.0472 90.4115,65.1648 89.1174,65.1648 C88.8429,65.1648 88.6076,64.9688 88.6076,64.7727 C88.6076,64.5374 88.9998,64.3805 89.4703,64.3805 C89.9409,64.3805 90.7252,64.0276 91.1958,63.557 C92.137,62.6551 92.0586,62.6159 94.9997,64.7727 C96.6075,65.9099 96.882,66.3021 96.6859,67.1256 C95.7055,71.4785 96.1369,73.3608 97.6271,70.9687 C98.7643,69.1648 99.3526,66.9687 99.0388,65.7923 C98.9212,65.2433 97.7447,63.9492 96.3722,62.8119 C93.6272,60.6159 92.2154,60.3022 91.2743,61.7139 C90.7252,62.4982 90.7252,62.4982 90.8821,61.1649 C90.9997,60.0669 90.8429,59.6355 90.0978,59.0473 C89.2351,58.3414 89.1958,58.1846 89.6272,57.1258 C90.6076,54.8121 89.9801,53.2043 88.2155,53.6748 C87.7449,53.7925 87.4704,53.5572 87.2743,52.8121 C87.1174,52.2631 86.5685,51.5964 86.0194,51.3612 C85.1175,50.9298 85.0783,50.7729 85.3136,48.7337 C85.5096,46.6554 84.9606,43.9495 84.4116,44.4985 C84.294,44.6554 84.2156,46.0671 84.2548,47.6749 L84.3332,50.5769 L83.1959,50.8514 C82.2548,51.0474 81.8234,50.8906 80.9999,50.0671 C80.1372,49.2043 79.9803,48.6945 79.9803,46.773 C79.9803,45.322 79.7842,44.3025 79.4705,44.0279 C78.6078,43.3613 78.4117,43.9103 78.3725,46.8906 C78.3725,49.4396 78.2941,49.7533 77.2745,50.5376 L76.1765,51.4004 L75.3529,49.6357 C74.4118,47.7142 73.7843,47.5181 71.4707,48.4985 C70.6864,48.8122 70.0197,49.0475 69.9413,49.0083 C69.9021,48.9298 70.0197,47.9102 70.2158,46.7338 C70.6471,44.1064 70.3334,41.9103 69.4707,41.1652 C68.1766,40.0672 63.1179,40.5378 61.8237,41.8319 C61.314,42.3025 61.2355,42.2241 61.0002,41.2437 C60.8042,40.1849 60.6473,40.0672 59.1964,40.0672 C58.3336,40.0672 56.4905,40.5378 55.0396,41.0868 L52.4906,42.1456 L51.0396,40.7731 C48.1377,37.9888 46.922,37.8712 44.5299,40.0672 M49.1965,41.3221 L51.0396,42.9299 L50.8435,45.4005 C50.6475,48.1455 50.3338,48.6161 47.1181,50.6161 C44.4123,52.3415 43.628,51.9886 42.4123,48.6161 L41.5496,46.224 L42.4908,44.8122 C43.6672,43.0084 46.6083,39.6751 47.0005,39.6751 C47.1966,39.6751 48.1377,40.4202 49.1965,41.3221 M59.9022,44.0672 C59.9414,46.6161 59.8238,47.0475 58.9611,48.0671 C57.9022,49.2435 57.9415,49.2435 53.5102,48.3808 C51.7455,48.0671 51.7847,48.1455 52.4906,45.0868 L53.0396,42.8907 L56.216,42.1064 C57.9807,41.675 59.5101,41.3221 59.6277,41.2829 C59.7454,41.2829 59.863,42.5378 59.9022,44.0672 M68.5688,42.1848 C68.9609,42.6162 68.9217,43.5574 68.4511,46.3024 C68.0981,48.2632 67.8237,49.9886 67.8237,50.1847 C67.8237,50.3416 67.4707,50.6945 67.0394,50.969 C66.3335,51.4004 65.9806,51.2043 63.7061,49.4004 C61.1963,47.322 61.1571,47.322 61.1571,45.2828 L61.1571,43.2829 L63.0394,42.6554 C66.6472,41.5182 67.9413,41.4005 68.5688,42.1848 M74.9216,53.4788 L75.5883,56.1846 L74.6079,56.5768 C74.0981,56.7728 73.1569,56.9297 72.5295,56.9297 C71.902,56.9297 71.2746,57.1258 71.1569,57.3611 C70.804,57.8708 67.7452,57.4003 67.3531,56.7728 C67.1962,56.5375 67.0394,55.5179 67.0394,54.4984 C67.0394,52.7729 67.1178,52.616 68.8432,51.4396 C71.1177,49.9494 73.353,49.3612 73.8628,50.1847 C74.0589,50.5376 74.5294,51.9886 74.9216,53.4788 M42.7653,52.4984 C44.0986,53.2827 44.1378,53.9101 43.1574,57.1258 C42.6084,58.8512 42.1378,59.6747 41.3143,60.1845 C39.2359,61.4394 39.0006,61.0865 39.0006,56.5375 C39.0006,52.4592 39.0006,52.42 39.981,52.1847 C41.5104,51.7925 41.5496,51.7925 42.7653,52.4984 M79.8627,53.4788 C79.7842,54.7336 79.9411,55.165 80.4509,55.2827 C80.843,55.3611 81.196,55.0866 81.3528,54.5768 C81.6666,53.5964 83.941,52.42 84.843,52.7337 C85.7842,53.0866 86.0194,54.1062 85.4704,55.165 C85.1959,55.6748 85.1175,56.263 85.2351,56.4983 C85.6665,57.2042 86.9606,57.0081 87.4312,56.1454 C87.6665,55.714 88.0194,55.3611 88.1763,55.3611 C88.8037,55.3611 88.1763,56.812 87.1959,57.7532 C85.7842,59.0865 85.941,60.0669 87.6272,60.0669 C89.1566,60.0669 89.3527,60.5767 88.4115,61.91 C87.7057,62.9296 85.7842,63.6355 85.0391,63.1649 C84.2548,62.6943 81.7842,62.7335 81.2744,63.2433 C81.0391,63.4786 80.1372,63.7139 79.2744,63.7531 C77.7451,63.8315 77.7058,63.7923 77.7058,62.5766 C77.7058,61.2433 77.2353,60.1061 76.2157,59.1257 C75.6667,58.5375 75.6667,58.4199 76.4118,57.7924 C77.0784,57.2042 77.1569,56.8905 76.8823,55.4003 C76.5686,53.8317 76.647,53.5964 77.549,52.7729 C78.0588,52.2631 78.8431,51.8317 79.2352,51.8317 C79.8234,51.8317 79.9019,52.1455 79.8627,53.4788 M60.961,57.0473 C61.314,58.812 61.0394,62.2237 60.5689,62.2237 C60.3336,62.2237 60.1375,60.812 60.0591,58.9689 C59.9414,55.714 60.4905,54.5376 60.961,57.0473 M58.3336,59.9885 C58.5297,61.2433 57.314,62.4982 56.0984,62.3414 C54.6866,62.1845 54.4906,60.5767 55.7454,59.5963 C56.9611,58.6551 58.1768,58.8512 58.3336,59.9885 M76.1372,61.361 C76.4118,61.91 76.2941,62.5374 75.7059,63.8315 C75.2353,64.7727 74.8824,65.7139 74.8824,65.9099 C74.8824,66.106 74.7255,66.7334 74.5294,67.2432 C74.1765,68.1844 74.0981,68.2236 72.3726,67.7923 C70.5295,67.2825 69.2354,66.0276 68.804,64.2629 C68.608,63.557 68.8432,62.6943 69.5883,61.2826 C70.6079,59.4787 70.804,59.3218 72.2942,59.2042 C73.9412,59.0865 75.3137,59.8316 76.1372,61.361 M53.8631,59.91 C55.118,61.1649 54.2945,63.2041 52.5298,63.2041 C51.471,63.2041 51.3533,63.0865 51.3533,61.9884 C51.3533,59.6355 52.569,58.6159 53.8631,59.91 M49.9808,61.6355 C50.2946,62.2629 50.569,63.1257 50.569,63.557 C50.569,63.9884 50.922,64.5374 51.3533,64.7727 C52.1769,65.2041 52.4514,66.3413 51.7455,66.3413 C51.5494,66.3413 51.3533,66.1452 51.3533,65.9491 C51.3533,65.0472 50.6475,65.6354 50.4514,66.7334 C50.1377,68.2236 48.5691,69.2824 47.5103,68.7334 C45.7456,67.7923 46.1377,66.0668 48.4122,65.008 C49.7455,64.3805 50.1769,63.4786 49.4318,63.008 C49.2357,62.8904 48.9612,62.9688 48.8044,63.2041 C48.4514,63.7531 46.6475,63.6747 46.6083,63.0865 C46.3338,60.459 48.8044,59.361 49.9808,61.6355 M40.0202,63.2433 C40.883,64.1845 41.1574,64.8511 41.1574,66.106 C41.1574,67.4785 41.0006,67.8315 40.0987,68.3805 C39.1967,68.8903 38.53,68.9295 36.4516,68.655 C35.0399,68.4589 33.5889,68.106 33.236,67.9099 C32.8439,67.7138 32.2556,67.6354 31.8635,67.7923 C31.2753,68.0275 31.3145,67.8707 32.0203,66.9687 C32.6086,66.2237 32.8439,65.557 32.687,64.8119 C32.3341,63.0472 33.6282,62.3414 37.7457,62.1061 C38.5693,62.0276 39.1967,62.3806 40.0202,63.2433 M84.294,65.557 C84.294,65.9884 84.5685,66.3413 84.8822,66.3413 C85.1959,66.3413 85.4704,66.1452 85.4704,65.9491 C85.4704,65.1648 86.6077,65.5962 86.7253,66.4197 C86.8037,67.1256 87.0782,67.2825 87.941,67.204 C89.2743,67.0472 89.2743,67.4393 87.941,68.5373 C86.9998,69.2824 86.9214,69.4785 87.4312,70.0667 C87.7057,70.4197 88.2939,70.6157 88.686,70.5373 C89.7057,70.2628 89.5488,70.6942 88.0586,72.3804 C86.7253,73.8314 86.6861,73.8314 84.9999,73.3608 C83.9802,73.0863 82.2548,73.0079 80.647,73.1647 C78.9607,73.3216 78.0588,73.2824 78.2156,73.0471 C78.6862,72.2628 77.549,69.0471 76.6078,68.6158 C76.1372,68.3805 75.8235,67.9883 75.9411,67.7138 C76.0588,67.3217 76.3333,67.4001 76.8823,67.9491 C77.8235,68.8903 78.6078,68.5766 77.9412,67.557 C77.7058,67.1648 77.6274,66.5374 77.7843,66.1452 C77.9804,65.557 78.3333,65.4786 79.9803,65.7139 C81.5881,65.9491 81.9411,65.8707 81.9411,65.3609 C81.9411,64.9688 82.3332,64.7727 83.1175,64.7727 C84.0195,64.7727 84.294,64.9296 84.294,65.557 M73.5098,69.5961 C75.7451,70.1452 76.2549,70.4197 76.3726,71.4 C76.4902,72.0667 76.1372,72.3804 74.6079,73.0471 C72.3726,74.0274 68.7256,74.851 68.3727,74.4588 C67.9805,74.0667 69.0001,70.7334 69.9021,69.6354 C70.4118,68.9687 70.8824,68.7334 71.3138,68.9295 C71.6667,69.0863 72.6471,69.3609 73.5098,69.5961 M42.177,70.1059 C42.3339,70.7334 42.0986,71.9098 41.5496,73.3216 C41.079,74.5372 40.6869,75.949 40.7261,76.4196 C40.7653,77.0078 40.53,77.3215 40.0594,77.3215 C39.7065,77.3215 38.7261,77.4391 37.9418,77.5568 C36.5693,77.7921 36.4516,77.7529 36.4516,76.9294 C36.4516,76.4588 36.0203,75.5568 35.4713,74.8902 C34.9222,74.2627 34.4909,73.5176 34.4909,73.2039 C34.4909,72.8118 35.5889,69.8314 35.8242,69.6354 C35.8242,69.5961 36.6869,69.6746 37.7065,69.8314 C38.9222,70.0275 39.8241,69.9491 40.4516,69.6354 C41.7065,68.8903 41.9025,68.9687 42.177,70.1059 Z" style="stroke:none;fill-rule:nonzero;fill:#000000;fill-opacity:1;"/>
        </g>
        <g id="Shape11">
            <desc shapeID="11" type="0" basicInfo-basicType="0" basicInfo-roundedRectRadius="12" basicInfo-polygonSides="6" basicInfo-starPoints="5" bounding="rect(-2.1594,-2.25853,4.3187,4.51705)" text="" font-familyName="" font-pixelSize="20" font-bold="0" font-underline="0" font-alignment="1" strokeStyle="0" markerStart="0" markerEnd="0" shadowEnabled="0" shadowOffsetX="0" shadowOffsetY="2" shadowBlur="4" shadowOpacity="160" blurEnabled="0" blurRadius="4" transform="matrix(0.39215,0,0,0.39215,56.5849,60.6852)" pers-center="0,0" pers-size="0,0" pers-start="0,0" pers-end="0,0" locked="0" mesh="" flag=""/>
            <path id="shapePath11" d="M56.0984,60.0277 C55.3533,60.4983 55.8631,61.7139 56.7258,61.5571 C57.1179,61.4786 57.4317,61.0865 57.4317,60.6943 C57.4317,59.8316 56.8827,59.5571 56.0984,60.0277 Z" style="stroke:none;fill-rule:nonzero;fill:#000000;fill-opacity:1;"/>
        </g>
        <g id="Shape12">
            <desc shapeID="12" type="0" basicInfo-basicType="0" basicInfo-roundedRectRadius="12" basicInfo-polygonSides="6" basicInfo-starPoints="5" bounding="rect(-1.75,-2.37283,3.5,4.74565)" text="" font-familyName="" font-pixelSize="20" font-bold="0" font-underline="0" font-alignment="1" strokeStyle="0" markerStart="0" markerEnd="0" shadowEnabled="0" shadowOffsetX="0" shadowOffsetY="2" shadowBlur="4" shadowOpacity="160" blurEnabled="0" blurRadius="4" transform="matrix(0.39215,0,0,0.39215,52.8239,61.4394)" pers-center="0,0" pers-size="0,0" pers-start="0,0" pers-end="0,0" locked="0" mesh="" flag=""/>
            <path id="shapePath12" d="M52.1376,61.4394 C52.1376,62.2237 52.2945,62.459 52.8435,62.3414 C53.1964,62.2629 53.5102,61.8708 53.5102,61.4394 C53.5102,61.008 53.1964,60.6159 52.8435,60.5375 C52.2945,60.4198 52.1376,60.6551 52.1376,61.4394 Z" style="stroke:none;fill-rule:nonzero;fill:#000000;fill-opacity:1;"/>
        </g>
        <g id="Shape13">
            <desc shapeID="13" type="0" basicInfo-basicType="0" basicInfo-roundedRectRadius="12" basicInfo-polygonSides="6" basicInfo-starPoints="5" bounding="rect(-1.90688,-2.22193,3.81386,4.44384)" text="" font-familyName="" font-pixelSize="20" font-bold="0" font-underline="0" font-alignment="1" strokeStyle="0" markerStart="0" markerEnd="0" shadowEnabled="0" shadowOffsetX="0" shadowOffsetY="2" shadowBlur="4" shadowOpacity="160" blurEnabled="0" blurRadius="4" transform="matrix(0.39215,0,0,0.39215,48.2526,62.1241)" pers-center="0,0" pers-size="0,0" pers-start="0,0" pers-end="0,0" locked="0" mesh="" flag=""/>
            <path id="shapePath13" d="M47.5887,61.8316 C47.4711,62.1453 47.4711,62.5766 47.6279,62.8119 C47.9809,63.3609 49.0004,62.5766 49.0004,61.7923 C49.0004,61.0473 47.8632,61.0865 47.5887,61.8316 Z" style="stroke:none;fill-rule:nonzero;fill:#000000;fill-opacity:1;"/>
        </g>
        <g id="Shape14">
            <desc shapeID="14" type="0" basicInfo-basicType="0" basicInfo-roundedRectRadius="12" basicInfo-polygonSides="6" basicInfo-starPoints="5" bounding="rect(-2.87803,-2.8997,5.75596,5.79937)" text="" font-familyName="" font-pixelSize="20" font-bold="0" font-underline="0" font-alignment="1" strokeStyle="0" markerStart="0" markerEnd="0" shadowEnabled="0" shadowOffsetX="0" shadowOffsetY="2" shadowBlur="4" shadowOpacity="160" blurEnabled="0" blurRadius="4" transform="matrix(0.39215,0,0,0.39215,48.6562,66.701)" pers-center="0,0" pers-size="0,0" pers-start="0,0" pers-end="0,0" locked="0" mesh="" flag=""/>
            <path id="shapePath14" d="M48.0201,66.3413 C47.4319,66.9687 47.3926,67.2432 47.7848,67.6354 C48.1769,67.9883 48.4122,67.9099 49.0397,67.1648 C49.4318,66.655 49.7848,66.106 49.7848,65.9099 C49.7848,65.2825 48.7652,65.557 48.0201,66.3413 Z" style="stroke:none;fill-rule:nonzero;fill:#000000;fill-opacity:1;"/>
        </g>
    </g>
</svg>
