<?xml version="1.0"?>
<svg version="1.1" xmlns="http://www.w3.org/2000/svg" xmlns:xlink="http://www.w3.org/1999/xlink" width="100" height="100">
    <desc iVinci="yes" version="4.6" gridStep="20" showGrid="no" snapToGrid="no" codePlatform="0"/>
    <g id="Layer1" name="Layer 2" opacity="1">
        <g id="Shape1">
            <desc shapeID="1" type="0" basicInfo-basicType="0" basicInfo-roundedRectRadius="12" basicInfo-polygonSides="6" basicInfo-starPoints="5" bounding="rect(-42.8122,-3.90118,85.6244,7.80235)" text="" font-familyName="Helvetica" font-pixelSize="20" font-bold="0" font-underline="0" font-alignment="1" strokeStyle="0" markerStart="0" markerEnd="0" shadowEnabled="0" shadowOffsetX="0" shadowOffsetY="2" shadowBlur="4" shadowOpacity="160" blurEnabled="0" blurRadius="4" transform="matrix(1,0,0,1,51.5906,80.2227)" pers-center="0,0" pers-size="0,0" pers-start="0,0" pers-end="0,0" locked="0" mesh="" flag=""/>
            <path id="shapePath1" d="M8.77837,84.1239 C8.77837,84.1239 74.7695,84.0817 74.7695,84.0817 C74.7695,84.0817 94.4028,82.4521 94.4028,82.4521 C94.4028,82.4521 94.3252,76.3215 94.3252,76.3215 C94.3252,76.3215 9.4657,77.0568 9.4657,77.0568 C9.4657,77.0568 8.77837,84.1239 8.77837,84.1239 Z" style="stroke:none;fill-rule:evenodd;fill:#cba676;fill-opacity:1;"/>
        </g>
        <g id="Shape2">
            <desc shapeID="2" type="0" basicInfo-basicType="0" basicInfo-roundedRectRadius="12" basicInfo-polygonSides="6" basicInfo-starPoints="5" bounding="rect(-15.5197,-16.9592,31.0393,33.9184)" text="" font-familyName="Helvetica" font-pixelSize="20" font-bold="0" font-underline="0" font-alignment="1" strokeStyle="0" markerStart="0" markerEnd="0" shadowEnabled="0" shadowOffsetX="0" shadowOffsetY="2" shadowBlur="4" shadowOpacity="160" blurEnabled="0" blurRadius="4" transform="matrix(1,0,0,1,78.3217,42.4709)" pers-center="0,0" pers-size="0,0" pers-start="0,0" pers-end="0,0" locked="0" mesh="" flag=""/>
            <path id="shapePath2" d="M62.974,58.7835 C62.2585,55.2222 63.9405,51.5515 64.9917,48.0744 C65.3121,47.0146 66.9331,46.5405 67.0093,45.436 C67.2597,41.8051 65.6006,38.1969 65.9229,34.5717 C66.0374,33.2834 67.9704,32.7302 68.2509,31.4676 C68.5851,29.9641 66.458,27.8881 67.6301,26.8891 C69.5462,25.2561 72.5711,25.8565 75.0799,25.6475 C77.5546,25.4412 78.8728,25.2419 80.7311,26.8891 C82.2489,28.2344 83.6382,27.7478 85.656,27.9534 C88.5889,28.2522 90.9827,27.2073 92.7816,29.5834 C95.4925,33.1643 92.1042,34.576 92.4628,36.3565 C92.8581,38.3196 93.7399,40.44 93.0836,42.3319 C92.6854,43.4794 90.9714,43.562 89.8243,43.9615 C88.6505,44.3704 87.3912,44.4716 86.177,44.7375 C84.6751,45.0665 83.0701,45.0977 81.6761,45.7464 C80.3905,46.3446 79.6472,47.8373 78.3392,48.3848 C77.3121,48.8148 76.0616,48.1969 75.0023,48.54 C74.141,48.819 73.6319,49.7505 72.8295,50.1697 C71.8794,50.666 70.4363,50.3913 69.803,51.2561 C68.344,53.2485 68.6686,56.2886 67.0093,58.1175 C66.0933,59.1272 63.2425,60.1201 62.974,58.7835 Z" style="stroke:none;fill-rule:evenodd;fill:#e6e5cf;fill-opacity:1;"/>
        </g>
        <g id="Shape3">
            <desc shapeID="3" type="0" basicInfo-basicType="0" basicInfo-roundedRectRadius="12" basicInfo-polygonSides="6" basicInfo-starPoints="5" bounding="rect(0,0,0,0)" text="" font-familyName="Helvetica" font-pixelSize="20" font-bold="0" font-underline="0" font-alignment="1" strokeStyle="0" markerStart="0" markerEnd="0" shadowEnabled="0" shadowOffsetX="0" shadowOffsetY="2" shadowBlur="4" shadowOpacity="160" blurEnabled="0" blurRadius="4" transform="matrix(1,0,0,1,13.5574,75.9347)" pers-center="0,0" pers-size="0,0" pers-start="0,0" pers-end="0,0" locked="0" mesh="" flag=""/>
            <path id="shapePath3" d="M13.5574,75.9347 Z" style="stroke:none;fill-rule:evenodd;fill:#e6e5cf;fill-opacity:1;"/>
        </g>
        <g id="Shape4">
            <desc shapeID="4" type="0" basicInfo-basicType="0" basicInfo-roundedRectRadius="12" basicInfo-polygonSides="6" basicInfo-starPoints="5" bounding="rect(-12.4507,-7.06868,24.9014,14.1373)" text="" font-familyName="Helvetica" font-pixelSize="20" font-bold="0" font-underline="0" font-alignment="1" strokeStyle="0" markerStart="0" markerEnd="0" shadowEnabled="0" shadowOffsetX="0" shadowOffsetY="2" shadowBlur="4" shadowOpacity="160" blurEnabled="0" blurRadius="4" transform="matrix(1,0,0,1,26.0513,69.5669)" pers-center="0,0" pers-size="0,0" pers-start="0,0" pers-end="0,0" locked="0" mesh="" flag=""/>
            <path id="shapePath4" d="M13.8641,76.6356 C13.8641,76.6356 38.3115,76.2739 38.3115,76.2739 C38.3115,76.2739 38.502,69.0369 38.502,69.0369 C38.502,69.0369 36.2166,65.8628 36.2166,65.8628 C36.2166,65.8628 27.71,62.4983 27.71,62.4983 C27.71,62.4983 24.7898,63.5775 24.7898,63.5775 C24.7898,63.5775 18.1395,67.3666 15.3255,70.7299 C12.682,73.8893 13.8641,76.6356 13.8641,76.6356 Z" style="stroke:none;fill-rule:evenodd;fill:#e6c997;fill-opacity:1;"/>
        </g>
        <g id="Shape5">
            <desc shapeID="5" type="0" basicInfo-basicType="0" basicInfo-roundedRectRadius="12" basicInfo-polygonSides="6" basicInfo-starPoints="5" bounding="rect(0,0,0,0)" text="" font-familyName="Helvetica" font-pixelSize="20" font-bold="0" font-underline="0" font-alignment="1" strokeStyle="0" markerStart="0" markerEnd="0" shadowEnabled="0" shadowOffsetX="0" shadowOffsetY="2" shadowBlur="4" shadowOpacity="160" blurEnabled="0" blurRadius="4" transform="matrix(1,0,0,1,57.5316,76.5236)" pers-center="0,0" pers-size="0,0" pers-start="0,0" pers-end="0,0" locked="0" mesh="" flag=""/>
            <path id="shapePath5" d="M57.5316,76.5236 Z" style="stroke:none;fill-rule:evenodd;fill:#e6d6b3;fill-opacity:1;"/>
        </g>
        <g id="Shape6">
            <desc shapeID="6" type="0" basicInfo-basicType="0" basicInfo-roundedRectRadius="12" basicInfo-polygonSides="6" basicInfo-starPoints="5" bounding="rect(-15.9282,-4.58676,31.8565,9.17352)" text="" font-familyName="Helvetica" font-pixelSize="20" font-bold="0" font-underline="0" font-alignment="1" strokeStyle="0" markerStart="0" markerEnd="0" shadowEnabled="0" shadowOffsetX="0" shadowOffsetY="2" shadowBlur="4" shadowOpacity="160" blurEnabled="0" blurRadius="4" transform="matrix(1,0,0,1,73.6748,72.6536)" pers-center="0,0" pers-size="0,0" pers-start="0,0" pers-end="0,0" locked="0" mesh="" flag=""/>
            <path id="shapePath6" d="M57.7466,76.1295 C57.7466,76.1295 89.6031,77.2403 89.6031,77.2403 C89.6031,77.2403 88.5639,68.0668 88.5639,68.0668 C88.5639,68.0668 58.2948,68.9574 58.2948,68.9574 C58.2948,68.9574 57.7466,76.1295 57.7466,76.1295 Z" style="stroke:none;fill-rule:evenodd;fill:#e5e6bd;fill-opacity:1;"/>
        </g>
        <g id="Shape7">
            <desc shapeID="7" type="0" basicInfo-basicType="0" basicInfo-roundedRectRadius="12" basicInfo-polygonSides="6" basicInfo-starPoints="5" bounding="rect(-7.34598,-4.80177,14.692,9.60353)" text="" font-familyName="Helvetica" font-pixelSize="20" font-bold="0" font-underline="0" font-alignment="1" strokeStyle="0" markerStart="0" markerEnd="0" shadowEnabled="0" shadowOffsetX="0" shadowOffsetY="2" shadowBlur="4" shadowOpacity="160" blurEnabled="0" blurRadius="4" transform="matrix(1,0,0,1,69.2852,63.0859)" pers-center="0,0" pers-size="0,0" pers-start="0,0" pers-end="0,0" locked="0" mesh="" flag=""/>
            <path id="shapePath7" d="M61.9392,67.8876 C61.9392,67.8876 76.6311,67.0993 76.6311,67.0993 C76.6311,67.0993 75.9145,58.2841 75.9145,58.2841 C75.9145,58.2841 63.5517,58.4274 63.5517,58.4274 C63.5517,58.4274 61.9392,67.8876 61.9392,67.8876 Z" style="stroke:none;fill-rule:evenodd;fill:#c9e6ca;fill-opacity:1;"/>
        </g>
        <g id="Shape8">
            <desc shapeID="8" type="0" basicInfo-basicType="0" basicInfo-roundedRectRadius="12" basicInfo-polygonSides="6" basicInfo-starPoints="5" bounding="rect(-9.83645,-6.4143,19.6729,12.8286)" text="" font-familyName="Helvetica" font-pixelSize="20" font-bold="0" font-underline="0" font-alignment="1" strokeStyle="0" markerStart="0" markerEnd="0" shadowEnabled="0" shadowOffsetX="0" shadowOffsetY="2" shadowBlur="4" shadowOpacity="160" blurEnabled="0" blurRadius="4" transform="matrix(1,0,0,1,53.1777,70.2527)" pers-center="0,0" pers-size="0,0" pers-start="0,0" pers-end="0,0" locked="0" mesh="" flag=""/>
            <path id="shapePath8" d="M43.3413,76.6311 C43.3413,76.6311 57.3883,76.667 57.3883,76.667 C57.3883,76.667 57.6749,69.106 57.6749,69.106 C57.6749,69.106 63.0142,68.6043 63.0142,68.6043 C63.0142,68.6043 62.5842,63.8384 62.5842,63.8384 C62.5842,63.8384 44.488,63.9101 44.488,63.9101 C44.488,63.9101 43.3413,76.6311 43.3413,76.6311 Z" style="stroke:none;fill-rule:evenodd;fill:#d6e6dc;fill-opacity:1;"/>
        </g>
        <g id="Shape9">
            <desc shapeID="9" type="0" basicInfo-basicType="0" basicInfo-roundedRectRadius="12" basicInfo-polygonSides="6" basicInfo-starPoints="5" bounding="rect(-19.5682,-17.4788,39.1364,34.9576)" text="" font-familyName="Helvetica" font-pixelSize="20" font-bold="0" font-underline="0" font-alignment="1" strokeStyle="0" markerStart="0" markerEnd="0" shadowEnabled="0" shadowOffsetX="0" shadowOffsetY="2" shadowBlur="4" shadowOpacity="160" blurEnabled="0" blurRadius="4" transform="matrix(1,0,0,1,36.3278,58.4227)" pers-center="0,0" pers-size="0,0" pers-start="0,0" pers-end="0,0" locked="0" mesh="" flag=""/>
            <path id="shapePath9" d="M17.4196,69.3656 C17.4196,69.3656 27.2518,61.6931 27.2518,61.6931 C27.2518,61.6931 37.7661,67.547 37.7661,67.547 C37.7661,67.547 38.7322,75.9015 38.7322,75.9015 C38.7322,75.9015 44.5861,75.9015 44.5861,75.9015 C44.5861,75.9015 44.9271,63.5118 44.9271,63.5118 C44.9271,63.5118 55.896,63.7391 55.896,63.7391 C55.896,63.7391 55.8392,56.5212 55.8392,56.5212 C55.8392,56.5212 34.466,40.944 34.466,40.944 C34.466,40.944 16.7596,59.7466 16.7596,59.7466 C16.7596,59.7466 17.4196,69.3656 17.4196,69.3656 Z" style="stroke:none;fill-rule:evenodd;fill:#e6e5e0;fill-opacity:1;"/>
        </g>
        <g id="Shape10">
            <desc shapeID="10" type="0" basicInfo-basicType="0" basicInfo-roundedRectRadius="12" basicInfo-polygonSides="6" basicInfo-starPoints="5" bounding="rect(-86,-60.9596,172,121.919)" text="" font-familyName="" font-pixelSize="20" font-bold="0" font-underline="0" font-alignment="1" strokeStyle="0" markerStart="0" markerEnd="0" shadowEnabled="0" shadowOffsetX="0" shadowOffsetY="2" shadowBlur="4" shadowOpacity="160" blurEnabled="0" blurRadius="4" transform="matrix(0.531805,0.0293653,-0.0293653,0.531805,52.4747,55.3192)" pers-center="0,0" pers-size="0,0" pers-start="0,0" pers-end="0,0" locked="0" mesh="" flag=""/>
            <path id="shapePath10" d="M68.6291,24.5575 C66.2807,25.548 65.4452,27.1555 66.0693,29.377 C66.5218,30.8423 66.389,31.315 65.3613,32.5385 C64.3867,33.7649 64.1891,34.4474 64.3907,36.5923 C64.5271,37.9867 64.6223,40.1257 64.6641,41.3015 C64.7058,42.4774 64.8363,43.9782 65.0109,44.6813 C65.283,45.5498 65.032,46.2294 64.3528,46.9387 C63.7887,47.4943 63.4079,48.5935 63.4112,49.5005 C63.451,53.61 62.9704,56.5173 62.1257,57.3242 C61.6738,57.7793 61.5117,58.7839 61.6392,60.3379 L61.8262,62.7486 L59.3267,62.6106 L56.8804,62.4755 L57.0155,60.0292 C57.2034,56.6256 56.0595,55.1222 49.9098,50.5686 C47.0404,48.4365 43.4026,45.7285 41.8659,44.5768 C37.8173,41.5794 33.8993,40.0828 35.4895,42.1977 C36.5329,43.5889 52.8158,55.9033 54.4883,56.5291 C54.9581,56.715 55.2155,57.8494 55.16,59.8201 L55.0487,62.8011 L50.5166,62.7642 C46.8916,62.7241 45.7836,62.5029 45.3402,61.8383 C44.1993,60.2817 43.5559,62.2732 43.1976,68.7612 L42.8511,75.0365 L41.5216,74.9631 C40.3517,74.8985 40.2038,74.6769 40.3037,72.8688 C40.3624,71.8052 39.9393,69.8082 39.3213,68.4405 C38.4255,66.3106 37.7162,65.6314 33.9958,63.4522 C29.0343,60.5645 27.6073,60.3257 25.5368,62.0783 C24.698,62.7788 22.8048,64.2212 21.2511,65.309 L18.4746,67.2893 L17.98,63.6881 C17.5741,60.4118 17.6537,59.9361 18.5101,58.9165 C19.0772,58.3077 22.9284,54.253 27.0632,49.8938 C33.8647,42.6414 35.5303,40.493 34.1476,40.4166 C33.2967,40.3696 24.655,49.0674 20.9901,53.6125 C19.1001,55.9619 17.2247,58.0454 16.8407,58.2376 C16.3444,58.5302 16.0377,60.2202 15.7731,64.0463 C15.4586,68.7764 15.2521,69.6185 14.3099,70.2599 C13.7014,70.6531 13.0401,72.0035 12.7598,73.2149 C12.1758,76.0631 10.9794,76.4771 10.689,74.0073 C10.4965,72.6632 10.1507,72.164 9.40615,72.1229 C8.55528,72.0759 8.32199,72.4364 8.23977,73.9255 C8.14873,75.5741 7.97745,75.778 6.80747,75.7134 C5.74386,75.6546 5.46328,75.9058 5.40454,76.9695 C5.34875,77.9799 5.59703,78.3136 6.55428,78.3665 C7.51152,78.4194 7.8603,78.8654 8.24493,80.5936 C8.65928,82.7502 8.65928,82.7502 7.17027,82.6679 C5.89392,82.5975 5.61627,82.7955 5.5546,83.9123 C5.50468,84.8163 5.74709,85.2565 6.43843,85.2946 C6.91707,85.3211 13.9633,85.2301 22.0229,85.1417 C35.5807,84.9835 36.7004,84.992 37.2916,85.8781 C37.8326,86.7081 37.8857,86.7111 37.9888,85.8099 C38.0241,85.1718 38.4642,84.9294 39.5278,84.9881 C40.3255,85.0321 44.701,85.007 49.236,84.9907 C53.774,84.9212 61.4496,85.025 66.2978,85.1327 C71.146,85.2404 76.8096,85.073 78.854,84.7592 C80.9486,84.5014 84.6445,84.2254 87.1527,84.2039 C92.7602,84.0868 96.7986,83.403 96.8515,82.4457 C96.872,82.0735 96.411,81.728 95.826,81.6956 C94.922,81.6457 94.783,81.2647 94.8799,79.5097 C94.9592,78.0738 95.2721,77.2376 95.8127,77.1074 C96.9559,76.6905 96.923,75.3551 95.6998,75.2876 C95.168,75.2582 94.6094,74.7473 94.4822,74.1535 C94.1419,72.5878 92.5909,72.6621 92.4998,74.3107 C92.4088,75.9593 91.0734,75.9923 90.6858,74.3172 C90.5616,73.6703 90.4989,71.9065 90.5811,70.4174 C90.6927,68.3966 90.524,67.5871 89.9006,67.286 C89.4307,67.1 86.4614,66.776 83.2706,66.5999 C79.3353,66.3825 77.5359,66.1232 77.7692,65.7626 C78.348,64.9411 77.412,57.7415 76.7235,57.6502 C76.3513,57.6296 74.2773,57.5151 72.0939,57.4479 C68.5279,57.3043 68.2117,57.2335 69.154,56.5921 C69.8156,56.2019 70.2998,55.1618 70.4205,53.9415 C70.5324,52.8809 70.801,51.8822 70.9694,51.7315 C71.1377,51.5807 72.2071,51.5331 73.4333,51.5475 C74.8691,51.6267 75.8972,51.3634 76.3579,50.7488 C76.7034,50.2878 77.6929,49.7556 78.5023,49.587 C79.3089,49.4715 80.4136,48.7857 80.9333,48.0676 C81.6273,47.0924 82.3363,46.8115 83.6658,46.8849 C84.7294,46.9436 85.9229,46.5828 86.5401,46.0301 C87.1013,45.5277 88.6729,45.081 90.0644,44.9978 C93.0631,44.79 94.5635,43.6993 95.1714,41.3858 C95.6553,39.3855 94.5078,36.0149 93.0096,35.132 C91.8246,34.3732 90.0938,35.7712 90.6083,37.0798 C90.7946,37.5702 90.9339,38.9114 90.8693,40.0814 L90.805,42.2116 L88.146,42.0647 C85.7529,41.9326 85.4811,42.0243 85.2569,43.1854 C85.0387,44.2402 84.764,44.3851 83.2364,44.034 C81.2864,43.6063 79.9689,44.2803 79.5618,45.8581 C79.3552,46.7002 78.9742,46.8392 77.3314,46.6418 C75.6887,46.4444 75.2545,46.5805 74.7142,47.6708 C74.2949,48.5012 73.4146,48.986 72.3393,49.14 C70.1354,49.445 68.83,50.8665 68.4793,53.3543 C68.2819,54.997 67.9925,55.4077 66.9762,55.4583 C66.0633,55.5679 65.8359,55.8221 66.0046,56.6315 C66.2294,57.3908 66.0551,57.6479 65.3107,57.6067 C64.3534,57.5539 64.3681,57.288 65.1231,53.2756 C65.7453,49.736 66.1113,48.9028 67.2751,48.1135 C68.4389,47.3243 68.5599,47.0643 68.0898,45.9181 C67.0934,43.6761 67.2552,41.7113 68.4252,41.7759 C69.4888,41.8347 69.5443,39.864 68.513,39.2203 C68.1022,38.9309 67.632,37.7848 67.5371,36.606 C67.3799,34.6236 67.495,34.47 69.3531,33.6657 C71.6986,32.7284 71.8666,31.6175 70.052,29.7036 L68.6865,28.348 L70.0572,27.6769 C70.7691,27.3428 72.4885,27.1177 73.9273,27.1438 C76.0545,27.2613 76.4356,27.1223 76.4855,26.2182 C76.6,24.1442 71.9612,23.1412 68.6291,24.5575 M74.6306,62.7088 L74.7735,65.9173 L69.3167,66.2027 C66.321,66.3574 63.863,66.435 63.8128,66.3789 C63.7596,66.376 63.9511,64.8396 64.2076,63.0935 C64.5168,60.3901 64.7589,59.87 65.4947,60.0707 C65.9674,60.2035 68.1596,60.1111 70.3605,59.8593 C72.5644,59.5542 74.3872,59.3882 74.4404,59.3911 C74.4906,59.4472 74.5709,60.8919 74.6306,62.7088 M61.4934,65.8774 C61.4493,66.6751 60.7906,67.0122 58.7433,67.3792 C57.2869,67.6722 56.0402,68.0301 56.0314,68.1896 C56.0197,68.4023 56.218,69.6402 56.4666,70.9341 C56.6621,72.2251 56.6862,73.7201 56.4973,74.2431 C56.0043,75.4427 53.6024,75.4701 53.2416,74.2767 C52.8719,73.2427 51.4921,73.1132 51.4363,74.1236 C51.3717,75.2936 49.5577,75.3001 49.0374,74.0979 C48.3692,72.674 47.5685,72.6832 47.2794,74.0541 C47.1349,74.7396 46.7333,75.2509 46.361,75.2303 C45.7229,75.1951 45.2103,70.9527 45.4188,67.1769 L45.4981,65.741 L50.7304,65.6565 C53.5606,65.5994 56.772,65.4034 57.7942,65.2464 C60.8666,64.6693 61.555,64.7606 61.4934,65.8774 M32.1234,65.4826 C34.57,66.5778 36.7478,67.7116 36.9429,68.0424 C37.1409,68.3201 37.2567,70.0868 37.1569,71.8949 C36.9925,74.873 36.8656,75.2394 35.9615,75.1895 C35.3765,75.1572 34.7648,74.6433 34.6375,74.0495 C34.5102,73.4557 34.1113,72.9536 33.7922,72.936 C33.5263,72.9213 33.1276,73.3794 32.9358,73.9556 C32.4871,75.3177 30.9981,75.2355 30.2235,73.8058 C29.4963,72.4854 28.5746,72.7546 28.4895,74.2968 C28.4014,75.8922 25.3789,75.5653 25.2011,73.9552 C25.0409,72.026 23.4928,72.0472 23.0148,73.9412 C22.4158,76.0951 20.714,76.0012 20.0396,73.7235 C19.5072,71.7738 18.2781,71.8126 17.9538,73.8217 C17.7946,74.7731 17.4018,75.1248 16.6602,75.0305 C15.9186,74.9362 15.6762,74.4961 15.7438,73.273 C15.823,71.8371 16.3872,71.2815 19.657,69.0616 C21.76,67.6841 24.0491,65.8369 24.7874,65.0241 C25.5258,64.2114 26.4709,63.5168 26.8964,63.5403 C27.3247,63.5106 29.6738,64.4405 32.1234,65.4826 M87.0037,71.4468 C87.1371,72.8944 87.3179,74.4513 87.4509,74.9388 C87.6226,75.695 87.3449,75.8931 86.3876,75.8402 C85.6432,75.7991 84.9694,75.4418 84.8304,75.0608 C84.6973,74.5733 84.325,74.5528 83.2291,75.079 C81.8614,75.697 81.6488,75.6852 81.0102,74.6898 C80.3215,73.6383 80.3215,73.6383 79.406,74.7612 C78.2602,76.1916 77.6191,76.2095 77.27,74.8033 C77.1427,74.2095 76.7438,73.7074 76.4247,73.6898 C76.1588,73.6751 75.76,74.1332 75.5682,74.7094 C75.1137,76.1779 72.9924,75.954 72.3833,74.4268 L71.919,73.1743 L71.2133,74.3622 C70.3924,75.7038 67.3435,75.8555 67.4169,74.526 C67.4815,73.356 66.0339,73.4894 65.6473,74.695 C65.2548,76.0069 63.3374,75.9543 62.6633,74.6369 C62.1785,73.7566 62.0721,73.7508 61.3338,74.5635 C60.9322,75.0747 60.0578,75.4532 59.4196,75.4179 C58.4092,75.3621 58.3204,75.0372 58.4497,72.6973 C58.6258,69.5064 57.7574,69.7785 70.3135,69.405 C75.4452,69.2083 79.7261,68.9646 79.8945,68.8138 C80.0628,68.6631 81.6641,68.6448 83.5254,68.7476 L86.8226,68.9297 L87.0037,71.4468 M92.2679,78.512 C92.2444,78.9374 92.3125,79.6346 92.4515,80.0157 C92.6378,80.5061 92.3041,80.7544 91.6127,80.7162 C90.815,80.6722 90.5697,80.2852 90.6313,79.1684 C90.6842,78.2112 90.9795,77.694 91.5113,77.7234 C91.9367,77.7469 92.2914,78.0865 92.2679,78.512 M82.5985,79.7384 C82.5074,81.387 82.2151,81.8509 81.0129,82.3713 C79.9228,82.7912 79.7101,82.7794 80.2151,82.3272 C80.6079,81.9755 80.9384,80.8202 81.0001,79.7035 C81.0794,78.2676 81.3244,77.6943 81.9094,77.7266 C82.4944,77.7589 82.6748,78.3557 82.5985,79.7384 M87.5145,79.5831 C87.6509,80.9775 87.4797,81.1814 86.1414,81.2676 C84.3185,81.4336 84.1175,81.2092 84.5955,79.3152 C84.8669,78.2633 85.2598,77.9116 86.1638,77.9616 C87.0679,78.0115 87.4196,78.4043 87.5145,79.5831 M74.6573,80.5801 L74.6671,83.3011 L73.1424,82.8969 C72.3004,82.6903 70.6606,82.4398 69.4374,82.3722 L67.2039,82.2489 L67.5341,80.1334 C67.8466,78.337 68.0769,78.0297 69.0874,78.0855 C70.0978,78.1413 70.3461,78.475 70.4292,79.8665 C70.501,82.431 72.0018,82.3005 72.3585,79.7064 C72.547,78.2232 72.8925,77.7622 73.6371,77.8033 C74.4348,77.8473 74.6211,78.3377 74.6573,80.5801 M78.87,79.6392 C78.823,80.4901 78.9238,81.5625 79.0569,82.0499 C79.2876,82.7028 79.0099,82.9008 77.8931,82.8391 C76.7763,82.7775 76.5222,82.5501 76.8233,81.9266 C77.0093,81.4568 77.2276,80.402 77.2745,79.5511 C77.3303,78.5406 77.6256,78.0235 78.1574,78.0529 C78.6892,78.0823 78.9258,78.6287 78.87,79.6392 M60.7475,79.3853 C60.6946,80.3425 60.9018,81.4208 61.2535,81.8136 C61.7057,82.3187 61.5374,82.4694 60.4738,82.4107 C59.3569,82.349 59.0555,82.0123 58.863,80.6681 C58.478,77.9797 58.664,77.5099 59.7808,77.5716 C60.6317,77.6186 60.8238,78.0026 60.7475,79.3853 M64.7063,79.1771 C64.4496,79.9631 64.5592,80.876 64.908,81.322 C65.4016,82.0427 65.2894,82.1432 64.1194,82.0786 C62.843,82.0081 62.7484,81.7895 62.8541,79.875 C62.9511,78.12 63.1312,77.7566 64.0352,77.8065 C64.9393,77.8564 65.031,78.1282 64.7063,79.1771 M46.7496,79.7859 C46.7561,81.5999 46.5642,82.1761 45.9261,82.1408 C45.3411,82.1085 45.1636,81.4586 45.2605,79.7037 C45.3516,78.0551 45.6054,77.3223 46.0841,77.3487 C46.5626,77.3751 46.7845,78.1875 46.7496,79.7859 M50.6461,78.7742 C50.608,79.4655 50.7088,80.5379 50.8331,81.1849 C51.0432,82.21 50.8719,82.4139 49.9678,82.364 C49.0106,82.3111 48.8687,81.9832 48.9832,79.9092 C49.0801,78.1543 49.3281,77.5278 49.913,77.5601 C50.3917,77.5866 50.6843,78.0828 50.6461,78.7742 M55.9113,80.0251 C55.8056,81.9396 55.6875,82.1464 54.4643,82.0789 C53.2944,82.0143 53.1466,81.7927 53.2523,79.8782 C53.358,77.9637 53.5293,77.7598 54.6993,77.8244 C55.9224,77.892 56.017,78.1106 55.9113,80.0251 M36.7076,80.0315 L36.5608,82.6905 L34.8058,82.5936 C33.7954,82.5378 31.1276,82.5506 28.8822,82.6399 L24.7697,82.7329 L25.0731,80.1359 C25.3648,77.7516 25.4829,77.5447 26.8745,77.4615 C28.1596,77.3725 28.3103,77.5408 28.2369,78.8703 C28.1283,80.838 28.8141,81.9427 29.8982,81.6292 C30.4418,81.4458 30.8049,80.6657 30.8724,79.4426 C30.9429,78.1663 31.188,77.593 31.7729,77.6253 C32.3579,77.6576 32.5383,78.2544 32.4679,79.5307 C32.4003,80.7538 32.6753,81.5692 33.1954,81.8113 C34.3419,82.3013 35.1008,81.1163 35.0055,78.9774 C34.9726,77.642 35.1527,77.2785 35.8972,77.3196 C36.6949,77.3637 36.828,77.8511 36.7076,80.0315 M42.6785,80.0945 L42.7059,82.4964 L40.685,82.3848 C38.9833,82.2909 38.673,82.1137 38.9771,81.4371 C39.163,80.9672 39.3813,79.9124 39.4283,79.0616 C39.5017,77.732 39.7262,77.5311 41.0557,77.6045 C42.4916,77.6838 42.5892,77.8492 42.6785,80.0945 M22.3577,79.0791 C22.3107,79.93 22.4677,80.9522 22.7632,81.3952 C23.2451,82.3287 22.4624,82.9789 20.8138,82.8879 C19.8565,82.835 19.7649,82.5632 20.0566,80.1789 C20.3365,78.0073 20.5757,77.5405 21.4265,77.5874 C22.1711,77.6286 22.4164,78.0155 22.3577,79.0791 M17.4892,80.3039 C17.3688,82.4843 17.2508,82.6911 16.0276,82.6236 C14.8044,82.556 14.7098,82.3375 14.8302,80.1571 C14.9506,77.9766 15.0687,77.7698 16.2919,77.8373 C17.515,77.9049 17.6096,78.1235 17.4892,80.3039 M12.4932,79.9747 C12.7451,82.1756 12.3287,82.9528 10.8397,82.8706 C9.98879,82.8236 9.84397,82.5489 10.1627,81.6063 C10.3575,80.9769 10.5758,79.9221 10.6139,79.2308 C10.7197,77.3163 12.1794,77.9303 12.4932,79.9747 Z" style="stroke:none;fill-rule:nonzero;fill:#000000;fill-opacity:1;"/>
        </g>
        <g id="Shape11">
            <desc shapeID="11" type="0" basicInfo-basicType="0" basicInfo-roundedRectRadius="12" basicInfo-polygonSides="6" basicInfo-starPoints="5" bounding="rect(-1.58374,-6.18958,3.16757,12.3792)" text="" font-familyName="" font-pixelSize="20" font-bold="0" font-underline="0" font-alignment="1" strokeStyle="0" markerStart="0" markerEnd="0" shadowEnabled="0" shadowOffsetX="0" shadowOffsetY="2" shadowBlur="4" shadowOpacity="160" blurEnabled="0" blurRadius="4" transform="matrix(0.531805,0.0293653,-0.0293653,0.531805,59.4599,89.9883)" pers-center="0,0" pers-size="0,0" pers-start="0,0" pers-end="0,0" locked="0" mesh="" flag=""/>
            <path id="shapePath11" d="M58.9804,87.2358 C58.7413,87.7026 58.6059,89.1888 58.6329,90.6305 C58.6336,92.5509 58.8613,93.2569 59.4463,93.2892 C60.0844,93.3244 60.2231,92.7453 60.246,90.3995 C60.2538,87.3594 59.5945,85.7761 58.9804,87.2358 Z" style="stroke:none;fill-rule:nonzero;fill:#000000;fill-opacity:1;"/>
        </g>
        <g id="Shape12">
            <desc shapeID="12" type="0" basicInfo-basicType="0" basicInfo-roundedRectRadius="12" basicInfo-polygonSides="6" basicInfo-starPoints="5" bounding="rect(-2.23461,-6.39789,4.46916,12.7958)" text="" font-familyName="" font-pixelSize="20" font-bold="0" font-underline="0" font-alignment="1" strokeStyle="0" markerStart="0" markerEnd="0" shadowEnabled="0" shadowOffsetX="0" shadowOffsetY="2" shadowBlur="4" shadowOpacity="160" blurEnabled="0" blurRadius="4" transform="matrix(0.531805,0.0293653,-0.0293653,0.531805,56.533,90.47)" pers-center="0,0" pers-size="0,0" pers-start="0,0" pers-end="0,0" locked="0" mesh="" flag=""/>
            <path id="shapePath12" d="M55.8842,87.2782 C55.3792,87.7303 55.1501,91.8784 55.5139,93.0187 C55.8777,94.159 57.1037,94.1733 57.4875,93.021 C57.6734,92.5512 57.7024,91.0592 57.6134,89.774 C57.3645,87.5199 56.723,86.5777 55.8842,87.2782 Z" style="stroke:none;fill-rule:nonzero;fill:#000000;fill-opacity:1;"/>
        </g>
        <g id="Shape13">
            <desc shapeID="13" type="0" basicInfo-basicType="0" basicInfo-roundedRectRadius="12" basicInfo-polygonSides="6" basicInfo-starPoints="5" bounding="rect(-4.39526,-9.88795,8.7906,19.7759)" text="" font-familyName="" font-pixelSize="20" font-bold="0" font-underline="0" font-alignment="1" strokeStyle="0" markerStart="0" markerEnd="0" shadowEnabled="0" shadowOffsetX="0" shadowOffsetY="2" shadowBlur="4" shadowOpacity="160" blurEnabled="0" blurRadius="4" transform="matrix(0.531805,0.0293653,-0.0293653,0.531805,63.3384,94.2445)" pers-center="0,0" pers-size="0,0" pers-start="0,0" pers-end="0,0" locked="0" mesh="" flag=""/>
            <path id="shapePath13" d="M64.0985,90.1855 C63.7236,91.1783 63.6704,91.1754 63.2329,90.4044 C62.6593,89.1992 61.2766,89.1229 61.212,90.2928 C61.1856,90.7715 61.6114,91.7551 62.2143,92.4285 L63.2133,93.6572 L61.8936,96.3048 C60.2727,99.5759 60.7604,100.403 62.9696,98.0712 C65.409,95.4321 66.8753,89.1653 65.0671,89.0655 C64.8012,89.0508 64.3465,89.5591 64.0985,90.1855 Z" style="stroke:none;fill-rule:nonzero;fill:#000000;fill-opacity:1;"/>
        </g>
        <g id="Shape14">
            <desc shapeID="14" type="0" basicInfo-basicType="0" basicInfo-roundedRectRadius="12" basicInfo-polygonSides="6" basicInfo-starPoints="5" bounding="rect(-6.72098,-4.90675,13.4419,9.81349)" text="" font-familyName="" font-pixelSize="20" font-bold="0" font-underline="0" font-alignment="1" strokeStyle="0" markerStart="0" markerEnd="0" shadowEnabled="0" shadowOffsetX="0" shadowOffsetY="2" shadowBlur="4" shadowOpacity="160" blurEnabled="0" blurRadius="4" transform="matrix(0.531805,0.0293653,-0.0293653,0.531805,51.4631,92.09)" pers-center="0,0" pers-size="0,0" pers-start="0,0" pers-end="0,0" locked="0" mesh="" flag=""/>
            <path id="shapePath14" d="M48.6765,90.2941 C46.7035,92.2122 48.758,95.5795 50.8787,93.883 C51.7175,93.1825 51.8771,93.1913 52.4741,93.9711 C53.219,94.9724 54.3299,95.1404 54.8555,94.3159 C55.3723,93.651 53.4216,91.3029 51.4033,90.178 C49.5949,89.1179 49.8637,89.0794 48.6765,90.2941 M50.4086,92.7368 C49.6229,93.4402 49.1322,92.6663 49.6194,91.5731 C49.9825,90.793 50.0888,90.7988 50.479,91.4605 C50.7717,91.9567 50.6891,92.4856 50.4086,92.7368 Z" style="stroke:none;fill-rule:nonzero;fill:#000000;fill-opacity:1;"/>
        </g>
        <g id="Shape15">
            <desc shapeID="15" type="0" basicInfo-basicType="0" basicInfo-roundedRectRadius="12" basicInfo-polygonSides="6" basicInfo-starPoints="5" bounding="rect(-6.50434,-5,13.0087,10)" text="" font-familyName="" font-pixelSize="20" font-bold="0" font-underline="0" font-alignment="1" strokeStyle="0" markerStart="0" markerEnd="0" shadowEnabled="0" shadowOffsetX="0" shadowOffsetY="2" shadowBlur="4" shadowOpacity="160" blurEnabled="0" blurRadius="4" transform="matrix(0.531805,0.0293653,-0.0293653,0.531805,42.7341,92.0997)" pers-center="0,0" pers-size="0,0" pers-start="0,0" pers-end="0,0" locked="0" mesh="" flag=""/>
            <path id="shapePath15" d="M43.8403,90.9339 C44.0889,92.2278 44.0328,92.2781 43.2703,91.5959 C42.5078,90.9136 42.2951,90.9019 41.607,91.7707 C40.8097,92.6869 40.8097,92.6869 40.8713,91.5701 C40.9447,90.2406 40.0021,89.9218 39.5092,91.1215 C38.8479,92.4719 39.5842,94.5929 40.701,94.6545 C41.2328,94.6839 41.8856,94.4532 42.0599,94.1962 C42.2902,93.8888 42.6683,93.803 42.9225,94.0304 C43.2328,94.2076 44.0305,94.2516 44.7838,94.1332 C46.9433,93.6657 46.5254,89.6419 44.2918,89.5186 C43.76,89.4892 43.6331,89.8556 43.8403,90.9339 Z" style="stroke:none;fill-rule:nonzero;fill:#000000;fill-opacity:1;"/>
        </g>
    </g>
</svg>
