<?xml version="1.0"?>
<svg version="1.1" xmlns="http://www.w3.org/2000/svg" xmlns:xlink="http://www.w3.org/1999/xlink" width="100" height="100">
    <desc iVinci="yes" version="4.6" gridStep="20" showGrid="no" snapToGrid="no" codePlatform="0"/>
    <g id="Layer1" name="Layer 2" opacity="1">
        <g id="Shape1">
            <desc shapeID="1" type="0" basicInfo-basicType="0" basicInfo-roundedRectRadius="12" basicInfo-polygonSides="6" basicInfo-starPoints="5" bounding="rect(-49.4942,-15.5039,98.9883,31.0077)" text="" font-familyName="Helvetica" font-pixelSize="20" font-bold="0" font-underline="0" font-alignment="1" strokeStyle="0" markerStart="0" markerEnd="0" shadowEnabled="0" shadowOffsetX="0" shadowOffsetY="2" shadowBlur="4" shadowOpacity="160" blurEnabled="0" blurRadius="4" transform="matrix(1,0,0,1,50.3787,83.6411)" pers-center="0,0" pers-size="0,0" pers-start="0,0" pers-end="0,0" locked="0" mesh="" flag=""/>
            <path id="shapePath1" d="M97.7744,68.4554 C87.4471,66.5515 77.3804,73.7651 66.9451,74.9412 C56.5257,76.1154 45.9602,74.8462 35.4938,75.4742 C28.1676,75.9138 20.8767,76.93 13.6378,78.1396 C9.5146,78.8286 5.10226,79.065 2.70979,82.493 C0.0313301,86.3308 0.20586,92.6353 3.86478,95.5533 C9.45749,100.014 15.8145,98.1616 22.9666,98.3075 C27.5667,98.4014 29.9253,97.1168 34.5165,97.4191 C37.464,97.6131 41.886,99.4277 44.8225,99.1071 C49.3782,98.6098 52.3256,93.8481 56.9055,93.6876 C70.591,93.2078 82.0213,101.892 95.1091,97.8633 C100.552,96.1875 98.7517,86.5004 98.7517,80.805 C98.7517,76.6756 101.835,69.2041 97.7744,68.4554 Z" style="stroke:none;fill-rule:evenodd;fill:#8dbf6b;fill-opacity:1;"/>
        </g>
        <g id="Shape2">
            <desc shapeID="2" type="0" basicInfo-basicType="0" basicInfo-roundedRectRadius="12" basicInfo-polygonSides="6" basicInfo-starPoints="5" bounding="rect(-8.56251,-14.8451,17.125,29.6901)" text="" font-familyName="Helvetica" font-pixelSize="20" font-bold="0" font-underline="0" font-alignment="1" strokeStyle="0" markerStart="0" markerEnd="0" shadowEnabled="0" shadowOffsetX="0" shadowOffsetY="2" shadowBlur="4" shadowOpacity="160" blurEnabled="0" blurRadius="4" transform="matrix(1,0,0,1,34.6807,60.7229)" pers-center="0,0" pers-size="0,0" pers-start="0,0" pers-end="0,0" locked="0" mesh="" flag=""/>
            <path id="shapePath2" d="M29.4115,75.568 C29.4115,75.568 27.4862,56.1123 27.4862,56.1123 C27.4862,56.1123 26.3209,52.2111 26.3209,52.2111 C26.3209,52.2111 26.9795,50.1338 26.9795,50.1338 C26.9795,50.1338 26.1182,47.7525 26.1182,47.7525 C26.1182,47.7525 28.2968,46.7898 28.2968,46.7898 C28.2968,46.7898 30.8808,49.2724 30.8808,49.2724 C30.8808,49.2724 33.8194,48.9685 33.8194,48.9685 C33.8194,48.9685 34.7314,48.1578 34.7314,48.1578 C34.7314,48.1578 38.3286,49.3231 38.3286,49.3231 C38.3286,49.3231 40.4059,45.9285 40.4059,45.9285 C40.4059,45.9285 41.5206,45.8778 41.5206,45.8778 C41.5206,45.8778 41.3179,49.8804 41.3179,49.8804 C41.3179,49.8804 43.2432,54.643 43.2432,54.6937 C43.2432,54.7443 40.8113,56.9736 40.7606,56.9736 C40.7099,56.9736 41.3179,62.1415 41.3179,62.1415 C41.3179,62.1415 41.2166,65.1815 41.2166,65.1815 C41.2166,65.1815 40.0513,67.6134 40.0513,67.6134 C40.0513,67.6134 40.1526,74.504 40.1526,74.504 C40.1526,74.504 29.4115,75.568 29.4115,75.568 Z" style="stroke:none;fill-rule:evenodd;fill:#f3f6e1;fill-opacity:1;"/>
        </g>
        <g id="Shape3">
            <desc shapeID="3" type="0" basicInfo-basicType="0" basicInfo-roundedRectRadius="12" basicInfo-polygonSides="6" basicInfo-starPoints="5" bounding="rect(-0.521061,-4.34217,1.04212,8.68435)" text="" font-familyName="Helvetica" font-pixelSize="20" font-bold="0" font-underline="0" font-alignment="1" strokeStyle="0" markerStart="0" markerEnd="0" shadowEnabled="0" shadowOffsetX="0" shadowOffsetY="2" shadowBlur="4" shadowOpacity="160" blurEnabled="0" blurRadius="4" transform="matrix(1,0,0,1,2.08424,78.0897)" pers-center="0,0" pers-size="0,0" pers-start="0,0" pers-end="0,0" locked="0" mesh="" flag=""/>
            <path id="shapePath3" d="M2.6053,82.4318 C2.6053,82.4318 1.56318,73.7475 1.56318,73.7475 C1.56318,73.7475 2.6053,82.4318 2.6053,82.4318 Z" style="stroke:none;fill-rule:evenodd;fill:#f3f6e1;fill-opacity:1;"/>
        </g>
        <g id="Shape4">
            <desc shapeID="4" type="0" basicInfo-basicType="0" basicInfo-roundedRectRadius="12" basicInfo-polygonSides="6" basicInfo-starPoints="5" bounding="rect(-47.9636,-11.1169,95.9273,22.2339)" text="" font-familyName="Helvetica" font-pixelSize="20" font-bold="0" font-underline="0" font-alignment="1" strokeStyle="0" markerStart="0" markerEnd="0" shadowEnabled="0" shadowOffsetX="0" shadowOffsetY="2" shadowBlur="4" shadowOpacity="160" blurEnabled="0" blurRadius="4" transform="matrix(1,0,0,1,50.7625,70.5655)" pers-center="0,0" pers-size="0,0" pers-start="0,0" pers-end="0,0" locked="0" mesh="" flag=""/>
            <path id="shapePath4" d="M2.7989,81.6824 C16.205,77.2013 29.0057,76.6659 43.2378,75.6465 C53.7064,74.8966 64.7056,76.468 75.1311,75.2585 C79.9944,74.6943 84.8132,72.5646 89.6402,71.418 C92.7472,70.6799 95.6854,70.8056 98.1047,68.7862 C100.854,66.4915 93.7822,63.9326 90.5524,62.3862 C86.5459,60.4679 81.9793,59.8237 77.5526,59.4549 C76.0928,59.3332 80.0483,61.0027 81.3761,61.6215 C84.43,63.0447 88.1291,63.3711 90.6798,65.5724 C91.709,66.4606 91.9995,69.9774 90.6798,69.6508 C85.8972,68.4669 81.944,59.7096 77.8075,62.3862 C73.9528,64.8804 86.114,65.3391 86.7788,69.882 C87.2866,73.3516 81.725,69.1465 78.5722,67.6116 C75.2237,65.9814 72.7853,62.3887 69.141,61.6215 C67.5234,61.2809 70.0493,65.0103 71.3076,66.0822 C73.6513,68.0787 77.2068,68.3221 79.4643,70.4155 C80.0635,70.9711 79.1333,72.6258 78.3173,72.5821 C76.1504,72.466 74.052,71.3499 72.3272,70.0331 C70.008,68.2626 69.0419,64.9008 66.4645,63.5332 C64.5128,62.4976 61.9208,62.6704 59.8372,63.4058 C58.9477,63.7197 61.3021,64.6129 62.1313,65.0626 C63.8188,65.9779 65.8519,66.292 67.3567,67.4841 C69.1987,68.9434 71.5585,70.5189 71.9448,72.837 C72.1474,74.0522 69.3214,73.4432 68.2488,72.837 C65.2277,71.1294 63.0893,68.1611 60.2196,66.2096 C58.8034,65.2467 57.2106,64.0282 55.5039,64.1705 C54.5639,64.2488 56.4938,65.7975 57.1608,66.4645 C59.4361,68.7399 63.7049,69.8018 64.2979,72.9644 C64.6666,74.9309 60.0235,73.6115 58.3078,72.5821 C55.2678,70.7581 54.3413,64.0217 50.9158,64.9352 C47.8971,65.7401 54.8779,70.5024 54.4844,73.6017 C54.2898,75.1334 50.9026,74.1355 49.8962,72.9644 C48.1799,70.9673 49.0802,67.5321 47.4747,65.445 C46.8834,64.6763 46.1305,67.026 46.0727,67.9939 C45.9524,70.0091 48.0728,72.2965 46.9649,73.984 C46.1836,75.174 43.5998,74.1367 42.8229,72.9439 C41.7573,71.3079 42.8836,69.0067 42.479,67.0966 C42.4178,66.8077 41.6581,66.8574 41.5945,67.1457 C41.1488,69.1674 41.6698,71.3458 41.1031,73.337 C40.9807,73.767 40.0418,73.8933 39.7764,73.5336 C38.9026,72.3487 39.267,70.4247 38.204,69.4061 C37.6989,68.9219 36.3973,69.4616 36.2386,70.1431 C35.9061,71.5699 37.8763,73.2751 37.0248,74.4672 C36.3002,75.4815 34.2567,75.058 33.2903,74.2706 C32.149,73.3406 32.7667,71.1764 31.718,70.1431 C31.2535,69.6854 30.2772,70.415 29.949,70.9784 C29.3231,72.0531 29.7965,75.654 29.1137,74.6146 C27.4684,72.1098 29.5238,65.0939 26.6568,65.9665 C23.5556,66.9103 26.8701,72.6144 25.7232,75.6465 C25.4095,76.476 23.3844,76.2791 23.0698,75.4499 C22.2508,73.2905 23.751,70.7126 23.0207,68.5216 C22.7715,67.7741 21.5475,69.3948 21.3009,70.1431 C20.5745,72.3477 21.6074,74.1965 19.9661,75.8378 C18.9831,76.8208 18.5477,74.7916 17.8613,73.5827 C17.1016,72.2446 17.0121,68.347 15.8958,69.4061 C14.4461,70.7814 16.0453,73.405 15.945,75.4008 C15.8974,76.3474 16.0761,78.9163 15.4536,78.2016 C14.0888,76.6345 14.8284,73.753 13.2916,72.3543 C12.5781,71.7049 11.4067,73.3136 11.0804,74.2215 C10.5818,75.6088 8.80195,77.0972 7.71191,78.0897 C5.2644,80.3182 3.13602,81.328 2.7989,81.6824 Z" style="stroke:none;fill-rule:evenodd;fill:#bfbe69;fill-opacity:1;"/>
        </g>
        <g id="Shape5">
            <desc shapeID="5" type="0" basicInfo-basicType="0" basicInfo-roundedRectRadius="12" basicInfo-polygonSides="6" basicInfo-starPoints="5" bounding="rect(-16.4643,-9.3092,32.9286,18.6184)" text="" font-familyName="" font-pixelSize="20" font-bold="0" font-underline="0" font-alignment="1" strokeStyle="0" markerStart="0" markerEnd="0" shadowEnabled="0" shadowOffsetX="0" shadowOffsetY="2" shadowBlur="4" shadowOpacity="160" blurEnabled="0" blurRadius="4" transform="matrix(0.546886,0,0,0.546886,79.7716,28.9522)" pers-center="0,0" pers-size="0,0" pers-start="0,0" pers-end="0,0" locked="0" mesh="" flag=""/>
            <path id="shapePath5" d="M73.6953,24.637 C68.664,26.8245 70.4687,33.0043 76.4297,33.8794 C80.3673,34.4809 84.633,33.3871 86.93,31.2543 C89.391,28.9027 89.391,27.8636 86.93,29.5589 C83.9768,31.5277 81.4064,32.184 78.0704,31.8559 C73.3672,31.3637 71.3984,28.6839 74.4063,26.7698 C75.5,26.0042 75.8829,25.9495 76.4297,26.5511 C76.922,27.098 76.922,27.3167 76.4297,27.4808 C75.336,27.8636 75.6094,29.2855 76.8126,29.2855 C79.1095,29.2855 79.3282,25.0198 77.086,24.1448 C75.8829,23.7073 75.7735,23.7073 73.6953,24.637 Z" style="stroke:none;fill-rule:nonzero;fill:#3692bf;fill-opacity:1;"/>
        </g>
        <g id="Shape6">
            <desc shapeID="6" type="0" basicInfo-basicType="0" basicInfo-roundedRectRadius="12" basicInfo-polygonSides="6" basicInfo-starPoints="5" bounding="rect(-30.3105,-13.426,60.621,26.8519)" text="" font-familyName="" font-pixelSize="20" font-bold="0" font-underline="0" font-alignment="1" strokeStyle="0" markerStart="0" markerEnd="0" shadowEnabled="0" shadowOffsetX="0" shadowOffsetY="2" shadowBlur="4" shadowOpacity="160" blurEnabled="0" blurRadius="4" transform="matrix(0.546886,0,0,0.546886,76.5823,38.3211)" pers-center="0,0" pers-size="0,0" pers-start="0,0" pers-end="0,0" locked="0" mesh="" flag=""/>
            <path id="shapePath6" d="M63.0857,31.7465 C59.1482,33.8794 58.9294,41.8639 62.7576,43.6686 C68.7733,46.4577 72.4922,46.3484 79.8204,43.1764 C86.4925,40.2232 89.2816,38.3638 91.5785,35.1919 C94.0395,31.8559 93.5473,31.4184 90.6488,34.3715 C86.2737,38.856 76.4297,43.5045 71.4531,43.5045 C67.5155,43.5045 63.1951,42.0826 62.4841,40.4967 C61.7185,38.8013 62.3748,35.52 63.742,34.1528 C65.1092,32.7856 67.8436,32.7856 68.6093,34.1528 C69.4843,35.8481 69.2655,36.3403 67.2421,37.3247 C65.2186,38.3091 65.1639,39.1294 67.1327,39.1294 C69.1562,39.1294 70.7968,37.5982 70.7968,35.7935 C70.7968,34.0434 69.9218,32.0199 68.9374,31.3637 C67.953,30.7074 64.617,30.9262 63.0857,31.7465 Z" style="stroke:none;fill-rule:nonzero;fill:#3692bf;fill-opacity:1;"/>
        </g>
        <g id="Shape7">
            <desc shapeID="7" type="0" basicInfo-basicType="0" basicInfo-roundedRectRadius="12" basicInfo-polygonSides="6" basicInfo-starPoints="5" bounding="rect(-87.1658,-37.9564,174.332,75.9128)" text="" font-familyName="" font-pixelSize="20" font-bold="0" font-underline="0" font-alignment="1" strokeStyle="0" markerStart="0" markerEnd="0" shadowEnabled="0" shadowOffsetX="0" shadowOffsetY="2" shadowBlur="4" shadowOpacity="160" blurEnabled="0" blurRadius="4" transform="matrix(0.53749,0,0,0.53749,52.3308,59.5143)" pers-center="0,0" pers-size="0,0" pers-start="0,0" pers-end="0,0" locked="0" mesh="" flag=""/>
            <path id="shapePath7" d="M29.2168,39.8188 C26.7981,40.7325 23.6807,42.9899 22.8744,44.5487 C22.2294,45.7849 21.6919,54.8147 22.1757,56.3734 C22.3369,56.9109 23.3044,57.4484 24.7019,57.7172 L26.9593,58.2009 L27.1206,62.1783 C27.2281,64.382 27.4968,66.317 27.7118,66.4782 C27.9806,66.6395 28.2493,68.6282 28.4106,70.8857 C28.5718,75.0781 28.5718,75.0781 27.2281,75.0781 L25.8844,75.0781 L25.8844,69.1657 C25.8306,65.6183 25.6156,63.0383 25.2394,62.6621 C24.8094,62.2321 24.5406,63.7371 24.2719,68.1982 C24.0569,71.5307 24.0031,74.5943 24.1107,75.0243 C24.2182,75.5618 23.3044,75.9918 20.7782,76.4218 C18.8433,76.798 16.8008,77.2818 16.2095,77.443 C15.1883,77.8193 15.1346,77.6043 15.2958,70.5631 C15.457,64.167 15.4033,63.2533 14.6508,63.2533 C13.9521,63.2533 13.7908,64.0058 13.7371,67.6607 L13.6833,72.1219 L12.1784,68.8969 C11.3184,67.1232 10.6196,65.242 10.5659,64.7583 C10.5659,63.3608 9.43719,62.9846 8.57719,64.0595 C7.77095,65.242 7.66345,68.1444 8.41595,70.7244 C8.7922,72.0681 8.73843,72.8744 8.1472,73.9494 C7.3947,75.2931 7.3947,75.1856 7.34097,71.7456 C7.34097,68.037 6.58847,65.1345 5.836,65.6183 C5.02977,66.102 5.7285,76.8518 6.58847,77.5505 C7.01849,77.873 7.34097,78.5718 7.34097,79.0555 C7.34097,79.5392 7.60971,79.9155 7.87846,79.9155 C8.20094,79.9155 8.41595,79.3243 8.41595,78.5718 C8.41595,76.6368 9.86718,73.3044 10.5659,73.7344 C11.2646,74.1643 11.2646,74.0031 10.2972,71.3157 C9.06094,67.7682 9.32969,68.037 11.9096,72.6594 C13.3609,75.3468 14.1671,77.3355 14.0059,77.9805 C13.6833,78.8405 13.8983,78.948 15.7258,78.6255 C32.2267,76.0455 43.729,75.4543 60.015,76.4218 C67.9698,76.8518 69.7435,76.6368 87.1582,72.6056 C91.6193,71.5844 96.0805,70.5631 97.1017,70.3482 C99.6279,69.8644 99.8429,68.1444 97.8005,65.887 C90.5444,57.7709 84.4707,54.5997 76.1934,54.6535 L73.7209,54.7072 L75.3871,55.406 C76.3547,55.836 78.5046,56.4272 80.2245,56.8034 C84.6857,57.7172 87.1582,58.9534 91.4581,62.4471 C95.543,65.7257 96.5643,67.2845 94.9518,67.7145 C94.2531,67.8757 93.4468,67.2845 92.2106,65.6183 C90.1681,62.8233 89.5769,62.6621 89.5769,64.8658 C89.5769,65.887 89.9531,66.6395 90.6519,67.0157 C91.2431,67.3382 91.7268,67.7682 91.7268,68.037 C91.7268,68.5745 83.2345,70.6169 79.0958,71.0469 C77.3221,71.2619 74.1509,71.7456 72.001,72.2294 L68.131,73.0356 L66.3573,70.9932 C64.3149,68.6819 62.7024,66.4245 62.7024,65.7795 C62.7024,65.5108 64.4761,66.317 66.6798,67.4995 C69.6898,69.1657 71.1947,69.7032 72.9684,69.6494 C74.9034,69.5957 75.1184,69.5419 73.9897,69.2194 C73.2372,68.9507 70.7647,67.7682 68.3998,66.532 C65.9273,65.242 63.7774,64.4358 63.1862,64.597 C62.5412,64.812 62.1649,64.5433 61.8962,63.7908 C61.4124,62.2858 60.3912,62.3933 60.8212,63.8983 C61.8424,67.6607 62.9711,69.8107 64.6374,71.3157 L66.5186,72.9281 L62.8636,72.9281 L59.2087,72.9281 L55.8225,69.7032 C53.9413,67.9295 52.1676,66.4782 51.8989,66.4782 C50.6626,66.4782 51.6839,68.1982 54.2101,70.4557 L57.0588,72.9281 L54.5863,72.9281 C52.4364,72.9281 52.0601,72.7669 51.4689,71.4769 C50.4476,69.3269 50.1251,65.3495 50.7701,63.0921 C51.4689,60.6196 50.6626,59.9746 49.5339,62.1246 C48.3514,64.4358 48.5127,69.0582 49.8027,71.1544 C50.3939,72.1219 50.6089,72.9281 50.3401,72.9281 C49.7489,72.9281 48.5127,70.5631 47.9752,68.467 C47.599,66.8545 46.739,66.532 46.2552,67.822 C45.8252,68.9507 46.4165,71.0469 47.4377,72.0681 C48.1902,72.8744 48.0827,72.9281 46.309,72.9281 C44.7502,72.9281 44.3203,72.6594 43.8903,71.5307 C43.5678,70.7782 43.3528,69.4344 43.3528,68.5745 C43.3528,67.7145 43.084,67.0157 42.8153,67.0157 C41.8478,67.0157 41.5253,68.7357 42.1166,70.8857 C42.6003,72.7131 42.5465,72.9281 41.6866,72.9281 C40.7728,72.9281 40.6653,72.4981 40.6653,69.3807 C40.6653,67.3382 40.8803,65.9945 41.1491,66.2095 C41.8478,66.5857 42.4928,62.1246 42.009,60.0821 C41.4716,57.6634 42.0628,56.4272 43.8903,56.0509 C45.9327,55.6747 46.9002,53.7397 46.2015,51.6435 C45.8252,50.5686 45.9327,49.7086 46.4702,48.6336 C48.0289,45.5161 45.0727,41.27 40.3966,39.8188 C37.1716,38.905 31.9043,38.8513 29.2168,39.8188 M41.3103,41.8075 C44.9115,43.6349 46.094,47.0749 43.8903,49.2786 C42.3853,50.7835 41.794,50.246 42.1166,47.7198 C42.2778,46.4299 42.1703,45.5161 41.794,45.2474 C40.8803,44.7099 38.5154,46.4299 38.5154,47.6124 C38.5154,49.0098 37.9779,49.3323 37.0641,48.4723 C36.1504,47.5586 33.893,47.3974 33.4092,48.2036 C32.818,49.1711 31.313,48.7948 30.1843,47.3436 C29.2168,46.1074 28.9481,46.0536 27.4968,46.5911 C25.5081,47.3436 25.0244,48.1499 25.6694,49.3861 C25.9381,49.9236 26.0994,50.3536 25.9381,50.3536 C25.8306,50.3536 25.3469,50.5148 24.8631,50.676 C24.1644,50.9448 24.0031,50.5686 24.0031,48.6336 C24.0031,44.4949 27.2818,41.3775 32.603,40.4637 C34.8604,40.0875 39.2141,40.7325 41.3103,41.8075 M41.2566,53.7935 C41.5253,54.116 41.7403,54.6535 41.7403,54.9759 C41.7403,55.5134 41.3103,55.5134 39.8591,54.8685 C37.7629,54.0085 34.8604,53.901 33.7317,54.5997 C33.1942,54.9759 32.7642,54.8685 32.3342,54.2772 C31.7967,53.5248 31.6355,53.5785 30.7755,54.3847 C29.9155,55.2447 29.808,55.2447 28.8943,54.4385 C27.7656,53.4172 27.0668,50.3536 27.9268,50.3536 C28.2493,50.3536 28.0343,49.8698 27.4968,49.2786 C26.5294,48.2573 26.5831,48.2036 27.6581,48.2036 C28.3031,48.2036 28.8406,48.4186 28.8406,48.6336 C28.8406,48.9023 29.163,49.5473 29.5931,50.0848 C30.3455,51.106 30.3993,51.106 31.4205,50.1923 C32.4417,49.2786 32.4955,49.2786 32.818,50.1923 C33.1942,51.106 33.248,51.106 33.9467,50.1923 C34.4842,49.3861 34.8604,49.3323 35.9892,49.8698 C37.6016,50.6223 39.3216,49.8698 39.9666,48.0961 C40.2891,47.1824 40.4503,47.6661 40.5578,50.0848 C40.6653,51.8585 40.9341,53.5248 41.2566,53.7935 M39.3753,56.8572 C40.8266,58.4696 41.1491,64.5433 39.8591,65.9408 C39.1066,66.8007 38.9454,67.607 39.2141,70.1869 C39.4828,73.2506 39.4291,73.4119 38.1391,73.7344 C37.3867,73.8956 36.6879,73.9494 36.5804,73.8419 C36.2579,73.5193 34.7529,66.4245 34.7529,65.242 C34.7529,63.7908 35.6129,64.167 36.3654,65.9408 C36.7417,66.9082 36.9029,68.3057 36.6342,69.5419 C36.3117,71.3157 36.3654,71.4232 37.1179,70.8319 C38.1391,69.9719 38.3004,66.4245 37.3867,64.812 C36.9566,63.8983 37.0104,63.522 37.8166,62.8771 C38.7304,62.1783 38.6766,62.1246 37.0641,62.3933 C35.3979,62.6621 34.6992,62.0708 35.8279,61.3721 C36.5804,60.8883 36.4729,59.1684 35.6667,58.5234 C35.1292,58.0396 34.6454,58.1472 33.7855,58.7384 C32.388,59.7059 32.2805,60.4046 33.5167,61.7483 C34.323,62.6621 34.323,62.7158 32.9792,62.7158 C31.313,62.7158 31.0442,63.5758 32.5492,64.0595 C33.4092,64.3283 33.5167,64.7045 33.3017,66.4782 C33.1405,67.7145 33.3555,69.7032 33.893,71.2619 C34.9679,74.6481 34.9679,74.5406 33.5705,74.5406 C32.4417,74.5406 32.3342,74.2718 32.2805,71.4232 C32.2267,69.7569 31.9043,67.607 31.528,66.747 C30.9905,65.2958 30.8293,65.242 30.238,66.0483 C29.6468,66.8545 29.4318,66.317 28.733,62.2858 C28.3031,59.6521 28.0343,57.2872 28.1418,56.9647 C28.3568,56.3197 30.9905,56.6959 30.9905,57.3947 C30.9905,57.6634 31.3668,57.8784 31.7967,57.8784 C32.2267,57.8784 32.603,57.6634 32.603,57.3947 C32.603,56.5347 34.7529,56.1584 35.5592,56.8034 C36.3654,57.5022 37.6554,57.0184 37.1716,56.2122 C36.5266,55.2447 38.3541,55.7284 39.3753,56.8572 M35.2904,60.0284 C35.2904,60.2971 34.9142,60.5659 34.4305,60.5659 C34.0004,60.5659 33.7855,60.2971 33.9467,60.0284 C34.1079,59.7059 34.4842,59.4909 34.8067,59.4909 C35.0754,59.4909 35.2904,59.7059 35.2904,60.0284 M30.5605,72.2294 C30.668,73.5193 30.5605,74.5406 30.3455,74.5406 C30.0768,74.5406 29.9693,73.1431 29.9693,71.4232 C30.023,68.1444 30.2918,68.467 30.5605,72.2294 Z" style="stroke:none;fill-rule:nonzero;fill:#000000;fill-opacity:1;"/>
        </g>
        <g id="Shape8">
            <desc shapeID="8" type="0" basicInfo-basicType="0" basicInfo-roundedRectRadius="12" basicInfo-polygonSides="6" basicInfo-starPoints="5" bounding="rect(-16.4605,-9.69461,32.921,19.3893)" text="" font-familyName="" font-pixelSize="20" font-bold="0" font-underline="0" font-alignment="1" strokeStyle="0" markerStart="0" markerEnd="0" shadowEnabled="0" shadowOffsetX="0" shadowOffsetY="2" shadowBlur="4" shadowOpacity="160" blurEnabled="0" blurRadius="4" transform="matrix(0.546886,0,0,0.546886,86.3615,44.6981)" pers-center="0,0" pers-size="0,0" pers-start="0,0" pers-end="0,0" locked="0" mesh="" flag=""/>
            <path id="shapePath8" d="M91.3051,42.2467 C86.9847,45.6374 82.7189,47.8796 80.5314,47.8796 C78.3986,47.8796 78.6173,46.8952 81.0236,45.9109 C82.5549,45.2546 82.8283,44.9264 82.2268,44.5436 C80.5861,43.5592 77.3595,45.528 77.3595,47.6062 C77.3595,51.5438 83.594,50.5047 90.5394,45.364 C92.8911,43.6686 95.8442,39.9498 95.2973,39.4029 C95.188,39.2935 93.3832,40.5513 91.3051,42.2467 Z" style="stroke:none;fill-rule:nonzero;fill:#3692bf;fill-opacity:1;"/>
        </g>
        <g id="Shape9">
            <desc shapeID="9" type="0" basicInfo-basicType="0" basicInfo-roundedRectRadius="12" basicInfo-polygonSides="6" basicInfo-starPoints="5" bounding="rect(-8.5213,-6.98626,17.0426,13.9726)" text="" font-familyName="" font-pixelSize="20" font-bold="0" font-underline="0" font-alignment="1" strokeStyle="0" markerStart="0" markerEnd="0" shadowEnabled="0" shadowOffsetX="0" shadowOffsetY="2" shadowBlur="4" shadowOpacity="160" blurEnabled="0" blurRadius="4" transform="matrix(0.53749,0,0,0.53749,83.9447,64.2402)" pers-center="0,0" pers-size="0,0" pers-start="0,0" pers-end="0,0" locked="0" mesh="" flag=""/>
            <path id="shapePath9" d="M79.3646,61.0496 C79.3646,61.7483 84.632,66.3707 86.5132,67.392 C89.6306,69.0044 89.0394,67.2307 85.3307,63.8983 C81.9983,60.9421 79.3646,59.6521 79.3646,61.0496 Z" style="stroke:none;fill-rule:nonzero;fill:#000000;fill-opacity:1;"/>
        </g>
        <g id="Shape10">
            <desc shapeID="10" type="0" basicInfo-basicType="0" basicInfo-roundedRectRadius="12" basicInfo-polygonSides="6" basicInfo-starPoints="5" bounding="rect(-12.1223,-6.44629,24.2446,12.8926)" text="" font-familyName="" font-pixelSize="20" font-bold="0" font-underline="0" font-alignment="1" strokeStyle="0" markerStart="0" markerEnd="0" shadowEnabled="0" shadowOffsetX="0" shadowOffsetY="2" shadowBlur="4" shadowOpacity="160" blurEnabled="0" blurRadius="4" transform="matrix(0.53749,0,0,0.53749,78.057,66.2384)" pers-center="0,0" pers-size="0,0" pers-start="0,0" pers-end="0,0" locked="0" mesh="" flag=""/>
            <path id="shapePath10" d="M71.6247,63.1996 C71.4097,63.522 71.6247,63.7908 72.1085,63.7908 C72.646,63.7908 75.3872,65.1345 78.2896,66.747 C81.1921,68.3594 83.8795,69.7032 84.2557,69.7032 C85.492,69.7032 82.9658,67.4995 79.2033,65.2957 C75.3334,63.0383 72.216,62.1783 71.6247,63.1996 Z" style="stroke:none;fill-rule:nonzero;fill:#000000;fill-opacity:1;"/>
        </g>
        <g id="Shape11">
            <desc shapeID="11" type="0" basicInfo-basicType="0" basicInfo-roundedRectRadius="12" basicInfo-polygonSides="6" basicInfo-starPoints="5" bounding="rect(-6.08112,-7.89476,12.1622,15.7895)" text="" font-familyName="" font-pixelSize="20" font-bold="0" font-underline="0" font-alignment="1" strokeStyle="0" markerStart="0" markerEnd="0" shadowEnabled="0" shadowOffsetX="0" shadowOffsetY="2" shadowBlur="4" shadowOpacity="160" blurEnabled="0" blurRadius="4" transform="matrix(0.53749,0,0,0.53749,59.5211,68.0565)" pers-center="0,0" pers-size="0,0" pers-start="0,0" pers-end="0,0" locked="0" mesh="" flag=""/>
            <path id="shapePath11" d="M56.2525,65.2957 C56.2525,67.5532 58.0262,70.3482 60.1762,71.4769 C63.0787,72.9818 63.6699,72.3369 61.4124,70.2407 C60.3374,69.2194 59.1012,67.3382 58.6175,66.102 C57.5963,63.4683 56.2525,62.9846 56.2525,65.2957 Z" style="stroke:none;fill-rule:nonzero;fill:#000000;fill-opacity:1;"/>
        </g>
        <g id="Shape12">
            <desc shapeID="12" type="0" basicInfo-basicType="0" basicInfo-roundedRectRadius="12" basicInfo-polygonSides="6" basicInfo-starPoints="5" bounding="rect(-3.03758,-10.1211,6.07512,20.2422)" text="" font-familyName="" font-pixelSize="20" font-bold="0" font-underline="0" font-alignment="1" strokeStyle="0" markerStart="0" markerEnd="0" shadowEnabled="0" shadowOffsetX="0" shadowOffsetY="2" shadowBlur="4" shadowOpacity="160" blurEnabled="0" blurRadius="4" transform="matrix(0.53749,0,0,0.53749,17.5263,69.6789)" pers-center="0,0" pers-size="0,0" pers-start="0,0" pers-end="0,0" locked="0" mesh="" flag=""/>
            <path id="shapePath12" d="M16.317,64.7045 C15.2958,65.672 16.2633,72.2294 17.7145,74.2181 C19.2195,76.2606 19.6495,74.6481 18.5207,71.2081 C17.9295,69.2732 17.607,67.0695 17.7683,66.0482 C17.9833,64.4358 17.2845,63.6833 16.317,64.7045 Z" style="stroke:none;fill-rule:nonzero;fill:#000000;fill-opacity:1;"/>
        </g>
        <g id="Shape13">
            <desc shapeID="13" type="0" basicInfo-basicType="0" basicInfo-roundedRectRadius="12" basicInfo-polygonSides="6" basicInfo-starPoints="5" bounding="rect(-1.54971,-7.86563,3.09936,15.7312)" text="" font-familyName="" font-pixelSize="20" font-bold="0" font-underline="0" font-alignment="1" strokeStyle="0" markerStart="0" markerEnd="0" shadowEnabled="0" shadowOffsetX="0" shadowOffsetY="2" shadowBlur="4" shadowOpacity="160" blurEnabled="0" blurRadius="4" transform="matrix(0.53749,0,0,0.53749,21.7839,71.1931)" pers-center="0,0" pers-size="0,0" pers-start="0,0" pers-end="0,0" locked="0" mesh="" flag=""/>
            <path id="shapePath13" d="M21.6382,67.4457 C20.9932,68.5207 20.6707,74.9706 21.262,75.2931 C22.0682,75.7768 22.2294,75.0243 22.5519,70.6169 C22.7669,67.392 22.4444,66.2095 21.6382,67.4457 Z" style="stroke:none;fill-rule:nonzero;fill:#000000;fill-opacity:1;"/>
        </g>
        <g id="Shape14">
            <desc shapeID="14" type="0" basicInfo-basicType="0" basicInfo-roundedRectRadius="12" basicInfo-polygonSides="6" basicInfo-starPoints="5" bounding="rect(-5.3809,-9.80279,10.7618,19.6056)" text="" font-familyName="" font-pixelSize="20" font-bold="0" font-underline="0" font-alignment="1" strokeStyle="0" markerStart="0" markerEnd="0" shadowEnabled="0" shadowOffsetX="0" shadowOffsetY="2" shadowBlur="4" shadowOpacity="160" blurEnabled="0" blurRadius="4" transform="matrix(0.540747,0.0817128,-0.0817128,0.540747,92.9479,86.5124)" pers-center="0,0" pers-size="0,0" pers-start="0,0" pers-end="0,0" locked="0" mesh="" flag=""/>
            <path id="shapePath14" d="M93.7469,84.3502 L93.6269,87.706 L91.818,87.5986 C90.3416,87.4861 89.9141,87.7533 89.6261,88.9266 C89.132,90.7325 90.6613,91.9592 93.2763,91.8565 C95.1639,91.8099 95.1639,91.8099 95.5347,88.9898 C95.9954,85.575 95.5614,81.8589 94.583,81.3792 C94.0208,81.0731 93.8228,81.6516 93.7469,84.3502 M93.1869,89.52 C93.197,90.1852 92.8858,90.4148 92.1287,90.3004 C91.3176,90.1778 91.0422,89.8043 91.1647,88.9932 C91.369,87.6413 93.129,88.0732 93.1869,89.52 Z" style="stroke:none;fill-rule:nonzero;fill:#000000;fill-opacity:1;"/>
        </g>
        <g id="Shape15">
            <desc shapeID="15" type="0" basicInfo-basicType="0" basicInfo-roundedRectRadius="12" basicInfo-polygonSides="6" basicInfo-starPoints="5" bounding="rect(-3.64929,-9.03863,7.29863,18.0773)" text="" font-familyName="" font-pixelSize="20" font-bold="0" font-underline="0" font-alignment="1" strokeStyle="0" markerStart="0" markerEnd="0" shadowEnabled="0" shadowOffsetX="0" shadowOffsetY="2" shadowBlur="4" shadowOpacity="160" blurEnabled="0" blurRadius="4" transform="matrix(0.53749,0,0,0.53749,2.99955,74.4062)" pers-center="0,0" pers-size="0,0" pers-start="0,0" pers-end="0,0" locked="0" mesh="" flag=""/>
            <path id="shapePath15" d="M1.21357,69.5957 C0.67608,70.5094 1.42858,74.0031 2.71857,76.6368 C4.16976,79.6467 5.29851,80.1842 4.86853,77.658 C4.38477,75.0243 1.64359,68.9507 1.21357,69.5957 Z" style="stroke:none;fill-rule:nonzero;fill:#000000;fill-opacity:1;"/>
        </g>
        <g id="Shape16">
            <desc shapeID="16" type="0" basicInfo-basicType="0" basicInfo-roundedRectRadius="12" basicInfo-polygonSides="6" basicInfo-starPoints="5" bounding="rect(-1.74139,-9.03335,3.48279,18.0667)" text="" font-familyName="" font-pixelSize="20" font-bold="0" font-underline="0" font-alignment="1" strokeStyle="0" markerStart="0" markerEnd="0" shadowEnabled="0" shadowOffsetX="0" shadowOffsetY="2" shadowBlur="4" shadowOpacity="160" blurEnabled="0" blurRadius="4" transform="matrix(0.540747,0.0817128,-0.0817128,0.540747,73.5513,86.9216)" pers-center="0,0" pers-size="0,0" pers-start="0,0" pers-end="0,0" locked="0" mesh="" flag=""/>
            <path id="shapePath16" d="M73.6104,82.9114 C73.1929,83.8438 72.421,87.4882 72.1288,90.1543 C72.0439,91.0817 72.2785,91.7255 72.7111,91.7909 C73.6303,91.9298 74.1622,90.2403 74.6486,85.5572 C74.9226,82.28 74.4994,81.0545 73.6104,82.9114 Z" style="stroke:none;fill-rule:nonzero;fill:#000000;fill-opacity:1;"/>
        </g>
        <g id="Shape17">
            <desc shapeID="17" type="0" basicInfo-basicType="0" basicInfo-roundedRectRadius="12" basicInfo-polygonSides="6" basicInfo-starPoints="5" bounding="rect(-18.3261,-7.09322,36.6522,14.1865)" text="" font-familyName="" font-pixelSize="20" font-bold="0" font-underline="0" font-alignment="1" strokeStyle="0" markerStart="0" markerEnd="0" shadowEnabled="0" shadowOffsetX="0" shadowOffsetY="2" shadowBlur="4" shadowOpacity="160" blurEnabled="0" blurRadius="4" transform="matrix(0.540747,0.0817128,-0.0817128,0.540747,60.1259,87.202)" pers-center="0,0" pers-size="0,0" pers-start="0,0" pers-end="0,0" locked="0" mesh="" flag=""/>
            <path id="shapePath17" d="M67.5617,84.8735 C67.0883,85.0785 65.7282,84.9282 64.5008,84.6321 C62.695,84.138 62.1379,84.1644 61.699,84.8725 C61.1571,85.8968 61.8721,87.3876 62.9536,87.551 C64.0892,87.7226 63.7339,88.6092 62.4412,88.7457 C61.6596,88.7935 60.9139,88.2383 59.9744,86.769 C58.6841,84.6934 57.2435,83.9779 56.1231,84.8042 C55.1353,85.4846 52.1531,85.0893 51.2941,84.1851 C50.5351,83.3514 50.4566,83.5055 50.1939,86.3419 C49.8495,89.719 50.6217,90.8313 51.4465,88.3011 C52.0651,86.4034 54.5669,85.9518 54.2891,87.7903 C53.9623,89.9533 57.0383,91.1925 58.0895,89.3602 C58.3957,88.7981 59.0528,88.8421 60.9963,89.5229 C62.5695,90.0925 63.7133,90.21 64.1949,89.9509 C64.7388,89.6459 65.1091,89.7572 65.5059,90.4256 C66.1618,91.5756 67.5136,91.7799 68.9504,91.0567 C70.3952,90.2795 70.116,88.4674 68.4082,87.3243 C66.9921,86.4467 67.3637,85.4519 69.04,85.7052 C69.6348,85.7951 70.0001,85.5738 69.8787,85.2789 C69.5442,84.5646 68.6331,84.3716 67.5617,84.8735 M66.2666,87.222 C67.6355,89.1434 67.6569,89.3679 66.2509,89.1554 C65.6561,89.0656 65.2266,88.6135 65.292,88.1809 C65.3656,87.6942 64.8606,87.0095 64.1444,86.6247 C62.6121,85.7848 62.5774,85.2818 64.0375,85.5024 C64.5782,85.5841 65.6239,86.3505 66.2666,87.222 M57.6235,87.6858 C57.5663,88.0643 57.301,88.3561 56.9765,88.3071 C56.7061,88.2662 56.5338,87.5764 56.6646,86.7113 C56.8362,85.5757 56.9688,85.4298 57.3034,86.1441 C57.5084,86.6175 57.6725,87.3613 57.6235,87.6858 Z" style="stroke:none;fill-rule:nonzero;fill:#000000;fill-opacity:1;"/>
        </g>
        <g id="Shape18">
            <desc shapeID="18" type="0" basicInfo-basicType="0" basicInfo-roundedRectRadius="12" basicInfo-polygonSides="6" basicInfo-starPoints="5" bounding="rect(-11.409,-5.39221,22.818,10.7845)" text="" font-familyName="" font-pixelSize="20" font-bold="0" font-underline="0" font-alignment="1" strokeStyle="0" markerStart="0" markerEnd="0" shadowEnabled="0" shadowOffsetX="0" shadowOffsetY="2" shadowBlur="4" shadowOpacity="160" blurEnabled="0" blurRadius="4" transform="matrix(0.540747,0.0817128,-0.0817128,0.540747,81.9476,89.5319)" pers-center="0,0" pers-size="0,0" pers-start="0,0" pers-end="0,0" locked="0" mesh="" flag=""/>
            <path id="shapePath18" d="M82.4637,88.0103 L82.2513,89.4162 L80.9629,88.06 C79.3204,86.4844 77.541,86.5474 76.398,88.2551 C75.2305,90.1252 75.2161,90.9526 76.5026,91.5895 C77.3269,91.9906 77.9626,91.8101 78.9126,91.0135 C80.182,89.9331 82.7185,89.9846 82.5469,91.1201 C82.3671,92.3098 83.9579,91.6652 84.8519,90.141 L85.8164,88.5169 L86.1497,90.3372 C86.4586,92.3197 87.1043,92.8044 87.7871,91.5801 C88.4617,90.41 88.1019,88.0326 87.1317,87.4988 C86.7236,87.2712 85.8421,87.2486 85.2442,87.5455 C84.5381,87.8259 84.1595,87.7687 84.2086,87.4443 C84.2494,87.1739 83.9117,86.8463 83.4791,86.781 C82.9925,86.7074 82.5945,87.1451 82.4637,88.0103 M78.6679,89.7043 C78.3536,90.3206 78.0128,90.3797 77.6915,89.944 C77.462,89.6327 77.4519,88.9675 77.7499,88.4594 C78.0642,87.8432 78.405,87.7841 78.7263,88.2198 C78.9558,88.5311 78.966,89.1963 78.6679,89.7043 Z" style="stroke:none;fill-rule:nonzero;fill:#000000;fill-opacity:1;"/>
        </g>
        <g id="Shape19">
            <desc shapeID="19" type="0" basicInfo-basicType="0" basicInfo-roundedRectRadius="12" basicInfo-polygonSides="6" basicInfo-starPoints="5" bounding="rect(-8.69412,-13.3261,17.3883,26.6523)" text="" font-familyName="" font-pixelSize="20" font-bold="0" font-underline="0" font-alignment="1" strokeStyle="0" markerStart="0" markerEnd="0" shadowEnabled="0" shadowOffsetX="0" shadowOffsetY="2" shadowBlur="4" shadowOpacity="160" blurEnabled="0" blurRadius="4" transform="matrix(0.540747,0.0817128,-0.0817128,0.540747,45.3971,91.1624)" pers-center="0,0" pers-size="0,0" pers-start="0,0" pers-end="0,0" locked="0" mesh="" flag=""/>
            <path id="shapePath19" d="M43.7866,84.8206 C43.0315,85.4255 42.3436,86.3171 42.2783,86.7497 C42.0577,88.2098 43.492,89.6986 44.9469,89.5866 C47.2539,89.3268 46.2548,90.4479 43.5417,91.1995 C40.5419,92.0183 39.4529,93.7342 40.5484,96.0016 C42.0834,99.3861 45.5535,98.749 47.2479,94.8568 C47.8307,93.5622 48.5889,92.5706 48.9134,92.6196 C50.103,92.7994 50.545,91.7047 49.4585,91.2086 C48.78,90.9402 48.4077,90.1096 48.3253,88.825 C48.2686,86.2722 47.219,84.0671 46.0834,83.8955 C45.5427,83.8138 44.5417,84.2157 43.7866,84.8206 M46.0799,87.2136 C45.99,87.8084 45.7001,88.2624 45.4297,88.2215 C44.6727,88.1071 44.3331,87.0602 44.8097,86.4685 C45.4894,85.631 46.2514,86.078 46.0799,87.2136 M46.2789,93.2171 C46.0582,94.6771 44.2041,96.3327 43.0144,96.153 C41.2299,95.8833 41.3129,94.2365 43.2098,93.0298 C45.1608,91.8313 46.4831,91.8652 46.2789,93.2171 Z" style="stroke:none;fill-rule:nonzero;fill:#000000;fill-opacity:1;"/>
        </g>
        <g id="Shape20">
            <desc shapeID="20" type="0" basicInfo-basicType="0" basicInfo-roundedRectRadius="12" basicInfo-polygonSides="6" basicInfo-starPoints="5" bounding="rect(-6.98138,-5.83793,13.9627,11.6758)" text="" font-familyName="" font-pixelSize="20" font-bold="0" font-underline="0" font-alignment="1" strokeStyle="0" markerStart="0" markerEnd="0" shadowEnabled="0" shadowOffsetX="0" shadowOffsetY="2" shadowBlur="4" shadowOpacity="160" blurEnabled="0" blurRadius="4" transform="matrix(0.546886,0,0,0.546886,32.6794,88.6729)" pers-center="0,0" pers-size="0,0" pers-start="0,0" pers-end="0,0" locked="0" mesh="" flag=""/>
            <path id="shapePath20" d="M28.8614,85.5231 C28.9161,85.6325 29.2442,86.9997 29.627,88.6404 C30.4474,92.3045 31.5958,93.0154 31.5958,89.8982 C31.5958,88.4763 31.8693,87.6012 32.4161,87.3825 C33.0177,87.1637 33.2365,87.4919 33.2365,88.6404 C33.2365,90.3904 34.4396,91.7029 35.6975,91.2107 C36.7366,90.8279 36.7912,89.7888 35.6975,89.7888 C35.2052,89.7888 34.8771,89.2966 34.8771,88.531 C34.8771,86.6169 34.2756,86.1246 31.4864,85.7418 C30.0098,85.5231 28.8614,85.4137 28.8614,85.5231 Z" style="stroke:none;fill-rule:nonzero;fill:#000000;fill-opacity:1;"/>
        </g>
        <g id="Shape21">
            <desc shapeID="21" type="0" basicInfo-basicType="0" basicInfo-roundedRectRadius="12" basicInfo-polygonSides="6" basicInfo-starPoints="5" bounding="rect(-17.4777,-6.6875,34.9555,13.375)" text="" font-familyName="" font-pixelSize="20" font-bold="0" font-underline="0" font-alignment="1" strokeStyle="0" markerStart="0" markerEnd="0" shadowEnabled="0" shadowOffsetX="0" shadowOffsetY="2" shadowBlur="4" shadowOpacity="160" blurEnabled="0" blurRadius="4" transform="matrix(0.546886,0,0,0.546886,19.303,89.6179)" pers-center="0,0" pers-size="0,0" pers-start="0,0" pers-end="0,0" locked="0" mesh="" flag=""/>
            <path id="shapePath21" d="M24.0488,87.2731 C23.0644,88.5856 23.0097,88.5856 22.1347,87.5466 C21.6425,86.9997 20.8221,86.5075 20.3846,86.5075 C19.1815,86.5075 17.3768,88.531 17.3221,89.8982 C17.3221,90.8826 17.158,90.7185 16.6111,89.2419 C15.6814,86.6715 14.2048,86.3981 13.9861,88.8044 C13.7673,91.2654 12.1267,91.5935 11.6345,89.2966 C11.197,87.2731 10.4313,87.109 9.93912,88.9138 C9.44691,90.9372 9.88441,92.1404 11.3063,92.9061 C12.3454,93.3982 12.947,93.3982 13.7673,92.9061 C14.4236,92.5779 15.4627,92.3592 16.1736,92.4686 C16.8299,92.5232 17.3768,92.3045 17.3768,91.9763 C17.3768,91.5935 17.7049,91.5388 18.4159,91.9763 C19.9471,92.742 20.494,92.6873 21.7519,91.4295 C22.7909,90.3904 22.955,90.3904 24.1035,91.156 C24.7597,91.5935 25.5801,91.9763 25.9629,91.9763 C26.9473,91.9763 28.8614,89.9529 28.8614,88.9685 C28.8614,87.9294 26.9473,85.9606 25.9082,85.9606 C25.4707,85.9606 24.6503,86.5621 24.0488,87.2731 M27.1113,89.0778 C27.0019,89.6247 26.5644,90.0622 26.1269,90.0622 C25.6894,90.0622 25.2519,89.6247 25.1426,89.0778 C25.0332,88.4216 25.3066,88.1481 26.1269,88.1481 C26.9473,88.1481 27.2207,88.4216 27.1113,89.0778 M20.6581,89.5154 C20.6581,89.9529 20.4393,90.3357 20.1112,90.3357 C19.8377,90.3357 19.5643,89.9529 19.5643,89.5154 C19.5643,89.0778 19.8377,88.695 20.1112,88.695 C20.4393,88.695 20.6581,89.0778 20.6581,89.5154 Z" style="stroke:none;fill-rule:nonzero;fill:#000000;fill-opacity:1;"/>
        </g>
        <g id="Shape22">
            <desc shapeID="22" type="0" basicInfo-basicType="0" basicInfo-roundedRectRadius="12" basicInfo-polygonSides="6" basicInfo-starPoints="5" bounding="rect(-5.51892,-5.89918,11.0378,11.7984)" text="" font-familyName="" font-pixelSize="20" font-bold="0" font-underline="0" font-alignment="1" strokeStyle="0" markerStart="0" markerEnd="0" shadowEnabled="0" shadowOffsetX="0" shadowOffsetY="2" shadowBlur="4" shadowOpacity="160" blurEnabled="0" blurRadius="4" transform="matrix(0.546886,0,0,0.546886,5.62905,90.3146)" pers-center="0,0" pers-size="0,0" pers-start="0,0" pers-end="0,0" locked="0" mesh="" flag=""/>
            <path id="shapePath22" d="M3.59522,87.6559 C2.88427,88.0387 2.61083,88.9138 2.61083,90.9372 C2.61083,93.2889 2.77489,93.6717 3.59522,93.5076 C4.25149,93.3982 4.57961,92.742 4.68899,91.2654 C4.85305,89.6247 5.07182,89.2419 5.78276,89.3513 C6.32965,89.4607 6.82186,90.2263 6.98592,91.1013 C7.14998,91.9763 7.58748,92.7967 7.97031,92.9607 C8.84535,93.2342 8.90002,88.6404 7.97031,87.7106 C7.14998,86.8903 4.85305,86.8903 3.59522,87.6559 Z" style="stroke:none;fill-rule:nonzero;fill:#000000;fill-opacity:1;"/>
        </g>
    </g>
</svg>
