<?xml version="1.0"?>
<svg version="1.1" xmlns="http://www.w3.org/2000/svg" xmlns:xlink="http://www.w3.org/1999/xlink" width="100" height="100">
    <desc iVinci="yes" version="4.6" gridStep="20" showGrid="no" snapToGrid="no" codePlatform="0"/>
    <g id="Layer1" name="Layer 2" opacity="1">
        <g id="Shape1">
            <desc shapeID="1" type="0" basicInfo-basicType="0" basicInfo-roundedRectRadius="12" basicInfo-polygonSides="6" basicInfo-starPoints="5" bounding="rect(-49.2213,-28.2464,98.4425,56.4928)" text="" font-familyName="Helvetica" font-pixelSize="20" font-bold="0" font-underline="0" font-alignment="1" strokeStyle="0" markerStart="0" markerEnd="0" shadowEnabled="0" shadowOffsetX="0" shadowOffsetY="2" shadowBlur="4" shadowOpacity="160" blurEnabled="0" blurRadius="4" transform="matrix(1,0,0,1,49.2753,69.479)" pers-center="0,0" pers-size="0,0" pers-start="0,0" pers-end="0,0" locked="0" mesh="" flag=""/>
            <path id="shapePath1" d="M2.13957,94.0861 C-0.532673,90.284 -0.590981,84.1943 1.70068,80.1515 C3.96054,76.1647 10.4921,76.7707 13.77,73.5682 C17.0993,70.3154 17.7923,65.0577 20.7922,61.4988 C23.771,57.9649 27.5022,55.0391 31.4352,52.6114 C33.3184,51.4489 35.8673,51.7693 37.8747,50.8947 C38.1139,50.7905 38.3453,50.6693 38.5671,50.5267 C41.3776,48.7187 43.106,45.5942 45.6719,43.4531 C46.8496,42.4704 48.1758,41.3754 49.7031,41.2344 C50.3152,41.1779 49.7854,42.4656 49.7344,43.0781 C49.6808,43.7216 48.7455,44.9575 49.3906,44.9844 C51.3365,45.0655 53.0368,43.2969 54.9844,43.2969 C55.5958,43.2969 55.7065,44.373 55.7031,44.9844 C55.6957,46.3307 54.1834,47.8485 54.9531,48.9531 C55.7567,50.1064 58.436,48.5778 59.0781,49.8281 C59.7082,51.0552 57.4366,52.203 57.3281,53.5781 C57.1648,55.649 59.2774,57.903 58.2969,59.7344 C56.9708,62.2111 54.1447,63.9175 51.4219,64.6094 C44.3422,66.4082 36.3271,64.0749 29.6406,67.0156 C26.4924,68.4002 25.4884,72.826 24.9989,76.2303 C24.4957,79.7295 24.1242,84.3844 26.813,86.6797 C30.1732,89.5482 35.4964,89.5196 39.8748,88.9293 C44.4994,88.3057 48.3044,84.906 52.6464,83.1966 C54.4645,82.4808 56.3614,81.8579 58.3065,81.6727 C59.9766,81.5136 61.6466,82.3694 63.3136,82.1806 C66.8304,81.7825 70.1546,80.0881 73.6905,79.9311 C79.4999,79.6733 85.2949,80.737 91.1062,80.947 C93.3307,81.0274 97.18,79.8126 97.876,81.9269 C99.1437,85.7776 98.6106,90.8834 94.9522,92.6301 C85.033,97.3661 73.3562,97.3509 62.3702,97.7097 C53.9141,97.9859 45.6506,94.5168 37.1899,94.5168 C29.4007,94.5168 21.8301,97.8054 14.0415,97.7097 C9.89468,97.6587 4.52425,97.479 2.13957,94.0861 Z" style="stroke:none;fill-rule:evenodd;fill:#69c6db;fill-opacity:1;"/>
        </g>
        <g id="Shape2">
            <desc shapeID="2" type="0" basicInfo-basicType="0" basicInfo-roundedRectRadius="12" basicInfo-polygonSides="6" basicInfo-starPoints="5" bounding="rect(-20.2634,-3.38555,40.5269,6.77109)" text="" font-familyName="Helvetica" font-pixelSize="20" font-bold="0" font-underline="0" font-alignment="1" strokeStyle="0" markerStart="0" markerEnd="0" shadowEnabled="0" shadowOffsetX="0" shadowOffsetY="2" shadowBlur="4" shadowOpacity="160" blurEnabled="0" blurRadius="4" transform="matrix(1,0,0,1,78.7464,78.829)" pers-center="0,0" pers-size="0,0" pers-start="0,0" pers-end="0,0" locked="0" mesh="" flag=""/>
            <path id="shapePath2" d="M97.4011,81.0301 C97.4011,81.0301 81.8339,80.734 81.8339,80.734 C81.8339,80.734 77.1383,78.5766 77.1383,78.5766 C77.1383,78.5766 69.0163,81.1993 69.0163,81.1993 C69.0163,81.1993 63.0516,82.2146 63.0516,82.2146 C63.0516,82.2146 58.483,81.6646 58.483,81.6646 C58.483,81.6646 60.2174,79.7187 60.2174,79.7187 C60.2174,79.7187 71.6813,78.2382 71.6813,78.2382 C71.6813,78.2382 75.4039,78.3651 75.4039,78.3651 C75.4039,78.3651 90.6984,74.8565 96.2509,75.5292 C101.696,76.1889 97.4011,81.0301 97.4011,81.0301 Z" style="stroke:none;fill-rule:evenodd;fill:#7adbcd;fill-opacity:1;"/>
        </g>
        <g id="Shape3">
            <desc shapeID="3" type="0" basicInfo-basicType="0" basicInfo-roundedRectRadius="12" basicInfo-polygonSides="6" basicInfo-starPoints="5" bounding="rect(0,0,0,0)" text="" font-familyName="Helvetica" font-pixelSize="20" font-bold="0" font-underline="0" font-alignment="1" strokeStyle="0" markerStart="0" markerEnd="0" shadowEnabled="0" shadowOffsetX="0" shadowOffsetY="2" shadowBlur="4" shadowOpacity="160" blurEnabled="0" blurRadius="4" transform="matrix(1,0,0,1,42.6534,87.6388)" pers-center="0,0" pers-size="0,0" pers-start="0,0" pers-end="0,0" locked="0" mesh="" flag=""/>
            <path id="shapePath3" d="M42.6534,87.6388 Z" style="stroke:none;fill-rule:evenodd;fill:#7adbcd;fill-opacity:1;"/>
        </g>
        <g id="Shape4">
            <desc shapeID="4" type="0" basicInfo-basicType="0" basicInfo-roundedRectRadius="12" basicInfo-polygonSides="6" basicInfo-starPoints="5" bounding="rect(-12.9598,-13.1703,25.9197,26.3405)" text="" font-familyName="Helvetica" font-pixelSize="20" font-bold="0" font-underline="0" font-alignment="1" strokeStyle="0" markerStart="0" markerEnd="0" shadowEnabled="0" shadowOffsetX="0" shadowOffsetY="2" shadowBlur="4" shadowOpacity="160" blurEnabled="0" blurRadius="4" transform="matrix(1,0,0,1,37.5266,77.2653)" pers-center="0,0" pers-size="0,0" pers-start="0,0" pers-end="0,0" locked="0" mesh="" flag=""/>
            <path id="shapePath4" d="M41.4999,88.8926 C41.8056,91.6699 35.9236,89.9134 33.1474,89.5978 C30.807,89.3316 27.9189,89.0712 26.5048,87.1874 C24.6683,84.741 24.4679,81.2666 24.599,78.2104 C24.7433,74.8471 25.0102,70.9421 27.3072,68.4811 C29.7263,65.8892 33.7521,65.3215 37.2371,64.6697 C40.8358,63.9965 44.6295,63.8544 48.2201,64.5694 C48.9992,64.7245 48.1625,66.2453 48.5712,66.9264 C48.9772,67.6031 50.6263,67.5559 50.4769,68.3307 C50.233,69.5959 48.997,70.6994 47.7688,71.089 C45.6645,71.7565 43.2835,70.7265 41.1489,71.2896 C38.9294,71.875 36.8453,73.0438 35.0304,74.4491 C33.5192,75.6193 31.8286,77.007 31.3694,78.8624 C30.9173,80.6894 31.2356,83.0548 32.573,84.379 C33.7531,85.5474 35.3526,87.5682 37.2371,87.9865 C39.1364,88.408 41.3168,87.2289 41.4999,88.8926 Z" style="stroke:none;fill-rule:evenodd;fill:#7adbcd;fill-opacity:1;"/>
        </g>
        <g id="Shape5">
            <desc shapeID="5" type="0" basicInfo-basicType="0" basicInfo-roundedRectRadius="12" basicInfo-polygonSides="6" basicInfo-starPoints="5" bounding="rect(-13.7528,-8.17079,27.5056,16.3416)" text="" font-familyName="Helvetica" font-pixelSize="20" font-bold="0" font-underline="0" font-alignment="1" strokeStyle="0" markerStart="0" markerEnd="0" shadowEnabled="0" shadowOffsetX="0" shadowOffsetY="2" shadowBlur="4" shadowOpacity="160" blurEnabled="0" blurRadius="4" transform="matrix(1,0,0,1,45.1901,80.7371)" pers-center="0,0" pers-size="0,0" pers-start="0,0" pers-end="0,0" locked="0" mesh="" flag=""/>
            <path id="shapePath5" d="M58.9429,80.5591 C58.9429,80.5591 45.3195,86.578 45.3195,86.6103 C45.3195,86.6427 38.427,88.9078 38.427,88.9078 C38.427,88.9078 32.3434,85.1865 32.3434,85.1865 C32.3434,85.1865 31.4373,78.1968 31.4373,78.1968 C31.4373,78.1968 36.3236,72.9869 36.3236,72.9869 C36.3236,72.9869 40.4656,72.5663 40.4656,72.5663 C40.4656,72.5663 41.6306,74.4108 41.6306,74.4108 C41.6306,74.4108 39.0741,76.7083 39.0741,76.7083 C39.0741,76.7083 36.0971,81.9182 36.0971,81.9182 C36.0971,81.9182 38.1681,85.1541 38.1681,85.1541 C38.1681,85.1541 44.3164,82.9213 44.3164,82.9213 C44.3164,82.9213 50.4971,80.7532 50.4971,80.7532 C50.4971,80.7532 58.9429,80.5591 58.9429,80.5591 Z" style="stroke:none;fill-rule:evenodd;fill:#60db9a;fill-opacity:1;"/>
        </g>
        <g id="Shape6">
            <desc shapeID="6" type="0" basicInfo-basicType="0" basicInfo-roundedRectRadius="12" basicInfo-polygonSides="6" basicInfo-starPoints="5" bounding="rect(0,0,0,0)" text="" font-familyName="Helvetica" font-pixelSize="20" font-bold="0" font-underline="0" font-alignment="1" strokeStyle="0" markerStart="0" markerEnd="0" shadowEnabled="0" shadowOffsetX="0" shadowOffsetY="2" shadowBlur="4" shadowOpacity="160" blurEnabled="0" blurRadius="4" transform="matrix(1,0,0,1,40.2598,49.9968)" pers-center="0,0" pers-size="0,0" pers-start="0,0" pers-end="0,0" locked="0" mesh="" flag=""/>
            <path id="shapePath6" d="M40.2598,49.9968 Z" style="stroke:none;fill-rule:evenodd;fill:#60db9a;fill-opacity:1;"/>
        </g>
        <g id="Shape7">
            <desc shapeID="7" type="0" basicInfo-basicType="0" basicInfo-roundedRectRadius="12" basicInfo-polygonSides="6" basicInfo-starPoints="5" bounding="rect(0,0,0,0)" text="" font-familyName="Helvetica" font-pixelSize="20" font-bold="0" font-underline="0" font-alignment="1" strokeStyle="0" markerStart="0" markerEnd="0" shadowEnabled="0" shadowOffsetX="0" shadowOffsetY="2" shadowBlur="4" shadowOpacity="160" blurEnabled="0" blurRadius="4" transform="matrix(1,0,0,1,38.5351,56.2846)" pers-center="0,0" pers-size="0,0" pers-start="0,0" pers-end="0,0" locked="0" mesh="" flag=""/>
            <path id="shapePath7" d="M38.5351,56.2846 Z" style="stroke:none;fill-rule:evenodd;fill:#60db9a;fill-opacity:1;"/>
        </g>
        <g id="Shape8">
            <desc shapeID="8" type="0" basicInfo-basicType="0" basicInfo-roundedRectRadius="12" basicInfo-polygonSides="6" basicInfo-starPoints="5" bounding="rect(-11.6865,-14.8906,23.3731,29.7812)" text="" font-familyName="Helvetica" font-pixelSize="20" font-bold="0" font-underline="0" font-alignment="1" strokeStyle="0" markerStart="0" markerEnd="0" shadowEnabled="0" shadowOffsetX="0" shadowOffsetY="2" shadowBlur="4" shadowOpacity="160" blurEnabled="0" blurRadius="4" transform="matrix(1,0,0,1,47.4695,56.1232)" pers-center="0,0" pers-size="0,0" pers-start="0,0" pers-end="0,0" locked="0" mesh="" flag=""/>
            <path id="shapePath8" d="M35.8403,51.8581 C35.105,54.4912 41.6637,53.6148 42.8827,56.0619 C43.7515,57.806 40.2578,59.5367 40.6191,61.4514 C40.9771,63.3489 44.1355,63.7305 44.6792,65.5834 C44.9572,66.5311 42.2941,66.4678 42.3796,67.4518 C42.4805,68.6114 44.1023,69.0237 45.0385,69.7154 C45.7125,70.2133 46.3599,71.0867 47.1943,71.0089 C48.422,70.8943 50.0729,70.3932 50.428,69.2123 C50.7622,68.101 47.9055,67.1356 48.6315,66.2301 C50.6321,63.735 54.3022,63.2033 56.8236,61.2359 C57.5417,60.6755 58.0447,59.7366 58.1171,58.8285 C58.2692,56.9181 57.2315,55.0172 57.4703,53.1156 C57.5775,52.2619 58.7945,51.9126 59.0872,51.1035 C59.2483,50.658 59.1308,49.9167 58.6919,49.7382 C57.4997,49.2532 55.6029,50.4209 54.8474,49.3789 C54.0614,48.2948 55.5343,46.7652 55.566,45.4266 C55.5833,44.6946 55.6721,43.5755 54.9911,43.3067 C53.8883,42.8714 52.5759,43.3823 51.47,43.8097 C50.5606,44.1612 49.7773,46.3033 49.1345,45.5703 C48.2321,44.5412 50.2907,42.5319 49.422,41.4743 C48.7937,40.7095 47.4416,41.951 46.6553,42.5522 C44.5929,44.129 42.4515,47.8114 40.2598,49.3789 C38.4366,50.6828 36.4212,49.778 35.8403,51.8581 Z" style="stroke:none;fill-rule:evenodd;fill:#e4feff;fill-opacity:1;"/>
        </g>
        <g id="Shape9">
            <desc shapeID="9" type="0" basicInfo-basicType="0" basicInfo-roundedRectRadius="12" basicInfo-polygonSides="6" basicInfo-starPoints="5" bounding="rect(-9.03705,-4.57433,18.0741,9.14867)" text="" font-familyName="Helvetica" font-pixelSize="20" font-bold="0" font-underline="0" font-alignment="1" strokeStyle="0" markerStart="0" markerEnd="0" shadowEnabled="0" shadowOffsetX="0" shadowOffsetY="2" shadowBlur="4" shadowOpacity="160" blurEnabled="0" blurRadius="4" transform="matrix(1,0,0,1,81.4129,74.957)" pers-center="0,0" pers-size="0,0" pers-start="0,0" pers-end="0,0" locked="0" mesh="" flag=""/>
            <path id="shapePath9" d="M90.45,76.0331 C90.45,76.0331 73.2239,79.5313 73.2239,79.5313 C73.2239,79.5313 72.3759,77.9412 72.3759,77.9412 C72.3759,77.9412 75.8741,73.1709 75.8741,73.1709 C75.8741,73.1709 83.0874,69.5933 85.1072,70.5431 C87.5067,71.6714 90.45,76.0331 90.45,76.0331 Z" style="stroke:none;fill-rule:evenodd;fill:#ffe5a6;fill-opacity:1;"/>
        </g>
        <g id="Shape10">
            <desc shapeID="10" type="0" basicInfo-basicType="0" basicInfo-roundedRectRadius="12" basicInfo-polygonSides="6" basicInfo-starPoints="5" bounding="rect(0,0,0,0)" text="" font-familyName="Helvetica" font-pixelSize="20" font-bold="0" font-underline="0" font-alignment="1" strokeStyle="0" markerStart="0" markerEnd="0" shadowEnabled="0" shadowOffsetX="0" shadowOffsetY="2" shadowBlur="4" shadowOpacity="160" blurEnabled="0" blurRadius="4" transform="matrix(1,0,0,1,84.6258,70.793)" pers-center="0,0" pers-size="0,0" pers-start="0,0" pers-end="0,0" locked="0" mesh="" flag=""/>
            <path id="shapePath10" d="M84.6258,70.793 Z" style="stroke:none;fill-rule:evenodd;fill:#ffd5b6;fill-opacity:1;"/>
        </g>
        <g id="Shape11">
            <desc shapeID="11" type="0" basicInfo-basicType="0" basicInfo-roundedRectRadius="12" basicInfo-polygonSides="6" basicInfo-starPoints="5" bounding="rect(-2.53463,-6.13639,5.06925,12.2728)" text="" font-familyName="Helvetica" font-pixelSize="20" font-bold="0" font-underline="0" font-alignment="1" strokeStyle="0" markerStart="0" markerEnd="0" shadowEnabled="0" shadowOffsetX="0" shadowOffsetY="2" shadowBlur="4" shadowOpacity="160" blurEnabled="0" blurRadius="4" transform="matrix(1,0,0,1,82.1265,65.5074)" pers-center="0,0" pers-size="0,0" pers-start="0,0" pers-end="0,0" locked="0" mesh="" flag=""/>
            <path id="shapePath11" d="M79.5918,71.5121 C79.5918,71.5121 82.8068,59.4136 82.8068,59.3713 C82.8068,59.329 84.3297,64.0246 84.3297,64.0246 C84.3297,64.0246 85.1477,68.6564 84.2133,70.1331 C82.8586,72.274 79.5918,71.5121 79.5918,71.5121 Z" style="stroke:none;fill-rule:evenodd;fill:#ab7b65;fill-opacity:1;"/>
        </g>
        <g id="Shape12">
            <desc shapeID="12" type="0" basicInfo-basicType="0" basicInfo-roundedRectRadius="12" basicInfo-polygonSides="6" basicInfo-starPoints="5" bounding="rect(0,0,0,0)" text="" font-familyName="Helvetica" font-pixelSize="20" font-bold="0" font-underline="0" font-alignment="1" strokeStyle="0" markerStart="0" markerEnd="0" shadowEnabled="0" shadowOffsetX="0" shadowOffsetY="2" shadowBlur="4" shadowOpacity="160" blurEnabled="0" blurRadius="4" transform="matrix(1,0,0,1,88.983,65.0398)" pers-center="0,0" pers-size="0,0" pers-start="0,0" pers-end="0,0" locked="0" mesh="" flag=""/>
            <path id="shapePath12" d="M88.983,65.0398 Z" style="stroke:none;fill-rule:evenodd;fill:#ab7b65;fill-opacity:1;"/>
        </g>
        <g id="Shape13">
            <desc shapeID="13" type="0" basicInfo-basicType="0" basicInfo-roundedRectRadius="12" basicInfo-polygonSides="6" basicInfo-starPoints="5" bounding="rect(-9.09337,-7.10679,18.1867,14.2136)" text="" font-familyName="Helvetica" font-pixelSize="20" font-bold="0" font-underline="0" font-alignment="1" strokeStyle="0" markerStart="0" markerEnd="0" shadowEnabled="0" shadowOffsetX="0" shadowOffsetY="2" shadowBlur="4" shadowOpacity="160" blurEnabled="0" blurRadius="4" transform="matrix(1,0,0,1,84.7507,57.7638)" pers-center="0,0" pers-size="0,0" pers-start="0,0" pers-end="0,0" locked="0" mesh="" flag=""/>
            <path id="shapePath13" d="M88.6868,64.8706 C88.6868,64.8706 78.8727,58.9483 78.8727,58.9483 C78.8727,58.9483 75.6154,58.9483 75.6577,58.9483 C75.7,58.9483 76.673,56.8755 76.673,56.8755 C76.673,56.8755 79.4649,56.7909 79.4649,56.7909 C79.4649,56.7909 82.0031,58.06 82.0031,58.06 C82.0031,58.06 82.2569,50.657 82.2569,50.657 C82.2569,50.657 83.8221,50.6993 83.8221,50.6993 C83.8221,50.6993 84.2028,54.2104 84.2028,54.2104 C84.2028,54.2104 83.3621,59.8195 83.3621,59.8195 C83.3621,59.8195 88.5211,54.4566 89.1845,54.7964 C92.7597,54.6344 94.4235,56.7083 93.6632,57.8528 C92.7011,59.3012 85.1228,59.5065 85.4877,59.6802 C86.6115,60.2151 87.8415,60.9537 88.4777,61.6469 C89.9351,63.2348 88.6868,64.8706 88.6868,64.8706 Z" style="stroke:none;fill-rule:evenodd;fill:#8eab6b;fill-opacity:1;"/>
        </g>
        <g id="Shape14">
            <desc shapeID="14" type="0" basicInfo-basicType="0" basicInfo-roundedRectRadius="12" basicInfo-polygonSides="6" basicInfo-starPoints="5" bounding="rect(-103.181,-51.1823,206.362,102.365)" text="" font-familyName="" font-pixelSize="20" font-bold="0" font-underline="0" font-alignment="1" strokeStyle="0" markerStart="0" markerEnd="0" shadowEnabled="0" shadowOffsetX="0" shadowOffsetY="2" shadowBlur="4" shadowOpacity="160" blurEnabled="0" blurRadius="4" transform="matrix(0.479748,0,0,0.479748,50,65.0897)" pers-center="0,0" pers-size="0,0" pers-start="0,0" pers-end="0,0" locked="0" mesh="" flag=""/>
            <path id="shapePath14" d="M47.4192,41.4927 C46.3637,42.0204 43.869,44.0353 41.9021,45.9543 C39.1195,48.6409 37.7762,49.6004 36.1451,50.0322 C26.4062,52.5269 22.4722,55.6932 17.6268,64.9524 C14.3645,71.2371 11.534,74.0676 5.44117,77.09 C2.65863,78.4333 0.451775,79.7766 0.499767,80.0165 C0.835598,81.5517 7.83991,79.7766 11.1982,77.3299 C12.3016,76.5143 13.5489,75.7947 13.8368,75.7467 C14.7963,75.6028 19.7857,69.2701 21.3208,66.2477 C23.5277,61.882 27.7974,57.7082 32.1632,55.5973 C34.2261,54.5898 36.8167,53.3424 37.9681,52.8147 C39.2155,52.191 40.6547,50.8957 41.6622,49.5045 C43.869,46.4341 46.6516,43.3637 47.803,42.788 C48.6185,42.3082 48.6665,42.4042 48.3787,43.4117 C48.1867,43.9873 47.4192,45.1867 46.6516,46.0023 C45.2603,47.4415 45.2603,48.1132 46.5556,48.1132 C46.8914,48.1132 48.2827,47.3456 49.674,46.4341 C52.1207,44.7549 54.1836,43.9394 54.7113,44.4191 C54.8553,44.611 54.6154,45.5225 54.1356,46.53 C53.3681,48.1132 53.3681,48.449 53.9917,49.5524 C54.5194,50.5119 54.9992,50.7518 56.6303,50.7518 L58.6453,50.7518 L57.6378,51.8552 C56.8702,52.6228 56.5823,53.6303 56.5344,55.5493 C56.4864,57.0365 56.6303,58.3318 56.8222,58.4758 C57.5898,58.9075 57.254,59.6272 56.3425,59.6272 C55.8148,59.6272 55.2391,59.867 55.0951,60.1069 C54.9032,60.3947 54.5674,60.4907 54.3275,60.3468 C54.0877,60.1549 53.8958,60.4907 53.8958,61.0664 C53.8958,62.6016 51.9288,63.0813 44.3008,63.2253 C36.4809,63.4172 30.9638,64.5206 27.8454,66.6315 C24.871,68.5984 23.4797,72.1486 23.2878,78.1454 C23.0959,83.6146 23.7196,85.8694 25.8305,87.2607 C26.8859,87.9323 27.2697,87.9803 28.3731,87.4526 C29.6685,86.8769 29.6685,86.8769 28.613,86.4451 C26.9819,85.8694 26.5501,84.4781 26.5501,80.0644 C26.5501,75.6987 27.3657,72.7243 29.0928,70.8053 C29.6205,70.2296 31.5875,69.0782 33.5065,68.3106 C36.337,67.1112 37.9201,66.7754 42.3338,66.5355 C46.9394,66.2477 47.659,66.2956 47.659,66.9193 C47.659,67.3511 48.1388,67.7829 48.7145,67.9268 C49.578,68.1667 49.626,68.3106 49.0983,68.9343 C48.6665,69.51 47.5631,69.7019 45.0204,69.7019 C42.1899,69.7019 40.9426,69.9417 38.4479,71.0931 C35.0417,72.6283 31.7794,75.7947 30.9158,78.2894 C30.3881,79.8725 30.628,84.1423 31.2996,85.3417 C32.1632,86.9248 35.7613,89.2756 37.7762,89.5634 C39.9831,89.8993 43.821,89.1317 43.821,88.3161 C43.821,88.1242 44.1089,87.9323 44.4927,87.9323 C44.8285,87.9323 47.707,86.7329 50.8254,85.2457 C56.3905,82.6071 56.6303,82.5591 60.4683,82.6071 C62.6272,82.6551 65.9854,82.3672 67.9044,81.9355 C72.51,80.976 72.3661,80.928 72.3661,82.9909 C72.3661,84.3342 72.1262,84.9579 71.4066,85.2937 C69.0558,86.4931 70.7829,89.8513 73.2776,88.9398 C74.7169,88.3641 74.7169,88.2681 73.8533,84.1423 L73.2296,81.0719 L80.234,81.5037 C89.5411,82.0794 94.4825,81.9355 96.8333,81.0719 C98.7043,80.3523 98.5124,80.3043 91.5081,80.3043 C85.6071,80.2563 84.1199,80.1124 83.6402,79.5367 C83.3043,79.1049 83.1125,78.7211 83.2084,78.6252 C83.4962,78.3373 93.7628,76.7542 95.1541,76.8021 C99.136,76.8501 100.863,75.6028 98.2725,74.4034 C97.361,73.9716 96.4495,74.0196 94.6264,74.4034 C91.1242,75.219 91.0763,75.219 89.3971,72.5324 C88.2937,70.8533 87.4302,70.0377 86.5187,69.8458 C85.3193,69.6059 85.1274,69.366 84.9835,67.3511 C84.8395,66.1517 84.9355,64.9524 85.1274,64.7605 C85.2713,64.5206 86.1349,64.7125 86.9984,65.1443 C88.9654,66.1517 89.8769,65.7679 89.8769,63.9449 C89.8769,62.0259 89.1093,60.5866 88.0539,60.5866 C87.3342,60.5866 87.3342,60.4907 87.9579,60.1069 C88.3417,59.867 89.5891,59.6272 90.6445,59.6272 C92.2756,59.6272 92.7074,59.819 92.8993,60.6346 C93.3791,62.3617 94.1946,61.1144 94.1946,58.7636 C94.1946,55.4533 93.2351,54.3499 90.4526,54.3499 C87.5261,54.3499 86.0869,55.1655 84.6956,57.4683 C84.072,58.5237 83.6881,58.9555 83.88,58.4278 C84.4557,56.9885 84.7436,52.1431 84.4078,50.7518 C84.024,49.2646 82.4408,49.1207 81.6732,50.5599 C81.3853,51.1836 81.2414,52.8147 81.3374,54.3979 C81.4813,56.3169 81.3853,57.0845 81.0495,56.7966 C80.7617,56.5568 79.8022,56.2209 78.9386,56.029 C76.7798,55.5973 75.0047,56.7487 75.0047,58.6677 C75.0047,60.1549 75.2446,60.2508 77.5474,60.1069 C79.2265,60.0109 79.1785,60.3468 77.4034,61.882 C76.5879,62.5536 75.6284,63.705 75.2446,64.4726 C73.2296,68.3106 75.5324,68.9822 78.9386,65.576 L81.1455,63.3692 L80.7617,64.9524 C80.5698,65.8639 80.0421,67.2072 79.6103,68.0228 C79.1785,68.7903 78.8427,69.7019 78.8427,69.9897 C78.8427,70.3255 77.8832,71.1891 76.7318,71.9087 C75.5324,72.6763 73.8533,74.3075 72.9418,75.4588 L71.2627,77.6657 L63.6826,78.2414 C55.8627,78.8171 52.9842,79.3928 47.4671,81.2158 C45.0684,81.9834 44.1089,82.1273 43.3893,81.6956 C42.5257,81.2638 42.4778,81.0239 42.9575,80.0165 C43.2933,79.2489 43.869,78.8171 44.6366,78.8171 C45.836,78.8171 46.0279,78.2894 45.2603,76.8501 C44.9245,76.2264 44.9245,75.9386 45.2603,75.9386 C45.884,75.9386 45.884,73.6838 45.2603,73.3 C44.3008,72.6763 44.8285,72.1966 46.8435,71.9567 C48.3307,71.7648 49.1942,71.285 50.2017,70.1336 C51.7849,68.2146 51.8329,67.447 50.4416,67.1592 C49.3861,67.0153 49.4341,66.9673 50.7294,66.3916 C51.497,66.1038 52.8403,65.2402 53.7039,64.5206 C54.5674,63.801 56.1506,62.6496 57.206,61.9299 C58.7412,60.8745 59.173,60.2988 59.173,59.2434 C59.173,58.5237 58.9811,57.7082 58.7412,57.4203 C58.5493,57.1804 58.2135,56.2209 58.0696,55.2135 C57.8777,53.8702 58.0216,53.2945 58.7412,52.6228 C59.221,52.191 59.6527,51.2316 59.6527,50.5119 C59.6527,49.3605 59.4129,49.1686 57.7338,48.8808 L55.8148,48.5929 L56.1026,46.0503 C56.4864,42.74 55.8148,42.0684 52.7444,42.74 C50.8254,43.1238 50.6335,43.1238 50.9693,42.4042 C52.0247,40.3413 50.3936,39.9095 47.4192,41.4927 M83.4962,54.9256 C83.4003,55.5493 83.3043,55.0695 83.3043,53.8702 C83.3043,52.6708 83.4003,52.191 83.4962,52.7668 C83.5922,53.3904 83.5922,54.3499 83.4962,54.9256 M92.9953,56.7966 C93.1872,57.3244 93.2351,57.8521 93.1392,57.9001 C93.0912,57.996 91.3161,58.1879 89.2532,58.2839 C85.6071,58.5237 85.5592,58.5237 86.3747,57.5642 C87.4782,56.3649 88.7735,55.8371 90.9324,55.8371 C92.3236,55.7892 92.7554,56.029 92.9953,56.7966 M78.9866,58.044 C78.6508,58.1399 77.9791,58.1399 77.5474,58.044 C77.0676,57.9001 77.3555,57.8041 78.1231,57.8041 C78.9386,57.8041 79.2745,57.9001 78.9866,58.044 M86.0869,61.5941 C87.0944,61.9299 88.0539,62.5056 88.1978,62.8894 C88.3417,63.2732 88.3897,63.657 88.3417,63.705 C88.2457,63.753 87.1423,63.1773 85.799,62.4097 C83.2084,60.9704 83.2564,60.7785 86.0869,61.5941 M83.5922,67.3991 C83.6402,68.4065 83.4483,69.2221 83.2084,69.2221 C82.9685,69.2221 82.4408,69.366 82.057,69.51 C81.2414,69.7978 81.2894,69.5579 82.3448,65.3841 C82.8246,63.4172 82.9205,63.3212 83.2084,64.4246 C83.4003,65.0963 83.5442,66.4396 83.5922,67.3991 M42.3818,72.5324 C42.3818,72.7723 42.7176,73.348 43.1494,73.7318 C43.6771,74.3075 43.7251,74.4994 43.2453,74.4994 C42.9095,74.4994 42.3818,73.9716 42.046,73.3 C41.7581,72.6283 41.7101,72.1006 41.95,72.1006 C42.1899,72.1006 42.3818,72.2925 42.3818,72.5324 M86.9984,73.3959 C87.5741,74.1635 88.3897,74.8831 88.7735,75.0271 C89.2052,75.171 87.2862,75.5548 84.5517,75.8906 C81.8171,76.1785 78.6028,76.8021 77.4034,77.1859 C74.9567,77.9535 73.5655,78.0495 73.5655,77.4258 C73.5655,76.7542 77.3555,73.4919 79.0346,72.7723 C79.8501,72.4364 81.7691,72.1486 83.2564,72.1006 C85.6551,72.1006 86.0869,72.2445 86.9984,73.3959 M40.079,74.6912 C38.4958,75.5548 35.6653,78.7211 34.9457,80.4482 C33.9862,82.751 34.0342,83.4707 35.4254,84.8139 C36.7208,86.1572 39.0715,86.3971 41.1824,85.4376 C42.4298,84.8619 42.5737,83.9024 41.3743,83.7585 C37.5364,83.2787 37.1046,83.0868 37.1046,81.9355 C37.1046,80.6881 39.1195,78.8171 40.5108,78.8171 C41.2784,78.8171 41.3263,78.913 40.7027,80.1124 C40.079,81.3118 40.127,81.5037 41.0865,82.5591 C42.3338,83.9024 43.869,83.8544 49.578,82.3192 C55.0951,80.832 57.6858,80.5442 53.6559,81.8875 C51.8329,82.4632 49.1462,83.5666 47.707,84.2862 C46.2678,85.0058 44.5886,85.7255 43.917,85.8214 C43.2453,85.9653 42.094,86.3971 41.3263,86.7809 C38.0641,88.46 33.2186,85.6775 32.547,81.7915 C32.0192,78.4813 32.547,77.2339 35.3295,75.3149 C37.9201,73.5399 39.9831,72.9162 40.5588,73.7797 C40.7506,74.0196 40.5108,74.4514 40.079,74.6912 M43.1494,76.7062 C44.013,77.4258 44.013,77.4258 42.8615,77.1859 C42.1899,77.042 41.4703,76.8981 41.2784,76.8981 C41.0385,76.8981 41.0385,76.6582 41.1824,76.4183 C41.6142,75.7467 42.046,75.7947 43.1494,76.7062 M69.2477,80.2084 C68.3362,80.7361 61.5717,81.8875 61.2839,81.5517 C60.996,81.2638 66.849,80.0165 69.2477,79.8725 C69.8714,79.8246 69.8714,79.8725 69.2477,80.2084 M72.414,87.3086 C71.9343,87.7884 71.5025,87.0688 71.9343,86.4451 C72.2222,85.9174 72.3181,85.9174 72.51,86.4451 C72.606,86.7809 72.558,87.1647 72.414,87.3086 Z" style="stroke:none;fill-rule:nonzero;fill:#000000;fill-opacity:1;"/>
        </g>
        <g id="Shape15">
            <desc shapeID="15" type="0" basicInfo-basicType="0" basicInfo-roundedRectRadius="12" basicInfo-polygonSides="6" basicInfo-starPoints="5" bounding="rect(-11,-8.32751,22,16.655)" text="" font-familyName="" font-pixelSize="20" font-bold="0" font-underline="0" font-alignment="1" strokeStyle="0" markerStart="0" markerEnd="0" shadowEnabled="0" shadowOffsetX="0" shadowOffsetY="2" shadowBlur="4" shadowOpacity="160" blurEnabled="0" blurRadius="4" transform="matrix(0.479748,0,0,0.479748,64.4502,87.1299)" pers-center="0,0" pers-size="0,0" pers-start="0,0" pers-end="0,0" locked="0" mesh="" flag=""/>
            <path id="shapePath15" d="M59.173,86.9248 C59.173,90.379 59.2689,90.7628 60.1325,91.0507 C60.7561,91.2426 61.6197,91.0507 62.2913,90.6189 C63.2508,89.9952 63.6826,89.9473 64.4022,90.427 C65.5536,91.0986 66.849,90.2351 66.849,88.7958 C66.849,88.0762 66.9929,87.9803 67.7605,88.412 C69.0558,89.0837 69.7274,89.0357 69.7274,88.1722 C69.7274,87.2127 66.9929,85.8694 65.6496,86.2052 C65.0259,86.3491 64.3543,86.9728 64.1624,87.5485 C63.8745,88.556 63.8265,88.556 63.1549,87.2607 C62.6751,86.3012 62.2434,86.0613 61.5238,86.2532 C60.8521,86.4931 60.6122,86.3491 60.6122,85.5815 C60.6122,84.3342 60.1325,83.1348 59.6048,83.1348 C59.3649,83.1348 59.173,84.8619 59.173,86.9248 M62.0515,88.412 C62.0515,88.9398 61.8596,89.3715 61.5717,89.3715 C61.3318,89.3715 61.092,88.9398 61.092,88.412 C61.092,87.8843 61.3318,87.4526 61.5717,87.4526 C61.8596,87.4526 62.0515,87.8843 62.0515,88.412 Z" style="stroke:none;fill-rule:nonzero;fill:#000000;fill-opacity:1;"/>
        </g>
        <g id="Shape16">
            <desc shapeID="16" type="0" basicInfo-basicType="0" basicInfo-roundedRectRadius="12" basicInfo-polygonSides="6" basicInfo-starPoints="5" bounding="rect(-7,-4.17022,14,8.3404)" text="" font-familyName="" font-pixelSize="20" font-bold="0" font-underline="0" font-alignment="1" strokeStyle="0" markerStart="0" markerEnd="0" shadowEnabled="0" shadowOffsetX="0" shadowOffsetY="2" shadowBlur="4" shadowOpacity="160" blurEnabled="0" blurRadius="4" transform="matrix(0.479748,0,0,0.479748,78.3629,86.759)" pers-center="0,0" pers-size="0,0" pers-start="0,0" pers-end="0,0" locked="0" mesh="" flag=""/>
            <path id="shapePath16" d="M75.5804,85.1498 C75.2925,85.4376 75.0047,86.3012 75.0047,87.0208 C75.0047,88.6999 76.5878,89.3236 77.8832,88.1722 C78.4589,87.6444 78.8427,87.5485 79.0825,87.8843 C79.5143,88.6039 81.7212,88.556 81.7212,87.7884 C81.7212,87.1167 78.9386,85.1977 77.3075,84.8139 C76.6838,84.67 75.9162,84.8139 75.5804,85.1498 M77.2595,86.589 C77.1156,86.9728 76.9716,86.8289 76.9716,86.3012 C76.9237,85.7734 77.0676,85.4856 77.2115,85.6775 C77.3555,85.8214 77.4034,86.2532 77.2595,86.589 Z" style="stroke:none;fill-rule:nonzero;fill:#000000;fill-opacity:1;"/>
        </g>
    </g>
</svg>
