<?xml version="1.0"?>
<svg version="1.1" xmlns="http://www.w3.org/2000/svg" xmlns:xlink="http://www.w3.org/1999/xlink" width="100" height="100">
    <desc iVinci="yes" version="4.6" gridStep="20" showGrid="no" snapToGrid="no" codePlatform="0"/>
    <g id="Layer1" name="Layer 1" opacity="1">
        <g id="Shape1">
            <desc shapeID="1" type="0" basicInfo-basicType="0" basicInfo-roundedRectRadius="12" basicInfo-polygonSides="6" basicInfo-starPoints="5" bounding="rect(-15.3563,-6.59384,30.7126,13.1877)" text="" font-familyName="Helvetica" font-pixelSize="20" font-bold="0" font-underline="0" font-alignment="1" strokeStyle="0" markerStart="0" markerEnd="0" shadowEnabled="0" shadowOffsetX="0" shadowOffsetY="2" shadowBlur="4" shadowOpacity="160" blurEnabled="0" blurRadius="4" transform="matrix(1,0,0,1,63.4821,63.7478)" pers-center="0,0" pers-size="0,0" pers-start="0,0" pers-end="0,0" locked="0" mesh="" flag=""/>
            <path id="shapePath1" d="M48.1262,60.9155 C48.1262,60.9155 74.6343,57.154 74.6343,57.154 C74.6343,57.154 78.8384,60.0305 78.8384,60.0305 C78.8384,60.0305 72.5101,67.0668 72.5101,67.0668 C72.5101,67.0668 67.0226,70.2089 67.0226,70.2089 C67.0226,70.2089 62.3317,70.3416 62.3317,70.3416 C62.3317,70.3416 55.076,69.1315 51.2591,66.5989 C48.021,64.4502 48.1262,60.9155 48.1262,60.9155 Z" style="stroke:none;fill-rule:evenodd;fill:#5d5d5d;fill-opacity:1;"/>
        </g>
        <g id="Shape2">
            <desc shapeID="2" type="0" basicInfo-basicType="0" basicInfo-roundedRectRadius="12" basicInfo-polygonSides="6" basicInfo-starPoints="5" bounding="rect(-49.1718,-19.5665,98.3436,39.133)" text="" font-familyName="Helvetica" font-pixelSize="20" font-bold="0" font-underline="0" font-alignment="1" strokeStyle="0" markerStart="0" markerEnd="0" shadowEnabled="0" shadowOffsetX="0" shadowOffsetY="2" shadowBlur="4" shadowOpacity="160" blurEnabled="0" blurRadius="4" transform="matrix(1,0,0,1,50.2351,75.1544)" pers-center="0,0" pers-size="0,0" pers-start="0,0" pers-end="0,0" locked="0" mesh="" flag=""/>
            <path id="shapePath2" d="M31.7967,93.6642 C22.3288,93.4275 18.4291,95.2398 9.89083,91.1417 C3.72797,88.1837 1.38862,79.9823 1.12848,73.2187 C1.03201,70.7105 0.838066,67.8074 2.32335,65.784 C4.18317,63.2503 7.2706,61.6148 10.2891,60.739 C14.6411,59.4764 19.2996,59.5049 23.8309,59.5442 C29.5602,59.5938 35.2701,60.3094 40.9573,61.0045 C43.2492,61.2847 45.8494,61.1229 47.7282,62.4649 C49.2905,63.5808 48.5277,66.796 50.2507,67.6427 C54.1692,69.5681 58.7731,70.3328 63.1287,70.0324 C68.0172,69.6953 73.2042,68.618 77.2016,65.784 C79.6906,64.0194 79.0369,59.8212 80.919,57.4199 C81.7913,56.307 83.4879,55.9813 84.9018,55.9596 C89.3446,55.8912 95.0595,54.2869 96.9215,58.3213 C100.144,65.3023 100.856,80.0979 95.2589,85.3698 C89.9916,90.3312 84.0118,86.1788 78.0815,88.0912 C68.8099,91.0812 60.8888,93.7912 51.1801,94.5935 C44.7335,95.1263 38.2632,93.8259 31.7967,93.6642 Z" style="stroke:none;fill-rule:evenodd;fill:#e9c580;fill-opacity:1;"/>
        </g>
        <g id="Shape3">
            <desc shapeID="3" type="0" basicInfo-basicType="0" basicInfo-roundedRectRadius="12" basicInfo-polygonSides="6" basicInfo-starPoints="5" bounding="rect(0,0,0,0)" text="" font-familyName="Helvetica" font-pixelSize="20" font-bold="0" font-underline="0" font-alignment="1" strokeStyle="0" markerStart="0" markerEnd="0" shadowEnabled="0" shadowOffsetX="0" shadowOffsetY="2" shadowBlur="4" shadowOpacity="160" blurEnabled="0" blurRadius="4" transform="matrix(1,0,0,1,14.9508,59.3159)" pers-center="0,0" pers-size="0,0" pers-start="0,0" pers-end="0,0" locked="0" mesh="" flag=""/>
            <path id="shapePath3" d="M14.9508,59.3159 Z" style="stroke:none;fill-rule:evenodd;fill:#e9b958;fill-opacity:1;"/>
        </g>
        <g id="Shape4">
            <desc shapeID="4" type="0" basicInfo-basicType="0" basicInfo-roundedRectRadius="12" basicInfo-polygonSides="6" basicInfo-starPoints="5" bounding="rect(-13.4894,-2.99765,26.9788,5.99529)" text="" font-familyName="Helvetica" font-pixelSize="20" font-bold="0" font-underline="0" font-alignment="1" strokeStyle="0" markerStart="0" markerEnd="0" shadowEnabled="0" shadowOffsetX="0" shadowOffsetY="2" shadowBlur="4" shadowOpacity="160" blurEnabled="0" blurRadius="4" transform="matrix(1,0,0,1,27.9905,57.0677)" pers-center="0,0" pers-size="0,0" pers-start="0,0" pers-end="0,0" locked="0" mesh="" flag=""/>
            <path id="shapePath4" d="M14.5011,59.4658 C14.5011,59.4658 41.4799,60.0653 41.4799,60.0653 C41.4799,60.0653 33.9109,55.8686 33.9109,55.8686 C33.9109,55.8686 26.5666,54.07 26.5666,54.07 C26.5666,54.07 14.5011,59.4658 14.5011,59.4658 Z" style="stroke:none;fill-rule:evenodd;fill:#f9e6bd;fill-opacity:1;"/>
        </g>
        <g id="Shape5">
            <desc shapeID="5" type="0" basicInfo-basicType="0" basicInfo-roundedRectRadius="12" basicInfo-polygonSides="6" basicInfo-starPoints="5" bounding="rect(-9.35938,-2.40706,18.7188,4.81411)" text="" font-familyName="Helvetica" font-pixelSize="20" font-bold="0" font-underline="0" font-alignment="1" strokeStyle="0" markerStart="0" markerEnd="0" shadowEnabled="0" shadowOffsetX="0" shadowOffsetY="2" shadowBlur="4" shadowOpacity="160" blurEnabled="0" blurRadius="4" transform="matrix(1,0,0,1,45.4375,57.9523)" pers-center="0,0" pers-size="0,0" pers-start="0,0" pers-end="0,0" locked="0" mesh="" flag=""/>
            <path id="shapePath5" d="M36.0781,56.7969 C36.0781,56.7969 45.2969,60.3594 45.2969,60.3594 C45.2969,60.3594 54.7969,57.7656 54.7969,57.7656 C54.7969,57.7656 47.2637,55.8279 42.2492,55.5684 C37.9614,55.3464 36.0781,56.7969 36.0781,56.7969 Z" style="stroke:none;fill-rule:evenodd;fill:#f9f4d3;fill-opacity:1;"/>
        </g>
        <g id="Shape6">
            <desc shapeID="6" type="0" basicInfo-basicType="0" basicInfo-roundedRectRadius="12" basicInfo-polygonSides="6" basicInfo-starPoints="5" bounding="rect(-11.8307,-9.47935,23.6614,18.9587)" text="" font-familyName="" font-pixelSize="20" font-bold="0" font-underline="0" font-alignment="1" strokeStyle="0" markerStart="0" markerEnd="0" shadowEnabled="0" shadowOffsetX="0" shadowOffsetY="2" shadowBlur="4" shadowOpacity="160" blurEnabled="0" blurRadius="4" transform="matrix(0.564033,0,0,0.564033,57.1023,43.7652)" pers-center="0,0" pers-size="0,0" pers-start="0,0" pers-end="0,0" locked="0" mesh="" flag=""/>
            <path id="shapePath6" d="M57.4581,38.8109 C56.894,39.1494 56.4428,39.8262 56.4428,40.221 C56.4428,40.6722 56.1044,41.0671 55.7096,41.0671 C55.3147,41.0671 54.0739,41.8003 53.0022,42.7592 C50.8025,44.5641 49.7872,47.4406 50.8589,48.7943 C51.4229,49.4148 51.8742,49.1891 53.4534,47.5534 C55.4276,45.5229 56.7812,45.0153 59.263,45.1845 C60.5039,45.2973 60.6731,45.0717 60.5602,43.718 C60.4474,42.3643 60.5602,42.1951 61.2371,42.7592 C62.2523,43.6052 63.7752,43.0976 63.7752,41.9695 C63.7752,39.657 59.545,37.5137 57.4581,38.8109 Z" style="stroke:none;fill-rule:nonzero;fill:#000000;fill-opacity:1;"/>
        </g>
        <g id="Shape7">
            <desc shapeID="7" type="0" basicInfo-basicType="0" basicInfo-roundedRectRadius="12" basicInfo-polygonSides="6" basicInfo-starPoints="5" bounding="rect(-9.4578,-8.25423,18.9156,16.5085)" text="" font-familyName="" font-pixelSize="20" font-bold="0" font-underline="0" font-alignment="1" strokeStyle="0" markerStart="0" markerEnd="0" shadowEnabled="0" shadowOffsetX="0" shadowOffsetY="2" shadowBlur="4" shadowOpacity="160" blurEnabled="0" blurRadius="4" transform="matrix(0.564033,0,0,0.564033,69.6854,43.4666)" pers-center="0,0" pers-size="0,0" pers-start="0,0" pers-end="0,0" locked="0" mesh="" flag=""/>
            <path id="shapePath7" d="M66.5954,40.3338 C65.6365,41.2363 64.7341,42.7592 64.5085,43.8308 C64.1136,45.9742 64.1701,45.9742 68.2311,44.3385 C69.9232,43.6616 70.2052,43.718 70.7693,44.6769 C71.1077,45.2409 71.8409,46.3126 72.4614,47.1022 C73.4202,48.3995 73.533,48.3995 74.2662,47.4406 C75.1687,46.2562 75.2815,43.0976 74.4919,41.5747 C73.815,40.3338 71.0513,38.8109 69.472,38.8109 C68.7952,38.8109 67.5543,39.4878 66.5954,40.3338 Z" style="stroke:none;fill-rule:nonzero;fill:#000000;fill-opacity:1;"/>
        </g>
        <g id="Shape8">
            <desc shapeID="8" type="0" basicInfo-basicType="0" basicInfo-roundedRectRadius="12" basicInfo-polygonSides="6" basicInfo-starPoints="5" bounding="rect(-86.4919,-22.8792,172.984,45.7583)" text="" font-familyName="" font-pixelSize="20" font-bold="0" font-underline="0" font-alignment="1" strokeStyle="0" markerStart="0" markerEnd="0" shadowEnabled="0" shadowOffsetX="0" shadowOffsetY="2" shadowBlur="4" shadowOpacity="160" blurEnabled="0" blurRadius="4" transform="matrix(0.564033,0,0,0.564033,50.5159,58.4839)" pers-center="0,0" pers-size="0,0" pers-start="0,0" pers-end="0,0" locked="0" mesh="" flag=""/>
            <path id="shapePath8" d="M61.7447,49.6968 C61.6883,54.8859 60.7295,57.0856 58.4169,57.2548 C57.4581,57.3676 56.2172,57.1984 55.5968,56.9164 C52.1562,55.3935 41.2139,54.2654 39.0142,55.1679 C37.7733,55.6755 36.6453,55.5627 33.2611,54.6603 C27.8463,53.1374 25.8722,53.1938 21.7548,54.9423 C19.8935,55.7319 15.6068,57.3676 12.279,58.5521 C7.54114,60.1878 5.67984,61.1466 3.93135,62.8387 C2.74686,64.0232 1.73161,65.4333 1.73161,65.9973 C1.73161,66.8434 2.18282,66.6742 4.26975,65.0385 C5.67984,63.9668 7.76677,62.8387 8.95122,62.5003 C12.8995,61.2595 19.4986,61.1466 25.0262,62.2183 C28.918,62.9516 32.1894,63.1208 37.6041,62.9516 L44.9365,62.7259 L46.0646,65.0385 C47.9259,68.5919 51.9869,70.1148 63.2676,71.3556 C66.821,71.7505 75.2815,68.5355 81.1475,64.6437 C83.9112,62.7823 84.5317,61.2595 83.2908,59.3981 L82.3883,57.9881 L87.2954,58.0445 C90.0592,58.0445 93.4998,58.2701 95.0791,58.4957 C96.602,58.7777 98.1813,58.8341 98.5761,58.7213 C99.7605,58.2701 99.4221,56.4088 98.0685,55.6755 C96.1508,54.6603 85.7161,54.3218 81.1475,55.1679 C78.2709,55.6755 77.03,55.6755 76.5788,55.2243 C75.6763,54.3218 72.7998,54.4347 72.4614,55.3935 C72.2921,55.9011 71.3333,56.1267 69.5284,56.0139 L66.8774,55.9011 L66.4262,53.4194 C65.8057,49.9224 63.6624,45.5793 62.6472,45.5793 C61.9703,45.5793 61.7447,46.369 61.7447,49.6968 M32.7534,57.0292 L36.4196,58.2701 L33.5995,58.4957 C32.0766,58.5521 28.8052,58.3829 26.4362,57.9881 C24.0109,57.5932 21.3599,57.4804 20.5139,57.6496 C19.1038,57.9881 19.0474,57.9317 20.0627,57.3112 C23.9545,54.9423 26.3234,54.8859 32.7534,57.0292 M46.5722,57.142 L48.8284,57.8753 L46.5722,57.9317 C45.3314,57.9317 43.188,57.5932 41.778,57.1984 L39.2398,56.3524 L41.778,56.3524 C43.188,56.3524 45.3314,56.6908 46.5722,57.142 M75.8456,59.8494 C78.2709,61.6543 75.1123,64.5308 70.2052,65.0385 L67.4415,65.3205 L70.9385,64.3052 C76.2968,62.6695 77.3684,61.4851 74.6611,60.0186 C73.7022,59.5109 73.4202,59.1725 73.9842,59.1161 C74.4355,59.1161 75.2815,59.4545 75.8456,59.8494 M69.2464,61.7671 C68.6259,62.3875 67.2158,62.7259 64.7905,62.8387 C62.8164,62.8951 62.1395,62.8387 63.2112,62.7259 C68.2875,62.1055 68.8515,61.9363 68.8515,60.6954 C68.8515,59.7366 69.0207,59.6238 69.5284,60.1314 C70.0924,60.639 69.9796,61.0338 69.2464,61.7671 M57.9657,61.203 C57.7401,61.3723 57.9093,61.9363 58.2477,62.3875 C58.8118,63.0644 58.7553,63.1772 57.8529,63.0079 C56.4428,62.7259 55.9916,60.8082 57.3453,60.8082 C57.9093,60.8082 58.1349,60.9774 57.9657,61.203 M52.6638,63.0079 C52.269,64.5308 54.0175,65.3205 59.1502,65.8281 L63.4932,66.2229 L60.0526,66.6742 C57.9093,66.9562 55.766,66.8434 54.2995,66.4486 C51.6485,65.7717 50.2948,64.0232 51.4229,62.7259 C52.3254,61.5979 53.0022,61.7671 52.6638,63.0079 M67.4415,68.7611 C66.2006,69.3251 64.5649,69.7763 63.7752,69.7763 C62.6472,69.7763 62.8728,69.5507 64.9033,68.7047 C68.2875,67.2946 70.4873,67.2946 67.4415,68.7611 Z" style="stroke:none;fill-rule:nonzero;fill:#000000;fill-opacity:1;"/>
        </g>
        <g id="Shape9">
            <desc shapeID="9" type="0" basicInfo-basicType="0" basicInfo-roundedRectRadius="12" basicInfo-polygonSides="6" basicInfo-starPoints="5" bounding="rect(-2.98832,-2.425,5.97666,4.85)" text="" font-familyName="" font-pixelSize="20" font-bold="0" font-underline="0" font-alignment="1" strokeStyle="0" markerStart="0" markerEnd="0" shadowEnabled="0" shadowOffsetX="0" shadowOffsetY="2" shadowBlur="4" shadowOpacity="160" blurEnabled="0" blurRadius="4" transform="matrix(0.564033,0,0,0.564033,66.602,47.2725)" pers-center="0,0" pers-size="0,0" pers-start="0,0" pers-end="0,0" locked="0" mesh="" flag=""/>
            <path id="shapePath9" d="M65.6365,45.9742 C64.4521,46.369 64.7905,47.8355 66.2006,48.3431 C67.6671,48.9071 68.2875,48.6815 68.2875,47.5534 C68.2875,46.5946 66.5954,45.6357 65.6365,45.9742 Z" style="stroke:none;fill-rule:nonzero;fill:#000000;fill-opacity:1;"/>
        </g>
        <g id="Shape10">
            <desc shapeID="10" type="0" basicInfo-basicType="0" basicInfo-roundedRectRadius="12" basicInfo-polygonSides="6" basicInfo-starPoints="5" bounding="rect(-1.91254,-1.95275,3.82501,3.90551)" text="" font-familyName="" font-pixelSize="20" font-bold="0" font-underline="0" font-alignment="1" strokeStyle="0" markerStart="0" markerEnd="0" shadowEnabled="0" shadowOffsetX="0" shadowOffsetY="2" shadowBlur="4" shadowOpacity="160" blurEnabled="0" blurRadius="4" transform="matrix(0.564033,0,0,0.564033,48.5957,49.2574)" pers-center="0,0" pers-size="0,0" pers-start="0,0" pers-end="0,0" locked="0" mesh="" flag=""/>
            <path id="shapePath10" d="M47.6439,48.6815 C47.4747,49.1327 47.4747,49.7532 47.6439,50.0352 C48.1515,50.7684 49.6744,50.148 49.6744,49.2455 C49.6744,48.1739 47.9823,47.7227 47.6439,48.6815 Z" style="stroke:none;fill-rule:nonzero;fill:#000000;fill-opacity:1;"/>
        </g>
        <g id="Shape11">
            <desc shapeID="11" type="0" basicInfo-basicType="0" basicInfo-roundedRectRadius="12" basicInfo-polygonSides="6" basicInfo-starPoints="5" bounding="rect(-4.2065,-4.32102,8.41296,8.64202)" text="" font-familyName="" font-pixelSize="20" font-bold="0" font-underline="0" font-alignment="1" strokeStyle="0" markerStart="0" markerEnd="0" shadowEnabled="0" shadowOffsetX="0" shadowOffsetY="2" shadowBlur="4" shadowOpacity="160" blurEnabled="0" blurRadius="4" transform="matrix(0.564033,0,0,0.564033,57.7134,50.2907)" pers-center="0,0" pers-size="0,0" pers-start="0,0" pers-end="0,0" locked="0" mesh="" flag=""/>
            <path id="shapePath11" d="M56.2736,48.8507 C55.0891,50.148 55.0327,52.2913 56.1044,52.6861 C57.2325,53.1374 60.4474,49.8096 60.0526,48.6815 C59.6014,47.497 57.4017,47.6099 56.2736,48.8507 Z" style="stroke:none;fill-rule:nonzero;fill:#000000;fill-opacity:1;"/>
        </g>
        <g id="Shape12">
            <desc shapeID="12" type="0" basicInfo-basicType="0" basicInfo-roundedRectRadius="12" basicInfo-polygonSides="6" basicInfo-starPoints="5" bounding="rect(-1.95575,-2.15815,3.91148,4.31631)" text="" font-familyName="" font-pixelSize="20" font-bold="0" font-underline="0" font-alignment="1" strokeStyle="0" markerStart="0" markerEnd="0" shadowEnabled="0" shadowOffsetX="0" shadowOffsetY="2" shadowBlur="4" shadowOpacity="160" blurEnabled="0" blurRadius="4" transform="matrix(0.564033,0,0,0.564033,75.3399,49.9814)" pers-center="0,0" pers-size="0,0" pers-start="0,0" pers-end="0,0" locked="0" mesh="" flag=""/>
            <path id="shapePath12" d="M74.6047,49.0763 C74.1535,49.5276 74.097,49.9224 74.5483,50.4864 C75.3943,51.4453 75.9583,51.4453 76.3532,50.43 C76.8044,49.2455 75.4507,48.2303 74.6047,49.0763 Z" style="stroke:none;fill-rule:nonzero;fill:#000000;fill-opacity:1;"/>
        </g>
        <g id="Shape13">
            <desc shapeID="13" type="0" basicInfo-basicType="0" basicInfo-roundedRectRadius="12" basicInfo-polygonSides="6" basicInfo-starPoints="5" bounding="rect(-1.33853,-1.05,2.67706,2.10001)" text="" font-familyName="" font-pixelSize="20" font-bold="0" font-underline="0" font-alignment="1" strokeStyle="0" markerStart="0" markerEnd="0" shadowEnabled="0" shadowOffsetX="0" shadowOffsetY="2" shadowBlur="4" shadowOpacity="160" blurEnabled="0" blurRadius="4" transform="matrix(0.564033,0,0,0.564033,55.0327,54.068)" pers-center="0,0" pers-size="0,0" pers-start="0,0" pers-end="0,0" locked="0" mesh="" flag=""/>
            <path id="shapePath13" d="M54.2995,54.0962 C54.4123,54.4347 54.7507,54.6603 55.0327,54.6603 C55.3148,54.6603 55.6532,54.4347 55.766,54.0962 C55.8788,53.7578 55.5404,53.4758 55.0327,53.4758 C54.5251,53.4758 54.1867,53.7578 54.2995,54.0962 Z" style="stroke:none;fill-rule:nonzero;fill:#000000;fill-opacity:1;"/>
        </g>
        <g id="Shape14">
            <desc shapeID="14" type="0" basicInfo-basicType="0" basicInfo-roundedRectRadius="12" basicInfo-polygonSides="6" basicInfo-starPoints="5" bounding="rect(-13.1502,-6.94666,26.3004,13.8933)" text="" font-familyName="" font-pixelSize="20" font-bold="0" font-underline="0" font-alignment="1" strokeStyle="0" markerStart="0" markerEnd="0" shadowEnabled="0" shadowOffsetX="0" shadowOffsetY="2" shadowBlur="4" shadowOpacity="160" blurEnabled="0" blurRadius="4" transform="matrix(0.564033,0,0,0.564033,32.1944,82.0818)" pers-center="0,0" pers-size="0,0" pers-start="0,0" pers-end="0,0" locked="0" mesh="" flag=""/>
            <path id="shapePath14" d="M33.0685,79.8287 C32.8429,80.7312 32.8429,81.9157 33.0121,82.3669 C33.6889,84.059 31.8276,83.1565 30.9816,81.408 C29.1203,77.5162 24.7772,78.3623 24.7772,82.6489 C24.7772,85.9767 26.6385,87.0484 28.669,84.8486 C29.3459,84.1154 29.8535,83.8898 30.1355,84.2846 C30.5867,85.0178 32.6737,85.1307 32.6737,84.3974 C32.6737,84.1154 33.1249,84.0026 33.6889,84.1718 C34.4221,84.341 34.9298,83.8898 35.4938,82.5361 C36.3963,80.562 37.3551,80.28 37.6936,81.9157 C37.8064,82.4797 38.1448,83.2693 38.4832,83.6642 C39.3857,84.7922 39.9497,83.3822 39.3857,81.3516 C38.7088,78.8699 38.032,78.4187 36.3963,79.1519 C35.3246,79.6595 34.9862,79.6031 34.7042,78.9263 C34.1966,77.629 33.4069,78.0238 33.0685,79.8287 M28.7254,82.0285 C28.7254,82.3669 28.4998,82.7617 28.1614,82.9309 C27.8794,83.1001 27.5974,82.8745 27.5974,82.4233 C27.5974,81.9157 27.8794,81.5208 28.1614,81.5208 C28.4998,81.5208 28.7254,81.7465 28.7254,82.0285 Z" style="stroke:none;fill-rule:nonzero;fill:#000000;fill-opacity:1;"/>
        </g>
        <g id="Shape15">
            <desc shapeID="15" type="0" basicInfo-basicType="0" basicInfo-roundedRectRadius="12" basicInfo-polygonSides="6" basicInfo-starPoints="5" bounding="rect(-6.00931,-8.33817,12.0186,16.6763)" text="" font-familyName="" font-pixelSize="20" font-bold="0" font-underline="0" font-alignment="1" strokeStyle="0" markerStart="0" markerEnd="0" shadowEnabled="0" shadowOffsetX="0" shadowOffsetY="2" shadowBlur="4" shadowOpacity="160" blurEnabled="0" blurRadius="4" transform="matrix(0.564033,0,0,0.564033,19.7633,83.4567)" pers-center="0,0" pers-size="0,0" pers-start="0,0" pers-end="0,0" locked="0" mesh="" flag=""/>
            <path id="shapePath15" d="M19.8701,79.8288 C17.1628,81.4644 17.5012,84.9051 20.3777,84.9051 C21.7878,84.9051 21.675,85.8639 20.1521,86.3715 C19.2497,86.6536 18.6292,86.4279 17.9524,85.5255 C16.6551,83.9462 16.2039,84.0026 16.4295,85.8639 C16.5423,87.0484 16.9935,87.4996 18.46,87.9508 C22.5775,89.0789 25.0028,85.3563 21.393,83.495 C20.4906,82.9873 19.7009,82.4233 19.7009,82.2541 C19.7009,82.0285 20.3777,81.126 21.2238,80.28 C22.9723,78.4187 22.4083,78.2495 19.8701,79.8288 Z" style="stroke:none;fill-rule:nonzero;fill:#000000;fill-opacity:1;"/>
        </g>
    </g>
</svg>
