<?xml version="1.0"?>
<svg version="1.1" xmlns="http://www.w3.org/2000/svg" xmlns:xlink="http://www.w3.org/1999/xlink" width="100" height="100">
    <desc iVinci="yes" version="4.6" gridStep="20" showGrid="no" snapToGrid="no" codePlatform="0"/>
    <g id="Layer1" name="Layer 2" opacity="1">
        <g id="Shape1">
            <desc shapeID="1" type="0" basicInfo-basicType="0" basicInfo-roundedRectRadius="12" basicInfo-polygonSides="6" basicInfo-starPoints="5" bounding="rect(-40.9887,-44.6714,81.9774,89.3429)" text="" font-familyName="Helvetica" font-pixelSize="20" font-bold="0" font-underline="0" font-alignment="1" strokeStyle="0" markerStart="0" markerEnd="0" shadowEnabled="0" shadowOffsetX="0" shadowOffsetY="2" shadowBlur="4" shadowOpacity="160" blurEnabled="0" blurRadius="4" transform="matrix(1,0,0,1,51.2273,48.2582)" pers-center="0,0" pers-size="0,0" pers-start="0,0" pers-end="0,0" locked="0" mesh="" flag=""/>
            <path id="shapePath1" d="M10.2386,24.8464 C10.2386,24.8464 15.747,29.1953 16.1856,33.8901 C16.5577,37.8731 11.8709,42.3197 11.8709,42.3197 C11.8709,42.3197 10.8415,49.2236 12.284,55.3317 C13.1974,59.1992 16.8707,61.7649 16.7883,65.188 C16.6908,69.2379 11.1516,72.1917 11.1516,72.1917 C11.1516,72.1917 37.3675,71.8004 37.3675,71.8004 C37.3675,71.8004 44.541,82.7563 44.541,82.7563 C44.541,82.7563 54.4535,92.6688 54.4535,92.6688 C54.4535,92.6688 58.2374,90.9792 62.4353,91.0448 C66.5844,91.1096 71.1482,92.9296 71.1482,92.9296 C71.1482,92.9296 91.8862,71.8004 92.0166,71.8004 C92.9972,71.8004 90.0739,67.1042 89.4579,61.7074 C88.9943,57.6464 91.7364,55.4948 91.6752,51.9009 C91.6104,48.1048 88.756,42.9759 88.756,42.9759 C88.756,42.9759 90.4486,36.0978 90.2145,32.2353 C90.0038,28.7598 87.9045,28.4839 87.2465,24.8464 C86.5061,20.7536 87.2465,16.6178 87.2465,16.6178 C87.2465,16.6178 78.713,3.58676 78.713,3.58676 C78.713,3.58676 75.4836,10.5705 71.5473,10.884 C68.155,11.1542 63.9747,4.7606 63.9747,4.7606 C63.9747,4.7606 63.9747,17.5425 63.9747,17.5425 C63.9747,17.5425 10.2386,24.8464 10.2386,24.8464 Z" style="stroke:none;fill-rule:evenodd;fill:#d9cbb6;fill-opacity:1;"/>
        </g>
        <g id="Shape2">
            <desc shapeID="2" type="0" basicInfo-basicType="0" basicInfo-roundedRectRadius="12" basicInfo-polygonSides="6" basicInfo-starPoints="5" bounding="rect(-50.1945,-34.5,100.389,69)" text="" font-familyName="" font-pixelSize="20" font-bold="0" font-underline="0" font-alignment="1" strokeStyle="0" markerStart="0" markerEnd="0" shadowEnabled="0" shadowOffsetX="0" shadowOffsetY="2" shadowBlur="4" shadowOpacity="160" blurEnabled="0" blurRadius="4" transform="matrix(0.651129,0,0,0.651129,34.5647,23.1695)" pers-center="0,0" pers-size="0,0" pers-start="0,0" pers-end="0,0" locked="0" mesh="" flag=""/>
            <path id="shapePath2" d="M61.0124,2.72409 C60.4264,4.54724 60.231,4.61236 59.2543,3.70078 C57.8219,2.39853 56.3243,2.39853 55.3476,3.57055 C54.7615,4.28679 54.8267,4.67748 55.608,5.45882 C56.8452,6.69598 56.8452,7.21688 55.6731,7.21688 C55.2174,7.21688 54.3709,7.80289 53.9151,8.58425 C53.1337,9.69116 52.4175,9.88651 49.1618,9.69116 C44.0934,10.1731 45.9083,10.0998 44.2784,10.2772 C42.7175,10.4471 39.5903,10.733 39.5903,10.733 C36.9858,10.9283 36.2438,10.6806 34.5766,10.7981 C31.3128,11.0281 28.0519,11.3356 24.8096,11.7748 C19.2368,12.5297 9.37788,13.1422 8.14072,14.3793 C7.68496,14.8351 7.68496,15.8769 8.20586,17.6349 C8.53142,19.0674 8.59652,20.2395 8.33609,20.2395 C8.01053,20.2395 7.75006,21.0208 7.75006,21.9324 C7.75006,23.43 7.55473,23.5602 5.92691,23.2347 C4.81998,22.9742 3.64795,23.1695 2.86659,23.8207 C1.56433,24.7974 1.56433,24.7974 2.80149,25.7741 C3.51772,26.2949 4.55951,26.7507 5.08045,26.7507 C5.66644,26.7507 7.55473,27.5321 9.31278,28.4437 C12.0475,29.8762 12.9591,30.0715 15.8241,29.6808 C22.5958,28.7692 27.6746,28.7041 28.7164,29.4855 C29.3024,29.9413 30.214,32.4807 30.8,35.1503 C32.6883,43.6801 34.3161,45.6335 39.2647,45.6335 C44.6039,45.6335 44.9946,45.1126 45.6457,36.4526 C46.362,27.0112 47.0132,24.9276 49.6828,23.8207 C50.7897,23.3649 54.8918,22.5835 58.7986,22.1277 C65.375,21.3464 65.8959,21.151 66.547,19.5883 C67.5237,17.2443 67.4586,6.3053 66.4819,5.13326 C66.0912,4.61236 65.8959,3.96123 66.1563,3.7659 C66.8074,3.04965 64.3332,0.705585 62.9658,0.705585 C62.1844,0.705585 61.4682,1.42183 61.0124,2.72409 Z" style="stroke:none;fill-rule:evenodd;fill:#574640;fill-opacity:1;"/>
        </g>
        <g id="Shape3">
            <desc shapeID="3" type="0" basicInfo-basicType="0" basicInfo-roundedRectRadius="12" basicInfo-polygonSides="6" basicInfo-starPoints="5" bounding="rect(-12.1015,-14.8278,24.203,29.6555)" text="" font-familyName="" font-pixelSize="20" font-bold="0" font-underline="0" font-alignment="1" strokeStyle="0" markerStart="0" markerEnd="0" shadowEnabled="0" shadowOffsetX="0" shadowOffsetY="2" shadowBlur="4" shadowOpacity="160" blurEnabled="0" blurRadius="4" transform="matrix(0.651129,0,0,0.651129,83.6152,11.0115)" pers-center="0,0" pers-size="0,0" pers-start="0,0" pers-end="0,0" locked="0" mesh="" flag=""/>
            <path id="shapePath3" d="M77.4209,2.33341 C76.1837,3.831 75.207,12.8817 76.0535,14.8351 C76.4442,15.6816 76.7697,17.114 76.7697,17.9605 C76.7697,19.9139 76.9651,20.0441 81.7834,20.565 C85.7553,20.9557 88.9458,20.1743 88.1645,18.9372 C87.9691,18.6116 88.4249,17.9605 89.2063,17.3745 C90.3783,16.5931 90.5085,16.2024 89.8574,15.4211 C89.2063,14.6397 89.3365,14.3793 90.4434,14.0537 C91.8108,13.5979 91.8108,13.5979 90.6388,12.2957 C89.9877,11.5794 89.5318,10.4074 89.6621,9.75628 C89.8574,8.51914 87.4483,7.02155 86.4065,7.67268 C86.0809,7.80289 85.2344,7.21688 84.4531,6.37042 C83.6066,5.45882 82.3694,4.67748 81.6532,4.54724 C80.937,4.35191 80.3509,3.96123 80.3509,3.63567 C80.3509,2.72409 79.3742,1.35672 78.7882,1.35672 C78.4626,1.35672 77.8766,1.81251 77.4209,2.33341 Z" style="stroke:none;fill-rule:nonzero;fill:#574640;fill-opacity:1;"/>
        </g>
        <g id="Shape4">
            <desc shapeID="4" type="0" basicInfo-basicType="0" basicInfo-roundedRectRadius="12" basicInfo-polygonSides="6" basicInfo-starPoints="5" bounding="rect(-33.7872,-36.1691,67.5744,72.3382)" text="" font-familyName="" font-pixelSize="20" font-bold="0" font-underline="0" font-alignment="1" strokeStyle="0" markerStart="0" markerEnd="0" shadowEnabled="0" shadowOffsetX="0" shadowOffsetY="2" shadowBlur="4" shadowOpacity="160" blurEnabled="0" blurRadius="4" transform="matrix(0.651129,0,0,0.651129,75.3486,53.2316)" pers-center="0,0" pers-size="0,0" pers-start="0,0" pers-end="0,0" locked="0" mesh="" flag=""/>
            <path id="shapePath4" d="M64.0727,30.1366 C58.2776,30.8529 57.3661,31.1784 56.2592,32.8714 C54.436,35.6061 53.4593,44.0708 53.3942,58.0049 C53.264,71.0275 53.3291,71.4182 54.7615,73.632 C56.129,75.6505 56.7149,75.9761 60.2961,76.497 C63.8773,77.0179 64.5285,76.8877 66.6772,75.5854 C69.6073,73.7623 70.1933,72.3298 70.8445,65.0371 C71.6258,56.7027 71.5607,56.7678 82.8904,56.5725 C91.4852,56.3771 92.0713,56.312 92.2666,55.0749 C92.3968,54.3586 92.8526,53.447 93.2433,53.1215 C94.6107,52.0145 95.7827,48.7589 95.0664,48.0427 C94.2851,47.2613 94.806,45.7637 96.4338,43.9406 C97.6059,42.6383 97.6059,42.3778 96.6943,40.5547 C96.1082,39.4478 95.4571,38.4711 95.1967,38.3408 C94.8711,38.2757 93.8293,37.0386 92.7875,35.6061 C91.4201,33.7829 91.1597,33.0016 91.7457,32.6109 C92.1364,32.3505 92.3968,31.5691 92.2666,30.918 C92.0713,29.746 91.2899,29.6808 80.0254,29.6808 C73.3839,29.6808 66.2215,29.8762 64.0727,30.1366 Z" style="stroke:none;fill-rule:nonzero;fill:#413530;fill-opacity:1;"/>
        </g>
        <g id="Shape5">
            <desc shapeID="5" type="0" basicInfo-basicType="0" basicInfo-roundedRectRadius="12" basicInfo-polygonSides="6" basicInfo-starPoints="5" bounding="rect(-15.3873,-17.3214,30.7746,34.6428)" text="" font-familyName="" font-pixelSize="20" font-bold="0" font-underline="0" font-alignment="1" strokeStyle="0" markerStart="0" markerEnd="0" shadowEnabled="0" shadowOffsetX="0" shadowOffsetY="2" shadowBlur="4" shadowOpacity="160" blurEnabled="0" blurRadius="4" transform="matrix(0.651129,0,0,0.651129,17.8559,49.0984)" pers-center="0,0" pers-size="0,0" pers-start="0,0" pers-end="0,0" locked="0" mesh="" flag=""/>
            <path id="shapePath5" d="M13.8055,38.7966 C11.4615,39.7733 9.18253,43.4197 10.2243,44.4615 C10.6801,44.9172 10.6801,45.6335 10.1592,46.7404 C9.63833,47.9124 9.63833,48.6287 10.1592,49.4752 C10.7452,50.3867 10.5499,51.0379 9.31277,52.4703 C7.42448,54.6842 7.35938,55.2051 9.0523,55.726 C9.76853,55.9213 10.3546,56.3771 10.3546,56.7027 C10.3546,59.3723 17.9076,61.3257 22.6609,59.8932 C26.5025,58.7212 27.4141,57.4189 27.8048,52.275 C28.1304,47.2613 27.349,44.0708 24.9399,40.2291 C23.4422,37.8851 23.2469,37.8199 19.6006,37.8199 C17.5821,37.8851 14.9776,38.2757 13.8055,38.7966 Z" style="stroke:none;fill-rule:nonzero;fill:#413530;fill-opacity:1;"/>
        </g>
        <g id="Shape6">
            <desc shapeID="6" type="0" basicInfo-basicType="0" basicInfo-roundedRectRadius="12" basicInfo-polygonSides="6" basicInfo-starPoints="5" bounding="rect(-41.3994,-35.3835,82.7987,70.7671)" text="" font-familyName="" font-pixelSize="20" font-bold="0" font-underline="0" font-alignment="1" strokeStyle="0" markerStart="0" markerEnd="0" shadowEnabled="0" shadowOffsetX="0" shadowOffsetY="2" shadowBlur="4" shadowOpacity="160" blurEnabled="0" blurRadius="4" transform="matrix(0.651129,0,0,0.651129,30.1485,75.8901)" pers-center="0,0" pers-size="0,0" pers-start="0,0" pers-end="0,0" locked="0" mesh="" flag=""/>
            <path id="shapePath6" d="M37.2462,53.5773 C35.6184,54.3586 34.4463,57.2236 34.4463,60.2839 C34.4463,63.8651 33.665,66.4696 32.4929,67.1208 C31.8418,67.4463 29.1722,67.9021 26.5025,68.0974 C23.898,68.2928 19.3401,68.8137 16.41,69.1393 C10.6801,69.9206 10.8755,69.7904 5.79666,75.6505 L3.19214,78.6457 L4.81996,80.1433 C6.12222,81.3805 6.25245,81.7711 5.53619,82.4874 C4.4293,83.5292 4.9502,86.6546 6.25245,86.6546 C6.90358,86.6546 7.03382,87.0453 6.77335,87.8918 C6.51288,88.7382 6.83845,89.4545 7.75004,90.1056 C8.5314,90.6265 8.92207,91.473 8.72674,91.9939 C8.33607,92.9706 9.76853,94.6635 10.7452,94.3379 C11.6568,94.0775 14.2613,96.0309 14.2613,96.8773 C14.2613,97.9191 15.9543,98.0494 21.4237,97.5285 C22.3353,97.3982 24.0283,97.7889 25.2003,98.3098 C27.0886,99.2214 27.4792,99.1563 29.7582,97.9191 C31.9069,96.8122 32.4929,96.7471 33.8603,97.3982 C35.423,98.2447 39.3298,98.3098 40.1111,97.5285 C40.3065,97.268 41.0227,97.3982 41.6738,97.7238 C42.7808,98.3749 44.2784,97.9843 46.8178,96.4867 C48.9665,95.2495 51.1803,94.4682 53.264,94.3379 C55.2825,94.1426 55.5429,93.8822 56.4545,91.0172 C57.2358,88.608 57.3009,87.5662 56.7149,86.3291 C55.8685,84.4408 55.5429,84.3105 51.1803,83.7245 C47.7945,83.2687 46.8178,82.0967 46.8178,78.3202 C46.8178,77.3435 46.8178,72.5902 46.8178,67.7719 C46.7527,58.1352 46.1016,54.4888 44.2133,53.447 C42.6505,52.6006 39.1344,52.6657 37.2462,53.5773 M23.3771,76.2366 C23.3771,76.5621 22.9213,76.8877 22.3353,76.8877 C21.8144,76.8877 21.554,76.5621 21.7493,76.2366 C21.9446,75.8459 22.4004,75.5854 22.7911,75.5854 C23.1167,75.5854 23.3771,75.8459 23.3771,76.2366 M37.5718,78.9062 C37.8322,80.9247 36.3997,82.292 34.3161,81.9665 C32.4278,81.706 32.0371,79.7526 33.5347,78.1248 C35.1626,76.3668 37.3113,76.7575 37.5718,78.9062 M19.6006,79.2318 C19.861,79.4271 20.1215,80.2084 20.1215,80.9898 C20.0564,82.292 19.9913,82.292 19.4053,81.2503 C18.5588,79.7526 17.517,79.8178 17.517,81.4456 C17.517,82.1618 17.0612,82.7478 16.5403,82.7478 C15.8892,82.7478 15.5636,82.0967 15.5636,81.0549 C15.5636,79.6224 15.4334,79.4271 14.5869,80.1433 C14.066,80.5991 13.6102,81.5107 13.6102,82.1618 C13.6102,82.8781 13.1544,83.399 12.6335,83.399 C11.2662,83.399 11.3963,80.534 12.7637,79.1666 C13.5451,78.3202 14.4567,78.1899 16.41,78.4504 C17.8425,78.7108 19.275,79.0364 19.6006,79.2318 M31.8418,78.776 C31.8418,79.1015 31.2558,79.4922 30.4745,79.6875 C29.7582,79.8829 28.9768,80.6642 28.7815,81.3805 C28.5862,82.1618 28.1955,82.7478 27.935,82.7478 C27.4141,82.7478 26.5677,79.4271 26.9583,78.8411 C27.349,78.1899 31.8418,78.1248 31.8418,78.776 M24.0283,80.7945 C24.0283,81.8363 23.7678,82.7478 23.4422,82.7478 C22.7911,82.7478 22.0098,80.1433 22.4655,79.362 C23.1818,78.1899 24.0283,78.9713 24.0283,80.7945 Z" style="stroke:none;fill-rule:nonzero;fill:#312825;fill-opacity:1;"/>
        </g>
        <g id="Shape7">
            <desc shapeID="7" type="0" basicInfo-basicType="0" basicInfo-roundedRectRadius="12" basicInfo-polygonSides="6" basicInfo-starPoints="5" bounding="rect(-2,-2,4,4)" text="" font-familyName="" font-pixelSize="20" font-bold="0" font-underline="0" font-alignment="1" strokeStyle="0" markerStart="0" markerEnd="0" shadowEnabled="0" shadowOffsetX="0" shadowOffsetY="2" shadowBlur="4" shadowOpacity="160" blurEnabled="0" blurRadius="4" transform="matrix(0.651129,0,0,0.651129,35.0975,79.4922)" pers-center="0,0" pers-size="0,0" pers-start="0,0" pers-end="0,0" locked="0" mesh="" flag=""/>
            <path id="shapePath7" d="M33.7952,79.4922 C33.7952,80.3387 34.251,80.7945 35.0975,80.7945 C35.9439,80.7945 36.3997,80.3387 36.3997,79.4922 C36.3997,78.6457 35.9439,78.1899 35.0975,78.1899 C34.251,78.1899 33.7952,78.6457 33.7952,79.4922 Z" style="stroke:none;fill-rule:nonzero;fill:#312825;fill-opacity:1;"/>
        </g>
        <g id="Shape8">
            <desc shapeID="8" type="0" basicInfo-basicType="0" basicInfo-roundedRectRadius="12" basicInfo-polygonSides="6" basicInfo-starPoints="5" bounding="rect(-21.8187,-22.7242,43.6375,45.4483)" text="" font-familyName="" font-pixelSize="20" font-bold="0" font-underline="0" font-alignment="1" strokeStyle="0" markerStart="0" markerEnd="0" shadowEnabled="0" shadowOffsetX="0" shadowOffsetY="2" shadowBlur="4" shadowOpacity="160" blurEnabled="0" blurRadius="4" transform="matrix(0.651129,0,0,0.651129,82.1914,80.9984)" pers-center="0,0" pers-size="0,0" pers-start="0,0" pers-end="0,0" locked="0" mesh="" flag=""/>
            <path id="shapePath8" d="M81.7834,66.7952 C78.7231,67.837 77.6162,69.2695 77.1604,72.7856 C75.8581,82.3572 76.2488,81.4456 72.928,82.9432 C71.3002,83.6594 69.7375,84.5059 69.5422,84.8315 C69.2817,85.2221 68.7608,87.5662 68.3701,90.1056 C67.5237,95.1844 68.0446,96.682 70.1933,95.3146 C70.8445,94.924 71.7561,94.7937 72.2118,95.1193 C72.7327,95.4449 73.7094,95.3797 74.4257,94.924 C75.207,94.5333 76.1186,94.2728 76.4442,94.4031 C77.4859,94.7937 82.4997,95.1844 86.0809,95.1844 C86.4716,95.1844 88.2296,95.3146 89.8574,95.51 C93.634,95.9658 95.1315,94.7937 94.5456,91.6683 C94.3502,90.4963 93.8944,89.4545 93.5689,89.3894 C92.7875,89.0638 92.9177,87.436 93.8944,87.1104 C94.4804,86.9151 94.4804,86.5244 93.8293,85.3524 C93.113,84.1803 93.113,83.7897 93.7642,83.399 C94.1548,83.0734 94.3502,82.4223 94.1548,81.8363 C93.8944,81.2503 94.0246,80.7945 94.3502,80.7945 C95.1967,80.7945 95.1967,77.7341 94.3502,77.2133 C93.2433,76.497 93.634,74.4785 95.0013,74.0878 C97.0849,73.5669 96.7593,70.5066 94.5456,69.595 C93.5037,69.1393 92.2666,68.3579 91.7457,67.7068 C90.3783,66.2092 84.8437,65.6883 81.7834,66.7952 Z" style="stroke:none;fill-rule:nonzero;fill:#312825;fill-opacity:1;"/>
        </g>
        <g id="Shape9">
            <desc shapeID="9" type="0" basicInfo-basicType="0" basicInfo-roundedRectRadius="12" basicInfo-polygonSides="6" basicInfo-starPoints="5" bounding="rect(0,0,0,0)" text="" font-familyName="Helvetica" font-pixelSize="20" font-bold="0" font-underline="0" font-alignment="1" strokeStyle="0" markerStart="0" markerEnd="0" shadowEnabled="0" shadowOffsetX="0" shadowOffsetY="2" shadowBlur="4" shadowOpacity="160" blurEnabled="0" blurRadius="4" transform="matrix(1,0,0,1,47.9497,10.0891)" pers-center="0,0" pers-size="0,0" pers-start="0,0" pers-end="0,0" locked="0" mesh="" flag=""/>
            <path id="shapePath9" d="M47.9497,10.0891 Z" style="stroke:none;fill-rule:evenodd;fill:#000000;fill-opacity:1;"/>
        </g>
        <g id="Shape10">
            <desc shapeID="10" type="0" basicInfo-basicType="0" basicInfo-roundedRectRadius="12" basicInfo-polygonSides="6" basicInfo-starPoints="5" bounding="rect(-9.16778,-6.77365,18.3356,13.5473)" text="" font-familyName="Helvetica" font-pixelSize="20" font-bold="0" font-underline="0" font-alignment="1" strokeStyle="0" markerStart="0" markerEnd="0" shadowEnabled="0" shadowOffsetX="0" shadowOffsetY="2" shadowBlur="4" shadowOpacity="160" blurEnabled="0" blurRadius="4" transform="matrix(0.416093,0,0,0.416093,40.5601,7.92363)" pers-center="0,0" pers-size="0,0" pers-start="0,0" pers-end="0,0" locked="0" mesh="" flag=""/>
            <path id="shapePath10" d="M44.0876,10.6688 C42.9932,11.0504 41.8856,9.83185 40.6981,9.53865 C39.6585,9.28197 38.9346,8.94937 38.0868,8.3918 C37.0819,7.73086 36.4458,7.05231 36.8885,5.93396 C37.2029,5.13964 38.548,4.94323 39.3527,5.22989 C40.5856,5.66905 41.4153,6.86543 42.2746,7.85254 C43.0077,8.69462 45.1418,10.3013 44.0876,10.6688 Z" style="stroke:none;fill-rule:evenodd;fill:#7dd196;fill-opacity:1;"/>
        </g>
        <g id="Shape11">
            <desc shapeID="11" type="0" basicInfo-basicType="0" basicInfo-roundedRectRadius="12" basicInfo-polygonSides="6" basicInfo-starPoints="5" bounding="rect(-11.3577,-9.6157,22.7154,19.2314)" text="" font-familyName="Helvetica" font-pixelSize="20" font-bold="0" font-underline="0" font-alignment="1" strokeStyle="0" markerStart="0" markerEnd="0" shadowEnabled="0" shadowOffsetX="0" shadowOffsetY="2" shadowBlur="4" shadowOpacity="160" blurEnabled="0" blurRadius="4" transform="matrix(0.312974,0,0,0.312974,47.4018,7.41263)" pers-center="0,0" pers-size="0,0" pers-start="0,0" pers-end="0,0" locked="0" mesh="" flag=""/>
            <path id="shapePath11" d="M43.8662,10.1767 C43.6883,8.64041 44.786,7.05021 45.9491,6.03079 C47.1493,4.97883 48.8607,4.52413 50.4521,4.40415 C50.899,4.37045 50.9877,5.20746 50.948,5.65388 C50.8818,6.4001 50.7973,7.37176 50.1545,7.75661 C49.4605,8.17216 48.5427,7.54591 47.7344,7.57808 C47.2005,7.59933 46.6108,7.61734 46.1673,7.91531 C45.2746,8.51502 43.9899,11.245 43.8662,10.1767 Z" style="stroke:none;fill-rule:evenodd;fill:#7dd196;fill-opacity:1;"/>
        </g>
        <g id="Shape12">
            <desc shapeID="12" type="0" basicInfo-basicType="0" basicInfo-roundedRectRadius="12" basicInfo-polygonSides="6" basicInfo-starPoints="5" bounding="rect(-9.16778,-6.77365,18.3356,13.5473)" text="" font-familyName="Helvetica" font-pixelSize="20" font-bold="0" font-underline="0" font-alignment="1" strokeStyle="0" markerStart="0" markerEnd="0" shadowEnabled="0" shadowOffsetX="0" shadowOffsetY="2" shadowBlur="4" shadowOpacity="160" blurEnabled="0" blurRadius="4" transform="matrix(0.216581,0,0,0.216581,29.6923,10.2718)" pers-center="0,0" pers-size="0,0" pers-start="0,0" pers-end="0,0" locked="0" mesh="" flag=""/>
            <path id="shapePath12" d="M31.5284,11.7007 C30.9588,11.8993 30.3823,11.2651 29.7642,11.1124 C29.223,10.9788 28.8462,10.8057 28.405,10.5155 C27.8819,10.1715 27.5508,9.81828 27.7812,9.23616 C27.9449,8.82271 28.645,8.72048 29.0639,8.86969 C29.7056,9.09828 30.1375,9.721 30.5848,10.2348 C30.9663,10.6731 32.0772,11.5094 31.5284,11.7007 Z" style="stroke:none;fill-rule:evenodd;fill:#7dd196;fill-opacity:1;"/>
        </g>
        <g id="Shape13">
            <desc shapeID="13" type="0" basicInfo-basicType="0" basicInfo-roundedRectRadius="12" basicInfo-polygonSides="6" basicInfo-starPoints="5" bounding="rect(-11.3577,-9.6157,22.7154,19.2314)" text="" font-familyName="Helvetica" font-pixelSize="20" font-bold="0" font-underline="0" font-alignment="1" strokeStyle="0" markerStart="0" markerEnd="0" shadowEnabled="0" shadowOffsetX="0" shadowOffsetY="2" shadowBlur="4" shadowOpacity="160" blurEnabled="0" blurRadius="4" transform="matrix(0.162906,0,0,0.162907,33.2535,10.0058)" pers-center="0,0" pers-size="0,0" pers-start="0,0" pers-end="0,0" locked="0" mesh="" flag=""/>
            <path id="shapePath13" d="M31.4132,11.4446 C31.3206,10.6449 31.892,9.81718 32.4974,9.28656 C33.1221,8.73901 34.0129,8.50233 34.8412,8.43988 C35.0738,8.42234 35.12,8.85801 35.0994,9.09038 C35.0649,9.47879 35.0209,9.98455 34.6863,10.1849 C34.3251,10.4012 33.8473,10.0752 33.4266,10.0919 C33.1487,10.103 32.8418,10.1124 32.6109,10.2675 C32.1463,10.5796 31.4776,12.0006 31.4132,11.4446 Z" style="stroke:none;fill-rule:evenodd;fill:#7dd196;fill-opacity:1;"/>
        </g>
    </g>
</svg>
