<?xml version="1.0"?>
<svg version="1.1" xmlns="http://www.w3.org/2000/svg" xmlns:xlink="http://www.w3.org/1999/xlink" width="100" height="100">
    <desc iVinci="yes" version="4.6" gridStep="20" showGrid="no" snapToGrid="no" codePlatform="0"/>
    <g id="Layer1" name="Layer 2" opacity="1">
        <g id="Shape1">
            <desc shapeID="1" type="0" basicInfo-basicType="0" basicInfo-roundedRectRadius="12" basicInfo-polygonSides="6" basicInfo-starPoints="5" bounding="rect(-48.8922,-15.9464,97.7844,31.8929)" text="" font-familyName="Helvetica" font-pixelSize="20" font-bold="0" font-underline="0" font-alignment="1" strokeStyle="0" markerStart="0" markerEnd="0" shadowEnabled="0" shadowOffsetX="0" shadowOffsetY="2" shadowBlur="4" shadowOpacity="160" blurEnabled="0" blurRadius="4" transform="matrix(1,0,0,1,50.1342,82.1841)" pers-center="0,0" pers-size="0,0" pers-start="0,0" pers-end="0,0" locked="0" mesh="" flag=""/>
            <path id="shapePath1" d="M2.34645,72.1037 C0.343555,77.0865 1.099,83.8056 4.33497,88.0914 C7.88619,92.7948 14.4435,94.7591 20.2431,95.8069 C27.45,97.109 32.0509,96.1263 39.3541,96.6721 C42.4985,96.9072 47.9572,98.2994 51.1049,98.1136 C55.5667,97.8501 60.7555,95.5428 65.2021,95.091 C70.8932,94.5128 75.781,97.7359 80.8532,95.091 C85.4792,92.6788 84.7688,85.2999 87.8528,81.0918 C90.537,77.4293 95.2723,75.5861 97.8749,71.8651 C98.8936,70.4088 99.78,66.8674 98.034,66.5359 C91.7822,65.3488 85.3838,68.0749 79.0238,68.2858 C75.7536,68.3942 72.501,67.2201 69.2402,67.4904 C67.5714,67.6287 66.2921,69.3026 64.6269,69.4789 C59.4325,70.0289 54.1754,69.8746 48.9574,69.638 C41.8857,69.3172 34.8773,67.6829 27.7995,67.8085 C25.7418,67.845 24.074,69.636 22.0726,70.1152 C18.3929,70.9962 14.6219,71.4856 10.8573,71.8651 C8.03356,72.1498 3.40494,71.7078 2.34645,72.1037 Z" style="stroke:none;fill-rule:evenodd;fill:#5dd5e5;fill-opacity:1;"/>
        </g>
        <g id="Shape2">
            <desc shapeID="2" type="0" basicInfo-basicType="0" basicInfo-roundedRectRadius="12" basicInfo-polygonSides="6" basicInfo-starPoints="5" bounding="rect(0,0,0,0)" text="" font-familyName="Helvetica" font-pixelSize="20" font-bold="0" font-underline="0" font-alignment="1" strokeStyle="0" markerStart="0" markerEnd="0" shadowEnabled="0" shadowOffsetX="0" shadowOffsetY="2" shadowBlur="4" shadowOpacity="160" blurEnabled="0" blurRadius="4" transform="matrix(1,0,0,1,12.2927,71.8284)" pers-center="0,0" pers-size="0,0" pers-start="0,0" pers-end="0,0" locked="0" mesh="" flag=""/>
            <path id="shapePath2" d="M12.2927,71.8284 Z" style="stroke:none;fill-rule:evenodd;fill:#5dd5e5;fill-opacity:1;"/>
        </g>
        <g id="Shape3">
            <desc shapeID="3" type="0" basicInfo-basicType="0" basicInfo-roundedRectRadius="12" basicInfo-polygonSides="6" basicInfo-starPoints="5" bounding="rect(-31.3806,-13.0458,62.7611,26.0915)" text="" font-familyName="Helvetica" font-pixelSize="20" font-bold="0" font-underline="0" font-alignment="1" strokeStyle="0" markerStart="0" markerEnd="0" shadowEnabled="0" shadowOffsetX="0" shadowOffsetY="2" shadowBlur="4" shadowOpacity="160" blurEnabled="0" blurRadius="4" transform="matrix(1,0,0,1,43.6733,58.5323)" pers-center="0,0" pers-size="0,0" pers-start="0,0" pers-end="0,0" locked="0" mesh="" flag=""/>
            <path id="shapePath3" d="M12.5931,71.5781 C12.6432,71.5781 22.6076,69.5251 22.6076,69.5251 C22.6076,69.5251 28.2657,68.3735 28.2657,68.3735 C28.2657,68.3735 52.9855,69.6974 52.9855,69.6974 C52.9855,69.6974 66.7836,69.0118 66.7836,69.0118 C66.7836,69.0118 70.5973,67.6406 70.5973,67.6406 C70.5973,67.6406 73.3826,59.9274 73.3826,59.9274 C73.3826,59.9274 75.0538,53.3283 75.0538,53.3283 C75.0538,53.3283 73.2969,52.7712 73.2969,52.7712 C73.2969,52.7712 72.9113,50.6287 72.9113,50.6287 C72.9113,50.6287 69.2261,50.5858 69.2261,50.5858 C69.2261,50.5858 66.7407,54.3139 66.7407,54.3139 C66.7407,54.3139 64.941,54.9995 64.941,54.9995 C64.941,54.9995 64.2553,52.8141 64.2553,52.8141 C64.2553,52.8141 64.2125,51.1 64.2125,51.1 C64.2125,51.1 60.7415,47.7576 60.7415,47.7576 C60.7415,47.7576 59.4132,49.2146 59.4132,49.2146 C59.4132,49.2146 49.2146,47.7148 49.2146,47.7148 C49.2146,47.7148 48.9146,45.4865 48.9146,45.4865 C48.9146,45.4865 38.7656,48.1406 38.7656,48.1406 C38.7656,48.1406 37.7344,50.4531 37.7344,50.4531 C37.7344,50.4531 32.5781,50.8594 32.5781,50.8594 C32.5781,50.8594 30.6406,49.5156 30.6406,49.5156 C30.6406,49.5156 26.7969,50.3281 26.7969,50.3281 C26.7969,50.3281 26.5469,54.0469 26.5469,54.0469 C26.5469,54.0469 23.3281,54.9531 23.3281,54.9531 C23.3281,54.9531 23.0781,60.8594 23.0781,60.8594 C23.0781,60.8594 16.9531,61.2656 16.9531,61.2656 C16.9531,61.2656 17.0469,63.8594 17.0469,63.8594 C17.0469,63.8594 12.2927,65.3872 12.2927,65.3872 C12.2927,65.3872 12.5931,71.5781 12.5931,71.5781 Z" style="stroke:none;fill-rule:evenodd;fill:#bdf7ff;fill-opacity:1;"/>
        </g>
        <g id="Shape4">
            <desc shapeID="4" type="0" basicInfo-basicType="0" basicInfo-roundedRectRadius="12" basicInfo-polygonSides="6" basicInfo-starPoints="5" bounding="rect(-8.29688,-6.21875,16.5938,12.4375)" text="" font-familyName="Helvetica" font-pixelSize="20" font-bold="0" font-underline="0" font-alignment="1" strokeStyle="0" markerStart="0" markerEnd="0" shadowEnabled="0" shadowOffsetX="0" shadowOffsetY="2" shadowBlur="4" shadowOpacity="160" blurEnabled="0" blurRadius="4" transform="matrix(1,0,0,1,84.0312,62.0156)" pers-center="0,0" pers-size="0,0" pers-start="0,0" pers-end="0,0" locked="0" mesh="" flag=""/>
            <path id="shapePath4" d="M75.7344,68.2344 C75.7344,68.2344 81.7656,58.0156 81.7656,58.0156 C81.7656,58.0156 82.8594,62.8906 82.8594,62.8906 C82.8594,62.8906 86.3906,55.7969 86.3906,55.7969 C86.3906,55.7969 88.2344,62.5156 88.2344,62.5156 C88.2344,62.5156 91.3594,62.7344 91.3594,62.7344 C91.3594,62.7344 92.3281,67.1406 92.3281,67.1406 C92.3281,67.1406 75.7344,68.2344 75.7344,68.2344 Z" style="stroke:none;fill-rule:evenodd;fill:#bafdff;fill-opacity:1;"/>
        </g>
        <g id="Shape5">
            <desc shapeID="5" type="0" basicInfo-basicType="0" basicInfo-roundedRectRadius="12" basicInfo-polygonSides="6" basicInfo-starPoints="5" bounding="rect(-2.54688,-5.24794,5.09375,10.4959)" text="" font-familyName="Helvetica" font-pixelSize="20" font-bold="0" font-underline="0" font-alignment="1" strokeStyle="0" markerStart="0" markerEnd="0" shadowEnabled="0" shadowOffsetX="0" shadowOffsetY="2" shadowBlur="4" shadowOpacity="160" blurEnabled="0" blurRadius="4" transform="matrix(1,0,0,1,64.6875,58.8302)" pers-center="0,0" pers-size="0,0" pers-start="0,0" pers-end="0,0" locked="0" mesh="" flag=""/>
            <path id="shapePath5" d="M67.2344,54.3594 C67.2344,54.3594 64.9219,64.0781 64.9219,64.0781 C64.9219,64.0781 62.1406,63.3594 62.1406,63.3594 C62.1406,63.3594 62.559,61.3638 63.0235,58.9115 C63.3905,56.9736 63.1964,54.9651 63.7868,53.9845 C64.4854,52.824 64.2604,54.5084 64.9219,54.8571 C65.6513,55.2415 67.2344,54.3594 67.2344,54.3594 Z" style="stroke:none;fill-rule:evenodd;fill:#fafeff;fill-opacity:1;"/>
        </g>
        <g id="Shape6">
            <desc shapeID="6" type="0" basicInfo-basicType="0" basicInfo-roundedRectRadius="12" basicInfo-polygonSides="6" basicInfo-starPoints="5" bounding="rect(-0.00873852,0,0.0174764,0)" text="" font-familyName="Helvetica" font-pixelSize="20" font-bold="0" font-underline="0" font-alignment="1" strokeStyle="0" markerStart="0" markerEnd="0" shadowEnabled="0" shadowOffsetX="0" shadowOffsetY="2" shadowBlur="4" shadowOpacity="160" blurEnabled="0" blurRadius="4" transform="matrix(1,0,0,1,12.5328,66.8276)" pers-center="0,0" pers-size="0,0" pers-start="0,0" pers-end="0,0" locked="0" mesh="" flag=""/>
            <path id="shapePath6" d="M12.524,66.8276 C12.5633,66.8276 12.524,66.8276 12.524,66.8276 Z" style="stroke:none;fill-rule:evenodd;fill:#fafeff;fill-opacity:1;"/>
        </g>
        <g id="Shape7">
            <desc shapeID="7" type="0" basicInfo-basicType="0" basicInfo-roundedRectRadius="12" basicInfo-polygonSides="6" basicInfo-starPoints="5" bounding="rect(0,0,0,0)" text="" font-familyName="Helvetica" font-pixelSize="20" font-bold="0" font-underline="0" font-alignment="1" strokeStyle="0" markerStart="0" markerEnd="0" shadowEnabled="0" shadowOffsetX="0" shadowOffsetY="2" shadowBlur="4" shadowOpacity="160" blurEnabled="0" blurRadius="4" transform="matrix(1,0,0,1,12.2488,66.9455)" pers-center="0,0" pers-size="0,0" pers-start="0,0" pers-end="0,0" locked="0" mesh="" flag=""/>
            <path id="shapePath7" d="M12.2488,66.9455 Z" style="stroke:none;fill-rule:evenodd;fill:#fafeff;fill-opacity:1;"/>
        </g>
        <g id="Shape8">
            <desc shapeID="8" type="0" basicInfo-basicType="0" basicInfo-roundedRectRadius="12" basicInfo-polygonSides="6" basicInfo-starPoints="5" bounding="rect(-31.7171,-11.0211,63.4342,22.0422)" text="" font-familyName="Helvetica" font-pixelSize="20" font-bold="0" font-underline="0" font-alignment="1" strokeStyle="0" markerStart="0" markerEnd="0" shadowEnabled="0" shadowOffsetX="0" shadowOffsetY="2" shadowBlur="4" shadowOpacity="160" blurEnabled="0" blurRadius="4" transform="matrix(1,0,0,1,43.3239,56.3384)" pers-center="0,0" pers-size="0,0" pers-start="0,0" pers-end="0,0" locked="0" mesh="" flag=""/>
            <path id="shapePath8" d="M12.2488,65.4906 C12.2488,65.4906 15.6334,64.8141 16.9332,63.5908 C17.8154,62.7606 16.7787,61.2275 16.7787,61.2275 C16.7787,61.2275 23.2589,60.3395 23.2589,60.3395 C23.2589,60.3395 23.3035,55.1376 23.3035,55.1376 C23.3035,55.1376 26.6013,54.1281 26.6013,54.1281 C26.6013,54.1281 26.7696,49.9216 26.7696,49.9216 C26.7696,49.9216 31.5144,49.7534 31.5144,49.7534 C31.5144,49.7534 32.6586,50.8639 32.6249,50.8302 C32.5912,50.7966 38.1101,50.3928 38.1101,50.3928 C38.1101,50.3928 38.7831,48.2727 38.7831,48.2727 C38.7831,48.2727 47.5823,45.3173 47.5823,45.3173 C47.5823,45.3173 49.1504,46.1188 49.1504,46.1188 C49.1504,46.1188 49.2549,47.6868 49.2549,47.6868 C49.2549,47.6868 59.9527,49.6731 59.9527,49.6731 C59.9527,49.6731 61.1723,48.105 61.1723,48.105 C61.1723,48.105 63.9599,51.1366 63.9599,51.1366 C63.9599,51.1366 65.0402,54.8651 65.0402,54.8651 C65.0402,54.8651 66.9916,54.3773 66.9916,54.3773 C66.9916,54.3773 68.8036,50.5094 68.8036,50.5094 C68.8036,50.5094 73.4032,50.5791 73.4032,50.5791 C73.4032,50.5791 73.2987,53.1228 73.2987,53.1228 C73.2987,53.1228 75.041,53.2622 75.041,53.2622 C75.041,53.2622 74.3789,56.8513 74.3789,56.8513 C74.3789,56.8513 71.1382,56.4332 71.1382,56.4332 C71.1382,56.4332 70.5459,58.3149 70.5459,58.28 C70.5459,58.2452 66.887,56.7817 66.887,56.7817 C66.887,56.7817 63.3327,56.015 63.3327,56.015 C63.3327,56.015 59.7436,53.5758 59.7436,53.5758 C59.7436,53.5758 59.5345,55.7014 59.5345,55.7014 C59.5345,55.7014 51.4154,55.2136 51.4154,55.2136 C51.4154,55.2136 51.3805,52.3214 51.3805,52.3214 C51.3805,52.3214 48.5928,52.0426 48.5928,52.0426 C48.5928,52.0426 48.5231,50.5442 48.5231,50.5442 C48.5231,50.5442 38.1739,52.9486 38.1739,52.9486 C38.1739,52.9486 37.7209,54.7257 37.7209,54.7257 C37.7209,54.7257 31.1698,55.3181 31.1698,55.3181 C31.1698,55.3181 29.3578,53.5061 29.3578,53.5061 C29.3578,53.5061 26.8837,56.259 26.8837,56.259 C26.8837,56.259 25.6293,59.0815 25.6293,59.0815 C25.6293,59.0815 24.0961,62.601 24.0961,62.601 C24.0961,62.601 20.5418,63.4024 20.5418,63.4024 C20.5418,63.4024 14.1512,67.128 12.9501,67.3132 C10.4129,67.7044 12.2488,65.4906 12.2488,65.4906 Z" style="stroke:none;fill-rule:evenodd;fill:#fafeff;fill-opacity:1;"/>
        </g>
        <g id="Shape9">
            <desc shapeID="9" type="0" basicInfo-basicType="0" basicInfo-roundedRectRadius="12" basicInfo-polygonSides="6" basicInfo-starPoints="5" bounding="rect(-123.125,-30.7878,246.25,61.5756)" text="" font-familyName="" font-pixelSize="20" font-bold="0" font-underline="0" font-alignment="1" strokeStyle="0" markerStart="0" markerEnd="0" shadowEnabled="0" shadowOffsetX="0" shadowOffsetY="2" shadowBlur="4" shadowOpacity="160" blurEnabled="0" blurRadius="4" transform="matrix(0.390942,0.0425735,-0.0572402,0.525623,50.6797,61.5592)" pers-center="0,0" pers-size="0,0" pers-start="0,0" pers-end="0,0" locked="0" mesh="" flag=""/>
            <path id="shapePath9" d="M43.321,46.0388 C41.2966,46.8289 39.2895,47.4613 38.9376,47.4229 C38.5076,47.3761 38.1881,47.7668 38.1194,48.3976 C38.0507,49.0283 37.6865,49.4673 37.122,49.5654 C33.4947,50.1809 32.3829,50.2194 32.3505,49.7904 C32.2409,48.9807 28.404,48.616 27.1786,49.3335 C26.2108,49.8664 26.0086,50.2698 25.9714,51.7018 C25.957,52.9235 25.7825,53.4364 25.3915,53.3938 C25.1179,53.364 24.335,53.651 23.6637,54.0034 C22.5671,54.6286 22.4155,54.9312 22.3382,56.7311 C22.2904,57.896 22.36,59.0736 22.4486,59.3492 C22.5373,59.6248 21.8717,59.9246 20.9106,60.0327 C15.8368,60.4907 15.7138,60.5305 16.4069,62.5206 C16.7339,63.5136 14.7706,64.4699 12.8159,64.257 C11.3303,64.0952 11.2178,64.4021 11.6619,67.5884 C12.1474,72.7708 9.66159,71.3806 7.8251,71.3872 C5.93816,71.394 4.5011,71.4962 3.16616,71.404 C1.83125,71.3118 0.786167,71.4639 0.880547,71.6869 C1.14655,72.5137 5.3732,73.2743 7.97757,72.9917 C15.2142,72.2062 18.1271,73.2529 25.1188,70.0644 C26.6646,68.584 33.6253,68.5974 45.8504,70.035 C58.1088,71.5296 59.3379,71.5038 65.2584,69.8084 C68.5681,68.8392 67.8044,68.2242 63.8367,68.6963 C62.5123,68.8711 59.9311,68.9624 58.1489,68.981 C55.2607,68.9856 54.8755,68.8905 54.9614,68.102 C55.0129,67.629 55.2093,67.2781 55.4439,67.3036 C55.6394,67.3249 56.3174,66.5478 56.9401,65.5519 L58.051,63.705 L61.519,64.189 C64.6741,64.639 65.087,64.8435 66.5687,66.494 C67.8663,68.0182 68.4633,68.3491 70.1109,68.4754 C71.2113,68.542 74.0814,69.0673 76.5042,69.7035 C80.2782,70.6463 80.9486,70.6661 81.4082,70.0779 C82.1596,68.9897 84.5463,68.505 90.1559,68.2117 C97.6039,67.7463 98.7329,67.5502 98.8245,66.7092 C98.876,66.2361 98.5919,65.9392 98.117,65.9407 C97.6755,65.999 96.2452,66.056 94.9379,66.0732 L92.5579,66.1331 L92.1557,64.0151 C91.7811,62.0064 91.7143,61.8928 90.1667,61.937 L88.6192,61.9812 L87.8241,58.3844 C87.4047,56.424 86.8727,54.7705 86.6382,54.745 C86.4036,54.7194 85.7751,55.7679 85.2745,57.0962 C83.6828,61.1777 83.3738,61.8355 82.9438,61.7886 C82.7483,61.7673 82.6387,60.9576 82.7418,60.0115 C82.9536,58.0667 82.4873,56.899 81.5815,57.2259 C81.2906,57.3538 80.3876,58.7446 79.5846,60.3059 C75.9513,67.5158 76.2259,67.1734 73.9194,66.9222 L71.8083,66.6923 L72.6523,64.3909 C74.1381,60.1915 75.1815,56.4225 75.4381,54.4294 C75.627,52.6949 75.5326,52.4718 74.6725,52.3782 C73.9688,52.3016 73.7238,52.0089 73.8096,51.2205 C73.9127,50.2744 73.6505,50.1395 71.813,49.9394 C69.3892,49.6754 68.4109,49.9412 68.3136,50.8347 C68.2735,51.2027 67.5726,52.19 66.7268,53.0553 C65.2087,54.6451 65.2087,54.6451 64.8988,53.4944 C64.6939,52.8339 64.6348,51.9233 64.7645,51.4588 C64.9114,50.8365 64.366,50.0325 63.034,48.8238 C61.1223,47.1264 59.7769,46.7671 59.8407,47.9973 C59.8283,48.4747 58.521,48.4919 54.8461,48.0917 C50.0767,47.5723 49.8478,47.4942 49.6219,46.2995 C49.2244,44.5011 47.5319,44.4231 43.321,46.0388 M48.4232,47.4986 C48.3202,48.4447 47.991,52.5573 47.7066,56.6217 C47.2772,62.7445 47.3181,64.1849 47.8244,64.9847 C48.1581,65.5529 48.5424,66.0202 48.6597,66.033 C49.0897,66.0798 48.982,64.5257 48.5196,64.0498 C48.163,63.6919 48.1793,61.7258 48.6516,56.2991 L49.2403,49.0768 L51.1559,49.2854 C52.1724,49.3961 53.0096,49.7 52.9752,50.0154 C52.9466,50.2782 52.488,50.4941 51.9406,50.4345 C51.3933,50.3749 50.8898,50.6392 50.8555,50.9546 C50.6342,52.2602 50.6694,53.7532 50.9583,54.3697 C51.1528,54.7632 50.8046,57.5973 50.1016,61.5097 L48.9113,68.0814 L41.8009,67.6262 C37.8686,67.4107 33.2268,67.1712 31.4895,67.1415 L28.2885,67.1121 L27.8349,63.2865 C27.4527,59.8941 27.314,50.997 27.6553,50.7683 C27.7393,50.7242 28.5164,50.4897 29.4051,50.3206 C30.7801,50.0449 31.0814,50.184 31.5037,51.0278 C31.9595,51.9284 32.2274,52.0108 33.6024,51.735 C37.817,50.8112 37.4881,50.5626 37.1551,53.9834 C36.7201,57.9781 36.8124,61.1262 37.3311,61.4486 C37.6267,61.6403 37.8995,59.8617 38.2354,55.3243 L38.7268,48.9956 L39.8996,49.1233 C40.5251,49.1914 41.2574,49.0052 41.5264,48.7154 C41.8849,48.329 42.046,48.6656 42.1156,49.8433 C42.2051,51.9273 42.9155,51.5791 43.1616,49.319 C43.2875,48.1626 43.4392,47.86 43.6222,48.3586 C43.7995,48.9097 43.9674,48.8217 44.2268,47.8926 C44.5195,47.0203 45.0459,46.5458 46.1473,46.2402 C48.5454,45.6504 48.6627,45.6632 48.4232,47.4986 M62.0757,49.9959 C62.0528,50.2061 62.4647,50.7828 63.0444,51.2714 C63.5907,51.7032 63.9072,52.4291 63.7832,52.8411 C63.6593,53.2531 63.212,55.5445 62.7475,57.9937 C62.322,60.4471 61.9424,62.48 61.9367,62.5326 C61.8862,62.6334 61.3722,62.6306 60.7467,62.5625 C59.7303,62.4518 59.6301,62.2814 59.6417,59.9956 C59.7069,54.3119 60.7217,48.6251 61.6085,49.2004 C61.9041,49.3921 62.1043,49.7331 62.0757,49.9959 M57.9793,50.5603 L59.6212,50.7391 L58.9687,56.7312 C58.4421,61.567 58.1932,62.7631 57.6954,62.9748 C57.3655,63.0985 56.8162,63.7832 56.4624,64.4893 C56.1534,65.1471 55.5651,65.8276 55.1179,65.9385 C54.6649,66.1019 54.3226,66.7028 54.2367,67.4913 C54.1108,68.6476 53.943,68.7357 52.1446,68.5399 L50.1899,68.327 L50.8845,61.2226 C51.269,57.3287 51.6248,53.6977 51.6763,53.2246 C51.7804,51.9063 52.6519,51.8948 52.8215,53.2429 C52.9588,54.162 53.0646,54.2799 53.4012,53.7316 C53.6425,53.3324 53.9019,52.4033 53.9821,51.6674 C54.1652,49.9854 54.5743,49.4981 55.5507,49.9767 C55.9636,50.1812 57.041,50.4581 57.9793,50.5603 M72.5223,52.144 C72.4937,52.4068 72.2477,52.4864 71.9521,52.2947 C71.1769,51.7848 71.0472,52.2493 70.1439,58.0014 C69.2464,63.7009 69.6602,63.5332 71.2739,57.433 C72.0922,54.2778 72.2829,53.9795 73.2383,53.924 C74.5122,53.8499 74.5237,53.7448 73.076,58.3207 C70.3837,66.6967 69.9689,67.2366 67.713,64.704 C66.9722,63.8787 66.1808,63.1543 65.9462,63.1287 C65.6726,63.0989 65.562,62.6614 65.6974,62.1443 C65.8271,61.6798 66.3527,59.3968 66.8781,57.1139 C68.0255,52.0266 68.6311,51.1884 70.8985,51.4353 C71.7977,51.5333 72.5567,51.8287 72.5223,52.144 M64.1167,57.7705 C63.9069,58.9709 63.4891,60.6274 63.1964,61.4996 C62.6842,62.9331 62.6509,62.8763 63.0581,60.9527 C63.3013,59.8091 63.597,57.8203 63.7401,56.5062 C63.889,55.1396 64.1255,54.4208 64.2361,54.8583 C64.3972,55.1949 64.3323,56.5175 64.1167,57.7705 M66.0743,56.8668 C65.8235,58.8073 64.8812,62.3745 64.4778,62.8093 C63.8447,63.5381 63.9038,62.2681 64.7565,58.7975 C65.6883,54.9632 66.3949,53.9233 66.0743,56.8668 M86.1857,63.2586 C85.502,64.0883 84.9346,65.3029 84.8602,65.9863 C84.6655,67.7734 83.7178,67.0319 83.4385,64.8741 C83.1964,63.4649 83.3204,63.0529 84.088,62.1792 C84.5867,61.5952 85.0187,60.8977 85.0588,60.5298 C85.0931,60.2144 85.425,59.3464 85.7454,58.5835 L86.4082,57.2196 L86.8715,59.5039 L87.3348,61.7881 L86.1857,63.2586 M81.9131,60.7191 C81.8387,61.4024 81.8196,62.3044 81.8911,62.7377 C82.3209,67.1457 82.2646,67.2992 78.9292,67.4146 L76.9067,67.4603 L79.1573,63.5037 C80.3865,61.2974 81.5251,59.5599 81.7263,59.5286 C81.8827,59.5457 81.9427,60.084 81.9131,60.7191 M26.0969,57.0872 C26.0111,57.8757 26.1606,60.4981 26.417,62.8661 C26.8592,66.7968 26.6913,69.0656 26.0572,67.986 C25.9238,67.7587 25.4729,64.9971 25.023,61.8634 C24.4864,57.7096 24.4236,56.1072 24.7649,55.8784 C25.7891,55.1922 26.2572,55.6155 26.0969,57.0872 M91.3098,64.8803 C91.5205,65.4883 91.5749,66.0792 91.4852,66.1759 C91.4013,66.2199 90.1999,66.355 88.8144,66.3637 L86.2723,66.4592 L86.9904,65.3141 C87.4166,64.6691 88.312,64.0752 89.072,63.9984 C89.8377,63.869 90.5585,63.788 90.7206,63.7524 C90.877,63.7695 91.144,64.224 91.3098,64.8803 M23.4848,64.7274 L24.0863,67.5586 L22.2021,68.1512 C19.2052,69.1545 18.5968,68.9286 18.3795,66.5648 C18.2595,65.488 18.1842,64.3629 18.2128,64.1001 C18.2414,63.8373 17.9802,63.3302 17.6684,62.9239 C17.145,62.2819 17.2794,62.137 18.8556,61.83 C22.1701,61.1804 22.7613,61.5639 23.4848,64.7274 M16.9712,66.7838 L17.178,68.8805 L15.6581,69.0341 C14.859,69.1067 13.8921,69.2673 13.5565,69.4435 C13.1035,69.6069 12.9538,69.1651 12.9854,67.7857 C13.0456,66.1435 13.1524,65.8892 13.8561,65.9659 C14.2861,66.0127 15.0299,65.7214 15.4666,65.3435 C16.6814,64.3588 16.793,64.4242 16.9712,66.7838 Z" style="stroke:none;fill-rule:evenodd;fill:#000000;fill-opacity:1;"/>
        </g>
        <g id="Shape10">
            <desc shapeID="10" type="0" basicInfo-basicType="0" basicInfo-roundedRectRadius="12" basicInfo-polygonSides="6" basicInfo-starPoints="5" bounding="rect(-2.39135,-7.39441,4.78265,14.7888)" text="" font-familyName="" font-pixelSize="20" font-bold="0" font-underline="0" font-alignment="1" strokeStyle="0" markerStart="0" markerEnd="0" shadowEnabled="0" shadowOffsetX="0" shadowOffsetY="2" shadowBlur="4" shadowOpacity="160" blurEnabled="0" blurRadius="4" transform="matrix(0.655777,0.0617977,-0.0617977,0.655777,62.3016,83.668)" pers-center="0,0" pers-size="0,0" pers-start="0,0" pers-end="0,0" locked="0" mesh="" flag=""/>
            <path id="shapePath10" d="M61.2963,79.5743 C60.4861,81.1519 61.0238,88.0832 61.9765,88.5038 C62.4232,88.6782 63.0505,88.3404 63.2966,87.8343 C64.029,86.3816 63.6523,81.2518 62.6735,79.704 C61.9322,78.4433 61.8666,78.4371 61.2963,79.5743 Z" style="stroke:none;fill-rule:nonzero;fill:#000000;fill-opacity:1;"/>
        </g>
        <g id="Shape11">
            <desc shapeID="11" type="0" basicInfo-basicType="0" basicInfo-roundedRectRadius="12" basicInfo-polygonSides="6" basicInfo-starPoints="5" bounding="rect(-5.83312,-5.40362,11.6662,10.8072)" text="" font-familyName="" font-pixelSize="20" font-bold="0" font-underline="0" font-alignment="1" strokeStyle="0" markerStart="0" markerEnd="0" shadowEnabled="0" shadowOffsetX="0" shadowOffsetY="2" shadowBlur="4" shadowOpacity="160" blurEnabled="0" blurRadius="4" transform="matrix(0.655777,0.0617977,-0.0617977,0.655777,69.03,85.0464)" pers-center="0,0" pers-size="0,0" pers-start="0,0" pers-end="0,0" locked="0" mesh="" flag=""/>
            <path id="shapePath11" d="M66.5292,82.3168 C64.8664,83.8141 64.6601,86.7057 66.1536,87.7066 C68.0876,88.9473 70.4076,88.9014 71.8551,87.5822 C73.2308,86.3225 73.2308,86.3225 70.2428,86.4379 C67.517,86.578 67.4514,86.5718 69.04,85.8614 C71.4527,84.8318 71.7184,82.0119 69.3823,81.5271 C68.411,81.3033 67.2529,81.6573 66.5292,82.3168 M69.6027,83.4004 C69.3751,83.7097 68.6884,83.9758 68.1638,83.9264 C67.6392,83.8769 67.4078,83.5243 67.6354,83.215 C67.8692,82.8401 68.5497,82.6395 69.0743,82.689 C69.599,82.7384 69.8365,83.0255 69.6027,83.4004 Z" style="stroke:none;fill-rule:nonzero;fill:#000000;fill-opacity:1;"/>
        </g>
        <g id="Shape12">
            <desc shapeID="12" type="0" basicInfo-basicType="0" basicInfo-roundedRectRadius="12" basicInfo-polygonSides="6" basicInfo-starPoints="5" bounding="rect(-8.96366,-9.91058,17.9273,19.8212)" text="" font-familyName="" font-pixelSize="20" font-bold="0" font-underline="0" font-alignment="1" strokeStyle="0" markerStart="0" markerEnd="0" shadowEnabled="0" shadowOffsetX="0" shadowOffsetY="2" shadowBlur="4" shadowOpacity="160" blurEnabled="0" blurRadius="4" transform="matrix(0.655777,0.0617977,-0.0617977,0.655777,54.1887,89.2676)" pers-center="0,0" pers-size="0,0" pers-start="0,0" pers-end="0,0" locked="0" mesh="" flag=""/>
            <path id="shapePath12" d="M55.6992,84.2073 C55.176,85.5473 55.1105,85.5412 54.5535,84.4301 C53.9496,83.1162 52.0008,82.734 49.9346,83.5979 C48.6268,84.1362 48.518,84.5891 48.448,89.5445 C48.4322,92.5202 48.5252,95.0431 48.644,95.1866 C48.7567,95.3957 49.4186,95.3919 50.0335,95.1852 C50.917,94.9377 51.1037,94.3599 50.9674,92.296 C50.8496,90.0355 51.0117,89.72 52.5162,89.2002 C53.4714,88.8932 54.2545,88.3054 54.2792,88.0431 C54.3101,87.7152 55.3841,87.5518 56.6894,87.741 C60.8741,88.2676 62.0033,84.0074 57.9213,83.0935 C56.6877,82.8449 56.1384,83.0578 55.6992,84.2073 M58.4734,85.6596 C58.4425,85.9875 58.0837,86.2845 57.6903,86.2474 C57.3624,86.2165 57.2621,85.8763 57.4898,85.5669 C57.7236,85.192 58.0762,84.9606 58.2729,84.9791 C58.4041,84.9915 58.5105,85.2662 58.4734,85.6596 M52.4787,86.0871 C52.4293,86.6117 52.1237,87.046 51.7958,87.0151 C51.4679,86.9842 51.1178,86.4881 50.9049,85.9388 C50.7638,85.33 50.9976,84.9551 51.5878,85.0107 C52.1124,85.0602 52.5282,85.5625 52.4787,86.0871 Z" style="stroke:none;fill-rule:nonzero;fill:#000000;fill-opacity:1;"/>
        </g>
        <g id="Shape13">
            <desc shapeID="13" type="0" basicInfo-basicType="0" basicInfo-roundedRectRadius="12" basicInfo-polygonSides="6" basicInfo-starPoints="5" bounding="rect(-3.03488,-1.90594,6.06979,3.81183)" text="" font-familyName="" font-pixelSize="20" font-bold="0" font-underline="0" font-alignment="1" strokeStyle="0" markerStart="0" markerEnd="0" shadowEnabled="0" shadowOffsetX="0" shadowOffsetY="2" shadowBlur="4" shadowOpacity="160" blurEnabled="0" blurRadius="4" transform="matrix(0.655777,0.0617977,-0.0617977,0.655777,24.4061,81.8499)" pers-center="0,0" pers-size="0,0" pers-start="0,0" pers-end="0,0" locked="0" mesh="" flag=""/>
            <path id="shapePath13" d="M23.7282,80.8637 C21.6459,81.1967 22.1472,82.898 24.3112,83.1019 C25.8195,83.244 26.3033,83.025 26.4021,81.9757 C26.5257,80.6642 26.0135,80.4836 23.7282,80.8637 Z" style="stroke:none;fill-rule:nonzero;fill:#000000;fill-opacity:1;"/>
        </g>
        <g id="Shape14">
            <desc shapeID="14" type="0" basicInfo-basicType="0" basicInfo-roundedRectRadius="12" basicInfo-polygonSides="6" basicInfo-starPoints="5" bounding="rect(-5.41455,-6.29229,10.8291,12.5846)" text="" font-familyName="" font-pixelSize="20" font-bold="0" font-underline="0" font-alignment="1" strokeStyle="0" markerStart="0" markerEnd="0" shadowEnabled="0" shadowOffsetX="0" shadowOffsetY="2" shadowBlur="4" shadowOpacity="160" blurEnabled="0" blurRadius="4" transform="matrix(0.655777,0.0617977,-0.0617977,0.655777,36.6917,88.6485)" pers-center="0,0" pers-size="0,0" pers-start="0,0" pers-end="0,0" locked="0" mesh="" flag=""/>
            <path id="shapePath14" d="M35.1985,85.5172 C33.0235,86.834 32.504,88.836 33.8739,91.1483 C34.8937,92.9646 36.3896,93.2379 38.5584,91.9868 C40.8646,90.6824 40.533,89.9895 37.7478,90.0579 L35.225,90.1509 L37.16,89.2747 C38.6831,88.5582 39.0666,87.9989 39.0652,86.6094 C39.013,84.355 37.6606,83.9629 35.1985,85.5172 Z" style="stroke:none;fill-rule:nonzero;fill:#000000;fill-opacity:1;"/>
        </g>
        <g id="Shape15">
            <desc shapeID="15" type="0" basicInfo-basicType="0" basicInfo-roundedRectRadius="12" basicInfo-polygonSides="6" basicInfo-starPoints="5" bounding="rect(-3.36971,-3.88086,6.73937,7.76172)" text="" font-familyName="" font-pixelSize="20" font-bold="0" font-underline="0" font-alignment="1" strokeStyle="0" markerStart="0" markerEnd="0" shadowEnabled="0" shadowOffsetX="0" shadowOffsetY="2" shadowBlur="4" shadowOpacity="160" blurEnabled="0" blurRadius="4" transform="matrix(0.655777,0.0617977,-0.0617977,0.655777,30.117,87.6059)" pers-center="0,0" pers-size="0,0" pers-start="0,0" pers-end="0,0" locked="0" mesh="" flag=""/>
            <path id="shapePath15" d="M28.6915,85.7641 C27.2972,87.2206 27.79,89.7149 29.542,90.0785 C30.3822,90.29 31.3844,90.186 31.8149,89.8296 C32.389,89.3544 32.2764,89.1453 31.555,89.0773 C29.3909,88.8734 29.669,85.9224 31.8825,85.6017 C32.5568,85.4668 32.3069,85.3109 31.3294,85.1526 C30.3458,85.0599 29.1939,85.3484 28.6915,85.7641 Z" style="stroke:none;fill-rule:nonzero;fill:#000000;fill-opacity:1;"/>
        </g>
        <g id="Shape16">
            <desc shapeID="16" type="0" basicInfo-basicType="0" basicInfo-roundedRectRadius="12" basicInfo-polygonSides="6" basicInfo-starPoints="5" bounding="rect(-1.7086,-3.77636,3.41722,7.55268)" text="" font-familyName="" font-pixelSize="20" font-bold="0" font-underline="0" font-alignment="1" strokeStyle="0" markerStart="0" markerEnd="0" shadowEnabled="0" shadowOffsetX="0" shadowOffsetY="2" shadowBlur="4" shadowOpacity="160" blurEnabled="0" blurRadius="4" transform="matrix(0.655777,0.0617977,-0.0617977,0.655777,24.3419,88.3327)" pers-center="0,0" pers-size="0,0" pers-start="0,0" pers-end="0,0" locked="0" mesh="" flag=""/>
            <path id="shapePath16" d="M23.3108,88.102 C23.2579,91.4711 25.1411,91.8471 25.4563,88.5026 C25.617,86.7976 25.3509,86.1109 24.5107,85.8994 C23.48,85.6038 23.318,85.9194 23.3108,88.102 Z" style="stroke:none;fill-rule:nonzero;fill:#000000;fill-opacity:1;"/>
        </g>
    </g>
</svg>
