<?xml version="1.0"?>
<svg version="1.1" xmlns="http://www.w3.org/2000/svg" xmlns:xlink="http://www.w3.org/1999/xlink" width="100" height="100">
    <desc iVinci="yes" version="4.6" gridStep="20" showGrid="no" snapToGrid="no" codePlatform="0"/>
    <g id="Layer1" name="Layer 2" opacity="1">
        <g id="Shape1">
            <desc shapeID="1" type="0" basicInfo-basicType="0" basicInfo-roundedRectRadius="12" basicInfo-polygonSides="6" basicInfo-starPoints="5" bounding="rect(-21.1454,-21.8218,42.2908,43.6436)" text="" font-familyName="Helvetica" font-pixelSize="20" font-bold="0" font-underline="0" font-alignment="1" strokeStyle="0" markerStart="0" markerEnd="0" shadowEnabled="0" shadowOffsetX="0" shadowOffsetY="2" shadowBlur="4" shadowOpacity="160" blurEnabled="0" blurRadius="4" transform="matrix(1,0,0,1,24.5301,56.0249)" pers-center="0,0" pers-size="0,0" pers-start="0,0" pers-end="0,0" locked="0" mesh="" flag=""/>
            <path id="shapePath1" d="M3.38464,77.8467 C3.38464,77.8057 9.45648,64.1851 9.45648,64.1851 C9.45648,64.1851 5.80517,64.3082 5.80517,64.3082 C5.80517,64.3082 10.6719,50.7969 10.6719,50.7969 C10.6719,50.7969 6.23438,51.0781 6.23438,51.0781 C6.23438,51.0781 12.7656,34.5469 12.7656,34.5469 C12.7656,34.5469 18.7656,42.1406 18.7656,42.1406 C18.7656,42.1406 23.5469,34.2031 23.5469,34.2031 C23.5469,34.2031 29.3315,47.8441 29.3315,47.8441 C29.3315,47.8441 26.9185,49.5847 26.9185,49.5847 C26.9185,49.5847 33.7619,56.9818 33.7619,56.9818 C33.7619,56.9818 34.1574,59.3948 34.1574,59.3948 C34.1574,59.3948 29.6084,60.8188 29.6084,60.8188 C29.6084,60.8188 35.9676,68.0359 35.9676,68.0359 C35.9676,68.0359 38.524,64.6382 38.524,64.6382 C38.524,64.6382 37.0031,63.3438 37.0031,63.3438 C37.0031,63.3438 39.8184,54.3479 39.8184,54.3479 C39.8184,54.3479 43.2485,60.9816 43.2485,60.9816 C43.2485,60.9816 42.1483,62.1465 42.1483,62.1465 C42.1483,62.1465 45.6755,69.5892 45.6755,69.5892 C45.6755,69.5892 44.187,71.369 44.187,71.369 C44.187,71.369 44.8665,76.6112 44.8665,76.6112 C44.8665,76.6112 41.2422,77.5496 41.2422,77.5496 C41.2422,77.5496 35.4822,76.4171 35.4822,76.4171 C35.4822,76.4171 32.8288,74.3137 32.8288,74.3137 C32.8288,74.3137 12.5393,75.6081 12.507,75.6081 C12.4746,75.6081 3.38464,77.8467 3.38464,77.8467 Z" style="stroke:none;fill-rule:evenodd;fill:#8cd5a8;fill-opacity:1;"/>
        </g>
        <g id="Shape2">
            <desc shapeID="2" type="0" basicInfo-basicType="0" basicInfo-roundedRectRadius="12" basicInfo-polygonSides="6" basicInfo-starPoints="5" bounding="rect(0,0,0,0)" text="" font-familyName="Helvetica" font-pixelSize="20" font-bold="0" font-underline="0" font-alignment="1" strokeStyle="0" markerStart="0" markerEnd="0" shadowEnabled="0" shadowOffsetX="0" shadowOffsetY="2" shadowBlur="4" shadowOpacity="160" blurEnabled="0" blurRadius="4" transform="matrix(1,0,0,1,85.7956,73.2675)" pers-center="0,0" pers-size="0,0" pers-start="0,0" pers-end="0,0" locked="0" mesh="" flag=""/>
            <path id="shapePath2" d="M85.7956,73.2675 Z" style="stroke:none;fill-rule:evenodd;fill:#8cd5a8;fill-opacity:1;"/>
        </g>
        <g id="Shape3">
            <desc shapeID="3" type="0" basicInfo-basicType="0" basicInfo-roundedRectRadius="12" basicInfo-polygonSides="6" basicInfo-starPoints="5" bounding="rect(-10.114,-21.5966,20.228,43.1933)" text="" font-familyName="Helvetica" font-pixelSize="20" font-bold="0" font-underline="0" font-alignment="1" strokeStyle="0" markerStart="0" markerEnd="0" shadowEnabled="0" shadowOffsetX="0" shadowOffsetY="2" shadowBlur="4" shadowOpacity="160" blurEnabled="0" blurRadius="4" transform="matrix(1,0,0,1,86.3685,51.1105)" pers-center="0,0" pers-size="0,0" pers-start="0,0" pers-end="0,0" locked="0" mesh="" flag=""/>
            <path id="shapePath3" d="M82.4334,72.7071 C82.4334,72.7071 96.4825,71.5864 96.4825,71.5864 C96.4825,71.5864 92.0397,62.3404 92.0797,62.3404 C92.1197,62.3404 95.1217,61.7 95.1217,61.7 C95.1217,61.7 90.2385,46.9304 90.2385,46.9304 C90.2385,46.9304 93.5206,43.4882 93.5206,43.4882 C93.5206,43.4882 88.7421,29.5138 88.7421,29.5138 C88.7421,29.5138 82.3228,46.8661 82.3228,46.8661 C82.3228,46.8661 79.6146,47.6183 79.6146,47.6183 C79.6146,47.6183 76.2545,56.6957 76.2545,56.6957 C76.2545,56.6957 78.5781,58.3906 78.5781,58.3906 C78.5781,58.3906 76.6406,62.5156 76.6406,62.5156 C76.6406,62.5156 78.3906,64.5469 78.3906,64.5469 C78.3906,64.5469 78.3279,66.8104 79.1818,68.5337 C80.3105,70.812 82.4334,72.7071 82.4334,72.7071 Z" style="stroke:none;fill-rule:evenodd;fill:#8cd5a8;fill-opacity:1;"/>
        </g>
        <g id="Shape4">
            <desc shapeID="4" type="0" basicInfo-basicType="0" basicInfo-roundedRectRadius="12" basicInfo-polygonSides="6" basicInfo-starPoints="5" bounding="rect(-9.27804,-5.86021,18.5561,11.7204)" text="" font-familyName="Helvetica" font-pixelSize="20" font-bold="0" font-underline="0" font-alignment="1" strokeStyle="0" markerStart="0" markerEnd="0" shadowEnabled="0" shadowOffsetX="0" shadowOffsetY="2" shadowBlur="4" shadowOpacity="160" blurEnabled="0" blurRadius="4" transform="matrix(1,0,0,1,22.3408,80.0636)" pers-center="0,0" pers-size="0,0" pers-start="0,0" pers-end="0,0" locked="0" mesh="" flag=""/>
            <path id="shapePath4" d="M13.7149,84.8407 C13.7149,84.8407 13.0627,75.4417 13.0627,75.4417 C13.0627,75.4417 17.6819,75.3687 17.6819,75.3687 C17.6819,75.3687 29.5952,74.2034 29.5952,74.2034 C29.5952,74.2034 31.6188,81.9962 31.6188,81.9962 C31.6188,81.9962 25.3662,84.0642 25.3662,84.0642 C25.3662,84.0642 26.1708,75.3032 24.0929,75.4417 C22.666,75.5368 19.5858,74.6006 17.6819,76.5035 C16.47,77.7149 19.189,83.4725 18.5319,85.1259 C17.7573,87.0748 13.7149,84.8407 13.7149,84.8407 Z" style="stroke:none;fill-rule:evenodd;fill:#d5d5be;fill-opacity:1;"/>
        </g>
        <g id="Shape5">
            <desc shapeID="5" type="0" basicInfo-basicType="0" basicInfo-roundedRectRadius="12" basicInfo-polygonSides="6" basicInfo-starPoints="5" bounding="rect(-2.19146,-4.32182,4.38293,8.64365)" text="" font-familyName="Helvetica" font-pixelSize="20" font-bold="0" font-underline="0" font-alignment="1" strokeStyle="0" markerStart="0" markerEnd="0" shadowEnabled="0" shadowOffsetX="0" shadowOffsetY="2" shadowBlur="4" shadowOpacity="160" blurEnabled="0" blurRadius="4" transform="matrix(1,0,0,1,87.3554,75.3687)" pers-center="0,0" pers-size="0,0" pers-start="0,0" pers-end="0,0" locked="0" mesh="" flag=""/>
            <path id="shapePath5" d="M88.9407,79.6341 C88.9407,79.6341 89.5469,71.0469 89.5469,71.0469 C89.5469,71.0469 85.2344,72.1094 85.2344,72.1094 C85.2344,72.1094 84.8708,76.3582 85.7956,78.2357 C86.724,80.1206 88.9407,79.6341 88.9407,79.6341 Z" style="stroke:none;fill-rule:evenodd;fill:#d5d5be;fill-opacity:1;"/>
        </g>
        <g id="Shape6">
            <desc shapeID="6" type="0" basicInfo-basicType="0" basicInfo-roundedRectRadius="12" basicInfo-polygonSides="6" basicInfo-starPoints="5" bounding="rect(-15.4534,-5.59828,30.9068,11.1966)" text="" font-familyName="Helvetica" font-pixelSize="20" font-bold="0" font-underline="0" font-alignment="1" strokeStyle="0" markerStart="0" markerEnd="0" shadowEnabled="0" shadowOffsetX="0" shadowOffsetY="2" shadowBlur="4" shadowOpacity="160" blurEnabled="0" blurRadius="4" transform="matrix(1,0,0,1,66.8059,71.4889)" pers-center="0,0" pers-size="0,0" pers-start="0,0" pers-end="0,0" locked="0" mesh="" flag=""/>
            <path id="shapePath6" d="M79.3795,76.6173 L68.7042,76.0504 C68.7042,76.0504 57.5982,78.1946 52.5515,76.3159 C50.6652,75.6137 51.0634,75.8619 53.3326,70.3281 L58.3281,67.2344 L61.9531,66.1719 L64.3281,70.3281 L69.4844,68.2031 L72.1719,66.0469 L77.8281,65.8906 L79.5156,69.7344 C79.5156,69.7344 82.092,70.9284 82.2494,72.7071 C82.455,75.0306 79.3795,76.6173 79.3795,76.6173 Z" style="stroke:none;fill-rule:evenodd;fill:#a8d58d;fill-opacity:1;"/>
        </g>
        <g id="Shape7">
            <desc shapeID="7" type="0" basicInfo-basicType="0" basicInfo-roundedRectRadius="12" basicInfo-polygonSides="6" basicInfo-starPoints="5" bounding="rect(-20.0555,-3.95312,40.111,7.90625)" text="" font-familyName="Helvetica" font-pixelSize="20" font-bold="0" font-underline="0" font-alignment="1" strokeStyle="0" markerStart="0" markerEnd="0" shadowEnabled="0" shadowOffsetX="0" shadowOffsetY="2" shadowBlur="4" shadowOpacity="160" blurEnabled="0" blurRadius="4" transform="matrix(1,0,0,1,60.6789,79.875)" pers-center="0,0" pers-size="0,0" pers-start="0,0" pers-end="0,0" locked="0" mesh="" flag=""/>
            <path id="shapePath7" d="M40.9844,83.8281 C40.9844,83.8281 64.5788,82.6941 64.5788,82.6941 C64.5788,82.6941 80.7344,79.5781 80.7344,79.5781 C80.7344,79.5781 79.7031,76.9531 79.7031,76.9531 C79.7031,76.9531 63.6406,75.9219 63.6406,75.9219 C63.6406,75.9219 49.6406,77.0469 49.6406,77.0469 C49.6406,77.0469 45.7969,76.7656 45.7969,76.7656 C45.7969,76.7656 43.2458,76.3744 41.7993,77.6693 C39.7687,79.4871 40.9844,83.8281 40.9844,83.8281 Z" style="stroke:none;fill-rule:evenodd;fill:#99d9e3;fill-opacity:1;"/>
        </g>
        <g id="Shape8">
            <desc shapeID="8" type="0" basicInfo-basicType="0" basicInfo-roundedRectRadius="12" basicInfo-polygonSides="6" basicInfo-starPoints="5" bounding="rect(0,0,0,0)" text="" font-familyName="Helvetica" font-pixelSize="20" font-bold="0" font-underline="0" font-alignment="1" strokeStyle="0" markerStart="0" markerEnd="0" shadowEnabled="0" shadowOffsetX="0" shadowOffsetY="2" shadowBlur="4" shadowOpacity="160" blurEnabled="0" blurRadius="4" transform="matrix(1,0,0,1,42.0781,84.1406)" pers-center="0,0" pers-size="0,0" pers-start="0,0" pers-end="0,0" locked="0" mesh="" flag=""/>
            <path id="shapePath8" d="M42.0781,84.1406 Z" style="stroke:none;fill-rule:evenodd;fill:#d5d5be;fill-opacity:1;"/>
        </g>
        <g id="Shape9">
            <desc shapeID="9" type="0" basicInfo-basicType="0" basicInfo-roundedRectRadius="12" basicInfo-polygonSides="6" basicInfo-starPoints="5" bounding="rect(-1.99612,-3.93442,3.99225,7.86884)" text="" font-familyName="Helvetica" font-pixelSize="20" font-bold="0" font-underline="0" font-alignment="1" strokeStyle="0" markerStart="0" markerEnd="0" shadowEnabled="0" shadowOffsetX="0" shadowOffsetY="2" shadowBlur="4" shadowOpacity="160" blurEnabled="0" blurRadius="4" transform="matrix(1,0,0,1,39.3633,80.7625)" pers-center="0,0" pers-size="0,0" pers-start="0,0" pers-end="0,0" locked="0" mesh="" flag=""/>
            <path id="shapePath9" d="M41.3594,83.7344 C41.3594,83.7344 41.3594,76.9844 41.3594,76.9844 C41.3594,76.9844 38.5156,76.8281 38.5156,76.8281 C38.5156,76.8281 37.5111,80.6562 37.37,83.4996 C37.2434,86.0491 41.3594,83.7344 41.3594,83.7344 Z" style="stroke:none;fill-rule:evenodd;fill:#d5d5be;fill-opacity:1;"/>
        </g>
        <g id="Shape10">
            <desc shapeID="10" type="0" basicInfo-basicType="0" basicInfo-roundedRectRadius="12" basicInfo-polygonSides="6" basicInfo-starPoints="5" bounding="rect(-64.358,-56.5207,128.716,113.042)" text="" font-familyName="" font-pixelSize="20" font-bold="0" font-underline="0" font-alignment="1" strokeStyle="0" markerStart="0" markerEnd="0" shadowEnabled="0" shadowOffsetX="0" shadowOffsetY="2" shadowBlur="4" shadowOpacity="160" blurEnabled="0" blurRadius="4" transform="matrix(0.519446,0,0,0.519446,60.5392,55.7553)" pers-center="0,0" pers-size="0,0" pers-start="0,0" pers-end="0,0" locked="0" mesh="" flag=""/>
            <path id="shapePath10" d="M87.6965,26.7719 C87.1251,27.7069 82.7618,42.4072 82.3982,44.5369 C82.0865,46.355 81.9307,46.6666 81.5151,45.9914 C80.4243,43.9655 79.2815,45.0044 77.0479,49.9911 C75.8532,52.6922 74.8662,55.3933 74.8662,56.0167 C74.8662,57.2114 75.9571,58.6139 76.8921,58.6139 C77.2037,58.6139 76.8921,59.5489 76.1129,60.7436 C74.6584,63.1331 74.7623,64.3278 76.5285,64.3278 C77.5154,64.3278 77.5674,64.4317 76.944,64.8472 C76.5285,65.107 75.4376,65.2109 74.5546,65.055 C72.7365,64.7433 69.8276,65.9381 69.3082,67.2367 C69.1523,67.6003 68.529,67.9639 67.9056,67.9639 C67.2823,67.9639 66.2954,68.2756 65.724,68.6911 C64.737,69.4184 64.6331,69.3145 64.0098,67.7042 C63.6982,66.7173 62.919,65.7822 62.3995,65.6264 C61.049,65.2109 57.309,66.5095 54.4001,68.5353 C51.699,70.3534 51.0756,71.3403 51.8548,72.535 C52.7379,73.9895 53.569,73.8336 53.569,72.2234 C53.569,70.4053 54.504,69.8339 55.7506,70.9767 C56.7376,71.8078 56.6856,71.8078 57.5167,69.0548 C57.7245,68.4834 57.8804,68.4834 58.5556,69.0548 C59.2829,69.6262 59.4907,69.5742 60.114,68.795 C60.7893,67.86 60.8931,67.912 62.3476,69.4703 C63.1787,70.3534 63.9579,71.4961 64.0618,72.0156 C64.2695,73.1064 66.0357,73.522 66.0357,72.4831 C66.0357,72.0675 66.5032,71.3403 67.0745,70.8209 C68.0615,69.8859 68.1134,69.9378 68.1134,70.9248 C68.1134,71.5481 68.4251,72.1195 68.7887,72.2234 C69.9315,72.6909 70.7107,72.0675 70.7107,70.7689 C70.7107,70.0417 70.9704,69.0028 71.2301,68.4314 C71.8535,67.2886 73.3079,67.0809 73.3079,68.1717 C73.3079,68.5353 73.6715,69.2106 74.139,69.5742 C74.8662,70.1456 75.074,70.0937 75.8532,69.0548 L76.7882,67.8081 L77.3596,69.4703 C77.6712,70.3534 78.2426,71.0806 78.6582,71.0806 C79.3854,71.0806 81.0996,72.6389 81.0996,73.3142 C81.0996,73.522 80.5282,73.6778 79.801,73.6778 C78.6062,73.6778 78.2426,74.1973 78.4504,75.4439 C78.5023,75.7037 77.879,75.7556 77.0998,75.5478 C76.3207,75.392 72.0093,75.0803 67.5421,74.8725 C59.127,74.5609 52.3223,75.1842 48.9459,76.5867 C46.3487,77.6776 47.5434,78.3528 50.9717,77.7814 C58.0881,76.5867 79.0218,77.4178 79.0218,78.8723 C79.0218,79.2878 75.9051,80.067 71.4898,80.6903 C70.3471,80.8462 63.9059,81.2098 57.2051,81.4695 C50.5042,81.7812 44.3748,82.1448 43.5956,82.3006 C42.1931,82.6123 42.1412,82.5603 42.1412,80.2228 L42.1412,77.8334 L44.2709,77.5217 L46.4006,77.1581 L46.0889,75.0284 C45.9331,73.8336 45.6215,72.3792 45.4656,71.7039 C45.2059,70.7689 45.3617,70.5611 46.2448,70.5611 C47.6992,70.5611 47.6992,68.9509 46.2448,67.6523 C44.8423,66.3536 43.0762,62.9253 43.6995,62.6656 C44.5826,62.4058 43.3359,56.7958 41.9334,54.5103 C39.8556,51.2897 39.44,51.5494 37.3103,57.4711 C35.752,61.7825 35.5442,64.0681 36.687,64.6914 C37.3623,65.055 37.3623,65.3147 36.8428,66.042 C36.2195,66.8731 35.9078,66.7173 33.4145,64.172 L30.6614,61.367 L32.7911,60.7436 C35.3884,59.9645 35.4923,58.8217 32.895,58.0945 C30.3497,57.3153 28.1161,57.575 27.3889,58.7697 C26.9214,59.497 27.0253,59.8606 27.8045,60.432 C28.3239,60.7956 28.5836,61.367 28.4278,61.6786 C27.8564,62.6136 29.6745,65.5225 32.947,68.847 L36.1156,72.1195 L34.5573,72.1195 C31.9081,72.1195 30.6614,74.3531 32.895,75.1842 C33.5703,75.4439 34.0898,76.0673 34.0898,76.5867 C34.0898,77.3659 34.4534,77.5737 35.752,77.5217 L37.4661,77.4178 L37.1025,79.4956 C36.8428,81.1578 36.9467,81.5734 37.5181,81.3656 C38.4011,81.1059 39.492,78.9762 39.6478,77.262 C39.7517,76.2751 39.492,76.0153 38.2972,75.7556 L36.7909,75.4959 L38.0895,73.9375 C39.3881,72.4831 39.3881,72.3273 38.6609,70.8728 C37.9337,69.4703 37.9337,69.1067 38.7648,66.7173 C39.5959,64.4317 39.6478,64.0681 38.9206,63.6525 C38.2453,63.185 38.2453,62.8214 38.9726,60.0683 C39.3881,58.4061 39.9076,57.0556 40.0634,57.0556 C40.2192,57.0556 40.7906,57.8867 41.362,58.9256 C42.1412,60.38 42.1931,60.8475 41.6736,61.1592 C40.8425,61.6786 41.6736,65.2109 43.232,67.912 C44.0112,69.2106 44.115,69.782 43.6476,70.3534 C43.2839,70.8209 43.232,71.7559 43.5956,73.3661 C44.167,76.0673 44.0631,76.2751 42.0892,76.2751 C40.5309,76.2751 40.0634,77.21 40.0634,80.7423 C40.0634,82.8201 39.9595,82.924 38.2453,83.2356 C35.8559,83.7031 35.9078,84.4304 38.3492,84.8979 C41.6217,85.5212 67.9576,84.6901 72.9443,83.807 C80.5282,82.5084 83.1254,80.6903 81.5671,77.8853 C80.7879,76.5348 80.7879,76.3789 81.5671,75.9114 C82.0346,75.5998 82.554,75.392 82.7099,75.4439 C82.8657,75.4959 83.3852,75.1842 83.8526,74.7687 C84.6318,74.1453 84.7357,74.3012 84.7357,76.327 C84.7357,77.5737 84.9435,78.9762 85.2551,79.3917 C85.9824,80.5345 86.8135,77.8334 86.8135,74.405 C86.8135,72.0156 86.6577,71.6 85.8785,71.6 C84.1643,71.6 84.1643,70.9248 85.7746,69.5742 L87.3849,68.2236 L85.5668,64.4317 C83.489,60.2242 83.3852,59.7567 84.424,59.3411 C84.9435,59.1333 85.0474,58.4581 84.8915,56.8478 C84.6838,55.2894 84.9954,53.4194 85.7746,51.1339 C87.1771,46.9264 86.9693,46.0433 84.7876,46.6666 C83.9046,46.9264 83.1774,47.0303 83.1774,46.9264 C83.1774,46.5108 87.8524,33.5766 88.164,33.0572 C88.3718,32.7455 88.8393,33.7324 89.2549,35.2388 C90.034,38.3036 92.9429,44.0694 93.6702,44.0694 C93.9299,44.0694 94.0338,43.7577 93.9299,43.3941 C93.7741,43.0825 92.891,39.6022 92.0079,35.7583 C91.0729,31.9144 90.086,28.2263 89.7743,27.551 C89.2549,26.4083 88.164,26.0447 87.6965,26.7719 M83.541,50.4067 C83.3852,50.7703 83.2813,50.5105 83.2813,49.7833 C83.2813,49.0561 83.3852,48.7964 83.541,49.108 C83.6449,49.4716 83.6449,50.095 83.541,50.4067 M83.1774,56.7439 C83.489,57.0556 83.1254,57.7308 82.3982,58.4061 C81.671,59.0814 81.0996,60.0683 81.0996,60.6917 C81.0996,62.0422 82.8137,65.4706 83.9565,66.4056 C84.6838,67.0289 84.6838,67.1848 83.6449,68.2756 C82.7618,69.2106 82.6579,69.6781 83.0735,70.1975 C84.3721,71.7559 82.9696,71.4442 81.5151,69.8859 C79.6451,67.912 78.9699,66.4056 79.3854,64.8992 C79.5412,64.2758 79.4373,63.8084 79.0737,63.8084 C78.814,63.8084 78.6582,63.4447 78.814,63.0292 C79.0218,62.6136 78.7621,62.1461 78.2946,61.9383 C77.6193,61.6786 77.6712,61.367 78.7621,59.7567 C80.3723,57.3672 80.3723,57.0556 78.7621,57.0556 C77.1518,57.0556 77.1518,57.0036 78.866,53.0039 L80.3204,49.7833 L81.5151,53.0039 C82.1904,54.8219 82.9176,56.4842 83.1774,56.7439 Z" style="stroke:none;fill-rule:nonzero;fill:#000000;fill-opacity:1;"/>
        </g>
        <g id="Shape11">
            <desc shapeID="11" type="0" basicInfo-basicType="0" basicInfo-roundedRectRadius="12" basicInfo-polygonSides="6" basicInfo-starPoints="5" bounding="rect(-24.4347,-15.2082,48.8695,30.4163)" text="" font-familyName="" font-pixelSize="20" font-bold="0" font-underline="0" font-alignment="1" strokeStyle="0" markerStart="0" markerEnd="0" shadowEnabled="0" shadowOffsetX="0" shadowOffsetY="2" shadowBlur="4" shadowOpacity="160" blurEnabled="0" blurRadius="4" transform="matrix(0.519446,0,0,0.519446,50.3556,35.9099)" pers-center="0,0" pers-size="0,0" pers-start="0,0" pers-end="0,0" locked="0" mesh="" flag=""/>
            <path id="shapePath11" d="M62.1398,30.0444 C61.6204,33.213 58.9193,36.7972 55.6987,38.7191 C52.1145,40.8489 43.9073,42.8747 41.4659,42.1994 C40.2192,41.8358 39.7517,41.3683 39.6478,40.3813 C39.492,38.9269 41.2581,36.2777 42.4528,36.2777 C43.3359,36.2777 43.3878,36.9011 42.6087,37.6802 C41.7256,38.5633 42.4528,39.9138 43.6995,39.9138 C44.6865,39.9138 44.7903,39.6541 44.6345,37.5244 C44.4267,34.5116 43.3359,33.5766 41.2581,34.7194 C38.0895,36.5375 36.687,40.3813 38.4011,42.5111 C39.3361,43.6539 39.8556,43.8097 43.0242,43.8097 C47.3876,43.7577 54.2442,41.5761 57.3609,39.1866 C60.4776,36.7972 62.5034,33.6805 62.919,30.5638 C63.3345,27.4991 62.6593,27.0316 62.1398,30.0444 Z" style="stroke:none;fill-rule:nonzero;fill:#3692bf;fill-opacity:1;"/>
        </g>
        <g id="Shape12">
            <desc shapeID="12" type="0" basicInfo-basicType="0" basicInfo-roundedRectRadius="12" basicInfo-polygonSides="6" basicInfo-starPoints="5" bounding="rect(-31.8887,-51.6826,63.7774,103.365)" text="" font-familyName="" font-pixelSize="20" font-bold="0" font-underline="0" font-alignment="1" strokeStyle="0" markerStart="0" markerEnd="0" shadowEnabled="0" shadowOffsetX="0" shadowOffsetY="2" shadowBlur="4" shadowOpacity="160" blurEnabled="0" blurRadius="4" transform="matrix(0.519446,0,0,0.519446,17.8463,59.5812)" pers-center="0,0" pers-size="0,0" pers-start="0,0" pers-end="0,0" locked="0" mesh="" flag=""/>
            <path id="shapePath12" d="M20.74,36.2777 L18.9219,39.9658 L18.2986,38.5113 C16.7922,34.8752 13.1041,32.5377 11.6497,34.3038 C10.7666,35.3427 7.5461,43.6539 6.76693,46.7705 C6.40331,48.2769 5.77997,49.7833 5.36442,50.1469 C4.11774,51.1858 5.0008,52.3805 7.02665,52.3805 L8.84471,52.3805 L7.33831,55.6011 C6.40331,57.575 5.77997,59.7047 5.77997,61.0033 C5.77997,62.6656 5.52025,63.3409 4.63718,63.9122 C3.13081,64.9511 3.85802,66.0939 5.8319,65.6784 L7.28638,65.4186 L4.94887,70.1456 C3.70219,72.7428 2.6633,75.2362 2.6633,75.5998 C2.6633,76.0153 2.29968,76.7425 1.8322,77.21 C1.05303,77.9892 1.05303,78.0931 2.14385,78.9762 C2.76719,79.4956 3.4944,79.7553 3.80608,79.5995 C4.27357,79.2878 10.8186,77.8334 11.5978,77.8334 C11.8575,77.8334 12.0133,79.1839 12.0133,80.8462 C12.0133,84.2226 12.8964,85.9887 14.2989,85.4692 C15.0781,85.1576 15.1819,84.5862 14.8183,80.9501 C14.5066,76.9503 14.5066,76.7945 15.5455,76.7945 C16.3247,76.7945 16.5844,77.0542 16.3767,77.5737 C15.8053,78.9762 16.7403,85.0537 17.5714,85.9367 C19.3375,87.7029 19.9608,84.5862 19.0258,78.4567 L18.7142,76.275 L20.5322,76.275 C23.1814,76.275 27.6486,75.2362 27.285,74.6648 C26.8175,73.8856 11.7017,74.0934 10.8705,74.9245 C10.0914,75.7037 5.26052,76.5867 5.26052,75.9634 C5.26052,75.7037 6.35135,73.1584 7.75386,70.2495 C10.0394,65.2628 10.2992,64.8992 12.273,64.2758 L14.3508,63.5486 L10.6108,63.3928 C8.53303,63.2889 6.81886,63.185 6.81886,63.0811 C6.81886,62.9772 7.85775,60.6917 9.15637,57.9906 C10.455,55.2375 11.4939,52.7961 11.4939,52.5364 C11.4939,52.2766 12.1172,51.7572 12.8444,51.3936 C13.9872,50.8742 14.0911,50.6664 13.5197,49.9911 C13.0003,49.3678 12.273,49.2639 10.3511,49.5236 L7.85775,49.8872 L8.94858,48.0172 C9.51999,47.0303 10.7666,44.0175 11.7017,41.4202 L13.4158,36.6933 L14.5066,38.4594 C16.0131,40.9008 19.2856,47.5497 19.2856,48.225 C19.2856,48.4847 18.7142,48.7444 18.0389,48.7444 C16.4805,48.7444 15.9611,50.4586 16.9481,52.3286 C17.3117,53.1078 19.4933,55.4453 21.727,57.575 C24.0125,59.7047 26.2461,62.0422 26.7136,62.7175 C27.1811,63.4447 27.7006,63.8603 27.9083,63.7045 C28.5317,63.0292 25.8825,58.3022 22.9217,54.6661 C21.1555,52.5364 20.0128,50.7703 20.3244,50.5625 C20.5842,50.4067 21.1036,50.4067 21.4153,50.5625 C21.727,50.7703 22.2983,50.5105 22.662,49.9911 C23.6489,48.6925 23.5969,48.3289 22.61,48.1211 C21.7789,47.9653 20.3244,44.3811 20.3244,42.5111 C20.3244,42.0955 20.8958,40.7969 21.5711,39.6541 L22.8178,37.5763 L24.1164,40.4333 C24.7917,42.0436 25.9864,44.3291 26.7656,45.5239 L28.1161,47.7055 L26.8694,47.7055 C26.1942,47.7055 25.3631,48.0691 24.9995,48.4847 C23.5969,50.1989 27.5448,54.5622 33.2067,57.5231 C35.5442,58.7697 34.2975,55.8089 31.025,52.3805 C29.3108,50.5625 29.155,50.1469 29.7784,49.6275 C30.5056,49.0561 30.4017,48.3808 29.0511,43.8616 C27.0772,37.1088 25.0514,32.9533 23.6489,32.7455 C22.7658,32.6416 22.1944,33.2649 20.74,36.2777 Z" style="stroke:none;fill-rule:nonzero;fill:#000000;fill-opacity:1;"/>
        </g>
        <g id="Shape13">
            <desc shapeID="13" type="0" basicInfo-basicType="0" basicInfo-roundedRectRadius="12" basicInfo-polygonSides="6" basicInfo-starPoints="5" bounding="rect(-26,-18.4018,52,36.8036)" text="" font-familyName="" font-pixelSize="20" font-bold="0" font-underline="0" font-alignment="1" strokeStyle="0" markerStart="0" markerEnd="0" shadowEnabled="0" shadowOffsetX="0" shadowOffsetY="2" shadowBlur="4" shadowOpacity="160" blurEnabled="0" blurRadius="4" transform="matrix(0.519446,0,0,0.519446,54.0884,43.3361)" pers-center="0,0" pers-size="0,0" pers-start="0,0" pers-end="0,0" locked="0" mesh="" flag=""/>
            <path id="shapePath13" d="M63.1787,37.4725 C55.439,45.5239 48.9978,49.7833 44.7384,49.7833 C42.349,49.7833 42.0373,48.7444 44.2709,48.225 C46.2967,47.7575 45.8292,46.355 43.7514,46.5628 C41.362,46.7186 40.5828,47.4978 40.5828,49.5755 C40.5828,53.3675 44.9981,53.9908 50.9198,51.03 C56.6856,48.173 67.594,37.2127 67.594,34.3038 C67.594,33.1611 66.8148,33.7324 63.1787,37.4725 Z" style="stroke:none;fill-rule:nonzero;fill:#3692bf;fill-opacity:1;"/>
        </g>
        <g id="Shape14">
            <desc shapeID="14" type="0" basicInfo-basicType="0" basicInfo-roundedRectRadius="12" basicInfo-polygonSides="6" basicInfo-starPoints="5" bounding="rect(-16.0927,-18.3294,32.1854,36.6589)" text="" font-familyName="" font-pixelSize="20" font-bold="0" font-underline="0" font-alignment="1" strokeStyle="0" markerStart="0" markerEnd="0" shadowEnabled="0" shadowOffsetX="0" shadowOffsetY="2" shadowBlur="4" shadowOpacity="160" blurEnabled="0" blurRadius="4" transform="matrix(0.519446,0,0,0.519446,60.4074,47.015)" pers-center="0,0" pers-size="0,0" pers-start="0,0" pers-end="0,0" locked="0" mesh="" flag=""/>
            <path id="shapePath14" d="M67.8537,37.9399 C67.6979,38.3036 67.2823,39.6541 66.8148,40.9008 C64.4773,47.7055 56.9973,56.3283 54.2962,55.2894 C53.2053,54.8739 53.4131,54.0428 54.6598,53.6792 C55.439,53.4194 55.5948,53.1597 55.2312,52.7961 C54.8157,52.3805 54.2442,52.4844 53.3612,53.1078 C50.9717,54.6142 52.0106,56.5361 55.1273,56.5361 C58.3479,56.5361 62.1398,52.9519 65.7759,46.4069 C67.8018,42.7708 69.3082,37.9919 68.581,37.5763 C68.3212,37.3686 68.0096,37.5763 67.8537,37.9399 Z" style="stroke:none;fill-rule:nonzero;fill:#3692bf;fill-opacity:1;"/>
        </g>
        <g id="Shape15">
            <desc shapeID="15" type="0" basicInfo-basicType="0" basicInfo-roundedRectRadius="12" basicInfo-polygonSides="6" basicInfo-starPoints="5" bounding="rect(-10.922,-35.6843,21.8441,71.3686)" text="" font-familyName="" font-pixelSize="20" font-bold="0" font-underline="0" font-alignment="1" strokeStyle="0" markerStart="0" markerEnd="0" shadowEnabled="0" shadowOffsetX="0" shadowOffsetY="2" shadowBlur="4" shadowOpacity="160" blurEnabled="0" blurRadius="4" transform="matrix(0.519446,0,0,0.519446,93.0447,62.6737)" pers-center="0,0" pers-size="0,0" pers-start="0,0" pers-end="0,0" locked="0" mesh="" flag=""/>
            <path id="shapePath15" d="M90.2418,45.1602 C88.7874,46.303 88.5276,47.6536 89.5146,49.4197 C89.8263,50.043 91.1249,52.9519 92.3196,55.9128 L94.5013,61.2631 L92.7871,60.8994 C91.3846,60.6397 90.969,60.7956 90.5015,61.6786 C90.0341,62.5617 90.086,63.0292 90.8652,64.172 C91.4366,65.0031 92.6313,66.7692 93.5143,68.1197 L95.1246,70.6131 L91.904,70.5092 C88.8913,70.3534 88.5796,70.4572 88.0082,71.652 C87.1251,73.2623 87.1771,77.6776 88.0602,79.6514 L88.7874,81.2098 L89.4107,79.6514 C89.7224,78.7684 90.1379,76.8464 90.2938,75.2881 L90.6054,72.4831 L94.1896,72.7948 C97.3582,73.0545 97.7738,73.0025 97.5141,72.2753 C97.3063,71.7039 97.4102,71.5481 97.9816,71.8078 C99.0205,72.1714 98.9685,71.4961 97.7738,69.9897 C97.2543,69.3145 96.2674,67.5484 95.5402,66.1459 C94.2935,63.6525 94.2935,63.4967 95.2285,62.6136 C95.748,62.1461 96.1635,61.0553 96.1635,60.2761 C96.1635,57.8347 94.0857,50.6664 92.839,48.7444 L91.6443,46.9264 L92.7352,46.0433 C93.6702,45.2641 93.7221,45.0564 93.0468,44.5889 C91.956,43.9136 91.8001,43.9136 90.2418,45.1602 Z" style="stroke:none;fill-rule:nonzero;fill:#000000;fill-opacity:1;"/>
        </g>
        <g id="Shape16">
            <desc shapeID="16" type="0" basicInfo-basicType="0" basicInfo-roundedRectRadius="12" basicInfo-polygonSides="6" basicInfo-starPoints="5" bounding="rect(-12.7642,-18.9556,25.5285,37.9111)" text="" font-familyName="" font-pixelSize="20" font-bold="0" font-underline="0" font-alignment="1" strokeStyle="0" markerStart="0" markerEnd="0" shadowEnabled="0" shadowOffsetX="0" shadowOffsetY="2" shadowBlur="4" shadowOpacity="160" blurEnabled="0" blurRadius="4" transform="matrix(0.519446,0,0,0.519446,26.1608,73.7009)" pers-center="0,0" pers-size="0,0" pers-start="0,0" pers-end="0,0" locked="0" mesh="" flag=""/>
            <path id="shapePath16" d="M19.5972,64.6395 C19.1817,65.6784 20.5842,67.1328 27.285,72.8467 C30.1939,75.34 30.2458,75.34 29.8823,77.5737 C29.5706,79.9112 30.4017,83.5473 31.2847,83.5473 C32.012,83.5473 32.7911,81.1578 32.7911,78.8203 C32.7911,76.3789 31.96,74.5089 31.025,74.8725 C30.6095,75.0284 29.9342,74.2492 29.2589,72.8467 C28.6356,71.6 27.337,69.6781 26.2981,68.5873 C24.1164,66.1459 24.0645,65.8861 25.7267,65.8861 C27.0772,65.8861 27.9603,65.107 27.1811,64.6395 C26.9214,64.4836 25.2072,64.2239 23.3372,64.0161 C20.3244,63.7045 19.9089,63.8083 19.5972,64.6395 Z" style="stroke:none;fill-rule:nonzero;fill:#000000;fill-opacity:1;"/>
        </g>
        <g id="Shape17">
            <desc shapeID="17" type="0" basicInfo-basicType="0" basicInfo-roundedRectRadius="12" basicInfo-polygonSides="6" basicInfo-starPoints="5" bounding="rect(-2.88606,-8.32558,5.77207,16.6511)" text="" font-familyName="" font-pixelSize="20" font-bold="0" font-underline="0" font-alignment="1" strokeStyle="0" markerStart="0" markerEnd="0" shadowEnabled="0" shadowOffsetX="0" shadowOffsetY="2" shadowBlur="4" shadowOpacity="160" blurEnabled="0" blurRadius="4" transform="matrix(0.519446,0,0,0.519446,25.4904,80.7379)" pers-center="0,0" pers-size="0,0" pers-start="0,0" pers-end="0,0" locked="0" mesh="" flag=""/>
            <path id="shapePath17" d="M24.5319,77.262 C23.8567,78.5087 23.8047,83.4953 24.4281,84.5342 C25.2072,85.729 26.4539,84.794 26.8694,82.7681 C27.285,80.5345 26.5578,76.6906 25.6747,76.4309 C25.3631,76.327 24.8436,76.6906 24.5319,77.262 Z" style="stroke:none;fill-rule:nonzero;fill:#000000;fill-opacity:1;"/>
        </g>
        <g id="Shape18">
            <desc shapeID="18" type="0" basicInfo-basicType="0" basicInfo-roundedRectRadius="12" basicInfo-polygonSides="6" basicInfo-starPoints="5" bounding="rect(-19.7108,-9.66916,39.4215,19.3383)" text="" font-familyName="" font-pixelSize="20" font-bold="0" font-underline="0" font-alignment="1" strokeStyle="0" markerStart="0" markerEnd="0" shadowEnabled="0" shadowOffsetX="0" shadowOffsetY="2" shadowBlur="4" shadowOpacity="160" blurEnabled="0" blurRadius="4" transform="matrix(0.515321,0.0653318,-0.0653318,0.515321,69.662,91.5892)" pers-center="0,0" pers-size="0,0" pers-start="0,0" pers-end="0,0" locked="0" mesh="" flag=""/>
            <path id="shapePath18" d="M75.615,87.6304 C75.3893,87.7589 75.0975,88.8214 74.9603,89.9036 C74.699,91.9649 74.2475,92.2218 72.7806,90.9887 C72.0665,90.4269 71.5511,90.3615 70.4617,90.6947 C68.6116,91.2455 68.5194,92.3858 70.1924,93.6451 C70.9066,94.2068 71.08,94.4906 70.6358,94.2773 C70.1401,94.0573 69.6117,94.095 69.431,94.2816 C69.2953,94.5262 68.6377,94.757 68.0512,94.8397 C67.1491,94.9348 67.0525,94.8702 67.5882,94.3621 C67.9496,93.9891 68.2603,93.1907 68.2422,92.5077 C68.2255,90.9871 65.6112,90.1321 64.5137,91.3543 C64.0942,91.7724 63.6624,91.8747 63.5404,91.5975 C63.4185,91.3202 62.459,91.0415 61.3703,90.9558 C59.444,90.8687 59.3859,90.9137 59.2088,92.7238 C59.1297,93.761 59.1601,94.7597 59.2951,94.9339 C59.7451,95.5145 60.7257,94.8011 60.8564,93.7705 C60.9478,93.049 61.9799,92.3421 62.856,92.4532 C62.959,92.4662 63.0156,93.2588 63.0076,94.1479 C62.9466,95.8681 62.9466,95.8681 65.5363,96.0917 C66.9923,96.1715 68.854,96.3552 69.7815,96.4728 C72.5643,96.8256 74.4238,94.548 72.4547,93.1465 C71.3029,92.3198 71.3109,91.4306 72.3931,91.5678 C72.8053,91.6201 73.1399,91.872 73.1007,92.1812 C73.0681,92.4388 73.3446,92.7357 73.7053,92.7814 C74.066,92.8271 74.4834,93.6655 74.63,94.5742 C74.8723,95.9663 75.2323,96.4308 76.353,96.6776 C77.7247,97.0086 79.3687,96.4316 79.4732,95.6071 C79.4994,95.401 78.8875,95.271 78.1465,95.3342 C76.774,95.4219 76.729,95.3639 77.3249,93.5545 C77.6617,92.55 77.7147,91.7189 77.457,91.6862 C77.1994,91.6536 76.9562,90.6803 76.8938,89.5204 C76.8329,87.523 76.4344,86.9489 75.615,87.6304 M66.7927,92.3763 C66.7143,92.9947 65.5988,93.5339 65.2838,93.1275 C64.9688,92.721 65.7694,91.7753 66.3877,91.8537 C66.6454,91.8864 66.8254,92.1186 66.7927,92.3763 Z" style="stroke:none;fill-rule:nonzero;fill:#000000;fill-opacity:1;"/>
        </g>
        <g id="Shape19">
            <desc shapeID="19" type="0" basicInfo-basicType="0" basicInfo-roundedRectRadius="12" basicInfo-polygonSides="6" basicInfo-starPoints="5" bounding="rect(-8.39774,-10.0352,16.7954,20.0704)" text="" font-familyName="" font-pixelSize="20" font-bold="0" font-underline="0" font-alignment="1" strokeStyle="0" markerStart="0" markerEnd="0" shadowEnabled="0" shadowOffsetX="0" shadowOffsetY="2" shadowBlur="4" shadowOpacity="160" blurEnabled="0" blurRadius="4" transform="matrix(0.515321,0.0653318,-0.0653318,0.515321,53.5908,91.6225)" pers-center="0,0" pers-size="0,0" pers-start="0,0" pers-end="0,0" locked="0" mesh="" flag=""/>
            <path id="shapePath19" d="M53.5948,86.619 C52.1381,86.9579 50.505,88.6882 50.3286,90.0796 C50.2502,90.6979 49.9011,91.3867 49.4946,91.7017 C49.0882,92.0167 49.004,92.2678 49.3132,92.307 C49.6224,92.3462 50.0201,93.3391 50.2306,94.5701 C50.6769,97.2447 51.8302,97.2338 51.9572,94.5796 C51.9856,93.1171 52.199,92.6729 52.8174,92.7513 C53.2296,92.8036 53.5765,93.3711 53.6012,94.0026 C53.6113,95.5747 55.7815,96.2163 56.8724,95.0456 C58.6862,93.1288 57.673,90.3823 55.4615,91.3063 C53.914,91.9479 52.2854,91.1654 52.4487,89.8771 C52.6316,88.4342 54.0121,87.4573 55.042,88.0067 C55.4862,88.2201 55.815,88.1047 55.8673,87.6925 C55.9914,86.7134 55,86.2735 53.5948,86.619 M56.1466,93.7493 C56.1139,94.007 55.8817,94.187 55.5725,94.1478 C55.3148,94.1151 55.1029,93.7217 55.1617,93.2579 C55.214,92.8457 55.4977,92.6722 55.7358,92.8595 C56.0254,93.0533 56.1858,93.4401 56.1466,93.7493 Z" style="stroke:none;fill-rule:nonzero;fill:#000000;fill-opacity:1;"/>
        </g>
        <g id="Shape20">
            <desc shapeID="20" type="0" basicInfo-basicType="0" basicInfo-roundedRectRadius="12" basicInfo-polygonSides="6" basicInfo-starPoints="5" bounding="rect(-4.62163,-8.88,9.24328,17.76)" text="" font-familyName="" font-pixelSize="20" font-bold="0" font-underline="0" font-alignment="1" strokeStyle="0" markerStart="0" markerEnd="0" shadowEnabled="0" shadowOffsetX="0" shadowOffsetY="2" shadowBlur="4" shadowOpacity="160" blurEnabled="0" blurRadius="4" transform="matrix(0.515321,0.0653318,-0.0653318,0.515321,42.6294,91.5225)" pers-center="0,0" pers-size="0,0" pers-start="0,0" pers-end="0,0" locked="0" mesh="" flag=""/>
            <path id="shapePath20" d="M43.7296,87.2009 C43.4974,87.3809 43.1794,88.6496 43.0096,89.9894 C42.7352,92.1538 42.5414,92.4434 41.5427,92.4738 C38.9719,92.5144 39.6555,95.7951 42.2837,96.1283 C44.2419,96.3765 44.6425,95.6943 44.9845,91.7582 C45.2284,88.5952 44.6587,86.4809 43.7296,87.2009 M42.6604,94.3958 C42.8012,94.9372 42.6205,95.1238 42.2728,94.975 C41.5325,94.6193 41.2705,93.3818 41.9404,93.4667 C42.1981,93.4994 42.5646,93.9124 42.6604,94.3958 Z" style="stroke:none;fill-rule:nonzero;fill:#000000;fill-opacity:1;"/>
        </g>
        <g id="Shape21">
            <desc shapeID="21" type="0" basicInfo-basicType="0" basicInfo-roundedRectRadius="12" basicInfo-polygonSides="6" basicInfo-starPoints="5" bounding="rect(-2.3205,-1.3363,4.64094,2.67259)" text="" font-familyName="" font-pixelSize="20" font-bold="0" font-underline="0" font-alignment="1" strokeStyle="0" markerStart="0" markerEnd="0" shadowEnabled="0" shadowOffsetX="0" shadowOffsetY="2" shadowBlur="4" shadowOpacity="160" blurEnabled="0" blurRadius="4" transform="matrix(0.515321,0.0653318,-0.0653318,0.515321,32.1416,90.3061)" pers-center="0,0" pers-size="0,0" pers-start="0,0" pers-end="0,0" locked="0" mesh="" flag=""/>
            <path id="shapePath21" d="M30.9743,89.9297 C30.8959,90.5481 32.3185,91.3044 32.9891,90.9705 C33.2663,90.8486 33.4151,90.5009 33.2932,90.2237 C32.9594,89.553 31.0527,89.3113 30.9743,89.9297 Z" style="stroke:none;fill-rule:nonzero;fill:#000000;fill-opacity:1;"/>
        </g>
        <g id="Shape22">
            <desc shapeID="22" type="0" basicInfo-basicType="0" basicInfo-roundedRectRadius="12" basicInfo-polygonSides="6" basicInfo-starPoints="5" bounding="rect(-4.93575,-3.8522,9.87152,7.7044)" text="" font-familyName="" font-pixelSize="20" font-bold="0" font-underline="0" font-alignment="1" strokeStyle="0" markerStart="0" markerEnd="0" shadowEnabled="0" shadowOffsetX="0" shadowOffsetY="2" shadowBlur="4" shadowOpacity="160" blurEnabled="0" blurRadius="4" transform="matrix(0.515321,0.0653318,-0.0653318,0.515321,36.5476,93.3732)" pers-center="0,0" pers-size="0,0" pers-start="0,0" pers-end="0,0" locked="0" mesh="" flag=""/>
            <path id="shapePath22" d="M36.5637,91.6855 C36.1188,91.8909 35.4873,91.9156 35.1977,91.7218 C34.5539,91.4307 33.6938,93.259 33.9623,94.445 C34.1089,95.3537 35.5134,95.427 35.6244,94.551 C35.7812,93.3142 36.9026,93.1422 37.0615,94.3666 C37.2139,95.6426 38.3215,95.9925 38.871,94.9626 C39.2782,94.2288 38.58,91.8888 37.8397,91.5331 C37.5885,91.4489 37.0086,91.4801 36.5637,91.6855 Z" style="stroke:none;fill-rule:nonzero;fill:#000000;fill-opacity:1;"/>
        </g>
        <g id="Shape23">
            <desc shapeID="23" type="0" basicInfo-basicType="0" basicInfo-roundedRectRadius="12" basicInfo-polygonSides="6" basicInfo-starPoints="5" bounding="rect(-7.70723,-5.03552,15.4144,10.071)" text="" font-familyName="" font-pixelSize="20" font-bold="0" font-underline="0" font-alignment="1" strokeStyle="0" markerStart="0" markerEnd="0" shadowEnabled="0" shadowOffsetX="0" shadowOffsetY="2" shadowBlur="4" shadowOpacity="160" blurEnabled="0" blurRadius="4" transform="matrix(0.515321,0.0653318,-0.0653318,0.515321,26.4133,93.5621)" pers-center="0,0" pers-size="0,0" pers-start="0,0" pers-end="0,0" locked="0" mesh="" flag=""/>
            <path id="shapePath23" d="M23.3569,90.9537 C22.5302,92.1055 22.0432,94.2952 22.5316,94.9855 C23.097,95.8949 25.2417,96.3239 25.8035,95.6097 C25.9908,95.3717 26.7768,95.3666 27.5302,95.6192 C29.2881,96.2086 30.4559,95.2571 30.4531,93.2147 C30.4676,92.274 30.1272,91.6549 29.5219,91.4734 C28.7235,91.1628 28.5943,91.3559 28.6756,92.7799 C28.8142,94.5777 28.0986,94.8535 27.4054,93.2995 C26.9946,92.4097 26.885,92.4482 26.0329,93.3873 C24.6386,94.8861 24.0979,94.6081 24.3592,92.5468 C24.5683,90.8978 24.0414,90.0979 23.3569,90.9537 Z" style="stroke:none;fill-rule:nonzero;fill:#000000;fill-opacity:1;"/>
        </g>
        <g id="Shape24">
            <desc shapeID="24" type="0" basicInfo-basicType="0" basicInfo-roundedRectRadius="12" basicInfo-polygonSides="6" basicInfo-starPoints="5" bounding="rect(-1.54125,-3.35035,3.08251,6.70073)" text="" font-familyName="" font-pixelSize="20" font-bold="0" font-underline="0" font-alignment="1" strokeStyle="0" markerStart="0" markerEnd="0" shadowEnabled="0" shadowOffsetX="0" shadowOffsetY="2" shadowBlur="4" shadowOpacity="160" blurEnabled="0" blurRadius="4" transform="matrix(0.515321,0.0653318,-0.0653318,0.515321,32.3157,93.6339)" pers-center="0,0" pers-size="0,0" pers-start="0,0" pers-end="0,0" locked="0" mesh="" flag=""/>
            <path id="shapePath24" d="M32.0658,92.0578 C31.311,92.6427 31.3451,95.2651 32.118,95.3631 C32.6334,95.4284 32.9564,94.9458 33.0805,93.9666 C33.2765,92.4207 32.7626,91.5178 32.0658,92.0578 Z" style="stroke:none;fill-rule:nonzero;fill:#000000;fill-opacity:1;"/>
        </g>
    </g>
</svg>
