<?xml version="1.0"?>
<svg version="1.1" xmlns="http://www.w3.org/2000/svg" xmlns:xlink="http://www.w3.org/1999/xlink" width="100" height="100">
    <desc iVinci="yes" version="4.6" gridStep="20" showGrid="no" snapToGrid="no" codePlatform="0"/>
    <g id="Layer1" name="Layer 2" opacity="1">
        <g id="Shape1">
            <desc shapeID="1" type="0" basicInfo-basicType="0" basicInfo-roundedRectRadius="12" basicInfo-polygonSides="6" basicInfo-starPoints="5" bounding="rect(-47.6822,-25.4241,95.3644,50.8482)" text="" font-familyName="Helvetica" font-pixelSize="20" font-bold="0" font-underline="0" font-alignment="1" strokeStyle="0" markerStart="0" markerEnd="0" shadowEnabled="0" shadowOffsetX="0" shadowOffsetY="2" shadowBlur="4" shadowOpacity="160" blurEnabled="0" blurRadius="4" transform="matrix(1,0,0,1,49.9649,36.6425)" pers-center="0,0" pers-size="0,0" pers-start="0,0" pers-end="0,0" locked="0" mesh="" flag=""/>
            <path id="shapePath1" d="M5.77518,12.5461 C5.77518,12.5461 96.4522,11.2185 96.4522,11.2185 C96.4522,11.2185 97.6471,13.8737 97.6471,13.8737 C97.6471,13.8737 93.6642,42.6833 93.6642,42.6833 C93.6642,42.6833 90.0796,46.1351 90.0796,46.1351 C90.0796,46.1351 81.5828,47.9938 81.5828,47.9938 C81.5828,47.9938 52.6405,49.4542 52.6405,49.4542 C52.6405,49.4542 50.5163,62.0666 50.5163,62.0666 C50.5163,62.0666 46.4006,61.9339 46.4006,61.9339 C46.4006,61.9339 42.6833,59.5441 42.6833,59.5441 C42.6833,59.5441 42.6833,49.9852 42.6833,49.9852 C42.6833,49.9852 8.03215,47.7282 8.03215,47.7282 C8.03215,47.7282 8.03215,44.0109 8.03215,44.0109 C8.03215,44.0109 3.11993,43.4798 3.11993,43.4798 C3.11993,43.4798 3.11993,28.3449 3.11993,28.3449 C3.11993,28.3449 7.36834,25.6896 7.36834,25.6896 C7.36834,25.6896 5.24413,22.1285 5.24413,22.1285 C5.24413,22.1285 8.44542,19.9371 7.78617,19.0016 C7.25692,18.2506 2.82867,18.8868 2.89202,17.7623 C2.9475,16.7776 2.39433,15.6947 2.28608,14.7399 C2.15696,13.6011 5.77518,12.5461 5.77518,12.5461 Z" style="stroke:none;fill-rule:evenodd;fill:#cba379;fill-opacity:1;"/>
        </g>
        <g id="Shape2">
            <desc shapeID="2" type="0" basicInfo-basicType="0" basicInfo-roundedRectRadius="12" basicInfo-polygonSides="6" basicInfo-starPoints="5" bounding="rect(-4.82539,-10.2041,9.65079,20.4083)" text="" font-familyName="Helvetica" font-pixelSize="20" font-bold="0" font-underline="0" font-alignment="1" strokeStyle="0" markerStart="0" markerEnd="0" shadowEnabled="0" shadowOffsetX="0" shadowOffsetY="2" shadowBlur="4" shadowOpacity="160" blurEnabled="0" blurRadius="4" transform="matrix(1,0,0,1,45.2419,79.8801)" pers-center="0,0" pers-size="0,0" pers-start="0,0" pers-end="0,0" locked="0" mesh="" flag=""/>
            <path id="shapePath2" d="M40.4165,90.0843 C40.4165,90.0843 41.1542,81.5399 41.1542,81.5399 C41.1542,81.5399 47.3012,69.6148 47.3012,69.6762 C47.3012,69.7377 50.0673,71.09 50.0673,71.09 C50.0673,71.09 47.4856,90.0843 47.4856,90.0843 C47.4856,90.0843 40.4165,90.0843 40.4165,90.0843 Z" style="stroke:none;fill-rule:evenodd;fill:#cba379;fill-opacity:1;"/>
        </g>
        <g id="Shape3">
            <desc shapeID="3" type="0" basicInfo-basicType="0" basicInfo-roundedRectRadius="12" basicInfo-polygonSides="6" basicInfo-starPoints="5" bounding="rect(0,0,0,0)" text="" font-familyName="Helvetica" font-pixelSize="20" font-bold="0" font-underline="0" font-alignment="1" strokeStyle="0" markerStart="0" markerEnd="0" shadowEnabled="0" shadowOffsetX="0" shadowOffsetY="2" shadowBlur="4" shadowOpacity="160" blurEnabled="0" blurRadius="4" transform="matrix(1,0,0,1,41.4766,84.3792)" pers-center="0,0" pers-size="0,0" pers-start="0,0" pers-end="0,0" locked="0" mesh="" flag=""/>
            <path id="shapePath3" d="M41.4766,84.3792 Z" style="stroke:none;fill-rule:evenodd;fill:#e8d5b2;fill-opacity:1;"/>
        </g>
        <g id="Shape4">
            <desc shapeID="4" type="0" basicInfo-basicType="0" basicInfo-roundedRectRadius="12" basicInfo-polygonSides="6" basicInfo-starPoints="5" bounding="rect(0,0,0,0)" text="" font-familyName="Helvetica" font-pixelSize="20" font-bold="0" font-underline="0" font-alignment="1" strokeStyle="0" markerStart="0" markerEnd="0" shadowEnabled="0" shadowOffsetX="0" shadowOffsetY="2" shadowBlur="4" shadowOpacity="160" blurEnabled="0" blurRadius="4" transform="matrix(1,0,0,1,41.4159,81.8306)" pers-center="0,0" pers-size="0,0" pers-start="0,0" pers-end="0,0" locked="0" mesh="" flag=""/>
            <path id="shapePath4" d="M41.4159,81.8306 Z" style="stroke:none;fill-rule:evenodd;fill:#e8d5b2;fill-opacity:1;"/>
        </g>
        <g id="Shape5">
            <desc shapeID="5" type="0" basicInfo-basicType="0" basicInfo-roundedRectRadius="12" basicInfo-polygonSides="6" basicInfo-starPoints="5" bounding="rect(-4.39949,-6.70543,8.79898,13.4109)" text="" font-familyName="Helvetica" font-pixelSize="20" font-bold="0" font-underline="0" font-alignment="1" strokeStyle="0" markerStart="0" markerEnd="0" shadowEnabled="0" shadowOffsetX="0" shadowOffsetY="2" shadowBlur="4" shadowOpacity="160" blurEnabled="0" blurRadius="4" transform="matrix(1,0,0,1,45.1479,76.3995)" pers-center="0,0" pers-size="0,0" pers-start="0,0" pers-end="0,0" locked="0" mesh="" flag=""/>
            <path id="shapePath5" d="M40.7484,83.1049 C40.7484,83.1049 46.8774,69.694 46.8774,69.694 C46.8774,69.694 49.3047,70.4829 49.3047,70.4829 C49.3047,70.4829 49.5474,77.7648 49.5474,77.7648 C49.5474,77.7648 40.7484,83.1049 40.7484,83.1049 Z" style="stroke:none;fill-rule:evenodd;fill:#915d39;fill-opacity:1;"/>
        </g>
        <g id="Shape6">
            <desc shapeID="6" type="0" basicInfo-basicType="0" basicInfo-roundedRectRadius="12" basicInfo-polygonSides="6" basicInfo-starPoints="5" bounding="rect(0,0,0,0)" text="" font-familyName="Helvetica" font-pixelSize="20" font-bold="0" font-underline="0" font-alignment="1" strokeStyle="0" markerStart="0" markerEnd="0" shadowEnabled="0" shadowOffsetX="0" shadowOffsetY="2" shadowBlur="4" shadowOpacity="160" blurEnabled="0" blurRadius="4" transform="matrix(1,0,0,1,52.2255,60.4271)" pers-center="0,0" pers-size="0,0" pers-start="0,0" pers-end="0,0" locked="0" mesh="" flag=""/>
            <path id="shapePath6" d="M52.2255,60.4271 Z" style="stroke:none;fill-rule:evenodd;fill:#e8dbc1;fill-opacity:1;"/>
        </g>
        <g id="Shape7">
            <desc shapeID="7" type="0" basicInfo-basicType="0" basicInfo-roundedRectRadius="12" basicInfo-polygonSides="6" basicInfo-starPoints="5" bounding="rect(-5.03556,-3.09693,10.0711,6.19387)" text="" font-familyName="Helvetica" font-pixelSize="20" font-bold="0" font-underline="0" font-alignment="1" strokeStyle="0" markerStart="0" markerEnd="0" shadowEnabled="0" shadowOffsetX="0" shadowOffsetY="2" shadowBlur="4" shadowOpacity="160" blurEnabled="0" blurRadius="4" transform="matrix(1,0,0,1,46.5122,59.9736)" pers-center="0,0" pers-size="0,0" pers-start="0,0" pers-end="0,0" locked="0" mesh="" flag=""/>
            <path id="shapePath7" d="M41.4766,56.8767 C41.4766,56.8767 43.7358,58.9313 46.1142,59.2034 C48.7574,59.5058 51.5477,58.7722 51.5477,58.7722 C51.5477,58.7722 50.9377,63.0705 50.9377,63.0705 C50.9377,63.0705 41.9228,60.9015 41.9228,60.9015 C41.9228,60.9015 41.4766,56.8767 41.4766,56.8767 Z" style="stroke:none;fill-rule:evenodd;fill:#915d39;fill-opacity:1;"/>
        </g>
        <g id="Shape8">
            <desc shapeID="8" type="0" basicInfo-basicType="0" basicInfo-roundedRectRadius="12" basicInfo-polygonSides="6" basicInfo-starPoints="5" bounding="rect(-9.86013,-2.23932,19.7203,4.47865)" text="" font-familyName="Helvetica" font-pixelSize="20" font-bold="0" font-underline="0" font-alignment="1" strokeStyle="0" markerStart="0" markerEnd="0" shadowEnabled="0" shadowOffsetX="0" shadowOffsetY="2" shadowBlur="4" shadowOpacity="160" blurEnabled="0" blurRadius="4" transform="matrix(1,0,0,1,88.4545,15.8766)" pers-center="0,0" pers-size="0,0" pers-start="0,0" pers-end="0,0" locked="0" mesh="" flag=""/>
            <path id="shapePath8" d="M97.7325,14.2084 C91.4466,13.0977 79.3023,13.7527 78.5961,14.9279 C78.4306,16.7951 90.4501,18.3211 96.5095,18.0933 C97.8662,18.0423 99.0694,14.4447 97.7325,14.2084 Z" style="stroke:none;fill-rule:evenodd;fill:#915d39;fill-opacity:1;"/>
        </g>
        <g id="Shape9">
            <desc shapeID="9" type="0" basicInfo-basicType="0" basicInfo-roundedRectRadius="12" basicInfo-polygonSides="6" basicInfo-starPoints="5" bounding="rect(-9.86013,-2.23932,19.7203,4.47865)" text="" font-familyName="Helvetica" font-pixelSize="20" font-bold="0" font-underline="0" font-alignment="1" strokeStyle="0" markerStart="0" markerEnd="0" shadowEnabled="0" shadowOffsetX="0" shadowOffsetY="2" shadowBlur="4" shadowOpacity="160" blurEnabled="0" blurRadius="4" transform="matrix(-0.995144,0.0984282,-0.0984282,-0.995144,16.8069,43.3511)" pers-center="0,0" pers-size="0,0" pers-start="0,0" pers-end="0,0" locked="0" mesh="" flag=""/>
            <path id="shapePath9" d="M7.73811,45.9243 C14.1028,46.4109 26.1237,44.5638 26.7108,43.3248 C26.6917,41.4503 14.5803,41.1148 8.5728,41.9379 C7.22776,42.1222 6.38445,45.8208 7.73811,45.9243 Z" style="stroke:none;fill-rule:evenodd;fill:#915d39;fill-opacity:1;"/>
        </g>
        <g id="Shape10">
            <desc shapeID="10" type="0" basicInfo-basicType="0" basicInfo-roundedRectRadius="12" basicInfo-polygonSides="6" basicInfo-starPoints="5" bounding="rect(-13.2541,-10.991,26.5081,21.982)" text="" font-familyName="Helvetica" font-pixelSize="20" font-bold="0" font-underline="0" font-alignment="1" strokeStyle="0" markerStart="0" markerEnd="0" shadowEnabled="0" shadowOffsetX="0" shadowOffsetY="2" shadowBlur="4" shadowOpacity="160" blurEnabled="0" blurRadius="4" transform="matrix(1,0,0,1,46.4821,70.7879)" pers-center="0,0" pers-size="0,0" pers-start="0,0" pers-end="0,0" locked="0" mesh="" flag=""/>
            <path id="shapePath10" d="M35.148,81.1656 C35.148,81.1656 33.228,71.8754 33.228,71.8754 C33.228,71.8754 35.4577,60.9749 35.4577,60.9749 C35.4577,60.9749 38.6783,59.86 38.6783,59.7981 C38.6783,59.7362 46.7298,62.1516 46.7298,62.1516 C46.7298,62.1516 51.9943,62.3994 51.9943,62.3994 C51.9943,62.3994 58.931,67.8496 58.931,67.8496 C58.931,67.8496 59.7362,75.2199 59.7362,75.2199 C59.7362,75.2199 51.0033,80.0508 51.0033,80.0508 C51.0033,80.0508 49.6408,78.1927 49.6408,78.1927 C49.6408,78.1927 49.6408,70.9464 49.6408,70.9464 C49.6408,70.9464 46.3582,70.2031 46.3582,70.2031 C46.3582,70.2031 44.8301,77.5553 42.0777,80.2469 C39.2267,83.0348 35.148,81.1656 35.148,81.1656 Z" style="stroke:none;fill-rule:evenodd;fill:#e8dbc1;fill-opacity:1;"/>
        </g>
        <g id="Shape11">
            <desc shapeID="11" type="0" basicInfo-basicType="0" basicInfo-roundedRectRadius="12" basicInfo-polygonSides="6" basicInfo-starPoints="5" bounding="rect(-121.274,-52.6206,242.548,105.241)" text="" font-familyName="" font-pixelSize="20" font-bold="0" font-underline="0" font-alignment="1" strokeStyle="0" markerStart="0" markerEnd="0" shadowEnabled="0" shadowOffsetX="0" shadowOffsetY="2" shadowBlur="4" shadowOpacity="160" blurEnabled="0" blurRadius="4" transform="matrix(0.399446,0,0,0.399446,49.5728,29.4358)" pers-center="0,0" pers-size="0,0" pers-start="0,0" pers-end="0,0" locked="0" mesh="" flag=""/>
            <path id="shapePath11" d="M32.4491,8.7744 C18.0291,9.29368 6.60496,9.9328 4.88733,10.3322 C3.84872,10.5719 2.89009,11.1711 2.17107,12.0099 C1.13257,13.2083 1.0526,13.5678 1.17245,15.7647 C1.37218,19.16 1.85149,19.6393 4.76747,19.4396 C7.96304,19.2 7.72343,19.7592 3.88871,21.5167 C3.56913,21.6765 3.24955,22.2757 3.16969,22.8349 C3.04983,23.6738 3.32952,24.0332 4.56775,24.6724 C5.40662,25.1118 5.84595,25.4713 5.52648,25.5112 C5.2069,25.5112 4.1683,25.9106 3.20967,26.35 L1.45205,27.1889 L1.5719,35.737 C1.69175,43.7259 1.73174,44.3251 2.53063,45.0841 C3.32952,45.883 4.6876,45.843 4.6876,45.0441 C4.6876,44.8444 5.36664,44.7246 6.20552,44.7246 C7.284,44.7645 7.40385,44.8444 6.68483,44.9642 C5.32676,45.2039 4.72758,45.8031 5.44651,46.2425 C5.80607,46.4821 5.48649,46.6818 4.36802,46.8816 C3.48926,47.0014 2.45066,47.3609 2.0912,47.6006 C1.21244,48.2796 1.69175,49.3981 3.00994,49.6378 C5.56636,50.157 30.332,50.6763 35.3651,50.3568 C38.2811,50.157 40.7576,49.8774 40.9174,49.7576 C41.5565,49.0785 40.478,48.3196 38.1612,47.9201 C33.208,47.0014 29.1337,46.6419 19.7867,46.4022 C13.7151,46.2425 10.3597,46.0028 10.3997,45.7631 C10.4396,45.5234 10.0401,45.2439 9.48096,45.0841 C8.68206,44.8843 8.92177,44.7645 10.6793,44.5248 C13.8749,44.0854 15.8721,43.5262 15.8721,43.0469 C15.8721,42.7673 13.9547,42.6874 10.2399,42.7673 L4.60773,42.8871 L4.84734,41.7687 C4.96719,41.1295 5.2069,37.8541 5.32676,34.4588 C5.48649,31.0635 5.76609,28.3073 5.96581,28.3073 C6.16553,28.3073 7.12426,27.7481 8.12288,27.109 C9.80053,25.9106 10.4396,24.7123 9.40108,24.7123 C9.12149,24.6724 8.44236,24.3129 7.92315,23.8735 L6.92454,23.0746 L8.12288,22.1159 C8.76193,21.5966 9.40108,21.1572 9.52094,21.1173 C9.64069,21.1173 10.0801,20.4782 10.5196,19.6793 C11.2785,18.2812 11.2785,18.2413 10.5196,17.682 C10.0003,17.3226 8.72205,17.1228 7.00441,17.1228 L4.28815,17.1228 L4.28815,15.525 L4.28815,13.9273 L12.5967,13.9273 C17.1503,13.9273 27.0566,13.6476 34.6461,13.3281 C42.2355,13.0085 58.8525,12.5691 71.5948,12.3295 C84.3371,12.0898 95.5616,11.7303 96.5602,11.5705 C98.3577,11.251 98.3577,11.251 97.2793,10.8116 C95.4818,10.0526 88.5313,9.5733 71.1554,8.93418 C53.6597,8.29506 46.5096,8.25512 32.4491,8.7744 Z" style="stroke:none;fill-rule:nonzero;fill:#000000;fill-opacity:1;"/>
        </g>
        <g id="Shape12">
            <desc shapeID="12" type="0" basicInfo-basicType="0" basicInfo-roundedRectRadius="12" basicInfo-polygonSides="6" basicInfo-starPoints="5" bounding="rect(-84.6433,-99.6682,169.287,199.336)" text="" font-familyName="" font-pixelSize="20" font-bold="0" font-underline="0" font-alignment="1" strokeStyle="0" markerStart="0" markerEnd="0" shadowEnabled="0" shadowOffsetX="0" shadowOffsetY="2" shadowBlur="4" shadowOpacity="160" blurEnabled="0" blurRadius="4" transform="matrix(0.399446,0,0,0.399446,65.0591,51.7713)" pers-center="0,0" pers-size="0,0" pers-start="0,0" pers-end="0,0" locked="0" mesh="" flag=""/>
            <path id="shapePath12" d="M96.7199,13.1284 L96.4803,14.3267 L91.8068,14.3267 C88.2117,14.3267 86.9334,14.4865 86.3343,14.9259 C85.6552,15.4851 86.0547,15.5251 90.888,15.4452 C94.7626,15.3653 96.1607,15.4452 96.1607,15.8047 C96.1607,16.0443 95.4816,16.3239 94.6828,16.4038 C92.7654,16.5636 92.5657,17.6821 94.4032,17.8418 C95.6414,17.9617 95.6814,18.0016 95.3218,19.5195 C94.0836,24.9919 92.1662,38.0938 92.2062,40.4505 L92.2861,43.2067 L90.2489,44.2452 C88.8508,44.9243 88.2117,45.4835 88.2916,45.883 C88.4514,46.4422 86.7337,46.5221 73.4322,46.4821 C60.2904,46.4821 58.0934,46.562 55.8566,47.2011 C51.7423,48.3196 51.3029,48.6392 50.504,51.0358 C50.1045,52.2342 49.5852,54.9504 49.3456,57.0675 L48.8663,60.9421 L47.0288,60.7424 C43.7534,60.3829 43.8332,60.5426 43.8332,54.3512 C43.8332,48.719 43.5935,47.6006 42.4752,48 C41.5963,48.3595 41.2368,49.3981 40.4379,54.3113 L39.7189,58.5853 L37.9614,58.7851 C35.7644,59.0248 34.5661,60.0633 33.0082,63.2589 C31.6501,66.055 30.8512,71.7271 31.4504,74.4034 C31.6501,75.2822 31.6901,76.161 31.6101,76.3208 C31.4904,76.5205 31.6501,77.0797 31.9697,77.559 C32.2893,78.0384 32.6487,78.9971 32.8085,79.6362 C33.2879,81.7532 35.7644,83.8304 37.8415,83.8304 C38.6404,83.8304 38.6804,83.9502 38.4007,87.1458 C38.201,89.9019 38.241,90.541 38.7603,90.9805 C39.639,91.6994 46.2699,91.8193 47.1087,91.1003 C47.4682,90.8207 48.0274,90.7008 48.347,90.8606 C49.1459,91.1402 50.2244,87.7449 50.2244,84.9089 C50.2244,82.672 50.7437,82.0728 54.0191,80.3951 C55.1376,79.8359 56.5755,78.7973 57.2547,78.1582 C58.2133,77.2794 58.7725,77.0398 59.3716,77.2395 C60.3703,77.559 61.4089,76.84 61.4089,75.8814 C61.4089,74.9626 59.7711,73.4447 58.7326,73.4447 C58.2932,73.4447 57.1348,74.0439 56.1761,74.7629 C55.2174,75.442 53.6596,76.4805 52.7409,76.9599 L51.0233,77.8786 L51.0233,74.2836 C51.0233,72.1266 51.183,70.6486 51.4227,70.6486 C51.6624,70.6486 51.8222,70.4489 51.8222,70.2492 C51.8222,70.0095 51.5026,69.8497 51.1031,69.8497 C50.7437,69.8497 49.7451,69.3704 48.9062,68.8112 C47.1087,67.6128 47.0288,66.1748 48.6666,64.9366 C50.0646,63.898 51.8621,64.2974 53.7395,66.0949 C54.5384,66.8539 55.2973,67.4531 55.4572,67.4531 C55.6169,67.4531 55.9365,67.9723 56.2161,68.6514 C56.6155,69.65 56.9351,69.8497 58.0934,69.8497 C60.8896,69.8497 62.1279,67.9324 59.9309,66.9338 C59.3318,66.6941 58.2133,65.7754 57.4544,64.9366 C56.6954,64.0977 55.2973,62.9393 54.3387,62.3801 C53.1802,61.701 52.661,61.1817 52.7808,60.7823 C52.9006,60.4627 53.0205,58.0661 53.0205,55.4697 L53.0205,50.7562 L55.537,50.3168 C58.5728,49.7975 64.4846,49.7576 73.1925,50.2769 C81.5409,50.7562 92.5257,50.157 93.2847,49.1984 C94.0436,48.1997 93.8839,47.7204 92.5257,46.9215 C91.1276,46.0827 91.3273,45.6832 93.6043,44.8843 C95.4018,44.2852 95.8411,43.1268 96.5601,37.3348 C96.7998,35.3376 97.359,31.1833 97.7984,28.1076 C98.837,20.8776 99.1565,14.4465 98.5973,13.0085 C98.0381,11.5705 96.9996,11.6105 96.7199,13.1284 M42.6749,62.8994 C44.2327,63.9779 44.4324,64.3773 44.7919,68.252 C44.9916,70.0495 44.8318,70.8883 43.993,72.8456 C43.4338,74.1637 42.8346,75.8814 42.6349,76.6403 C41.9558,79.756 41.157,80.1954 37.8815,79.1968 C34.8457,78.318 34.4862,77.3593 34.7658,71.0481 C34.9256,67.1335 35.1653,65.6156 35.8443,63.9379 L36.7631,61.8608 L38.96,61.8608 C40.7175,61.8608 41.5164,62.1005 42.6749,62.8994 M48.1073,76.9599 C48.1872,81.1141 48.0674,82.2326 47.5081,83.0315 C47.0688,83.7105 46.8691,84.9089 46.8291,86.8262 C46.8291,89.9419 46.9888,89.8221 43.5935,89.2628 L41.5963,88.9433 L41.876,86.6664 C42.2354,83.5907 42.3952,83.1513 45.1114,77.559 C46.4296,74.8428 47.3484,72.4861 47.2285,72.2464 C47.1087,72.0467 47.2285,71.847 47.5081,71.847 C47.9076,71.847 48.0274,73.0453 48.1073,76.9599 Z" style="stroke:none;fill-rule:nonzero;fill:#000000;fill-opacity:1;"/>
        </g>
        <g id="Shape13">
            <desc shapeID="13" type="0" basicInfo-basicType="0" basicInfo-roundedRectRadius="12" basicInfo-polygonSides="6" basicInfo-starPoints="5" bounding="rect(-4.00704,-15.868,8.01409,31.7359)" text="" font-familyName="" font-pixelSize="20" font-bold="0" font-underline="0" font-alignment="1" strokeStyle="0" markerStart="0" markerEnd="0" shadowEnabled="0" shadowOffsetX="0" shadowOffsetY="2" shadowBlur="4" shadowOpacity="160" blurEnabled="0" blurRadius="4" transform="matrix(0.399446,0,0,0.399446,88.3196,25.4936)" pers-center="0,0" pers-size="0,0" pers-start="0,0" pers-end="0,0" locked="0" mesh="" flag=""/>
            <path id="shapePath13" d="M87.9721,20.0788 C87.0933,21.3969 86.2944,30.9836 86.9735,31.6227 C87.8522,32.5015 88.8509,30.5442 89.2903,27.0291 C90.0093,21.4768 90.0892,19.9989 89.6497,19.5595 C89.0107,18.9203 88.6511,19.0002 87.9721,20.0788 Z" style="stroke:none;fill-rule:nonzero;fill:#000000;fill-opacity:1;"/>
        </g>
        <g id="Shape14">
            <desc shapeID="14" type="0" basicInfo-basicType="0" basicInfo-roundedRectRadius="12" basicInfo-polygonSides="6" basicInfo-starPoints="5" bounding="rect(-17.4124,-18.3689,34.8245,36.7378)" text="" font-familyName="" font-pixelSize="20" font-bold="0" font-underline="0" font-alignment="1" strokeStyle="0" markerStart="0" markerEnd="0" shadowEnabled="0" shadowOffsetX="0" shadowOffsetY="2" shadowBlur="4" shadowOpacity="160" blurEnabled="0" blurRadius="4" transform="matrix(0.399446,0,0,0.399446,18.8329,26.8932)" pers-center="0,0" pers-size="0,0" pers-start="0,0" pers-end="0,0" locked="0" mesh="" flag=""/>
            <path id="shapePath14" d="M17.3899,20.5181 C12.7164,21.4768 11.8776,21.9162 11.8776,23.3542 C11.8776,24.7123 12.9162,25.5112 14.6737,25.5112 L16.2315,25.5112 L15.9919,28.1875 C15.872,29.7054 15.5924,30.9437 15.4326,31.0236 C15.2329,31.1035 14.6737,31.5029 14.1944,31.9024 C12.8762,32.9809 13.6351,34.0594 15.7123,34.2191 C17.6695,34.3789 24.7397,32.8211 25.1391,32.182 C25.5386,31.5429 24.7397,30.704 23.6612,30.704 C22.8223,30.704 22.7825,30.5842 23.062,29.0663 C23.2218,28.1476 23.1819,26.7895 22.9822,26.0305 C22.5427,24.4327 22.5427,24.4727 24.3403,23.5939 C26.8968,22.2757 25.8582,19.4396 22.8623,19.5595 C22.2232,19.5994 19.7466,19.9989 17.3899,20.5181 M20.2659,27.7082 C20.2659,30.3046 20.1861,30.704 19.5869,30.704 C18.9477,30.704 18.8679,30.3845 18.9877,28.2275 C19.1076,25.3514 19.2673,24.7123 19.8665,24.7123 C20.1062,24.7123 20.2659,25.9107 20.2659,27.7082 Z" style="stroke:none;fill-rule:nonzero;fill:#000000;fill-opacity:1;"/>
        </g>
        <g id="Shape15">
            <desc shapeID="15" type="0" basicInfo-basicType="0" basicInfo-roundedRectRadius="12" basicInfo-polygonSides="6" basicInfo-starPoints="5" bounding="rect(-5.47073,-4.05924,10.9413,8.11844)" text="" font-familyName="" font-pixelSize="20" font-bold="0" font-underline="0" font-alignment="1" strokeStyle="0" markerStart="0" markerEnd="0" shadowEnabled="0" shadowOffsetX="0" shadowOffsetY="2" shadowBlur="4" shadowOpacity="160" blurEnabled="0" blurRadius="4" transform="matrix(0.399446,0,0,0.399446,52.7802,21.3961)" pers-center="0,0" pers-size="0,0" pers-start="0,0" pers-end="0,0" locked="0" mesh="" flag=""/>
            <path id="shapePath15" d="M51.2631,19.9988 C50.1047,20.6379 50.5041,21.9162 52.062,22.5553 C53.7796,23.2743 54.7782,23.1545 54.938,22.1958 C55.2576,20.6779 52.7011,19.1999 51.2631,19.9988 Z" style="stroke:none;fill-rule:nonzero;fill:#000000;fill-opacity:1;"/>
        </g>
        <g id="Shape16">
            <desc shapeID="16" type="0" basicInfo-basicType="0" basicInfo-roundedRectRadius="12" basicInfo-polygonSides="6" basicInfo-starPoints="5" bounding="rect(-10.3697,-14.7051,20.7393,29.4102)" text="" font-familyName="" font-pixelSize="20" font-bold="0" font-underline="0" font-alignment="1" strokeStyle="0" markerStart="0" markerEnd="0" shadowEnabled="0" shadowOffsetX="0" shadowOffsetY="2" shadowBlur="4" shadowOpacity="160" blurEnabled="0" blurRadius="4" transform="matrix(0.399446,0,0,0.399446,71.5863,25.7929)" pers-center="0,0" pers-size="0,0" pers-start="0,0" pers-end="0,0" locked="0" mesh="" flag=""/>
            <path id="shapePath16" d="M71.5547,20.4782 C71.435,20.7977 71.7146,21.7564 72.1539,22.6352 C72.9129,24.1131 72.9129,24.233 72.2738,24.4327 C71.9143,24.5525 71.2751,24.7522 70.9157,24.912 C70.2765,25.1517 70.1967,24.952 70.1967,23.3941 C70.1967,21.6366 69.6375,20.8776 68.7187,21.4368 C67.4804,22.2357 66.9611,28.6668 67.9997,30.1847 C68.9583,31.5428 71.0355,32.0621 72.7531,31.3431 C75.7889,30.0649 76.5878,26.5497 74.7503,22.3556 C73.8715,20.3583 73.5121,19.919 72.7132,19.919 C72.1939,19.919 71.6746,20.1586 71.5547,20.4782 M72.8729,28.1875 C72.1939,28.9065 70.5961,28.547 70.5961,27.6682 C70.5961,27.3486 70.5961,26.9892 70.5961,26.7894 C70.5961,26.6296 71.1953,26.3101 71.9143,26.0704 C73.1126,25.671 73.1925,25.7109 73.3124,26.6296 C73.3922,27.1889 73.1925,27.8679 72.8729,28.1875 Z" style="stroke:none;fill-rule:nonzero;fill:#000000;fill-opacity:1;"/>
        </g>
        <g id="Shape17">
            <desc shapeID="17" type="0" basicInfo-basicType="0" basicInfo-roundedRectRadius="12" basicInfo-polygonSides="6" basicInfo-starPoints="5" bounding="rect(-7.87147,-11.6362,15.7429,23.2725)" text="" font-familyName="" font-pixelSize="20" font-bold="0" font-underline="0" font-alignment="1" strokeStyle="0" markerStart="0" markerEnd="0" shadowEnabled="0" shadowOffsetX="0" shadowOffsetY="2" shadowBlur="4" shadowOpacity="160" blurEnabled="0" blurRadius="4" transform="matrix(0.399446,0,0,0.399446,79.3937,25.0167)" pers-center="0,0" pers-size="0,0" pers-start="0,0" pers-end="0,0" locked="0" mesh="" flag=""/>
            <path id="shapePath17" d="M76.9474,21.1572 C76.2683,22.4355 75.9887,27.9878 76.5479,29.0263 C77.3468,30.5442 79.384,29.1461 79.384,27.0291 C79.384,26.1104 79.5438,25.9106 80.3028,25.9106 C80.8221,25.9106 81.581,25.631 82.0204,25.3115 C82.6595,24.7922 82.6994,24.6724 82.1801,24.3129 C81.8606,24.1131 81.1017,23.9134 80.5025,23.9134 C79.5837,23.9134 79.384,23.7536 79.384,22.8749 C79.384,20.598 77.8661,19.5195 76.9474,21.1572 Z" style="stroke:none;fill-rule:nonzero;fill:#000000;fill-opacity:1;"/>
        </g>
        <g id="Shape18">
            <desc shapeID="18" type="0" basicInfo-basicType="0" basicInfo-roundedRectRadius="12" basicInfo-polygonSides="6" basicInfo-starPoints="5" bounding="rect(-10.9001,-12.4813,21.8,24.9626)" text="" font-familyName="" font-pixelSize="20" font-bold="0" font-underline="0" font-alignment="1" strokeStyle="0" markerStart="0" markerEnd="0" shadowEnabled="0" shadowOffsetX="0" shadowOffsetY="2" shadowBlur="4" shadowOpacity="160" blurEnabled="0" blurRadius="4" transform="matrix(0.399446,0,0,0.399446,28.2696,26.5023)" pers-center="0,0" pers-size="0,0" pers-start="0,0" pers-end="0,0" locked="0" mesh="" flag=""/>
            <path id="shapePath18" d="M30.5316,22.2357 C30.1322,22.6352 29.8526,23.1944 29.8526,23.4341 C29.8526,23.7137 29.2135,23.9134 28.3747,23.9534 C26.2576,23.9534 24.1006,24.7922 23.9408,25.5911 C23.8209,26.1903 24.1006,26.3101 25.4187,26.3101 C26.2976,26.3101 27.4959,26.1104 28.0951,25.9107 C29.3733,25.3914 29.6529,25.5911 29.1336,26.5897 C28.894,26.9892 27.9352,27.5084 26.9766,27.7082 C25.6984,28.0277 25.219,28.3473 25.1391,29.0263 C24.9794,30.1048 26.4973,30.5842 28.2548,29.9451 C29.3733,29.5856 29.533,29.6255 29.8526,30.5043 C30.4918,32.142 31.3705,31.7026 32.0496,29.4258 C33.0082,26.0704 32.7286,21.5168 31.4904,21.5168 C31.3305,21.5168 30.8912,21.8363 30.5316,22.2357 Z" style="stroke:none;fill-rule:nonzero;fill:#000000;fill-opacity:1;"/>
        </g>
        <g id="Shape19">
            <desc shapeID="19" type="0" basicInfo-basicType="0" basicInfo-roundedRectRadius="12" basicInfo-polygonSides="6" basicInfo-starPoints="5" bounding="rect(-7.15383,-8.34918,14.3075,16.6984)" text="" font-familyName="" font-pixelSize="20" font-bold="0" font-underline="0" font-alignment="1" strokeStyle="0" markerStart="0" markerEnd="0" shadowEnabled="0" shadowOffsetX="0" shadowOffsetY="2" shadowBlur="4" shadowOpacity="160" blurEnabled="0" blurRadius="4" transform="matrix(0.399446,0,0,0.399446,44.8456,26.0501)" pers-center="0,0" pers-size="0,0" pers-start="0,0" pers-end="0,0" locked="0" mesh="" flag=""/>
            <path id="shapePath19" d="M42.675,23.4341 C42.0358,24.5925 41.7961,26.8294 42.1557,28.0677 C42.5551,29.4657 43.2341,29.8252 43.5137,28.7867 C43.6736,28.2274 44.2328,27.9478 45.4311,27.7881 C47.5482,27.5084 48.1474,26.9892 47.3884,26.0704 C47.0289,25.631 46.4297,25.4713 45.4311,25.631 L44.033,25.7908 L44.1529,24.2729 C44.2728,23.0746 44.1928,22.7151 43.6736,22.7151 C43.354,22.7151 42.8747,23.0346 42.675,23.4341 Z" style="stroke:none;fill-rule:nonzero;fill:#000000;fill-opacity:1;"/>
        </g>
        <g id="Shape20">
            <desc shapeID="20" type="0" basicInfo-basicType="0" basicInfo-roundedRectRadius="12" basicInfo-polygonSides="6" basicInfo-starPoints="5" bounding="rect(-6.29303,-9.83697,12.5862,19.6739)" text="" font-familyName="" font-pixelSize="20" font-bold="0" font-underline="0" font-alignment="1" strokeStyle="0" markerStart="0" markerEnd="0" shadowEnabled="0" shadowOffsetX="0" shadowOffsetY="2" shadowBlur="4" shadowOpacity="160" blurEnabled="0" blurRadius="4" transform="matrix(0.399446,0,0,0.399446,59.5494,27.01)" pers-center="0,0" pers-size="0,0" pers-start="0,0" pers-end="0,0" locked="0" mesh="" flag=""/>
            <path id="shapePath20" d="M57.6542,23.474 C57.4944,23.6737 57.2947,25.2715 57.1349,26.9891 C56.9352,29.5855 57.0151,30.2246 57.5743,30.664 C58.493,31.423 59.4118,30.5442 59.4118,28.8665 C59.4118,27.6682 59.5316,27.5483 60.73,27.4285 C62.4875,27.2687 62.5275,26.0704 60.73,26.1503 C59.5316,26.2302 59.4518,26.1103 59.3319,24.7522 C59.212,23.3542 58.2134,22.5553 57.6542,23.474 Z" style="stroke:none;fill-rule:nonzero;fill:#000000;fill-opacity:1;"/>
        </g>
        <g id="Shape21">
            <desc shapeID="21" type="0" basicInfo-basicType="0" basicInfo-roundedRectRadius="12" basicInfo-polygonSides="6" basicInfo-starPoints="5" bounding="rect(-8.81899,-9.19761,17.6378,18.3952)" text="" font-familyName="" font-pixelSize="20" font-bold="0" font-underline="0" font-alignment="1" strokeStyle="0" markerStart="0" markerEnd="0" shadowEnabled="0" shadowOffsetX="0" shadowOffsetY="2" shadowBlur="4" shadowOpacity="160" blurEnabled="0" blurRadius="4" transform="matrix(0.399446,0,0,0.399446,37.5145,27.2717)" pers-center="0,0" pers-size="0,0" pers-start="0,0" pers-end="0,0" locked="0" mesh="" flag=""/>
            <path id="shapePath21" d="M35.5648,23.7936 C35.2852,23.8735 34.7659,24.952 34.4063,26.1503 C33.8471,28.1875 33.8471,28.4272 34.4463,29.3459 C35.2452,30.5442 36.7631,31.1833 38.0813,30.8638 C39.3195,30.5442 41.0372,28.5071 41.0372,27.3487 C41.0372,25.1517 37.6419,22.9148 35.5648,23.7936 M38.5206,26.7495 C39.1198,27.3487 38.7204,28.3073 37.8816,28.3073 C36.9229,28.3073 36.6833,27.9878 36.9229,27.0691 C37.1626,26.2302 37.8416,26.0704 38.5206,26.7495 Z" style="stroke:none;fill-rule:nonzero;fill:#000000;fill-opacity:1;"/>
        </g>
        <g id="Shape22">
            <desc shapeID="22" type="0" basicInfo-basicType="0" basicInfo-roundedRectRadius="12" basicInfo-polygonSides="6" basicInfo-starPoints="5" bounding="rect(-7.87648,-3.95195,15.7532,7.90385)" text="" font-familyName="" font-pixelSize="20" font-bold="0" font-underline="0" font-alignment="1" strokeStyle="0" markerStart="0" markerEnd="0" shadowEnabled="0" shadowOffsetX="0" shadowOffsetY="2" shadowBlur="4" shadowOpacity="160" blurEnabled="0" blurRadius="4" transform="matrix(0.399446,0,0,0.399446,52.6703,25.131)" pers-center="0,0" pers-size="0,0" pers-start="0,0" pers-end="0,0" locked="0" mesh="" flag=""/>
            <path id="shapePath22" d="M50.7037,23.9134 C48.5866,24.7922 49.5054,26.7095 51.9819,26.7095 C53.3001,26.7095 55.8166,25.3914 55.8166,24.7123 C55.8166,23.6738 52.6211,23.1545 50.7037,23.9134 Z" style="stroke:none;fill-rule:nonzero;fill:#000000;fill-opacity:1;"/>
        </g>
        <g id="Shape23">
            <desc shapeID="23" type="0" basicInfo-basicType="0" basicInfo-roundedRectRadius="12" basicInfo-polygonSides="6" basicInfo-starPoints="5" bounding="rect(-8.1972,-8.53174,16.3942,17.0634)" text="" font-familyName="" font-pixelSize="20" font-bold="0" font-underline="0" font-alignment="1" strokeStyle="0" markerStart="0" markerEnd="0" shadowEnabled="0" shadowOffsetX="0" shadowOffsetY="2" shadowBlur="4" shadowOpacity="160" blurEnabled="0" blurRadius="4" transform="matrix(0.399446,0,0,0.399446,51.9017,31.2905)" pers-center="0,0" pers-size="0,0" pers-start="0,0" pers-end="0,0" locked="0" mesh="" flag=""/>
            <path id="shapePath23" d="M49.3457,28.3473 C48.6267,28.7467 48.387,30.3046 48.9063,30.8638 C49.0661,31.0236 49.2259,31.7026 49.2659,32.3417 C49.3457,33.8996 50.0647,34.6985 51.3828,34.6985 C53.6598,34.6985 55.8567,31.7026 54.9779,29.7853 C54.2189,28.1076 51.1032,27.3087 49.3457,28.3473 M52.6212,31.3032 C52.6212,31.3431 52.3416,31.6227 52.022,31.9024 C51.5027,32.3018 51.4228,32.2619 51.4228,31.5828 C51.4228,30.9836 51.6225,30.7839 52.022,30.9437 C52.3416,31.1035 52.6212,31.2233 52.6212,31.3032 Z" style="stroke:none;fill-rule:nonzero;fill:#000000;fill-opacity:1;"/>
        </g>
        <g id="Shape24">
            <desc shapeID="24" type="0" basicInfo-basicType="0" basicInfo-roundedRectRadius="12" basicInfo-polygonSides="6" basicInfo-starPoints="5" bounding="rect(-6.99563,-6.69884,13.9915,13.3977)" text="" font-familyName="" font-pixelSize="20" font-bold="0" font-underline="0" font-alignment="1" strokeStyle="0" markerStart="0" markerEnd="0" shadowEnabled="0" shadowOffsetX="0" shadowOffsetY="2" shadowBlur="4" shadowOpacity="160" blurEnabled="0" blurRadius="4" transform="matrix(0.399446,0,0,0.399446,40.6294,34.4082)" pers-center="0,0" pers-size="0,0" pers-start="0,0" pers-end="0,0" locked="0" mesh="" flag=""/>
            <path id="shapePath24" d="M38.2811,32.0222 C37.602,32.7013 37.7218,35.737 38.4808,36.4561 C39.3596,37.3748 41.6764,37.255 42.635,36.2963 C44.113,34.8183 43.3939,33.6599 41.4767,34.3789 C40.3981,34.7784 39.8389,34.2591 39.8389,32.861 C39.8389,31.8624 38.9202,31.3831 38.2811,32.0222 Z" style="stroke:none;fill-rule:nonzero;fill:#000000;fill-opacity:1;"/>
        </g>
        <g id="Shape25">
            <desc shapeID="25" type="0" basicInfo-basicType="0" basicInfo-roundedRectRadius="12" basicInfo-polygonSides="6" basicInfo-starPoints="5" bounding="rect(-10.25,-8.83981,20.5,17.6796)" text="" font-familyName="" font-pixelSize="20" font-bold="0" font-underline="0" font-alignment="1" strokeStyle="0" markerStart="0" markerEnd="0" shadowEnabled="0" shadowOffsetX="0" shadowOffsetY="2" shadowBlur="4" shadowOpacity="160" blurEnabled="0" blurRadius="4" transform="matrix(0.399446,0,0,0.399446,74.6905,35.47)" pers-center="0,0" pers-size="0,0" pers-start="0,0" pers-end="0,0" locked="0" mesh="" flag=""/>
            <path id="shapePath25" d="M71.5948,32.861 C70.7959,33.6599 70.5962,34.2591 70.5962,35.8169 C70.5962,37.5345 70.7559,37.894 71.6348,38.4932 C72.5934,39.1323 72.9929,39.1323 75.6692,38.6929 C77.2669,38.4133 78.665,38.0538 78.7449,37.9339 C78.8248,37.8141 78.7849,36.4161 78.6251,34.8982 L78.3854,32.102 L75.5094,31.9822 C72.8331,31.8624 72.5136,31.9422 71.5948,32.861 M76.9075,35.1778 L76.7876,36.8954 L74.9102,37.0152 L72.9929,37.1351 L72.9929,35.5373 C72.9929,34.0993 73.1127,33.9395 74.1114,33.7797 C77.0273,33.3403 77.0273,33.3403 76.9075,35.1778 Z" style="stroke:none;fill-rule:nonzero;fill:#000000;fill-opacity:1;"/>
        </g>
        <g id="Shape26">
            <desc shapeID="26" type="0" basicInfo-basicType="0" basicInfo-roundedRectRadius="12" basicInfo-polygonSides="6" basicInfo-starPoints="5" bounding="rect(-10.3824,-7.82343,20.7648,15.6469)" text="" font-familyName="" font-pixelSize="20" font-bold="0" font-underline="0" font-alignment="1" strokeStyle="0" markerStart="0" markerEnd="0" shadowEnabled="0" shadowOffsetX="0" shadowOffsetY="2" shadowBlur="4" shadowOpacity="160" blurEnabled="0" blurRadius="4" transform="matrix(0.399446,0,0,0.399446,58.4601,35.4268)" pers-center="0,0" pers-size="0,0" pers-start="0,0" pers-end="0,0" locked="0" mesh="" flag=""/>
            <path id="shapePath26" d="M58.8126,33.7398 C56.8153,35.1378 56.8153,35.1378 56.6156,34.2191 C56.296,32.9808 55.3773,33.0607 54.6584,34.3789 C53.46,36.496 55.577,39.0924 57.9737,38.4533 C59.4916,38.0938 62.6073,35.1778 62.6073,34.1392 C62.6073,33.2205 61.9283,32.3018 61.2092,32.3018 C61.0095,32.3018 59.891,32.9409 58.8126,33.7398 Z" style="stroke:none;fill-rule:nonzero;fill:#000000;fill-opacity:1;"/>
        </g>
        <g id="Shape27">
            <desc shapeID="27" type="0" basicInfo-basicType="0" basicInfo-roundedRectRadius="12" basicInfo-polygonSides="6" basicInfo-starPoints="5" bounding="rect(-8.41124,-8.56366,16.8226,17.1273)" text="" font-familyName="" font-pixelSize="20" font-bold="0" font-underline="0" font-alignment="1" strokeStyle="0" markerStart="0" markerEnd="0" shadowEnabled="0" shadowOffsetX="0" shadowOffsetY="2" shadowBlur="4" shadowOpacity="160" blurEnabled="0" blurRadius="4" transform="matrix(0.399446,0,0,0.399446,28.0905,36.0711)" pers-center="0,0" pers-size="0,0" pers-start="0,0" pers-end="0,0" locked="0" mesh="" flag=""/>
            <path id="shapePath27" d="M25.978,34.0993 C24.7797,35.2976 24.58,35.6971 24.8196,36.7756 C25.219,38.7328 26.1378,39.4918 28.0951,39.4918 C30.2121,39.4918 31.4504,38.1736 31.4504,35.9367 C31.4504,32.5015 28.5345,31.5428 25.978,34.0993 M29.4532,36.0566 C29.4532,37.1351 28.0551,37.8541 27.3761,37.175 C26.7769,36.5758 27.7356,35.0979 28.6543,35.0979 C29.2135,35.0979 29.4532,35.3775 29.4532,36.0566 Z" style="stroke:none;fill-rule:nonzero;fill:#000000;fill-opacity:1;"/>
        </g>
        <g id="Shape28">
            <desc shapeID="28" type="0" basicInfo-basicType="0" basicInfo-roundedRectRadius="12" basicInfo-polygonSides="6" basicInfo-starPoints="5" bounding="rect(-4.0132,-3.52644,8.02617,7.05287)" text="" font-familyName="" font-pixelSize="20" font-bold="0" font-underline="0" font-alignment="1" strokeStyle="0" markerStart="0" markerEnd="0" shadowEnabled="0" shadowOffsetX="0" shadowOffsetY="2" shadowBlur="4" shadowOpacity="160" blurEnabled="0" blurRadius="4" transform="matrix(0.399446,0,0,0.399446,85.5073,37.2843)" pers-center="0,0" pers-size="0,0" pers-start="0,0" pers-end="0,0" locked="0" mesh="" flag=""/>
            <path id="shapePath28" d="M83.9775,36.6957 C83.658,37.7742 84.417,38.6929 85.6153,38.6929 C86.7737,38.6929 87.4527,37.5745 86.9334,36.6158 C86.3742,35.5772 84.2971,35.6571 83.9775,36.6957 Z" style="stroke:none;fill-rule:nonzero;fill:#000000;fill-opacity:1;"/>
        </g>
    </g>
</svg>
