<?xml version="1.0"?>
<svg version="1.1" xmlns="http://www.w3.org/2000/svg" xmlns:xlink="http://www.w3.org/1999/xlink" width="400" height="400">
    <desc iVinci="yes" version="4.6" gridStep="20" showGrid="no" snapToGrid="no" codePlatform="0"/>
    <g id="Layer1" name="Layer 1" opacity="1">
        <g id="Shape1">
            <desc shapeID="1" type="0" basicInfo-basicType="0" basicInfo-roundedRectRadius="12" basicInfo-polygonSides="6" basicInfo-starPoints="5" bounding="rect(-10.4607,-17.4071,20.9214,34.8141)" text="" font-familyName="" font-pixelSize="20" font-bold="0" font-underline="0" font-alignment="1" strokeStyle="0" markerStart="0" markerEnd="0" shadowEnabled="0" shadowOffsetX="0" shadowOffsetY="2" shadowBlur="4" shadowOpacity="160" blurEnabled="0" blurRadius="4" transform="matrix(0.476802,0,0,0.476802,314.461,21.1286)" pers-center="0,0" pers-size="0,0" pers-start="0,0" pers-end="0,0" locked="0" mesh="" flag=""/>
            <path id="shapePath1" d="M310.147,13.5032 C309.241,14.5998 309.241,23.7067 310.195,26.5675 C310.91,28.8562 311.387,29.4284 312.627,29.4284 C313.533,29.4284 314.295,27.998 313.58,27.5688 C313.342,27.3781 313.008,26.6629 312.865,25.9477 C312.722,25.2325 312.484,24.0882 312.341,23.4207 C312.198,22.7531 312.245,22.324 312.484,22.4671 C312.722,22.6101 314.152,22.8485 315.726,22.9915 C317.871,23.2299 318.73,23.1346 319.111,22.6578 C320.017,21.6088 319.207,21.0367 315.392,20.1307 L311.768,19.3201 L312.102,17.556 C312.77,13.8369 311.721,11.6436 310.147,13.5032 Z" style="stroke:none;fill-rule:nonzero;fill:#000000;fill-opacity:1;"/>
        </g>
        <g id="Shape2">
            <desc shapeID="2" type="0" basicInfo-basicType="0" basicInfo-roundedRectRadius="12" basicInfo-polygonSides="6" basicInfo-starPoints="5" bounding="rect(-22.0468,-18.2693,44.0937,36.5385)" text="" font-familyName="" font-pixelSize="20" font-bold="0" font-underline="0" font-alignment="1" strokeStyle="0" markerStart="0" markerEnd="0" shadowEnabled="0" shadowOffsetX="0" shadowOffsetY="2" shadowBlur="4" shadowOpacity="160" blurEnabled="0" blurRadius="4" transform="matrix(0.476802,0,0,0.476802,255.032,24.3192)" pers-center="0,0" pers-size="0,0" pers-start="0,0" pers-end="0,0" locked="0" mesh="" flag=""/>
            <path id="shapePath2" d="M244.635,16.0302 C244.492,16.3163 244.492,17.7467 244.587,19.2725 C244.73,20.7983 244.873,23.8021 244.921,25.9954 C244.968,28.141 245.207,30.0482 245.493,30.2389 C245.731,30.382 247.4,30.5727 249.212,30.668 C252.454,30.7634 252.502,30.7634 253.456,29.2376 C253.98,28.3317 254.409,26.9967 254.409,26.1861 C254.409,24.3743 255.22,24.0882 259.368,24.2789 L262.419,24.4219 L262.705,27.7596 C263.039,31.1925 264.136,33.7196 264.994,32.8613 C265.233,32.6229 265.471,28.8562 265.519,24.5173 C265.614,16.5547 265.519,16.0779 263.945,16.0779 C263.278,16.0779 262.658,18.0805 262.562,20.4645 L262.515,21.7995 L258.51,21.7995 L254.457,21.7995 L254.314,19.5109 L254.171,17.2699 L250.69,17.2699 C247.877,17.2699 247.114,17.1269 246.733,16.4117 C246.208,15.5534 245.111,15.315 244.635,16.0302 M251.739,20.9413 C251.691,21.7995 251.596,23.7544 251.501,25.2325 L251.31,27.998 L249.736,27.998 C247.925,27.998 247.829,27.8549 247.543,23.5637 C247.305,19.9877 247.543,19.7493 250.547,19.5109 C251.739,19.4155 251.834,19.5585 251.739,20.9413 Z" style="stroke:none;fill-rule:nonzero;fill:#000000;fill-opacity:1;"/>
        </g>
        <g id="Shape3">
            <desc shapeID="3" type="0" basicInfo-basicType="0" basicInfo-roundedRectRadius="12" basicInfo-polygonSides="6" basicInfo-starPoints="5" bounding="rect(-19.8505,-14.4302,39.701,28.8604)" text="" font-familyName="" font-pixelSize="20" font-bold="0" font-underline="0" font-alignment="1" strokeStyle="0" markerStart="0" markerEnd="0" shadowEnabled="0" shadowOffsetX="0" shadowOffsetY="2" shadowBlur="4" shadowOpacity="160" blurEnabled="0" blurRadius="4" transform="matrix(0.476802,0,0,0.476802,282.028,23.4396)" pers-center="0,0" pers-size="0,0" pers-start="0,0" pers-end="0,0" locked="0" mesh="" flag=""/>
            <path id="shapePath3" d="M272.766,17.0315 C272.623,17.2699 272.528,19.6062 272.575,22.1333 C272.575,24.708 272.623,27.5212 272.575,28.3317 C272.528,29.5714 272.766,29.9528 273.672,30.1912 C275.293,30.5727 279.298,30.0482 279.68,29.3807 C279.87,29.0946 280.299,28.9992 280.586,29.1423 C281.11,29.476 281.348,28.3794 281.158,25.9477 C281.062,24.8511 281.205,24.6603 282.397,24.6127 C283.113,24.6127 284.638,24.565 285.735,24.4696 L287.785,24.3743 L288.071,26.6152 C288.357,28.8085 289.216,29.7621 290.217,29.1423 C290.455,28.9992 290.646,27.2828 290.646,25.3279 C290.646,23.373 290.884,20.7983 291.171,19.6062 C291.6,17.9851 291.6,17.3176 291.171,16.8885 C290.455,16.1733 289.12,16.9838 288.93,18.2712 C288.834,18.7957 288.5,19.8446 288.167,20.6075 C287.595,21.9903 287.404,22.0379 284.591,22.0379 L281.587,22.0379 L281.587,20.5122 C281.587,18.7003 280.49,17.9374 277.725,17.7944 C276.676,17.7467 275.627,17.4606 275.293,17.1269 C274.578,16.4117 273.147,16.364 272.766,17.0315 M278.535,22.5624 C278.392,23.8021 278.249,25.4232 278.249,26.1384 C278.249,27.2828 278.058,27.5212 277.057,27.5212 C275.627,27.5212 275.531,27.2351 275.245,23.6114 C275.007,20.7029 275.007,20.7029 277.725,20.4645 C278.821,20.3691 278.821,20.4645 278.535,22.5624 Z" style="stroke:none;fill-rule:nonzero;fill:#000000;fill-opacity:1;"/>
        </g>
        <g id="Shape4">
            <desc shapeID="4" type="0" basicInfo-basicType="0" basicInfo-roundedRectRadius="12" basicInfo-polygonSides="6" basicInfo-starPoints="5" bounding="rect(-16.1631,-12.3662,32.3262,24.7324)" text="" font-familyName="" font-pixelSize="20" font-bold="0" font-underline="0" font-alignment="1" strokeStyle="0" markerStart="0" markerEnd="0" shadowEnabled="0" shadowOffsetX="0" shadowOffsetY="2" shadowBlur="4" shadowOpacity="160" blurEnabled="0" blurRadius="4" transform="matrix(0.476802,0,0,0.476802,183.6,24.4568)" pers-center="0,0" pers-size="0,0" pers-start="0,0" pers-end="0,0" locked="0" mesh="" flag=""/>
            <path id="shapePath4" d="M185.082,22.3717 C183.032,24.4219 181.22,26.0907 181.029,26.0907 C180.886,26.0907 180.505,25.2802 180.171,24.2789 C178.931,20.3691 178.121,18.9387 177.167,18.9387 C175.784,18.9387 175.498,20.1307 176.452,22.0379 C176.881,22.9915 177.31,24.0882 177.406,24.565 C179.17,32.0031 179.027,31.9554 184.653,26.2338 C187.228,23.6114 189.564,21.5611 189.85,21.6565 C190.708,21.9426 191.567,20.5122 191.233,19.4155 C190.708,17.699 188.992,18.5096 185.082,22.3717 Z" style="stroke:none;fill-rule:nonzero;fill:#000000;fill-opacity:1;"/>
        </g>
        <g id="Shape5">
            <desc shapeID="5" type="0" basicInfo-basicType="0" basicInfo-roundedRectRadius="12" basicInfo-polygonSides="6" basicInfo-starPoints="5" bounding="rect(-8.16001,-9.9744,16.32,19.9488)" text="" font-familyName="" font-pixelSize="20" font-bold="0" font-underline="0" font-alignment="1" strokeStyle="0" markerStart="0" markerEnd="0" shadowEnabled="0" shadowOffsetX="0" shadowOffsetY="2" shadowBlur="4" shadowOpacity="160" blurEnabled="0" blurRadius="4" transform="matrix(0.476802,0,0,0.476802,300.73,23.4999)" pers-center="0,0" pers-size="0,0" pers-start="0,0" pers-end="0,0" locked="0" mesh="" flag=""/>
            <path id="shapePath5" d="M298.18,19.0817 C297.083,19.5109 296.892,19.8923 296.892,21.275 C296.892,22.2287 296.892,23.6591 296.845,24.5173 C296.749,26.4722 298.036,28.4748 299.229,28.2364 C301.66,27.7596 303.52,25.7093 304.378,22.6578 C304.759,21.2274 304.712,20.7029 304.092,19.9877 C303.091,18.8433 299.896,18.3665 298.18,19.0817 M301.946,21.3704 C302.375,21.7995 302.328,22.324 301.756,23.4207 C300.325,26.2338 298.752,26.4245 298.752,23.8021 C298.752,22.3717 298.99,21.8472 299.848,21.4181 C301.231,20.7505 301.326,20.7505 301.946,21.3704 Z" style="stroke:none;fill-rule:nonzero;fill:#000000;fill-opacity:1;"/>
        </g>
        <g id="Shape6">
            <desc shapeID="6" type="0" basicInfo-basicType="0" basicInfo-roundedRectRadius="12" basicInfo-polygonSides="6" basicInfo-starPoints="5" bounding="rect(-92.36,-136.68,184.72,273.36)" text="" font-familyName="" font-pixelSize="20" font-bold="0" font-underline="0" font-alignment="1" strokeStyle="0" markerStart="0" markerEnd="0" shadowEnabled="0" shadowOffsetX="0" shadowOffsetY="2" shadowBlur="4" shadowOpacity="160" blurEnabled="0" blurRadius="4" transform="matrix(0.476802,0,0,0.476802,49.4227,94.1082)" pers-center="0,0" pers-size="0,0" pers-start="0,0" pers-end="0,0" locked="0" mesh="" flag=""/>
            <path id="shapePath6" d="M84.7629,29.5237 C84.4768,29.8098 84.1907,30.2866 84.1907,30.525 C84.1907,30.7634 83.1894,32.1461 81.902,33.6242 C80.6623,35.1023 78.9935,37.2002 78.183,38.2015 C76.8003,40.0611 76.6572,40.1087 71.5554,40.967 C65.6908,41.9683 57.0606,44.4953 52.531,46.5933 C50.8622,47.4038 49.1934,48.0237 48.812,48.0237 C48.4305,48.0237 47.9537,48.2144 47.7153,48.4051 C47.4292,48.6435 45.8558,49.4064 44.1393,50.1216 C40.8017,51.552 32.8391,56.6538 30.5504,58.9424 C29.7876,59.7053 28.2618,61.2788 27.1652,62.4231 L25.2579,64.4733 L21.2051,64.3303 C19.0118,64.2826 15.8172,63.8058 14.1008,63.329 C10.4771,62.2324 6.90105,61.7556 6.18585,62.2324 C5.37528,62.7569 5.08918,64.6164 5.75672,64.9025 C6.09048,64.9978 6.47192,65.8561 6.66265,66.7143 C7.04409,68.7646 9.95257,74.3908 11.8598,76.7748 C12.6704,77.8238 13.8147,79.3972 14.4822,80.3508 L15.6265,82.0674 L14.3868,84.6898 C13.1472,87.4552 12.4319,89.7915 11.9075,93.0815 C11.7644,94.1304 11.4307,95.9423 11.2399,97.1343 C10.8585,99.0892 10.9539,107.338 11.383,109.054 C11.4783,109.436 11.8121,111.105 12.1459,112.726 C12.6227,114.824 13.2425,116.206 14.5776,117.78 C15.5312,118.972 17.0092,121.022 17.8675,122.309 C18.7257,123.645 20.1562,125.266 21.0621,125.981 C22.7786,127.316 31.7901,131.941 32.6007,131.941 C32.8868,131.941 33.1252,133.514 33.1252,135.708 C33.1252,137.758 33.3636,139.999 33.6497,140.714 C33.8881,141.429 34.1265,142.907 34.1265,144.004 C34.1265,146.34 36.129,154.589 37.2733,157.021 C38.3223,159.262 39.4666,159.834 40.8017,158.737 C41.946,157.784 41.7076,156.449 40.2772,156.019 C39.8004,155.829 39.2282,155.161 39.0852,154.446 C38.9421,153.731 38.6084,152.491 38.3223,151.728 C37.3687,148.915 35.9383,140.714 35.7476,136.804 L35.5092,132.799 L37.0826,133.228 C37.9409,133.419 43.138,133.562 48.6213,133.514 C58.5864,133.419 60.9227,133.085 61.4949,131.655 C61.8764,130.654 61.2565,129.461 60.5413,129.748 C60.1598,129.891 55.6302,130.129 50.4808,130.32 C40.5633,130.654 35.7953,130.129 32.4576,128.413 C31.6948,127.983 30.7888,127.65 30.5028,127.65 C29.6445,127.65 24.1136,124.646 23.017,123.597 C19.6317,120.355 15.7219,114.824 14.959,112.201 C14.0054,108.864 13.9577,108.482 13.9577,103.094 C13.9577,98.1833 15.0544,90.4114 16.008,88.6472 C18.9164,83.021 19.6317,80.4462 18.2012,80.4462 C17.8198,80.4462 17.343,80.6369 17.2,80.923 C17.0569,81.1614 16.6278,81.3998 16.3417,81.3998 C16.008,81.3998 16.151,81.1614 16.6278,80.8754 C17.8198,80.1601 17.6291,79.3972 15.7696,77.5854 C14.8636,76.6795 14.1008,75.8212 14.1008,75.6305 C14.1008,75.4398 13.2902,74.0094 12.2889,72.4836 C9.1897,67.7633 8.04536,63.5674 10.191,64.6641 C12.3366,65.8084 15.6742,66.5713 19.3456,66.762 C21.5866,66.905 23.7798,67.1434 24.2566,67.3342 C24.8765,67.6202 25.5917,67.1434 27.1175,65.4269 C29.0247,63.2813 35.2231,57.9888 37.2257,56.7491 C39.9911,55.0327 44.9975,52.3625 45.9035,52.1241 C46.714,51.8381 47.1908,52.1241 48.1445,53.5546 C48.812,54.5559 49.2411,55.5095 49.0981,55.7479 C48.955,55.9386 49.0981,56.1293 49.3841,56.1293 C49.6702,56.1293 49.7656,56.3677 49.6225,56.6061 C49.4795,56.8922 49.6702,57.4643 50.0993,57.8935 C50.7192,58.4656 51.1006,58.561 51.7205,58.1795 C52.7694,57.512 52.4833,55.9863 50.8145,52.9347 L49.4318,50.4553 L51.1006,49.9309 C53.1509,49.2157 53.7707,49.6925 54.772,52.5056 C55.1058,53.5546 55.7733,54.4128 56.2024,54.5082 C57.4898,54.6989 57.6328,52.887 56.5838,50.6461 C56.0117,49.4541 55.5826,48.4051 55.5826,48.3097 C55.5826,48.1667 56.4408,47.7853 57.4898,47.4992 C59.9214,46.784 60.6843,47.3561 61.2088,50.4553 C61.4472,51.8381 61.8287,52.5533 62.2578,52.5533 C62.83,52.5533 62.973,51.8381 62.9253,49.168 L62.9253,45.735 L65.5477,45.1628 C67.0258,44.8768 69.1714,44.3523 70.3634,44.0662 C71.5554,43.7801 73.8918,43.5417 75.5606,43.494 L78.6598,43.494 L79.7564,41.3484 C80.3286,40.1564 81.0438,38.9644 81.3299,38.6306 C81.5683,38.2969 81.8067,37.8678 81.8067,37.6294 C81.8067,37.1049 85.5734,32.766 86.0502,32.766 C86.1933,32.766 87.2899,34.9116 88.4342,37.534 C89.5786,40.1564 90.7229,42.4451 90.9136,42.5881 C91.6765,43.0172 93.1546,42.302 93.393,41.3484 C93.536,40.8716 93.4407,40.3948 93.2023,40.2995 C92.9639,40.2041 91.5335,37.677 90.0077,34.6732 C87.2422,29.0946 86.1933,28.0933 84.7629,29.5237 Z" style="stroke:none;fill-rule:nonzero;fill:#000000;fill-opacity:1;"/>
        </g>
        <g id="Shape7">
            <desc shapeID="7" type="0" basicInfo-basicType="0" basicInfo-roundedRectRadius="12" basicInfo-polygonSides="6" basicInfo-starPoints="5" bounding="rect(-50.5471,-49.6801,101.094,99.3602)" text="" font-familyName="" font-pixelSize="20" font-bold="0" font-underline="0" font-alignment="1" strokeStyle="0" markerStart="0" markerEnd="0" shadowEnabled="0" shadowOffsetX="0" shadowOffsetY="2" shadowBlur="4" shadowOpacity="160" blurEnabled="0" blurRadius="4" transform="matrix(0.476802,0,0,0.476802,188.394,53.3455)" pers-center="0,0" pers-size="0,0" pers-start="0,0" pers-end="0,0" locked="0" mesh="" flag=""/>
            <path id="shapePath7" d="M183.604,30.1912 C182.031,30.5727 180.314,31.0018 179.79,31.1448 C177.549,31.7647 174.878,34.1487 172.542,37.7724 C169.824,41.8729 169.252,44.2092 170.969,44.2092 C171.636,44.2092 172.304,43.3987 173.4,41.11 C174.259,39.3935 175.069,38.0108 175.26,38.0108 C175.451,38.0108 175.832,37.4863 176.118,36.8188 C176.404,36.1513 176.881,35.6268 177.167,35.6268 C177.453,35.6268 177.596,35.8175 177.406,36.0559 C177.262,36.342 177.406,36.6758 177.739,36.9142 C178.073,37.1049 178.359,37.7247 178.359,38.2492 C178.359,38.7737 178.884,39.4412 179.551,39.775 C180.743,40.3948 180.695,40.3948 178.979,40.3948 C177.167,40.3948 175.737,41.3484 175.737,42.5881 C175.737,42.9696 175.975,43.2556 176.309,43.2556 C176.643,43.2556 176.166,44.0185 175.26,44.9244 C173.782,46.4502 173.686,46.784 173.734,49.4064 C173.782,51.8381 173.639,52.2672 172.828,52.4579 C172.065,52.6486 171.922,52.4579 171.922,51.0752 C171.922,49.168 170.063,47.07 168.346,47.07 C165.915,47.07 164.293,47.6422 164.293,48.5481 C164.293,49.0726 164.627,49.4541 165.152,49.5017 C165.581,49.5494 166.487,49.5971 167.154,49.6448 C169.109,49.7401 169.681,50.36 169.348,51.9811 C169.205,52.7917 168.728,53.793 168.394,54.1744 C168.013,54.6035 167.583,55.5095 167.393,56.177 C166.916,58.1319 168.489,58.4656 169.872,56.7491 C170.492,56.0339 170.969,55.128 170.969,54.7943 C170.969,54.5082 171.207,54.2221 171.446,54.2221 C171.732,54.2221 171.922,55.4618 171.97,56.9399 C171.97,58.4656 172.065,60.1344 172.161,60.6589 C172.256,61.1834 172.494,62.3277 172.638,63.2337 C172.924,64.7117 172.876,64.8071 172.208,64.2826 C171.589,63.7581 171.398,63.8058 171.159,64.4733 C170.587,65.9037 172.685,69.3367 175.26,71.1962 C176.547,72.1498 177.644,73.1988 177.644,73.5326 C177.644,74.3432 175.451,74.7246 172.828,74.2955 C171.636,74.1048 170.397,74.0571 170.11,74.1524 C169.014,74.4862 169.538,76.012 170.921,76.6318 C172.828,77.3947 178.693,77.0132 180.266,75.9643 C181.077,75.3921 181.697,75.2968 182.078,75.5828 C182.603,76.012 187.371,76.3457 190.422,76.2027 C192.425,76.1073 196.478,74.7246 198.003,73.6279 C200.387,71.9591 204.536,66.6189 205.728,63.7581 C206.3,62.3277 206.92,59.9437 207.015,58.5133 C207.158,57.0829 207.349,55.1757 207.492,54.3175 C207.73,52.7917 207.73,52.7917 209.113,53.5069 C210.877,54.4128 211.497,54.4128 211.497,53.5069 C211.497,53.1254 211.735,52.7917 211.974,52.7917 C213.023,52.7917 212.355,51.4089 211.163,50.9798 C210.4,50.7414 209.304,50.0739 208.684,49.5017 C208.064,48.9773 207.349,48.5005 207.11,48.5005 C206.92,48.5005 206.729,48.0237 206.729,47.4038 C206.729,46.8316 206.204,45.2105 205.537,43.8278 C204.345,41.2531 204.44,40.967 206.443,41.8729 C208.112,42.6358 211.02,42.016 211.02,40.9193 C211.02,39.6319 210.114,39.1551 207.444,39.0121 C206.157,38.9167 204.917,38.7737 204.679,38.6306 C204.488,38.5353 204.154,38.869 203.963,39.4412 L203.582,40.4902 L202.819,39.3935 C201.007,36.6281 195.429,31.4309 193.521,30.668 C190.518,29.5237 186.846,29.333 183.604,30.1912 M196.668,36.7711 C199.958,40.1087 199.911,40.4425 196.144,40.2995 C194.666,40.2518 194.427,40.1087 194.904,39.5842 C195.715,38.583 194.666,38.1062 192.139,38.3922 C190.422,38.583 190.041,38.4876 190.041,37.8201 C190.041,37.2479 189.564,37.0572 188.277,37.0095 C186.656,36.9142 186.608,36.9142 187.895,36.7234 C188.706,36.5804 189.755,36.1036 190.279,35.6745 C191.233,34.8162 192.949,33.7673 193.378,33.7196 C193.521,33.7196 195,35.1023 196.668,36.7711 M185.273,37.534 C184.891,37.7724 184.128,37.9631 183.604,37.9631 C182.841,37.9154 182.841,37.8678 183.842,37.534 C185.511,37.0095 186.131,37.0095 185.273,37.534 M193.521,41.4438 C193.426,41.6822 192.997,41.8252 192.616,41.8252 C192.234,41.8252 191.519,42.2544 190.994,42.7788 C190.232,43.5417 190.041,43.5894 190.041,43.0172 C190.041,41.8729 188.229,42.159 187.848,43.351 C186.989,45.9734 186.989,45.7827 187.323,51.8381 C187.609,57.2736 186.989,56.0339 186.465,50.2169 C186.322,48.4051 185.988,46.5932 185.797,46.1641 C185.559,45.735 185.273,44.6384 185.177,43.7324 L185.034,42.0636 L187.895,41.5392 C191.09,40.967 193.855,40.9193 193.521,41.4438 M183.318,43.8278 C183.318,45.3059 183.27,45.3536 182.793,44.3046 C182.46,43.6371 181.84,43.2556 181.029,43.208 C179.885,43.208 179.885,43.1603 180.743,42.7788 C182.698,41.9206 183.366,42.2067 183.318,43.8278 M191.376,44.8291 C191.757,45.3059 191.662,45.592 190.947,46.0211 C190.136,46.5456 190.041,46.4502 190.041,45.4012 C190.041,44.1139 190.613,43.8755 191.376,44.8291 M203.153,51.695 C204.297,56.4154 203.963,60.8973 202.199,64.4733 C201.484,65.9514 200.864,67.0957 200.769,67.0004 C200.721,66.905 200.53,66.1421 200.34,65.2362 C200.101,63.9965 200.197,63.7105 200.721,63.9012 C203.677,65.0455 203.01,48.3097 200.054,45.735 C199.338,45.1628 199.291,44.8768 199.72,44.5907 C200.53,44.1139 202.104,47.4038 203.153,51.695 M180.982,47.9283 C180.982,48.2621 180.791,48.4051 180.505,48.2621 C180.266,48.119 180.028,47.4992 180.028,46.927 C180.028,46.0688 180.123,46.0211 180.505,46.5932 C180.743,46.9747 180.982,47.5945 180.982,47.9283 M177.644,48.7389 C177.644,49.6448 177.453,50.4077 177.262,50.4077 C176.976,50.4077 176.833,48.5958 177.072,47.4038 C177.31,46.4502 177.644,47.2608 177.644,48.7389 M198.766,49.1203 C199.72,51.0275 200.435,58.0365 199.672,58.0365 C199.1,58.0365 198.48,54.1744 198.909,53.1254 C199.1,52.6009 198.957,52.3149 198.48,52.3149 C198.051,52.3149 197.67,51.6473 197.479,50.503 C197.288,49.5494 197.002,48.3574 196.859,47.8329 C196.43,46.3072 197.86,47.2131 198.766,49.1203 M195.238,52.1718 C195.286,52.5056 194.952,52.7917 194.523,52.7917 C194.094,52.7917 193.855,52.5056 193.998,52.1718 C194.094,51.8857 194.046,51.0275 193.808,50.3123 C193.283,48.4528 193.998,48.1667 194.618,50.0262 C194.952,50.8845 195.238,51.8857 195.238,52.1718 M191.424,52.887 C191.471,53.793 191.233,54.2221 190.756,54.2221 C190.232,54.2221 190.041,53.6976 190.041,52.1718 C190.041,51.0275 190.184,49.9309 190.375,49.7401 C190.804,49.311 191.376,51.0275 191.424,52.887 M181.935,53.6022 C181.935,56.177 181.125,55.7479 181.077,53.1254 C180.982,51.3613 181.125,50.8368 181.458,51.3613 C181.697,51.7427 181.935,52.744 181.935,53.6022 M178.311,53.8406 C178.741,55.4618 178.645,57.5597 178.168,57.5597 C177.549,57.5597 177.119,56.2247 177.644,55.8909 C177.978,55.7002 177.93,55.2711 177.644,54.6989 C177.072,53.6022 177.024,52.7917 177.596,52.7917 C177.835,52.7917 178.121,53.2685 178.311,53.8406 M196.239,55.9863 C196.239,56.4631 196.382,57.3213 196.525,57.8935 C196.764,58.7517 196.621,58.9901 195.858,58.9901 C195.143,58.9901 194.856,58.6087 194.713,57.3213 C194.618,56.3677 194.618,55.5095 194.761,55.4141 C195.286,54.8419 196.239,55.2711 196.239,55.9863 M192.377,59.5623 C192.425,60.2298 192.186,60.8973 191.9,60.9927 C191.519,61.1357 191.567,61.4218 192.043,61.8986 C193.188,63.0429 193.855,66.762 193.092,67.811 C192.329,68.8122 192.329,68.8122 191.614,66.6189 C190.232,62.5185 189.993,57.7027 191.042,57.0352 C191.805,56.5584 192.329,57.5597 192.377,59.5623 M183.27,60.1821 L183.318,61.1357 L182.889,60.1821 C182.65,59.6576 182.507,58.704 182.507,58.0365 L182.507,56.8445 L182.889,58.0365 C183.079,58.704 183.27,59.6576 183.27,60.1821 M179.694,61.2311 C179.837,61.994 179.837,62.6615 179.742,62.8045 C179.408,63.1383 178.598,61.7079 178.598,60.7543 C178.598,59.4669 179.408,59.8007 179.694,61.2311 M197.288,63.1383 C197.574,65.2839 197.288,66.6189 196.573,66.6189 C196.287,66.6189 196.192,66.5236 196.335,66.3805 C196.478,66.1898 196.43,65.2362 196.192,64.1873 C195.953,63.1383 195.858,62.0893 196.001,61.8033 C196.573,60.8973 197.097,61.4218 197.288,63.1383 M184.748,66.0468 C184.796,66.3805 184.605,66.5236 184.319,66.3805 C184.081,66.2375 183.842,65.3793 183.89,64.5687 C183.938,63.0906 183.938,63.0906 184.319,64.2349 C184.51,64.9025 184.701,65.713 184.748,66.0468 M180.982,66.1898 C180.982,66.4759 180.791,66.5236 180.505,66.3805 C180.266,66.2375 180.028,65.8561 180.028,65.6177 C180.028,65.3316 180.266,65.2839 180.505,65.4269 C180.791,65.57 180.982,65.9514 180.982,66.1898 M199.1,68.9076 C199.1,70.0042 192.759,73.8186 192.091,73.1034 C191.9,72.9604 192.043,72.8174 192.425,72.8174 C192.854,72.8174 192.949,72.3406 192.711,71.0055 C192.472,69.2414 192.472,69.1937 193.76,69.3367 C194.475,69.4798 195.572,69.3367 196.239,69.0506 C197.717,68.4785 199.1,68.3831 199.1,68.9076 M185.13,71.4346 C186.179,71.8161 186.274,72.0068 185.75,72.3406 C185.13,72.722 185.13,72.8174 185.702,72.8174 C186.083,72.8174 186.274,72.9127 186.179,73.0558 C185.654,73.5326 183.223,72.4836 183.079,71.7207 C182.936,70.7671 183.27,70.7194 185.13,71.4346 M190.041,71.6254 C190.041,72.0545 190.375,72.4836 190.756,72.6266 C191.662,73.0081 191.185,73.771 190.041,73.771 C188.896,73.771 188.563,73.2465 188.944,71.9591 C189.23,70.7671 190.041,70.5287 190.041,71.6254 Z" style="stroke:none;fill-rule:nonzero;fill:#000000;fill-opacity:1;"/>
        </g>
        <g id="Shape8">
            <desc shapeID="8" type="0" basicInfo-basicType="0" basicInfo-roundedRectRadius="12" basicInfo-polygonSides="6" basicInfo-starPoints="5" bounding="rect(-7.24447,-8.16411,14.4889,16.3282)" text="" font-familyName="" font-pixelSize="20" font-bold="0" font-underline="0" font-alignment="1" strokeStyle="0" markerStart="0" markerEnd="0" shadowEnabled="0" shadowOffsetX="0" shadowOffsetY="2" shadowBlur="4" shadowOpacity="160" blurEnabled="0" blurRadius="4" transform="matrix(0.476802,0,0,0.476802,287.818,35.0462)" pers-center="0,0" pers-size="0,0" pers-start="0,0" pers-end="0,0" locked="0" mesh="" flag=""/>
            <path id="shapePath8" d="M284.877,32.1938 C284.162,34.0057 284.209,37.3433 284.924,38.2492 C285.878,39.3935 287.452,39.1074 289.168,37.4386 C291.981,34.6732 291.981,32.766 289.12,31.9077 C285.64,30.8588 285.354,30.8588 284.877,32.1938 M287.881,35.5314 C287.07,36.342 286.879,36.3897 286.641,35.7698 C286.164,34.6255 286.307,34.2918 287.213,34.0534 C288.548,33.7673 288.882,34.5302 287.881,35.5314 Z" style="stroke:none;fill-rule:nonzero;fill:#000000;fill-opacity:1;"/>
        </g>
        <g id="Shape9">
            <desc shapeID="9" type="0" basicInfo-basicType="0" basicInfo-roundedRectRadius="12" basicInfo-polygonSides="6" basicInfo-starPoints="5" bounding="rect(-8.80124,-9.24183,17.6024,18.4837)" text="" font-familyName="" font-pixelSize="20" font-bold="0" font-underline="0" font-alignment="1" strokeStyle="0" markerStart="0" markerEnd="0" shadowEnabled="0" shadowOffsetX="0" shadowOffsetY="2" shadowBlur="4" shadowOpacity="160" blurEnabled="0" blurRadius="4" transform="matrix(0.476802,0,0,0.476802,261.656,38.4161)" pers-center="0,0" pers-size="0,0" pers-start="0,0" pers-end="0,0" locked="0" mesh="" flag=""/>
            <path id="shapePath9" d="M259.797,34.3394 C258.939,34.6732 258.224,35.1023 258.224,35.3884 C258.224,35.6268 257.985,36.5327 257.699,37.391 C257.365,38.4876 257.365,39.2028 257.794,40.0134 C259.511,43.351 261.752,43.7324 264.231,41.0624 C265.566,39.6796 265.852,39.0121 265.852,37.2956 C265.852,35.7698 265.614,35.0546 265.042,34.7686 C263.468,33.958 261.323,33.7673 259.797,34.3394 M263.468,37.9631 C263.468,39.0121 261.323,41.0624 260.655,40.6332 C260.369,40.4902 260.131,39.5842 260.131,38.6783 C260.131,37.391 260.369,36.9142 261.227,36.6281 C262.419,36.1513 263.468,36.7711 263.468,37.9631 Z" style="stroke:none;fill-rule:nonzero;fill:#000000;fill-opacity:1;"/>
        </g>
        <g id="Shape10">
            <desc shapeID="10" type="0" basicInfo-basicType="0" basicInfo-roundedRectRadius="12" basicInfo-polygonSides="6" basicInfo-starPoints="5" bounding="rect(-65.5437,-93.0168,131.087,186.034)" text="" font-familyName="" font-pixelSize="20" font-bold="0" font-underline="0" font-alignment="1" strokeStyle="0" markerStart="0" markerEnd="0" shadowEnabled="0" shadowOffsetX="0" shadowOffsetY="2" shadowBlur="4" shadowOpacity="160" blurEnabled="0" blurRadius="4" transform="matrix(0.476802,0,0,0.476802,95.7014,85.7553)" pers-center="0,0" pers-size="0,0" pers-start="0,0" pers-end="0,0" locked="0" mesh="" flag=""/>
            <path id="shapePath10" d="M95.6339,42.0636 C94.4419,43.494 95.5863,44.4476 98.7808,44.5907 C101.785,44.7814 105.694,45.735 106.696,46.5456 C108.603,48.119 113.037,51.3613 113.276,51.3613 C113.466,51.3613 114.801,52.5056 116.184,53.936 C118.52,56.2723 121.095,60.4205 121.62,62.6615 C121.763,63.1383 122.287,64.9978 122.812,66.8574 C123.908,70.6241 124.29,76.5841 123.67,79.8741 C123.241,82.3534 121.095,88.1227 119.999,89.9823 C118.95,91.6987 114.706,97.2297 113.8,98.0879 C113.371,98.4693 112.37,99.6613 111.607,100.71 C110.033,102.761 108.412,104.334 106.076,106.194 C105.218,106.861 104.216,107.672 103.835,108.053 C103.501,108.435 101.737,109.77 100.021,111.009 C98.2564,112.249 96.5876,113.536 96.2538,113.775 C95.9677,114.061 93.5837,115.396 91.009,116.731 C88.4342,118.114 85.9072,119.496 85.3827,119.83 C84.8582,120.212 83.9523,120.498 83.3325,120.498 C82.6649,120.498 80.8531,121.165 79.2319,122.023 C77.6585,122.834 75.7513,123.788 75.0361,124.169 C74.3686,124.503 73.1289,124.789 72.366,124.789 C71.5554,124.789 70.7926,124.98 70.6495,125.218 C70.5065,125.456 69.6006,125.79 68.5993,125.981 C66.8351,126.315 63.8789,128.985 64.5464,129.652 C65.1663,130.224 66.7874,130.272 68.2178,129.7 C70.8402,128.699 76.8003,126.982 77.2294,127.077 C77.4678,127.173 77.8015,127.03 77.9446,126.839 C78.326,126.362 83.0941,124.026 84.6675,123.597 C85.335,123.406 86.1456,123.025 86.527,122.739 C86.8608,122.452 87.4329,122.166 87.7667,122.119 C88.3866,122.023 95.6816,117.732 96.1108,117.208 C96.2538,117.065 97.2074,116.54 98.2564,116.063 C102.548,114.061 111.702,105.669 116.279,99.6137 C117.376,98.1356 118.616,96.5621 119.045,96.133 C122.335,92.7954 126.006,84.7374 126.674,79.3019 C127.246,74.82 126.912,69.4798 125.911,66.6189 C125.529,65.5223 125.196,64.2826 125.196,63.9489 C125.196,63.6151 124.576,61.8986 123.765,60.1821 C123.002,58.4656 122.335,56.8445 122.335,56.6061 C122.335,56.32 122.144,56.1293 121.906,56.1293 C121.667,56.1293 121.286,55.5571 121,54.7943 C120.38,53.0778 118.854,51.552 115.183,48.9773 C114.277,48.3574 113.323,47.6422 113.037,47.4515 C108.698,43.9708 105.313,41.9683 104.789,42.4928 C104.646,42.6358 104.264,42.5404 103.93,42.2544 C103.597,41.9683 101.737,41.6345 99.8298,41.4915 C96.9213,41.3008 96.2061,41.3961 95.6339,42.0636 Z" style="stroke:none;fill-rule:nonzero;fill:#000000;fill-opacity:1;"/>
        </g>
        <g id="Shape11">
            <desc shapeID="11" type="0" basicInfo-basicType="0" basicInfo-roundedRectRadius="12" basicInfo-polygonSides="6" basicInfo-starPoints="5" bounding="rect(-35.576,-93.2961,71.152,186.592)" text="" font-familyName="" font-pixelSize="20" font-bold="0" font-underline="0" font-alignment="1" strokeStyle="0" markerStart="0" markerEnd="0" shadowEnabled="0" shadowOffsetX="0" shadowOffsetY="2" shadowBlur="4" shadowOpacity="160" blurEnabled="0" blurRadius="4" transform="matrix(0.476802,0,0,0.476802,151.562,98.2945)" pers-center="0,0" pers-size="0,0" pers-start="0,0" pers-end="0,0" locked="0" mesh="" flag=""/>
            <path id="shapePath11" d="M158.047,54.985 C157.714,55.6525 156.808,56.7491 156.045,57.369 C155.282,57.9888 153.47,60.2298 151.992,62.2801 C148.893,66.5236 143.839,71.0055 139.69,73.0558 C138.165,73.8663 136.734,74.6769 136.544,74.963 C136.114,75.5828 137.02,76.6318 138.022,76.6318 C140.644,76.5841 150.18,68.8122 153.041,64.3303 C153.661,63.3767 155.044,61.7556 156.092,60.7543 L158,58.8947 L159.239,61.6125 C159.907,63.1383 160.479,64.5687 160.479,64.7594 C160.479,65.57 163.245,70.7194 164.007,71.3393 C164.437,71.7207 164.77,72.2929 164.77,72.6266 C164.77,73.0081 165.199,73.7233 165.724,74.2478 C166.248,74.7723 166.487,75.2014 166.296,75.2014 C166.105,75.2014 165.009,76.0596 163.912,77.1086 C162.863,78.1576 162.052,79.0158 162.243,79.0158 C162.386,79.0158 161.766,79.8264 160.908,80.8277 C160.002,81.7812 158.667,83.4501 157.857,84.499 C154.948,88.2658 152.04,91.1266 148.94,93.1768 C147.224,94.3212 145.174,95.8469 144.411,96.6098 C143.267,97.7541 140.549,99.7567 137.688,101.664 C137.306,101.902 136.448,102.618 135.828,103.19 L134.636,104.239 L134.636,114.633 C134.636,120.355 134.779,128.174 134.97,132.036 C135.209,136.47 135.161,139.522 134.827,140.38 C134.446,141.572 134.493,141.858 135.352,142.383 C137.402,143.67 137.593,142.383 137.211,129.843 C136.925,119.449 136.877,111.963 137.116,107.767 C137.211,106.623 137.783,105.717 139.547,104.096 C140.882,102.904 142.122,101.902 142.361,101.902 C142.551,101.902 142.837,101.759 142.933,101.521 C143.314,100.663 152.23,93.7967 152.946,93.7967 C153.422,93.7967 154.614,92.6047 156.045,90.7451 C156.665,90.0299 158.095,88.3135 159.335,86.9784 C160.527,85.6434 161.862,84.0222 162.291,83.3547 C162.768,82.6872 164.246,80.923 165.629,79.4926 C167.726,77.2993 168.108,76.6318 167.965,75.4398 C167.869,74.6769 168.013,73.6756 168.299,73.1988 C168.68,72.579 168.585,72.1975 167.965,71.53 C166.63,70.0996 164.246,67.1434 164.293,67.0004 C164.341,66.8573 163.292,64.0919 162.386,62.0893 C161.528,60.0391 160.956,57.8458 160.956,56.32 C160.956,55.2234 160.67,54.5559 160.05,54.2221 C158.81,53.6022 158.81,53.5546 158.047,54.985 Z" style="stroke:none;fill-rule:nonzero;fill:#000000;fill-opacity:1;"/>
        </g>
        <g id="Shape12">
            <desc shapeID="12" type="0" basicInfo-basicType="0" basicInfo-roundedRectRadius="12" basicInfo-polygonSides="6" basicInfo-starPoints="5" bounding="rect(-15.5976,-18.828,31.1953,37.656)" text="" font-familyName="" font-pixelSize="20" font-bold="0" font-underline="0" font-alignment="1" strokeStyle="0" markerStart="0" markerEnd="0" shadowEnabled="0" shadowOffsetX="0" shadowOffsetY="2" shadowBlur="4" shadowOpacity="160" blurEnabled="0" blurRadius="4" transform="matrix(0.476802,0,0,0.476802,288.752,63.0318)" pers-center="0,0" pers-size="0,0" pers-start="0,0" pers-end="0,0" locked="0" mesh="" flag=""/>
            <path id="shapePath12" d="M282.445,54.0791 C281.396,54.3175 280.967,55.6048 281.635,56.4154 C281.921,56.7491 282.922,57.1783 283.923,57.3213 C287.595,57.9411 287.69,58.0365 287.642,62.1847 C287.642,66.0945 288.024,68.0494 288.93,68.6215 C289.597,69.0983 287.118,69.0506 284.686,68.5738 C282.397,68.1447 281.062,69.003 281.921,70.3857 C282.397,71.1486 285.115,71.53 293.221,71.9591 C295.605,72.1022 296.034,71.9591 296.177,71.2439 C296.32,70.195 295.176,69.6705 291.838,69.1937 C290.551,69.003 289.836,68.7646 290.312,68.6215 C291.075,68.4785 291.123,68.097 290.837,65.7607 C290.646,64.2349 290.503,62.1847 290.551,61.1357 C290.551,58.2272 289.788,55.6525 288.834,55.6048 C287.022,55.5095 285.258,55.0803 284.257,54.5082 C283.732,54.1744 282.922,53.9837 282.445,54.0791 Z" style="stroke:none;fill-rule:nonzero;fill:#000000;fill-opacity:1;"/>
        </g>
        <g id="Shape13">
            <desc shapeID="13" type="0" basicInfo-basicType="0" basicInfo-roundedRectRadius="12" basicInfo-polygonSides="6" basicInfo-starPoints="5" bounding="rect(-19.8505,-17.4256,39.7011,34.8513)" text="" font-familyName="" font-pixelSize="20" font-bold="0" font-underline="0" font-alignment="1" strokeStyle="0" markerStart="0" markerEnd="0" shadowEnabled="0" shadowOffsetX="0" shadowOffsetY="2" shadowBlur="4" shadowOpacity="160" blurEnabled="0" blurRadius="4" transform="matrix(0.476802,0,0,0.476802,265.82,64.2454)" pers-center="0,0" pers-size="0,0" pers-start="0,0" pers-end="0,0" locked="0" mesh="" flag=""/>
            <path id="shapePath13" d="M272.003,57.4643 C271.717,58.3703 271.431,59.9437 271.431,60.8496 C271.431,62.5661 271.431,62.5661 269.524,62.4708 C268.522,62.4231 267.521,62.2801 267.426,62.137 C267.283,61.994 267.044,60.6589 266.854,59.1331 C266.615,56.9875 266.377,56.32 265.709,56.2247 C263.802,55.8432 263.373,57.1306 264.184,60.7066 C264.374,61.6125 264.136,61.7556 262.133,61.994 C260.894,62.137 259.749,62.0893 259.559,61.9463 C259.368,61.7556 259.082,60.5159 258.939,59.2285 C258.557,56.5107 258.128,55.8909 256.984,56.32 C256.316,56.6061 256.221,57.0829 256.507,60.0867 C256.984,65.3316 258.414,71.4346 259.32,72.1022 C260.369,72.865 261.704,72.6743 264.517,71.4346 C267.235,70.195 267.664,69.5274 267.426,66.9527 L267.235,64.9501 L269.524,64.9501 L271.812,64.9501 L271.908,67.2865 C272.003,70.2426 272.814,72.1975 274.006,72.4836 C275.341,72.8174 275.579,71.8638 274.959,69.003 C274.673,67.6679 274.435,64.2349 274.435,61.4218 C274.435,56.7015 274.339,56.2247 273.481,55.9863 C272.766,55.7955 272.432,56.1293 272.003,57.4643 M264.327,66.7143 C264.184,68.4308 263.993,68.8122 262.896,69.1937 C261.323,69.7658 261.227,69.7182 260.464,67.0481 L259.797,64.9025 L262.133,64.8071 L264.47,64.7117 L264.327,66.7143 Z" style="stroke:none;fill-rule:nonzero;fill:#000000;fill-opacity:1;"/>
        </g>
        <g id="Shape14">
            <desc shapeID="14" type="0" basicInfo-basicType="0" basicInfo-roundedRectRadius="12" basicInfo-polygonSides="6" basicInfo-starPoints="5" bounding="rect(-10.7218,-6.96483,21.4435,13.9296)" text="" font-familyName="" font-pixelSize="20" font-bold="0" font-underline="0" font-alignment="1" strokeStyle="0" markerStart="0" markerEnd="0" shadowEnabled="0" shadowOffsetX="0" shadowOffsetY="2" shadowBlur="4" shadowOpacity="160" blurEnabled="0" blurRadius="4" transform="matrix(0.476802,0,0,0.476802,109.861,61.8569)" pers-center="0,0" pers-size="0,0" pers-start="0,0" pers-end="0,0" locked="0" mesh="" flag=""/>
            <path id="shapePath14" d="M111.082,58.9901 C110.51,59.2285 109.89,59.6577 109.7,59.9437 C109.509,60.2298 108.412,60.8973 107.316,61.3741 C105.313,62.2324 104.312,63.6628 104.932,64.7117 C105.361,65.4269 107.363,65.2839 108.174,64.521 C109.27,63.4244 112.465,61.8509 113.609,61.8509 C114.229,61.8509 114.706,61.7079 114.754,61.4695 C114.754,61.2788 114.849,60.7066 114.944,60.1821 C115.23,58.6563 113.371,58.0365 111.082,58.9901 Z" style="stroke:none;fill-rule:nonzero;fill:#000000;fill-opacity:1;"/>
        </g>
        <g id="Shape15">
            <desc shapeID="15" type="0" basicInfo-basicType="0" basicInfo-roundedRectRadius="12" basicInfo-polygonSides="6" basicInfo-starPoints="5" bounding="rect(-5.22023,-3.5825,10.4404,7.16494)" text="" font-familyName="" font-pixelSize="20" font-bold="0" font-underline="0" font-alignment="1" strokeStyle="0" markerStart="0" markerEnd="0" shadowEnabled="0" shadowOffsetX="0" shadowOffsetY="2" shadowBlur="4" shadowOpacity="160" blurEnabled="0" blurRadius="4" transform="matrix(0.476802,0,0,0.476802,208.788,64.6326)" pers-center="0,0" pers-size="0,0" pers-start="0,0" pers-end="0,0" locked="0" mesh="" flag=""/>
            <path id="shapePath15" d="M206.395,63.5674 C205.775,65.2362 208.302,67.0004 210.114,66.0945 C212.212,65.0455 211.402,63.7105 208.255,63.0429 C207.063,62.8045 206.681,62.8999 206.395,63.5674 Z" style="stroke:none;fill-rule:nonzero;fill:#000000;fill-opacity:1;"/>
        </g>
        <g id="Shape16">
            <desc shapeID="16" type="0" basicInfo-basicType="0" basicInfo-roundedRectRadius="12" basicInfo-polygonSides="6" basicInfo-starPoints="5" bounding="rect(-8.65324,-6.03074,17.3065,12.0614)" text="" font-familyName="" font-pixelSize="20" font-bold="0" font-underline="0" font-alignment="1" strokeStyle="0" markerStart="0" markerEnd="0" shadowEnabled="0" shadowOffsetX="0" shadowOffsetY="2" shadowBlur="4" shadowOpacity="160" blurEnabled="0" blurRadius="4" transform="matrix(0.476802,0,0,0.476802,112.737,67.9816)" pers-center="0,0" pers-size="0,0" pers-start="0,0" pers-end="0,0" locked="0" mesh="" flag=""/>
            <path id="shapePath16" d="M115.183,65.2362 C114.801,65.4269 113.419,65.9991 112.179,66.4282 C109.747,67.2865 108.222,68.9553 108.698,70.195 C109.08,71.2439 110.367,71.0532 112.846,69.5751 C116.947,67.1434 117.281,66.8097 116.566,65.7607 C116.136,65.1409 115.66,64.9501 115.183,65.2362 Z" style="stroke:none;fill-rule:nonzero;fill:#000000;fill-opacity:1;"/>
        </g>
        <g id="Shape17">
            <desc shapeID="17" type="0" basicInfo-basicType="0" basicInfo-roundedRectRadius="12" basicInfo-polygonSides="6" basicInfo-starPoints="5" bounding="rect(-7.11372,-6.18848,14.2274,12.377)" text="" font-familyName="" font-pixelSize="20" font-bold="0" font-underline="0" font-alignment="1" strokeStyle="0" markerStart="0" markerEnd="0" shadowEnabled="0" shadowOffsetX="0" shadowOffsetY="2" shadowBlur="4" shadowOpacity="160" blurEnabled="0" blurRadius="4" transform="matrix(0.476802,0,0,0.476802,78.8131,70.0941)" pers-center="0,0" pers-size="0,0" pers-start="0,0" pers-end="0,0" locked="0" mesh="" flag=""/>
            <path id="shapePath17" d="M78.7075,68.3354 C77.9446,69.003 76.8003,69.9566 76.2281,70.481 C75.0838,71.387 75.1791,72.5313 76.3711,73.0081 C76.7526,73.1511 77.5631,72.865 78.0876,72.3406 C78.6598,71.8161 79.4703,71.387 79.8995,71.387 C80.9008,71.387 82.3789,69.8135 82.1881,68.9553 C82.0451,68.3354 80.8531,67.1434 80.3763,67.1434 C80.2332,67.1434 79.518,67.6679 78.7075,68.3354 Z" style="stroke:none;fill-rule:nonzero;fill:#000000;fill-opacity:1;"/>
        </g>
        <g id="Shape18">
            <desc shapeID="18" type="0" basicInfo-basicType="0" basicInfo-roundedRectRadius="12" basicInfo-polygonSides="6" basicInfo-starPoints="5" bounding="rect(-9.24693,-4.63724,18.4938,9.27453)" text="" font-familyName="" font-pixelSize="20" font-bold="0" font-underline="0" font-alignment="1" strokeStyle="0" markerStart="0" markerEnd="0" shadowEnabled="0" shadowOffsetX="0" shadowOffsetY="2" shadowBlur="4" shadowOpacity="160" blurEnabled="0" blurRadius="4" transform="matrix(0.476802,0,0,0.476802,113.092,74.8102)" pers-center="0,0" pers-size="0,0" pers-start="0,0" pers-end="0,0" locked="0" mesh="" flag=""/>
            <path id="shapePath18" d="M113.752,72.8174 C113.371,73.0558 112.56,73.2942 111.941,73.2942 C111.321,73.2942 110.272,73.8664 109.604,74.5339 C108.46,75.6782 108.46,75.8212 109.175,76.5364 C109.843,77.2516 110.176,77.204 113.276,76.2027 C115.374,75.5352 116.804,74.7723 117.138,74.2001 C117.424,73.628 117.567,73.1511 117.471,73.0558 C116.947,72.579 114.372,72.4359 113.752,72.8174 Z" style="stroke:none;fill-rule:nonzero;fill:#000000;fill-opacity:1;"/>
        </g>
        <g id="Shape19">
            <desc shapeID="19" type="0" basicInfo-basicType="0" basicInfo-roundedRectRadius="12" basicInfo-polygonSides="6" basicInfo-starPoints="5" bounding="rect(-25.0236,-31.9103,50.0472,63.8205)" text="" font-familyName="" font-pixelSize="20" font-bold="0" font-underline="0" font-alignment="1" strokeStyle="0" markerStart="0" markerEnd="0" shadowEnabled="0" shadowOffsetX="0" shadowOffsetY="2" shadowBlur="4" shadowOpacity="160" blurEnabled="0" blurRadius="4" transform="matrix(0.476802,0,0,0.476802,74.2083,88.9825)" pers-center="0,0" pers-size="0,0" pers-start="0,0" pers-end="0,0" locked="0" mesh="" flag=""/>
            <path id="shapePath19" d="M68.7423,74.4862 C68.5993,74.8676 68.1702,75.2014 67.7887,75.2014 C67.0735,75.2014 66.0722,76.5841 66.0722,77.5378 C66.0722,77.8238 66.5967,78.1576 67.2642,78.3483 C68.3609,78.6344 68.5516,78.8728 68.4086,79.7787 C68.4086,79.9694 68.5993,80.2555 68.8377,80.3986 C69.1238,80.5416 69.4098,81.3045 69.4575,82.115 C69.6482,83.4501 69.5052,83.5931 66.0722,84.9759 C63.3068,86.1202 62.4485,86.6923 62.3532,87.5029 C62.2578,88.0751 62.4008,88.5519 62.6869,88.5519 C63.0207,88.5519 63.0207,88.9333 62.7346,89.7915 C61.5426,92.8908 62.7823,98.1833 65.2616,100.901 C69.0284,104.906 74.4639,105.288 79.4227,101.902 C80.0902,101.426 81.8067,100.663 83.2371,100.186 C84.6675,99.7091 85.9549,99.2323 86.0025,99.1846 C86.527,98.9462 85.4304,97.182 84.6675,96.9913 C83.5709,96.7052 79.7087,97.9926 77.4201,99.423 C75.8467,100.377 72.8428,101.187 71.1263,101.044 C69.2191,100.949 67.5503,99.8521 66.2152,97.9926 C65.0232,96.2761 64.8802,95.6085 64.8802,92.2709 C64.8802,89.6008 65.0232,88.5519 65.4524,88.5519 C65.7861,88.5519 67.5026,87.8367 69.2668,87.0261 C71.0786,86.1679 74.1302,84.9282 76.0851,84.213 C79.1366,83.164 79.6611,82.8302 79.8041,81.7813 C79.9948,80.0648 78.2307,79.6834 75.3699,80.923 C72.9382,81.972 72.0799,82.115 72.509,81.4475 C72.6521,81.1614 72.4614,80.78 72.0322,80.5893 C70.9356,79.9694 70.6018,77.3947 71.5078,76.4888 C71.9369,76.1073 72.2706,75.4398 72.2706,75.0584 C72.2706,73.7233 69.2191,73.2465 68.7423,74.4862 Z" style="stroke:none;fill-rule:nonzero;fill:#000000;fill-opacity:1;"/>
        </g>
        <g id="Shape20">
            <desc shapeID="20" type="0" basicInfo-basicType="0" basicInfo-roundedRectRadius="12" basicInfo-polygonSides="6" basicInfo-starPoints="5" bounding="rect(-5.79806,-4.93488,11.5962,9.86973)" text="" font-familyName="" font-pixelSize="20" font-bold="0" font-underline="0" font-alignment="1" strokeStyle="0" markerStart="0" markerEnd="0" shadowEnabled="0" shadowOffsetX="0" shadowOffsetY="2" shadowBlur="4" shadowOpacity="160" blurEnabled="0" blurRadius="4" transform="matrix(0.476802,0,0,0.476802,57.2541,79.1905)" pers-center="0,0" pers-size="0,0" pers-start="0,0" pers-end="0,0" locked="0" mesh="" flag=""/>
            <path id="shapePath20" d="M56.0117,77.7284 C54.3906,79.2066 54.1045,80.0171 54.9627,81.0184 C55.6302,81.7336 55.7733,81.7336 57.6328,80.923 C59.2062,80.2078 59.683,79.6833 59.9214,78.539 C60.1122,77.6331 60.0168,77.1086 59.683,77.1086 C59.397,77.1086 58.7294,77.0132 58.205,76.8702 C57.6328,76.7272 56.7746,77.0609 56.0117,77.7284 Z" style="stroke:none;fill-rule:nonzero;fill:#000000;fill-opacity:1;"/>
        </g>
        <g id="Shape21">
            <desc shapeID="21" type="0" basicInfo-basicType="0" basicInfo-roundedRectRadius="12" basicInfo-polygonSides="6" basicInfo-starPoints="5" bounding="rect(-4.56561,-16.9037,9.13126,33.8074)" text="" font-familyName="" font-pixelSize="20" font-bold="0" font-underline="0" font-alignment="1" strokeStyle="0" markerStart="0" markerEnd="0" shadowEnabled="0" shadowOffsetX="0" shadowOffsetY="2" shadowBlur="4" shadowOpacity="160" blurEnabled="0" blurRadius="4" transform="matrix(0.476802,0,0,0.476802,345.631,95.7498)" pers-center="0,0" pers-size="0,0" pers-start="0,0" pers-end="0,0" locked="0" mesh="" flag=""/>
            <path id="shapePath21" d="M345.335,88.4088 C344.858,88.981 344.715,89.5531 344.954,89.9346 C345.431,90.6498 345.192,93.2245 344.429,95.7039 C343.476,98.9938 343.19,101.616 343.714,102.713 C344,103.333 344.382,103.81 344.572,103.81 C345.192,103.81 346.098,101.855 346.48,99.7567 C346.67,98.7077 347.052,96.6098 347.338,95.0841 C348.482,89.5531 347.433,86.1202 345.335,88.4088 Z" style="stroke:none;fill-rule:nonzero;fill:#000000;fill-opacity:1;"/>
        </g>
        <g id="Shape22">
            <desc shapeID="22" type="0" basicInfo-basicType="0" basicInfo-roundedRectRadius="12" basicInfo-polygonSides="6" basicInfo-starPoints="5" bounding="rect(-15.683,-25.7795,31.366,51.5591)" text="" font-familyName="" font-pixelSize="20" font-bold="0" font-underline="0" font-alignment="1" strokeStyle="0" markerStart="0" markerEnd="0" shadowEnabled="0" shadowOffsetX="0" shadowOffsetY="2" shadowBlur="4" shadowOpacity="160" blurEnabled="0" blurRadius="4" transform="matrix(0.476802,0,0,0.476802,256.944,100.739)" pers-center="0,0" pers-size="0,0" pers-start="0,0" pers-end="0,0" locked="0" mesh="" flag=""/>
            <path id="shapePath22" d="M255.553,89.0763 C254.695,89.8869 254.648,90.3637 254.934,93.2245 C255.124,94.9887 255.41,97.1343 255.601,98.0402 L255.887,99.6613 L253.265,99.3753 C251.167,99.1845 250.547,99.2799 249.927,99.9474 C248.64,101.378 250.07,102.093 253.98,102.093 C256.793,102.045 257.27,102.141 257.079,102.808 C256.936,103.237 256.698,105.431 256.555,107.672 C256.269,112.011 256.412,112.487 258.557,112.964 C259.845,113.298 260.274,112.344 259.654,110.675 C259.177,109.436 258.986,107.147 259.416,107.147 C259.511,107.147 260.369,107.481 261.275,107.91 C263.039,108.768 264.422,108.53 264.422,107.386 C264.422,107.004 263.325,105.955 262.038,105.145 C259.606,103.571 259.606,103.571 259.892,101.521 C260.178,99.7567 260.083,99.4229 259.32,99.2322 C258.653,99.0415 258.367,98.4693 258.319,96.9913 C258.224,95.8946 257.985,94.2735 257.699,93.4152 C257.413,92.5093 257.27,91.1743 257.365,90.4114 C257.651,88.5042 256.745,87.8367 255.553,89.0763 Z" style="stroke:none;fill-rule:nonzero;fill:#000000;fill-opacity:1;"/>
        </g>
        <g id="Shape23">
            <desc shapeID="23" type="0" basicInfo-basicType="0" basicInfo-roundedRectRadius="12" basicInfo-polygonSides="6" basicInfo-starPoints="5" bounding="rect(-21.7068,-20.8735,43.4136,41.747)" text="" font-familyName="" font-pixelSize="20" font-bold="0" font-underline="0" font-alignment="1" strokeStyle="0" markerStart="0" markerEnd="0" shadowEnabled="0" shadowOffsetX="0" shadowOffsetY="2" shadowBlur="4" shadowOpacity="160" blurEnabled="0" blurRadius="4" transform="matrix(0.476802,0,0,0.476802,323.988,100.015)" pers-center="0,0" pers-size="0,0" pers-start="0,0" pers-end="0,0" locked="0" mesh="" flag=""/>
            <path id="shapePath23" d="M330.984,90.6975 C330.459,91.2219 330.221,92.3186 330.221,93.9397 L330.221,96.4191 L323.545,96.5145 C316.107,96.6098 314.343,97.0866 314.105,99.0415 C314.057,99.709 313.866,101.139 313.723,102.284 C313.533,103.476 313.676,104.906 314.009,105.717 C314.486,106.909 314.868,107.147 316.203,107.147 C317.538,107.147 318.015,106.861 318.92,105.335 C319.54,104.382 320.446,102.57 320.923,101.378 L321.829,99.1845 L325.882,98.8985 C328.123,98.7077 330.03,98.6601 330.078,98.7554 C330.173,98.8508 330.364,100.09 330.507,101.473 C330.65,102.904 330.984,104.572 331.222,105.24 C331.46,105.907 331.699,107.147 331.746,108.005 C331.842,109.627 333.225,110.532 334.178,109.579 C334.607,109.15 334.13,105.002 333.225,101.426 C333.081,101.044 332.986,98.374 332.938,95.5132 C332.843,90.1253 332.462,89.2194 330.984,90.6975 M318.777,99.8044 C318.777,101.044 316.727,104.811 316.203,104.62 C315.917,104.525 315.631,103.428 315.631,102.188 C315.535,100.281 315.726,99.8521 316.584,99.5183 C318.158,98.8985 318.777,98.9461 318.777,99.8044 Z" style="stroke:none;fill-rule:nonzero;fill:#000000;fill-opacity:1;"/>
        </g>
        <g id="Shape24">
            <desc shapeID="24" type="0" basicInfo-basicType="0" basicInfo-roundedRectRadius="12" basicInfo-polygonSides="6" basicInfo-starPoints="5" bounding="rect(-7.67651,-13.9999,15.353,27.9997)" text="" font-familyName="" font-pixelSize="20" font-bold="0" font-underline="0" font-alignment="1" strokeStyle="0" markerStart="0" markerEnd="0" shadowEnabled="0" shadowOffsetX="0" shadowOffsetY="2" shadowBlur="4" shadowOpacity="160" blurEnabled="0" blurRadius="4" transform="matrix(0.476802,0,0,0.476802,302.412,97.611)" pers-center="0,0" pers-size="0,0" pers-start="0,0" pers-end="0,0" locked="0" mesh="" flag=""/>
            <path id="shapePath24" d="M299.419,92.6047 C299.085,93.5106 298.752,94.8933 298.752,95.7039 C298.752,97.7541 300.23,103.476 300.85,103.905 C302.042,104.715 302.566,104.239 302.566,102.427 C302.566,100.615 302.661,100.52 303.997,100.567 C306.19,100.615 306.714,99.8044 305.236,98.7554 C301.279,95.9423 301.469,96.276 301.851,93.5106 C302.137,91.1266 302.089,90.9359 301.136,90.9359 C300.421,90.9359 299.944,91.4603 299.419,92.6047 Z" style="stroke:none;fill-rule:nonzero;fill:#000000;fill-opacity:1;"/>
        </g>
        <g id="Shape25">
            <desc shapeID="25" type="0" basicInfo-basicType="0" basicInfo-roundedRectRadius="12" basicInfo-polygonSides="6" basicInfo-starPoints="5" bounding="rect(-8.38079,-13.5364,16.7617,27.0728)" text="" font-familyName="" font-pixelSize="20" font-bold="0" font-underline="0" font-alignment="1" strokeStyle="0" markerStart="0" markerEnd="0" shadowEnabled="0" shadowOffsetX="0" shadowOffsetY="2" shadowBlur="4" shadowOpacity="160" blurEnabled="0" blurRadius="4" transform="matrix(0.476802,0,0,0.476802,272.176,101.17)" pers-center="0,0" pers-size="0,0" pers-start="0,0" pers-end="0,0" locked="0" mesh="" flag=""/>
            <path id="shapePath25" d="M268.761,95.4178 C268.141,96.1807 267.95,101.33 268.522,103.571 C269.142,106.241 270.096,107.624 271.288,107.624 C272.718,107.624 273.1,106.718 272.242,105.192 C271.288,103.523 271.336,103.476 273.91,103.619 C276.104,103.714 276.247,103.666 276.151,102.57 C276.104,101.616 275.722,101.378 273.624,100.901 L271.145,100.329 L271.002,97.6588 C270.859,94.8456 269.953,93.9397 268.761,95.4178 Z" style="stroke:none;fill-rule:nonzero;fill:#000000;fill-opacity:1;"/>
        </g>
        <g id="Shape26">
            <desc shapeID="26" type="0" basicInfo-basicType="0" basicInfo-roundedRectRadius="12" basicInfo-polygonSides="6" basicInfo-starPoints="5" bounding="rect(-7.85529,-6.61957,15.7106,13.2391)" text="" font-familyName="" font-pixelSize="20" font-bold="0" font-underline="0" font-alignment="1" strokeStyle="0" markerStart="0" markerEnd="0" shadowEnabled="0" shadowOffsetX="0" shadowOffsetY="2" shadowBlur="4" shadowOpacity="160" blurEnabled="0" blurRadius="4" transform="matrix(0.476802,0,0,0.476802,28.1878,99.9221)" pers-center="0,0" pers-size="0,0" pers-start="0,0" pers-end="0,0" locked="0" mesh="" flag=""/>
            <path id="shapePath26" d="M27.6896,98.1356 C26.9268,98.8985 25.9254,99.6137 25.4963,99.7567 C24.2566,100.186 24.0659,102.331 25.1626,102.904 C25.9254,103.285 26.3546,103.094 27.5943,101.807 C28.4525,100.901 29.7399,99.8044 30.5028,99.3276 L31.9332,98.4217 L30.8365,97.5634 C29.4538,96.4191 29.4061,96.4191 27.6896,98.1356 Z" style="stroke:none;fill-rule:nonzero;fill:#000000;fill-opacity:1;"/>
        </g>
        <g id="Shape27">
            <desc shapeID="27" type="0" basicInfo-basicType="0" basicInfo-roundedRectRadius="12" basicInfo-polygonSides="6" basicInfo-starPoints="5" bounding="rect(-8.87566,-9.45361,17.7513,18.9073)" text="" font-familyName="" font-pixelSize="20" font-bold="0" font-underline="0" font-alignment="1" strokeStyle="0" markerStart="0" markerEnd="0" shadowEnabled="0" shadowOffsetX="0" shadowOffsetY="2" shadowBlur="4" shadowOpacity="160" blurEnabled="0" blurRadius="4" transform="matrix(0.476802,0,0,0.476802,289.138,101.641)" pers-center="0,0" pers-size="0,0" pers-start="0,0" pers-end="0,0" locked="0" mesh="" flag=""/>
            <path id="shapePath27" d="M287.69,97.8018 C287.213,98.1356 286.832,98.6601 286.832,98.9938 C286.832,99.2799 286.403,99.9474 285.878,100.472 C284.543,101.807 284.591,104.477 285.973,105.431 C287.642,106.623 289.073,106.337 291.075,104.525 C293.078,102.713 293.888,100.758 293.03,99.7567 C292.601,99.2322 288.977,97.0866 288.596,97.1343 C288.548,97.1343 288.119,97.4681 287.69,97.8018 M290.408,100.996 C290.741,101.473 288.93,103.81 288.214,103.81 C287.547,103.81 287.213,101.855 287.785,101.187 C288.5,100.329 289.979,100.234 290.408,100.996 Z" style="stroke:none;fill-rule:nonzero;fill:#000000;fill-opacity:1;"/>
        </g>
        <g id="Shape28">
            <desc shapeID="28" type="0" basicInfo-basicType="0" basicInfo-roundedRectRadius="12" basicInfo-polygonSides="6" basicInfo-starPoints="5" bounding="rect(-7.78194,-8.15281,15.5639,16.3056)" text="" font-familyName="" font-pixelSize="20" font-bold="0" font-underline="0" font-alignment="1" strokeStyle="0" markerStart="0" markerEnd="0" shadowEnabled="0" shadowOffsetX="0" shadowOffsetY="2" shadowBlur="4" shadowOpacity="160" blurEnabled="0" blurRadius="4" transform="matrix(0.476802,0,0,0.476802,29.2312,105.856)" pers-center="0,0" pers-size="0,0" pers-start="0,0" pers-end="0,0" locked="0" mesh="" flag=""/>
            <path id="shapePath28" d="M30.8842,103.38 C30.2644,104.143 29.5015,104.763 29.12,104.763 C28.7863,104.763 28.4048,105.097 28.2141,105.478 C28.0711,105.86 27.4036,106.432 26.736,106.766 C25.4486,107.338 25.0672,109.245 26.1638,109.674 C27.0221,110.008 28.4525,109.15 31.0272,106.718 C32.6007,105.288 33.1252,104.429 32.8868,103.857 C32.7437,103.428 32.553,102.808 32.553,102.474 C32.5053,101.616 32.0762,101.807 30.8842,103.38 Z" style="stroke:none;fill-rule:nonzero;fill:#000000;fill-opacity:1;"/>
        </g>
        <g id="Shape29">
            <desc shapeID="29" type="0" basicInfo-basicType="0" basicInfo-roundedRectRadius="12" basicInfo-polygonSides="6" basicInfo-starPoints="5" bounding="rect(-17.1709,-10.4681,34.3417,20.9363)" text="" font-familyName="" font-pixelSize="20" font-bold="0" font-underline="0" font-alignment="1" strokeStyle="0" markerStart="0" markerEnd="0" shadowEnabled="0" shadowOffsetX="0" shadowOffsetY="2" shadowBlur="4" shadowOpacity="160" blurEnabled="0" blurRadius="4" transform="matrix(0.476802,0,0,0.476802,302.41,113.634)" pers-center="0,0" pers-size="0,0" pers-start="0,0" pers-end="0,0" locked="0" mesh="" flag=""/>
            <path id="shapePath29" d="M295.891,109.245 C295.08,110.294 293.984,114.824 294.27,116.016 C294.413,116.636 294.89,117.208 295.271,117.351 C296.272,117.78 297.417,116.683 297.178,115.634 C296.988,114.871 297.131,114.776 297.941,115.062 C298.513,115.253 299.753,115.539 300.659,115.682 C301.851,115.92 302.518,116.349 302.948,117.303 C303.949,119.353 304.95,118.972 304.95,116.492 L304.95,114.395 L306.714,115.3 C309.003,116.492 310.815,116.492 310.576,115.396 C310.481,114.919 309.909,114.299 309.337,114.013 C308.717,113.727 307.811,113.012 307.286,112.44 C306.667,111.772 305.999,111.486 305.427,111.677 C304.759,111.915 304.616,111.772 304.807,111.009 C304.95,110.389 304.712,110.008 303.997,109.77 C302.709,109.388 302.089,110.103 302.089,112.011 C302.089,113.536 301.851,113.584 299.562,112.63 C297.56,111.82 297.226,111.391 297.798,110.485 C298.704,109.007 297.035,107.91 295.891,109.245 Z" style="stroke:none;fill-rule:nonzero;fill:#000000;fill-opacity:1;"/>
        </g>
        <g id="Shape30">
            <desc shapeID="30" type="0" basicInfo-basicType="0" basicInfo-roundedRectRadius="12" basicInfo-polygonSides="6" basicInfo-starPoints="5" bounding="rect(-3.18919,-3.21407,6.3784,6.42812)" text="" font-familyName="" font-pixelSize="20" font-bold="0" font-underline="0" font-alignment="1" strokeStyle="0" markerStart="0" markerEnd="0" shadowEnabled="0" shadowOffsetX="0" shadowOffsetY="2" shadowBlur="4" shadowOpacity="160" blurEnabled="0" blurRadius="4" transform="matrix(0.476802,0,0,0.476802,342.527,111.336)" pers-center="0,0" pers-size="0,0" pers-start="0,0" pers-end="0,0" locked="0" mesh="" flag=""/>
            <path id="shapePath30" d="M341.95,110.532 C340.949,111.343 340.806,111.677 341.235,112.201 C341.521,112.583 342.284,112.869 342.904,112.869 C343.857,112.869 344.048,112.63 344.048,111.486 C344.048,109.579 343.476,109.34 341.95,110.532 Z" style="stroke:none;fill-rule:nonzero;fill:#000000;fill-opacity:1;"/>
        </g>
        <g id="Shape31">
            <desc shapeID="31" type="0" basicInfo-basicType="0" basicInfo-roundedRectRadius="12" basicInfo-polygonSides="6" basicInfo-starPoints="5" bounding="rect(-7.91882,-5.8678,15.8377,11.7356)" text="" font-familyName="" font-pixelSize="20" font-bold="0" font-underline="0" font-alignment="1" strokeStyle="0" markerStart="0" markerEnd="0" shadowEnabled="0" shadowOffsetX="0" shadowOffsetY="2" shadowBlur="4" shadowOpacity="160" blurEnabled="0" blurRadius="4" transform="matrix(0.476802,0,0,0.476802,29.7965,113.139)" pers-center="0,0" pers-size="0,0" pers-start="0,0" pers-end="0,0" locked="0" mesh="" flag=""/>
            <path id="shapePath31" d="M31.7424,110.389 C31.361,110.532 30.9319,110.771 30.7888,110.914 C30.6458,111.105 29.5492,111.82 28.3095,112.535 C26.8791,113.346 26.0208,114.204 26.0208,114.728 C26.0208,115.777 27.6896,116.349 28.5479,115.587 C28.834,115.253 29.9783,114.585 30.9796,114.061 C33.3636,112.821 34.1265,111.677 33.1729,110.771 C32.7914,110.437 32.1239,110.246 31.7424,110.389 Z" style="stroke:none;fill-rule:nonzero;fill:#000000;fill-opacity:1;"/>
        </g>
        <g id="Shape32">
            <desc shapeID="32" type="0" basicInfo-basicType="0" basicInfo-roundedRectRadius="12" basicInfo-polygonSides="6" basicInfo-starPoints="5" bounding="rect(-14.3128,-10.6636,28.6257,21.3273)" text="" font-familyName="" font-pixelSize="20" font-bold="0" font-underline="0" font-alignment="1" strokeStyle="0" markerStart="0" markerEnd="0" shadowEnabled="0" shadowOffsetX="0" shadowOffsetY="2" shadowBlur="4" shadowOpacity="160" blurEnabled="0" blurRadius="4" transform="matrix(0.476802,0,0,0.476802,274.289,117.082)" pers-center="0,0" pers-size="0,0" pers-start="0,0" pers-end="0,0" locked="0" mesh="" flag=""/>
            <path id="shapePath32" d="M270.763,112.249 C268.809,112.392 268.141,112.678 267.712,113.441 C266.949,114.824 267.95,115.348 270.763,114.967 L273.052,114.681 L272.909,118.447 L272.766,122.166 L274.196,122.166 C275.531,122.166 275.627,122.023 275.484,120.641 L275.388,119.067 L277.82,119.163 C281.348,119.21 282.397,117.589 279.203,117.017 C276.342,116.492 275.865,116.159 275.865,114.585 C275.865,112.916 275.102,111.868 274.006,112.011 C273.577,112.058 272.098,112.154 270.763,112.249 Z" style="stroke:none;fill-rule:nonzero;fill:#000000;fill-opacity:1;"/>
        </g>
        <g id="Shape33">
            <desc shapeID="33" type="0" basicInfo-basicType="0" basicInfo-roundedRectRadius="12" basicInfo-polygonSides="6" basicInfo-starPoints="5" bounding="rect(-6.64571,-17.3384,13.2914,34.6768)" text="" font-familyName="" font-pixelSize="20" font-bold="0" font-underline="0" font-alignment="1" strokeStyle="0" markerStart="0" markerEnd="0" shadowEnabled="0" shadowOffsetX="0" shadowOffsetY="2" shadowBlur="4" shadowOpacity="160" blurEnabled="0" blurRadius="4" transform="matrix(0.476802,0,0,0.476802,57.7957,148.313)" pers-center="0,0" pers-size="0,0" pers-start="0,0" pers-end="0,0" locked="0" mesh="" flag=""/>
            <path id="shapePath33" d="M54.9627,140.38 C54.3905,140.905 54.5813,143.909 55.2965,145.434 C55.964,147.055 57.2037,150.918 57.2514,151.728 C57.2514,151.967 57.3944,152.396 57.5851,152.682 C57.7282,152.92 58.0142,153.874 58.205,154.684 C58.5864,156.544 59.0632,156.925 60.3029,156.305 C61.0181,155.876 61.1134,155.543 60.7797,154.017 C60.1598,150.965 59.54,149.01 58.2526,145.625 C57.5851,143.861 57.013,141.858 57.013,141.238 C57.013,140.38 56.7746,140.046 56.1547,140.046 C55.6779,140.046 55.1058,140.19 54.9627,140.38 Z" style="stroke:none;fill-rule:nonzero;fill:#000000;fill-opacity:1;"/>
        </g>
        <g id="Shape34">
            <desc shapeID="34" type="0" basicInfo-basicType="0" basicInfo-roundedRectRadius="12" basicInfo-polygonSides="6" basicInfo-starPoints="5" bounding="rect(-21.4146,-13.2572,42.8293,26.5143)" text="" font-familyName="" font-pixelSize="20" font-bold="0" font-underline="0" font-alignment="1" strokeStyle="0" markerStart="0" markerEnd="0" shadowEnabled="0" shadowOffsetX="0" shadowOffsetY="2" shadowBlur="4" shadowOpacity="160" blurEnabled="0" blurRadius="4" transform="matrix(0.476802,0,0,0.476802,51.5236,164.054)" pers-center="0,0" pers-size="0,0" pers-start="0,0" pers-end="0,0" locked="0" mesh="" flag=""/>
            <path id="shapePath34" d="M54.1521,158.451 C52.9601,158.785 49.7656,159.357 47.0478,159.691 C43.2334,160.168 41.9937,160.501 41.5646,161.169 C41.1355,161.836 41.2308,162.17 42.0414,162.838 C42.5659,163.267 43.5195,164.983 44.1393,166.652 C45.3313,169.99 45.6651,170.276 47.8584,170.371 C49.1457,170.419 49.7179,170.085 51.1006,168.416 L52.8171,166.414 L54.5336,167.272 C55.964,167.987 56.6315,168.082 58.0619,167.653 C60.4459,167.034 61.2088,166.175 61.5903,163.648 C61.9717,160.883 61.638,160.072 60.0645,160.072 C58.8725,160.072 58.8248,160.168 59.0632,161.979 C59.4923,165.269 57.7758,166.128 54.4382,164.316 L52.6264,163.362 L50.5761,165.603 C49.2411,167.034 48.2398,167.749 47.763,167.558 C46.9047,167.224 44.9499,163.553 45.2836,162.981 C45.4267,162.79 47.0001,162.456 48.7643,162.313 C50.5285,162.122 53.3893,161.646 55.1534,161.217 L58.3003,160.454 L57.6328,159.071 C57.2514,158.308 56.7746,157.688 56.6315,157.736 C56.4408,157.784 55.3442,158.07 54.1521,158.451 Z" style="stroke:none;fill-rule:nonzero;fill:#000000;fill-opacity:1;"/>
        </g>
        <g id="Shape35">
            <desc shapeID="35" type="0" basicInfo-basicType="0" basicInfo-roundedRectRadius="12" basicInfo-polygonSides="6" basicInfo-starPoints="5" bounding="rect(-2.47791,-0.288023,4.95583,0.575926)" text="" font-familyName="" font-pixelSize="20" font-bold="0" font-underline="0" font-alignment="1" strokeStyle="0" markerStart="0" markerEnd="0" shadowEnabled="0" shadowOffsetX="0" shadowOffsetY="2" shadowBlur="4" shadowOpacity="160" blurEnabled="0" blurRadius="4" transform="matrix(1,0,0,1,3.65179,3507.56)" pers-center="0,0" pers-size="0,0" pers-start="0,0" pers-end="0,0" locked="0" mesh="" flag=""/>
            <path id="shapePath35" d="M1.8,3507.7 C3,3507.9 4.8,3507.9 5.8,3507.7 C6.7,3507.4 5.7,3507.2 3.5,3507.3 C1.3,3507.3 0.5,3507.5 1.8,3507.7 Z" style="stroke:none;fill-rule:nonzero;fill:#000000;fill-opacity:1;"/>
        </g>
        <g id="Shape36">
            <desc shapeID="36" type="0" basicInfo-basicType="0" basicInfo-roundedRectRadius="12" basicInfo-polygonSides="6" basicInfo-starPoints="5" bounding="rect(-128.443,-198.686,256.886,397.372)" text="" font-familyName="" font-pixelSize="20" font-bold="0" font-underline="0" font-alignment="1" strokeStyle="0" markerStart="0" markerEnd="0" shadowEnabled="0" shadowOffsetX="0" shadowOffsetY="2" shadowBlur="4" shadowOpacity="160" blurEnabled="0" blurRadius="4" transform="matrix(0.476802,0,0,0.476802,229.766,294.734)" pers-center="0,0" pers-size="0,0" pers-start="0,0" pers-end="0,0" locked="0" mesh="" flag=""/>
            <path id="shapePath36" d="M202.346,200.354 C188.376,201.641 178.411,202.833 177.648,203.31 C177.314,203.501 177.076,204.025 177.171,204.455 C177.267,205.074 177.886,205.17 180.175,205.074 C181.748,205.027 183.942,204.788 185.038,204.598 L187.041,204.216 L186.23,205.313 C185.229,206.695 183.37,206.743 177.457,205.742 C175.169,205.313 173.166,205.027 172.928,205.074 C172.737,205.122 171.926,205.027 171.163,204.788 C170.115,204.502 169.685,204.598 169.352,205.217 C168.636,206.457 168.303,217.28 168.684,223.86 C168.827,225.672 168.922,232.872 168.922,239.833 C168.922,257.666 168.97,259.573 169.542,259.907 C169.876,260.097 169.828,260.288 169.447,260.431 C169.018,260.574 168.875,266.391 168.875,285.273 C168.875,298.814 169.018,310.066 169.161,310.305 C169.304,310.495 169.495,314.882 169.685,319.984 C170.162,337.101 170.401,341.917 170.591,342.298 C170.734,342.489 170.973,346.303 171.116,350.738 C171.259,355.172 171.497,359.129 171.593,359.511 C172.26,361.942 173.214,371.812 172.928,373.481 L172.689,375.15 L176.647,376.389 C178.84,377.057 183.322,378.058 186.564,378.583 C189.806,379.107 193.525,379.822 194.908,380.204 C196.243,380.585 199.152,381.205 201.393,381.682 C203.634,382.111 207.591,382.969 210.214,383.589 C212.836,384.209 217.223,384.972 219.988,385.306 C222.753,385.592 226.52,386.164 228.332,386.545 C231.956,387.261 238.869,388.262 245.259,388.977 C249.931,389.501 262.185,389.454 263.615,388.882 C264.378,388.596 264.426,388.596 263.854,389.025 C263.329,389.454 264.092,389.549 267.096,389.406 C271.244,389.215 272.055,388.834 271.626,387.117 C271.34,386.116 269.099,385.83 269.099,386.784 C269.099,387.261 269.003,387.261 268.669,386.784 C268.383,386.307 267.525,386.212 265.237,386.45 C262.614,386.688 259.133,386.688 245.163,386.545 C243.923,386.545 243.018,386.355 243.113,386.212 C243.256,386.021 241.778,385.735 239.871,385.592 C237.963,385.401 234.149,384.877 231.431,384.352 C228.666,383.828 225.376,383.303 224.041,383.16 C218.51,382.54 217.413,382.349 214.123,381.682 C209.117,380.633 199.39,378.63 198.294,378.44 C197.769,378.344 196.958,378.058 196.434,377.868 C195.957,377.677 194.527,377.438 193.287,377.438 C192.047,377.391 191.094,377.248 191.189,377.105 C191.332,376.819 190.426,376.628 182.035,375.054 C175.216,373.767 175.407,373.958 174.93,368.093 C174.739,366.138 174.31,363.182 173.929,361.513 C173.595,359.892 173.214,357.556 173.166,356.411 C173.118,355.029 172.928,354.409 172.594,354.6 C172.212,354.838 172.212,354.743 172.594,354.218 C173.214,353.408 172.832,341.297 172.022,337.101 C171.974,336.719 171.879,335.48 171.879,334.335 C171.831,332.857 171.64,332.333 171.068,332.333 C170.401,332.333 170.401,332.238 171.068,331.618 C171.64,330.998 171.783,329.663 171.688,324.227 C171.64,320.556 171.45,317.552 171.259,317.552 C171.116,317.552 171.116,317.028 171.259,316.36 C171.736,314.643 171.354,309.399 170.782,309.733 C170.448,309.923 170.448,309.733 170.734,309.16 C171.02,308.636 171.163,307.491 171.068,306.586 C171.02,305.68 170.925,303.248 170.877,301.198 C170.83,298.718 170.639,297.526 170.258,297.526 C169.876,297.526 169.876,297.383 170.305,297.097 C170.83,296.811 170.925,295.571 170.687,291.519 C170.544,288.658 170.448,285.129 170.448,283.699 C170.639,274.831 170.877,239.833 170.83,233.873 C170.687,218.902 170.734,213.275 171.068,210.081 L171.45,206.839 L173.881,207.077 C178.077,207.506 185.372,208.746 186.803,209.27 C187.518,209.556 189.663,209.89 191.523,210.033 C196.148,210.415 197.435,210.701 197.769,211.464 C197.912,211.893 198.675,212.131 199.819,212.083 C201.965,211.988 205.827,212.369 215.22,213.609 C219.034,214.086 223.85,214.61 225.948,214.801 C228.046,214.944 230.954,215.278 232.385,215.516 C233.815,215.755 236.104,216.088 237.391,216.232 C238.726,216.375 240.3,216.565 240.967,216.708 C241.635,216.804 243.542,217.042 245.259,217.185 C246.975,217.328 249.025,217.519 249.788,217.614 C251.505,217.853 257.083,218.234 264.045,218.663 L269.194,218.949 L268.908,222.621 C268.717,224.623 268.383,227.961 268.145,230.059 C267.907,232.157 267.573,236.21 267.43,239.118 C267.334,241.979 267.048,246.27 266.858,248.654 C266.619,250.99 266.476,255.568 266.476,258.762 C266.476,261.909 266.285,264.436 266.095,264.293 C265.904,264.15 265.761,265.008 265.809,266.153 C265.856,268.155 265.475,280.505 264.998,291.09 C264.426,302.962 264.474,321.271 265.093,326.85 C265.427,329.997 265.713,336.624 265.761,341.631 C265.761,346.589 265.952,352.931 266.19,355.696 C266.429,358.462 266.762,363.468 266.905,366.901 C267.573,381.682 267.907,384.161 269.242,383.685 C269.623,383.589 269.814,382.302 269.814,380.204 L269.814,376.914 L272.913,377.057 C276.06,377.2 280.971,375.865 280.208,375.054 C280.017,374.864 280.208,374.864 280.637,375.007 C281.305,375.293 283.307,374.625 288.075,372.575 C289.649,371.908 290.126,370.62 288.934,370.191 C288.552,370.048 287.551,370.286 286.645,370.763 C284.642,371.86 279.827,373.529 276.727,374.292 C275.44,374.625 274.343,375.007 274.343,375.197 C274.343,375.34 273.485,375.436 272.436,375.34 C271.387,375.245 270.529,374.959 270.529,374.721 C270.529,374.53 270.195,374.435 269.814,374.578 C269.242,374.816 269.099,374.339 269.051,371.86 C269.051,370.191 268.956,367.664 268.813,366.281 L268.574,363.802 L270.863,363.754 C279.636,363.516 283.069,363.277 284.881,362.896 C285.977,362.658 287.074,362.515 287.265,362.658 C287.789,362.944 288.123,361.656 287.742,360.989 C287.456,360.512 286.693,360.512 284.452,360.941 C281.4,361.466 268.669,361.561 268.574,361.036 C268.526,360.846 268.431,359.463 268.383,357.937 C268.193,354.79 268.145,354.838 272.198,356.221 C275.106,357.222 281.495,357.937 281.495,357.27 C281.495,356.888 284.213,355.506 284.928,355.458 C285.644,355.458 286.359,354.314 286.12,353.598 C285.834,352.883 284.547,352.978 283.88,353.741 C283.498,354.218 281.4,355.315 281.257,355.124 C281.114,354.981 280.59,349.879 280.542,348.401 C280.542,347.829 280.303,347.638 279.97,347.877 C279.493,348.115 279.493,348.067 279.874,347.638 C280.447,347.018 280.017,342.346 278.873,336.672 C278.492,334.717 278.253,333.048 278.349,332.905 C278.492,332.81 278.253,332.333 277.824,331.904 C277.061,331.189 277.109,331.141 278.015,330.998 C278.825,330.855 282.163,331.808 285.453,333.048 C286.073,333.287 286.264,333.143 286.264,332.428 C286.264,331.713 285.596,331.284 283.45,330.473 C278.968,328.852 276.632,328.566 273.771,329.281 C271.053,329.997 269.003,331.856 269.194,333.477 C269.385,334.765 270.529,335.051 270.529,333.811 C270.529,332.619 272.246,331.427 274.487,331.046 C276.06,330.807 276.108,330.855 275.917,332.047 C275.774,332.714 275.774,333.62 275.965,334.002 C276.108,334.383 276.251,334.908 276.298,335.098 C276.394,335.289 276.68,336.386 277.061,337.53 C277.681,339.58 277.633,339.723 276.394,341.058 C275.535,341.964 275.249,342.536 275.631,342.68 C275.965,342.775 276.727,343.299 277.3,343.776 C278.206,344.491 278.396,344.968 278.253,346.542 C278.11,348.115 277.872,348.496 276.871,348.783 C276.012,348.973 275.774,349.307 275.869,350.118 C275.965,350.69 276.346,351.167 276.727,351.167 C277.109,351.167 277.681,351.357 278.015,351.548 C278.635,351.93 278.73,355.124 278.063,355.506 C277.443,355.887 271.483,354.743 271.483,354.218 C271.483,353.98 271.149,353.789 270.815,353.789 C270.434,353.789 269.575,353.312 268.908,352.692 C267.811,351.643 267.716,351.31 267.716,346.16 C267.668,337.196 267.287,326.993 266.953,324.895 L266.619,322.94 L269.575,322.845 C271.244,322.797 272.722,322.654 272.913,322.558 C273.104,322.415 275.154,322.225 277.49,322.082 C283.212,321.7 289.696,320.985 289.983,320.699 C290.078,320.556 290.078,320.127 289.887,319.698 C289.601,318.839 287.599,318.887 278.396,319.984 C274.153,320.461 268.097,320.556 267.048,320.127 C266.476,319.936 266.381,318.363 266.524,310.019 C266.715,299.72 266.905,292.806 267.477,281.41 C267.764,275.403 267.907,274.64 268.669,274.64 C269.099,274.64 269.862,274.02 270.386,273.257 C272.293,270.206 278.206,262.815 278.921,262.529 C279.302,262.386 279.493,262.005 279.35,261.766 C279.159,261.48 279.255,261.337 279.493,261.385 C279.731,261.48 280.971,260.622 282.211,259.478 C284.881,257.093 285.501,256.855 285.596,258.333 C285.644,258.905 285.787,261.003 285.977,262.91 C286.264,266.248 286.264,266.439 285.358,266.2 C284.404,265.962 283.164,267.536 283.784,268.203 C283.975,268.441 283.832,268.441 283.498,268.251 C282.688,267.774 274.63,275.832 275.106,276.642 C275.297,276.929 275.249,277.024 274.963,276.881 C274.248,276.452 268.431,283.127 268.05,284.796 C267.43,287.704 268.622,288.419 269.814,285.845 C270.243,284.939 270.91,283.985 271.292,283.651 C271.673,283.365 271.959,282.889 271.959,282.65 C271.959,281.792 286.025,267.44 286.454,267.869 C286.597,268.012 286.74,269.061 286.74,270.206 C286.74,271.302 286.883,272.256 287.122,272.256 C287.312,272.256 287.456,274.974 287.503,278.359 C287.503,281.697 287.599,286.56 287.646,289.182 C287.789,293.235 287.694,293.95 287.074,293.807 C286.693,293.76 285.548,294.761 284.547,296.144 C279.922,302.294 280.065,302.056 281.4,302.39 C282.211,302.628 283.403,301.77 283.403,301.007 C283.403,300.769 284.356,299.577 285.548,298.289 C286.74,297.002 287.694,295.714 287.742,295.428 C287.789,295.142 287.98,295.667 288.171,296.573 C288.457,297.765 288.409,298.528 287.885,299.29 C287.503,299.91 287.312,300.387 287.503,300.387 C287.646,300.387 287.456,300.912 287.026,301.579 C286.597,302.199 286.264,303.296 286.264,303.915 C286.264,305.012 286.359,305.107 287.408,304.631 C288.075,304.297 288.695,303.629 288.838,303.057 C288.981,302.485 289.553,301.484 290.078,300.864 C291.127,299.672 291.27,298.528 290.602,296.239 C290.173,294.761 289.649,287.943 289.458,281.315 C289.41,279.36 289.172,277.596 288.886,277.405 C288.552,277.167 288.6,277.024 288.934,277.024 C289.553,277.024 289.363,270.015 288.648,266.391 C288.361,265.152 288.171,263.244 288.171,262.243 C288.171,261.003 287.885,260.193 287.36,259.859 C286.693,259.43 286.645,259.382 287.265,259.525 C287.837,259.716 287.98,259.478 287.837,258.524 C287.742,257.809 287.551,254.757 287.456,251.753 C287.122,244.601 286.359,232.824 286.073,231.012 C285.93,230.202 285.691,227.103 285.548,224.099 C285.215,216.661 284.928,213.132 284.118,205.074 C283.689,201.022 283.498,200.64 282.258,201.022 C280.923,201.498 235.627,201.308 227.855,200.783 C224.47,200.592 220.56,200.449 219.177,200.449 C217.842,200.497 216.793,200.402 216.889,200.259 C217.127,199.877 206.828,199.925 202.346,200.354 M208.163,203.835 C207.448,204.407 206.161,205.265 205.35,205.694 C204.492,206.123 203.777,206.695 203.777,206.934 C203.777,207.22 203.491,207.411 203.109,207.411 C202.728,207.411 202.108,207.792 201.774,208.269 C201.44,208.746 200.725,209.27 200.248,209.461 C199.486,209.747 199.438,209.699 199.962,209.08 C200.439,208.46 200.391,208.364 199.533,208.364 C198.627,208.364 198.675,208.221 200.105,206.934 C201.011,206.123 201.917,205.503 202.06,205.503 C202.251,205.503 203.205,204.884 204.158,204.121 C206.828,201.975 210.69,201.689 208.163,203.835 M216.174,202.643 C216.698,202.643 216.65,202.833 215.935,203.406 C215.411,203.787 215.029,204.359 215.125,204.598 C215.172,204.884 215.029,204.931 214.743,204.788 C214.457,204.598 213.837,204.788 213.408,205.17 C212.979,205.551 212.121,206.028 211.549,206.171 C210.929,206.362 209.594,207.363 208.545,208.412 C206.876,210.081 206.399,210.319 205.207,210.033 C204.397,209.842 203.777,209.556 203.777,209.413 C203.777,209.223 205.207,208.221 206.876,207.172 C211.215,204.55 211.787,204.073 211.072,203.787 C210.738,203.644 210.452,203.263 210.452,202.929 C210.452,202.452 212.168,202.357 216.174,202.643 M222.992,202.976 C223.183,203.119 222.324,203.882 221.085,204.693 C219.845,205.503 218.51,206.457 218.176,206.791 C217.842,207.125 217.318,207.411 217.08,207.411 C216.555,207.411 214.743,209.175 214.743,209.747 C214.743,209.985 215.029,210.415 215.411,210.701 C215.935,211.13 216.364,210.987 217.461,209.985 C218.176,209.27 220.274,207.792 222.038,206.6 C223.802,205.456 225.376,204.216 225.519,203.835 C225.71,203.31 226.52,203.119 228.284,203.119 C230.573,203.167 230.668,203.215 229.762,203.882 C229.238,204.264 227.14,205.599 225.09,206.791 C221.323,208.984 220.179,210.224 220.656,211.559 C220.942,212.179 220.608,212.274 218.701,211.988 C217.413,211.845 215.077,211.559 213.408,211.368 C211.787,211.225 210.309,210.891 210.166,210.653 C209.832,210.128 211.119,208.793 212.931,207.84 C216.507,205.885 217.413,205.265 218.51,204.025 C219.607,202.786 221.752,202.309 222.992,202.976 M196.148,203.501 C196.148,203.692 195.242,204.455 194.193,205.217 C193.144,205.933 192.381,206.695 192.524,206.839 C192.667,206.982 192.572,207.363 192.286,207.697 C191.761,208.364 189.139,208.126 188.328,207.363 C187.756,206.839 191.189,203.692 192.524,203.501 C194.765,203.167 196.148,203.167 196.148,203.501 M200.534,204.311 C199.724,204.979 198.913,205.503 198.723,205.503 C198.532,205.503 197.626,206.171 196.768,207.029 C195.766,208.031 195.051,208.412 194.717,208.078 C194.145,207.506 199.724,203.119 201.059,203.119 C201.774,203.119 201.679,203.358 200.534,204.311 M258.275,203.692 C260.945,203.692 263.568,203.882 264.092,204.073 C264.712,204.359 264.807,204.502 264.331,204.502 C263.949,204.55 262.805,205.313 261.851,206.219 C260.898,207.125 259.896,207.888 259.61,207.888 C259.372,207.888 258.847,208.174 258.514,208.507 C258.18,208.841 256.94,209.89 255.748,210.796 C252.315,213.418 251.457,214.277 251.457,214.944 C251.457,215.469 250.789,215.564 248.358,215.421 C246.641,215.278 245.115,215.087 244.972,214.944 C244.448,214.372 249.55,210.891 254.699,208.317 C257.703,206.791 258.561,205.503 256.511,205.503 C254.89,205.503 246.021,210.462 242.731,213.228 C241.206,214.563 240.252,214.753 238.202,214.134 L237.105,213.848 L238.44,212.417 C240.443,210.224 243.208,208.269 247.166,206.219 C249.121,205.217 250.837,204.264 250.98,204.073 C251.314,203.596 252.601,203.215 253.03,203.453 C253.221,203.549 255.557,203.692 258.275,203.692 M237.63,204.311 C237.296,204.693 236.867,205.027 236.676,205.027 C236.438,205.027 234.817,205.98 233.005,207.172 C231.241,208.364 229.572,209.318 229.286,209.318 C229.047,209.318 228.094,210.081 227.188,210.987 C225.996,212.226 225.185,212.656 223.993,212.656 C220.322,212.656 222.896,210.128 230.954,205.837 C232.385,205.074 233.768,204.264 234.054,204.025 C234.292,203.787 235.341,203.596 236.342,203.596 C237.963,203.596 238.154,203.692 237.63,204.311 M246.975,203.93 C246.88,204.168 245.545,204.931 243.971,205.742 C242.445,206.505 241.11,207.268 240.967,207.411 C240.824,207.601 239.966,208.174 239.012,208.746 C237.248,209.795 236.199,211.511 236.199,213.228 C236.199,213.991 235.961,214.134 235.15,213.943 C234.53,213.752 233.1,213.514 231.908,213.371 C230.716,213.18 229.476,212.942 229.095,212.846 C228.38,212.608 231.574,210.272 236.581,207.458 C239.823,205.599 240.729,204.455 239.442,203.93 C239.108,203.787 240.729,203.644 243.018,203.644 C245.354,203.596 247.118,203.739 246.975,203.93 M273.533,203.882 C274.2,204.121 273.914,204.502 272.007,206.028 C270.72,207.029 269.528,207.888 269.337,207.888 C269.051,207.888 265.237,210.701 264.807,211.273 C264.664,211.464 263.854,211.988 262.948,212.512 C260.802,213.704 260.039,214.896 260.993,215.516 C261.804,216.041 260.945,216.136 257.226,215.993 C255.081,215.898 252.315,215.135 253.984,215.087 C254.413,215.04 254.795,214.849 254.795,214.61 C254.795,214.372 256.225,213.037 258.037,211.654 C259.801,210.272 261.47,208.889 261.708,208.603 C262.376,207.792 266.047,205.98 266.953,205.98 C267.621,205.98 267.859,205.456 267.716,204.216 C267.621,203.644 271.912,203.406 273.533,203.882 M280.494,204.407 C279.731,205.408 279.016,206.028 276.155,208.364 C272.103,211.654 269.575,214.515 269.719,215.564 C269.814,216.565 269.671,216.613 266.238,216.518 C264.283,216.422 262.566,216.327 262.471,216.232 C262.185,215.945 263.329,214.944 268.336,211.177 C270.958,209.223 273.962,206.982 275.106,206.123 C276.203,205.313 277.252,204.359 277.443,204.121 C277.586,203.835 278.492,203.596 279.445,203.596 C280.971,203.596 281.066,203.692 280.494,204.407 M282.401,213.132 C282.401,214.372 282.258,215.04 282.068,214.658 C281.829,214.372 281.114,214.134 280.447,214.181 C279.731,214.229 279.302,214.467 279.398,214.658 C279.636,215.04 277.919,216.947 277.347,216.947 C277.109,216.994 276.108,218.091 275.059,219.426 C274.01,220.761 272.865,222.144 272.484,222.525 C271.34,223.717 270.958,222.478 271.769,219.855 C272.15,218.473 272.436,217.28 272.341,217.185 C272.246,217.137 271.864,216.899 271.435,216.661 C270.815,216.327 271.769,215.278 276.203,211.273 L281.734,206.314 L282.068,208.65 C282.211,209.938 282.401,211.94 282.401,213.132 M282.926,219.521 L282.926,223.527 L281.448,223.86 C280.637,224.051 279.874,224.528 279.731,224.909 C279.493,225.481 276.108,228.867 273.676,231.012 C273.342,231.251 272.389,232.109 271.53,232.92 L270.005,234.35 L270.148,230.154 C270.291,225.768 270.291,225.815 272.77,225.863 C273.104,225.863 273.295,225.72 273.247,225.529 C273.151,225.195 274.487,223.384 277.443,219.903 C278.682,218.473 282.258,215.516 282.783,215.516 C282.831,215.516 282.926,217.328 282.926,219.521 M283.307,229.248 C283.355,230.869 283.212,232.204 282.974,232.204 C282.735,232.204 280.447,234.684 277.872,237.735 C275.249,240.787 272.341,244.077 271.387,245.126 C269.957,246.652 269.719,247.224 270.005,248.034 C270.624,249.703 271.34,249.56 272.389,247.605 C272.913,246.604 274.248,244.84 275.392,243.648 C276.537,242.456 278.206,240.548 279.111,239.404 C281.257,236.686 283.45,234.588 283.88,234.827 C284.07,234.922 284.261,236.639 284.309,238.641 C284.404,241.454 284.261,242.265 283.689,242.503 C283.307,242.646 282.831,243.219 282.64,243.791 C282.449,244.363 280.733,246.413 278.73,248.368 C275.726,251.42 273.676,253.708 269.766,258.524 C268.431,260.24 268.097,259.478 268.336,255.186 C268.479,252.898 268.717,249.941 268.908,248.654 C269.051,247.319 269.337,244.315 269.48,241.979 C269.766,238.403 269.957,237.688 270.577,237.831 C271.053,237.878 271.578,237.402 271.959,236.543 C272.77,234.588 281.782,225.911 282.688,226.197 C282.974,226.244 283.212,227.627 283.307,229.248 M285.024,247.319 C285.834,253.041 285.215,254.137 277.109,261.337 C274.677,263.53 271.53,267.583 271.816,268.251 C271.959,268.632 271.864,268.918 271.626,268.823 C271.387,268.728 270.577,269.395 269.862,270.206 C269.146,271.064 268.383,271.779 268.145,271.779 C267.954,271.779 267.859,269.967 267.954,267.726 C268.05,264.865 268.336,263.435 268.908,262.768 C269.337,262.291 270.148,261.337 270.72,260.717 C274.487,256.474 275.822,254.519 275.583,253.851 C275.44,253.47 275.488,253.279 275.774,253.422 C276.251,253.708 283.88,246.318 283.88,245.555 C283.88,245.269 284.07,245.078 284.309,245.078 C284.499,245.078 284.833,246.079 285.024,247.319 M236.676,386.212 C236.676,386.45 236.581,386.688 236.485,386.688 C236.342,386.688 236.104,386.45 235.961,386.212 C235.818,385.925 235.913,385.735 236.152,385.735 C236.438,385.735 236.676,385.925 236.676,386.212 Z" style="stroke:none;fill-rule:nonzero;fill:#000000;fill-opacity:1;"/>
        </g>
        <g id="Shape37">
            <desc shapeID="37" type="0" basicInfo-basicType="0" basicInfo-roundedRectRadius="12" basicInfo-polygonSides="6" basicInfo-starPoints="5" bounding="rect(-19.2848,-22.5542,38.5696,45.1085)" text="" font-familyName="" font-pixelSize="20" font-bold="0" font-underline="0" font-alignment="1" strokeStyle="0" markerStart="0" markerEnd="0" shadowEnabled="0" shadowOffsetX="0" shadowOffsetY="2" shadowBlur="4" shadowOpacity="160" blurEnabled="0" blurRadius="4" transform="matrix(0.476802,0,0,0.476802,277.071,286.62)" pers-center="0,0" pers-size="0,0" pers-start="0,0" pers-end="0,0" locked="0" mesh="" flag=""/>
            <path id="shapePath37" d="M282.878,278.12 C280.208,280.695 277.3,284.081 274.344,287.895 C273.438,289.135 272.436,290.279 272.15,290.47 C271.864,290.66 270.72,291.995 269.575,293.474 C267.716,295.905 267.573,296.239 268.24,296.906 C268.908,297.574 269.051,297.526 269.766,296.763 C270.148,296.239 271.435,294.761 272.579,293.474 C273.724,292.138 275.679,289.802 276.918,288.229 C278.11,286.655 279.588,284.748 280.208,283.985 C280.78,283.27 282.401,281.553 283.784,280.218 C286.073,277.977 286.836,276.452 285.834,275.88 C285.644,275.736 284.309,276.738 282.878,278.12 Z" style="stroke:none;fill-rule:nonzero;fill:#000000;fill-opacity:1;"/>
        </g>
        <g id="Shape38">
            <desc shapeID="38" type="0" basicInfo-basicType="0" basicInfo-roundedRectRadius="12" basicInfo-polygonSides="6" basicInfo-starPoints="5" bounding="rect(-25.0833,-26.6358,50.1665,53.2714)" text="" font-familyName="" font-pixelSize="20" font-bold="0" font-underline="0" font-alignment="1" strokeStyle="0" markerStart="0" markerEnd="0" shadowEnabled="0" shadowOffsetX="0" shadowOffsetY="2" shadowBlur="4" shadowOpacity="160" blurEnabled="0" blurRadius="4" transform="matrix(0.476802,0,0,0.476802,279.933,298.347)" pers-center="0,0" pers-size="0,0" pers-start="0,0" pers-end="0,0" locked="0" mesh="" flag=""/>
            <path id="shapePath38" d="M283.069,287.37 C281.066,290.041 279.97,291.376 278.539,292.901 C277.776,293.664 277.204,294.379 277.204,294.475 C277.204,294.618 276.584,295.238 275.821,295.905 C275.059,296.525 274.105,297.765 273.724,298.623 C273.056,300.006 272.77,300.196 271.483,300.006 C270.195,299.815 270.005,299.958 269.051,302.104 C267.764,305.012 267.621,307.682 268.669,307.921 C269.194,308.016 269.671,307.253 270.338,305.155 C271.244,302.342 271.292,302.294 272.961,302.294 C274.916,302.294 284.404,306.729 287.217,308.97 C290.173,311.306 292.51,311.783 291.747,309.828 C291.365,308.97 282.831,303.725 281.782,303.725 C280.78,303.725 279.493,302.533 279.97,302.056 C280.16,301.818 280.065,301.818 279.731,301.961 C279.445,302.151 278.253,301.818 277.061,301.245 C275.488,300.435 275.059,300.006 275.488,299.624 C275.774,299.338 276.68,298.289 277.443,297.336 C279.016,295.381 280.923,293.187 282.592,291.328 C284.595,289.135 285.882,286.989 285.596,286.321 C285.167,285.177 284.499,285.463 283.069,287.37 Z" style="stroke:none;fill-rule:nonzero;fill:#000000;fill-opacity:1;"/>
        </g>
        <g id="Shape39">
            <desc shapeID="39" type="0" basicInfo-basicType="0" basicInfo-roundedRectRadius="12" basicInfo-polygonSides="6" basicInfo-starPoints="5" bounding="rect(-23.8543,-20.0113,47.7086,40.0224)" text="" font-familyName="" font-pixelSize="20" font-bold="0" font-underline="0" font-alignment="1" strokeStyle="0" markerStart="0" markerEnd="0" shadowEnabled="0" shadowOffsetX="0" shadowOffsetY="2" shadowBlur="4" shadowOpacity="160" blurEnabled="0" blurRadius="4" transform="matrix(0.476802,0,0,0.476802,339.18,316.037)" pers-center="0,0" pers-size="0,0" pers-start="0,0" pers-end="0,0" locked="0" mesh="" flag=""/>
            <path id="shapePath39" d="M348.915,306.967 C348.629,307.158 348.2,308.445 348.009,309.78 C347.819,311.163 347.533,312.403 347.294,312.546 C347.104,312.689 344.815,312.593 342.24,312.307 C339.475,312.069 337.329,312.069 337.091,312.307 C336.852,312.546 335.851,312.069 334.659,311.067 C333.562,310.209 332.418,309.446 332.132,309.446 C331.178,309.446 328.699,312.117 328.27,313.547 C327.078,317.79 328.27,321.843 330.892,322.511 C332.752,322.988 334.85,321.986 335.231,320.461 C335.374,319.793 335.708,318.982 335.899,318.696 C336.137,318.41 336.375,317.171 336.423,315.979 C336.519,314.167 336.709,313.785 337.281,314.024 C337.663,314.214 339.57,314.501 341.43,314.739 C347.866,315.406 347.533,315.168 347.485,318.887 C347.437,323.655 348.582,326.373 350.203,325.372 C350.68,325.086 350.489,323.226 349.869,322.272 C349.392,321.462 349.583,311.354 350.155,309.446 C350.966,306.681 350.537,305.87 348.915,306.967 M333.896,313.928 C334.516,314.643 334.468,317.934 333.848,318.315 C333.61,318.458 333.562,318.744 333.705,318.982 C334.087,319.65 332.132,320.508 331.083,320.174 C330.034,319.841 329.414,318.124 329.748,316.36 C329.939,315.549 329.796,315.168 329.319,315.168 C328.794,315.168 328.794,315.025 329.271,314.548 C329.605,314.167 330.225,313.976 330.654,314.071 C331.083,314.214 331.607,314.071 331.75,313.785 C332.227,313.07 333.229,313.118 333.896,313.928 Z" style="stroke:none;fill-rule:nonzero;fill:#000000;fill-opacity:1;"/>
        </g>
        <g id="Shape40">
            <desc shapeID="40" type="0" basicInfo-basicType="0" basicInfo-roundedRectRadius="12" basicInfo-polygonSides="6" basicInfo-starPoints="5" bounding="rect(-9.52148,-8.70103,19.0429,17.402)" text="" font-familyName="" font-pixelSize="20" font-bold="0" font-underline="0" font-alignment="1" strokeStyle="0" markerStart="0" markerEnd="0" shadowEnabled="0" shadowOffsetX="0" shadowOffsetY="2" shadowBlur="4" shadowOpacity="160" blurEnabled="0" blurRadius="4" transform="matrix(0.476802,0,0,0.476802,299.863,315.444)" pers-center="0,0" pers-size="0,0" pers-start="0,0" pers-end="0,0" locked="0" mesh="" flag=""/>
            <path id="shapePath40" d="M301.998,312.069 C301.33,312.45 300.377,312.927 299.852,313.213 C298.374,313.881 295.323,317.409 295.323,318.458 C295.323,319.888 296.562,319.984 297.897,318.649 C298.565,317.981 299.137,317.266 299.137,317.075 C299.137,316.884 300.329,315.788 301.76,314.691 C305.145,312.069 305.336,310.162 301.998,312.069 Z" style="stroke:none;fill-rule:nonzero;fill:#000000;fill-opacity:1;"/>
        </g>
        <g id="Shape41">
            <desc shapeID="41" type="0" basicInfo-basicType="0" basicInfo-roundedRectRadius="12" basicInfo-polygonSides="6" basicInfo-starPoints="5" bounding="rect(-29.1025,-10.0037,58.2049,20.0073)" text="" font-familyName="" font-pixelSize="20" font-bold="0" font-underline="0" font-alignment="1" strokeStyle="0" markerStart="0" markerEnd="0" shadowEnabled="0" shadowOffsetX="0" shadowOffsetY="2" shadowBlur="4" shadowOpacity="160" blurEnabled="0" blurRadius="4" transform="matrix(0.476802,0,0,0.476802,379.823,317.132)" pers-center="0,0" pers-size="0,0" pers-start="0,0" pers-end="0,0" locked="0" mesh="" flag=""/>
            <path id="shapePath41" d="M369.704,314.262 C366.128,316.217 365.127,317.314 366.605,317.838 C367.368,318.172 367.654,318.029 371.611,315.883 C374.663,314.214 375.092,314.358 376.141,317.123 C378.286,322.749 383.341,323.417 390.445,319.078 C392.877,317.552 394.164,316.265 393.544,315.883 C392.972,315.502 391.16,316.026 391.16,316.551 C391.16,317.361 386.106,319.126 383.77,319.126 C380.909,319.126 379.24,318.887 379.478,318.506 C379.669,318.172 377.667,314.024 376.808,312.975 C375.902,311.83 373.423,312.307 369.704,314.262 Z" style="stroke:none;fill-rule:nonzero;fill:#000000;fill-opacity:1;"/>
        </g>
        <g id="Shape42">
            <desc shapeID="42" type="0" basicInfo-basicType="0" basicInfo-roundedRectRadius="12" basicInfo-polygonSides="6" basicInfo-starPoints="5" bounding="rect(-8.91512,-11.6233,17.8303,23.2465)" text="" font-familyName="" font-pixelSize="20" font-bold="0" font-underline="0" font-alignment="1" strokeStyle="0" markerStart="0" markerEnd="0" shadowEnabled="0" shadowOffsetX="0" shadowOffsetY="2" shadowBlur="4" shadowOpacity="160" blurEnabled="0" blurRadius="4" transform="matrix(0.476802,0,0,0.476802,254.712,319.891)" pers-center="0,0" pers-size="0,0" pers-start="0,0" pers-end="0,0" locked="0" mesh="" flag=""/>
            <path id="shapePath42" d="M253.841,314.643 C253.841,314.93 253.412,315.168 252.935,315.168 C252.172,315.168 251.409,316.074 251.266,317.171 C251.219,317.314 251.075,317.647 250.885,317.838 C249.931,318.792 250.694,322.558 252.124,323.989 C252.983,324.895 255.796,325.658 256.94,325.372 C258.18,325.086 258.609,324.275 258.943,321.891 C259.133,320.174 257.941,316.026 257.035,315.263 C256.082,314.453 253.841,314.024 253.841,314.643 M256.082,317.171 C257.179,318.363 257.322,318.839 257.226,321.414 C257.179,323.512 256.225,324.037 254.365,323.035 C253.603,322.654 252.84,322.511 252.649,322.702 C252.506,322.892 252.363,322.797 252.458,322.558 C252.506,322.272 252.411,321.557 252.22,320.89 C251.791,319.269 253.078,316.122 254.222,316.122 C254.699,316.122 255.557,316.598 256.082,317.171 Z" style="stroke:none;fill-rule:nonzero;fill:#000000;fill-opacity:1;"/>
        </g>
        <g id="Shape43">
            <desc shapeID="43" type="0" basicInfo-basicType="0" basicInfo-roundedRectRadius="12" basicInfo-polygonSides="6" basicInfo-starPoints="5" bounding="rect(-11,-14.316,22,28.6319)" text="" font-familyName="" font-pixelSize="20" font-bold="0" font-underline="0" font-alignment="1" strokeStyle="0" markerStart="0" markerEnd="0" shadowEnabled="0" shadowOffsetX="0" shadowOffsetY="2" shadowBlur="4" shadowOpacity="160" blurEnabled="0" blurRadius="4" transform="matrix(0.476802,0,0,0.476802,304.382,336.344)" pers-center="0,0" pers-size="0,0" pers-start="0,0" pers-end="0,0" locked="0" mesh="" flag=""/>
            <path id="shapePath43" d="M305.145,329.901 C304.954,330.187 303.524,331.046 301.998,331.904 C300.091,332.905 299.137,333.716 299.137,334.288 C299.137,334.765 300.329,336.338 301.76,337.816 C303.19,339.294 304.382,340.725 304.382,340.963 C304.382,341.202 304.62,341.392 304.906,341.392 C305.24,341.392 305.812,341.774 306.241,342.203 C307.338,343.442 309.627,343.49 309.627,342.346 C309.627,341.774 309.055,341.297 307.958,340.915 C307.052,340.629 306.289,340.152 306.289,339.914 C306.289,339.628 306.051,339.58 305.717,339.771 C305.431,339.962 305.336,339.914 305.479,339.628 C305.669,339.342 304.954,338.245 303.857,337.149 C302.809,336.1 302.046,335.003 302.189,334.765 C302.379,334.479 303.571,333.716 304.906,333 C306.718,331.999 307.243,331.427 307.147,330.712 C307.004,329.663 305.622,329.091 305.145,329.901 Z" style="stroke:none;fill-rule:nonzero;fill:#000000;fill-opacity:1;"/>
        </g>
        <g id="Shape44">
            <desc shapeID="44" type="0" basicInfo-basicType="0" basicInfo-roundedRectRadius="12" basicInfo-polygonSides="6" basicInfo-starPoints="5" bounding="rect(-8.15763,-10.6824,16.3152,21.3646)" text="" font-familyName="" font-pixelSize="20" font-bold="0" font-underline="0" font-alignment="1" strokeStyle="0" markerStart="0" markerEnd="0" shadowEnabled="0" shadowOffsetX="0" shadowOffsetY="2" shadowBlur="4" shadowOpacity="160" blurEnabled="0" blurRadius="4" transform="matrix(0.476802,0,0,0.476802,301.923,356.022)" pers-center="0,0" pers-size="0,0" pers-start="0,0" pers-end="0,0" locked="0" mesh="" flag=""/>
            <path id="shapePath44" d="M298.041,351.5 C297.945,351.834 298.803,353.217 299.948,354.599 C301.092,355.982 302.475,358.128 303.047,359.368 C303.619,360.607 304.144,361.37 304.239,361.036 C304.382,360.75 304.764,360.464 305.145,360.464 C305.526,360.464 305.812,360.035 305.812,359.511 C305.812,358.986 305.622,358.557 305.336,358.557 C305.097,358.557 304.859,358.319 304.859,358.032 C304.859,356.936 299.709,350.928 298.756,350.928 C298.47,350.928 298.184,351.214 298.041,351.5 Z" style="stroke:none;fill-rule:nonzero;fill:#000000;fill-opacity:1;"/>
        </g>
        <g id="Shape45">
            <desc shapeID="45" type="0" basicInfo-basicType="0" basicInfo-roundedRectRadius="12" basicInfo-polygonSides="6" basicInfo-starPoints="5" bounding="rect(-6.41287,-11.4936,12.8259,22.9873)" text="" font-familyName="" font-pixelSize="20" font-bold="0" font-underline="0" font-alignment="1" strokeStyle="0" markerStart="0" markerEnd="0" shadowEnabled="0" shadowOffsetX="0" shadowOffsetY="2" shadowBlur="4" shadowOpacity="160" blurEnabled="0" blurRadius="4" transform="matrix(0.476802,0,0,0.476802,295.633,365.474)" pers-center="0,0" pers-size="0,0" pers-start="0,0" pers-end="0,0" locked="0" mesh="" flag=""/>
            <path id="shapePath45" d="M292.7,360.464 C292.319,361.036 292.891,363.802 293.32,363.802 C293.511,363.802 294.417,365.423 295.323,367.378 C296.419,369.667 297.278,370.906 297.802,370.954 C299.185,370.954 298.994,369.905 296.944,365.852 C295.847,363.706 294.846,361.466 294.703,360.941 C294.465,359.94 293.225,359.654 292.7,360.464 Z" style="stroke:none;fill-rule:nonzero;fill:#000000;fill-opacity:1;"/>
        </g>
    </g>
</svg>
