<?xml version="1.0"?>
<svg version="1.1" xmlns="http://www.w3.org/2000/svg" xmlns:xlink="http://www.w3.org/1999/xlink" width="100" height="100">
    <desc iVinci="yes" version="4.6" gridStep="20" showGrid="no" snapToGrid="no" codePlatform="0"/>
    <g id="Layer1" name="Layer 2" opacity="1">
        <g id="Shape1">
            <desc shapeID="1" type="0" basicInfo-basicType="0" basicInfo-roundedRectRadius="12" basicInfo-polygonSides="6" basicInfo-starPoints="5" bounding="rect(-28.9265,-24.2577,57.8531,48.5154)" text="" font-familyName="Helvetica" font-pixelSize="20" font-bold="0" font-underline="0" font-alignment="1" strokeStyle="0" markerStart="0" markerEnd="0" shadowEnabled="0" shadowOffsetX="0" shadowOffsetY="2" shadowBlur="4" shadowOpacity="160" blurEnabled="0" blurRadius="4" transform="matrix(1,0,0,1,51.3695,51.8694)" pers-center="0,0" pers-size="0,0" pers-start="0,0" pers-end="0,0" locked="0" mesh="" flag=""/>
            <path id="shapePath1" d="M41.0322,70.4121 C41.0322,70.4121 38.6288,75.5199 34.2603,73.6689 C30.6833,72.1532 24.982,63.6112 24.982,63.6112 C24.982,63.6112 22.443,51.0975 22.443,51.0975 C22.443,51.0975 24.4379,46.0195 24.4379,46.0195 C24.4379,46.0195 29.8787,44.3873 29.8787,44.3873 C29.8787,44.3873 28.6998,38.5838 28.6998,38.5838 C28.6998,38.5838 33.5965,34.6846 33.5965,34.6846 C33.5965,34.6846 37.677,36.2262 37.677,36.2262 C37.677,36.2262 39.944,31.4202 39.944,31.3295 C39.944,31.2388 48.4678,29.9693 48.4678,29.9693 C48.4678,29.9693 57.2637,27.6117 57.2637,27.6117 C57.2637,27.6117 60.4374,31.8736 60.4374,31.8736 C60.4374,31.8736 67.5104,28.7905 67.5104,28.7905 C67.5104,28.7905 70.7748,30.9668 70.7748,30.9668 C70.7748,30.9668 71.1375,33.5058 71.1375,33.5058 C71.1375,33.5058 79.6613,38.3118 79.6613,38.3118 C79.6613,38.3118 79.3893,45.4754 79.3893,45.4754 C79.3893,45.4754 77.213,49.9187 77.213,49.9187 C77.213,49.9187 80.2961,51.8229 80.2961,51.8229 C80.2961,51.8229 79.2079,60.6188 79.2079,60.6188 C79.2079,60.6188 73.4045,64.0646 73.4045,64.0646 C73.4045,64.0646 72.2257,68.5985 72.2257,68.5985 C72.2257,68.5985 65.8782,74.0392 65.8782,74.0392 C65.8782,74.0392 57.3543,72.9511 57.3543,72.9511 C57.3543,72.9511 53.3645,76.1249 53.3645,76.1249 C53.3645,76.1249 47.4309,76.2466 44.0338,74.6729 C41.3494,73.4294 41.0322,70.4121 41.0322,70.4121 Z" style="stroke:none;fill-rule:evenodd;fill:#f5dcaa;fill-opacity:1;"/>
        </g>
    </g>
    <g id="Layer2" name="Layer 1" opacity="1">
        <g id="Shape2">
            <desc shapeID="2" type="0" basicInfo-basicType="0" basicInfo-roundedRectRadius="12" basicInfo-polygonSides="6" basicInfo-starPoints="5" bounding="rect(-55.8867,-46.204,111.773,92.408)" text="" font-familyName="" font-pixelSize="20" font-bold="0" font-underline="0" font-alignment="1" strokeStyle="0" markerStart="0" markerEnd="0" shadowEnabled="0" shadowOffsetX="0" shadowOffsetY="2" shadowBlur="4" shadowOpacity="160" blurEnabled="0" blurRadius="4" transform="matrix(0.56252,0,0,0.56252,51.3237,51.701)" pers-center="0,0" pers-size="0,0" pers-start="0,0" pers-end="0,0" locked="0" mesh="" flag=""/>
            <path id="shapePath2" d="M51.3507,25.9604 C49.2131,26.4666 47.5256,27.4229 46.6255,28.4917 C46.0068,29.1667 45.6693,29.223 44.0942,28.548 C41.6191,27.4792 38.694,28.3229 36.7814,30.573 C35.9939,31.5293 35.3189,32.4856 35.3189,32.7669 C35.3189,33.0481 34.4751,33.1606 33.5188,32.9919 C29.4124,32.3731 24.9685,37.042 26.2061,40.6421 C26.7686,42.2734 26.7686,42.3297 23.731,43.6797 C20.0184,45.3673 19.3996,46.6611 20.1871,50.88 C20.5246,52.5113 20.9746,55.0989 21.1997,56.6739 C21.5934,59.4303 22.7747,62.0179 23.6185,62.0179 C23.8998,62.0179 24.0685,62.6366 24.0685,63.4242 C24.0685,66.8555 26.8811,71.0182 31.6063,74.4496 C33.9126,76.1934 36.7814,76.5872 39.4816,75.5184 C40.6066,75.1246 41.3379,75.2371 42.8004,76.0809 C46.5693,78.2747 53.0945,78.2184 56.6946,75.9684 C58.1572,75.0121 59.3385,74.7871 61.3636,74.8996 C67.8325,75.2933 72.8952,72.3683 74.2452,67.4743 C74.7515,65.5055 75.2578,64.8867 77.1704,63.9867 C79.983,62.6366 81.8393,59.9928 82.3455,56.6177 C82.6268,54.5926 82.4581,53.5801 81.333,51.3862 C80.0392,48.7424 80.0392,48.6299 80.9955,47.0549 C84.7082,41.0359 82.4581,35.5232 75.2578,32.9356 C73.739,32.3731 72.4452,31.6418 72.4452,31.248 C72.4452,29.8417 71.1514,27.8167 69.8014,27.1979 C67.7763,26.2416 65.3575,26.4666 62.8261,27.7042 L60.576,28.8855 L58.8885,27.4229 C57.9322,26.6354 56.7509,26.0166 56.2446,26.0166 C55.7384,26.0166 54.7821,25.9041 54.1633,25.7916 C53.5446,25.6228 52.307,25.7354 51.3507,25.9604 M56.4134,30.6293 C57.2572,31.023 57.8197,31.6981 57.8197,32.4856 C57.8197,35.3544 60.126,35.7482 62.6011,33.3294 C64.2887,31.6981 67.5513,30.2918 68.1701,30.9105 C68.3388,31.0793 68.3388,32.3168 68.1138,33.6669 C67.72,36.5357 68.62,37.267 71.2639,36.142 C72.614,35.6357 73.1765,35.6357 74.5828,36.367 C76.7203,37.4358 78.6329,39.8546 78.6329,41.3734 C78.6329,43.511 76.3828,47.2799 74.3578,48.4612 C72.8952,49.3612 72.389,49.9799 72.5577,50.9362 C72.7265,52.005 73.0077,52.1738 75.4266,52.0613 L78.0704,52.005 L78.0704,54.4239 C78.0704,59.2615 75.314,62.0179 71.7139,60.7803 C69.5201,59.9928 67.3825,60.9491 67.3825,62.7491 C67.3825,64.4367 68.3951,65.393 70.2514,65.393 C71.489,65.393 71.7139,65.618 71.489,66.4618 C70.8701,68.9369 68.6763,70.1182 64.3449,70.3432 L60.2948,70.5682 L59.6198,68.2618 C58.4947,64.5492 55.0071,63.7617 52.982,66.7431 C52.1945,67.9806 52.1945,68.2618 52.982,69.8369 C53.4883,70.7369 54.1071,71.6932 54.4446,71.862 C57.3134,73.6058 49.2694,75.2933 44.9942,73.7746 C43.5317,73.2683 43.2504,72.8745 43.0817,71.1307 C42.9129,69.3306 42.6879,69.0494 41.3379,68.8806 C39.2565,68.5994 38.0753,69.6681 38.469,71.3557 C38.8065,72.5932 38.6378,72.7058 37.0065,72.7058 C34.4189,72.7058 31.6063,71.1869 29.4124,68.5994 C26.9373,65.7305 26.8249,63.9867 29.0749,63.5367 C32.2813,62.8617 31.6625,59.7678 28.2874,59.7678 C26.0936,59.7678 24.5185,58.3053 25.8123,57.4615 C26.2623,57.1802 27.0499,56.9552 27.5561,56.9552 C28.3999,56.9552 29.6937,55.4364 29.6937,54.4801 C29.6937,53.6363 27.7249,52.455 26.2623,52.455 C25.3623,52.455 24.631,52.23 24.631,51.9488 C24.631,51.6675 24.4623,50.7112 24.2935,49.755 C23.956,48.0674 24.0685,48.0111 26.7686,47.2236 C28.3436,46.7173 30.2562,45.9298 31.1,45.3673 L32.5625,44.411 L31.3813,43.1735 C29.9187,41.6547 29.9187,39.2921 31.3813,37.8295 C32.9001,36.3107 33.9688,36.4232 35.0939,38.167 C35.7127,39.0671 36.4439,39.5171 37.2315,39.4046 C38.1877,39.2921 38.469,38.7858 38.5815,36.5357 C38.7503,34.2294 38.9753,33.7794 40.4941,32.9919 C41.8441,32.3168 42.5191,32.2606 43.5317,32.7106 C44.263,33.0481 44.8817,33.5544 44.8817,33.8356 C44.8817,35.1857 46.7943,34.8482 48.7631,33.0481 C52.0257,30.123 53.9383,29.5042 56.4134,30.6293 Z" style="stroke:none;fill-rule:nonzero;fill:#000000;fill-opacity:1;"/>
        </g>
        <g id="Shape3">
            <desc shapeID="3" type="0" basicInfo-basicType="0" basicInfo-roundedRectRadius="12" basicInfo-polygonSides="6" basicInfo-starPoints="5" bounding="rect(-2.37079,-2.44021,4.74161,4.8804)" text="" font-familyName="" font-pixelSize="20" font-bold="0" font-underline="0" font-alignment="1" strokeStyle="0" markerStart="0" markerEnd="0" shadowEnabled="0" shadowOffsetX="0" shadowOffsetY="2" shadowBlur="4" shadowOpacity="160" blurEnabled="0" blurRadius="4" transform="matrix(0.56252,0,0,0.56252,51.3576,44.8947)" pers-center="0,0" pers-size="0,0" pers-start="0,0" pers-end="0,0" locked="0" mesh="" flag=""/>
            <path id="shapePath3" d="M50.1694,44.2423 C49.7194,45.4235 50.3382,46.2673 51.6882,46.2673 C52.532,46.2673 52.8133,45.9298 52.6445,45.0298 C52.4195,43.511 50.6757,42.9484 50.1694,44.2423 Z" style="stroke:none;fill-rule:nonzero;fill:#000000;fill-opacity:1;"/>
        </g>
        <g id="Shape4">
            <desc shapeID="4" type="0" basicInfo-basicType="0" basicInfo-roundedRectRadius="12" basicInfo-polygonSides="6" basicInfo-starPoints="5" bounding="rect(-3.67044,-3.82468,7.34094,7.64935)" text="" font-familyName="" font-pixelSize="20" font-bold="0" font-underline="0" font-alignment="1" strokeStyle="0" markerStart="0" markerEnd="0" shadowEnabled="0" shadowOffsetX="0" shadowOffsetY="2" shadowBlur="4" shadowOpacity="160" blurEnabled="0" blurRadius="4" transform="matrix(0.56252,0,0,0.56252,43.0337,47.3179)" pers-center="0,0" pers-size="0,0" pers-start="0,0" pers-end="0,0" locked="0" mesh="" flag=""/>
            <path id="shapePath4" d="M41.6191,45.8173 C40.0441,47.3924 41.5629,50.0362 43.7005,49.3612 C45.2192,48.9112 45.5005,47.7299 44.5442,46.3236 C43.5879,44.9735 42.6317,44.8048 41.6191,45.8173 Z" style="stroke:none;fill-rule:nonzero;fill:#000000;fill-opacity:1;"/>
        </g>
        <g id="Shape5">
            <desc shapeID="5" type="0" basicInfo-basicType="0" basicInfo-roundedRectRadius="12" basicInfo-polygonSides="6" basicInfo-starPoints="5" bounding="rect(-10.8853,-7.4325,21.7706,14.8651)" text="" font-familyName="" font-pixelSize="20" font-bold="0" font-underline="0" font-alignment="1" strokeStyle="0" markerStart="0" markerEnd="0" shadowEnabled="0" shadowOffsetX="0" shadowOffsetY="2" shadowBlur="4" shadowOpacity="160" blurEnabled="0" blurRadius="4" transform="matrix(0.56252,0,0,0.56252,49.9549,56.7119)" pers-center="0,0" pers-size="0,0" pers-start="0,0" pers-end="0,0" locked="0" mesh="" flag=""/>
            <path id="shapePath5" d="M53.9383,53.4113 C53.657,54.0301 52.532,54.9864 51.4069,55.5489 C49.6632,56.5052 49.2131,56.5052 47.1318,55.8302 C44.4317,54.9301 43.4192,55.5489 43.9817,57.7427 C44.3755,59.3178 46.8506,60.8928 48.9881,60.8928 C50.9569,60.8928 55.4571,57.799 55.9071,56.1677 C56.5821,53.3551 55.1196,51.2738 53.9383,53.4113 Z" style="stroke:none;fill-rule:nonzero;fill:#000000;fill-opacity:1;"/>
        </g>
        <g id="Shape6">
            <desc shapeID="6" type="0" basicInfo-basicType="0" basicInfo-roundedRectRadius="12" basicInfo-polygonSides="6" basicInfo-starPoints="5" bounding="rect(-21.1635,-9.41919,42.327,18.8384)" text="" font-familyName="Helvetica" font-pixelSize="20" font-bold="0" font-underline="0" font-alignment="1" strokeStyle="0" markerStart="0" markerEnd="0" shadowEnabled="0" shadowOffsetX="0" shadowOffsetY="2" shadowBlur="4" shadowOpacity="160" blurEnabled="0" blurRadius="4" transform="matrix(1,0,0,1,52.0334,87.7442)" pers-center="0,0" pers-size="0,0" pers-start="0,0" pers-end="0,0" locked="0" mesh="" flag=""/>
            <path id="shapePath6" d="M68.5,79.5 C68,80.5 67.5,82.5 67.5,83.5 C67,85 67,86 66.5,86 C65.5,85.5 65.5,84.5 66,82.5 C66.5,80 65.5,79 63,80 C62,80 61.5,80.5 60.5,79.5 C59.5,78 54,80.5 55,82 C55,82 56,82 57,81.5 C58,81 59,81 59.5,81 C59.5,81.5 59,83 58,84.5 C57,85.5 56,87.5 56.5,88 C56.5,89 58,89 59,87.5 L59.5,86.5 L60.5,88 C61.5,90 62.5,90 63,88.5 C63.5,88 64,88 65,88.5 C66.5,88.5 67,88.5 67,88 C67.5,87.5 68,87.5 68.5,88 C69.5,88 70,88 70.5,87 C71,86.5 71.5,85.5 72,85.5 C73.5,85.5 73.5,83.5 72.5,83 C71.5,82.5 71,82 71,80.5 C71,78.5 69.5,78 68.5,79.5 M62,84 C62,85 61.5,85.5 61,85.5 C60.5,85.5 61,82.5 62,82.5 C62.5,82.5 62.5,82.5 62,84 M33,79 C31.5,80.5 30.5,86 31,89.5 C32,97.5 39,99 41.5,91.5 C42.5,88.5 42.5,81.5 41.5,80.5 C40,78.5 38.5,80 39,83.5 C39,84.5 39.5,85.5 39,85.5 C39,86 38,86 36.5,86.5 C34,87 34,87 34.5,82 C35,78.5 34.5,77.5 33,79 M37.5,92.5 L36.5,93.5 L36,92.5 C34.5,90.5 35,90 37,89.5 C39,89 39,89 39,90 C39,90.5 38.5,91.5 37.5,92.5 M49.5,82.5 C49,83 49,84 48.5,85 C48,87.5 47.5,87.5 46.5,84.5 C46,81.5 45,82 44,86 C43,91 44,94 46,91 C46.5,90 47,89.5 47,89.5 C47,89.5 47.5,91.5 48,93 C48.5,96 49,96.5 50,97 C52.5,98 53,94.5 52,84 C52,82 50.5,81 49.5,82.5 M68.2812,91.5938 C66.7812,93.0938 66.2812,93.0938 66.2812,91.5938 C65.7812,90.0938 65.2812,90.0938 62.7812,91.5938 C60.7812,92.5938 60.7812,94.0938 63.2812,93.0938 C64.7812,92.5938 64.7812,92.5938 64.2812,93.5938 C62.7812,96.5938 66.2812,97.5938 68.7812,95.0938 C70.2812,93.5938 71.7812,90.5938 70.7812,90.0938 C70.7812,90.0938 69.2812,90.5938 68.2812,91.5938 Z" style="stroke:none;fill-rule:evenodd;fill:#000000;fill-opacity:1;"/>
        </g>
    </g>
</svg>
