<?xml version="1.0"?>
<svg version="1.1" xmlns="http://www.w3.org/2000/svg" xmlns:xlink="http://www.w3.org/1999/xlink" width="100" height="100">
    <desc iVinci="yes" version="4.6" gridStep="20" showGrid="no" snapToGrid="no" codePlatform="0"/>
    <g id="Layer1" name="Layer 2" opacity="1">
        <g id="Shape1">
            <desc shapeID="1" type="0" basicInfo-basicType="0" basicInfo-roundedRectRadius="12" basicInfo-polygonSides="6" basicInfo-starPoints="5" bounding="rect(0,0,0,0)" text="" font-familyName="Helvetica" font-pixelSize="20" font-bold="0" font-underline="0" font-alignment="1" strokeStyle="0" markerStart="0" markerEnd="0" shadowEnabled="0" shadowOffsetX="0" shadowOffsetY="2" shadowBlur="4" shadowOpacity="160" blurEnabled="0" blurRadius="4" transform="matrix(1,0,0,1,14.491,62.3073)" pers-center="0,0" pers-size="0,0" pers-start="0,0" pers-end="0,0" locked="0" mesh="" flag=""/>
            <path id="shapePath1" d="M14.491,62.3073 Z" style="stroke:none;fill-rule:evenodd;fill:#000000;fill-opacity:1;"/>
        </g>
        <g id="Shape2">
            <desc shapeID="2" type="0" basicInfo-basicType="0" basicInfo-roundedRectRadius="12" basicInfo-polygonSides="6" basicInfo-starPoints="5" bounding="rect(-44.4472,-24.4764,88.8944,48.9528)" text="" font-familyName="Helvetica" font-pixelSize="20" font-bold="0" font-underline="0" font-alignment="1" strokeStyle="0" markerStart="0" markerEnd="0" shadowEnabled="0" shadowOffsetX="0" shadowOffsetY="2" shadowBlur="4" shadowOpacity="160" blurEnabled="0" blurRadius="4" transform="matrix(1,0,0,1,48.9528,72.4144)" pers-center="0,0" pers-size="0,0" pers-start="0,0" pers-end="0,0" locked="0" mesh="" flag=""/>
            <path id="shapePath2" d="M12.1367,55.1632 C12.1367,55.1632 30.078,47.938 30.078,47.938 C30.078,47.938 37.5467,56.9493 37.5467,56.9493 C37.5467,56.9493 48.5063,59.5471 48.5063,59.5471 C48.5063,59.5471 61.8202,54.1079 61.8202,54.1079 C61.8202,54.1079 66.9347,51.1041 66.9347,51.1041 C66.9347,51.1041 90.8834,60.846 90.8834,60.846 C90.8834,60.846 89.5845,66.8535 89.5845,66.8535 C89.5845,66.8535 93.4,69.776 93.4,69.776 C93.4,69.776 87.3114,75.9459 87.3114,75.9459 C87.3114,75.9459 82.1969,77.0012 82.1969,77.0012 C82.1969,77.0012 74.6469,74.5658 74.6469,74.5658 C74.6469,74.5658 73.5104,80.5732 73.5104,80.5732 C73.5104,80.5732 55.2444,86.0936 55.2444,86.0936 C55.2444,86.0936 56.381,96.8909 56.381,96.8909 C56.381,96.8909 52.3219,96.8097 52.3219,96.8097 C52.3219,96.8097 51.1853,91.5328 51.1853,91.5328 C51.1853,91.5328 47.5321,95.7543 47.5321,95.7543 C47.5321,95.7543 36.4102,92.9941 36.4102,92.9941 C36.4102,92.9941 38.0338,84.3888 38.0338,84.3888 C38.0338,84.3888 33.9747,83.7393 33.9747,83.7393 C33.9747,83.7393 29.185,89.6656 29.185,89.6656 C29.185,89.6656 15.8711,89.5845 15.8711,89.5845 C15.8711,89.5845 15.384,85.2006 15.384,85.2006 C15.384,85.2006 10.1072,89.2597 10.1072,89.2597 C10.1072,89.2597 4.50561,87.7173 4.50561,87.7173 C4.50561,87.7173 16.1146,75.2964 16.1146,75.2964 C16.1146,75.2964 11.8932,73.9975 11.8932,73.9975 C11.8932,73.9975 8.48353,69.0454 8.48353,69.0454 C8.48353,69.0454 14.0851,65.6357 14.0851,65.6357 C14.0851,65.6357 12.1367,55.1632 12.1367,55.1632 Z" style="stroke:none;fill-rule:evenodd;fill:#917666;fill-opacity:1;"/>
        </g>
        <g id="Shape3">
            <desc shapeID="3" type="0" basicInfo-basicType="0" basicInfo-roundedRectRadius="12" basicInfo-polygonSides="6" basicInfo-starPoints="5" bounding="rect(-25.9499,-10.0362,51.8998,20.0723)" text="" font-familyName="Helvetica" font-pixelSize="20" font-bold="0" font-underline="0" font-alignment="1" strokeStyle="0" markerStart="0" markerEnd="0" shadowEnabled="0" shadowOffsetX="0" shadowOffsetY="2" shadowBlur="4" shadowOpacity="160" blurEnabled="0" blurRadius="4" transform="matrix(1,0,0,1,48.7115,59.1358)" pers-center="0,0" pers-size="0,0" pers-start="0,0" pers-end="0,0" locked="0" mesh="" flag=""/>
            <path id="shapePath3" d="M31.0234,49.0996 C31.0234,49.0996 22.7616,50.874 22.7616,50.874 C22.7616,50.874 24.9795,58.7477 24.9795,58.7477 C24.9795,58.7477 28.0847,57.306 28.0847,57.306 C28.0847,57.306 31.5779,61.9637 31.5779,61.9637 C31.5779,61.9637 27.6411,66.2332 27.6411,66.2332 C27.6411,66.2332 40.3942,69.172 40.3942,69.172 C40.3942,69.172 42.224,65.346 42.1686,65.346 C42.1131,65.346 55.4207,65.8451 55.4207,65.8451 C55.4207,65.8451 55.5871,68.6729 55.5871,68.6729 C55.5871,68.6729 57.1397,62.3518 57.1397,62.3518 C57.1397,62.3518 63.2944,61.0765 63.2944,61.0765 C63.2944,61.0765 66.3996,64.1816 66.3996,64.1816 C66.3996,64.1816 74.6614,54.4781 74.6614,54.4781 C74.6614,54.4781 65.346,52.7592 65.346,52.7592 C65.346,52.7592 51.4839,59.3021 51.4839,59.3021 C51.4839,59.3021 38.6753,57.4169 38.6753,57.4169 C38.6753,57.4169 31.0234,49.0996 31.0234,49.0996 Z" style="stroke:none;fill-rule:evenodd;fill:#ce8558;fill-opacity:1;"/>
        </g>
        <g id="Shape4">
            <desc shapeID="4" type="0" basicInfo-basicType="0" basicInfo-roundedRectRadius="12" basicInfo-polygonSides="6" basicInfo-starPoints="5" bounding="rect(-15.9082,-15.2321,31.8163,30.4641)" text="" font-familyName="Helvetica" font-pixelSize="20" font-bold="0" font-underline="0" font-alignment="1" strokeStyle="0" markerStart="0" markerEnd="0" shadowEnabled="0" shadowOffsetX="0" shadowOffsetY="2" shadowBlur="4" shadowOpacity="160" blurEnabled="0" blurRadius="4" transform="matrix(1,0,0,1,50.7072,43.5088)" pers-center="0,0" pers-size="0,0" pers-start="0,0" pers-end="0,0" locked="0" mesh="" flag=""/>
            <path id="shapePath4" d="M36.3104,54.6843 C36.3104,54.6843 34.7991,45.4576 34.7991,45.4576 C34.7991,45.4576 35.1968,35.515 35.1968,35.515 C35.1968,35.515 37.1058,34.7195 37.1058,34.7195 C37.1058,34.7195 42.3555,35.674 42.3555,35.674 C42.3555,35.674 46.8893,33.2083 46.8893,33.2083 C46.8893,33.2083 49.9914,33.7651 49.9914,33.7651 C49.9914,33.7651 58.2636,28.2767 58.2636,28.2767 C58.2636,28.2767 62.877,28.2767 62.877,28.2767 C62.877,28.2767 64.6269,37.3444 64.6269,37.3444 C64.6269,37.3444 66.6154,43.3099 66.6154,43.3099 C66.6154,43.3099 65.3427,50.1505 65.3427,50.1505 C65.3427,50.1505 53.9684,58.4227 53.9684,58.4227 C53.9684,58.4227 44.2644,58.7409 44.2644,58.7409 C44.2644,58.7409 36.3104,54.6843 36.3104,54.6843 Z" style="stroke:none;fill-rule:evenodd;fill:#ffe8c5;fill-opacity:1;"/>
        </g>
        <g id="Shape5">
            <desc shapeID="5" type="0" basicInfo-basicType="0" basicInfo-roundedRectRadius="12" basicInfo-polygonSides="6" basicInfo-starPoints="5" bounding="rect(-22.868,-21.8339,45.7359,43.6679)" text="" font-familyName="Helvetica" font-pixelSize="20" font-bold="0" font-underline="0" font-alignment="1" strokeStyle="0" markerStart="0" markerEnd="0" shadowEnabled="0" shadowOffsetX="0" shadowOffsetY="2" shadowBlur="4" shadowOpacity="160" blurEnabled="0" blurRadius="4" transform="matrix(1,0,0,1,51.2243,33.8844)" pers-center="0,0" pers-size="0,0" pers-start="0,0" pers-end="0,0" locked="0" mesh="" flag=""/>
            <path id="shapePath5" d="M36.8671,55.7183 C36.8671,55.7183 35.8331,46.412 35.8331,46.412 C35.8331,46.412 34.7195,39.0943 34.7195,39.0147 C34.7195,38.9352 35.9127,34.5605 35.9127,34.5605 C35.9127,34.5605 41.2419,35.8331 41.2419,35.8331 C41.2419,35.8331 46.4916,33.0492 46.4916,33.0492 C46.4916,33.0492 49.9914,33.606 49.9914,33.606 C49.9914,33.606 56.9114,28.4358 56.9114,28.4358 C56.9114,28.4358 63.1156,28.3563 63.1156,28.3563 C63.1156,28.3563 64.3883,36.0717 64.3883,36.0717 C64.3883,36.0717 66.6154,43.469 66.6154,43.469 C66.6154,43.469 65.5814,49.4346 65.5814,49.4346 C65.5814,49.4346 71.3083,44.9008 71.3083,44.9008 C71.3083,44.9008 74.0922,38.7761 74.0922,38.7761 C74.0922,38.7761 70.8311,27.9586 70.8311,27.9586 C70.8311,27.9586 72.1037,16.5842 72.1037,16.5842 C72.1037,16.5842 70.9901,12.0504 70.9901,12.0504 C70.9901,12.0504 63.3542,17.4592 63.3542,17.4592 C63.3542,17.4592 59.6953,20.959 59.6953,20.959 C59.6953,20.959 57.6273,17.8569 57.6273,17.8569 C57.6273,17.8569 56.5933,14.6753 56.5933,14.6753 C56.5933,14.6753 53.3321,17.141 53.3321,17.141 C53.3321,17.141 50.8663,25.0156 50.8663,25.0156 C50.8663,25.0156 49.4346,26.7655 49.4346,26.7655 C49.4346,26.7655 47.6051,24.5383 47.6051,24.5383 C47.6051,24.5383 46.3325,16.8229 46.3325,16.8229 C46.3325,16.8229 42.1168,19.7659 42.1168,19.7659 C42.1168,19.7659 42.1168,28.5949 42.1168,28.5949 C42.1168,28.5949 38.8557,27.0836 38.8557,27.0836 C38.8557,27.0836 37.9012,17.4592 37.9012,17.4592 C37.9012,17.4592 35.1172,16.107 35.1172,16.107 C35.1172,16.107 31.7765,19.6863 31.7765,19.6863 C31.7765,19.6863 28.3563,36.549 28.3563,36.549 C28.3563,36.549 30.822,47.8438 30.822,47.8438 C30.822,47.8438 36.8671,55.7183 36.8671,55.7183 Z" style="stroke:none;fill-rule:evenodd;fill:#ff6b2a;fill-opacity:1;"/>
        </g>
        <g id="Shape6">
            <desc shapeID="6" type="0" basicInfo-basicType="0" basicInfo-roundedRectRadius="12" basicInfo-polygonSides="6" basicInfo-starPoints="5" bounding="rect(0,0,0,0)" text="" font-familyName="Helvetica" font-pixelSize="20" font-bold="0" font-underline="0" font-alignment="1" strokeStyle="0" markerStart="0" markerEnd="0" shadowEnabled="0" shadowOffsetX="0" shadowOffsetY="2" shadowBlur="4" shadowOpacity="160" blurEnabled="0" blurRadius="4" transform="matrix(1,0,0,1,62.7344,7.89062)" pers-center="0,0" pers-size="0,0" pers-start="0,0" pers-end="0,0" locked="0" mesh="" flag=""/>
            <path id="shapePath6" d="M62.7344,7.89062 Z" style="stroke:none;fill-rule:evenodd;fill:#ff965e;fill-opacity:1;"/>
        </g>
        <g id="Shape7">
            <desc shapeID="7" type="0" basicInfo-basicType="4" basicInfo-roundedRectRadius="12" basicInfo-polygonSides="6" basicInfo-starPoints="5" bounding="rect(-2.40625,-3.78125,4.8125,7.5625)" text="" font-familyName="Helvetica" font-pixelSize="20" font-bold="0" font-underline="0" font-alignment="1" strokeStyle="0" markerStart="0" markerEnd="0" shadowEnabled="0" shadowOffsetX="0" shadowOffsetY="2" shadowBlur="4" shadowOpacity="160" blurEnabled="0" blurRadius="4" transform="matrix(0.772728,0,0,0.904959,64.3438,7.96875)" pers-center="0,0" pers-size="0,0" pers-start="0,0" pers-end="0,0" locked="0" mesh="" flag=""/>
            <path id="shapePath7" d="M62.4844,7.96875 C62.4844,6.0789 63.3168,4.54688 64.3438,4.54688 C65.3707,4.54688 66.2031,6.0789 66.2031,7.96875 C66.2031,9.8586 65.3707,11.3906 64.3438,11.3906 C63.3168,11.3906 62.4844,9.8586 62.4844,7.96875 Z" style="stroke:none;fill-rule:evenodd;fill:#ff2002;fill-opacity:1;"/>
        </g>
        <g id="Shape8">
            <desc shapeID="8" type="0" basicInfo-basicType="0" basicInfo-roundedRectRadius="12" basicInfo-polygonSides="6" basicInfo-starPoints="5" bounding="rect(-45.5569,-47.3856,91.1137,94.7712)" text="" font-familyName="Helvetica" font-pixelSize="20" font-bold="0" font-underline="0" font-alignment="1" strokeStyle="0" markerStart="0" markerEnd="0" shadowEnabled="0" shadowOffsetX="0" shadowOffsetY="2" shadowBlur="4" shadowOpacity="160" blurEnabled="0" blurRadius="4" transform="matrix(1,0,0,1,48.9431,50.8644)" pers-center="0,0" pers-size="0,0" pers-start="0,0" pers-end="0,0" locked="0" mesh="" flag=""/>
            <path id="shapePath8" d="M64.5,3.5 C63,4 61,8 61.5,10.5 C62,12 63.5,13 64.5,12.5 C66.5,11.5 67.5,3 65.5,3.5 C65,3.5 65,3.5 64.5,3.5 M64.5,9.5 C64.5,10 64,10.5 64,10.5 C63.5,10 64,6.5 64.5,6 C65,5.5 65,8.5 64.5,9.5 M69.5,11.5 C68,12 65,14.5 62,18 C60,20 60,20 59.5,19.5 C59,19 59,18 59,17 C59,14 58.5,13 58,12.5 C57,12 56,12.5 54.5,14.5 C53,16 52.5,16.5 50.5,22.5 C50,24 49.5,25.5 49.5,25.5 C49,25.5 48.5,24 48,20 C48,15 47.5,14.5 44,16.5 C41.5,18 40.5,19.5 40.5,23 C40.5,26.5 40,26 39.5,20 C39,17.5 38.5,15.5 38.5,15 C38,14.5 36.5,14.5 35,15.5 C33,16 30.5,19 29.5,21.5 C26,30 25.5,36.5 27.5,43.5 L28.5,47 L26.5,47.5 C25.5,47.5 22.5,48.5 20,49 C11.5,52.5 4.5,57.5 9.5,57 C10.5,57 10.5,57 10.5,58.5 C10.5,59 11,60.5 11.5,61.5 C13,64 12.5,64.5 10.5,66 C8.5,67 6.5,69 6,70 C6,70.5 11,76.5 11.5,76.5 C12,76.5 12.5,76.5 13.5,76 C14.5,76 13.5,77 9.5,80.5 C4,86.5 3,88 3.5,88.5 C3.5,89 5.5,89.5 7.5,89.5 L11,90.5 L11.5,89 C12,88.5 13,87.5 13.5,87.5 L15,86.5 L15.5,88 C15.5,88.5 15.5,89 15.5,89.5 C15,89.5 15.5,90 16.5,90.5 C17.5,91.5 18.5,91.5 21.5,91.5 C25,91.5 26,91.5 27,91.5 C27.5,91 28.5,91 29,91 C30,91 30.5,91 30.5,90.5 C31,90.5 31.5,89 32.5,87.5 C34,85.5 34,85.5 35.5,85.5 L37,85.5 L36.5,88.5 C36.5,90 36,92 35.5,92.5 C35,93.5 35.5,94 37,94.5 C39.5,95.5 46,96.5 47,96.5 C48.5,97 49.5,96 50.5,94.5 L51,93 L51.5,95 C51.5,96.5 52,97.5 52.5,97.5 C54,98.5 55.5,98.5 56.5,97.5 C57.5,96.5 57.5,96.5 57.5,93.5 C57.5,91.5 57.5,90 57.5,89 C57.5,88 57.5,88 60,87.5 C61,87.5 63,87 64,86.5 C65,86 66.5,85 67.5,84.5 C68.5,84.5 70,83.5 71,83 C72,82 73,81.5 74,81.5 C75,81 75,81 75,79 C75,78.5 75,77 75.5,76.5 L75.5,75.5 L76.5,76.5 C77.5,77 79,78 80,78.5 L82,79.5 L83,78.5 C84,77.5 84.5,77.5 85.5,77.5 C87,77.5 87.5,77.5 91,74 C93,72 94.5,70.5 94.5,70 C94.5,69 94,68.5 92,67.5 C91,67 90.5,66.5 90.5,66.5 C90.5,66 91,65 91,64 C91,63 91.5,62 91.5,61.5 C92,61 92,61 91,60 C88.5,58 79.5,54 73.5,52.5 L70,51.5 L71,50 C72.5,48.5 73.5,46.5 73.5,45 C73.5,44.5 74,43 74.5,42.5 C76,40.5 75.5,37 74,32.5 L72.5,29 L73,22 C73.5,15.5 73.5,14.5 73,13 C72.5,11.5 71,11 69.5,11.5 M71,15 C71,16 70.5,18 70.5,20.5 C70,22.5 69.5,25.5 69.5,27 C69,30 69.5,30.5 70.5,33.5 C72,37.5 72,40.5 71,41.5 C70.5,42 70.5,42.5 70,43 C70,43.5 69.5,45 68.5,46 L67,47.5 L67.5,43.5 C67.5,40 67.5,39 67,37.5 C66.5,36.5 66,34 66,32.5 C65.5,27.5 64,26.5 60,27 C57,27 56.5,27.5 53,30 C51,32 49.5,32.5 49,32.5 C46.5,32 46,32 44.5,33.5 C42.5,35 41.5,35 38,34 C37,33.5 36.5,33.5 35.5,34 C34.5,34.5 34.5,35 34,36.5 C34,38 33.5,40 33.5,41.5 C33,44.5 33,45 33.5,47 C34.5,49.5 35.5,50.5 36.5,50 C37.5,49.5 37.5,49 37,47 C36,45 35.5,39 36,37.5 C36.5,36 37,36 39.5,37 C40.5,37.5 41,37.5 42.5,37 C43.5,36.5 44.5,36 45.5,35 C46.5,34 46.5,34 48.5,34.5 C51,34.5 51.5,34.5 55.5,31.5 C57.5,30 58,29.5 59.5,29.5 C61,29.5 62,29.5 62,30 C62,30 62,31.5 62.5,33.5 C62.5,35.5 62.5,37 63,37.5 C64,39 65,41.5 65.5,43.5 C65.5,45 65.5,45.5 64.5,47 C64,48 62.5,49.5 62,50.5 C60,53.5 55,56.5 49,57.5 C44.5,58 43,58 39,55.5 C35.5,53 34.5,52.5 34,50.5 C34,50 33.5,48.5 33,47 C31,42 30.5,38 30.5,33 C31,26.5 33,19 35,17.5 C35.5,17.5 35.5,17.5 36,19 C36,22.5 37,27 37.5,28 C38,30 41,31.5 42,31.5 C43.5,31 44,29.5 43.5,27 C43,23.5 43,21 44,20 C45,19 45.5,19.5 45.5,21 C45.5,23 46,26.5 47,27.5 C47.5,28.5 49.5,28.5 50.5,28 C51,27.5 51.5,26 52,24.5 C53.5,20.5 54,19 55,17.5 L55.5,16.5 L56,18.5 C57,21 57.5,22 59,22.5 C60.5,22.5 60.5,22.5 64,18.5 C66,16 69.5,13.5 70.5,13.5 C70.5,13.5 71,14 71,15 M31,52 L31.5,53 L29.5,54.5 C28.5,55 26,56.5 24.5,57.5 C21.5,59.5 20.5,59.5 20,59.5 C19.5,59.5 17.5,59.5 16,59.5 C14.5,60 13.5,60 13.5,60 C13.5,60 13.5,59 13.5,58 L13.5,56 L18,54.5 C21,53.5 24.5,52.5 26.5,52 C28,51 30,50.5 30,50.5 C30,50.5 30.5,51 31,52 M74,56 C77,57 81,58.5 83.5,59.5 C86,60 88.5,61 89.5,61.5 L91.5,62 L90.5,62 C89.5,62.5 88.5,62.5 87.5,63 C86.5,63.5 86,63.5 85.5,63 C84.5,63 84,62.5 83.5,62.5 C83,63 83,64.5 83.5,64.5 C84.5,65.5 83,65.5 81,65 C79,65 78.5,65 78.5,65 C78.5,66 78.5,66 78.5,67 C78.5,67.5 78.5,68 78,68 C77.5,68.5 77,68.5 77,69.5 C77,70.5 77,70.5 76,70.5 C75.5,70.5 74.5,70 73.5,68.5 C73,67.5 72.5,66.5 72.5,66.5 C72.5,66 69.5,64.5 69,64 C68.5,64 67,62.5 65,60.5 L62,57 L64,55.5 C66.5,54 67,54 74,56 M34.5,56.5 C35.5,57.5 35,57.5 32,60 C30,61.5 26,64.5 23.5,67 C21,69.5 19,71 18.5,71 C18.5,71 17,71.5 15.5,72 L12.5,73 L11,71.5 L9.5,69.5 L10.5,69 C11,68.5 15.5,66 20,63.5 C25,60.5 30,58 31,57 C33.5,55.5 34,55.5 34.5,56.5 M67.5,68.5 C70.5,72.5 71.5,74.5 71.5,76 C71.5,76.5 72,77.5 72,77.5 C72,77.5 72.5,78 72.5,78.5 C72.5,79 72,79.5 69.5,80 C67.5,81 65.5,82 64.5,82 C64,83 63.5,83 63.5,82.5 C63,82 63,80.5 62.5,78.5 C62,74.5 60,68.5 59,67.5 C58,67 58,66.5 58.5,63 L59,58.5 L62,62.5 C64,64 66.5,67 67.5,68.5 M42,60.5 C42,61 41.5,62.5 40.5,64 C40,65.5 37.5,70 35,74.5 C32,79 30,82.5 30,83 C30,83 29,84 28.5,85 C27.5,86 27,87 27,88 C26.5,88.5 26,88.5 25.5,88.5 C25,88.5 23,88.5 20.5,88.5 L16.5,88.5 L16.5,86.5 C17,84 16.5,83.5 15,83.5 C13.5,84 12,85.5 11.5,87 C11,88 11,88 9.5,87.5 C8.5,87.5 8,87 8,87 C7.5,86.5 24,70.5 32.5,63.5 L38,59 L40.5,59 C42.5,59.5 42.5,59.5 42,60.5 M53.5,69 C53,80.5 53.5,88.5 55,93.5 C55,95 55.5,96 55,96 C55,96 54.5,95.5 53.5,95.5 C52.5,95 52.5,95 52.5,94 C52.5,93.5 52.5,92.5 52,91.5 C52,90.5 51.5,89.5 51.5,89 C51,88 51,88 50.5,88.5 C50,88.5 49,90 49,91 C48,94.5 48,94.5 45,93.5 C43.5,93 41.5,92.5 40.5,92.5 C39.5,92.5 39,92 39.5,91.5 C39.5,91 40,87 41,83 C42.5,76 44.5,67 45.5,63 L46.5,61 L48,61.5 C49,62 50.5,62 51.5,61.5 C52.5,61.5 53.5,61 53.5,61 C54,61 54,63.5 53.5,69 M91,70 C91,70 90,71 88.5,72 C86.5,74 86,74.5 85.5,74 C85,74 83.5,73.5 82.5,73 L80.5,72 L82.5,72 C83.5,71.5 85.5,71 86.5,70 C89,68.5 89.5,68.5 90,69 C90.5,69 91,69.5 91,70 M60.5,80.5 C60,80.5 59.5,80.5 59,80.5 L57.5,81 L57.5,79 C58,78 58,76.5 58,75.5 C58,74.5 58,75 59,77.5 C60,79 60.5,80.5 60.5,80.5 M37.5,80 C37,82.5 37,82.5 36,82.5 C35.5,82 35.5,82 35.5,81.5 C38,76 38.5,75.5 37.5,80 M52.5,39 C51.5,40 52,41.5 53,41.5 C54,41.5 54,41.5 54,40 C54.5,38.5 53.5,38 52.5,39 M42.5,40 C41.5,41 42,42.5 43,43 C43.5,43 44.5,43 44.5,43 C45.5,42 45.5,40.5 45,40 C43.5,39.5 43.5,39.5 42.5,40 M51.5,48 C49.5,48.5 48.5,48.5 47,48 C45,47.5 45,48 45,48.5 C45,49.5 46,51 47.5,51.5 C50,52.5 54.5,50.5 55,48 C55,47 55,47 51.5,48 M26.5,78 C24,81 22,84.5 23,86 C23,86.5 23.5,86 25,83.5 C25.5,82 27,80.5 27.5,79.5 C30,76 29,75 26.5,78 M23,80 C20.5,82.5 19,85.5 20,85.5 C21,85.5 24.5,80.5 24.5,80 C24,79 23.5,79.5 23,80 Z" style="stroke:none;fill-rule:evenodd;fill:#000000;fill-opacity:1;"/>
        </g>
    </g>
</svg>
