<?xml version="1.0"?>
<svg version="1.1" xmlns="http://www.w3.org/2000/svg" xmlns:xlink="http://www.w3.org/1999/xlink" width="350" height="100">
    <desc iVinci="yes" version="4.6" gridStep="20" showGrid="no" snapToGrid="no" codePlatform="0"/>
    <g id="Layer1" name="Layer 1" opacity="1">
        <g id="Shape1">
            <desc shapeID="1" type="0" basicInfo-basicType="0" basicInfo-roundedRectRadius="12" basicInfo-polygonSides="6" basicInfo-starPoints="5" bounding="rect(-512,-499.369,1024,998.738)" text="" font-familyName="" font-pixelSize="20" font-bold="0" font-underline="0" font-alignment="1" strokeStyle="0" markerStart="0" markerEnd="0" shadowEnabled="0" shadowOffsetX="0" shadowOffsetY="2" shadowBlur="4" shadowOpacity="160" blurEnabled="0" blurRadius="4" transform="matrix(0.0625115,0,0,0.0625115,34.4871,50)" pers-center="0,0" pers-size="0,0" pers-start="0,0" pers-end="0,0" locked="0" mesh="" flag=""/>
            <path id="shapePath1" d="M34.4871,18.7837 C16.8038,18.7837 2.48119,33.1063 2.48119,50.7896 C2.48119,64.9522 11.6429,76.9144 24.3652,81.1552 C25.9655,81.4352 26.5656,80.4751 26.5656,79.6349 C26.5656,78.8748 26.5256,76.3543 26.5256,73.6738 C18.4841,75.1541 16.4038,71.7134 15.7636,69.9131 C15.4036,68.9929 13.8433,66.1524 12.483,65.3923 C11.3628,64.7922 9.76253,63.3119 12.443,63.2719 C14.9635,63.2319 16.7638,65.5923 17.3639,66.5525 C20.2445,71.3934 24.8453,70.0331 26.6857,69.193 C26.9657,67.1126 27.8059,65.7123 28.726,64.9122 C21.6047,64.112 14.1633,61.3515 14.1633,49.1093 C14.1633,45.6286 15.4036,42.7481 17.4439,40.5077 C17.1239,39.7075 16.0037,36.4269 17.764,32.0261 C17.764,32.0261 20.4445,31.186 26.5656,35.3067 C29.1261,34.5866 31.8466,34.2265 34.5671,34.2265 C37.2876,34.2265 40.0081,34.5866 42.5686,35.3067 C48.6897,31.146 51.3702,32.0261 51.3702,32.0261 C53.1305,36.4269 52.0103,39.7075 51.6903,40.5077 C53.7306,42.7481 54.9709,45.5886 54.9709,49.1093 C54.9709,61.3915 47.4895,64.112 40.3682,64.9122 C41.5284,65.9124 42.5286,67.8327 42.5286,70.8333 C42.5286,75.1141 42.4886,78.5547 42.4886,79.6349 C42.4886,80.4751 43.0887,81.4753 44.689,81.1552 C57.3313,76.9144 66.493,64.9122 66.493,50.7896 C66.493,33.1063 52.1704,18.7837 34.4871,18.7837 Z" style="stroke:none;fill-rule:evenodd;fill:#1b1f23;fill-opacity:1;"/>
        </g>
        <g id="Shape2">
            <desc shapeID="2" type="0" basicInfo-basicType="0" basicInfo-roundedRectRadius="12" basicInfo-polygonSides="6" basicInfo-starPoints="5" bounding="rect(-82.584,-25.2795,165.168,50.559)" text="" font-familyName="" font-pixelSize="20" font-bold="0" font-underline="0" font-alignment="1" strokeStyle="0" markerStart="0" markerEnd="0" shadowEnabled="0" shadowOffsetX="0" shadowOffsetY="2" shadowBlur="4" shadowOpacity="160" blurEnabled="0" blurRadius="4" transform="matrix(0.950139,0,0,0.950139,269.052,44.7367)" pers-center="0,0" pers-size="0,0" pers-start="0,0" pers-end="0,0" locked="0" mesh="" flag=""/>
            <path id="shapePath2" d="M190.587,64.6397 L193.37,58.1351 C196.417,60.3917 200.392,61.586 204.367,61.586 C207.282,61.586 209.137,60.4582 209.137,58.7327 C209.07,53.9535 191.581,57.6705 191.448,45.655 C191.381,39.5485 196.814,34.8358 204.5,34.8358 C209.07,34.8358 213.642,35.9645 216.888,38.5537 L214.287,45.197 C211.301,43.2768 207.613,41.9381 204.102,41.9381 C201.717,41.9381 200.127,43.0659 200.127,44.5272 C200.193,49.2399 217.816,46.6508 218.015,58.1351 C218.015,64.3746 212.714,68.7557 205.161,68.7557 C199.597,68.7557 194.496,67.4284 190.586,64.6397 M301.4,55.7797 C299.97,58.321 297.28,59.8936 294.364,59.8938 C289.9,59.8938 286.282,56.2681 286.282,51.7958 C286.282,47.3234 289.9,43.6977 294.364,43.6977 C297.28,43.6979 299.97,45.2705 301.4,47.8118 L309.137,43.5172 C306.239,38.338 300.711,34.8358 294.364,34.8358 C285.016,34.8358 277.437,42.4283 277.437,51.7958 C277.437,61.1622 285.016,68.7557 294.364,68.7557 C300.711,68.7557 306.239,65.2535 309.137,60.0743 L301.4,55.7797 M223.035,68.0916 L232.708,68.0916 L232.708,20.7176 L223.036,20.7176 L223.035,68.0916 M314.022,20.7176 L314.022,68.0916 L323.694,68.0916 L323.694,53.8984 L335.156,68.0916 L347.519,68.0916 L332.944,51.2304 L346.458,35.4971 L334.625,35.4971 L323.694,48.5776 L323.694,20.7176 L314.022,20.7176 M262.507,35.499 L262.507,39.3499 C260.917,36.6942 257.009,34.8358 252.901,34.8358 C244.421,34.8358 237.73,42.3371 237.73,51.7625 C237.73,61.1879 244.421,68.7557 252.901,68.7557 C257.009,68.7557 260.917,66.8973 262.507,64.2416 L262.507,68.0916 L272.179,68.0916 L272.179,35.499 L262.507,35.499 M262.507,55.8452 C261.116,58.1683 258.201,59.8928 254.955,59.8928 C250.491,59.8928 246.872,56.2681 246.872,51.7958 C246.872,47.3234 250.491,43.6977 254.955,43.6977 C258.201,43.6977 261.116,45.4897 262.507,47.8783 L262.507,55.8452 Z" style="stroke:none;fill-rule:nonzero;fill:#000000;fill-opacity:1;"/>
        </g>
        <g id="Shape3">
            <desc shapeID="3" type="0" basicInfo-basicType="0" basicInfo-roundedRectRadius="12" basicInfo-polygonSides="6" basicInfo-starPoints="5" bounding="rect(-13.938,-13.9655,27.876,27.931)" text="" font-familyName="" font-pixelSize="20" font-bold="0" font-underline="0" font-alignment="1" strokeStyle="0" markerStart="0" markerEnd="0" shadowEnabled="0" shadowOffsetX="0" shadowOffsetY="2" shadowBlur="4" shadowOpacity="160" blurEnabled="0" blurRadius="4" transform="matrix(0.950139,0,0,0.950139,131.94,32.9398)" pers-center="0,0" pers-size="0,0" pers-start="0,0" pers-end="0,0" locked="0" mesh="" flag=""/>
            <path id="shapePath3" d="M139.507,19.6706 C136.372,19.6706 133.831,22.217 133.831,25.3572 C133.828,28.4947 136.369,31.0406 139.507,31.0438 L145.183,31.0438 L145.183,25.3572 C145.185,22.2196 142.644,19.6738 139.507,19.6706 M139.507,34.8348 L124.372,34.8348 C121.237,34.8348 118.697,37.3812 118.697,40.5224 C118.697,43.6626 121.237,46.209 124.372,46.209 L139.508,46.209 C142.641,46.209 145.183,43.6626 145.183,40.5224 C145.183,37.3812 142.641,34.8348 139.507,34.8348 Z" style="stroke:none;fill-rule:nonzero;fill:#36c5f0;fill-opacity:1;"/>
        </g>
        <g id="Shape4">
            <desc shapeID="4" type="0" basicInfo-basicType="0" basicInfo-roundedRectRadius="12" basicInfo-polygonSides="6" basicInfo-starPoints="5" bounding="rect(-13.938,-13.966,27.876,27.932)" text="" font-familyName="" font-pixelSize="20" font-bold="0" font-underline="0" font-alignment="1" strokeStyle="0" markerStart="0" markerEnd="0" shadowEnabled="0" shadowOffsetX="0" shadowOffsetY="2" shadowBlur="4" shadowOpacity="160" blurEnabled="0" blurRadius="4" transform="matrix(0.950139,0,0,0.950139,162.209,32.9402)" pers-center="0,0" pers-size="0,0" pers-start="0,0" pers-end="0,0" locked="0" mesh="" flag=""/>
            <path id="shapePath4" d="M175.452,40.5224 C175.452,37.3812 172.911,34.8348 169.776,34.8348 C166.642,34.8348 164.101,37.3812 164.101,40.5224 L164.101,46.2089 L169.776,46.2089 C172.914,46.2058 175.455,43.66 175.452,40.5224 M160.318,40.5224 L160.318,25.3572 C160.32,22.2196 157.779,19.6737 154.641,19.6706 C151.507,19.6706 148.966,22.217 148.966,25.3572 L148.966,40.5214 C148.966,43.6635 151.507,46.2099 154.641,46.2099 C157.779,46.2067 160.32,43.6609 160.318,40.5233 Z" style="stroke:none;fill-rule:nonzero;fill:#2eb67d;fill-opacity:1;"/>
        </g>
        <g id="Shape5">
            <desc shapeID="5" type="0" basicInfo-basicType="0" basicInfo-roundedRectRadius="12" basicInfo-polygonSides="6" basicInfo-starPoints="5" bounding="rect(-13.938,-13.9655,27.876,27.931)" text="" font-familyName="" font-pixelSize="20" font-bold="0" font-underline="0" font-alignment="1" strokeStyle="0" markerStart="0" markerEnd="0" shadowEnabled="0" shadowOffsetX="0" shadowOffsetY="2" shadowBlur="4" shadowOpacity="160" blurEnabled="0" blurRadius="4" transform="matrix(0.950139,0,0,0.950139,162.209,63.2692)" pers-center="0,0" pers-size="0,0" pers-start="0,0" pers-end="0,0" locked="0" mesh="" flag=""/>
            <path id="shapePath5" d="M154.641,76.5383 C157.779,76.5352 160.32,73.9894 160.318,70.8518 C160.32,67.7141 157.779,65.1683 154.641,65.1652 L148.966,65.1652 L148.966,70.8518 C148.966,73.992 151.507,76.5383 154.641,76.5383 M154.641,61.3741 L169.777,61.3741 C172.911,61.3741 175.452,58.8277 175.452,55.6866 C175.455,52.549 172.914,50.0032 169.776,50 L154.641,50 C151.507,50 148.966,52.5464 148.966,55.6866 C148.963,58.8241 151.504,61.37 154.641,61.3732 Z" style="stroke:none;fill-rule:nonzero;fill:#ecb22e;fill-opacity:1;"/>
        </g>
        <g id="Shape6">
            <desc shapeID="6" type="0" basicInfo-basicType="0" basicInfo-roundedRectRadius="12" basicInfo-polygonSides="6" basicInfo-starPoints="5" bounding="rect(-13.938,-13.9655,27.876,27.931)" text="" font-familyName="" font-pixelSize="20" font-bold="0" font-underline="0" font-alignment="1" strokeStyle="0" markerStart="0" markerEnd="0" shadowEnabled="0" shadowOffsetX="0" shadowOffsetY="2" shadowBlur="4" shadowOpacity="160" blurEnabled="0" blurRadius="4" transform="matrix(0.950139,0,0,0.950139,131.94,63.2692)" pers-center="0,0" pers-size="0,0" pers-start="0,0" pers-end="0,0" locked="0" mesh="" flag=""/>
            <path id="shapePath6" d="M118.697,55.6866 C118.694,58.8241 121.234,61.37 124.372,61.3732 C127.51,61.37 130.051,58.8242 130.048,55.6866 L130.048,50 L124.372,50 C121.237,50 118.697,52.5464 118.697,55.6866 M133.831,55.6866 L133.831,70.8508 C133.831,73.992 136.372,76.5383 139.507,76.5383 C142.644,76.5352 145.185,73.9894 145.183,70.8518 L145.183,55.6866 C145.186,52.5488 142.645,50.0026 139.507,50 C136.372,50 133.831,52.5464 133.831,55.6866 Z" style="stroke:none;fill-rule:nonzero;fill:#e01e5a;fill-opacity:1;"/>
        </g>
        <g id="Shape7">
            <desc shapeID="7" type="0" basicInfo-basicType="0" basicInfo-roundedRectRadius="12" basicInfo-polygonSides="6" basicInfo-starPoints="5" bounding="rect(-26.4404,-26.4404,52.8809,52.8809)" text="+" font-familyName="Helvetica" font-pixelSize="100" font-bold="1" font-underline="0" font-alignment="1" strokeStyle="0" markerStart="0" markerEnd="0" shadowEnabled="0" shadowOffsetX="0" shadowOffsetY="2" shadowBlur="4" shadowOpacity="160" blurEnabled="0" blurRadius="4" transform="matrix(0.413198,0,0,0.413198,91.7503,50)" pers-center="0,0" pers-size="0,0" pers-start="0,0" pers-end="0,0" locked="0" mesh="" flag=""/>
            <path id="shapePath7" d="M80.8252,52.6128 L80.8252,47.3469 L89.0972,47.3469 L89.0972,39.0749 L94.4034,39.0749 L94.4034,47.3469 L102.675,47.3469 L102.675,52.6128 L94.4034,52.6128 L94.4034,60.9251 L89.0972,60.9251 L89.0972,52.6128 L80.8252,52.6128 Z" style="stroke:none;fill-rule:nonzero;fill:#000000;fill-opacity:1;"/>
        </g>
    </g>
</svg>
