<?xml version="1.0"?>
<svg version="1.1" xmlns="http://www.w3.org/2000/svg" xmlns:xlink="http://www.w3.org/1999/xlink" width="536" height="614">
    <desc iVinci="yes" version="4.6" gridStep="20" showGrid="no" snapToGrid="no" codePlatform="0"/>
    <g id="Layer1" name="Layer 2" opacity="1">
        <g id="Shape1">
            <desc shapeID="1" type="0" basicInfo-basicType="0" basicInfo-roundedRectRadius="12" basicInfo-polygonSides="6" basicInfo-starPoints="5" bounding="rect(-52.8477,-52.8479,105.695,105.696)" text="" font-familyName="" font-pixelSize="20" font-bold="0" font-underline="0" font-alignment="1" strokeStyle="0" markerStart="0" markerEnd="0" shadowEnabled="0" shadowOffsetX="0" shadowOffsetY="2" shadowBlur="4" shadowOpacity="160" blurEnabled="0" blurRadius="4" transform="matrix(5.33793,0,0,5.33793,313,234)" pers-center="0,0" pers-size="0,0" pers-start="0,0" pers-end="0,0" locked="0" mesh="" flag=""/>
            <path id="shapePath1" d="M284.541,-35.9128 C301.058,-52.2718 327.711,-52.1429 344.069,-35.625 L582.915,205.539 C599.27,222.057 599.142,248.709 582.626,265.068 L445.836,400.541 L341.461,503.912 C324.943,520.273 298.291,520.144 281.932,503.624 L43.0886,262.46 C26.7296,245.942 26.8585,219.29 43.3764,202.931 L284.541,-35.9128 Z" style="stroke:none;fill-rule:evenodd;fill:#f05133;fill-opacity:1;"/>
        </g>
        <g id="Shape2">
            <desc shapeID="2" type="0" basicInfo-basicType="0" basicInfo-roundedRectRadius="12" basicInfo-polygonSides="6" basicInfo-starPoints="5" bounding="rect(-8.11065,-8.11065,16.2213,16.2213)" text="" font-familyName="" font-pixelSize="20" font-bold="0" font-underline="0" font-alignment="1" strokeStyle="0" markerStart="0" markerEnd="0" shadowEnabled="0" shadowOffsetX="0" shadowOffsetY="2" shadowBlur="4" shadowOpacity="160" blurEnabled="0" blurRadius="4" transform="matrix(5.33793,0,0,5.33793,313.001,234)" pers-center="0,0" pers-size="0,0" pers-start="0,0" pers-end="0,0" locked="0" mesh="" flag=""/>
            <path id="shapePath2" d="M269.707,233.999 C269.707,210.089 289.09,190.705 313.001,190.705 C336.911,190.705 356.295,210.089 356.295,233.999 C356.295,257.91 336.911,277.294 313.001,277.294 C289.09,277.294 269.707,257.91 269.707,233.999 Z" style="stroke:none;fill-rule:evenodd;fill:#ffffff;fill-opacity:1;"/>
        </g>
        <g id="Shape3">
            <desc shapeID="3" type="0" basicInfo-basicType="0" basicInfo-roundedRectRadius="12" basicInfo-polygonSides="6" basicInfo-starPoints="5" bounding="rect(-3.4223,-26.3106,6.8446,52.6213)" text="" font-familyName="" font-pixelSize="20" font-bold="0" font-underline="0" font-alignment="1" strokeStyle="0" markerStart="0" markerEnd="0" shadowEnabled="0" shadowOffsetX="0" shadowOffsetY="2" shadowBlur="4" shadowOpacity="160" blurEnabled="0" blurRadius="4" transform="matrix(5.33793,0,0,5.33793,313.001,315.657)" pers-center="0,0" pers-size="0,0" pers-start="0,0" pers-end="0,0" locked="0" mesh="" flag=""/>
            <path id="shapePath3" d="M294.733,175.213 L331.269,175.213 L331.269,423.054 C331.269,423.054 313.215,456.102 313.215,456.102 C313.215,456.102 294.733,423.054 294.733,423.054 L294.733,175.213 Z" style="stroke:none;fill-rule:evenodd;fill:#ffffff;fill-opacity:1;"/>
        </g>
        <g id="Shape4">
            <desc shapeID="4" type="0" basicInfo-basicType="0" basicInfo-roundedRectRadius="12" basicInfo-polygonSides="6" basicInfo-starPoints="5" bounding="rect(-13.1206,-13.4444,26.2412,26.8888)" text="" font-familyName="" font-pixelSize="20" font-bold="0" font-underline="0" font-alignment="1" strokeStyle="0" markerStart="0" markerEnd="0" shadowEnabled="0" shadowOffsetX="0" shadowOffsetY="2" shadowBlur="4" shadowOpacity="160" blurEnabled="0" blurRadius="4" transform="matrix(5.33793,0,0,5.33793,266.832,190.705)" pers-center="0,0" pers-size="0,0" pers-start="0,0" pers-end="0,0" locked="0" mesh="" flag=""/>
            <path id="shapePath4" d="M336.868,236.878 L310.793,262.47 C310.793,262.47 205.642,155.332 205.642,155.332 C205.642,155.332 196.795,118.94 196.795,118.94 C196.795,118.94 232.454,130.492 232.454,130.492 L336.868,236.878 Z" style="stroke:none;fill-rule:evenodd;fill:#ffffff;fill-opacity:1;"/>
        </g>
    </g>
    <g id="Layer2" name="Layer 1" opacity="1">
        <g id="Shape5">
            <desc shapeID="5" type="0" basicInfo-basicType="0" basicInfo-roundedRectRadius="12" basicInfo-polygonSides="6" basicInfo-starPoints="5" bounding="rect(-8.871,-8.82393,17.742,17.6479)" text="" font-familyName="" font-pixelSize="20" font-bold="0" font-underline="0" font-alignment="1" strokeStyle="0" markerStart="0" markerEnd="0" shadowEnabled="0" shadowOffsetX="0" shadowOffsetY="2" shadowBlur="4" shadowOpacity="160" blurEnabled="0" blurRadius="4" transform="matrix(2.06495,0,0,2.06495,163.528,253.063)" pers-center="0,0" pers-size="0,0" pers-start="0,0" pers-end="0,0" locked="0" mesh="" flag=""/>
            <path id="shapePath5" d="M154.589,236.701 C147.996,239.632 145.21,244.321 145.21,252.674 C145.21,265.716 151.072,271.284 164.408,271.284 C171.001,271.284 172.467,270.698 176.864,266.302 C181.113,262.052 181.846,260.294 181.846,254.139 C181.846,245.054 179.354,240.364 173.054,237.287 C167.045,234.21 160.891,234.063 154.589,236.701 Z" style="stroke:none;fill-rule:nonzero;fill:#413000;fill-opacity:1;"/>
        </g>
        <g id="Shape6">
            <desc shapeID="6" type="0" basicInfo-basicType="0" basicInfo-roundedRectRadius="12" basicInfo-polygonSides="6" basicInfo-starPoints="5" bounding="rect(-20.1079,-34.0163,40.2158,68.0326)" text="" font-familyName="" font-pixelSize="20" font-bold="0" font-underline="0" font-alignment="1" strokeStyle="0" markerStart="0" markerEnd="0" shadowEnabled="0" shadowOffsetX="0" shadowOffsetY="2" shadowBlur="4" shadowOpacity="160" blurEnabled="0" blurRadius="4" transform="matrix(2.06495,0,0,2.06495,235.091,325.407)" pers-center="0,0" pers-size="0,0" pers-start="0,0" pers-end="0,0" locked="0" mesh="" flag=""/>
            <path id="shapePath6" d="M220.531,259.121 C217.601,272.31 216.281,275.241 211.299,280.369 C207.342,284.179 203.972,286.085 199.723,286.817 L193.569,287.843 L193.569,297.075 L193.569,306.453 L201.629,306.453 L209.688,306.453 L209.688,338.985 C209.688,358.181 210.421,374.008 211.299,377.525 C213.498,385.145 220.824,392.179 228.884,394.377 C237.823,396.868 256.874,395.549 267.424,391.739 C272.114,389.98 276.217,388.369 276.51,388.075 C276.95,387.782 275.923,383.679 274.457,378.844 C272.553,372.982 271.087,370.344 269.621,370.637 C264.054,372.103 252.038,372.689 248.522,371.81 C241.779,370.051 240.46,364.043 240.46,333.563 L240.46,306.453 L255.848,306.453 L271.234,306.453 L271.234,296.196 L271.234,285.938 L255.848,285.938 L240.46,285.938 L240.46,270.551 L240.46,255.165 L230.936,255.165 C221.851,255.165 221.411,255.311 220.531,259.121 Z" style="stroke:none;fill-rule:nonzero;fill:#413000;fill-opacity:1;"/>
        </g>
        <g id="Shape7">
            <desc shapeID="7" type="0" basicInfo-basicType="0" basicInfo-roundedRectRadius="12" basicInfo-polygonSides="6" basicInfo-starPoints="5" bounding="rect(-26.612,-37.7886,53.224,75.5771)" text="" font-familyName="" font-pixelSize="20" font-bold="0" font-underline="0" font-alignment="1" strokeStyle="0" markerStart="0" markerEnd="0" shadowEnabled="0" shadowOffsetX="0" shadowOffsetY="2" shadowBlur="4" shadowOpacity="160" blurEnabled="0" blurRadius="4" transform="matrix(2.06495,0,0,2.06495,72.6744,366.167)" pers-center="0,0" pers-size="0,0" pers-start="0,0" pers-end="0,0" locked="0" mesh="" flag=""/>
            <path id="shapePath7" d="M57.2864,288.722 C34.4274,291.946 20.6521,306.6 20.6521,328.141 C20.6521,338.399 23.731,346.019 30.471,353.199 L36.7711,359.647 L28.8582,368 C19.6279,377.671 17.5753,383.972 21.2386,391.153 C22.4115,393.497 24.462,395.842 25.7814,396.428 C27.5408,397.014 27.101,398.48 22.8513,404.048 C18.6016,409.617 17.722,411.961 17.722,418.116 C17.722,436.579 32.3749,444.199 68.1315,444.199 C105.646,444.199 125.135,431.744 125.281,407.565 C125.428,385.731 115.318,379.723 72.821,376.792 C60.8051,375.913 50.693,375.033 50.2532,374.74 C49.96,374.301 50.8397,372.103 52.3057,369.611 L54.9427,365.215 L66.812,366.094 C87.3273,367.56 103.446,360.819 111.215,347.631 C116.489,338.692 116.782,323.159 111.946,314.952 L108.869,309.53 L118.248,308.651 L127.627,307.626 L127.627,299.126 L127.627,290.773 L100.956,289.748 C86.1565,289.308 72.2346,288.576 69.7422,288.282 C67.3985,287.989 61.6827,288.136 57.2864,288.722 M80.5873,311.436 C91.577,317.151 90.2596,337.519 78.5348,342.502 C67.8383,346.898 54.5029,343.234 51.4261,334.882 C48.2027,326.529 50.8397,316.418 57.5796,311.729 C61.6827,308.798 75.0182,308.651 80.5873,311.436 M73.9919,405.514 C94.5092,406.686 99.1967,410.496 91.2838,419.581 C85.4235,426.468 49.6667,426.762 43.953,419.874 C41.4606,416.943 41.9005,411.229 44.6861,406.686 C46.8832,403.462 48.0561,403.022 52.599,403.755 C55.5291,404.195 65.2014,404.927 73.9919,405.514 Z" style="stroke:none;fill-rule:nonzero;fill:#413000;fill-opacity:1;"/>
        </g>
        <g id="Shape8">
            <desc shapeID="8" type="0" basicInfo-basicType="0" basicInfo-roundedRectRadius="12" basicInfo-polygonSides="6" basicInfo-starPoints="5" bounding="rect(-14.193,-26.2569,28.3861,52.5139)" text="" font-familyName="" font-pixelSize="20" font-bold="0" font-underline="0" font-alignment="1" strokeStyle="0" markerStart="0" markerEnd="0" shadowEnabled="0" shadowOffsetX="0" shadowOffsetY="2" shadowBlur="4" shadowOpacity="160" blurEnabled="0" blurRadius="4" transform="matrix(2.06495,0,0,2.06495,165.725,341.623)" pers-center="0,0" pers-size="0,0" pers-start="0,0" pers-end="0,0" locked="0" mesh="" flag=""/>
            <path id="shapePath8" d="M138.617,290.627 C138.323,292.532 137.737,296.489 137.59,299.713 C137.15,305.134 137.444,305.427 143.013,307.333 C146.09,308.505 149.313,310.263 149.899,311.289 C150.486,312.168 151.072,326.969 151.072,343.967 C151.072,376.499 150.779,378.257 144.332,378.257 C137.59,378.257 136.417,379.576 136.417,387.929 L136.417,395.842 L165.725,395.842 L195.033,395.842 L195.033,387.782 C195.033,379.283 195.18,379.43 185.51,377.964 C182.724,377.525 182.577,376.206 182.137,332.391 L181.846,287.403 L160.598,287.403 C139.789,287.403 139.35,287.403 138.617,290.627 Z" style="stroke:none;fill-rule:nonzero;fill:#413000;fill-opacity:1;"/>
        </g>
        <g id="Shape9">
            <desc shapeID="9" type="0" basicInfo-basicType="0" basicInfo-roundedRectRadius="12" basicInfo-polygonSides="6" basicInfo-starPoints="5" bounding="rect(-25.8071,-33.291,51.6142,66.5819)" text="" font-familyName="" font-pixelSize="20" font-bold="0" font-underline="0" font-alignment="1" strokeStyle="0" markerStart="0" markerEnd="0" shadowEnabled="0" shadowOffsetX="0" shadowOffsetY="2" shadowBlur="4" shadowOpacity="160" blurEnabled="0" blurRadius="4" transform="matrix(2.06495,0,0,2.06495,71.0123,525.911)" pers-center="0,0" pers-size="0,0" pers-start="0,0" pers-end="0,0" locked="0" mesh="" flag=""/>
            <path id="shapePath9" d="M18.2653,458.542 C17.3196,461.12 17.6644,471.518 18.8662,472.377 C19.3825,472.807 21.7881,473.924 24.0224,474.697 C26.8576,475.728 28.4043,476.931 29.0072,478.392 C29.8663,480.712 29.0072,566.948 29.0072,566.948 C28.5282,575.837 19.3185,576.272 18.5235,581.476 C17.6892,586.926 18.5235,594.656 18.5235,594.656 L33.9053,594.656 C42.3262,594.656 53.4108,594.398 58.4803,594.054 L67.6755,593.539 L67.4174,586.149 L67.1593,578.759 L61.1441,577.899 L55.1288,577.04 L54.8707,552.292 L54.6994,527.63 L59.5128,524.536 C64.925,521.099 72.5735,518.092 76.2677,518.006 C79.7059,517.92 82.9706,520.326 84.8621,524.451 C86.322,527.716 86.1485,530.383 86.4934,553.065 C86.6772,565.069 86.4934,564.762 86.4934,570.611 C86.4934,575.654 77.261,578.759 76.2677,582.909 C75.1878,587.418 76.3875,594.656 76.3875,594.656 L99.7277,594.656 L124.303,594.656 L124.303,586.578 L124.303,578.501 L118.975,577.727 L113.563,577.04 L113.305,568.017 C112.446,532.7 111.587,517.576 110.038,513.452 C107.89,507.436 101.188,500.906 95.0877,498.843 C85.3763,495.492 73.0898,497.383 60.886,504.085 C57.9661,505.718 55.3023,507.007 55.1288,507.007 C54.8707,507.007 54.6994,495.75 54.6994,482.087 L54.6994,457.167 L36.7404,457.167 C21.1873,457.167 18.6949,457.339 18.2653,458.542 Z" style="stroke:none;fill-rule:evenodd;fill:#413000;fill-opacity:1;"/>
        </g>
        <g id="Shape10">
            <desc shapeID="10" type="0" basicInfo-basicType="0" basicInfo-roundedRectRadius="12" basicInfo-polygonSides="6" basicInfo-starPoints="5" bounding="rect(-22.5735,-24.6136,45.1471,49.2272)" text="" font-familyName="" font-pixelSize="20" font-bold="0" font-underline="0" font-alignment="1" strokeStyle="0" markerStart="0" markerEnd="0" shadowEnabled="0" shadowOffsetX="0" shadowOffsetY="2" shadowBlur="4" shadowOpacity="160" blurEnabled="0" blurRadius="4" transform="matrix(2.06495,0,0,2.06495,170.916,550.369)" pers-center="0,0" pers-size="0,0" pers-start="0,0" pers-end="0,0" locked="0" mesh="" flag=""/>
            <path id="shapePath10" d="M147.075,507.625 C133.892,517.814 124.303,530.122 124.303,552.12 C124.303,576.009 134.031,589.693 149.652,596.46 C165.116,603.158 183.606,603.069 196.398,594.14 C209.994,584.652 216.914,570.81 217.504,549.104 C218.004,530.75 211.109,506.165 189.782,501.507 C175.511,497.931 158.453,498.83 147.075,507.625 M181.948,522.762 C192.413,528 192.496,540.152 192.496,550.369 C193.291,562.047 187.131,579.274 174.659,579.274 C165.893,579.274 161.081,577.469 156.958,572.485 C152.723,567.377 150.193,559.61 150.193,551.694 C150.193,540.183 153.175,528.386 160.051,524.107 C167.439,519.552 175.416,519.41 181.948,522.762 Z" style="stroke:none;fill-rule:evenodd;fill:#413000;fill-opacity:1;"/>
        </g>
        <g id="Shape11">
            <desc shapeID="11" type="0" basicInfo-basicType="0" basicInfo-roundedRectRadius="12" basicInfo-polygonSides="6" basicInfo-starPoints="5" bounding="rect(-18.0854,-23.5336,36.1708,47.0672)" text="" font-familyName="" font-pixelSize="20" font-bold="0" font-underline="0" font-alignment="1" strokeStyle="0" markerStart="0" markerEnd="0" shadowEnabled="0" shadowOffsetX="0" shadowOffsetY="2" shadowBlur="4" shadowOpacity="160" blurEnabled="0" blurRadius="4" transform="matrix(2.06495,0,0,2.06495,366.935,548.208)" pers-center="0,0" pers-size="0,0" pers-start="0,0" pers-end="0,0" locked="0" mesh="" flag=""/>
            <path id="shapePath11" d="M385.445,500.046 C381.406,500.82 378.399,502.28 370.063,507.35 C367.486,508.983 365.08,510.1 364.822,509.928 C364.477,509.756 364.048,507.694 363.705,505.288 L363.104,500.992 C363.104,500.992 332.07,501.928 332.07,501.928 L329.59,516.373 L335.692,518.35 L341.792,520.24 L341.536,549.972 C341.191,584 341.019,584.688 335.605,585.461 C333.629,585.719 331.911,586.063 331.739,586.32 C331.481,586.492 331.223,588.984 331.137,591.734 L330.965,596.804 L357.26,596.804 C378.312,596.804 383.813,596.546 384.928,595.601 C386.046,594.742 386.39,593.023 386.39,588.984 C386.39,582.539 385.36,581.25 379.688,580.477 C377.453,580.133 373.931,579.618 371.783,579.274 L367.915,578.758 L367.399,571.025 C367.056,566.728 366.798,555.729 366.711,546.449 L366.627,529.606 L370.321,527.029 C372.297,525.568 375.219,523.763 376.852,522.904 C380.204,521.185 380.805,521.701 381.579,527.114 C382.523,533.215 382.609,533.215 393.866,533.215 L404.007,533.215 L404.265,517.404 C404.349,508.639 404.091,501.163 403.662,500.734 C402.631,499.703 390.258,499.187 385.445,500.046 Z" style="stroke:none;fill-rule:evenodd;fill:#413000;fill-opacity:1;"/>
        </g>
        <g id="Shape12">
            <desc shapeID="12" type="0" basicInfo-basicType="0" basicInfo-roundedRectRadius="12" basicInfo-polygonSides="6" basicInfo-starPoints="5" bounding="rect(-18.435,-23.8152,36.87,47.6304)" text="" font-familyName="" font-pixelSize="20" font-bold="0" font-underline="0" font-alignment="1" strokeStyle="0" markerStart="0" markerEnd="0" shadowEnabled="0" shadowOffsetX="0" shadowOffsetY="2" shadowBlur="4" shadowOpacity="160" blurEnabled="0" blurRadius="4" transform="matrix(2.06495,0,0,2.06495,446.714,548.8)" pers-center="0,0" pers-size="0,0" pers-start="0,0" pers-end="0,0" locked="0" mesh="" flag=""/>
            <path id="shapePath12" d="M443.276,500.132 C432.534,502.109 418.079,508.129 413.373,521.357 C410.428,529.627 411.482,541.121 416.638,547.05 C420.247,551.175 425.401,553.581 439.41,557.792 C459.087,563.721 460.805,565.181 460.376,575.321 C460.204,579.961 459.517,580.305 450.753,580.133 C440.87,580.047 433.909,578.672 432.879,576.782 C432.449,576.009 431.59,572.915 431.074,569.908 C430.473,566.986 429.785,564.408 429.441,564.236 C422.659,563.436 415.554,562.922 408.646,561.794 L408.905,580.047 C408.905,580.047 408.876,586.706 409.859,589.81 C410.443,591.652 413.286,593.882 413.286,593.882 C421.278,597.062 432.104,598.265 447.831,597.921 C459.946,597.577 463.213,597.233 466.907,595.773 C474.297,592.851 479.625,588.383 482.373,582.797 C484.523,578.415 484.781,577.04 484.781,568.876 C484.781,558.393 483.749,554.612 479.367,549.8 C475.328,545.332 469.055,542.238 456.08,538.457 C450.237,536.739 443.963,534.504 442.159,533.645 C433.308,529.091 434.768,521.615 445.167,518.607 C449.807,517.232 455.994,517.404 458.486,518.951 C459,519.295 459.946,522.302 460.549,525.568 L461.666,531.497 L472.321,531.755 L482.89,532.012 L482.289,518.006 C482.031,510.358 481.43,503.741 481.085,503.398 C478.508,500.82 452.041,498.585 443.276,500.132 Z" style="stroke:none;fill-rule:evenodd;fill:#413000;fill-opacity:1;"/>
        </g>
        <g id="Shape13">
            <desc shapeID="13" type="0" basicInfo-basicType="0" basicInfo-roundedRectRadius="12" basicInfo-polygonSides="6" basicInfo-starPoints="5" bounding="rect(-25.5515,-23.5117,51.103,47.0235)" text="" font-familyName="" font-pixelSize="20" font-bold="0" font-underline="0" font-alignment="1" strokeStyle="0" markerStart="0" markerEnd="0" shadowEnabled="0" shadowOffsetX="0" shadowOffsetY="2" shadowBlur="4" shadowOpacity="160" blurEnabled="0" blurRadius="4" transform="matrix(2.06495,0,0,2.06495,269.181,551.261)" pers-center="0,0" pers-size="0,0" pers-start="0,0" pers-end="0,0" locked="0" mesh="" flag=""/>
            <path id="shapePath13" d="M217.517,503.827 C216.525,508.502 216.172,512.536 216.592,516.889 C216.85,517.576 219.342,518.693 222.177,519.553 L227.42,521.013 L227.505,533.559 C227.505,540.434 227.85,553.839 228.192,563.291 C229.051,583.313 230.34,588.211 236.184,593.882 C240.995,598.523 245.893,599.812 258.869,599.812 C270.212,599.812 276.828,598.351 283.961,594.312 C287.227,592.336 287.57,592.336 287.57,593.71 C287.57,596.89 289.633,597.405 306.045,597.921 L321.943,598.351 L321.943,590.961 C321.943,586.063 321.598,583.399 320.911,582.969 C320.31,582.625 317.904,581.852 315.499,581.336 L311.201,580.391 L310.685,543.871 C310.427,523.849 310.084,506.405 309.997,505.03 L309.913,502.71 L275.54,503.241 C275.54,503.241 274.846,507.316 274.681,509.596 C274.557,511.306 274.681,513.537 274.681,515.17 C274.681,517.92 274.852,518.092 279.665,519.639 L284.564,521.185 L284.82,546.621 L284.993,572.142 L281.813,574.892 C277.344,578.844 273.392,580.305 266.947,580.391 C260.158,580.477 256.377,578.329 254.83,573.345 C254.229,571.368 253.713,558.135 253.455,537.426 C253.199,519.381 252.425,503.827 252.425,503.827 L217.517,503.827 Z" style="stroke:none;fill-rule:evenodd;fill:#413000;fill-opacity:1;"/>
        </g>
    </g>
</svg>
