<?xml version="1.0"?>
<svg version="1.1" xmlns="http://www.w3.org/2000/svg" xmlns:xlink="http://www.w3.org/1999/xlink" width="600" height="160">
    <desc iVinci="yes" version="4.6" gridStep="20" showGrid="no" snapToGrid="no" codePlatform="0"/>
    <g id="Layer1" name="Layer 3" opacity="1">
        <g id="Shape1">
            <desc shapeID="1" type="0" basicInfo-basicType="0" basicInfo-roundedRectRadius="12" basicInfo-polygonSides="6" basicInfo-starPoints="5" bounding="rect(-8.871,-8.82393,17.742,17.6479)" text="" font-familyName="" font-pixelSize="20" font-bold="0" font-underline="0" font-alignment="1" strokeStyle="0" markerStart="0" markerEnd="0" shadowEnabled="0" shadowOffsetX="0" shadowOffsetY="2" shadowBlur="4" shadowOpacity="160" blurEnabled="0" blurRadius="4" transform="matrix(0.680479,0,0,0.680479,264.713,50.8161)" pers-center="0,0" pers-size="0,0" pers-start="0,0" pers-end="0,0" locked="0" mesh="" flag=""/>
            <path id="shapePath1" d="M261.768,45.4242 C259.595,46.39 258.677,47.9353 258.677,50.6878 C258.677,54.9857 260.609,56.8206 265.003,56.8206 C267.176,56.8206 267.659,56.6275 269.108,55.1788 C270.508,53.7784 270.75,53.1989 270.75,51.1708 C270.75,48.1767 269.929,46.6315 267.853,45.6174 C265.872,44.6033 263.844,44.555 261.768,45.4242 Z" style="stroke:none;fill-rule:nonzero;fill:#413000;fill-opacity:1;"/>
        </g>
        <g id="Shape2">
            <desc shapeID="2" type="0" basicInfo-basicType="0" basicInfo-roundedRectRadius="12" basicInfo-polygonSides="6" basicInfo-starPoints="5" bounding="rect(-20.1079,-34.0163,40.2158,68.0326)" text="" font-familyName="" font-pixelSize="20" font-bold="0" font-underline="0" font-alignment="1" strokeStyle="0" markerStart="0" markerEnd="0" shadowEnabled="0" shadowOffsetX="0" shadowOffsetY="2" shadowBlur="4" shadowOpacity="160" blurEnabled="0" blurRadius="4" transform="matrix(0.680479,0,0,0.680479,288.296,74.6561)" pers-center="0,0" pers-size="0,0" pers-start="0,0" pers-end="0,0" locked="0" mesh="" flag=""/>
            <path id="shapePath2" d="M283.498,52.8126 C282.532,57.1587 282.098,58.1245 280.456,59.8146 C279.152,61.0702 278.041,61.698 276.641,61.9394 L274.613,62.2774 L274.613,65.3197 L274.613,68.4103 L277.269,68.4103 L279.925,68.4103 L279.925,79.1306 C279.925,85.4566 280.166,90.672 280.456,91.831 C281.18,94.342 283.595,96.66 286.251,97.3843 C289.196,98.2052 295.474,97.7707 298.951,96.5151 C300.496,95.9356 301.849,95.4044 301.945,95.3078 C302.09,95.2113 301.752,93.8591 301.269,92.2656 C300.641,90.334 300.158,89.4647 299.675,89.5613 C297.841,90.0442 293.881,90.2374 292.722,89.9477 C290.5,89.3682 290.065,87.3883 290.065,77.344 L290.065,68.4103 L295.136,68.4103 L300.207,68.4103 L300.207,65.03 L300.207,61.6497 L295.136,61.6497 L290.065,61.6497 L290.065,56.5792 L290.065,51.5088 L286.927,51.5088 C283.933,51.5088 283.788,51.5571 283.498,52.8126 Z" style="stroke:none;fill-rule:nonzero;fill:#413000;fill-opacity:1;"/>
        </g>
        <g id="Shape3">
            <desc shapeID="3" type="0" basicInfo-basicType="0" basicInfo-roundedRectRadius="12" basicInfo-polygonSides="6" basicInfo-starPoints="5" bounding="rect(-26.612,-37.7886,53.224,75.5771)" text="" font-familyName="" font-pixelSize="20" font-bold="0" font-underline="0" font-alignment="1" strokeStyle="0" markerStart="0" markerEnd="0" shadowEnabled="0" shadowOffsetX="0" shadowOffsetY="2" shadowBlur="4" shadowOpacity="160" blurEnabled="0" blurRadius="4" transform="matrix(0.680479,0,0,0.680479,234.774,88.0884)" pers-center="0,0" pers-size="0,0" pers-start="0,0" pers-end="0,0" locked="0" mesh="" flag=""/>
            <path id="shapePath3" d="M229.703,62.5672 C222.17,63.6296 217.63,68.4585 217.63,75.5572 C217.63,78.9375 218.645,81.4486 220.866,83.8148 L222.942,85.9396 L220.335,88.6921 C217.293,91.8793 216.616,93.9557 217.824,96.3219 C218.21,97.0946 218.886,97.8672 219.321,98.0603 C219.9,98.2535 219.756,98.7365 218.355,100.571 C216.955,102.407 216.665,103.179 216.665,105.207 C216.665,111.292 221.493,113.803 233.277,113.803 C245.639,113.803 252.061,109.698 252.11,101.73 C252.158,94.5352 248.826,92.5553 234.822,91.5895 C230.862,91.2998 227.53,91.01 227.385,90.9135 C227.288,90.7686 227.578,90.0442 228.061,89.2233 L228.93,87.7746 L232.842,88.0643 C239.602,88.5472 244.914,86.3259 247.474,81.9798 C249.212,79.0341 249.309,73.9154 247.715,71.2111 L246.701,69.4243 L249.792,69.1346 L252.883,68.7966 L252.883,65.9958 L252.883,63.2432 L244.094,62.9052 C239.217,62.7603 234.629,62.5189 233.807,62.4223 C233.035,62.3257 231.152,62.374 229.703,62.5672 M237.381,70.0522 C241.003,71.9355 240.569,78.6478 236.705,80.2896 C233.18,81.7384 228.785,80.5311 227.772,77.7785 C226.709,75.026 227.578,71.694 229.799,70.1487 C231.152,69.1829 235.546,69.1346 237.381,70.0522 M235.208,101.054 C241.969,101.441 243.514,102.696 240.906,105.69 C238.975,107.96 227.192,108.056 225.309,105.787 C224.488,104.821 224.633,102.938 225.55,101.441 C226.275,100.378 226.661,100.233 228.158,100.475 C229.124,100.62 232.311,100.861 235.208,101.054 Z" style="stroke:none;fill-rule:nonzero;fill:#413000;fill-opacity:1;"/>
        </g>
        <g id="Shape4">
            <desc shapeID="4" type="0" basicInfo-basicType="0" basicInfo-roundedRectRadius="12" basicInfo-polygonSides="6" basicInfo-starPoints="5" bounding="rect(-14.193,-26.2569,28.3861,52.5139)" text="" font-familyName="" font-pixelSize="20" font-bold="0" font-underline="0" font-alignment="1" strokeStyle="0" markerStart="0" markerEnd="0" shadowEnabled="0" shadowOffsetX="0" shadowOffsetY="2" shadowBlur="4" shadowOpacity="160" blurEnabled="0" blurRadius="4" transform="matrix(0.680479,0,0,0.680479,265.437,79.9999)" pers-center="0,0" pers-size="0,0" pers-start="0,0" pers-end="0,0" locked="0" mesh="" flag=""/>
            <path id="shapePath4" d="M256.504,63.195 C256.407,63.8227 256.214,65.1266 256.166,66.1889 C256.021,67.9757 256.118,68.0722 257.953,68.7001 C258.967,69.0864 260.029,69.6658 260.222,70.0038 C260.415,70.2936 260.609,75.1709 260.609,80.7726 C260.609,91.4929 260.512,92.0724 258.388,92.0724 C256.166,92.0724 255.779,92.507 255.779,95.2596 L255.779,97.8672 L265.437,97.8672 L275.095,97.8672 L275.095,95.2113 C275.095,92.4105 275.144,92.4587 271.957,91.9758 C271.039,91.831 270.991,91.3963 270.846,76.9576 L270.75,62.1326 L263.748,62.1326 C256.891,62.1326 256.746,62.1326 256.504,63.195 Z" style="stroke:none;fill-rule:nonzero;fill:#413000;fill-opacity:1;"/>
        </g>
        <g id="Shape5">
            <desc shapeID="5" type="0" basicInfo-basicType="0" basicInfo-roundedRectRadius="12" basicInfo-polygonSides="6" basicInfo-starPoints="5" bounding="rect(-52.8477,-52.8479,105.695,105.696)" text="" font-familyName="" font-pixelSize="20" font-bold="0" font-underline="0" font-alignment="1" strokeStyle="0" markerStart="0" markerEnd="0" shadowEnabled="0" shadowOffsetX="0" shadowOffsetY="2" shadowBlur="4" shadowOpacity="160" blurEnabled="0" blurRadius="4" transform="matrix(0.680479,0,0,0.680479,167.636,80)" pers-center="0,0" pers-size="0,0" pers-start="0,0" pers-end="0,0" locked="0" mesh="" flag=""/>
            <path id="shapePath5" d="M164.008,45.5915 C166.114,43.506 169.511,43.5225 171.597,45.6282 L202.045,76.3718 C204.13,78.4775 204.113,81.8751 202.008,83.9605 L184.57,101.231 L171.264,114.408 C169.158,116.494 165.761,116.478 163.675,114.372 L133.228,83.628 C131.142,81.5223 131.159,78.1247 133.264,76.0393 L164.008,45.5915 Z" style="stroke:none;fill-rule:evenodd;fill:#f05133;fill-opacity:1;"/>
        </g>
        <g id="Shape6">
            <desc shapeID="6" type="0" basicInfo-basicType="0" basicInfo-roundedRectRadius="12" basicInfo-polygonSides="6" basicInfo-starPoints="5" bounding="rect(-8.11065,-8.11065,16.2213,16.2213)" text="" font-familyName="" font-pixelSize="20" font-bold="0" font-underline="0" font-alignment="1" strokeStyle="0" markerStart="0" markerEnd="0" shadowEnabled="0" shadowOffsetX="0" shadowOffsetY="2" shadowBlur="4" shadowOpacity="160" blurEnabled="0" blurRadius="4" transform="matrix(0.680479,0,0,0.680479,167.636,79.9999)" pers-center="0,0" pers-size="0,0" pers-start="0,0" pers-end="0,0" locked="0" mesh="" flag=""/>
            <path id="shapePath6" d="M162.117,79.9999 C162.117,76.9517 164.588,74.4808 167.636,74.4808 C170.684,74.4808 173.155,76.9517 173.155,79.9999 C173.155,83.048 170.684,85.5191 167.636,85.5191 C164.588,85.5191 162.117,83.048 162.117,79.9999 Z" style="stroke:none;fill-rule:evenodd;fill:#ffffff;fill-opacity:1;"/>
        </g>
        <g id="Shape7">
            <desc shapeID="7" type="0" basicInfo-basicType="0" basicInfo-roundedRectRadius="12" basicInfo-polygonSides="6" basicInfo-starPoints="5" bounding="rect(-3.4223,-26.3106,6.8446,52.6213)" text="" font-familyName="" font-pixelSize="20" font-bold="0" font-underline="0" font-alignment="1" strokeStyle="0" markerStart="0" markerEnd="0" shadowEnabled="0" shadowOffsetX="0" shadowOffsetY="2" shadowBlur="4" shadowOpacity="160" blurEnabled="0" blurRadius="4" transform="matrix(0.680479,0,0,0.680479,167.636,90.4096)" pers-center="0,0" pers-size="0,0" pers-start="0,0" pers-end="0,0" locked="0" mesh="" flag=""/>
            <path id="shapePath7" d="M165.307,72.5058 L169.965,72.5058 L169.965,104.101 C169.965,104.101 167.663,108.313 167.663,108.313 C167.663,108.313 165.307,104.101 165.307,104.101 L165.307,72.5058 Z" style="stroke:none;fill-rule:evenodd;fill:#ffffff;fill-opacity:1;"/>
        </g>
        <g id="Shape8">
            <desc shapeID="8" type="0" basicInfo-basicType="0" basicInfo-roundedRectRadius="12" basicInfo-polygonSides="6" basicInfo-starPoints="5" bounding="rect(-13.1206,-13.4444,26.2412,26.8888)" text="" font-familyName="" font-pixelSize="20" font-bold="0" font-underline="0" font-alignment="1" strokeStyle="0" markerStart="0" markerEnd="0" shadowEnabled="0" shadowOffsetX="0" shadowOffsetY="2" shadowBlur="4" shadowOpacity="160" blurEnabled="0" blurRadius="4" transform="matrix(0.680479,0,0,0.680479,161.75,74.4807)" pers-center="0,0" pers-size="0,0" pers-start="0,0" pers-end="0,0" locked="0" mesh="" flag=""/>
            <path id="shapePath8" d="M170.679,80.3669 L167.355,83.6294 C167.355,83.6294 153.95,69.9714 153.95,69.9714 C153.95,69.9714 152.822,65.3321 152.822,65.3321 C152.822,65.3321 157.368,66.8047 157.368,66.8047 L170.679,80.3669 Z" style="stroke:none;fill-rule:evenodd;fill:#ffffff;fill-opacity:1;"/>
        </g>
        <g id="Shape9">
            <desc shapeID="9" type="0" basicInfo-basicType="0" basicInfo-roundedRectRadius="12" basicInfo-polygonSides="6" basicInfo-starPoints="5" bounding="rect(-25.8071,-33.291,51.6142,66.5819)" text="" font-familyName="" font-pixelSize="20" font-bold="0" font-underline="0" font-alignment="1" strokeStyle="0" markerStart="0" markerEnd="0" shadowEnabled="0" shadowOffsetX="0" shadowOffsetY="2" shadowBlur="4" shadowOpacity="160" blurEnabled="0" blurRadius="4" transform="matrix(0.680479,0,0,0.680479,331.973,73.8116)" pers-center="0,0" pers-size="0,0" pers-start="0,0" pers-end="0,0" locked="0" mesh="" flag=""/>
            <path id="shapePath9" d="M314.591,51.6108 C314.28,52.4603 314.393,55.8868 314.789,56.1699 C314.959,56.3115 315.752,56.6796 316.488,56.9345 C317.423,57.2743 317.932,57.6707 318.131,58.1521 C318.414,58.9167 318.131,87.3346 318.131,87.3346 C317.973,90.2638 314.938,90.4074 314.676,92.1222 C314.401,93.9183 314.676,96.4654 314.676,96.4654 L319.745,96.4654 C322.52,96.4654 326.173,96.3804 327.844,96.2672 L330.874,96.0973 L330.789,93.662 L330.704,91.2267 L328.721,90.9436 L326.739,90.6603 L326.654,82.505 L326.598,74.3779 L328.184,73.3585 C329.967,72.2258 332.488,71.2347 333.705,71.2064 C334.838,71.1781 335.914,71.971 336.537,73.3302 C337.018,74.4063 336.961,75.285 337.075,82.7598 C337.135,86.7154 337.075,86.6144 337.075,88.5417 C337.075,90.2037 334.033,91.2267 333.705,92.5944 C333.349,94.0802 333.745,96.4654 333.745,96.4654 L341.436,96.4654 L349.535,96.4654 L349.535,93.8036 L349.535,91.1418 L347.779,90.8869 L345.995,90.6603 L345.91,87.6871 C345.627,76.0487 345.344,71.0648 344.834,69.7056 C344.126,67.7234 341.917,65.5713 339.907,64.8916 C336.707,63.7873 332.658,64.4102 328.636,66.619 C327.674,67.157 326.796,67.5817 326.739,67.5817 C326.654,67.5817 326.598,63.8722 326.598,59.3698 L326.598,51.1578 L320.679,51.1578 C315.554,51.1578 314.733,51.2144 314.591,51.6108 Z" style="stroke:none;fill-rule:evenodd;fill:#413000;fill-opacity:1;"/>
        </g>
        <g id="Shape10">
            <desc shapeID="10" type="0" basicInfo-basicType="0" basicInfo-roundedRectRadius="12" basicInfo-polygonSides="6" basicInfo-starPoints="5" bounding="rect(-22.5735,-24.6136,45.1471,49.2272)" text="" font-familyName="" font-pixelSize="20" font-bold="0" font-underline="0" font-alignment="1" strokeStyle="0" markerStart="0" markerEnd="0" shadowEnabled="0" shadowOffsetX="0" shadowOffsetY="2" shadowBlur="4" shadowOpacity="160" blurEnabled="0" blurRadius="4" transform="matrix(0.680479,0,0,0.680479,364.895,81.8714)" pers-center="0,0" pers-size="0,0" pers-start="0,0" pers-end="0,0" locked="0" mesh="" flag=""/>
            <path id="shapePath10" d="M357.039,67.7855 C352.695,71.1432 349.535,75.1992 349.535,82.4484 C349.535,90.3206 352.74,94.8301 357.888,97.0601 C362.984,99.2674 369.077,99.2379 373.293,96.2955 C377.773,93.1687 380.053,88.6073 380.248,81.4546 C380.413,75.4062 378.141,67.3043 371.113,65.7695 C366.41,64.591 360.788,64.8872 357.039,67.7855 M368.531,72.7737 C371.979,74.5 372.007,78.5046 372.007,81.8714 C372.269,85.7196 370.239,91.3966 366.129,91.3966 C363.24,91.3966 361.655,90.802 360.296,89.1595 C358.9,87.476 358.066,84.9165 358.066,82.3081 C358.066,78.5145 359.049,74.627 361.315,73.2169 C363.75,71.7161 366.378,71.6693 368.531,72.7737 Z" style="stroke:none;fill-rule:evenodd;fill:#413000;fill-opacity:1;"/>
        </g>
        <g id="Shape11">
            <desc shapeID="11" type="0" basicInfo-basicType="0" basicInfo-roundedRectRadius="12" basicInfo-polygonSides="6" basicInfo-starPoints="5" bounding="rect(-18.0854,-23.5336,36.1708,47.0672)" text="" font-familyName="" font-pixelSize="20" font-bold="0" font-underline="0" font-alignment="1" strokeStyle="0" markerStart="0" markerEnd="0" shadowEnabled="0" shadowOffsetX="0" shadowOffsetY="2" shadowBlur="4" shadowOpacity="160" blurEnabled="0" blurRadius="4" transform="matrix(0.680479,0,0,0.680479,429.491,81.1592)" pers-center="0,0" pers-size="0,0" pers-start="0,0" pers-end="0,0" locked="0" mesh="" flag=""/>
            <path id="shapePath11" d="M435.591,65.2881 C434.26,65.543 433.269,66.0243 430.522,67.6951 C429.673,68.2331 428.88,68.6012 428.795,68.5446 C428.681,68.4879 428.54,67.8083 428.427,67.0155 L428.229,65.5996 C428.229,65.5996 418.002,65.9083 418.002,65.9083 L417.184,70.6683 L419.195,71.3197 L421.205,71.9427 L421.121,81.7404 C421.007,92.9541 420.951,93.1806 419.167,93.4355 C418.515,93.5204 417.949,93.6337 417.893,93.7186 C417.808,93.7752 417.723,94.5964 417.694,95.5026 L417.638,97.1734 L426.303,97.1734 C433.24,97.1734 435.053,97.0884 435.421,96.7769 C435.789,96.4938 435.902,95.9274 435.902,94.5964 C435.902,92.4727 435.563,92.0479 433.694,91.7931 C432.957,91.6798 431.796,91.5099 431.089,91.3966 L429.814,91.2267 L429.644,88.6782 C429.531,87.2623 429.446,83.6377 429.417,80.5794 L429.389,75.0293 L430.607,74.1797 C431.258,73.6983 432.221,73.1036 432.759,72.8205 C433.864,72.2541 434.062,72.424 434.317,74.2081 C434.628,76.2185 434.656,76.2185 438.366,76.2185 L441.707,76.2185 L441.793,71.0082 C441.82,68.1198 441.735,65.6562 441.594,65.5146 C441.254,65.1748 437.177,65.0049 435.591,65.2881 Z" style="stroke:none;fill-rule:evenodd;fill:#413000;fill-opacity:1;"/>
        </g>
        <g id="Shape12">
            <desc shapeID="12" type="0" basicInfo-basicType="0" basicInfo-roundedRectRadius="12" basicInfo-polygonSides="6" basicInfo-starPoints="5" bounding="rect(-18.435,-23.8152,36.87,47.6304)" text="" font-familyName="" font-pixelSize="20" font-bold="0" font-underline="0" font-alignment="1" strokeStyle="0" markerStart="0" markerEnd="0" shadowEnabled="0" shadowOffsetX="0" shadowOffsetY="2" shadowBlur="4" shadowOpacity="160" blurEnabled="0" blurRadius="4" transform="matrix(0.680479,0,0,0.680479,455.781,81.3544)" pers-center="0,0" pers-size="0,0" pers-start="0,0" pers-end="0,0" locked="0" mesh="" flag=""/>
            <path id="shapePath12" d="M454.648,65.3164 C451.108,65.9677 446.345,67.9516 444.794,72.3107 C443.824,75.0362 444.171,78.8237 445.87,80.7776 C447.059,82.1369 448.758,82.9298 453.374,84.3173 C459.859,86.2712 460.425,86.7525 460.283,90.094 C460.227,91.6231 460,91.7364 457.112,91.6798 C453.855,91.6515 451.561,91.1984 451.222,90.5754 C451.08,90.3206 450.797,89.3011 450.627,88.31 C450.429,87.3472 450.203,86.4977 450.089,86.4411 C447.854,86.1775 445.513,86.008 443.236,85.6364 L443.322,91.6515 C443.322,91.6515 443.312,93.8459 443.636,94.8686 C443.828,95.4755 444.766,96.2105 444.766,96.2105 C447.399,97.2583 450.967,97.6547 456.149,97.5415 C460.142,97.4282 461.218,97.3149 462.436,96.8335 C464.871,95.8707 466.627,94.3982 467.532,92.5576 C468.241,91.1134 468.326,90.6603 468.326,87.9702 C468.326,84.5155 467.986,83.2695 466.542,81.6838 C465.211,80.2113 463.143,79.1919 458.868,77.9459 C456.942,77.3796 454.875,76.6433 454.28,76.3601 C451.363,74.8593 451.845,72.3957 455.271,71.4046 C456.8,70.9515 458.839,71.0082 459.661,71.5178 C459.83,71.6311 460.142,72.6223 460.34,73.6983 L460.708,75.6522 L464.22,75.7372 L467.702,75.8221 L467.504,71.2064 C467.419,68.6862 467.221,66.5057 467.108,66.3925 C466.258,65.543 457.537,64.8067 454.648,65.3164 Z" style="stroke:none;fill-rule:evenodd;fill:#413000;fill-opacity:1;"/>
        </g>
        <g id="Shape13">
            <desc shapeID="13" type="0" basicInfo-basicType="0" basicInfo-roundedRectRadius="12" basicInfo-polygonSides="6" basicInfo-starPoints="5" bounding="rect(-25.5515,-23.5117,51.103,47.0235)" text="" font-familyName="" font-pixelSize="20" font-bold="0" font-underline="0" font-alignment="1" strokeStyle="0" markerStart="0" markerEnd="0" shadowEnabled="0" shadowOffsetX="0" shadowOffsetY="2" shadowBlur="4" shadowOpacity="160" blurEnabled="0" blurRadius="4" transform="matrix(0.680479,0,0,0.680479,397.277,82.1652)" pers-center="0,0" pers-size="0,0" pers-start="0,0" pers-end="0,0" locked="0" mesh="" flag=""/>
            <path id="shapePath13" d="M380.252,66.534 C379.925,68.0746 379.809,69.404 379.947,70.8383 C380.032,71.0648 380.854,71.4329 381.788,71.7161 L383.516,72.1975 L383.543,76.3318 C383.543,78.5972 383.657,83.0147 383.77,86.1296 C384.053,92.7275 384.478,94.3416 386.404,96.2105 C387.989,97.7397 389.603,98.1645 393.879,98.1645 C397.617,98.1645 399.797,97.683 402.148,96.3521 C403.224,95.7009 403.337,95.7009 403.337,96.1539 C403.337,97.2017 404.017,97.3716 409.426,97.5415 L414.665,97.683 L414.665,95.2478 C414.665,93.6337 414.551,92.7558 414.324,92.6143 C414.126,92.501 413.333,92.2461 412.541,92.0762 L411.125,91.7648 L410.955,79.7299 C410.869,73.1319 410.757,67.3836 410.728,66.9305 L410.7,66.1659 L399.373,66.3408 C399.373,66.3408 399.144,67.6837 399.09,68.4352 C399.049,68.9986 399.09,69.7339 399.09,70.272 C399.09,71.1781 399.146,71.2347 400.732,71.7444 L402.346,72.2541 L402.431,80.6361 L402.488,89.0463 L401.44,89.9524 C399.968,91.255 398.665,91.7365 396.541,91.7648 C394.304,91.7931 393.058,91.0851 392.548,89.4427 C392.35,88.7914 392.18,84.4306 392.095,77.6061 C392.011,71.6595 391.755,66.534 391.755,66.534 L380.252,66.534 Z" style="stroke:none;fill-rule:evenodd;fill:#413000;fill-opacity:1;"/>
        </g>
    </g>
</svg>
