<?xml version="1.0"?>
<svg version="1.1" xmlns="http://www.w3.org/2000/svg" xmlns:xlink="http://www.w3.org/1999/xlink" width="100" height="100">
    <desc iVinci="yes" version="4.6" gridStep="20" showGrid="no" snapToGrid="no" codePlatform="0"/>
    <g id="Layer1" name="Layer 1" opacity="1">
        <g id="Shape1">
            <desc shapeID="1" type="0" basicInfo-basicType="0" basicInfo-roundedRectRadius="12" basicInfo-polygonSides="6" basicInfo-starPoints="5" bounding="rect(-61.3159,-18.8129,122.632,37.6257)" text="" font-familyName="" font-pixelSize="20" font-bold="0" font-underline="0" font-alignment="1" strokeStyle="0" markerStart="0" markerEnd="0" shadowEnabled="0" shadowOffsetX="0" shadowOffsetY="2" shadowBlur="4" shadowOpacity="160" blurEnabled="0" blurRadius="4" transform="matrix(0.562073,0,0,0.562073,63.2177,13.3751)" pers-center="0,0" pers-size="0,0" pers-start="0,0" pers-end="0,0" locked="0" mesh="" flag=""/>
            <path id="shapePath1" d="M85.7861,4.15899 C83.313,5.0021 78.4791,7.19418 75.1067,8.99282 L68.9239,12.1966 L57.0642,13.2646 C50.5441,13.8266 43.5182,14.726 41.4385,15.1756 C37.6165,16.0749 31.4899,18.8291 29.7475,20.4029 C27.8926,22.0891 28.7357,22.3139 31.4337,20.9088 C37.8975,17.6487 38.853,17.4801 69.486,14.1077 C71.9591,13.8266 74.9943,12.7587 73.4205,12.7025 C72.3525,12.6463 85.8985,6.5759 89.1023,5.67659 C93.093,4.49623 93.7675,4.94589 90.3389,6.46349 C88.9337,7.08177 86.292,8.71178 84.4933,10.0608 C78.0857,15.0632 75.1067,19.3912 80.7836,15.4567 L83.4816,13.658 L81.8516,15.6253 C80.9523,16.7494 80.2215,18.267 80.1654,18.9415 C80.053,19.6722 79.8281,21.1336 79.6033,22.0891 C78.8164,25.5178 80.334,24.0564 82.9757,18.9415 C84.7743,15.4004 86.4605,13.0959 88.5403,11.1849 C92.8682,7.25039 94.442,6.01383 96.2968,5.05831 C98.0955,4.15899 98.1517,2.75381 96.4093,3.03484 C94.8354,3.25967 94.442,3.25967 92.2499,2.86622 C90.8447,2.64139 88.9899,2.97864 85.7861,4.15899 Z" style="stroke:none;fill-rule:nonzero;fill:#000000;fill-opacity:1;"/>
        </g>
        <g id="Shape2">
            <desc shapeID="2" type="0" basicInfo-basicType="0" basicInfo-roundedRectRadius="12" basicInfo-polygonSides="6" basicInfo-starPoints="5" bounding="rect(-21.9852,-17.6537,43.9704,35.3075)" text="" font-familyName="" font-pixelSize="20" font-bold="0" font-underline="0" font-alignment="1" strokeStyle="0" markerStart="0" markerEnd="0" shadowEnabled="0" shadowOffsetX="0" shadowOffsetY="2" shadowBlur="4" shadowOpacity="160" blurEnabled="0" blurRadius="4" transform="matrix(0.562073,0,0,0.562073,14.6756,25.5234)" pers-center="0,0" pers-size="0,0" pers-start="0,0" pers-end="0,0" locked="0" mesh="" flag=""/>
            <path id="shapePath2" d="M4.17314,16.5246 C3.16139,17.0304 2.31828,17.6487 2.31828,17.986 C2.37447,19.2787 4.56657,21.1336 8.27623,23.1008 C13.2787,25.7426 13.897,26.3609 14.9649,29.5085 C15.9204,32.375 19.1243,36.6468 19.1805,35.1292 C19.1805,34.6233 18.6746,32.8247 18.1125,31.0823 L16.9884,27.8785 L18.3935,27.8785 C19.2367,27.8785 20.3608,28.4967 21.1477,29.396 C22.6653,31.1947 23.5084,30.8574 22.5529,28.8902 C21.5974,27.1478 19.6863,25.6302 18.2812,25.6302 C17.6066,25.6302 15.9204,24.7308 14.459,23.6067 C12.9977,22.5388 10.4683,21.0212 8.78211,20.2343 C7.0959,19.5036 5.69071,18.7167 5.69071,18.548 C5.69071,17.7611 16.0329,18.9977 21.2601,20.3467 C24.2391,21.0774 26.7684,21.5832 26.9371,21.4708 C27.4429,20.9087 25.9253,19.616 22.8339,18.0422 C18.0563,15.6253 7.77036,14.7822 4.17314,16.5246 Z" style="stroke:none;fill-rule:nonzero;fill:#000000;fill-opacity:1;"/>
        </g>
        <g id="Shape3">
            <desc shapeID="3" type="0" basicInfo-basicType="0" basicInfo-roundedRectRadius="12" basicInfo-polygonSides="6" basicInfo-starPoints="5" bounding="rect(-74.7979,-43.016,149.596,86.032)" text="" font-familyName="" font-pixelSize="20" font-bold="0" font-underline="0" font-alignment="1" strokeStyle="0" markerStart="0" markerEnd="0" shadowEnabled="0" shadowOffsetX="0" shadowOffsetY="2" shadowBlur="4" shadowOpacity="160" blurEnabled="0" blurRadius="4" transform="matrix(0.562073,0,0,0.562073,49.9808,48.5888)" pers-center="0,0" pers-size="0,0" pers-start="0,0" pers-end="0,0" locked="0" mesh="" flag=""/>
            <path id="shapePath3" d="M77.9171,27.1478 C77.355,28.6654 75.7812,32.5999 74.4322,36.0285 C73.0271,39.4009 70.4977,45.921 68.7552,50.4738 C67.0128,55.0828 65.3828,58.7924 65.1018,58.7924 C64.0339,58.7924 59.0876,61.2094 59.0876,61.7152 C59.0876,62.2773 62.0104,61.9401 63.9776,61.2094 C64.596,60.9845 64.7645,61.2094 64.596,62.2211 C64.4835,63.2328 63.9214,63.6263 61.898,64.1321 C59.9869,64.5818 59.6497,64.8628 60.3804,65.1439 C61.6731,65.6497 61.2235,66.3242 58.4132,68.3477 C55.5465,70.4274 54.0852,70.0901 55.7714,67.6732 C57.2328,65.6497 57.7948,61.9401 56.8393,60.7597 C56.3896,60.2538 55.2093,59.9166 53.8041,59.9166 C50.7127,59.9728 44.6986,61.2656 43.6306,62.1649 C42.6189,63.008 42.5065,65.1439 43.4058,66.7739 C45.2045,70.0901 38.9654,63.4014 36.3237,59.1297 C35.7054,58.118 34.244,56.2069 33.0636,54.8017 C31.8833,53.4528 30.1409,50.6986 29.1291,48.7314 C28.1736,46.7641 26.3188,43.7289 24.9698,42.0427 C23.677,40.3565 22.4405,38.1082 22.2157,37.0402 C21.766,34.5671 20.8667,34.6795 20.8667,37.1526 C20.8667,39.2885 21.8784,41.6492 23.9581,44.4596 C24.6888,45.3589 25.9815,47.7758 26.8808,49.7993 C27.7802,51.8228 29.6912,54.8579 31.0964,56.6004 C32.5016,58.3428 33.963,60.2538 34.3002,60.9283 C34.8623,61.9963 34.7498,62.1649 32.8389,62.6707 C31.6584,63.008 27.9488,63.6825 24.5202,64.1321 C12.9977,65.8184 7.939,66.7739 7.939,67.336 C7.939,67.6732 8.66973,67.7856 9.79387,67.5608 C10.7494,67.3922 14.7401,66.8863 18.6184,66.3804 C22.4405,65.8746 27.1057,65.0877 29.0167,64.6942 C35.1433,63.2328 36.155,63.4577 39.134,66.8863 C41.9444,70.2025 44.8672,71.7201 48.8017,72.0012 C50.0945,72.1136 51.4435,72.3384 51.7807,72.5632 C52.7924,73.1815 56.3335,72.3384 59.0876,70.7646 C61.4483,69.4156 62.0666,69.3032 67.8559,69.4156 C71.2846,69.4718 74.9943,69.3594 76.1185,69.1908 C80.2215,68.4039 78.0857,67.7856 71.4532,67.7856 C67.7436,67.7856 64.7084,67.5608 64.7084,67.2798 C64.7084,65.2001 65.3266,64.9753 71.397,64.9753 C77.074,64.9753 79.5471,64.4694 78.5353,63.4577 C78.3105,63.2328 75.4439,63.008 72.2401,63.008 C66.2822,63.008 65.4391,62.6707 67.1815,60.9283 C67.5749,60.4787 71.0598,59.5231 74.8819,58.8487 C85.7861,56.8252 95.4537,53.7338 90.8447,53.7338 C88.2592,53.7338 79.0412,55.2514 73.4767,56.5442 C70.7225,57.1624 68.418,57.6121 68.3056,57.5559 C68.2494,57.4435 69.4298,54.3521 71.0035,50.6424 C74.8819,41.3682 79.3784,29.1712 80.1092,26.0236 C80.7274,23.3257 78.9288,24.225 77.9171,27.1478 M55.1531,63.6825 C55.1531,64.5256 54.4787,66.1556 53.6917,67.336 C52.3989,69.1346 51.8931,69.4718 50.1507,69.4718 C47.2279,69.4718 46.0476,68.4039 45.9351,65.8184 L45.8789,63.6263 L49.2514,62.9518 C54.7597,61.8839 55.1531,61.9401 55.1531,63.6825 M63.4156,66.7739 C63.247,67.1673 63.1345,66.8863 63.1345,66.0994 C63.1345,65.3125 63.247,65.0315 63.4156,65.3687 C63.528,65.7622 63.528,66.4366 63.4156,66.7739 Z" style="stroke:none;fill-rule:nonzero;fill:#000000;fill-opacity:1;"/>
        </g>
        <g id="Shape4">
            <desc shapeID="4" type="0" basicInfo-basicType="0" basicInfo-roundedRectRadius="12" basicInfo-polygonSides="6" basicInfo-starPoints="5" bounding="rect(-2.65339,-2.34365,5.30679,4.6873)" text="" font-familyName="" font-pixelSize="20" font-bold="0" font-underline="0" font-alignment="1" strokeStyle="0" markerStart="0" markerEnd="0" shadowEnabled="0" shadowOffsetX="0" shadowOffsetY="2" shadowBlur="4" shadowOpacity="160" blurEnabled="0" blurRadius="4" transform="matrix(0.562073,0,0,0.562073,65.2195,30.3976)" pers-center="0,0" pers-size="0,0" pers-start="0,0" pers-end="0,0" locked="0" mesh="" flag=""/>
            <path id="shapePath4" d="M63.9214,29.5085 C63.3032,30.5202 64.2587,31.8692 65.4953,31.7006 C67.1253,31.4757 67.1253,29.3398 65.4391,29.115 C64.8207,29.0026 64.0901,29.1712 63.9214,29.5085 Z" style="stroke:none;fill-rule:nonzero;fill:#000000;fill-opacity:1;"/>
        </g>
        <g id="Shape5">
            <desc shapeID="5" type="0" basicInfo-basicType="0" basicInfo-roundedRectRadius="12" basicInfo-polygonSides="6" basicInfo-starPoints="5" bounding="rect(-3.29668,-3.502,6.5934,7.004)" text="" font-familyName="" font-pixelSize="20" font-bold="0" font-underline="0" font-alignment="1" strokeStyle="0" markerStart="0" markerEnd="0" shadowEnabled="0" shadowOffsetX="0" shadowOffsetY="2" shadowBlur="4" shadowOpacity="160" blurEnabled="0" blurRadius="4" transform="matrix(0.562073,0,0,0.562073,29.9223,33.7791)" pers-center="0,0" pers-size="0,0" pers-start="0,0" pers-end="0,0" locked="0" mesh="" flag=""/>
            <path id="shapePath5" d="M28.567,32.2064 C27.3305,33.3868 28.567,35.7475 30.4219,35.7475 C31.4337,35.7475 32.2205,33.4992 31.4899,32.5999 C30.8153,31.7568 29.1854,31.5319 28.567,32.2064 Z" style="stroke:none;fill-rule:nonzero;fill:#000000;fill-opacity:1;"/>
        </g>
        <g id="Shape6">
            <desc shapeID="6" type="0" basicInfo-basicType="0" basicInfo-roundedRectRadius="12" basicInfo-polygonSides="6" basicInfo-starPoints="5" bounding="rect(-16.8516,-2.91911,33.7031,5.83822)" text="" font-familyName="" font-pixelSize="20" font-bold="0" font-underline="0" font-alignment="1" strokeStyle="0" markerStart="0" markerEnd="0" shadowEnabled="0" shadowOffsetX="0" shadowOffsetY="2" shadowBlur="4" shadowOpacity="160" blurEnabled="0" blurRadius="4" transform="matrix(0.562073,0,0,0.562073,28.6794,68.3932)" pers-center="0,0" pers-size="0,0" pers-start="0,0" pers-end="0,0" locked="0" mesh="" flag=""/>
            <path id="shapePath6" d="M31.8271,67.0549 C26.4312,67.6732 21.0353,68.4601 20.1922,68.6849 C18.7308,69.1346 18.9556,70.0339 20.4733,70.0339 C22.3843,70.0339 37.7851,67.3922 38.1223,66.9987 C38.5158,66.6615 34.8061,66.6615 31.8271,67.0549 Z" style="stroke:none;fill-rule:nonzero;fill:#000000;fill-opacity:1;"/>
        </g>
        <g id="Shape7">
            <desc shapeID="7" type="0" basicInfo-basicType="0" basicInfo-roundedRectRadius="12" basicInfo-polygonSides="6" basicInfo-starPoints="5" bounding="rect(-11.684,-2.42818,23.3679,4.85637)" text="" font-familyName="" font-pixelSize="20" font-bold="0" font-underline="0" font-alignment="1" strokeStyle="0" markerStart="0" markerEnd="0" shadowEnabled="0" shadowOffsetX="0" shadowOffsetY="2" shadowBlur="4" shadowOpacity="160" blurEnabled="0" blurRadius="4" transform="matrix(0.562073,0,0,0.562073,32.0532,70.9174)" pers-center="0,0" pers-size="0,0" pers-start="0,0" pers-end="0,0" locked="0" mesh="" flag=""/>
            <path id="shapePath7" d="M31.265,70.4274 C25.8691,71.2143 23.6208,72.2822 27.2743,72.2822 C29.5788,72.2822 36.9419,70.7646 38.2909,69.9777 C39.4713,69.3032 37.5602,69.4156 31.265,70.4274 Z" style="stroke:none;fill-rule:nonzero;fill:#000000;fill-opacity:1;"/>
        </g>
        <g id="Shape8">
            <desc shapeID="8" type="0" basicInfo-basicType="0" basicInfo-roundedRectRadius="12" basicInfo-polygonSides="6" basicInfo-starPoints="5" bounding="rect(-11.7665,-20.0414,23.5331,40.0828)" text="" font-familyName="" font-pixelSize="20" font-bold="0" font-underline="0" font-alignment="1" strokeStyle="0" markerStart="0" markerEnd="0" shadowEnabled="0" shadowOffsetX="0" shadowOffsetY="2" shadowBlur="4" shadowOpacity="160" blurEnabled="0" blurRadius="4" transform="matrix(0.562073,0,0,0.562073,65.1387,85.9895)" pers-center="0,0" pers-size="0,0" pers-start="0,0" pers-end="0,0" locked="0" mesh="" flag=""/>
            <path id="shapePath8" d="M68.4325,79.9163 C67.8704,82.7828 67.477,85.9305 67.477,86.9422 C67.477,88.6284 67.4208,88.6846 66.0156,88.1225 C64.8352,87.7291 64.2169,87.7853 63.0928,88.516 L61.6876,89.4153 L62.0811,84.4691 C62.3059,81.7149 62.2497,78.8483 61.9686,78.0614 L61.4628,76.6563 L60.5634,78.3425 C57.9217,83.5135 57.8093,95.4857 60.451,95.4857 C60.9007,95.4857 61.2942,95.7105 61.2942,95.9916 C61.2942,96.7223 63.4863,97.3967 65.2287,97.2281 C67.9266,96.9471 73.5474,92.1133 71.1866,92.1133 C69.8376,92.1133 69.6691,90.4832 70.3435,83.2887 C70.6807,79.4666 70.7932,75.9818 70.6245,75.5321 C69.9501,73.6773 69.2756,74.97 68.4325,79.9163 M68.0952,91.6636 C68.6573,92.6753 68.5449,93.0126 67.7018,93.6309 C66.409,94.5864 64.1045,94.5864 64.1045,93.6309 C64.1045,93.2936 64.2732,92.3943 64.4417,91.6636 C64.8914,90.0336 67.1959,89.9774 68.0952,91.6636 Z" style="stroke:none;fill-rule:nonzero;fill:#000000;fill-opacity:1;"/>
        </g>
        <g id="Shape9">
            <desc shapeID="9" type="0" basicInfo-basicType="0" basicInfo-roundedRectRadius="12" basicInfo-polygonSides="6" basicInfo-starPoints="5" bounding="rect(-17.4468,-17.3236,34.8937,34.6472)" text="" font-familyName="" font-pixelSize="20" font-bold="0" font-underline="0" font-alignment="1" strokeStyle="0" markerStart="0" markerEnd="0" shadowEnabled="0" shadowOffsetX="0" shadowOffsetY="2" shadowBlur="4" shadowOpacity="160" blurEnabled="0" blurRadius="4" transform="matrix(0.562073,0,0,0.562073,38.5601,88.4388)" pers-center="0,0" pers-size="0,0" pers-start="0,0" pers-end="0,0" locked="0" mesh="" flag=""/>
            <path id="shapePath9" d="M36.563,79.017 C36.1133,79.1856 34.4833,80.4783 33.0219,81.9397 C31.1109,83.7384 30.0991,85.3122 29.5371,87.2794 C28.3567,91.2139 28.4691,92.5067 30.1553,94.1929 C31.3919,95.4295 31.8977,95.5419 33.865,95.2609 C35.7199,94.9798 38.193,94.0805 40.6661,92.7877 C40.8909,92.6753 41.0595,93.7433 41.0595,95.1484 C41.0595,97.6216 41.734,98.9143 42.4647,97.734 C42.6896,97.3967 42.9706,95.2047 43.1392,92.7877 C43.3078,90.427 43.7013,88.1787 43.9823,87.8415 C44.2633,87.4481 45.3313,86.9984 46.3992,86.8298 C47.5796,86.6049 48.3665,86.0991 48.3665,85.6494 C48.3665,84.9749 47.692,84.8625 44.8817,85.1436 C39.7106,85.6494 37.125,86.3801 37.125,87.3918 C37.125,88.1225 37.6309,88.235 39.6544,88.0663 C41.0595,87.9539 42.1837,88.0101 42.1837,88.235 C42.1837,89.7525 36.9564,92.1133 33.5839,92.1133 C31.954,92.1133 31.8977,92.1133 32.1788,89.3591 C32.6285,84.6939 37.125,79.579 39.5982,80.9842 C41.1719,81.8835 41.453,80.8718 39.9916,79.6914 C38.6426,78.6235 38.0243,78.4549 36.563,79.017 Z" style="stroke:none;fill-rule:nonzero;fill:#000000;fill-opacity:1;"/>
        </g>
        <g id="Shape10">
            <desc shapeID="10" type="0" basicInfo-basicType="0" basicInfo-roundedRectRadius="12" basicInfo-polygonSides="6" basicInfo-starPoints="5" bounding="rect(-6.43406,-5.84286,12.8682,11.6857)" text="" font-familyName="" font-pixelSize="20" font-bold="0" font-underline="0" font-alignment="1" strokeStyle="0" markerStart="0" markerEnd="0" shadowEnabled="0" shadowOffsetX="0" shadowOffsetY="2" shadowBlur="4" shadowOpacity="160" blurEnabled="0" blurRadius="4" transform="matrix(0.562073,0,0,0.562073,50.8892,90.3986)" pers-center="0,0" pers-size="0,0" pers-start="0,0" pers-end="0,0" locked="0" mesh="" flag=""/>
            <path id="shapePath10" d="M48.6475,88.4598 C46.2868,90.8205 47.0175,92.9002 50.4461,93.5747 C51.8513,93.8557 52.3572,93.6309 53.369,92.3943 C54.7741,90.5395 54.8865,89.1343 53.65,87.9539 C52.3572,86.6612 50.2214,86.886 48.6475,88.4598 M52.4697,90.2584 C53.0879,90.8205 51.7389,92.0571 50.8396,91.7198 C50.2214,91.495 50.1651,91.2139 50.671,90.6519 C51.4017,89.8088 51.9076,89.6402 52.4697,90.2584 Z" style="stroke:none;fill-rule:nonzero;fill:#000000;fill-opacity:1;"/>
        </g>
    </g>
</svg>
