<?xml version="1.0"?>
<svg version="1.1" xmlns="http://www.w3.org/2000/svg" xmlns:xlink="http://www.w3.org/1999/xlink" width="100" height="100">
    <desc iVinci="yes" version="4.6" gridStep="20" showGrid="no" snapToGrid="no" codePlatform="0"/>
    <g id="Layer1" name="Layer 1" opacity="1">
        <g id="Shape1">
            <desc shapeID="1" type="0" basicInfo-basicType="0" basicInfo-roundedRectRadius="12" basicInfo-polygonSides="6" basicInfo-starPoints="5" bounding="rect(-73.2506,-83.1408,146.501,166.28)" text="" font-familyName="헤드라인A" font-pixelSize="50" font-bold="0" font-underline="0" font-alignment="1" strokeStyle="0" markerStart="0" markerEnd="0" shadowEnabled="0" shadowOffsetX="0" shadowOffsetY="2" shadowBlur="4" shadowOpacity="160" blurEnabled="0" blurRadius="4" transform="matrix(0.566984,0,0,0.566984,49.6716,47.7821)" pers-center="0,0" pers-size="0,0" pers-start="0,0" pers-end="0,0" locked="0" mesh="" flag=""/>
            <path id="shapePath1" d="M60.1147,85.9582 C66.9121,79.8781 64.925,77.5992 64.925,77.5992 L62.1313,74.2822 L67.5021,70.7967 L69.0503,64.0989 C69.0503,64.0989 76.1373,65.0528 79.4806,64.0989 C82.785,63.1561 86.1358,61.3626 88.2188,58.6297 C90.3104,55.8855 91.2036,48.718 91.2036,48.718 L89.9758,41.0311 L83.7837,33.0238 L73.8549,28.8066 L67.5021,29.6605 L66.1,18.3452 L62.2135,6.83474 L58.6045,0.642605 L55.6173,1.96416 L53.8731,6.29889 L48.851,4.71303 L40.2625,4.88787 L36.4581,6.7218 L33.7759,9.07521 L26.3861,4.17628 L23.302,10.1413 L22.441,17.9983 L22.3333,22.4467 L22.3333,27.0387 L20.1808,34.7879 L12.7756,40.1842 L8.13968,49.7964 L9.97724,61.6504 L16.9475,68.9588 L24.4576,71.0055 L30.7402,70.4379 L28.6982,72.0915 L24.4576,75.4274 L21.6714,81.8029 L22.1436,87.1864 L27.027,93.3351 L32.0916,94.921 L43.0594,93.4792 L49.9658,90.5292 C49.9658,90.5292 56.2989,89.3712 60.1147,85.9582 Z" style="stroke:none;fill-rule:evenodd;fill:#f4bc8b;fill-opacity:1;"/>
        </g>
        <g id="Shape2">
            <desc shapeID="2" type="0" basicInfo-basicType="0" basicInfo-roundedRectRadius="12" basicInfo-polygonSides="6" basicInfo-starPoints="5" bounding="rect(-31.3762,-8.41971,62.7523,16.8394)" text="manager&#10;greedy" font-familyName="Baloo" font-pixelSize="20" font-bold="0" font-underline="0" font-alignment="1" strokeStyle="0" markerStart="0" markerEnd="0" shadowEnabled="0" shadowOffsetX="0" shadowOffsetY="2" shadowBlur="4" shadowOpacity="160" blurEnabled="0" blurRadius="4" transform="matrix(0.566984,0,0,0.566984,77.8254,91.5767)" pers-center="0,0" pers-size="0,0" pers-start="0,0" pers-end="0,0" locked="0" mesh="" flag=""/>
            <path id="shapePath2" d="M62.9727,88.6172 C63.4037,88.6172 63.7945,88.672 64.1461,88.7816 C64.4977,88.8912 64.7944,89.033 65.0364,89.2069 C65.1876,89.3127 65.3067,89.4299 65.3937,89.5584 C65.4806,89.6869 65.5241,89.8532 65.5241,90.0574 L65.5241,94.026 C65.5241,94.4267 65.4485,94.7727 65.2973,95.0638 C65.146,95.3549 64.94,95.5968 64.6791,95.7896 C64.4183,95.9824 64.1121,96.1242 63.7605,96.2149 C63.4093,96.3052 63.0332,96.3506 62.6324,96.3506 C61.9444,96.3506 61.4037,96.2579 61.011,96.0732 C60.6179,95.8879 60.4213,95.5874 60.4213,95.1715 C60.4213,94.9976 60.4572,94.8445 60.529,94.7122 C60.6008,94.5798 60.6821,94.4797 60.7729,94.4116 C60.9921,94.5326 61.2393,94.6347 61.5153,94.7178 C61.7913,94.801 62.0767,94.8426 62.3716,94.8426 C62.7799,94.8426 63.105,94.7745 63.347,94.6384 C63.5885,94.5023 63.7094,94.2831 63.7094,93.9811 L63.7094,93.7996 C63.3999,93.9357 63.0218,94.0033 62.5757,94.0033 C62.2355,94.0033 61.9122,93.9527 61.606,93.8507 C61.2998,93.7486 61.0314,93.5898 60.8012,93.3743 C60.5706,93.1588 60.3853,92.8809 60.2455,92.5407 C60.1056,92.2004 60.0356,91.7959 60.0356,91.3276 C60.0356,90.8664 60.1094,90.4656 60.2568,90.1254 C60.4042,89.7852 60.6084,89.5036 60.8693,89.2806 C61.1296,89.0576 61.4397,88.8912 61.7988,88.7816 C62.158,88.672 62.5493,88.6172 62.9727,88.6172 M63.6754,90.2615 C63.6225,90.2312 63.5454,90.201 63.4434,90.1707 C63.3413,90.1405 63.2146,90.1254 63.0634,90.1254 C62.6929,90.1254 62.4151,90.2293 62.2298,90.4372 C62.0445,90.6452 61.9519,90.942 61.9519,91.3276 C61.9519,91.7657 62.0445,92.0813 62.2298,92.2742 C62.4151,92.467 62.6513,92.5634 62.9387,92.5634 C63.2487,92.5634 63.4944,92.4915 63.6754,92.3479 L63.6754,90.2615 M68.6355,94.2868 C68.5599,94.3095 68.4408,94.3322 68.2783,94.3549 C68.1157,94.3776 67.9479,94.3889 67.774,94.3889 C67.6077,94.3889 67.4584,94.3776 67.326,94.3549 C67.1937,94.3322 67.0822,94.2868 66.9915,94.2188 C66.9007,94.1507 66.8308,94.0581 66.7816,93.9414 C66.7325,93.8242 66.7079,93.6711 66.7079,93.482 L66.7079,90.08 C66.7079,89.9061 66.74,89.7569 66.8043,89.6321 C66.8686,89.5074 66.9612,89.3959 67.0822,89.2976 C67.2032,89.1993 67.3525,89.1105 67.5302,89.0311 C67.7079,88.9517 67.8988,88.8818 68.1025,88.8213 C68.3066,88.7608 68.5183,88.7136 68.7376,88.6796 C68.9569,88.6455 69.1762,88.6285 69.3954,88.6285 C69.7584,88.6285 70.0457,88.6985 70.2574,88.8383 C70.4691,88.9782 70.5745,89.2069 70.5745,89.5244 C70.5745,89.6302 70.5594,89.7342 70.5291,89.8362 C70.4989,89.9383 70.4616,90.0309 70.4162,90.114 C70.2574,90.114 70.0948,90.1216 69.9285,90.1367 C69.7621,90.1518 69.5996,90.1745 69.4408,90.2048 C69.282,90.235 69.1327,90.2671 68.9928,90.3012 C68.8529,90.3352 68.7338,90.3748 68.6355,90.4202 L68.6355,94.2868 M74.0607,94.4797 C73.6146,94.4797 73.2006,94.4173 72.8188,94.2925 C72.4369,94.1678 72.1047,93.9811 71.8212,93.7316 C71.5376,93.482 71.3146,93.1683 71.152,92.7902 C70.9894,92.4121 70.9081,91.9698 70.9081,91.4637 C70.9081,90.9646 70.9894,90.5356 71.152,90.1764 C71.3146,89.8173 71.5282,89.5225 71.7928,89.2919 C72.0574,89.0614 72.3599,88.8912 72.6997,88.7816 C73.0399,88.672 73.3877,88.6172 73.7431,88.6172 C74.1439,88.6172 74.5087,88.6777 74.8376,88.7987 C75.166,88.9196 75.4496,89.0859 75.6877,89.2976 C75.9259,89.5093 76.1112,89.7625 76.2435,90.0574 C76.3758,90.3521 76.442,90.6735 76.442,91.0214 C76.442,91.2784 76.3701,91.475 76.2265,91.6107 C76.0828,91.7468 75.8824,91.8337 75.6254,91.8715 L72.8244,92.2912 C72.9076,92.5407 73.0777,92.7278 73.3348,92.8526 C73.5919,92.9773 73.8868,93.0397 74.2195,93.0397 C74.5295,93.0397 74.8225,93 75.098,92.9206 C75.374,92.8412 75.5989,92.7486 75.7728,92.6428 C75.8938,92.7184 75.9959,92.8242 76.079,92.9603 C76.1622,93.0964 76.2038,93.2401 76.2038,93.3913 C76.2038,93.7316 76.045,93.9844 75.7274,94.1507 C75.4855,94.2793 75.2133,94.3662 74.9113,94.4116 C74.6089,94.457 74.3253,94.4797 74.0607,94.4797 M73.7431,90.0233 C73.5616,90.0233 73.4047,90.0536 73.2724,90.114 C73.1401,90.1745 73.0324,90.252 72.9492,90.3465 C72.866,90.441 72.8036,90.5469 72.762,90.6641 C72.7205,90.7813 72.6959,90.9004 72.6883,91.0214 L74.6278,90.7038 C74.6051,90.5526 74.5219,90.4013 74.3783,90.2501 C74.2346,90.0989 74.0229,90.0233 73.7431,90.0233 M80.2798,94.4797 C79.8336,94.4797 79.4197,94.4173 79.0378,94.2925 C78.6565,94.1678 78.3238,93.9811 78.0402,93.7316 C77.7567,93.482 77.5336,93.1683 77.371,92.7902 C77.2085,92.4121 77.1272,91.9698 77.1272,91.4637 C77.1272,90.9646 77.2085,90.5356 77.371,90.1764 C77.5336,89.8173 77.7472,89.5225 78.0119,89.2919 C78.2765,89.0614 78.5789,88.8912 78.9187,88.7816 C79.259,88.672 79.6068,88.6172 79.9622,88.6172 C80.3629,88.6172 80.7277,88.6777 81.0567,88.7987 C81.3851,88.9196 81.6686,89.0859 81.9068,89.2976 C82.145,89.5093 82.3302,89.7625 82.4626,90.0574 C82.5949,90.3521 82.661,90.6735 82.661,91.0214 C82.661,91.2784 82.5892,91.475 82.4455,91.6107 C82.3019,91.7468 82.1015,91.8337 81.8444,91.8715 L79.0435,92.2912 C79.1267,92.5407 79.2968,92.7278 79.5539,92.8526 C79.811,92.9773 80.1058,93.0397 80.4385,93.0397 C80.7485,93.0397 81.0415,93 81.317,92.9206 C81.593,92.8412 81.818,92.7486 81.9919,92.6428 C82.1129,92.7184 82.2149,92.8242 82.2981,92.9603 C82.3813,93.0964 82.4229,93.2401 82.4229,93.3913 C82.4229,93.7316 82.2641,93.9844 81.9465,94.1507 C81.7046,94.2793 81.4324,94.3662 81.1304,94.4116 C80.8279,94.457 80.5444,94.4797 80.2798,94.4797 M79.9622,90.0233 C79.7807,90.0233 79.6238,90.0536 79.4915,90.114 C79.3592,90.1745 79.2514,90.252 79.1683,90.3465 C79.0851,90.441 79.0227,90.5469 78.9811,90.6641 C78.9395,90.7813 78.915,90.9004 78.9074,91.0214 L80.8468,90.7038 C80.8242,90.5526 80.741,90.4013 80.5973,90.2501 C80.4537,90.0989 80.2419,90.0233 79.9622,90.0233 M83.3463,91.5431 C83.3463,91.044 83.4219,90.6112 83.5731,90.2445 C83.7243,89.8778 83.9342,89.5735 84.2026,89.3316 C84.471,89.0897 84.7848,88.9101 85.1435,88.793 C85.5026,88.6758 85.8901,88.6172 86.306,88.6172 C86.4572,88.6172 86.6047,88.6304 86.7483,88.6569 C86.892,88.6833 87.0092,88.7155 87.0999,88.7533 L87.0999,86.9163 C87.1755,86.8936 87.2965,86.869 87.4629,86.8425 C87.6287,86.8161 87.7989,86.8029 87.9728,86.8029 C88.1391,86.8029 88.2885,86.8142 88.4208,86.8369 C88.5531,86.8595 88.6646,86.9049 88.7554,86.973 C88.8461,87.041 88.9141,87.1336 88.9595,87.2508 C89.0049,87.3679 89.0276,87.5211 89.0276,87.71 L89.0276,93.0851 C89.0276,93.4405 88.8612,93.724 88.5285,93.9357 C88.3092,94.0789 88.0257,94.2056 87.6779,94.3152 C87.3306,94.4248 86.9298,94.4797 86.4761,94.4797 C85.9846,94.4797 85.5442,94.4116 85.1548,94.2755 C84.7659,94.1394 84.437,93.9433 84.1686,93.6862 C83.9001,93.4291 83.696,93.121 83.5561,92.7618 C83.4162,92.4027 83.3463,91.9963 83.3463,91.5431 M86.5669,90.1254 C86.1586,90.1254 85.8448,90.2426 85.6255,90.477 C85.4062,90.7113 85.2966,91.0667 85.2966,91.5431 C85.2966,92.0114 85.3987,92.3649 85.6028,92.6031 C85.807,92.8412 86.1019,92.9603 86.4875,92.9603 C86.6236,92.9603 86.7464,92.9395 86.8561,92.8979 C86.9657,92.8564 87.0508,92.8091 87.1113,92.7562 L87.1113,90.2615 C86.96,90.1707 86.7786,90.1254 86.5669,90.1254 M91.0908,92.8923 C91.0076,92.7032 90.9188,92.4915 90.8243,92.2571 C90.7298,92.0227 90.6315,91.7543 90.5294,91.4523 C90.4273,91.1499 90.3215,90.804 90.2118,90.4145 C90.1022,90.0252 89.9869,89.5773 89.8659,89.0708 C89.9718,88.965 90.1135,88.8723 90.2912,88.793 C90.4689,88.7136 90.6636,88.6739 90.8753,88.6739 C91.14,88.6739 91.3588,88.7287 91.5327,88.8383 C91.7066,88.9479 91.8351,89.1539 91.9183,89.4563 L92.8143,92.5747 L92.8597,92.5747 C92.9504,92.3176 93.0392,92.0379 93.1262,91.7354 C93.2131,91.4334 93.2982,91.1215 93.3814,90.8002 C93.4646,90.4788 93.5421,90.1575 93.6139,89.8362 C93.6857,89.5149 93.7481,89.1993 93.801,88.8893 C94.0728,88.7457 94.3714,88.6739 94.6965,88.6739 C94.9612,88.6739 95.1805,88.7306 95.3544,88.844 C95.5283,88.9574 95.6152,89.1539 95.6152,89.4337 C95.6152,89.6378 95.5888,89.874 95.5358,90.1424 C95.4829,90.4107 95.413,90.6962 95.326,90.9987 C95.2391,91.3011 95.137,91.6125 95.0198,91.9339 C94.9026,92.2552 94.7797,92.5709 94.6512,92.8809 C94.5226,93.1909 94.3903,93.4839 94.2542,93.7599 C94.1181,94.0354 93.9858,94.2831 93.8573,94.5023 C93.646,94.8728 93.4494,95.1753 93.268,95.4097 C93.0865,95.6441 92.9126,95.8274 92.7462,95.9598 C92.5799,96.0921 92.4135,96.1828 92.2472,96.2315 C92.0809,96.2806 91.9069,96.3052 91.7255,96.3052 C91.4079,96.3052 91.1513,96.2112 90.9547,96.0221 C90.7581,95.8331 90.6409,95.5874 90.6031,95.2849 C90.8451,95.0959 91.087,94.8861 91.3285,94.6554 C91.5705,94.4248 91.7897,94.1886 91.9863,93.9471 C91.8578,93.9093 91.7198,93.8204 91.5724,93.6805 C91.4249,93.5406 91.2647,93.2779 91.0908,92.8923 Z" style="stroke:none;fill-rule:evenodd;fill:#000000;fill-opacity:1;"/>
        </g>
        <g id="Shape3">
            <desc shapeID="3" type="0" basicInfo-basicType="0" basicInfo-roundedRectRadius="12" basicInfo-polygonSides="6" basicInfo-starPoints="5" bounding="rect(-18.0507,-11.4629,36.1014,22.9258)" text="" font-familyName="Helvetica" font-pixelSize="20" font-bold="0" font-underline="0" font-alignment="1" strokeStyle="0" markerStart="0" markerEnd="0" shadowEnabled="0" shadowOffsetX="0" shadowOffsetY="2" shadowBlur="4" shadowOpacity="160" blurEnabled="0" blurRadius="4" transform="matrix(0.566984,0,0,0.566984,54.0792,56.0873)" pers-center="0,0" pers-size="0,0" pers-start="0,0" pers-end="0,0" locked="0" mesh="" flag=""/>
            <path id="shapePath3" d="M43.8716,61.6065 C43.8716,61.6065 43.8447,56.161 43.8447,56.161 C43.8447,56.161 46.8762,51.1442 46.8762,51.1442 C46.8762,51.1442 53.8783,49.588 53.8783,49.588 C53.8783,49.588 57.8753,50.044 57.8753,50.044 C57.8753,50.044 62.7579,53.9877 62.7579,53.9877 C62.7579,53.9877 64.3137,57.368 64.3137,57.368 C64.3137,57.368 64.3137,59.0045 64.2872,59.0045 C64.2603,59.0045 62.5699,59.4605 62.5699,59.4605 C62.5699,59.4605 61.5505,59.4336 61.5505,59.4336 C61.5505,59.4336 59.5388,58.1997 59.5388,58.1997 C59.5388,58.1997 58.9216,59.0314 58.9216,59.0314 C58.9216,59.0314 57.2851,58.4412 57.2851,58.4412 C57.2851,58.4412 55.8366,59.5409 55.8631,59.5409 C55.89,59.5409 54.2001,59.5409 54.2001,59.5409 C54.2001,59.5409 52.617,60.2119 52.617,60.2119 C52.617,60.2119 49.8274,59.8093 49.8274,59.8093 C49.8274,59.8093 48.7811,60.8825 48.7811,60.8825 C48.7811,60.8825 47.7774,62.3914 46.5969,62.5658 C45.3258,62.7534 43.8716,61.6065 43.8716,61.6065 Z" style="stroke:none;fill-rule:evenodd;fill:#f9c99e;fill-opacity:1;"/>
        </g>
        <g id="Shape4">
            <desc shapeID="4" type="0" basicInfo-basicType="0" basicInfo-roundedRectRadius="12" basicInfo-polygonSides="6" basicInfo-starPoints="5" bounding="rect(0,0,0,0)" text="" font-familyName="Helvetica" font-pixelSize="20" font-bold="0" font-underline="0" font-alignment="1" strokeStyle="0" markerStart="0" markerEnd="0" shadowEnabled="0" shadowOffsetX="0" shadowOffsetY="2" shadowBlur="4" shadowOpacity="160" blurEnabled="0" blurRadius="4" transform="matrix(0.566984,0,0,0.566984,55.2771,49.7785)" pers-center="0,0" pers-size="0,0" pers-start="0,0" pers-end="0,0" locked="0" mesh="" flag=""/>
            <path id="shapePath4" d="M55.2771,49.7785 Z" style="stroke:none;fill-rule:evenodd;fill:#e98c59;fill-opacity:1;"/>
        </g>
        <g id="Shape5">
            <desc shapeID="5" type="0" basicInfo-basicType="0" basicInfo-roundedRectRadius="12" basicInfo-polygonSides="6" basicInfo-starPoints="5" bounding="rect(0,0,0,0)" text="" font-familyName="Helvetica" font-pixelSize="20" font-bold="0" font-underline="0" font-alignment="1" strokeStyle="0" markerStart="0" markerEnd="0" shadowEnabled="0" shadowOffsetX="0" shadowOffsetY="2" shadowBlur="4" shadowOpacity="160" blurEnabled="0" blurRadius="4" transform="matrix(0.566984,0,0,0.566984,63.1856,55.2863)" pers-center="0,0" pers-size="0,0" pers-start="0,0" pers-end="0,0" locked="0" mesh="" flag=""/>
            <path id="shapePath5" d="M63.1856,55.2863 Z" style="stroke:none;fill-rule:evenodd;fill:#e98c59;fill-opacity:1;"/>
        </g>
        <g id="Shape6">
            <desc shapeID="6" type="0" basicInfo-basicType="0" basicInfo-roundedRectRadius="12" basicInfo-polygonSides="6" basicInfo-starPoints="5" bounding="rect(-9.93931,-8.53697,19.8786,17.074)" text="" font-familyName="Helvetica" font-pixelSize="20" font-bold="0" font-underline="0" font-alignment="1" strokeStyle="0" markerStart="0" markerEnd="0" shadowEnabled="0" shadowOffsetX="0" shadowOffsetY="2" shadowBlur="4" shadowOpacity="160" blurEnabled="0" blurRadius="4" transform="matrix(0.566984,0,0,0.566984,59.2193,54.6188)" pers-center="0,0" pers-size="0,0" pers-start="0,0" pers-end="0,0" locked="0" mesh="" flag=""/>
            <path id="shapePath6" d="M53.5839,49.7784 C53.5839,49.7784 57.3333,49.8867 57.3333,49.8867 C57.3333,49.8867 60.3195,51.1877 61.3308,52.3913 C63.2225,54.6436 64.8548,58.9511 64.8548,58.9511 C64.8548,58.9511 61.6247,59.4591 61.6247,59.4591 C61.6247,59.4591 60.569,58.3566 59.2193,58.2678 C58.8578,57.6321 58.1059,54.1965 57.5266,53.4258 C55.3499,50.5298 53.5839,49.7784 53.5839,49.7784 Z" style="stroke:none;fill-rule:evenodd;fill:#fdf7eb;fill-opacity:1;"/>
        </g>
        <g id="Shape7">
            <desc shapeID="7" type="0" basicInfo-basicType="0" basicInfo-roundedRectRadius="12" basicInfo-polygonSides="6" basicInfo-starPoints="5" bounding="rect(-24.6004,-14.6376,49.2009,29.2754)" text="" font-familyName="헤드라인A" font-pixelSize="50" font-bold="0" font-underline="0" font-alignment="1" strokeStyle="0" markerStart="0" markerEnd="0" shadowEnabled="0" shadowOffsetX="0" shadowOffsetY="2" shadowBlur="4" shadowOpacity="160" blurEnabled="0" blurRadius="4" transform="matrix(0.566984,0,0,0.566984,55.1348,66.2831)" pers-center="0,0" pers-size="0,0" pers-start="0,0" pers-end="0,0" locked="0" mesh="" flag=""/>
            <path id="shapePath7" d="M43.3951,72.1718 C43.3951,72.1718 51.6529,74.5824 51.6529,74.5824 C51.6529,74.5824 55.3385,73.9175 55.3385,73.9175 C55.3385,73.9175 60.6035,73.9728 60.6035,73.9728 C60.6035,73.9728 62.0165,74.5271 62.0165,74.5271 C62.0165,74.5271 64.7876,72.8093 64.7876,72.8093 C64.7876,72.8093 67.7526,70.343 67.7526,70.343 C67.7526,70.343 69.0829,64.4958 69.0829,64.4958 C69.0829,64.4958 68.1131,61.6141 68.1131,61.6141 C68.1131,61.6141 67.1987,60.2006 67.1987,60.2006 C67.1987,60.2006 65.6747,58.8982 65.6747,58.8982 C65.6747,58.8982 63.0141,59.4804 63.0141,59.4804 C63.0141,59.4804 61.5179,59.5078 61.5179,59.5078 C61.5179,59.5078 59.4116,57.9838 59.4116,57.9838 C59.4116,57.9838 58.8852,58.9261 58.8852,58.9261 C58.8852,58.9261 56.9458,58.3717 56.9458,58.3717 C56.9458,58.3717 55.9151,59.479 55.9151,59.479 C55.9151,59.479 53.8244,59.5144 53.8244,59.5144 C53.8244,59.5144 52.5664,60.2408 52.5664,60.2408 C52.5664,60.2408 49.8198,59.9223 49.8198,59.9223 C49.8198,59.9223 48.4205,61.0914 48.4205,61.0914 C48.4205,61.0914 47.0208,62.5441 47.0208,62.5441 C47.0208,62.5441 45.6209,62.5795 45.6209,62.5795 C45.6209,62.5795 43.6895,61.8886 43.6895,61.8886 C43.6895,61.8886 42.5733,62.5795 42.5733,62.5795 C42.5733,62.5795 41.8823,63.7846 41.8823,63.7846 C41.8823,63.7846 40.9041,67.0576 41.2677,69.0736 C41.6594,71.2451 43.3951,72.1718 43.3951,72.1718 Z" style="stroke:none;fill-rule:evenodd;fill:#9b5b3f;fill-opacity:1;"/>
        </g>
        <g id="Shape8">
            <desc shapeID="8" type="0" basicInfo-basicType="0" basicInfo-roundedRectRadius="12" basicInfo-polygonSides="6" basicInfo-starPoints="5" bounding="rect(0,0,0,0)" text="" font-familyName="헤드라인A" font-pixelSize="50" font-bold="0" font-underline="0" font-alignment="1" strokeStyle="0" markerStart="0" markerEnd="0" shadowEnabled="0" shadowOffsetX="0" shadowOffsetY="2" shadowBlur="4" shadowOpacity="160" blurEnabled="0" blurRadius="4" transform="matrix(0.566984,0,0,0.566984,60.9385,58.9275)" pers-center="0,0" pers-size="0,0" pers-start="0,0" pers-end="0,0" locked="0" mesh="" flag=""/>
            <path id="shapePath8" d="M60.9385,58.9275 Z" style="stroke:none;fill-rule:evenodd;fill:#9b5b3f;fill-opacity:1;"/>
        </g>
        <g id="Shape9">
            <desc shapeID="9" type="0" basicInfo-basicType="0" basicInfo-roundedRectRadius="12" basicInfo-polygonSides="6" basicInfo-starPoints="5" bounding="rect(-10.2606,-13.6373,20.5212,27.2746)" text="" font-familyName="헤드라인A" font-pixelSize="50" font-bold="0" font-underline="0" font-alignment="1" strokeStyle="0" markerStart="0" markerEnd="0" shadowEnabled="0" shadowOffsetX="0" shadowOffsetY="2" shadowBlur="4" shadowOpacity="160" blurEnabled="0" blurRadius="4" transform="matrix(0.566984,0,0,0.566984,63.2327,66.55)" pers-center="0,0" pers-size="0,0" pers-start="0,0" pers-end="0,0" locked="0" mesh="" flag=""/>
            <path id="shapePath9" d="M60.664,58.8727 C59.3809,59.255 60.0685,61.4832 59.7959,62.7941 C59.4391,64.5086 59.1196,66.2311 58.7751,67.948 C58.4051,69.7929 56.8243,71.79 57.6513,73.4804 C58.5955,74.0678 60.6049,74.4567 62.0458,74.2034 C63.7144,73.91 65.1856,73.1458 66.3812,71.9455 C67.5914,70.7305 68.4562,69.11 68.8797,67.4485 C69.2454,66.0118 68.9529,64.4594 68.6576,63.0067 C68.4737,62.1022 68.2871,60.9307 67.4676,60.5068 C66.9582,60.2436 66.2843,59.0565 65.565,58.9275 C64.4517,58.7276 63.2301,59.6448 62.3421,59.4686 C61.4688,59.2947 61.5,58.6236 60.664,58.8727 Z" style="stroke:none;fill-rule:evenodd;fill:#d08663;fill-opacity:1;"/>
        </g>
        <g id="Shape10">
            <desc shapeID="10" type="0" basicInfo-basicType="0" basicInfo-roundedRectRadius="12" basicInfo-polygonSides="6" basicInfo-starPoints="5" bounding="rect(-17.5061,-5.84799,35.0123,11.696)" text="" font-familyName="헤드라인A" font-pixelSize="50" font-bold="0" font-underline="0" font-alignment="1" strokeStyle="0" markerStart="0" markerEnd="0" shadowEnabled="0" shadowOffsetX="0" shadowOffsetY="2" shadowBlur="4" shadowOpacity="160" blurEnabled="0" blurRadius="4" transform="matrix(0.566984,0,0,0.566984,78.1499,61.1081)" pers-center="0,0" pers-size="0,0" pers-start="0,0" pers-end="0,0" locked="0" mesh="" flag=""/>
            <path id="shapePath10" d="M88.0757,57.7924 C88.0757,57.7924 86.9346,60.4192 86.9346,60.4192 C86.9346,60.4192 78.1499,64.4239 78.1499,64.4239 L68.7922,64.176 C68.7922,64.176 67.9794,61.9619 68.2984,61.9264 C70.3191,61.701 72.5889,61.7861 74.6158,61.6259 C77.2012,61.4212 80.1496,61.5795 82.5536,60.6056 C84.6787,59.7445 88.0757,57.7924 88.0757,57.7924 Z" style="stroke:none;fill-rule:evenodd;fill:#dc8b68;fill-opacity:1;"/>
        </g>
        <g id="Shape11">
            <desc shapeID="11" type="0" basicInfo-basicType="0" basicInfo-roundedRectRadius="12" basicInfo-polygonSides="6" basicInfo-starPoints="5" bounding="rect(-30.9918,-21.5273,61.9836,43.0546)" text="" font-familyName="헤드라인A" font-pixelSize="50" font-bold="0" font-underline="0" font-alignment="1" strokeStyle="0" markerStart="0" markerEnd="0" shadowEnabled="0" shadowOffsetX="0" shadowOffsetY="2" shadowBlur="4" shadowOpacity="160" blurEnabled="0" blurRadius="4" transform="matrix(0.566984,0,0,0.566984,27.0891,72.9299)" pers-center="0,0" pers-size="0,0" pers-start="0,0" pers-end="0,0" locked="0" mesh="" flag=""/>
            <path id="shapePath11" d="M29.9887,70.6185 C29.9577,70.6492 22.5139,70.8652 22.5139,70.8652 C22.5139,70.8652 15.9658,67.8076 15.9658,67.8076 C15.9658,67.8076 9.51724,60.7242 9.51724,60.7242 C9.51724,60.7242 13.2001,64.7515 17.5272,66.4178 C20.3353,67.499 24.0096,67.6895 25.722,67.8076 C29.0682,68.0383 32.2897,67.5543 35.7028,66.4178 C37.5023,65.8186 41.6178,64.4372 41.6178,64.4372 C41.6178,64.4372 41.417,69.8151 41.417,69.8151 C41.417,69.8151 44.661,73.0277 44.661,73.0277 C44.661,73.0277 41.6955,72.7838 40.2433,73.0277 C36.8843,73.5915 33.789,73.9445 30.3135,75.4369 C28.2911,76.305 25.9641,78.3077 24.6453,80.07 C23.494,81.6082 21.8962,85.1355 21.8962,85.1355 C21.8962,85.1355 22.1433,79.6376 22.1433,79.6376 C22.1433,79.6376 24.954,75.2204 24.954,75.2204 C24.954,75.2204 29.9887,70.6185 29.9887,70.6185 Z" style="stroke:none;fill-rule:evenodd;fill:#dc8b68;fill-opacity:1;"/>
        </g>
        <g id="Shape12">
            <desc shapeID="12" type="0" basicInfo-basicType="0" basicInfo-roundedRectRadius="12" basicInfo-polygonSides="6" basicInfo-starPoints="5" bounding="rect(-24.9541,-6.50295,49.9081,13.0059)" text="" font-familyName="헤드라인A" font-pixelSize="50" font-bold="0" font-underline="0" font-alignment="1" strokeStyle="0" markerStart="0" markerEnd="0" shadowEnabled="0" shadowOffsetX="0" shadowOffsetY="2" shadowBlur="4" shadowOpacity="160" blurEnabled="0" blurRadius="4" transform="matrix(0.566984,0,0,0.566984,35.722,90.9132)" pers-center="0,0" pers-size="0,0" pers-start="0,0" pers-end="0,0" locked="0" mesh="" flag=""/>
            <path id="shapePath12" d="M21.5734,87.2262 L26.0336,92.8498 C26.0336,92.8498 28.6667,94.0468 31.8372,94.5303 C33.9629,94.8544 39.8695,93.9481 39.8695,93.9481 C39.8695,93.9481 45.9624,92.2886 45.9624,92.2886 C45.9624,92.2886 49.8705,90.6445 49.8705,90.6445 C49.8705,90.6445 45.6521,89.8437 45.6521,89.8437 C45.6521,89.8437 41.5888,90.4467 38.6386,90.5549 C36.599,90.6296 32.6963,90.7558 30.6877,90.3933 C27.5225,89.822 21.5734,87.2262 21.5734,87.2262 Z" style="stroke:none;fill-rule:evenodd;fill:#dc8b68;fill-opacity:1;"/>
        </g>
        <g id="Shape13">
            <desc shapeID="13" type="0" basicInfo-basicType="0" basicInfo-roundedRectRadius="12" basicInfo-polygonSides="6" basicInfo-starPoints="5" bounding="rect(0,0,0,0)" text="" font-familyName="Helvetica" font-pixelSize="20" font-bold="0" font-underline="0" font-alignment="1" strokeStyle="0" markerStart="0" markerEnd="0" shadowEnabled="0" shadowOffsetX="0" shadowOffsetY="2" shadowBlur="4" shadowOpacity="160" blurEnabled="0" blurRadius="4" transform="matrix(0.566984,0,0,0.566984,4.79811,96.3506)" pers-center="0,0" pers-size="0,0" pers-start="0,0" pers-end="0,0" locked="0" mesh="" flag=""/>
            <path id="shapePath13" d="M4.79811,96.3506 Z" style="stroke:none;fill-rule:evenodd;fill:#241b14;fill-opacity:1;"/>
        </g>
        <g id="Shape14">
            <desc shapeID="14" type="0" basicInfo-basicType="0" basicInfo-roundedRectRadius="12" basicInfo-polygonSides="6" basicInfo-starPoints="5" bounding="rect(0,0,0,0)" text="" font-familyName="Helvetica" font-pixelSize="20" font-bold="0" font-underline="0" font-alignment="1" strokeStyle="0" markerStart="0" markerEnd="0" shadowEnabled="0" shadowOffsetX="0" shadowOffsetY="2" shadowBlur="4" shadowOpacity="160" blurEnabled="0" blurRadius="4" transform="matrix(0.566984,0,0,0.566984,12.2398,103.527)" pers-center="0,0" pers-size="0,0" pers-start="0,0" pers-end="0,0" locked="0" mesh="" flag=""/>
            <path id="shapePath14" d="M12.2398,103.527 Z" style="stroke:none;fill-rule:evenodd;fill:#241b14;fill-opacity:1;"/>
        </g>
        <g id="Shape15">
            <desc shapeID="15" type="0" basicInfo-basicType="0" basicInfo-roundedRectRadius="12" basicInfo-polygonSides="6" basicInfo-starPoints="5" bounding="rect(0,0,0,0)" text="" font-familyName="Helvetica" font-pixelSize="20" font-bold="0" font-underline="0" font-alignment="1" strokeStyle="0" markerStart="0" markerEnd="0" shadowEnabled="0" shadowOffsetX="0" shadowOffsetY="2" shadowBlur="4" shadowOpacity="160" blurEnabled="0" blurRadius="4" transform="matrix(0.566984,0,0,0.566984,8.50257,93.4792)" pers-center="0,0" pers-size="0,0" pers-start="0,0" pers-end="0,0" locked="0" mesh="" flag=""/>
            <path id="shapePath15" d="M8.50257,93.4792 Z" style="stroke:none;fill-rule:evenodd;fill:#241b14;fill-opacity:1;"/>
        </g>
        <g id="Shape16">
            <desc shapeID="16" type="0" basicInfo-basicType="0" basicInfo-roundedRectRadius="12" basicInfo-polygonSides="6" basicInfo-starPoints="5" bounding="rect(-26.0183,-21.4559,52.0365,42.9118)" text="" font-familyName="Helvetica" font-pixelSize="20" font-bold="0" font-underline="0" font-alignment="1" strokeStyle="0" markerStart="0" markerEnd="0" shadowEnabled="0" shadowOffsetX="0" shadowOffsetY="2" shadowBlur="4" shadowOpacity="160" blurEnabled="0" blurRadius="4" transform="matrix(0.566984,0,0,0.566984,34.8452,83.5769)" pers-center="0,0" pers-size="0,0" pers-start="0,0" pers-end="0,0" locked="0" mesh="" flag=""/>
            <path id="shapePath16" d="M26.1024,94.3908 C23.8442,93.3455 22.0912,91.2123 20.9216,89.0158 C20.043,87.3665 19.9289,85.2834 20.274,83.4465 C20.7804,80.7509 21.782,78.0506 23.3979,75.8343 C24.7197,74.021 26.8537,72.9435 28.7755,71.7857 C29.2168,71.5201 30.2068,71.1615 30.3162,71.6647 C30.4304,72.1898 29.3249,72.1203 28.9265,72.4804 C27.5218,73.7512 25.867,74.8778 24.9386,76.529 C23.6981,78.7354 22.8269,81.2301 22.5902,83.7504 C22.4489,85.2555 22.8329,86.9903 23.8514,88.1075 C25.7664,90.209 28.2311,91.9519 30.9162,92.8857 C33.2668,93.7032 35.8929,93.3082 38.377,93.1602 C40.5021,93.0331 42.567,92.406 44.6683,92.0658 C45.8515,91.8739 49.4956,90.666 49.5906,90.9283 C49.7697,91.4689 46.1938,92.802 45.0697,93.1602 C41.8651,94.1782 38.6554,95.4551 35.3002,95.6729 C32.2111,95.8737 28.9115,95.6913 26.1024,94.3908 Z" style="stroke:none;fill-rule:evenodd;fill:#241b14;fill-opacity:1;"/>
        </g>
        <g id="Shape17">
            <desc shapeID="17" type="0" basicInfo-basicType="0" basicInfo-roundedRectRadius="12" basicInfo-polygonSides="6" basicInfo-starPoints="5" bounding="rect(-5.53152,-3.25432,11.063,6.50866)" text="" font-familyName="Helvetica" font-pixelSize="20" font-bold="0" font-underline="0" font-alignment="1" strokeStyle="0" markerStart="0" markerEnd="0" shadowEnabled="0" shadowOffsetX="0" shadowOffsetY="2" shadowBlur="4" shadowOpacity="160" blurEnabled="0" blurRadius="4" transform="matrix(0.566984,0,0,0.566984,43.9937,76.9542)" pers-center="0,0" pers-size="0,0" pers-start="0,0" pers-end="0,0" locked="0" mesh="" flag=""/>
            <path id="shapePath17" d="M46.7807,76.0658 C45.975,75.5394 44.8831,76.718 43.9351,76.553 C42.9633,76.3829 42.2937,75.3938 41.3463,75.1174 C41.1138,75.0493 40.832,75.4151 40.8593,75.6556 C40.9296,76.2832 41.1229,76.9878 41.6026,77.399 C42.3981,78.0804 43.4169,78.5464 44.4483,78.7321 C45.17,78.8611 46.1215,78.8483 46.6044,78.2964 C47.0954,77.7354 47.4054,76.4736 46.7807,76.0658 Z" style="stroke:none;fill-rule:evenodd;fill:#000000;fill-opacity:1;"/>
        </g>
        <g id="Shape18">
            <desc shapeID="18" type="0" basicInfo-basicType="0" basicInfo-roundedRectRadius="12" basicInfo-polygonSides="6" basicInfo-starPoints="5" bounding="rect(-17.9713,-15.8673,35.9424,31.7348)" text="" font-familyName="Helvetica" font-pixelSize="20" font-bold="0" font-underline="0" font-alignment="1" strokeStyle="0" markerStart="0" markerEnd="0" shadowEnabled="0" shadowOffsetX="0" shadowOffsetY="2" shadowBlur="4" shadowOpacity="160" blurEnabled="0" blurRadius="4" transform="matrix(0.566984,0,0,0.566984,55.3112,82.1221)" pers-center="0,0" pers-size="0,0" pers-start="0,0" pers-end="0,0" locked="0" mesh="" flag=""/>
            <path id="shapePath18" d="M45.2398,89.4869 C48.0883,89.0677 51.1572,90.0015 53.8646,89.0224 C56.8517,87.9421 59.4901,85.8646 61.663,83.5481 C62.9867,82.136 64.4228,80.1139 63.9871,78.2283 C63.5599,76.3815 61.4244,75.1188 59.5974,74.6136 C57.4009,74.0063 55.003,74.6287 52.78,75.1301 C51.126,75.5025 49.7749,76.7761 48.1318,77.1953 C47.8568,77.2657 47.6909,76.5294 47.9258,76.3692 C49.4276,75.3461 51.0684,74.4326 52.8315,73.9936 C55.1462,73.4175 57.6556,72.7554 59.9584,73.374 C62.1105,73.952 64.7645,75.1958 65.3297,77.3503 C65.9908,79.8677 64.635,82.8005 62.9541,84.7872 C60.629,87.5357 57.4037,89.7029 53.9681,90.778 C51.2593,91.6258 48.2764,90.6749 45.4688,90.2591 C45.2029,90.2204 44.9744,89.5261 45.2398,89.4869 Z" style="stroke:none;fill-rule:evenodd;fill:#000000;fill-opacity:1;"/>
        </g>
        <g id="Shape19">
            <desc shapeID="19" type="0" basicInfo-basicType="0" basicInfo-roundedRectRadius="12" basicInfo-polygonSides="6" basicInfo-starPoints="5" bounding="rect(-9.92394,-11.9857,19.8479,23.9714)" text="" font-familyName="Helvetica" font-pixelSize="20" font-bold="0" font-underline="0" font-alignment="1" strokeStyle="0" markerStart="0" markerEnd="0" shadowEnabled="0" shadowOffsetX="0" shadowOffsetY="2" shadowBlur="4" shadowOpacity="160" blurEnabled="0" blurRadius="4" transform="matrix(0.566984,0,0,0.566984,48.5712,55.9659)" pers-center="0,0" pers-size="0,0" pers-start="0,0" pers-end="0,0" locked="0" mesh="" flag=""/>
            <path id="shapePath19" d="M54.1023,49.9037 C52.1345,50.9523 49.5788,50.6433 47.7008,51.8455 C46.2982,52.7439 45.2913,54.3071 44.7623,55.886 C44.0077,58.1388 44.4658,60.1628 43.9935,62.4907 C43.9471,62.7199 43.337,62.8801 43.3114,62.6485 C43.0625,60.3707 42.6651,58.471 43.2406,56.2537 C43.79,54.1365 44.7941,51.8951 46.5468,50.5861 C48.2381,49.3224 50.6171,49.3631 52.7195,49.1731 C53.2389,49.1258 54.5626,49.6589 54.1023,49.9037 Z" style="stroke:none;fill-rule:evenodd;fill:#000000;fill-opacity:1;"/>
        </g>
        <g id="Shape20">
            <desc shapeID="20" type="0" basicInfo-basicType="0" basicInfo-roundedRectRadius="12" basicInfo-polygonSides="6" basicInfo-starPoints="5" bounding="rect(0,0,0,0)" text="" font-familyName="Helvetica" font-pixelSize="20" font-bold="0" font-underline="0" font-alignment="1" strokeStyle="0" markerStart="0" markerEnd="0" shadowEnabled="0" shadowOffsetX="0" shadowOffsetY="2" shadowBlur="4" shadowOpacity="160" blurEnabled="0" blurRadius="4" transform="matrix(0.566984,0,0,0.566984,51.0532,75.3532)" pers-center="0,0" pers-size="0,0" pers-start="0,0" pers-end="0,0" locked="0" mesh="" flag=""/>
            <path id="shapePath20" d="M51.0532,75.3532 Z" style="stroke:none;fill-rule:evenodd;fill:#000000;fill-opacity:1;"/>
        </g>
        <g id="Shape21">
            <desc shapeID="21" type="0" basicInfo-basicType="0" basicInfo-roundedRectRadius="12" basicInfo-polygonSides="6" basicInfo-starPoints="5" bounding="rect(-10.3035,-10.7331,20.607,21.4663)" text="" font-familyName="Helvetica" font-pixelSize="20" font-bold="0" font-underline="0" font-alignment="1" strokeStyle="0" markerStart="0" markerEnd="0" shadowEnabled="0" shadowOffsetX="0" shadowOffsetY="2" shadowBlur="4" shadowOpacity="160" blurEnabled="0" blurRadius="4" transform="matrix(0.566984,0,0,0.566984,46.3681,68.9346)" pers-center="0,0" pers-size="0,0" pers-start="0,0" pers-end="0,0" locked="0" mesh="" flag=""/>
            <path id="shapePath21" d="M41.8605,62.9751 C40.993,65.1305 40.3666,66.7807 40.5622,69.0954 C40.7062,70.7976 42.1168,72.3646 43.5898,73.2299 C45.5595,74.3868 47.6318,74.7213 49.9011,74.9874 C50.6539,75.0753 51.5896,75.0129 52.1146,74.4666 C52.4171,74.1519 51.9398,73.7034 51.5286,73.555 C50.2002,73.0763 47.9985,73.2091 46.646,72.8065 C44.941,72.2989 43.426,71.9625 42.5806,70.3978 C41.4892,68.3785 42.3538,65.6763 42.3158,63.3815 C42.3102,63.0266 41.9926,62.6457 41.8605,62.9751 Z" style="stroke:none;fill-rule:evenodd;fill:#241b14;fill-opacity:1;"/>
        </g>
        <g id="Shape22">
            <desc shapeID="22" type="0" basicInfo-basicType="0" basicInfo-roundedRectRadius="12" basicInfo-polygonSides="6" basicInfo-starPoints="5" bounding="rect(-7.13094,-13.0092,14.2618,26.0183)" text="" font-familyName="Helvetica" font-pixelSize="20" font-bold="0" font-underline="0" font-alignment="1" strokeStyle="0" markerStart="0" markerEnd="0" shadowEnabled="0" shadowOffsetX="0" shadowOffsetY="2" shadowBlur="4" shadowOpacity="160" blurEnabled="0" blurRadius="4" transform="matrix(0.566984,0,0,0.566984,65.4534,67.3672)" pers-center="0,0" pers-size="0,0" pers-start="0,0" pers-end="0,0" locked="0" mesh="" flag=""/>
            <path id="shapePath22" d="M61.456,74.1543 C62.9224,72.8457 65.1284,72.4157 66.366,70.8888 C67.4142,69.5958 67.6321,67.7859 67.9459,66.1508 C68.15,65.0846 68.262,63.9226 68.1051,62.8494 C67.9581,61.8466 66.6052,60.0579 67.0442,59.9927 C67.4208,59.9369 68.606,61.5247 68.9775,62.6154 C69.425,63.9316 69.6485,65.5048 69.3811,66.8686 C69.029,68.6682 68.6212,70.6478 67.3712,71.9899 C66.0145,73.4478 63.9328,74.0465 62.0628,74.7308 C61.801,74.8267 61.2481,74.34 61.456,74.1543 Z" style="stroke:none;fill-rule:evenodd;fill:#000000;fill-opacity:1;"/>
        </g>
        <g id="Shape23">
            <desc shapeID="23" type="0" basicInfo-basicType="0" basicInfo-roundedRectRadius="12" basicInfo-polygonSides="6" basicInfo-starPoints="5" bounding="rect(0,0,0,0)" text="" font-familyName="Helvetica" font-pixelSize="20" font-bold="0" font-underline="0" font-alignment="1" strokeStyle="0" markerStart="0" markerEnd="0" shadowEnabled="0" shadowOffsetX="0" shadowOffsetY="2" shadowBlur="4" shadowOpacity="160" blurEnabled="0" blurRadius="4" transform="matrix(0.566984,0,0,0.566984,55.1037,50.3881)" pers-center="0,0" pers-size="0,0" pers-start="0,0" pers-end="0,0" locked="0" mesh="" flag=""/>
            <path id="shapePath23" d="M55.1037,50.3881 Z" style="stroke:none;fill-rule:evenodd;fill:#000000;fill-opacity:1;"/>
        </g>
        <g id="Shape24">
            <desc shapeID="24" type="0" basicInfo-basicType="0" basicInfo-roundedRectRadius="12" basicInfo-polygonSides="6" basicInfo-starPoints="5" bounding="rect(-7.65665,-5.99156,15.3133,11.9831)" text="" font-familyName="Helvetica" font-pixelSize="20" font-bold="0" font-underline="0" font-alignment="1" strokeStyle="0" markerStart="0" markerEnd="0" shadowEnabled="0" shadowOffsetX="0" shadowOffsetY="2" shadowBlur="4" shadowOpacity="160" blurEnabled="0" blurRadius="4" transform="matrix(0.566984,0,0,0.566984,59.6347,52.785)" pers-center="0,0" pers-size="0,0" pers-start="0,0" pers-end="0,0" locked="0" mesh="" flag=""/>
            <path id="shapePath24" d="M55.3622,50.0025 C54.9973,49.6991 56.183,49.4339 56.6575,49.4094 C57.5228,49.365 58.492,49.3465 59.2273,49.8049 C60.4735,50.5818 61.4385,51.7685 62.3222,52.9419 C63.0358,53.8875 63.6213,54.9588 63.9673,56.092 C64.0622,56.4049 63.3496,55.8217 63.1284,55.5812 C62.4857,54.8813 62.0751,53.9853 61.4102,53.3072 C60.6673,52.5491 59.8667,51.8129 58.9353,51.3034 C57.8233,50.6967 56.3366,50.8134 55.3622,50.0025 Z" style="stroke:none;fill-rule:evenodd;fill:#000000;fill-opacity:1;"/>
        </g>
        <g id="Shape25">
            <desc shapeID="25" type="0" basicInfo-basicType="0" basicInfo-roundedRectRadius="12" basicInfo-polygonSides="6" basicInfo-starPoints="5" bounding="rect(-5.12883,-1.6275,10.2577,3.25498)" text="" font-familyName="Helvetica" font-pixelSize="20" font-bold="0" font-underline="0" font-alignment="1" strokeStyle="0" markerStart="0" markerEnd="0" shadowEnabled="0" shadowOffsetX="0" shadowOffsetY="2" shadowBlur="4" shadowOpacity="160" blurEnabled="0" blurRadius="4" transform="matrix(0.566984,0,0,0.566984,44.8234,62.491)" pers-center="0,0" pers-size="0,0" pers-start="0,0" pers-end="0,0" locked="0" mesh="" flag=""/>
            <path id="shapePath25" d="M41.9286,63.132 C42.3374,62.4245 42.7932,61.7615 43.5938,61.5994 C44.4398,61.4283 44.8741,62.0096 45.7251,62.1514 C46.1786,62.2265 46.8648,61.8196 47.3232,61.8489 C47.5231,61.8622 47.8293,62.2686 47.7008,62.4217 C47.3019,62.898 46.7344,63.4165 46.1134,63.3985 C45.293,63.3739 44.7255,62.3106 43.9045,62.3106 C43.2859,62.3106 42.9719,63.1608 42.4003,63.3985 C42.2336,63.4675 41.8384,63.2884 41.9286,63.132 Z" style="stroke:none;fill-rule:evenodd;fill:#000000;fill-opacity:1;"/>
        </g>
        <g id="Shape26">
            <desc shapeID="26" type="0" basicInfo-basicType="0" basicInfo-roundedRectRadius="12" basicInfo-polygonSides="6" basicInfo-starPoints="5" bounding="rect(-8.35445,-6.15565,16.709,12.3114)" text="" font-familyName="Helvetica" font-pixelSize="20" font-bold="0" font-underline="0" font-alignment="1" strokeStyle="0" markerStart="0" markerEnd="0" shadowEnabled="0" shadowOffsetX="0" shadowOffsetY="2" shadowBlur="4" shadowOpacity="160" blurEnabled="0" blurRadius="4" transform="matrix(0.225848,0,0,0.225847,64.3066,58.4389)" pers-center="0,0" pers-size="0,0" pers-start="0,0" pers-end="0,0" locked="0" mesh="" flag=""/>
            <path id="shapePath26" d="M63.0349,59.8282 C62.7329,59.8169 62.3241,59.4227 62.4399,59.1434 C62.5746,58.8159 63.7376,58.97 63.9758,58.7016 C64.2976,58.3391 63.7239,57.575 64.092,57.2678 C64.2863,57.1052 64.6794,56.9427 64.8411,57.1378 C65.0745,57.4204 64.6964,57.9266 64.8926,58.2356 C65.0802,58.5315 65.5655,58.4766 65.833,58.7016 C65.9989,58.841 66.3316,59.1968 66.1312,59.2772 C65.6879,59.4558 65.5206,59.315 65.0466,59.409 C64.4809,59.521 63.6048,59.8485 63.0349,59.8282 Z" style="stroke:none;fill-rule:evenodd;fill:#000000;fill-opacity:1;"/>
        </g>
        <g id="Shape27">
            <desc shapeID="27" type="0" basicInfo-basicType="0" basicInfo-roundedRectRadius="12" basicInfo-polygonSides="6" basicInfo-starPoints="5" bounding="rect(-8.51743,-5.21873,17.0348,10.4374)" text="" font-familyName="Helvetica" font-pixelSize="20" font-bold="0" font-underline="0" font-alignment="1" strokeStyle="0" markerStart="0" markerEnd="0" shadowEnabled="0" shadowOffsetX="0" shadowOffsetY="2" shadowBlur="4" shadowOpacity="160" blurEnabled="0" blurRadius="4" transform="matrix(0.207368,0,0,0.207368,60.3651,58.7465)" pers-center="0,0" pers-size="0,0" pers-start="0,0" pers-end="0,0" locked="0" mesh="" flag=""/>
            <path id="shapePath27" d="M58.7387,59.2318 C58.3729,58.729 58.7713,57.6846 59.3928,57.6648 C60.189,57.6392 61.4919,58.6468 61.9215,59.0929 C62.301,59.4865 62.1332,59.8287 61.6781,59.8287 C61.025,59.8287 60.6522,59.3055 59.7122,58.6468 C59.3611,58.4006 58.9226,59.4851 58.7387,59.2318 Z" style="stroke:none;fill-rule:evenodd;fill:#000000;fill-opacity:1;"/>
        </g>
        <g id="Shape28">
            <desc shapeID="28" type="0" basicInfo-basicType="0" basicInfo-roundedRectRadius="12" basicInfo-polygonSides="6" basicInfo-starPoints="5" bounding="rect(0,0,0,0)" text="" font-familyName="Helvetica" font-pixelSize="20" font-bold="0" font-underline="0" font-alignment="1" strokeStyle="0" markerStart="0" markerEnd="0" shadowEnabled="0" shadowOffsetX="0" shadowOffsetY="2" shadowBlur="4" shadowOpacity="160" blurEnabled="0" blurRadius="4" transform="matrix(0.566984,0,0,0.566984,49.4441,69.4947)" pers-center="0,0" pers-size="0,0" pers-start="0,0" pers-end="0,0" locked="0" mesh="" flag=""/>
            <path id="shapePath28" d="M49.4441,69.4947 Z" style="stroke:none;fill-rule:evenodd;fill:#000000;fill-opacity:1;"/>
        </g>
        <g id="Shape29">
            <desc shapeID="29" type="0" basicInfo-basicType="0" basicInfo-roundedRectRadius="12" basicInfo-polygonSides="6" basicInfo-starPoints="5" bounding="rect(-143.027,-54.6664,286.053,109.333)" text="" font-familyName="Helvetica" font-pixelSize="20" font-bold="0" font-underline="0" font-alignment="1" strokeStyle="0" markerStart="0" markerEnd="0" shadowEnabled="0" shadowOffsetX="0" shadowOffsetY="2" shadowBlur="4" shadowOpacity="160" blurEnabled="0" blurRadius="4" transform="matrix(0.0329519,0,0,0.0329519,52.8372,59.8891)" pers-center="0,0" pers-size="0,0" pers-start="0,0" pers-end="0,0" locked="0" mesh="" flag=""/>
            <path id="shapePath29" d="M48.5713,61.6637 C48.3317,61.4317 48.1006,61.0999 48.1261,60.7672 C48.1531,60.418 48.395,60.0503 48.7069,59.8901 C49.2806,59.5957 49.9569,59.4922 50.6024,59.4965 C51.2598,59.5012 51.8746,59.9695 52.5305,59.9161 C52.9053,59.8854 53.1023,59.4015 53.4525,59.2649 C53.8603,59.1061 54.3097,59.0513 54.7469,59.0513 C55.0503,59.0513 55.3905,59.4487 55.6311,59.2649 C56.0328,58.9558 56.1509,58.6591 56.4997,58.2914 C56.7066,58.0721 57.2156,58.1033 57.5166,58.0877 C57.5752,58.0844 57.545,58.3873 57.5166,58.4393 C57.2865,58.8547 56.6027,58.6326 56.3787,59.0513 C56.2766,59.2436 56.2988,59.5026 56.1533,59.6642 C56.0035,59.831 55.7747,59.935 55.5531,59.9676 C55.1859,60.0215 54.8069,59.8533 54.4407,59.9161 C53.9265,60.004 53.4586,60.2724 52.9563,60.4128 C52.6803,60.4898 52.3972,60.5678 52.1109,60.5678 C51.2995,60.5678 50.4592,60.1808 49.6814,60.4128 C49.2494,60.5413 49.206,61.1845 48.9063,61.5219 C48.826,61.6131 48.6587,61.7483 48.5713,61.6637 Z" style="stroke:none;fill-rule:evenodd;fill:#000000;fill-opacity:1;"/>
        </g>
        <g id="Shape30">
            <desc shapeID="30" type="0" basicInfo-basicType="4" basicInfo-roundedRectRadius="12" basicInfo-polygonSides="6" basicInfo-starPoints="5" bounding="rect(-2.91032,-2.34251,5.82065,4.68503)" text="" font-familyName="Helvetica" font-pixelSize="20" font-bold="0" font-underline="0" font-alignment="1" strokeStyle="0" markerStart="0" markerEnd="0" shadowEnabled="0" shadowOffsetX="0" shadowOffsetY="2" shadowBlur="4" shadowOpacity="160" blurEnabled="0" blurRadius="4" transform="matrix(0.566984,0,0,0.566984,35.3917,31.2174)" pers-center="0,0" pers-size="0,0" pers-start="0,0" pers-end="0,0" locked="0" mesh="" flag=""/>
            <path id="shapePath30" d="M33.7416,31.2177 C33.7416,30.4842 34.4804,29.8893 35.3917,29.8893 C36.3031,29.8893 37.0418,30.4842 37.0418,31.2177 C37.0418,31.9511 36.3031,32.5456 35.3917,32.5456 C34.4804,32.5456 33.7416,31.9511 33.7416,31.2177 Z" style="stroke:none;fill-rule:evenodd;fill:#241b14;fill-opacity:1;"/>
        </g>
        <g id="Shape31">
            <desc shapeID="31" type="0" basicInfo-basicType="4" basicInfo-roundedRectRadius="12" basicInfo-polygonSides="6" basicInfo-starPoints="5" bounding="rect(-2.91052,-2.34251,5.82107,4.68503)" text="" font-familyName="Helvetica" font-pixelSize="20" font-bold="0" font-underline="0" font-alignment="1" strokeStyle="0" markerStart="0" markerEnd="0" shadowEnabled="0" shadowOffsetX="0" shadowOffsetY="2" shadowBlur="4" shadowOpacity="160" blurEnabled="0" blurRadius="4" transform="matrix(0.566984,0,0,0.566984,56.7539,28.8834)" pers-center="0,0" pers-size="0,0" pers-start="0,0" pers-end="0,0" locked="0" mesh="" flag=""/>
            <path id="shapePath31" d="M55.1037,28.8832 C55.1037,28.1497 55.8423,27.5552 56.7539,27.5552 C57.665,27.5552 58.4041,28.1497 58.4041,28.8832 C58.4041,29.6166 57.665,30.2115 56.7539,30.2115 C55.8423,30.2115 55.1037,29.6166 55.1037,28.8832 Z" style="stroke:none;fill-rule:evenodd;fill:#000000;fill-opacity:1;"/>
        </g>
        <g id="Shape32">
            <desc shapeID="32" type="0" basicInfo-basicType="0" basicInfo-roundedRectRadius="12" basicInfo-polygonSides="6" basicInfo-starPoints="5" bounding="rect(-8.86101,-12.0924,17.7219,24.1846)" text="" font-familyName="Helvetica" font-pixelSize="20" font-bold="0" font-underline="0" font-alignment="1" strokeStyle="0" markerStart="0" markerEnd="0" shadowEnabled="0" shadowOffsetX="0" shadowOffsetY="2" shadowBlur="4" shadowOpacity="160" blurEnabled="0" blurRadius="4" transform="matrix(0.566984,0,0,0.566984,47.9541,43.3468)" pers-center="0,0" pers-size="0,0" pers-start="0,0" pers-end="0,0" locked="0" mesh="" flag=""/>
            <path id="shapePath32" d="M49.1559,50.1504 C48.8227,48.0252 49.1072,45.8192 48.6474,43.7186 C48.4796,42.9507 47.8832,42.3193 47.3228,41.7683 C47.0633,41.5127 46.5652,41.6421 46.2925,41.4002 C45.9887,41.1308 46.1082,40.3719 45.7041,40.3331 C45.0651,40.2726 44.6149,41.137 43.9748,41.1795 C43.5672,41.2069 43.0189,40.9186 42.9446,40.5174 C42.8545,40.0321 43.1941,39.4636 43.6069,39.1928 C45.1162,38.2028 46.7613,37.3578 48.5004,36.8744 C49.9087,36.4835 51.4365,36.3791 52.8788,36.6173 C53.228,36.6749 52.565,37.2775 52.29,37.5005 C51.773,37.9183 50.8132,37.8786 50.5608,38.4939 C50.4063,38.871 51.5244,38.5681 51.7011,38.9348 C51.8297,39.2008 51.2905,39.3591 51.0759,39.5609 C50.481,40.1195 49.6639,40.4999 49.2731,41.2164 C49.0807,41.5694 49.4593,41.9985 49.5306,42.3935 C49.6681,43.1515 49.8912,43.9044 49.8987,44.6751 C49.9139,46.3773 49.826,48.0857 49.5972,49.7723 C49.5708,49.9646 49.1861,50.3413 49.1559,50.1504 Z" style="stroke:none;fill-rule:evenodd;fill:#3d2f22;fill-opacity:1;"/>
        </g>
        <g id="Shape33">
            <desc shapeID="33" type="0" basicInfo-basicType="0" basicInfo-roundedRectRadius="12" basicInfo-polygonSides="6" basicInfo-starPoints="5" bounding="rect(-12.6812,-26.2764,25.3622,52.5529)" text="" font-familyName="Helvetica" font-pixelSize="20" font-bold="0" font-underline="0" font-alignment="1" strokeStyle="0" markerStart="0" markerEnd="0" shadowEnabled="0" shadowOffsetX="0" shadowOffsetY="2" shadowBlur="4" shadowOpacity="160" blurEnabled="0" blurRadius="4" transform="matrix(0.566984,0,0,0.566984,60.7824,14.8983)" pers-center="0,0" pers-size="0,0" pers-start="0,0" pers-end="0,0" locked="0" mesh="" flag=""/>
            <path id="shapePath33" d="M67.2791,29.7106 C65.6298,24.4556 65.118,19.0314 63.6128,13.7339 C62.6554,10.3658 61.3799,6.89004 59.8923,3.72082 C59.492,2.86868 58.5289,1.96659 57.5941,2.07944 C56.4373,2.21889 55.5356,3.33757 54.9132,4.32241 C54.3769,5.17233 54.7464,6.37092 54.3116,7.27755 C54.2039,7.50108 53.6132,7.30591 53.5999,7.05875 C53.5484,6.07608 53.7616,5.06345 54.1472,4.15857 C54.6708,2.92931 55.1694,1.50733 56.2813,0.766294 C57.2898,0.0938702 58.8729,-0.327998 59.8923,0.328593 C61.181,1.15867 61.4017,3.00813 61.9716,4.43185 C63.3024,7.75816 65.1454,11.0714 65.9833,14.5542 C67.1538,19.417 67.4152,24.397 67.9714,29.3671 C68.0002,29.6232 67.3561,29.9564 67.2791,29.7106 Z" style="stroke:none;fill-rule:evenodd;fill:#000000;fill-opacity:1;"/>
        </g>
        <g id="Shape34">
            <desc shapeID="34" type="0" basicInfo-basicType="0" basicInfo-roundedRectRadius="12" basicInfo-polygonSides="6" basicInfo-starPoints="5" bounding="rect(-18.3704,-4.93981,36.7409,9.87961)" text="" font-familyName="Helvetica" font-pixelSize="20" font-bold="0" font-underline="0" font-alignment="1" strokeStyle="0" markerStart="0" markerEnd="0" shadowEnabled="0" shadowOffsetX="0" shadowOffsetY="2" shadowBlur="4" shadowOpacity="160" blurEnabled="0" blurRadius="4" transform="matrix(0.566984,0,0,0.566984,43.6898,6.66881)" pers-center="0,0" pers-size="0,0" pers-start="0,0" pers-end="0,0" locked="0" mesh="" flag=""/>
            <path id="shapePath34" d="M33.2999,9.21889 C35.2438,7.537 37.031,5.42691 39.4566,4.57642 C42.1248,3.64091 45.1116,3.80589 47.9243,4.09222 C50.0533,4.30824 52.0731,5.2075 54.0371,6.05851 C54.2285,6.14187 53.9794,6.64572 53.771,6.62541 C51.6936,6.4248 49.7074,5.54539 47.6228,5.43882 C44.9467,5.30159 42.1701,5.15135 39.5966,5.8992 C37.4291,6.529 35.8244,8.39378 33.8274,9.44667 C33.658,9.53599 33.1551,9.34412 33.2999,9.21889 Z" style="stroke:none;fill-rule:evenodd;fill:#241b14;fill-opacity:1;"/>
        </g>
        <g id="Shape35">
            <desc shapeID="35" type="0" basicInfo-basicType="0" basicInfo-roundedRectRadius="12" basicInfo-polygonSides="6" basicInfo-starPoints="5" bounding="rect(-2.472,-6.03963,4.944,12.0793)" text="" font-familyName="Helvetica" font-pixelSize="20" font-bold="0" font-underline="0" font-alignment="1" strokeStyle="0" markerStart="0" markerEnd="0" shadowEnabled="0" shadowOffsetX="0" shadowOffsetY="2" shadowBlur="4" shadowOpacity="160" blurEnabled="0" blurRadius="4" transform="matrix(0.566984,0,0,0.566984,46.6766,7.9476)" pers-center="0,0" pers-size="0,0" pers-start="0,0" pers-end="0,0" locked="0" mesh="" flag=""/>
            <path id="shapePath35" d="M45.3775,4.98581 C45.1377,5.73933 45.3821,6.4333 45.4711,7.23408 C45.5743,8.15985 45.5573,9.19431 45.7591,10.0856 C45.8822,10.6286 46.2684,11.3417 46.8232,11.371 C47.3856,11.4008 47.9985,10.768 48.0481,10.2066 C48.2022,8.45899 47.7311,6.66936 47.3856,4.98581 C47.0808,4.3899 45.5811,4.3485 45.3775,4.98581 Z" style="stroke:none;fill-rule:evenodd;fill:#000000;fill-opacity:1;"/>
        </g>
        <g id="Shape36">
            <desc shapeID="36" type="0" basicInfo-basicType="0" basicInfo-roundedRectRadius="12" basicInfo-polygonSides="6" basicInfo-starPoints="5" bounding="rect(0,0,0,0)" text="" font-familyName="Helvetica" font-pixelSize="20" font-bold="0" font-underline="0" font-alignment="1" strokeStyle="0" markerStart="0" markerEnd="0" shadowEnabled="0" shadowOffsetX="0" shadowOffsetY="2" shadowBlur="4" shadowOpacity="160" blurEnabled="0" blurRadius="4" transform="matrix(0.566984,0,0,0.566984,40.6954,5.24374)" pers-center="0,0" pers-size="0,0" pers-start="0,0" pers-end="0,0" locked="0" mesh="" flag=""/>
            <path id="shapePath36" d="M40.6954,5.24374 Z" style="stroke:none;fill-rule:evenodd;fill:#241b14;fill-opacity:1;"/>
        </g>
        <g id="Shape37">
            <desc shapeID="37" type="0" basicInfo-basicType="0" basicInfo-roundedRectRadius="12" basicInfo-polygonSides="6" basicInfo-starPoints="5" bounding="rect(-2.22006,-5.80902,4.44011,11.6181)" text="" font-familyName="Helvetica" font-pixelSize="20" font-bold="0" font-underline="0" font-alignment="1" strokeStyle="0" markerStart="0" markerEnd="0" shadowEnabled="0" shadowOffsetX="0" shadowOffsetY="2" shadowBlur="4" shadowOpacity="160" blurEnabled="0" blurRadius="4" transform="matrix(0.566984,0,0,0.566984,41.7578,7.92324)" pers-center="0,0" pers-size="0,0" pers-start="0,0" pers-end="0,0" locked="0" mesh="" flag=""/>
            <path id="shapePath37" d="M40.5355,5.04871 C40.3626,6.61973 40.8349,8.22034 41.3151,9.72643 C41.5079,10.3309 41.8719,11.1413 42.5024,11.2146 C42.9611,11.268 42.9843,10.3828 42.9985,9.92113 C43.045,8.44056 43.0217,6.92974 42.6821,5.48759 C42.6073,5.16893 41.9813,4.7335 41.661,4.66772 C41.2352,4.58096 40.5831,4.61668 40.5355,5.04871 Z" style="stroke:none;fill-rule:evenodd;fill:#241b14;fill-opacity:1;"/>
        </g>
        <g id="Shape38">
            <desc shapeID="38" type="0" basicInfo-basicType="0" basicInfo-roundedRectRadius="12" basicInfo-polygonSides="6" basicInfo-starPoints="5" bounding="rect(-1.89725,-5.64078,3.79448,11.2816)" text="" font-familyName="Helvetica" font-pixelSize="20" font-bold="0" font-underline="0" font-alignment="1" strokeStyle="0" markerStart="0" markerEnd="0" shadowEnabled="0" shadowOffsetX="0" shadowOffsetY="2" shadowBlur="4" shadowOpacity="160" blurEnabled="0" blurRadius="4" transform="matrix(0.566984,0,0,0.566984,38.6879,8.88737)" pers-center="0,0" pers-size="0,0" pers-start="0,0" pers-end="0,0" locked="0" mesh="" flag=""/>
            <path id="shapePath38" d="M37.6122,6.51955 C37.7675,8.08093 37.7953,9.70185 37.9841,11.2146 C38.1139,11.6824 38.6702,12.1262 39.1538,12.0827 C39.549,12.0477 39.7468,11.4523 39.7559,11.0553 C39.7973,9.34884 39.6749,7.62064 39.3012,5.95534 C39.2445,5.70246 38.8056,5.64122 38.5601,5.7234 C38.169,5.85383 37.6553,6.10897 37.6122,6.51955 Z" style="stroke:none;fill-rule:evenodd;fill:#241b14;fill-opacity:1;"/>
        </g>
        <g id="Shape39">
            <desc shapeID="39" type="0" basicInfo-basicType="0" basicInfo-roundedRectRadius="12" basicInfo-polygonSides="6" basicInfo-starPoints="5" bounding="rect(-12.2639,-26.7096,24.5277,53.4193)" text="" font-familyName="Helvetica" font-pixelSize="20" font-bold="0" font-underline="0" font-alignment="1" strokeStyle="0" markerStart="0" markerEnd="0" shadowEnabled="0" shadowOffsetX="0" shadowOffsetY="2" shadowBlur="4" shadowOpacity="160" blurEnabled="0" blurRadius="4" transform="matrix(0.566984,0,0,0.566984,27.0277,18.0083)" pers-center="0,0" pers-size="0,0" pers-start="0,0" pers-end="0,0" locked="0" mesh="" flag=""/>
            <path id="shapePath39" d="M33.7205,9.56198 C31.8315,8.881 30.3947,7.2889 28.5989,6.39134 C27.9914,6.08743 27.0882,5.52956 26.599,6.00128 C25.4729,7.08569 24.9651,8.72458 24.5992,10.2444 C23.6864,14.0363 23.198,17.9256 22.7944,21.8049 C22.6914,22.7959 23.2197,23.7926 23.0871,24.7803 C22.7433,27.3407 22.2142,29.8954 21.3799,32.3405 C21.2357,32.7635 20.5891,33.3717 20.258,33.0725 C19.8474,32.7011 20.2362,31.9549 20.3556,31.4138 C20.7585,29.5882 21.6366,27.86 21.8189,26 C22.1122,23.0062 21.554,19.9761 21.7701,16.9757 C21.9618,14.3151 22.2453,11.621 23.0383,9.07381 C23.6459,7.12256 24.5203,5.15249 25.9162,3.65963 C26.5521,2.97927 27.8445,2.60333 28.6477,3.07449 C30.7288,4.29463 32.2344,6.33633 33.7205,8.23688 C33.9925,8.58422 34.136,9.71178 33.7205,9.56198 Z" style="stroke:none;fill-rule:evenodd;fill:#241b14;fill-opacity:1;"/>
        </g>
        <g id="Shape40">
            <desc shapeID="40" type="0" basicInfo-basicType="0" basicInfo-roundedRectRadius="12" basicInfo-polygonSides="6" basicInfo-starPoints="5" bounding="rect(-25.6658,-34.482,51.3315,68.964)" text="" font-familyName="Helvetica" font-pixelSize="20" font-bold="0" font-underline="0" font-alignment="1" strokeStyle="0" markerStart="0" markerEnd="0" shadowEnabled="0" shadowOffsetX="0" shadowOffsetY="2" shadowBlur="4" shadowOpacity="160" blurEnabled="0" blurRadius="4" transform="matrix(0.566984,0,0,0.566984,21.5892,52.4668)" pers-center="0,0" pers-size="0,0" pers-start="0,0" pers-end="0,0" locked="0" mesh="" flag=""/>
            <path id="shapePath40" d="M26.6331,33.6245 C26.9813,33.4969 26.9992,32.8608 26.6331,32.9199 C23.3061,33.4572 20.3157,34.0805 17.465,35.8777 C13.5521,38.3445 9.45117,41.6719 8.06299,46.0839 C6.43469,51.26 6.70859,57.4781 9.1441,62.3272 C11.1376,66.2954 15.7965,70.1591 20.0595,71.4053 C25.0721,72.8708 30.8885,71.4119 35.7262,70.0958 C36.0011,70.0849 36.3075,69.3714 36.0353,69.3302 C31.0283,69.8902 25.7262,70.9105 20.9169,69.3302 C17.4303,68.1852 13.631,64.7212 12.001,61.4326 C9.79218,56.9776 9.03139,51.3951 10.3634,46.6032 C11.5,42.515 15.2867,39.4617 18.7789,37.0511 C21.5595,35.131 23.4598,34.7851 26.6331,33.6245 Z" style="stroke:none;fill-rule:evenodd;fill:#241b14;fill-opacity:1;"/>
        </g>
        <g id="Shape41">
            <desc shapeID="41" type="0" basicInfo-basicType="0" basicInfo-roundedRectRadius="12" basicInfo-polygonSides="6" basicInfo-starPoints="5" bounding="rect(-27.5325,-32.5872,55.0648,65.1743)" text="" font-familyName="Helvetica" font-pixelSize="20" font-bold="0" font-underline="0" font-alignment="1" strokeStyle="0" markerStart="0" markerEnd="0" shadowEnabled="0" shadowOffsetX="0" shadowOffsetY="2" shadowBlur="4" shadowOpacity="160" blurEnabled="0" blurRadius="4" transform="matrix(0.566984,0,0,0.566984,76.5216,46.6624)" pers-center="0,0" pers-size="0,0" pers-start="0,0" pers-end="0,0" locked="0" mesh="" flag=""/>
            <path id="shapePath41" d="M61.1465,35.1315 C63.0458,33.9581 64.0821,31.409 66.2177,30.7569 C69.3239,29.8084 72.9121,29.4885 75.9612,30.6076 C80.298,32.1992 84.64,34.7672 87.345,38.5118 C89.6332,41.6795 90.4352,46.0711 89.9305,49.9457 C89.3974,54.0392 87.8634,58.7668 84.4122,61.0318 C80.0849,63.872 73.8119,63.7468 69.1008,63.6168 C68.8182,63.6811 69.0106,64.4764 69.2998,64.4623 C74.4111,65.4391 80.7271,65.7103 85.2076,62.8215 C89.3067,60.1789 91.2896,54.6762 91.9687,49.8465 C92.5816,45.4889 91.4545,40.5581 88.8369,37.0209 C85.8375,32.9681 81.0669,30.1383 76.2594,28.6194 C72.9367,27.5694 69.159,28.6152 65.8694,29.7621 C63.895,30.4511 62.5278,32.3202 61.1465,33.8901 C60.8733,34.2005 60.7944,35.3489 61.1465,35.1315 Z" style="stroke:none;fill-rule:evenodd;fill:#261d15;fill-opacity:1;"/>
        </g>
        <g id="Shape42">
            <desc shapeID="42" type="0" basicInfo-basicType="0" basicInfo-roundedRectRadius="12" basicInfo-polygonSides="6" basicInfo-starPoints="5" bounding="rect(-2.6681,-7.67868,5.33621,15.3574)" text="" font-familyName="Helvetica" font-pixelSize="20" font-bold="0" font-underline="0" font-alignment="1" strokeStyle="0" markerStart="0" markerEnd="0" shadowEnabled="0" shadowOffsetX="0" shadowOffsetY="2" shadowBlur="4" shadowOpacity="160" blurEnabled="0" blurRadius="4" transform="matrix(0.566984,0,0,0.566984,94.1024,42.3999)" pers-center="0,0" pers-size="0,0" pers-start="0,0" pers-end="0,0" locked="0" mesh="" flag=""/>
            <path id="shapePath42" d="M92.6383,38.3644 C92.3704,39.2859 93.2919,40.1866 93.4067,41.1398 C93.6156,42.8874 93.2153,44.6988 93.6038,46.4151 C93.6803,46.754 94.5177,46.8958 94.6345,46.5687 C95.288,44.7427 95.7001,42.7678 95.6004,40.8307 C95.5522,39.8894 94.9393,38.9679 94.2139,38.3644 C93.8108,38.0284 92.7853,37.8601 92.6383,38.3644 Z" style="stroke:none;fill-rule:evenodd;fill:#261d15;fill-opacity:1;"/>
        </g>
        <g id="Shape43">
            <desc shapeID="43" type="0" basicInfo-basicType="0" basicInfo-roundedRectRadius="12" basicInfo-polygonSides="6" basicInfo-starPoints="5" bounding="rect(-2.66858,-7.67897,5.33718,15.3579)" text="" font-familyName="Helvetica" font-pixelSize="20" font-bold="0" font-underline="0" font-alignment="1" strokeStyle="0" markerStart="0" markerEnd="0" shadowEnabled="0" shadowOffsetX="0" shadowOffsetY="2" shadowBlur="4" shadowOpacity="160" blurEnabled="0" blurRadius="4" transform="matrix(0.265913,0.0706857,-0.0706857,0.265912,98.167,43.0293)" pers-center="0,0" pers-size="0,0" pers-start="0,0" pers-end="0,0" locked="0" mesh="" flag=""/>
            <path id="shapePath43" d="M97.9831,40.9541 C97.743,41.3529 98.0625,41.8907 97.9973,42.3515 C97.8777,43.1969 97.4647,43.997 97.4321,44.8505 C97.426,45.0187 97.8012,45.1898 97.8971,45.0508 C98.4307,44.2758 98.8701,43.4011 99.0653,42.4805 C99.1598,42.0325 98.9869,41.524 98.7227,41.1507 C98.5753,40.9427 98.115,40.7358 97.9831,40.9541 Z" style="stroke:none;fill-rule:evenodd;fill:#261d15;fill-opacity:1;"/>
        </g>
        <g id="Shape44">
            <desc shapeID="44" type="0" basicInfo-basicType="0" basicInfo-roundedRectRadius="12" basicInfo-polygonSides="6" basicInfo-starPoints="5" bounding="rect(-2.86126,-8.36227,5.72251,16.7246)" text="" font-familyName="Helvetica" font-pixelSize="20" font-bold="0" font-underline="0" font-alignment="1" strokeStyle="0" markerStart="0" markerEnd="0" shadowEnabled="0" shadowOffsetX="0" shadowOffsetY="2" shadowBlur="4" shadowOpacity="160" blurEnabled="0" blurRadius="4" transform="matrix(0.566984,0,0,0.566984,4.30025,47.653)" pers-center="0,0" pers-size="0,0" pers-start="0,0" pers-end="0,0" locked="0" mesh="" flag=""/>
            <path id="shapePath44" d="M3.15003,44.462 C2.48008,46.478 2.5742,48.7804 3.11283,50.8351 C3.34535,51.7226 4.22135,52.5189 5.02907,52.3781 C5.64531,52.2704 5.02907,51.1267 5.02907,50.5015 C5.02907,48.7984 5.01277,47.5947 5.02907,45.393 C5.03455,44.6435 6.42997,43.2281 5.72238,42.9814 C4.78815,42.6563 3.46192,43.523 3.15003,44.462 Z" style="stroke:none;fill-rule:evenodd;fill:#241b14;fill-opacity:1;"/>
        </g>
        <g id="Shape45">
            <desc shapeID="45" type="0" basicInfo-basicType="0" basicInfo-roundedRectRadius="12" basicInfo-polygonSides="6" basicInfo-starPoints="5" bounding="rect(-3.45553,-5.41847,6.91105,10.8369)" text="" font-familyName="Helvetica" font-pixelSize="20" font-bold="0" font-underline="0" font-alignment="1" strokeStyle="0" markerStart="0" markerEnd="0" shadowEnabled="0" shadowOffsetX="0" shadowOffsetY="2" shadowBlur="4" shadowOpacity="160" blurEnabled="0" blurRadius="4" transform="matrix(0.566984,0,0,0.566984,2.6861,42.637)" pers-center="0,0" pers-size="0,0" pers-start="0,0" pers-end="0,0" locked="0" mesh="" flag=""/>
            <path id="shapePath45" d="M0.730991,45.4993 C0.683535,44.3212 1.05207,43.1331 1.5213,42.0509 C1.90782,41.1597 2.43052,40.2301 3.24561,39.7013 C3.64688,39.4419 4.7061,39.5534 4.64259,40.0274 C4.50181,41.0793 3.35748,41.7258 2.8498,42.6572 C2.35823,43.5589 2.27409,44.6756 1.66022,45.4993 C1.4751,45.7479 0.743462,45.8088 0.730991,45.4993 Z" style="stroke:none;fill-rule:evenodd;fill:#241b14;fill-opacity:1;"/>
        </g>
        <g id="Shape46">
            <desc shapeID="46" type="0" basicInfo-basicType="0" basicInfo-roundedRectRadius="12" basicInfo-polygonSides="6" basicInfo-starPoints="5" bounding="rect(-16.1791,-7.9943,32.3583,15.9886)" text="" font-familyName="Helvetica" font-pixelSize="20" font-bold="0" font-underline="0" font-alignment="1" strokeStyle="0" markerStart="0" markerEnd="0" shadowEnabled="0" shadowOffsetX="0" shadowOffsetY="2" shadowBlur="4" shadowOpacity="160" blurEnabled="0" blurRadius="4" transform="matrix(0.566984,0,0,0.566984,28.1045,42.0669)" pers-center="0,0" pers-size="0,0" pers-start="0,0" pers-end="0,0" locked="0" mesh="" flag=""/>
            <path id="shapePath46" d="M19.0873,43.1506 C21.3937,40.7896 24.1836,38.5109 27.4002,37.7718 C30.0732,37.157 33.2665,37.75 35.4685,39.3851 C37.0744,40.5774 37.2758,43.1062 37.2778,45.1066 C37.2798,47.1278 36.5725,46.8986 36.202,45.5952 C35.6406,43.6492 33.9042,42.7863 30.383,42.6128 C25.9391,42.3931 23.9449,44.8944 20.234,45.1066 C19.4795,45.1496 18.5591,43.6912 19.0873,43.1506 Z" style="stroke:none;fill-rule:evenodd;fill:#ee917b;fill-opacity:1;"/>
        </g>
        <g id="Shape47">
            <desc shapeID="47" type="0" basicInfo-basicType="0" basicInfo-roundedRectRadius="12" basicInfo-polygonSides="6" basicInfo-starPoints="5" bounding="rect(-18.6846,-15.2792,37.3692,30.5583)" text="" font-familyName="Helvetica" font-pixelSize="20" font-bold="0" font-underline="0" font-alignment="1" strokeStyle="0" markerStart="0" markerEnd="0" shadowEnabled="0" shadowOffsetX="0" shadowOffsetY="2" shadowBlur="4" shadowOpacity="160" blurEnabled="0" blurRadius="4" transform="matrix(0.566984,0,0,0.566984,75.5188,42.8644)" pers-center="0,0" pers-size="0,0" pers-start="0,0" pers-end="0,0" locked="0" mesh="" flag=""/>
            <path id="shapePath47" d="M64.9838,40.241 C66.083,37.699 68.7024,35.1107 71.5436,34.46 C74.8828,33.6949 78.6671,34.7086 81.6302,36.4278 C83.899,37.7449 85.9202,40.2887 86.0993,42.9063 C86.3077,45.952 84.0488,49.2752 82.0399,51.4684 C81.8372,51.8559 82.1528,50.2354 82.3272,49.4864 C82.2341,47.461 82.7223,45.4157 81.6713,43.4394 C80.521,41.2769 78.3841,39.6219 76.1771,38.56 C74.2259,37.6215 71.881,37.38 69.7398,37.699 C68.3287,37.9093 66.8911,39.4508 65.8278,40.3714 C65.4762,40.559 64.7073,40.5283 64.9838,40.241 Z" style="stroke:none;fill-rule:evenodd;fill:#ee917b;fill-opacity:1;"/>
        </g>
    </g>
</svg>
