<?xml version="1.0"?>
<svg version="1.1" xmlns="http://www.w3.org/2000/svg" xmlns:xlink="http://www.w3.org/1999/xlink" width="100" height="100">
    <desc iVinci="yes" version="4.6" gridStep="20" showGrid="no" snapToGrid="no" codePlatform="0"/>
    <g id="Layer1" name="Layer 1" opacity="1">
        <g id="Shape1">
            <desc shapeID="1" type="0" basicInfo-basicType="0" basicInfo-roundedRectRadius="12" basicInfo-polygonSides="6" basicInfo-starPoints="5" bounding="rect(-29.0279,-14.9274,58.0558,29.8549)" text="" font-familyName="" font-pixelSize="20" font-bold="0" font-underline="0" font-alignment="1" strokeStyle="0" markerStart="0" markerEnd="0" shadowEnabled="0" shadowOffsetX="0" shadowOffsetY="2" shadowBlur="4" shadowOpacity="160" blurEnabled="0" blurRadius="4" transform="matrix(0.612463,0,0,0.612463,43.709,9.1425)" pers-center="0,0" pers-size="0,0" pers-start="0,0" pers-end="0,0" locked="0" mesh="" flag=""/>
            <path id="shapePath1" d="M55.1063,2.97342 C52.779,5.66826 52.289,5.91325 50.2066,5.72951 C46.8381,5.42328 39.856,6.52571 36.9162,7.81188 L34.3438,8.97556 L31.649,6.58696 C28.6479,3.95336 27.913,3.76962 26.5655,5.17829 C25.8306,5.852 25.7693,6.40322 26.1981,7.26067 C26.5655,7.87313 26.8105,9.22055 26.8105,10.2617 C26.8105,12.5891 28.4642,13.6915 29.9341,12.4054 C30.669,11.7316 31.3428,11.6704 32.4452,12.0991 C33.6701,12.5279 34.4663,12.3441 36.6099,10.8742 C38.0799,9.89426 39.5498,9.09806 39.9785,9.09806 C40.346,9.09806 41.0809,10.6905 41.5096,12.5891 C42.4283,16.9988 43.1021,18.285 44.3882,18.285 C45.2457,18.285 45.3069,17.6113 44.9394,13.0791 C44.6945,9.71052 44.7557,7.87313 45.1844,7.87313 C45.4907,7.87313 45.7969,8.42435 45.7969,9.1593 C45.7969,11.3642 47.6955,14.6102 48.9205,14.6102 C49.7167,14.6102 50.0841,14.1815 50.0841,13.2628 L50.0841,11.9766 L51.4928,13.2628 C52.289,13.9978 53.1465,14.6102 53.3302,14.6102 C54.1876,14.6102 54.8001,11.8541 54.3101,10.2005 C54.0039,8.91432 54.2489,7.99562 55.4738,6.09699 C57.3112,3.27965 58.0462,2.97342 58.0462,4.99455 C58.0462,6.95443 59.4548,8.79183 60.6798,8.30185 C61.5372,7.99562 61.6597,7.38316 61.2922,4.99455 C60.5573,-1.00759 59.0261,-1.49756 55.1063,2.97342 Z" style="stroke:none;fill-rule:nonzero;fill:#000000;fill-opacity:1;"/>
        </g>
        <g id="Shape2">
            <desc shapeID="2" type="0" basicInfo-basicType="0" basicInfo-roundedRectRadius="12" basicInfo-polygonSides="6" basicInfo-starPoints="5" bounding="rect(-30.8664,-60.949,61.7328,121.898)" text="" font-familyName="" font-pixelSize="20" font-bold="0" font-underline="0" font-alignment="1" strokeStyle="0" markerStart="0" markerEnd="0" shadowEnabled="0" shadowOffsetX="0" shadowOffsetY="2" shadowBlur="4" shadowOpacity="160" blurEnabled="0" blurRadius="4" transform="matrix(0.612463,0,0,0.612463,74.3042,45.0704)" pers-center="0,0" pers-size="0,0" pers-start="0,0" pers-end="0,0" locked="0" mesh="" flag=""/>
            <path id="shapePath2" d="M60.3123,8.10885 C59.8836,8.53758 61.5372,14.356 62.6396,16.0709 C63.3134,17.1733 63.9258,17.2958 67.3556,17.0508 L71.3366,16.8058 L76.4813,20.2969 C86.342,27.034 87.7506,29.1776 87.2607,36.7721 C86.9544,42.3456 86.0358,44.5504 82.7285,47.7352 C78.9924,51.41 75.2564,53.0637 69.8667,53.4311 C67.1719,53.6761 64.1096,53.5536 62.8234,53.1862 C59.5773,52.3287 59.3323,53.3087 62.0272,55.8198 C64.1096,57.7796 64.5383,57.9634 68.0293,57.9634 C71.9491,57.9634 74.7052,57.4122 78.0125,56.0647 C79.7274,55.391 80.0336,55.4523 81.7485,56.9834 C83.2184,58.3309 83.7696,59.4945 84.3209,62.3119 C84.9333,65.9866 84.7496,67.3953 83.0347,70.7026 C82.606,71.4376 81.9323,71.9275 81.5035,71.8051 C81.0748,71.6213 79.8499,72.295 78.7474,73.275 C75.9301,75.9086 70.2954,78.3584 70.2954,77.011 C70.2954,76.6435 70.6629,76.3373 71.0916,76.3373 C71.5204,76.3373 72.4391,75.9698 73.1128,75.4798 C74.2765,74.6224 74.2765,74.5611 73.0515,74.0712 C72.3778,73.8262 71.8266,73.1525 71.8266,72.6625 C71.8266,72.1725 71.3366,71.7438 70.7854,71.7438 C70.2342,71.7438 69.5605,71.4988 69.3155,71.2538 C69.0705,71.0089 69.438,70.8251 70.0505,70.8251 C72.4391,70.8251 75.8076,66.1704 75.8076,62.9243 C75.8076,60.4745 74.8889,60.4745 74.0315,62.8631 C73.7252,63.9043 72.3166,65.8642 70.9079,67.2116 L68.4581,69.6614 L66.0694,68.3753 C64.722,67.7015 63.4971,66.9053 63.2521,66.5379 C62.6396,65.5579 59.0874,65.8642 57.6175,67.0891 C55.8413,68.559 54.9839,72.05 55.5963,74.9286 C56.9437,80.9308 65.8245,84.6055 70.173,80.9308 C71.2141,80.0733 72.5616,79.3996 73.174,79.3996 C73.8477,79.3996 76.1751,78.2359 78.3187,76.8273 C80.4623,75.4186 82.9734,73.8874 83.8309,73.52 C85.9133,72.6013 87.4444,68.2528 87.4444,63.4143 C87.4444,59.372 86.7095,57.0447 84.8108,54.9623 C83.7084,53.7374 83.6471,53.4311 84.3821,53.1862 C84.8721,53.0637 86.7095,51.4713 88.4856,49.6951 C92.0991,46.0203 93.0791,43.3867 93.2016,37.1396 C93.2628,33.7711 92.9566,32.4849 91.2417,29.0551 C88.8531,24.2166 87.0157,22.6242 78.4412,18.1533 C72.2553,14.9684 72.1328,14.9072 67.9068,15.2134 C63.3134,15.5809 62.9459,15.3359 62.9459,12.3348 C62.9459,10.6812 61.7822,7.74137 61.1085,7.74137 C60.8635,7.74137 60.5573,7.92511 60.3123,8.10885 M65.0895,72.6013 C65.5795,73.6424 65.7632,74.5611 65.457,74.7449 C65.212,74.9286 64.6608,74.3774 64.2321,73.52 C62.8846,70.5801 63.6196,69.7839 65.0895,72.6013 M69.3155,78.7259 C69.7442,79.3383 67.6006,80.0121 65.3957,79.9508 C63.9258,79.8896 63.9258,79.8896 65.702,79.0934 C67.9068,78.0522 68.8868,77.9909 69.3155,78.7259 Z" style="stroke:none;fill-rule:nonzero;fill:#000000;fill-opacity:1;"/>
        </g>
        <g id="Shape3">
            <desc shapeID="3" type="0" basicInfo-basicType="0" basicInfo-roundedRectRadius="12" basicInfo-polygonSides="6" basicInfo-starPoints="5" bounding="rect(-39.5909,-43.3305,79.1818,86.661)" text="" font-familyName="" font-pixelSize="20" font-bold="0" font-underline="0" font-alignment="1" strokeStyle="0" markerStart="0" markerEnd="0" shadowEnabled="0" shadowOffsetX="0" shadowOffsetY="2" shadowBlur="4" shadowOpacity="160" blurEnabled="0" blurRadius="4" transform="matrix(0.612463,0,0,0.612463,35.2068,43.0308)" pers-center="0,0" pers-size="0,0" pers-start="0,0" pers-end="0,0" locked="0" mesh="" flag=""/>
            <path id="shapePath3" d="M26.5043,20.8574 L26.933,25.3283 L24.2382,25.3283 C19.8897,25.3283 18.1135,26.492 14.5,31.6367 C11.6827,35.679 11.1927,36.7814 11.009,39.7825 C10.519,46.5196 13.6426,52.7667 19.461,56.564 C25.9531,60.79 36.4262,62.6274 41.5709,60.3612 L43.837,59.4426 L43.7145,61.8312 C43.6533,63.1173 43.347,64.4035 43.1021,64.6485 C42.8571,64.9547 40.8359,65.1385 38.6923,65.1385 C36.0587,65.1385 34.7726,65.3222 34.7726,65.8734 C34.7726,67.1596 36.1812,67.5271 40.591,67.4658 C42.9796,67.4046 44.2657,67.5271 43.4695,67.7721 C40.5297,68.6908 41.9384,69.4257 46.7156,69.5482 C52.2278,69.6707 52.9015,69.3645 56.6987,65.6897 L59.4548,62.9948 L59.1486,58.2176 C58.8424,53.4404 57.8012,50.4393 55.4738,47.867 C53.7589,46.0296 53.8202,38.1288 55.4738,36.9039 C57.1887,35.6177 55.5351,34.699 51.8603,34.944 C49.4104,35.0665 48.553,35.3727 48.553,36.0464 C48.553,36.5364 49.1654,37.0264 49.9617,37.1489 C51.2478,37.3326 51.3091,37.6389 51.2478,41.6811 C51.1866,44.9884 50.9416,46.0296 50.1454,46.2746 C47.818,47.132 45.6132,49.2757 44.572,51.7255 C43.7145,53.6241 42.6733,54.7878 40.591,56.0128 C37.9574,57.5439 37.4061,57.6052 32.8127,57.2989 C24.1769,56.7477 17.9298,52.583 15.7249,46.0296 C14.255,41.5586 16.2762,33.7191 20.0122,29.7381 C21.4821,28.1457 25.2794,26.6145 27.6067,26.737 C28.8317,26.7983 28.8317,26.9207 27.9742,21.0411 C27.0555,15.1002 25.9531,14.9165 26.5043,20.8574 M55.2901,56.5027 C55.7801,60.4225 55.2901,62.3824 53.8202,62.3824 C52.9015,62.3824 52.8402,61.8312 53.024,58.2176 C53.1465,55.9515 53.3302,53.7466 53.5139,53.3179 C54.0039,51.7255 54.9226,53.2567 55.2901,56.5027 M51.6153,66.2409 C53.8814,66.1796 53.9427,66.2409 52.9015,67.0371 C51.4928,68.0783 49.2267,68.1395 47.573,67.2821 C45.9194,66.3634 46.0419,65.261 47.818,65.8734 C48.553,66.1184 50.2679,66.3021 51.6153,66.2409 Z" style="stroke:none;fill-rule:nonzero;fill:#000000;fill-opacity:1;"/>
        </g>
        <g id="Shape4">
            <desc shapeID="4" type="0" basicInfo-basicType="0" basicInfo-roundedRectRadius="12" basicInfo-polygonSides="6" basicInfo-starPoints="5" bounding="rect(-2.43811,-3.1129,4.87622,6.2258)" text="" font-familyName="" font-pixelSize="20" font-bold="0" font-underline="0" font-alignment="1" strokeStyle="0" markerStart="0" markerEnd="0" shadowEnabled="0" shadowOffsetX="0" shadowOffsetY="2" shadowBlur="4" shadowOpacity="160" blurEnabled="0" blurRadius="4" transform="matrix(0.612463,0,0,0.612463,58.312,23.3134)" pers-center="0,0" pers-size="0,0" pers-start="0,0" pers-end="0,0" locked="0" mesh="" flag=""/>
            <path id="shapePath4" d="M57.25,21.7148 C56.515,22.4498 56.76,24.2259 57.6787,24.9609 C58.7199,25.8183 60.0673,24.4096 59.7611,22.756 C59.5773,21.6536 57.9849,20.9798 57.25,21.7148 Z" style="stroke:none;fill-rule:nonzero;fill:#000000;fill-opacity:1;"/>
        </g>
        <g id="Shape5">
            <desc shapeID="5" type="0" basicInfo-basicType="0" basicInfo-roundedRectRadius="12" basicInfo-polygonSides="6" basicInfo-starPoints="5" bounding="rect(-1.946,-2.93564,3.892,5.87128)" text="" font-familyName="" font-pixelSize="20" font-bold="0" font-underline="0" font-alignment="1" strokeStyle="0" markerStart="0" markerEnd="0" shadowEnabled="0" shadowOffsetX="0" shadowOffsetY="2" shadowBlur="4" shadowOpacity="160" blurEnabled="0" blurRadius="4" transform="matrix(0.612463,0,0,0.612463,38.4804,23.7578)" pers-center="0,0" pers-size="0,0" pers-start="0,0" pers-end="0,0" locked="0" mesh="" flag=""/>
            <path id="shapePath5" d="M37.3449,23.6134 C37.4674,24.6546 37.9574,25.3896 38.6311,25.5121 C39.4273,25.6958 39.6723,25.3283 39.6723,23.8584 C39.6723,22.3273 39.4273,21.9598 38.3861,21.9598 C37.4061,21.9598 37.1612,22.266 37.3449,23.6134 Z" style="stroke:none;fill-rule:nonzero;fill:#000000;fill-opacity:1;"/>
        </g>
        <g id="Shape6">
            <desc shapeID="6" type="0" basicInfo-basicType="0" basicInfo-roundedRectRadius="12" basicInfo-polygonSides="6" basicInfo-starPoints="5" bounding="rect(-6.56424,-6.35211,13.1285,12.7042)" text="" font-familyName="" font-pixelSize="20" font-bold="0" font-underline="0" font-alignment="1" strokeStyle="0" markerStart="0" markerEnd="0" shadowEnabled="0" shadowOffsetX="0" shadowOffsetY="2" shadowBlur="4" shadowOpacity="160" blurEnabled="0" blurRadius="4" transform="matrix(0.612463,0,0,0.612463,64.3349,29.0962)" pers-center="0,0" pers-size="0,0" pers-start="0,0" pers-end="0,0" locked="0" mesh="" flag=""/>
            <path id="shapePath6" d="M65.0895,25.5733 C62.1497,26.8595 59.0261,32.0654 60.8635,32.8004 C61.3535,32.9841 61.8434,33.0454 61.9047,32.9229 C61.9659,32.8004 62.5784,31.5755 63.2521,30.228 C64.232,28.2069 64.8445,27.7169 66.4982,27.5945 C68.0293,27.4107 68.458,27.1045 68.3355,26.3695 C68.0906,25.1446 66.8044,24.8996 65.0895,25.5733 Z" style="stroke:none;fill-rule:nonzero;fill:#000000;fill-opacity:1;"/>
        </g>
        <g id="Shape7">
            <desc shapeID="7" type="0" basicInfo-basicType="0" basicInfo-roundedRectRadius="12" basicInfo-polygonSides="6" basicInfo-starPoints="5" bounding="rect(-5.22152,-5.32922,10.4431,10.6584)" text="" font-familyName="" font-pixelSize="20" font-bold="0" font-underline="0" font-alignment="1" strokeStyle="0" markerStart="0" markerEnd="0" shadowEnabled="0" shadowOffsetX="0" shadowOffsetY="2" shadowBlur="4" shadowOpacity="160" blurEnabled="0" blurRadius="4" transform="matrix(0.612463,0,0,0.612463,40.149,33.3505)" pers-center="0,0" pers-size="0,0" pers-start="0,0" pers-end="0,0" locked="0" mesh="" flag=""/>
            <path id="shapePath7" d="M36.9774,30.473 C36.7937,30.7793 37.5899,31.5755 38.7536,32.3104 C39.9172,32.9841 41.2034,34.2703 41.5096,35.1278 C42.2446,37.0264 43.347,37.1489 43.347,35.2502 C43.347,32.8616 37.9574,28.8194 36.9774,30.473 Z" style="stroke:none;fill-rule:nonzero;fill:#000000;fill-opacity:1;"/>
        </g>
        <g id="Shape8">
            <desc shapeID="8" type="0" basicInfo-basicType="0" basicInfo-roundedRectRadius="12" basicInfo-polygonSides="6" basicInfo-starPoints="5" bounding="rect(-1.5,-0.770476,3,1.54095)" text="" font-familyName="" font-pixelSize="20" font-bold="0" font-underline="0" font-alignment="1" strokeStyle="0" markerStart="0" markerEnd="0" shadowEnabled="0" shadowOffsetX="0" shadowOffsetY="2" shadowBlur="4" shadowOpacity="160" blurEnabled="0" blurRadius="4" transform="matrix(0.612463,0,0,0.612463,36.9162,56.3983)" pers-center="0,0" pers-size="0,0" pers-start="0,0" pers-end="0,0" locked="0" mesh="" flag=""/>
            <path id="shapePath8" d="M35.9975,56.2577 C35.9975,56.6252 36.4262,56.8702 36.9162,56.8702 C37.4061,56.8702 37.8349,56.7477 37.8349,56.6252 C37.8349,56.5027 37.4061,56.2577 36.9162,56.0128 C36.4262,55.829 35.9975,55.9515 35.9975,56.2577 Z" style="stroke:none;fill-rule:nonzero;fill:#000000;fill-opacity:1;"/>
        </g>
        <g id="Shape9">
            <desc shapeID="9" type="0" basicInfo-basicType="0" basicInfo-roundedRectRadius="12" basicInfo-polygonSides="6" basicInfo-starPoints="5" bounding="rect(-21.1776,-12.8533,42.3551,25.7066)" text="" font-familyName="" font-pixelSize="20" font-bold="0" font-underline="0" font-alignment="1" strokeStyle="0" markerStart="0" markerEnd="0" shadowEnabled="0" shadowOffsetX="0" shadowOffsetY="2" shadowBlur="4" shadowOpacity="160" blurEnabled="0" blurRadius="4" transform="matrix(0.612463,0,0,0.612463,34.3723,67.3029)" pers-center="0,0" pers-size="0,0" pers-start="0,0" pers-end="0,0" locked="0" mesh="" flag=""/>
            <path id="shapePath9" d="M21.6046,60.545 C20.9921,62.4436 21.8496,67.4658 23.0745,69.487 C23.687,70.4669 25.3406,72.0593 26.7493,73.0392 C28.8317,74.5092 30.1178,74.8766 33.7314,75.1216 C38.9373,75.4278 44.572,74.3867 46.5318,72.7943 C48.2467,71.3856 47.1443,71.2631 44.1432,72.488 C42.7958,73.0392 40.0397,73.4067 36.6712,73.4067 C28.2192,73.4067 24.4832,70.5281 23.8095,63.5461 C23.442,59.6875 22.3395,58.2176 21.6046,60.545 Z" style="stroke:none;fill-rule:nonzero;fill:#000000;fill-opacity:1;"/>
        </g>
        <g id="Shape10">
            <desc shapeID="10" type="0" basicInfo-basicType="0" basicInfo-roundedRectRadius="12" basicInfo-polygonSides="6" basicInfo-starPoints="5" bounding="rect(-21.8408,-8.70307,43.6815,17.4061)" text="greedy" font-familyName="godoMaum" font-pixelSize="26" font-bold="0" font-underline="0" font-alignment="1" strokeStyle="0" markerStart="0" markerEnd="0" shadowEnabled="0" shadowOffsetX="0" shadowOffsetY="2" shadowBlur="4" shadowOpacity="160" blurEnabled="0" blurRadius="4" transform="matrix(1,0,0,1,50,91.1026)" pers-center="0,0" pers-size="0,0" pers-start="0,0" pers-end="0,0" locked="0" mesh="" flag=""/>
            <path id="shapePath10" d="M31.8352,99.667 C31.7312,99.7363 31.5752,99.7796 31.3672,99.797 C31.1592,99.8143 30.9382,99.8056 30.7042,99.771 C30.4702,99.7363 30.2536,99.6756 30.0542,99.589 C29.8549,99.5023 29.7292,99.381 29.6772,99.225 C29.5386,98.8783 29.5516,98.627 29.7162,98.471 C29.8809,98.315 30.1279,98.2283 30.4572,98.211 C30.6999,98.211 30.9036,98.0983 31.0682,97.873 C31.2329,97.6476 31.3629,97.3573 31.4582,97.002 C31.5536,96.6466 31.6229,96.2566 31.6662,95.832 C31.7096,95.4073 31.7312,94.9913 31.7312,94.584 C31.7312,94.1766 31.7226,93.804 31.7052,93.466 C31.6879,93.128 31.6706,92.8723 31.6532,92.699 C31.3412,92.8896 31.0032,93.05 30.6392,93.18 C30.2752,93.31 29.9112,93.271 29.5472,93.063 C29.1139,92.8203 28.7932,92.5126 28.5852,92.14 C28.3772,91.7673 28.2472,91.3383 28.1952,90.853 C28.1432,90.5236 28.1476,90.1683 28.2082,89.787 C28.2689,89.4056 28.3772,89.0416 28.5332,88.695 C28.6892,88.3483 28.8929,88.032 29.1442,87.746 C29.3956,87.46 29.6859,87.2476 30.0152,87.109 C30.3099,86.9703 30.6696,86.9053 31.0942,86.914 C31.5189,86.9226 31.8612,87.0483 32.1212,87.291 C32.1559,87.3083 32.2036,87.3126 32.2642,87.304 C32.3249,87.2953 32.3726,87.2823 32.4072,87.265 C32.5979,87.1783 32.7582,87.174 32.8882,87.252 C33.0182,87.33 33.1222,87.4426 33.2002,87.59 C33.2782,87.7373 33.3432,87.8976 33.3952,88.071 C33.4472,88.2443 33.4906,88.383 33.5252,88.487 C33.6986,89.163 33.8199,89.878 33.8892,90.632 C33.9586,91.386 33.9846,92.14 33.9672,92.894 C33.9499,93.648 33.8936,94.3976 33.7982,95.143 C33.7029,95.8883 33.5772,96.599 33.4212,97.275 C33.3172,97.743 33.1482,98.2023 32.9142,98.653 C32.6802,99.1036 32.3206,99.4416 31.8352,99.667 M30.9512,90.983 C31.1072,90.8443 31.2546,90.697 31.3932,90.541 C31.6359,90.1596 31.7702,89.813 31.7962,89.501 C31.8222,89.189 31.6186,88.9116 31.1852,88.669 C30.9252,88.5303 30.7042,88.513 30.5222,88.617 C30.3402,88.721 30.1886,88.8856 30.0672,89.111 C29.9459,89.3363 29.8592,89.579 29.8072,89.839 C29.7552,90.099 29.7379,90.3156 29.7552,90.489 C29.7552,90.5583 29.7596,90.6536 29.7682,90.775 C29.7769,90.8963 29.7986,91.0133 29.8332,91.126 C29.8679,91.2386 29.9199,91.3253 29.9892,91.386 C30.0586,91.4466 30.1539,91.451 30.2752,91.399 C30.5179,91.2776 30.7432,91.139 30.9512,90.983 M42.3352,87.863 C42.3179,88.1576 42.2139,88.3613 42.0232,88.474 C41.8326,88.5866 41.6159,88.6863 41.3732,88.773 C41.1479,88.8423 40.9009,88.9723 40.6322,89.163 C40.3636,89.3536 40.1512,89.527 39.9952,89.683 C39.8392,89.8563 39.7006,90.0036 39.5792,90.125 C39.4579,90.2463 39.3409,90.3633 39.2282,90.476 C39.1156,90.5886 39.0029,90.7143 38.8902,90.853 C38.7776,90.9916 38.6519,91.165 38.5132,91.373 C38.4266,91.4943 38.3442,91.6546 38.2662,91.854 C38.1882,92.0533 38.1146,92.257 38.0452,92.465 C37.9759,92.673 37.9152,92.881 37.8632,93.089 C37.8112,93.297 37.7679,93.479 37.7332,93.635 C37.6986,93.7563 37.6509,93.8646 37.5902,93.96 C37.5296,94.0553 37.4299,94.103 37.2912,94.103 C37.1352,94.0856 36.9836,94.0596 36.8362,94.025 C36.6889,93.9903 36.5502,93.921 36.4202,93.817 C36.2902,93.713 36.1862,93.5656 36.1082,93.375 C36.0302,93.1843 35.9912,92.9243 35.9912,92.595 C35.9912,92.3176 35.9869,92.0056 35.9782,91.659 C35.9696,91.3123 35.9566,90.957 35.9392,90.593 C35.9219,90.229 35.9132,89.8736 35.9132,89.527 C35.9132,89.1803 35.9132,88.8683 35.9132,88.591 C35.9306,88.3483 35.9479,88.1056 35.9652,87.863 C35.9826,87.6203 36.0086,87.3776 36.0432,87.135 C36.0606,86.9443 36.0779,86.771 36.0952,86.615 C36.1126,86.459 36.1732,86.2943 36.2772,86.121 C36.3119,86.0863 36.3726,86.03 36.4592,85.952 C36.5459,85.874 36.6412,85.8263 36.7452,85.809 C36.8839,85.7916 37.0139,85.8176 37.1352,85.887 C37.2566,85.9563 37.3346,86.0343 37.3692,86.121 C37.3866,86.225 37.4126,86.3766 37.4472,86.576 C37.4819,86.7753 37.5166,86.979 37.5512,87.187 C37.5859,87.395 37.6162,87.603 37.6422,87.811 C37.6682,88.019 37.6812,88.1836 37.6812,88.305 C37.6986,88.4263 37.7159,88.604 37.7332,88.838 C37.7506,89.072 37.7766,89.293 37.8112,89.501 C38.0886,89.2583 38.3572,88.994 38.6172,88.708 C38.8772,88.422 39.1806,88.1576 39.5272,87.915 C39.7872,87.7243 40.0602,87.5683 40.3462,87.447 C40.6322,87.3256 40.9312,87.2216 41.2432,87.135 C41.5379,87.0656 41.8022,87.0786 42.0362,87.174 C42.2702,87.2693 42.3699,87.499 42.3352,87.863 M48.3275,91.893 C48.4488,91.8583 48.5745,91.8366 48.7045,91.828 C48.8345,91.8193 48.9428,91.8236 49.0295,91.841 C49.4282,91.893 49.5755,92.0923 49.4715,92.439 C49.4368,92.543 49.3545,92.647 49.2245,92.751 C49.0945,92.855 48.9602,92.9503 48.8215,93.037 C48.6135,93.1583 48.3622,93.2753 48.0675,93.388 C47.7728,93.5006 47.4608,93.5916 47.1315,93.661 C46.8022,93.7303 46.4685,93.765 46.1305,93.765 C45.7925,93.765 45.4762,93.713 45.1815,93.609 C44.5575,93.3836 44.0592,93.0456 43.6865,92.595 C43.3138,92.1443 43.0755,91.6156 42.9715,91.009 C42.7288,90.9223 42.4992,90.827 42.2825,90.723 C42.0658,90.619 41.8795,90.4543 41.7235,90.229 C41.4635,89.8823 41.3942,89.6093 41.5155,89.41 C41.6368,89.2106 42.0008,89.1803 42.6075,89.319 C42.8502,89.3536 42.9975,89.345 43.0495,89.293 C43.1708,88.6863 43.3615,88.149 43.6215,87.681 C43.8815,87.213 44.1978,86.8403 44.5705,86.563 C44.9432,86.2856 45.3808,86.1123 45.8835,86.043 C46.3862,85.9736 46.9408,86.0343 47.5475,86.225 C48.1195,86.485 48.4835,86.8186 48.6395,87.226 C48.7955,87.6333 48.8085,88.045 48.6785,88.461 C48.5485,88.877 48.3102,89.28 47.9635,89.67 C47.6168,90.06 47.2355,90.3676 46.8195,90.593 C46.5248,90.7316 46.2345,90.8573 45.9485,90.97 C45.6625,91.0826 45.3635,91.1563 45.0515,91.191 C45.1555,91.3816 45.2768,91.5463 45.4155,91.685 C45.5542,91.8236 45.7188,91.9276 45.9095,91.997 C46.3082,92.153 46.7198,92.2136 47.1445,92.179 C47.5692,92.1443 47.9635,92.049 48.3275,91.893 M45.5195,87.941 C45.3808,88.0103 45.2422,88.123 45.1035,88.279 C44.9648,88.435 44.8478,88.5953 44.7525,88.76 C44.6572,88.9246 44.5965,89.0806 44.5705,89.228 C44.5445,89.3753 44.5835,89.475 44.6875,89.527 C44.8608,89.631 45.0862,89.657 45.3635,89.605 C45.6408,89.553 45.9095,89.449 46.1695,89.293 C46.4295,89.137 46.6505,88.9506 46.8325,88.734 C47.0145,88.5173 47.1055,88.2876 47.1055,88.045 C47.0882,87.8716 47.0232,87.7503 46.9105,87.681 C46.7978,87.6116 46.6635,87.5813 46.5075,87.59 C46.3515,87.5986 46.1868,87.6376 46.0135,87.707 C45.8402,87.7763 45.6755,87.8543 45.5195,87.941 M55.4681,91.893 C55.5895,91.8583 55.7151,91.8366 55.8451,91.828 C55.9751,91.8193 56.0835,91.8236 56.1701,91.841 C56.5688,91.893 56.7161,92.0923 56.6121,92.439 C56.5774,92.543 56.4951,92.647 56.3651,92.751 C56.2351,92.855 56.1008,92.9503 55.9621,93.037 C55.7541,93.1583 55.5028,93.2753 55.2081,93.388 C54.9134,93.5006 54.6014,93.5916 54.2721,93.661 C53.9428,93.7303 53.6091,93.765 53.2711,93.765 C52.9331,93.765 52.6168,93.713 52.3221,93.609 C51.6981,93.3836 51.1998,93.0456 50.8271,92.595 C50.4544,92.1443 50.2161,91.6156 50.1121,91.009 C49.8694,90.9223 49.6398,90.827 49.4231,90.723 C49.2065,90.619 49.0201,90.4543 48.8641,90.229 C48.6041,89.8823 48.5348,89.6093 48.6561,89.41 C48.7775,89.2106 49.1414,89.1803 49.7481,89.319 C49.9908,89.3536 50.1381,89.345 50.1901,89.293 C50.3115,88.6863 50.5021,88.149 50.7621,87.681 C51.0221,87.213 51.3385,86.8403 51.7111,86.563 C52.0838,86.2856 52.5215,86.1123 53.0241,86.043 C53.5268,85.9736 54.0815,86.0343 54.6881,86.225 C55.2601,86.485 55.6241,86.8186 55.7801,87.226 C55.9361,87.6333 55.9491,88.045 55.8191,88.461 C55.6891,88.877 55.4508,89.28 55.1041,89.67 C54.7575,90.06 54.3761,90.3676 53.9601,90.593 C53.6655,90.7316 53.3751,90.8573 53.0891,90.97 C52.8031,91.0826 52.5041,91.1563 52.1921,91.191 C52.2961,91.3816 52.4174,91.5463 52.5561,91.685 C52.6948,91.8236 52.8595,91.9276 53.0501,91.997 C53.4488,92.153 53.8605,92.2136 54.2851,92.179 C54.7098,92.1443 55.1041,92.049 55.4681,91.893 M52.6601,87.941 C52.5215,88.0103 52.3828,88.123 52.2441,88.279 C52.1054,88.435 51.9884,88.5953 51.8931,88.76 C51.7978,88.9246 51.7371,89.0806 51.7111,89.228 C51.6851,89.3753 51.7241,89.475 51.8281,89.527 C52.0014,89.631 52.2268,89.657 52.5041,89.605 C52.7814,89.553 53.0501,89.449 53.3101,89.293 C53.5701,89.137 53.7911,88.9506 53.9731,88.734 C54.1551,88.5173 54.2461,88.2876 54.2461,88.045 C54.2288,87.8716 54.1638,87.7503 54.0511,87.681 C53.9384,87.6116 53.8041,87.5813 53.6481,87.59 C53.4921,87.5986 53.3274,87.6376 53.1541,87.707 C52.9808,87.7763 52.8161,87.8543 52.6601,87.941 M61.9847,92.777 C61.8807,92.9676 61.7247,93.1453 61.5167,93.31 C61.3087,93.4746 61.1007,93.6263 60.8927,93.765 C60.7021,93.9036 60.4811,94.0076 60.2297,94.077 C59.9784,94.1463 59.7227,94.181 59.4627,94.181 C59.2027,94.181 58.9514,94.1376 58.7087,94.051 C58.4661,93.9643 58.2667,93.8343 58.1107,93.661 C57.7294,93.2623 57.4824,92.8246 57.3697,92.348 C57.2571,91.8713 57.2614,91.3816 57.3827,90.879 C57.4694,90.3243 57.6687,89.8303 57.9807,89.397 C58.2927,88.9636 58.6741,88.5823 59.1247,88.253 C59.5061,87.9583 59.9654,87.7676 60.5027,87.681 C60.6067,87.6636 60.7151,87.655 60.8277,87.655 C60.9404,87.655 61.0487,87.6896 61.1527,87.759 C61.2567,87.811 61.3174,87.7763 61.3347,87.655 C61.3867,87.187 61.4171,86.7146 61.4257,86.238 C61.4344,85.7613 61.4734,85.2803 61.5427,84.795 C61.5601,84.587 61.5774,84.3616 61.5947,84.119 C61.6121,83.8763 61.6381,83.6423 61.6727,83.417 C61.7074,83.1916 61.7637,82.9966 61.8417,82.832 C61.9197,82.6673 62.0454,82.5416 62.2187,82.455 C62.3921,82.3856 62.5437,82.3813 62.6737,82.442 C62.8037,82.5026 62.9121,82.5893 62.9987,82.702 C63.0854,82.8146 63.1547,82.936 63.2067,83.066 C63.2587,83.196 63.2847,83.2956 63.2847,83.365 C63.3021,83.4863 63.3151,83.6596 63.3237,83.885 C63.3324,84.1103 63.3454,84.353 63.3627,84.613 C63.3627,84.8556 63.3584,85.0593 63.3497,85.224 C63.3411,85.3886 63.3367,85.575 63.3367,85.783 C63.3194,86.2336 63.3194,86.6973 63.3367,87.174 C63.3541,87.6506 63.3627,88.123 63.3627,88.591 C63.3627,88.6776 63.3671,88.942 63.3757,89.384 C63.3844,89.826 63.3974,90.3026 63.4147,90.814 C63.4321,91.3253 63.4494,91.802 63.4667,92.244 C63.4841,92.686 63.4927,92.9503 63.4927,93.037 C63.5274,93.297 63.5014,93.479 63.4147,93.583 C63.3281,93.687 63.1894,93.765 62.9987,93.817 C62.8601,93.869 62.7517,93.882 62.6737,93.856 C62.5957,93.83 62.5307,93.7823 62.4787,93.713 C62.4267,93.6436 62.3834,93.57 62.3487,93.492 C62.3141,93.414 62.2881,93.3576 62.2707,93.323 L61.9847,92.777 M61.1787,90.645 C61.2307,90.4196 61.2654,90.1683 61.2827,89.891 C61.3001,89.6136 61.2741,89.4316 61.2047,89.345 C61.1874,89.3276 61.1657,89.3146 61.1397,89.306 C61.1137,89.2973 61.0834,89.2843 61.0487,89.267 C61.0141,89.2496 60.9794,89.241 60.9447,89.241 C60.7541,89.241 60.5504,89.306 60.3337,89.436 C60.1171,89.566 59.9091,89.748 59.7097,89.982 C59.5104,90.216 59.3414,90.4803 59.2027,90.775 C59.0641,91.0696 58.9774,91.3816 58.9427,91.711 C58.9427,91.763 58.9471,91.8496 58.9557,91.971 C58.9644,92.0923 58.9947,92.205 59.0467,92.309 C59.0987,92.413 59.1681,92.504 59.2547,92.582 C59.3414,92.66 59.4627,92.6816 59.6187,92.647 C59.7054,92.6296 59.8181,92.5863 59.9567,92.517 C60.0954,92.4476 60.1821,92.3783 60.2167,92.309 C60.3727,92.153 60.5027,92.01 60.6067,91.88 C60.7107,91.75 60.7974,91.6243 60.8667,91.503 C60.9361,91.3816 60.9924,91.256 61.0357,91.126 C61.0791,90.996 61.1267,90.8356 61.1787,90.645 M71.2064,87.603 C71.397,87.6376 71.54,87.7286 71.6354,87.876 C71.7307,88.0233 71.7914,88.1923 71.8174,88.383 C71.8434,88.5736 71.8477,88.7643 71.8304,88.955 C71.813,89.1456 71.787,89.3103 71.7524,89.449 C71.631,90.1076 71.462,90.7576 71.2454,91.399 C71.0287,92.0403 70.8077,92.6773 70.5824,93.31 C70.357,93.9426 70.1447,94.5796 69.9454,95.221 C69.746,95.8623 69.5944,96.5123 69.4904,97.171 C69.4557,97.3616 69.4384,97.5523 69.4384,97.743 C69.4384,97.9336 69.4167,98.107 69.3734,98.263 C69.33,98.419 69.2564,98.5533 69.1524,98.666 C69.0484,98.7786 68.8664,98.8436 68.6064,98.861 C68.2597,98.8783 68.0084,98.7786 67.8524,98.562 C67.6964,98.3453 67.601,98.0636 67.5664,97.717 C67.5317,97.3703 67.549,96.9846 67.6184,96.56 C67.6877,96.1353 67.77,95.7236 67.8654,95.325 C67.9607,94.9263 68.0604,94.5623 68.1644,94.233 C68.2684,93.9036 68.3464,93.661 68.3984,93.505 C68.4677,93.3143 68.5197,93.1236 68.5544,92.933 C68.589,92.7423 68.6237,92.5343 68.6584,92.309 C68.4677,92.413 68.2814,92.53 68.0994,92.66 C67.9174,92.79 67.731,92.8896 67.5404,92.959 C67.263,93.0456 66.9424,93.0586 66.5784,92.998 C66.2144,92.9373 65.9544,92.803 65.7984,92.595 C65.6424,92.387 65.5037,92.1356 65.3824,91.841 C65.261,91.5463 65.157,91.2386 65.0704,90.918 C64.9837,90.5973 64.9187,90.2853 64.8754,89.982 C64.832,89.6786 64.8017,89.4056 64.7844,89.163 C64.767,88.8856 64.7627,88.669 64.7714,88.513 C64.78,88.357 64.8017,88.1663 64.8364,87.941 C64.871,87.7156 64.9794,87.5033 65.1614,87.304 C65.3434,87.1046 65.5557,87.005 65.7984,87.005 C66.1277,86.9876 66.3227,87.096 66.3834,87.33 C66.444,87.564 66.4917,87.915 66.5264,88.383 C66.5264,88.539 66.535,88.7296 66.5524,88.955 C66.5697,89.1803 66.5957,89.4056 66.6304,89.631 C66.665,89.8563 66.7127,90.073 66.7734,90.281 C66.834,90.489 66.9164,90.6536 67.0204,90.775 C67.1417,90.931 67.3107,91.0133 67.5274,91.022 C67.744,91.0306 67.9694,90.9613 68.2034,90.814 C68.4374,90.6666 68.6757,90.437 68.9184,90.125 C69.161,89.813 69.3864,89.4143 69.5944,88.929 C69.6637,88.7556 69.746,88.5823 69.8414,88.409 C69.9367,88.2356 70.0494,88.084 70.1794,87.954 C70.3094,87.824 70.4567,87.7243 70.6214,87.655 C70.786,87.5856 70.981,87.5683 71.2064,87.603 Z" style="stroke:none;fill-rule:nonzero;fill:#000000;fill-opacity:1;"/>
        </g>
    </g>
</svg>
