<?xml version="1.0"?>
<svg version="1.1" xmlns="http://www.w3.org/2000/svg" xmlns:xlink="http://www.w3.org/1999/xlink" width="400" height="400">
    <desc iVinci="yes" version="4.6" gridStep="20" showGrid="no" snapToGrid="no" codePlatform="0"/>
    <g id="Layer1" name="Layer 1" opacity="1">
        <g id="Shape1">
            <desc shapeID="1" type="0" basicInfo-basicType="0" basicInfo-roundedRectRadius="12" basicInfo-polygonSides="6" basicInfo-starPoints="5" bounding="rect(-24.4141,-36.9629,48.8281,73.9258)" text="?" font-familyName="Arial Rounded MT Bold" font-pixelSize="100" font-bold="0" font-underline="0" font-alignment="1" strokeStyle="0" markerStart="0" markerEnd="0" shadowEnabled="0" shadowOffsetX="0" shadowOffsetY="2" shadowBlur="4" shadowOpacity="160" blurEnabled="0" blurRadius="4" transform="matrix(1.58938,0,0,1.58938,200,200)" pers-center="0,0" pers-size="0,0" pers-start="0,0" pers-end="0,0" locked="0" mesh="" flag=""/>
            <path id="shapePath1" d="M161.197,173.691 C161.197,168.776 162.775,163.797 165.931,158.752 C169.087,153.708 173.691,149.53 179.745,146.219 C185.798,142.908 192.86,141.252 200.931,141.252 C208.433,141.252 215.056,142.636 220.798,145.404 C226.541,148.172 230.978,151.936 234.108,156.696 C237.238,161.455 238.803,166.629 238.803,172.217 C238.803,176.615 237.911,180.469 236.126,183.78 C234.341,187.091 232.22,189.95 229.762,192.356 C227.304,194.762 222.894,198.81 216.53,204.501 C214.771,206.105 213.361,207.515 212.301,208.731 C211.24,209.947 210.451,211.059 209.934,212.068 C209.416,213.077 209.015,214.086 208.731,215.094 C208.446,216.103 208.019,217.875 207.45,220.41 C206.467,225.791 203.389,228.482 198.215,228.482 C195.525,228.482 193.261,227.602 191.424,225.843 C189.588,224.084 188.669,221.471 188.669,218.005 C188.669,213.659 189.342,209.895 190.687,206.713 C192.032,203.531 193.817,200.737 196.042,198.331 C198.267,195.926 201.268,193.067 205.044,189.756 C208.356,186.859 210.748,184.673 212.223,183.198 C213.698,181.724 214.939,180.081 215.948,178.27 C216.957,176.459 217.461,174.493 217.461,172.372 C217.461,168.233 215.922,164.741 212.844,161.895 C209.765,159.05 205.795,157.627 200.931,157.627 C195.24,157.627 191.049,159.063 188.359,161.934 C185.669,164.805 183.392,169.035 181.53,174.623 C179.771,180.469 176.434,183.392 171.518,183.392 C168.621,183.392 166.177,182.37 164.185,180.327 C162.193,178.283 161.197,176.071 161.197,173.691 M199.069,258.748 C195.913,258.748 193.158,257.726 190.804,255.683 C188.45,253.639 187.273,250.78 187.273,247.107 C187.273,243.848 188.411,241.105 190.687,238.881 C192.964,236.656 195.758,235.544 199.069,235.544 C202.328,235.544 205.07,236.656 207.295,238.881 C209.52,241.105 210.632,243.848 210.632,247.107 C210.632,250.729 209.468,253.574 207.14,255.644 C204.812,257.713 202.121,258.748 199.069,258.748 Z" style="stroke:none;fill-rule:nonzero;fill:#cbcbcb;fill-opacity:1;"/>
        </g>
    </g>
</svg>
