<?xml version="1.0"?>
<svg version="1.1" xmlns="http://www.w3.org/2000/svg" xmlns:xlink="http://www.w3.org/1999/xlink" width="100" height="100">
    <desc iVinci="yes" version="4.6" gridStep="20" showGrid="no" snapToGrid="no" codePlatform="0"/>
    <g id="Layer1" name="Layer 1" opacity="1">
        <g id="Shape1">
            <desc shapeID="1" type="0" basicInfo-basicType="0" basicInfo-roundedRectRadius="12" basicInfo-polygonSides="6" basicInfo-starPoints="5" bounding="rect(-16.9385,-14.9356,33.8767,29.8712)" text="" font-familyName="" font-pixelSize="20" font-bold="0" font-underline="0" font-alignment="1" strokeStyle="0" markerStart="0" markerEnd="0" shadowEnabled="0" shadowOffsetX="0" shadowOffsetY="2" shadowBlur="4" shadowOpacity="160" blurEnabled="0" blurRadius="4" transform="matrix(0.662775,0,0,0.662775,80.9034,11.5414)" pers-center="0,0" pers-size="0,0" pers-start="0,0" pers-end="0,0" locked="0" mesh="" flag=""/>
            <path id="shapePath1" d="M71.599,3.56453 C70.3397,4.8238 69.677,6.21563 69.677,7.4749 L69.677,9.46322 L71.9967,7.14351 C74.25,4.89008 74.5153,4.75754 78.1605,5.15519 C80.215,5.35403 82.4686,5.68542 83.1313,5.95052 C83.9266,6.28191 84.258,6.08309 84.258,5.35403 C84.258,3.69709 85.9813,4.09476 87.5055,6.0168 C90.488,9.86089 88.6986,16.6212 83.8603,19.5374 C81.0105,21.3269 81.0105,21.7908 83.7941,21.1943 C87.1741,20.4653 89.5602,18.7421 90.9521,16.091 C94.4647,9.19811 89.5602,-0.147011 83.5952,2.10644 C82.5347,2.50409 81.3419,2.57037 80.8778,2.23898 C80.3477,1.90759 78.4919,1.64249 76.7686,1.64249 C74.1175,1.64249 73.2559,1.97388 71.599,3.56453 Z" style="stroke:none;fill-rule:nonzero;fill:#000000;fill-opacity:1;"/>
        </g>
        <g id="Shape2">
            <desc shapeID="2" type="0" basicInfo-basicType="0" basicInfo-roundedRectRadius="12" basicInfo-polygonSides="6" basicInfo-starPoints="5" bounding="rect(-29.6768,-10.8382,59.3535,21.6764)" text="" font-familyName="" font-pixelSize="20" font-bold="0" font-underline="0" font-alignment="1" strokeStyle="0" markerStart="0" markerEnd="0" shadowEnabled="0" shadowOffsetX="0" shadowOffsetY="2" shadowBlur="4" shadowOpacity="160" blurEnabled="0" blurRadius="4" transform="matrix(0.662775,0,0,0.662775,43.6145,10.9097)" pers-center="0,0" pers-size="0,0" pers-start="0,0" pers-end="0,0" locked="0" mesh="" flag=""/>
            <path id="shapePath2" d="M48.1368,4.09476 C39.4544,5.22147 23.9455,13.7713 23.9455,17.3503 C23.9455,18.6095 24.078,18.5432 29.5791,14.9643 C38.9905,8.80045 49.2635,5.81796 58.6087,6.48073 C63.5131,6.8784 63.9109,6.81212 62.7178,5.95052 C60.0667,3.89592 54.632,3.23314 48.1368,4.09476 Z" style="stroke:none;fill-rule:nonzero;fill:#000000;fill-opacity:1;"/>
        </g>
        <g id="Shape3">
            <desc shapeID="3" type="0" basicInfo-basicType="0" basicInfo-roundedRectRadius="12" basicInfo-polygonSides="6" basicInfo-starPoints="5" bounding="rect(-7.36892,-7.49467,14.7381,14.9893)" text="" font-familyName="" font-pixelSize="20" font-bold="0" font-underline="0" font-alignment="1" strokeStyle="0" markerStart="0" markerEnd="0" shadowEnabled="0" shadowOffsetX="0" shadowOffsetY="2" shadowBlur="4" shadowOpacity="160" blurEnabled="0" blurRadius="4" transform="matrix(0.662775,0,0,0.662775,78.7112,12.5818)" pers-center="0,0" pers-size="0,0" pers-start="0,0" pers-end="0,0" locked="0" mesh="" flag=""/>
            <path id="shapePath3" d="M74.3164,8.6679 C73.5873,9.46322 73.6536,9.86089 74.6478,10.7888 C75.5094,11.6504 75.907,11.7167 76.1058,11.0539 C76.9675,8.6679 80.9441,12.7108 80.9441,16.0247 C80.9441,16.8863 81.2092,17.5491 81.4744,17.5491 C82.4022,17.5491 83.5952,15.9584 83.5952,14.7654 C83.5952,12.9097 81.143,8.46906 79.95,8.00513 C77.9616,7.27607 75.178,7.60746 74.3164,8.6679 Z" style="stroke:none;fill-rule:nonzero;fill:#000000;fill-opacity:1;"/>
        </g>
        <g id="Shape4">
            <desc shapeID="4" type="0" basicInfo-basicType="0" basicInfo-roundedRectRadius="12" basicInfo-polygonSides="6" basicInfo-starPoints="5" bounding="rect(-62.2285,-46.0793,124.457,92.1586)" text="" font-familyName="" font-pixelSize="20" font-bold="0" font-underline="0" font-alignment="1" strokeStyle="0" markerStart="0" markerEnd="0" shadowEnabled="0" shadowOffsetX="0" shadowOffsetY="2" shadowBlur="4" shadowOpacity="160" blurEnabled="0" blurRadius="4" transform="matrix(0.662775,0,0,0.662775,42.6547,39.4398)" pers-center="0,0" pers-size="0,0" pers-start="0,0" pers-end="0,0" locked="0" mesh="" flag=""/>
            <path id="shapePath4" d="M8.03894,11.7167 C2.86927,15.0968 1.41119,17.4165 1.41119,22.0559 C1.41119,24.9059 1.74258,25.9 3.06813,27.1593 C3.92977,28.0872 5.18898,28.8162 5.91809,28.8162 C6.58087,28.8162 8.37033,29.4127 9.89474,30.1418 C12.0156,31.2022 12.6784,31.865 12.6784,33.1243 C12.6784,33.9859 13.0097,34.9138 13.3411,35.1126 C13.7389,35.3114 14.0039,38.2939 14.0039,41.7403 C14.0039,47.3076 14.2028,48.5007 15.9259,52.1459 C16.9864,54.4656 18.3783,57.7132 18.9747,59.4364 C20.2339,63.1479 23.7467,65.6665 31.1035,68.2513 C39.123,71.035 52.4448,70.4385 66.2968,66.5944 L68.6828,65.9316 L66.6945,67.5885 L64.7062,69.2455 L66.6281,68.5827 C72.1292,66.5944 79.4197,60.0992 81.2092,55.4598 C83.1313,50.3564 84.258,41.8729 83.7941,35.3114 C83.4627,30.0092 82.0708,24.1105 81.3419,24.9059 C81.2092,25.0384 81.408,29.0151 81.8058,33.7208 C82.5347,43.4636 81.5406,50.9529 78.6244,56.6528 C76.9011,60.0992 76.1059,60.6294 66.7608,64.3409 C62.3201,66.1304 61.4586,66.263 62.1214,65.1363 C62.4528,64.6061 62.2539,64.5398 61.5248,64.8049 C56.9517,66.5281 39.9846,65.3351 31.8988,62.684 C25.5361,60.5632 23.6805,58.9725 20.3666,52.5436 C17.7155,47.3739 17.3841,46.1809 16.9864,40.6136 C16.7213,37.2335 16.0586,33.5219 15.5283,32.4615 C14.1364,29.7441 11.3528,27.557 9.29815,27.4907 C6.84591,27.4907 4.79141,25.6349 4.32734,22.9838 C3.92977,21.1281 4.06229,20.9292 5.05645,21.2606 C6.05061,21.6583 6.05061,21.5257 5.3215,20.3327 C4.65872,19.206 4.65872,18.7421 5.5867,17.3503 C6.97844,15.1631 10.425,12.6445 13.2086,11.7167 C15.1969,11.0539 15.5283,11.1202 17.7817,13.241 C20.1014,15.4282 21.2944,16.091 21.2944,15.1631 C21.2944,14.898 20.2339,13.3736 18.9084,11.8492 C15.7934,7.93884 13.6725,7.93884 8.03894,11.7167 Z" style="stroke:none;fill-rule:nonzero;fill:#000000;fill-opacity:1;"/>
        </g>
        <g id="Shape5">
            <desc shapeID="5" type="0" basicInfo-basicType="0" basicInfo-roundedRectRadius="12" basicInfo-polygonSides="6" basicInfo-starPoints="5" bounding="rect(-5.98218,-6.33563,11.9644,12.6713)" text="" font-familyName="" font-pixelSize="20" font-bold="0" font-underline="0" font-alignment="1" strokeStyle="0" markerStart="0" markerEnd="0" shadowEnabled="0" shadowOffsetX="0" shadowOffsetY="2" shadowBlur="4" shadowOpacity="160" blurEnabled="0" blurRadius="4" transform="matrix(0.662775,0,0,0.662775,12.6665,19.8261)" pers-center="0,0" pers-size="0,0" pers-start="0,0" pers-end="0,0" locked="0" mesh="" flag=""/>
            <path id="shapePath5" d="M12.347,16.0247 C10.425,16.4886 8.7017,18.2119 8.7017,19.67 C8.7017,21.4594 9.76221,23.2489 11.1539,23.7792 C12.0819,24.1768 12.2144,24.1105 11.5517,23.4478 C11.0878,22.9838 10.69,21.7245 10.69,20.7304 C10.69,19.2723 11.0878,18.8083 12.5458,18.4107 C13.54,18.2119 14.8655,18.013 15.5283,18.0793 C17.0527,18.1456 16.9864,17.0851 15.3958,16.2235 C14.6667,15.8921 14.0039,15.627 13.8714,15.627 C13.7389,15.6933 13.0761,15.8921 12.347,16.0247 Z" style="stroke:none;fill-rule:nonzero;fill:#000000;fill-opacity:1;"/>
        </g>
        <g id="Shape6">
            <desc shapeID="6" type="0" basicInfo-basicType="0" basicInfo-roundedRectRadius="12" basicInfo-polygonSides="6" basicInfo-starPoints="5" bounding="rect(-2.3941,-2.03703,4.78838,4.07405)" text="" font-familyName="" font-pixelSize="20" font-bold="0" font-underline="0" font-alignment="1" strokeStyle="0" markerStart="0" markerEnd="0" shadowEnabled="0" shadowOffsetX="0" shadowOffsetY="2" shadowBlur="4" shadowOpacity="160" blurEnabled="0" blurRadius="4" transform="matrix(0.662775,0,0,0.662775,68.0901,23.4895)" pers-center="0,0" pers-size="0,0" pers-start="0,0" pers-end="0,0" locked="0" mesh="" flag=""/>
            <path id="shapePath6" d="M66.6945,22.8513 C66.098,23.8454 66.9595,24.8396 68.4177,24.8396 C69.213,24.8396 69.677,24.3756 69.677,23.514 C69.677,22.1222 67.4898,21.592 66.6945,22.8513 Z" style="stroke:none;fill-rule:nonzero;fill:#000000;fill-opacity:1;"/>
        </g>
        <g id="Shape7">
            <desc shapeID="7" type="0" basicInfo-basicType="0" basicInfo-roundedRectRadius="12" basicInfo-polygonSides="6" basicInfo-starPoints="5" bounding="rect(-3.08631,-2.5,6.17253,5)" text="" font-familyName="" font-pixelSize="20" font-bold="0" font-underline="0" font-alignment="1" strokeStyle="0" markerStart="0" markerEnd="0" shadowEnabled="0" shadowOffsetX="0" shadowOffsetY="2" shadowBlur="4" shadowOpacity="160" blurEnabled="0" blurRadius="4" transform="matrix(0.662775,0,0,0.662775,32.1414,35.7754)" pers-center="0,0" pers-size="0,0" pers-start="0,0" pers-end="0,0" locked="0" mesh="" flag=""/>
            <path id="shapePath7" d="M30.3082,34.7149 C29.6454,35.7091 30.6396,37.4323 31.8325,37.4323 C32.4952,37.4323 33.3569,36.7033 33.7546,35.7754 C34.4836,34.1847 34.4174,34.1184 32.5616,34.1184 C31.5011,34.1184 30.5069,34.3835 30.3082,34.7149 Z" style="stroke:none;fill-rule:nonzero;fill:#000000;fill-opacity:1;"/>
        </g>
        <g id="Shape8">
            <desc shapeID="8" type="0" basicInfo-basicType="0" basicInfo-roundedRectRadius="12" basicInfo-polygonSides="6" basicInfo-starPoints="5" bounding="rect(-13.8105,-10.9509,27.6208,21.9019)" text="" font-familyName="" font-pixelSize="20" font-bold="0" font-underline="0" font-alignment="1" strokeStyle="0" markerStart="0" markerEnd="0" shadowEnabled="0" shadowOffsetX="0" shadowOffsetY="2" shadowBlur="4" shadowOpacity="160" blurEnabled="0" blurRadius="4" transform="matrix(0.662775,0,0,0.662775,53.2333,51.3831)" pers-center="0,0" pers-size="0,0" pers-start="0,0" pers-end="0,0" locked="0" mesh="" flag=""/>
            <path id="shapePath8" d="M55.0959,45.3193 C49.6612,46.446 44.8893,48.6995 44.2265,50.5552 C43.6299,51.8808 44.9554,54.5319 46.4135,54.9958 C47.209,55.1947 47.8054,55.6586 47.8054,55.99 C47.8054,57.1167 51.7157,58.6411 54.632,58.6411 C56.7529,58.6411 57.8795,58.2434 58.8737,57.1167 C60.9946,54.8633 62.3864,51.682 62.3864,49.2297 C62.3864,46.6449 61.7237,44.0601 61.1272,44.1263 C60.9284,44.1926 58.2109,44.7228 55.0959,45.3193 M61.7237,48.6995 C61.7237,50.489 59.6028,54.5319 57.8795,55.7912 C57.2831,56.2551 55.9576,56.6528 54.9634,56.6528 C52.8426,56.6528 49.131,54.9958 49.131,54.0017 C49.131,53.6703 48.5345,53.2063 47.8054,53.0075 C44.4252,51.9471 47.5404,49.6936 55.7587,47.1751 C61.0609,45.5182 61.7237,45.717 61.7237,48.6995 Z" style="stroke:none;fill-rule:nonzero;fill:#000000;fill-opacity:1;"/>
        </g>
        <g id="Shape9">
            <desc shapeID="9" type="0" basicInfo-basicType="0" basicInfo-roundedRectRadius="12" basicInfo-polygonSides="6" basicInfo-starPoints="5" bounding="rect(-14.739,-20.9002,29.478,41.8005)" text="" font-familyName="" font-pixelSize="20" font-bold="0" font-underline="0" font-alignment="1" strokeStyle="0" markerStart="0" markerEnd="0" shadowEnabled="0" shadowOffsetX="0" shadowOffsetY="2" shadowBlur="4" shadowOpacity="160" blurEnabled="0" blurRadius="4" transform="matrix(0.662775,0,0,0.662775,69.562,83.8322)" pers-center="0,0" pers-size="0,0" pers-start="0,0" pers-end="0,0" locked="0" mesh="" flag=""/>
            <path id="shapePath9" d="M60.2209,71.0634 C59.4918,73.0517 59.7568,97.0442 60.5523,97.5744 C61.4801,98.1046 62.4742,96.6465 62.4742,94.7244 C62.4742,93.664 62.7393,93.3326 63.4684,93.5977 C64.0648,93.8628 65.2579,93.1338 66.4509,91.8745 C67.7764,90.4827 68.4392,90.085 68.4392,90.7478 C68.4392,92.2059 71.024,93.8628 73.2775,93.8628 C75.7297,93.8628 79.0436,92.0733 79.0436,90.7478 C79.0436,89.8862 78.5134,89.7536 75.7961,90.1513 C72.3495,90.6152 70.6264,89.6874 71.7531,87.8979 C72.217,87.1025 72.5484,87.1688 73.6751,88.163 C75.4647,89.7536 78.3808,89.356 79.1099,87.3677 C79.5739,86.0421 79.375,85.4456 77.8506,84.0538 C76.7902,83.0596 75.7961,81.7341 75.5309,81.0713 C74.9344,79.4806 72.8798,79.8783 72.4159,81.6678 C72.217,82.3969 71.6206,83.4573 71.0903,84.0538 C70.1625,84.9817 70.0298,84.9154 69.367,82.9933 C68.5056,80.4085 66.8486,80.0771 64.3962,81.8666 L62.4742,83.3247 L62.4742,78.7516 C62.4742,71.6599 61.4137,68.0146 60.2209,71.0634 M66.9148,85.2468 C66.5834,87.8979 64.2637,91.8745 63.0045,91.8745 C61.7451,91.8745 62.872,85.9758 64.5289,84.1864 C66.6497,81.9329 67.3125,82.198 66.9148,85.2468 Z" style="stroke:none;fill-rule:nonzero;fill:#000000;fill-opacity:1;"/>
        </g>
        <g id="Shape10">
            <desc shapeID="10" type="0" basicInfo-basicType="0" basicInfo-roundedRectRadius="12" basicInfo-polygonSides="6" basicInfo-starPoints="5" bounding="rect(-13.2556,-17.3431,26.5112,34.6862)" text="" font-familyName="" font-pixelSize="20" font-bold="0" font-underline="0" font-alignment="1" strokeStyle="0" markerStart="0" markerEnd="0" shadowEnabled="0" shadowOffsetX="0" shadowOffsetY="2" shadowBlur="4" shadowOpacity="160" blurEnabled="0" blurRadius="4" transform="matrix(0.662775,0,0,0.662775,32.0935,86.3419)" pers-center="0,0" pers-size="0,0" pers-start="0,0" pers-end="0,0" locked="0" mesh="" flag=""/>
            <path id="shapePath10" d="M38.585,77.2543 C38.2536,78.6461 37.2594,82.8216 36.464,86.5331 C34.9397,93.2271 34.9397,93.2934 34.0781,91.3051 C33.6142,90.1784 33.2164,88.5214 33.2164,87.7261 C33.2164,85.3401 32.4873,84.0808 31.1618,84.0808 C30.1676,84.0808 29.9026,84.5448 29.9026,86.4006 C29.9026,89.1842 28.1793,92.8957 27.0526,92.4981 C26.5887,92.3655 26.0584,90.7749 25.8596,88.9854 L25.5282,85.7378 L24.4015,88.1901 C23.0759,91.1062 22.9434,94.0887 24.0701,95.2155 C25.2631,96.4084 27.5165,96.1433 29.1734,94.619 C30.3003,93.5585 30.8304,93.4259 31.5595,94.0225 C32.0897,94.4864 33.1501,94.6852 33.8129,94.4864 C34.7408,94.2876 35.2048,94.619 35.4698,95.6794 C35.8675,97.2038 37.5245,98.2642 38.4523,97.6677 C39.3139,97.1375 41.3686,77.4531 40.772,75.7962 C40.1092,74.1392 39.2477,74.6694 38.585,77.2543 Z" style="stroke:none;fill-rule:nonzero;fill:#000000;fill-opacity:1;"/>
        </g>
        <g id="Shape11">
            <desc shapeID="11" type="0" basicInfo-basicType="0" basicInfo-roundedRectRadius="12" basicInfo-polygonSides="6" basicInfo-starPoints="5" bounding="rect(-8.98264,-16.9665,17.9652,33.9331)" text="" font-familyName="" font-pixelSize="20" font-bold="0" font-underline="0" font-alignment="1" strokeStyle="0" markerStart="0" markerEnd="0" shadowEnabled="0" shadowOffsetX="0" shadowOffsetY="2" shadowBlur="4" shadowOpacity="160" blurEnabled="0" blurRadius="4" transform="matrix(0.662775,0,0,0.662775,14.6552,88.755)" pers-center="0,0" pers-size="0,0" pers-start="0,0" pers-end="0,0" locked="0" mesh="" flag=""/>
            <path id="shapePath11" d="M9.15768,77.917 C8.56125,78.4473 8.56125,97.5352 9.0915,98.927 C9.75428,100.65 11.9413,100.186 12.339,98.3305 C12.5379,97.4026 12.8693,95.8782 13.0681,94.8178 C13.5321,92.6969 15.8518,88.7203 16.6471,88.7203 C16.9785,88.7203 17.7076,90.3772 18.304,92.3655 C18.8343,94.3538 19.6296,96.0108 19.9609,96.0108 C20.9551,96.0108 20.7562,89.6482 19.6959,87.0633 C18.5029,84.2134 16.0506,83.882 14.1285,86.4006 C12.4716,88.4551 12.0076,87.9249 12.0076,84.0146 C12.0076,79.3089 10.6158,76.3927 9.15768,77.917 Z" style="stroke:none;fill-rule:nonzero;fill:#000000;fill-opacity:1;"/>
        </g>
        <g id="Shape12">
            <desc shapeID="12" type="0" basicInfo-basicType="0" basicInfo-roundedRectRadius="12" basicInfo-polygonSides="6" basicInfo-starPoints="5" bounding="rect(-14.0703,-9.44006,28.1405,18.8801)" text="" font-familyName="" font-pixelSize="20" font-bold="0" font-underline="0" font-alignment="1" strokeStyle="0" markerStart="0" markerEnd="0" shadowEnabled="0" shadowOffsetX="0" shadowOffsetY="2" shadowBlur="4" shadowOpacity="160" blurEnabled="0" blurRadius="4" transform="matrix(0.662775,0,0,0.662775,89.1519,85.5384)" pers-center="0,0" pers-size="0,0" pers-start="0,0" pers-end="0,0" locked="0" mesh="" flag=""/>
            <path id="shapePath12" d="M90.3108,82.2643 C90.3108,84.7166 90.1119,85.2468 89.1178,85.2468 C87.5272,85.2468 85.2736,82.9271 86.2678,82.2643 C87.3283,81.6678 87.1958,80.6074 86.0691,80.6074 C84.8097,80.6074 80.5017,85.5119 79.9714,87.5665 C79.4413,89.6874 80.3692,90.6815 82.6889,90.6815 C84.2795,90.6815 85.2074,90.0188 85.8039,88.4281 C86.2016,87.3677 88.9189,88.8258 89.2503,90.2838 C89.7805,92.4047 91.3713,92.2722 93.5583,90.0188 C94.6188,89.0246 96.2094,87.6991 97.2036,86.97 C99.4571,85.4456 98.6618,84.3189 95.2816,84.4514 C93.2269,84.5177 92.9619,84.3189 92.9619,82.9933 C92.9619,80.6736 92.2991,79.2818 91.2386,79.2818 C90.5758,79.2818 90.3108,80.1434 90.3108,82.2643 Z" style="stroke:none;fill-rule:nonzero;fill:#000000;fill-opacity:1;"/>
        </g>
        <g id="Shape13">
            <desc shapeID="13" type="0" basicInfo-basicType="0" basicInfo-roundedRectRadius="12" basicInfo-polygonSides="6" basicInfo-starPoints="5" bounding="rect(-12.7184,-8.42776,25.4366,16.8555)" text="" font-familyName="" font-pixelSize="20" font-bold="0" font-underline="0" font-alignment="1" strokeStyle="0" markerStart="0" markerEnd="0" shadowEnabled="0" shadowOffsetX="0" shadowOffsetY="2" shadowBlur="4" shadowOpacity="160" blurEnabled="0" blurRadius="4" transform="matrix(0.662775,0,0,0.662775,50.3699,89.0519)" pers-center="0,0" pers-size="0,0" pers-start="0,0" pers-end="0,0" locked="0" mesh="" flag=""/>
            <path id="shapePath13" d="M43.8208,85.7378 C42.0314,88.654 41.3686,92.3655 42.4953,93.6911 C43.7545,95.1492 46.6708,94.8841 48.3277,93.1609 C49.123,92.2993 49.7858,91.2388 49.7858,90.8412 C49.7858,90.311 50.5149,90.576 51.6416,91.3714 C52.9672,92.3655 54.2927,92.6969 56.0822,92.5644 C59.3297,92.2993 59.7274,91.1063 56.9438,90.0458 C55.7508,89.5156 53.3647,88.1238 51.6416,86.9308 C49.9183,85.6715 48.1952,84.8099 47.8638,85.0088 C47.5324,85.2076 47.1347,84.9425 46.8697,84.4122 C46.2731,82.8216 45.3452,83.2193 43.8208,85.7378 M48.4603,89.0517 C48.4603,89.4493 47.8638,90.3772 47.1347,91.04 C45.8092,92.233 45.8092,92.1667 45.8092,90.5098 C45.8092,87.7261 46.4719,86.5994 47.5324,87.461 C48.0625,87.8587 48.4603,88.5877 48.4603,89.0517 Z" style="stroke:none;fill-rule:nonzero;fill:#000000;fill-opacity:1;"/>
        </g>
    </g>
</svg>
