<?xml version="1.0"?>
<svg version="1.1" xmlns="http://www.w3.org/2000/svg" xmlns:xlink="http://www.w3.org/1999/xlink" width="40" height="20">
    <desc iVinci="yes" version="4.6" gridStep="20" showGrid="no" snapToGrid="no" codePlatform="0"/>
    <g id="Layer1" name="Layer 1" opacity="1">
        <g id="Shape1">
            <desc shapeID="1" type="0" basicInfo-basicType="2" basicInfo-roundedRectRadius="8" basicInfo-polygonSides="6" basicInfo-starPoints="5" bounding="rect(-39.6531,-19.0976,79.3063,38.1953)" text="" font-familyName="Helvetica" font-pixelSize="20" font-bold="0" font-underline="0" font-alignment="1" strokeStyle="0" markerStart="0" markerEnd="0" shadowEnabled="0" shadowOffsetX="0" shadowOffsetY="2" shadowBlur="4" shadowOpacity="160" blurEnabled="0" blurRadius="4" transform="matrix(0.492171,0,0,0.492171,19.9721,9.96016)" pers-center="0,0" pers-size="0,0" pers-start="0,0" pers-end="0,0" locked="0" mesh="" flag=""/>
            <path id="shapePath1" d="M0.45599,4.49821 C0.45599,2.32366 2.21881,0.560844 4.39336,0.560844 L35.5509,0.560844 C37.7254,0.560844 39.4882,2.32366 39.4882,4.49821 L39.4882,15.4221 C39.4882,17.5966 37.7254,19.3595 35.5509,19.3595 L4.39336,19.3595 C2.21881,19.3595 0.45599,17.5966 0.45599,15.4221 L0.45599,4.49821 Z" style="stroke:none;fill-rule:evenodd;fill:url(#linearGradientFill1);fill-opacity:1;"/><defs><linearGradient id="linearGradientFill1" gradientUnits="userSpaceOnUse" x1="18.9617" y1="19.3595" x2="19.506" y2="0.560844"><stop offset="0" stop-color="#eb8abd" stop-opacity="1"/><stop offset="1" stop-color="#bc6e97" stop-opacity="1"/></linearGradient></defs>
        </g>
        <g id="Shape2">
            <desc shapeID="2" type="0" basicInfo-basicType="0" basicInfo-roundedRectRadius="12" basicInfo-polygonSides="6" basicInfo-starPoints="5" bounding="rect(-8.52539,-7.40234,17.0508,14.8047)" text="IP" font-familyName="Arial Rounded MT Bold" font-pixelSize="20" font-bold="0" font-underline="0" font-alignment="1" strokeStyle="0" markerStart="0" markerEnd="0" shadowEnabled="0" shadowOffsetX="0" shadowOffsetY="2" shadowBlur="4" shadowOpacity="160" blurEnabled="0" blurRadius="4" transform="matrix(0.804446,0,0,0.804446,21.7221,10)" pers-center="0,0" pers-size="0,0" pers-start="0,0" pers-end="0,0" locked="0" mesh="" flag=""/>
            <path id="shapePath2" d="M14.8639,14.5329 L14.8639,5.45928 C14.8639,4.98792 14.9713,4.63441 15.186,4.39873 C15.4007,4.16305 15.6783,4.04521 16.0187,4.04521 C16.3696,4.04521 16.6537,4.16174 16.8711,4.3948 C17.0884,4.62786 17.1971,4.98268 17.1971,5.45928 L17.1971,14.5329 C17.1971,15.0095 17.0884,15.3656 16.8711,15.6013 C16.6537,15.837 16.3696,15.9548 16.0187,15.9548 C15.6835,15.9548 15.4073,15.8356 15.1899,15.5973 C14.9726,15.359 14.8639,15.0042 14.8639,14.5329 M24.2674,11.2727 L22.1306,11.2727 L22.1306,14.5329 C22.1306,14.999 22.0206,15.3525 21.8007,15.5934 C21.5807,15.8343 21.3031,15.9548 20.968,15.9548 C20.6171,15.9548 20.3342,15.8356 20.1195,15.5973 C19.9048,15.359 19.7974,15.0095 19.7974,14.5486 L19.7974,5.67139 C19.7974,5.15813 19.9153,4.79152 20.1509,4.57156 C20.3866,4.35159 20.7611,4.24161 21.2743,4.24161 L24.2674,4.24161 C25.1525,4.24161 25.8334,4.30969 26.31,4.44586 C26.7813,4.5768 27.1885,4.79414 27.5316,5.0979 C27.8746,5.40167 28.1352,5.77351 28.3132,6.21345 C28.4913,6.65338 28.5803,7.1483 28.5803,7.69822 C28.5803,8.87137 28.219,9.76039 27.4962,10.3653 C26.7735,10.9702 25.6972,11.2727 24.2674,11.2727 M23.7018,5.99348 L22.1306,5.99348 L22.1306,9.51293 L23.7018,9.51293 C24.2517,9.51293 24.7113,9.45532 25.0805,9.3401 C25.4498,9.22488 25.7313,9.03634 25.925,8.77448 C26.1188,8.51261 26.2157,8.16957 26.2157,7.74535 C26.2157,7.23733 26.0664,6.82359 25.7679,6.50412 C25.4327,6.16369 24.744,5.99348 23.7018,5.99348 Z" style="stroke:none;fill-rule:nonzero;fill:#ffffff;fill-opacity:1;"/>
        </g>
    </g>
</svg>
