<?xml version="1.0"?>
<svg version="1.1" xmlns="http://www.w3.org/2000/svg" xmlns:xlink="http://www.w3.org/1999/xlink" width="100" height="100">
    <desc iVinci="yes" version="4.6" gridStep="20" showGrid="no" snapToGrid="no" codePlatform="0"/>
    <g id="Layer1" name="Layer 1" opacity="1">
        <g id="Shape1">
            <desc shapeID="1" type="0" basicInfo-basicType="0" basicInfo-roundedRectRadius="12" basicInfo-polygonSides="6" basicInfo-starPoints="5" bounding="rect(-16.3948,-19.9747,32.7897,39.9493)" text="" font-familyName="" font-pixelSize="20" font-bold="0" font-underline="0" font-alignment="1" strokeStyle="0" markerStart="0" markerEnd="0" shadowEnabled="0" shadowOffsetX="0" shadowOffsetY="2" shadowBlur="4" shadowOpacity="160" blurEnabled="0" blurRadius="4" transform="matrix(0.642288,0,0,0.642288,64.5335,15.1761)" pers-center="0,0" pers-size="0,0" pers-start="0,0" pers-end="0,0" locked="0" mesh="" flag=""/>
            <path id="shapePath1" d="M60.0362,3.72707 C56.5036,6.48891 55.3475,12.9118 57.7882,15.9948 L59.0728,17.6005 L56.889,19.7843 C54.5126,22.1607 53.4849,24.7299 54.2556,26.5283 C54.7052,27.556 54.7695,27.556 55.1548,26.2714 C55.6686,24.2803 60.2289,19.0135 61.3208,19.0135 C62.7338,19.0135 62.4769,19.5916 60.6785,21.0689 C57.9166,23.2526 56.0541,28.0056 57.9809,28.0056 C58.3663,28.0056 59.5867,26.3999 60.6785,24.473 C62.3484,21.3258 62.6696,21.0689 63.5688,21.9038 C65.881,23.9592 71.9828,22.6104 74.1023,19.5274 C75.6439,17.3436 75.3227,15.2883 73.2031,13.1045 C72.1755,12.0768 71.2763,10.6638 71.2763,9.95727 C71.2763,7.77349 70.0559,6.16777 68.386,6.16777 C67.4225,6.16777 66.5233,5.58972 66.0737,4.69051 C64.5965,1.92866 62.7338,1.60752 60.0362,3.72707 M64.468,6.55315 C64.6607,7.06697 64.5965,8.0304 64.2753,8.67269 C63.9542,9.25076 63.8899,10.15 64.2111,10.5996 C64.8534,11.6915 66.7803,11.0492 66.7803,9.76459 C66.7803,8.48001 68.5144,7.96618 68.964,9.1223 C69.6063,10.8565 69.3494,12.4622 68.386,12.8476 C67.2941,13.2329 67.0372,15.8021 68.0648,15.8021 C68.4502,15.8021 69.2852,15.4167 69.9917,15.0314 C71.5332,14.0679 72.9462,15.0956 72.3681,16.7013 C71.469,18.9493 66.6518,19.6558 64.6607,17.8574 C63.6972,17.0224 63.3119,16.9582 63.1192,17.6005 C62.9265,18.1143 62.22,17.6647 61.1924,16.3159 C59.9078,14.646 59.6509,13.6825 59.9078,11.4988 C60.3574,7.00275 63.3761,3.72707 64.468,6.55315 Z" style="stroke:none;fill-rule:nonzero;fill:#000000;fill-opacity:1;"/>
        </g>
        <g id="Shape2">
            <desc shapeID="2" type="0" basicInfo-basicType="0" basicInfo-roundedRectRadius="12" basicInfo-polygonSides="6" basicInfo-starPoints="5" bounding="rect(-14.2871,-19.8708,28.5743,39.7417)" text="" font-familyName="" font-pixelSize="20" font-bold="0" font-underline="0" font-alignment="1" strokeStyle="0" markerStart="0" markerEnd="0" shadowEnabled="0" shadowOffsetX="0" shadowOffsetY="2" shadowBlur="4" shadowOpacity="160" blurEnabled="0" blurRadius="4" transform="matrix(0.642288,0,0,0.642288,21.5316,16.4633)" pers-center="0,0" pers-size="0,0" pers-start="0,0" pers-end="0,0" locked="0" mesh="" flag=""/>
            <path id="shapePath2" d="M22.1412,4.36936 C21.4347,4.69051 19.829,6.232 18.6086,7.70926 C17.3883,9.18652 15.5256,10.9849 14.4337,11.6915 C10.6442,14.1321 12.2499,18.4997 17.5168,20.2981 C18.6728,20.6193 20.0216,21.7754 20.6639,22.803 C22.5266,26.0787 29.3991,30.3178 30.6837,28.969 C30.9405,28.7121 29.1422,26.721 26.7014,24.5372 C23.49,21.6469 22.3339,20.1697 22.6551,19.4631 C22.9762,18.6282 22.7193,18.3713 21.5631,18.3713 C20.6639,18.3713 19.8932,18.6282 19.7648,18.9493 C19.3793,19.977 14.7549,16.5086 14.7549,15.1598 C14.7549,13.4899 15.7183,13.0403 17.2598,14.0037 C18.2233,14.5818 18.737,14.5818 19.5078,13.9395 C20.8566,12.8476 20.7924,11.4988 19.5078,10.7922 C18.6728,10.3426 18.6086,10.0857 19.2509,9.70036 C19.7648,9.37921 20.2786,9.63612 20.6639,10.2784 C20.9851,10.8565 21.8201,11.3061 22.4624,11.3061 C24.1323,11.3061 24.1965,8.41578 22.6551,7.51658 C21.6273,7.00275 21.6916,6.81006 23.3616,6.16777 C25.9949,5.20434 26.9584,5.78239 26.9584,8.35155 C26.9584,9.95727 26.3803,11.2418 25.0315,12.7833 C22.7835,15.4167 22.6551,15.8021 24.325,15.8021 C25.9949,15.8021 28.821,12.0126 29.2706,9.25076 C29.9771,5.07588 25.9949,2.37827 22.1412,4.36936 Z" style="stroke:none;fill-rule:nonzero;fill:#000000;fill-opacity:1;"/>
        </g>
        <g id="Shape3">
            <desc shapeID="3" type="0" basicInfo-basicType="0" basicInfo-roundedRectRadius="12" basicInfo-polygonSides="6" basicInfo-starPoints="5" bounding="rect(-3.24788,-5.48045,6.49564,10.9609)" text="" font-familyName="" font-pixelSize="20" font-bold="0" font-underline="0" font-alignment="1" strokeStyle="0" markerStart="0" markerEnd="0" shadowEnabled="0" shadowOffsetX="0" shadowOffsetY="2" shadowBlur="4" shadowOpacity="160" blurEnabled="0" blurRadius="4" transform="matrix(0.642288,0,0,0.642288,29.7883,20.6067)" pers-center="0,0" pers-size="0,0" pers-start="0,0" pers-end="0,0" locked="0" mesh="" flag=""/>
            <path id="shapePath3" d="M27.7934,18.1143 C27.0868,19.977 30.6837,25.1153 31.8397,23.9592 C32.2251,23.5738 29.2706,17.0867 28.7568,17.0867 C28.4357,17.0867 28.0502,17.5363 27.7934,18.1143 Z" style="stroke:none;fill-rule:nonzero;fill:#000000;fill-opacity:1;"/>
        </g>
        <g id="Shape4">
            <desc shapeID="4" type="0" basicInfo-basicType="0" basicInfo-roundedRectRadius="12" basicInfo-polygonSides="6" basicInfo-starPoints="5" bounding="rect(-12.562,-2.57758,25.1238,5.15517)" text="" font-familyName="" font-pixelSize="20" font-bold="0" font-underline="0" font-alignment="1" strokeStyle="0" markerStart="0" markerEnd="0" shadowEnabled="0" shadowOffsetX="0" shadowOffsetY="2" shadowBlur="4" shadowOpacity="160" blurEnabled="0" blurRadius="4" transform="matrix(0.642288,0,0,0.642288,43.9565,24.7361)" pers-center="0,0" pers-size="0,0" pers-start="0,0" pers-end="0,0" locked="0" mesh="" flag=""/>
            <path id="shapePath4" d="M40.2537,23.7665 C37.235,24.6014 35.3723,25.7576 36.0146,26.3356 C36.2073,26.5283 37.8773,26.2072 39.7399,25.6291 C41.9237,24.9868 44.814,24.7299 47.897,24.9226 C52.0076,25.1153 52.5215,25.051 51.6865,24.2161 C50.4019,22.9315 44.0432,22.6746 40.2537,23.7665 Z" style="stroke:none;fill-rule:nonzero;fill:#000000;fill-opacity:1;"/>
        </g>
        <g id="Shape5">
            <desc shapeID="5" type="0" basicInfo-basicType="0" basicInfo-roundedRectRadius="12" basicInfo-polygonSides="6" basicInfo-starPoints="5" bounding="rect(-10.6362,-5.32122,21.2723,10.6424)" text="" font-familyName="" font-pixelSize="20" font-bold="0" font-underline="0" font-alignment="1" strokeStyle="0" markerStart="0" markerEnd="0" shadowEnabled="0" shadowOffsetX="0" shadowOffsetY="2" shadowBlur="4" shadowOpacity="160" blurEnabled="0" blurRadius="4" transform="matrix(0.642288,0,0,0.642288,74.8332,28.4415)" pers-center="0,0" pers-size="0,0" pers-start="0,0" pers-end="0,0" locked="0" mesh="" flag=""/>
            <path id="shapePath5" d="M71.1478,25.7576 C66.4591,27.2991 66.973,27.8129 72.9462,27.4917 C75.9007,27.2991 78.3414,27.3633 78.3414,27.6202 C78.3414,27.8129 77.378,28.391 76.2861,28.8406 C75.13,29.3544 73.7812,30.1894 73.2673,30.7674 C72.4966,31.7308 72.6251,31.8593 74.2308,31.8593 C75.2584,31.8593 77.3138,31.2812 78.8553,30.5747 C85.6635,27.4917 78.9195,23.3169 71.1478,25.7576 Z" style="stroke:none;fill-rule:nonzero;fill:#000000;fill-opacity:1;"/>
        </g>
        <g id="Shape6">
            <desc shapeID="6" type="0" basicInfo-basicType="0" basicInfo-roundedRectRadius="12" basicInfo-polygonSides="6" basicInfo-starPoints="5" bounding="rect(-5.47757,-17.5723,10.9551,35.1446)" text="" font-familyName="" font-pixelSize="20" font-bold="0" font-underline="0" font-alignment="1" strokeStyle="0" markerStart="0" markerEnd="0" shadowEnabled="0" shadowOffsetX="0" shadowOffsetY="2" shadowBlur="4" shadowOpacity="160" blurEnabled="0" blurRadius="4" transform="matrix(0.642288,0,0,0.642288,66.024,39.3276)" pers-center="0,0" pers-size="0,0" pers-start="0,0" pers-end="0,0" locked="0" mesh="" flag=""/>
            <path id="shapePath6" d="M62.6054,28.7121 C62.3484,29.0332 62.6054,29.8682 63.1834,30.4463 C64.5965,32.052 66.138,39.1172 66.138,44.127 C66.138,48.045 66.2664,48.4946 67.8079,49.5222 L69.5421,50.6141 L69.221,42.714 C68.8998,34.2358 67.9364,30.7674 65.2387,28.969 C63.6972,27.8129 63.1192,27.7487 62.6054,28.7121 Z" style="stroke:none;fill-rule:nonzero;fill:#000000;fill-opacity:1;"/>
        </g>
        <g id="Shape7">
            <desc shapeID="7" type="0" basicInfo-basicType="0" basicInfo-roundedRectRadius="12" basicInfo-polygonSides="6" basicInfo-starPoints="5" bounding="rect(-43.9063,-37.4326,87.8126,74.8652)" text="" font-familyName="" font-pixelSize="20" font-bold="0" font-underline="0" font-alignment="1" strokeStyle="0" markerStart="0" markerEnd="0" shadowEnabled="0" shadowOffsetX="0" shadowOffsetY="2" shadowBlur="4" shadowOpacity="160" blurEnabled="0" blurRadius="4" transform="matrix(0.642288,0,0,0.642288,41.7697,55.9884)" pers-center="0,0" pers-size="0,0" pers-start="0,0" pers-end="0,0" locked="0" mesh="" flag=""/>
            <path id="shapePath7" d="M17.9663,32.6301 C14.7549,33.5293 13.3419,34.9423 13.5987,37.2545 C13.8557,40.0806 16.489,41.6863 20.8566,41.7505 L24.3892,41.8148 L24.3892,46.6319 C24.3892,51.0637 24.2608,51.5133 22.4624,53.376 C20.9851,54.8532 20.3428,56.3947 19.829,59.3493 C19.1867,62.9461 19.2509,63.5241 20.7282,66.7356 C24.5819,75.1495 33.8308,80.0309 45.9701,80.0309 C53.7418,80.0309 58.4947,78.361 63.3761,73.9292 C66.3949,71.2316 67.6795,69.4974 68.6429,66.7998 C70.1201,63.0103 70.3771,57.9362 69.3494,54.2109 C68.5787,51.4491 65.1103,48.2377 62.22,47.5954 C60.9997,47.3385 60.4858,46.9531 60.9354,46.6319 C61.385,46.375 59.3297,45.9897 56.3752,45.797 C43.7863,44.7693 36.7211,45.7327 30.3625,49.1369 C28.5641,50.1645 26.8299,50.8068 26.6372,50.6141 C25.6738,49.6507 26.5088,43.1636 28.1787,38.0895 C29.2706,35.0065 29.8487,32.5016 29.5917,32.5016 C29.2706,32.5016 28.2429,34.1073 27.2153,36.0342 C25.5454,39.1172 25.0957,39.5668 23.4258,39.5025 C20.9208,39.5025 17.1956,38.1537 16.8745,37.2545 C16.5533,36.3553 20.4071,34.7496 24.325,34.1073 C26.9584,33.6577 27.0868,33.5293 25.9949,32.7585 C24.6461,31.7309 21.242,31.6666 17.9663,32.6301 M60.3574,50.4214 C66.0737,52.6694 66.3307,52.9906 66.3307,58.0004 C66.2664,64.3591 64.5965,67.699 59.5224,71.2958 C51.4295,77.0764 42.2449,77.526 32.2251,72.5804 C26.2519,69.6259 23.7469,66.2217 23.7469,61.0192 C23.7469,56.2663 24.5819,54.8532 29.0137,52.4768 C35.1154,49.0726 37.7488,48.5588 47.8327,48.8157 C55.2833,48.9442 57.4029,49.2011 60.3574,50.4214 Z" style="stroke:none;fill-rule:nonzero;fill:#000000;fill-opacity:1;"/>
        </g>
        <g id="Shape8">
            <desc shapeID="8" type="0" basicInfo-basicType="0" basicInfo-roundedRectRadius="12" basicInfo-polygonSides="6" basicInfo-starPoints="5" bounding="rect(-12.7416,-8.8719,25.4833,17.7438)" text="" font-familyName="" font-pixelSize="20" font-bold="0" font-underline="0" font-alignment="1" strokeStyle="0" markerStart="0" markerEnd="0" shadowEnabled="0" shadowOffsetX="0" shadowOffsetY="2" shadowBlur="4" shadowOpacity="160" blurEnabled="0" blurRadius="4" transform="matrix(0.642288,0,0,0.642288,46.8093,54.913)" pers-center="0,0" pers-size="0,0" pers-start="0,0" pers-end="0,0" locked="0" mesh="" flag=""/>
            <path id="shapePath8" d="M42.0521,50.3572 C38.2626,51.6418 37.8131,52.9264 39.7399,56.7801 C41.1529,59.6062 42.0521,60.12 46.0986,60.5696 C49.3742,60.8907 52.3288,59.3493 54.1272,56.2663 C55.1548,54.5963 55.2191,53.954 54.5768,52.4768 C53.228,49.1369 48.1539,48.2377 42.0521,50.3572 M50.98,52.7979 C52.4572,53.376 52.2645,54.5321 50.4661,56.202 C48.6035,57.9362 43.9148,57.9362 42.7586,56.1378 C41.6668,54.3394 43.144,53.5044 49.5669,52.4768 C49.7596,52.4125 50.4019,52.6052 50.98,52.7979 Z" style="stroke:none;fill-rule:nonzero;fill:#000000;fill-opacity:1;"/>
        </g>
        <g id="Shape9">
            <desc shapeID="9" type="0" basicInfo-basicType="0" basicInfo-roundedRectRadius="12" basicInfo-polygonSides="6" basicInfo-starPoints="5" bounding="rect(-8.12726,-3.58182,16.2546,7.16364)" text="" font-familyName="" font-pixelSize="20" font-bold="0" font-underline="0" font-alignment="1" strokeStyle="0" markerStart="0" markerEnd="0" shadowEnabled="0" shadowOffsetX="0" shadowOffsetY="2" shadowBlur="4" shadowOpacity="160" blurEnabled="0" blurRadius="4" transform="matrix(0.642288,0,0,0.642288,47.7233,70.2007)" pers-center="0,0" pers-size="0,0" pers-start="0,0" pers-end="0,0" locked="0" mesh="" flag=""/>
            <path id="shapePath9" d="M50.4019,68.7267 C49.3742,69.2405 47.1262,69.8186 45.4563,70.0755 C41.7952,70.5251 41.5383,71.36 44.6855,72.2592 C47.64,73.0942 51.4938,71.6812 52.5215,69.3689 C53.3564,67.5705 53.0995,67.5063 50.4019,68.7267 Z" style="stroke:none;fill-rule:nonzero;fill:#000000;fill-opacity:1;"/>
        </g>
        <g id="Shape10">
            <desc shapeID="10" type="0" basicInfo-basicType="0" basicInfo-roundedRectRadius="12" basicInfo-polygonSides="6" basicInfo-starPoints="5" bounding="rect(-2.91161,-2,5.82323,4)" text="" font-familyName="" font-pixelSize="20" font-bold="0" font-underline="0" font-alignment="1" strokeStyle="0" markerStart="0" markerEnd="0" shadowEnabled="0" shadowOffsetX="0" shadowOffsetY="2" shadowBlur="4" shadowOpacity="160" blurEnabled="0" blurRadius="4" transform="matrix(0.642288,0,0,0.642288,53.349,38.2822)" pers-center="0,0" pers-size="0,0" pers-start="0,0" pers-end="0,0" locked="0" mesh="" flag=""/>
            <path id="shapePath10" d="M51.6865,37.6399 C51.0442,38.6676 51.9434,39.5668 53.6776,39.5668 C54.7695,39.5668 55.2191,39.2456 55.2191,38.2822 C55.2191,37.3188 54.7695,36.9976 53.6776,36.9976 C52.7783,36.9976 51.8792,37.2545 51.6865,37.6399 Z" style="stroke:none;fill-rule:nonzero;fill:#000000;fill-opacity:1;"/>
        </g>
        <g id="Shape11">
            <desc shapeID="11" type="0" basicInfo-basicType="0" basicInfo-roundedRectRadius="12" basicInfo-polygonSides="6" basicInfo-starPoints="5" bounding="rect(-2.98474,-2.73904,5.96948,5.47809)" text="" font-familyName="" font-pixelSize="20" font-bold="0" font-underline="0" font-alignment="1" strokeStyle="0" markerStart="0" markerEnd="0" shadowEnabled="0" shadowOffsetX="0" shadowOffsetY="2" shadowBlur="4" shadowOpacity="160" blurEnabled="0" blurRadius="4" transform="matrix(0.642288,0,0,0.642288,40.4366,40.7526)" pers-center="0,0" pers-size="0,0" pers-start="0,0" pers-end="0,0" locked="0" mesh="" flag=""/>
            <path id="shapePath11" d="M38.5196,40.0806 C38.5196,41.6863 39.9969,42.9067 41.3456,42.3928 C43.144,41.6863 42.3733,39.3099 40.318,39.0529 C38.9049,38.8602 38.5196,39.1172 38.5196,40.0806 Z" style="stroke:none;fill-rule:nonzero;fill:#000000;fill-opacity:1;"/>
        </g>
        <g id="Shape12">
            <desc shapeID="12" type="0" basicInfo-basicType="0" basicInfo-roundedRectRadius="12" basicInfo-polygonSides="6" basicInfo-starPoints="5" bounding="rect(-5.88858,-2.272,11.7771,4.54402)" text="" font-familyName="" font-pixelSize="20" font-bold="0" font-underline="0" font-alignment="1" strokeStyle="0" markerStart="0" markerEnd="0" shadowEnabled="0" shadowOffsetX="0" shadowOffsetY="2" shadowBlur="4" shadowOpacity="160" blurEnabled="0" blurRadius="4" transform="matrix(0.642288,0,0,0.642288,73.0985,71.66)" pers-center="0,0" pers-size="0,0" pers-start="0,0" pers-end="0,0" locked="0" mesh="" flag=""/>
            <path id="shapePath12" d="M70.123,70.5958 C68.9027,71.0454 69.0953,72.5869 70.5084,73.0365 C71.9856,73.4861 76.4816,72.0088 76.8671,70.917 C76.9955,70.4031 76.2248,70.1462 73.9768,70.2104 C72.3068,70.2104 70.5084,70.4031 70.123,70.5958 Z" style="stroke:none;fill-rule:nonzero;fill:#000000;fill-opacity:1;"/>
        </g>
        <g id="Shape13">
            <desc shapeID="13" type="0" basicInfo-basicType="0" basicInfo-roundedRectRadius="12" basicInfo-polygonSides="6" basicInfo-starPoints="5" bounding="rect(-9.3616,-19.3475,18.7232,38.6949)" text="" font-familyName="" font-pixelSize="20" font-bold="0" font-underline="0" font-alignment="1" strokeStyle="0" markerStart="0" markerEnd="0" shadowEnabled="0" shadowOffsetX="0" shadowOffsetY="2" shadowBlur="4" shadowOpacity="160" blurEnabled="0" blurRadius="4" transform="matrix(0.642288,0,0,0.642288,84.4425,85.2268)" pers-center="0,0" pers-size="0,0" pers-start="0,0" pers-end="0,0" locked="0" mesh="" flag=""/>
            <path id="shapePath13" d="M84.0607,74.9634 C84.0607,76.3122 84.5102,77.5968 85.3453,78.3675 L86.6298,79.5879 L85.281,84.0196 C83.4184,90.0572 81.042,94.6174 79.5004,95.0028 C77.8305,95.4524 78.2159,97.3792 79.95,97.6361 C82.8403,98.0215 86.8868,91.9198 89.199,83.57 C91.0616,76.6976 90.8047,72.2658 88.7494,75.2845 C87.529,77.0187 86.951,76.8902 85.9875,74.6422 C84.8957,72.0731 84.0607,72.2015 84.0607,74.9634 Z" style="stroke:none;fill-rule:nonzero;fill:#000000;fill-opacity:1;"/>
        </g>
        <g id="Shape14">
            <desc shapeID="14" type="0" basicInfo-basicType="0" basicInfo-roundedRectRadius="12" basicInfo-polygonSides="6" basicInfo-starPoints="5" bounding="rect(-10.8684,-12.1824,21.7367,24.3647)" text="" font-familyName="" font-pixelSize="20" font-bold="0" font-underline="0" font-alignment="1" strokeStyle="0" markerStart="0" markerEnd="0" shadowEnabled="0" shadowOffsetX="0" shadowOffsetY="2" shadowBlur="4" shadowOpacity="160" blurEnabled="0" blurRadius="4" transform="matrix(0.642288,0,0,0.642288,66.6528,82.75)" pers-center="0,0" pers-size="0,0" pers-start="0,0" pers-end="0,0" locked="0" mesh="" flag=""/>
            <path id="shapePath14" d="M70.701,75.4772 C70.1231,76.1195 69.9303,77.9821 69.9946,80.8724 C70.1231,83.2489 69.9946,85.6254 69.7376,86.0107 C69.0953,87.0384 65.2416,87.7449 63.2505,87.2311 C62.3513,87.0384 61.4522,86.1392 61.0667,85.1115 C60.5529,83.57 60.3602,83.5058 59.9749,84.4692 C58.5619,87.8734 62.2871,91.0848 67.1685,90.5068 C72.7564,89.8645 74.5548,87.1668 73.206,81.4505 C71.5361,74.2569 71.6003,74.3853 70.701,75.4772 Z" style="stroke:none;fill-rule:nonzero;fill:#000000;fill-opacity:1;"/>
        </g>
        <g id="Shape15">
            <desc shapeID="15" type="0" basicInfo-basicType="0" basicInfo-roundedRectRadius="12" basicInfo-polygonSides="6" basicInfo-starPoints="5" bounding="rect(-4.91748,-4.88117,9.83484,9.76234)" text="" font-familyName="" font-pixelSize="20" font-bold="0" font-underline="0" font-alignment="1" strokeStyle="0" markerStart="0" markerEnd="0" shadowEnabled="0" shadowOffsetX="0" shadowOffsetY="2" shadowBlur="4" shadowOpacity="160" blurEnabled="0" blurRadius="4" transform="matrix(0.642288,0,0,0.642288,78.2271,77.7718)" pers-center="0,0" pers-size="0,0" pers-start="0,0" pers-end="0,0" locked="0" mesh="" flag=""/>
            <path id="shapePath15" d="M75.5182,75.0918 C75.2614,75.2845 75.0686,76.4406 75.0686,77.5968 C75.0686,79.1382 75.454,79.9732 76.4174,80.4228 C79.7574,82.2212 82.9688,78.6244 80.5281,75.9268 C79.4362,74.7065 76.3532,74.1926 75.5182,75.0918 M78.6012,77.1471 C78.7939,77.4683 78.6654,77.9179 78.2801,78.1748 C77.9589,78.3675 77.6378,78.1106 77.6378,77.5968 C77.6378,76.4406 78.0232,76.2479 78.6012,77.1471 Z" style="stroke:none;fill-rule:nonzero;fill:#000000;fill-opacity:1;"/>
        </g>
    </g>
</svg>
