<?xml version="1.0"?>
<svg version="1.1" xmlns="http://www.w3.org/2000/svg" xmlns:xlink="http://www.w3.org/1999/xlink" width="60" height="60">
    <desc iVinci="yes" version="5.0" gridStep="20" showGrid="no" snapToGrid="no" codePlatform="0"/>
    <g id="Layer1" name="Layer 1" opacity="1">
        <g id="Shape1">
            <desc shapeID="1" type="0" basicInfo-basicType="0" basicInfo-roundedRectRadius="12" basicInfo-polygonSides="6" basicInfo-starPoints="5" bounding="rect(-48.809,-45.0735,97.618,90.147)" text="" font-familyName="" font-pixelSize="20" font-bold="0" font-underline="0" font-alignment="1" strokeStyle="0" markerStart="0" markerEnd="0" shadowEnabled="0" shadowOffsetX="0" shadowOffsetY="2" shadowBlur="4" shadowOpacity="160" blurEnabled="0" blurRadius="4" transform="matrix(0.574764,0,0,0.574764,30,30)" pers-center="0,0" pers-size="0,0" pers-start="0,0" pers-end="0,0" locked="0" mesh="" flag=""/>
            <path id="shapePath1" d="M29.9994,4.09337 C14.5078,4.09337 1.94633,14.0115 1.94633,26.2534 C1.94633,34.1168 7.14911,41.0208 14.9624,44.9614 L12.3191,54.8284 C12.2179,55.1313 12.3019,55.452 12.5214,55.6704 C12.6726,55.8227 12.8743,55.9066 13.0933,55.9066 C13.2623,55.9066 13.4301,55.8394 13.5819,55.7216 L24.9478,48.0427 C26.5985,48.2784 28.2826,48.4129 29.9994,48.4129 C45.491,48.4129 58.0537,38.4953 58.0537,26.2534 C58.0537,14.0115 45.491,4.09337 29.9994,4.09337 Z" style="stroke:#323232;stroke-opacity:1;stroke-width:1;stroke-linejoin:miter;stroke-miterlimit:2;stroke-linecap:round;fill-rule:nonzero;fill:#3c1e1e;fill-opacity:1;"/>
        </g>
        <g id="Shape2">
            <desc shapeID="2" type="0" basicInfo-basicType="0" basicInfo-roundedRectRadius="12" basicInfo-polygonSides="6" basicInfo-starPoints="5" bounding="rect(-77.5147,-26.5625,155.029,53.125)" text="" font-familyName="" font-pixelSize="20" font-bold="0" font-underline="0" font-alignment="1" strokeStyle="0" markerStart="0" markerEnd="0" shadowEnabled="0" shadowOffsetX="0" shadowOffsetY="2" shadowBlur="4" shadowOpacity="160" blurEnabled="0" blurRadius="4" transform="matrix(0.253844,0,0,0.253844,30.4168,26.5915)" pers-center="0,0" pers-size="0,0" pers-start="0,0" pers-end="0,0" locked="0" mesh="" flag=""/>
            <path id="shapePath2" d="M16.1343,33.3343 C15.2944,33.3343 14.6113,32.6819 14.6113,31.8798 L14.6113,22.8315 L12.2348,22.8315 C11.4105,22.8315 10.7401,22.1623 10.7401,21.3401 C10.7401,20.5179 11.4108,19.8488 12.2348,19.8488 L20.0339,19.8488 C20.8581,19.8488 21.5285,20.5179 21.5285,21.3401 C21.5285,22.1623 20.8579,22.8315 20.0339,22.8315 L17.6574,22.8315 L17.6574,31.8798 C17.6574,32.6819 16.9743,33.3343 16.1343,33.3343 M29.4896,33.3145 C28.8545,33.3145 28.3686,33.0566 28.2221,32.6418 L27.468,30.6674 L22.8236,30.6671 L22.069,32.6428 C21.923,33.0568 21.4374,33.3145 20.8023,33.3145 C20.4682,33.3148 20.138,33.2431 19.8341,33.1043 C19.4143,32.9106 19.0106,32.3781 19.4732,30.9415 L23.1163,21.3523 C23.373,20.623 24.1525,19.8716 25.1445,19.8491 C26.1394,19.8714 26.9189,20.623 27.1761,21.3538 L30.8177,30.9388 C31.2812,32.3786 30.8776,32.9114 30.4578,33.1046 C30.1538,33.2431 29.8236,33.3147 29.4896,33.3145 C29.4893,33.3145 29.4896,33.3145 29.4896,33.3145 M26.6671,27.9695 L25.1458,23.6478 L23.6245,27.9695 L26.6671,27.9695 M33.2688,33.1122 C32.4639,33.1122 31.8092,32.4857 31.8092,31.716 L31.8092,21.3719 C31.8092,20.5319 32.5068,19.8488 33.364,19.8488 C34.2213,19.8488 34.9188,20.5319 34.9188,21.3719 L34.9188,30.3199 L38.1553,30.3199 C38.9603,30.3199 39.6149,30.9464 39.6149,31.716 C39.6149,32.4857 38.9603,33.1122 38.1553,33.1122 L33.2688,33.1122 M41.7305,33.3145 C40.8905,33.3145 40.2074,32.6314 40.2074,31.7914 L40.2074,21.3719 C40.2074,20.5319 40.8905,19.8488 41.7305,19.8488 C42.5704,19.8488 43.2535,20.5319 43.2535,21.3719 L43.2535,24.6454 L47.5029,20.3961 C47.7215,20.1775 48.0218,20.0572 48.3477,20.0572 C48.7279,20.0572 49.1097,20.2212 49.3958,20.507 C49.6626,20.7736 49.8218,21.1165 49.8436,21.4726 C49.8657,21.8318 49.7461,22.1611 49.5075,22.3999 L46.0367,25.8702 L49.7857,30.837 C50.0302,31.1588 50.1355,31.5652 50.0781,31.9653 C50.0233,32.3656 49.8105,32.7274 49.4872,32.9698 C49.2238,33.17 48.9019,33.278 48.5711,33.2772 C48.0925,33.2794 47.6412,33.0548 47.3544,32.6717 L43.7826,27.9391 L43.254,28.4676 L43.254,31.7907 C43.2531,32.6317 42.5716,33.3134 41.7305,33.3145 Z" style="stroke:none;fill-rule:nonzero;fill:#ffe812;fill-opacity:1;"/>
        </g>
    </g>
</svg>
