<svg width="300" height="200" xmlns="http://www.w3.org/2000/svg" style="vector-effect: non-scaling-stroke;" stroke="null" preserveAspectRatio="xMidYMid meet" version="1.0">
 <metadata style="vector-effect: non-scaling-stroke;" stroke="null">Created by potrace 1.16, written by Peter Selinger 2001-2019</metadata>

 <g stroke="null">
  <title stroke="null">Layer 1</title>
  <g stroke="null" id="svg_1" fill="#000000" transform="translate(-2 534) scale(0.1 -0.1)">
   <path stroke="null" id="svg_2" d="m2864.80226,5253.10878c-176.54484,-151.31892 -540.34831,-468.09871 -742.51311,-645.81595l-207.28879,-181.95982l-17.70107,18.85594c-34.00468,35.35489 -82.91552,62.2246 -131.82636,72.12397c-12.11126,2.35699 -13.04289,2.35699 -6.05563,-2.82839c4.65818,-3.29979 20.96179,-13.67056 36.79958,-22.62713c16.30361,-8.95657 44.71848,-31.5837 63.817,-49.49684l34.93631,-33.46929l-82.91552,-74.00956l-82.91552,-74.00956l-29.81232,28.28391c-54.50065,51.85384 -118.78347,76.83796 -197.04081,77.30935c-54.03483,0 -98.75331,-10.84217 -141.14271,-33.94069l-22.82506,-12.72776l-50.77411,54.21083c-27.94905,29.69811 -50.77411,55.62502 -50.77411,57.51062c0,5.18538 38.19704,26.39832 78.25734,44.31146c33.07304,14.61335 34.4705,16.02755 19.09852,16.02755c-21.42761,0 -60.55628,-11.78496 -92.69768,-28.28391l-25.61996,-13.19916l-120.64674,130.57739c-111.7962,120.20662 -358.67948,381.36139 -472.33896,499.68241c-40.06031,41.48307 -43.32103,43.84006 -18.6327,15.08475c50.30829,-59.86761 245.02001,-278.12512 403.86378,-452.54256c83.38133,-91.92271 159.77541,-176.30304 169.55757,-187.14521l17.23525,-20.27014l-25.61996,-24.51272c-46.11593,-43.84006 -93.62932,-128.22039 -102.47985,-181.01703c-2.79491,-16.49895 0,-12.72776 22.82506,27.81251c28.88069,52.79663 65.68027,102.76487 99.68495,136.70557l23.29088,22.62713l29.81232,-32.0551c16.30361,-17.91314 40.06031,-43.36866 52.17156,-57.03922l22.35924,-24.51272l-23.75669,-24.04132c-12.57707,-12.72776 -29.81232,-33.46929 -38.19704,-45.25426c-20.96179,-30.6409 -48.91084,-93.8083 -55.8981,-125.8634c-3.26072,-15.08475 -6.98726,-27.81251 -8.38472,-28.75531c-1.39745,-0.9428 -80.12061,-2.35699 -174.21575,-3.29979l-171.42084,-1.88559l-8.85053,19.79874c-21.42761,48.55405 -90.3686,45.25426 -107.13803,-5.18538l-5.12399,-16.02755l-103.41149,-2.82839c-56.82974,-1.4142 -208.22043,-5.18538 -336.32024,-8.01377c-128.09982,-2.82839 -234.77203,-5.65678 -237.56693,-6.59958c-2.32909,-0.9428 149.52742,-1.88559 337.7177,-1.88559l342.37587,-0.4714l13.04289,-16.49895c23.75669,-30.1695 64.28282,-30.1695 89.43696,-0.4714l13.97453,16.97035l173.74993,0l173.28411,0l0,-32.9979c0,-58.45341 20.49597,-128.69179 54.50065,-188.5594c0.93164,-1.4142 -56.36392,-55.62502 -126.70236,-119.73522c-127.634,-115.96403 -128.56563,-116.90683 -139.74525,-109.36445c-6.05563,4.24259 -20.96179,7.54238 -32.60723,7.54238c-40.99194,0 -69.87263,-44.31146 -52.17156,-80.13775l7.45308,-14.61335l-28.88069,-28.75531l-28.88069,-28.28391l30.74396,26.39832c27.48323,23.09853 31.20977,25.45552 39.59449,19.79874c24.22251,-16.97035 59.15882,-11.31356 78.72316,12.25636c10.24799,12.25636 12.11126,18.38454 10.7138,36.29768c-1.39745,11.78496 -3.26072,24.98412 -4.65818,28.75531c-2.32909,5.18538 34.93631,39.59747 128.09982,119.26382l130.89472,112.66424l22.35924,-25.92692c31.20977,-35.82629 82.91552,-74.48096 130.89472,-98.05089c22.82506,-10.84217 43.32103,-24.04132 46.11593,-29.69811c21.89342,-43.84006 76.39407,-57.03922 108.06966,-26.86971c7.45308,7.07098 19.09852,10.37077 49.37666,12.72776c21.89342,1.4142 57.29555,7.07098 78.72316,11.78496c39.12867,8.95657 113.19366,41.48307 141.14271,61.28181l14.44034,10.84217l98.28749,-103.70767c53.56901,-56.56782 130.4289,-136.23417 169.55757,-176.30304l72.20171,-73.06677l-78.72316,89.56572c-81.05225,92.39411 -200.76735,227.21408 -229.64803,257.85498l-16.30361,17.91314l18.6327,16.97035l18.16688,16.97035l-20.03015,-15.08475c-11.17962,-8.48517 -21.89342,-13.67056 -23.75669,-11.31356c-1.86327,2.35699 -38.66285,42.89726 -81.51806,90.50851l-78.25734,85.79453l21.42761,23.56993c20.96179,22.62713 54.03483,83.43754 54.03483,99.46508c0,9.89937 52.63738,13.67056 196.10917,13.67056l105.74057,0l5.58981,-14.14196c7.45308,-17.91314 31.67559,-40.06887 52.63738,-46.66845c16.30361,-5.65678 16.30361,-5.65678 12.11126,-25.45552c-13.50871,-61.28181 -44.71848,-131.99158 -80.58643,-181.01703c-11.64544,-16.49895 -20.03015,-29.69811 -18.6327,-29.69811c1.39745,0 12.11126,8.01377 23.75669,17.44174c44.25266,36.76908 88.50533,117.37823 99.68495,181.48842c5.12399,29.69811 6.98726,32.9979 20.03015,38.65468c19.56434,8.48517 38.66285,28.75531 45.65012,48.08265l5.58981,16.02755l49.37666,0c78.25734,0 492.83493,9.89937 579.9428,13.67056c53.56901,2.35699 -35.40213,3.77119 -273.9007,4.24259c-331.66207,0.9428 -353.08967,1.4142 -355.41876,9.42797c-15.37198,51.85384 -52.17156,77.30935 -100.15076,69.29558c-30.27814,-5.18538 -64.74863,-41.48307 -64.74863,-68.35278c0,-9.42797 -1.86327,-9.42797 -149.52742,-9.42797l-149.52742,0l2.32909,10.37077c6.52145,24.04132 -7.45308,82.96614 -32.14141,138.59116c-3.26072,6.59958 160.24122,149.43333 167.6943,146.60493c3.72654,-1.4142 18.6327,-21.21293 33.53886,-44.31146c34.00468,-52.79663 35.40213,-53.73943 29.3465,-31.5837c-7.9189,28.75531 -21.42761,61.28181 -34.00468,81.08054l-11.17962,18.38454l203.09643,181.01703c373.58564,332.33594 820.77045,737.26726 820.77045,742.45264c0,3.29979 -0.93164,2.35699 -90.83441,-74.95236zm-1304.75485,-948.45379c40.99194,-10.84217 73.13335,-28.28391 102.94567,-55.62502l27.01742,-24.98412l-38.66285,-33.94069l-39.12867,-33.94069l-11.64544,11.31356c-26.5516,25.92692 -86.17624,36.76908 -120.64674,22.15573c-18.16688,-7.54238 -15.8378,-8.95657 -66.6119,47.13985l-37.2654,41.48307l18.6327,9.89937c45.1843,23.09853 113.65947,30.1695 165.36522,16.49895zm-161.63868,-91.45131l42.85521,-46.19705l-11.17962,-10.84217c-13.04289,-12.72776 -34.93631,-54.21083 -34.93631,-66.93859c0,-8.01377 -6.05563,-8.48517 -74.99662,-8.48517l-74.99662,0l2.79491,17.91314c6.52145,33.94069 42.38939,100.87928 71.7359,131.99158c15.37198,16.02755 29.81232,29.22671 32.14141,29.22671c2.32909,0 23.29088,-20.74153 46.58175,-46.66845zm317.68754,-43.84006c5.58981,-16.49895 9.78217,-41.01167 9.78217,-56.56782l0,-27.34111l-40.99194,0l-41.45776,0l-6.98726,25.92692l-6.98726,25.92692l33.07304,30.6409c18.16688,16.49895 35.40213,30.6409 38.66285,30.6409c2.79491,0 9.78217,-13.19916 14.90616,-29.22671zm2.32909,-122.56361c-6.05563,-21.21293 -20.96179,-47.13985 -37.73122,-65.52439c-16.30361,-17.91314 -16.76943,-18.38454 -26.08578,-10.37077c-4.65818,4.71399 -15.37198,16.49895 -22.82506,26.39832l-13.97453,17.91314l10.7138,20.74153l11.17962,21.21293l40.99194,0c40.52612,0 40.99194,0 37.73122,-10.37077zm-326.53807,-19.79874c1.39745,-14.14196 5.58981,-31.5837 9.78217,-39.12608l6.98726,-14.14196l-51.70574,-46.19705c-28.41487,-25.45552 -57.76137,-51.38244 -64.74863,-57.98202l-13.50871,-11.31356l-13.97453,30.1695c-16.30361,35.35489 -27.94905,90.97991 -27.94905,133.87717l0,30.1695l76.39407,0l75.92825,0l2.79491,-25.45552zm153.25396,-40.54027c12.57707,0 29.3465,2.82839 38.19704,6.59958l14.90616,6.59958l21.89342,-25.45552c12.11126,-13.67056 21.89342,-25.92692 21.89342,-26.86971c0,-1.4142 -9.78217,-6.12818 -21.89342,-10.84217c-46.58175,-17.91314 -107.13803,-8.01377 -149.0616,24.51272c-18.6327,14.14196 -19.09852,18.85594 -3.26072,35.35489l12.11126,12.72776l21.42761,-11.31356c13.97453,-7.54238 28.41487,-11.31356 43.78685,-11.31356zm-102.47985,-54.68223c55.43228,-52.32523 140.21107,-65.99579 210.54951,-33.46929l25.61996,11.78496l38.66285,-40.54027c21.42761,-22.62713 58.22719,-61.28181 81.98388,-85.79453c23.29088,-24.98412 42.85521,-46.66845 42.85521,-48.55405c0,-1.88559 -10.7138,-8.95657 -24.22251,-15.55615c-63.817,-32.5265 -126.23655,-48.55405 -192.84845,-49.02544c-37.73122,0 -37.73122,0 -35.86795,11.78496c1.39745,6.12818 -1.86327,20.74153 -7.9189,32.5265c-20.49597,43.36866 -75.92825,52.79663 -109.46711,18.85594c-8.85053,-8.95657 -16.30361,-18.38454 -16.30361,-20.74153c0,-8.95657 -12.11126,-4.71399 -48.44502,16.97035c-39.59449,23.56993 -115.98856,96.63669 -113.65947,108.42166c0.93164,5.65678 117.85183,113.60704 124.37328,114.54984c0.93164,0.4714 12.11126,-9.42797 24.68833,-21.21293z"/>
   <path stroke="null" id="svg_3" d="m1237.70169,5197.48376c-17.70107,-32.0551 -21.42761,-36.29768 -49.84247,-50.91104c-16.76943,-8.48517 -30.27814,-16.97035 -30.27814,-18.85594c0,-1.88559 13.97453,-10.84217 30.74396,-19.79874c27.94905,-14.61335 32.14141,-18.85594 49.37666,-50.43964c20.96179,-38.18328 19.09852,-38.65468 40.99194,4.71399c12.57707,24.04132 17.70107,29.22671 46.58175,44.78286c17.70107,9.89937 32.60723,18.85594 32.60723,20.27014c0,1.4142 -14.44034,10.37077 -32.14141,20.27014c-27.48323,15.08475 -33.53886,20.74153 -46.11593,44.31146c-8.38472,15.08475 -16.76943,30.1695 -19.09852,33.94069c-2.79491,4.24259 -9.31635,-3.29979 -22.82506,-28.28391z"/>
   <path stroke="null" id="svg_4" d="m1625.72768,4733.62763c-2.32909,-0.9428 -10.7138,-2.82839 -18.16688,-4.71399c-6.98726,-1.4142 -12.57707,-3.77119 -11.17962,-4.71399c0.93164,-0.9428 22.35924,-5.18538 47.9792,-9.42797c52.63738,-8.48517 99.21913,-21.68433 136.95035,-38.18328c13.97453,-6.12818 26.08578,-10.84217 27.01742,-9.42797c3.72654,3.29979 -41.45776,40.06887 -60.55628,49.02544c-33.07304,15.55615 -99.68495,24.98412 -122.04419,17.44174z"/>
   <path stroke="null" id="svg_5" d="m1526.97437,4594.56508c-18.6327,-11.31356 -24.68833,-22.62713 -24.68833,-47.13985c0,-16.02755 2.79491,-22.62713 15.8378,-35.82629c13.50871,-13.67056 19.09852,-16.02755 37.2654,-16.02755c28.41487,0 48.91084,17.44174 52.63738,45.25426c6.05563,47.61125 -40.52612,78.72355 -81.05225,53.73943z"/>
   <path stroke="null" id="svg_6" d="m2035.18127,4431.46119c-26.5516,-13.19916 -32.60723,-43.84006 -13.04289,-67.40999c25.15415,-30.1695 76.39407,-12.25636 76.39407,26.39832c0,22.15573 -7.45308,33.94069 -25.61996,41.95447c-19.56434,8.01377 -20.03015,8.01377 -37.73122,-0.9428z"/>
   <path stroke="null" id="svg_7" d="m941.44176,3925.1792c-7.45308,-38.18328 0,-95.2225 16.76943,-129.63459c9.31635,-18.85594 34.93631,-49.49684 41.45776,-49.49684c2.32909,0 -1.39745,11.78496 -7.9189,26.39832c-6.52145,15.08475 -18.16688,55.62502 -26.08578,90.97991c-16.30361,74.48096 -19.56434,83.43754 -24.22251,61.7532z"/>
   <path stroke="null" id="svg_8" d="m2394.32657,3723.42064c-5.12399,-9.42797 -17.23525,-21.68433 -27.48323,-27.34111l-17.70107,-10.37077l18.6327,-10.37077c10.7138,-6.12818 21.42761,-16.97035 24.68833,-24.51272c7.9189,-19.32734 12.11126,-20.27014 20.49597,-3.77119c3.72654,7.54238 15.8378,19.79874 26.08578,26.86971l19.09852,12.72776l-16.76943,8.48517c-8.85053,4.71399 -20.96179,16.97035 -27.01742,26.86971l-11.17962,18.38454l-8.85053,-16.97035z"/>
   <path stroke="null" id="svg_9" d="m1382.10512,3536.27544c55.43228,-28.75531 104.80894,-41.01167 171.42084,-41.95447c52.63738,-0.4714 97.35586,3.77119 92.23187,9.42797c-1.39745,0.9428 -23.75669,4.24259 -50.77411,6.59958c-26.5516,2.82839 -90.3686,13.67056 -142.07434,23.56993c-51.23993,10.37077 -95.02677,18.85594 -97.82168,18.85594c-2.32909,-0.4714 9.78217,-7.54238 27.01742,-16.49895z"/>
  </g>
 </g>
</svg>