<?xml version="1.0"?>
<svg version="1.1" xmlns="http://www.w3.org/2000/svg" xmlns:xlink="http://www.w3.org/1999/xlink" width="400" height="400">
    <desc iVinci="yes" version="4.6" gridStep="20" showGrid="no" snapToGrid="no" codePlatform="0"/>
    <g id="Layer1" name="Layer 1" visibility="hidden" opacity="1">
        <g id="Shape1">
            <desc shapeID="1" type="0" basicInfo-basicType="1" basicInfo-roundedRectRadius="12" basicInfo-polygonSides="6" basicInfo-starPoints="5" bounding="rect(-3.624,-375.367,7.24799,750.734)" text="" font-familyName="나눔스퀘어" font-pixelSize="100" font-bold="0" font-underline="0" font-alignment="1" strokeStyle="0" markerStart="0" markerEnd="0" shadowEnabled="0" shadowOffsetX="0" shadowOffsetY="2" shadowBlur="4" shadowOpacity="160" blurEnabled="0" blurRadius="4" transform="matrix(1,0,0,1,300,310.649)" pers-center="0,0" pers-size="0,0" pers-start="0,0" pers-end="0,0" locked="0" mesh="" flag=""/>
            <path id="shapePath1" d="M296.376,-64.7184 L303.624,-64.7184 L303.624,686.016 L296.376,686.016 L296.376,-64.7184 Z" style="stroke:none;fill-rule:evenodd;fill:#e6e6e6;fill-opacity:1;"/>
        </g>
        <g id="Shape2">
            <desc shapeID="2" type="0" basicInfo-basicType="1" basicInfo-roundedRectRadius="12" basicInfo-polygonSides="6" basicInfo-starPoints="5" bounding="rect(-3.624,-375.367,7.24799,750.734)" text="" font-familyName="나눔스퀘어" font-pixelSize="100" font-bold="0" font-underline="0" font-alignment="1" strokeStyle="0" markerStart="0" markerEnd="0" shadowEnabled="0" shadowOffsetX="0" shadowOffsetY="2" shadowBlur="4" shadowOpacity="160" blurEnabled="0" blurRadius="4" transform="matrix(1,0,0,1,445.711,310.649)" pers-center="0,0" pers-size="0,0" pers-start="0,0" pers-end="0,0" locked="0" mesh="" flag=""/>
            <path id="shapePath2" d="M442.087,-64.7184 L449.335,-64.7184 L449.335,686.016 L442.087,686.016 L442.087,-64.7184 Z" style="stroke:none;fill-rule:evenodd;fill:#e6e6e6;fill-opacity:1;"/>
        </g>
        <g id="Shape3">
            <desc shapeID="3" type="0" basicInfo-basicType="1" basicInfo-roundedRectRadius="12" basicInfo-polygonSides="6" basicInfo-starPoints="5" bounding="rect(-3.624,-375.367,7.24799,750.734)" text="" font-familyName="나눔스퀘어" font-pixelSize="100" font-bold="0" font-underline="0" font-alignment="1" strokeStyle="0" markerStart="0" markerEnd="0" shadowEnabled="0" shadowOffsetX="0" shadowOffsetY="2" shadowBlur="4" shadowOpacity="160" blurEnabled="0" blurRadius="4" transform="matrix(1,0,0,1,158.431,310.649)" pers-center="0,0" pers-size="0,0" pers-start="0,0" pers-end="0,0" locked="0" mesh="" flag=""/>
            <path id="shapePath3" d="M154.807,-64.7184 L162.055,-64.7184 L162.055,686.016 L154.807,686.016 L154.807,-64.7184 Z" style="stroke:none;fill-rule:evenodd;fill:#e6e6e6;fill-opacity:1;"/>
        </g>
        <g id="Shape4">
            <desc shapeID="4" type="0" basicInfo-basicType="1" basicInfo-roundedRectRadius="12" basicInfo-polygonSides="6" basicInfo-starPoints="5" bounding="rect(-3.6242,-375.367,7.24838,750.734)" text="" font-familyName="나눔스퀘어" font-pixelSize="100" font-bold="0" font-underline="0" font-alignment="1" strokeStyle="0" markerStart="0" markerEnd="0" shadowEnabled="0" shadowOffsetX="0" shadowOffsetY="2" shadowBlur="4" shadowOpacity="160" blurEnabled="0" blurRadius="4" transform="matrix(-0.00335225,0.999994,-0.999994,-0.00335225,287.225,354.666)" pers-center="0,0" pers-size="0,0" pers-start="0,0" pers-end="0,0" locked="0" mesh="" flag=""/>
            <path id="shapePath4" d="M662.602,352.3 L662.578,359.548 L-88.1519,357.031 L-88.1276,349.783 L662.602,352.3 Z" style="stroke:none;fill-rule:evenodd;fill:#e6e6e6;fill-opacity:1;"/>
        </g>
        <g id="Shape5">
            <desc shapeID="5" type="0" basicInfo-basicType="1" basicInfo-roundedRectRadius="12" basicInfo-polygonSides="6" basicInfo-starPoints="5" bounding="rect(-3.62452,-375.367,7.24904,750.735)" text="" font-familyName="나눔스퀘어" font-pixelSize="100" font-bold="0" font-underline="0" font-alignment="1" strokeStyle="0" markerStart="0" markerEnd="0" shadowEnabled="0" shadowOffsetX="0" shadowOffsetY="2" shadowBlur="4" shadowOpacity="160" blurEnabled="0" blurRadius="4" transform="matrix(-0.00335225,0.999994,-0.999994,-0.00335225,318.459,182.497)" pers-center="0,0" pers-size="0,0" pers-start="0,0" pers-end="0,0" locked="0" mesh="" flag=""/>
            <path id="shapePath5" d="M693.835,180.131 L693.811,187.38 L-56.9191,184.863 L-56.8948,177.615 L693.835,180.131 Z" style="stroke:none;fill-rule:evenodd;fill:#e6e6e6;fill-opacity:1;"/>
        </g>
        <g id="Shape6">
            <desc shapeID="6" type="0" basicInfo-basicType="1" basicInfo-roundedRectRadius="12" basicInfo-polygonSides="6" basicInfo-starPoints="5" bounding="rect(-3.62467,-375.367,7.24933,750.735)" text="" font-familyName="나눔스퀘어" font-pixelSize="100" font-bold="0" font-underline="0" font-alignment="1" strokeStyle="0" markerStart="0" markerEnd="0" shadowEnabled="0" shadowOffsetX="0" shadowOffsetY="2" shadowBlur="4" shadowOpacity="160" blurEnabled="0" blurRadius="4" transform="matrix(-0.00335225,0.999994,-0.999994,-0.00335225,300.001,540.193)" pers-center="0,0" pers-size="0,0" pers-start="0,0" pers-end="0,0" locked="0" mesh="" flag=""/>
            <path id="shapePath6" d="M675.377,537.827 L675.353,545.076 L-75.3772,542.559 L-75.3529,535.31 L675.377,537.827 Z" style="stroke:none;fill-rule:evenodd;fill:#e6e6e6;fill-opacity:1;"/>
        </g>
    </g>
    <g id="Layer2" name="gmail" opacity="1">
        <g id="Shape7">
            <desc shapeID="7" type="0" basicInfo-basicType="0" basicInfo-roundedRectRadius="12" basicInfo-polygonSides="6" basicInfo-starPoints="5" bounding="rect(-217.491,-37.1499,434.981,74.2997)" text="LAZYPIC" font-familyName="나눔스퀘어" font-pixelSize="100" font-bold="0" font-underline="0" font-alignment="1" strokeStyle="0" markerStart="0" markerEnd="0" shadowEnabled="0" shadowOffsetX="0" shadowOffsetY="2" shadowBlur="4" shadowOpacity="160" blurEnabled="0" blurRadius="4" transform="matrix(0.724269,0,0,0.724269,199.714,69.0576)" pers-center="0,0" pers-size="0,0" pers-start="0,0" pers-end="0,0" locked="0" mesh="" flag=""/>
            <path id="shapePath7" d="M45.3782,42.9477 L45.3782,92.1979 L72.466,92.1979 L72.466,95.1675 L42.1915,95.1675 L42.1915,42.9477 L45.3782,42.9477 M119.544,78.2924 L95.933,78.2924 L89.5591,95.1675 L86.0826,95.1675 L106.218,42.9477 L109.405,42.9477 L129.322,95.1675 L125.773,95.1675 L119.544,78.2924 M97.0192,75.4674 L118.459,75.4674 L112.229,58.5919 C111.457,56.4675 110.684,54.4033 109.912,52.3995 C109.139,50.3956 108.439,48.3798 107.811,46.3518 C107.232,48.3798 106.568,50.3956 105.82,52.3995 C105.071,54.4033 104.287,56.4675 103.465,58.5919 L97.0192,75.4674 M176.745,45.4827 L144.225,92.2708 L178.121,92.2708 L178.121,95.1675 L140.314,95.1675 L140.314,92.6326 L172.834,45.8449 L142.125,45.8449 L142.125,42.9477 L176.745,42.9477 L176.745,45.4827 M213.584,73.5119 L213.584,95.1675 L210.397,95.1675 L210.397,73.5119 L192.362,42.9477 L195.767,42.9477 L212.063,70.6148 L227.707,42.9477 L231.183,42.9477 L213.584,73.5119 M247.36,42.9477 L263.656,42.9477 C269.16,42.9477 273.337,44.2032 276.186,46.7139 C279.035,49.2248 280.459,52.8944 280.459,57.7229 L280.459,59.3162 C280.459,64.2413 278.998,67.9471 276.077,70.4338 C273.156,72.9205 268.943,74.1638 263.439,74.1638 L250.546,74.1638 L250.546,95.1675 L247.36,95.1675 L247.36,42.9477 M250.546,45.9172 L250.546,71.1943 L263.076,71.1943 C265.684,71.1943 267.881,70.9166 269.668,70.3614 C271.454,69.8061 272.914,69.0094 274.049,67.9713 C275.184,66.9332 275.992,65.6777 276.475,64.205 C276.958,62.7324 277.2,61.0786 277.2,59.2438 L277.2,57.8677 C277.2,56.0812 276.958,54.4516 276.475,52.9789 C275.992,51.5062 275.208,50.2508 274.122,49.2128 C273.035,48.1746 271.635,47.3658 269.921,46.7864 C268.206,46.207 266.119,45.9172 263.656,45.9172 L250.546,45.9172 M301.376,42.9477 L301.376,95.1675 L298.189,95.1675 L298.189,42.9477 L301.376,42.9477 M357.235,90.0255 C356.704,90.5084 355.967,91.0876 355.026,91.7638 C354.083,92.4394 352.926,93.0914 351.549,93.7188 C350.173,94.3468 348.579,94.8779 346.769,95.3126 C344.958,95.7473 342.942,95.9641 340.722,95.9641 C337.051,95.9641 333.925,95.3728 331.342,94.1896 C328.759,93.0071 326.647,91.3291 325.005,89.1561 C323.362,86.9831 322.156,84.364 321.383,81.2981 C320.611,78.2316 320.225,74.8398 320.225,71.1218 L320.225,65.545 C320.225,61.9719 320.634,58.7368 321.456,55.8397 C322.277,52.9427 323.508,50.4802 325.15,48.4522 C326.791,46.4242 328.843,44.8671 331.306,43.7807 C333.768,42.6942 336.617,42.1511 339.852,42.1511 C343.232,42.1511 346.274,42.6098 348.978,43.5272 C351.682,44.4446 353.999,45.6034 355.931,47.0037 L354.193,49.4662 C352.068,48.0176 349.919,46.9433 347.746,46.2432 C345.574,45.543 342.942,45.193 339.852,45.193 C337.245,45.193 334.916,45.6517 332.862,46.5691 C330.811,47.4865 329.097,48.7902 327.721,50.4802 C326.344,52.1702 325.294,54.2222 324.57,56.6364 C323.845,59.0507 323.484,61.7304 323.484,64.6758 L323.484,71.9186 C323.484,78.8234 324.956,84.0503 327.902,87.5991 C330.846,91.1479 335.168,92.9222 340.867,92.9222 C342.604,92.9222 344.21,92.7536 345.682,92.4153 C347.156,92.0775 348.508,91.6428 349.738,91.1117 C350.969,90.5807 352.056,90.0014 352.998,89.3734 C353.939,88.7455 354.724,88.1663 355.352,87.6352 L357.235,90.0255 Z" style="stroke:none;fill-rule:evenodd;fill:#000000;fill-opacity:1;"/>
        </g>
        <g id="Shape8">
            <desc shapeID="8" type="0" basicInfo-basicType="0" basicInfo-roundedRectRadius="12" basicInfo-polygonSides="6" basicInfo-starPoints="5" bounding="rect(-210.099,-45.55,420.199,91.1)" text="레이지픽" font-familyName="나눔스퀘어" font-pixelSize="100" font-bold="0" font-underline="0" font-alignment="1" strokeStyle="0" markerStart="0" markerEnd="0" shadowEnabled="0" shadowOffsetX="0" shadowOffsetY="2" shadowBlur="4" shadowOpacity="160" blurEnabled="0" blurRadius="4" transform="matrix(0.733358,0,0,0.733358,199.064,193.45)" pers-center="0,0" pers-size="0,0" pers-start="0,0" pers-end="0,0" locked="0" mesh="" flag=""/>
            <path id="shapePath8" d="M94.9283,160.046 L98.0818,160.046 L98.0818,226.488 L94.9283,226.488 L94.9283,160.046 M71.5343,185.347 L82.388,185.347 L82.388,161.439 L85.5412,161.439 L85.5412,223.188 L82.388,223.188 L82.388,188.353 L71.5343,188.353 L71.5343,185.347 M48.0669,188.427 L48.0669,205.881 L53.787,205.881 C55.0582,205.881 56.5738,205.844 58.3338,205.771 C60.0939,205.697 61.9517,205.6 63.9074,205.477 C65.863,205.356 67.8185,205.196 69.7743,205.001 C71.7298,204.806 73.5143,204.561 75.1277,204.268 L75.4944,207.128 C73.7343,207.421 71.791,207.678 69.6643,207.897 C67.5375,208.117 65.4352,208.301 63.3573,208.447 C61.2794,208.594 59.3117,208.692 57.4538,208.741 C55.5959,208.79 54.0804,208.814 52.907,208.814 L44.9867,208.814 L44.9867,185.566 L64.2007,185.566 L64.2007,168.919 L44.9867,168.919 L44.9867,166.06 L67.2808,166.06 L67.2808,188.427 L48.0669,188.427 M180.489,226.488 L180.489,160.046 L183.642,160.046 L183.642,226.488 L180.489,226.488 M149.101,209.695 C146.413,209.695 144.066,209.23 142.061,208.301 C140.056,207.372 138.382,206.064 137.037,204.377 C135.693,202.691 134.691,200.661 134.031,198.291 C133.371,195.919 133.041,193.316 133.041,190.48 L133.041,184.1 C133.041,181.264 133.371,178.661 134.031,176.29 C134.691,173.919 135.693,171.89 137.037,170.203 C138.382,168.517 140.056,167.208 142.061,166.28 C144.066,165.351 146.413,164.886 149.101,164.886 C151.79,164.886 154.137,165.351 156.142,166.28 C158.146,167.208 159.821,168.517 161.165,170.203 C162.51,171.89 163.512,173.919 164.172,176.29 C164.832,178.661 165.162,181.264 165.162,184.1 L165.162,190.48 C165.162,193.316 164.832,195.919 164.172,198.291 C163.512,200.661 162.51,202.691 161.165,204.377 C159.821,206.064 158.146,207.372 156.142,208.301 C154.137,209.23 151.79,209.695 149.101,209.695 M149.101,167.82 C146.901,167.82 144.995,168.223 143.381,169.03 C141.768,169.836 140.436,170.986 139.384,172.476 C138.333,173.968 137.539,175.764 137.001,177.867 C136.464,179.969 136.195,182.34 136.195,184.98 L136.195,189.6 C136.195,192.24 136.464,194.612 137.001,196.714 C137.539,198.817 138.333,200.612 139.384,202.105 C140.436,203.595 141.768,204.744 143.381,205.551 C144.995,206.358 146.901,206.761 149.101,206.761 C151.302,206.761 153.208,206.358 154.821,205.551 C156.435,204.744 157.766,203.595 158.818,202.105 C159.869,200.612 160.664,198.817 161.202,196.714 C161.74,194.612 162.009,192.24 162.009,189.6 L162.009,184.98 C162.009,182.34 161.74,179.969 161.202,177.867 C160.664,175.764 159.869,173.968 158.818,172.476 C157.766,170.986 156.435,169.836 154.821,169.03 C153.208,168.223 151.302,167.82 149.101,167.82 M233.835,190.48 C233.736,191.067 233.455,191.727 232.991,192.461 C232.526,193.194 232.001,193.939 231.414,194.697 C230.827,195.455 230.192,196.213 229.508,196.97 C228.823,197.728 228.212,198.4 227.673,198.988 C227.136,199.574 226.452,200.307 225.62,201.188 C224.789,202.068 223.861,203.008 222.834,204.011 C221.807,205.013 220.744,206.04 219.644,207.091 C218.544,208.142 217.456,209.132 216.38,210.061 L214.254,207.788 C216.747,205.588 219.045,203.461 221.147,201.407 C223.249,199.354 225.205,197.3 227.015,195.248 C228.187,193.879 229.116,192.693 229.8,191.69 C230.485,190.688 230.999,189.698 231.341,188.72 C231.683,187.743 231.903,186.716 232.001,185.64 C232.099,184.565 232.147,183.269 232.147,181.754 L232.147,169.14 L215.94,169.14 L215.94,166.28 L251.508,166.28 L251.508,169.14 L235.301,169.14 L235.301,181.754 C235.301,183.22 235.362,184.492 235.485,185.566 C235.606,186.643 235.851,187.62 236.218,188.5 C236.584,189.38 237.073,190.248 237.684,191.103 C238.295,191.96 239.114,192.924 240.141,194 C241.901,195.907 243.881,197.923 246.081,200.051 C248.282,202.177 250.554,204.341 252.902,206.541 L250.774,208.668 C248.721,206.809 246.681,204.878 244.651,202.874 C242.622,200.87 240.776,199.011 239.114,197.3 C238.675,196.811 238.173,196.286 237.611,195.723 C237.048,195.162 236.511,194.575 235.997,193.965 C235.485,193.353 235.044,192.753 234.678,192.167 C234.311,191.58 234.055,191.018 233.907,190.48 L233.835,190.48 M264.049,226.488 L264.049,160.046 L267.201,160.046 L267.201,226.488 L264.049,226.488 M307.601,191.286 L307.601,167.013 L300.781,167.013 L300.781,164.153 L337.596,164.153 L337.596,167.013 L329.382,167.013 L329.382,191.14 C331.094,191.043 332.853,190.921 334.662,190.773 C336.471,190.627 338.403,190.432 340.455,190.186 L340.749,192.973 C336.935,193.512 333.036,193.841 329.051,193.965 C325.068,194.086 320.924,194.147 316.622,194.147 L300.268,194.147 L300.268,191.286 L307.601,191.286 M318.088,191.286 C319.506,191.286 320.875,191.286 322.195,191.286 C323.515,191.286 324.859,191.263 326.228,191.214 L326.228,167.013 L310.755,167.013 L310.755,191.286 L318.088,191.286 M311.415,203.094 L353.143,203.094 L353.143,226.855 L350.063,226.855 L350.063,206.027 L311.415,206.027 L311.415,203.094 M349.99,198.694 L349.99,160.046 L353.143,160.046 L353.143,198.694 L349.99,198.694 Z" style="stroke:none;fill-rule:evenodd;fill:#000000;fill-opacity:1;"/>
        </g>
        <g id="Shape9">
            <desc shapeID="9" type="0" basicInfo-basicType="0" basicInfo-roundedRectRadius="12" basicInfo-polygonSides="6" basicInfo-starPoints="5" bounding="rect(-221.625,-46.1466,443.249,92.2934)" text="來利之被" font-familyName="Myanmar MN" font-pixelSize="100" font-bold="0" font-underline="0" font-alignment="1" strokeStyle="0" markerStart="0" markerEnd="0" shadowEnabled="0" shadowOffsetX="0" shadowOffsetY="2" shadowBlur="4" shadowOpacity="160" blurEnabled="0" blurRadius="4" transform="matrix(0.725123,0,0,0.725123,200,324.387)" pers-center="0,0" pers-size="0,0" pers-start="0,0" pers-end="0,0" locked="0" mesh="" flag=""/>
            <path id="shapePath9" d="M107.208,344.903 C107.208,345.091 106.725,345.374 105.758,345.752 C104.791,346.129 104.119,346.447 103.742,346.706 C103.364,346.965 102.634,347.614 101.549,348.651 C100.842,349.313 100.275,349.642 99.8511,349.642 C98.4363,349.265 96.2668,348.086 93.343,346.105 C90.7021,344.313 87.9665,342.155 85.1369,339.632 C82.3072,337.109 79.6426,334.032 77.143,330.4 C76.3412,329.221 75.3743,327.665 74.2425,325.731 C74.3368,330.919 74.4076,336.295 74.4547,341.86 C74.5019,347.426 74.5254,351.222 74.5254,353.25 L74.7376,355.868 C74.7376,356.434 74.5843,356.87 74.2778,357.177 C73.9713,357.483 73.3699,357.708 72.4739,357.849 C71.4363,357.849 70.8232,357.777 70.6345,357.636 C70.3988,357.495 70.2809,357.094 70.2809,356.434 L70.5639,352.259 C70.5639,350.327 70.5874,347.709 70.6345,344.407 C70.6817,341.106 70.7289,337.805 70.776,334.503 L70.776,329.693 C70.0215,330.495 69.3611,331.179 68.7952,331.744 C65.4467,335.046 61.485,338.63 56.9103,342.496 C55.4011,343.77 52.5949,345.822 48.4917,348.651 C43.634,352 40.6628,353.675 39.5781,353.675 L39.2951,353.533 C39.3422,353.392 39.3658,353.298 39.3658,353.25 C39.4601,353.109 39.6252,352.967 39.861,352.826 C41.0873,352.165 43.6576,350.255 47.5721,347.096 C50.0716,345.115 52.7129,342.839 55.4954,340.269 C58.278,337.699 60.9898,334.88 63.631,331.815 C65.0929,330.07 66.838,327.806 68.866,325.024 C69.479,324.127 70.1157,323.232 70.776,322.335 L70.776,305.498 L55.1416,305.357 C55.9435,305.687 56.8395,306.159 57.83,306.771 C59.2448,307.62 59.9522,308.257 59.9522,308.682 C59.9522,308.965 59.575,309.248 58.8203,309.531 C58.0657,309.814 57.6649,310.002 57.6177,310.096 L53.6561,316.463 C55.1181,316.935 56.2264,317.336 56.981,317.667 C59.3391,318.657 60.9898,319.624 61.9331,320.566 C62.499,321.132 62.9588,321.769 63.3126,322.477 C63.6663,323.185 63.8432,323.915 63.8432,324.67 C63.8432,325.283 63.6545,325.86 63.2771,326.403 C62.8999,326.946 62.4283,327.217 61.8623,327.217 C61.3907,327.217 60.8011,326.674 60.0937,325.589 C58.9147,323.798 58.0657,322.548 57.547,321.84 C56.8395,320.897 55.8727,319.859 54.6465,318.728 C54.2692,318.397 53.7504,317.949 53.0901,317.383 C52.7599,318.373 50.9913,320.708 47.7843,324.387 C44.5773,328.066 42.5729,329.905 41.7712,329.905 L41.5589,329.693 L41.8418,329.056 C46.0393,323.585 49.152,318.845 51.18,314.837 C52.8307,311.535 53.939,308.375 54.5049,305.357 L46.1573,305.286 C45.5441,305.286 44.872,305.368 44.141,305.533 C43.4101,305.698 42.785,305.828 42.2663,305.923 L41.2759,303.376 C41.4646,303.376 42.0895,303.435 43.1507,303.553 C44.2118,303.671 44.8131,303.729 44.9545,303.729 L70.776,303.729 L70.776,298.635 L70.1394,291.916 C71.9315,292.152 73.4525,292.493 74.7023,292.941 C75.9521,293.389 76.5771,293.825 76.5771,294.25 C76.5771,294.627 76.1879,295.111 75.4098,295.7 C74.6316,296.29 74.2425,296.608 74.2425,296.655 L74.2425,303.729 L94.8996,303.729 L98.0119,299.98 C99.191,300.97 100.087,301.749 100.7,302.315 C102.068,303.588 102.751,304.437 102.751,304.862 C102.751,305.145 102.35,305.286 101.549,305.286 L88.4621,305.286 C89.3579,305.804 90.2543,306.3 91.15,306.771 C92.4708,307.573 93.1309,308.21 93.1309,308.682 C93.1309,309.012 92.7656,309.306 92.0343,309.566 C91.3032,309.825 90.9143,310.002 90.8673,310.096 L86.9056,316.463 C88.6038,317.124 89.9239,317.667 90.8673,318.091 C93.697,319.364 95.5831,320.473 96.526,321.416 C97.8467,322.642 98.5068,323.986 98.5068,325.448 C98.5068,325.966 98.3067,326.532 97.9058,327.146 C97.505,327.758 97.045,328.066 96.526,328.066 C96.0545,328.066 95.4651,327.523 94.7579,326.438 C93.5788,324.646 92.73,323.397 92.211,322.689 C91.4569,321.699 90.2543,320.52 88.6038,319.152 C88.0847,318.728 87.33,318.138 86.3396,317.383 C86.1038,318.138 84.9955,319.836 83.0147,322.477 C80.8452,325.354 79.4775,326.793 78.9116,326.793 L78.6994,326.509 L78.9823,325.873 C80.633,323.703 82.3308,320.449 84.0759,316.11 C85.5848,312.337 86.7404,308.729 87.5422,305.286 L74.2425,305.286 L74.2425,322.123 C75.28,324.104 76.2705,325.731 77.2138,327.005 C79.9964,330.73 83.4863,334.055 87.6838,336.979 C90.6075,339.007 93.9091,340.729 97.5875,342.144 C100.558,343.275 102.904,343.96 104.626,344.195 C106.348,344.431 107.208,344.667 107.208,344.903 M171.608,298.211 C171.608,298.542 171.206,298.896 170.405,299.272 C169.603,299.65 169.202,299.886 169.202,299.98 C169.202,302.527 169.226,305.757 169.274,309.672 C169.321,313.587 169.38,318.22 169.45,323.573 C169.521,328.926 169.556,333.323 169.556,336.767 L169.627,338.324 C169.627,339.361 169.497,340.009 169.238,340.269 C168.978,340.529 168.26,340.752 167.08,340.941 C166.325,340.941 165.76,340.894 165.382,340.799 C165.242,340.799 165.076,340.729 164.887,340.587 L165.17,336.413 C165.17,335.894 165.217,333.23 165.311,328.419 C165.406,323.609 165.454,319.576 165.454,316.322 C165.454,312.407 165.429,309.13 165.382,306.488 C165.335,303.847 165.288,301.395 165.242,299.131 C165.242,298.283 165.123,297.198 164.887,295.877 C164.887,295.641 164.817,295.335 164.675,294.958 C165.005,294.958 166.243,295.417 168.389,296.337 C170.535,297.256 171.608,297.882 171.608,298.211 M161.138,313.209 C161.138,313.445 160.95,313.61 160.572,313.704 C160.336,313.751 159.817,313.775 159.015,313.775 L145.291,313.775 L145.291,318.94 C147.178,319.741 148.64,320.378 149.677,320.85 C152.979,322.406 155.266,323.798 156.54,325.024 C157.624,326.061 158.166,327.193 158.166,328.419 C158.166,329.127 157.978,329.834 157.601,330.541 C157.223,331.249 156.705,331.603 156.044,331.603 C155.431,331.603 154.865,331.155 154.346,330.258 C153.214,328.373 152.46,327.193 152.083,326.721 C150.432,324.646 148.805,322.83 147.201,321.275 C146.683,320.802 146.046,320.237 145.291,319.576 L145.716,352.684 C145.716,353.628 145.551,354.253 145.22,354.559 C144.89,354.865 144.136,355.09 142.957,355.231 C142.155,355.231 141.577,355.184 141.224,355.09 C140.87,354.995 140.575,354.901 140.339,354.806 L140.622,351.835 C140.622,348.817 140.764,342.874 141.047,334.008 C141.141,331.084 141.282,326.933 141.471,321.557 C140.669,322.783 140.009,323.773 139.49,324.528 C137.934,326.793 136.401,328.867 134.892,330.754 C133.383,332.499 131.732,334.268 129.939,336.06 C127.063,338.889 125.201,340.304 124.351,340.304 L124.139,340.162 L124.351,339.809 C127.275,336.884 130.4,332.758 133.725,327.429 C137.05,322.099 139.349,317.548 140.622,313.775 L134.963,313.775 C134.114,313.775 132.652,313.823 130.577,313.916 C128.501,314.011 127.393,314.059 127.252,314.059 C126.874,314.059 126.497,313.775 126.119,313.209 C125.742,312.643 125.553,312.148 125.553,311.724 L128.313,312.148 L141.612,312.148 L141.612,298.919 C140.151,299.437 137.686,299.768 134.22,299.909 C130.753,300.051 128.973,300.121 128.878,300.121 C128.549,300.121 128.266,300.051 128.03,299.909 C127.983,299.909 127.935,299.839 127.888,299.697 C128.124,299.509 128.336,299.414 128.525,299.414 C130.694,299.131 133.36,298.589 136.519,297.787 C141.565,296.514 145.786,295.075 149.182,293.472 C149.842,293.094 150.503,292.482 151.163,291.633 C151.257,291.491 151.422,291.255 151.658,290.925 C152.932,291.585 154.087,292.269 155.124,292.977 C156.964,294.203 157.883,295.075 157.883,295.594 C157.883,295.972 157.458,296.184 156.61,296.231 C155.761,296.278 155.007,296.302 154.346,296.302 C154.299,296.349 152.92,296.655 150.208,297.221 C147.496,297.787 145.857,298.164 145.291,298.353 L145.291,312.148 L152.436,312.148 L155.903,308.116 C157.082,309.106 157.954,309.837 158.52,310.309 C160.265,311.865 161.138,312.833 161.138,313.209 M187.242,294.109 C187.242,294.439 186.853,294.922 186.075,295.559 C185.296,296.195 184.908,296.608 184.908,296.797 L184.766,323.609 L184.978,346.6 C184.978,348.251 184.92,349.43 184.802,350.137 C184.684,350.845 184.342,351.588 183.776,352.366 C183.21,353.144 182.302,353.851 181.052,354.488 C179.802,355.124 178.706,355.443 177.763,355.443 C177.574,355.349 177.386,355.042 177.197,354.524 C177.008,354.004 176.749,353.604 176.419,353.321 C175.38,352.472 174.107,351.741 172.598,351.128 C171.608,350.798 170.617,350.467 169.627,350.137 C169.438,350.09 169.25,349.925 169.062,349.642 C169.344,349.501 169.603,349.43 169.84,349.43 L176.843,349.642 L178.116,349.642 C179.531,349.642 180.368,349.465 180.628,349.112 C180.888,348.757 181.017,347.567 181.017,345.539 C180.97,341.578 180.922,336.685 180.875,330.86 C180.828,325.035 180.769,318.999 180.698,312.749 C180.628,306.5 180.569,300.947 180.521,296.089 C180.521,295.288 180.357,294.274 180.027,293.047 C179.932,292.623 179.743,292.033 179.46,291.278 C180.592,291.278 182.432,291.75 184.978,292.694 C186.487,293.26 187.242,293.731 187.242,294.109 M276.144,347.025 C276.144,347.261 275.767,347.685 275.013,348.298 C274.588,348.675 274.117,349.053 273.597,349.43 C272.654,350.184 271.664,351.482 270.626,353.321 C270.391,353.745 268.387,353.957 264.613,353.957 C259.614,353.957 255.063,353.816 250.959,353.533 C245.111,353.109 240.231,352.448 236.315,351.553 C231.317,350.373 227.461,348.545 224.749,346.07 C222.038,343.594 220.681,340.941 220.681,338.111 C220.21,339.101 219.809,339.88 219.479,340.445 C218.536,342.19 217.592,343.747 216.649,345.115 C216.413,345.492 215.541,346.931 214.032,349.43 C213.088,351.033 212.569,351.859 212.475,351.906 C212.334,352.519 212.216,353.061 212.122,353.533 C211.885,354.477 211.555,354.948 211.131,354.948 C210.753,354.948 209.916,353.875 208.62,351.729 C207.323,349.584 206.674,348.322 206.674,347.945 C207.617,347.661 208.372,347.402 208.939,347.166 C210.636,346.412 212.097,345.468 213.324,344.337 C215.541,342.261 217.227,340.375 218.382,338.677 C219.538,336.979 220.256,335.281 220.54,333.583 C220.681,332.782 220.918,332.381 221.247,332.381 C221.436,332.522 221.554,332.64 221.601,332.734 C221.789,332.971 221.908,333.183 221.955,333.371 L221.955,336.625 C221.955,337.474 222.144,338.63 222.521,340.092 C222.898,341.554 223.299,342.284 223.724,342.284 C223.864,342.284 224.714,341.743 226.271,340.658 C228.346,339.243 230.491,337.615 232.707,335.777 C235.679,333.371 238.58,330.73 241.409,327.854 C244.051,325.212 246.621,322.312 249.12,319.152 C250.771,317.077 252.492,314.742 254.285,312.148 C254.898,311.205 255.534,310.262 256.195,309.318 L240.56,309.248 C235.608,309.248 230.727,309.259 225.916,309.283 C221.106,309.306 218.418,309.389 217.852,309.531 C217.286,309.672 216.885,309.743 216.649,309.743 C216.224,309.743 215.73,309.365 215.163,308.61 C214.598,307.857 214.314,307.267 214.314,306.842 C215.399,307.031 216.436,307.184 217.427,307.302 C218.418,307.42 219.219,307.48 219.832,307.48 L237.094,307.549 L237.023,299.272 C237.023,298.376 236.905,297.15 236.67,295.594 C236.623,295.123 236.505,294.439 236.315,293.543 C237.306,293.543 238.839,293.814 240.914,294.356 C242.989,294.899 244.027,295.476 244.027,296.089 C244.027,296.466 243.732,296.891 243.143,297.362 C242.553,297.835 241.951,298.307 241.339,298.778 L241.339,307.48 L256.265,307.48 L258.954,304.649 C259.19,304.649 260.168,305.227 261.889,306.382 C263.611,307.538 264.471,308.304 264.471,308.682 C264.471,309.153 263.776,309.684 262.385,310.273 C260.993,310.863 260.274,311.181 260.227,311.228 C259.614,312.078 259.001,312.902 258.388,313.704 C256.832,315.685 255.063,317.783 253.082,320.001 C250.346,323.02 247.482,325.908 244.486,328.667 C241.492,331.425 238.273,334.055 234.83,336.555 C232.331,338.347 229.855,339.998 227.402,341.506 C225.516,342.639 224.526,343.205 224.43,343.205 C224.43,343.393 225.115,343.913 226.483,344.761 C230.019,346.931 234.005,348.274 238.438,348.794 C240.419,349.029 242.482,349.194 244.628,349.289 C246.774,349.383 248.861,349.43 250.889,349.43 C256.218,349.43 261.548,349.1 266.877,348.439 C270.744,347.968 273.527,347.497 275.225,347.025 L275.861,346.883 L276.144,347.025 M360.705,350.633 C360.705,350.869 360.352,351.151 359.644,351.482 C357.286,352.614 356.012,353.25 355.824,353.392 C355.588,353.58 355.234,353.922 354.763,354.418 C354.291,354.912 353.985,355.184 353.843,355.231 C353.183,355.231 351.886,354.689 349.952,353.604 C348.018,352.519 346.086,351.222 344.151,349.713 C342.548,348.439 341.086,347.166 339.765,345.892 C339.341,345.516 338.845,345.021 338.279,344.407 C337.478,345.115 336.676,345.798 335.874,346.459 C333.799,348.062 331.441,349.548 328.8,350.916 C325.074,352.849 321.277,354.288 317.41,355.231 C316.938,355.373 316.372,355.502 315.712,355.62 C315.052,355.738 314.604,355.797 314.368,355.797 L314.014,355.655 C314.156,355.608 314.25,355.561 314.297,355.514 C314.863,355.184 315.358,354.948 315.783,354.806 C317.056,354.477 318.377,354.004 319.744,353.392 C321.537,352.637 323.517,351.623 325.687,350.349 C328.847,348.557 331.629,346.647 334.035,344.619 C334.79,344.006 335.615,343.229 336.51,342.284 C335.662,341.247 335.002,340.352 334.53,339.597 C333.021,337.286 331.748,334.74 330.71,331.957 C329.908,329.787 329.225,327.594 328.658,325.377 C328.517,324.717 328.352,323.938 328.164,323.043 L324.555,323.043 C324.555,329.41 323.612,335.093 321.725,340.092 C319.509,345.988 316.042,350.609 311.326,353.957 C310.383,354.618 309.699,354.948 309.275,354.948 C309.369,354.759 309.44,354.618 309.487,354.524 C309.722,354.194 310.077,353.84 310.548,353.462 C311.68,352.661 312.883,351.269 314.156,349.289 C316.042,346.365 317.575,342.851 318.754,338.748 C320.311,333.323 321.089,327.381 321.089,320.92 C321.089,315.497 320.995,311.004 320.806,307.443 C320.617,303.883 320.381,301.678 320.099,300.829 C320.571,300.829 321.407,301.206 322.609,301.961 C323.813,302.716 324.673,303.353 325.193,303.872 L334.176,303.872 L334.176,296.302 C334.176,295.453 334.094,294.462 333.929,293.331 C333.764,292.199 333.634,291.515 333.54,291.278 C334.388,291.278 335.686,291.468 337.431,291.845 C339.176,292.222 340.048,292.623 340.048,293.047 C340.048,293.283 339.553,293.802 338.562,294.604 C338.043,295.028 337.784,295.358 337.784,295.594 L337.784,303.872 L346.557,303.872 L348.608,301.182 C348.938,301.182 350.106,301.831 352.11,303.128 C354.114,304.425 355.116,305.263 355.116,305.639 C355.116,305.97 354.409,306.206 352.994,306.347 C351.579,306.488 350.754,306.63 350.518,306.771 C350.141,307.149 349.28,307.832 347.936,308.823 C346.592,309.814 345.755,310.309 345.424,310.309 L345.284,310.096 L345.708,308.894 C345.849,308.517 346.086,307.762 346.414,306.63 C346.463,306.3 346.58,305.852 346.769,305.286 L337.784,305.286 L337.784,321.628 L344.859,321.628 L346.981,319.081 C347.924,319.6 348.892,320.118 349.882,320.638 C351.391,321.534 352.145,322.194 352.145,322.618 C352.145,322.901 351.91,323.137 351.438,323.326 C350.165,323.891 349.504,324.246 349.457,324.387 C348.938,325.802 348.537,326.91 348.254,327.711 C347.312,330.258 346.557,332.121 345.99,333.301 C344.623,335.989 343.161,338.464 341.604,340.729 C341.369,341.106 341.039,341.554 340.614,342.072 C341.039,342.403 341.392,342.686 341.675,342.922 C343.42,344.195 345.437,345.468 347.724,346.742 C350.012,348.015 352.476,348.982 355.116,349.642 C356.956,349.972 358.819,350.303 360.705,350.633 M317.552,321.132 C317.552,321.463 317.163,321.734 316.385,321.946 C315.606,322.159 315.17,322.312 315.075,322.406 C315.075,322.548 314.344,323.208 312.883,324.387 C311.043,325.849 309.204,327.311 307.365,328.773 C308.214,328.773 309.769,329.646 312.034,331.391 C314.58,333.371 315.854,335.093 315.854,336.555 C315.854,337.074 315.689,337.569 315.358,338.04 C315.028,338.512 314.604,338.748 314.085,338.748 C313.425,338.748 312.706,338.135 311.928,336.908 C311.149,335.682 310.383,334.456 309.628,333.23 C308.592,331.815 307.624,330.73 306.728,329.976 C306.068,329.551 305.408,329.127 304.747,328.703 L304.676,341.082 C304.676,343.488 304.688,345.739 304.712,347.839 C304.735,349.937 304.794,351.506 304.888,352.543 L305.1,354.736 C305.1,355.585 304.747,356.21 304.039,356.61 C303.333,357.012 302.531,357.212 301.635,357.212 C301.352,357.212 301.069,357.165 300.786,357.071 C300.739,357.071 300.644,357.023 300.503,356.929 L300.786,352.755 C300.834,352.472 300.881,349.725 300.927,344.513 C300.974,339.302 301.01,335.033 301.033,331.709 C301.057,328.384 301.093,325.519 301.14,323.113 C301.14,323.726 299.348,325.519 295.763,328.49 C292.179,331.461 290.104,332.947 289.538,332.947 C289.397,332.57 289.585,332.193 290.104,331.815 C291.236,330.872 292.651,329.387 294.348,327.358 C296.236,325.095 298.074,322.76 299.866,320.354 C302.649,316.581 304.771,313.162 306.233,310.096 C306.704,309.059 307.176,307.832 307.647,306.418 L302.696,306.347 C300.904,306.347 299.395,306.371 298.168,306.418 C296.942,306.466 296.14,306.583 295.763,306.771 L294.985,306.984 C294.56,306.984 294.007,306.689 293.323,306.1 C292.638,305.51 292.297,305.026 292.297,304.649 L301.352,304.79 L301.423,295.736 C301.423,294.934 301.364,294.227 301.246,293.613 C301.128,293 300.998,292.434 300.857,291.916 C301.8,291.916 303.121,292.08 304.818,292.411 C306.516,292.741 307.365,293.166 307.365,293.684 C307.365,293.872 306.846,294.344 305.808,295.099 C305.29,295.476 305.031,295.807 305.031,296.089 L305.031,304.79 L308.002,304.79 L310.336,302.174 C310.571,302.174 311.385,302.751 312.777,303.906 C314.168,305.062 314.863,305.804 314.863,306.135 C314.863,306.512 314.333,306.831 313.271,307.09 C312.21,307.35 311.61,307.62 311.467,307.904 C311.467,308.422 310.077,310.828 307.294,315.12 C305.832,317.383 304.984,318.751 304.747,319.222 L304.747,327.571 L306.516,328.278 C309.628,325.164 311.892,321.534 313.307,317.383 C313.589,317.383 314.368,317.914 315.642,318.975 C316.915,320.036 317.552,320.755 317.552,321.132 M334.176,321.628 L334.176,305.286 L324.768,305.286 L324.626,321.628 L334.176,321.628 M345.212,323.043 L329.366,323.043 C329.507,323.844 329.649,324.528 329.791,325.095 C330.262,326.697 331.099,328.714 332.302,331.143 C333.504,333.572 334.648,335.517 335.733,336.979 C336.44,337.923 337.265,338.819 338.209,339.668 C339.529,338.252 341.027,335.588 342.701,331.674 C344.375,327.758 345.212,324.882 345.212,323.043 Z" style="stroke:none;fill-rule:evenodd;fill:#000000;fill-opacity:1;"/>
        </g>
    </g>
</svg>
