<svg width="200" height="200" xmlns="http://www.w3.org/2000/svg" stroke="null" style="vector-effect: non-scaling-stroke;" preserveAspectRatio="xMidYMid meet" version="1.0">
 <metadata stroke="null" style="vector-effect: non-scaling-stroke;">Created by potrace 1.16, written by Peter Selinger 2001-2019</metadata>

 <g stroke="null">
  <title stroke="null">Layer 1</title>
  <g stroke="null" id="svg_1" fill="#000000" transform="translate(0 518) scale(0.1 -0.1)">
   <path stroke="null" id="svg_2" d="m1302.7702,5142.3375c9.34677,-30.88498 52.82957,-108.91019 60.55081,-108.91019c7.31486,0 65.42739,40.23175 79.65073,55.26786l14.22335,14.62973l-14.22335,-2.84467c-11.37868,-2.43829 -36.16794,-11.37868 -67.05291,-24.38288c-2.03191,-1.21914 -8.94039,4.87658 -14.62973,13.41058c-16.66163,22.75735 -44.29556,53.23595 -53.23595,58.11252c-7.31486,4.06381 -7.72124,3.25105 -5.28296,-5.28296z"/>
   <path stroke="null" id="svg_3" d="m395.72716,5076.91011c-9.75315,-12.19144 -23.9765,-34.94879 -32.10412,-49.57852c-15.03611,-27.22755 -15.03611,-27.22755 -29.66583,-25.19564c-8.12763,1.21914 -23.57012,3.25105 -34.94879,4.87658l-20.31906,2.43829l11.78506,-9.75315c11.37868,-10.15953 65.02101,-39.41899 71.11673,-39.41899c2.84467,0 31.29136,53.64233 35.35517,67.05291c10.97229,34.13603 17.88078,62.17634 17.06801,66.64653c-0.81276,3.25105 -8.94039,-4.06381 -18.28716,-17.06801z"/>
   <path stroke="null" id="svg_4" d="m926.05475,5068.3761c-14.62973,-7.72124 -37.38708,-21.13183 -50.39128,-30.07222l-23.16373,-15.84887l-16.66163,9.34677c-25.60202,14.22335 -47.14023,22.35097 -47.14023,17.88078c0,-4.47019 60.55081,-65.02101 65.42739,-65.02101c8.12763,0 41.45089,26.41478 65.83377,52.42319c22.75735,24.38288 38.60622,45.10832 34.54241,45.10832c-0.81276,0 -13.41058,-6.09572 -28.44669,-13.81696z"/>
   <path stroke="null" id="svg_5" d="m1568.94995,4856.65145c0,-2.84467 29.25945,-109.72295 30.88498,-112.16124c1.62553,-2.84467 110.53571,39.0126 115.00591,43.88918c1.21914,1.21914 -6.5021,1.21914 -17.88078,0c-10.97229,-1.62553 -33.32327,-4.06381 -49.17214,-5.28296l-29.25945,-2.84467l-23.16373,39.41899c-21.13183,35.35517 -26.41478,42.67004 -26.41478,36.9807z"/>
   <path stroke="null" id="svg_6" d="m1101.61146,4789.59853c0,-6.5021 26.82117,-56.487 36.16794,-67.86568c6.90848,-8.12763 8.94039,-8.53401 20.31906,-4.06381c6.90848,2.43829 12.59782,6.09572 12.59782,7.72124c0,1.62553 2.43829,3.25105 5.28296,3.25105c2.43829,0 13.0042,7.31486 23.16373,16.66163l18.28716,16.25525l-22.35097,-2.03191c-12.19144,-0.81276 -26.82117,-2.84467 -32.5105,-4.06381c-7.31486,-1.62553 -13.0042,0.81276 -22.35097,9.34677c-18.69354,17.06801 -38.60622,30.07222 -38.60622,24.78926z"/>
   <path stroke="null" id="svg_7" d="m207.979,4774.96881c-2.84467,-6.09572 -6.09572,-23.57012 -7.31486,-38.19984l-2.43829,-26.82117l-22.75735,-12.19144c-12.59782,-6.5021 -22.35097,-13.41058 -21.53821,-15.84887c1.21914,-4.06381 58.11252,-4.47019 68.67844,0c5.28296,1.62553 6.09572,8.94039 4.47019,39.82537c-1.21914,20.31906 -4.47019,43.4828 -7.72124,51.20404l-6.09572,13.81696l-5.28296,-11.78506z"/>
   <path stroke="null" id="svg_8" d="m605.01352,4709.9478c-11.37868,-15.84887 -14.62973,-18.28716 -23.57012,-15.84887c-19.09992,4.47019 -69.08482,7.31486 -69.08482,3.65743c0,-10.56591 58.51891,-38.60622 83.30817,-39.41899l16.25525,-0.81276l6.90848,26.41478c12.59782,48.76576 8.53401,56.89338 -13.81696,26.0084z"/>
   <path stroke="null" id="svg_9" d="m963.44182,4559.18034c-14.22335,-19.5063 -14.22335,-19.5063 -64.61463,-32.5105c-27.22755,-6.90848 -50.79766,-13.81696 -52.01681,-14.62973c-0.81276,-1.21914 1.21914,-8.94039 4.87658,-17.06801c3.25105,-8.53401 5.28296,-16.25525 4.47019,-17.06801c-0.81276,-0.81276 -28.44669,0.40638 -61.36358,3.25105l-59.73805,5.28296l-14.22335,17.4744c-8.12763,9.75315 -15.84887,17.4744 -17.4744,17.4744c-2.03191,0 -11.37868,-6.5021 -21.13183,-14.62973l-17.4744,-14.62973l-2.03191,-37.38708l-2.03191,-36.9807l-44.70194,-8.12763l-44.70194,-8.12763l-1.21914,-29.25945c-0.81276,-25.19564 0.40638,-33.32327 10.97229,-58.11252c6.90848,-16.25525 10.15953,-28.44669 7.72124,-28.44669c-2.43829,0 -27.22755,7.31486 -54.45509,16.25525c-27.63393,8.94039 -52.01681,16.25525 -54.45509,16.25525c-2.43829,0 2.43829,-13.0042 10.15953,-28.44669l14.22335,-28.44669l-8.94039,-3.25105c-5.28296,-2.03191 -30.88498,-9.75315 -56.89338,-17.4744l-47.54661,-13.81696l-11.37868,-30.4786c-6.90848,-18.69354 -12.19144,-41.85727 -13.41058,-60.55081l-2.03191,-30.4786l-44.70194,-13.81696c-24.38288,-7.72124 -45.5147,-14.62973 -46.32747,-15.44249c-0.81276,-0.81276 11.78506,-23.9765 28.04031,-51.20404c26.82117,-44.70194 30.4786,-53.23595 35.35517,-84.12093c2.84467,-18.69354 4.87658,-34.54241 4.47019,-34.94879c-0.81276,-0.40638 -17.06801,-9.34677 -36.57432,-19.91268l-35.76155,-19.5063l0,-25.19564c0,-29.66583 0,-29.66583 44.70194,-54.86147l30.4786,-17.4744l42.67004,2.84467c41.85727,2.43829 43.07642,2.03191 62.9891,-9.34677l20.31906,-12.19144l40.23175,20.31906c22.35097,11.37868 58.51891,31.69774 80.05711,45.92109l39.41899,25.60202l41.85727,-8.12763c36.16794,-6.90848 45.5147,-10.56591 73.14863,-28.04031c29.25945,-18.69354 100.78256,-52.42319 111.34847,-52.42319c2.84467,0 11.78506,23.9765 20.31906,52.82957c8.53401,29.25945 16.25525,52.42319 16.66163,51.61042c0.81276,-0.40638 6.90848,-64.20824 14.22335,-141.01431c10.97229,-124.35268 12.19144,-150.76746 10.56591,-235.70115c-2.03191,-97.93789 -7.31486,-142.63983 -22.35097,-186.93539l-7.72124,-22.35097l-84.93369,-2.84467c-143.04622,-4.87658 -321.85398,-18.28716 -430.35779,-32.5105c-34.13603,-4.47019 -35.35517,-4.87658 -20.31906,-7.72124c21.13183,-4.06381 1206.13968,-4.06381 1227.27151,0l16.25525,2.84467l-20.31906,2.84467c-116.63143,16.25525 -308.03702,30.4786 -454.33429,34.13603c-124.35268,2.84467 -110.53571,-2.43829 -127.19734,47.54661c-5.68934,15.84887 -14.62973,52.82957 -19.91268,82.08902c-17.06801,91.43579 -22.35097,178.40139 -21.94459,353.14534l0,158.4887l28.44669,-97.53151c15.44249,-53.23595 28.44669,-99.15704 29.25945,-101.59532c0.81276,-2.03191 13.0042,18.69354 27.22755,46.73385c13.81696,28.04031 26.0084,51.61042 26.82117,52.42319c1.21914,1.21914 93.4677,16.25525 103.62723,16.66163c1.21914,0 22.75735,-17.06801 47.54661,-38.19984l45.92109,-38.19984l53.23595,21.94459c29.25945,12.19144 57.29976,21.94459 61.76996,21.94459c4.87658,0 46.73385,-10.15953 93.4677,-21.94459l85.34007,-22.35097l41.85727,23.16373c22.75735,12.59782 41.04451,25.19564 40.23175,27.22755c-0.81276,2.43829 -7.31486,29.25945 -15.03611,60.14443l-13.81696,56.487l52.42319,49.17214l52.42319,49.57852l-78.83797,52.42319c-72.74225,48.35937 -81.27626,55.26786 -111.34847,91.02941c-47.54661,56.487 -44.29556,48.76576 -34.94879,84.12093c4.87658,16.66163 8.53401,32.10412 8.53401,34.13603c0,2.03191 -13.41058,10.97229 -29.25945,19.91268c-18.69354,10.15953 -36.16794,24.38288 -47.14023,36.9807c-13.41058,16.25525 -53.64233,51.20404 -84.52731,74.36778c-2.43829,1.62553 -24.38288,-9.75315 -52.82957,-27.22755l-48.35937,-30.07222l-10.97229,43.4828c-7.72124,30.4786 -11.37868,54.04871 -11.37868,78.83797l0,35.35517l-13.0042,2.43829c-7.31486,1.21914 -41.85727,6.5021 -76.39968,11.78506l-62.9891,9.75315l-15.03611,-14.22335c-8.12763,-7.72124 -16.66163,-13.41058 -18.69354,-11.78506c-2.43829,1.21914 -13.0042,17.88078 -23.57012,36.9807c-10.56591,19.09992 -20.31906,34.54241 -21.53821,34.54241c-1.21914,0 -8.94039,-8.53401 -16.66163,-19.09992zm-115.81867,-223.10333c4.47019,-8.53401 14.22335,-17.88078 23.57012,-22.35097l15.84887,-8.12763l-17.88078,-11.37868c-10.56591,-6.5021 -20.31906,-17.06801 -23.16373,-24.38288c-3.25105,-6.90848 -6.90848,-12.59782 -8.53401,-12.59782c-1.62553,0 -5.28296,5.68934 -8.53401,12.59782c-2.84467,7.31486 -12.59782,17.88078 -23.16373,24.38288l-17.88078,11.37868l15.84887,8.12763c9.34677,4.47019 19.09992,13.81696 23.57012,22.35097c4.47019,8.12763 8.94039,14.62973 10.15953,14.62973c1.21914,0 5.68934,-6.5021 10.15953,-14.62973z"/>
   <path stroke="null" id="svg_10" d="m1256.03636,4567.71435c0,-15.84887 9.34677,-52.01681 19.5063,-73.9614l7.72124,-17.4744l24.78926,20.31906c13.41058,10.97229 28.44669,26.0084 33.32327,32.91688l8.94039,12.59782l-11.78506,-2.43829c-6.09572,-1.62553 -18.28716,-5.28296 -26.41478,-8.12763l-15.03611,-5.68934l-9.75315,17.06801c-5.68934,9.34677 -15.03611,21.53821 -20.72545,26.82117l-10.56591,9.75315l0,-11.78506z"/>
   <path stroke="null" id="svg_11" d="m1491.33112,4567.30797c-0.40638,-7.31486 -0.81276,-16.66163 -0.81276,-20.31906c-0.40638,-8.53401 4.87658,-41.85727 6.5021,-41.85727c0.81276,0 10.97229,2.84467 23.16373,6.5021c25.60202,7.72124 54.04871,24.78926 50.79766,30.07222c-1.21914,2.43829 -13.0042,4.06381 -25.60202,4.06381c-21.94459,0 -23.57012,0.81276 -38.19984,17.4744l-15.03611,17.06801l-0.81276,-13.0042z"/>
   <path stroke="null" id="svg_12" d="m1811.55958,4542.92509c-4.47019,-7.31486 -14.22335,-53.23595 -11.78506,-55.67424c4.87658,-5.28296 73.55501,-2.03191 94.28046,4.06381l21.94459,6.5021l-11.78506,6.5021c-6.90848,3.25105 -26.41478,7.31486 -43.88918,8.12763l-31.29136,2.03191l-7.31486,16.66163c-4.06381,9.34677 -8.53401,14.62973 -10.15953,11.78506z"/>
   <path stroke="null" id="svg_13" d="m263.24686,4371.83857c-3.65743,-9.34677 -6.90848,-19.5063 -6.90848,-22.75735c0,-2.84467 -6.90848,-7.31486 -15.03611,-9.75315c-19.09992,-5.68934 -41.85727,-19.5063 -41.85727,-25.19564c0,-5.68934 44.70194,-5.28296 67.86568,0.40638l18.28716,4.87658l-1.62553,20.72545c-1.21914,11.37868 -4.87658,27.22755 -8.12763,34.94879l-5.68934,13.81696l-6.90848,-17.06801z"/>
   <path stroke="null" id="svg_14" d="m1639.25391,4329.57491c-2.43829,-6.09572 -6.09572,-17.4744 -7.31486,-26.41478c-1.21914,-8.53401 -3.25105,-19.91268 -4.47019,-25.19564c-2.03191,-9.75315 -2.03191,-9.75315 26.0084,-7.31486c15.44249,1.21914 35.35517,5.28296 43.88918,8.94039l15.84887,6.90848l-16.25525,7.72124c-8.94039,4.06381 -20.72545,7.72124 -26.41478,7.72124c-8.12763,0 -11.78506,4.06381 -18.28716,19.09992l-8.12763,18.69354l-4.87658,-10.15953z"/>
  </g>
 </g>
</svg>