<?xml version="1.0"?>
<svg version="1.1" xmlns="http://www.w3.org/2000/svg" xmlns:xlink="http://www.w3.org/1999/xlink" width="370" height="370">
    <desc iVinci="yes" version="4.6" gridStep="20" showGrid="no" snapToGrid="no" codePlatform="0"/>
    <g id="Layer1" name="Layer 1" visibility="hidden" opacity="1">
        <g id="Shape1">
            <desc shapeID="1" type="0" basicInfo-basicType="1" basicInfo-roundedRectRadius="12" basicInfo-polygonSides="6" basicInfo-starPoints="5" bounding="rect(-3.624,-375.367,7.24799,750.734)" text="" font-familyName="나눔스퀘어" font-pixelSize="100" font-bold="0" font-underline="0" font-alignment="1" strokeStyle="0" markerStart="0" markerEnd="0" shadowEnabled="0" shadowOffsetX="0" shadowOffsetY="2" shadowBlur="4" shadowOpacity="160" blurEnabled="0" blurRadius="4" transform="matrix(1,0,0,1,300,310.649)" pers-center="0,0" pers-size="0,0" pers-start="0,0" pers-end="0,0" locked="0" mesh="" flag=""/>
            <path id="shapePath1" d="M296.376,-64.7184 L303.624,-64.7184 L303.624,686.016 L296.376,686.016 L296.376,-64.7184 Z" style="stroke:none;fill-rule:evenodd;fill:#e6e6e6;fill-opacity:1;"/>
        </g>
        <g id="Shape2">
            <desc shapeID="2" type="0" basicInfo-basicType="1" basicInfo-roundedRectRadius="12" basicInfo-polygonSides="6" basicInfo-starPoints="5" bounding="rect(-3.624,-375.367,7.24799,750.734)" text="" font-familyName="나눔스퀘어" font-pixelSize="100" font-bold="0" font-underline="0" font-alignment="1" strokeStyle="0" markerStart="0" markerEnd="0" shadowEnabled="0" shadowOffsetX="0" shadowOffsetY="2" shadowBlur="4" shadowOpacity="160" blurEnabled="0" blurRadius="4" transform="matrix(1,0,0,1,445.711,310.649)" pers-center="0,0" pers-size="0,0" pers-start="0,0" pers-end="0,0" locked="0" mesh="" flag=""/>
            <path id="shapePath2" d="M442.087,-64.7184 L449.335,-64.7184 L449.335,686.016 L442.087,686.016 L442.087,-64.7184 Z" style="stroke:none;fill-rule:evenodd;fill:#e6e6e6;fill-opacity:1;"/>
        </g>
        <g id="Shape3">
            <desc shapeID="3" type="0" basicInfo-basicType="1" basicInfo-roundedRectRadius="12" basicInfo-polygonSides="6" basicInfo-starPoints="5" bounding="rect(-3.624,-375.367,7.24799,750.734)" text="" font-familyName="나눔스퀘어" font-pixelSize="100" font-bold="0" font-underline="0" font-alignment="1" strokeStyle="0" markerStart="0" markerEnd="0" shadowEnabled="0" shadowOffsetX="0" shadowOffsetY="2" shadowBlur="4" shadowOpacity="160" blurEnabled="0" blurRadius="4" transform="matrix(1,0,0,1,158.431,310.649)" pers-center="0,0" pers-size="0,0" pers-start="0,0" pers-end="0,0" locked="0" mesh="" flag=""/>
            <path id="shapePath3" d="M154.807,-64.7184 L162.055,-64.7184 L162.055,686.016 L154.807,686.016 L154.807,-64.7184 Z" style="stroke:none;fill-rule:evenodd;fill:#e6e6e6;fill-opacity:1;"/>
        </g>
        <g id="Shape4">
            <desc shapeID="4" type="0" basicInfo-basicType="1" basicInfo-roundedRectRadius="12" basicInfo-polygonSides="6" basicInfo-starPoints="5" bounding="rect(-3.6242,-375.367,7.24838,750.734)" text="" font-familyName="나눔스퀘어" font-pixelSize="100" font-bold="0" font-underline="0" font-alignment="1" strokeStyle="0" markerStart="0" markerEnd="0" shadowEnabled="0" shadowOffsetX="0" shadowOffsetY="2" shadowBlur="4" shadowOpacity="160" blurEnabled="0" blurRadius="4" transform="matrix(-0.00335225,0.999994,-0.999994,-0.00335225,287.225,354.666)" pers-center="0,0" pers-size="0,0" pers-start="0,0" pers-end="0,0" locked="0" mesh="" flag=""/>
            <path id="shapePath4" d="M662.602,352.3 L662.578,359.548 L-88.1519,357.031 L-88.1276,349.783 L662.602,352.3 Z" style="stroke:none;fill-rule:evenodd;fill:#e6e6e6;fill-opacity:1;"/>
        </g>
        <g id="Shape5">
            <desc shapeID="5" type="0" basicInfo-basicType="1" basicInfo-roundedRectRadius="12" basicInfo-polygonSides="6" basicInfo-starPoints="5" bounding="rect(-3.62452,-375.367,7.24904,750.735)" text="" font-familyName="나눔스퀘어" font-pixelSize="100" font-bold="0" font-underline="0" font-alignment="1" strokeStyle="0" markerStart="0" markerEnd="0" shadowEnabled="0" shadowOffsetX="0" shadowOffsetY="2" shadowBlur="4" shadowOpacity="160" blurEnabled="0" blurRadius="4" transform="matrix(-0.00335225,0.999994,-0.999994,-0.00335225,318.459,182.497)" pers-center="0,0" pers-size="0,0" pers-start="0,0" pers-end="0,0" locked="0" mesh="" flag=""/>
            <path id="shapePath5" d="M693.835,180.131 L693.811,187.38 L-56.9191,184.863 L-56.8948,177.615 L693.835,180.131 Z" style="stroke:none;fill-rule:evenodd;fill:#e6e6e6;fill-opacity:1;"/>
        </g>
        <g id="Shape6">
            <desc shapeID="6" type="0" basicInfo-basicType="1" basicInfo-roundedRectRadius="12" basicInfo-polygonSides="6" basicInfo-starPoints="5" bounding="rect(-3.62467,-375.367,7.24933,750.735)" text="" font-familyName="나눔스퀘어" font-pixelSize="100" font-bold="0" font-underline="0" font-alignment="1" strokeStyle="0" markerStart="0" markerEnd="0" shadowEnabled="0" shadowOffsetX="0" shadowOffsetY="2" shadowBlur="4" shadowOpacity="160" blurEnabled="0" blurRadius="4" transform="matrix(-0.00335225,0.999994,-0.999994,-0.00335225,300.001,540.193)" pers-center="0,0" pers-size="0,0" pers-start="0,0" pers-end="0,0" locked="0" mesh="" flag=""/>
            <path id="shapePath6" d="M675.377,537.827 L675.353,545.076 L-75.3772,542.559 L-75.3529,535.31 L675.377,537.827 Z" style="stroke:none;fill-rule:evenodd;fill:#e6e6e6;fill-opacity:1;"/>
        </g>
    </g>
    <g id="Layer2" name="gmail" opacity="1">
        <g id="Shape7">
            <desc shapeID="7" type="0" basicInfo-basicType="0" basicInfo-roundedRectRadius="12" basicInfo-polygonSides="6" basicInfo-starPoints="5" bounding="rect(-217.491,-37.1499,434.981,74.2998)" text="LAZYPIC" font-familyName="나눔스퀘어" font-pixelSize="100" font-bold="0" font-underline="0" font-alignment="1" strokeStyle="0" markerStart="0" markerEnd="0" shadowEnabled="0" shadowOffsetX="0" shadowOffsetY="2" shadowBlur="4" shadowOpacity="160" blurEnabled="0" blurRadius="4" transform="matrix(0.724269,0,0,0.724269,184.714,54.0576)" pers-center="0,0" pers-size="0,0" pers-start="0,0" pers-end="0,0" locked="0" mesh="" flag=""/>
            <path id="shapePath7" d="M30.3781,27.9476 L30.3781,77.1978 L57.466,77.1978 L57.466,80.1674 L27.1915,80.1674 L27.1915,27.9476 L30.3781,27.9476 M104.544,63.2923 L80.9329,63.2923 L74.559,80.1674 L71.0826,80.1674 L91.2179,27.9476 L94.4049,27.9476 L114.322,80.1674 L110.773,80.1674 L104.544,63.2923 M82.0191,60.4673 L103.459,60.4673 L97.2289,43.5918 C96.4569,41.4674 95.6839,39.4032 94.9119,37.3994 C94.1389,35.3955 93.4389,33.3797 92.8109,31.3517 C92.2319,33.3797 91.5679,35.3955 90.8199,37.3994 C90.0709,39.4032 89.2869,41.4674 88.4649,43.5918 L82.0191,60.4673 M161.745,30.4826 L129.225,77.2707 L163.121,77.2707 L163.121,80.1674 L125.314,80.1674 L125.314,77.6325 L157.834,30.8448 L127.125,30.8448 L127.125,27.9476 L161.745,27.9476 L161.745,30.4826 M198.584,58.5118 L198.584,80.1674 L195.397,80.1674 L195.397,58.5118 L177.362,27.9476 L180.767,27.9476 L197.063,55.6147 L212.707,27.9476 L216.183,27.9476 L198.584,58.5118 M232.36,27.9476 L248.656,27.9476 C254.16,27.9476 258.337,29.2031 261.186,31.7138 C264.035,34.2247 265.459,37.8943 265.459,42.7228 L265.459,44.3161 C265.459,49.2412 263.998,52.947 261.077,55.4337 C258.156,57.9204 253.943,59.1637 248.439,59.1637 L235.546,59.1637 L235.546,80.1674 L232.36,80.1674 L232.36,27.9476 M235.546,30.9171 L235.546,56.1942 L248.076,56.1942 C250.684,56.1942 252.881,55.9165 254.668,55.3613 C256.454,54.806 257.914,54.0093 259.049,52.9712 C260.184,51.9331 260.992,50.6776 261.475,49.2049 C261.958,47.7323 262.2,46.0785 262.2,44.2437 L262.2,42.8676 C262.2,41.0811 261.958,39.4515 261.475,37.9788 C260.992,36.5061 260.208,35.2507 259.122,34.2127 C258.035,33.1745 256.635,32.3657 254.921,31.7863 C253.206,31.2069 251.119,30.9171 248.656,30.9171 L235.546,30.9171 M286.376,27.9476 L286.376,80.1674 L283.189,80.1674 L283.189,27.9476 L286.376,27.9476 M342.235,75.0254 C341.704,75.5083 340.967,76.0875 340.026,76.7637 C339.083,77.4393 337.926,78.0913 336.549,78.7187 C335.173,79.3467 333.579,79.8778 331.769,80.3125 C329.958,80.7472 327.942,80.9641 325.722,80.9641 C322.051,80.9641 318.925,80.3727 316.342,79.1895 C313.759,78.007 311.647,76.329 310.005,74.156 C308.362,71.983 307.156,69.3639 306.383,66.298 C305.611,63.2315 305.225,59.8397 305.225,56.1217 L305.225,50.5449 C305.225,46.9718 305.634,43.7367 306.456,40.8396 C307.277,37.9426 308.508,35.4801 310.15,33.4521 C311.791,31.4241 313.843,29.867 316.306,28.7806 C318.768,27.6941 321.617,27.151 324.852,27.151 C328.232,27.151 331.274,27.6097 333.978,28.5271 C336.682,29.4445 338.999,30.6033 340.931,32.0036 L339.193,34.4661 C337.068,33.0175 334.919,31.9432 332.746,31.2431 C330.574,30.5429 327.942,30.1929 324.852,30.1929 C322.245,30.1929 319.916,30.6516 317.862,31.569 C315.811,32.4864 314.097,33.7901 312.721,35.4801 C311.344,37.1701 310.294,39.2221 309.57,41.6363 C308.845,44.0506 308.484,46.7303 308.484,49.6757 L308.484,56.9185 C308.484,63.8233 309.956,69.0502 312.902,72.599 C315.846,76.1478 320.168,77.9221 325.867,77.9221 C327.604,77.9221 329.21,77.7535 330.682,77.4152 C332.156,77.0774 333.508,76.6427 334.738,76.1116 C335.969,75.5806 337.056,75.0013 337.998,74.3733 C338.939,73.7454 339.724,73.1662 340.352,72.6351 L342.235,75.0254 Z" style="stroke:none;fill-rule:evenodd;fill:#000000;fill-opacity:1;"/>
        </g>
        <g id="Shape8">
            <desc shapeID="8" type="0" basicInfo-basicType="0" basicInfo-roundedRectRadius="12" basicInfo-polygonSides="6" basicInfo-starPoints="5" bounding="rect(-210.099,-45.55,420.199,91.1001)" text="레이지픽" font-familyName="나눔스퀘어" font-pixelSize="100" font-bold="0" font-underline="0" font-alignment="1" strokeStyle="0" markerStart="0" markerEnd="0" shadowEnabled="0" shadowOffsetX="0" shadowOffsetY="2" shadowBlur="4" shadowOpacity="160" blurEnabled="0" blurRadius="4" transform="matrix(0.733358,0,0,0.733358,184.064,178.45)" pers-center="0,0" pers-size="0,0" pers-start="0,0" pers-end="0,0" locked="0" mesh="" flag=""/>
            <path id="shapePath8" d="M79.9282,145.046 L83.0817,145.046 L83.0817,211.488 L79.9282,211.488 L79.9282,145.046 M56.5342,170.347 L67.3879,170.347 L67.3879,146.439 L70.5411,146.439 L70.5411,208.188 L67.3879,208.188 L67.3879,173.353 L56.5342,173.353 L56.5342,170.347 M33.0668,173.427 L33.0668,190.881 L38.7869,190.881 C40.0581,190.881 41.5737,190.844 43.3337,190.771 C45.0938,190.697 46.9516,190.6 48.9073,190.477 C50.8629,190.356 52.8184,190.196 54.7742,190.001 C56.7297,189.806 58.5142,189.561 60.1276,189.268 L60.4943,192.128 C58.7342,192.421 56.7909,192.678 54.6642,192.897 C52.5374,193.117 50.4351,193.301 48.3572,193.447 C46.2793,193.594 44.3116,193.692 42.4537,193.741 C40.5958,193.79 39.0803,193.814 37.9069,193.814 L29.9866,193.814 L29.9866,170.566 L49.2006,170.566 L49.2006,153.919 L29.9866,153.919 L29.9866,151.06 L52.2807,151.06 L52.2807,173.427 L33.0668,173.427 M165.489,211.488 L165.489,145.046 L168.642,145.046 L168.642,211.488 L165.489,211.488 M134.101,194.695 C131.413,194.695 129.066,194.23 127.061,193.301 C125.056,192.372 123.382,191.064 122.037,189.377 C120.693,187.691 119.691,185.661 119.031,183.291 C118.371,180.919 118.041,178.316 118.041,175.48 L118.041,169.1 C118.041,166.264 118.371,163.661 119.031,161.29 C119.691,158.919 120.693,156.89 122.037,155.203 C123.382,153.517 125.056,152.208 127.061,151.28 C129.066,150.351 131.413,149.886 134.101,149.886 C136.79,149.886 139.137,150.351 141.142,151.28 C143.146,152.208 144.821,153.517 146.165,155.203 C147.51,156.89 148.512,158.919 149.172,161.29 C149.832,163.661 150.162,166.264 150.162,169.1 L150.162,175.48 C150.162,178.316 149.832,180.919 149.172,183.291 C148.512,185.661 147.51,187.691 146.165,189.377 C144.821,191.064 143.146,192.372 141.142,193.301 C139.137,194.23 136.79,194.695 134.101,194.695 M134.101,152.82 C131.901,152.82 129.995,153.223 128.381,154.03 C126.768,154.836 125.436,155.986 124.384,157.476 C123.333,158.968 122.539,160.764 122.001,162.867 C121.464,164.969 121.195,167.34 121.195,169.98 L121.195,174.6 C121.195,177.24 121.464,179.612 122.001,181.714 C122.539,183.817 123.333,185.612 124.384,187.105 C125.436,188.595 126.768,189.744 128.381,190.551 C129.995,191.358 131.901,191.761 134.101,191.761 C136.302,191.761 138.208,191.358 139.821,190.551 C141.435,189.744 142.766,188.595 143.818,187.105 C144.869,185.612 145.664,183.817 146.202,181.714 C146.74,179.612 147.009,177.24 147.009,174.6 L147.009,169.98 C147.009,167.34 146.74,164.969 146.202,162.867 C145.664,160.764 144.869,158.968 143.818,157.476 C142.766,155.986 141.435,154.836 139.821,154.03 C138.208,153.223 136.302,152.82 134.101,152.82 M218.835,175.48 C218.736,176.067 218.455,176.727 217.991,177.461 C217.526,178.194 217.001,178.939 216.414,179.697 C215.827,180.455 215.192,181.213 214.508,181.97 C213.823,182.728 213.212,183.4 212.673,183.988 C212.136,184.574 211.452,185.307 210.62,186.188 C209.789,187.068 208.861,188.008 207.834,189.011 C206.807,190.013 205.744,191.04 204.644,192.091 C203.544,193.142 202.456,194.132 201.38,195.061 L199.254,192.788 C201.747,190.588 204.045,188.461 206.147,186.407 C208.249,184.354 210.205,182.3 212.015,180.248 C213.187,178.879 214.116,177.693 214.8,176.69 C215.485,175.688 215.999,174.698 216.341,173.72 C216.683,172.743 216.903,171.716 217.001,170.64 C217.099,169.565 217.147,168.269 217.147,166.754 L217.147,154.14 L200.94,154.14 L200.94,151.28 L236.508,151.28 L236.508,154.14 L220.301,154.14 L220.301,166.754 C220.301,168.22 220.362,169.492 220.485,170.566 C220.606,171.643 220.851,172.62 221.218,173.5 C221.584,174.38 222.073,175.248 222.684,176.103 C223.295,176.96 224.114,177.924 225.141,179 C226.901,180.907 228.881,182.923 231.081,185.051 C233.282,187.177 235.554,189.341 237.902,191.541 L235.774,193.668 C233.721,191.809 231.681,189.878 229.651,187.874 C227.622,185.87 225.776,184.011 224.114,182.3 C223.675,181.811 223.173,181.286 222.611,180.723 C222.048,180.162 221.511,179.575 220.997,178.965 C220.485,178.353 220.044,177.753 219.678,177.167 C219.311,176.58 219.055,176.018 218.907,175.48 L218.835,175.48 M249.049,211.488 L249.049,145.046 L252.201,145.046 L252.201,211.488 L249.049,211.488 M292.601,176.286 L292.601,152.013 L285.781,152.013 L285.781,149.153 L322.596,149.153 L322.596,152.013 L314.382,152.013 L314.382,176.14 C316.094,176.043 317.853,175.921 319.662,175.773 C321.471,175.627 323.403,175.432 325.455,175.186 L325.749,177.973 C321.935,178.512 318.036,178.841 314.051,178.965 C310.068,179.086 305.924,179.147 301.622,179.147 L285.268,179.147 L285.268,176.286 L292.601,176.286 M303.088,176.286 C304.506,176.286 305.875,176.286 307.195,176.286 C308.515,176.286 309.859,176.263 311.228,176.214 L311.228,152.013 L295.755,152.013 L295.755,176.286 L303.088,176.286 M296.415,188.094 L338.143,188.094 L338.143,211.855 L335.063,211.855 L335.063,191.027 L296.415,191.027 L296.415,188.094 M334.99,183.694 L334.99,145.046 L338.143,145.046 L338.143,183.694 L334.99,183.694 Z" style="stroke:none;fill-rule:evenodd;fill:#000000;fill-opacity:1;"/>
        </g>
        <g id="Shape9">
            <desc shapeID="9" type="0" basicInfo-basicType="0" basicInfo-roundedRectRadius="12" basicInfo-polygonSides="6" basicInfo-starPoints="5" bounding="rect(-221.625,-46.1466,443.249,92.2933)" text="來利之被" font-familyName="Myanmar MN" font-pixelSize="100" font-bold="0" font-underline="0" font-alignment="1" strokeStyle="0" markerStart="0" markerEnd="0" shadowEnabled="0" shadowOffsetX="0" shadowOffsetY="2" shadowBlur="4" shadowOpacity="160" blurEnabled="0" blurRadius="4" transform="matrix(0.725123,0,0,0.725123,185,309.387)" pers-center="0,0" pers-size="0,0" pers-start="0,0" pers-end="0,0" locked="0" mesh="" flag=""/>
            <path id="shapePath9" d="M92.208,329.903 C92.208,330.091 91.725,330.374 90.758,330.752 C89.791,331.129 89.119,331.447 88.742,331.706 C88.364,331.965 87.634,332.614 86.549,333.651 C85.842,334.313 85.275,334.642 84.8511,334.642 C83.4363,334.265 81.2668,333.086 78.343,331.105 C75.7021,329.313 72.9665,327.155 70.1369,324.632 C67.3072,322.109 64.6426,319.032 62.143,315.4 C61.3412,314.221 60.3743,312.665 59.2424,310.731 C59.3367,315.919 59.4076,321.295 59.4546,326.86 C59.5019,332.426 59.5253,336.222 59.5253,338.25 L59.7376,340.868 C59.7376,341.434 59.5843,341.87 59.2778,342.177 C58.9713,342.483 58.3699,342.708 57.4739,342.849 C56.4362,342.849 55.8231,342.777 55.6344,342.636 C55.3988,342.495 55.2809,342.094 55.2809,341.434 L55.5639,337.259 C55.5639,335.327 55.5874,332.709 55.6344,329.407 C55.6816,326.106 55.7289,322.805 55.776,319.503 L55.776,314.693 C55.0215,315.495 54.3611,316.179 53.7952,316.744 C50.4467,320.046 46.4849,323.63 41.9102,327.496 C40.401,328.77 37.5948,330.822 33.4917,333.651 C28.6339,337 25.6628,338.675 24.578,338.675 L24.295,338.533 C24.3421,338.392 24.3658,338.298 24.3658,338.25 C24.46,338.109 24.6252,337.967 24.861,337.826 C26.0872,337.165 28.6575,335.255 32.5721,332.096 C35.0715,330.115 37.7129,327.839 40.4954,325.269 C43.2779,322.699 45.9897,319.88 48.631,316.815 C50.0929,315.07 51.838,312.806 53.8659,310.024 C54.4789,309.127 55.1157,308.232 55.776,307.335 L55.776,290.498 L40.1416,290.357 C40.9435,290.687 41.8394,291.159 42.83,291.771 C44.2448,292.62 44.9522,293.257 44.9522,293.682 C44.9522,293.965 44.575,294.248 43.8203,294.531 C43.0657,294.814 42.6649,295.002 42.6176,295.096 L38.6561,301.463 C40.1181,301.935 41.2263,302.336 41.9809,302.667 C44.3391,303.657 45.9897,304.624 46.9331,305.566 C47.4989,306.132 47.9588,306.769 48.3126,307.477 C48.6662,308.185 48.8431,308.915 48.8431,309.67 C48.8431,310.283 48.6544,310.86 48.2771,311.403 C47.8999,311.946 47.4283,312.217 46.8622,312.217 C46.3907,312.217 45.8011,311.674 45.0937,310.589 C43.9147,308.798 43.0657,307.548 42.547,306.84 C41.8394,305.897 40.8727,304.859 39.6464,303.728 C39.2691,303.397 38.7504,302.949 38.09,302.383 C37.7598,303.373 35.9912,305.708 32.7843,309.387 C29.5773,313.066 27.5728,314.905 26.7711,314.905 L26.5589,314.693 L26.8418,314.056 C31.0392,308.585 34.1519,303.845 36.1799,299.837 C37.8306,296.535 38.9389,293.375 39.5049,290.357 L31.1573,290.286 C30.5441,290.286 29.872,290.368 29.1409,290.533 C28.41,290.698 27.7849,290.828 27.2663,290.923 L26.2758,288.376 C26.4646,288.376 27.0895,288.435 28.1507,288.553 C29.2117,288.671 29.813,288.729 29.9545,288.729 L55.776,288.729 L55.776,283.635 L55.1394,276.916 C56.9314,277.152 58.4525,277.493 59.7023,277.941 C60.9521,278.389 61.5771,278.825 61.5771,279.25 C61.5771,279.627 61.1879,280.111 60.4098,280.7 C59.6316,281.29 59.2424,281.608 59.2424,281.655 L59.2424,288.729 L79.8996,288.729 L83.0119,284.98 C84.191,285.97 85.0869,286.749 85.7,287.315 C87.068,288.588 87.751,289.437 87.751,289.862 C87.751,290.145 87.35,290.286 86.549,290.286 L73.4621,290.286 C74.3579,290.804 75.2543,291.3 76.15,291.771 C77.4708,292.573 78.1309,293.21 78.1309,293.682 C78.1309,294.012 77.7656,294.306 77.0342,294.566 C76.3032,294.825 75.9143,295.002 75.8673,295.096 L71.9056,301.463 C73.6037,302.124 74.9239,302.667 75.8673,303.091 C78.697,304.364 80.5831,305.473 81.526,306.416 C82.8466,307.642 83.5068,308.986 83.5068,310.448 C83.5068,310.966 83.3067,311.532 82.9058,312.146 C82.5049,312.758 82.045,313.066 81.526,313.066 C81.0544,313.066 80.465,312.523 79.7579,311.438 C78.5788,309.646 77.73,308.397 77.211,307.689 C76.4569,306.699 75.2543,305.52 73.6037,304.152 C73.0847,303.728 72.33,303.138 71.3396,302.383 C71.1037,303.138 69.9955,304.836 68.0146,307.477 C65.8452,310.354 64.4775,311.793 63.9116,311.793 L63.6994,311.509 L63.9823,310.873 C65.633,308.703 67.3307,305.449 69.0758,301.11 C70.5848,297.337 71.7403,293.729 72.5422,290.286 L59.2424,290.286 L59.2424,307.123 C60.28,309.104 61.2705,310.731 62.2138,312.005 C64.9964,315.73 68.4863,319.055 72.6838,321.979 C75.6075,324.007 78.9091,325.729 82.5875,327.144 C85.558,328.275 87.904,328.96 89.626,329.195 C91.3479,329.431 92.208,329.667 92.208,329.903 M156.608,283.211 C156.608,283.542 156.206,283.896 155.405,284.272 C154.603,284.65 154.202,284.886 154.202,284.98 C154.202,287.527 154.226,290.757 154.274,294.672 C154.321,298.587 154.38,303.22 154.45,308.573 C154.521,313.926 154.556,318.323 154.556,321.767 L154.627,323.324 C154.627,324.361 154.497,325.009 154.238,325.269 C153.978,325.529 153.26,325.752 152.08,325.941 C151.325,325.941 150.76,325.894 150.382,325.799 C150.242,325.799 150.076,325.729 149.887,325.587 L150.17,321.413 C150.17,320.894 150.217,318.23 150.311,313.419 C150.406,308.609 150.454,304.576 150.454,301.322 C150.454,297.407 150.429,294.13 150.382,291.488 C150.335,288.847 150.288,286.395 150.242,284.131 C150.242,283.283 150.123,282.198 149.887,280.877 C149.887,280.641 149.817,280.335 149.675,279.958 C150.005,279.958 151.243,280.417 153.389,281.337 C155.535,282.256 156.608,282.882 156.608,283.211 M146.138,298.209 C146.138,298.445 145.95,298.61 145.572,298.704 C145.336,298.751 144.817,298.775 144.015,298.775 L130.291,298.775 L130.291,303.94 C132.178,304.741 133.64,305.378 134.677,305.85 C137.979,307.406 140.266,308.798 141.54,310.024 C142.624,311.061 143.166,312.193 143.166,313.419 C143.166,314.127 142.978,314.834 142.601,315.541 C142.223,316.249 141.705,316.603 141.044,316.603 C140.431,316.603 139.865,316.155 139.346,315.258 C138.214,313.373 137.46,312.193 137.083,311.721 C135.432,309.646 133.805,307.83 132.201,306.275 C131.683,305.802 131.046,305.237 130.291,304.576 L130.716,337.684 C130.716,338.628 130.551,339.253 130.22,339.559 C129.89,339.865 129.136,340.09 127.957,340.231 C127.155,340.231 126.577,340.184 126.224,340.09 C125.87,339.995 125.575,339.901 125.339,339.806 L125.622,336.835 C125.622,333.817 125.764,327.874 126.047,319.008 C126.141,316.084 126.282,311.933 126.471,306.557 C125.669,307.783 125.009,308.773 124.49,309.528 C122.934,311.793 121.401,313.867 119.892,315.754 C118.383,317.499 116.732,319.268 114.939,321.06 C112.063,323.889 110.201,325.304 109.351,325.304 L109.139,325.162 L109.351,324.809 C112.275,321.884 115.4,317.758 118.725,312.429 C122.05,307.099 124.349,302.548 125.622,298.775 L119.963,298.775 C119.114,298.775 117.652,298.823 115.577,298.916 C113.501,299.011 112.393,299.059 112.252,299.059 C111.874,299.059 111.497,298.775 111.119,298.209 C110.742,297.643 110.553,297.148 110.553,296.724 L113.313,297.148 L126.612,297.148 L126.612,283.919 C125.151,284.437 122.686,284.768 119.22,284.909 C115.753,285.051 113.973,285.121 113.878,285.121 C113.549,285.121 113.266,285.051 113.03,284.909 C112.983,284.909 112.935,284.839 112.888,284.697 C113.124,284.509 113.336,284.414 113.525,284.414 C115.694,284.131 118.36,283.589 121.519,282.787 C126.565,281.514 130.786,280.075 134.182,278.472 C134.842,278.094 135.503,277.482 136.163,276.633 C136.257,276.491 136.422,276.255 136.658,275.925 C137.932,276.585 139.087,277.269 140.124,277.977 C141.964,279.203 142.883,280.075 142.883,280.594 C142.883,280.972 142.458,281.184 141.61,281.231 C140.761,281.278 140.007,281.302 139.346,281.302 C139.299,281.349 137.92,281.655 135.208,282.221 C132.496,282.787 130.857,283.164 130.291,283.353 L130.291,297.148 L137.436,297.148 L140.903,293.116 C142.082,294.106 142.954,294.837 143.52,295.309 C145.265,296.865 146.138,297.833 146.138,298.209 M172.242,279.109 C172.242,279.439 171.853,279.922 171.075,280.559 C170.296,281.195 169.908,281.608 169.908,281.797 L169.766,308.609 L169.978,331.6 C169.978,333.251 169.92,334.43 169.802,335.137 C169.684,335.845 169.342,336.588 168.776,337.366 C168.21,338.144 167.302,338.851 166.052,339.488 C164.802,340.124 163.706,340.443 162.763,340.443 C162.574,340.349 162.386,340.042 162.197,339.524 C162.008,339.004 161.749,338.604 161.419,338.321 C160.38,337.472 159.107,336.741 157.598,336.128 C156.608,335.798 155.617,335.467 154.627,335.137 C154.438,335.09 154.25,334.925 154.062,334.642 C154.344,334.501 154.603,334.43 154.84,334.43 L161.843,334.642 L163.116,334.642 C164.531,334.642 165.368,334.465 165.628,334.112 C165.888,333.757 166.017,332.567 166.017,330.539 C165.97,326.578 165.922,321.685 165.875,315.86 C165.828,310.035 165.769,303.999 165.698,297.749 C165.628,291.5 165.569,285.947 165.521,281.089 C165.521,280.288 165.357,279.274 165.027,278.047 C164.932,277.623 164.743,277.033 164.46,276.278 C165.592,276.278 167.432,276.75 169.978,277.694 C171.487,278.26 172.242,278.731 172.242,279.109 M261.144,332.025 C261.144,332.261 260.767,332.685 260.013,333.298 C259.588,333.675 259.117,334.053 258.597,334.43 C257.654,335.184 256.664,336.482 255.626,338.321 C255.391,338.745 253.387,338.957 249.613,338.957 C244.614,338.957 240.063,338.816 235.959,338.533 C230.111,338.109 225.231,337.448 221.315,336.553 C216.317,335.373 212.461,333.545 209.749,331.07 C207.038,328.594 205.681,325.941 205.681,323.111 C205.21,324.101 204.809,324.88 204.479,325.445 C203.536,327.19 202.592,328.747 201.649,330.115 C201.413,330.492 200.541,331.931 199.032,334.43 C198.088,336.033 197.569,336.859 197.475,336.906 C197.334,337.519 197.216,338.061 197.122,338.533 C196.885,339.477 196.555,339.948 196.131,339.948 C195.753,339.948 194.916,338.875 193.62,336.729 C192.323,334.584 191.674,333.322 191.674,332.945 C192.617,332.661 193.372,332.402 193.939,332.166 C195.636,331.412 197.097,330.468 198.324,329.337 C200.541,327.261 202.227,325.375 203.382,323.677 C204.538,321.979 205.256,320.281 205.54,318.583 C205.681,317.782 205.918,317.381 206.247,317.381 C206.436,317.522 206.554,317.64 206.601,317.734 C206.789,317.971 206.908,318.183 206.955,318.371 L206.955,321.625 C206.955,322.474 207.144,323.63 207.521,325.092 C207.898,326.554 208.299,327.284 208.724,327.284 C208.864,327.284 209.714,326.743 211.271,325.658 C213.346,324.243 215.491,322.615 217.707,320.777 C220.679,318.371 223.58,315.73 226.409,312.854 C229.051,310.212 231.621,307.312 234.12,304.152 C235.771,302.077 237.492,299.742 239.285,297.148 C239.898,296.205 240.534,295.262 241.195,294.318 L225.56,294.248 C220.608,294.248 215.727,294.259 210.916,294.283 C206.106,294.306 203.418,294.389 202.852,294.531 C202.286,294.672 201.885,294.743 201.649,294.743 C201.224,294.743 200.73,294.365 200.163,293.61 C199.598,292.857 199.314,292.267 199.314,291.842 C200.399,292.031 201.436,292.184 202.427,292.302 C203.418,292.42 204.219,292.48 204.832,292.48 L222.094,292.549 L222.023,284.272 C222.023,283.376 221.905,282.15 221.67,280.594 C221.623,280.123 221.505,279.439 221.315,278.543 C222.306,278.543 223.839,278.814 225.914,279.356 C227.989,279.899 229.027,280.476 229.027,281.089 C229.027,281.466 228.732,281.891 228.143,282.362 C227.553,282.835 226.951,283.307 226.339,283.778 L226.339,292.48 L241.265,292.48 L243.954,289.649 C244.19,289.649 245.168,290.227 246.889,291.382 C248.611,292.538 249.471,293.304 249.471,293.682 C249.471,294.153 248.776,294.684 247.385,295.273 C245.993,295.863 245.274,296.181 245.227,296.228 C244.614,297.078 244.001,297.902 243.388,298.704 C241.832,300.685 240.063,302.783 238.082,305.001 C235.346,308.02 232.482,310.908 229.486,313.667 C226.492,316.425 223.273,319.055 219.83,321.555 C217.331,323.347 214.855,324.998 212.402,326.506 C210.516,327.639 209.526,328.205 209.43,328.205 C209.43,328.393 210.115,328.913 211.483,329.761 C215.019,331.931 219.005,333.274 223.438,333.794 C225.419,334.029 227.482,334.194 229.628,334.289 C231.774,334.383 233.861,334.43 235.889,334.43 C241.218,334.43 246.548,334.1 251.877,333.439 C255.744,332.968 258.527,332.497 260.225,332.025 L260.861,331.883 L261.144,332.025 M345.705,335.633 C345.705,335.869 345.352,336.151 344.644,336.482 C342.286,337.614 341.012,338.25 340.824,338.392 C340.588,338.58 340.234,338.922 339.763,339.418 C339.291,339.912 338.985,340.184 338.843,340.231 C338.183,340.231 336.886,339.689 334.952,338.604 C333.018,337.519 331.086,336.222 329.151,334.713 C327.548,333.439 326.086,332.166 324.765,330.892 C324.341,330.516 323.845,330.021 323.279,329.407 C322.478,330.115 321.676,330.798 320.874,331.459 C318.799,333.062 316.441,334.548 313.8,335.916 C310.074,337.849 306.277,339.288 302.41,340.231 C301.938,340.373 301.372,340.502 300.712,340.62 C300.052,340.738 299.604,340.797 299.368,340.797 L299.014,340.655 C299.156,340.608 299.25,340.561 299.297,340.514 C299.863,340.184 300.358,339.948 300.783,339.806 C302.056,339.477 303.377,339.004 304.744,338.392 C306.537,337.637 308.517,336.623 310.687,335.349 C313.847,333.557 316.629,331.647 319.035,329.619 C319.79,329.006 320.615,328.229 321.51,327.284 C320.662,326.247 320.002,325.352 319.53,324.597 C318.021,322.286 316.748,319.74 315.71,316.957 C314.908,314.787 314.225,312.594 313.658,310.377 C313.517,309.717 313.352,308.938 313.164,308.043 L309.555,308.043 C309.555,314.41 308.612,320.093 306.725,325.092 C304.509,330.988 301.042,335.609 296.326,338.957 C295.383,339.618 294.699,339.948 294.275,339.948 C294.369,339.759 294.44,339.618 294.487,339.524 C294.722,339.194 295.077,338.84 295.548,338.462 C296.68,337.661 297.883,336.269 299.156,334.289 C301.042,331.365 302.575,327.851 303.754,323.748 C305.311,318.323 306.089,312.381 306.089,305.92 C306.089,300.497 305.995,296.004 305.806,292.443 C305.617,288.883 305.381,286.678 305.099,285.829 C305.571,285.829 306.407,286.206 307.609,286.961 C308.813,287.716 309.673,288.353 310.193,288.872 L319.176,288.872 L319.176,281.302 C319.176,280.453 319.094,279.462 318.929,278.331 C318.764,277.199 318.634,276.515 318.54,276.278 C319.388,276.278 320.686,276.468 322.431,276.845 C324.176,277.222 325.048,277.623 325.048,278.047 C325.048,278.283 324.553,278.802 323.562,279.604 C323.043,280.028 322.784,280.358 322.784,280.594 L322.784,288.872 L331.557,288.872 L333.608,286.182 C333.938,286.182 335.106,286.831 337.11,288.128 C339.114,289.425 340.116,290.263 340.116,290.639 C340.116,290.97 339.409,291.206 337.994,291.347 C336.579,291.488 335.754,291.63 335.518,291.771 C335.141,292.149 334.28,292.832 332.936,293.823 C331.592,294.814 330.755,295.309 330.424,295.309 L330.284,295.096 L330.708,293.894 C330.849,293.517 331.086,292.762 331.414,291.63 C331.463,291.3 331.58,290.852 331.769,290.286 L322.784,290.286 L322.784,306.628 L329.859,306.628 L331.981,304.081 C332.924,304.6 333.892,305.118 334.882,305.638 C336.391,306.534 337.145,307.194 337.145,307.618 C337.145,307.901 336.91,308.137 336.438,308.326 C335.165,308.891 334.504,309.246 334.457,309.387 C333.938,310.802 333.537,311.91 333.254,312.711 C332.312,315.258 331.557,317.121 330.99,318.301 C329.623,320.989 328.161,323.464 326.604,325.729 C326.369,326.106 326.039,326.554 325.614,327.072 C326.039,327.403 326.392,327.686 326.675,327.922 C328.42,329.195 330.437,330.468 332.724,331.742 C335.012,333.015 337.476,333.982 340.116,334.642 C341.956,334.972 343.819,335.303 345.705,335.633 M302.552,306.132 C302.552,306.463 302.163,306.734 301.385,306.946 C300.606,307.159 300.17,307.312 300.075,307.406 C300.075,307.548 299.344,308.208 297.883,309.387 C296.043,310.849 294.204,312.311 292.365,313.773 C293.214,313.773 294.769,314.646 297.034,316.391 C299.58,318.371 300.854,320.093 300.854,321.555 C300.854,322.074 300.689,322.569 300.358,323.04 C300.028,323.512 299.604,323.748 299.085,323.748 C298.425,323.748 297.706,323.135 296.928,321.908 C296.149,320.682 295.383,319.456 294.628,318.23 C293.592,316.815 292.624,315.73 291.728,314.976 C291.068,314.551 290.408,314.127 289.747,313.703 L289.676,326.082 C289.676,328.488 289.688,330.739 289.712,332.839 C289.735,334.937 289.794,336.506 289.888,337.543 L290.1,339.736 C290.1,340.585 289.747,341.21 289.039,341.61 C288.333,342.012 287.531,342.212 286.635,342.212 C286.352,342.212 286.069,342.165 285.786,342.071 C285.739,342.071 285.644,342.023 285.503,341.929 L285.786,337.755 C285.834,337.472 285.881,334.725 285.927,329.513 C285.974,324.302 286.01,320.033 286.033,316.709 C286.057,313.384 286.093,310.519 286.14,308.113 C286.14,308.726 284.348,310.519 280.763,313.49 C277.179,316.461 275.104,317.947 274.538,317.947 C274.397,317.57 274.585,317.193 275.104,316.815 C276.236,315.872 277.651,314.387 279.348,312.358 C281.236,310.095 283.074,307.76 284.866,305.354 C287.649,301.581 289.771,298.162 291.233,295.096 C291.704,294.059 292.176,292.832 292.647,291.418 L287.696,291.347 C285.904,291.347 284.395,291.371 283.168,291.418 C281.942,291.466 281.14,291.583 280.763,291.771 L279.985,291.984 C279.56,291.984 279.007,291.689 278.323,291.1 C277.638,290.51 277.297,290.026 277.297,289.649 L286.352,289.79 L286.423,280.736 C286.423,279.934 286.364,279.227 286.246,278.613 C286.128,278 285.998,277.434 285.857,276.916 C286.8,276.916 288.121,277.08 289.818,277.411 C291.516,277.741 292.365,278.166 292.365,278.684 C292.365,278.872 291.846,279.344 290.808,280.099 C290.29,280.476 290.031,280.807 290.031,281.089 L290.031,289.79 L293.002,289.79 L295.336,287.174 C295.571,287.174 296.385,287.751 297.777,288.906 C299.168,290.062 299.863,290.804 299.863,291.135 C299.863,291.512 299.333,291.831 298.271,292.09 C297.21,292.35 296.61,292.62 296.467,292.904 C296.467,293.422 295.077,295.828 292.294,300.12 C290.832,302.383 289.984,303.751 289.747,304.222 L289.747,312.571 L291.516,313.278 C294.628,310.164 296.892,306.534 298.307,302.383 C298.589,302.383 299.368,302.914 300.642,303.975 C301.915,305.036 302.552,305.755 302.552,306.132 M319.176,306.628 L319.176,290.286 L309.768,290.286 L309.626,306.628 L319.176,306.628 M330.212,308.043 L314.366,308.043 C314.507,308.844 314.649,309.528 314.791,310.095 C315.262,311.697 316.099,313.714 317.302,316.143 C318.504,318.572 319.648,320.517 320.733,321.979 C321.44,322.923 322.265,323.819 323.209,324.668 C324.529,323.252 326.027,320.588 327.701,316.674 C329.375,312.758 330.212,309.882 330.212,308.043 Z" style="stroke:none;fill-rule:evenodd;fill:#000000;fill-opacity:1;"/>
        </g>
    </g>
</svg>
