<?xml version="1.0"?>
<svg version="1.1" xmlns="http://www.w3.org/2000/svg" xmlns:xlink="http://www.w3.org/1999/xlink" width="600" height="600">
    <desc iVinci="yes" version="4.6" gridStep="20" showGrid="no" snapToGrid="no" codePlatform="0"/>
    <g id="Layer1" name="Layer 1" visibility="hidden" opacity="1">
        <g id="Shape1">
            <desc shapeID="1" type="0" basicInfo-basicType="1" basicInfo-roundedRectRadius="12" basicInfo-polygonSides="6" basicInfo-starPoints="5" bounding="rect(-3.624,-375.367,7.24799,750.734)" text="" font-familyName="나눔스퀘어" font-pixelSize="100" font-bold="0" font-underline="0" font-alignment="1" strokeStyle="0" markerStart="0" markerEnd="0" shadowEnabled="0" shadowOffsetX="0" shadowOffsetY="2" shadowBlur="4" shadowOpacity="160" blurEnabled="0" blurRadius="4" transform="matrix(1,0,0,1,300,310.649)" pers-center="0,0" pers-size="0,0" pers-start="0,0" pers-end="0,0" locked="0" mesh="" flag=""/>
            <path id="shapePath1" d="M296.376,-64.7184 L303.624,-64.7184 L303.624,686.016 L296.376,686.016 L296.376,-64.7184 Z" style="stroke:none;fill-rule:evenodd;fill:#e6e6e6;fill-opacity:1;"/>
        </g>
        <g id="Shape2">
            <desc shapeID="2" type="0" basicInfo-basicType="1" basicInfo-roundedRectRadius="12" basicInfo-polygonSides="6" basicInfo-starPoints="5" bounding="rect(-3.624,-375.367,7.24799,750.734)" text="" font-familyName="나눔스퀘어" font-pixelSize="100" font-bold="0" font-underline="0" font-alignment="1" strokeStyle="0" markerStart="0" markerEnd="0" shadowEnabled="0" shadowOffsetX="0" shadowOffsetY="2" shadowBlur="4" shadowOpacity="160" blurEnabled="0" blurRadius="4" transform="matrix(1,0,0,1,445.711,310.649)" pers-center="0,0" pers-size="0,0" pers-start="0,0" pers-end="0,0" locked="0" mesh="" flag=""/>
            <path id="shapePath2" d="M442.087,-64.7184 L449.335,-64.7184 L449.335,686.016 L442.087,686.016 L442.087,-64.7184 Z" style="stroke:none;fill-rule:evenodd;fill:#e6e6e6;fill-opacity:1;"/>
        </g>
        <g id="Shape3">
            <desc shapeID="3" type="0" basicInfo-basicType="1" basicInfo-roundedRectRadius="12" basicInfo-polygonSides="6" basicInfo-starPoints="5" bounding="rect(-3.624,-375.367,7.24799,750.734)" text="" font-familyName="나눔스퀘어" font-pixelSize="100" font-bold="0" font-underline="0" font-alignment="1" strokeStyle="0" markerStart="0" markerEnd="0" shadowEnabled="0" shadowOffsetX="0" shadowOffsetY="2" shadowBlur="4" shadowOpacity="160" blurEnabled="0" blurRadius="4" transform="matrix(1,0,0,1,158.431,310.649)" pers-center="0,0" pers-size="0,0" pers-start="0,0" pers-end="0,0" locked="0" mesh="" flag=""/>
            <path id="shapePath3" d="M154.807,-64.7184 L162.055,-64.7184 L162.055,686.016 L154.807,686.016 L154.807,-64.7184 Z" style="stroke:none;fill-rule:evenodd;fill:#e6e6e6;fill-opacity:1;"/>
        </g>
        <g id="Shape4">
            <desc shapeID="4" type="0" basicInfo-basicType="1" basicInfo-roundedRectRadius="12" basicInfo-polygonSides="6" basicInfo-starPoints="5" bounding="rect(-3.6242,-375.367,7.24838,750.734)" text="" font-familyName="나눔스퀘어" font-pixelSize="100" font-bold="0" font-underline="0" font-alignment="1" strokeStyle="0" markerStart="0" markerEnd="0" shadowEnabled="0" shadowOffsetX="0" shadowOffsetY="2" shadowBlur="4" shadowOpacity="160" blurEnabled="0" blurRadius="4" transform="matrix(-0.00335225,0.999994,-0.999994,-0.00335225,287.225,354.666)" pers-center="0,0" pers-size="0,0" pers-start="0,0" pers-end="0,0" locked="0" mesh="" flag=""/>
            <path id="shapePath4" d="M662.602,352.3 L662.578,359.548 L-88.1519,357.031 L-88.1276,349.783 L662.602,352.3 Z" style="stroke:none;fill-rule:evenodd;fill:#e6e6e6;fill-opacity:1;"/>
        </g>
        <g id="Shape5">
            <desc shapeID="5" type="0" basicInfo-basicType="1" basicInfo-roundedRectRadius="12" basicInfo-polygonSides="6" basicInfo-starPoints="5" bounding="rect(-3.62452,-375.367,7.24904,750.735)" text="" font-familyName="나눔스퀘어" font-pixelSize="100" font-bold="0" font-underline="0" font-alignment="1" strokeStyle="0" markerStart="0" markerEnd="0" shadowEnabled="0" shadowOffsetX="0" shadowOffsetY="2" shadowBlur="4" shadowOpacity="160" blurEnabled="0" blurRadius="4" transform="matrix(-0.00335225,0.999994,-0.999994,-0.00335225,318.458,182.497)" pers-center="0,0" pers-size="0,0" pers-start="0,0" pers-end="0,0" locked="0" mesh="" flag=""/>
            <path id="shapePath5" d="M693.835,180.131 L693.811,187.38 L-56.9191,184.863 L-56.8948,177.615 L693.835,180.131 Z" style="stroke:none;fill-rule:evenodd;fill:#e6e6e6;fill-opacity:1;"/>
        </g>
        <g id="Shape6">
            <desc shapeID="6" type="0" basicInfo-basicType="1" basicInfo-roundedRectRadius="12" basicInfo-polygonSides="6" basicInfo-starPoints="5" bounding="rect(-3.62467,-375.367,7.24933,750.735)" text="" font-familyName="나눔스퀘어" font-pixelSize="100" font-bold="0" font-underline="0" font-alignment="1" strokeStyle="0" markerStart="0" markerEnd="0" shadowEnabled="0" shadowOffsetX="0" shadowOffsetY="2" shadowBlur="4" shadowOpacity="160" blurEnabled="0" blurRadius="4" transform="matrix(-0.00335225,0.999994,-0.999994,-0.00335225,300,540.193)" pers-center="0,0" pers-size="0,0" pers-start="0,0" pers-end="0,0" locked="0" mesh="" flag=""/>
            <path id="shapePath6" d="M675.377,537.827 L675.353,545.076 L-75.3772,542.559 L-75.3529,535.31 L675.377,537.827 Z" style="stroke:none;fill-rule:evenodd;fill:#e6e6e6;fill-opacity:1;"/>
        </g>
    </g>
    <g id="Layer2" name="gmail" opacity="1">
        <g id="Shape7">
            <desc shapeID="7" type="0" basicInfo-basicType="0" basicInfo-roundedRectRadius="12" basicInfo-polygonSides="6" basicInfo-starPoints="5" bounding="rect(-217.491,-37.1499,434.981,74.2998)" text="LAZYPIC" font-familyName="나눔스퀘어" font-pixelSize="100" font-bold="0" font-underline="0" font-alignment="1" strokeStyle="0" markerStart="0" markerEnd="0" shadowEnabled="0" shadowOffsetX="0" shadowOffsetY="2" shadowBlur="4" shadowOpacity="160" blurEnabled="0" blurRadius="4" transform="matrix(1.2629,0,0,1.2629,299.499,75.4574)" pers-center="0,0" pers-size="0,0" pers-start="0,0" pers-end="0,0" locked="0" mesh="" flag=""/>
            <path id="shapePath7" d="M30.3871,29.9299 L30.3871,115.807 L77.6197,115.807 L77.6197,120.985 L24.8304,120.985 L24.8304,29.9299 L30.3871,29.9299 M159.71,91.56 L118.539,91.56 L107.425,120.985 L101.363,120.985 L136.473,29.9299 L142.03,29.9299 L176.759,120.985 L170.571,120.985 L159.71,91.56 M120.433,86.6343 L157.816,86.6343 L146.955,57.2086 C145.608,53.5041 144.261,49.9049 142.914,46.4108 C141.567,42.9168 140.346,39.4017 139.251,35.8656 C138.241,39.4017 137.083,42.9168 135.778,46.4108 C134.473,49.9049 133.105,53.5041 131.673,57.2086 L120.433,86.6343 M259.45,34.3501 L202.746,115.934 L261.85,115.934 L261.85,120.985 L195.926,120.985 L195.926,116.565 L252.631,34.9816 L199.084,34.9816 L199.084,29.9299 L259.45,29.9299 L259.45,34.3501 M323.686,83.2244 L323.686,120.985 L318.129,120.985 L318.129,83.2244 L286.682,29.9299 L292.618,29.9299 L321.033,78.1728 L348.312,29.9299 L354.374,29.9299 L323.686,83.2244 M382.581,29.9299 L410.996,29.9299 C420.594,29.9299 427.877,32.119 432.844,36.497 C437.811,40.8751 440.295,47.2738 440.295,55.6932 L440.295,58.4715 C440.295,67.0593 437.748,73.5211 432.655,77.8571 C427.561,82.1931 420.215,84.361 410.617,84.361 L388.137,84.361 L388.137,120.985 L382.581,120.985 L382.581,29.9299 M388.137,35.1078 L388.137,79.1832 L409.985,79.1832 C414.532,79.1832 418.363,78.699 421.478,77.7308 C424.593,76.7626 427.14,75.3734 429.118,73.5632 C431.097,71.7531 432.507,69.564 433.349,66.9961 C434.191,64.4282 434.612,61.5446 434.612,58.3453 L434.612,55.9457 C434.612,52.8306 434.191,49.9891 433.349,47.4212 C432.507,44.8532 431.139,42.6642 429.245,40.8541 C427.35,39.0439 424.909,37.6337 421.92,36.6233 C418.931,35.613 415.29,35.1078 410.996,35.1078 L388.137,35.1078 M476.768,29.9299 L476.768,120.985 L471.211,120.985 L471.211,29.9299 L476.768,29.9299 M574.168,112.019 C573.242,112.861 571.958,113.871 570.316,115.05 C568.674,116.228 566.654,117.365 564.254,118.459 C561.855,119.554 559.076,120.48 555.919,121.238 C552.762,121.996 549.247,122.374 545.374,122.374 C538.975,122.374 533.524,121.343 529.019,119.28 C524.515,117.218 520.832,114.292 517.969,110.503 C515.106,106.714 513.002,102.147 511.654,96.801 C510.307,91.454 509.634,85.5398 509.634,79.0569 L509.634,69.3325 C509.634,63.1022 510.349,57.4612 511.781,52.4096 C513.212,47.358 515.359,43.0641 518.222,39.528 C521.084,35.9919 524.662,33.2766 528.956,31.3823 C533.25,29.4879 538.217,28.5408 543.858,28.5408 C549.752,28.5408 555.056,29.3406 559.771,30.9403 C564.486,32.5399 568.527,34.5606 571.895,37.0022 L568.864,41.2961 C565.159,38.7703 561.413,36.897 557.624,35.6762 C553.835,34.4553 549.247,33.8449 543.858,33.8449 C539.312,33.8449 535.25,34.6448 531.671,36.2445 C528.093,37.8441 525.104,40.1174 522.705,43.0641 C520.305,46.0109 518.474,49.5891 517.211,53.7988 C515.948,58.0085 515.317,62.6812 515.317,67.817 L515.317,80.4461 C515.317,92.486 517.885,101.6 523.021,107.788 C528.156,113.976 535.692,117.07 545.627,117.07 C548.657,117.07 551.457,116.776 554.025,116.186 C556.593,115.597 558.95,114.839 561.097,113.913 C563.244,112.987 565.138,111.977 566.78,110.882 C568.422,109.787 569.79,108.777 570.885,107.851 L574.168,112.019 Z" style="stroke:none;fill-rule:evenodd;fill:#000000;fill-opacity:1;"/>
        </g>
        <g id="Shape8">
            <desc shapeID="8" type="0" basicInfo-basicType="0" basicInfo-roundedRectRadius="12" basicInfo-polygonSides="6" basicInfo-starPoints="5" bounding="rect(-210.099,-45.5499,420.199,91.0999)" text="레이지픽" font-familyName="나눔스퀘어" font-pixelSize="100" font-bold="0" font-underline="0" font-alignment="1" strokeStyle="0" markerStart="0" markerEnd="0" shadowEnabled="0" shadowOffsetX="0" shadowOffsetY="2" shadowBlur="4" shadowOpacity="160" blurEnabled="0" blurRadius="4" transform="matrix(1.27875,0,0,1.27875,298.368,292.36)" pers-center="0,0" pers-size="0,0" pers-start="0,0" pers-end="0,0" locked="0" mesh="" flag=""/>
            <path id="shapePath8" d="M116.787,234.113 L122.286,234.113 L122.286,349.968 L116.787,349.968 L116.787,234.113 M75.9952,278.23 L94.9207,278.23 L94.9207,236.543 L100.419,236.543 L100.419,344.213 L94.9207,344.213 L94.9207,283.473 L75.9952,283.473 L75.9952,278.23 M35.0753,283.601 L35.0753,314.035 L45.0494,314.035 C47.266,314.035 49.9087,313.971 52.9777,313.843 C56.0467,313.715 59.2862,313.545 62.6962,313.331 C66.1062,313.119 69.5161,312.841 72.9262,312.5 C76.3362,312.16 79.4478,311.733 82.261,311.222 L82.9004,316.209 C79.8314,316.72 76.4428,317.168 72.7344,317.551 C69.026,317.935 65.3602,318.255 61.7371,318.51 C58.114,318.766 54.6828,318.936 51.4432,319.022 C48.2037,319.107 45.561,319.15 43.515,319.15 L29.7045,319.15 L29.7045,278.613 L63.2077,278.613 L63.2077,249.585 L29.7045,249.585 L29.7045,244.599 L68.5784,244.599 L68.5784,283.601 L35.0753,283.601 M265.979,349.968 L265.979,234.113 L271.477,234.113 L271.477,349.968 L265.979,349.968 M211.248,320.685 C206.56,320.685 202.468,319.875 198.972,318.255 C195.477,316.635 192.557,314.354 190.213,311.413 C187.868,308.472 186.121,304.934 184.97,300.8 C183.819,296.665 183.244,292.126 183.244,287.181 L183.244,276.056 C183.244,271.111 183.819,266.572 184.97,262.437 C186.121,258.303 187.868,254.765 190.213,251.824 C192.557,248.883 195.477,246.602 198.972,244.982 C202.468,243.363 206.56,242.553 211.248,242.553 C215.937,242.553 220.029,243.363 223.524,244.982 C227.02,246.602 229.939,248.883 232.284,251.824 C234.628,254.765 236.375,258.303 237.527,262.437 C238.677,266.572 239.253,271.111 239.253,276.056 L239.253,287.181 C239.253,292.126 238.677,296.665 237.527,300.8 C236.375,304.934 234.628,308.472 232.284,311.413 C229.939,314.354 227.02,316.635 223.524,318.255 C220.029,319.875 215.937,320.685 211.248,320.685 M211.248,247.668 C207.412,247.668 204.087,248.371 201.274,249.778 C198.461,251.184 196.138,253.188 194.305,255.787 C192.472,258.388 191.087,261.521 190.15,265.187 C189.212,268.853 188.743,272.987 188.743,277.591 L188.743,285.647 C188.743,290.25 189.212,294.385 190.15,298.05 C191.087,301.717 192.472,304.849 194.305,307.45 C196.138,310.049 198.461,312.053 201.274,313.459 C204.087,314.866 207.412,315.57 211.248,315.57 C215.085,315.57 218.409,314.866 221.222,313.459 C224.036,312.053 226.358,310.049 228.192,307.45 C230.025,304.849 231.41,301.717 232.348,298.05 C233.286,294.385 233.754,290.25 233.754,285.647 L233.754,277.591 C233.754,272.987 233.286,268.853 232.348,265.187 C231.41,261.521 230.025,258.388 228.192,255.787 C226.358,253.188 224.036,251.184 221.222,249.778 C218.409,248.371 215.085,247.668 211.248,247.668 M358.996,287.181 C358.825,288.204 358.335,289.355 357.526,290.634 C356.715,291.912 355.799,293.213 354.776,294.534 C353.753,295.855 352.645,297.176 351.452,298.498 C350.258,299.82 349.192,300.991 348.254,302.015 C347.316,303.038 346.123,304.316 344.674,305.851 C343.225,307.386 341.605,309.026 339.815,310.774 C338.025,312.522 336.17,314.312 334.252,316.144 C332.334,317.977 330.437,319.704 328.562,321.323 L324.853,317.36 C329.201,313.524 333.208,309.815 336.873,306.234 C340.539,302.654 343.949,299.073 347.104,295.493 C349.149,293.106 350.769,291.038 351.962,289.291 C353.156,287.544 354.051,285.817 354.648,284.112 C355.245,282.407 355.629,280.617 355.799,278.741 C355.969,276.866 356.055,274.607 356.055,271.964 L356.055,249.97 L327.794,249.97 L327.794,244.982 L389.814,244.982 L389.814,249.97 L361.553,249.97 L361.553,271.964 C361.553,274.522 361.66,276.738 361.873,278.613 C362.086,280.489 362.512,282.194 363.152,283.729 C363.792,285.263 364.644,286.776 365.71,288.268 C366.775,289.76 368.203,291.443 369.993,293.319 C373.062,296.644 376.515,300.16 380.351,303.869 C384.188,307.577 388.151,311.349 392.244,315.185 L388.535,318.895 C384.955,315.654 381.396,312.287 377.857,308.792 C374.319,305.297 371.101,302.057 368.203,299.073 C367.436,298.221 366.562,297.305 365.582,296.324 C364.601,295.344 363.663,294.321 362.768,293.256 C361.873,292.19 361.106,291.145 360.467,290.122 C359.827,289.099 359.38,288.119 359.123,287.181 L358.996,287.181 M411.681,349.968 L411.681,234.113 L417.179,234.113 L417.179,349.968 L411.681,349.968 M487.623,288.587 L487.623,246.261 L475.731,246.261 L475.731,241.274 L539.924,241.274 L539.924,246.261 L525.602,246.261 L525.602,288.332 C528.586,288.161 531.655,287.949 534.808,287.692 C537.963,287.437 541.331,287.096 544.911,286.669 L545.422,291.529 C538.773,292.466 531.974,293.042 525.026,293.256 C518.079,293.468 510.854,293.575 503.352,293.575 L474.836,293.575 L474.836,288.587 L487.623,288.587 M505.909,288.587 C508.381,288.587 510.768,288.587 513.07,288.587 C515.372,288.587 517.716,288.545 520.103,288.46 L520.103,246.261 L493.122,246.261 L493.122,288.587 L505.909,288.587 M494.273,309.176 L567.034,309.176 L567.034,350.607 L561.663,350.607 L561.663,314.29 L494.273,314.29 L494.273,309.176 M561.535,301.503 L561.535,234.113 L567.034,234.113 L567.034,301.503 L561.535,301.503 Z" style="stroke:none;fill-rule:evenodd;fill:#000000;fill-opacity:1;"/>
        </g>
        <g id="Shape9">
            <desc shapeID="9" type="0" basicInfo-basicType="0" basicInfo-roundedRectRadius="12" basicInfo-polygonSides="6" basicInfo-starPoints="5" bounding="rect(-221.625,-46.1463,443.249,92.2927)" text="來利之被" font-familyName="Myanmar MN" font-pixelSize="100" font-bold="0" font-underline="0" font-alignment="1" strokeStyle="0" markerStart="0" markerEnd="0" shadowEnabled="0" shadowOffsetX="0" shadowOffsetY="2" shadowBlur="4" shadowOpacity="160" blurEnabled="0" blurRadius="4" transform="matrix(1.26439,0,0,1.26439,300.001,520.673)" pers-center="0,0" pers-size="0,0" pers-start="0,0" pers-end="0,0" locked="0" mesh="" flag=""/>
            <path id="shapePath9" d="M138.199,556.446 C138.199,556.774 137.357,557.268 135.671,557.926 C133.985,558.584 132.813,559.139 132.155,559.591 C131.497,560.043 130.223,561.174 128.331,562.983 C127.098,564.135 126.111,564.71 125.371,564.71 C122.904,564.052 119.121,561.997 114.023,558.543 C109.418,555.418 104.648,551.655 99.7141,547.256 C94.7799,542.856 90.1335,537.49 85.775,531.158 C84.377,529.102 82.6911,526.388 80.7175,523.016 C80.8819,532.062 81.0053,541.437 81.0875,551.141 C81.1698,560.845 81.2108,567.465 81.2108,571.001 L81.5809,575.566 C81.5809,576.552 81.3136,577.313 80.7791,577.848 C80.2446,578.382 79.1961,578.773 77.6336,579.02 C75.8243,579.02 74.7553,578.896 74.4263,578.649 C74.0152,578.403 73.8096,577.704 73.8096,576.552 L74.303,569.274 C74.303,565.903 74.3441,561.339 74.4263,555.582 C74.5086,549.825 74.5908,544.069 74.673,538.312 L74.673,529.924 C73.3573,531.322 72.2059,532.515 71.2191,533.501 C65.3803,539.258 58.4724,545.508 50.4955,552.251 C47.8639,554.472 42.9708,558.049 35.8162,562.983 C27.3458,568.822 22.1649,571.742 20.2735,571.742 L19.78,571.495 C19.8622,571.248 19.9034,571.084 19.9034,571.001 C20.0677,570.755 20.3557,570.508 20.7668,570.261 C22.905,569.11 27.3869,565.779 34.2126,560.27 C38.5711,556.816 43.1764,552.848 48.0283,548.366 C52.8803,543.884 57.6089,538.97 62.2142,533.625 C64.7635,530.582 67.8063,526.635 71.3425,521.783 C72.4115,520.22 73.5217,518.658 74.673,517.095 L74.673,487.737 L47.4116,487.49 C48.8096,488.066 50.3721,488.888 52.0991,489.957 C54.5662,491.437 55.7997,492.548 55.7997,493.288 C55.7997,493.781 55.1418,494.275 53.826,494.768 C52.5102,495.261 51.8112,495.59 51.729,495.755 L44.8211,506.857 C47.3704,507.679 49.303,508.378 50.6188,508.954 C54.7306,510.681 57.6089,512.367 59.2537,514.011 C60.2405,514.998 61.0423,516.108 61.6591,517.342 C62.2759,518.576 62.5843,519.85 62.5843,521.166 C62.5843,522.235 62.2553,523.242 61.5974,524.188 C60.9395,525.134 60.1171,525.607 59.1303,525.607 C58.308,525.607 57.28,524.661 56.0464,522.77 C53.9905,519.645 52.5102,517.465 51.6057,516.232 C50.3721,514.587 48.6862,512.778 46.5481,510.804 C45.8902,510.228 44.9856,509.447 43.8343,508.46 C43.2585,510.187 40.1747,514.258 34.5826,520.673 C28.9905,527.087 25.4955,530.294 24.0975,530.294 L23.7274,529.924 L24.2208,528.814 C31.5399,519.275 36.9675,511.01 40.5037,504.02 C43.382,498.263 45.3145,492.753 46.3014,487.49 L31.7455,487.367 C30.6764,487.367 29.5045,487.511 28.2298,487.798 C26.9552,488.086 25.8655,488.312 24.9609,488.477 L23.234,484.036 C23.5629,484.036 24.6526,484.139 26.5029,484.344 C28.3532,484.55 29.4017,484.653 29.6484,484.653 L74.673,484.653 L74.673,475.771 L73.5629,464.053 C76.6878,464.464 79.34,465.06 81.5192,465.841 C83.6985,466.622 84.7882,467.383 84.7882,468.123 C84.7882,468.781 84.1097,469.624 82.7528,470.652 C81.3959,471.68 80.7175,472.235 80.7175,472.317 L80.7175,484.653 L116.737,484.653 L122.164,478.115 C124.22,479.842 125.782,481.199 126.851,482.186 C129.236,484.406 130.428,485.886 130.428,486.627 C130.428,487.12 129.729,487.367 128.331,487.367 L105.512,487.367 C107.074,488.271 108.637,489.135 110.199,489.957 C112.502,491.355 113.653,492.465 113.653,493.288 C113.653,493.863 113.016,494.377 111.741,494.83 C110.466,495.282 109.788,495.59 109.706,495.755 L102.798,506.857 C105.759,508.008 108.061,508.954 109.706,509.694 C114.64,511.914 117.929,513.847 119.573,515.492 C121.876,517.63 123.027,519.974 123.027,522.523 C123.027,523.427 122.678,524.414 121.979,525.483 C121.28,526.552 120.478,527.087 119.573,527.087 C118.751,527.087 117.723,526.141 116.49,524.25 C114.434,521.125 112.954,518.946 112.049,517.712 C110.734,515.985 108.637,513.929 105.759,511.544 C104.854,510.804 103.538,509.776 101.811,508.46 C101.4,509.776 99.4674,512.737 96.0135,517.342 C92.2306,522.358 89.8457,524.867 88.8589,524.867 L88.4888,524.373 L88.9823,523.263 C91.8605,519.48 94.821,513.806 97.8638,506.24 C100.495,499.661 102.51,493.37 103.908,487.367 L80.7175,487.367 L80.7175,516.725 C82.5266,520.179 84.2536,523.016 85.8984,525.237 C90.7504,531.733 96.8358,537.531 104.155,542.63 C109.253,546.166 115.01,549.168 121.424,551.635 C126.604,553.608 130.695,554.801 133.697,555.212 C136.699,555.623 138.199,556.034 138.199,556.446 M250.492,475.031 C250.492,475.607 249.793,476.224 248.395,476.881 C246.997,477.539 246.298,477.951 246.298,478.115 C246.298,482.556 246.34,488.189 246.422,495.015 C246.504,501.84 246.607,509.92 246.73,519.254 C246.854,528.588 246.915,536.256 246.915,542.26 L247.039,544.974 C247.039,546.783 246.812,547.913 246.36,548.366 C245.908,548.818 244.654,549.209 242.598,549.538 C241.282,549.538 240.295,549.455 239.637,549.291 C239.391,549.291 239.103,549.168 238.774,548.921 L239.267,541.643 C239.267,540.738 239.349,536.092 239.514,527.704 C239.678,519.316 239.761,512.284 239.761,506.61 C239.761,499.784 239.719,494.069 239.637,489.464 C239.555,484.858 239.473,480.582 239.391,476.635 C239.391,475.155 239.185,473.263 238.774,470.96 C238.774,470.549 238.65,470.015 238.404,469.357 C238.979,469.357 241.138,470.159 244.88,471.762 C248.622,473.366 250.492,474.456 250.492,475.031 M232.236,501.182 C232.236,501.594 231.907,501.881 231.249,502.046 C230.838,502.128 229.933,502.169 228.535,502.169 L204.604,502.169 L204.604,511.174 C207.894,512.572 210.443,513.682 212.252,514.505 C218.009,517.219 221.997,519.645 224.218,521.783 C226.109,523.592 227.055,525.566 227.055,527.704 C227.055,528.937 226.726,530.171 226.068,531.404 C225.41,532.638 224.506,533.255 223.354,533.255 C222.285,533.255 221.298,532.474 220.394,530.911 C218.42,527.622 217.104,525.566 216.446,524.743 C213.568,521.125 210.731,517.959 207.935,515.245 C207.03,514.423 205.92,513.436 204.604,512.284 L205.345,570.015 C205.345,571.659 205.057,572.749 204.481,573.284 C203.905,573.818 202.59,574.209 200.534,574.455 C199.136,574.455 198.128,574.373 197.511,574.209 C196.895,574.044 196.381,573.88 195.97,573.715 L196.463,568.534 C196.463,563.271 196.71,552.909 197.203,537.449 C197.368,532.35 197.614,525.113 197.943,515.738 C196.545,517.876 195.394,519.603 194.489,520.919 C191.775,524.867 189.103,528.485 186.471,531.775 C183.84,534.817 180.961,537.901 177.836,541.026 C172.82,545.96 169.572,548.427 168.091,548.427 L167.721,548.181 L168.091,547.564 C173.19,542.465 178.638,535.27 184.436,525.977 C190.234,516.684 194.243,508.748 196.463,502.169 L186.595,502.169 C185.114,502.169 182.565,502.252 178.947,502.416 C175.328,502.58 173.396,502.663 173.149,502.663 C172.491,502.663 171.833,502.169 171.175,501.182 C170.517,500.196 170.188,499.332 170.188,498.592 L174.999,499.332 L198.19,499.332 L198.19,476.265 C195.641,477.169 191.344,477.745 185.299,477.992 C179.255,478.238 176.15,478.362 175.986,478.362 C175.41,478.362 174.917,478.238 174.506,477.992 C174.424,477.992 174.341,477.868 174.259,477.622 C174.67,477.293 175.04,477.128 175.369,477.128 C179.152,476.635 183.799,475.689 189.308,474.291 C198.108,472.071 205.468,469.562 211.389,466.766 C212.54,466.108 213.692,465.039 214.843,463.559 C215.007,463.312 215.295,462.901 215.706,462.326 C217.927,463.477 219.942,464.669 221.751,465.903 C224.958,468.041 226.562,469.562 226.562,470.467 C226.562,471.125 225.821,471.495 224.341,471.577 C222.861,471.659 221.545,471.701 220.394,471.701 C220.312,471.783 217.906,472.317 213.178,473.304 C208.449,474.291 205.591,474.949 204.604,475.278 L204.604,499.332 L217.063,499.332 L223.108,492.301 C225.164,494.028 226.685,495.303 227.672,496.125 C230.715,498.839 232.236,500.525 232.236,501.182 M277.754,467.877 C277.754,468.452 277.076,469.295 275.719,470.405 C274.362,471.516 273.683,472.235 273.683,472.564 L273.437,519.316 L273.807,559.406 C273.807,562.284 273.704,564.34 273.498,565.574 C273.293,566.807 272.696,568.103 271.71,569.46 C270.723,570.816 269.14,572.05 266.96,573.16 C264.781,574.27 262.869,574.825 261.224,574.825 C260.895,574.661 260.567,574.126 260.238,573.222 C259.909,572.317 259.456,571.618 258.881,571.125 C257.071,569.645 254.851,568.37 252.219,567.301 C250.492,566.725 248.766,566.149 247.039,565.574 C246.71,565.492 246.381,565.204 246.052,564.71 C246.545,564.464 246.997,564.34 247.409,564.34 L259.621,564.71 L261.841,564.71 C264.308,564.71 265.768,564.402 266.22,563.785 C266.673,563.168 266.899,561.092 266.899,557.556 C266.817,550.648 266.734,542.116 266.652,531.96 C266.57,521.803 266.467,511.277 266.344,500.381 C266.22,489.484 266.117,479.801 266.035,471.331 C266.035,469.932 265.747,468.164 265.172,466.026 C265.007,465.286 264.678,464.258 264.185,462.942 C266.159,462.942 269.366,463.765 273.807,465.409 C276.438,466.396 277.754,467.219 277.754,467.877 M432.772,560.146 C432.772,560.557 432.114,561.297 430.798,562.367 C430.058,563.024 429.236,563.682 428.331,564.34 C426.686,565.656 424.959,567.918 423.15,571.125 C422.739,571.865 419.244,572.235 412.665,572.235 C403.948,572.235 396.012,571.988 388.857,571.495 C378.66,570.755 370.149,569.603 363.323,568.041 C354.606,565.985 347.883,562.798 343.154,558.481 C338.426,554.163 336.062,549.538 336.062,544.603 C335.239,546.33 334.54,547.687 333.965,548.674 C332.32,551.717 330.675,554.431 329.03,556.816 C328.619,557.473 327.098,559.982 324.466,564.34 C322.821,567.136 321.917,568.575 321.752,568.658 C321.506,569.727 321.3,570.672 321.136,571.495 C320.724,573.14 320.149,573.962 319.409,573.962 C318.751,573.962 317.291,572.091 315.029,568.349 C312.768,564.608 311.637,562.408 311.637,561.75 C313.282,561.256 314.598,560.804 315.585,560.393 C318.545,559.077 321.094,557.432 323.233,555.459 C327.098,551.84 330.038,548.551 332.052,545.59 C334.067,542.63 335.321,539.669 335.815,536.709 C336.062,535.311 336.473,534.612 337.048,534.612 C337.377,534.858 337.583,535.064 337.665,535.228 C337.994,535.64 338.2,536.01 338.282,536.339 L338.282,542.013 C338.282,543.493 338.611,545.508 339.269,548.057 C339.927,550.607 340.626,551.881 341.366,551.881 C341.612,551.881 343.093,550.936 345.807,549.044 C349.425,546.577 353.167,543.74 357.032,540.533 C362.213,536.339 367.27,531.733 372.205,526.717 C376.81,522.112 381.292,517.054 385.65,511.544 C388.529,507.926 391.53,503.855 394.655,499.332 C395.724,497.687 396.834,496.043 397.986,494.398 L370.724,494.275 C362.089,494.275 353.578,494.295 345.19,494.336 C336.802,494.377 332.114,494.521 331.127,494.768 C330.141,495.015 329.441,495.138 329.03,495.138 C328.29,495.138 327.427,494.48 326.44,493.164 C325.453,491.849 324.96,490.821 324.96,490.08 C326.851,490.409 328.66,490.677 330.387,490.882 C332.114,491.088 333.512,491.191 334.581,491.191 L364.68,491.314 L364.557,476.881 C364.557,475.319 364.351,473.181 363.94,470.467 C363.858,469.645 363.652,468.452 363.323,466.89 C365.05,466.89 367.723,467.363 371.341,468.308 C374.959,469.254 376.769,470.261 376.769,471.331 C376.769,471.988 376.255,472.729 375.227,473.551 C374.199,474.373 373.15,475.196 372.081,476.018 L372.081,491.191 L398.109,491.191 L402.797,486.256 C403.208,486.256 404.914,487.264 407.916,489.279 C410.917,491.293 412.418,492.63 412.418,493.288 C412.418,494.11 411.205,495.035 408.779,496.063 C406.353,497.091 405.099,497.646 405.017,497.728 C403.948,499.209 402.879,500.648 401.81,502.046 C399.096,505.5 396.012,509.159 392.558,513.025 C387.788,518.288 382.793,523.325 377.57,528.136 C372.348,532.946 366.736,537.531 360.733,541.89 C356.374,545.015 352.057,547.893 347.78,550.524 C344.491,552.498 342.764,553.485 342.599,553.485 C342.599,553.814 343.792,554.719 346.177,556.199 C352.344,559.982 359.293,562.325 367.024,563.23 C370.478,563.641 374.075,563.929 377.817,564.094 C381.559,564.258 385.198,564.34 388.734,564.34 C398.027,564.34 407.32,563.765 416.612,562.613 C423.356,561.791 428.208,560.969 431.168,560.146 L432.278,559.899 L432.772,560.146 M580.22,566.437 C580.22,566.848 579.603,567.342 578.37,567.918 C574.258,569.891 572.037,571.001 571.708,571.248 C571.297,571.577 570.68,572.173 569.858,573.037 C569.036,573.9 568.501,574.373 568.255,574.455 C567.103,574.455 564.842,573.51 561.47,571.618 C558.098,569.727 554.727,567.465 551.355,564.834 C548.559,562.613 546.01,560.393 543.707,558.172 C542.967,557.515 542.103,556.651 541.116,555.582 C539.718,556.816 538.32,558.008 536.922,559.159 C533.304,561.955 529.192,564.546 524.587,566.931 C518.09,570.302 511.47,572.811 504.727,574.455 C503.904,574.702 502.917,574.928 501.766,575.134 C500.615,575.339 499.834,575.442 499.422,575.442 L498.806,575.195 C499.052,575.113 499.217,575.031 499.299,574.949 C500.286,574.373 501.149,573.962 501.889,573.715 C504.11,573.14 506.412,572.317 508.797,571.248 C511.922,569.932 515.376,568.164 519.159,565.944 C524.669,562.819 529.521,559.488 533.715,555.952 C535.031,554.883 536.47,553.526 538.032,551.881 C536.552,550.072 535.401,548.51 534.579,547.194 C531.947,543.164 529.727,538.724 527.917,533.872 C526.519,530.089 525.327,526.265 524.34,522.4 C524.093,521.248 523.806,519.891 523.477,518.329 L517.185,518.329 C517.185,529.431 515.541,539.34 512.251,548.057 C508.386,558.337 502.342,566.396 494.118,572.235 C492.473,573.386 491.281,573.962 490.541,573.962 C490.705,573.633 490.829,573.386 490.911,573.222 C491.322,572.646 491.939,572.029 492.761,571.371 C494.735,569.973 496.832,567.547 499.052,564.094 C502.342,558.995 505.014,552.868 507.07,545.714 C509.784,536.256 511.141,525.895 511.141,514.628 C511.141,505.171 510.977,497.338 510.648,491.129 C510.319,484.92 509.908,481.076 509.414,479.595 C510.237,479.595 511.696,480.253 513.793,481.569 C515.89,482.885 517.391,483.995 518.296,484.9 L533.962,484.9 L533.962,471.701 C533.962,470.22 533.818,468.493 533.53,466.52 C533.242,464.546 533.016,463.354 532.852,462.942 C534.332,462.942 536.593,463.271 539.636,463.929 C542.679,464.587 544.2,465.286 544.2,466.026 C544.2,466.437 543.337,467.342 541.61,468.74 C540.705,469.48 540.253,470.056 540.253,470.467 L540.253,484.9 L555.549,484.9 L559.126,480.212 C559.702,480.212 561.737,481.343 565.232,483.604 C568.727,485.866 570.475,487.326 570.475,487.983 C570.475,488.559 569.241,488.97 566.774,489.217 C564.307,489.464 562.868,489.71 562.457,489.957 C561.799,490.615 560.298,491.807 557.954,493.534 C555.611,495.261 554.151,496.125 553.575,496.125 L553.329,495.755 L554.069,493.658 C554.315,493 554.727,491.684 555.302,489.71 C555.385,489.135 555.59,488.354 555.919,487.367 L540.253,487.367 L540.253,515.862 L552.588,515.862 L556.289,511.421 C557.934,512.326 559.62,513.23 561.347,514.135 C563.978,515.697 565.294,516.849 565.294,517.589 C565.294,518.082 564.883,518.493 564.06,518.822 C561.84,519.809 560.689,520.426 560.607,520.673 C559.702,523.14 559.003,525.072 558.509,526.47 C556.865,530.911 555.549,534.159 554.562,536.215 C552.177,540.903 549.628,545.22 546.914,549.168 C546.503,549.825 545.927,550.607 545.187,551.511 C545.927,552.087 546.544,552.58 547.037,552.992 C550.08,555.212 553.596,557.432 557.584,559.653 C561.573,561.873 565.87,563.559 570.475,564.71 C573.682,565.286 576.931,565.862 580.22,566.437 M504.973,514.998 C504.973,515.574 504.295,516.047 502.938,516.417 C501.581,516.787 500.82,517.054 500.656,517.219 C500.656,517.465 499.381,518.617 496.832,520.673 C493.625,523.222 490.418,525.771 487.211,528.321 C488.691,528.321 491.404,529.842 495.352,532.885 C499.792,536.339 502.013,539.34 502.013,541.89 C502.013,542.794 501.725,543.658 501.149,544.48 C500.574,545.302 499.834,545.714 498.929,545.714 C497.778,545.714 496.524,544.645 495.167,542.506 C493.81,540.368 492.473,538.23 491.158,536.092 C489.349,533.625 487.663,531.733 486.1,530.418 C484.949,529.677 483.798,528.937 482.647,528.197 L482.523,549.784 C482.523,553.978 482.544,557.905 482.585,561.565 C482.626,565.224 482.729,567.959 482.893,569.768 L483.263,573.592 C483.263,575.072 482.647,576.162 481.413,576.861 C480.18,577.56 478.782,577.909 477.219,577.909 C476.726,577.909 476.233,577.827 475.739,577.663 C475.657,577.663 475.493,577.58 475.246,577.416 L475.739,570.138 C475.822,569.645 475.904,564.854 475.986,555.767 C476.068,546.68 476.13,539.237 476.171,533.44 C476.212,527.642 476.274,522.646 476.356,518.452 C476.356,519.521 473.231,522.646 466.981,527.827 C460.731,533.008 457.113,535.599 456.126,535.599 C455.879,534.941 456.208,534.283 457.113,533.625 C459.086,531.98 461.554,529.39 464.514,525.853 C467.804,521.906 471.011,517.835 474.136,513.641 C478.987,507.062 482.688,501.1 485.237,495.755 C486.059,493.946 486.882,491.807 487.704,489.34 L479.07,489.217 C475.945,489.217 473.313,489.258 471.175,489.34 C469.037,489.423 467.639,489.628 466.981,489.957 L465.624,490.327 C464.884,490.327 463.918,489.813 462.725,488.785 C461.533,487.757 460.937,486.914 460.937,486.256 L476.726,486.503 L476.849,470.714 C476.849,469.316 476.747,468.082 476.541,467.013 C476.336,465.944 476.109,464.957 475.863,464.053 C477.507,464.053 479.81,464.34 482.77,464.916 C485.73,465.492 487.211,466.232 487.211,467.136 C487.211,467.465 486.306,468.288 484.497,469.604 C483.592,470.261 483.14,470.837 483.14,471.331 L483.14,486.503 L488.321,486.503 L492.391,481.939 C492.802,481.939 494.221,482.946 496.647,484.961 C499.073,486.976 500.286,488.271 500.286,488.847 C500.286,489.505 499.361,490.06 497.51,490.512 C495.66,490.965 494.612,491.437 494.365,491.931 C494.365,492.835 491.939,497.029 487.087,504.513 C484.538,508.46 483.058,510.845 482.647,511.668 L482.647,526.224 L485.73,527.457 C491.158,522.029 495.105,515.697 497.572,508.46 C498.065,508.46 499.422,509.386 501.643,511.236 C503.863,513.086 504.973,514.34 504.973,514.998 M533.962,515.862 L533.962,487.367 L517.556,487.367 L517.309,515.862 L533.962,515.862 M553.205,518.329 L525.574,518.329 C525.82,519.727 526.067,520.919 526.314,521.906 C527.136,524.702 528.596,528.218 530.693,532.453 C532.79,536.688 534.784,540.08 536.676,542.63 C537.909,544.275 539.348,545.837 540.993,547.317 C543.296,544.85 545.907,540.204 548.826,533.378 C551.745,526.552 553.205,521.536 553.205,518.329 Z" style="stroke:none;fill-rule:evenodd;fill:#000000;fill-opacity:1;"/>
        </g>
    </g>
</svg>
