<?xml version="1.0"?>
<svg version="1.1" xmlns="http://www.w3.org/2000/svg" xmlns:xlink="http://www.w3.org/1999/xlink" width="600" height="600">
    <desc iVinci="yes" version="4.6" gridStep="20" showGrid="no" snapToGrid="no" codePlatform="0"/>
    <g id="Layer1" name="Layer 1" visibility="hidden" opacity="1">
        <g id="Shape1">
            <desc shapeID="1" type="0" basicInfo-basicType="1" basicInfo-roundedRectRadius="12" basicInfo-polygonSides="6" basicInfo-starPoints="5" bounding="rect(-3.62424,-375.367,7.24847,750.734)" text="" font-familyName="나눔스퀘어" font-pixelSize="100" font-bold="0" font-underline="0" font-alignment="1" strokeStyle="0" markerStart="0" markerEnd="0" shadowEnabled="0" shadowOffsetX="0" shadowOffsetY="2" shadowBlur="4" shadowOpacity="160" blurEnabled="0" blurRadius="4" transform="matrix(1,0,0,1,300,310.649)" pers-center="0,0" pers-size="0,0" pers-start="0,0" pers-end="0,0" locked="0" mesh="" flag=""/>
            <path id="shapePath1" d="M296.376,-64.7184 L303.624,-64.7184 L303.624,686.016 L296.376,686.016 L296.376,-64.7184 Z" style="stroke:none;fill-rule:evenodd;fill:#e6e6e6;fill-opacity:1;"/>
        </g>
        <g id="Shape2">
            <desc shapeID="2" type="0" basicInfo-basicType="1" basicInfo-roundedRectRadius="12" basicInfo-polygonSides="6" basicInfo-starPoints="5" bounding="rect(-3.62424,-375.367,7.24847,750.734)" text="" font-familyName="나눔스퀘어" font-pixelSize="100" font-bold="0" font-underline="0" font-alignment="1" strokeStyle="0" markerStart="0" markerEnd="0" shadowEnabled="0" shadowOffsetX="0" shadowOffsetY="2" shadowBlur="4" shadowOpacity="160" blurEnabled="0" blurRadius="4" transform="matrix(1,0,0,1,445.711,310.649)" pers-center="0,0" pers-size="0,0" pers-start="0,0" pers-end="0,0" locked="0" mesh="" flag=""/>
            <path id="shapePath2" d="M442.087,-64.7184 L449.335,-64.7184 L449.335,686.016 L442.087,686.016 L442.087,-64.7184 Z" style="stroke:none;fill-rule:evenodd;fill:#e6e6e6;fill-opacity:1;"/>
        </g>
        <g id="Shape3">
            <desc shapeID="3" type="0" basicInfo-basicType="1" basicInfo-roundedRectRadius="12" basicInfo-polygonSides="6" basicInfo-starPoints="5" bounding="rect(-3.62424,-375.367,7.24847,750.734)" text="" font-familyName="나눔스퀘어" font-pixelSize="100" font-bold="0" font-underline="0" font-alignment="1" strokeStyle="0" markerStart="0" markerEnd="0" shadowEnabled="0" shadowOffsetX="0" shadowOffsetY="2" shadowBlur="4" shadowOpacity="160" blurEnabled="0" blurRadius="4" transform="matrix(1,0,0,1,158.431,310.649)" pers-center="0,0" pers-size="0,0" pers-start="0,0" pers-end="0,0" locked="0" mesh="" flag=""/>
            <path id="shapePath3" d="M154.807,-64.7184 L162.055,-64.7184 L162.055,686.016 L154.807,686.016 L154.807,-64.7184 Z" style="stroke:none;fill-rule:evenodd;fill:#e6e6e6;fill-opacity:1;"/>
        </g>
        <g id="Shape4">
            <desc shapeID="4" type="0" basicInfo-basicType="1" basicInfo-roundedRectRadius="12" basicInfo-polygonSides="6" basicInfo-starPoints="5" bounding="rect(-3.62424,-375.367,7.24847,750.734)" text="" font-familyName="나눔스퀘어" font-pixelSize="100" font-bold="0" font-underline="0" font-alignment="1" strokeStyle="0" markerStart="0" markerEnd="0" shadowEnabled="0" shadowOffsetX="0" shadowOffsetY="2" shadowBlur="4" shadowOpacity="160" blurEnabled="0" blurRadius="4" transform="matrix(-0.00335225,0.999994,-0.999994,-0.00335225,287.225,354.665)" pers-center="0,0" pers-size="0,0" pers-start="0,0" pers-end="0,0" locked="0" mesh="" flag=""/>
            <path id="shapePath4" d="M662.602,352.3 L662.578,359.548 L-88.1519,357.031 L-88.1276,349.783 L662.602,352.3 Z" style="stroke:none;fill-rule:evenodd;fill:#e6e6e6;fill-opacity:1;"/>
        </g>
        <g id="Shape5">
            <desc shapeID="5" type="0" basicInfo-basicType="1" basicInfo-roundedRectRadius="12" basicInfo-polygonSides="6" basicInfo-starPoints="5" bounding="rect(-3.62424,-375.367,7.24847,750.734)" text="" font-familyName="나눔스퀘어" font-pixelSize="100" font-bold="0" font-underline="0" font-alignment="1" strokeStyle="0" markerStart="0" markerEnd="0" shadowEnabled="0" shadowOffsetX="0" shadowOffsetY="2" shadowBlur="4" shadowOpacity="160" blurEnabled="0" blurRadius="4" transform="matrix(-0.00335225,0.999994,-0.999994,-0.00335225,318.458,182.497)" pers-center="0,0" pers-size="0,0" pers-start="0,0" pers-end="0,0" locked="0" mesh="" flag=""/>
            <path id="shapePath5" d="M693.835,180.131 L693.811,187.38 L-56.9191,184.863 L-56.8948,177.615 L693.835,180.131 Z" style="stroke:none;fill-rule:evenodd;fill:#e6e6e6;fill-opacity:1;"/>
        </g>
        <g id="Shape6">
            <desc shapeID="6" type="0" basicInfo-basicType="1" basicInfo-roundedRectRadius="12" basicInfo-polygonSides="6" basicInfo-starPoints="5" bounding="rect(-3.62424,-375.367,7.24847,750.734)" text="" font-familyName="나눔스퀘어" font-pixelSize="100" font-bold="0" font-underline="0" font-alignment="1" strokeStyle="0" markerStart="0" markerEnd="0" shadowEnabled="0" shadowOffsetX="0" shadowOffsetY="2" shadowBlur="4" shadowOpacity="160" blurEnabled="0" blurRadius="4" transform="matrix(-0.00335225,0.999994,-0.999994,-0.00335225,300,540.193)" pers-center="0,0" pers-size="0,0" pers-start="0,0" pers-end="0,0" locked="0" mesh="" flag=""/>
            <path id="shapePath6" d="M675.377,537.827 L675.353,545.076 L-75.3772,542.559 L-75.3529,535.31 L675.377,537.827 Z" style="stroke:none;fill-rule:evenodd;fill:#e6e6e6;fill-opacity:1;"/>
        </g>
    </g>
    <g id="Layer2" name="gmail" opacity="1">
        <g id="Shape7">
            <desc shapeID="7" type="0" basicInfo-basicType="0" basicInfo-roundedRectRadius="12" basicInfo-polygonSides="6" basicInfo-starPoints="5" bounding="rect(-217.49,-37.15,434.98,74.3)" text="LAZYPIC" font-familyName="나눔스퀘어" font-pixelSize="100" font-bold="0" font-underline="0" font-alignment="1" strokeStyle="0" markerStart="0" markerEnd="0" shadowEnabled="0" shadowOffsetX="0" shadowOffsetY="2" shadowBlur="4" shadowOpacity="160" blurEnabled="0" blurRadius="4" transform="matrix(1.2629,0,0,1.2629,299.499,87.4576)" pers-center="0,0" pers-size="0,0" pers-start="0,0" pers-end="0,0" locked="0" mesh="" flag=""/>
            <path id="shapePath7" d="M30.3871,41.9299 L30.3871,127.807 L77.6197,127.807 L77.6197,132.985 L24.8304,132.985 L24.8304,41.9299 L30.3871,41.9299 M159.71,103.56 L118.539,103.56 L107.425,132.985 L101.363,132.985 L136.473,41.9299 L142.03,41.9299 L176.759,132.985 L170.571,132.985 L159.71,103.56 M120.433,98.6343 L157.816,98.6343 L146.955,69.2086 C145.608,65.5041 144.261,61.9049 142.914,58.4108 C141.567,54.9168 140.346,51.4017 139.251,47.8656 C138.241,51.4017 137.083,54.9168 135.778,58.4108 C134.473,61.9049 133.105,65.5041 131.673,69.2086 L120.433,98.6343 M259.45,46.3501 L202.746,127.934 L261.85,127.934 L261.85,132.985 L195.926,132.985 L195.926,128.565 L252.631,46.9816 L199.084,46.9816 L199.084,41.9299 L259.45,41.9299 L259.45,46.3501 M323.686,95.2244 L323.686,132.985 L318.129,132.985 L318.129,95.2244 L286.682,41.9299 L292.618,41.9299 L321.033,90.1728 L348.312,41.9299 L354.374,41.9299 L323.686,95.2244 M382.581,41.9299 L410.996,41.9299 C420.594,41.9299 427.877,44.119 432.844,48.497 C437.811,52.8751 440.295,59.2738 440.295,67.6932 L440.295,70.4715 C440.295,79.0593 437.748,85.5211 432.655,89.8571 C427.561,94.1931 420.215,96.361 410.617,96.361 L388.137,96.361 L388.137,132.985 L382.581,132.985 L382.581,41.9299 M388.137,47.1078 L388.137,91.1832 L409.985,91.1832 C414.532,91.1832 418.363,90.699 421.478,89.7308 C424.593,88.7626 427.14,87.3734 429.118,85.5632 C431.097,83.7531 432.507,81.564 433.349,78.9961 C434.191,76.4282 434.612,73.5446 434.612,70.3453 L434.612,67.9457 C434.612,64.8306 434.191,61.9891 433.349,59.4212 C432.507,56.8532 431.139,54.6642 429.245,52.8541 C427.35,51.0439 424.909,49.6337 421.92,48.6233 C418.931,47.613 415.29,47.1078 410.996,47.1078 L388.137,47.1078 M476.768,41.9299 L476.768,132.985 L471.211,132.985 L471.211,41.9299 L476.768,41.9299 M574.168,124.019 C573.242,124.861 571.958,125.871 570.316,127.05 C568.674,128.228 566.654,129.365 564.254,130.459 C561.855,131.554 559.076,132.48 555.919,133.238 C552.762,133.996 549.247,134.374 545.374,134.374 C538.975,134.374 533.524,133.343 529.019,131.28 C524.515,129.218 520.832,126.292 517.969,122.503 C515.106,118.714 513.002,114.147 511.654,108.801 C510.307,103.454 509.634,97.5398 509.634,91.0569 L509.634,81.3325 C509.634,75.1022 510.349,69.4612 511.781,64.4096 C513.212,59.358 515.359,55.0641 518.222,51.528 C521.084,47.9919 524.662,45.2766 528.956,43.3823 C533.25,41.4879 538.217,40.5408 543.858,40.5408 C549.752,40.5408 555.056,41.3406 559.771,42.9403 C564.486,44.5399 568.527,46.5606 571.895,49.0022 L568.864,53.2961 C565.159,50.7703 561.413,48.897 557.624,47.6762 C553.835,46.4553 549.247,45.8449 543.858,45.8449 C539.312,45.8449 535.25,46.6448 531.671,48.2445 C528.093,49.8441 525.104,52.1174 522.705,55.0641 C520.305,58.0109 518.474,61.5891 517.211,65.7988 C515.948,70.0085 515.317,74.6812 515.317,79.817 L515.317,92.4461 C515.317,104.486 517.885,113.6 523.021,119.788 C528.156,125.976 535.692,129.07 545.627,129.07 C548.657,129.07 551.457,128.776 554.025,128.186 C556.593,127.597 558.95,126.839 561.097,125.913 C563.244,124.987 565.138,123.977 566.78,122.882 C568.422,121.787 569.79,120.777 570.885,119.851 L574.168,124.019 Z" style="stroke:none;fill-rule:nonzero;fill:#000000;fill-opacity:1;"/>
        </g>
        <g id="Shape8">
            <desc shapeID="8" type="0" basicInfo-basicType="0" basicInfo-roundedRectRadius="12" basicInfo-polygonSides="6" basicInfo-starPoints="5" bounding="rect(-201.497,-45.55,402.995,91.1)" text="레이지픽" font-familyName="나눔스퀘어" font-pixelSize="100" font-bold="0" font-underline="0" font-alignment="1" strokeStyle="0" markerStart="0" markerEnd="0" shadowEnabled="0" shadowOffsetX="0" shadowOffsetY="2" shadowBlur="4" shadowOpacity="160" blurEnabled="0" blurRadius="4" transform="matrix(1.34144,0,0,1.34144,300,268.216)" pers-center="0,0" pers-size="0,0" pers-start="0,0" pers-end="0,0" locked="0" mesh="" flag=""/>
            <path id="shapePath8" d="M121.055,207.113 L126.824,207.113 L126.824,328.648 L121.055,328.648 L121.055,207.113 M78.2634,253.393 L98.1167,253.393 L98.1167,209.662 L103.885,209.662 L103.885,322.611 L98.1167,322.611 L98.1167,258.893 L78.2634,258.893 L78.2634,253.393 M35.3373,259.027 L35.3373,290.953 L45.8005,290.953 C48.1257,290.953 50.898,290.886 54.1174,290.752 C57.3369,290.618 60.7352,290.439 64.3124,290.215 C67.8896,289.992 71.4667,289.701 75.0439,289.343 C78.6211,288.986 81.8853,288.538 84.8364,288.002 L85.5071,293.234 C82.2877,293.77 78.7329,294.24 74.8427,294.642 C70.9525,295.044 67.107,295.38 63.3063,295.648 C59.5056,295.916 55.9061,296.095 52.5077,296.185 C49.1094,296.274 46.3371,296.319 44.1908,296.319 L29.7032,296.319 L29.7032,253.795 L64.849,253.795 L64.849,223.344 L29.7032,223.344 L29.7032,218.113 L70.483,218.113 L70.483,259.027 L35.3373,259.027 M264.973,328.648 L264.973,207.113 L270.741,207.113 L270.741,328.648 L264.973,328.648 M207.559,297.929 C202.641,297.929 198.348,297.079 194.681,295.38 C191.015,293.681 187.952,291.288 185.493,288.203 C183.033,285.118 181.2,281.406 179.993,277.069 C178.785,272.732 178.182,267.97 178.182,262.783 L178.182,251.112 C178.182,245.925 178.785,241.163 179.993,236.826 C181.2,232.489 183.033,228.777 185.493,225.692 C187.952,222.607 191.015,220.214 194.681,218.515 C198.348,216.816 202.641,215.967 207.559,215.967 C212.478,215.967 216.77,216.816 220.437,218.515 C224.104,220.214 227.166,222.607 229.626,225.692 C232.085,228.777 233.918,232.489 235.126,236.826 C236.333,241.163 236.937,245.925 236.937,251.112 L236.937,262.783 C236.937,267.97 236.333,272.732 235.126,277.069 C233.918,281.406 232.085,285.118 229.626,288.203 C227.166,291.288 224.104,293.681 220.437,295.38 C216.77,297.079 212.478,297.929 207.559,297.929 M207.559,221.332 C203.535,221.332 200.047,222.07 197.096,223.546 C194.145,225.021 191.708,227.123 189.785,229.85 C187.862,232.578 186.409,235.865 185.426,239.71 C184.442,243.556 183.95,247.893 183.95,252.722 L183.95,261.173 C183.95,266.002 184.442,270.34 185.426,274.185 C186.409,278.031 187.862,281.317 189.785,284.045 C191.708,286.772 194.145,288.874 197.096,290.349 C200.047,291.825 203.535,292.563 207.559,292.563 C211.584,292.563 215.071,291.825 218.022,290.349 C220.974,288.874 223.41,286.772 225.333,284.045 C227.256,281.317 228.709,278.031 229.693,274.185 C230.677,270.34 231.168,266.002 231.168,261.173 L231.168,252.722 C231.168,247.893 230.677,243.556 229.693,239.71 C228.709,235.865 227.256,232.578 225.333,229.85 C223.41,227.123 220.974,225.021 218.022,223.546 C215.071,222.07 211.584,221.332 207.559,221.332 M363.599,262.783 C363.42,263.856 362.906,265.063 362.057,266.405 C361.207,267.746 360.246,269.11 359.172,270.496 C358.099,271.882 356.937,273.268 355.685,274.655 C354.433,276.041 353.315,277.27 352.331,278.344 C351.347,279.417 350.095,280.758 348.575,282.368 C347.055,283.978 345.356,285.699 343.478,287.532 C341.6,289.366 339.654,291.244 337.642,293.166 C335.63,295.089 333.64,296.9 331.673,298.599 L327.783,294.441 C332.344,290.417 336.547,286.526 340.392,282.77 C344.238,279.014 347.815,275.258 351.124,271.502 C353.27,268.998 354.969,266.829 356.221,264.996 C357.473,263.163 358.412,261.352 359.038,259.563 C359.664,257.775 360.067,255.897 360.246,253.929 C360.424,251.962 360.514,249.592 360.514,246.82 L360.514,223.747 L330.868,223.747 L330.868,218.515 L395.928,218.515 L395.928,223.747 L366.282,223.747 L366.282,246.82 C366.282,249.503 366.394,251.828 366.617,253.795 C366.841,255.763 367.288,257.551 367.959,259.161 C368.63,260.771 369.524,262.358 370.642,263.923 C371.76,265.488 373.258,267.254 375.136,269.222 C378.355,272.71 381.977,276.398 386.001,280.289 C390.026,284.179 394.184,288.136 398.477,292.16 L394.587,296.051 C390.831,292.652 387.097,289.12 383.385,285.453 C379.674,281.787 376.298,278.388 373.258,275.258 C372.453,274.364 371.536,273.403 370.508,272.374 C369.479,271.346 368.495,270.273 367.556,269.155 C366.617,268.037 365.813,266.941 365.142,265.868 C364.471,264.795 364.002,263.767 363.733,262.783 L363.599,262.783 M418.867,328.648 L418.867,207.113 L424.635,207.113 L424.635,328.648 L418.867,328.648 M486.993,264.258 L486.993,219.857 L474.518,219.857 L474.518,214.625 L541.858,214.625 L541.858,219.857 L526.834,219.857 L526.834,263.99 C529.964,263.811 533.184,263.588 536.492,263.319 C539.801,263.051 543.334,262.693 547.09,262.246 L547.626,267.344 C540.651,268.327 533.519,268.931 526.23,269.155 C518.942,269.378 511.363,269.49 503.493,269.49 L473.579,269.49 L473.579,264.258 L486.993,264.258 M506.176,264.258 C508.769,264.258 511.273,264.258 513.688,264.258 C516.103,264.258 518.562,264.214 521.066,264.124 L521.066,219.857 L492.762,219.857 L492.762,264.258 L506.176,264.258 M493.969,285.856 L570.297,285.856 L570.297,329.318 L564.663,329.318 L564.663,291.221 L493.969,291.221 L493.969,285.856 M564.529,277.807 L564.529,207.113 L570.297,207.113 L570.297,277.807 L564.529,277.807 Z" style="stroke:none;fill-rule:nonzero;fill:#000000;fill-opacity:1;"/>
        </g>
        <g id="Shape9">
            <desc shapeID="9" type="0" basicInfo-basicType="0" basicInfo-roundedRectRadius="12" basicInfo-polygonSides="6" basicInfo-starPoints="5" bounding="rect(-20.4177,-19.9837,40.8355,39.9674)" text="올 래&#10;(미래)" font-familyName="나눔스퀘어" font-pixelSize="18" font-bold="0" font-underline="0" font-alignment="1" strokeStyle="0" markerStart="0" markerEnd="0" shadowEnabled="0" shadowOffsetX="0" shadowOffsetY="2" shadowBlur="4" shadowOpacity="160" blurEnabled="0" blurRadius="4" transform="matrix(1,0,0,1,76.6303,542.744)" pers-center="0,0" pers-size="0,0" pers-start="0,0" pers-end="0,0" locked="0" mesh="" flag=""/>
            <path id="shapePath9" d="M66.1881,522.904 C66.8121,522.904 67.4241,522.955 68.0241,523.057 C68.6241,523.159 69.1581,523.318 69.6261,523.534 C70.0941,523.75 70.4721,524.026 70.7601,524.362 C71.0481,524.698 71.1921,525.1 71.1921,525.568 L71.1921,526 C71.1921,526.42 71.0631,526.792 70.8051,527.116 C70.5471,527.44 70.2021,527.713 69.7701,527.935 C69.3381,528.157 68.8431,528.328 68.2851,528.448 C67.7271,528.568 67.1541,528.64 66.5661,528.664 L66.5661,530.284 L73.6941,530.284 L73.6941,530.95 L58.6821,530.95 L58.6821,530.284 L65.8101,530.284 L65.8101,528.664 C65.2221,528.64 64.6491,528.571 64.0911,528.457 C63.5331,528.343 63.0381,528.178 62.6061,527.962 C62.1741,527.746 61.8291,527.476 61.5711,527.152 C61.3131,526.828 61.1841,526.444 61.1841,526 L61.1841,525.568 C61.1841,525.1 61.3281,524.698 61.6161,524.362 C61.9041,524.026 62.2821,523.75 62.7501,523.534 C63.2181,523.318 63.7521,523.159 64.3521,523.057 C64.9521,522.955 65.5641,522.904 66.1881,522.904 M66.1881,527.98 C66.7281,527.98 67.2501,527.938 67.7541,527.854 C68.2581,527.77 68.7081,527.644 69.1041,527.476 C69.5001,527.308 69.8181,527.098 70.0581,526.846 C70.2981,526.594 70.4181,526.3 70.4181,525.964 L70.4181,525.622 C70.4181,525.262 70.2981,524.956 70.0581,524.704 C69.8181,524.452 69.5001,524.245 69.1041,524.083 C68.7081,523.921 68.2581,523.801 67.7541,523.723 C67.2501,523.645 66.7281,523.606 66.1881,523.606 C65.6481,523.606 65.1261,523.645 64.6221,523.723 C64.1181,523.801 63.6681,523.921 63.2721,524.083 C62.8761,524.245 62.5581,524.452 62.3181,524.704 C62.0781,524.956 61.9581,525.262 61.9581,525.622 L61.9581,525.964 C61.9581,526.324 62.0781,526.63 62.3181,526.882 C62.5581,527.134 62.8761,527.341 63.2721,527.503 C63.6681,527.665 64.1181,527.785 64.6221,527.863 C65.1261,527.941 65.6481,527.98 66.1881,527.98 M61.0041,539.104 L61.0041,535.594 L70.6341,535.594 L70.6341,533.416 L60.9141,533.416 L60.9141,532.75 L71.3901,532.75 L71.3901,536.242 L61.7601,536.242 L61.7601,538.438 L71.8761,538.438 L71.8761,539.104 L61.0041,539.104 M81.1051,529.726 L81.1051,534.01 L82.3291,534.01 C82.6411,534.01 83.0131,534.001 83.4451,533.983 C83.8771,533.965 84.3331,533.941 84.8131,533.911 C85.2931,533.881 85.7731,533.842 86.2531,533.794 C86.7331,533.746 87.1711,533.686 87.5671,533.614 L87.6571,534.316 C87.2251,534.388 86.7481,534.451 86.2261,534.505 C85.7041,534.559 85.1881,534.604 84.6781,534.64 C84.1681,534.676 83.6851,534.7 83.2291,534.712 C82.7731,534.724 82.4011,534.73 82.1131,534.73 L80.3491,534.73 L80.3491,529.024 L85.3351,529.024 L85.3351,524.938 L80.3491,524.938 L80.3491,524.236 L86.0911,524.236 L86.0911,529.726 L81.1051,529.726 M93.4351,539.068 L92.6611,539.068 L92.6611,529.636 L89.7631,529.636 L89.7631,538.258 L88.9891,538.258 L88.9891,523.102 L89.7631,523.102 L89.7631,528.916 L92.6611,528.916 L92.6611,522.76 L93.4351,522.76 L93.4351,539.068 M57.0946,554.736 C57.0946,556.104 57.2806,557.46 57.6526,558.804 C58.0246,560.148 58.6726,561.456 59.5966,562.728 L58.8406,562.728 C57.9406,561.66 57.2776,560.43 56.8516,559.038 C56.4256,557.646 56.2126,556.182 56.2126,554.646 L56.2126,553.926 C56.2126,552.39 56.4256,550.932 56.8516,549.552 C57.2776,548.172 57.9406,546.948 58.8406,545.88 L59.5966,545.88 C58.7086,547.08 58.0696,548.343 57.6796,549.669 C57.2896,550.995 57.0946,552.384 57.0946,553.836 L57.0946,554.736 M73.6221,562.044 L73.6221,545.736 L74.3961,545.736 L74.3961,562.044 L73.6221,562.044 M62.1741,557.706 L62.1741,547.248 L69.6081,547.248 L69.6081,557.706 L62.1741,557.706 M62.9481,556.986 L68.8341,556.986 L68.8341,547.968 L62.9481,547.968 L62.9481,556.986 M78.8551,552.702 L78.8551,556.986 L80.0791,556.986 C80.3911,556.986 80.7631,556.977 81.1951,556.959 C81.6271,556.941 82.0831,556.917 82.5631,556.887 C83.0431,556.857 83.5231,556.818 84.0031,556.77 C84.4831,556.722 84.9211,556.662 85.3171,556.59 L85.4071,557.292 C84.9751,557.364 84.4981,557.427 83.9761,557.481 C83.4541,557.535 82.9381,557.58 82.4281,557.616 C81.9181,557.652 81.4351,557.676 80.9791,557.688 C80.5231,557.7 80.1511,557.706 79.8631,557.706 L78.0991,557.706 L78.0991,552 L83.0851,552 L83.0851,547.914 L78.0991,547.914 L78.0991,547.212 L83.8411,547.212 L83.8411,552.702 L78.8551,552.702 M91.1851,562.044 L90.4111,562.044 L90.4111,552.612 L87.5131,552.612 L87.5131,561.234 L86.7391,561.234 L86.7391,546.078 L87.5131,546.078 L87.5131,551.892 L90.4111,551.892 L90.4111,545.736 L91.1851,545.736 L91.1851,562.044 M96.1661,553.836 C96.1661,552.384 95.9711,550.995 95.5811,549.669 C95.1911,548.343 94.5521,547.08 93.6641,545.88 L94.4201,545.88 C95.3201,546.948 95.9831,548.172 96.4091,549.552 C96.8351,550.932 97.0481,552.39 97.0481,553.926 L97.0481,554.646 C97.0481,556.182 96.8351,557.646 96.4091,559.038 C95.9831,560.43 95.3201,561.66 94.4201,562.728 L93.6641,562.728 C94.5881,561.456 95.2361,560.148 95.6081,558.804 C95.9801,557.46 96.1661,556.104 96.1661,554.736 L96.1661,553.836 Z" style="stroke:none;fill-rule:nonzero;fill:#ffffff;fill-opacity:1;"/>
        </g>
        <g id="Shape10">
            <desc shapeID="10" type="0" basicInfo-basicType="0" basicInfo-roundedRectRadius="12" basicInfo-polygonSides="6" basicInfo-starPoints="5" bounding="rect(-33.0225,-8.172,66.045,16.344)" text="이로울 이" font-familyName="나눔스퀘어" font-pixelSize="18" font-bold="0" font-underline="0" font-alignment="1" strokeStyle="0" markerStart="0" markerEnd="0" shadowEnabled="0" shadowOffsetX="0" shadowOffsetY="2" shadowBlur="4" shadowOpacity="160" blurEnabled="0" blurRadius="4" transform="matrix(1,0,0,1,226.857,543.348)" pers-center="0,0" pers-size="0,0" pers-start="0,0" pers-end="0,0" locked="0" mesh="" flag=""/>
            <path id="shapePath10" d="M205.48,551.484 L205.48,535.176 L206.255,535.176 L206.255,551.484 L205.48,551.484 M197.776,547.362 C197.117,547.362 196.54,547.248 196.048,547.02 C195.556,546.792 195.145,546.471 194.815,546.057 C194.486,545.643 194.24,545.145 194.077,544.563 C193.915,543.981 193.835,543.342 193.835,542.646 L193.835,541.08 C193.835,540.384 193.915,539.745 194.077,539.163 C194.24,538.581 194.486,538.083 194.815,537.669 C195.145,537.255 195.556,536.934 196.048,536.706 C196.54,536.478 197.117,536.364 197.776,536.364 C198.436,536.364 199.012,536.478 199.505,536.706 C199.996,536.934 200.408,537.255 200.737,537.669 C201.067,538.083 201.313,538.581 201.475,539.163 C201.637,539.745 201.718,540.384 201.718,541.08 L201.718,542.646 C201.718,543.342 201.637,543.981 201.475,544.563 C201.313,545.145 201.067,545.643 200.737,546.057 C200.408,546.471 199.996,546.792 199.505,547.02 C199.012,547.248 198.436,547.362 197.776,547.362 M197.776,537.084 C197.236,537.084 196.768,537.183 196.372,537.381 C195.977,537.579 195.649,537.861 195.391,538.227 C195.133,538.593 194.938,539.034 194.806,539.55 C194.674,540.066 194.608,540.648 194.608,541.296 L194.608,542.43 C194.608,543.078 194.674,543.66 194.806,544.176 C194.938,544.692 195.133,545.133 195.391,545.499 C195.649,545.865 195.977,546.147 196.372,546.345 C196.768,546.543 197.236,546.642 197.776,546.642 C198.316,546.642 198.785,546.543 199.18,546.345 C199.576,546.147 199.904,545.865 200.161,545.499 C200.419,545.133 200.615,544.692 200.746,544.176 C200.878,543.66 200.944,543.078 200.944,542.43 L200.944,541.296 C200.944,540.648 200.878,540.066 200.746,539.55 C200.615,539.034 200.419,538.593 200.161,538.227 C199.904,537.861 199.576,537.579 199.18,537.381 C198.785,537.183 198.316,537.084 197.776,537.084 M217.121,544.878 L217.121,548.37 L224.249,548.37 L224.249,549.054 L209.237,549.054 L209.237,548.37 L216.347,548.37 L216.347,544.878 L211.559,544.878 L211.559,540.324 L221.153,540.324 L221.153,537.138 L211.523,537.138 L211.523,536.454 L221.891,536.454 L221.891,540.99 L212.298,540.99 L212.298,544.194 L222.251,544.194 L222.251,544.878 L217.121,544.878 M227.934,551.52 L227.934,547.992 L237.564,547.992 L237.564,545.796 L227.844,545.796 L227.844,545.13 L232.74,545.13 L232.74,543.006 L225.612,543.006 L225.612,542.34 L240.624,542.34 L240.624,543.006 L233.496,543.006 L233.496,545.13 L238.32,545.13 L238.32,548.64 L228.69,548.64 L228.69,550.854 L238.806,550.854 L238.806,551.52 L227.934,551.52 M233.118,535.32 C233.742,535.32 234.354,535.371 234.954,535.473 C235.554,535.575 236.089,535.734 236.556,535.95 C237.024,536.166 237.402,536.439 237.69,536.769 C237.979,537.099 238.122,537.498 238.122,537.966 L238.122,538.362 C238.122,538.806 237.979,539.193 237.69,539.523 C237.402,539.853 237.024,540.129 236.556,540.351 C236.089,540.573 235.554,540.738 234.954,540.846 C234.354,540.954 233.742,541.008 233.118,541.008 C232.494,541.008 231.882,540.957 231.283,540.855 C230.682,540.753 230.148,540.594 229.68,540.378 C229.212,540.162 228.834,539.889 228.546,539.559 C228.258,539.229 228.115,538.83 228.115,538.362 L228.115,537.966 C228.115,537.498 228.258,537.099 228.546,536.769 C228.834,536.439 229.212,536.166 229.68,535.95 C230.148,535.734 230.682,535.575 231.283,535.473 C231.882,535.371 232.494,535.32 233.118,535.32 M233.118,540.306 C233.658,540.306 234.18,540.267 234.684,540.189 C235.188,540.111 235.638,539.991 236.035,539.829 C236.43,539.667 236.748,539.46 236.988,539.208 C237.229,538.956 237.348,538.662 237.348,538.326 L237.348,538.02 C237.348,537.66 237.229,537.354 236.988,537.102 C236.748,536.85 236.43,536.643 236.035,536.481 C235.638,536.319 235.188,536.202 234.684,536.13 C234.18,536.058 233.658,536.022 233.118,536.022 C232.578,536.022 232.056,536.058 231.552,536.13 C231.048,536.202 230.598,536.319 230.202,536.481 C229.806,536.643 229.488,536.85 229.248,537.102 C229.008,537.354 228.888,537.66 228.888,538.02 L228.888,538.326 C228.888,538.686 229.008,538.989 229.248,539.235 C229.488,539.481 229.806,539.685 230.202,539.847 C230.598,540.009 231.048,540.126 231.552,540.198 C232.056,540.27 232.578,540.306 233.118,540.306 M259.105,551.484 L259.105,535.176 L259.879,535.176 L259.879,551.484 L259.105,551.484 M251.401,547.362 C250.742,547.362 250.165,547.248 249.673,547.02 C249.181,546.792 248.77,546.471 248.44,546.057 C248.11,545.643 247.865,545.145 247.702,544.563 C247.54,543.981 247.46,543.342 247.46,542.646 L247.46,541.08 C247.46,540.384 247.54,539.745 247.702,539.163 C247.865,538.581 248.11,538.083 248.44,537.669 C248.77,537.255 249.181,536.934 249.673,536.706 C250.165,536.478 250.742,536.364 251.401,536.364 C252.061,536.364 252.637,536.478 253.13,536.706 C253.621,536.934 254.033,537.255 254.362,537.669 C254.692,538.083 254.938,538.581 255.1,539.163 C255.262,539.745 255.343,540.384 255.343,541.08 L255.343,542.646 C255.343,543.342 255.262,543.981 255.1,544.563 C254.938,545.145 254.692,545.643 254.362,546.057 C254.033,546.471 253.621,546.792 253.13,547.02 C252.637,547.248 252.061,547.362 251.401,547.362 M251.401,537.084 C250.861,537.084 250.393,537.183 249.997,537.381 C249.602,537.579 249.274,537.861 249.016,538.227 C248.758,538.593 248.563,539.034 248.431,539.55 C248.299,540.066 248.233,540.648 248.233,541.296 L248.233,542.43 C248.233,543.078 248.299,543.66 248.431,544.176 C248.563,544.692 248.758,545.133 249.016,545.499 C249.274,545.865 249.602,546.147 249.997,546.345 C250.393,546.543 250.861,546.642 251.401,546.642 C251.941,546.642 252.41,546.543 252.805,546.345 C253.201,546.147 253.529,545.865 253.786,545.499 C254.044,545.133 254.24,544.692 254.371,544.176 C254.503,543.66 254.569,543.078 254.569,542.43 L254.569,541.296 C254.569,540.648 254.503,540.066 254.371,539.55 C254.24,539.034 254.044,538.593 253.786,538.227 C253.529,537.861 253.201,537.579 252.805,537.381 C252.41,537.183 251.941,537.084 251.401,537.084 Z" style="stroke:none;fill-rule:nonzero;fill:#ffffff;fill-opacity:1;"/>
        </g>
        <g id="Shape11">
            <desc shapeID="11" type="0" basicInfo-basicType="0" basicInfo-roundedRectRadius="12" basicInfo-polygonSides="6" basicInfo-starPoints="5" bounding="rect(-55.4177,-20.4787,110.835,40.9574)" text="갈 지&#10;(영향을 끼치다)" font-familyName="나눔스퀘어" font-pixelSize="18" font-bold="0" font-underline="0" font-alignment="1" strokeStyle="0" markerStart="0" markerEnd="0" shadowEnabled="0" shadowOffsetX="0" shadowOffsetY="2" shadowBlur="4" shadowOpacity="160" blurEnabled="0" blurRadius="4" transform="matrix(1,0,0,1,370.458,543.238)" pers-center="0,0" pers-size="0,0" pers-start="0,0" pers-end="0,0" locked="0" mesh="" flag=""/>
            <path id="shapePath11" d="M355.533,539.068 L355.533,535.162 L364.425,535.162 L364.425,532.624 L355.443,532.624 L355.443,531.922 L365.181,531.922 L365.181,535.846 L356.289,535.846 L356.289,538.366 L365.577,538.366 L365.577,539.068 L355.533,539.068 M367.863,527.08 L365.181,527.08 L365.181,530.806 L364.407,530.806 L364.407,522.76 L365.181,522.76 L365.181,526.378 L367.863,526.378 L367.863,527.08 M359.493,524.218 L353.517,524.218 L353.517,523.516 L360.267,523.516 L360.267,525.136 C360.267,525.952 360.183,526.618 360.015,527.134 C359.847,527.65 359.52,528.118 359.034,528.538 C358.548,528.958 357.855,529.372 356.955,529.78 C356.055,530.188 354.879,530.692 353.427,531.292 L353.121,530.59 C354.081,530.206 354.909,529.864 355.605,529.564 C356.301,529.264 356.883,528.988 357.351,528.736 C357.819,528.484 358.194,528.238 358.476,527.998 C358.758,527.758 358.974,527.497 359.124,527.215 C359.274,526.933 359.373,526.618 359.421,526.27 C359.469,525.922 359.493,525.514 359.493,525.046 L359.493,524.218 M378.82,530.23 C378.796,530.374 378.727,530.536 378.613,530.716 C378.499,530.896 378.37,531.079 378.226,531.265 C378.082,531.451 377.926,531.637 377.758,531.823 C377.59,532.009 377.44,532.174 377.308,532.318 C377.176,532.462 377.008,532.642 376.804,532.858 C376.6,533.074 376.372,533.305 376.12,533.551 C375.868,533.797 375.607,534.049 375.337,534.307 C375.067,534.565 374.8,534.808 374.536,535.036 L374.014,534.478 C374.626,533.938 375.19,533.416 375.706,532.912 C376.222,532.408 376.702,531.904 377.146,531.4 C377.434,531.064 377.662,530.773 377.83,530.527 C377.998,530.281 378.124,530.038 378.208,529.798 C378.292,529.558 378.346,529.306 378.37,529.042 C378.394,528.778 378.406,528.46 378.406,528.088 L378.406,524.992 L374.428,524.992 L374.428,524.29 L383.158,524.29 L383.158,524.992 L379.18,524.992 L379.18,528.088 C379.18,528.448 379.195,528.76 379.225,529.024 C379.255,529.288 379.315,529.528 379.405,529.744 C379.495,529.96 379.615,530.173 379.765,530.383 C379.915,530.593 380.116,530.83 380.368,531.094 C380.8,531.562 381.286,532.057 381.826,532.579 C382.366,533.101 382.924,533.632 383.5,534.172 L382.978,534.694 C382.474,534.238 381.973,533.764 381.475,533.272 C380.977,532.78 380.524,532.324 380.116,531.904 C380.008,531.784 379.885,531.655 379.747,531.517 C379.609,531.379 379.477,531.235 379.351,531.085 C379.225,530.935 379.117,530.788 379.027,530.644 C378.937,530.5 378.874,530.362 378.838,530.23 L378.82,530.23 M386.236,539.068 L386.236,522.76 L387.01,522.76 L387.01,539.068 L386.236,539.068 M315.922,555.725 C315.922,557.093 316.108,558.449 316.48,559.793 C316.852,561.137 317.5,562.445 318.424,563.717 L317.668,563.717 C316.768,562.649 316.105,561.419 315.679,560.027 C315.253,558.635 315.04,557.171 315.04,555.635 L315.04,554.915 C315.04,553.379 315.253,551.921 315.679,550.541 C316.105,549.161 316.768,547.937 317.668,546.869 L318.424,546.869 C317.536,548.069 316.897,549.332 316.507,550.658 C316.117,551.984 315.922,553.373 315.922,554.825 L315.922,555.725 M328.237,551.909 C328.237,552.401 328.132,552.851 327.922,553.259 C327.712,553.667 327.427,554.015 327.067,554.303 C326.707,554.591 326.29,554.816 325.816,554.978 C325.342,555.14 324.847,555.221 324.331,555.221 C323.815,555.221 323.32,555.14 322.846,554.978 C322.372,554.816 321.955,554.591 321.595,554.303 C321.235,554.015 320.95,553.667 320.74,553.259 C320.53,552.851 320.425,552.401 320.425,551.909 L320.425,550.739 C320.425,550.247 320.53,549.797 320.74,549.389 C320.95,548.981 321.235,548.633 321.595,548.345 C321.955,548.057 322.372,547.832 322.846,547.67 C323.32,547.508 323.815,547.427 324.331,547.427 C324.847,547.427 325.342,547.508 325.816,547.67 C326.29,547.832 326.707,548.057 327.067,548.345 C327.427,548.633 327.712,548.981 327.922,549.389 C328.132,549.797 328.237,550.247 328.237,550.739 L328.237,551.909 M327.463,550.847 C327.463,550.451 327.385,550.091 327.229,549.767 C327.073,549.443 326.857,549.161 326.581,548.921 C326.305,548.681 325.975,548.495 325.591,548.363 C325.207,548.231 324.787,548.165 324.331,548.165 C323.875,548.165 323.455,548.231 323.071,548.363 C322.687,548.495 322.357,548.681 322.081,548.921 C321.805,549.161 321.589,549.443 321.433,549.767 C321.277,550.091 321.199,550.451 321.199,550.847 L321.199,551.801 C321.199,552.197 321.277,552.557 321.433,552.881 C321.589,553.205 321.805,553.487 322.081,553.727 C322.357,553.967 322.687,554.153 323.071,554.285 C323.455,554.417 323.875,554.483 324.331,554.483 C324.787,554.483 325.207,554.417 325.591,554.285 C325.975,554.153 326.305,553.967 326.581,553.727 C326.857,553.487 327.073,553.205 327.229,552.881 C327.385,552.557 327.463,552.197 327.463,551.801 L327.463,550.847 M332.503,556.301 L332.503,553.601 L329.227,553.601 L329.227,552.863 L332.503,552.863 L332.503,549.857 L329.227,549.857 L329.227,549.119 L332.503,549.119 L332.503,546.725 L333.259,546.725 L333.259,556.301 L332.503,556.301 M328.489,563.429 C327.709,563.429 327.016,563.348 326.41,563.186 C325.804,563.024 325.291,562.808 324.871,562.538 C324.451,562.268 324.133,561.953 323.917,561.593 C323.701,561.233 323.593,560.849 323.593,560.441 L323.593,559.793 C323.593,559.385 323.701,559.001 323.917,558.641 C324.133,558.281 324.451,557.966 324.871,557.696 C325.291,557.426 325.804,557.21 326.41,557.048 C327.016,556.886 327.709,556.805 328.489,556.805 C329.269,556.805 329.962,556.886 330.568,557.048 C331.174,557.21 331.687,557.426 332.107,557.696 C332.527,557.966 332.845,558.281 333.061,558.641 C333.277,559.001 333.385,559.385 333.385,559.793 L333.385,560.441 C333.385,560.849 333.277,561.233 333.061,561.593 C332.845,561.953 332.527,562.268 332.107,562.538 C331.687,562.808 331.174,563.024 330.568,563.186 C329.962,563.348 329.269,563.429 328.489,563.429 M328.489,557.507 C327.841,557.507 327.262,557.57 326.752,557.696 C326.242,557.822 325.81,557.99 325.456,558.2 C325.102,558.41 324.832,558.653 324.646,558.929 C324.46,559.205 324.367,559.493 324.367,559.793 L324.367,560.441 C324.367,560.741 324.46,561.029 324.646,561.305 C324.832,561.581 325.102,561.824 325.456,562.034 C325.81,562.244 326.242,562.412 326.752,562.538 C327.262,562.664 327.841,562.727 328.489,562.727 C329.137,562.727 329.716,562.664 330.226,562.538 C330.736,562.412 331.168,562.244 331.522,562.034 C331.876,561.824 332.146,561.581 332.332,561.305 C332.518,561.029 332.611,560.741 332.611,560.441 L332.611,559.793 C332.611,559.493 332.518,559.205 332.332,558.929 C332.146,558.653 331.876,558.41 331.522,558.2 C331.168,557.99 330.736,557.822 330.226,557.696 C329.716,557.57 329.137,557.507 328.489,557.507 M345.53,549.425 L336.116,549.425 L336.116,548.741 L340.382,548.741 L340.382,546.509 L341.156,546.509 L341.156,548.741 L345.53,548.741 L345.53,549.425 M340.778,556.553 C340.286,556.553 339.821,556.49 339.383,556.364 C338.945,556.238 338.558,556.058 338.222,555.824 C337.886,555.59 337.619,555.308 337.421,554.978 C337.223,554.648 337.124,554.285 337.124,553.889 L337.124,553.169 C337.124,552.773 337.223,552.413 337.421,552.089 C337.619,551.765 337.886,551.486 338.222,551.252 C338.558,551.018 338.945,550.835 339.383,550.703 C339.821,550.571 340.286,550.505 340.778,550.505 C341.258,550.505 341.72,550.571 342.164,550.703 C342.608,550.835 342.998,551.018 343.334,551.252 C343.67,551.486 343.937,551.765 344.135,552.089 C344.333,552.413 344.432,552.773 344.432,553.169 L344.432,553.889 C344.432,554.285 344.333,554.648 344.135,554.978 C343.937,555.308 343.67,555.59 343.334,555.824 C342.998,556.058 342.608,556.238 342.164,556.364 C341.72,556.49 341.258,556.553 340.778,556.553 M340.778,555.869 C341.174,555.869 341.546,555.821 341.894,555.725 C342.242,555.629 342.551,555.494 342.821,555.32 C343.091,555.146 343.304,554.936 343.46,554.69 C343.616,554.444 343.694,554.171 343.694,553.871 L343.694,553.187 C343.694,552.887 343.616,552.614 343.46,552.368 C343.304,552.122 343.091,551.912 342.821,551.738 C342.551,551.564 342.239,551.429 341.885,551.333 C341.531,551.237 341.162,551.189 340.778,551.189 C340.394,551.189 340.025,551.237 339.671,551.333 C339.317,551.429 339.005,551.564 338.735,551.738 C338.465,551.912 338.252,552.122 338.096,552.368 C337.94,552.614 337.862,552.887 337.862,553.187 L337.862,553.871 C337.862,554.171 337.94,554.444 338.096,554.69 C338.252,554.936 338.465,555.146 338.735,555.32 C339.005,555.494 339.314,555.629 339.662,555.725 C340.01,555.821 340.382,555.869 340.778,555.869 M343.964,563.465 C343.304,563.465 342.683,563.402 342.101,563.276 C341.519,563.15 341.009,562.976 340.571,562.754 C340.133,562.532 339.788,562.262 339.536,561.944 C339.284,561.626 339.158,561.269 339.158,560.873 L339.158,560.189 C339.158,559.793 339.284,559.433 339.536,559.109 C339.788,558.785 340.133,558.509 340.571,558.281 C341.009,558.053 341.519,557.876 342.101,557.75 C342.683,557.624 343.304,557.561 343.964,557.561 C344.636,557.561 345.266,557.624 345.854,557.75 C346.442,557.876 346.952,558.053 347.384,558.281 C347.816,558.509 348.155,558.785 348.401,559.109 C348.647,559.433 348.77,559.793 348.77,560.189 L348.77,560.873 C348.77,561.269 348.647,561.626 348.401,561.944 C348.155,562.262 347.816,562.532 347.384,562.754 C346.952,562.976 346.442,563.15 345.854,563.276 C345.266,563.402 344.636,563.465 343.964,563.465 M343.964,558.245 C343.424,558.245 342.908,558.287 342.416,558.371 C341.924,558.455 341.495,558.581 341.129,558.749 C340.763,558.917 340.472,559.121 340.256,559.361 C340.04,559.601 339.932,559.877 339.932,560.189 L339.932,560.873 C339.932,561.173 340.04,561.443 340.256,561.683 C340.472,561.923 340.763,562.124 341.129,562.286 C341.495,562.448 341.924,562.571 342.416,562.655 C342.908,562.739 343.424,562.781 343.964,562.781 C344.516,562.781 345.038,562.739 345.53,562.655 C346.022,562.571 346.451,562.448 346.817,562.286 C347.183,562.124 347.471,561.923 347.681,561.683 C347.891,561.443 347.996,561.173 347.996,560.873 L347.996,560.189 C347.996,559.877 347.891,559.601 347.681,559.361 C347.471,559.121 347.183,558.917 346.817,558.749 C346.451,558.581 346.022,558.455 345.53,558.371 C345.038,558.287 344.516,558.245 343.964,558.245 M348.662,553.223 L351.362,553.223 L351.362,553.943 L348.662,553.943 L348.662,556.841 L347.906,556.841 L347.906,546.725 L348.662,546.725 L348.662,549.875 L351.362,549.875 L351.362,550.595 L348.662,550.595 L348.662,553.223 M367.521,554.213 L367.521,554.879 L352.509,554.879 L352.509,554.213 L367.521,554.213 M354.831,563.069 L354.831,559.505 L364.461,559.505 L364.461,557.291 L354.741,557.291 L354.741,556.625 L365.217,556.625 L365.217,560.153 L355.587,560.153 L355.587,562.403 L365.703,562.403 L365.703,563.069 L354.831,563.069 M360.015,546.959 C360.639,546.959 361.251,547.013 361.851,547.121 C362.451,547.229 362.985,547.391 363.453,547.607 C363.921,547.823 364.299,548.099 364.587,548.435 C364.875,548.771 365.019,549.173 365.019,549.641 L365.019,550.037 C365.019,550.481 364.875,550.871 364.587,551.207 C364.299,551.543 363.921,551.822 363.453,552.044 C362.985,552.266 362.451,552.434 361.851,552.548 C361.251,552.662 360.639,552.719 360.015,552.719 C359.391,552.719 358.779,552.665 358.179,552.557 C357.579,552.449 357.045,552.287 356.577,552.071 C356.109,551.855 355.731,551.579 355.443,551.243 C355.155,550.907 355.011,550.505 355.011,550.037 L355.011,549.641 C355.011,549.173 355.155,548.771 355.443,548.435 C355.731,548.099 356.109,547.823 356.577,547.607 C357.045,547.391 357.579,547.229 358.179,547.121 C358.779,547.013 359.391,546.959 360.015,546.959 M360.015,552.017 C360.531,552.017 361.044,551.975 361.554,551.891 C362.064,551.807 362.517,551.681 362.913,551.513 C363.309,551.345 363.63,551.135 363.876,550.883 C364.122,550.631 364.245,550.337 364.245,550.001 L364.245,549.695 C364.245,549.335 364.122,549.026 363.876,548.768 C363.63,548.51 363.309,548.3 362.913,548.138 C362.517,547.976 362.064,547.856 361.554,547.778 C361.044,547.7 360.531,547.661 360.015,547.661 C359.487,547.661 358.971,547.7 358.467,547.778 C357.963,547.856 357.513,547.976 357.117,548.138 C356.721,548.3 356.4,548.51 356.154,548.768 C355.908,549.026 355.785,549.335 355.785,549.695 L355.785,550.001 C355.785,550.361 355.908,550.667 356.154,550.919 C356.4,551.171 356.721,551.378 357.117,551.54 C357.513,551.702 357.963,551.822 358.467,551.9 C358.971,551.978 359.487,552.017 360.015,552.017 M386.11,563.033 L386.11,546.725 L386.938,546.725 L386.938,563.033 L386.11,563.033 M378.316,559.343 C379.108,558.479 379.741,557.735 380.215,557.111 C380.689,556.487 381.049,555.926 381.295,555.428 C381.541,554.93 381.703,554.465 381.781,554.033 C381.859,553.601 381.898,553.145 381.898,552.665 L381.898,549.065 L378.874,549.065 L378.874,548.291 L382.672,548.291 L382.672,552.737 C382.672,553.289 382.63,553.796 382.546,554.258 C382.462,554.72 382.285,555.212 382.015,555.734 C381.745,556.256 381.364,556.844 380.872,557.498 C380.38,558.152 379.726,558.935 378.91,559.847 L378.316,559.343 M373.78,557.849 C374.62,557.009 375.277,556.292 375.751,555.698 C376.225,555.104 376.576,554.585 376.804,554.141 C377.032,553.697 377.17,553.295 377.218,552.935 C377.266,552.575 377.29,552.197 377.29,551.801 L377.29,549.065 L374.212,549.065 L374.212,548.291 L378.064,548.291 L378.064,551.873 C378.064,552.341 378.031,552.773 377.965,553.169 C377.899,553.565 377.74,553.997 377.488,554.465 C377.236,554.933 376.864,555.476 376.372,556.094 C375.88,556.712 375.208,557.471 374.356,558.371 L373.78,557.849 M395.213,554.483 C395.189,554.627 395.12,554.789 395.006,554.969 C394.892,555.149 394.763,555.332 394.619,555.518 C394.475,555.704 394.319,555.89 394.151,556.076 C393.983,556.262 393.833,556.427 393.701,556.571 C393.569,556.715 393.401,556.895 393.197,557.111 C392.993,557.327 392.765,557.558 392.513,557.804 C392.261,558.05 392,558.302 391.73,558.56 C391.46,558.818 391.193,559.061 390.929,559.289 L390.407,558.731 C391.019,558.191 391.583,557.669 392.099,557.165 C392.615,556.661 393.095,556.157 393.539,555.653 C393.827,555.317 394.055,555.026 394.223,554.78 C394.391,554.534 394.517,554.291 394.601,554.051 C394.685,553.811 394.739,553.559 394.763,553.295 C394.787,553.031 394.799,552.713 394.799,552.341 L394.799,550.001 L390.677,550.001 L390.677,549.299 L394.799,549.299 L394.799,546.815 L395.573,546.815 L395.573,549.299 L399.641,549.299 L399.641,550.001 L395.573,550.001 L395.573,552.341 C395.573,552.701 395.588,553.013 395.618,553.277 C395.648,553.541 395.708,553.781 395.798,553.997 C395.888,554.213 396.008,554.426 396.158,554.636 C396.308,554.846 396.509,555.083 396.761,555.347 C397.193,555.815 397.679,556.31 398.219,556.832 C398.759,557.354 399.317,557.885 399.893,558.425 L399.371,558.947 C398.867,558.491 398.366,558.017 397.868,557.525 C397.37,557.033 396.917,556.577 396.509,556.157 C396.401,556.037 396.278,555.908 396.14,555.77 C396.002,555.632 395.87,555.488 395.744,555.338 C395.618,555.188 395.51,555.041 395.42,554.897 C395.33,554.753 395.267,554.615 395.231,554.483 L395.213,554.483 M402.611,563.033 L402.611,546.725 L403.385,546.725 L403.385,563.033 L402.611,563.033 M414.486,548.939 L407.916,548.939 L407.916,557.903 L410.85,557.903 C411.246,557.903 411.666,557.894 412.11,557.876 C412.554,557.858 413.004,557.831 413.46,557.795 C413.916,557.759 414.363,557.714 414.801,557.66 C415.239,557.606 415.65,557.543 416.034,557.471 L416.142,558.191 C415.77,558.263 415.35,558.326 414.882,558.38 C414.414,558.434 413.931,558.479 413.433,558.515 C412.935,558.551 412.44,558.578 411.948,558.596 C411.456,558.614 411,558.623 410.58,558.623 L407.142,558.623 L407.142,548.219 L414.486,548.219 L414.486,548.939 M421.578,553.655 L418.662,553.655 L418.662,563.033 L417.888,563.033 L417.888,546.725 L418.662,546.725 L418.662,552.935 L421.578,552.935 L421.578,553.655 M424.993,554.825 C424.993,553.373 424.798,551.984 424.408,550.658 C424.018,549.332 423.379,548.069 422.491,546.869 L423.247,546.869 C424.147,547.937 424.81,549.161 425.236,550.541 C425.662,551.921 425.875,553.379 425.875,554.915 L425.875,555.635 C425.875,557.171 425.662,558.635 425.236,560.027 C424.81,561.419 424.147,562.649 423.247,563.717 L422.491,563.717 C423.415,562.445 424.063,561.137 424.435,559.793 C424.807,558.449 424.993,557.093 424.993,555.725 L424.993,554.825 Z" style="stroke:none;fill-rule:nonzero;fill:#ffffff;fill-opacity:1;"/>
        </g>
        <g id="Shape12">
            <desc shapeID="12" type="0" basicInfo-basicType="0" basicInfo-roundedRectRadius="12" basicInfo-polygonSides="6" basicInfo-starPoints="5" bounding="rect(-28.6052,-20.1957,57.2105,40.3914)" text="입을 피&#10;(베풀다)" font-familyName="나눔스퀘어" font-pixelSize="18" font-bold="0" font-underline="0" font-alignment="1" strokeStyle="0" markerStart="0" markerEnd="0" shadowEnabled="0" shadowOffsetX="0" shadowOffsetY="2" shadowBlur="4" shadowOpacity="160" blurEnabled="0" blurRadius="4" transform="matrix(1,0,0,1,526.214,542.955)" pers-center="0,0" pers-size="0,0" pers-start="0,0" pers-end="0,0" locked="0" mesh="" flag=""/>
            <path id="shapePath12" d="M512.732,531.022 L512.732,522.76 L513.506,522.76 L513.506,531.022 L512.732,531.022 M513.506,532.156 L513.506,539.032 L503.768,539.032 L503.768,532.156 L504.542,532.156 L504.542,534.586 L512.732,534.586 L512.732,532.156 L513.506,532.156 M512.732,538.33 L512.732,535.288 L504.542,535.288 L504.542,538.33 L512.732,538.33 M508.736,527.494 C508.736,527.962 508.628,528.388 508.412,528.772 C508.196,529.156 507.908,529.483 507.548,529.753 C507.188,530.023 506.771,530.233 506.297,530.383 C505.823,530.533 505.328,530.608 504.812,530.608 C504.296,530.608 503.801,530.536 503.327,530.392 C502.853,530.248 502.436,530.041 502.076,529.771 C501.716,529.501 501.428,529.174 501.212,528.79 C500.996,528.406 500.888,527.974 500.888,527.494 L500.888,526.54 C500.888,526.072 500.996,525.643 501.212,525.253 C501.428,524.863 501.716,524.533 502.076,524.263 C502.436,523.993 502.853,523.783 503.327,523.633 C503.801,523.483 504.296,523.408 504.812,523.408 C505.328,523.408 505.823,523.483 506.297,523.633 C506.771,523.783 507.188,523.993 507.548,524.263 C507.908,524.533 508.196,524.863 508.412,525.253 C508.628,525.643 508.736,526.072 508.736,526.54 L508.736,527.494 M507.962,526.648 C507.962,526.264 507.881,525.919 507.719,525.613 C507.557,525.307 507.335,525.046 507.053,524.83 C506.771,524.614 506.438,524.446 506.054,524.326 C505.67,524.206 505.256,524.146 504.812,524.146 C504.368,524.146 503.954,524.206 503.57,524.326 C503.186,524.446 502.853,524.614 502.571,524.83 C502.289,525.046 502.067,525.307 501.905,525.613 C501.743,525.919 501.662,526.264 501.662,526.648 L501.662,527.386 C501.662,527.77 501.743,528.115 501.905,528.421 C502.067,528.727 502.289,528.988 502.571,529.204 C502.853,529.42 503.186,529.585 503.57,529.699 C503.954,529.813 504.368,529.87 504.812,529.87 C505.256,529.87 505.67,529.813 506.054,529.699 C506.438,529.585 506.771,529.42 507.053,529.204 C507.335,528.988 507.557,528.727 507.719,528.421 C507.881,528.115 507.962,527.77 507.962,527.386 L507.962,526.648 M531.465,530.248 L531.465,530.914 L516.453,530.914 L516.453,530.248 L531.465,530.248 M518.775,539.104 L518.775,535.54 L528.405,535.54 L528.405,533.326 L518.685,533.326 L518.685,532.66 L529.161,532.66 L529.161,536.188 L519.531,536.188 L519.531,538.438 L529.647,538.438 L529.647,539.104 L518.775,539.104 M523.959,522.994 C524.583,522.994 525.195,523.048 525.795,523.156 C526.395,523.264 526.929,523.426 527.397,523.642 C527.865,523.858 528.243,524.134 528.531,524.47 C528.819,524.806 528.963,525.208 528.963,525.676 L528.963,526.072 C528.963,526.516 528.819,526.906 528.531,527.242 C528.243,527.578 527.865,527.857 527.397,528.079 C526.929,528.301 526.395,528.469 525.795,528.583 C525.195,528.697 524.583,528.754 523.959,528.754 C523.335,528.754 522.723,528.7 522.123,528.592 C521.523,528.484 520.989,528.322 520.521,528.106 C520.053,527.89 519.675,527.614 519.387,527.278 C519.099,526.942 518.955,526.54 518.955,526.072 L518.955,525.676 C518.955,525.208 519.099,524.806 519.387,524.47 C519.675,524.134 520.053,523.858 520.521,523.642 C520.989,523.426 521.523,523.264 522.123,523.156 C522.723,523.048 523.335,522.994 523.959,522.994 M523.959,528.052 C524.475,528.052 524.988,528.01 525.498,527.926 C526.008,527.842 526.461,527.716 526.857,527.548 C527.253,527.38 527.574,527.17 527.82,526.918 C528.066,526.666 528.189,526.372 528.189,526.036 L528.189,525.73 C528.189,525.37 528.066,525.061 527.82,524.803 C527.574,524.545 527.253,524.335 526.857,524.173 C526.461,524.011 526.008,523.891 525.498,523.813 C524.988,523.735 524.475,523.696 523.959,523.696 C523.431,523.696 522.915,523.735 522.411,523.813 C521.907,523.891 521.457,524.011 521.061,524.173 C520.665,524.335 520.344,524.545 520.098,524.803 C519.852,525.061 519.729,525.37 519.729,525.73 L519.729,526.036 C519.729,526.396 519.852,526.702 520.098,526.954 C520.344,527.206 520.665,527.413 521.061,527.575 C521.457,527.737 521.907,527.857 522.411,527.935 C522.915,528.013 523.431,528.052 523.959,528.052 M539.848,533.902 L539.848,525.082 L537.994,525.082 L537.994,524.362 L547.534,524.362 L547.534,525.082 L545.392,525.082 L545.392,533.866 C545.848,533.842 546.316,533.815 546.796,533.785 C547.276,533.755 547.816,533.704 548.416,533.632 L548.47,534.298 C547.558,534.43 546.607,534.517 545.617,534.559 C544.627,534.601 543.604,534.622 542.548,534.622 L537.814,534.622 L537.814,533.902 L539.848,533.902 M540.622,533.902 L542.908,533.902 L544.618,533.902 L544.618,525.082 L540.622,525.082 L540.622,533.902 M550.018,539.068 L550.018,522.76 L550.792,522.76 L550.792,539.068 L550.018,539.068 M498.491,555.159 C498.491,556.527 498.677,557.883 499.049,559.227 C499.421,560.571 500.069,561.879 500.993,563.151 L500.237,563.151 C499.337,562.083 498.674,560.853 498.248,559.461 C497.822,558.069 497.609,556.605 497.609,555.069 L497.609,554.349 C497.609,552.813 497.822,551.355 498.248,549.975 C498.674,548.595 499.337,547.371 500.237,546.303 L500.993,546.303 C500.105,547.503 499.466,548.766 499.076,550.092 C498.686,551.418 498.491,552.807 498.491,554.259 L498.491,555.159 M503.246,558.057 L503.246,547.635 L504.002,547.635 L504.002,551.991 L508.682,551.991 L508.682,547.635 L509.438,547.635 L509.438,552.315 L512.318,552.315 L512.318,546.501 L513.092,546.501 L513.092,561.657 L512.318,561.657 L512.318,553.035 L509.438,553.035 L509.438,558.057 L503.246,558.057 M516.206,562.467 L515.432,562.467 L515.432,546.159 L516.206,546.159 L516.206,562.467 M504.002,557.337 L508.682,557.337 L508.682,552.711 L504.002,552.711 L504.002,557.337 M520.395,551.613 L520.395,550.947 L523.023,550.947 L523.023,547.383 L520.467,547.383 L520.467,546.717 L531.933,546.717 L531.933,547.383 L529.377,547.383 L529.377,550.947 L532.005,550.947 L532.005,551.613 L520.395,551.613 M523.779,550.947 L528.621,550.947 L528.621,547.383 L523.779,547.383 L523.779,550.947 M521.025,562.503 L521.025,558.975 L530.655,558.975 L530.655,556.779 L520.935,556.779 L520.935,556.113 L525.831,556.113 L525.831,553.989 L518.703,553.989 L518.703,553.323 L533.715,553.323 L533.715,553.989 L526.587,553.989 L526.587,556.113 L531.411,556.113 L531.411,559.623 L521.781,559.623 L521.781,561.837 L531.897,561.837 L531.897,562.503 L521.025,562.503 M543.43,548.373 L536.86,548.373 L536.86,557.337 L539.794,557.337 C540.19,557.337 540.61,557.328 541.054,557.31 C541.498,557.292 541.948,557.265 542.404,557.229 C542.86,557.193 543.307,557.148 543.745,557.094 C544.183,557.04 544.594,556.977 544.978,556.905 L545.086,557.625 C544.714,557.697 544.294,557.76 543.826,557.814 C543.358,557.868 542.875,557.913 542.377,557.949 C541.879,557.985 541.384,558.012 540.892,558.03 C540.4,558.048 539.944,558.057 539.524,558.057 L536.086,558.057 L536.086,547.653 L543.43,547.653 L543.43,548.373 M550.522,553.089 L547.606,553.089 L547.606,562.467 L546.832,562.467 L546.832,546.159 L547.606,546.159 L547.606,552.369 L550.522,552.369 L550.522,553.089 M553.937,554.259 C553.937,552.807 553.742,551.418 553.352,550.092 C552.962,548.766 552.323,547.503 551.435,546.303 L552.191,546.303 C553.091,547.371 553.754,548.595 554.18,549.975 C554.606,551.355 554.819,552.813 554.819,554.349 L554.819,555.069 C554.819,556.605 554.606,558.069 554.18,559.461 C553.754,560.853 553.091,562.083 552.191,563.151 L551.435,563.151 C552.359,561.879 553.007,560.571 553.379,559.227 C553.751,557.883 553.937,556.527 553.937,555.159 L553.937,554.259 Z" style="stroke:none;fill-rule:nonzero;fill:#ffffff;fill-opacity:1;"/>
        </g>
        <g id="Shape13">
            <desc shapeID="13" type="0" basicInfo-basicType="0" basicInfo-roundedRectRadius="12" basicInfo-polygonSides="6" basicInfo-starPoints="5" bounding="rect(-221.625,-46.1463,443.249,92.2927)" text="來利之被" font-familyName="Myanmar MN" font-pixelSize="100" font-bold="0" font-underline="0" font-alignment="1" strokeStyle="0" markerStart="0" markerEnd="0" shadowEnabled="0" shadowOffsetX="0" shadowOffsetY="2" shadowBlur="4" shadowOpacity="160" blurEnabled="0" blurRadius="4" transform="matrix(1.26439,0,0,1.26439,300,440.673)" pers-center="0,0" pers-size="0,0" pers-start="0,0" pers-end="0,0" locked="0" mesh="" flag=""/>
            <path id="shapePath13" d="M138.199,476.446 C138.199,476.774 137.357,477.268 135.671,477.926 C133.985,478.584 132.813,479.139 132.155,479.591 C131.497,480.043 130.223,481.174 128.331,482.983 C127.098,484.135 126.111,484.71 125.371,484.71 C122.904,484.052 119.121,481.997 114.023,478.543 C109.418,475.418 104.648,471.655 99.7141,467.256 C94.7799,462.856 90.1335,457.49 85.775,451.158 C84.377,449.102 82.6911,446.388 80.7175,443.016 C80.8819,452.062 81.0053,461.437 81.0875,471.141 C81.1698,480.845 81.2108,487.465 81.2108,491.001 L81.5809,495.566 C81.5809,496.552 81.3136,497.313 80.7791,497.848 C80.2446,498.382 79.1961,498.773 77.6336,499.02 C75.8243,499.02 74.7553,498.896 74.4263,498.649 C74.0152,498.403 73.8096,497.704 73.8096,496.552 L74.303,489.274 C74.303,485.903 74.3441,481.339 74.4263,475.582 C74.5086,469.825 74.5908,464.069 74.673,458.312 L74.673,449.924 C73.3573,451.322 72.2059,452.515 71.2191,453.501 C65.3803,459.258 58.4724,465.508 50.4955,472.251 C47.8639,474.472 42.9708,478.049 35.8162,482.983 C27.3458,488.822 22.1649,491.742 20.2735,491.742 L19.78,491.495 C19.8622,491.248 19.9034,491.084 19.9034,491.001 C20.0678,490.755 20.3557,490.508 20.7668,490.261 C22.905,489.11 27.3869,485.779 34.2126,480.27 C38.5711,476.816 43.1764,472.848 48.0283,468.366 C52.8803,463.884 57.6089,458.97 62.2142,453.625 C64.7635,450.582 67.8063,446.635 71.3425,441.783 C72.4115,440.22 73.5217,438.658 74.673,437.095 L74.673,407.737 L47.4116,407.49 C48.8096,408.066 50.3721,408.888 52.0991,409.957 C54.5662,411.437 55.7997,412.548 55.7997,413.288 C55.7997,413.781 55.1418,414.275 53.826,414.768 C52.5102,415.261 51.8112,415.59 51.729,415.755 L44.8211,426.857 C47.3704,427.679 49.303,428.378 50.6188,428.954 C54.7306,430.681 57.6089,432.367 59.2537,434.011 C60.2405,434.998 61.0423,436.108 61.6591,437.342 C62.2759,438.576 62.5843,439.85 62.5843,441.166 C62.5843,442.235 62.2553,443.242 61.5974,444.188 C60.9395,445.134 60.1171,445.607 59.1303,445.607 C58.308,445.607 57.28,444.661 56.0464,442.77 C53.9905,439.645 52.5102,437.465 51.6057,436.232 C50.3721,434.587 48.6862,432.778 46.5481,430.804 C45.8902,430.228 44.9856,429.447 43.8343,428.46 C43.2586,430.187 40.1747,434.258 34.5826,440.673 C28.9905,447.087 25.4955,450.294 24.0975,450.294 L23.7274,449.924 L24.2208,448.814 C31.5399,439.275 36.9675,431.01 40.5037,424.02 C43.382,418.263 45.3145,412.753 46.3014,407.49 L31.7455,407.367 C30.6764,407.367 29.5045,407.511 28.2298,407.798 C26.9552,408.086 25.8655,408.312 24.9609,408.477 L23.234,404.036 C23.5629,404.036 24.6526,404.139 26.5029,404.344 C28.3532,404.55 29.4017,404.653 29.6484,404.653 L74.673,404.653 L74.673,395.771 L73.5629,384.053 C76.6878,384.464 79.34,385.06 81.5192,385.841 C83.6985,386.622 84.7882,387.383 84.7882,388.123 C84.7882,388.781 84.1097,389.624 82.7528,390.652 C81.3959,391.68 80.7175,392.235 80.7175,392.317 L80.7175,404.653 L116.737,404.653 L122.164,398.115 C124.22,399.842 125.782,401.199 126.851,402.186 C129.236,404.406 130.428,405.886 130.428,406.627 C130.428,407.12 129.729,407.367 128.331,407.367 L105.512,407.367 C107.074,408.271 108.637,409.135 110.199,409.957 C112.502,411.355 113.653,412.465 113.653,413.288 C113.653,413.863 113.016,414.377 111.741,414.83 C110.466,415.282 109.788,415.59 109.706,415.755 L102.798,426.857 C105.759,428.008 108.061,428.954 109.706,429.694 C114.64,431.914 117.929,433.847 119.573,435.492 C121.876,437.63 123.027,439.974 123.027,442.523 C123.027,443.427 122.678,444.414 121.979,445.483 C121.28,446.552 120.478,447.087 119.573,447.087 C118.751,447.087 117.723,446.141 116.49,444.25 C114.434,441.125 112.954,438.946 112.049,437.712 C110.734,435.985 108.637,433.929 105.759,431.544 C104.854,430.804 103.538,429.776 101.811,428.46 C101.4,429.776 99.4674,432.737 96.0135,437.342 C92.2306,442.358 89.8457,444.867 88.8589,444.867 L88.4888,444.373 L88.9823,443.263 C91.8605,439.48 94.821,433.806 97.8638,426.24 C100.495,419.661 102.51,413.37 103.908,407.367 L80.7175,407.367 L80.7175,436.725 C82.5266,440.179 84.2536,443.016 85.8984,445.237 C90.7504,451.733 96.8358,457.531 104.155,462.63 C109.253,466.166 115.01,469.168 121.424,471.635 C126.604,473.608 130.695,474.801 133.697,475.212 C136.699,475.623 138.199,476.034 138.199,476.446 M250.492,395.031 C250.492,395.607 249.793,396.224 248.395,396.881 C246.997,397.539 246.298,397.951 246.298,398.115 C246.298,402.556 246.34,408.189 246.422,415.015 C246.504,421.84 246.607,429.92 246.73,439.254 C246.854,448.588 246.915,456.256 246.915,462.26 L247.039,464.974 C247.039,466.783 246.812,467.913 246.36,468.366 C245.908,468.818 244.654,469.209 242.598,469.538 C241.282,469.538 240.295,469.455 239.637,469.291 C239.391,469.291 239.103,469.168 238.774,468.921 L239.267,461.643 C239.267,460.738 239.349,456.092 239.514,447.704 C239.678,439.316 239.761,432.284 239.761,426.61 C239.761,419.784 239.719,414.069 239.637,409.464 C239.555,404.858 239.473,400.582 239.391,396.635 C239.391,395.155 239.185,393.263 238.774,390.96 C238.774,390.549 238.65,390.015 238.404,389.357 C238.979,389.357 241.138,390.159 244.88,391.762 C248.622,393.366 250.492,394.456 250.492,395.031 M232.236,421.182 C232.236,421.594 231.907,421.881 231.249,422.046 C230.838,422.128 229.933,422.169 228.535,422.169 L204.604,422.169 L204.604,431.174 C207.894,432.572 210.443,433.682 212.252,434.505 C218.009,437.219 221.997,439.645 224.218,441.783 C226.109,443.592 227.055,445.566 227.055,447.704 C227.055,448.937 226.726,450.171 226.068,451.404 C225.41,452.638 224.506,453.255 223.354,453.255 C222.285,453.255 221.298,452.474 220.394,450.911 C218.42,447.622 217.104,445.566 216.446,444.743 C213.568,441.125 210.731,437.959 207.935,435.245 C207.03,434.423 205.92,433.436 204.604,432.284 L205.345,490.015 C205.345,491.659 205.057,492.749 204.481,493.284 C203.905,493.818 202.59,494.209 200.534,494.455 C199.136,494.455 198.128,494.373 197.511,494.209 C196.895,494.044 196.381,493.88 195.97,493.715 L196.463,488.534 C196.463,483.271 196.71,472.909 197.203,457.449 C197.368,452.35 197.614,445.113 197.943,435.738 C196.545,437.876 195.394,439.603 194.489,440.919 C191.775,444.867 189.103,448.485 186.471,451.775 C183.84,454.817 180.961,457.901 177.836,461.026 C172.82,465.96 169.572,468.427 168.091,468.427 L167.721,468.181 L168.091,467.564 C173.19,462.465 178.638,455.27 184.436,445.977 C190.234,436.684 194.243,428.748 196.463,422.169 L186.595,422.169 C185.114,422.169 182.565,422.252 178.947,422.416 C175.328,422.58 173.396,422.663 173.149,422.663 C172.491,422.663 171.833,422.169 171.175,421.182 C170.517,420.196 170.188,419.332 170.188,418.592 L174.999,419.332 L198.19,419.332 L198.19,396.265 C195.641,397.169 191.344,397.745 185.299,397.992 C179.255,398.238 176.15,398.362 175.986,398.362 C175.41,398.362 174.917,398.238 174.506,397.992 C174.424,397.992 174.341,397.868 174.259,397.622 C174.67,397.293 175.04,397.128 175.369,397.128 C179.152,396.635 183.799,395.689 189.308,394.291 C198.108,392.071 205.468,389.562 211.389,386.766 C212.54,386.108 213.692,385.039 214.843,383.559 C215.007,383.312 215.295,382.901 215.706,382.326 C217.927,383.477 219.942,384.669 221.751,385.903 C224.958,388.041 226.562,389.562 226.562,390.467 C226.562,391.125 225.821,391.495 224.341,391.577 C222.861,391.659 221.545,391.701 220.394,391.701 C220.312,391.783 217.906,392.317 213.178,393.304 C208.449,394.291 205.591,394.949 204.604,395.278 L204.604,419.332 L217.063,419.332 L223.108,412.301 C225.164,414.028 226.685,415.303 227.672,416.125 C230.715,418.839 232.236,420.525 232.236,421.182 M277.754,387.877 C277.754,388.452 277.076,389.295 275.719,390.405 C274.362,391.516 273.683,392.235 273.683,392.564 L273.437,439.316 L273.807,479.406 C273.807,482.284 273.704,484.34 273.498,485.574 C273.293,486.807 272.696,488.103 271.71,489.46 C270.723,490.816 269.14,492.05 266.96,493.16 C264.781,494.27 262.869,494.825 261.224,494.825 C260.895,494.661 260.567,494.126 260.238,493.222 C259.909,492.317 259.456,491.618 258.881,491.125 C257.071,489.645 254.851,488.37 252.219,487.301 C250.492,486.725 248.766,486.149 247.039,485.574 C246.71,485.492 246.381,485.204 246.052,484.71 C246.545,484.464 246.997,484.34 247.409,484.34 L259.621,484.71 L261.841,484.71 C264.308,484.71 265.768,484.402 266.22,483.785 C266.673,483.168 266.899,481.092 266.899,477.556 C266.817,470.648 266.734,462.116 266.652,451.96 C266.57,441.803 266.467,431.277 266.344,420.381 C266.22,409.484 266.117,399.801 266.035,391.331 C266.035,389.932 265.747,388.164 265.172,386.026 C265.007,385.286 264.678,384.258 264.185,382.942 C266.159,382.942 269.366,383.765 273.807,385.409 C276.438,386.396 277.754,387.219 277.754,387.877 M432.772,480.146 C432.772,480.557 432.114,481.297 430.798,482.367 C430.058,483.024 429.236,483.682 428.331,484.34 C426.686,485.656 424.959,487.918 423.15,491.125 C422.739,491.865 419.244,492.235 412.665,492.235 C403.948,492.235 396.012,491.988 388.857,491.495 C378.66,490.755 370.149,489.603 363.323,488.041 C354.606,485.985 347.883,482.798 343.154,478.481 C338.426,474.163 336.062,469.538 336.062,464.603 C335.239,466.33 334.54,467.687 333.965,468.674 C332.32,471.717 330.675,474.431 329.03,476.816 C328.619,477.473 327.098,479.982 324.466,484.34 C322.821,487.136 321.917,488.575 321.752,488.658 C321.506,489.727 321.3,490.672 321.136,491.495 C320.724,493.14 320.149,493.962 319.409,493.962 C318.751,493.962 317.291,492.091 315.029,488.349 C312.768,484.608 311.637,482.408 311.637,481.75 C313.282,481.256 314.598,480.804 315.585,480.393 C318.545,479.077 321.094,477.432 323.233,475.459 C327.098,471.84 330.038,468.551 332.052,465.59 C334.067,462.63 335.321,459.669 335.815,456.709 C336.062,455.311 336.473,454.612 337.048,454.612 C337.377,454.858 337.583,455.064 337.665,455.228 C337.994,455.64 338.2,456.01 338.282,456.339 L338.282,462.013 C338.282,463.493 338.611,465.508 339.269,468.057 C339.927,470.607 340.626,471.881 341.366,471.881 C341.612,471.881 343.093,470.936 345.807,469.044 C349.425,466.577 353.167,463.74 357.032,460.533 C362.213,456.339 367.27,451.733 372.205,446.717 C376.81,442.112 381.292,437.054 385.65,431.544 C388.529,427.926 391.53,423.855 394.655,419.332 C395.724,417.687 396.834,416.043 397.986,414.398 L370.724,414.275 C362.089,414.275 353.578,414.295 345.19,414.336 C336.802,414.377 332.114,414.521 331.127,414.768 C330.141,415.015 329.441,415.138 329.03,415.138 C328.29,415.138 327.427,414.48 326.44,413.164 C325.453,411.849 324.96,410.821 324.96,410.08 C326.851,410.409 328.66,410.677 330.387,410.882 C332.114,411.088 333.512,411.191 334.581,411.191 L364.68,411.314 L364.557,396.881 C364.557,395.319 364.351,393.181 363.94,390.467 C363.858,389.645 363.652,388.452 363.323,386.89 C365.05,386.89 367.723,387.363 371.341,388.308 C374.959,389.254 376.769,390.261 376.769,391.331 C376.769,391.988 376.255,392.729 375.227,393.551 C374.199,394.373 373.15,395.196 372.081,396.018 L372.081,411.191 L398.109,411.191 L402.797,406.256 C403.208,406.256 404.914,407.264 407.916,409.279 C410.917,411.293 412.418,412.63 412.418,413.288 C412.418,414.11 411.205,415.035 408.779,416.063 C406.353,417.091 405.099,417.646 405.017,417.728 C403.948,419.209 402.879,420.648 401.81,422.046 C399.096,425.5 396.012,429.159 392.558,433.025 C387.788,438.288 382.793,443.325 377.57,448.136 C372.348,452.946 366.736,457.531 360.733,461.89 C356.374,465.015 352.057,467.893 347.78,470.524 C344.491,472.498 342.764,473.485 342.599,473.485 C342.599,473.814 343.792,474.719 346.177,476.199 C352.344,479.982 359.293,482.325 367.024,483.23 C370.478,483.641 374.075,483.929 377.817,484.094 C381.559,484.258 385.198,484.34 388.734,484.34 C398.027,484.34 407.32,483.765 416.612,482.613 C423.356,481.791 428.208,480.969 431.168,480.146 L432.278,479.899 L432.772,480.146 M580.22,486.437 C580.22,486.848 579.603,487.342 578.37,487.918 C574.258,489.891 572.037,491.001 571.708,491.248 C571.297,491.577 570.68,492.173 569.858,493.037 C569.036,493.9 568.501,494.373 568.255,494.455 C567.103,494.455 564.842,493.51 561.47,491.618 C558.098,489.727 554.727,487.465 551.355,484.834 C548.559,482.613 546.01,480.393 543.707,478.172 C542.967,477.515 542.103,476.651 541.116,475.582 C539.718,476.816 538.32,478.008 536.922,479.159 C533.304,481.955 529.192,484.546 524.587,486.931 C518.09,490.302 511.47,492.811 504.727,494.455 C503.904,494.702 502.917,494.928 501.766,495.134 C500.615,495.339 499.834,495.442 499.422,495.442 L498.806,495.195 C499.052,495.113 499.217,495.031 499.299,494.949 C500.286,494.373 501.149,493.962 501.889,493.715 C504.11,493.14 506.412,492.317 508.797,491.248 C511.922,489.932 515.376,488.164 519.159,485.944 C524.669,482.819 529.521,479.488 533.715,475.952 C535.031,474.883 536.47,473.526 538.032,471.881 C536.552,470.072 535.401,468.51 534.579,467.194 C531.947,463.164 529.727,458.724 527.917,453.872 C526.519,450.089 525.327,446.265 524.34,442.4 C524.093,441.248 523.806,439.891 523.477,438.329 L517.185,438.329 C517.185,449.431 515.541,459.34 512.251,468.057 C508.386,478.337 502.342,486.396 494.118,492.235 C492.473,493.386 491.281,493.962 490.541,493.962 C490.705,493.633 490.829,493.386 490.911,493.222 C491.322,492.646 491.939,492.029 492.761,491.371 C494.735,489.973 496.832,487.547 499.052,484.094 C502.342,478.995 505.014,472.868 507.07,465.714 C509.784,456.256 511.141,445.895 511.141,434.628 C511.141,425.171 510.977,417.338 510.648,411.129 C510.319,404.92 509.908,401.076 509.414,399.595 C510.237,399.595 511.696,400.253 513.793,401.569 C515.89,402.885 517.391,403.995 518.296,404.9 L533.962,404.9 L533.962,391.701 C533.962,390.22 533.818,388.493 533.53,386.52 C533.242,384.546 533.016,383.354 532.852,382.942 C534.332,382.942 536.593,383.271 539.636,383.929 C542.679,384.587 544.2,385.286 544.2,386.026 C544.2,386.437 543.337,387.342 541.61,388.74 C540.705,389.48 540.253,390.056 540.253,390.467 L540.253,404.9 L555.549,404.9 L559.126,400.212 C559.702,400.212 561.737,401.343 565.232,403.604 C568.727,405.866 570.475,407.326 570.475,407.983 C570.475,408.559 569.241,408.97 566.774,409.217 C564.307,409.464 562.868,409.71 562.457,409.957 C561.799,410.615 560.298,411.807 557.954,413.534 C555.611,415.261 554.151,416.125 553.575,416.125 L553.329,415.755 L554.069,413.658 C554.315,413 554.727,411.684 555.302,409.71 C555.385,409.135 555.59,408.354 555.919,407.367 L540.253,407.367 L540.253,435.862 L552.588,435.862 L556.289,431.421 C557.934,432.326 559.62,433.23 561.347,434.135 C563.978,435.697 565.294,436.849 565.294,437.589 C565.294,438.082 564.883,438.493 564.06,438.822 C561.84,439.809 560.689,440.426 560.607,440.673 C559.702,443.14 559.003,445.072 558.509,446.47 C556.865,450.911 555.549,454.159 554.562,456.215 C552.177,460.903 549.628,465.22 546.914,469.168 C546.503,469.825 545.927,470.607 545.187,471.511 C545.927,472.087 546.544,472.58 547.037,472.992 C550.08,475.212 553.596,477.432 557.584,479.653 C561.573,481.873 565.87,483.559 570.475,484.71 C573.682,485.286 576.931,485.862 580.22,486.437 M504.973,434.998 C504.973,435.574 504.295,436.047 502.938,436.417 C501.581,436.787 500.82,437.054 500.656,437.219 C500.656,437.465 499.381,438.617 496.832,440.673 C493.625,443.222 490.418,445.771 487.211,448.321 C488.691,448.321 491.404,449.842 495.352,452.885 C499.792,456.339 502.013,459.34 502.013,461.89 C502.013,462.794 501.725,463.658 501.149,464.48 C500.574,465.302 499.834,465.714 498.929,465.714 C497.778,465.714 496.524,464.645 495.167,462.506 C493.81,460.368 492.473,458.23 491.158,456.092 C489.349,453.625 487.663,451.733 486.1,450.418 C484.949,449.677 483.798,448.937 482.647,448.197 L482.523,469.784 C482.523,473.978 482.544,477.905 482.585,481.565 C482.626,485.224 482.729,487.959 482.893,489.768 L483.263,493.592 C483.263,495.072 482.647,496.162 481.413,496.861 C480.18,497.56 478.782,497.909 477.219,497.909 C476.726,497.909 476.233,497.827 475.739,497.663 C475.657,497.663 475.493,497.58 475.246,497.416 L475.739,490.138 C475.822,489.645 475.904,484.854 475.986,475.767 C476.068,466.68 476.13,459.237 476.171,453.44 C476.212,447.642 476.274,442.646 476.356,438.452 C476.356,439.521 473.231,442.646 466.981,447.827 C460.731,453.008 457.113,455.599 456.126,455.599 C455.879,454.941 456.208,454.283 457.113,453.625 C459.086,451.98 461.554,449.39 464.514,445.853 C467.804,441.906 471.011,437.835 474.136,433.641 C478.987,427.062 482.688,421.1 485.237,415.755 C486.059,413.946 486.882,411.807 487.704,409.34 L479.07,409.217 C475.945,409.217 473.313,409.258 471.175,409.34 C469.037,409.423 467.639,409.628 466.981,409.957 L465.624,410.327 C464.884,410.327 463.918,409.813 462.725,408.785 C461.533,407.757 460.937,406.914 460.937,406.256 L476.726,406.503 L476.849,390.714 C476.849,389.316 476.747,388.082 476.541,387.013 C476.336,385.944 476.109,384.957 475.863,384.053 C477.507,384.053 479.81,384.34 482.77,384.916 C485.73,385.492 487.211,386.232 487.211,387.136 C487.211,387.465 486.306,388.288 484.497,389.604 C483.592,390.261 483.14,390.837 483.14,391.331 L483.14,406.503 L488.321,406.503 L492.391,401.939 C492.802,401.939 494.221,402.946 496.647,404.961 C499.073,406.976 500.286,408.271 500.286,408.847 C500.286,409.505 499.361,410.06 497.51,410.512 C495.66,410.965 494.612,411.437 494.365,411.931 C494.365,412.835 491.939,417.029 487.087,424.513 C484.538,428.46 483.058,430.845 482.647,431.668 L482.647,446.224 L485.73,447.457 C491.158,442.029 495.105,435.697 497.572,428.46 C498.065,428.46 499.422,429.386 501.643,431.236 C503.863,433.086 504.973,434.34 504.973,434.998 M533.962,435.862 L533.962,407.367 L517.556,407.367 L517.309,435.862 L533.962,435.862 M553.205,438.329 L525.574,438.329 C525.82,439.727 526.067,440.919 526.314,441.906 C527.136,444.702 528.596,448.218 530.693,452.453 C532.79,456.688 534.784,460.08 536.676,462.63 C537.909,464.275 539.348,465.837 540.993,467.317 C543.296,464.85 545.907,460.204 548.826,453.378 C551.745,446.552 553.205,441.536 553.205,438.329 Z" style="stroke:none;fill-rule:nonzero;fill:#000000;fill-opacity:1;"/>
        </g>
    </g>
</svg>
