<?xml version="1.0"?>
<svg version="1.1" xmlns="http://www.w3.org/2000/svg" xmlns:xlink="http://www.w3.org/1999/xlink" width="140" height="30">
    <desc iVinci="yes" version="4.6" gridStep="20" showGrid="no" snapToGrid="no" codePlatform="0"/>
    <g id="Layer1" name="old_text" opacity="1">
        <g id="Shape1">
            <desc shapeID="1" type="0" basicInfo-basicType="0" basicInfo-roundedRectRadius="12" basicInfo-polygonSides="6" basicInfo-starPoints="5" bounding="rect(-1.10105,-5.35872,2.20211,10.7174)" text="" font-familyName="Helvetica" font-pixelSize="20" font-bold="0" font-underline="0" font-alignment="1" strokeStyle="0" markerStart="0" markerEnd="0" shadowEnabled="0" shadowOffsetX="0" shadowOffsetY="2" shadowBlur="4" shadowOpacity="160" blurEnabled="0" blurRadius="4" transform="matrix(1.41298,0,0,1.41298,116.561,14.4592)" pers-center="0,0" pers-size="0,0" pers-start="0,0" pers-end="0,0" locked="0" mesh="" flag=""/>
            <path id="shapePath1" d="M115.707,7.40611 C116.186,6.79851 116.878,6.69536 117.186,7.25349 C117.318,7.50643 117.417,9.86471 117.395,12.5607 C117.424,15.258 117.636,18.1631 117.874,19.0604 C118.238,20.308 118.206,20.7955 117.682,21.3522 C116.685,22.4176 115.669,22.2071 115.506,20.8732 C114.733,15.973 114.896,8.62973 115.707,7.40611 Z" style="stroke:none;fill-rule:evenodd;fill:#b2a295;fill-opacity:1;"/>
        </g>
        <g id="Shape2">
            <desc shapeID="2" type="0" basicInfo-basicType="0" basicInfo-roundedRectRadius="12" basicInfo-polygonSides="6" basicInfo-starPoints="5" bounding="rect(-3.45773,-6.85462,6.91547,13.7092)" text="" font-familyName="Helvetica" font-pixelSize="20" font-bold="0" font-underline="0" font-alignment="1" strokeStyle="0" markerStart="0" markerEnd="0" shadowEnabled="0" shadowOffsetX="0" shadowOffsetY="2" shadowBlur="4" shadowOpacity="160" blurEnabled="0" blurRadius="4" transform="matrix(1.41298,0,0,1.41298,102.545,14.1207)" pers-center="0,0" pers-size="0,0" pers-start="0,0" pers-end="0,0" locked="0" mesh="" flag=""/>
            <path id="shapePath2" d="M103.866,8.10555 C103.393,7.83001 102.292,7.41884 101.377,7.1659 C100.072,6.83951 99.8222,6.92145 100.027,7.57143 C100.146,8.02074 100.216,9.25006 100.15,10.3239 C100.031,12.2286 100.028,12.2781 101.615,11.9842 C104.236,11.6083 105.615,9.14549 103.866,8.10555 L99.2118,4.92352 C99.493,4.35266 100.036,4.28908 101.872,4.69744 C104.341,5.19338 106.613,6.51168 107.318,7.78054 C107.626,8.33867 107.321,9.29952 106.162,11.3851 C104.735,13.8451 104.369,14.2139 102.84,14.3637 C100.228,14.594 99.9692,14.8229 100.101,17.4284 C100.305,21.9994 100.105,23.654 99.2627,23.7981 C97.9302,23.9592 97.5289,21.7295 97.6943,14.3382 C97.837,8.1225 97.9486,7.09951 98.5986,6.89462 C99.0479,6.77592 99.2641,6.4467 99.1355,6.14433 C99.0041,5.89141 99.038,5.35446 99.2118,4.92352 " style="stroke:none;fill-rule:evenodd;fill:#b2a295;fill-opacity:1;"/>
        </g>
        <g id="Shape3">
            <desc shapeID="3" type="0" basicInfo-basicType="0" basicInfo-roundedRectRadius="12" basicInfo-polygonSides="6" basicInfo-starPoints="5" bounding="rect(-4.50773,-5.83437,9.01546,11.6687)" text="" font-familyName="Helvetica" font-pixelSize="20" font-bold="0" font-underline="0" font-alignment="1" strokeStyle="0" markerStart="0" markerEnd="0" shadowEnabled="0" shadowOffsetX="0" shadowOffsetY="2" shadowBlur="4" shadowOpacity="160" blurEnabled="0" blurRadius="4" transform="matrix(1.41298,0,0,1.41298,131.438,15.1313)" pers-center="0,0" pers-size="0,0" pers-start="0,0" pers-end="0,0" locked="0" mesh="" flag=""/>
            <path id="shapePath3" d="M131.079,7.19706 C134.008,6.59514 137.468,6.90884 137.755,7.80892 C138.079,8.90679 136.868,9.46914 135.034,9.01135 C133.347,8.56343 131.034,9.49883 129.908,11.0461 C128.938,12.4562 127.798,15.8163 127.917,17.0484 C128.04,18.2325 129.51,19.011 133.7,20.2022 C135.867,20.8281 136.386,21.1545 136.428,22.039 C136.573,23.6654 135.34,23.7855 131.497,22.5166 C127.753,21.2548 124.956,18.9234 125.072,17.0682 C125.139,15.9943 126.573,12.6526 128.287,9.52424 C129.064,8.05194 129.735,7.50652 131.079,7.19706 Z" style="stroke:none;fill-rule:evenodd;fill:#b2a295;fill-opacity:1;"/>
        </g>
        <g id="Shape4">
            <desc shapeID="4" type="0" basicInfo-basicType="0" basicInfo-roundedRectRadius="12" basicInfo-polygonSides="6" basicInfo-starPoints="5" bounding="rect(-5.83367,-6.46098,11.6673,12.922)" text="" font-familyName="Helvetica" font-pixelSize="20" font-bold="0" font-underline="0" font-alignment="1" strokeStyle="0" markerStart="0" markerEnd="0" shadowEnabled="0" shadowOffsetX="0" shadowOffsetY="2" shadowBlur="4" shadowOpacity="160" blurEnabled="0" blurRadius="4" transform="matrix(1.41298,0,0,1.41298,77.4302,16.0167)" pers-center="0,0" pers-size="0,0" pers-start="0,0" pers-end="0,0" locked="0" mesh="" flag=""/>
            <path id="shapePath4" d="M83.0939,7.78015 C83.4017,6.76987 85.1803,6.53675 85.6607,7.49898 C85.8373,7.80417 84.1043,9.6566 81.8712,11.6743 C79.5923,13.6398 77.8167,15.3919 77.9082,15.4964 C78.2746,15.9104 78.9056,23.891 78.6221,24.5099 C77.8869,26.0825 76.0249,24.4957 76.1556,22.396 C76.2832,20.3458 75.4947,16.4728 74.7713,15.4964 C74.408,15.033 74.2521,14.3858 74.4625,14.1541 C74.6273,13.8701 74.5935,13.6228 74.3495,13.6087 C73.7148,13.5691 69.1511,8.92184 69.1876,8.33688 C69.1997,8.14047 69.6667,7.72929 70.222,7.46929 C71.128,7.08497 71.6042,7.31104 73.4571,9.04336 C76.8392,12.1943 77.5534,12.5334 78.9842,11.5924 C79.6983,11.1473 80.5341,10.3165 80.9155,9.70324 C81.2936,9.13802 81.8612,8.68307 82.2028,8.70565 C82.4959,8.72261 82.914,8.30863 83.0939,7.78015 Z" style="stroke:none;fill-rule:evenodd;fill:#b2a295;fill-opacity:1;"/>
        </g>
        <g id="Shape5">
            <desc shapeID="5" type="0" basicInfo-basicType="0" basicInfo-roundedRectRadius="12" basicInfo-polygonSides="6" basicInfo-starPoints="5" bounding="rect(-6.46063,-9.21611,12.9213,18.4322)" text="" font-familyName="Helvetica" font-pixelSize="20" font-bold="0" font-underline="0" font-alignment="1" strokeStyle="0" markerStart="0" markerEnd="0" shadowEnabled="0" shadowOffsetX="0" shadowOffsetY="2" shadowBlur="4" shadowOpacity="160" blurEnabled="0" blurRadius="4" transform="matrix(1.41298,0,0,1.41298,36.7644,16.0167)" pers-center="0,0" pers-size="0,0" pers-start="0,0" pers-end="0,0" locked="0" mesh="" flag=""/>
            <path id="shapePath5" d="M36.4843,9.83359 C36.188,9.07907 35.736,8.46301 35.5896,8.45453 C35.1992,8.4305 33.2657,12.7203 33.2079,13.6487 C33.1744,14.1856 35.8509,14.4993 37.7365,14.1262 C38.5818,13.9341 38.585,13.8846 37.8797,12.6158 C37.4371,11.8527 36.8263,10.639 36.4843,9.83359 L34.6178,3.58963 C35.0356,2.39002 36.5585,3.12336 37.0962,4.72426 C37.3833,5.62433 37.8048,6.72929 38.0734,7.13761 C38.2932,7.54458 38.7238,8.50255 39.1177,9.26134 C39.4018,9.83929 40.1294,12.5547 41.353,13.6487 C42.1104,14.3259 43.5513,13.3879 44.3841,13.97 C44.9516,14.3667 45.3239,15.4424 44.7405,16.0167 C44.2051,16.5436 43.0949,16.123 43.0419,16.5209 C42.9445,17.2517 43.7241,17.6025 43.8648,17.8644 C46.5716,22.9038 46.5394,24.6924 43.9466,23.8263 C43.3208,23.6398 42.9117,23.1241 42.9481,22.5377 C42.9816,22.0008 42.3862,20.5426 41.629,19.3189 L40.252,17.0271 L36.526,17.0412 C34.4174,17.0568 32.6047,17.0426 32.4063,17.0794 C31.7198,17.085 30.7807,20.3603 30.2326,24.4438 C29.8429,27.5566 29.471,28.8071 28.9216,28.9696 C27.7196,29.385 27.3682,27.941 27.8339,24.3915 C28.2999,20.8421 28.7008,19.3719 29.6917,16.8356 C29.7862,16.5929 28.6928,16.5468 28.5701,16.1207 C28.3865,15.4831 28.4741,14.6512 28.9216,14.1613 C29.3854,13.6538 30.3878,13.8488 30.8983,13.5724 C32.3937,9.6035 34.4472,4.09983 34.6178,3.58963 " style="stroke:none;fill-rule:evenodd;fill:#b2a295;fill-opacity:1;"/>
        </g>
        <g id="Shape6">
            <desc shapeID="6" type="0" basicInfo-basicType="0" basicInfo-roundedRectRadius="12" basicInfo-polygonSides="6" basicInfo-starPoints="5" bounding="rect(-4.9689,-6.1479,9.93781,12.2958)" text="" font-familyName="Helvetica" font-pixelSize="20" font-bold="0" font-underline="0" font-alignment="1" strokeStyle="0" markerStart="0" markerEnd="0" shadowEnabled="0" shadowOffsetX="0" shadowOffsetY="2" shadowBlur="4" shadowOpacity="160" blurEnabled="0" blurRadius="4" transform="matrix(1.41298,0,0,1.41298,58.0838,14.1613)" pers-center="0,0" pers-size="0,0" pers-start="0,0" pers-end="0,0" locked="0" mesh="" flag=""/>
            <path id="shapePath6" d="M51.6466,5.63002 C52.6568,5.15382 60.1608,5.86596 60.7103,6.48769 C60.985,6.79854 60.6101,8.09848 59.7561,10.006 C58.9661,11.6733 57.8136,14.4442 57.1671,16.168 L55.9932,19.2808 L57.0432,19.7386 C57.5649,20.017 59.6616,20.1964 61.6237,20.171 C64.8614,20.1272 65.1515,20.1936 65.0997,21.0244 C65.0692,21.5119 64.7338,22.1774 64.325,22.4459 C63.2968,23.216 56.5589,22.7963 54.703,21.8977 C53.3235,21.2222 53.2381,21.0216 53.5886,19.3274 C53.7958,18.361 54.5704,16.1539 55.3601,14.488 C56.147,12.8701 56.9642,10.7634 57.214,9.8972 L57.6532,8.35566 L54.6748,8.17053 C52.2334,8.01934 51.6566,7.83565 51.2658,7.02744 C50.9237,6.22204 50.9907,5.93236 51.6466,5.63002 Z" style="stroke:none;fill-rule:evenodd;fill:#b2a295;fill-opacity:1;"/>
        </g>
        <g id="Shape7">
            <desc shapeID="7" type="0" basicInfo-basicType="0" basicInfo-roundedRectRadius="12" basicInfo-polygonSides="6" basicInfo-starPoints="5" bounding="rect(-6.36888,-7.35184,12.7378,14.7037)" text="" font-familyName="Helvetica" font-pixelSize="20" font-bold="0" font-underline="0" font-alignment="1" strokeStyle="0" markerStart="0" markerEnd="0" shadowEnabled="0" shadowOffsetX="0" shadowOffsetY="2" shadowBlur="4" shadowOpacity="160" blurEnabled="0" blurRadius="4" transform="matrix(1.41298,0,0,1.41298,10.9107,15.8869)" pers-center="0,0" pers-size="0,0" pers-start="0,0" pers-end="0,0" locked="0" mesh="" flag=""/>
            <path id="shapePath7" d="M2.56446,5.90978 C3.04643,5.25272 4.30978,5.42933 4.316,6.11606 C4.29494,6.458 4.22542,9.14973 4.08907,12.1311 C3.98041,16.2415 4.1518,18.2126 4.8453,20.462 L5.74339,23.3615 L7.56812,23.1806 C8.55367,23.0945 11.6204,22.6479 14.4431,22.1859 C17.2169,21.7224 19.6307,21.5289 19.762,21.7818 C20.5985,23.305 17.7488,24.9893 14.6726,24.7985 C14.1844,24.7674 12.2529,25.0896 10.4647,25.4682 C5.39325,26.6227 4.51424,26.569 3.86991,25.1065 C2.70661,22.5349 2.34305,21.2872 2.05254,18.8668 C1.69167,16.0013 2.08264,6.56537 2.56446,5.90978 Z" style="stroke:none;fill-rule:evenodd;fill:#b2a295;fill-opacity:1;"/>
        </g>
        <g id="Shape8">
            <desc shapeID="8" type="0" basicInfo-basicType="0" basicInfo-roundedRectRadius="12" basicInfo-polygonSides="6" basicInfo-starPoints="5" bounding="rect(0,0,0,0)" text="" font-familyName="Helvetica" font-pixelSize="20" font-bold="0" font-underline="0" font-alignment="1" strokeStyle="0" markerStart="0" markerEnd="0" shadowEnabled="0" shadowOffsetX="0" shadowOffsetY="2" shadowBlur="4" shadowOpacity="160" blurEnabled="0" blurRadius="4" transform="matrix(1.41298,0,0,1.41298,81.0089,10.2102)" pers-center="0,0" pers-size="0,0" pers-start="0,0" pers-end="0,0" locked="0" mesh="" flag=""/>
            <path id="shapePath8" d="M81.0089,10.2102 Z" style="stroke:none;fill-rule:evenodd;fill:#73a25e;fill-opacity:1;"/>
        </g>
        <g id="Shape9">
            <desc shapeID="9" type="0" basicInfo-basicType="0" basicInfo-roundedRectRadius="12" basicInfo-polygonSides="6" basicInfo-starPoints="5" bounding="rect(0,0,0,0)" text="" font-familyName="Helvetica" font-pixelSize="20" font-bold="0" font-underline="0" font-alignment="1" strokeStyle="0" markerStart="0" markerEnd="0" shadowEnabled="0" shadowOffsetX="0" shadowOffsetY="2" shadowBlur="4" shadowOpacity="160" blurEnabled="0" blurRadius="4" transform="matrix(1.41298,0,0,1.41298,80.1718,11.2248)" pers-center="0,0" pers-size="0,0" pers-start="0,0" pers-end="0,0" locked="0" mesh="" flag=""/>
            <path id="shapePath9" d="M80.1718,11.2248 Z" style="stroke:none;fill-rule:evenodd;fill:#73a25e;fill-opacity:1;"/>
        </g>
        <g id="Shape10">
            <desc shapeID="10" type="0" basicInfo-basicType="0" basicInfo-roundedRectRadius="12" basicInfo-polygonSides="6" basicInfo-starPoints="5" bounding="rect(-1.34521,-1.85986,2.69042,3.71972)" text="" font-familyName="Helvetica" font-pixelSize="20" font-bold="0" font-underline="0" font-alignment="1" strokeStyle="0" markerStart="0" markerEnd="0" shadowEnabled="0" shadowOffsetX="0" shadowOffsetY="2" shadowBlur="4" shadowOpacity="160" blurEnabled="0" blurRadius="4" transform="matrix(1.41298,0,0,1.41298,82.2101,6.47342)" pers-center="0,0" pers-size="0,0" pers-start="0,0" pers-end="0,0" locked="0" mesh="" flag=""/>
            <path id="shapePath10" d="M81.248,9.02935 C79.9466,8.53417 80.2146,5.82317 80.7623,4.54302 C81.0408,3.89214 82.1407,3.70058 82.8024,3.95235 C83.4071,4.18245 84.3216,5.38033 84.0671,5.97519 C82.2738,7.27681 82.5712,9.53284 81.248,9.02935 Z" style="stroke:none;fill-rule:evenodd;fill:#73a25e;fill-opacity:1;"/>
        </g>
        <g id="Shape11">
            <desc shapeID="11" type="0" basicInfo-basicType="0" basicInfo-roundedRectRadius="12" basicInfo-polygonSides="6" basicInfo-starPoints="5" bounding="rect(-1.34521,-1.85986,2.69042,3.71972)" text="" font-familyName="Helvetica" font-pixelSize="20" font-bold="0" font-underline="0" font-alignment="1" strokeStyle="0" markerStart="0" markerEnd="0" shadowEnabled="0" shadowOffsetX="0" shadowOffsetY="2" shadowBlur="4" shadowOpacity="160" blurEnabled="0" blurRadius="4" transform="matrix(0.209849,0.802035,-0.698193,0.182679,84.1558,9.50752)" pers-center="0,0" pers-size="0,0" pers-start="0,0" pers-end="0,0" locked="0" mesh="" flag=""/>
            <path id="shapePath11" d="M82.75,9.29189 C82.8014,8.48918 84.1808,8.29077 84.8947,8.43617 C85.2576,8.5101 85.5157,9.10967 85.4895,9.5178 C85.4656,9.8908 85.0095,10.5648 84.6778,10.4972 C83.7683,9.64758 82.6977,10.1081 82.75,9.29189 Z" style="stroke:none;fill-rule:evenodd;fill:#73a25e;fill-opacity:1;"/>
        </g>
    </g>
</svg>
