<svg width="128" height="128" viewBox="0 0 128 128" fill="none" xmlns="http://www.w3.org/2000/svg">
<g clip-path="url(#clip0_170_38)">
<path fill-rule="evenodd" clip-rule="evenodd" d="M13.3194 24.912L44.1597 79.6801H1.93482C0.671184 74.6626 0 69.4097 0 64C0 49.2817 4.96834 35.7238 13.3194 24.912ZM19.7909 17.7229L41.5997 55.0401L72.146 0.513523C69.4784 0.174658 66.7596 0 64 0C46.8529 0 31.2808 6.74339 19.7909 17.7229ZM81.874 2.52931L60.4797 39.3601H123.085C115.684 21.6331 100.537 7.94671 81.874 2.52931ZM126.145 48.6401H82.8797L114.685 103.082C123.033 92.2712 128 78.7156 128 64C128 58.7052 127.357 53.5607 126.145 48.6401ZM108.031 110.447L87.3597 72.6401L56.0078 127.506C58.6261 127.832 61.2934 128 64 128C81.0587 128 96.5585 121.326 108.031 110.447ZM47.0783 125.739L67.8397 89.2801H5.18662C12.8112 106.995 28.2054 120.578 47.0783 125.739Z" fill="#CA0813"/>
</g>
<defs>
<clipPath id="clip0_170_38">
<rect width="128" height="128" fill="white"/>
</clipPath>
</defs>
</svg>
