<?xml version="1.0"?>
<svg version="1.1" xmlns="http://www.w3.org/2000/svg" xmlns:xlink="http://www.w3.org/1999/xlink" width="150" height="100">
    <desc iVinci="yes" version="4.6" gridStep="20" showGrid="no" snapToGrid="no" codePlatform="0"/>
    <g id="Layer1" name="Layer 2" opacity="1">
        <g id="Shape1">
            <desc shapeID="1" type="0" basicInfo-basicType="0" basicInfo-roundedRectRadius="12" basicInfo-polygonSides="6" basicInfo-starPoints="5" bounding="rect(-40.6274,-31.461,81.2549,62.9221)" text="" font-familyName="Helvetica" font-pixelSize="20" font-bold="0" font-underline="0" font-alignment="1" strokeStyle="0" markerStart="0" markerEnd="0" shadowEnabled="0" shadowOffsetX="0" shadowOffsetY="2" shadowBlur="4" shadowOpacity="160" blurEnabled="0" blurRadius="4" transform="matrix(1,0,0,1,55.5331,39.2725)" pers-center="0,0" pers-size="0,0" pers-start="0,0" pers-end="0,0" locked="0" mesh="" flag=""/>
            <path id="shapePath1" d="M17.626,22.7476 C17.626,22.7476 25.9623,24.7091 25.9623,24.7091 C25.9623,24.7091 40.2118,16.8593 40.2118,16.8593 C40.2118,16.8593 62.3856,12.1237 62.3856,12.1237 C62.3856,12.1237 70.0203,12.053 70.0203,12.053 C70.0203,12.053 74.7567,7.81145 74.7567,7.81145 C74.7567,7.81145 76.6654,13.0427 76.6654,13.0427 C76.6654,13.0427 90.1713,21.9303 90.1713,21.9303 C90.1713,21.9303 96.1001,32.2149 96.1001,32.2149 C96.1001,32.2149 96.1606,47.5207 96.1606,47.5207 C96.1606,47.5207 90.2057,57.9206 90.2057,57.9206 C90.2057,57.9206 80.6669,64.5243 80.6669,64.5243 C80.6669,64.5243 67.9179,68.3765 67.9179,68.3765 C67.9179,68.3765 54.9894,70.7335 54.9894,70.7335 C54.9894,70.7335 40.5094,70.2738 40.5094,70.2738 C40.5094,70.2738 25.225,65.1024 25.225,65.1024 C25.225,65.1024 16.8358,57.2878 16.8358,57.2878 C16.8358,57.2878 14.9057,48.2145 14.9057,48.2145 C14.9057,48.2145 15.7939,38.2774 15.7939,38.2774 C15.7939,38.2774 18.4511,33.0443 19.3761,28.782 C19.8029,26.8152 17.626,22.7476 17.626,22.7476 Z" style="stroke:none;fill-rule:evenodd;fill:#fff9ef;fill-opacity:1;"/>
        </g>
        <g id="Shape2">
            <desc shapeID="2" type="0" basicInfo-basicType="0" basicInfo-roundedRectRadius="12" basicInfo-polygonSides="6" basicInfo-starPoints="5" bounding="rect(0,0,0,0)" text="" font-familyName="Helvetica" font-pixelSize="20" font-bold="0" font-underline="0" font-alignment="1" strokeStyle="0" markerStart="0" markerEnd="0" shadowEnabled="0" shadowOffsetX="0" shadowOffsetY="2" shadowBlur="4" shadowOpacity="160" blurEnabled="0" blurRadius="4" transform="matrix(1,0,0,1,92.4844,69.9219)" pers-center="0,0" pers-size="0,0" pers-start="0,0" pers-end="0,0" locked="0" mesh="" flag=""/>
            <path id="shapePath2" d="M92.4844,69.9219 Z" style="stroke:none;fill-rule:evenodd;fill:#fff9ef;fill-opacity:1;"/>
        </g>
        <g id="Shape3">
            <desc shapeID="3" type="0" basicInfo-basicType="0" basicInfo-roundedRectRadius="12" basicInfo-polygonSides="6" basicInfo-starPoints="5" bounding="rect(-7.70424,-7.49726,15.4085,14.9945)" text="" font-familyName="Helvetica" font-pixelSize="20" font-bold="0" font-underline="0" font-alignment="1" strokeStyle="0" markerStart="0" markerEnd="0" shadowEnabled="0" shadowOffsetX="0" shadowOffsetY="2" shadowBlur="4" shadowOpacity="160" blurEnabled="0" blurRadius="4" transform="matrix(1,0,0,1,99.5614,71.5496)" pers-center="0,0" pers-size="0,0" pers-start="0,0" pers-end="0,0" locked="0" mesh="" flag=""/>
            <path id="shapePath3" d="M91.8594,65.5469 C91.8594,65.5469 91.7496,70.4449 93.0691,74.0987 C94.1666,77.1381 96.7344,79.0469 96.7344,79.0469 C96.7344,79.0469 101.797,77.3594 101.828,77.3594 C101.859,77.3594 103.734,74.7031 103.734,74.7031 C103.734,74.7031 105.359,74.4844 105.359,74.4844 C105.359,74.4844 107.266,68.9531 107.266,68.9531 C107.266,68.9531 106.328,66.2031 106.328,66.2031 C106.328,66.2031 102.734,67.1094 102.766,67.1094 C102.782,67.1094 100.475,64.5065 97.6621,64.104 C95.0193,63.726 91.8594,65.5469 91.8594,65.5469 Z" style="stroke:none;fill-rule:evenodd;fill:#fff9ef;fill-opacity:1;"/>
        </g>
    </g>
    <g id="Layer2" name="Layer 3" opacity="1">
        <g id="Shape4">
            <desc shapeID="4" type="0" basicInfo-basicType="0" basicInfo-roundedRectRadius="12" basicInfo-polygonSides="6" basicInfo-starPoints="5" bounding="rect(-35.5835,-17.3641,71.1671,34.7281)" text="" font-familyName="Helvetica" font-pixelSize="20" font-bold="0" font-underline="0" font-alignment="1" strokeStyle="0" markerStart="0" markerEnd="0" shadowEnabled="0" shadowOffsetX="0" shadowOffsetY="2" shadowBlur="4" shadowOpacity="160" blurEnabled="0" blurRadius="4" transform="matrix(1,0,0,1,64.7295,77.404)" pers-center="0,0" pers-size="0,0" pers-start="0,0" pers-end="0,0" locked="0" mesh="" flag=""/>
            <path id="shapePath4" d="M29.4274,67.1788 C29.4274,67.1788 29.146,92.409 29.146,92.409 C29.146,92.409 51.0014,94.8337 61.9711,94.7667 C68.5222,94.7267 81.4416,92.0895 81.4416,92.0895 C81.4416,92.0895 80.5898,85.7008 80.5898,85.7008 C80.5898,85.7008 90.6901,82.476 90.6901,82.476 C90.6901,82.476 96.8355,79.1903 96.8355,79.1903 C96.8355,79.1903 92.9414,74.7486 92.9414,74.7486 C92.9414,74.7486 92.0082,65.6277 92.0082,65.6277 C92.0082,65.6277 95.2437,64.1236 95.2437,64.1236 C95.2437,64.1236 99.1866,63.1731 99.1866,63.1731 C99.1866,63.1731 100.313,60.2864 100.313,60.2864 C100.313,60.2864 86.8652,60.04 86.8652,60.04 C86.8652,60.04 79.8628,64.79 79.8628,64.79 C79.8628,64.79 67.7132,68.5354 67.7132,68.5354 C67.7132,68.5354 50.6543,70.5975 50.6543,70.5975 C50.6543,70.5975 38.3976,69.7665 38.3976,69.7665 C38.3976,69.7665 29.4274,67.1788 29.4274,67.1788 Z" style="stroke:none;fill-rule:evenodd;fill:#fabbb9;fill-opacity:1;"/>
        </g>
        <g id="Shape5">
            <desc shapeID="5" type="0" basicInfo-basicType="0" basicInfo-roundedRectRadius="12" basicInfo-polygonSides="6" basicInfo-starPoints="5" bounding="rect(-2.23575,-2.66593,4.4715,5.33186)" text="" font-familyName="Helvetica" font-pixelSize="20" font-bold="0" font-underline="0" font-alignment="1" strokeStyle="0" markerStart="0" markerEnd="0" shadowEnabled="0" shadowOffsetX="0" shadowOffsetY="2" shadowBlur="4" shadowOpacity="160" blurEnabled="0" blurRadius="4" transform="matrix(1,0,0,1,104.02,64.2059)" pers-center="0,0" pers-size="0,0" pers-start="0,0" pers-end="0,0" locked="0" mesh="" flag=""/>
            <path id="shapePath5" d="M103.217,61.5404 C103.217,61.4831 101.784,66.8718 101.784,66.8718 C101.784,66.8718 106.255,66.0692 106.255,66.0692 C106.255,66.0692 103.217,61.5404 103.217,61.5404 Z" style="stroke:none;fill-rule:evenodd;fill:#fabbb9;fill-opacity:1;"/>
        </g>
        <g id="Shape6">
            <desc shapeID="6" type="0" basicInfo-basicType="0" basicInfo-roundedRectRadius="12" basicInfo-polygonSides="6" basicInfo-starPoints="5" bounding="rect(-4.89734,-7.12018,9.79468,14.2404)" text="" font-familyName="Helvetica" font-pixelSize="20" font-bold="0" font-underline="0" font-alignment="1" strokeStyle="0" markerStart="0" markerEnd="0" shadowEnabled="0" shadowOffsetX="0" shadowOffsetY="2" shadowBlur="4" shadowOpacity="160" blurEnabled="0" blurRadius="4" transform="matrix(1,0,0,1,62.1942,44.5733)" pers-center="0,0" pers-size="0,0" pers-start="0,0" pers-end="0,0" locked="0" mesh="" flag=""/>
            <path id="shapePath6" d="M57.2969,39.0156 C57.2969,39.0156 65.2969,37.4531 65.2969,37.4531 C65.2969,37.4531 67.6094,45.0156 66.9844,49.7031 C66.3594,54.3906 58.1094,49.3281 58.1094,49.3281 C58.1094,49.3281 57.3906,47.7656 57.3906,47.7656 C57.3906,47.7656 57.2969,39.0156 57.2969,39.0156 Z" style="stroke:none;fill-rule:evenodd;fill:#ffffff;fill-opacity:1;"/>
        </g>
        <g id="Shape7">
            <desc shapeID="7" type="0" basicInfo-basicType="0" basicInfo-roundedRectRadius="12" basicInfo-polygonSides="6" basicInfo-starPoints="5" bounding="rect(-7.13133,-4.86247,14.2626,9.72495)" text="" font-familyName="" font-pixelSize="20" font-bold="0" font-underline="0" font-alignment="1" strokeStyle="0" markerStart="0" markerEnd="0" shadowEnabled="0" shadowOffsetX="0" shadowOffsetY="2" shadowBlur="4" shadowOpacity="160" blurEnabled="0" blurRadius="4" transform="matrix(0.634436,-0.539482,0.539482,0.634436,45.4739,43.3938)" pers-center="0,0" pers-size="0,0" pers-start="0,0" pers-end="0,0" locked="0" mesh="" flag=""/>
            <path id="shapePath7" d="M39.923,44.2195 C39.216,47.1163 42.0209,48.2294 46.3356,46.7469 C49.8093,45.4327 50.0632,45.2169 50.7765,42.9705 C51.3536,40.9494 51.2203,40.4068 49.6688,39.8678 C47.9553,39.1384 42.9014,40.2657 41.1884,41.7224 C40.7443,42.0999 40.1797,43.2359 39.923,44.2195 Z" style="stroke:none;fill-rule:evenodd;fill:#fc8e76;fill-opacity:0.67451;"/>
        </g>
        <g id="Shape8">
            <desc shapeID="8" type="0" basicInfo-basicType="0" basicInfo-roundedRectRadius="12" basicInfo-polygonSides="6" basicInfo-starPoints="5" bounding="rect(-6.40503,-4.29662,12.8101,8.59324)" text="" font-familyName="" font-pixelSize="20" font-bold="0" font-underline="0" font-alignment="1" strokeStyle="0" markerStart="0" markerEnd="0" shadowEnabled="0" shadowOffsetX="0" shadowOffsetY="2" shadowBlur="4" shadowOpacity="160" blurEnabled="0" blurRadius="4" transform="matrix(0.774603,-0.426563,0.426564,0.774603,74.3381,33.1919)" pers-center="0,0" pers-size="0,0" pers-start="0,0" pers-end="0,0" locked="0" mesh="" flag=""/>
            <path id="shapePath8" d="M68.4195,32.9029 C68.2374,33.306 68.6022,34.5184 69.1571,35.5252 C71.1191,39.0885 80.6562,36.0575 80.061,32.0443 C79.6607,28.9334 69.3598,29.6594 68.4195,32.9029 Z" style="stroke:none;fill-rule:evenodd;fill:#fc8e76;fill-opacity:0.643137;"/>
        </g>
    </g>
    <g id="Layer3" name="Layer 4" opacity="1">
        <g id="Shape9">
            <desc shapeID="9" type="0" basicInfo-basicType="0" basicInfo-roundedRectRadius="12" basicInfo-polygonSides="6" basicInfo-starPoints="5" bounding="rect(-21.4531,-11.9688,42.9062,23.9375)" text="" font-familyName="Helvetica" font-pixelSize="20" font-bold="0" font-underline="0" font-alignment="1" strokeStyle="0" markerStart="0" markerEnd="0" shadowEnabled="0" shadowOffsetX="0" shadowOffsetY="2" shadowBlur="4" shadowOpacity="160" blurEnabled="0" blurRadius="4" transform="matrix(1,0,0,1,125.156,33.6719)" pers-center="0,0" pers-size="0,0" pers-start="0,0" pers-end="0,0" locked="0" mesh="" flag=""/>
            <path id="shapePath9" d="M105.078,21.7031 C105.078,21.7031 103.703,41.5469 103.703,41.5469 C103.703,41.5469 134.578,45.6406 134.578,45.6406 C134.578,45.6406 146.609,36.8906 146.609,36.8906 C146.609,36.8906 138.828,24.8906 138.828,24.8906 C138.828,24.8906 105.078,21.7031 105.078,21.7031 Z" style="stroke:none;fill-rule:evenodd;fill:#fde4d6;fill-opacity:1;"/>
        </g>
    </g>
    <g id="Layer4" name="Layer 1" opacity="1">
        <g id="Shape10">
            <desc shapeID="10" type="0" basicInfo-basicType="0" basicInfo-roundedRectRadius="12" basicInfo-polygonSides="6" basicInfo-starPoints="5" bounding="rect(-81.628,-63.2249,163.256,126.45)" text="" font-familyName="" font-pixelSize="20" font-bold="0" font-underline="0" font-alignment="1" strokeStyle="0" markerStart="0" markerEnd="0" shadowEnabled="0" shadowOffsetX="0" shadowOffsetY="2" shadowBlur="4" shadowOpacity="160" blurEnabled="0" blurRadius="4" transform="matrix(0.513428,0,0,0.513428,55.8723,39.342)" pers-center="0,0" pers-size="0,0" pers-start="0,0" pers-end="0,0" locked="0" mesh="" flag=""/>
            <path id="shapePath10" d="M72.4191,8.66118 L70.1086,10.8176 L63.5368,11.2797 C56.6055,11.7931 54.3977,12.1011 49.0067,13.4874 C47.1584,14.0008 44.7966,14.6169 43.7184,14.8737 C40.9973,15.5411 32.9364,19.6485 29.1371,22.267 C27.4427,23.4993 25.7998,24.2694 25.5431,24.064 C25.0296,23.5506 17.7903,20.9835 16.8148,20.9835 C15.7366,20.9835 16.0446,22.8318 17.6876,26.1177 C19.1252,28.9416 20.0494,29.7631 20.9222,28.8903 C21.0762,28.6849 20.6655,27.4527 19.9467,26.0664 C19.2792,24.6801 18.7658,23.5506 18.9198,23.5506 C19.0225,23.5506 20.0494,23.8587 21.1789,24.2694 C25.4917,25.8097 26.2105,25.707 30.1126,23.1912 C39.1489,17.3381 49.7769,14.1035 62.6126,13.282 L70.2113,12.8199 L72.4191,10.6636 C74.7808,8.35312 74.7295,8.30178 75.4483,12.4092 C75.705,14.1549 76.0644,14.4629 79.1963,16.0545 C83.0984,18.0056 90.6458,23.5506 91.7753,25.2449 C92.1861,25.861 93.1616,28.1201 93.9831,30.2252 C95.2153,33.6138 95.4207,34.7947 95.4207,39.9803 C95.472,44.3958 95.2153,46.6035 94.5478,48.7086 C93.3669,52.1485 90.2864,56.3587 87.3598,58.4637 C86.1789,59.3365 83.9712,60.9795 82.4309,62.1091 C80.8906,63.1872 78.3235,64.5222 76.7832,64.9842 C75.1916,65.4463 72.1624,66.3705 70.0573,67.038 C64.615,68.835 54.7058,69.9132 47.2097,69.6051 C36.1197,69.0917 31.4475,67.7054 23.0786,62.3144 C17.893,58.9771 16.1987,55.8966 15.7879,49.1193 C15.4285,43.1636 16.25,38.0293 18.2524,33.8192 C19.69,30.7386 19.844,29.7631 18.8172,30.4305 C17.893,30.9953 15.1205,37.2591 14.607,39.9803 C13.6315,44.9092 13.7856,52.2512 14.9151,55.3831 C17.3282,62.2631 27.3401,69.0403 37.7113,70.8373 C49.7255,72.9424 63.126,71.6075 77.502,66.8326 C80.9933,65.703 88.1813,60.8768 91.4673,57.4882 C96.0881,52.7647 97.7824,47.9898 97.7824,39.5182 C97.7824,31.0466 95.2666,24.8855 90.0297,20.5727 C85.8195,17.0814 81.5581,14.3089 79.3503,13.4874 C77.8614,12.974 77.502,12.5632 76.9886,10.4582 C76.6292,9.17461 76.0131,7.68567 75.551,7.27493 C74.8835,6.55613 74.5241,6.71016 72.4191,8.66118 Z" style="stroke:none;fill-rule:nonzero;fill:#573736;fill-opacity:1;"/>
        </g>
        <g id="Shape11">
            <desc shapeID="11" type="0" basicInfo-basicType="0" basicInfo-roundedRectRadius="12" basicInfo-polygonSides="6" basicInfo-starPoints="5" bounding="rect(-2.47666,-5.8411,4.95332,11.6822)" text="" font-familyName="" font-pixelSize="20" font-bold="0" font-underline="0" font-alignment="1" strokeStyle="0" markerStart="0" markerEnd="0" shadowEnabled="0" shadowOffsetX="0" shadowOffsetY="2" shadowBlur="4" shadowOpacity="160" blurEnabled="0" blurRadius="4" transform="matrix(0.513428,0,0,0.513428,54.8992,17.9845)" pers-center="0,0" pers-size="0,0" pers-start="0,0" pers-end="0,0" locked="0" mesh="" flag=""/>
            <path id="shapePath11" d="M53.6276,15.4898 C53.6276,16.722 55.2706,20.9835 55.7326,20.9835 C56.4001,20.9835 56.2974,19.1351 55.4759,17.1841 C54.7058,15.3357 53.6276,14.3089 53.6276,15.4898 Z" style="stroke:none;fill-rule:nonzero;fill:#573736;fill-opacity:1;"/>
        </g>
        <g id="Shape12">
            <desc shapeID="12" type="0" basicInfo-basicType="0" basicInfo-roundedRectRadius="12" basicInfo-polygonSides="6" basicInfo-starPoints="5" bounding="rect(-2.72605,-3.63722,5.45209,7.27443)" text="" font-familyName="" font-pixelSize="20" font-bold="0" font-underline="0" font-alignment="1" strokeStyle="0" markerStart="0" markerEnd="0" shadowEnabled="0" shadowOffsetX="0" shadowOffsetY="2" shadowBlur="4" shadowOpacity="160" blurEnabled="0" blurRadius="4" transform="matrix(0.513428,0,0,0.513428,50.6716,19.116)" pers-center="0,0" pers-size="0,0" pers-start="0,0" pers-end="0,0" locked="0" mesh="" flag=""/>
            <path id="shapePath12" d="M49.3148,17.3381 C48.9554,17.9029 50.9578,20.9835 51.6765,20.9835 C52.3953,20.9835 52.1386,20.2133 50.8551,18.4677 C50.1363,17.5435 49.4688,17.0301 49.3148,17.3381 Z" style="stroke:none;fill-rule:nonzero;fill:#573736;fill-opacity:1;"/>
        </g>
        <g id="Shape13">
            <desc shapeID="13" type="0" basicInfo-basicType="0" basicInfo-roundedRectRadius="12" basicInfo-polygonSides="6" basicInfo-starPoints="5" bounding="rect(-3.48755,-4.96492,6.9751,9.92985)" text="" font-familyName="" font-pixelSize="20" font-bold="0" font-underline="0" font-alignment="1" strokeStyle="0" markerStart="0" markerEnd="0" shadowEnabled="0" shadowOffsetX="0" shadowOffsetY="2" shadowBlur="4" shadowOpacity="160" blurEnabled="0" blurRadius="4" transform="matrix(0.513428,0,0,0.513428,47.2033,19.9746)" pers-center="0,0" pers-size="0,0" pers-start="0,0" pers-end="0,0" locked="0" mesh="" flag=""/>
            <path id="shapePath13" d="M45.4127,17.8515 C45.4127,18.7244 47.9285,22.5237 48.4933,22.5237 C49.3661,22.5237 49.0581,21.2402 47.8772,19.4432 C46.645,17.6462 45.4127,16.876 45.4127,17.8515 Z" style="stroke:none;fill-rule:nonzero;fill:#573736;fill-opacity:1;"/>
        </g>
        <g id="Shape14">
            <desc shapeID="14" type="0" basicInfo-basicType="0" basicInfo-roundedRectRadius="12" basicInfo-polygonSides="6" basicInfo-starPoints="5" bounding="rect(-104.205,-70.0466,208.41,140.093)" text="" font-familyName="" font-pixelSize="20" font-bold="0" font-underline="0" font-alignment="1" strokeStyle="0" markerStart="0" markerEnd="0" shadowEnabled="0" shadowOffsetX="0" shadowOffsetY="2" shadowBlur="4" shadowOpacity="160" blurEnabled="0" blurRadius="4" transform="matrix(0.513428,0,0,0.513428,93.901,56.7677)" pers-center="0,0" pers-size="0,0" pers-start="0,0" pers-end="0,0" locked="0" mesh="" flag=""/>
            <path id="shapePath14" d="M105.638,20.8808 C104.149,21.0861 103.584,23.0372 103.122,29.9684 C102.557,37.9779 102.557,40.1343 103.225,40.3397 C104.2,40.6478 104.406,39.3642 104.765,30.6359 C104.97,26.0151 105.176,22.2157 105.227,22.113 C105.278,22.0617 106.408,22.2157 107.692,22.5237 C109.026,22.7805 112.929,23.2425 116.369,23.5506 C119.86,23.8073 126.226,24.4748 130.59,24.9369 L138.497,25.861 L141.527,30.4305 C143.169,32.9463 144.915,35.3081 145.429,35.7188 C146.25,36.335 146.147,36.5403 144.556,37.8239 C142.913,39.1588 140.448,40.9558 136.187,43.9337 C134.801,44.8579 134.03,45.1146 133.62,44.7552 C133.26,44.4471 130.847,44.0877 128.28,43.9337 C123.659,43.6256 120.219,43.1636 111.645,41.726 C109.232,41.3152 106.408,41.0072 105.381,41.0072 C103.276,41.0072 102.249,41.9313 103.892,42.3934 C105.176,42.7015 105.176,42.7015 102.044,52.3539 L99.7848,59.3879 L97.115,59.1825 C93.521,58.8745 89.8243,59.5419 89.8243,60.5174 C89.8243,61.1335 90.6458,61.2362 94.5992,61.0822 C97.1663,61.0309 99.3227,61.1335 99.3227,61.3389 C99.3227,62.2631 98.5012,62.8279 97.0123,62.9819 C96.1908,63.0846 94.9585,63.4953 94.3424,63.8547 C92.9562,64.7789 82.8416,67.2947 75.705,68.4756 C69.0818,69.6051 67.6442,70.5293 73.1892,70.1185 C77.8614,69.7078 88.3353,67.8081 90.6971,66.9353 C91.2619,66.7299 91.4159,67.3974 91.5186,70.2726 C91.6213,74.1746 92.4428,76.7418 94.1884,78.4874 L95.2666,79.5656 L92.3914,80.8492 C90.8511,81.568 86.8464,82.8515 83.5091,83.673 C78.1694,85.0593 76.9886,85.162 72.6244,84.9053 C57.4783,83.8784 48.4419,81.722 43.359,77.8713 C41.9214,76.7931 40.5865,75.9716 40.4325,76.0743 C40.0217,76.5364 43.513,80.079 45.6181,81.2599 C51.4712,84.6485 62.0991,86.7536 73.908,86.9076 L80.0691,86.959 L80.1205,88.4993 C80.1718,90.9637 80.8393,92.9661 81.5067,92.7094 C82.1742,92.504 82.1742,91.6825 81.6094,88.4479 L81.25,86.3942 L85.8195,85.2133 C89.9783,84.1351 96.2935,81.2086 97.0123,80.0277 C97.1663,79.7196 97.9364,79.5143 98.7066,79.5143 C100.504,79.5143 103.225,77.82 103.687,76.485 C103.841,75.8689 104.457,75.4068 104.97,75.4068 C106.254,75.4068 107.486,72.9937 107.897,69.7591 C108.154,67.6541 107.948,66.8839 106.819,64.9329 C106.049,63.6493 105.073,62.5711 104.662,62.5711 C103.79,62.5711 103.944,61.1849 105.227,57.1801 C105.587,56.0506 106.613,52.4566 107.538,49.1707 L109.181,43.1636 L111.286,43.677 C115.906,44.7038 134.698,46.7062 135.519,46.2441 C138.087,44.8065 145.326,39.6722 146.353,38.5427 C147.585,37.1564 147.79,35.5135 146.661,35.7702 C146.301,35.8215 146.045,35.4621 146.045,34.8974 C146.045,34.3839 144.504,31.6114 142.656,28.7876 L139.319,23.6019 L136.392,23.2939 C134.801,23.1399 131.515,22.7805 129.102,22.5237 C126.688,22.2157 120.887,21.8049 116.163,21.5482 C111.44,21.2915 107.384,20.9835 107.178,20.8808 C106.921,20.7781 106.254,20.7781 105.638,20.8808 M107.384,42.9582 C108,43.3689 107.794,44.2931 103.944,56.6667 C103.173,59.1825 102.352,62.0577 102.147,62.9305 C101.787,64.6762 101.53,64.8816 100.504,64.2141 C100.093,63.9574 100.35,62.4171 101.633,58.5664 C102.557,55.6912 103.995,50.865 104.765,47.9384 C105.587,44.9605 106.357,42.5474 106.511,42.5474 C106.665,42.5474 107.024,42.7528 107.384,42.9582 M105.484,65.703 C105.484,65.9084 104.919,66.1651 104.2,66.2678 C102.865,66.5245 102.711,66.2165 103.276,64.1628 L103.584,62.9305 L104.508,64.1628 C105.022,64.8302 105.484,65.549 105.484,65.703 M99.6821,65.7544 C101.376,66.9353 101.993,67.9108 100.76,67.4487 C100.401,67.2947 99.7334,67.4487 99.3227,67.7054 C98.6552,68.1675 98.6552,68.2702 99.3227,68.7323 C99.7334,68.989 100.504,69.2457 100.966,69.2457 C101.428,69.2457 101.993,69.4511 102.147,69.7591 C102.352,70.0672 101.89,70.2726 101.171,70.2726 C100.35,70.2726 99.8361,70.5806 99.8361,71.0427 C99.8361,71.5048 100.298,71.8128 101.12,71.8128 C102.044,71.8128 102.403,72.0696 102.403,72.8397 C102.403,73.5072 102.044,73.8666 101.376,73.8666 C100.812,73.8666 100.35,74.0719 100.35,74.38 C100.35,74.6367 100.863,74.8934 101.53,74.8934 C102.609,74.9448 102.609,74.9448 101.222,76.177 C98.7066,78.3847 95.3179,77.6659 94.2398,74.688 C93.6236,73.0451 93.1102,66.4732 93.521,65.8571 C94.5992,64.3168 97.4743,64.3168 99.6821,65.7544 M106.305,69.3484 C106.1,70.4779 105.638,72.0182 105.227,72.7884 L104.508,74.1233 L104.457,72.4803 C104.457,71.6075 104.303,70.5293 104.149,70.0672 C103.944,69.4511 104.149,69.2457 104.919,69.2457 C105.535,69.2457 105.997,68.989 105.997,68.7323 C105.997,68.4242 105.381,68.2188 104.611,68.2188 L103.173,68.1675 L104.457,67.5001 C106.203,66.5245 106.665,66.9866 106.305,69.3484 Z" style="stroke:none;fill-rule:nonzero;fill:#573736;fill-opacity:1;"/>
        </g>
        <g id="Shape15">
            <desc shapeID="15" type="0" basicInfo-basicType="0" basicInfo-roundedRectRadius="12" basicInfo-polygonSides="6" basicInfo-starPoints="5" bounding="rect(-6,-11.4814,12,22.9629)" text="" font-familyName="" font-pixelSize="20" font-bold="0" font-underline="0" font-alignment="1" strokeStyle="0" markerStart="0" markerEnd="0" shadowEnabled="0" shadowOffsetX="0" shadowOffsetY="2" shadowBlur="4" shadowOpacity="160" blurEnabled="0" blurRadius="4" transform="matrix(0.513428,0,0,0.513428,112.672,32.635)" pers-center="0,0" pers-size="0,0" pers-start="0,0" pers-end="0,0" locked="0" mesh="" flag=""/>
            <path id="shapePath15" d="M111.44,27.1959 C110.926,28.6335 109.591,36.0269 109.591,37.2078 C109.591,37.8752 109.745,38.44 110.002,38.4914 C110.669,38.5427 114.469,38.5427 115.136,38.4914 C115.444,38.4914 115.752,37.9779 115.752,37.4645 C115.752,36.4376 114.828,35.8729 113.134,35.8729 C112.004,35.8729 112.004,35.7188 112.723,31.3034 C113.134,28.5309 113.134,27.8634 112.466,27.2473 C111.799,26.5798 111.645,26.5798 111.44,27.1959 Z" style="stroke:none;fill-rule:nonzero;fill:#573736;fill-opacity:1;"/>
        </g>
        <g id="Shape16">
            <desc shapeID="16" type="0" basicInfo-basicType="0" basicInfo-roundedRectRadius="12" basicInfo-polygonSides="6" basicInfo-starPoints="5" bounding="rect(-5.85551,-11.8157,11.711,23.6313)" text="" font-familyName="" font-pixelSize="20" font-bold="0" font-underline="0" font-alignment="1" strokeStyle="0" markerStart="0" markerEnd="0" shadowEnabled="0" shadowOffsetX="0" shadowOffsetY="2" shadowBlur="4" shadowOpacity="160" blurEnabled="0" blurRadius="4" transform="matrix(0.513428,0,0,0.513428,119.395,33.7691)" pers-center="0,0" pers-size="0,0" pers-start="0,0" pers-end="0,0" locked="0" mesh="" flag=""/>
            <path id="shapePath16" d="M119.346,28.0174 C118.936,28.1201 118.217,28.3768 117.806,28.4795 C117.19,28.6849 117.293,28.9416 118.166,29.6091 C119.295,30.4305 119.295,30.6359 118.73,33.9218 C118.32,36.5917 117.96,37.4645 117.19,37.7212 C115.701,38.1833 116.369,39.1588 118.525,39.6209 C120.938,40.237 122.016,39.4669 120.784,38.0806 C120.117,37.3105 120.065,36.5917 120.425,33.8192 C120.733,31.8168 121.195,30.3279 121.657,30.0711 C122.684,29.5064 122.632,28.3768 121.605,27.9661 C120.733,27.6067 120.476,27.6067 119.346,28.0174 Z" style="stroke:none;fill-rule:nonzero;fill:#573736;fill-opacity:1;"/>
        </g>
        <g id="Shape17">
            <desc shapeID="17" type="0" basicInfo-basicType="0" basicInfo-roundedRectRadius="12" basicInfo-polygonSides="6" basicInfo-starPoints="5" bounding="rect(-10.0748,-11.5122,20.1495,23.0245)" text="" font-familyName="" font-pixelSize="20" font-bold="0" font-underline="0" font-alignment="1" strokeStyle="0" markerStart="0" markerEnd="0" shadowEnabled="0" shadowOffsetX="0" shadowOffsetY="2" shadowBlur="4" shadowOpacity="160" blurEnabled="0" blurRadius="4" transform="matrix(0.513428,0,0,0.513428,127.424,33.4925)" pers-center="0,0" pers-size="0,0" pers-start="0,0" pers-end="0,0" locked="0" mesh="" flag=""/>
            <path id="shapePath17" d="M124.789,28.0688 C124.121,29.147 122.016,38.132 122.273,38.7994 C122.838,40.1857 123.711,39.1075 124.429,36.1809 L125.148,33.2031 L126.74,36.1809 C129.256,41.0072 130.642,40.4424 131.566,34.2812 C131.874,32.4842 132.233,30.4819 132.439,29.8144 C132.747,28.8903 132.644,28.6849 131.771,28.6849 C130.745,28.6849 129.512,31.098 128.948,34.0759 C128.845,34.7433 128.434,33.9732 127.818,32.0222 C126.586,28.0174 125.61,26.7852 124.789,28.0688 Z" style="stroke:none;fill-rule:nonzero;fill:#573736;fill-opacity:1;"/>
        </g>
        <g id="Shape18">
            <desc shapeID="18" type="0" basicInfo-basicType="0" basicInfo-roundedRectRadius="12" basicInfo-polygonSides="6" basicInfo-starPoints="5" bounding="rect(-5.26558,-3.3922,10.5312,6.78439)" text="" font-familyName="" font-pixelSize="20" font-bold="0" font-underline="0" font-alignment="1" strokeStyle="0" markerStart="0" markerEnd="0" shadowEnabled="0" shadowOffsetX="0" shadowOffsetY="2" shadowBlur="4" shadowOpacity="160" blurEnabled="0" blurRadius="4" transform="matrix(0.513428,0,0,0.513428,89.9446,30.0127)" pers-center="0,0" pers-size="0,0" pers-start="0,0" pers-end="0,0" locked="0" mesh="" flag=""/>
            <path id="shapePath18" d="M89.4135,29.5064 C88.0786,30.2252 87.1031,30.9953 87.2571,31.252 C88.13,32.6383 92.6481,30.8926 92.6481,29.1983 C92.6481,27.9147 92.4428,27.9147 89.4135,29.5064 Z" style="stroke:none;fill-rule:nonzero;fill:#573736;fill-opacity:1;"/>
        </g>
        <g id="Shape19">
            <desc shapeID="19" type="0" basicInfo-basicType="0" basicInfo-roundedRectRadius="12" basicInfo-polygonSides="6" basicInfo-starPoints="5" bounding="rect(-4.71252,-3.21939,9.42503,6.43877)" text="" font-familyName="" font-pixelSize="20" font-bold="0" font-underline="0" font-alignment="1" strokeStyle="0" markerStart="0" markerEnd="0" shadowEnabled="0" shadowOffsetX="0" shadowOffsetY="2" shadowBlur="4" shadowOpacity="160" blurEnabled="0" blurRadius="4" transform="matrix(0.513428,0,0,0.513428,64.7118,30.5311)" pers-center="0,0" pers-size="0,0" pers-start="0,0" pers-end="0,0" locked="0" mesh="" flag=""/>
            <path id="shapePath19" d="M64.2042,29.8658 C62.2018,30.9953 61.7398,31.9195 62.972,32.1762 C63.8448,32.3302 67.1821,30.1738 67.1308,29.455 C67.0281,28.5822 66.2579,28.6849 64.2042,29.8658 Z" style="stroke:none;fill-rule:nonzero;fill:#573736;fill-opacity:1;"/>
        </g>
        <g id="Shape20">
            <desc shapeID="20" type="0" basicInfo-basicType="0" basicInfo-roundedRectRadius="12" basicInfo-polygonSides="6" basicInfo-starPoints="5" bounding="rect(-6.483,-11.3292,12.966,22.6585)" text="" font-familyName="" font-pixelSize="20" font-bold="0" font-underline="0" font-alignment="1" strokeStyle="0" markerStart="0" markerEnd="0" shadowEnabled="0" shadowOffsetX="0" shadowOffsetY="2" shadowBlur="4" shadowOpacity="160" blurEnabled="0" blurRadius="4" transform="matrix(0.513428,0,0,0.513428,137.564,35.1195)" pers-center="0,0" pers-size="0,0" pers-start="0,0" pers-end="0,0" locked="0" mesh="" flag=""/>
            <path id="shapePath20" d="M135.571,29.7631 C135.006,31.6114 134.236,36.797 134.236,38.7994 C134.236,40.6991 134.39,41.0585 135.16,40.9045 C135.673,40.8018 136.084,40.1857 136.187,39.3128 C136.392,37.6699 136.854,37.5672 138.087,38.9534 C138.6,39.5182 139.421,39.9803 139.986,39.9803 C141.424,39.9803 141.116,38.3373 139.319,36.8997 L137.778,35.5648 L138.805,34.2299 C140.551,32.0222 139.781,30.7386 137.83,32.5356 C137.06,33.2544 136.957,33.1517 136.957,31.7654 C136.957,29.9685 135.981,28.5309 135.571,29.7631 Z" style="stroke:none;fill-rule:nonzero;fill:#573736;fill-opacity:1;"/>
        </g>
        <g id="Shape21">
            <desc shapeID="21" type="0" basicInfo-basicType="0" basicInfo-roundedRectRadius="12" basicInfo-polygonSides="6" basicInfo-starPoints="5" bounding="rect(-4.09561,-2.42021,8.19122,4.84041)" text="" font-familyName="" font-pixelSize="20" font-bold="0" font-underline="0" font-alignment="1" strokeStyle="0" markerStart="0" markerEnd="0" shadowEnabled="0" shadowOffsetX="0" shadowOffsetY="2" shadowBlur="4" shadowOpacity="160" blurEnabled="0" blurRadius="4" transform="matrix(0.513428,0,0,0.513428,90.5453,33.6034)" pers-center="0,0" pers-size="0,0" pers-start="0,0" pers-end="0,0" locked="0" mesh="" flag=""/>
            <path id="shapePath21" d="M90.235,32.8437 C88.7461,33.2544 87.7706,34.846 89.0028,34.846 C90.235,34.846 92.6481,33.6138 92.6481,32.9977 C92.6481,32.1762 92.5455,32.1762 90.235,32.8437 Z" style="stroke:none;fill-rule:nonzero;fill:#573736;fill-opacity:1;"/>
        </g>
        <g id="Shape22">
            <desc shapeID="22" type="0" basicInfo-basicType="0" basicInfo-roundedRectRadius="12" basicInfo-polygonSides="6" basicInfo-starPoints="5" bounding="rect(-10.269,-19.0337,20.5381,38.0675)" text="" font-familyName="" font-pixelSize="20" font-bold="0" font-underline="0" font-alignment="1" strokeStyle="0" markerStart="0" markerEnd="0" shadowEnabled="0" shadowOffsetX="0" shadowOffsetY="2" shadowBlur="4" shadowOpacity="160" blurEnabled="0" blurRadius="4" transform="matrix(0.513428,0,0,0.513428,61.9806,42.6107)" pers-center="0,0" pers-size="0,0" pers-start="0,0" pers-end="0,0" locked="0" mesh="" flag=""/>
            <path id="shapePath22" d="M58.1458,33.3571 C57.0676,33.9732 56.9135,34.846 57.9404,34.846 C58.3511,34.846 58.9159,35.5135 59.1726,36.335 C59.686,37.7212 59.5834,37.8239 58.1971,38.132 L56.7082,38.3887 L56.7082,43.7283 C56.7082,48.6059 56.8108,49.1193 57.889,50.0948 C60.6102,52.6106 64.615,53.1241 66.4633,51.2757 C67.7469,49.9921 67.3875,48.9653 65.9499,49.7354 C63.6908,50.9677 58.8132,49.8381 58.0431,47.9384 C57.889,47.4763 57.735,45.5253 57.735,43.5743 L57.735,40.1343 L59.8401,39.7749 C62.6126,39.3128 65.4364,38.132 65.4364,37.3618 C65.4364,36.9511 64.769,36.8997 63.1773,37.1051 C61.021,37.4645 60.9183,37.4132 60.4048,35.8729 C60.0454,34.9487 60.0454,34.3326 60.3535,34.3326 C60.6102,34.3326 60.8156,33.9732 60.8156,33.5624 C60.8156,32.6896 59.4293,32.5869 58.1458,33.3571 Z" style="stroke:none;fill-rule:nonzero;fill:#573736;fill-opacity:1;"/>
        </g>
        <g id="Shape23">
            <desc shapeID="23" type="0" basicInfo-basicType="0" basicInfo-roundedRectRadius="12" basicInfo-polygonSides="6" basicInfo-starPoints="5" bounding="rect(-4.50261,-2.64389,9.00522,5.28778)" text="" font-familyName="" font-pixelSize="20" font-bold="0" font-underline="0" font-alignment="1" strokeStyle="0" markerStart="0" markerEnd="0" shadowEnabled="0" shadowOffsetX="0" shadowOffsetY="2" shadowBlur="4" shadowOpacity="160" blurEnabled="0" blurRadius="4" transform="matrix(0.513428,0,0,0.513428,51.8292,35.0289)" pers-center="0,0" pers-size="0,0" pers-start="0,0" pers-end="0,0" locked="0" mesh="" flag=""/>
            <path id="shapePath23" d="M51.4712,34.2812 C49.5201,35.1027 48.8527,36.3863 50.2903,36.3863 C51.4198,36.3863 54.141,34.9487 54.141,34.3326 C54.141,33.4598 53.3709,33.4598 51.4712,34.2812 Z" style="stroke:none;fill-rule:nonzero;fill:#573736;fill-opacity:1;"/>
        </g>
        <g id="Shape24">
            <desc shapeID="24" type="0" basicInfo-basicType="0" basicInfo-roundedRectRadius="12" basicInfo-polygonSides="6" basicInfo-starPoints="5" bounding="rect(-4.78808,-2.08856,9.57615,4.17713)" text="" font-familyName="" font-pixelSize="20" font-bold="0" font-underline="0" font-alignment="1" strokeStyle="0" markerStart="0" markerEnd="0" shadowEnabled="0" shadowOffsetX="0" shadowOffsetY="2" shadowBlur="4" shadowOpacity="160" blurEnabled="0" blurRadius="4" transform="matrix(0.513428,0,0,0.513428,91.7301,36.5104)" pers-center="0,0" pers-size="0,0" pers-start="0,0" pers-end="0,0" locked="0" mesh="" flag=""/>
            <path id="shapePath24" d="M90.6971,36.0269 C88.6434,36.6944 88.8488,37.7212 91.0565,37.5672 C92.6995,37.5158 94.1884,36.643 94.1884,35.8215 C94.1884,35.2568 92.8535,35.3081 90.6971,36.0269 Z" style="stroke:none;fill-rule:nonzero;fill:#573736;fill-opacity:1;"/>
        </g>
        <g id="Shape25">
            <desc shapeID="25" type="0" basicInfo-basicType="0" basicInfo-roundedRectRadius="12" basicInfo-polygonSides="6" basicInfo-starPoints="5" bounding="rect(-4.62804,-2.36731,9.25609,4.73463)" text="" font-familyName="" font-pixelSize="20" font-bold="0" font-underline="0" font-alignment="1" strokeStyle="0" markerStart="0" markerEnd="0" shadowEnabled="0" shadowOffsetX="0" shadowOffsetY="2" shadowBlur="4" shadowOpacity="160" blurEnabled="0" blurRadius="4" transform="matrix(0.513428,0,0,0.513428,24.9905,49.4155)" pers-center="0,0" pers-size="0,0" pers-start="0,0" pers-end="0,0" locked="0" mesh="" flag=""/>
            <path id="shapePath25" d="M24.4135,48.8113 C22.9246,49.4787 22.3598,49.9922 22.7192,50.3516 C23.3867,51.019 26.1592,50.4029 26.9806,49.4274 C28.0589,48.0925 26.7753,47.7844 24.4135,48.8113 Z" style="stroke:none;fill-rule:nonzero;fill:#573736;fill-opacity:1;"/>
        </g>
        <g id="Shape26">
            <desc shapeID="26" type="0" basicInfo-basicType="0" basicInfo-roundedRectRadius="12" basicInfo-polygonSides="6" basicInfo-starPoints="5" bounding="rect(-4.84262,-2.11222,9.68524,4.22444)" text="" font-familyName="" font-pixelSize="20" font-bold="0" font-underline="0" font-alignment="1" strokeStyle="0" markerStart="0" markerEnd="0" shadowEnabled="0" shadowOffsetX="0" shadowOffsetY="2" shadowBlur="4" shadowOpacity="160" blurEnabled="0" blurRadius="4" transform="matrix(0.513428,0,0,0.513428,25.8165,52.4023)" pers-center="0,0" pers-size="0,0" pers-start="0,0" pers-end="0,0" locked="0" mesh="" flag=""/>
            <path id="shapePath26" d="M25.1323,51.8918 C23.1299,52.6106 22.9759,52.7647 23.7974,53.3294 C24.6189,53.8429 27.1347,53.0214 28.0075,51.9945 C28.4696,51.4298 28.4182,51.2757 27.6481,51.3271 C27.0833,51.3271 26.0051,51.5838 25.1323,51.8918 Z" style="stroke:none;fill-rule:nonzero;fill:#573736;fill-opacity:1;"/>
        </g>
        <g id="Shape27">
            <desc shapeID="27" type="0" basicInfo-basicType="0" basicInfo-roundedRectRadius="12" basicInfo-polygonSides="6" basicInfo-starPoints="5" bounding="rect(-4.21608,-2.13085,8.43216,4.2617)" text="" font-familyName="" font-pixelSize="20" font-bold="0" font-underline="0" font-alignment="1" strokeStyle="0" markerStart="0" markerEnd="0" shadowEnabled="0" shadowOffsetX="0" shadowOffsetY="2" shadowBlur="4" shadowOpacity="160" blurEnabled="0" blurRadius="4" transform="matrix(0.513428,0,0,0.513428,26.6538,55.8294)" pers-center="0,0" pers-size="0,0" pers-start="0,0" pers-end="0,0" locked="0" mesh="" flag=""/>
            <path id="shapePath27" d="M26.4159,55.1264 C24.3108,55.8966 23.7974,56.9234 25.543,56.9234 C26.9293,56.9234 29.4451,55.1778 28.675,54.767 C28.4182,54.6643 27.3914,54.8184 26.4159,55.1264 Z" style="stroke:none;fill-rule:nonzero;fill:#573736;fill-opacity:1;"/>
        </g>
        <g id="Shape28">
            <desc shapeID="28" type="0" basicInfo-basicType="0" basicInfo-roundedRectRadius="12" basicInfo-polygonSides="6" basicInfo-starPoints="5" bounding="rect(-2.53718,-23.2494,5.07436,46.4987)" text="" font-familyName="" font-pixelSize="20" font-bold="0" font-underline="0" font-alignment="1" strokeStyle="0" markerStart="0" markerEnd="0" shadowEnabled="0" shadowOffsetX="0" shadowOffsetY="2" shadowBlur="4" shadowOpacity="160" blurEnabled="0" blurRadius="4" transform="matrix(0.513428,0,0,0.513428,29.3105,81.1826)" pers-center="0,0" pers-size="0,0" pers-start="0,0" pers-end="0,0" locked="0" mesh="" flag=""/>
            <path id="shapePath28" d="M28.7776,70.8887 C28.6236,71.8129 28.3669,76.7418 28.1615,81.876 C27.9048,88.7046 27.9562,91.4258 28.4183,92.2986 C28.9317,93.2228 29.1884,93.3255 29.8045,92.8121 C30.8827,91.9392 30.8827,69.2457 29.8045,69.2457 C29.3938,69.2457 28.983,69.9645 28.7776,70.8887 Z" style="stroke:none;fill-rule:nonzero;fill:#573736;fill-opacity:1;"/>
        </g>
    </g>
</svg>
