<?xml version="1.0"?>
<svg version="1.1" xmlns="http://www.w3.org/2000/svg" xmlns:xlink="http://www.w3.org/1999/xlink" width="160" height="25">
    <desc iVinci="yes" version="4.6" gridStep="20" showGrid="no" snapToGrid="no" codePlatform="0"/>
    <g id="Layer1" name="Layer 1" opacity="1">
        <g id="Shape1">
            <desc shapeID="1" type="0" basicInfo-basicType="0" basicInfo-roundedRectRadius="12" basicInfo-polygonSides="6" basicInfo-starPoints="5" bounding="rect(-1140.26,-111.594,2280.53,223.187)" text="LAZYPIC" font-familyName="Avenir" font-pixelSize="300" font-bold="0" font-underline="0" font-alignment="1" strokeStyle="0" markerStart="0" markerEnd="0" shadowEnabled="0" shadowOffsetX="0" shadowOffsetY="2" shadowBlur="4" shadowOpacity="160" blurEnabled="0" blurRadius="4" transform="matrix(0.0659266,0,0,0.0659268,80.5293,13.41)" pers-center="0,0" pers-size="0,0" pers-start="0,0" pers-end="0,0" locked="0" mesh="" flag=""/>
            <path id="shapePath1" d="M6.77995,19.105 L13.3065,19.105 L13.3065,20.411 L5.35585,20.411 L5.35585,6.40795 L6.77995,6.40795 L6.77995,19.105 M29.4284,15.4269 L35.5003,15.4269 L32.4741,8.06894 L29.4284,15.4269 M27.3518,20.411 L25.6904,20.411 L31.782,6.40795 L33.1664,6.40795 L39.2581,20.411 L37.5968,20.411 L36.054,16.732 L28.8944,16.732 L27.3518,20.411 M62.2421,7.59495 L54.0738,19.105 L62.3608,19.105 L62.3608,20.411 L52.2741,20.411 L52.2741,19.2239 L60.4621,7.71294 L52.3927,7.71294 L52.3927,6.40795 L62.2421,6.40795 L62.2421,7.59495 M82.2201,20.411 L80.7958,20.411 L80.7958,14.3789 L75.5549,6.40795 L77.335,6.40795 L81.5079,13.014 L85.6821,6.40795 L87.4615,6.40795 L82.2201,14.3789 L82.2201,20.411 M104.021,12.5979 L106.316,12.5979 C106.948,12.5979 107.486,12.5319 107.927,12.4009 C108.369,12.2689 108.722,12.095 108.986,11.8769 C109.249,11.66 109.44,11.4019 109.559,11.104 C109.678,10.8077 109.737,10.489 109.737,10.146 C109.737,9.81695 109.678,9.50295 109.559,9.20695 C109.44,8.90994 109.249,8.64996 108.986,8.42496 C108.722,8.20096 108.369,8.02695 107.927,7.90195 C107.486,7.77594 106.948,7.71294 106.316,7.71294 L104.021,7.71294 L104.021,12.5979 M102.598,6.40795 L106.671,6.40795 C108.096,6.40795 109.219,6.71794 110.043,7.33794 C110.867,7.95695 111.28,8.89395 111.28,10.146 C111.28,11.399 110.867,12.3379 110.043,12.9639 C109.219,13.591 108.096,13.9039 106.671,13.9039 L104.021,13.9039 L104.021,20.411 L102.598,20.411 L102.598,6.40795 M127.174,20.411 L125.75,20.411 L125.75,11.7181 L127.174,11.7181 L127.174,20.411 M155.703,18.1959 C155.466,18.5519 155.172,18.889 154.823,19.204 C154.474,19.521 154.075,19.7949 153.627,20.0259 C153.178,20.257 152.694,20.4369 152.172,20.5689 C151.652,20.701 151.101,20.7669 150.521,20.7669 C149.48,20.7669 148.514,20.5829 147.624,20.2129 C146.734,19.8429 145.962,19.333 145.31,18.681 C144.657,18.0279 144.146,17.254 143.776,16.357 C143.407,15.46 143.224,14.4769 143.224,13.4089 C143.224,12.341 143.407,11.3599 143.776,10.4629 C144.146,9.56694 144.657,8.79195 145.31,8.13896 C145.962,7.48595 146.734,6.97394 147.624,6.60595 C148.514,6.23695 149.48,6.05296 150.521,6.05296 C151.391,6.05296 152.261,6.22394 153.132,6.56595 C154.002,6.90895 154.747,7.47594 155.367,8.26695 L154.121,9.19696 C153.976,8.97194 153.778,8.74896 153.528,8.52496 C153.277,8.29994 152.991,8.10294 152.668,7.93195 C152.344,7.75996 151.999,7.62094 151.629,7.51595 C151.259,7.40995 150.89,7.35794 150.521,7.35794 C149.624,7.35794 148.821,7.52196 148.108,7.85095 C147.396,8.18095 146.793,8.62295 146.299,9.17695 C145.804,9.73096 145.425,10.373 145.162,11.104 C144.898,11.837 144.765,12.605 144.765,13.4089 C144.765,14.2139 144.898,14.982 145.162,15.714 C145.425,16.4449 145.804,17.0879 146.299,17.6419 C146.793,18.1959 147.396,18.6369 148.108,18.967 C148.821,19.2969 149.624,19.462 150.521,19.462 C150.89,19.462 151.257,19.428 151.619,19.3619 C151.982,19.2969 152.338,19.1849 152.687,19.027 C153.037,18.8689 153.366,18.654 153.676,18.3839 C153.985,18.1139 154.273,17.775 154.536,17.3659 L155.703,18.1959 Z" style="stroke:none;fill-rule:evenodd;fill:#000000;fill-opacity:1;"/>
        </g>
        <g id="Shape2">
            <desc shapeID="2" type="0" basicInfo-basicType="0" basicInfo-roundedRectRadius="12" basicInfo-polygonSides="6" basicInfo-starPoints="5" bounding="rect(-2.85645,-2.98022,5.71289,5.96045)" text="*" font-familyName="Apple Braille" font-pixelSize="13" font-bold="0" font-underline="0" font-alignment="1" strokeStyle="0" markerStart="0" markerEnd="0" shadowEnabled="0" shadowOffsetX="0" shadowOffsetY="2" shadowBlur="4" shadowOpacity="160" blurEnabled="0" blurRadius="4" transform="matrix(1,0,0,1,126.554,7.66596)" pers-center="0,0" pers-size="0,0" pers-start="0,0" pers-end="0,0" locked="0" mesh="" flag=""/>
            <path id="shapePath2" d="M125.951,10.6462 L126.084,8.44355 L124.287,9.6496 L123.697,8.62128 L125.646,7.66913 L123.697,6.70429 L124.287,5.69501 L126.084,6.89472 L125.951,4.68573 L127.144,4.68573 L126.979,6.89472 L128.813,5.69501 L129.41,6.70429 L127.455,7.66913 L129.41,8.62128 L128.813,9.6496 L126.979,8.44355 L127.144,10.6462 L125.951,10.6462 Z" style="stroke:none;fill-rule:nonzero;fill:#000000;fill-opacity:1;"/>
        </g>
    </g>
</svg>
