<?xml version="1.0"?>
<svg version="1.1" xmlns="http://www.w3.org/2000/svg" xmlns:xlink="http://www.w3.org/1999/xlink" width="500" height="100">
    <desc iVinci="yes" version="4.6" gridStep="20" showGrid="no" snapToGrid="no" codePlatform="0"/>
    <g id="Layer1" name="Layer 1" opacity="1">
        <g id="Shape1">
            <desc shapeID="1" type="0" basicInfo-basicType="0" basicInfo-roundedRectRadius="12" basicInfo-polygonSides="6" basicInfo-starPoints="5" bounding="rect(-1142.63,-111.594,2285.28,223.187)" text="LAZYPIC" font-familyName="Avenir" font-pixelSize="300" font-bold="0" font-underline="0" font-alignment="1" strokeStyle="0" markerStart="0" markerEnd="0" shadowEnabled="0" shadowOffsetX="0" shadowOffsetY="2" shadowBlur="4" shadowOpacity="160" blurEnabled="0" blurRadius="4" transform="matrix(0.205627,0,0,0.205627,249.999,62.3201)" pers-center="0,0" pers-size="0,0" pers-start="0,0" pers-end="0,0" locked="0" mesh="" flag=""/>
            <path id="shapePath1" d="M19.485,80.0828 L39.8413,80.0828 L39.8413,84.1563 L15.0432,84.1563 L15.0432,40.4806 L19.485,40.4806 L19.485,80.0828 M83.6489,84.1563 L78.467,84.1563 L97.4668,40.4806 L101.785,40.4806 L120.785,84.1563 L115.603,84.1563 L99.5824,45.8235 L83.6489,84.1563 M166.995,80.0828 L193.888,80.0828 L193.888,84.1563 L158.848,84.1563 L186.921,44.5509 L160.707,44.5509 L160.707,40.4806 L194.909,40.4806 L166.995,80.0828 M254.784,84.1563 L250.342,84.1563 L250.342,65.3423 L233.995,40.4806 L239.548,40.4806 L252.563,61.0849 L265.582,40.4806 L271.132,40.4806 L254.784,65.3423 L254.784,84.1563 M322.783,59.7873 L329.941,59.7873 C331.913,59.7873 333.591,59.5815 334.966,59.1729 C336.345,58.7612 337.446,58.2185 338.269,57.5385 C339.089,56.8617 339.685,56.057 340.056,55.1275 C340.427,54.2043 340.611,53.2093 340.611,52.1395 C340.611,51.1133 340.427,50.134 340.056,49.2107 C339.685,48.2844 339.089,47.4735 338.269,46.7717 C337.446,46.073 336.345,45.5303 334.966,45.1404 C333.591,44.7474 331.913,44.5509 329.941,44.5509 L322.783,44.5509 L322.783,59.7873 M318.345,40.4806 L331.049,40.4806 C335.493,40.4806 338.996,41.4475 341.566,43.3812 C344.136,45.312 345.424,48.2345 345.424,52.1395 C345.424,56.0476 344.136,58.9764 341.566,60.9289 C338.996,62.8845 335.493,63.8608 331.049,63.8608 L322.783,63.8608 L322.783,84.1563 L318.345,84.1563 L318.345,40.4806 M394.998,84.1563 L390.556,84.1563 L390.556,43.7044 L394.998,43.7044 L394.998,84.1563 M484.957,74.6588 C484.704,76.4523 482.324,79.4091 481.236,80.3916 C480.147,81.3803 478.903,82.2349 477.505,82.9554 C476.105,83.6759 474.595,84.2373 472.967,84.649 C471.345,85.0608 469.627,85.2666 467.818,85.2666 C464.571,85.2666 461.558,84.6927 458.782,83.5387 C456.006,82.3846 453.598,80.794 451.564,78.7604 C449.528,76.7236 447.934,74.3095 446.78,71.5117 C445.629,68.714 445.058,65.648 445.058,62.3169 C445.058,58.9858 445.629,55.926 446.78,53.1282 C447.934,50.3336 449.528,47.9163 451.564,45.8796 C453.598,43.8429 456.006,42.2459 458.782,41.0982 C461.558,39.9472 464.571,39.3734 467.818,39.3734 C470.531,39.3734 473.245,39.9067 475.961,40.9734 C478.675,42.0432 482.047,44.5509 483.98,49.1172 L479.046,49.1796 C478.594,48.4777 477.976,47.7822 477.197,47.0836 C476.414,46.3818 475.522,45.7673 474.514,45.234 C473.504,44.6975 472.428,44.2639 471.273,43.9365 C470.12,43.6058 468.969,43.4436 467.818,43.4436 C465.02,43.4436 462.515,43.9552 460.291,44.9813 C458.071,46.0106 456.19,47.3892 454.649,49.1172 C453.105,50.8451 451.923,52.8475 451.103,55.1275 C450.279,57.4138 449.865,59.8092 449.865,62.3169 C449.865,64.8277 450.279,67.2231 451.103,69.5062 C451.923,71.7862 453.105,73.7917 454.649,75.5197 C456.19,77.2476 458.071,78.6231 460.291,79.6524 C462.515,80.6816 465.02,81.1963 467.818,81.1963 C468.969,81.1963 470.113,81.0903 471.242,80.8844 C472.375,80.6816 473.485,80.3323 474.573,79.8395 C475.665,79.3467 476.691,78.6762 477.658,77.834 C478.622,76.9918 479.52,75.9345 480.34,74.6588 L484.957,74.6588 Z" style="stroke:none;fill-rule:evenodd;fill:#000000;fill-opacity:1;"/>
        </g>
        <g id="Shape2">
            <desc shapeID="2" type="0" basicInfo-basicType="0" basicInfo-roundedRectRadius="12" basicInfo-polygonSides="6" basicInfo-starPoints="5" bounding="rect(-123.074,-103.361,246.145,206.725)" text="" font-familyName="" font-pixelSize="20" font-bold="0" font-underline="0" font-alignment="1" strokeStyle="0" markerStart="0" markerEnd="0" shadowEnabled="0" shadowOffsetX="0" shadowOffsetY="2" shadowBlur="4" shadowOpacity="160" blurEnabled="0" blurRadius="4" transform="matrix(0.155485,0,0,0.155486,392.02,32.834)" pers-center="0,0" pers-size="0,0" pers-start="0,0" pers-end="0,0" locked="0" mesh="" flag=""/>
            <path id="shapePath2" d="M397.543,17.0825 C396.906,17.518 395.599,19.1039 395.273,19.8503 C395.149,20.1456 394.729,21.032 394.34,21.8249 C393.61,23.3487 393.563,23.582 393.811,24.3127 C393.951,24.717 393.905,24.9347 393.345,26.0386 C392.615,27.4846 392.288,27.6867 391.386,27.2514 C390.998,27.0804 390.764,26.785 390.485,26.1941 C390.065,25.23 389.707,24.8724 388.883,24.5926 C387.919,24.2661 387.748,24.4526 387.748,25.8986 C387.748,26.8783 387.826,27.2514 388.106,27.7955 C388.541,28.6041 388.728,29.5837 388.525,29.9724 C388.386,30.2212 388.339,30.2212 387.717,29.988 C386.986,29.7236 385.851,28.9462 385.291,28.3397 C385.089,28.1222 384.576,27.8422 384.125,27.6867 C383.674,27.5468 383.037,27.2669 382.695,27.0804 C382.353,26.8783 381.544,26.6138 380.907,26.4739 C380.269,26.334 379.119,25.9453 378.341,25.6188 C377.579,25.2767 376.662,24.9657 376.304,24.9035 C375.713,24.8102 375.636,24.8413 375.247,25.2923 C374.609,26.0541 374.547,25.9919 376.942,27.2514 C377.89,27.7335 378.87,28.2931 379.119,28.4953 C379.383,28.6819 379.803,28.884 380.067,28.9306 C380.596,29.055 382.135,30.159 382.633,30.7965 C382.804,30.9985 383.301,31.294 383.752,31.434 C384.187,31.5894 384.732,31.8693 384.949,32.0714 C385.167,32.258 385.649,32.569 386.038,32.7399 C387.468,33.393 388.899,34.4037 389.256,35.0256 C389.458,35.3522 389.614,35.7098 389.614,35.803 C389.614,36.0208 389.07,36.2695 387.872,36.565 C387.328,36.705 386.691,36.9537 386.426,37.1092 C385.789,37.4979 384.856,37.7 382.99,37.871 C382.119,37.9488 381.202,38.1198 380.938,38.2598 C380.673,38.3997 379.943,38.6173 379.321,38.7417 C378.699,38.8817 377.766,39.1927 377.253,39.4259 C376.74,39.6746 375.931,39.9857 375.449,40.1256 C374.594,40.3588 373.241,41.2917 372.93,41.8515 C372.728,42.2402 373.21,42.66 374.034,42.8466 C374.781,43.0021 376.258,42.7222 377.579,42.1624 C377.906,42.0225 378.885,41.7737 379.741,41.6027 C380.596,41.416 381.84,41.1207 382.508,40.903 C383.737,40.5298 384.561,40.4366 384.903,40.6542 C384.996,40.7165 385.12,41.0274 385.183,41.3384 C385.276,41.8515 385.214,42.0537 384.623,43.0175 C384.25,43.624 383.705,44.4481 383.425,44.8212 C383.146,45.2099 382.788,45.9408 382.633,46.4383 C382.477,46.9358 382.197,47.5423 382.011,47.7755 C381.715,48.1486 381.7,48.2419 381.886,48.5217 C382.026,48.7395 382.306,48.8639 382.679,48.895 C383.177,48.9416 383.363,48.8483 383.923,48.3353 C384.281,48.0087 384.685,47.6666 384.809,47.5889 C385.058,47.4333 385.944,46.2984 387.297,44.3859 C388.106,43.2508 388.463,42.9087 390.049,41.7582 L390.733,41.2761 L391.417,41.5404 C391.791,41.6803 392.148,41.867 392.195,41.9603 C394.628,41.5404 394.34,41.0585 396.672,42.3025 C397.232,42.52 397.761,42.7067 397.87,42.7067 C398.181,42.7067 401.244,44.2459 402.208,44.8834 C404.261,46.2517 404.307,46.2828 405.131,46.3139 C405.784,46.345 406.003,46.2828 406.266,46.0185 L406.593,45.6919 L406.189,44.9924 C405.832,44.3859 403.421,42.1158 402.021,41.0584 L401.571,40.7165 L401.975,40.25 C402.596,39.5037 403.685,39.317 405.598,39.6436 C409.251,40.2344 410.527,40.2655 410.993,39.7525 C411.226,39.4882 411.226,39.457 410.884,39.2082 C410.682,39.0683 410.153,38.6796 409.687,38.3374 C409.236,38.0109 408.785,37.7311 408.707,37.7311 C408.614,37.7311 408.054,37.4823 407.448,37.1714 C406.064,36.4716 402.363,35.6321 401.244,35.7876 L400.498,35.8808 L400.498,35.2588 C400.498,34.5592 400.762,34.3415 402.052,33.9995 C402.441,33.9062 403.235,33.5796 403.825,33.2842 C404.431,32.9887 404.991,32.7556 405.099,32.7556 C405.193,32.7556 405.628,32.5224 406.033,32.2424 C406.453,31.9626 407.152,31.5739 407.603,31.4028 C408.582,30.9985 409.951,30.1279 410.06,29.8169 C410.107,29.6924 409.998,29.4437 409.827,29.2727 C409.314,28.744 407.355,28.8372 405.552,29.4593 C404.789,29.7236 403.84,30.019 403.452,30.1123 C403.063,30.2056 402.301,30.5632 401.742,30.8897 C401.182,31.2163 400.529,31.5739 400.28,31.6672 C399.72,31.8693 398.087,32.8488 397.466,33.3464 C397.108,33.6418 396.891,33.704 396.408,33.6418 C396.066,33.5952 395.724,33.4864 395.631,33.393 C395.351,33.1131 395.304,30.9365 395.569,30.0657 C396.206,27.9355 396.517,26.5362 396.548,25.6654 C396.564,25.0279 396.719,24.3283 397.061,23.4576 C397.326,22.7579 397.543,21.9648 397.543,21.685 C397.543,21.4051 397.792,20.6743 398.087,20.0524 C398.585,19.0262 398.927,17.9377 398.943,17.3469 C398.943,17.2069 398.771,17.0205 398.554,16.9271 C398.056,16.6938 398.15,16.6783 397.543,17.0825 Z" style="stroke:none;fill-rule:evenodd;fill:#000000;fill-opacity:1;"/>
        </g>
        <g id="Shape3">
            <desc shapeID="3" type="0" basicInfo-basicType="1" basicInfo-roundedRectRadius="12" basicInfo-polygonSides="6" basicInfo-starPoints="5" bounding="rect(-4.10935,-0.655998,8.21869,1.312)" text="" font-familyName="Avenir" font-pixelSize="300" font-bold="0" font-underline="0" font-alignment="1" strokeStyle="0" markerStart="0" markerEnd="0" shadowEnabled="0" shadowOffsetX="0" shadowOffsetY="2" shadowBlur="4" shadowOpacity="160" blurEnabled="0" blurRadius="4" transform="matrix(2.76324,0,0,3.11902,99.2101,65.9256)" pers-center="0,0" pers-size="0,0" pers-start="0,0" pers-end="0,0" locked="0" mesh="" flag=""/>
            <path id="shapePath3" d="M87.8549,63.8795 L110.565,63.8795 L110.565,67.9717 L87.8549,67.9717 L87.8549,63.8795 Z" style="stroke:none;fill-rule:evenodd;fill:#000000;fill-opacity:1;"/>
        </g>
    </g>
</svg>
