<?xml version="1.0"?>
<svg version="1.1" xmlns="http://www.w3.org/2000/svg" xmlns:xlink="http://www.w3.org/1999/xlink" width="100" height="100">
    <desc iVinci="yes" version="4.6" gridStep="20" showGrid="no" snapToGrid="no" codePlatform="0"/>
    <g id="Layer1" name="Layer 7" opacity="1">
        <g id="Shape1">
            <desc shapeID="1" type="0" basicInfo-basicType="0" basicInfo-roundedRectRadius="12" basicInfo-polygonSides="6" basicInfo-starPoints="5" bounding="rect(-148.481,-89.9912,296.961,179.982)" text="" font-familyName="Helvetica" font-pixelSize="20" font-bold="0" font-underline="0" font-alignment="1" strokeStyle="0" markerStart="0" markerEnd="0" shadowEnabled="0" shadowOffsetX="0" shadowOffsetY="2" shadowBlur="4" shadowOpacity="160" blurEnabled="0" blurRadius="4" transform="matrix(0.110358,0,0,0.110358,18.8785,64.2585)" pers-center="0,0" pers-size="0,0" pers-start="0,0" pers-end="0,0" locked="0" mesh="" flag=""/>
            <path id="shapePath1" d="M3.17677,55.3332 C3.17677,55.3332 5.22387,54.3273 5.22387,54.3273 C5.22387,54.3273 7.04753,57.9292 7.04753,57.9292 C7.04753,57.9292 11.2899,61.295 11.2899,61.295 C11.2899,61.295 21.8782,64.0997 21.8782,64.0997 C21.8782,64.0997 35.2645,66.8582 35.2645,66.8582 C35.2645,66.8582 34.3045,73.142 34.3045,73.142 C34.3045,73.142 32.908,74.1897 32.908,74.1897 C32.908,74.1897 27.017,74.1897 27.017,74.1897 C27.017,74.1897 18.2021,72.5311 18.2021,72.5311 C18.2021,72.5311 14.2748,71.44 14.2748,71.44 C14.2748,71.44 8.03453,69.2584 8.03453,69.2584 C8.03453,69.2584 5.54717,66.0726 5.54717,66.0726 C5.54717,66.0726 4.67449,64.764 4.67449,64.764 C4.67449,64.764 3.36532,59.1781 3.36532,59.1781 C3.36532,59.1781 2.49258,57.3016 2.49258,57.3016 C2.49258,57.3016 3.17677,55.3332 3.17677,55.3332 Z" style="stroke:none;fill-rule:evenodd;fill:#fbbbb8;fill-opacity:1;"/>
        </g>
        <g id="Shape2">
            <desc shapeID="2" type="0" basicInfo-basicType="0" basicInfo-roundedRectRadius="12" basicInfo-polygonSides="6" basicInfo-starPoints="5" bounding="rect(-176.775,-90.9023,353.55,181.807)" text="" font-familyName="Helvetica" font-pixelSize="20" font-bold="0" font-underline="0" font-alignment="1" strokeStyle="0" markerStart="0" markerEnd="0" shadowEnabled="0" shadowOffsetX="0" shadowOffsetY="2" shadowBlur="4" shadowOpacity="160" blurEnabled="0" blurRadius="4" transform="matrix(0.110358,0,0,0.110358,76.1805,67.8477)" pers-center="0,0" pers-size="0,0" pers-start="0,0" pers-end="0,0" locked="0" mesh="" flag=""/>
            <path id="shapePath2" d="M73.0667,57.9266 C73.8587,57.5308 74.7989,58.3036 75.6424,58.5705 C78.2544,59.3968 80.8407,60.3035 83.4276,61.2045 C86.4991,62.2745 89.6674,63.1136 92.6176,64.4824 C93.7898,65.0267 95.4031,65.6162 95.6614,66.8827 C95.9166,68.1321 94.3234,69.0611 93.7885,70.2188 C92.6622,72.6567 92.5843,75.754 90.6862,77.6527 C89.8742,78.4641 88.526,76.8589 87.4079,76.5993 C84.657,75.9602 81.8048,75.759 79.096,74.9602 C77.5392,74.5008 76.2275,73.4191 74.7059,72.8528 C71.0681,71.499 67.2009,70.7668 63.6461,69.2088 C61.2188,68.1453 55.5238,67.3182 56.8771,65.0393 C58.7419,61.898 64.2199,64.0789 67.5648,62.6095 C69.7696,61.6403 70.9129,59.0036 73.0667,57.9266 Z" style="stroke:none;fill-rule:evenodd;fill:#fbbbb8;fill-opacity:1;"/>
        </g>
        <g id="Shape3">
            <desc shapeID="3" type="0" basicInfo-basicType="0" basicInfo-roundedRectRadius="12" basicInfo-polygonSides="6" basicInfo-starPoints="5" bounding="rect(-374.512,-249.634,749.022,499.268)" text="" font-familyName="Helvetica" font-pixelSize="20" font-bold="0" font-underline="0" font-alignment="1" strokeStyle="0" markerStart="0" markerEnd="0" shadowEnabled="0" shadowOffsetX="0" shadowOffsetY="2" shadowBlur="4" shadowOpacity="160" blurEnabled="0" blurRadius="4" transform="matrix(0.110358,0,0,0.110358,46.039,40.8666)" pers-center="0,0" pers-size="0,0" pers-start="0,0" pers-end="0,0" locked="0" mesh="" flag=""/>
            <path id="shapePath3" d="M4.90063,53.307 C4.43994,51.541 4.94796,49.6572 4.99107,47.8328 C5.05355,45.1934 4.57702,42.4769 5.21734,39.9156 C5.78513,37.6445 7.32703,35.7319 8.51993,33.7176 C9.84771,31.4753 11.0157,29.0824 12.7726,27.1576 C13.7664,26.0689 15.2655,25.577 16.5728,24.8956 C17.7582,24.2778 19.0438,23.8691 20.2372,23.267 C20.6929,23.0371 21.417,22.9102 21.5041,22.4074 C21.7241,21.1356 21.0779,19.8522 21.0516,18.5618 C21.0173,16.8708 20.599,15.0234 21.323,13.4949 C21.5978,12.915 22.5504,13.9131 23.0875,14.264 C24.0399,14.8859 25.0471,15.5013 25.7567,16.3903 C26.4553,17.2653 26.5238,18.5323 27.2044,19.4214 C27.5079,19.8179 28.063,20.0788 28.5616,20.0549 C32.8319,19.8495 37.057,19.0691 41.3196,18.7428 C43.1693,18.6012 45.0356,18.4983 46.8843,18.6523 C49.0337,18.8314 51.1702,19.2176 53.2633,19.7381 C56.8797,20.6374 60.5206,21.5325 63.9855,22.9049 C65.2193,23.3937 66.0357,24.6155 67.1978,25.2576 C68.4818,25.9675 69.83,26.6455 71.2692,26.9314 C72.1058,27.0977 73.041,26.954 73.8027,26.5695 C75.0466,25.9416 75.8284,24.5754 77.0936,23.9912 C78.9395,23.1388 80.9752,21.9221 82.9657,22.3387 C83.8858,22.5313 82.554,24.1738 82.3856,25.0989 C82.1725,26.2666 81.5176,27.4679 81.8224,28.615 C82.3133,30.4574 83.5835,32.0062 84.6451,33.5899 C85.1548,34.3499 86.1918,34.7473 86.5086,35.6057 C87.1276,37.2848 87.4689,39.1239 87.3432,40.909 C87.1276,43.9854 86.601,47.0945 85.5004,49.9755 C84.5269,52.5242 82.8262,54.747 81.2159,56.9497 C79.793,58.8969 78.426,61.0203 76.4337,62.3795 C73.7192,64.2317 70.5226,65.2901 67.4171,66.3648 C65.6938,66.9613 63.8347,67.053 62.0372,67.361 C59.8657,67.7337 57.7143,68.3748 55.5112,68.4074 C51.0047,68.4747 46.4949,68.1158 42.0111,67.6601 C38.1488,67.268 34.3283,66.532 30.5037,65.867 C27.1701,65.2869 23.8592,64.5836 20.5404,63.9237 C18.6782,63.5541 16.7191,63.4951 14.961,62.7779 C12.4341,61.7478 9.82446,60.6137 7.83744,58.7431 C6.3379,57.3313 5.42053,55.2998 4.90063,53.307 Z" style="stroke:none;fill-rule:evenodd;fill:#fff9ed;fill-opacity:1;"/>
        </g>
        <g id="Shape4">
            <desc shapeID="4" type="0" basicInfo-basicType="0" basicInfo-roundedRectRadius="12" basicInfo-polygonSides="6" basicInfo-starPoints="5" bounding="rect(-28.2505,-36.7767,56.501,73.5534)" text="" font-familyName="Helvetica" font-pixelSize="20" font-bold="0" font-underline="0" font-alignment="1" strokeStyle="0" markerStart="0" markerEnd="0" shadowEnabled="0" shadowOffsetX="0" shadowOffsetY="2" shadowBlur="4" shadowOpacity="160" blurEnabled="0" blurRadius="4" transform="matrix(0.110358,0,0,0.110358,37.1632,70.5258)" pers-center="0,0" pers-size="0,0" pers-start="0,0" pers-end="0,0" locked="0" mesh="" flag=""/>
            <path id="shapePath4" d="M35.9275,74.5844 C35.9275,74.5844 34.0456,72.9289 34.0456,72.9289 C34.0456,72.9289 35.4514,66.4446 35.4967,66.4673 C35.542,66.4899 39.5327,67.1247 39.5327,67.1247 C39.5327,67.1247 39.1698,69.4828 39.1698,69.4828 C39.1698,69.4828 38.2175,69.7097 38.2175,69.7097 C38.2175,69.7097 39.0111,71.2062 39.0111,71.2062 C39.0111,71.2062 40.2809,72.022 40.2809,72.022 C40.2809,72.022 35.9275,74.5844 35.9275,74.5844 Z" style="stroke:none;fill-rule:evenodd;fill:#fcf6e5;fill-opacity:1;"/>
        </g>
        <g id="Shape5">
            <desc shapeID="5" type="0" basicInfo-basicType="0" basicInfo-roundedRectRadius="12" basicInfo-polygonSides="6" basicInfo-starPoints="5" bounding="rect(-39.4047,-59.4402,78.8094,118.881)" text="" font-familyName="Helvetica" font-pixelSize="20" font-bold="0" font-underline="0" font-alignment="1" strokeStyle="0" markerStart="0" markerEnd="0" shadowEnabled="0" shadowOffsetX="0" shadowOffsetY="2" shadowBlur="4" shadowOpacity="160" blurEnabled="0" blurRadius="4" transform="matrix(0.110358,0,0,0.110358,95.2007,73.4222)" pers-center="0,0" pers-size="0,0" pers-start="0,0" pers-end="0,0" locked="0" mesh="" flag=""/>
            <path id="shapePath5" d="M90.8521,77.4126 C90.8521,77.4126 93.8419,69.8272 93.8419,69.8272 C93.8419,69.8272 95.4723,66.8626 95.4723,66.8626 C95.4723,66.8626 99.5494,69.4074 99.5494,69.4074 C99.5494,69.4074 98.907,71.433 98.907,71.433 C98.907,71.433 95.7934,72.6442 95.7934,72.6442 C95.7934,72.6442 96.3126,74.3983 96.3126,74.3983 C96.3126,74.3983 98.66,76.0041 98.66,76.0041 C98.66,76.0041 97.227,78.3761 97.227,78.3761 C97.227,78.3761 92.7791,79.9819 92.7791,79.9819 C92.7791,79.9819 91.5931,79.1919 91.5931,79.1919 C91.5931,79.1919 90.8521,77.4126 90.8521,77.4126 Z" style="stroke:none;fill-rule:evenodd;fill:#fcf6e5;fill-opacity:1;"/>
        </g>
        <g id="Shape6">
            <desc shapeID="6" type="0" basicInfo-basicType="0" basicInfo-roundedRectRadius="12" basicInfo-polygonSides="6" basicInfo-starPoints="5" bounding="rect(-118.136,-92.2041,236.274,184.408)" text="" font-familyName="Helvetica" font-pixelSize="20" font-bold="0" font-underline="0" font-alignment="1" strokeStyle="0" markerStart="0" markerEnd="0" shadowEnabled="0" shadowOffsetX="0" shadowOffsetY="2" shadowBlur="4" shadowOpacity="160" blurEnabled="0" blurRadius="4" transform="matrix(0.110358,0,0,0.110358,45.8391,44.4103)" pers-center="0,0" pers-size="0,0" pers-start="0,0" pers-end="0,0" locked="0" mesh="" flag=""/>
            <path id="shapePath6" d="M35.1057,36.3599 C35.9716,35.2475 37.3527,34.2492 38.7624,34.2352 C40.9761,34.2133 43.0429,35.412 45.0874,36.2612 C45.6541,36.4966 45.9203,37.2337 46.4957,37.4471 C47.8786,37.9597 49.5278,37.6742 50.8195,38.386 C51.3466,38.6765 51.4201,39.5192 51.3383,40.1154 C51.2105,41.0476 50.1682,41.7707 50.2265,42.7097 C50.3183,44.1894 50.8791,45.6915 51.7584,46.8852 C52.2365,47.5345 53.3019,47.3986 53.9898,47.8193 C54.5042,48.1341 54.7791,48.7693 55.309,49.0572 C55.7863,49.3165 56.5522,48.9861 56.9017,49.4018 C57.8375,50.5146 58.6502,51.8565 58.872,53.2936 C58.9462,53.774 58.0927,53.9311 57.6182,54.0377 C57.2235,54.1265 56.8174,53.7731 56.4196,53.8448 C55.8112,53.9543 55.3043,54.7318 54.7106,54.5614 C53.1756,54.1207 51.8958,53.043 50.5628,52.1636 C49.47,51.4427 48.6309,50.3321 47.4482,49.7704 C46.2037,49.1796 44.8092,48.8879 43.4358,48.7797 C41.82,48.6525 40.1984,49.1964 38.5823,49.0724 C37.599,48.9969 36.609,48.6895 35.7581,48.1908 C34.6711,47.5536 33.1562,46.9644 32.8857,45.7337 C32.4897,43.9317 33.6026,42.1131 34.0277,40.3178 C34.3429,38.9873 34.2659,37.439 35.1057,36.3599 Z" style="stroke:none;fill-rule:evenodd;fill:#ffffff;fill-opacity:1;"/>
        </g>
        <g id="Shape7">
            <desc shapeID="7" type="0" basicInfo-basicType="0" basicInfo-roundedRectRadius="12" basicInfo-polygonSides="6" basicInfo-starPoints="5" bounding="rect(-54.6371,-29.1184,109.275,58.237)" text="" font-familyName="Helvetica" font-pixelSize="20" font-bold="0" font-underline="0" font-alignment="1" strokeStyle="0" markerStart="0" markerEnd="0" shadowEnabled="0" shadowOffsetX="0" shadowOffsetY="2" shadowBlur="4" shadowOpacity="160" blurEnabled="0" blurRadius="4" transform="matrix(0.0775868,0,0,0.0775868,29.1293,30.8191)" pers-center="0,0" pers-size="0,0" pers-start="0,0" pers-end="0,0" locked="0" mesh="" flag=""/>
            <path id="shapePath7" d="M25.6838,31.8712 C25.163,31.3504 24.5621,30.24 25.1024,29.7396 C26.1333,28.785 27.7933,28.3702 29.1718,28.6415 C30.789,28.9598 32.5427,29.8936 33.3058,31.3545 C33.6876,32.0852 32.2306,32.7624 31.4326,32.9693 C30.3457,33.2511 29.1768,32.9217 28.0738,32.7109 C27.2444,32.5525 26.2809,32.4683 25.6838,31.8712 Z" style="stroke:none;fill-rule:evenodd;fill:#fbbbb8;fill-opacity:1;"/>
        </g>
        <g id="Shape8">
            <desc shapeID="8" type="0" basicInfo-basicType="0" basicInfo-roundedRectRadius="12" basicInfo-polygonSides="6" basicInfo-starPoints="5" bounding="rect(-35.9709,-18.6383,71.9415,37.2767)" text="" font-familyName="Helvetica" font-pixelSize="20" font-bold="0" font-underline="0" font-alignment="1" strokeStyle="0" markerStart="0" markerEnd="0" shadowEnabled="0" shadowOffsetX="0" shadowOffsetY="2" shadowBlur="4" shadowOpacity="160" blurEnabled="0" blurRadius="4" transform="matrix(0.110358,0,0,0.110358,59.3847,37.2506)" pers-center="0,0" pers-size="0,0" pers-start="0,0" pers-end="0,0" locked="0" mesh="" flag=""/>
            <path id="shapePath8" d="M55.4636,36.4809 C55.8615,35.7247 56.8269,35.1679 57.681,35.1947 C59.3685,35.2478 61.0869,35.8038 62.5154,36.7026 C63.0974,37.0686 63.6436,38.1463 63.181,38.6541 C62.501,39.3994 61.2088,39.367 60.2095,39.2306 C58.8412,39.0441 57.5452,38.415 56.3505,37.7228 C55.9105,37.4677 55.2268,36.9311 55.4636,36.4809 Z" style="stroke:none;fill-rule:evenodd;fill:#fbbbb8;fill-opacity:1;"/>
        </g>
        <g id="Shape9">
            <desc shapeID="9" type="0" basicInfo-basicType="0" basicInfo-roundedRectRadius="12" basicInfo-polygonSides="6" basicInfo-starPoints="5" bounding="rect(0,0,0,0)" text="" font-familyName="Helvetica" font-pixelSize="20" font-bold="0" font-underline="0" font-alignment="1" strokeStyle="0" markerStart="0" markerEnd="0" shadowEnabled="0" shadowOffsetX="0" shadowOffsetY="2" shadowBlur="4" shadowOpacity="160" blurEnabled="0" blurRadius="4" transform="matrix(0.126976,0,-0.00745128,0.126609,-0.289737,4.26883)" pers-center="0,0" pers-size="0,0" pers-start="0,0" pers-end="0,0" locked="0" mesh="" flag=""/>
            <path id="shapePath9" d="M-0.289737,4.26883 Z" style="stroke:none;fill-rule:evenodd;fill:#000000;fill-opacity:1;"/>
        </g>
        <g id="Shape10">
            <desc shapeID="10" type="0" basicInfo-basicType="0" basicInfo-roundedRectRadius="12" basicInfo-polygonSides="6" basicInfo-starPoints="5" bounding="rect(-19.6286,-11.1474,39.2574,22.2952)" text="" font-familyName="Helvetica" font-pixelSize="20" font-bold="0" font-underline="0" font-alignment="1" strokeStyle="0" markerStart="0" markerEnd="0" shadowEnabled="0" shadowOffsetX="0" shadowOffsetY="2" shadowBlur="4" shadowOpacity="160" blurEnabled="0" blurRadius="4" transform="matrix(0.126976,0,-0.00745128,0.126609,38.6449,28.4193)" pers-center="0,0" pers-size="0,0" pers-start="0,0" pers-end="0,0" locked="0" mesh="" flag=""/>
            <path id="shapePath10" d="M36.2081,27.7675 C36.1191,27.4559 36.5645,26.9714 36.8905,27.0101 C37.6935,27.1055 38.2781,27.7868 39.0107,28.1006 C39.5877,28.3476 40.3521,28.2641 40.8076,28.6875 C41.0756,28.9366 41.2275,29.7715 40.8501,29.8104 C39.6778,29.9311 38.5183,29.4932 37.4692,29.0316 C36.9196,28.7897 36.3739,28.3463 36.2081,27.7675 Z" style="stroke:none;fill-rule:evenodd;fill:#000000;fill-opacity:1;"/>
        </g>
        <g id="Shape11">
            <desc shapeID="11" type="0" basicInfo-basicType="0" basicInfo-roundedRectRadius="12" basicInfo-polygonSides="6" basicInfo-starPoints="5" bounding="rect(0,0,0,0)" text="" font-familyName="Helvetica" font-pixelSize="20" font-bold="0" font-underline="0" font-alignment="1" strokeStyle="0" markerStart="0" markerEnd="0" shadowEnabled="0" shadowOffsetX="0" shadowOffsetY="2" shadowBlur="4" shadowOpacity="160" blurEnabled="0" blurRadius="4" transform="matrix(0.126976,0,-0.00745128,0.126609,-0.289675,4.26883)" pers-center="0,0" pers-size="0,0" pers-start="0,0" pers-end="0,0" locked="0" mesh="" flag=""/>
            <path id="shapePath11" d="M-0.289675,4.26883 Z" style="stroke:none;fill-rule:evenodd;fill:#7a7476;fill-opacity:1;"/>
        </g>
        <g id="Shape12">
            <desc shapeID="12" type="0" basicInfo-basicType="0" basicInfo-roundedRectRadius="12" basicInfo-polygonSides="6" basicInfo-starPoints="5" bounding="rect(0,0,0,0)" text="" font-familyName="Helvetica" font-pixelSize="20" font-bold="0" font-underline="0" font-alignment="1" strokeStyle="0" markerStart="0" markerEnd="0" shadowEnabled="0" shadowOffsetX="0" shadowOffsetY="2" shadowBlur="4" shadowOpacity="160" blurEnabled="0" blurRadius="4" transform="matrix(0.126976,0,-0.00745128,0.126609,-0.289737,4.26883)" pers-center="0,0" pers-size="0,0" pers-start="0,0" pers-end="0,0" locked="0" mesh="" flag=""/>
            <path id="shapePath12" d="M-0.289737,4.26883 Z" style="stroke:none;fill-rule:evenodd;fill:#000000;fill-opacity:1;"/>
        </g>
        <g id="Shape13">
            <desc shapeID="13" type="0" basicInfo-basicType="0" basicInfo-roundedRectRadius="12" basicInfo-polygonSides="6" basicInfo-starPoints="5" bounding="rect(0,0,0,0)" text="" font-familyName="Helvetica" font-pixelSize="20" font-bold="0" font-underline="0" font-alignment="1" strokeStyle="0" markerStart="0" markerEnd="0" shadowEnabled="0" shadowOffsetX="0" shadowOffsetY="2" shadowBlur="4" shadowOpacity="160" blurEnabled="0" blurRadius="4" transform="matrix(0.126976,0,-0.00745128,0.126609,-0.289737,4.26883)" pers-center="0,0" pers-size="0,0" pers-start="0,0" pers-end="0,0" locked="0" mesh="" flag=""/>
            <path id="shapePath13" d="M-0.289737,4.26883 Z" style="stroke:none;fill-rule:evenodd;fill:#000000;fill-opacity:1;"/>
        </g>
        <g id="Shape14">
            <desc shapeID="14" type="0" basicInfo-basicType="0" basicInfo-roundedRectRadius="12" basicInfo-polygonSides="6" basicInfo-starPoints="5" bounding="rect(-0.0839875,-0.0138889,0.167955,0.0277913)" text="" font-familyName="Helvetica" font-pixelSize="20" font-bold="0" font-underline="0" font-alignment="1" strokeStyle="0" markerStart="0" markerEnd="0" shadowEnabled="0" shadowOffsetX="0" shadowOffsetY="2" shadowBlur="4" shadowOpacity="160" blurEnabled="0" blurRadius="4" transform="matrix(0.126976,0,-0.00745128,0.126609,44.2202,31.6998)" pers-center="0,0" pers-size="0,0" pers-start="0,0" pers-end="0,0" locked="0" mesh="" flag=""/>
            <path id="shapePath14" d="M44.2097,31.698 C44.2572,31.7059 44.2097,31.698 44.2097,31.698 Z" style="stroke:none;fill-rule:evenodd;fill:#000000;fill-opacity:1;"/>
        </g>
        <g id="Shape15">
            <desc shapeID="15" type="0" basicInfo-basicType="0" basicInfo-roundedRectRadius="12" basicInfo-polygonSides="6" basicInfo-starPoints="5" bounding="rect(-13.2701,-18.3879,26.5402,36.776)" text="" font-familyName="Helvetica" font-pixelSize="20" font-bold="0" font-underline="0" font-alignment="1" strokeStyle="0" markerStart="0" markerEnd="0" shadowEnabled="0" shadowOffsetX="0" shadowOffsetY="2" shadowBlur="4" shadowOpacity="160" blurEnabled="0" blurRadius="4" transform="matrix(0.126976,0,-0.00745128,0.126609,45.6601,33.2218)" pers-center="0,0" pers-size="0,0" pers-start="0,0" pers-end="0,0" locked="0" mesh="" flag=""/>
            <path id="shapePath15" d="M44.1919,31.5945 C44.4201,31.8808 45.0044,31.794 45.159,32.1281 C45.3928,32.6337 45.1625,33.2678 45.226,33.8296 C45.2851,34.3554 45.2923,34.9159 45.5257,35.3817 C45.6072,35.5448 45.8959,35.5953 46.0658,35.5066 C46.2702,35.3998 46.421,35.1379 46.4213,34.9137 C46.4223,34.4475 46.1119,34.0419 46.0697,33.5799 C46.0392,33.2473 45.9508,32.8078 46.2071,32.5739 C46.4301,32.3704 46.8112,32.7976 47.0781,32.6597 C47.3002,32.5449 47.4959,32.1735 47.3688,31.9734 C47.13,31.597 46.6233,31.4746 46.212,31.2948 C45.898,31.1574 45.5529,31.0872 45.2107,31.0296 C44.8892,30.9755 44.5242,30.7977 44.2291,30.9613 C44.0394,31.0666 44.0639,31.4339 44.1919,31.5945 Z" style="stroke:none;fill-rule:evenodd;fill:#000000;fill-opacity:1;"/>
        </g>
        <g id="Shape16">
            <desc shapeID="16" type="0" basicInfo-basicType="0" basicInfo-roundedRectRadius="12" basicInfo-polygonSides="6" basicInfo-starPoints="5" bounding="rect(0,0,0,0)" text="" font-familyName="Helvetica" font-pixelSize="20" font-bold="0" font-underline="0" font-alignment="1" strokeStyle="0" markerStart="0" markerEnd="0" shadowEnabled="0" shadowOffsetX="0" shadowOffsetY="2" shadowBlur="4" shadowOpacity="160" blurEnabled="0" blurRadius="4" transform="matrix(0.126976,0,-0.00745128,0.126609,-0.289737,4.26883)" pers-center="0,0" pers-size="0,0" pers-start="0,0" pers-end="0,0" locked="0" mesh="" flag=""/>
            <path id="shapePath16" d="M-0.289737,4.26883 Z" style="stroke:none;fill-rule:evenodd;fill:#000000;fill-opacity:1;"/>
        </g>
        <g id="Shape17">
            <desc shapeID="17" type="0" basicInfo-basicType="0" basicInfo-roundedRectRadius="12" basicInfo-polygonSides="6" basicInfo-starPoints="5" bounding="rect(-18.1689,-9.45462,36.3379,18.9093)" text="" font-familyName="Helvetica" font-pixelSize="20" font-bold="0" font-underline="0" font-alignment="1" strokeStyle="0" markerStart="0" markerEnd="0" shadowEnabled="0" shadowOffsetX="0" shadowOffsetY="2" shadowBlur="4" shadowOpacity="160" blurEnabled="0" blurRadius="4" transform="matrix(0.126976,0,-0.00745128,0.126609,51.4096,32.8265)" pers-center="0,0" pers-size="0,0" pers-start="0,0" pers-end="0,0" locked="0" mesh="" flag=""/>
            <path id="shapePath17" d="M49.3305,31.6882 C48.746,31.8995 49.7885,32.8548 50.274,33.1952 C50.9558,33.6735 51.8059,33.9715 52.6583,34.0223 C53.043,34.0452 53.5346,33.7655 53.6719,33.3974 C53.7722,33.1285 53.3744,32.8942 53.1178,32.791 C52.7133,32.6282 52.2199,32.7663 51.7994,32.6439 C50.9487,32.3962 50.1931,31.3764 49.3305,31.6882 Z" style="stroke:none;fill-rule:evenodd;fill:#000000;fill-opacity:1;"/>
        </g>
        <g id="Shape18">
            <desc shapeID="18" type="0" basicInfo-basicType="0" basicInfo-roundedRectRadius="12" basicInfo-polygonSides="6" basicInfo-starPoints="5" bounding="rect(0,0,0,0)" text="" font-familyName="Helvetica" font-pixelSize="20" font-bold="0" font-underline="0" font-alignment="1" strokeStyle="0" markerStart="0" markerEnd="0" shadowEnabled="0" shadowOffsetX="0" shadowOffsetY="2" shadowBlur="4" shadowOpacity="160" blurEnabled="0" blurRadius="4" transform="matrix(0.126976,0,-0.00745128,0.126609,-0.289737,4.26883)" pers-center="0,0" pers-size="0,0" pers-start="0,0" pers-end="0,0" locked="0" mesh="" flag=""/>
            <path id="shapePath18" d="M-0.289737,4.26883 Z" style="stroke:none;fill-rule:evenodd;fill:#000000;fill-opacity:1;"/>
        </g>
        <g id="Shape19">
            <desc shapeID="19" type="0" basicInfo-basicType="0" basicInfo-roundedRectRadius="12" basicInfo-polygonSides="6" basicInfo-starPoints="5" bounding="rect(-21.9975,-6.39031,43.9947,12.7806)" text="" font-familyName="Helvetica" font-pixelSize="20" font-bold="0" font-underline="0" font-alignment="1" strokeStyle="0" markerStart="0" markerEnd="0" shadowEnabled="0" shadowOffsetX="0" shadowOffsetY="2" shadowBlur="4" shadowOpacity="160" blurEnabled="0" blurRadius="4" transform="matrix(0.126976,0,-0.00745128,0.126609,73.4556,43.8685)" pers-center="0,0" pers-size="0,0" pers-start="0,0" pers-end="0,0" locked="0" mesh="" flag=""/>
            <path id="shapePath19" d="M70.7155,43.2901 C70.5772,43.6144 71.0266,43.9164 71.3013,44.1116 C71.5678,44.3011 71.9241,44.353 72.2572,44.3855 C72.9404,44.452 73.6406,44.3581 74.3263,44.4067 C74.836,44.4425 75.3363,44.7931 75.834,44.6383 C76.1087,44.5529 76.3796,43.9971 76.1558,43.8377 C75.5537,43.4095 74.7103,43.4386 73.968,43.3111 C73.2358,43.1852 72.4923,43.0842 71.7425,43.0793 C71.3974,43.0771 70.8538,42.9668 70.7155,43.2901 Z" style="stroke:none;fill-rule:evenodd;fill:#000000;fill-opacity:1;"/>
        </g>
        <g id="Shape20">
            <desc shapeID="20" type="0" basicInfo-basicType="0" basicInfo-roundedRectRadius="12" basicInfo-polygonSides="6" basicInfo-starPoints="5" bounding="rect(-14.5589,-7.87537,29.1179,15.7509)" text="" font-familyName="Helvetica" font-pixelSize="20" font-bold="0" font-underline="0" font-alignment="1" strokeStyle="0" markerStart="0" markerEnd="0" shadowEnabled="0" shadowOffsetX="0" shadowOffsetY="2" shadowBlur="4" shadowOpacity="160" blurEnabled="0" blurRadius="4" transform="matrix(0.126976,0,-0.00745128,0.126609,73.8297,46.9192)" pers-center="0,0" pers-size="0,0" pers-start="0,0" pers-end="0,0" locked="0" mesh="" flag=""/>
            <path id="shapePath20" d="M72.014,46.3656 C72.0172,45.9854 72.7154,45.9109 73.0963,45.9234 C73.8423,45.9476 74.6556,46.0393 75.2401,46.471 C75.6003,46.7371 75.7128,47.3244 75.6072,47.7771 C75.555,47.9986 75.1144,47.9171 74.9296,47.7982 C74.7467,47.6803 74.841,47.3875 74.6317,47.3205 C74.1308,47.1604 73.5872,47.3629 73.0837,47.2083 C72.6444,47.0735 72.0096,46.8315 72.014,46.3656 Z" style="stroke:none;fill-rule:evenodd;fill:#000000;fill-opacity:1;"/>
        </g>
        <g id="Shape21">
            <desc shapeID="21" type="0" basicInfo-basicType="0" basicInfo-roundedRectRadius="12" basicInfo-polygonSides="6" basicInfo-starPoints="5" bounding="rect(0,0,0,0)" text="" font-familyName="Helvetica" font-pixelSize="20" font-bold="0" font-underline="0" font-alignment="1" strokeStyle="0" markerStart="0" markerEnd="0" shadowEnabled="0" shadowOffsetX="0" shadowOffsetY="2" shadowBlur="4" shadowOpacity="160" blurEnabled="0" blurRadius="4" transform="matrix(0.126976,0,-0.00745128,0.126609,-0.289737,4.26883)" pers-center="0,0" pers-size="0,0" pers-start="0,0" pers-end="0,0" locked="0" mesh="" flag=""/>
            <path id="shapePath21" d="M-0.289737,4.26883 Z" style="stroke:none;fill-rule:evenodd;fill:#000000;fill-opacity:1;"/>
        </g>
        <g id="Shape22">
            <desc shapeID="22" type="0" basicInfo-basicType="0" basicInfo-roundedRectRadius="12" basicInfo-polygonSides="6" basicInfo-starPoints="5" bounding="rect(-17.123,-6.99911,34.246,13.9984)" text="" font-familyName="Helvetica" font-pixelSize="20" font-bold="0" font-underline="0" font-alignment="1" strokeStyle="0" markerStart="0" markerEnd="0" shadowEnabled="0" shadowOffsetX="0" shadowOffsetY="2" shadowBlur="4" shadowOpacity="160" blurEnabled="0" blurRadius="4" transform="matrix(0.126976,0,-0.00745128,0.126609,73.686,50.9873)" pers-center="0,0" pers-size="0,0" pers-start="0,0" pers-end="0,0" locked="0" mesh="" flag=""/>
            <path id="shapePath22" d="M71.5514,50.5466 C71.4421,50.1712 72.2887,50.1239 72.6884,50.1036 C73.2314,50.0759 73.7462,50.2864 74.2672,50.4082 C74.7335,50.5173 75.2948,50.4832 75.6468,50.7958 C75.8711,50.995 75.9013,51.4424 75.7316,51.7096 C75.5952,51.9248 75.2301,51.8829 74.9887,51.8343 C74.8039,51.7969 74.753,51.5005 74.5657,51.4742 C74.0918,51.4077 73.5695,51.7108 73.1158,51.5713 C72.5137,51.3859 71.7274,51.1498 71.5514,50.5466 Z" style="stroke:none;fill-rule:evenodd;fill:#000000;fill-opacity:1;"/>
        </g>
        <g id="Shape23">
            <desc shapeID="23" type="0" basicInfo-basicType="0" basicInfo-roundedRectRadius="12" basicInfo-polygonSides="6" basicInfo-starPoints="5" bounding="rect(-21.0622,-5.99097,42.1245,11.9818)" text="" font-familyName="Helvetica" font-pixelSize="20" font-bold="0" font-underline="0" font-alignment="1" strokeStyle="0" markerStart="0" markerEnd="0" shadowEnabled="0" shadowOffsetX="0" shadowOffsetY="2" shadowBlur="4" shadowOpacity="160" blurEnabled="0" blurRadius="4" transform="matrix(0.126976,0,-0.00745128,0.126609,13.2606,33.1371)" pers-center="0,0" pers-size="0,0" pers-start="0,0" pers-end="0,0" locked="0" mesh="" flag=""/>
            <path id="shapePath23" d="M12.1447,33.6525 C11.7907,33.7171 11.4472,33.9662 11.108,33.8762 C10.8236,33.8006 10.4618,33.4272 10.6127,33.1617 C10.8701,32.7093 11.5855,32.5447 12.0934,32.4699 C12.864,32.3564 13.4855,32.532 14.2521,32.6259 C14.6446,32.6741 15.0956,32.2442 15.4412,32.4218 C15.7661,32.5886 16.0939,33.1521 15.8418,33.4424 C15.4613,33.8807 14.7434,33.8762 14.1786,33.8762 C13.8993,33.8762 13.6381,33.6113 13.3642,33.5699 C12.9274,33.5041 12.5876,33.5718 12.1447,33.6525 Z" style="stroke:none;fill-rule:evenodd;fill:#000000;fill-opacity:1;"/>
        </g>
        <g id="Shape24">
            <desc shapeID="24" type="0" basicInfo-basicType="0" basicInfo-roundedRectRadius="12" basicInfo-polygonSides="6" basicInfo-starPoints="5" bounding="rect(-16.7498,-5.93893,33.4996,11.878)" text="" font-familyName="Helvetica" font-pixelSize="20" font-bold="0" font-underline="0" font-alignment="1" strokeStyle="0" markerStart="0" markerEnd="0" shadowEnabled="0" shadowOffsetX="0" shadowOffsetY="2" shadowBlur="4" shadowOpacity="160" blurEnabled="0" blurRadius="4" transform="matrix(0.126976,0,-0.00745128,0.126609,11.8743,36.1913)" pers-center="0,0" pers-size="0,0" pers-start="0,0" pers-end="0,0" locked="0" mesh="" flag=""/>
            <path id="shapePath24" d="M9.78668,36.3256 C10.2896,35.9217 10.9483,35.7455 11.5687,35.6111 C11.8436,35.5516 12.1006,35.7869 12.3787,35.7642 C12.7437,35.7344 13.1037,35.3516 13.4458,35.458 C13.7457,35.5513 14.1775,36.0257 13.9366,36.2489 C13.3934,36.7523 12.5644,36.8035 11.849,36.9378 C11.629,36.9792 11.4402,36.7707 11.2198,36.7593 C10.8269,36.7387 10.4056,36.9557 10.0341,36.8433 C9.8494,36.7873 9.6293,36.452 9.78668,36.3256 Z" style="stroke:none;fill-rule:evenodd;fill:#000000;fill-opacity:1;"/>
        </g>
        <g id="Shape25">
            <desc shapeID="25" type="0" basicInfo-basicType="0" basicInfo-roundedRectRadius="12" basicInfo-polygonSides="6" basicInfo-starPoints="5" bounding="rect(-23.2998,-6.30192,46.5996,12.604)" text="" font-familyName="Helvetica" font-pixelSize="20" font-bold="0" font-underline="0" font-alignment="1" strokeStyle="0" markerStart="0" markerEnd="0" shadowEnabled="0" shadowOffsetX="0" shadowOffsetY="2" shadowBlur="4" shadowOpacity="160" blurEnabled="0" blurRadius="4" transform="matrix(0.126976,0,-0.00745128,0.126609,9.81167,39.8671)" pers-center="0,0" pers-size="0,0" pers-start="0,0" pers-end="0,0" locked="0" mesh="" flag=""/>
            <path id="shapePath25" d="M6.90845,39.9132 C7.53971,39.1565 8.75851,39.2476 9.71434,39.0927 C10.2105,39.0121 10.7044,39.1602 11.1957,39.218 C11.7115,39.2787 12.293,39.1924 12.7337,39.448 C12.8923,39.54 12.6722,39.9017 12.4933,39.9706 C11.9842,40.1668 11.4211,40.069 10.8886,40.1588 C10.0575,40.2991 9.23605,40.7119 8.40592,40.6606 C7.83769,40.6255 6.53235,40.3639 6.90845,39.9132 Z" style="stroke:none;fill-rule:evenodd;fill:#000000;fill-opacity:1;"/>
        </g>
        <g id="Shape26">
            <desc shapeID="26" type="0" basicInfo-basicType="0" basicInfo-roundedRectRadius="12" basicInfo-polygonSides="6" basicInfo-starPoints="5" bounding="rect(-86.1206,-80.4922,172.24,160.986)" text="" font-familyName="Helvetica" font-pixelSize="20" font-bold="0" font-underline="0" font-alignment="1" strokeStyle="0" markerStart="0" markerEnd="0" shadowEnabled="0" shadowOffsetX="0" shadowOffsetY="2" shadowBlur="4" shadowOpacity="160" blurEnabled="0" blurRadius="4" transform="matrix(0.126976,0,-0.00745128,0.126609,48.8885,44.0867)" pers-center="0,0" pers-size="0,0" pers-start="0,0" pers-end="0,0" locked="0" mesh="" flag=""/>
            <path id="shapePath26" d="M38.5457,34.0755 C38.6157,34.6857 39.1766,35.19 39.7301,35.44 C40.6823,35.8701 41.8278,35.7569 42.8478,36.019 C43.6035,36.2131 44.3674,36.4287 45.041,36.8046 C45.512,37.0674 45.7466,37.6425 46.2206,37.9003 C46.9339,38.2885 47.7415,38.5034 48.5369,38.7067 C49.1233,38.8566 49.7995,38.7085 50.347,38.9548 C50.643,39.088 50.8005,39.4451 50.8802,39.7611 C50.9599,40.0772 50.9154,40.4367 50.8009,40.7535 C50.5706,41.3914 50.0381,41.9206 49.8646,42.573 C49.7521,42.9958 49.8509,43.4493 49.9759,43.8548 C50.186,44.538 50.589,45.1382 50.8566,45.7982 C51.0982,46.3942 51.1761,46.8913 51.616,47.3543 C51.9009,47.6541 52.3723,47.7222 52.7531,47.8927 C53.3357,48.1535 53.7448,48.5396 54.2364,48.939 C54.4743,49.1323 54.817,49.4519 55.1034,49.5689 C55.5095,49.7348 55.9105,49.4284 56.2681,49.6772 C56.798,50.0462 57.0425,50.7099 57.3712,51.2658 C57.5899,51.6359 57.5993,52.1423 57.9035,52.4451 C58.2077,52.7481 58.153,52.663 58.2718,53.0808 C58.3818,53.468 57.1424,53.1806 56.8979,53.907 C56.7892,54.3073 57.2492,54.313 57.473,54.2458 C57.8683,54.1272 58.7777,54.0288 59.0065,53.682 C59.2089,53.3756 59.3811,53.1303 59.2516,52.8052 C59.1203,52.4756 59.3164,52.1726 59.0071,52.0004 C58.713,51.8369 58.5754,51.7071 58.368,51.4446 C57.989,50.9652 57.9789,50.2626 57.6571,49.7417 C57.4434,49.3964 57.1474,49.0851 56.7892,48.8905 C56.2782,48.6125 55.636,48.6141 55.1127,48.3582 C54.7381,48.1751 54.4995,47.7897 54.1332,47.592 C53.65,47.3312 53.0733,47.2542 52.5884,46.9959 C52.292,46.838 51.9793,46.6493 51.8149,46.3574 C51.418,45.6527 51.2522,44.8317 50.9457,44.0798 C50.8212,43.775 50.5498,43.5223 50.5225,43.1891 C50.4962,42.8664 50.6638,42.5413 50.7947,42.2356 C50.9671,41.8332 51.2616,41.4834 51.4264,41.0783 C51.5874,40.682 51.7783,40.2658 51.7652,39.8481 C51.7543,39.506 51.4574,39.2487 51.3583,38.9261 C51.2666,38.6267 51.4664,38.1498 51.1965,37.9948 C50.4987,37.5943 49.6142,37.6032 48.8091,37.4626 C48.5324,37.4143 48.2236,37.5209 47.9606,37.4295 C47.3447,37.2151 46.7761,36.8912 46.2195,36.5618 C45.7621,36.2911 45.4123,35.8564 44.9273,35.6344 C44.3296,35.3604 43.8538,35.3787 43.2614,35.0944 C43.0436,34.9899 42.6852,34.7678 42.4587,34.6815 C42.1449,34.5619 41.9026,34.5672 41.5627,34.5407 C41.1299,34.5069 40.699,34.4425 40.2835,34.333 C40.0287,34.2658 39.8288,34.0535 39.5665,34.0146 C39.2335,33.9653 38.5073,33.7418 38.5457,34.0755 Z" style="stroke:none;fill-rule:evenodd;fill:#000000;fill-opacity:1;"/>
        </g>
        <g id="Shape27">
            <desc shapeID="27" type="0" basicInfo-basicType="0" basicInfo-roundedRectRadius="12" basicInfo-polygonSides="6" basicInfo-starPoints="5" bounding="rect(0,0,0,0)" text="" font-familyName="Helvetica" font-pixelSize="20" font-bold="0" font-underline="0" font-alignment="1" strokeStyle="0" markerStart="0" markerEnd="0" shadowEnabled="0" shadowOffsetX="0" shadowOffsetY="2" shadowBlur="4" shadowOpacity="160" blurEnabled="0" blurRadius="4" transform="matrix(0.126976,0,-0.00745128,0.126609,-0.289675,4.26883)" pers-center="0,0" pers-size="0,0" pers-start="0,0" pers-end="0,0" locked="0" mesh="" flag=""/>
            <path id="shapePath27" d="M-0.289675,4.26883 Z" style="stroke:none;fill-rule:evenodd;fill:#000000;fill-opacity:1;"/>
        </g>
        <g id="Shape28">
            <desc shapeID="28" type="0" basicInfo-basicType="0" basicInfo-roundedRectRadius="12" basicInfo-polygonSides="6" basicInfo-starPoints="5" bounding="rect(-98.5163,-75.6094,197.029,151.216)" text="" font-familyName="Helvetica" font-pixelSize="20" font-bold="0" font-underline="0" font-alignment="1" strokeStyle="0" markerStart="0" markerEnd="0" shadowEnabled="0" shadowOffsetX="0" shadowOffsetY="2" shadowBlur="4" shadowOpacity="160" blurEnabled="0" blurRadius="4" transform="matrix(0.126976,0,-0.00745128,0.126609,45.0197,45.4375)" pers-center="0,0" pers-size="0,0" pers-start="0,0" pers-end="0,0" locked="0" mesh="" flag=""/>
            <path id="shapePath28" d="M34.5109,36.7834 C34.2343,37.322 34.1056,37.9193 33.963,38.5006 C33.7514,39.3646 33.6567,40.2473 33.4502,41.1122 C33.2655,41.8855 32.9358,42.631 32.7912,43.4104 C32.6438,44.2039 32.4306,45.0328 32.5785,45.809 C32.6629,46.2519 33.1095,46.5279 33.4412,46.823 C34.0502,47.365 34.6991,47.8673 35.3876,48.3087 C36.101,48.7661 36.8238,49.2384 37.6345,49.5114 C37.9801,49.6276 38.3828,49.4051 38.7501,49.4406 C39.5263,49.5158 40.2612,49.8274 41.0443,49.8415 C42.026,49.859 43.0248,49.4245 43.9949,49.5349 C45.1807,49.6699 46.2908,50.1355 47.3875,50.5636 C48.0587,50.8257 48.7085,51.1606 49.2742,51.596 C49.9226,52.0951 50.3341,52.8588 50.9957,53.3412 C51.7978,53.9261 52.6718,54.4476 53.6234,54.7668 C54.2912,54.9908 55.0476,55.0873 55.7579,54.9389 C56.2216,54.8419 56.6496,54.477 56.918,54.0785 C57.0695,53.8531 57.1254,53.3308 56.8652,53.292 C56.2769,53.2039 55.71,53.8083 55.1096,53.8083 C54.5247,53.8083 53.9817,53.5335 53.4636,53.292 C52.727,52.9485 52.014,52.5464 51.3667,52.063 C50.9189,51.7288 50.6484,51.1986 50.205,50.8586 C49.5404,50.3491 48.8069,49.9272 48.0645,49.5313 C47.5129,49.2371 46.9355,48.9793 46.333,48.7939 C45.5984,48.5679 44.8452,48.363 44.0695,48.3024 C43.6712,48.2711 43.2749,48.4862 42.8732,48.5237 C41.9506,48.6094 41.0207,48.7223 40.1037,48.671 C39.3948,48.6315 38.7201,48.4036 38.0329,48.2533 C37.4464,48.1249 36.8181,48.092 36.2826,47.8353 C35.686,47.5493 35.2241,47.0535 34.7004,46.6555 C34.2646,46.3242 33.5833,46.1692 33.4039,45.6477 C33.1788,44.9932 33.5104,44.2353 33.6269,43.5339 C33.7628,42.7159 33.9666,41.9062 34.1597,41.0962 C34.2653,40.6535 34.4274,40.2216 34.5224,39.777 C34.6055,39.3877 34.617,38.9899 34.6935,38.5997 C34.8672,37.714 35.3614,36.8341 35.2727,35.9511 C35.2363,35.5909 34.6816,36.4511 34.5109,36.7834 Z" style="stroke:none;fill-rule:evenodd;fill:#000000;fill-opacity:1;"/>
        </g>
        <g id="Shape29">
            <desc shapeID="29" type="0" basicInfo-basicType="0" basicInfo-roundedRectRadius="12" basicInfo-polygonSides="6" basicInfo-starPoints="5" bounding="rect(-327.936,-175.712,655.872,351.421)" text="" font-familyName="Helvetica" font-pixelSize="20" font-bold="0" font-underline="0" font-alignment="1" strokeStyle="0" markerStart="0" markerEnd="0" shadowEnabled="0" shadowOffsetX="0" shadowOffsetY="2" shadowBlur="4" shadowOpacity="160" blurEnabled="0" blurRadius="4" transform="matrix(0.126976,0,-0.00745128,0.126609,45.5786,46.7986)" pers-center="0,0" pers-size="0,0" pers-start="0,0" pers-end="0,0" locked="0" mesh="" flag=""/>
            <path id="shapePath29" d="M16.7235,24.7527 C16.6602,24.3235 15.8015,24.6839 15.4041,24.8953 C14.3895,25.4354 13.462,26.1572 12.6139,26.9395 C11.9965,27.5089 11.5452,28.2345 11.0505,28.9106 C10.4785,29.6921 9.93501,30.4941 9.41593,31.3097 C8.27897,33.0959 7.04817,34.8371 6.08342,36.7143 C5.3492,38.1432 4.71642,39.6415 4.34133,41.1848 C4.09232,42.2096 4.26516,43.2682 4.23782,44.3095 C4.19257,46.033 4.03595,47.7651 4.12368,49.4792 C4.20049,50.9825 4.34674,52.4942 4.73,53.9329 C5.03074,55.0614 5.49897,56.1584 6.15614,57.1081 C7.10379,58.4781 8.0798,59.9316 9.49437,60.8196 C11.7711,62.2487 14.3987,63.1148 16.9949,63.913 C18.6911,64.434 20.5524,64.3674 22.2921,64.7527 C24.7804,65.3033 27.1681,65.9544 29.6814,66.4082 C31.6225,66.7582 33.656,66.8839 35.6034,67.1611 C37.6683,67.4553 39.6479,67.8958 41.7383,68.1045 C45.2799,68.4583 48.8961,68.8336 52.4634,68.9907 C53.7749,69.0485 55.1021,69.1032 56.4158,68.9134 C60.3848,68.3421 64.3356,67.5571 68.2719,66.7142 C69.9852,66.3472 71.7909,66.1354 73.3483,65.2863 C75.4211,64.1556 77.218,62.5284 78.9382,60.8981 C80.1305,59.7678 81.0877,58.4068 82.0248,57.0629 C83.0392,55.6094 84.0197,54.1168 84.7783,52.5262 C85.6173,50.7658 86.2628,48.92 86.7945,47.0598 C87.1427,45.8434 87.2747,44.5843 87.4042,43.3383 C87.5091,42.3292 87.5248,41.3154 87.4959,40.309 C87.4677,39.3356 87.3583,38.3698 87.2326,37.4097 C87.1484,36.7669 87.0749,36.1131 86.8674,35.5056 C86.7486,35.1599 86.5387,34.8396 86.2697,34.5969 C85.7437,34.1223 85.1956,33.0721 84.5181,33.3852 C83.9355,33.6545 85.0278,34.5006 85.3326,35.0296 C85.6192,35.5268 86.1893,35.8847 86.2905,36.4577 C86.5796,38.0939 86.545,39.7968 86.4721,41.4775 C86.4231,42.6084 86.1465,43.7325 85.9266,44.8529 C85.6306,46.359 85.4256,47.891 84.9235,49.3535 C84.493,50.609 83.7978,51.7748 83.1498,52.9453 C82.6307,53.884 82.0135,54.77 81.4271,55.6715 C80.9155,56.4578 80.4278,57.2616 79.8571,58.0083 C79.3128,58.7216 78.7591,59.4437 78.0885,60.0423 C76.8265,61.1684 75.4852,62.2117 74.0856,63.1582 C73.3207,63.6754 72.4911,64.1154 71.625,64.4127 C70.0971,64.9381 68.5089,65.2209 66.9477,65.6093 C65.1853,66.048 63.4224,66.4823 61.6557,66.8934 C60.3094,67.207 59.2906,67.405 57.9249,67.5294 C57.3844,67.5784 56.5975,67.3918 56.0576,67.4018 C55.1228,67.4201 54.3135,67.6702 53.3784,67.6928 C52.5478,67.7129 51.6454,67.5935 50.8222,67.5294 C49.2422,67.4056 47.6481,67.4006 46.0644,67.305 C44.5318,67.2133 42.994,67.1467 41.4741,66.9675 C39.0675,66.6834 36.6775,66.3076 34.2922,65.9167 C31.931,65.5302 29.5906,65.0537 27.2367,64.6352 C26.5344,64.5107 25.8208,64.4334 25.1235,64.2882 C23.7209,63.9979 22.3388,63.6327 20.9395,63.3298 C19.3879,62.9935 17.7822,62.8351 16.2716,62.3707 C14.7465,61.9018 13.2966,61.2343 11.8714,60.5414 C11.0059,60.1208 10.1658,59.6343 9.41725,59.0391 C8.58191,58.3748 7.71407,57.6911 7.14835,56.7855 C6.45643,55.6775 6.05156,54.391 5.71669,53.1141 C5.3553,51.7353 5.11892,50.3055 5.07134,48.8638 C5.02068,47.3288 5.29923,45.7813 5.42406,44.2403 C5.50362,43.2584 5.60676,42.2772 5.68425,41.2952 C5.72071,40.8333 5.64919,40.3624 5.76583,39.9092 C5.90354,39.3744 6.17204,38.8717 6.435,38.379 C7.18713,36.9694 7.98766,35.5832 8.80748,34.2088 C9.58431,32.9066 10.3993,31.6253 11.2238,30.3506 C11.8134,29.4388 12.3085,28.4493 13.0492,27.6503 C13.7618,26.8817 14.7014,26.3606 15.5242,25.7116 C15.9262,25.3948 16.7951,25.239 16.7235,24.7527 Z" style="stroke:none;fill-rule:evenodd;fill:#000000;fill-opacity:1;"/>
        </g>
        <g id="Shape30">
            <desc shapeID="30" type="0" basicInfo-basicType="0" basicInfo-roundedRectRadius="12" basicInfo-polygonSides="6" basicInfo-starPoints="5" bounding="rect(0,0,0,0)" text="" font-familyName="Helvetica" font-pixelSize="20" font-bold="0" font-underline="0" font-alignment="1" strokeStyle="0" markerStart="0" markerEnd="0" shadowEnabled="0" shadowOffsetX="0" shadowOffsetY="2" shadowBlur="4" shadowOpacity="160" blurEnabled="0" blurRadius="4" transform="matrix(0.126976,0,-0.00745128,0.126609,-0.289737,4.26883)" pers-center="0,0" pers-size="0,0" pers-start="0,0" pers-end="0,0" locked="0" mesh="" flag=""/>
            <path id="shapePath30" d="M-0.289737,4.26883 Z" style="stroke:none;fill-rule:evenodd;fill:#000000;fill-opacity:1;"/>
        </g>
        <g id="Shape31">
            <desc shapeID="31" type="0" basicInfo-basicType="0" basicInfo-roundedRectRadius="12" basicInfo-polygonSides="6" basicInfo-starPoints="5" bounding="rect(-122.197,-70.273,244.393,140.543)" text="" font-familyName="Helvetica" font-pixelSize="20" font-bold="0" font-underline="0" font-alignment="1" strokeStyle="0" markerStart="0" markerEnd="0" shadowEnabled="0" shadowOffsetX="0" shadowOffsetY="2" shadowBlur="4" shadowOpacity="160" blurEnabled="0" blurRadius="4" transform="matrix(0.126976,0,0,0.144534,17.7466,65.0171)" pers-center="0,0" pers-size="0,0" pers-start="0,0" pers-end="0,0" locked="0" mesh="" flag=""/>
            <path id="shapePath31" d="M2.63758,55.4645 C2.32232,56.0473 2.19606,56.7841 2.23842,57.4669 C2.28813,58.2684 2.70275,58.9852 2.90369,59.7555 C3.25584,61.106 3.53665,62.48 3.8971,63.8275 C4.04027,64.363 4.13983,64.935 4.41316,65.4 C4.77952,66.0229 5.33021,66.4767 5.77808,67.0266 C6.44914,67.8506 6.97431,68.8549 7.76968,69.5205 C8.49736,70.1289 9.40631,70.3929 10.2481,70.765 C11.0088,71.1012 11.7757,71.4381 12.5716,71.643 C13.6943,71.9315 14.8615,71.9528 15.9843,72.2407 C16.8394,72.46 17.6333,72.9327 18.4867,73.1602 C19.2872,73.3732 20.1194,73.3889 20.9282,73.5568 C21.8903,73.7566 22.8413,74.0212 23.7959,74.2626 C24.934,74.5504 26.0478,74.9967 27.2063,75.145 C28.016,75.2487 28.8334,75.0381 29.6477,75.0124 C30.6938,74.9797 31.7735,75.2663 32.7868,74.9684 C33.1113,74.8735 33.3126,74.3292 33.2519,73.954 C33.1951,73.6039 32.8272,73.3217 32.5155,73.2922 C31.5074,73.1979 30.5029,73.6649 29.4928,73.6008 C27.4514,73.4725 25.4333,73.0414 23.4084,72.719 C22.1503,72.5185 20.8933,72.3029 19.6453,72.0333 C19.0831,71.9113 18.5388,71.7002 17.9829,71.5449 C17.3631,71.3721 16.7432,71.198 16.1187,71.0484 C14.5728,70.6776 12.9902,70.4827 11.4723,69.9837 C10.4212,69.6387 9.36206,69.2151 8.44947,68.5281 C7.68748,67.9543 7.18147,67.0304 6.55058,66.2781 C6.09918,65.7401 5.52813,65.3026 5.20275,64.6572 C4.72107,63.7012 4.46351,62.6177 4.1749,61.5655 C3.95304,60.7568 3.9015,59.8951 3.67505,59.0879 C3.49127,58.4327 2.96603,57.8846 2.94938,57.1972 C2.93071,56.4256 3.71194,55.7503 3.57587,54.9941 C3.5073,54.6129 2.81676,55.1332 2.63758,55.4645 Z" style="stroke:none;fill-rule:evenodd;fill:#000000;fill-opacity:1;"/>
        </g>
        <g id="Shape32">
            <desc shapeID="32" type="0" basicInfo-basicType="0" basicInfo-roundedRectRadius="12" basicInfo-polygonSides="6" basicInfo-starPoints="5" bounding="rect(-8.32683,-24.3186,16.6539,48.6372)" text="" font-familyName="Helvetica" font-pixelSize="20" font-bold="0" font-underline="0" font-alignment="1" strokeStyle="0" markerStart="0" markerEnd="0" shadowEnabled="0" shadowOffsetX="0" shadowOffsetY="2" shadowBlur="4" shadowOpacity="160" blurEnabled="0" blurRadius="4" transform="matrix(0.126976,0,0,0.144534,34.7044,70.1607)" pers-center="0,0" pers-size="0,0" pers-start="0,0" pers-end="0,0" locked="0" mesh="" flag=""/>
            <path id="shapePath32" d="M33.6648,72.9383 C33.5822,72.257 33.8083,71.5701 33.9438,70.9007 C34.1034,70.1113 34.3887,69.3602 34.5483,68.5715 C34.6607,68.0159 34.4491,67.327 34.7575,66.8777 C34.9531,66.5929 35.5856,66.5452 35.7107,66.8777 C35.9078,67.4012 35.4772,67.9857 35.3853,68.5451 C35.2524,69.3533 35.2115,70.1823 35.0366,70.9799 C34.8397,71.8774 34.7798,72.8924 34.2731,73.6158 C34.0964,73.8685 33.7035,73.2582 33.6648,72.9383 Z" style="stroke:none;fill-rule:evenodd;fill:#000000;fill-opacity:1;"/>
        </g>
        <g id="Shape33">
            <desc shapeID="33" type="0" basicInfo-basicType="0" basicInfo-roundedRectRadius="12" basicInfo-polygonSides="6" basicInfo-starPoints="5" bounding="rect(-20.558,-28.4795,41.116,56.9588)" text="" font-familyName="Helvetica" font-pixelSize="20" font-bold="0" font-underline="0" font-alignment="1" strokeStyle="0" markerStart="0" markerEnd="0" shadowEnabled="0" shadowOffsetX="0" shadowOffsetY="2" shadowBlur="4" shadowOpacity="160" blurEnabled="0" blurRadius="4" transform="matrix(0.126976,0,0,0.144534,38.0271,71.0112)" pers-center="0,0" pers-size="0,0" pers-start="0,0" pers-end="0,0" locked="0" mesh="" flag=""/>
            <path id="shapePath33" d="M35.7113,73.8082 C36.6255,73.3173 37.7062,73.35 38.6382,72.9044 C39.0135,72.7252 39.463,72.428 39.5457,71.9748 C39.5973,71.6914 39.0675,71.7404 38.8878,71.5355 C38.6638,71.2809 38.5392,70.9334 38.366,70.6317 C38.1535,70.2621 37.6471,69.9523 37.7306,69.5211 C37.8116,69.1032 38.5439,69.2616 38.7062,68.8757 C38.9317,68.3395 38.4575,67.5847 38.7517,67.0939 C38.9353,66.7871 39.5603,66.8525 39.7272,67.1712 C39.9394,67.5759 39.5638,68.0969 39.5231,68.5658 C39.488,68.9687 39.6493,69.4118 39.5004,69.7794 C39.3922,70.0466 38.7687,69.963 38.8424,70.2445 C38.9544,70.6726 39.5207,70.7021 39.8179,70.9931 C40.1222,71.2916 40.6805,71.5468 40.6348,72.0006 C40.5711,72.6322 40.0203,73.0986 39.5684,73.4725 C39.0777,73.8785 38.4547,74.0218 37.8894,74.2732 C37.2141,74.573 36.5666,75.0212 35.8475,75.1255 C35.6468,75.1544 35.4463,74.8609 35.4226,74.6321 C35.3923,74.3386 35.4766,73.9345 35.7113,73.8082 Z" style="stroke:none;fill-rule:evenodd;fill:#000000;fill-opacity:1;"/>
        </g>
        <g id="Shape34">
            <desc shapeID="34" type="0" basicInfo-basicType="0" basicInfo-roundedRectRadius="12" basicInfo-polygonSides="6" basicInfo-starPoints="5" bounding="rect(-78.4073,-30.5054,156.815,61.0108)" text="" font-familyName="Helvetica" font-pixelSize="20" font-bold="0" font-underline="0" font-alignment="1" strokeStyle="0" markerStart="0" markerEnd="0" shadowEnabled="0" shadowOffsetX="0" shadowOffsetY="2" shadowBlur="4" shadowOpacity="160" blurEnabled="0" blurRadius="4" transform="matrix(0.126976,0,0,0.144534,84.2377,73.9228)" pers-center="0,0" pers-size="0,0" pers-start="0,0" pers-end="0,0" locked="0" mesh="" flag=""/>
            <path id="shapePath34" d="M74.3439,72.7667 C75.4834,73.9973 77.064,74.5863 78.5291,75.2305 C78.969,75.424 79.397,75.5667 79.8514,75.7106 C80.3618,75.8728 80.8225,75.9419 81.3291,76.1179 C82.1976,76.4196 83.1178,76.4743 84.0134,76.6433 C85.09,76.847 86.1622,77.0933 87.2464,77.2348 C87.5908,77.28 88.3809,77.5402 88.7152,77.6439 C89.536,77.8972 89.8233,78.5018 90.6523,78.2862 C91.3713,78.0996 91.6088,76.9921 91.9514,76.2493 C92.759,74.4951 93.5201,72.7001 94.087,70.8278 C94.2071,70.4325 94.2888,69.792 93.972,69.5796 C93.6565,69.3678 93.1311,69.7028 92.9614,70.0723 C92.2097,71.7083 92.0186,73.6171 91.3449,75.2965 C91.1035,75.8986 90.739,76.4856 90.2481,76.8407 C90.0175,77.0079 89.6976,76.8765 89.4399,76.7715 C88.8843,76.5459 88.4029,76.2455 87.8234,76.1179 C87.2282,75.9865 86.6047,76.023 86.0051,75.9206 C84.5998,75.6811 83.2146,75.2839 81.8488,74.8364 C80.9677,74.5479 80.3649,74.5938 79.4831,74.3103 C79.0928,74.1846 78.4461,73.7843 78.0671,73.6209 C77.23,73.2595 76.5782,72.3764 75.7008,72.1753 C75.2257,72.0659 73.9925,72.3871 74.3439,72.7667 Z" style="stroke:none;fill-rule:evenodd;fill:#000000;fill-opacity:1;"/>
        </g>
        <g id="Shape35">
            <desc shapeID="35" type="0" basicInfo-basicType="0" basicInfo-roundedRectRadius="12" basicInfo-polygonSides="6" basicInfo-starPoints="5" bounding="rect(-83.1344,-72.52,166.271,145.039)" text="" font-familyName="Helvetica" font-pixelSize="20" font-bold="0" font-underline="0" font-alignment="1" strokeStyle="0" markerStart="0" markerEnd="0" shadowEnabled="0" shadowOffsetX="0" shadowOffsetY="2" shadowBlur="4" shadowOpacity="160" blurEnabled="0" blurRadius="4" transform="matrix(0.126976,0,0,0.144534,89.4436,69.8548)" pers-center="0,0" pers-size="0,0" pers-start="0,0" pers-end="0,0" locked="0" mesh="" flag=""/>
            <path id="shapePath35" d="M79.9287,60.4814 C81.4133,60.8685 82.8381,61.5114 84.2811,62.0658 C85.6638,62.5963 87.022,63.2078 88.406,63.7364 C89.4606,64.1393 90.5442,64.4416 91.5944,64.8595 C92.1148,65.0669 92.6434,65.2781 93.1122,65.6087 C94.1775,66.3585 95.1442,67.2761 96.1743,68.0856 C96.6959,68.4954 97.2251,68.8951 97.7688,69.2666 C98.1535,69.5293 98.731,69.5457 98.9579,69.9869 C99.1094,70.2804 98.88,70.7524 98.6292,70.9372 C97.9567,71.4324 97.1573,71.6832 96.3767,71.8881 C95.9656,71.9956 95.4987,71.6681 95.1115,71.8592 C94.845,71.9905 94.5854,72.4104 94.6816,72.7234 C94.8846,73.3858 95.4389,73.8346 95.8707,74.3361 C96.2063,74.7264 96.5954,75.0532 96.9744,75.3876 C97.2666,75.6446 97.5834,75.7791 97.6657,76.1889 C97.7556,76.632 97.7097,77.1059 97.3684,77.3429 C96.4992,77.9475 95.4182,78.0267 94.4792,78.4767 C94.1876,78.6168 93.9978,78.9688 93.7024,79.0995 C93.3724,79.246 93.0029,79.3446 92.6522,79.2862 C92.3002,79.2277 92.0444,78.7633 91.6893,78.7633 C91.4775,78.7633 91.1507,79.0744 91.2512,79.2862 C91.4882,79.7865 91.9344,80.305 92.4334,80.3326 C93.4032,80.3867 94.3259,79.8286 95.2567,79.5106 C96.0278,79.2466 96.8392,79.0555 97.5325,78.5885 C98.0303,78.2542 98.4652,77.7495 98.7361,77.1688 C99.0007,76.6037 99.3828,75.8238 99.0755,75.2877 C98.5965,74.453 97.5055,74.3832 96.7997,73.7931 C96.6061,73.6316 96.2453,73.2457 96.4383,73.0829 C97.0636,72.5568 97.9837,72.6951 98.6487,72.2363 C99.1088,71.9189 99.4846,71.3997 99.6952,70.836 C99.934,70.198 100.09,69.4476 99.9428,68.7738 C99.8755,68.4653 99.4199,68.5495 99.1666,68.4156 C98.7983,68.2208 98.4344,68.0159 98.0812,67.789 C96.7318,66.9229 95.4138,65.9959 94.0613,65.1367 C93.456,64.7521 92.8464,64.3718 92.2103,64.0582 C91.2801,63.6 90.3305,63.1915 89.3695,62.8244 C88.132,62.3512 86.8599,62.0005 85.6186,61.5404 C84.7054,61.2024 83.8192,60.7745 82.9078,60.43 C81.9896,60.083 81.0462,59.8271 80.1324,59.4674 C79.1475,59.0798 78.0093,59.9811 79.9287,60.4814 Z" style="stroke:none;fill-rule:evenodd;fill:#000000;fill-opacity:1;"/>
        </g>
        <g id="Shape36">
            <desc shapeID="36" type="0" basicInfo-basicType="0" basicInfo-roundedRectRadius="12" basicInfo-polygonSides="6" basicInfo-starPoints="5" bounding="rect(0,0,0,0)" text="" font-familyName="Helvetica" font-pixelSize="20" font-bold="0" font-underline="0" font-alignment="1" strokeStyle="0" markerStart="0" markerEnd="0" shadowEnabled="0" shadowOffsetX="0" shadowOffsetY="2" shadowBlur="4" shadowOpacity="160" blurEnabled="0" blurRadius="4" transform="matrix(0.126976,0,-0.00745128,0.126609,-0.289737,4.26883)" pers-center="0,0" pers-size="0,0" pers-start="0,0" pers-end="0,0" locked="0" mesh="" flag=""/>
            <path id="shapePath36" d="M-0.289737,4.26883 Z" style="stroke:none;fill-rule:evenodd;fill:#000000;fill-opacity:1;"/>
        </g>
        <g id="Shape37">
            <desc shapeID="37" type="0" basicInfo-basicType="0" basicInfo-roundedRectRadius="12" basicInfo-polygonSides="6" basicInfo-starPoints="5" bounding="rect(-28.3472,-32.9452,56.6943,65.8905)" text="" font-familyName="Helvetica" font-pixelSize="20" font-bold="0" font-underline="0" font-alignment="1" strokeStyle="0" markerStart="0" markerEnd="0" shadowEnabled="0" shadowOffsetX="0" shadowOffsetY="2" shadowBlur="4" shadowOpacity="160" blurEnabled="0" blurRadius="4" transform="matrix(0.126976,0,-0.00745128,0.126609,24.0783,16.7725)" pers-center="0,0" pers-size="0,0" pers-start="0,0" pers-end="0,0" locked="0" mesh="" flag=""/>
            <path id="shapePath37" d="M20.9675,20.8738 C21.2593,21.1774 21.8855,20.4188 21.975,19.9906 C22.1217,19.2881 21.6502,18.6241 21.5841,17.922 C21.5277,17.3241 21.588,16.714 21.6092,16.1092 C21.6292,15.5306 21.5608,14.9405 21.7076,14.3729 C21.7394,14.2499 21.9723,14.2291 22.0801,14.2878 C22.6245,14.5842 23.0947,14.9954 23.5711,15.3875 C24.0371,15.771 24.4482,16.2159 24.9037,16.6114 C25.1272,16.8053 25.3651,16.965 25.4966,17.2313 C25.6511,17.544 25.5925,17.8795 25.6955,18.2149 C25.8007,18.5573 25.9982,18.8665 26.2185,19.1443 C26.4169,19.3944 26.6064,19.8084 26.936,19.7791 C27.2505,19.7511 27.5147,19.3395 27.5447,19.0264 C27.5761,18.7009 27.2354,18.471 27.0886,18.1887 C26.8894,17.8054 26.6984,17.4177 26.5069,17.0303 C26.3093,16.6301 26.251,16.1241 25.9215,15.8259 C25.0566,15.0432 23.9453,14.5683 23.0113,13.8668 C22.5699,13.5352 22.2929,12.9992 21.8057,12.7348 C21.5582,12.6005 21.1296,12.5148 20.9388,12.7421 C20.641,13.0966 20.7297,13.6292 20.6781,14.078 C20.5851,14.8874 20.5334,15.6996 20.5059,16.5102 C20.4834,17.1698 20.4592,17.8338 20.528,18.485 C20.6136,19.2934 20.4154,20.2994 20.9675,20.8738 Z" style="stroke:none;fill-rule:evenodd;fill:#000000;fill-opacity:1;"/>
        </g>
        <g id="Shape38">
            <desc shapeID="38" type="0" basicInfo-basicType="0" basicInfo-roundedRectRadius="12" basicInfo-polygonSides="6" basicInfo-starPoints="5" bounding="rect(-40.6614,-28.9924,81.3231,57.985)" text="" font-familyName="Helvetica" font-pixelSize="20" font-bold="0" font-underline="0" font-alignment="1" strokeStyle="0" markerStart="0" markerEnd="0" shadowEnabled="0" shadowOffsetX="0" shadowOffsetY="2" shadowBlur="4" shadowOpacity="160" blurEnabled="0" blurRadius="4" transform="matrix(0.126976,0,-0.00745128,0.126609,78.2906,25.2279)" pers-center="0,0" pers-size="0,0" pers-start="0,0" pers-end="0,0" locked="0" mesh="" flag=""/>
            <path id="shapePath38" d="M73.7751,25.7028 C73.4351,26.0411 72.87,26.556 73.0856,26.9556 C73.2754,27.3089 73.9398,26.8999 74.3099,26.6956 C75.0924,26.2633 75.692,25.5367 76.4663,25.0884 C77.201,24.6631 78.0024,24.366 78.8006,24.0956 C79.8206,23.7501 80.8545,23.4206 81.9085,23.2447 C82.0814,23.2159 82.3717,23.3327 82.3435,23.5047 C82.2171,24.2779 81.7055,24.9654 81.5019,25.7266 C81.2775,26.5648 81.0663,27.4246 81.067,28.2793 C81.0676,28.5373 81.2524,28.8476 81.505,28.8938 C81.7357,28.9361 82.0147,28.6938 82.099,28.4683 C82.3541,27.7878 82.3152,27.0468 82.461,26.3412 C82.5358,25.9818 82.6558,25.6309 82.7608,25.2774 C83.0304,24.3702 83.41,23.4841 83.5847,22.5592 C83.6432,22.2482 83.6966,21.8174 83.449,21.6375 C83.1875,21.4469 82.7746,21.6441 82.4478,21.7321 C81.363,22.024 80.309,22.439 79.2343,22.772 C78.4015,23.03 77.5222,23.1391 76.7259,23.5047 C76.2941,23.7027 76.0113,24.1413 75.6285,24.4265 C75.0264,24.8749 74.308,25.1735 73.7751,25.7028 Z" style="stroke:none;fill-rule:evenodd;fill:#000000;fill-opacity:1;"/>
        </g>
        <g id="Shape39">
            <desc shapeID="39" type="0" basicInfo-basicType="0" basicInfo-roundedRectRadius="12" basicInfo-polygonSides="6" basicInfo-starPoints="5" bounding="rect(0,0,0,0)" text="" font-familyName="Helvetica" font-pixelSize="20" font-bold="0" font-underline="0" font-alignment="1" strokeStyle="0" markerStart="0" markerEnd="0" shadowEnabled="0" shadowOffsetX="0" shadowOffsetY="2" shadowBlur="4" shadowOpacity="160" blurEnabled="0" blurRadius="4" transform="matrix(0.126976,0,0,0.144534,34.5422,80.3364)" pers-center="0,0" pers-size="0,0" pers-start="0,0" pers-end="0,0" locked="0" mesh="" flag=""/>
            <path id="shapePath39" d="M34.5422,80.3364 Z" style="stroke:none;fill-rule:evenodd;fill:#000000;fill-opacity:1;"/>
        </g>
        <g id="Shape40">
            <desc shapeID="40" type="0" basicInfo-basicType="0" basicInfo-roundedRectRadius="12" basicInfo-polygonSides="6" basicInfo-starPoints="5" bounding="rect(0,0,0,0)" text="" font-familyName="Helvetica" font-pixelSize="20" font-bold="0" font-underline="0" font-alignment="1" strokeStyle="0" markerStart="0" markerEnd="0" shadowEnabled="0" shadowOffsetX="0" shadowOffsetY="2" shadowBlur="4" shadowOpacity="160" blurEnabled="0" blurRadius="4" transform="matrix(0.126976,0,0,0.144534,55.4645,78.2994)" pers-center="0,0" pers-size="0,0" pers-start="0,0" pers-end="0,0" locked="0" mesh="" flag=""/>
            <path id="shapePath40" d="M55.4645,78.2994 Z" style="stroke:none;fill-rule:evenodd;fill:#000000;fill-opacity:1;"/>
        </g>
        <g id="Shape41">
            <desc shapeID="41" type="0" basicInfo-basicType="0" basicInfo-roundedRectRadius="12" basicInfo-polygonSides="6" basicInfo-starPoints="5" bounding="rect(0,0,0,0)" text="" font-familyName="Helvetica" font-pixelSize="20" font-bold="0" font-underline="0" font-alignment="1" strokeStyle="0" markerStart="0" markerEnd="0" shadowEnabled="0" shadowOffsetX="0" shadowOffsetY="2" shadowBlur="4" shadowOpacity="160" blurEnabled="0" blurRadius="4" transform="matrix(0.126976,0,0,0.144534,57.8865,80.5533)" pers-center="0,0" pers-size="0,0" pers-start="0,0" pers-end="0,0" locked="0" mesh="" flag=""/>
            <path id="shapePath41" d="M57.8865,80.5533 Z" style="stroke:none;fill-rule:evenodd;fill:#000000;fill-opacity:1;"/>
        </g>
        <g id="Shape42">
            <desc shapeID="42" type="0" basicInfo-basicType="0" basicInfo-roundedRectRadius="12" basicInfo-polygonSides="6" basicInfo-starPoints="5" bounding="rect(-173.233,-38.4755,346.467,76.951)" text="" font-familyName="Helvetica" font-pixelSize="20" font-bold="0" font-underline="0" font-alignment="1" strokeStyle="0" markerStart="0" markerEnd="0" shadowEnabled="0" shadowOffsetX="0" shadowOffsetY="2" shadowBlur="4" shadowOpacity="160" blurEnabled="0" blurRadius="4" transform="matrix(0.126976,0,-0.00745128,0.126609,50.0004,22.728)" pers-center="0,0" pers-size="0,0" pers-start="0,0" pers-end="0,0" locked="0" mesh="" flag=""/>
            <path id="shapePath42" d="M28.1998,20.1743 C28.5775,20.626 29.3487,20.5521 29.9547,20.5684 C30.5869,20.5855 31.2154,20.3417 31.849,20.2729 C34.2431,20.0132 36.6432,19.8793 39.0351,19.5834 C39.7432,19.4959 40.4278,19.1335 41.1366,19.1237 C42.0252,19.1114 42.859,19.5342 43.7477,19.5177 C44.6635,19.5008 45.565,18.9855 46.4768,19.0252 C47.869,19.0858 49.1784,19.6003 50.5465,19.8131 C51.4321,19.951 52.3615,19.8748 53.2312,20.0758 C55.1656,20.523 57.05,21.1344 58.928,21.7503 C60.7563,22.3499 62.6192,22.8936 64.3444,23.7204 C65.1099,24.0875 65.5857,24.8837 66.3261,25.2964 C67.4071,25.899 68.6497,26.1967 69.764,26.7409 C70.224,26.9654 70.5194,27.5088 71.031,27.5947 C71.3057,27.6407 71.6331,27.3404 71.7205,27.0693 C71.8142,26.778 71.696,26.4072 71.4741,26.2156 C71.0524,25.8508 70.4635,25.7215 69.9343,25.5261 C69.2153,25.2609 68.3876,25.2287 67.7358,24.8367 C66.5592,24.1295 65.7365,23.1373 64.5367,22.4674 C63.9283,22.1278 63.1201,22.0742 62.4438,21.8818 C61.0008,21.4711 59.6011,20.9417 58.18,20.4699 C56.8665,20.0334 55.5941,19.4751 54.2402,19.1566 C53.0709,18.8815 51.8339,18.8964 50.6452,18.697 C49.289,18.4693 47.9872,17.9905 46.6102,17.8761 C45.4655,17.7809 44.296,18.0664 43.1412,18.073 C42.4035,18.0773 41.6833,17.8565 40.9447,17.9089 C39.9721,17.9779 39.0194,18.3123 38.049,18.4343 C37.6212,18.4881 37.1932,18.3895 36.7648,18.4343 C35.721,18.5431 34.6848,18.7585 33.6425,18.8938 C32.6604,19.0213 31.6742,19.0882 30.6925,19.2223 C30.1511,19.2962 29.5922,19.3205 29.0758,19.5177 C28.7376,19.6469 27.9789,19.9102 28.1998,20.1743 Z" style="stroke:none;fill-rule:evenodd;fill:#060606;fill-opacity:1;"/>
        </g>
        <g id="Shape43">
            <desc shapeID="43" type="0" basicInfo-basicType="0" basicInfo-roundedRectRadius="12" basicInfo-polygonSides="6" basicInfo-starPoints="5" bounding="rect(0,0,0,0)" text="" font-familyName="Helvetica" font-pixelSize="20" font-bold="0" font-underline="0" font-alignment="1" strokeStyle="0" markerStart="0" markerEnd="0" shadowEnabled="0" shadowOffsetX="0" shadowOffsetY="2" shadowBlur="4" shadowOpacity="160" blurEnabled="0" blurRadius="4" transform="matrix(0.126976,0,-0.00745128,0.126609,44.1542,19.3296)" pers-center="0,0" pers-size="0,0" pers-start="0,0" pers-end="0,0" locked="0" mesh="" flag=""/>
            <path id="shapePath43" d="M44.1542,19.3296 Z" style="stroke:none;fill-rule:evenodd;fill:#000000;fill-opacity:1;"/>
        </g>
        <g id="Shape44">
            <desc shapeID="44" type="0" basicInfo-basicType="0" basicInfo-roundedRectRadius="12" basicInfo-polygonSides="6" basicInfo-starPoints="5" bounding="rect(-6.44836,-19.6947,12.897,39.3895)" text="" font-familyName="Helvetica" font-pixelSize="20" font-bold="0" font-underline="0" font-alignment="1" strokeStyle="0" markerStart="0" markerEnd="0" shadowEnabled="0" shadowOffsetX="0" shadowOffsetY="2" shadowBlur="4" shadowOpacity="160" blurEnabled="0" blurRadius="4" transform="matrix(0.126976,0,-0.00745128,0.126609,43.552,21.7336)" pers-center="0,0" pers-size="0,0" pers-start="0,0" pers-end="0,0" locked="0" mesh="" flag=""/>
            <path id="shapePath44" d="M44.0216,19.2474 C43.5628,19.3573 43.5166,20.0644 43.356,20.5088 C43.2012,20.9376 43.1977,21.3991 43.0853,21.8386 C42.9592,22.3324 42.6529,22.8026 42.6416,23.3055 C42.6345,23.6121 42.8141,23.9127 43.0339,24.1145 C43.162,24.232 43.4283,24.2763 43.5678,24.1555 C43.6934,24.0469 43.5557,23.8349 43.541,23.6757 C43.5249,23.5011 43.4237,23.3264 43.4753,23.1547 C43.6458,22.5896 44.0033,22.0841 44.1901,21.5232 C44.3281,21.1094 44.4754,20.6738 44.444,20.2482 C44.4168,19.8815 44.3874,19.1599 44.0216,19.2474 Z" style="stroke:none;fill-rule:evenodd;fill:#000000;fill-opacity:1;"/>
        </g>
        <g id="Shape45">
            <desc shapeID="45" type="0" basicInfo-basicType="0" basicInfo-roundedRectRadius="12" basicInfo-polygonSides="6" basicInfo-starPoints="5" bounding="rect(-5.85532,-18.9371,11.7107,37.8741)" text="" font-familyName="Helvetica" font-pixelSize="20" font-bold="0" font-underline="0" font-alignment="1" strokeStyle="0" markerStart="0" markerEnd="0" shadowEnabled="0" shadowOffsetX="0" shadowOffsetY="2" shadowBlur="4" shadowOpacity="160" blurEnabled="0" blurRadius="4" transform="matrix(0.126976,0,-0.00745128,0.126609,47.0429,22.2059)" pers-center="0,0" pers-size="0,0" pers-start="0,0" pers-end="0,0" locked="0" mesh="" flag=""/>
            <path id="shapePath45" d="M47.2408,19.9192 C46.9022,20.4558 46.8046,21.1003 46.627,21.7015 C46.4724,22.2258 46.2189,22.7562 46.2448,23.2918 C46.2666,23.7451 46.4571,24.2053 46.7633,24.5258 C46.8991,24.6677 47.2042,24.5947 47.3715,24.4709 C47.5017,24.3746 47.4957,24.1575 47.4678,24.0048 C47.4265,23.7782 47.2091,23.6159 47.1741,23.3878 C47.124,23.0614 47.1281,22.7128 47.2192,22.3869 C47.3469,21.9303 47.7188,21.5466 47.8184,21.0845 C47.9017,20.6983 47.921,20.2615 47.7514,19.9192 C47.6778,19.7707 47.3337,19.7719 47.2408,19.9192 Z" style="stroke:none;fill-rule:evenodd;fill:#000000;fill-opacity:1;"/>
        </g>
        <g id="Shape46">
            <desc shapeID="46" type="0" basicInfo-basicType="0" basicInfo-roundedRectRadius="12" basicInfo-polygonSides="6" basicInfo-starPoints="5" bounding="rect(-5.00121,-16.3114,10.0023,32.6228)" text="" font-familyName="Helvetica" font-pixelSize="20" font-bold="0" font-underline="0" font-alignment="1" strokeStyle="0" markerStart="0" markerEnd="0" shadowEnabled="0" shadowOffsetX="0" shadowOffsetY="2" shadowBlur="4" shadowOpacity="160" blurEnabled="0" blurRadius="4" transform="matrix(0.126976,0,-0.00745128,0.126609,51.0463,22.846)" pers-center="0,0" pers-size="0,0" pers-start="0,0" pers-end="0,0" locked="0" mesh="" flag=""/>
            <path id="shapePath46" d="M50.7665,20.9294 C50.6039,21.3361 50.855,21.7829 50.814,22.2121 C50.7617,22.759 50.5867,23.2947 50.4888,23.8381 C50.4282,24.1746 50.2292,24.5372 50.3391,24.8512 C50.3897,24.9957 50.7029,24.8501 50.7975,24.7205 C51.1493,24.2378 51.408,23.6867 51.5959,23.1272 C51.708,22.7938 51.7195,22.4306 51.6816,22.0895 C51.635,21.6707 51.602,21.2057 51.3461,20.8812 C51.2302,20.7343 50.8393,20.7472 50.7665,20.9294 Z" style="stroke:none;fill-rule:evenodd;fill:#000000;fill-opacity:1;"/>
        </g>
        <g id="Shape47">
            <desc shapeID="47" type="0" basicInfo-basicType="0" basicInfo-roundedRectRadius="12" basicInfo-polygonSides="6" basicInfo-starPoints="5" bounding="rect(-3.69506,-15.4595,7.39021,30.9192)" text="" font-familyName="" font-pixelSize="20" font-bold="0" font-underline="0" font-alignment="1" strokeStyle="0" markerStart="0" markerEnd="0" shadowEnabled="0" shadowOffsetX="0" shadowOffsetY="2" shadowBlur="4" shadowOpacity="160" blurEnabled="0" blurRadius="4" transform="matrix(0.217186,0.0135104,-0.0135104,0.217186,70.6828,86.1426)" pers-center="0,0" pers-size="0,0" pers-start="0,0" pers-end="0,0" locked="0" mesh="" flag=""/>
            <path id="shapePath47" d="M70.2529,83.0013 C69.8922,83.5456 69.8199,86.8119 70.1637,88.9915 C70.236,89.5848 70.6879,89.6785 71.1316,89.2046 C71.3648,88.957 71.3786,88.7401 71.2171,88.1852 C71.1109,87.7861 71.0166,86.4939 71.004,85.2941 C71.0134,84.0949 70.9694,83.0459 70.911,82.9334 C70.774,82.6851 70.466,82.731 70.2529,83.0013 Z" style="stroke:none;fill-rule:evenodd;fill:#000000;fill-opacity:1;"/>
        </g>
        <g id="Shape48">
            <desc shapeID="48" type="0" basicInfo-basicType="0" basicInfo-roundedRectRadius="12" basicInfo-polygonSides="6" basicInfo-starPoints="5" bounding="rect(-9.68796,-19.8321,19.376,39.664)" text="" font-familyName="" font-pixelSize="20" font-bold="0" font-underline="0" font-alignment="1" strokeStyle="0" markerStart="0" markerEnd="0" shadowEnabled="0" shadowOffsetX="0" shadowOffsetY="2" shadowBlur="4" shadowOpacity="160" blurEnabled="0" blurRadius="4" transform="matrix(0.217186,0.0135104,-0.0135104,0.217186,63.602,86.9056)" pers-center="0,0" pers-size="0,0" pers-start="0,0" pers-end="0,0" locked="0" mesh="" flag=""/>
            <path id="shapePath48" d="M62.2238,82.7417 C62.1465,82.9334 62.1314,83.1722 62.1899,83.2847 C62.2471,83.4192 62.1509,83.5657 61.9511,83.6185 C61.6619,83.7096 61.6123,84.1646 61.5488,86.9294 C61.4753,90.2171 61.6538,91.2089 62.2465,91.1372 C62.621,91.0731 62.7103,90.3372 62.6192,88.3039 C62.5607,87.145 62.6757,87.0432 63.8378,86.9407 C64.5179,86.8741 64.6806,86.7101 65.3154,85.6158 C65.8308,84.6882 65.9666,84.2608 65.8296,84.0125 C65.5159,83.4481 64.5053,82.8617 63.4073,82.6411 C62.5902,82.4595 62.3489,82.4878 62.2238,82.7417 M64.2941,84.1571 C65.0722,84.6197 64.4588,85.7151 63.2929,85.8823 C62.5871,86.0131 62.5884,85.9911 62.6412,85.1438 C62.6707,84.6662 62.6393,84.1194 62.5865,83.9195 C62.4953,83.6304 62.6066,83.5939 63.1867,83.7391 C63.594,83.8516 64.0836,84.0345 64.2941,84.1571 Z" style="stroke:none;fill-rule:evenodd;fill:#000000;fill-opacity:1;"/>
        </g>
        <g id="Shape49">
            <desc shapeID="49" type="0" basicInfo-basicType="0" basicInfo-roundedRectRadius="12" basicInfo-polygonSides="6" basicInfo-starPoints="5" bounding="rect(-12.4268,-16.7904,24.8536,33.5805)" text="" font-familyName="" font-pixelSize="20" font-bold="0" font-underline="0" font-alignment="1" strokeStyle="0" markerStart="0" markerEnd="0" shadowEnabled="0" shadowOffsetX="0" shadowOffsetY="2" shadowBlur="4" shadowOpacity="160" blurEnabled="0" blurRadius="4" transform="matrix(0.217186,0.0135104,-0.0135104,0.217186,77.3983,87.7421)" pers-center="0,0" pers-size="0,0" pers-start="0,0" pers-end="0,0" locked="0" mesh="" flag=""/>
            <path id="shapePath49" d="M77.301,84.3117 C76.7033,84.4494 76.4047,84.692 76.0591,85.3468 C75.2967,86.7384 74.6588,88.2248 74.6292,88.7024 C74.5777,89.5277 75.8215,90.5647 77.487,91.1259 C79.1965,91.6903 79.7446,91.6369 79.6805,90.9135 C79.6616,90.5201 79.431,90.3749 78.4669,90.0965 C76.6033,89.5666 75.9491,89.2203 75.8944,88.6936 C75.8416,88.1456 76.3488,86.651 76.7799,86.0238 C77.2809,85.3355 78.3097,84.9195 79.0602,85.1187 C79.876,85.3223 80.4146,85.0722 80.2707,84.5839 C80.1431,84.1835 78.6039,84.044 77.301,84.3117 Z" style="stroke:none;fill-rule:evenodd;fill:#000000;fill-opacity:1;"/>
        </g>
        <g id="Shape50">
            <desc shapeID="50" type="0" basicInfo-basicType="0" basicInfo-roundedRectRadius="12" basicInfo-polygonSides="6" basicInfo-starPoints="5" bounding="rect(-16.767,-19.0566,33.5341,38.1132)" text="" font-familyName="" font-pixelSize="20" font-bold="0" font-underline="0" font-alignment="1" strokeStyle="0" markerStart="0" markerEnd="0" shadowEnabled="0" shadowOffsetX="0" shadowOffsetY="2" shadowBlur="4" shadowOpacity="160" blurEnabled="0" blurRadius="4" transform="matrix(0.217186,0.0135104,-0.0135104,0.217186,52.4264,86.7817)" pers-center="0,0" pers-size="0,0" pers-start="0,0" pers-end="0,0" locked="0" mesh="" flag=""/>
            <path id="shapePath50" d="M55.1616,83.2351 C55.0816,83.4702 54.8956,83.6543 54.7653,83.6468 C54.6133,83.6367 54.3608,83.8391 54.1926,84.0905 C54.023,84.3633 53.6512,84.7328 53.3336,84.9308 C52.6972,85.3494 52.3795,85.1985 50.8751,83.797 C50.0509,83.0264 49.8391,82.9259 49.4361,83.0968 C49.1891,83.2125 48.9814,83.3954 48.976,83.4827 C48.9598,83.7429 50.9897,85.8101 51.272,85.8277 C51.3806,85.834 51.3956,85.9439 51.3223,86.0703 C51.2287,86.1734 51.2981,86.4612 51.4596,86.6674 C51.7814,87.1017 52.1321,88.8244 52.0754,89.7363 C52.0173,90.6703 52.8455,91.3761 53.1725,90.6766 C53.2986,90.4013 53.018,86.8515 52.855,86.6674 C52.8143,86.6208 53.6041,85.8415 54.6177,84.9673 C55.611,84.0698 56.3819,83.2458 56.3033,83.11 C56.0896,82.682 55.2985,82.7857 55.1616,83.2351 Z" style="stroke:none;fill-rule:evenodd;fill:#000000;fill-opacity:1;"/>
        </g>
        <g id="Shape51">
            <desc shapeID="51" type="0" basicInfo-basicType="0" basicInfo-roundedRectRadius="12" basicInfo-polygonSides="6" basicInfo-starPoints="5" bounding="rect(-18.3876,-27.0019,36.775,54.0039)" text="" font-familyName="" font-pixelSize="20" font-bold="0" font-underline="0" font-alignment="1" strokeStyle="0" markerStart="0" markerEnd="0" shadowEnabled="0" shadowOffsetX="0" shadowOffsetY="2" shadowBlur="4" shadowOpacity="160" blurEnabled="0" blurRadius="4" transform="matrix(0.217186,0.0135104,-0.0135104,0.217186,34.677,87.8234)" pers-center="0,0" pers-size="0,0" pers-start="0,0" pers-end="0,0" locked="0" mesh="" flag=""/>
            <path id="shapePath51" d="M33.492,82.1484 C33.3848,82.4689 31.6068,87.2204 31.2174,88.221 C30.7767,89.3492 30.6818,89.8224 30.4745,91.4012 C30.2673,92.98 30.4236,93.6223 30.9583,93.4376 C31.2027,93.3653 31.3681,92.8091 31.5414,91.4245 C31.7852,89.6081 32.2029,88.1512 32.5083,88.1487 C32.5966,88.1324 33.4029,88.1387 34.3408,88.1317 L35.9981,88.1255 L36.6106,89.1449 C36.9474,89.6892 37.2123,90.3378 37.1974,90.5766 C37.1812,90.8375 37.3631,91.0668 37.6415,91.1498 C38.923,91.5778 38.7679,90.5653 37.1586,87.6968 C36.3912,86.3625 35.6484,84.9861 35.4936,84.6712 C35.3184,84.3337 35.1269,83.9076 35.0291,83.7266 C34.9096,83.5449 34.7221,83.0534 34.5944,82.6531 C34.3552,81.941 33.6778,81.6148 33.492,82.1484 M34.3222,84.9257 C34.4743,85.284 34.746,85.8239 34.9429,86.1633 C35.2566,86.7277 35.2552,86.7497 34.8792,86.8351 C34.0405,87.0011 32.85,86.8615 32.8649,86.6227 C32.8906,86.2098 33.7506,84.3016 33.9243,84.3123 C33.9894,84.3161 34.1904,84.5901 34.3222,84.9257 Z" style="stroke:none;fill-rule:evenodd;fill:#000000;fill-opacity:1;"/>
        </g>
        <g id="Shape52">
            <desc shapeID="52" type="0" basicInfo-basicType="0" basicInfo-roundedRectRadius="12" basicInfo-polygonSides="6" basicInfo-starPoints="5" bounding="rect(-15.2547,-17.2984,30.5094,34.5969)" text="" font-familyName="" font-pixelSize="20" font-bold="0" font-underline="0" font-alignment="1" strokeStyle="0" markerStart="0" markerEnd="0" shadowEnabled="0" shadowOffsetX="0" shadowOffsetY="2" shadowBlur="4" shadowOpacity="160" blurEnabled="0" blurRadius="4" transform="matrix(0.217186,0.0135104,-0.0135104,0.217186,43.9132,86.8716)" pers-center="0,0" pers-size="0,0" pers-start="0,0" pers-end="0,0" locked="0" mesh="" flag=""/>
            <path id="shapePath52" d="M41.0665,83.056 C40.7748,83.1905 40.745,83.3193 40.8971,83.6776 C41.071,84.0371 41.3275,84.1188 42.4135,84.186 L43.7383,84.2684 L43.5429,84.954 C43.4318,85.3393 43.0683,86.2764 42.7183,86.9961 C42.367,87.7371 42.0225,88.7188 41.9303,89.1487 C41.7744,89.9023 41.8124,89.9915 42.426,90.2919 C43.2515,90.6917 46.2486,90.8783 46.706,90.5358 C46.8878,90.4164 47.037,90.1203 47.0506,89.9035 C47.0736,89.534 46.9445,89.5044 45.5044,89.5239 C44.6316,89.5352 43.699,89.4554 43.467,89.3316 L42.9999,89.1279 L43.5221,87.7433 C43.8096,86.9766 44.3223,85.7441 44.6737,85.0024 C45.0536,84.154 45.2203,83.5757 45.0981,83.4375 C44.8537,83.1609 41.5158,82.8442 41.0665,83.056 Z" style="stroke:none;fill-rule:evenodd;fill:#000000;fill-opacity:1;"/>
        </g>
        <g id="Shape53">
            <desc shapeID="53" type="0" basicInfo-basicType="0" basicInfo-roundedRectRadius="12" basicInfo-polygonSides="6" basicInfo-starPoints="5" bounding="rect(-18.9858,-21.0594,37.9717,42.1188)" text="" font-familyName="" font-pixelSize="20" font-bold="0" font-underline="0" font-alignment="1" strokeStyle="0" markerStart="0" markerEnd="0" shadowEnabled="0" shadowOffsetX="0" shadowOffsetY="2" shadowBlur="4" shadowOpacity="160" blurEnabled="0" blurRadius="4" transform="matrix(0.217186,0.0135104,-0.0135104,0.217186,22.9786,87.7962)" pers-center="0,0" pers-size="0,0" pers-start="0,0" pers-end="0,0" locked="0" mesh="" flag=""/>
            <path id="shapePath53" d="M19.2345,83.1804 C19.0201,83.472 18.8462,87.6692 19.0068,88.9438 C19.136,90.0204 19.2977,90.5754 19.8151,91.7193 C20.1017,92.3698 20.4927,92.3936 22.7485,91.8801 C23.5439,91.7117 24.4031,91.5684 24.6202,91.5822 C25.9885,91.6671 27.2561,90.9179 26.884,90.2404 C26.8256,90.1279 25.752,90.214 24.5182,90.4201 C23.2626,90.6256 21.8985,90.8243 21.4601,90.8626 L20.6485,90.943 L20.249,89.6534 C19.9405,88.6528 19.8643,87.776 19.9126,85.9477 C19.9733,84.6216 20.0042,83.4243 20.0136,83.2722 C20.0108,82.9667 19.4488,82.8881 19.2345,83.1804 Z" style="stroke:none;fill-rule:evenodd;fill:#000000;fill-opacity:1;"/>
        </g>
    </g>
</svg>
