<svg width="248" height="360" viewBox="0 0 248 360" fill="none" xmlns="http://www.w3.org/2000/svg">
<path d="M1.33997 295.95H4.72997V315H11.06V318H1.33997V295.95Z" fill="black"/>
<path d="M44.8592 295.92L55.4792 318H51.6092L49.7192 313.68H39.6092L37.7192 318H33.9692L44.5292 295.92H44.8592ZM43.3592 305.31L40.9592 310.65H48.3992L46.0292 305.34L44.7392 302.31H44.6792L43.3592 305.31Z" fill="black"/>
<path d="M88.7663 298.83H79.1363V295.95H94.0463L83.1563 315.06H93.5963V318H77.7263L88.7663 298.83Z" fill="black"/>
<path d="M124.852 307.71L117.202 295.95H121.222L126.532 304.65L131.842 295.95H135.832L128.212 307.77V318H124.852V307.71Z" fill="black"/>
<path d="M160.188 295.95H165.048C167.788 295.95 169.788 296.54 171.048 297.72C172.328 298.88 172.968 300.48 172.968 302.52C172.968 304.88 172.278 306.69 170.898 307.95C169.518 309.21 167.468 309.84 164.748 309.84H163.578V318H160.188V295.95ZM164.838 306.87C166.598 306.87 167.828 306.48 168.528 305.7C169.228 304.92 169.578 303.98 169.578 302.88C169.578 301.7 169.238 300.74 168.558 300C167.878 299.26 166.738 298.89 165.138 298.89H163.578V306.87H164.838Z" fill="black"/>
<path d="M198.986 295.95H202.346V318H198.986V295.95Z" fill="black"/>
<path d="M239.934 318.21C237.654 318.21 235.674 317.7 233.994 316.68C232.334 315.66 231.064 314.3 230.184 312.6C229.304 310.88 228.864 308.99 228.864 306.93C228.864 304.75 229.334 302.8 230.274 301.08C231.234 299.36 232.574 298.02 234.294 297.06C236.014 296.08 237.964 295.59 240.144 295.59C241.124 295.59 242.034 295.7 242.874 295.92C243.734 296.12 244.444 296.36 245.004 296.64C245.564 296.9 245.934 297.12 246.114 297.3L244.644 300.3C243.424 299.22 241.834 298.68 239.874 298.68C238.494 298.68 237.244 299.02 236.124 299.7C235.004 300.38 234.124 301.35 233.484 302.61C232.844 303.87 232.524 305.33 232.524 306.99C232.524 308.51 232.804 309.89 233.364 311.13C233.944 312.37 234.784 313.35 235.884 314.07C236.984 314.79 238.294 315.15 239.814 315.15C241.574 315.15 243.274 314.65 244.914 313.65L245.904 316.5C245.464 316.9 244.654 317.29 243.474 317.67C242.314 318.03 241.134 318.21 239.934 318.21Z" fill="black"/>
<path d="M11.48 359.3C9.47997 359.3 7.62997 358.84 5.92997 357.92C4.24997 356.98 2.90997 355.65 1.90997 353.93C0.909973 352.21 0.409973 350.21 0.409973 347.93C0.409973 345.63 0.909973 343.63 1.90997 341.93C2.90997 340.21 4.24997 338.89 5.92997 337.97C7.62997 337.05 9.47997 336.59 11.48 336.59C13.48 336.59 15.32 337.05 17 337.97C18.7 338.89 20.05 340.21 21.05 341.93C22.05 343.63 22.55 345.63 22.55 347.93C22.55 350.21 22.05 352.21 21.05 353.93C20.05 355.65 18.7 356.98 17 357.92C15.32 358.84 13.48 359.3 11.48 359.3ZM11.48 356.27C12.86 356.27 14.12 355.95 15.26 355.31C16.4 354.65 17.3 353.7 17.96 352.46C18.64 351.2 18.98 349.7 18.98 347.96C18.98 346.2 18.64 344.7 17.96 343.46C17.3 342.2 16.4 341.25 15.26 340.61C14.14 339.97 12.88 339.65 11.48 339.65C10.08 339.65 8.80997 339.97 7.66997 340.61C6.52997 341.25 5.62997 342.2 4.96997 343.46C4.30997 344.7 3.97997 346.2 3.97997 347.96C3.97997 349.7 4.31997 351.2 4.99997 352.46C5.67997 353.7 6.58997 354.65 7.72997 355.31C8.88997 355.95 10.14 356.27 11.48 356.27Z" fill="black"/>
<path d="M39.7109 359L35.2709 350.66C34.3509 350.7 33.5309 350.72 32.8109 350.72H31.9709V359H28.7009V336.95H33.7109C36.2509 336.95 38.3409 337.48 39.9809 338.54C41.6209 339.58 42.4409 341.28 42.4409 343.64C42.4409 345.12 42.0909 346.4 41.3909 347.48C40.7109 348.54 39.6909 349.36 38.3309 349.94L43.5809 359H39.7109ZM34.1009 347.99C36.0609 347.99 37.4009 347.57 38.1209 346.73C38.8609 345.87 39.2309 344.85 39.2309 343.67C39.2309 341.05 37.4809 339.74 33.9809 339.74H31.9709V347.99H34.1009Z" fill="black"/>
<path d="M59.7015 359.3C57.5215 359.3 55.5715 358.8 53.8515 357.8C52.1315 356.8 50.7815 355.43 49.8015 353.69C48.8415 351.93 48.3615 349.96 48.3615 347.78C48.3615 345.66 48.8515 343.75 49.8315 342.05C50.8115 340.35 52.1715 339.02 53.9115 338.06C55.6515 337.1 57.6115 336.62 59.7915 336.62C60.9715 336.62 62.0315 336.73 62.9715 336.95C63.9315 337.15 64.7115 337.39 65.3115 337.67C65.9115 337.93 66.3215 338.16 66.5415 338.36L65.2215 341.18C63.9815 340.18 62.1515 339.68 59.7315 339.68C58.1315 339.68 56.7415 340.03 55.5615 340.73C54.3815 341.43 53.4815 342.38 52.8615 343.58C52.2415 344.78 51.9315 346.12 51.9315 347.6C51.9315 349.28 52.2615 350.78 52.9215 352.1C53.6015 353.42 54.5315 354.45 55.7115 355.19C56.9115 355.91 58.2615 356.27 59.7615 356.27C60.7015 356.27 61.6015 356.16 62.4615 355.94C63.3215 355.7 64.0515 355.33 64.6515 354.83V350.57H60.1215V347.48H67.9815V356.12C67.2615 357.02 66.1715 357.78 64.7115 358.4C63.2715 359 61.6015 359.3 59.7015 359.3Z" fill="black"/>
<path d="M82.2057 336.92L92.8257 359H88.9557L87.0657 354.68H76.9557L75.0657 359H71.3157L81.8757 336.92H82.2057ZM80.7057 346.31L78.3057 351.65H85.7457L83.3757 346.34L82.0857 343.31H82.0257L80.7057 346.31Z" fill="black"/>
<path d="M100.343 344.72L100.433 347.12V359H97.0728V336.92H97.4928L110.453 351.38L110.333 348.86V336.95H113.693V359H113.243L100.343 344.72Z" fill="black"/>
<path d="M121.162 336.95H124.522V359H121.162V336.95Z" fill="black"/>
<path d="M140.93 339.83H131.3V336.95H146.21L135.32 356.06H145.76V359H129.89L140.93 339.83Z" fill="black"/>
<path d="M159.862 336.92L170.482 359H166.612L164.722 354.68H154.612L152.722 359H148.972L159.532 336.92H159.862ZM158.362 346.31L155.962 351.65H163.402L161.032 346.34L159.742 343.31H159.682L158.362 346.31Z" fill="black"/>
<path d="M177.142 339.89H171.502V336.95H186.172V339.89H180.472V359H177.142V339.89Z" fill="black"/>
<path d="M192.197 336.95H195.557V359H192.197V336.95Z" fill="black"/>
<path d="M213.166 359.3C211.166 359.3 209.316 358.84 207.616 357.92C205.936 356.98 204.596 355.65 203.596 353.93C202.596 352.21 202.096 350.21 202.096 347.93C202.096 345.63 202.596 343.63 203.596 341.93C204.596 340.21 205.936 338.89 207.616 337.97C209.316 337.05 211.166 336.59 213.166 336.59C215.166 336.59 217.006 337.05 218.686 337.97C220.386 338.89 221.736 340.21 222.736 341.93C223.736 343.63 224.236 345.63 224.236 347.93C224.236 350.21 223.736 352.21 222.736 353.93C221.736 355.65 220.386 356.98 218.686 357.92C217.006 358.84 215.166 359.3 213.166 359.3ZM213.166 356.27C214.546 356.27 215.806 355.95 216.946 355.31C218.086 354.65 218.986 353.7 219.646 352.46C220.326 351.2 220.666 349.7 220.666 347.96C220.666 346.2 220.326 344.7 219.646 343.46C218.986 342.2 218.086 341.25 216.946 340.61C215.826 339.97 214.566 339.65 213.166 339.65C211.766 339.65 210.496 339.97 209.356 340.61C208.216 341.25 207.316 342.2 206.656 343.46C205.996 344.7 205.666 346.2 205.666 347.96C205.666 349.7 206.006 351.2 206.686 352.46C207.366 353.7 208.276 354.65 209.416 355.31C210.576 355.95 211.826 356.27 213.166 356.27Z" fill="black"/>
<path d="M233.656 344.72L233.746 347.12V359H230.386V336.92H230.806L243.766 351.38L243.646 348.86V336.95H247.006V359H246.556L233.656 344.72Z" fill="black"/>
<path fill-rule="evenodd" clip-rule="evenodd" d="M105.711 10.5055L128.036 0L126.722 57.7802V100.459L125.409 169.401L123.439 187.129L125.338 277H105.08L99.8021 248.849L105.711 102.428L101.772 84.0439L99.8021 68.2856L105.711 30.8599V10.5055ZM87.9834 277V206.17L86.0136 91.2664L90.6098 75.5082L94.5493 57.1236L86.0136 42.6785V14.445L72.8818 23.6373L76.8213 75.5082L72.8818 84.0439L70.912 111.621L72.8818 260.667L78.7149 277H87.9834ZM58.7513 277L56.467 263.294L54.4972 246.222L61.0631 235.06V151.673V80.7609L59.0933 70.912L61.0631 17.728L38.0824 7.22252L30.2033 72.2252L38.0824 91.2664L36.1126 118.843L38.0824 170.714V277H58.7513ZM24.9794 277L26.9203 139.198L23.5359 123.76L19.0412 105.656V90.7196L21.6676 74.195L19.0412 34.1428L0 30.8599V277H24.9794ZM246.222 277V34.7994L210.11 28.8901V70.912L217.989 92.5796L220.615 128.692L218.645 145.107L212.736 215.362L210.11 260.667V277H246.222ZM190.473 277L191.725 235.06V204.2L193.695 157.582L195.008 111.621L202.887 80.7609L195.008 19.6978L179.235 8.34381L181.876 80.7609L179.906 102.428L177.937 116.217L171.371 145.107V219.302L172.684 239.656L168.088 250.818V277H190.473ZM161.358 277L158.239 212.736V111.621L161.522 102.428L156.269 61.7197L158.239 37.4258L143.137 27.5769L141.167 57.7802V134.602V145.107V169.401L143.137 228.494L146.207 277H161.358Z" fill="black"/>
</svg>
