<?xml version="1.0"?>
<svg version="1.1" xmlns="http://www.w3.org/2000/svg" xmlns:xlink="http://www.w3.org/1999/xlink" width="100" height="100">
    <desc iVinci="yes" version="4.6" gridStep="20" showGrid="no" snapToGrid="no" codePlatform="0"/>
    <g id="Layer1" name="Layer 7" opacity="1">
        <g id="Shape1">
            <desc shapeID="1" type="0" basicInfo-basicType="0" basicInfo-roundedRectRadius="12" basicInfo-polygonSides="6" basicInfo-starPoints="5" bounding="rect(-0.0164664,0,0.0329336,0)" text="" font-familyName="Helvetica" font-pixelSize="20" font-bold="0" font-underline="0" font-alignment="1" strokeStyle="0" markerStart="0" markerEnd="0" shadowEnabled="0" shadowOffsetX="0" shadowOffsetY="2" shadowBlur="4" shadowOpacity="160" blurEnabled="0" blurRadius="4" transform="matrix(0.663823,0,0,0.663823,10.9864,54.7169)" pers-center="0,0" pers-size="0,0" pers-start="0,0" pers-end="0,0" locked="0" mesh="" flag=""/>
            <path id="shapePath1" d="M10.9755,54.7169 C11.0247,54.7169 10.9755,54.7169 10.9755,54.7169 Z" style="stroke:none;fill-rule:evenodd;fill:#000000;fill-opacity:1;"/>
        </g>
        <g id="Shape2">
            <desc shapeID="2" type="0" basicInfo-basicType="0" basicInfo-roundedRectRadius="12" basicInfo-polygonSides="6" basicInfo-starPoints="5" bounding="rect(-22.1306,-19.8753,44.2613,39.7506)" text="" font-familyName="Helvetica" font-pixelSize="20" font-bold="0" font-underline="0" font-alignment="1" strokeStyle="0" markerStart="0" markerEnd="0" shadowEnabled="0" shadowOffsetX="0" shadowOffsetY="2" shadowBlur="4" shadowOpacity="160" blurEnabled="0" blurRadius="4" transform="matrix(0.663823,0,0,0.663823,23.9519,67.9106)" pers-center="0,0" pers-size="0,0" pers-start="0,0" pers-end="0,0" locked="0" mesh="" flag=""/>
            <path id="shapePath2" d="M10.4831,54.7169 C10.4831,54.7169 20.1815,61.7074 20.1815,61.7074 C20.1815,61.7074 38.6428,68.5507 38.6428,68.5507 C38.6428,68.5507 35.9843,76.6241 35.9843,76.6241 C35.9843,76.6241 33.4243,81.1043 33.4243,81.1043 C33.4243,81.1043 16.2431,71.2585 16.2431,71.2585 C16.2431,71.2585 9.99085,63.4307 9.99085,63.4307 C9.99085,63.4307 9.14467,60.5868 9.27472,58.2847 C9.38996,56.2457 10.4831,54.7169 10.4831,54.7169 Z" style="stroke:none;fill-rule:evenodd;fill:#fbbbb8;fill-opacity:1;"/>
        </g>
        <g id="Shape3">
            <desc shapeID="3" type="0" basicInfo-basicType="0" basicInfo-roundedRectRadius="12" basicInfo-polygonSides="6" basicInfo-starPoints="5" bounding="rect(-21.4964,-10.7635,42.9929,21.527)" text="" font-familyName="Helvetica" font-pixelSize="20" font-bold="0" font-underline="0" font-alignment="1" strokeStyle="0" markerStart="0" markerEnd="0" shadowEnabled="0" shadowOffsetX="0" shadowOffsetY="2" shadowBlur="4" shadowOpacity="160" blurEnabled="0" blurRadius="4" transform="matrix(0.663823,0,0,0.663823,79.4946,74.088)" pers-center="0,0" pers-size="0,0" pers-start="0,0" pers-end="0,0" locked="0" mesh="" flag=""/>
            <path id="shapePath3" d="M92.6485,81.233 C92.6485,81.233 74.4836,77.1154 74.4836,77.1154 C74.4836,77.1154 68.0412,74.4999 65.6674,72.6107 C63.2942,70.7214 71.2382,70.9153 71.2382,70.9153 C71.2382,70.9153 80.1029,66.9429 80.1029,66.9429 C80.1029,66.9429 93.7146,70.4307 93.763,70.4307 C93.8115,70.4307 92.6485,81.233 92.6485,81.233 Z" style="stroke:none;fill-rule:evenodd;fill:#fbbbb8;fill-opacity:1;"/>
        </g>
        <g id="Shape4">
            <desc shapeID="4" type="0" basicInfo-basicType="0" basicInfo-roundedRectRadius="12" basicInfo-polygonSides="6" basicInfo-starPoints="5" bounding="rect(-66.4877,-52.38,132.976,104.76)" text="" font-familyName="Helvetica" font-pixelSize="20" font-bold="0" font-underline="0" font-alignment="1" strokeStyle="0" markerStart="0" markerEnd="0" shadowEnabled="0" shadowOffsetX="0" shadowOffsetY="2" shadowBlur="4" shadowOpacity="160" blurEnabled="0" blurRadius="4" transform="matrix(0.663823,0,0,0.663823,46.1192,37.4734)" pers-center="0,0" pers-size="0,0" pers-start="0,0" pers-end="0,0" locked="0" mesh="" flag=""/>
            <path id="shapePath4" d="M7.08304,51.0279 C7.08304,51.0279 16.288,60.4674 16.288,60.4674 C16.288,60.4674 21.0515,63.0191 26.4021,64.9521 C32.7841,67.2576 39.9358,69.0108 39.9358,69.0108 C39.9358,69.0108 56.3366,72.2442 56.3366,72.2442 C56.3366,72.2442 71.4645,71.1257 71.4645,71.1257 C71.4645,71.1257 82.1773,65.1214 82.1773,65.1214 C82.1773,65.1214 89.2563,55.1908 89.2563,55.1908 C89.2563,55.1908 90.2554,41.9103 90.2554,41.9103 C90.2554,41.9103 85.5927,29.0047 85.5927,29.0047 C85.5927,29.0047 82.3453,23.551 82.3453,23.551 C82.3453,23.551 82.9281,17.8059 82.9699,17.8059 C83.0117,17.8059 73.7561,19.6953 73.7561,19.6953 C73.7561,19.6953 59.6996,12.3032 59.6996,12.3032 C59.6996,12.3032 43.2416,9.15892 43.1886,9.15892 C43.1357,9.15892 33.5038,9.2648 33.5038,9.2648 C33.5038,9.2648 26.8356,2.70238 26.8356,2.70238 C26.8356,2.70238 24.6129,10.3232 24.6129,10.3232 C24.6129,10.3232 21.9568,11.4989 21.9568,11.4989 C21.9568,11.4989 16.1358,13.3854 16.1358,13.3854 C16.1358,13.3854 7.63461,21.0516 7.63461,21.0516 C7.63461,21.0516 3.59784,28.8767 3.59784,28.8767 C3.59784,28.8767 1.98309,36.7639 1.98309,36.7639 C1.98309,36.7639 3.65991,44.7132 3.65991,44.7132 C3.65991,44.7132 7.08304,51.0279 7.08304,51.0279 Z" style="stroke:none;fill-rule:evenodd;fill:#fff9ee;fill-opacity:1;"/>
        </g>
        <g id="Shape5">
            <desc shapeID="5" type="0" basicInfo-basicType="0" basicInfo-roundedRectRadius="12" basicInfo-polygonSides="6" basicInfo-starPoints="5" bounding="rect(0,0,0,0)" text="" font-familyName="Helvetica" font-pixelSize="20" font-bold="0" font-underline="0" font-alignment="1" strokeStyle="0" markerStart="0" markerEnd="0" shadowEnabled="0" shadowOffsetX="0" shadowOffsetY="2" shadowBlur="4" shadowOpacity="160" blurEnabled="0" blurRadius="4" transform="matrix(0.663823,0,0,0.663823,33.1455,80.8135)" pers-center="0,0" pers-size="0,0" pers-start="0,0" pers-end="0,0" locked="0" mesh="" flag=""/>
            <path id="shapePath5" d="M33.1455,80.8135 Z" style="stroke:none;fill-rule:evenodd;fill:#000000;fill-opacity:1;"/>
        </g>
        <g id="Shape6">
            <desc shapeID="6" type="0" basicInfo-basicType="0" basicInfo-roundedRectRadius="12" basicInfo-polygonSides="6" basicInfo-starPoints="5" bounding="rect(-6.95312,-10.3777,13.9062,20.7553)" text="" font-familyName="Helvetica" font-pixelSize="20" font-bold="0" font-underline="0" font-alignment="1" strokeStyle="0" markerStart="0" markerEnd="0" shadowEnabled="0" shadowOffsetX="0" shadowOffsetY="2" shadowBlur="4" shadowOpacity="160" blurEnabled="0" blurRadius="4" transform="matrix(0.663823,0,0,0.663823,37.9478,75.2558)" pers-center="0,0" pers-size="0,0" pers-start="0,0" pers-end="0,0" locked="0" mesh="" flag=""/>
            <path id="shapePath6" d="M33.3322,80.9383 C33.3322,80.9383 36.8587,74.5278 36.8587,74.5278 C36.8587,74.5278 38.4353,68.3668 38.456,68.3668 C38.4768,68.3668 40.1986,70.6072 40.1986,70.6072 C40.1986,70.6072 42.5634,73.2214 42.5634,73.2214 C42.5634,73.2214 40.7379,74.9221 40.7587,74.9221 C40.7794,74.9221 41.1321,76.9136 41.1321,76.9136 C41.1321,76.9136 39.6592,78.5525 39.6592,78.5525 C39.6592,78.5525 39.431,80.7929 39.431,80.7929 C39.431,80.7929 37.968,82.1106 36.5575,82.1438 C34.9337,82.1823 33.3322,80.9383 33.3322,80.9383 Z" style="stroke:none;fill-rule:evenodd;fill:#fff9ee;fill-opacity:1;"/>
        </g>
        <g id="Shape7">
            <desc shapeID="7" type="0" basicInfo-basicType="0" basicInfo-roundedRectRadius="12" basicInfo-polygonSides="6" basicInfo-starPoints="5" bounding="rect(-4.33381,-8.33136,8.66763,16.6627)" text="" font-familyName="Helvetica" font-pixelSize="20" font-bold="0" font-underline="0" font-alignment="1" strokeStyle="0" markerStart="0" markerEnd="0" shadowEnabled="0" shadowOffsetX="0" shadowOffsetY="2" shadowBlur="4" shadowOpacity="160" blurEnabled="0" blurRadius="4" transform="matrix(0.663823,0,0,0.663823,95.1649,76.1128)" pers-center="0,0" pers-size="0,0" pers-start="0,0" pers-end="0,0" locked="0" mesh="" flag=""/>
            <path id="shapePath7" d="M93.927,70.5867 C93.927,70.5867 92.288,81.3944 92.288,81.3944 C92.288,81.3944 95.0057,81.6433 95.0057,81.6433 C95.0057,81.6433 98.0135,79.8596 98.0135,79.8596 C98.0135,79.8596 97.9511,76.9965 97.9511,76.9965 C97.9511,76.9965 97.9511,75.7008 97.4592,74.2496 C97.4705,73.3615 98.3142,72.8384 97.9511,72.1772 C96.9839,70.4167 93.927,70.5867 93.927,70.5867 Z" style="stroke:none;fill-rule:evenodd;fill:#fff9ee;fill-opacity:1;"/>
        </g>
        <g id="Shape8">
            <desc shapeID="8" type="0" basicInfo-basicType="0" basicInfo-roundedRectRadius="12" basicInfo-polygonSides="6" basicInfo-starPoints="5" bounding="rect(0,0,0,0)" text="" font-familyName="Helvetica" font-pixelSize="20" font-bold="0" font-underline="0" font-alignment="1" strokeStyle="0" markerStart="0" markerEnd="0" shadowEnabled="0" shadowOffsetX="0" shadowOffsetY="2" shadowBlur="4" shadowOpacity="160" blurEnabled="0" blurRadius="4" transform="matrix(0.663823,0,0,0.663823,39.1814,45.2625)" pers-center="0,0" pers-size="0,0" pers-start="0,0" pers-end="0,0" locked="0" mesh="" flag=""/>
            <path id="shapePath8" d="M39.1814,45.2625 Z" style="stroke:none;fill-rule:evenodd;fill:#fff5ea;fill-opacity:1;"/>
        </g>
        <g id="Shape9">
            <desc shapeID="9" type="0" basicInfo-basicType="0" basicInfo-roundedRectRadius="12" basicInfo-polygonSides="6" basicInfo-starPoints="5" bounding="rect(-12.2086,-11.2344,24.4173,22.4688)" text="" font-familyName="Helvetica" font-pixelSize="20" font-bold="0" font-underline="0" font-alignment="1" strokeStyle="0" markerStart="0" markerEnd="0" shadowEnabled="0" shadowOffsetX="0" shadowOffsetY="2" shadowBlur="4" shadowOpacity="160" blurEnabled="0" blurRadius="4" transform="matrix(0.663823,0,0,0.663823,46.5946,44.127)" pers-center="0,0" pers-size="0,0" pers-start="0,0" pers-end="0,0" locked="0" mesh="" flag=""/>
            <path id="shapePath9" d="M42.2879,47.5988 C42.2879,47.5988 48.193,47.4448 48.193,47.4448 C48.193,47.4448 50.4542,48.3957 50.4542,48.3957 C50.4542,48.3957 52.1267,50.9831 52.1267,50.9831 C52.1267,50.9831 53.6617,51.5847 53.6617,51.5847 C53.6617,51.5847 54.699,51.1905 54.699,51.1905 C54.699,51.1905 54.3671,49.6969 54.3671,49.6969 C54.3671,49.6969 52.9771,47.0416 52.9771,47.0416 C52.9771,47.0416 51.9607,45.1124 51.9814,45.1124 C52.0022,45.1124 51.5665,43.598 51.5665,43.598 C51.5665,43.598 51.0894,39.7396 51.0894,39.7396 C51.0894,39.7396 50.1352,38.7231 50.1352,38.7231 C50.1352,38.7231 43.4762,36.6694 43.4762,36.6694 C43.4762,36.6694 41.6092,36.7939 41.6092,36.7939 C41.6092,36.7939 39.9198,38.5856 39.9198,38.5856 C39.9198,38.5856 38.4902,41.6007 38.4902,41.6007 C38.4902,41.6007 38.5127,43.6705 39.4257,45.1124 C40.409,46.6654 42.2879,47.5988 42.2879,47.5988 Z" style="stroke:none;fill-rule:evenodd;fill:#ffffff;fill-opacity:1;"/>
        </g>
        <g id="Shape10">
            <desc shapeID="10" type="0" basicInfo-basicType="0" basicInfo-roundedRectRadius="12" basicInfo-polygonSides="6" basicInfo-starPoints="5" bounding="rect(-11.5247,-13.7458,23.0493,27.4917)" text="" font-familyName="" font-pixelSize="20" font-bold="0" font-underline="0" font-alignment="1" strokeStyle="0" markerStart="0" markerEnd="0" shadowEnabled="0" shadowOffsetX="0" shadowOffsetY="2" shadowBlur="4" shadowOpacity="160" blurEnabled="0" blurRadius="4" transform="matrix(0.353813,0,0,0.353813,33.055,90.4251)" pers-center="0,0" pers-size="0,0" pers-start="0,0" pers-end="0,0" locked="0" mesh="" flag=""/>
            <path id="shapePath10" d="M31.6116,86.8131 C30.3024,88.4408 28.5687,93.9247 29.0641,94.8447 C29.5594,95.8 30.1609,95.1986 30.7624,93.1818 C31.1162,91.979 31.3639,91.6252 31.8238,91.7314 C32.1422,91.8018 32.8852,91.979 33.5221,92.1204 C34.3005,92.2618 34.8666,92.7218 35.3619,93.5709 C35.8573,94.3847 36.2465,94.7033 36.6356,94.5619 C37.414,94.2433 37.3079,93.3943 36.105,90.1389 C34.3005,85.1854 33.416,84.5489 31.6116,86.8131 M33.9467,90.2451 C33.9821,90.4223 33.416,90.5286 32.7437,90.5286 L31.5054,90.5286 L32.2484,89.0071 L33.0268,87.5208 L33.4867,88.7595 C33.7344,89.4313 33.9467,90.1037 33.9467,90.2451 Z" style="stroke:none;fill-rule:evenodd;fill:#583735;fill-opacity:1;"/>
        </g>
        <g id="Shape11">
            <desc shapeID="11" type="0" basicInfo-basicType="0" basicInfo-roundedRectRadius="12" basicInfo-polygonSides="6" basicInfo-starPoints="5" bounding="rect(-11.8634,-12.9689,23.7268,25.9378)" text="" font-familyName="" font-pixelSize="20" font-bold="0" font-underline="0" font-alignment="1" strokeStyle="0" markerStart="0" markerEnd="0" shadowEnabled="0" shadowOffsetX="0" shadowOffsetY="2" shadowBlur="4" shadowOpacity="160" blurEnabled="0" blurRadius="4" transform="matrix(0.353813,0,0,0.353813,22.6268,90.8713)" pers-center="0,0" pers-size="0,0" pers-start="0,0" pers-end="0,0" locked="0" mesh="" flag=""/>
            <path id="shapePath11" d="M18.662,86.5303 C18.3082,86.8842 18.3789,94.7033 18.7327,94.9158 C18.9096,95.022 20.608,95.2337 22.5185,95.34 C25.5967,95.5524 26.0921,95.5172 26.552,94.951 C27.4365,93.8895 26.1628,93.3591 22.7662,93.3591 L19.8296,93.3591 L19.8296,89.8209 C19.8296,87.0966 19.7234,86.2828 19.3696,86.2828 C19.0866,86.2828 18.7681,86.389 18.662,86.5303 Z" style="stroke:none;fill-rule:evenodd;fill:#583735;fill-opacity:1;"/>
        </g>
        <g id="Shape12">
            <desc shapeID="12" type="0" basicInfo-basicType="0" basicInfo-roundedRectRadius="12" basicInfo-polygonSides="6" basicInfo-starPoints="5" bounding="rect(-10.3736,-11.4348,20.7473,22.8696)" text="" font-familyName="" font-pixelSize="20" font-bold="0" font-underline="0" font-alignment="1" strokeStyle="0" markerStart="0" markerEnd="0" shadowEnabled="0" shadowOffsetX="0" shadowOffsetY="2" shadowBlur="4" shadowOpacity="160" blurEnabled="0" blurRadius="4" transform="matrix(0.353813,0,0,0.353813,44.0103,91.0161)" pers-center="0,0" pers-size="0,0" pers-start="0,0" pers-end="0,0" locked="0" mesh="" flag=""/>
            <path id="shapePath12" d="M40.5984,87.238 C40.0323,87.7684 40.4215,88.3698 41.5183,88.5822 C43.995,89.0774 43.9596,89.0071 42.8627,90.5286 C41.4122,92.5453 40.8461,93.9957 41.3768,94.5261 C41.8721,95.022 46.7194,95.2696 47.3915,94.8447 C47.7454,94.5971 47.7807,94.3495 47.4623,93.7481 C47.1085,93.1467 46.7194,93.0053 45.0918,93.0053 C43.1812,93.0053 43.1812,93.0053 43.5704,92.1914 C43.8181,91.7666 44.4549,90.8824 44.9857,90.2803 C45.5518,89.6437 45.9056,88.9009 45.7994,88.6174 C45.3749,87.5208 41.3768,86.4593 40.5984,87.238 Z" style="stroke:none;fill-rule:evenodd;fill:#583735;fill-opacity:1;"/>
        </g>
        <g id="Shape13">
            <desc shapeID="13" type="0" basicInfo-basicType="0" basicInfo-roundedRectRadius="12" basicInfo-polygonSides="6" basicInfo-starPoints="5" bounding="rect(-11.124,-12.6233,22.248,25.2466)" text="" font-familyName="" font-pixelSize="20" font-bold="0" font-underline="0" font-alignment="1" strokeStyle="0" markerStart="0" markerEnd="0" shadowEnabled="0" shadowOffsetX="0" shadowOffsetY="2" shadowBlur="4" shadowOpacity="160" blurEnabled="0" blurRadius="4" transform="matrix(0.353813,0,0,0.353813,53.9806,92.0765)" pers-center="0,0" pers-size="0,0" pers-start="0,0" pers-end="0,0" locked="0" mesh="" flag=""/>
            <path id="shapePath13" d="M56.4847,88.3698 C55.9539,88.9009 55.1401,89.5726 54.6447,89.8209 C53.831,90.2803 53.6894,90.2099 52.3803,88.936 C51.4958,88.0518 50.8236,87.6622 50.4344,87.8394 C49.9037,88.016 49.9037,88.158 50.5051,89.1484 C50.859,89.7499 51.4958,90.6341 51.9557,91.13 C52.4865,91.6955 52.7341,92.439 52.7341,93.3591 C52.7341,95.0571 53.371,96.5428 54.0786,96.5428 C54.5032,96.5428 54.574,96.1538 54.3971,94.2785 L54.1848,92.0142 L55.5647,91.0941 C57.051,90.1037 58.3242,88.1932 57.7938,87.6622 C57.6165,87.4856 57.051,87.7684 56.4847,88.3698 Z" style="stroke:none;fill-rule:evenodd;fill:#583735;fill-opacity:1;"/>
        </g>
        <g id="Shape14">
            <desc shapeID="14" type="0" basicInfo-basicType="0" basicInfo-roundedRectRadius="12" basicInfo-polygonSides="6" basicInfo-starPoints="5" bounding="rect(-8.00444,-12.2878,16.0089,24.5755)" text="" font-familyName="" font-pixelSize="20" font-bold="0" font-underline="0" font-alignment="1" strokeStyle="0" markerStart="0" markerEnd="0" shadowEnabled="0" shadowOffsetX="0" shadowOffsetY="2" shadowBlur="4" shadowOpacity="160" blurEnabled="0" blurRadius="4" transform="matrix(0.353813,0,0,0.353813,65.1162,91.7619)" pers-center="0,0" pers-size="0,0" pers-start="0,0" pers-end="0,0" locked="0" mesh="" flag=""/>
            <path id="shapePath14" d="M63.6314,87.8042 C63.03,88.0518 62.641,88.5119 62.4996,89.2188 C62.1458,90.9527 62.252,95.7648 62.641,96.0124 C63.3486,96.4372 64.0563,95.411 64.0563,94.0309 C64.0563,92.7929 64.1625,92.6515 64.9763,92.6515 C65.9668,92.6515 67.9483,90.9176 67.9483,90.0685 C67.9483,89.0423 67.4883,88.3698 66.4972,87.8746 C65.3653,87.2732 64.9763,87.2732 63.6314,87.8042 M66.2144,89.325 C66.6034,89.8209 66.5682,89.9975 65.8606,90.5637 C64.4805,91.6956 63.7025,91.2714 63.7025,89.4313 C63.7025,88.5822 65.5067,88.476 66.2144,89.325 Z" style="stroke:none;fill-rule:evenodd;fill:#583735;fill-opacity:1;"/>
        </g>
        <g id="Shape15">
            <desc shapeID="15" type="0" basicInfo-basicType="0" basicInfo-roundedRectRadius="12" basicInfo-polygonSides="6" basicInfo-starPoints="5" bounding="rect(-10.4608,-11.2901,20.9215,22.5803)" text="" font-familyName="" font-pixelSize="20" font-bold="0" font-underline="0" font-alignment="1" strokeStyle="0" markerStart="0" markerEnd="0" shadowEnabled="0" shadowOffsetX="0" shadowOffsetY="2" shadowBlur="4" shadowOpacity="160" blurEnabled="0" blurRadius="4" transform="matrix(0.353813,0,0,0.353813,79.761,91.6019)" pers-center="0,0" pers-size="0,0" pers-start="0,0" pers-end="0,0" locked="0" mesh="" flag=""/>
            <path id="shapePath15" d="M78.2083,88.1581 C76.0151,89.5375 75.3426,92.8991 76.9351,94.3847 C78.8808,96.189 82.2776,95.9414 83.2328,93.8895 C83.8694,92.5094 83.0914,91.908 81.9941,92.9343 C81.0747,93.7833 78.987,93.9957 78.2794,93.2881 C77.6428,92.6515 77.7841,91.448 78.6332,90.3513 C79.2698,89.5375 79.5884,89.4313 80.7209,89.5727 C81.7113,89.7147 82.1003,89.6085 82.2776,89.2188 C82.808,87.7684 79.9774,87.0256 78.2083,88.1581 Z" style="stroke:none;fill-rule:evenodd;fill:#583735;fill-opacity:1;"/>
        </g>
        <g id="Shape16">
            <desc shapeID="16" type="0" basicInfo-basicType="0" basicInfo-roundedRectRadius="12" basicInfo-polygonSides="6" basicInfo-starPoints="5" bounding="rect(-2.39476,-10.9446,4.7895,21.8892)" text="" font-familyName="" font-pixelSize="20" font-bold="0" font-underline="0" font-alignment="1" strokeStyle="0" markerStart="0" markerEnd="0" shadowEnabled="0" shadowOffsetX="0" shadowOffsetY="2" shadowBlur="4" shadowOpacity="160" blurEnabled="0" blurRadius="4" transform="matrix(0.353813,0,0,0.353813,71.8992,92.2873)" pers-center="0,0" pers-size="0,0" pers-start="0,0" pers-end="0,0" locked="0" mesh="" flag=""/>
            <path id="shapePath16" d="M71.3092,88.7595 C70.9906,89.2899 70.9554,94.4206 71.274,95.3758 C71.6278,96.4724 72.4417,96.4014 72.6541,95.2696 C72.8659,94.1371 72.6893,90.1037 72.3707,89.1133 C72.1231,88.3346 71.663,88.1932 71.3092,88.7595 Z" style="stroke:none;fill-rule:evenodd;fill:#583735;fill-opacity:1;"/>
        </g>
        <g id="Shape17">
            <desc shapeID="17" type="0" basicInfo-basicType="0" basicInfo-roundedRectRadius="12" basicInfo-polygonSides="6" basicInfo-starPoints="5" bounding="rect(-134.764,-113.435,269.528,226.871)" text="" font-familyName="" font-pixelSize="20" font-bold="0" font-underline="0" font-alignment="1" strokeStyle="0" markerStart="0" markerEnd="0" shadowEnabled="0" shadowOffsetX="0" shadowOffsetY="2" shadowBlur="4" shadowOpacity="160" blurEnabled="0" blurRadius="4" transform="matrix(0.359494,-0.00674298,0.00674298,0.359494,49.749,42.387)" pers-center="0,0" pers-size="0,0" pers-start="0,0" pers-end="0,0" locked="0" mesh="" flag=""/>
            <path id="shapePath17" d="M26.0864,2.37166 C25.4718,4.5879 25.1201,6.25987 24.3757,8.74144 C23.9196,10.2619 23.9861,10.9784 24.279,11.2606 C24.901,11.8243 25.5279,10.7337 26.3706,7.73302 C26.7391,6.28762 27.1442,4.87753 27.2466,4.5879 C27.383,4.18974 27.6733,4.32814 28.4085,5.17744 C28.9592,5.77846 30.2451,7.22878 31.2379,8.39692 C31.2379,8.39692 32.3719,9.95696 33.259,10.2256 C34.6023,10.6323 37.2779,10.2256 37.2779,10.2256 C40.942,10.013 44.1462,10.2046 48.043,10.8868 C48.981,11.049 48.9817,11.0849 48.6878,12.6727 C48.5249,13.5749 48.4712,14.5468 48.5851,14.8684 C48.9994,15.8675 49.8393,14.6291 49.9141,12.8655 C49.995,11.4255 50.0656,11.3523 50.8598,11.5172 C51.3291,11.6163 52.16,11.8165 52.7372,11.9135 C53.9276,12.107 53.9656,12.2142 53.2696,13.4499 C52.6088,14.6491 52.6112,16.6988 53.2943,16.686 C53.9054,16.6746 54.0764,16.2039 54.3588,14.0049 C54.4857,13.1034 54.6514,12.3451 54.7592,12.3431 C54.8311,12.3417 55.6253,12.5067 56.5279,12.7055 C58.2618,13.1045 58.2996,13.2117 57.8104,15.882 C57.6504,16.928 57.6637,17.6469 57.8834,17.8586 C58.5061,18.4583 59.2688,16.9336 59.2369,15.244 C59.221,14.3812 59.3518,13.6954 59.5317,13.6921 C59.8549,13.686 61.8491,14.5476 68.1594,17.3782 C69.2109,17.826 70.5578,18.6998 71.1804,19.2994 C72.1695,20.2519 72.4941,20.3177 74.0023,20.1815 C74.935,20.0562 77.0851,19.6562 78.8038,19.2643 C80.5217,18.8365 81.9914,18.5932 82.1016,18.699 C82.2118,18.8048 82.1288,20.1369 81.8693,21.6523 C81.6469,23.2027 81.6841,23.6988 81.9516,24.7017 C82.2483,25.8122 83.3536,26.5649 84.2159,27.4447 C87.1699,31.525 89.8458,39.9621 89.8212,44.4218 C89.8225,46.3997 89.1707,51.6991 88.6356,53.8668 C87.2994,59.3223 81.3276,65.8695 74.6589,68.872 C70.6294,70.7095 68.1089,71.5034 63.5431,71.589 C61.1706,71.6335 58.6249,71.5426 58.1204,71.4802 C57.6152,71.3819 55.2748,71.2717 53.006,71.0985 C48.8637,70.7447 45.9682,69.9706 39.7823,68.0369 C38.0094,67.4587 34.1653,66.4849 31.5642,65.8503 C28.9983,65.1792 26.3609,64.4071 25.6711,64.06 C24.9813,63.7134 22.2912,62.2404 19.8956,61.0628 C15.2136,58.7766 13.5496,57.2607 8.11176,51.1053 C5.17249,47.78 3.06332,42.4025 2.78697,39.1711 C2.34586,34.828 3.75224,28.7572 6.60773,23.7768 C8.94014,19.6694 11.4487,17.3377 17.9865,13.1154 C18.519,12.7457 20.0939,12.2738 20.9899,12.1132 C22.8905,11.8258 23.345,11.314 21.7925,10.9836 C20.2766,10.6883 18.3467,11.3359 15.5032,13.1154 C8.78494,17.3051 4.88492,22.1972 2.29368,29.7618 C1.27047,32.7299 0.968761,33.2798 1.25434,37.621 C1.45057,40.6041 1.99622,42.3745 2.47816,43.7896 C4.25668,49.0124 5.89307,51.0198 7.61774,52.8574 L9.56281,54.9428 L9.09056,56.6058 C7.81012,61.1969 9.40223,65.5542 14.204,70.3915 C18.9331,75.1936 20.6064,76.2046 33.7374,82.2162 C35.7321,83.1137 36.1289,83.1781 37.3811,82.8309 C39.6704,82.1763 40.5475,81.0094 40.2941,79.0006 C40.2514,78.6415 40.5635,78.0241 40.9874,77.6205 C41.4819,77.1439 41.6868,76.5644 41.5689,76.0274 C41.4509,75.4903 41.6925,74.946 42.2229,74.4687 C42.6822,74.0286 43.0682,73.5181 43.0641,73.3024 C43.0487,72.4752 41.7594,70.8456 40.7813,70.4678 C39.26,69.885 39.1257,70.3915 40.4428,71.589 C41.1006,72.1526 41.6154,72.754 41.6181,72.8981 C41.6282,73.4371 40.8135,74.0996 40.1664,74.1116 C39.1239,74.1315 38.9949,74.9248 39.9065,75.5912 C40.854,76.2564 40.8546,76.2929 39.4641,76.9302 C38.4656,77.3802 38.1576,78.2133 38.8487,78.6315 C39.4672,79.0159 39.2731,80.1703 38.4571,80.7611 C37.6417,81.3877 35.4515,81.5723 34.6878,81.1195 C34.3608,80.9456 34.5305,80.4033 35.2279,79.2389 C35.7503,78.3302 36.3745,77.0961 36.5794,76.5166 C36.7836,75.9012 37.3291,74.3087 37.8421,72.8968 C38.3392,71.528 38.6183,70.1851 38.5417,69.9348 C38.2792,69.3646 39.5415,69.5564 42.005,70.517 C42.9464,70.8588 43.9231,71.1642 44.2107,71.1589 C44.4983,71.1536 45.6907,71.4549 46.8838,71.7922 C49.3065,72.5018 55.4307,73.07 62.8415,73.2187 C67.159,73.3176 67.9848,73.2307 70.3799,72.4659 C73.776,71.3959 77.6633,69.6686 78.8323,68.7114 C79.9303,67.8278 81.1517,67.7687 83.2866,68.4485 C84.1555,68.7558 85.6006,69.1243 86.5034,69.3228 C87.4056,69.4861 89.2125,69.9554 90.586,70.3251 L93.0089,71.0347 L93.0381,72.5808 C93.07,74.3061 92.5894,77.444 92.0424,78.9289 L91.6998,79.8702 L89.8212,79.4022 C88.773,79.134 86.1749,78.6435 83.9749,78.3248 C81.8109,77.9697 79.2857,77.5495 78.3829,77.351 C75.2775,76.6899 74.0535,76.6049 74.0614,77.0364 C74.0727,77.6477 76.0987,78.293 80.7919,79.2476 C89.3831,80.9562 90.4306,81.2244 91.0174,81.8252 C91.4941,82.3197 92.1433,82.4153 93.7962,82.3483 C95.5925,82.2427 96.2006,82.0516 97.2985,81.1673 C98.5034,80.2101 98.6428,79.9917 98.4423,78.8805 C98.285,78.1642 98.3772,77.3358 98.6215,76.9355 C98.9707,76.3533 98.9282,76.0307 98.4091,75.177 C97.8886,74.2881 97.8847,74.0724 98.3095,73.7046 C99.5482,72.6385 97.9623,70.5462 95.8029,70.4433 C95.0833,70.4207 94.2516,70.1844 93.9588,69.9023 C93.3388,69.4462 93.1217,69.3785 87.9214,68.2175 C86.2233,67.8179 84.1648,67.3525 83.2978,67.1175 L81.7445,66.7511 L84.2159,64.3308 C89.2291,59.3462 91.115,54.42 91.346,45.6409 C91.423,42.0793 91.2916,40.8231 90.6716,38.4612 C89.0877,32.6291 87.2921,28.9227 83.6789,24.1716 C83.4578,23.8881 83.4704,22.6651 83.7227,20.7544 C84.19,16.9337 84.0048,16.6494 81.0282,17.0648 C79.844,17.195 77.7669,17.6655 76.408,18.0865 L73.9778,18.8873 L72.9867,17.827 C71.9591,16.7315 69.2308,15.0565 67.1304,14.2688 C66.4427,14.03 64.7745,13.306 63.4323,12.6839 C59.4062,10.8535 56.5146,10.0806 48.8673,8.82143 C44.5745,8.11081 38.0636,8.01714 35.0174,8.57781 C33.7991,8.81638 33.6174,8.71189 32.6238,7.50785 C30.9676,5.4891 29.1817,3.74591 27.2466,2.16422 C26.9456,1.91821 26.2473,2.00298 26.0864,2.37166 M18.6558,62.3241 C20.7225,63.2202 23.0102,64.4005 23.7739,64.8532 C25.0469,65.6206 31.5223,67.6572 36.2187,68.7917 L37.8804,69.192 L37.4774,70.7101 C36.9705,72.4454 35.4263,76.3945 34.5945,78.064 C33.8679,79.5881 33.6515,79.5562 26.2857,76.0625 C21.2782,73.6748 19.7867,72.768 16.8276,70.3059 C11.2757,65.7355 9.26495,62.0685 9.8284,57.5989 L10.0497,55.9765 L12.5028,58.304 C14.4432,60.1374 15.7536,60.9758 18.6558,62.3241 M97.2348,72.0345 C97.6364,72.3504 97.6045,72.5668 96.9706,73.2619 C96.2311,74.1029 96.2377,74.4627 97.1226,75.633 C97.4917,76.1296 96.7057,76.4774 96.6805,76.9355 C96.6533,77.4353 96.7681,77.9505 96.9706,78.4085 C97.106,78.7158 97.3729,78.9854 97.2985,79.3133 C97.195,79.7693 96.5949,80.0661 96.5949,80.0661 C95.4969,80.9854 94.4587,81.2211 93.6223,80.7332 C93.2578,80.4883 93.2877,80.1643 93.6999,79.1135 C93.9741,78.3892 94.2941,76.2969 94.4043,74.4973 L94.5589,71.2213 L95.641,71.4171 C96.2543,71.5134 96.9427,71.7882 97.2348,72.0345 Z" style="stroke:none;fill-rule:evenodd;fill:#583735;fill-opacity:1;"/>
        </g>
        <g id="Shape18">
            <desc shapeID="18" type="0" basicInfo-basicType="0" basicInfo-roundedRectRadius="12" basicInfo-polygonSides="6" basicInfo-starPoints="5" bounding="rect(-5.95638,-1.66109,11.9127,3.32217)" text="" font-familyName="" font-pixelSize="20" font-bold="0" font-underline="0" font-alignment="1" strokeStyle="0" markerStart="0" markerEnd="0" shadowEnabled="0" shadowOffsetX="0" shadowOffsetY="2" shadowBlur="4" shadowOpacity="160" blurEnabled="0" blurRadius="4" transform="matrix(0.359494,-0.00674298,0.00674298,0.359494,11.6493,27.2988)" pers-center="0,0" pers-size="0,0" pers-start="0,0" pers-end="0,0" locked="0" mesh="" flag=""/>
            <path id="shapePath18" d="M11.301,26.8238 C8.75402,27.1593 8.9845,27.9461 11.6089,27.8969 C13.2265,27.8666 13.7991,27.712 13.7923,27.3525 C13.7795,26.6694 13.1657,26.5371 11.301,26.8238 Z" style="stroke:none;fill-rule:evenodd;fill:#583735;fill-opacity:1;"/>
        </g>
        <g id="Shape19">
            <desc shapeID="19" type="0" basicInfo-basicType="0" basicInfo-roundedRectRadius="12" basicInfo-polygonSides="6" basicInfo-starPoints="5" bounding="rect(-6.35454,-2.82267,12.7091,5.64534)" text="" font-familyName="" font-pixelSize="20" font-bold="0" font-underline="0" font-alignment="1" strokeStyle="0" markerStart="0" markerEnd="0" shadowEnabled="0" shadowOffsetX="0" shadowOffsetY="2" shadowBlur="4" shadowOpacity="160" blurEnabled="0" blurRadius="4" transform="matrix(0.359494,-0.00674298,0.00674298,0.359494,41.6694,30.7286)" pers-center="0,0" pers-size="0,0" pers-start="0,0" pers-end="0,0" locked="0" mesh="" flag=""/>
            <path id="shapePath19" d="M39.5873,29.8175 C39.0223,30.3676 39.5716,30.6698 41.3439,31.2119 C43.2254,31.8239 44.3378,31.9221 43.857,31.2119 C43.486,30.6075 39.9401,29.4513 39.5873,29.8175 Z" style="stroke:none;fill-rule:evenodd;fill:#583735;fill-opacity:1;"/>
        </g>
        <g id="Shape20">
            <desc shapeID="20" type="0" basicInfo-basicType="0" basicInfo-roundedRectRadius="12" basicInfo-polygonSides="6" basicInfo-starPoints="5" bounding="rect(-7.08133,-2.24172,14.1627,4.48345)" text="" font-familyName="" font-pixelSize="20" font-bold="0" font-underline="0" font-alignment="1" strokeStyle="0" markerStart="0" markerEnd="0" shadowEnabled="0" shadowOffsetX="0" shadowOffsetY="2" shadowBlur="4" shadowOpacity="160" blurEnabled="0" blurRadius="4" transform="matrix(0.359494,-0.00674298,0.00674298,0.359494,10.6543,31.5822)" pers-center="0,0" pers-size="0,0" pers-start="0,0" pers-end="0,0" locked="0" mesh="" flag=""/>
            <path id="shapePath20" d="M8.22177,31.3768 C7.94834,32.1371 7.98491,32.1724 10.7571,32.3362 C13.205,32.4701 13.7389,32.1724 12.7134,31.1847 C12.0541,30.5497 8.49652,30.6884 8.22177,31.3768 Z" style="stroke:none;fill-rule:evenodd;fill:#583735;fill-opacity:1;"/>
        </g>
        <g id="Shape21">
            <desc shapeID="21" type="0" basicInfo-basicType="0" basicInfo-roundedRectRadius="12" basicInfo-polygonSides="6" basicInfo-starPoints="5" bounding="rect(-23.4062,-26.4636,46.8124,52.9273)" text="" font-familyName="" font-pixelSize="20" font-bold="0" font-underline="0" font-alignment="1" strokeStyle="0" markerStart="0" markerEnd="0" shadowEnabled="0" shadowOffsetX="0" shadowOffsetY="2" shadowBlur="4" shadowOpacity="160" blurEnabled="0" blurRadius="4" transform="matrix(0.359494,-0.00674298,0.00674298,0.359494,46.589,42.5377)" pers-center="0,0" pers-size="0,0" pers-start="0,0" pers-end="0,0" locked="0" mesh="" flag=""/>
            <path id="shapePath21" d="M46.6337,33.5333 C46.639,33.8209 46.7876,34.0699 46.9673,34.0665 C47.2908,34.0604 47.1569,36.5083 46.8408,36.9098 C46.7703,36.983 46.265,36.8847 45.7217,36.6791 C45.1784,36.4735 44.0952,36.2421 43.3735,36.1118 C42.1838,35.9542 41.8623,36.0682 40.5903,37.2788 C38.6116,39.15 38.1292,40.2739 38.1791,42.9341 C38.2202,45.127 38.2955,45.3054 39.6126,46.5034 C41.4797,48.2665 42.4924,48.5711 45.795,48.2575 C49.3126,47.9038 50.3139,48.9988 51.7184,51.0223 C52.2732,51.8391 53.7394,51.9204 54.1708,51.9123 C55.5728,51.8861 55.5533,50.7743 53.7285,47.4281 C52.2012,44.6157 51.8483,43.9516 51.7746,41.9391 C51.7381,39.9979 51.5641,39.4824 50.8317,38.7769 C50.3556,38.3183 49.484,37.8672 48.8342,37.7355 C47.9322,37.5726 47.749,37.3963 47.9173,36.7818 C48.0171,36.3484 48.1121,35.6633 48.1047,35.2679 C48.0932,34.6567 48.2709,34.5455 48.9926,34.6758 C50.219,34.8686 50.1981,33.7541 48.931,33.3104 C47.5915,32.832 46.6222,32.9222 46.6337,33.5333 M47.6247,38.4415 C49.2173,38.987 50.5569,39.4653 50.5942,39.5366 C50.6674,39.6071 50.8315,40.6829 50.9629,41.9391 C51.1852,44.2005 51.6441,45.8703 52.3439,46.7562 C52.5644,47.0038 53.0396,48.1339 53.6136,49.0458 C54.8576,51.0223 53.4747,52.1412 52.2167,50.2589 C51.8091,49.6192 51.1854,48.0485 50.1694,47.564 C48.6081,46.7663 47.8864,46.6359 45.4059,46.6824 C43.0332,46.727 42.2396,46.598 41.2216,46.0057 C38.6395,44.4718 38.5348,40.8057 40.9281,38.0277 C41.738,37.1134 41.9884,37.0368 43.2866,37.2283 C44.0795,37.3213 46.0322,37.896 47.6247,38.4415 Z" style="stroke:none;fill-rule:evenodd;fill:#583735;fill-opacity:1;"/>
        </g>
        <g id="Shape22">
            <desc shapeID="22" type="0" basicInfo-basicType="0" basicInfo-roundedRectRadius="12" basicInfo-polygonSides="6" basicInfo-starPoints="5" bounding="rect(-6.80071,-2.22321,13.6014,4.44642)" text="" font-familyName="" font-pixelSize="20" font-bold="0" font-underline="0" font-alignment="1" strokeStyle="0" markerStart="0" markerEnd="0" shadowEnabled="0" shadowOffsetX="0" shadowOffsetY="2" shadowBlur="4" shadowOpacity="160" blurEnabled="0" blurRadius="4" transform="matrix(0.359494,-0.00674298,0.00674298,0.359494,10.0653,35.7296)" pers-center="0,0" pers-size="0,0" pers-start="0,0" pers-end="0,0" locked="0" mesh="" flag=""/>
            <path id="shapePath22" d="M8.22064,35.1528 C6.97252,35.7157 7.66435,36.1702 10.294,36.4086 C12.2034,36.5885 12.5256,36.5105 12.5168,36.0432 C12.5108,35.7197 12.3609,35.3988 12.2151,35.2937 C11.524,34.8751 9.04145,34.8138 8.22064,35.1528 Z" style="stroke:none;fill-rule:evenodd;fill:#583735;fill-opacity:1;"/>
        </g>
        <g id="Shape23">
            <desc shapeID="23" type="0" basicInfo-basicType="0" basicInfo-roundedRectRadius="12" basicInfo-polygonSides="6" basicInfo-starPoints="5" bounding="rect(-7.21095,-3.18319,14.4219,6.36638)" text="" font-familyName="" font-pixelSize="20" font-bold="0" font-underline="0" font-alignment="1" strokeStyle="0" markerStart="0" markerEnd="0" shadowEnabled="0" shadowOffsetX="0" shadowOffsetY="2" shadowBlur="4" shadowOpacity="160" blurEnabled="0" blurRadius="4" transform="matrix(0.359494,-0.00674298,0.00674298,0.359494,55.8523,35.6559)" pers-center="0,0" pers-size="0,0" pers-start="0,0" pers-end="0,0" locked="0" mesh="" flag=""/>
            <path id="shapePath23" d="M53.738,34.5868 C52.6635,34.8227 53.3902,35.213 55.4535,35.9295 C57.9139,36.7465 58.279,37.019 58.4483,36.4763 C58.686,35.7167 55.0627,34.2743 53.738,34.5868 Z" style="stroke:none;fill-rule:evenodd;fill:#583735;fill-opacity:1;"/>
        </g>
        <g id="Shape24">
            <desc shapeID="24" type="0" basicInfo-basicType="0" basicInfo-roundedRectRadius="12" basicInfo-polygonSides="6" basicInfo-starPoints="5" bounding="rect(-6.70611,-2.64716,13.4123,5.29431)" text="" font-familyName="" font-pixelSize="20" font-bold="0" font-underline="0" font-alignment="1" strokeStyle="0" markerStart="0" markerEnd="0" shadowEnabled="0" shadowOffsetX="0" shadowOffsetY="2" shadowBlur="4" shadowOpacity="160" blurEnabled="0" blurRadius="4" transform="matrix(0.359494,-0.00674298,0.00674298,0.359494,84.6033,48.6634)" pers-center="0,0" pers-size="0,0" pers-start="0,0" pers-end="0,0" locked="0" mesh="" flag=""/>
            <path id="shapePath24" d="M82.3313,48.1835 C81.9815,48.7295 82.1634,48.834 84.1841,49.1917 C86.8911,49.7163 87.0345,49.7136 87.0239,49.1384 C87.0033,48.024 82.9235,47.1655 82.3313,48.1835 Z" style="stroke:none;fill-rule:evenodd;fill:#583735;fill-opacity:1;"/>
        </g>
        <g id="Shape25">
            <desc shapeID="25" type="0" basicInfo-basicType="0" basicInfo-roundedRectRadius="12" basicInfo-polygonSides="6" basicInfo-starPoints="5" bounding="rect(-5.28698,-3.26878,10.5739,6.53759)" text="" font-familyName="" font-pixelSize="20" font-bold="0" font-underline="0" font-alignment="1" strokeStyle="0" markerStart="0" markerEnd="0" shadowEnabled="0" shadowOffsetX="0" shadowOffsetY="2" shadowBlur="4" shadowOpacity="160" blurEnabled="0" blurRadius="4" transform="matrix(0.359494,-0.00674298,0.00674298,0.359494,84.2817,52.1756)" pers-center="0,0" pers-size="0,0" pers-start="0,0" pers-end="0,0" locked="0" mesh="" flag=""/>
            <path id="shapePath25" d="M82.4262,51.3464 C82.1813,51.7106 82.6931,52.1326 84.3261,52.9291 C86.3587,53.9338 86.9495,52.8439 85.0218,51.6933 C83.7499,50.962 82.7396,50.8011 82.4262,51.3464 Z" style="stroke:none;fill-rule:evenodd;fill:#583735;fill-opacity:1;"/>
        </g>
        <g id="Shape26">
            <desc shapeID="26" type="0" basicInfo-basicType="0" basicInfo-roundedRectRadius="12" basicInfo-polygonSides="6" basicInfo-starPoints="5" bounding="rect(-6.32055,-4.45303,12.641,8.90606)" text="" font-familyName="" font-pixelSize="20" font-bold="0" font-underline="0" font-alignment="1" strokeStyle="0" markerStart="0" markerEnd="0" shadowEnabled="0" shadowOffsetX="0" shadowOffsetY="2" shadowBlur="4" shadowOpacity="160" blurEnabled="0" blurRadius="4" transform="matrix(0.359494,-0.00674298,0.00674298,0.359494,82.4182,56.2543)" pers-center="0,0" pers-size="0,0" pers-start="0,0" pers-end="0,0" locked="0" mesh="" flag=""/>
            <path id="shapePath26" d="M80.1241,55.1296 C80.1341,55.6688 83.1956,57.8411 83.9504,57.8269 C85.4964,57.7979 84.5717,56.4487 82.2497,55.3415 C80.616,54.545 80.1115,54.4825 80.1241,55.1296 Z" style="stroke:none;fill-rule:evenodd;fill:#583735;fill-opacity:1;"/>
        </g>
        <g id="Shape27">
            <desc shapeID="27" type="0" basicInfo-basicType="0" basicInfo-roundedRectRadius="12" basicInfo-polygonSides="6" basicInfo-starPoints="5" bounding="rect(-7.13133,-4.86247,14.2626,9.72495)" text="" font-familyName="" font-pixelSize="20" font-bold="0" font-underline="0" font-alignment="1" strokeStyle="0" markerStart="0" markerEnd="0" shadowEnabled="0" shadowOffsetX="0" shadowOffsetY="2" shadowBlur="4" shadowOpacity="160" blurEnabled="0" blurRadius="4" transform="matrix(0.552732,-0.0103675,0.0103675,0.552732,34.218,34.1653)" pers-center="0,0" pers-size="0,0" pers-start="0,0" pers-end="0,0" locked="0" mesh="" flag=""/>
            <path id="shapePath27" d="M31.0194,32.2554 C29.4383,33.4463 30.4111,35.1974 33.2508,36.25 C35.5878,37.0355 35.8089,37.0314 37.1199,36.1774 C38.2661,35.3818 38.4258,35.047 37.8554,34.1178 C37.2819,33.0227 34.2118,31.4768 32.7194,31.5048 C32.3325,31.512 31.5649,31.8581 31.0194,32.2554 Z" style="stroke:none;fill-rule:evenodd;fill:#fc8e76;fill-opacity:0.67451;"/>
        </g>
        <g id="Shape28">
            <desc shapeID="28" type="0" basicInfo-basicType="0" basicInfo-roundedRectRadius="12" basicInfo-polygonSides="6" basicInfo-starPoints="5" bounding="rect(-6.40503,-4.29662,12.8101,8.59324)" text="" font-familyName="" font-pixelSize="20" font-bold="0" font-underline="0" font-alignment="1" strokeStyle="0" markerStart="0" markerEnd="0" shadowEnabled="0" shadowOffsetX="0" shadowOffsetY="2" shadowBlur="4" shadowOpacity="160" blurEnabled="0" blurRadius="4" transform="matrix(0.586908,-0.0110085,0.0110086,0.586907,61.1948,41.9577)" pers-center="0,0" pers-size="0,0" pers-start="0,0" pers-end="0,0" locked="0" mesh="" flag=""/>
            <path id="shapePath28" d="M57.8077,39.9576 C57.576,40.1381 57.4154,40.9631 57.43,41.7261 C57.4805,44.4258 64.0198,45.5948 64.9113,43.0535 C65.6382,41.1024 59.3631,38.3432 57.8077,39.9576 Z" style="stroke:none;fill-rule:evenodd;fill:#fc8e76;fill-opacity:0.643137;"/>
        </g>
    </g>
</svg>
