<?xml version="1.0"?>
<svg version="1.1" xmlns="http://www.w3.org/2000/svg" xmlns:xlink="http://www.w3.org/1999/xlink" width="180" height="180">
    <desc iVinci="yes" version="4.6" gridStep="20" showGrid="no" snapToGrid="no" codePlatform="0"/>
    <g id="Layer1" name="Layer 1" opacity="1">
        <g id="Shape1">
            <desc shapeID="1" type="0" basicInfo-basicType="0" basicInfo-roundedRectRadius="12" basicInfo-polygonSides="6" basicInfo-starPoints="5" bounding="rect(-1142.63,-111.594,2285.28,223.187)" text="LAZYPIC" font-familyName="Avenir" font-pixelSize="300" font-bold="0" font-underline="0" font-alignment="1" strokeStyle="0" markerStart="0" markerEnd="0" shadowEnabled="0" shadowOffsetX="0" shadowOffsetY="2" shadowBlur="4" shadowOpacity="160" blurEnabled="0" blurRadius="4" transform="matrix(0.0659266,0,0,0.0659268,90.4074,152.431)" pers-center="0,0" pers-size="0,0" pers-start="0,0" pers-end="0,0" locked="0" mesh="" flag=""/>
            <path id="shapePath1" d="M16.5016,158.126 L23.0281,158.126 L23.0281,159.432 L15.0775,159.432 L15.0775,145.429 L16.5016,145.429 L16.5016,158.126 M37.0734,159.432 L35.412,159.432 L41.5036,145.429 L42.888,145.429 L48.9797,159.432 L47.3184,159.432 L42.1819,147.142 L37.0734,159.432 M63.7954,158.126 L72.4175,158.126 L72.4175,159.432 L61.1832,159.432 L70.1837,146.734 L61.7792,146.734 L61.7792,145.429 L72.745,145.429 L63.7954,158.126 M91.9417,159.432 L90.5174,159.432 L90.5174,153.4 L85.2765,145.429 L87.0566,145.429 L91.2295,152.035 L95.4037,145.429 L97.1831,145.429 L91.9417,153.4 L91.9417,159.432 M113.743,151.619 L116.038,151.619 C116.67,151.619 117.208,151.553 117.649,151.422 C118.091,151.29 118.444,151.116 118.708,150.898 C118.971,150.681 119.162,150.423 119.281,150.125 C119.4,149.829 119.459,149.51 119.459,149.167 C119.459,148.838 119.4,148.524 119.281,148.228 C119.162,147.931 118.971,147.671 118.708,147.446 C118.444,147.222 118.091,147.048 117.649,146.923 C117.208,146.797 116.67,146.734 116.038,146.734 L113.743,146.734 L113.743,151.619 M112.32,145.429 L116.393,145.429 C117.818,145.429 118.941,145.739 119.765,146.359 C120.589,146.978 121.002,147.915 121.002,149.167 C121.002,150.42 120.589,151.359 119.765,151.985 C118.941,152.612 117.818,152.925 116.393,152.925 L113.743,152.925 L113.743,159.432 L112.32,159.432 L112.32,145.429 M136.896,159.432 L135.472,159.432 L135.472,145.429 L136.896,145.429 L136.896,159.432 M165.738,156.387 C165.657,156.962 164.894,157.91 164.545,158.225 C164.196,158.542 163.797,158.816 163.349,159.047 C162.9,159.278 162.416,159.458 161.894,159.59 C161.374,159.722 160.823,159.788 160.243,159.788 C159.202,159.788 158.236,159.604 157.346,159.234 C156.456,158.864 155.684,158.354 155.032,157.702 C154.379,157.049 153.868,156.275 153.498,155.378 C153.129,154.481 152.946,153.498 152.946,152.43 C152.946,151.362 153.129,150.381 153.498,149.484 C153.868,148.588 154.379,147.813 155.032,147.16 C155.684,146.507 156.456,145.995 157.346,145.627 C158.236,145.258 159.202,145.074 160.243,145.074 C161.113,145.074 161.983,145.245 162.854,145.587 C163.724,145.93 164.805,146.734 165.425,148.198 L163.843,148.218 C163.698,147.993 163.5,147.77 163.25,147.546 C162.999,147.321 162.713,147.124 162.39,146.953 C162.066,146.781 161.721,146.642 161.351,146.537 C160.981,146.431 160.612,146.379 160.243,146.379 C159.346,146.379 158.543,146.543 157.83,146.872 C157.118,147.202 156.515,147.644 156.021,148.198 C155.526,148.752 155.147,149.394 154.884,150.125 C154.62,150.858 154.487,151.626 154.487,152.43 C154.487,153.235 154.62,154.003 154.884,154.735 C155.147,155.466 155.526,156.109 156.021,156.663 C156.515,157.217 157.118,157.658 157.83,157.988 C158.543,158.318 159.346,158.483 160.243,158.483 C160.612,158.483 160.979,158.449 161.341,158.383 C161.704,158.318 162.06,158.206 162.409,158.048 C162.759,157.89 163.088,157.675 163.398,157.405 C163.707,157.135 163.995,156.796 164.258,156.387 L165.738,156.387 Z" style="stroke:none;fill-rule:evenodd;fill:#000000;fill-opacity:1;"/>
        </g>
        <g id="Shape2">
            <desc shapeID="2" type="0" basicInfo-basicType="0" basicInfo-roundedRectRadius="12" basicInfo-polygonSides="6" basicInfo-starPoints="5" bounding="rect(-123.074,-400.81,246.145,801.623)" text="" font-familyName="" font-pixelSize="20" font-bold="0" font-underline="0" font-alignment="1" strokeStyle="0" markerStart="0" markerEnd="0" shadowEnabled="0" shadowOffsetX="0" shadowOffsetY="2" shadowBlur="4" shadowOpacity="160" blurEnabled="0" blurRadius="4" transform="matrix(0.142011,0,0,0.142011,90.4077,68.9485)" pers-center="0,0" pers-size="0,0" pers-start="0,0" pers-end="0,0" locked="0" mesh="" flag=""/>
            <path id="shapePath2" d="M95.4516,12.321 C94.8699,12.7187 93.6766,14.1672 93.3787,14.8489 C93.265,15.1186 92.8816,15.9282 92.5264,16.6524 C91.8592,18.0441 91.8169,18.2572 92.0434,18.9246 C92.1712,19.2938 92.1289,19.4927 91.6177,20.5009 C90.9505,21.8216 90.6518,22.0062 89.8286,21.6086 C89.4735,21.4524 89.2605,21.1826 89.0049,20.6429 C88.6214,19.7624 88.2949,19.4358 87.5422,19.1802 C86.6618,18.882 86.5056,19.0524 86.5056,20.373 C86.5056,21.2678 86.5765,21.6086 86.8321,22.1056 C87.2298,22.8441 87.4002,23.7388 87.2156,24.0938 C87.0878,24.321 87.0451,24.321 86.4771,24.108 C85.8096,23.8666 84.773,23.1565 84.2617,22.6026 C84.0772,22.4039 83.6085,22.1482 83.1967,22.0062 C82.7848,21.8784 82.2026,21.6228 81.8902,21.4524 C81.5777,21.2678 80.8393,21.0263 80.2571,20.8985 C79.6748,20.7707 78.6239,20.4157 77.9139,20.1175 C77.218,19.805 76.3802,19.521 76.0535,19.4642 C75.5139,19.379 75.4429,19.4074 75.0878,19.8193 C74.5056,20.5151 74.4488,20.4583 76.6358,21.6086 C77.502,22.0489 78.3967,22.56 78.6239,22.7447 C78.8653,22.9151 79.2488,23.0997 79.4902,23.1423 C79.973,23.2559 81.379,24.2642 81.8334,24.8465 C81.9896,25.031 82.444,25.3009 82.8559,25.4287 C83.2534,25.5707 83.7505,25.8263 83.9494,26.0109 C84.1481,26.1813 84.5883,26.4654 84.9435,26.6215 C86.2499,27.218 87.5564,28.1411 87.8831,28.7091 C88.0676,29.0074 88.2097,29.334 88.2097,29.4191 C88.2097,29.618 87.7126,29.8452 86.6192,30.1151 C86.1221,30.2429 85.5399,30.4701 85.2985,30.6121 C84.7162,30.9671 83.8641,31.1517 82.16,31.3079 C81.3647,31.3789 80.5269,31.5351 80.2855,31.663 C80.0441,31.7908 79.3766,31.9895 78.8086,32.1031 C78.2405,32.231 77.3884,32.515 76.9198,32.728 C76.4512,32.9552 75.7127,33.2393 75.2725,33.3671 C74.4914,33.5801 73.2559,34.4321 72.9719,34.9434 C72.7873,35.2984 73.2275,35.6819 73.9801,35.8523 C74.6619,35.9943 76.011,35.7387 77.218,35.2274 C77.5162,35.0996 78.4109,34.8724 79.192,34.7162 C79.973,34.5457 81.1091,34.276 81.7198,34.0771 C82.8417,33.7363 83.5943,33.6511 83.9067,33.8499 C83.9919,33.9068 84.1055,34.1907 84.1624,34.4748 C84.2475,34.9434 84.1908,35.1281 83.6511,36.0084 C83.3103,36.5623 82.8132,37.315 82.5576,37.6558 C82.302,38.0108 81.9754,38.6783 81.8334,39.1327 C81.6913,39.5871 81.4357,40.141 81.2654,40.354 C80.9955,40.6948 80.9813,40.78 81.1518,41.0356 C81.2795,41.2345 81.5352,41.3481 81.876,41.3765 C82.3304,41.4191 82.5009,41.3339 83.012,40.8653 C83.3387,40.567 83.7079,40.2546 83.8215,40.1836 C84.0488,40.0415 84.8582,39.0049 86.0937,37.2582 C86.8321,36.2215 87.1587,35.909 88.6073,34.8582 L89.2321,34.4179 L89.8568,34.6593 C90.1978,34.7871 90.524,34.9576 90.5671,35.0428 C90.6235,35.1138 90.6808,35.767 90.709,36.4913 C90.7231,37.2014 90.8086,37.9399 90.8791,38.1386 C90.9505,38.3659 90.9505,38.8913 90.865,39.5304 C90.7513,40.3114 90.7513,40.709 90.8932,41.1635 C90.9787,41.4901 91.0501,41.8167 91.0501,41.9019 C90.8932,43.1658 90.8659,47.7528 91.0501,49.7125 C91.3771,53.3622 90.8108,54.5409 90.9668,54.9385 C91.322,55.8474 91.4075,58.5882 91.3925,67.7905 C91.3784,73.0733 91.3643,75.1171 91.3643,75.6283 C91.3502,76.1396 91.3643,78.3692 91.3925,80.5987 C91.4216,84.7454 91.2365,89.1622 90.9527,91.1787 C90.5552,93.9048 90.512,97.7383 90.8954,99.2713 C91.2365,100.663 91.3643,101.998 91.2365,102.751 C91.1087,103.504 90.8108,107.924 90.8672,108.549 C90.9527,109.401 90.839,112.54 90.6971,113.236 C90.6257,113.62 90.527,116.431 90.4838,119.47 C90.4415,122.509 90.3701,125.037 90.3419,125.08 C90.2,125.321 90.8108,125.775 91.3643,125.847 C91.8473,125.903 92.0033,125.861 92.2589,125.591 C92.5145,125.321 92.5577,125.136 92.5145,124.639 C92.4722,124.298 92.6705,123.748 92.7701,123.534 C93.0116,123.066 92.8979,122.168 92.7419,120.053 C92.6727,119.115 92.6423,116.815 92.6855,114.94 C92.7278,113.065 92.7137,111.29 92.6714,111.006 C92.6282,110.723 92.6714,110.04 92.7701,109.487 C92.8697,108.947 92.9834,107.499 93.0257,106.249 C93.0689,105.013 93.1685,105.577 93.2531,105.307 C93.4946,104.54 93.4381,100.706 93.1826,99.6983 C93.0548,99.2293 92.927,98.2073 92.8979,97.4263 C92.8697,96.6453 92.7701,95.4233 92.6855,94.7273 C92.4722,93.1796 92.5718,93.8766 92.9552,91.7463 C93.1253,90.88 93.2531,88.7647 93.395,88.7647 C93.6796,86.1515 93.8215,79.5336 93.6937,75.8413 C93.6224,73.8816 93.566,71.9644 93.566,71.581 C93.5518,71.1834 93.4664,70.4733 93.3809,69.9763 C93.2531,69.2947 93.2531,68.8828 93.3809,68.2721 C93.58,67.3065 93.6224,68.0745 93.5518,62.9195 C93.4946,58.3326 93.3527,56.5859 92.9834,55.9752 C92.8133,55.6912 92.9043,55.1232 92.847,54.3989 C92.8047,53.774 92.7051,52.7515 92.6196,52.1267 C92.5343,51.5037 92.9107,49.3717 92.8252,47.3835 C92.7256,44.8558 92.6974,43.6913 92.5696,43.4782 C92.47,43.3079 92.5299,42.7869 92.5264,42.433 C92.5149,41.2611 92.6939,40.2357 92.5264,39.0191 C92.5775,38.6937 92.6225,38.3671 92.6542,38.0392 C92.6983,37.581 92.6542,37.1161 92.7538,36.6617 C93.109,34.9718 93.3223,34.8156 94.6566,35.3553 C95.1678,35.554 95.6508,35.7245 95.7504,35.7245 C96.0342,35.7245 98.8316,37.1303 99.7122,37.7126 C101.587,38.9623 101.629,38.9907 102.382,39.0191 C102.978,39.0475 103.178,38.9907 103.419,38.7493 L103.717,38.451 L103.348,37.8121 C103.022,37.2582 100.82,35.1848 99.542,34.2191 L99.1304,33.9068 L99.4997,33.4807 C100.067,32.7991 101.061,32.6286 102.808,32.9269 C106.145,33.4665 107.31,33.4949 107.736,33.0263 C107.949,32.7849 107.949,32.7564 107.636,32.5292 C107.452,32.4014 106.969,32.0464 106.543,31.7339 C106.131,31.4357 105.719,31.1801 105.648,31.1801 C105.563,31.1801 105.052,30.9529 104.498,30.6689 C103.234,30.0298 99.8542,29.263 98.8316,29.405 L98.1504,29.4902 L98.1504,28.9221 C98.1504,28.2831 98.3919,28.0843 99.5702,27.7719 C99.9252,27.6867 100.65,27.3884 101.189,27.1186 C101.743,26.8487 102.254,26.6358 102.353,26.6358 C102.439,26.6358 102.836,26.4228 103.206,26.1671 C103.589,25.9115 104.228,25.5565 104.64,25.4002 C105.534,25.031 106.784,24.2358 106.884,23.9518 C106.927,23.8381 106.827,23.6109 106.671,23.4547 C106.202,22.9719 104.413,23.057 102.766,23.6252 C102.07,23.8666 101.203,24.1364 100.848,24.2216 C100.493,24.3068 99.7972,24.6334 99.2864,24.9316 C98.7752,25.2299 98.1786,25.5565 97.9512,25.6417 C97.44,25.8263 95.9487,26.7209 95.3811,27.1754 C95.0541,27.4452 94.8558,27.502 94.4152,27.4452 C94.1031,27.4026 93.7903,27.3033 93.7057,27.218 C93.4501,26.9623 93.4069,24.9743 93.6484,24.179 C94.2309,22.2334 94.5148,20.9554 94.543,20.1601 C94.5571,19.5778 94.699,18.9388 95.0118,18.1436 C95.2533,17.5045 95.4516,16.7802 95.4516,16.5246 C95.4516,16.269 95.679,15.6015 95.9487,15.0335 C96.4035,14.0962 96.7155,13.1021 96.7305,12.5625 C96.7305,12.4346 96.5736,12.2643 96.3753,12.179 C95.9205,11.966 96.006,11.9518 95.4516,12.321 Z" style="stroke:none;fill-rule:evenodd;fill:#000000;fill-opacity:1;"/>
        </g>
        <g id="Shape3">
            <desc shapeID="3" type="0" basicInfo-basicType="1" basicInfo-roundedRectRadius="12" basicInfo-polygonSides="6" basicInfo-starPoints="5" bounding="rect(-4.10935,-0.655998,8.21869,1.312)" text="" font-familyName="Avenir" font-pixelSize="300" font-bold="0" font-underline="0" font-alignment="1" strokeStyle="0" markerStart="0" markerEnd="0" shadowEnabled="0" shadowOffsetX="0" shadowOffsetY="2" shadowBlur="4" shadowOpacity="160" blurEnabled="0" blurRadius="4" transform="matrix(0.885932,0,0,1,42.0625,153.587)" pers-center="0,0" pers-size="0,0" pers-start="0,0" pers-end="0,0" locked="0" mesh="" flag=""/>
            <path id="shapePath3" d="M38.4219,152.931 L45.7031,152.931 L45.7031,154.243 L38.4219,154.243 L38.4219,152.931 Z" style="stroke:none;fill-rule:evenodd;fill:#000000;fill-opacity:1;"/>
        </g>
    </g>
</svg>
