<?xml version="1.0"?>
<svg version="1.1" xmlns="http://www.w3.org/2000/svg" xmlns:xlink="http://www.w3.org/1999/xlink" width="180" height="180">
    <desc iVinci="yes" version="4.6" gridStep="20" showGrid="no" snapToGrid="no" codePlatform="0"/>
    <g id="Layer1" name="Layer 1" opacity="1"/>
    <g id="Layer2" name="Layer 2" opacity="1">
        <g id="Shape1">
            <desc shapeID="1" type="0" basicInfo-basicType="0" basicInfo-roundedRectRadius="12" basicInfo-polygonSides="6" basicInfo-starPoints="5" bounding="rect(-1140.26,-111.596,2280.53,223.191)" text="LAZYPIC" font-familyName="Avenir" font-pixelSize="300" font-bold="0" font-underline="0" font-alignment="1" strokeStyle="0" markerStart="0" markerEnd="0" shadowEnabled="0" shadowOffsetX="0" shadowOffsetY="2" shadowBlur="4" shadowOpacity="160" blurEnabled="0" blurRadius="4" transform="matrix(0.0659266,0,0,0.0659268,90.251,152.431)" pers-center="0,0" pers-size="0,0" pers-start="0,0" pers-end="0,0" locked="0" mesh="" flag=""/>
            <path id="shapePath1" d="M16.5016,158.126 L23.0281,158.126 L23.0281,159.432 L15.0775,159.432 L15.0775,145.429 L16.5016,145.429 L16.5016,158.126 M39.15,154.448 L45.2219,154.448 L42.1957,147.09 L39.15,154.448 M37.0734,159.432 L35.412,159.432 L41.5036,145.429 L42.888,145.429 L48.9797,159.432 L47.3184,159.432 L45.7756,155.753 L38.616,155.753 L37.0734,159.432 M71.9637,146.616 L63.7954,158.126 L72.0824,158.126 L72.0824,159.432 L61.9957,159.432 L61.9957,158.245 L70.1837,146.734 L62.1143,146.734 L62.1143,145.429 L71.9637,145.429 L71.9637,146.616 M91.9417,159.432 L90.5174,159.432 L90.5174,153.4 L85.2765,145.429 L87.0566,145.429 L91.2295,152.035 L95.4037,145.429 L97.1831,145.429 L91.9417,153.4 L91.9417,159.432 M113.743,151.619 L116.038,151.619 C116.67,151.619 117.208,151.553 117.649,151.422 C118.091,151.29 118.444,151.116 118.708,150.898 C118.971,150.681 119.162,150.423 119.281,150.125 C119.4,149.829 119.459,149.51 119.459,149.167 C119.459,148.838 119.4,148.524 119.281,148.228 C119.162,147.931 118.971,147.671 118.708,147.446 C118.444,147.222 118.091,147.048 117.649,146.923 C117.208,146.797 116.67,146.734 116.038,146.734 L113.743,146.734 L113.743,151.619 M112.32,145.429 L116.393,145.429 C117.818,145.429 118.941,145.739 119.765,146.359 C120.589,146.978 121.002,147.915 121.002,149.167 C121.002,150.42 120.589,151.359 119.765,151.985 C118.941,152.612 117.818,152.925 116.393,152.925 L113.743,152.925 L113.743,159.432 L112.32,159.432 L112.32,145.429 M136.896,159.432 L135.472,159.432 L135.472,145.429 L136.896,145.429 L136.896,159.432 M165.425,157.217 C165.188,157.573 164.894,157.91 164.545,158.225 C164.196,158.542 163.797,158.816 163.349,159.047 C162.9,159.278 162.416,159.458 161.894,159.59 C161.374,159.722 160.823,159.788 160.243,159.788 C159.202,159.788 158.236,159.604 157.346,159.234 C156.456,158.864 155.684,158.354 155.032,157.702 C154.379,157.049 153.868,156.275 153.498,155.378 C153.129,154.481 152.946,153.498 152.946,152.43 C152.946,151.362 153.129,150.381 153.498,149.484 C153.868,148.588 154.379,147.813 155.032,147.16 C155.684,146.507 156.456,145.995 157.346,145.627 C158.236,145.258 159.202,145.074 160.243,145.074 C161.113,145.074 161.983,145.245 162.854,145.587 C163.724,145.93 164.469,146.497 165.089,147.288 L163.843,148.218 C163.698,147.993 163.5,147.77 163.25,147.546 C162.999,147.321 162.713,147.124 162.39,146.953 C162.066,146.781 161.721,146.642 161.351,146.537 C160.981,146.431 160.612,146.379 160.243,146.379 C159.346,146.379 158.543,146.543 157.83,146.872 C157.118,147.202 156.515,147.644 156.021,148.198 C155.526,148.752 155.147,149.394 154.884,150.125 C154.62,150.858 154.487,151.626 154.487,152.43 C154.487,153.235 154.62,154.003 154.884,154.735 C155.147,155.466 155.526,156.109 156.021,156.663 C156.515,157.217 157.118,157.658 157.83,157.988 C158.543,158.318 159.346,158.483 160.243,158.483 C160.612,158.483 160.979,158.449 161.341,158.383 C161.704,158.318 162.06,158.206 162.409,158.048 C162.759,157.89 163.088,157.675 163.398,157.405 C163.707,157.135 163.995,156.796 164.258,156.387 L165.425,157.217 Z" style="stroke:none;fill-rule:evenodd;fill:url(#linearGradientFill1);fill-opacity:1;"/><defs><linearGradient id="linearGradientFill1" gradientUnits="userSpaceOnUse" x1="90.2513" y1="145.074" x2="90.2513" y2="161.369"><stop offset="0" stop-color="#e1c476" stop-opacity="1"/><stop offset="1" stop-color="#c8b27b" stop-opacity="1"/></linearGradient></defs>
        </g>
        <g id="Shape2">
            <desc shapeID="2" type="0" basicInfo-basicType="0" basicInfo-roundedRectRadius="12" basicInfo-polygonSides="6" basicInfo-starPoints="5" bounding="rect(-123.074,-426.156,246.146,852.313)" text="" font-familyName="" font-pixelSize="20" font-bold="0" font-underline="0" font-alignment="1" strokeStyle="0" markerStart="0" markerEnd="0" shadowEnabled="0" shadowOffsetX="0" shadowOffsetY="2" shadowBlur="4" shadowOpacity="160" blurEnabled="0" blurRadius="4" transform="matrix(0.142011,0,0,0.142011,88.9566,72.5477)" pers-center="0,0" pers-size="0,0" pers-start="0,0" pers-end="0,0" locked="0" mesh="" flag=""/>
            <path id="shapePath2" d="M94.0005,12.3209 C93.4188,12.7186 92.2255,14.1671 91.9276,14.8488 C91.8139,15.1185 91.4305,15.9281 91.0753,16.6523 C90.4081,18.044 90.3658,18.2571 90.5923,18.9245 C90.7201,19.2937 90.6778,19.4926 90.1666,20.5008 C89.4994,21.8215 89.2007,22.0061 88.3775,21.6085 C88.0224,21.4523 87.8094,21.1825 87.5538,20.6428 C87.1703,19.7623 86.8438,19.4357 86.0911,19.1801 C85.2107,18.8819 85.0545,19.0523 85.0545,20.3729 C85.0545,21.2677 85.1254,21.6085 85.381,22.1055 C85.7787,22.844 85.9491,23.7387 85.7645,24.0937 C85.6367,24.3209 85.594,24.3209 85.026,24.1079 C84.3585,23.8665 83.3219,23.1564 82.8106,22.6025 C82.6261,22.4038 82.1574,22.1481 81.7456,22.0061 C81.3337,21.8783 80.7515,21.6227 80.4391,21.4523 C80.1266,21.2677 79.3882,21.0262 78.806,20.8984 C78.2237,20.7706 77.1728,20.4156 76.4628,20.1174 C75.7669,19.8049 74.9291,19.5209 74.6024,19.4641 C74.0628,19.3789 73.9918,19.4073 73.6367,19.8192 C73.0545,20.515 72.9977,20.4582 75.1847,21.6085 C76.0509,22.0488 76.9456,22.5599 77.1728,22.7446 C77.4142,22.915 77.7977,23.0996 78.0391,23.1422 C78.5219,23.2558 79.9279,24.2641 80.3823,24.8464 C80.5385,25.0309 80.9929,25.3008 81.4048,25.4286 C81.8023,25.5706 82.2994,25.8262 82.4983,26.0108 C82.697,26.1812 83.1372,26.4653 83.4924,26.6214 C84.7988,27.2179 86.1053,28.141 86.432,28.709 C86.6165,29.0073 86.7586,29.3339 86.7586,29.419 C86.7586,29.6179 86.2615,29.8451 85.1681,30.115 C84.671,30.2428 84.0888,30.47 83.8474,30.612 C83.2651,30.967 82.413,31.1516 80.7089,31.3078 C79.9136,31.3788 79.0758,31.535 78.8344,31.6629 C78.593,31.7907 77.9255,31.9894 77.3575,32.103 C76.7894,32.2309 75.9373,32.5149 75.4687,32.7279 C75.0001,32.9551 74.2616,33.2392 73.8214,33.367 C73.0403,33.58 71.8048,34.432 71.5208,34.9433 C71.3362,35.2983 71.7764,35.6818 72.529,35.8522 C73.2108,35.9942 74.5599,35.7386 75.7669,35.2273 C76.0651,35.0995 76.9598,34.8723 77.7409,34.7161 C78.5219,34.5456 79.658,34.2759 80.2687,34.077 C81.3906,33.7362 82.1432,33.651 82.4556,33.8498 C82.5408,33.9067 82.6544,34.1906 82.7113,34.4747 C82.7964,34.9433 82.7397,35.128 82.2,36.0083 C81.8592,36.5622 81.3621,37.3149 81.1065,37.6557 C80.8509,38.0107 80.5243,38.6782 80.3823,39.1326 C80.2402,39.587 79.9846,40.1409 79.8143,40.3539 C79.5444,40.6947 79.5302,40.7799 79.7007,41.0355 C79.8284,41.2344 80.0841,41.348 80.4249,41.3764 C80.8793,41.419 81.0498,41.3338 81.5609,40.8652 C81.8876,40.5669 82.2568,40.2545 82.3704,40.1835 C82.5977,40.0414 83.4071,39.0048 84.6426,37.2581 C85.381,36.2214 85.7076,35.9089 87.1562,34.8581 L87.781,34.4178 L88.4057,34.6592 C88.7467,34.787 89.0729,34.9575 89.116,35.0427 C89.1724,35.1137 89.2297,35.7669 89.2579,36.4912 C89.272,37.2013 89.3575,37.9398 89.428,38.1385 C89.4994,38.3658 89.4994,38.8912 89.4139,39.5303 C89.3002,40.3113 89.3002,40.7089 89.4421,41.1634 C89.5276,41.49 89.599,41.8166 89.599,41.9018 C89.4421,43.1657 89.4148,47.7527 89.599,49.7124 C89.926,53.3621 89.8687,54.5408 90.0247,54.9384 C90.3799,55.8473 90.4654,58.5881 90.4504,67.7904 C90.4363,73.0732 90.4222,77.8164 90.4222,78.3276 C90.4081,78.8389 90.4222,81.0685 90.4504,83.298 C90.4795,87.4447 90.2944,91.8615 90.0106,93.878 C89.6131,96.6041 89.5699,103.137 89.9533,104.67 C90.2944,106.062 90.4222,107.397 90.2944,108.15 C90.1666,108.903 89.8687,115.122 89.9251,115.747 C90.0106,116.599 89.8969,119.738 89.755,120.434 C89.6836,120.818 89.5849,123.629 89.5417,126.668 C89.4994,129.707 89.428,132.235 89.3998,132.278 C89.2579,132.519 89.8687,132.973 90.4222,133.045 C90.9052,133.101 91.0612,133.059 91.3168,132.789 C91.5724,132.519 91.6156,132.334 91.5724,131.837 C91.5301,131.496 91.5865,131.071 91.6861,130.857 C91.9276,130.389 91.9558,129.366 91.7998,127.251 C91.7293,126.313 91.7002,124.013 91.7434,122.138 C91.7857,120.263 91.7716,118.488 91.7293,118.204 C91.6861,117.921 91.7293,117.238 91.828,116.685 C91.9276,116.145 92.0413,114.697 92.0836,113.447 C92.1268,112.211 92.2264,110.976 92.311,110.706 C92.5525,109.939 92.496,106.105 92.2405,105.097 C92.1127,104.628 91.9849,103.606 91.9558,102.825 C91.9276,102.044 91.828,100.822 91.7434,100.126 C91.5301,98.5783 91.6297,96.5759 92.0131,94.4456 C92.1832,93.5793 92.3683,92.2449 92.4529,91.464 C92.7375,88.8508 92.8794,82.2329 92.7516,78.5406 C92.6803,76.5809 92.6239,74.6637 92.6239,74.2803 C92.6097,73.8827 92.5243,73.1726 92.4388,72.6756 C92.311,71.994 92.311,71.5821 92.4388,70.9714 C92.6379,70.0058 92.6803,68.0744 92.6097,62.9194 C92.5525,58.3325 92.4106,56.5858 92.0413,55.9751 C91.8712,55.6911 91.7434,55.1231 91.6861,54.3988 C91.6438,53.7739 91.5442,52.7514 91.4587,52.1266 C91.3882,51.5018 91.4596,49.3716 91.3741,47.3834 C91.2745,44.8557 91.2463,43.6912 91.1185,43.4781 C91.0189,43.3078 91.0788,42.7868 91.0753,42.4329 C91.0638,41.261 91.2428,40.2356 91.0753,39.019 C91.1264,38.6936 91.1714,38.367 91.2031,38.0391 C91.2472,37.5809 91.2031,37.116 91.3027,36.6616 C91.6579,34.9717 91.8712,34.8155 93.2055,35.3552 C93.7167,35.5539 94.1997,35.7244 94.2993,35.7244 C94.5831,35.7244 97.3805,37.1302 98.261,37.7125 C100.136,38.9622 100.178,38.9906 100.931,39.019 C101.527,39.0474 101.727,38.9906 101.968,38.7492 L102.266,38.4509 L101.897,37.812 C101.571,37.2581 99.3689,35.1847 98.0909,34.219 L97.6793,33.9067 L98.0486,33.4806 C98.6162,32.799 99.6104,32.6285 101.357,32.9268 C104.694,33.4664 105.859,33.4948 106.285,33.0262 C106.498,32.7848 106.498,32.7563 106.185,32.5291 C106.001,32.4013 105.518,32.0463 105.092,31.7338 C104.68,31.4356 104.268,31.18 104.197,31.18 C104.112,31.18 103.601,30.9528 103.047,30.6688 C101.783,30.0297 98.4029,29.2629 97.3805,29.4049 L96.6993,29.4901 L96.6993,28.922 C96.6993,28.283 96.9408,28.0842 98.1191,27.7718 C98.4743,27.6866 99.1988,27.3883 99.7382,27.1185 C100.292,26.8486 100.803,26.6357 100.902,26.6357 C100.988,26.6357 101.385,26.4227 101.755,26.167 C102.138,25.9114 102.777,25.5564 103.189,25.4001 C104.083,25.0309 105.333,24.2357 105.433,23.9517 C105.476,23.838 105.376,23.6108 105.22,23.4546 C104.751,22.9718 102.962,23.0569 101.315,23.6251 C100.619,23.8665 99.7523,24.1363 99.3971,24.2215 C99.0419,24.3067 98.3465,24.6333 97.8353,24.9315 C97.3241,25.2298 96.7275,25.5564 96.5001,25.6416 C95.9889,25.8262 94.4976,26.7208 93.93,27.1753 C93.603,27.4451 93.4047,27.5019 92.9641,27.4451 C92.652,27.4025 92.3392,27.3032 92.2546,27.2179 C91.999,26.9622 91.9558,24.9742 92.1973,24.1789 C92.7798,22.2333 93.0637,20.9553 93.0919,20.16 C93.106,19.5777 93.2479,18.9387 93.5607,18.1435 C93.8022,17.5044 94.0005,16.7801 94.0005,16.5245 C94.0005,16.2689 94.2279,15.6014 94.4976,15.0334 C94.9524,14.0961 95.2644,13.102 95.2794,12.5624 C95.2794,12.4345 95.1225,12.2642 94.9242,12.1789 C94.4694,11.9659 94.5549,11.9517 94.0005,12.3209 Z" style="stroke:none;fill-rule:evenodd;fill:url(#linearGradientFill2);fill-opacity:1;"/><defs><linearGradient id="linearGradientFill2" gradientUnits="userSpaceOnUse" x1="93.0708" y1="12.0289" x2="93.0708" y2="133.067"><stop offset="0" stop-color="#bfac7e" stop-opacity="1"/><stop offset="1" stop-color="#fbd66c" stop-opacity="1"/></linearGradient></defs>
        </g>
    </g>
    <g id="Layer3" name="Layer 3" opacity="1">
        <g id="Shape3">
            <desc shapeID="3" type="0" basicInfo-basicType="0" basicInfo-roundedRectRadius="12" basicInfo-polygonSides="6" basicInfo-starPoints="5" bounding="rect(-1140.26,-111.596,2280.53,223.191)" text="LAZYPIC" font-familyName="Avenir" font-pixelSize="300" font-bold="0" font-underline="0" font-alignment="1" strokeStyle="0" markerStart="0" markerEnd="0" shadowEnabled="0" shadowOffsetX="0" shadowOffsetY="2" shadowBlur="4" shadowOpacity="160" blurEnabled="0" blurRadius="4" transform="matrix(0.0659266,0,0,0.0659268,90.251,152.431)" pers-center="0,0" pers-size="0,0" pers-start="0,0" pers-end="0,0" locked="0" mesh="" flag=""/>
            <path id="shapePath3" d="M16.5016,158.126 L23.0281,158.126 L23.0281,159.432 L15.0775,159.432 L15.0775,145.429 L16.5016,145.429 L16.5016,158.126 M39.15,154.448 L45.2219,154.448 L42.1957,147.09 L39.15,154.448 M37.0734,159.432 L35.412,159.432 L41.5036,145.429 L42.888,145.429 L48.9797,159.432 L47.3184,159.432 L45.7756,155.753 L38.616,155.753 L37.0734,159.432 M71.9637,146.616 L63.7954,158.126 L72.0824,158.126 L72.0824,159.432 L61.9957,159.432 L61.9957,158.245 L70.1837,146.734 L62.1143,146.734 L62.1143,145.429 L71.9637,145.429 L71.9637,146.616 M91.9417,159.432 L90.5174,159.432 L90.5174,153.4 L85.2765,145.429 L87.0566,145.429 L91.2295,152.035 L95.4037,145.429 L97.1831,145.429 L91.9417,153.4 L91.9417,159.432 M113.743,151.619 L116.038,151.619 C116.67,151.619 117.208,151.553 117.649,151.422 C118.091,151.29 118.444,151.116 118.708,150.898 C118.971,150.681 119.162,150.423 119.281,150.125 C119.4,149.829 119.459,149.51 119.459,149.167 C119.459,148.838 119.4,148.524 119.281,148.228 C119.162,147.931 118.971,147.671 118.708,147.446 C118.444,147.222 118.091,147.048 117.649,146.923 C117.208,146.797 116.67,146.734 116.038,146.734 L113.743,146.734 L113.743,151.619 M112.32,145.429 L116.393,145.429 C117.818,145.429 118.941,145.739 119.765,146.359 C120.589,146.978 121.002,147.915 121.002,149.167 C121.002,150.42 120.589,151.359 119.765,151.985 C118.941,152.612 117.818,152.925 116.393,152.925 L113.743,152.925 L113.743,159.432 L112.32,159.432 L112.32,145.429 M136.896,159.432 L135.472,159.432 L135.472,145.429 L136.896,145.429 L136.896,159.432 M165.425,157.217 C165.188,157.573 164.894,157.91 164.545,158.225 C164.196,158.542 163.797,158.816 163.349,159.047 C162.9,159.278 162.416,159.458 161.894,159.59 C161.374,159.722 160.823,159.788 160.243,159.788 C159.202,159.788 158.236,159.604 157.346,159.234 C156.456,158.864 155.684,158.354 155.032,157.702 C154.379,157.049 153.868,156.275 153.498,155.378 C153.129,154.481 152.946,153.498 152.946,152.43 C152.946,151.362 153.129,150.381 153.498,149.484 C153.868,148.588 154.379,147.813 155.032,147.16 C155.684,146.507 156.456,145.995 157.346,145.627 C158.236,145.258 159.202,145.074 160.243,145.074 C161.113,145.074 161.983,145.245 162.854,145.587 C163.724,145.93 164.469,146.497 165.089,147.288 L163.843,148.218 C163.698,147.993 163.5,147.77 163.25,147.546 C162.999,147.321 162.713,147.124 162.39,146.953 C162.066,146.781 161.721,146.642 161.351,146.537 C160.981,146.431 160.612,146.379 160.243,146.379 C159.346,146.379 158.543,146.543 157.83,146.872 C157.118,147.202 156.515,147.644 156.021,148.198 C155.526,148.752 155.147,149.394 154.884,150.125 C154.62,150.858 154.487,151.626 154.487,152.43 C154.487,153.235 154.62,154.003 154.884,154.735 C155.147,155.466 155.526,156.109 156.021,156.663 C156.515,157.217 157.118,157.658 157.83,157.988 C158.543,158.318 159.346,158.483 160.243,158.483 C160.612,158.483 160.979,158.449 161.341,158.383 C161.704,158.318 162.06,158.206 162.409,158.048 C162.759,157.89 163.088,157.675 163.398,157.405 C163.707,157.135 163.995,156.796 164.258,156.387 L165.425,157.217 Z" style="stroke:none;fill-rule:evenodd;fill:#000000;fill-opacity:1;"/>
        </g>
        <g id="Shape4">
            <desc shapeID="4" type="0" basicInfo-basicType="0" basicInfo-roundedRectRadius="12" basicInfo-polygonSides="6" basicInfo-starPoints="5" bounding="rect(-123.074,-426.156,246.146,852.313)" text="" font-familyName="" font-pixelSize="20" font-bold="0" font-underline="0" font-alignment="1" strokeStyle="0" markerStart="0" markerEnd="0" shadowEnabled="0" shadowOffsetX="0" shadowOffsetY="2" shadowBlur="4" shadowOpacity="160" blurEnabled="0" blurRadius="4" transform="matrix(0.142011,0,0,0.142011,88.9566,72.5477)" pers-center="0,0" pers-size="0,0" pers-start="0,0" pers-end="0,0" locked="0" mesh="" flag=""/>
            <path id="shapePath4" d="M94.0005,12.3209 C93.4188,12.7186 92.2255,14.1671 91.9276,14.8488 C91.8139,15.1185 91.4305,15.9281 91.0753,16.6523 C90.4081,18.044 90.3658,18.2571 90.5923,18.9245 C90.7201,19.2937 90.6778,19.4926 90.1666,20.5008 C89.4994,21.8215 89.2007,22.0061 88.3775,21.6085 C88.0224,21.4523 87.8094,21.1825 87.5538,20.6428 C87.1703,19.7623 86.8438,19.4357 86.0911,19.1801 C85.2107,18.8819 85.0545,19.0523 85.0545,20.3729 C85.0545,21.2677 85.1254,21.6085 85.381,22.1055 C85.7787,22.844 85.9491,23.7387 85.7645,24.0937 C85.6367,24.3209 85.594,24.3209 85.026,24.1079 C84.3585,23.8665 83.3219,23.1564 82.8106,22.6025 C82.6261,22.4038 82.1574,22.1481 81.7456,22.0061 C81.3337,21.8783 80.7515,21.6227 80.4391,21.4523 C80.1266,21.2677 79.3882,21.0262 78.806,20.8984 C78.2237,20.7706 77.1728,20.4156 76.4628,20.1174 C75.7669,19.8049 74.9291,19.5209 74.6024,19.4641 C74.0628,19.3789 73.9918,19.4073 73.6367,19.8192 C73.0545,20.515 72.9977,20.4582 75.1847,21.6085 C76.0509,22.0488 76.9456,22.5599 77.1728,22.7446 C77.4142,22.915 77.7977,23.0996 78.0391,23.1422 C78.5219,23.2558 79.9279,24.2641 80.3823,24.8464 C80.5385,25.0309 80.9929,25.3008 81.4048,25.4286 C81.8023,25.5706 82.2994,25.8262 82.4983,26.0108 C82.697,26.1812 83.1372,26.4653 83.4924,26.6214 C84.7988,27.2179 86.1053,28.141 86.432,28.709 C86.6165,29.0073 86.7586,29.3339 86.7586,29.419 C86.7586,29.6179 86.2615,29.8451 85.1681,30.115 C84.671,30.2428 84.0888,30.47 83.8474,30.612 C83.2651,30.967 82.413,31.1516 80.7089,31.3078 C79.9136,31.3788 79.0758,31.535 78.8344,31.6629 C78.593,31.7907 77.9255,31.9894 77.3575,32.103 C76.7894,32.2309 75.9373,32.5149 75.4687,32.7279 C75.0001,32.9551 74.2616,33.2392 73.8214,33.367 C73.0403,33.58 71.8048,34.432 71.5208,34.9433 C71.3362,35.2983 71.7764,35.6818 72.529,35.8522 C73.2108,35.9942 74.5599,35.7386 75.7669,35.2273 C76.0651,35.0995 76.9598,34.8723 77.7409,34.7161 C78.5219,34.5456 79.658,34.2759 80.2687,34.077 C81.3906,33.7362 82.1432,33.651 82.4556,33.8498 C82.5408,33.9067 82.6544,34.1906 82.7113,34.4747 C82.7964,34.9433 82.7397,35.128 82.2,36.0083 C81.8592,36.5622 81.3621,37.3149 81.1065,37.6557 C80.8509,38.0107 80.5243,38.6782 80.3823,39.1326 C80.2402,39.587 79.9846,40.1409 79.8143,40.3539 C79.5444,40.6947 79.5302,40.7799 79.7007,41.0355 C79.8284,41.2344 80.0841,41.348 80.4249,41.3764 C80.8793,41.419 81.0498,41.3338 81.5609,40.8652 C81.8876,40.5669 82.2568,40.2545 82.3704,40.1835 C82.5977,40.0414 83.4071,39.0048 84.6426,37.2581 C85.381,36.2214 85.7076,35.9089 87.1562,34.8581 L87.781,34.4178 L88.4057,34.6592 C88.7467,34.787 89.0729,34.9575 89.116,35.0427 C89.1724,35.1137 89.2297,35.7669 89.2579,36.4912 C89.272,37.2013 89.3575,37.9398 89.428,38.1385 C89.4994,38.3658 89.4994,38.8912 89.4139,39.5303 C89.3002,40.3113 89.3002,40.7089 89.4421,41.1634 C89.5276,41.49 89.599,41.8166 89.599,41.9018 C89.4421,43.1657 89.4148,47.7527 89.599,49.7124 C89.926,53.3621 89.8687,54.5408 90.0247,54.9384 C90.3799,55.8473 90.4654,58.5881 90.4504,67.7904 C90.4363,73.0732 90.4222,77.8164 90.4222,78.3276 C90.4081,78.8389 90.4222,81.0685 90.4504,83.298 C90.4795,87.4447 90.2944,91.8615 90.0106,93.878 C89.6131,96.6041 89.5699,103.137 89.9533,104.67 C90.2944,106.062 90.4222,107.397 90.2944,108.15 C90.1666,108.903 89.8687,115.122 89.9251,115.747 C90.0106,116.599 89.8969,119.738 89.755,120.434 C89.6836,120.818 89.5849,123.629 89.5417,126.668 C89.4994,129.707 89.428,132.235 89.3998,132.278 C89.2579,132.519 89.8687,132.973 90.4222,133.045 C90.9052,133.101 91.0612,133.059 91.3168,132.789 C91.5724,132.519 91.6156,132.334 91.5724,131.837 C91.5301,131.496 91.5865,131.071 91.6861,130.857 C91.9276,130.389 91.9558,129.366 91.7998,127.251 C91.7293,126.313 91.7002,124.013 91.7434,122.138 C91.7857,120.263 91.7716,118.488 91.7293,118.204 C91.6861,117.921 91.7293,117.238 91.828,116.685 C91.9276,116.145 92.0413,114.697 92.0836,113.447 C92.1268,112.211 92.2264,110.976 92.311,110.706 C92.5525,109.939 92.496,106.105 92.2405,105.097 C92.1127,104.628 91.9849,103.606 91.9558,102.825 C91.9276,102.044 91.828,100.822 91.7434,100.126 C91.5301,98.5783 91.6297,96.5759 92.0131,94.4456 C92.1832,93.5793 92.3683,92.2449 92.4529,91.464 C92.7375,88.8508 92.8794,82.2329 92.7516,78.5406 C92.6803,76.5809 92.6239,74.6637 92.6239,74.2803 C92.6097,73.8827 92.5243,73.1726 92.4388,72.6756 C92.311,71.994 92.311,71.5821 92.4388,70.9714 C92.6379,70.0058 92.6803,68.0744 92.6097,62.9194 C92.5525,58.3325 92.4106,56.5858 92.0413,55.9751 C91.8712,55.6911 91.7434,55.1231 91.6861,54.3988 C91.6438,53.7739 91.5442,52.7514 91.4587,52.1266 C91.3882,51.5018 91.4596,49.3716 91.3741,47.3834 C91.2745,44.8557 91.2463,43.6912 91.1185,43.4781 C91.0189,43.3078 91.0788,42.7868 91.0753,42.4329 C91.0638,41.261 91.2428,40.2356 91.0753,39.019 C91.1264,38.6936 91.1714,38.367 91.2031,38.0391 C91.2472,37.5809 91.2031,37.116 91.3027,36.6616 C91.6579,34.9717 91.8712,34.8155 93.2055,35.3552 C93.7167,35.5539 94.1997,35.7244 94.2993,35.7244 C94.5831,35.7244 97.3805,37.1302 98.261,37.7125 C100.136,38.9622 100.178,38.9906 100.931,39.019 C101.527,39.0474 101.727,38.9906 101.968,38.7492 L102.266,38.4509 L101.897,37.812 C101.571,37.2581 99.3689,35.1847 98.0909,34.219 L97.6793,33.9067 L98.0486,33.4806 C98.6162,32.799 99.6104,32.6285 101.357,32.9268 C104.694,33.4664 105.859,33.4948 106.285,33.0262 C106.498,32.7848 106.498,32.7563 106.185,32.5291 C106.001,32.4013 105.518,32.0463 105.092,31.7338 C104.68,31.4356 104.268,31.18 104.197,31.18 C104.112,31.18 103.601,30.9528 103.047,30.6688 C101.783,30.0297 98.4029,29.2629 97.3805,29.4049 L96.6993,29.4901 L96.6993,28.922 C96.6993,28.283 96.9408,28.0842 98.1191,27.7718 C98.4743,27.6866 99.1988,27.3883 99.7382,27.1185 C100.292,26.8486 100.803,26.6357 100.902,26.6357 C100.988,26.6357 101.385,26.4227 101.755,26.167 C102.138,25.9114 102.777,25.5564 103.189,25.4001 C104.083,25.0309 105.333,24.2357 105.433,23.9517 C105.476,23.838 105.376,23.6108 105.22,23.4546 C104.751,22.9718 102.962,23.0569 101.315,23.6251 C100.619,23.8665 99.7523,24.1363 99.3971,24.2215 C99.0419,24.3067 98.3465,24.6333 97.8353,24.9315 C97.3241,25.2298 96.7275,25.5564 96.5001,25.6416 C95.9889,25.8262 94.4976,26.7208 93.93,27.1753 C93.603,27.4451 93.4047,27.5019 92.9641,27.4451 C92.652,27.4025 92.3392,27.3032 92.2546,27.2179 C91.999,26.9622 91.9558,24.9742 92.1973,24.1789 C92.7798,22.2333 93.0637,20.9553 93.0919,20.16 C93.106,19.5777 93.2479,18.9387 93.5607,18.1435 C93.8022,17.5044 94.0005,16.7801 94.0005,16.5245 C94.0005,16.2689 94.2279,15.6014 94.4976,15.0334 C94.9524,14.0961 95.2644,13.102 95.2794,12.5624 C95.2794,12.4345 95.1225,12.2642 94.9242,12.1789 C94.4694,11.9659 94.5549,11.9517 94.0005,12.3209 Z" style="stroke:none;fill-rule:evenodd;fill:#000000;fill-opacity:1;"/>
        </g>
    </g>
</svg>
