<svg width="200" height="200" xmlns="http://www.w3.org/2000/svg">

 <g>
  <title>Layer 1</title>
  <desc codePlatform="0" snapToGrid="no" showGrid="no" gridStep="20" version="4.6" iVinci="yes"/>
  <g stroke="null" id="svg_4">
   <desc stroke="null" locked="0" pers-end="0,0" pers-start="0,0" pers-size="0,0" pers-center="0,0" transform="matrix(0.142011,0,0,0.142011,90.4077,68.9485)" blurRadius="4" blurEnabled="0" shadowOpacity="160" shadowBlur="4" shadowOffsetY="2" shadowOffsetX="0" shadowEnabled="0" markerEnd="0" markerStart="0" strokeStyle="0" font-alignment="1" font-underline="0" font-bold="0" font-pixelSize="20" bounding="rect(-123.074,-400.81,246.145,801.623)" basicInfo-starPoints="5" basicInfo-polygonSides="6" basicInfo-roundedRectRadius="12" basicInfo-basicType="0" type="0" shapeID="2"/>
   <path stroke="null" fill="#000000" fill-rule="evenodd" d="m107.64156,14.56285c-0.88124,0.60249 -2.68903,2.79689 -3.14033,3.82963c-0.17225,0.40858 -0.75308,1.63508 -1.29119,2.73221c-1.01077,2.10835 -1.07485,2.43119 -0.73172,3.44226c0.19361,0.55932 0.12953,0.86064 -0.64491,2.38801c-1.01077,2.00079 -1.46329,2.28045 -2.71039,1.67811c-0.53796,-0.23663 -0.86064,-0.64537 -1.24786,-1.46298c-0.58098,-1.33391 -1.07561,-1.82869 -2.21591,-2.21591c-1.33376,-0.45176 -1.57039,-0.19361 -1.57039,1.80703c0,1.35557 0.10741,1.87187 0.49463,2.6248c0.60249,1.11879 0.86064,2.47421 0.58098,3.01202c-0.19361,0.3442 -0.2583,0.3442 -1.11879,0.02151c-1.01123,-0.36571 -2.58162,-1.44147 -3.35621,-2.2806c-0.27951,-0.30102 -0.98956,-0.68839 -1.61342,-0.90351c-0.62401,-0.19361 -1.50601,-0.58083 -1.97928,-0.83898c-0.47342,-0.27966 -1.59206,-0.64552 -2.47406,-0.83913c-0.88215,-0.19361 -2.47421,-0.73142 -3.54982,-1.18317c-1.05425,-0.47342 -2.32347,-0.90367 -2.81841,-0.98971c-0.81746,-0.12907 -0.92503,-0.08605 -1.46298,0.53796c-0.882,1.0541 -0.96805,0.96805 2.34514,2.71069c1.31225,0.66703 2.66767,1.44132 3.01186,1.72113c0.36571,0.25815 0.94669,0.53781 1.3124,0.60234c0.73142,0.1721 2.86143,1.69962 3.54982,2.58177c0.23663,0.27951 0.92503,0.68839 1.54903,0.882c0.60219,0.21512 1.35527,0.60234 1.65659,0.882c0.30102,0.25815 0.9679,0.68854 1.50601,0.92503c1.97913,0.90367 3.9584,2.30211 4.45334,3.1626c0.27951,0.45191 0.49478,0.94669 0.49478,1.07561c0,0.30132 -0.75308,0.64552 -2.40952,1.0544c-0.75308,0.19361 -1.63508,0.53781 -2.00079,0.75293c-0.88215,0.53781 -2.17304,0.81746 -4.75466,1.0541c-1.20484,0.10756 -2.47406,0.3442 -2.83977,0.53796c-0.36571,0.19361 -1.37693,0.49463 -2.23742,0.66673c-0.86064,0.19376 -2.15153,0.62401 -2.86143,0.94669c-0.7099,0.3442 -1.82869,0.77459 -2.49557,0.9682c-1.18332,0.32268 -3.05504,1.61342 -3.48529,2.38801c-0.27966,0.53781 0.38722,1.11879 1.52737,1.37693c1.03289,0.21512 3.0767,-0.1721 4.90524,-0.94669c0.45176,-0.19361 1.80718,-0.53781 2.9905,-0.77444c1.18317,-0.2583 2.9043,-0.66688 3.82948,-0.9682c1.69962,-0.51629 2.83977,-0.64537 3.31304,-0.3442c0.12907,0.0862 0.30117,0.51629 0.38737,0.94669c0.12892,0.7099 0.04302,0.98971 -0.77459,2.32332c-0.51629,0.83913 -1.26937,1.97943 -1.65659,2.49572c-0.38722,0.53781 -0.882,1.54903 -1.09712,2.23742c-0.21527,0.68839 -0.60249,1.52752 -0.86049,1.8502c-0.40888,0.51629 -0.4304,0.64537 -0.1721,1.03259c0.19346,0.30132 0.58083,0.47342 1.09712,0.51645c0.68839,0.06454 0.94669,-0.06454 1.72098,-0.77444c0.49493,-0.45191 1.05425,-0.92518 1.22635,-1.03274c0.34435,-0.21527 1.57054,-1.78567 3.44226,-4.43182c1.11864,-1.57054 1.61342,-2.04397 3.80797,-3.63587l0.94654,-0.66703l0.94639,0.36571c0.5166,0.19361 1.01077,0.45191 1.07607,0.58098c0.08544,0.10756 0.17225,1.09712 0.21497,2.1944c0.02136,1.07576 0.15089,2.19455 0.25769,2.49557c0.10817,0.34435 0.10817,1.1403 -0.02136,2.1085c-0.17225,1.18317 -0.17225,1.78552 0.04272,2.47406c0.12953,0.49478 0.2377,0.98956 0.2377,1.11864c-0.2377,1.91474 -0.27905,8.8638 0,11.83264c0.49539,5.5291 -0.36253,7.31477 -0.1262,7.91711c0.53811,1.37693 0.66764,5.5291 0.64491,19.47009c-0.02136,8.00316 -0.04272,11.0994 -0.04272,11.87384c-0.02136,0.77459 0,4.15232 0.04272,7.52989c0.04408,6.28203 -0.23633,12.97324 -0.66627,16.02813c-0.60219,4.12989 -0.66764,9.93744 -0.08681,12.25985c0.51675,2.10835 0.71036,4.1308 0.51675,5.27156c-0.19361,1.14075 -0.64491,7.83682 -0.55947,8.78366c0.12953,1.29073 -0.04272,6.04615 -0.25769,7.10055c-0.10817,0.58174 -0.25769,4.84025 -0.32314,9.44417c-0.06408,4.60392 -0.17225,8.4337 -0.21497,8.49885c-0.21497,0.3651 0.71036,1.05289 1.54888,1.16196c0.73172,0.08484 0.96805,0.02121 1.35527,-0.38783c0.38722,-0.40904 0.45267,-0.6893 0.38722,-1.44223c-0.06408,-0.5166 0.23633,-1.34982 0.38722,-1.67402c0.36586,-0.70899 0.19361,-2.06942 -0.04272,-5.27353c-0.10483,-1.42102 -0.15089,-4.9054 -0.08544,-7.74592c0.06408,-2.84052 0.04272,-5.52955 -0.02136,-5.9598c-0.06545,-0.42873 0,-1.46344 0.14953,-2.3012c0.15089,-0.81807 0.32314,-3.01171 0.38722,-4.9054c0.06545,-1.87247 0.21633,-1.01804 0.3445,-1.42708c0.36586,-1.16196 0.28027,-6.97027 -0.1068,-8.49688c-0.19361,-0.71051 -0.38722,-2.25878 -0.43131,-3.44196c-0.04272,-1.18317 -0.19361,-3.03444 -0.32177,-4.08884c-0.32314,-2.34468 -0.17225,-1.28876 0.40858,-4.51605c0.25769,-1.3124 0.4513,-4.51696 0.66627,-4.51696c0.43115,-3.95886 0.64612,-13.98462 0.45251,-19.57825c-0.10802,-2.96884 -0.19346,-5.87329 -0.19346,-6.45412c-0.02151,-0.60234 -0.15089,-1.67811 -0.28042,-2.43103c-0.19361,-1.03259 -0.19361,-1.65659 0,-2.58177c0.30163,-1.46283 0.36586,-0.29935 0.2589,-8.1089c-0.08665,-6.94891 -0.30163,-9.59506 -0.8611,-10.52024c-0.25769,-0.43024 -0.11983,-1.29073 -0.20664,-2.38801c-0.06408,-0.94669 -0.21497,-2.49572 -0.3445,-3.44226c-0.12922,-0.94381 0.441,-4.17368 0.31147,-7.18569c-0.15089,-3.82933 -0.19361,-5.59348 -0.38722,-5.91632c-0.15089,-0.258 -0.06014,-1.04728 -0.06545,-1.58342c-0.01742,-1.77537 0.25375,-3.32879 0,-5.17187c0.07741,-0.49296 0.14559,-0.98774 0.19361,-1.4845c0.06681,-0.69415 0,-1.39845 0.15089,-2.08684c0.53811,-2.56011 0.86125,-2.79674 2.88264,-1.97913c0.77444,0.30102 1.50616,0.55932 1.65705,0.55932c0.42994,0 4.66785,2.12971 6.00191,3.01186c2.84022,1.89323 2.90385,1.93625 4.0446,1.97928c0.90291,0.04302 1.2059,-0.04302 1.571,-0.40873l0.45145,-0.45191l-0.55902,-0.9679c-0.49387,-0.83913 -3.82978,-3.98022 -5.76588,-5.4432l-0.62355,-0.47312l0.55947,-0.64552c0.85943,-1.03259 2.36529,-1.29089 5.0119,-0.83898c5.05538,0.81746 6.82029,0.86049 7.46565,0.15059c0.32268,-0.36571 0.32268,-0.40888 -0.15149,-0.75308c-0.27875,-0.19361 -1.01047,-0.73142 -1.65584,-1.20484c-0.62416,-0.45176 -1.24832,-0.83898 -1.35588,-0.83898c-0.12877,0 -0.90291,-0.3442 -1.74219,-0.77444c-1.91489,-0.9682 -7.03511,-2.12986 -8.58429,-1.91474l-1.03198,0.12907l0,-0.86064c0,-0.96805 0.36586,-1.26922 2.15092,-1.74249c0.53781,-0.12907 1.63584,-0.58098 2.45239,-0.98971c0.83928,-0.40888 1.61342,-0.73142 1.7634,-0.73142c0.13029,0 0.73172,-0.32268 1.29225,-0.71006c0.58022,-0.38722 1.54827,-0.92503 2.17243,-1.16181c1.35436,-0.55932 3.24804,-1.764 3.39954,-2.19425c0.06514,-0.17225 -0.08635,-0.51645 -0.32268,-0.75308c-0.71051,-0.73142 -3.42075,-0.60249 -5.91586,0.2583c-1.0544,0.36571 -2.36786,0.77444 -2.90567,0.90351c-0.53781,0.12907 -1.59191,0.62385 -2.36574,1.07561c-0.77444,0.45191 -1.67826,0.94669 -2.02276,1.07576c-0.77444,0.27966 -3.03368,1.63493 -3.89356,2.32347c-0.49539,0.40873 -0.7958,0.49478 -1.46329,0.40873c-0.47281,-0.06454 -0.94669,-0.21497 -1.07485,-0.3442c-0.38722,-0.38737 -0.45267,-3.39908 -0.08681,-4.60392c0.88246,-2.94748 1.31255,-4.88358 1.35527,-6.08842c0.02136,-0.88215 0.23633,-1.8502 0.71021,-3.05489c0.36586,-0.9682 0.66627,-2.06548 0.66627,-2.4527c0,-0.38722 0.3445,-1.39845 0.75308,-2.25894c0.689,-1.41996 1.16166,-2.92597 1.18438,-3.74343c0,-0.19376 -0.2377,-0.45176 -0.53811,-0.58098c-0.689,-0.32268 -0.55947,-0.3442 -1.39936,0.21512z" id="svg_5"/>
  </g>
 </g>
</svg>