<?xml version="1.0"?>
<svg version="1.1" xmlns="http://www.w3.org/2000/svg" xmlns:xlink="http://www.w3.org/1999/xlink" width="180" height="180">
    <desc iVinci="yes" version="4.6" gridStep="20" showGrid="no" snapToGrid="no" codePlatform="0"/>
    <g id="Layer1" name="Layer 1" opacity="1">
        <g id="Shape1">
            <desc shapeID="1" type="0" basicInfo-basicType="0" basicInfo-roundedRectRadius="12" basicInfo-polygonSides="6" basicInfo-starPoints="5" bounding="rect(-1142.63,-111.594,2285.27,223.187)" text="LAZYPIC" font-familyName="Avenir" font-pixelSize="300" font-bold="0" font-underline="0" font-alignment="1" strokeStyle="0" markerStart="0" markerEnd="0" shadowEnabled="0" shadowOffsetX="0" shadowOffsetY="2" shadowBlur="4" shadowOpacity="160" blurEnabled="0" blurRadius="4" transform="matrix(0.0659266,0,0,0.0659268,90.4072,152.431)" pers-center="0,0" pers-size="0,0" pers-start="0,0" pers-end="0,0" locked="0" mesh="" flag=""/>
            <path id="shapePath1" d="M16.5016,158.126 L23.0281,158.126 L23.0281,159.432 L15.0775,159.432 L15.0775,145.429 L16.5016,145.429 L16.5016,158.126 M37.0734,159.432 L35.412,159.432 L41.5036,145.429 L42.888,145.429 L48.9797,159.432 L47.3184,159.432 L42.1819,147.142 L37.0734,159.432 M63.7954,158.126 L72.4175,158.126 L72.4175,159.432 L61.1832,159.432 L70.1837,146.734 L61.7792,146.734 L61.7792,145.429 L72.745,145.429 L63.7954,158.126 M91.9417,159.432 L90.5174,159.432 L90.5174,153.4 L85.2765,145.429 L87.0566,145.429 L91.2295,152.035 L95.4037,145.429 L97.1831,145.429 L91.9417,153.4 L91.9417,159.432 M113.743,151.619 L116.038,151.619 C116.67,151.619 117.208,151.553 117.649,151.422 C118.091,151.29 118.444,151.116 118.708,150.898 C118.971,150.681 119.162,150.423 119.281,150.125 C119.4,149.829 119.459,149.51 119.459,149.167 C119.459,148.838 119.4,148.524 119.281,148.228 C119.162,147.931 118.971,147.671 118.708,147.446 C118.444,147.222 118.091,147.048 117.649,146.923 C117.208,146.797 116.67,146.734 116.038,146.734 L113.743,146.734 L113.743,151.619 M112.32,145.429 L116.393,145.429 C117.818,145.429 118.941,145.739 119.765,146.359 C120.589,146.978 121.002,147.915 121.002,149.167 C121.002,150.42 120.589,151.359 119.765,151.985 C118.941,152.612 117.818,152.925 116.393,152.925 L113.743,152.925 L113.743,159.432 L112.32,159.432 L112.32,145.429 M136.896,159.432 L135.472,159.432 L135.472,145.429 L136.896,145.429 L136.896,159.432 M165.738,156.387 C165.657,156.962 164.894,157.91 164.545,158.225 C164.196,158.542 163.797,158.816 163.349,159.047 C162.9,159.278 162.416,159.458 161.894,159.59 C161.374,159.722 160.823,159.788 160.243,159.788 C159.202,159.788 158.236,159.604 157.346,159.234 C156.456,158.864 155.684,158.354 155.032,157.702 C154.379,157.049 153.868,156.275 153.498,155.378 C153.129,154.481 152.946,153.498 152.946,152.43 C152.946,151.362 153.129,150.381 153.498,149.484 C153.868,148.588 154.379,147.813 155.032,147.16 C155.684,146.507 156.456,145.995 157.346,145.627 C158.236,145.258 159.202,145.074 160.243,145.074 C161.113,145.074 161.983,145.245 162.854,145.587 C163.724,145.93 164.805,146.734 165.425,148.198 L163.843,148.218 C163.698,147.993 163.5,147.77 163.25,147.546 C162.999,147.321 162.713,147.124 162.39,146.953 C162.066,146.781 161.721,146.642 161.351,146.537 C160.981,146.431 160.612,146.379 160.243,146.379 C159.346,146.379 158.543,146.543 157.83,146.872 C157.118,147.202 156.515,147.644 156.021,148.198 C155.526,148.752 155.147,149.394 154.884,150.125 C154.62,150.858 154.487,151.626 154.487,152.43 C154.487,153.235 154.62,154.003 154.884,154.735 C155.147,155.466 155.526,156.109 156.021,156.663 C156.515,157.217 157.118,157.658 157.83,157.988 C158.543,158.318 159.346,158.483 160.243,158.483 C160.612,158.483 160.979,158.449 161.341,158.383 C161.704,158.318 162.06,158.206 162.409,158.048 C162.759,157.89 163.088,157.675 163.398,157.405 C163.707,157.135 163.995,156.796 164.258,156.387 L165.738,156.387 Z" style="stroke:none;fill-rule:evenodd;fill:#000000;fill-opacity:1;"/>
        </g>
        <g id="Shape2">
            <desc shapeID="2" type="0" basicInfo-basicType="0" basicInfo-roundedRectRadius="12" basicInfo-polygonSides="6" basicInfo-starPoints="5" bounding="rect(-123.073,-426.155,246.144,852.312)" text="" font-familyName="" font-pixelSize="20" font-bold="0" font-underline="0" font-alignment="1" strokeStyle="0" markerStart="0" markerEnd="0" shadowEnabled="0" shadowOffsetX="0" shadowOffsetY="2" shadowBlur="4" shadowOpacity="160" blurEnabled="0" blurRadius="4" transform="matrix(0.142011,0,0,0.142011,90.7295,72.5477)" pers-center="0,0" pers-size="0,0" pers-start="0,0" pers-end="0,0" locked="0" mesh="" flag=""/>
            <path id="shapePath2" d="M95.7734,12.3209 C95.1917,12.7186 93.9984,14.1671 93.7005,14.8488 C93.5868,15.1185 93.2034,15.9281 92.8482,16.6523 C92.181,18.044 92.1387,18.2571 92.3652,18.9245 C92.493,19.2937 92.4507,19.4926 91.9395,20.5008 C91.2723,21.8215 90.9736,22.0061 90.1504,21.6085 C89.7953,21.4523 89.5823,21.1825 89.3267,20.6428 C88.9432,19.7623 88.6167,19.4357 87.864,19.1801 C86.9836,18.8819 86.8274,19.0523 86.8274,20.3729 C86.8274,21.2677 86.8983,21.6085 87.1539,22.1055 C87.5516,22.844 87.722,23.7387 87.5374,24.0937 C87.4096,24.3209 87.3669,24.3209 86.7989,24.1079 C86.1314,23.8665 85.0948,23.1564 84.5835,22.6025 C84.399,22.4038 83.9303,22.1481 83.5185,22.0061 C83.1066,21.8783 82.5244,21.6227 82.212,21.4523 C81.8995,21.2677 81.1611,21.0262 80.5789,20.8984 C79.9966,20.7706 78.9457,20.4156 78.2357,20.1174 C77.5398,19.8049 76.702,19.5209 76.3753,19.4641 C75.8357,19.3789 75.7647,19.4073 75.4096,19.8192 C74.8274,20.515 74.7706,20.4582 76.9576,21.6085 C77.8238,22.0488 78.7185,22.5599 78.9457,22.7446 C79.1871,22.915 79.5706,23.0996 79.812,23.1422 C80.2948,23.2558 81.7008,24.2641 82.1552,24.8464 C82.3114,25.0309 82.7658,25.3008 83.1777,25.4286 C83.5752,25.5706 84.0723,25.8262 84.2712,26.0108 C84.4699,26.1812 84.9101,26.4653 85.2653,26.6214 C86.5717,27.2179 87.8782,28.141 88.2049,28.709 C88.3894,29.0073 88.5315,29.3339 88.5315,29.419 C88.5315,29.6179 88.0344,29.8451 86.941,30.115 C86.4439,30.2428 85.8617,30.47 85.6203,30.612 C85.038,30.967 84.1859,31.1516 82.4818,31.3078 C81.6865,31.3788 80.8487,31.535 80.6073,31.6629 C80.3659,31.7907 79.6984,31.9894 79.1304,32.103 C78.5623,32.2309 77.7102,32.5149 77.2416,32.7279 C76.773,32.9551 76.0345,33.2392 75.5943,33.367 C74.8132,33.58 73.5777,34.432 73.2937,34.9433 C73.1091,35.2983 73.5493,35.6818 74.3019,35.8522 C74.9837,35.9942 76.3328,35.7386 77.5398,35.2273 C77.838,35.0995 78.7327,34.8723 79.5138,34.7161 C80.2948,34.5456 81.4309,34.2759 82.0416,34.077 C83.1635,33.7362 83.9161,33.651 84.2285,33.8498 C84.3137,33.9067 84.4273,34.1906 84.4842,34.4747 C84.5693,34.9433 84.5126,35.128 83.9729,36.0083 C83.6321,36.5622 83.135,37.3149 82.8794,37.6557 C82.6238,38.0107 82.2972,38.6782 82.1552,39.1326 C82.0131,39.587 81.7575,40.1409 81.5872,40.3539 C81.3173,40.6947 81.3031,40.7799 81.4736,41.0355 C81.6013,41.2344 81.857,41.348 82.1978,41.3764 C82.6522,41.419 82.8227,41.3338 83.3338,40.8652 C83.6605,40.5669 84.0297,40.2545 84.1433,40.1835 C84.3706,40.0414 85.18,39.0048 86.4155,37.2581 C87.1539,36.2214 87.4805,35.9089 88.9291,34.8581 L89.5539,34.4178 L90.1786,34.6592 C90.5196,34.787 90.8458,34.9575 90.8889,35.0427 C90.9453,35.1137 91.0026,35.7669 91.0308,36.4912 C91.0449,37.2013 91.1304,37.9398 91.2009,38.1385 C91.2723,38.3658 91.2723,38.8912 91.1868,39.5303 C91.0731,40.3113 91.0731,40.7089 91.215,41.1634 C91.3005,41.49 91.3719,41.8166 91.3719,41.9018 C91.215,43.1657 91.1877,47.7527 91.3719,49.7124 C91.6989,53.3621 91.1326,54.5408 91.2886,54.9384 C91.6438,55.8473 91.7293,58.5881 91.7143,67.7904 C91.7002,73.0732 91.6861,77.8164 91.6861,78.3276 C91.672,78.8389 91.6861,81.0685 91.7143,83.298 C91.7434,87.4447 91.5583,91.8615 91.2745,93.878 C90.877,96.6041 90.8338,103.137 91.2172,104.67 C91.5583,106.062 91.6861,107.397 91.5583,108.15 C91.4305,108.903 91.1326,115.122 91.189,115.747 C91.2745,116.599 91.1608,119.738 91.0189,120.434 C90.9475,120.818 90.8488,123.629 90.8056,126.668 C90.7633,129.707 90.6919,132.235 90.6637,132.278 C90.5218,132.519 91.1326,132.973 91.6861,133.045 C92.1691,133.101 92.3251,133.059 92.5807,132.789 C92.8363,132.519 92.8795,132.334 92.8363,131.837 C92.794,131.496 92.9923,130.946 93.0919,130.732 C93.3334,130.264 93.2197,129.366 93.0637,127.251 C92.9945,126.313 92.9641,124.013 93.0073,122.138 C93.0496,120.263 93.0355,118.488 92.9932,118.204 C92.95,117.921 92.9932,117.238 93.0919,116.685 C93.1915,116.145 93.3052,114.697 93.3475,113.447 C93.3907,112.211 93.4903,110.976 93.5749,110.706 C93.8164,109.939 93.7599,106.105 93.5044,105.097 C93.3766,104.628 93.2488,103.606 93.2197,102.825 C93.1915,102.044 93.0919,100.822 93.0073,100.126 C92.794,98.5783 92.8936,96.5759 93.277,94.4456 C93.4471,93.5793 93.6322,92.2449 93.7168,91.464 C94.0014,88.8508 94.1433,82.2329 94.0155,78.5406 C93.9442,76.5809 93.8878,74.6637 93.8878,74.2803 C93.8736,73.8827 93.7882,73.1726 93.7027,72.6756 C93.5749,71.994 93.5749,71.5821 93.7027,70.9714 C93.9018,70.0058 93.9442,68.0744 93.8736,62.9194 C93.8164,58.3325 93.6745,56.5858 93.3052,55.9751 C93.1351,55.6911 93.2261,55.1231 93.1688,54.3988 C93.1265,53.7739 93.0269,52.7514 92.9414,52.1266 C92.8561,51.5036 93.2325,49.3716 93.147,47.3834 C93.0474,44.8557 93.0192,43.6912 92.8914,43.4781 C92.7918,43.3078 92.8517,42.7868 92.8482,42.4329 C92.8367,41.261 93.0157,40.2356 92.8482,39.019 C92.8993,38.6936 92.9443,38.367 92.976,38.0391 C93.0201,37.5809 92.976,37.116 93.0756,36.6616 C93.4308,34.9717 93.6441,34.8155 94.9784,35.3552 C95.4896,35.5539 95.9726,35.7244 96.0722,35.7244 C96.356,35.7244 99.1534,37.1302 100.034,37.7125 C101.909,38.9622 101.951,38.9906 102.704,39.019 C103.3,39.0474 103.5,38.9906 103.741,38.7492 L104.039,38.4509 L103.67,37.812 C103.344,37.2581 101.142,35.1847 99.8638,34.219 L99.4522,33.9067 L99.8215,33.4806 C100.389,32.799 101.383,32.6285 103.13,32.9268 C106.467,33.4664 107.632,33.4948 108.058,33.0262 C108.271,32.7848 108.271,32.7563 107.958,32.5291 C107.774,32.4013 107.291,32.0463 106.865,31.7338 C106.453,31.4356 106.041,31.18 105.97,31.18 C105.885,31.18 105.374,30.9528 104.82,30.6688 C103.556,30.0297 100.176,29.2629 99.1534,29.4049 L98.4722,29.4901 L98.4722,28.922 C98.4722,28.283 98.7137,28.0842 99.892,27.7718 C100.247,27.6866 100.972,27.3883 101.511,27.1185 C102.065,26.8486 102.576,26.6357 102.675,26.6357 C102.761,26.6357 103.158,26.4227 103.528,26.167 C103.911,25.9114 104.55,25.5564 104.962,25.4001 C105.856,25.0309 107.106,24.2357 107.206,23.9517 C107.249,23.838 107.149,23.6108 106.993,23.4546 C106.524,22.9718 104.735,23.0569 103.088,23.6251 C102.392,23.8665 101.525,24.1363 101.17,24.2215 C100.815,24.3067 100.119,24.6333 99.6082,24.9315 C99.097,25.2298 98.5004,25.5564 98.273,25.6416 C97.7618,25.8262 96.2705,26.7208 95.7029,27.1753 C95.3759,27.4451 95.1776,27.5019 94.737,27.4451 C94.4249,27.4025 94.1121,27.3032 94.0275,27.2179 C93.7719,26.9622 93.7287,24.9742 93.9702,24.1789 C94.5527,22.2333 94.8366,20.9553 94.8648,20.16 C94.8789,19.5777 95.0208,18.9387 95.3336,18.1435 C95.5751,17.5044 95.7734,16.7801 95.7734,16.5245 C95.7734,16.2689 96.0008,15.6014 96.2705,15.0334 C96.7253,14.0961 97.0373,13.102 97.0523,12.5624 C97.0523,12.4345 96.8954,12.2642 96.6971,12.1789 C96.2423,11.9659 96.3278,11.9517 95.7734,12.3209 Z" style="stroke:none;fill-rule:evenodd;fill:#000000;fill-opacity:1;"/>
        </g>
        <g id="Shape3">
            <desc shapeID="3" type="0" basicInfo-basicType="1" basicInfo-roundedRectRadius="12" basicInfo-polygonSides="6" basicInfo-starPoints="5" bounding="rect(-4.10938,-0.65625,8.21875,1.3125)" text="" font-familyName="Avenir" font-pixelSize="300" font-bold="0" font-underline="0" font-alignment="1" strokeStyle="0" markerStart="0" markerEnd="0" shadowEnabled="0" shadowOffsetX="0" shadowOffsetY="2" shadowBlur="4" shadowOpacity="160" blurEnabled="0" blurRadius="4" transform="matrix(0.885932,0,0,1,42.0625,153.587)" pers-center="0,0" pers-size="0,0" pers-start="0,0" pers-end="0,0" locked="0" mesh="" flag=""/>
            <path id="shapePath3" d="M38.4219,152.931 L45.7031,152.931 L45.7031,154.243 L38.4219,154.243 L38.4219,152.931 Z" style="stroke:none;fill-rule:evenodd;fill:#000000;fill-opacity:1;"/>
        </g>
    </g>
</svg>
