<svg width="248" height="361" viewBox="0 0 248 361" fill="none" xmlns="http://www.w3.org/2000/svg">
<path d="M1.34536 297.14H4.749V316.267H11.1045V319.279H1.34536V297.14Z" fill="black"/>
<path d="M45.0396 297.11L55.7024 319.279H51.8168L49.9192 314.942H39.7685L37.8709 319.279H34.1058L44.7083 297.11H45.0396ZM43.5336 306.538L41.1239 311.9H48.5939L46.2143 306.568L44.9191 303.526H44.8589L43.5336 306.538Z" fill="black"/>
<path d="M89.1233 300.032H79.4546V297.14H94.4246L83.4908 316.327H93.9728V319.279H78.0389L89.1233 300.032Z" fill="black"/>
<path d="M125.354 308.948L117.673 297.14H121.709L127.041 305.875L132.372 297.14H136.378L128.727 309.008V319.279H125.354V308.948Z" fill="black"/>
<path d="M160.832 297.14H165.712C168.463 297.14 170.471 297.733 171.736 298.917C173.021 300.082 173.663 301.689 173.663 303.737C173.663 306.106 172.971 307.924 171.585 309.189C170.199 310.454 168.141 311.086 165.41 311.086H164.236V319.279H160.832V297.14ZM165.501 308.104C167.268 308.104 168.503 307.713 169.205 306.93C169.908 306.146 170.26 305.203 170.26 304.098C170.26 302.914 169.918 301.95 169.236 301.207C168.553 300.464 167.408 300.092 165.802 300.092H164.236V308.104H165.501Z" fill="black"/>
<path d="M199.786 297.14H203.16V319.279H199.786V297.14Z" fill="black"/>
<path d="M240.899 319.49C238.61 319.49 236.622 318.978 234.935 317.954C233.269 316.93 231.994 315.564 231.11 313.857C230.227 312.13 229.785 310.233 229.785 308.165C229.785 305.976 230.257 304.018 231.2 302.291C232.164 300.564 233.51 299.219 235.237 298.255C236.964 297.271 238.921 296.779 241.11 296.779C242.094 296.779 243.008 296.889 243.851 297.11C244.715 297.311 245.427 297.552 245.99 297.833C246.552 298.094 246.923 298.315 247.104 298.496L245.628 301.508C244.403 300.424 242.807 299.881 240.839 299.881C239.454 299.881 238.198 300.223 237.074 300.905C235.949 301.588 235.066 302.562 234.423 303.827C233.781 305.092 233.459 306.558 233.459 308.225C233.459 309.751 233.741 311.136 234.303 312.381C234.885 313.626 235.729 314.61 236.833 315.333C237.937 316.056 239.253 316.418 240.779 316.418C242.546 316.418 244.253 315.916 245.899 314.912L246.893 317.773C246.452 318.175 245.638 318.566 244.454 318.948C243.289 319.309 242.104 319.49 240.899 319.49Z" fill="black"/>
<path d="M11.5261 360.745C9.5181 360.745 7.66066 360.283 5.95382 359.36C4.26707 358.416 2.92168 357.081 1.91765 355.354C0.913632 353.627 0.411621 351.619 0.411621 349.329C0.411621 347.02 0.913632 345.012 1.91765 343.305C2.92168 341.578 4.26707 340.253 5.95382 339.329C7.66066 338.406 9.5181 337.944 11.5261 337.944C13.5342 337.944 15.3816 338.406 17.0684 339.329C18.7752 340.253 20.1306 341.578 21.1346 343.305C22.1387 345.012 22.6407 347.02 22.6407 349.329C22.6407 351.619 22.1387 353.627 21.1346 355.354C20.1306 357.081 18.7752 358.416 17.0684 359.36C15.3816 360.283 13.5342 360.745 11.5261 360.745ZM11.5261 357.703C12.9117 357.703 14.1768 357.382 15.3214 356.739C16.4659 356.076 17.3696 355.123 18.0322 353.878C18.7149 352.613 19.0563 351.107 19.0563 349.36C19.0563 347.593 18.7149 346.086 18.0322 344.841C17.3696 343.576 16.4659 342.623 15.3214 341.98C14.1968 341.337 12.9318 341.016 11.5261 341.016C10.1205 341.016 8.84541 341.337 7.70082 341.98C6.55624 342.623 5.65262 343.576 4.98996 344.841C4.32731 346.086 3.99598 347.593 3.99598 349.36C3.99598 351.107 4.33735 352.613 5.02008 353.878C5.70282 355.123 6.61648 356.076 7.76107 356.739C8.92573 357.382 10.1808 357.703 11.5261 357.703Z" fill="black"/>
<path d="M39.8706 360.444L35.4128 352.07C34.4891 352.111 33.6658 352.131 32.9429 352.131H32.0995V360.444H28.8164V338.305H33.8465C36.3967 338.305 38.4951 338.837 40.1417 339.902C41.7883 340.946 42.6116 342.653 42.6116 345.022C42.6116 346.508 42.2602 347.793 41.5574 348.878C40.8747 349.942 39.8506 350.765 38.4851 351.348L43.7562 360.444H39.8706ZM34.2381 349.39C36.206 349.39 37.5513 348.968 38.2742 348.125C39.0172 347.261 39.3887 346.237 39.3887 345.052C39.3887 342.422 37.6317 341.107 34.1176 341.107H32.0995V349.39H34.2381Z" fill="black"/>
<path d="M59.9416 360.745C57.7528 360.745 55.795 360.243 54.0681 359.239C52.3411 358.235 50.9857 356.86 50.0018 355.113C49.0379 353.346 48.556 351.368 48.556 349.179C48.556 347.05 49.048 345.133 50.0319 343.426C51.0158 341.719 52.3813 340.384 54.1283 339.42C55.8753 338.456 57.8432 337.974 60.032 337.974C61.2167 337.974 62.281 338.084 63.2248 338.305C64.1886 338.506 64.9717 338.747 65.5742 339.028C66.1766 339.289 66.5882 339.52 66.8091 339.721L65.4838 342.552C64.2388 341.548 62.4015 341.046 59.9717 341.046C58.3653 341.046 56.9697 341.398 55.7849 342.1C54.6002 342.803 53.6966 343.757 53.0741 344.962C52.4516 346.167 52.1403 347.512 52.1403 348.998C52.1403 350.685 52.4717 352.191 53.1343 353.516C53.8171 354.842 54.7508 355.876 55.9355 356.619C57.1404 357.342 58.4958 357.703 60.0018 357.703C60.9456 357.703 61.8492 357.593 62.7127 357.372C63.5762 357.131 64.3091 356.759 64.9115 356.257V351.98H60.3633V348.878H68.2549V357.552C67.532 358.456 66.4376 359.219 64.9717 359.842C63.526 360.444 61.8492 360.745 59.9416 360.745Z" fill="black"/>
<path d="M82.5363 338.275L93.199 360.444H89.3135L87.4159 356.107H77.2652L75.3676 360.444H71.6025L82.205 338.275H82.5363ZM81.0303 347.703L78.6206 353.064H86.0906L83.711 347.733L82.4158 344.691H82.3556L81.0303 347.703Z" fill="black"/>
<path d="M100.746 346.107L100.837 348.516V360.444H97.4632V338.275H97.8849L110.897 352.793L110.777 350.263V338.305H114.15V360.444H113.698L100.746 346.107Z" fill="black"/>
<path d="M121.649 338.305H125.022V360.444H121.649V338.305Z" fill="black"/>
<path d="M141.497 341.197H131.828V338.305H146.798L135.864 357.492H146.346V360.444H130.412L141.497 341.197Z" fill="black"/>
<path d="M160.505 338.275L171.168 360.444H167.282L165.385 356.107H155.234L153.337 360.444H149.572L160.174 338.275H160.505ZM158.999 347.703L156.59 353.064H164.06L161.68 347.733L160.385 344.691H160.325L158.999 347.703Z" fill="black"/>
<path d="M177.855 341.257H172.192V338.305H186.921V341.257H181.198V360.444H177.855V341.257Z" fill="black"/>
<path d="M192.97 338.305H196.344V360.444H192.97V338.305Z" fill="black"/>
<path d="M214.023 360.745C212.015 360.745 210.157 360.283 208.451 359.36C206.764 358.416 205.418 357.081 204.414 355.354C203.41 353.627 202.908 351.619 202.908 349.329C202.908 347.02 203.41 345.012 204.414 343.305C205.418 341.578 206.764 340.253 208.451 339.329C210.157 338.406 212.015 337.944 214.023 337.944C216.031 337.944 217.878 338.406 219.565 339.329C221.272 340.253 222.627 341.578 223.631 343.305C224.635 345.012 225.137 347.02 225.137 349.329C225.137 351.619 224.635 353.627 223.631 355.354C222.627 357.081 221.272 358.416 219.565 359.36C217.878 360.283 216.031 360.745 214.023 360.745ZM214.023 357.703C215.408 357.703 216.674 357.382 217.818 356.739C218.963 356.076 219.866 355.123 220.529 353.878C221.212 352.613 221.553 351.107 221.553 349.36C221.553 347.593 221.212 346.086 220.529 344.841C219.866 343.576 218.963 342.623 217.818 341.98C216.694 341.337 215.429 341.016 214.023 341.016C212.617 341.016 211.342 341.337 210.198 341.98C209.053 342.623 208.149 343.576 207.487 344.841C206.824 346.086 206.493 347.593 206.493 349.36C206.493 351.107 206.834 352.613 207.517 353.878C208.2 355.123 209.113 356.076 210.258 356.739C211.423 357.382 212.678 357.703 214.023 357.703Z" fill="black"/>
<path d="M234.596 346.107L234.687 348.516V360.444H231.313V338.275H231.735L244.747 352.793L244.626 350.263V338.305H248V360.444H247.548L234.596 346.107Z" fill="black"/>
<path fill-rule="evenodd" clip-rule="evenodd" d="M106.137 10.5477L128.551 0L127.232 58.0126V100.863L125.914 170.082L123.936 187.882L125.842 278.114H105.503L100.203 249.85L106.137 102.84L102.181 84.3819L100.203 68.5603L106.137 30.984V10.5477ZM88.3373 278.114V206.999L86.3596 91.6335L90.9742 75.8119L94.9296 57.3533L86.3596 42.8502V14.5031L73.1749 23.7324L77.1303 75.8119L73.1749 84.3819L71.1972 112.07L73.1749 261.716L79.0315 278.114H88.3373ZM58.9876 278.114L56.694 264.353L54.7163 247.213L61.3087 236.006V152.283V81.0857L59.331 71.1972L61.3087 17.7993L38.2355 7.25157L30.3247 72.5157L38.2355 91.6335L36.2578 119.321L38.2355 171.401V278.114H58.9876ZM25.1629 278.114L25.9001 264.56L25.0509 246.99L25.7233 232.431V217.371L26.1051 205.323L26.3385 188.756L26.4516 180.724V149.097L27.0286 139.758L26.2975 132.75L24.5986 125.001L19.1178 106.081V91.0845L21.7547 74.4934L19.1178 34.2802L0 30.984V278.114H25.1629ZM247.213 278.114V34.9394L210.955 29.0063V71.1972L218.866 92.952L221.502 129.21L219.525 145.691L213.592 216.229L210.955 261.716V278.114H247.213ZM191.239 278.114L192.496 236.006V205.022L194.474 158.216L195.792 112.07L203.703 81.0857L195.792 19.777L179.956 8.37737L182.608 81.0857L180.63 102.84L178.652 116.684L172.06 145.691V220.184L173.378 240.62L168.764 251.827V278.114H191.239ZM162.007 278.114L158.875 213.592V112.07L162.171 102.84L156.898 61.968L158.875 37.5763L143.713 27.6878L141.735 58.0126V135.143V145.691V170.082L143.713 229.413L146.795 278.114H162.007Z" fill="black"/>
</svg>
