<?xml version="1.0"?>
<svg version="1.1" xmlns="http://www.w3.org/2000/svg" xmlns:xlink="http://www.w3.org/1999/xlink" width="180" height="180">
    <desc iVinci="yes" version="4.6" gridStep="20" showGrid="no" snapToGrid="no" codePlatform="0"/>
    <g id="Layer1" name="Layer 4" opacity="1">
        <g id="Shape1">
            <desc shapeID="1" type="0" basicInfo-basicType="0" basicInfo-roundedRectRadius="12" basicInfo-polygonSides="6" basicInfo-starPoints="5" bounding="rect(-0.0164795,0,0.0329598,0)" text="" font-familyName="Helvetica" font-pixelSize="20" font-bold="0" font-underline="0" font-alignment="1" strokeStyle="0" markerStart="0" markerEnd="0" shadowEnabled="0" shadowOffsetX="0" shadowOffsetY="2" shadowBlur="4" shadowOpacity="160" blurEnabled="0" blurRadius="4" transform="matrix(1,0,0,1,31.5721,94.7274)" pers-center="0,0" pers-size="0,0" pers-start="0,0" pers-end="0,0" locked="0" mesh="" flag=""/>
            <path id="shapePath1" d="M31.5557,94.7274 C31.6298,94.7274 31.5557,94.7274 31.5557,94.7274 Z" style="stroke:none;fill-rule:evenodd;fill:#000000;fill-opacity:1;"/>
        </g>
        <g id="Shape2">
            <desc shapeID="2" type="0" basicInfo-basicType="0" basicInfo-roundedRectRadius="12" basicInfo-polygonSides="6" basicInfo-starPoints="5" bounding="rect(-22.1306,-19.8753,44.2612,39.7505)" text="" font-familyName="Helvetica" font-pixelSize="20" font-bold="0" font-underline="0" font-alignment="1" strokeStyle="0" markerStart="0" markerEnd="0" shadowEnabled="0" shadowOffsetX="0" shadowOffsetY="2" shadowBlur="4" shadowOpacity="160" blurEnabled="0" blurRadius="4" transform="matrix(1,0,0,1,51.1038,114.603)" pers-center="0,0" pers-size="0,0" pers-start="0,0" pers-end="0,0" locked="0" mesh="" flag=""/>
            <path id="shapePath2" d="M30.814,94.7274 C30.814,94.7274 45.4238,105.258 45.4238,105.258 C45.4238,105.258 73.2344,115.567 73.2344,115.567 C73.2344,115.567 69.2296,127.729 69.2296,127.729 C69.2296,127.729 65.3732,134.478 65.3732,134.478 C65.3732,134.478 39.4909,119.646 39.4909,119.646 C39.4909,119.646 30.0724,107.854 30.0724,107.854 C30.0724,107.854 28.7977,103.57 28.9936,100.102 C29.1672,97.0304 30.814,94.7274 30.814,94.7274 Z" style="stroke:none;fill-rule:evenodd;fill:#fbbbb8;fill-opacity:1;"/>
        </g>
        <g id="Shape3">
            <desc shapeID="3" type="0" basicInfo-basicType="0" basicInfo-roundedRectRadius="12" basicInfo-polygonSides="6" basicInfo-starPoints="5" bounding="rect(-21.4963,-10.7633,42.9927,21.5266)" text="" font-familyName="Helvetica" font-pixelSize="20" font-bold="0" font-underline="0" font-alignment="1" strokeStyle="0" markerStart="0" markerEnd="0" shadowEnabled="0" shadowOffsetX="0" shadowOffsetY="2" shadowBlur="4" shadowOpacity="160" blurEnabled="0" blurRadius="4" transform="matrix(1,0,0,1,134.775,123.909)" pers-center="0,0" pers-size="0,0" pers-start="0,0" pers-end="0,0" locked="0" mesh="" flag=""/>
            <path id="shapePath3" d="M154.59,134.672 C154.59,134.672 127.226,128.469 127.226,128.469 C127.226,128.469 117.521,124.529 113.945,121.683 C110.37,118.837 122.337,119.129 122.337,119.129 C122.337,119.129 135.691,113.145 135.691,113.145 C135.691,113.145 156.196,118.399 156.269,118.399 C156.342,118.399 154.59,134.672 154.59,134.672 Z" style="stroke:none;fill-rule:evenodd;fill:#fbbbb8;fill-opacity:1;"/>
        </g>
    </g>
    <g id="Layer2" name="Layer 8" opacity="1">
        <g id="Shape4">
            <desc shapeID="4" type="0" basicInfo-basicType="0" basicInfo-roundedRectRadius="12" basicInfo-polygonSides="6" basicInfo-starPoints="5" bounding="rect(-66.4879,-52.3797,132.976,104.759)" text="" font-familyName="Helvetica" font-pixelSize="20" font-bold="0" font-underline="0" font-alignment="1" strokeStyle="0" markerStart="0" markerEnd="0" shadowEnabled="0" shadowOffsetX="0" shadowOffsetY="2" shadowBlur="4" shadowOpacity="160" blurEnabled="0" blurRadius="4" transform="matrix(1,0,0,1,84.4972,68.751)" pers-center="0,0" pers-size="0,0" pers-start="0,0" pers-end="0,0" locked="0" mesh="" flag=""/>
            <path id="shapePath4" d="M25.692,89.1701 C25.692,89.1701 39.5586,103.39 39.5586,103.39 C39.5586,103.39 46.7344,107.234 54.7948,110.146 C64.4087,113.619 75.1823,116.26 75.1823,116.26 C75.1823,116.26 99.8889,121.131 99.8889,121.131 C99.8889,121.131 122.678,119.446 122.678,119.446 C122.678,119.446 138.816,110.401 138.816,110.401 C138.816,110.401 149.48,95.4412 149.48,95.4412 C149.48,95.4412 150.985,75.4352 150.985,75.4352 C150.985,75.4352 143.961,55.9938 143.961,55.9938 C143.961,55.9938 139.069,47.7782 139.069,47.7782 C139.069,47.7782 139.947,39.1236 140.01,39.1236 C140.073,39.1236 126.13,41.9699 126.13,41.9699 C126.13,41.9699 104.955,30.8343 104.955,30.8343 C104.955,30.8343 80.1622,26.0976 80.0824,26.0976 C80.0027,26.0976 65.493,26.2571 65.493,26.2571 C65.493,26.2571 55.4478,16.3713 55.4478,16.3713 C55.4478,16.3713 52.0994,27.8515 52.0994,27.8515 C52.0994,27.8515 48.0982,29.6226 48.0982,29.6226 C48.0982,29.6226 39.3293,32.4645 39.3293,32.4645 C39.3293,32.4645 26.5229,44.0131 26.5229,44.0131 C26.5229,44.0131 20.4418,55.801 20.4418,55.801 C20.4418,55.801 18.0093,67.6825 18.0093,67.6825 C18.0093,67.6825 20.5353,79.6575 20.5353,79.6575 C20.5353,79.6575 25.692,89.1701 25.692,89.1701 Z" style="stroke:none;fill-rule:evenodd;fill:#fff9ee;fill-opacity:1;"/>
        </g>
        <g id="Shape5">
            <desc shapeID="5" type="0" basicInfo-basicType="0" basicInfo-roundedRectRadius="12" basicInfo-polygonSides="6" basicInfo-starPoints="5" bounding="rect(0,0,0,0)" text="" font-familyName="Helvetica" font-pixelSize="20" font-bold="0" font-underline="0" font-alignment="1" strokeStyle="0" markerStart="0" markerEnd="0" shadowEnabled="0" shadowOffsetX="0" shadowOffsetY="2" shadowBlur="4" shadowOpacity="160" blurEnabled="0" blurRadius="4" transform="matrix(1,0,0,1,64.9531,134.04)" pers-center="0,0" pers-size="0,0" pers-start="0,0" pers-end="0,0" locked="0" mesh="" flag=""/>
            <path id="shapePath5" d="M64.9531,134.04 Z" style="stroke:none;fill-rule:evenodd;fill:#000000;fill-opacity:1;"/>
        </g>
        <g id="Shape6">
            <desc shapeID="6" type="0" basicInfo-basicType="0" basicInfo-roundedRectRadius="12" basicInfo-polygonSides="6" basicInfo-starPoints="5" bounding="rect(-6.95312,-10.3777,13.9062,20.7554)" text="" font-familyName="Helvetica" font-pixelSize="20" font-bold="0" font-underline="0" font-alignment="1" strokeStyle="0" markerStart="0" markerEnd="0" shadowEnabled="0" shadowOffsetX="0" shadowOffsetY="2" shadowBlur="4" shadowOpacity="160" blurEnabled="0" blurRadius="4" transform="matrix(1,0,0,1,72.1875,125.668)" pers-center="0,0" pers-size="0,0" pers-start="0,0" pers-end="0,0" locked="0" mesh="" flag=""/>
            <path id="shapePath6" d="M65.2344,134.228 C65.2344,134.228 70.5469,124.571 70.5469,124.571 C70.5469,124.571 72.9219,115.29 72.9531,115.29 C72.9844,115.29 75.5781,118.665 75.5781,118.665 C75.5781,118.665 79.1406,122.603 79.1406,122.603 C79.1406,122.603 76.3906,125.165 76.4219,125.165 C76.4531,125.165 76.9844,128.165 76.9844,128.165 C76.9844,128.165 74.7656,130.634 74.7656,130.634 C74.7656,130.634 74.4219,134.009 74.4219,134.009 C74.4219,134.009 72.2179,135.994 70.0931,136.044 C67.6469,136.102 65.2344,134.228 65.2344,134.228 Z" style="stroke:none;fill-rule:evenodd;fill:#fff9ee;fill-opacity:1;"/>
        </g>
        <g id="Shape7">
            <desc shapeID="7" type="0" basicInfo-basicType="0" basicInfo-roundedRectRadius="12" basicInfo-polygonSides="6" basicInfo-starPoints="5" bounding="rect(-4.33396,-8.33146,8.66792,16.6629)" text="" font-familyName="Helvetica" font-pixelSize="20" font-bold="0" font-underline="0" font-alignment="1" strokeStyle="0" markerStart="0" markerEnd="0" shadowEnabled="0" shadowOffsetX="0" shadowOffsetY="2" shadowBlur="4" shadowOpacity="160" blurEnabled="0" blurRadius="4" transform="matrix(1,0,0,1,158.381,126.959)" pers-center="0,0" pers-size="0,0" pers-start="0,0" pers-end="0,0" locked="0" mesh="" flag=""/>
            <path id="shapePath7" d="M156.516,118.634 C156.516,118.634 154.047,134.915 154.047,134.915 C154.047,134.915 158.141,135.29 158.141,135.29 C158.141,135.29 162.672,132.603 162.672,132.603 C162.672,132.603 162.578,128.29 162.578,128.29 C162.578,128.29 162.578,126.338 161.837,124.152 C161.854,122.814 163.125,122.026 162.578,121.03 C161.121,118.378 156.516,118.634 156.516,118.634 Z" style="stroke:none;fill-rule:evenodd;fill:#fff9ee;fill-opacity:1;"/>
        </g>
    </g>
    <g id="Layer3" name="Layer 9" opacity="1">
        <g id="Shape8">
            <desc shapeID="8" type="0" basicInfo-basicType="0" basicInfo-roundedRectRadius="12" basicInfo-polygonSides="6" basicInfo-starPoints="5" bounding="rect(0,0,0,0)" text="" font-familyName="Helvetica" font-pixelSize="20" font-bold="0" font-underline="0" font-alignment="1" strokeStyle="0" markerStart="0" markerEnd="0" shadowEnabled="0" shadowOffsetX="0" shadowOffsetY="2" shadowBlur="4" shadowOpacity="160" blurEnabled="0" blurRadius="4" transform="matrix(1,0,0,1,74.0458,80.485)" pers-center="0,0" pers-size="0,0" pers-start="0,0" pers-end="0,0" locked="0" mesh="" flag=""/>
            <path id="shapePath8" d="M74.0458,80.485 Z" style="stroke:none;fill-rule:evenodd;fill:#fff5ea;fill-opacity:1;"/>
        </g>
        <g id="Shape9">
            <desc shapeID="9" type="0" basicInfo-basicType="0" basicInfo-roundedRectRadius="12" basicInfo-polygonSides="6" basicInfo-starPoints="5" bounding="rect(-12.2086,-11.2344,24.4173,22.4688)" text="" font-familyName="Helvetica" font-pixelSize="20" font-bold="0" font-underline="0" font-alignment="1" strokeStyle="0" markerStart="0" markerEnd="0" shadowEnabled="0" shadowOffsetX="0" shadowOffsetY="2" shadowBlur="4" shadowOpacity="160" blurEnabled="0" blurRadius="4" transform="matrix(1,0,0,1,85.2132,78.7745)" pers-center="0,0" pers-size="0,0" pers-start="0,0" pers-end="0,0" locked="0" mesh="" flag=""/>
            <path id="shapePath9" d="M78.7256,84.0045 C78.7256,84.0045 87.6211,83.7724 87.6211,83.7724 C87.6211,83.7724 91.0274,85.205 91.0274,85.205 C91.0274,85.205 93.5469,89.1026 93.5469,89.1026 C93.5469,89.1026 95.8594,90.0089 95.8594,90.0089 C95.8594,90.0089 97.4219,89.4151 97.4219,89.4151 C97.4219,89.4151 96.9219,87.1651 96.9219,87.1651 C96.9219,87.1651 94.8281,83.1651 94.8281,83.1651 C94.8281,83.1651 93.2969,80.2589 93.3281,80.2589 C93.3594,80.2589 92.7031,77.9776 92.7031,77.9776 C92.7031,77.9776 91.9844,72.1651 91.9844,72.1651 C91.9844,72.1651 90.5469,70.6339 90.5469,70.6339 C90.5469,70.6339 80.5156,67.5401 80.5156,67.5401 C80.5156,67.5401 77.7031,67.7276 77.7031,67.7276 C77.7031,67.7276 75.1581,70.4268 75.1581,70.4268 C75.1581,70.4268 73.0046,74.9688 73.0046,74.9688 C73.0046,74.9688 73.0385,78.0868 74.4138,80.2589 C75.8951,82.5984 78.7256,84.0045 78.7256,84.0045 Z" style="stroke:none;fill-rule:evenodd;fill:#ffffff;fill-opacity:1;"/>
        </g>
    </g>
    <g id="Layer4" name="Layer 1" opacity="1">
        <g id="Shape10">
            <desc shapeID="10" type="0" basicInfo-basicType="0" basicInfo-roundedRectRadius="12" basicInfo-polygonSides="6" basicInfo-starPoints="5" bounding="rect(-11.5247,-13.7458,23.0494,27.4917)" text="" font-familyName="" font-pixelSize="20" font-bold="0" font-underline="0" font-alignment="1" strokeStyle="0" markerStart="0" markerEnd="0" shadowEnabled="0" shadowOffsetX="0" shadowOffsetY="2" shadowBlur="4" shadowOpacity="160" blurEnabled="0" blurRadius="4" transform="matrix(0.532993,0,0,0.532993,64.8169,148.519)" pers-center="0,0" pers-size="0,0" pers-start="0,0" pers-end="0,0" locked="0" mesh="" flag=""/>
            <path id="shapePath10" d="M62.6424,143.078 C60.6703,145.53 58.0586,153.791 58.8048,155.177 C59.551,156.616 60.4571,155.71 61.3632,152.672 C61.8962,150.86 62.2693,150.327 62.9621,150.487 C63.4418,150.593 64.5611,150.86 65.5205,151.073 C66.6931,151.286 67.5459,151.979 68.2921,153.258 C69.0383,154.484 69.6246,154.964 70.2108,154.751 C71.3834,154.271 71.2235,152.992 69.4114,148.088 C66.6931,140.626 65.3606,139.667 62.6424,143.078 M66.1601,148.248 C66.2134,148.515 65.3606,148.675 64.3479,148.675 L62.4825,148.675 L63.6017,146.383 L64.7743,144.144 L65.4672,146.01 C65.8403,147.022 66.1601,148.035 66.1601,148.248 Z" style="stroke:none;fill-rule:nonzero;fill:#583735;fill-opacity:1;"/>
        </g>
        <g id="Shape11">
            <desc shapeID="11" type="0" basicInfo-basicType="0" basicInfo-roundedRectRadius="12" basicInfo-polygonSides="6" basicInfo-starPoints="5" bounding="rect(-11.8634,-12.9693,23.7268,25.9386)" text="" font-familyName="" font-pixelSize="20" font-bold="0" font-underline="0" font-alignment="1" strokeStyle="0" markerStart="0" markerEnd="0" shadowEnabled="0" shadowOffsetX="0" shadowOffsetY="2" shadowBlur="4" shadowOpacity="160" blurEnabled="0" blurRadius="4" transform="matrix(0.532993,0,0,0.532993,49.1075,149.191)" pers-center="0,0" pers-size="0,0" pers-start="0,0" pers-end="0,0" locked="0" mesh="" flag=""/>
            <path id="shapePath11" d="M43.1348,142.652 C42.6018,143.185 42.7084,154.964 43.2414,155.284 C43.5079,155.444 46.0663,155.763 48.9444,155.923 C53.5815,156.243 54.3277,156.19 55.0206,155.337 C56.353,153.738 54.4343,152.939 49.3175,152.939 L44.8937,152.939 L44.8937,147.609 C44.8937,143.505 44.7338,142.279 44.2008,142.279 C43.7744,142.279 43.2947,142.439 43.1348,142.652 Z" style="stroke:none;fill-rule:nonzero;fill:#583735;fill-opacity:1;"/>
        </g>
        <g id="Shape12">
            <desc shapeID="12" type="0" basicInfo-basicType="0" basicInfo-roundedRectRadius="12" basicInfo-polygonSides="6" basicInfo-starPoints="5" bounding="rect(-10.3737,-11.4346,20.7474,22.8693)" text="" font-familyName="" font-pixelSize="20" font-bold="0" font-underline="0" font-alignment="1" strokeStyle="0" markerStart="0" markerEnd="0" shadowEnabled="0" shadowOffsetX="0" shadowOffsetY="2" shadowBlur="4" shadowOpacity="160" blurEnabled="0" blurRadius="4" transform="matrix(0.532993,0,0,0.532993,81.3202,149.409)" pers-center="0,0" pers-size="0,0" pers-start="0,0" pers-end="0,0" locked="0" mesh="" flag=""/>
            <path id="shapePath12" d="M76.1804,143.718 C75.3276,144.517 75.9139,145.423 77.5662,145.743 C81.2971,146.489 81.2438,146.383 79.5915,148.675 C77.4063,151.713 76.5535,153.898 77.353,154.697 C78.0992,155.444 85.4012,155.817 86.4138,155.177 C86.9468,154.804 87.0001,154.431 86.5204,153.525 C85.9874,152.619 85.4012,152.406 82.9494,152.406 C80.0712,152.406 80.0712,152.406 80.6575,151.18 C81.0306,150.54 81.99,149.208 82.7895,148.301 C83.6423,147.342 84.1753,146.223 84.0154,145.796 C83.3758,144.144 77.353,142.545 76.1804,143.718 Z" style="stroke:none;fill-rule:nonzero;fill:#583735;fill-opacity:1;"/>
        </g>
        <g id="Shape13">
            <desc shapeID="13" type="0" basicInfo-basicType="0" basicInfo-roundedRectRadius="12" basicInfo-polygonSides="6" basicInfo-starPoints="5" bounding="rect(-11.124,-12.6236,22.248,25.2472)" text="" font-familyName="" font-pixelSize="20" font-bold="0" font-underline="0" font-alignment="1" strokeStyle="0" markerStart="0" markerEnd="0" shadowEnabled="0" shadowOffsetX="0" shadowOffsetY="2" shadowBlur="4" shadowOpacity="160" blurEnabled="0" blurRadius="4" transform="matrix(0.532993,0,0,0.532993,96.3397,151.007)" pers-center="0,0" pers-size="0,0" pers-start="0,0" pers-end="0,0" locked="0" mesh="" flag=""/>
            <path id="shapePath13" d="M100.112,145.423 C99.3123,146.223 98.0864,147.235 97.3402,147.609 C96.1143,148.301 95.9011,148.195 93.929,146.276 C92.5965,144.944 91.5839,144.357 90.9976,144.624 C90.1981,144.89 90.1981,145.104 91.1042,146.596 C91.6372,147.502 92.5965,148.834 93.2894,149.581 C94.0889,150.433 94.462,151.553 94.462,152.939 C94.462,155.497 95.4214,157.735 96.4874,157.735 C97.127,157.735 97.2336,157.149 96.9671,154.324 L96.6473,150.913 L98.726,149.527 C100.965,148.035 102.883,145.157 102.084,144.357 C101.817,144.091 100.965,144.517 100.112,145.423 Z" style="stroke:none;fill-rule:nonzero;fill:#583735;fill-opacity:1;"/>
        </g>
        <g id="Shape14">
            <desc shapeID="14" type="0" basicInfo-basicType="0" basicInfo-roundedRectRadius="12" basicInfo-polygonSides="6" basicInfo-starPoints="5" bounding="rect(-8.00454,-12.2876,16.0091,24.5752)" text="" font-familyName="" font-pixelSize="20" font-bold="0" font-underline="0" font-alignment="1" strokeStyle="0" markerStart="0" markerEnd="0" shadowEnabled="0" shadowOffsetX="0" shadowOffsetY="2" shadowBlur="4" shadowOpacity="160" blurEnabled="0" blurRadius="4" transform="matrix(0.532993,0,0,0.532993,113.114,150.533)" pers-center="0,0" pers-size="0,0" pers-start="0,0" pers-end="0,0" locked="0" mesh="" flag=""/>
            <path id="shapePath14" d="M110.878,144.571 C109.972,144.944 109.386,145.637 109.173,146.702 C108.64,149.314 108.8,156.563 109.386,156.936 C110.452,157.576 111.518,156.03 111.518,153.951 C111.518,152.086 111.678,151.873 112.904,151.873 C114.396,151.873 117.381,149.261 117.381,147.982 C117.381,146.436 116.688,145.423 115.195,144.677 C113.49,143.771 112.904,143.771 110.878,144.571 M114.769,146.862 C115.355,147.609 115.302,147.875 114.236,148.728 C112.157,150.433 110.985,149.794 110.985,147.022 C110.985,145.743 113.703,145.583 114.769,146.862 Z" style="stroke:none;fill-rule:nonzero;fill:#583735;fill-opacity:1;"/>
        </g>
        <g id="Shape15">
            <desc shapeID="15" type="0" basicInfo-basicType="0" basicInfo-roundedRectRadius="12" basicInfo-polygonSides="6" basicInfo-starPoints="5" bounding="rect(-10.4609,-11.2905,20.9217,22.5811)" text="" font-familyName="" font-pixelSize="20" font-bold="0" font-underline="0" font-alignment="1" strokeStyle="0" markerStart="0" markerEnd="0" shadowEnabled="0" shadowOffsetX="0" shadowOffsetY="2" shadowBlur="4" shadowOpacity="160" blurEnabled="0" blurRadius="4" transform="matrix(0.532993,0,0,0.532993,135.176,150.292)" pers-center="0,0" pers-size="0,0" pers-start="0,0" pers-end="0,0" locked="0" mesh="" flag=""/>
            <path id="shapePath15" d="M132.837,145.104 C129.533,147.182 128.52,152.246 130.919,154.484 C133.85,157.202 138.967,156.829 140.406,153.738 C141.365,151.659 140.193,150.753 138.54,152.299 C137.155,153.578 134.01,153.898 132.944,152.832 C131.985,151.873 132.198,150.06 133.477,148.408 C134.436,147.182 134.916,147.022 136.622,147.235 C138.114,147.449 138.7,147.289 138.967,146.702 C139.766,144.517 135.502,143.398 132.837,145.104 Z" style="stroke:none;fill-rule:nonzero;fill:#583735;fill-opacity:1;"/>
        </g>
        <g id="Shape16">
            <desc shapeID="16" type="0" basicInfo-basicType="0" basicInfo-roundedRectRadius="12" basicInfo-polygonSides="6" basicInfo-starPoints="5" bounding="rect(-2.3945,-10.9447,4.78898,21.8894)" text="" font-familyName="" font-pixelSize="20" font-bold="0" font-underline="0" font-alignment="1" strokeStyle="0" markerStart="0" markerEnd="0" shadowEnabled="0" shadowOffsetX="0" shadowOffsetY="2" shadowBlur="4" shadowOpacity="160" blurEnabled="0" blurRadius="4" transform="matrix(0.532993,0,0,0.532993,123.333,151.324)" pers-center="0,0" pers-size="0,0" pers-start="0,0" pers-end="0,0" locked="0" mesh="" flag=""/>
            <path id="shapePath16" d="M122.444,146.01 C121.964,146.809 121.911,154.538 122.391,155.977 C122.924,157.629 124.15,157.522 124.47,155.817 C124.789,154.111 124.523,148.035 124.043,146.543 C123.67,145.37 122.977,145.157 122.444,146.01 Z" style="stroke:none;fill-rule:nonzero;fill:#583735;fill-opacity:1;"/>
        </g>
    </g>
    <g id="Layer5" name="Layer 2" opacity="1">
        <g id="Shape17">
            <desc shapeID="17" type="0" basicInfo-basicType="0" basicInfo-roundedRectRadius="12" basicInfo-polygonSides="6" basicInfo-starPoints="5" bounding="rect(-134.764,-113.435,269.527,226.871)" text="" font-familyName="" font-pixelSize="20" font-bold="0" font-underline="0" font-alignment="1" strokeStyle="0" markerStart="0" markerEnd="0" shadowEnabled="0" shadowOffsetX="0" shadowOffsetY="2" shadowBlur="4" shadowOpacity="160" blurEnabled="0" blurRadius="4" transform="matrix(0.541551,-0.0101578,0.0101578,0.541551,89.9648,76.1534)" pers-center="0,0" pers-size="0,0" pers-start="0,0" pers-end="0,0" locked="0" mesh="" flag=""/>
            <path id="shapePath17" d="M54.3191,15.8731 C53.3933,19.2117 52.8635,21.7304 51.7421,25.4687 C51.055,27.7591 51.1552,28.8385 51.5965,29.2636 C52.5334,30.1128 53.4778,28.4699 54.7473,23.9496 C55.3024,21.7722 55.9126,19.648 56.067,19.2117 C56.2724,18.6119 56.7097,18.8204 57.8172,20.0998 C58.6468,21.0052 60.5839,23.19 62.0796,24.9497 C62.0796,24.9497 63.7878,27.2998 65.1242,27.7045 C67.1478,28.3171 71.1783,27.7045 71.1783,27.7045 C76.6981,27.3842 81.525,27.6729 87.3951,28.7005 C88.8082,28.9448 88.8092,28.999 88.3665,31.3909 C88.1211,32.7499 88.0402,34.2141 88.2118,34.6985 C88.836,36.2036 90.1012,34.338 90.2139,31.6813 C90.3357,29.5121 90.442,29.4018 91.6385,29.6502 C92.3455,29.7994 93.5972,30.101 94.4667,30.2472 C96.2599,30.5386 96.3171,30.7001 95.2686,32.5617 C94.2732,34.3681 94.2769,37.4559 95.3058,37.4366 C96.2265,37.4194 96.4841,36.7103 96.9095,33.3977 C97.1007,32.0397 97.3502,30.8974 97.5126,30.8944 C97.6209,30.8923 98.8174,31.1408 100.177,31.4403 C102.789,32.0414 102.846,32.2028 102.109,36.2255 C101.868,37.8011 101.888,38.8842 102.219,39.2031 C103.157,40.1064 104.306,37.8096 104.258,35.2643 C104.234,33.9646 104.431,32.9315 104.702,32.9265 C105.189,32.9173 108.193,34.2153 117.699,38.4793 C119.283,39.1539 121.312,40.4702 122.25,41.3735 C123.74,42.8083 124.229,42.9075 126.501,42.7023 C127.906,42.5135 131.145,41.911 133.734,41.3206 C136.322,40.6762 138.536,40.3096 138.702,40.469 C138.868,40.6284 138.743,42.6352 138.352,44.9179 C138.017,47.2536 138.073,48.0008 138.476,49.5116 C138.923,51.1845 140.588,52.3184 141.887,53.6438 C146.337,59.7904 150.368,72.5003 150.331,79.2186 C150.333,82.1981 149.351,90.1813 148.545,93.4468 C146.532,101.665 137.536,111.528 127.49,116.051 C121.42,118.819 117.623,120.015 110.745,120.144 C107.171,120.211 103.336,120.074 102.576,119.98 C101.815,119.832 98.2894,119.666 94.8715,119.405 C88.6315,118.872 84.2696,117.706 74.9511,114.793 C72.2803,113.922 66.4895,112.455 62.5711,111.499 C58.7058,110.488 54.7327,109.325 53.6936,108.802 C52.6545,108.28 48.602,106.061 44.9932,104.287 C37.9401,100.843 35.4334,98.5594 27.2417,89.2867 C22.8139,84.2774 19.6366,76.1767 19.2203,71.3088 C18.5558,64.7662 20.6744,55.621 24.976,48.1184 C28.4896,41.9309 32.2685,38.4183 42.1172,32.0577 C42.9194,31.5009 45.2919,30.79 46.6417,30.548 C49.5048,30.1151 50.1895,29.3441 47.8507,28.8463 C45.5671,28.4015 42.6599,29.377 38.3763,32.0577 C28.2558,38.3692 22.3807,45.7388 18.4772,57.1344 C16.9358,61.6056 16.4813,62.4339 16.9115,68.9737 C17.2071,73.4675 18.0291,76.1344 18.7551,78.2662 C21.4343,86.1339 23.8994,89.1579 26.4975,91.9262 L29.4276,95.0676 L28.7162,97.5729 C26.7873,104.489 29.1857,111.053 36.4192,118.34 C43.5433,125.574 46.0639,127.097 65.8448,136.153 C68.8497,137.505 69.4475,137.602 71.3338,137.079 C74.7824,136.093 76.1038,134.335 75.722,131.309 C75.6577,130.768 76.1278,129.838 76.7665,129.23 C77.5114,128.512 77.8201,127.639 77.6424,126.83 C77.4647,126.021 77.8286,125.201 78.6277,124.482 C79.3195,123.819 79.901,123.05 79.8949,122.725 C79.8716,121.479 77.9294,119.024 76.456,118.455 C74.1643,117.577 73.9619,118.34 75.946,120.144 C76.937,120.993 77.7125,121.899 77.7165,122.116 C77.7318,122.928 76.5045,123.926 75.5297,123.944 C73.9592,123.974 73.7649,125.169 75.1381,126.173 C76.5654,127.175 76.5664,127.23 74.4717,128.19 C72.9675,128.868 72.5035,130.123 73.5446,130.753 C74.4764,131.332 74.184,133.071 72.9547,133.961 C71.7264,134.905 68.427,135.183 67.2765,134.501 C66.784,134.239 67.0396,133.422 68.0902,131.668 C68.8771,130.299 69.8174,128.44 70.1261,127.567 C70.4337,126.64 71.2555,124.241 72.0282,122.114 C72.7771,120.052 73.1976,118.029 73.0822,117.652 C72.6868,116.793 74.5883,117.082 78.2993,118.529 C79.7175,119.044 81.1889,119.504 81.6221,119.496 C82.0553,119.488 83.8516,119.942 85.6489,120.45 C89.2986,121.519 98.5242,122.375 109.688,122.599 C116.192,122.748 117.436,122.617 121.044,121.465 C126.16,119.853 132.016,117.251 133.777,115.809 C135.431,114.478 137.271,114.389 140.487,115.413 C141.796,115.876 143.973,116.431 145.333,116.73 C146.692,116.976 149.414,117.683 151.483,118.24 L155.133,119.309 L155.177,121.638 C155.225,124.237 154.501,128.964 153.677,131.201 L153.161,132.619 L150.331,131.914 C148.752,131.51 144.838,130.771 141.524,130.291 C138.264,129.756 134.46,129.123 133.1,128.824 C128.422,127.828 126.578,127.7 126.59,128.35 C126.607,129.271 129.659,130.243 136.729,131.681 C149.671,134.255 151.249,134.659 152.133,135.564 C152.851,136.309 153.829,136.453 156.319,136.352 C159.025,136.193 159.941,135.905 161.595,134.573 C163.41,133.131 163.62,132.802 163.318,131.128 C163.081,130.049 163.22,128.801 163.588,128.198 C164.114,127.321 164.05,126.835 163.268,125.549 C162.484,124.21 162.478,123.885 163.118,123.331 C164.984,121.725 162.595,118.573 159.342,118.418 C158.258,118.384 157.005,118.028 156.564,117.603 C155.63,116.916 155.303,116.814 147.469,115.065 C144.911,114.463 141.81,113.762 140.504,113.408 L138.164,112.856 L141.887,109.21 C149.439,101.701 152.28,94.2801 152.628,81.0551 C152.744,75.6897 152.546,73.7973 151.612,70.2393 C149.226,61.4537 146.521,55.8703 141.078,48.7131 C140.745,48.286 140.764,46.4437 141.144,43.5653 C141.848,37.8097 141.569,37.3815 137.085,38.0073 C135.301,38.2033 132.172,38.9121 130.125,39.5464 L126.464,40.7527 L124.971,39.1555 C123.423,37.5052 119.313,34.9819 116.149,33.7952 C115.113,33.4355 112.6,32.3449 110.578,31.4077 C104.513,28.6503 100.157,27.486 88.6369,25.5892 C82.1701,24.5187 72.3619,24.3776 67.773,25.2222 C65.9378,25.5816 65.664,25.4242 64.1673,23.6104 C61.6724,20.5693 58.982,17.9433 56.067,15.5606 C55.6135,15.19 54.5615,15.3177 54.3191,15.8731 M43.1255,106.187 C46.2388,107.537 49.6851,109.315 50.8355,109.997 C52.7533,111.153 62.508,114.221 69.5827,115.93 L72.086,116.533 L71.4789,118.82 C70.7153,121.434 68.389,127.383 67.136,129.898 C66.0414,132.194 65.7155,132.146 54.6194,126.883 C47.0759,123.286 44.8292,121.92 40.3715,118.211 C32.0079,111.326 28.9789,105.802 29.8277,99.0689 L30.1611,96.6249 L33.8565,100.131 C36.7795,102.893 38.7535,104.156 43.1255,106.187 M161.499,120.815 C162.104,121.291 162.056,121.617 161.101,122.664 C159.987,123.931 159.997,124.473 161.33,126.236 C161.886,126.984 160.702,127.508 160.664,128.198 C160.623,128.951 160.796,129.727 161.101,130.417 C161.305,130.88 161.707,131.286 161.595,131.78 C161.439,132.467 160.535,132.914 160.535,132.914 C158.881,134.299 157.317,134.654 156.057,133.919 C155.508,133.55 155.553,133.062 156.174,131.479 C156.587,130.388 157.069,127.236 157.235,124.525 L157.468,119.59 L159.098,119.885 C160.022,120.03 161.059,120.444 161.499,120.815 Z" style="stroke:none;fill-rule:evenodd;fill:#583735;fill-opacity:1;"/>
        </g>
        <g id="Shape18">
            <desc shapeID="18" type="0" basicInfo-basicType="0" basicInfo-roundedRectRadius="12" basicInfo-polygonSides="6" basicInfo-starPoints="5" bounding="rect(-5.95637,-1.66111,11.9127,3.32221)" text="" font-familyName="" font-pixelSize="20" font-bold="0" font-underline="0" font-alignment="1" strokeStyle="0" markerStart="0" markerEnd="0" shadowEnabled="0" shadowOffsetX="0" shadowOffsetY="2" shadowBlur="4" shadowOpacity="160" blurEnabled="0" blurRadius="4" transform="matrix(0.541551,-0.0101578,0.0101578,0.541551,32.5707,53.424)" pers-center="0,0" pers-size="0,0" pers-start="0,0" pers-end="0,0" locked="0" mesh="" flag=""/>
            <path id="shapePath18" d="M32.0461,52.7085 C28.2092,53.2138 28.5564,54.3991 32.5098,54.325 C34.9467,54.2793 35.8092,54.0464 35.799,53.5049 C35.7797,52.4759 34.855,52.2766 32.0461,52.7085 Z" style="stroke:none;fill-rule:nonzero;fill:#583735;fill-opacity:1;"/>
        </g>
        <g id="Shape19">
            <desc shapeID="19" type="0" basicInfo-basicType="0" basicInfo-roundedRectRadius="12" basicInfo-polygonSides="6" basicInfo-starPoints="5" bounding="rect(-6.35453,-2.82269,12.7091,5.64538)" text="" font-familyName="" font-pixelSize="20" font-bold="0" font-underline="0" font-alignment="1" strokeStyle="0" markerStart="0" markerEnd="0" shadowEnabled="0" shadowOffsetX="0" shadowOffsetY="2" shadowBlur="4" shadowOpacity="160" blurEnabled="0" blurRadius="4" transform="matrix(0.541551,-0.0101578,0.0101578,0.541551,77.7938,58.5907)" pers-center="0,0" pers-size="0,0" pers-start="0,0" pers-end="0,0" locked="0" mesh="" flag=""/>
            <path id="shapePath19" d="M74.6573,57.2183 C73.8061,58.0469 74.6336,58.5021 77.3035,59.3188 C80.1378,60.2407 81.8136,60.3887 81.0893,59.3188 C80.5304,58.4083 75.1887,56.6666 74.6573,57.2183 Z" style="stroke:none;fill-rule:nonzero;fill:#583735;fill-opacity:1;"/>
        </g>
        <g id="Shape20">
            <desc shapeID="20" type="0" basicInfo-basicType="0" basicInfo-roundedRectRadius="12" basicInfo-polygonSides="6" basicInfo-starPoints="5" bounding="rect(-7.08135,-2.24171,14.1627,4.48343)" text="" font-familyName="" font-pixelSize="20" font-bold="0" font-underline="0" font-alignment="1" strokeStyle="0" markerStart="0" markerEnd="0" shadowEnabled="0" shadowOffsetX="0" shadowOffsetY="2" shadowBlur="4" shadowOpacity="160" blurEnabled="0" blurRadius="4" transform="matrix(0.541551,-0.0101578,0.0101578,0.541551,31.0718,59.8766)" pers-center="0,0" pers-size="0,0" pers-start="0,0" pers-end="0,0" locked="0" mesh="" flag=""/>
            <path id="shapePath20" d="M27.4074,59.5672 C26.9955,60.7126 27.0506,60.7658 31.2267,61.0125 C34.9143,61.2142 35.7185,60.7657 34.1737,59.2778 C33.1806,58.3213 27.8213,58.5302 27.4074,59.5672 Z" style="stroke:none;fill-rule:nonzero;fill:#583735;fill-opacity:1;"/>
        </g>
        <g id="Shape21">
            <desc shapeID="21" type="0" basicInfo-basicType="0" basicInfo-roundedRectRadius="12" basicInfo-polygonSides="6" basicInfo-starPoints="5" bounding="rect(-23.4062,-26.4636,46.8124,52.9273)" text="" font-familyName="" font-pixelSize="20" font-bold="0" font-underline="0" font-alignment="1" strokeStyle="0" markerStart="0" markerEnd="0" shadowEnabled="0" shadowOffsetX="0" shadowOffsetY="2" shadowBlur="4" shadowOpacity="160" blurEnabled="0" blurRadius="4" transform="matrix(0.541551,-0.0101578,0.0101578,0.541551,85.2048,76.3803)" pers-center="0,0" pers-size="0,0" pers-start="0,0" pers-end="0,0" locked="0" mesh="" flag=""/>
            <path id="shapePath21" d="M85.2721,62.8158 C85.2802,63.249 85.504,63.6241 85.7747,63.619 C86.2621,63.6098 86.0604,67.2975 85.5842,67.9023 C85.4779,68.0126 84.7167,67.8644 83.8983,67.5547 C83.0799,67.245 81.4481,66.8964 80.3609,66.7001 C78.5687,66.4628 78.0844,66.6345 76.1683,68.4581 C73.1875,71.2769 72.4608,72.97 72.5359,76.9774 C72.5979,80.2809 72.7113,80.5496 74.6954,82.3543 C77.5081,85.0103 79.0336,85.4692 84.0087,84.9967 C89.3078,84.4639 90.8161,86.1135 92.9319,89.1617 C93.7676,90.3921 95.9764,90.5147 96.6262,90.5025 C98.7383,90.4629 98.7089,88.7881 95.9599,83.7473 C93.6592,79.5107 93.1275,78.5102 93.0165,75.4786 C92.9616,72.5542 92.6995,71.7777 91.5961,70.7149 C90.8789,70.0241 89.566,69.3445 88.5871,69.1462 C87.2282,68.9008 86.9523,68.6351 87.2058,67.7094 C87.3561,67.0565 87.4993,66.0245 87.4881,65.4288 C87.4708,64.5081 87.7385,64.3406 88.8257,64.5369 C90.6731,64.8273 90.6416,63.1485 88.7329,62.48 C86.715,61.7594 85.2548,61.8952 85.2721,62.8158 M86.7651,70.2096 C89.1642,71.0314 91.1822,71.752 91.2384,71.8593 C91.3487,71.9656 91.5958,73.5862 91.7938,75.4786 C92.1286,78.8852 92.8199,81.4006 93.8742,82.7352 C94.2063,83.1082 94.9222,84.8106 95.7868,86.1843 C97.6609,89.1617 95.5776,90.8473 93.6825,88.0117 C93.0685,87.048 92.129,84.6819 90.5984,83.9521 C88.2464,82.7503 87.1592,82.5539 83.4225,82.624 C79.8483,82.6911 78.6528,82.4968 77.1192,81.6046 C73.2295,79.2939 73.0717,73.7711 76.6771,69.5863 C77.8972,68.209 78.2743,68.0936 80.23,68.382 C81.4244,68.5221 84.3661,69.3879 86.7651,70.2096 Z" style="stroke:none;fill-rule:nonzero;fill:#583735;fill-opacity:1;"/>
        </g>
        <g id="Shape22">
            <desc shapeID="22" type="0" basicInfo-basicType="0" basicInfo-roundedRectRadius="12" basicInfo-polygonSides="6" basicInfo-starPoints="5" bounding="rect(-6.8007,-2.22322,13.6014,4.44644)" text="" font-familyName="" font-pixelSize="20" font-bold="0" font-underline="0" font-alignment="1" strokeStyle="0" markerStart="0" markerEnd="0" shadowEnabled="0" shadowOffsetX="0" shadowOffsetY="2" shadowBlur="4" shadowOpacity="160" blurEnabled="0" blurRadius="4" transform="matrix(0.541551,-0.0101578,0.0101578,0.541551,30.1845,66.1243)" pers-center="0,0" pers-size="0,0" pers-start="0,0" pers-end="0,0" locked="0" mesh="" flag=""/>
            <path id="shapePath22" d="M27.4057,65.2555 C25.5255,66.1034 26.5677,66.7881 30.5291,67.1472 C33.4054,67.4183 33.8908,67.3008 33.8776,66.5968 C33.8685,66.1094 33.6427,65.6261 33.423,65.4677 C32.3819,64.8371 28.6422,64.7448 27.4057,65.2555 Z" style="stroke:none;fill-rule:nonzero;fill:#583735;fill-opacity:1;"/>
        </g>
        <g id="Shape23">
            <desc shapeID="23" type="0" basicInfo-basicType="0" basicInfo-roundedRectRadius="12" basicInfo-polygonSides="6" basicInfo-starPoints="5" bounding="rect(-7.21111,-3.18317,14.4222,6.36634)" text="" font-familyName="" font-pixelSize="20" font-bold="0" font-underline="0" font-alignment="1" strokeStyle="0" markerStart="0" markerEnd="0" shadowEnabled="0" shadowOffsetX="0" shadowOffsetY="2" shadowBlur="4" shadowOpacity="160" blurEnabled="0" blurRadius="4" transform="matrix(0.541551,-0.0101578,0.0101578,0.541551,99.1594,66.0134)" pers-center="0,0" pers-size="0,0" pers-start="0,0" pers-end="0,0" locked="0" mesh="" flag=""/>
            <path id="shapePath23" d="M95.9742,64.4028 C94.3556,64.7582 95.4503,65.3462 98.5585,66.4255 C102.265,67.6562 102.815,68.0667 103.07,67.2493 C103.428,66.1049 97.9698,63.932 95.9742,64.4028 Z" style="stroke:none;fill-rule:nonzero;fill:#583735;fill-opacity:1;"/>
        </g>
        <g id="Shape24">
            <desc shapeID="24" type="0" basicInfo-basicType="0" basicInfo-roundedRectRadius="12" basicInfo-polygonSides="6" basicInfo-starPoints="5" bounding="rect(-6.70633,-2.64715,13.4127,5.2943)" text="" font-familyName="" font-pixelSize="20" font-bold="0" font-underline="0" font-alignment="1" strokeStyle="0" markerStart="0" markerEnd="0" shadowEnabled="0" shadowOffsetX="0" shadowOffsetY="2" shadowBlur="4" shadowOpacity="160" blurEnabled="0" blurRadius="4" transform="matrix(0.541551,-0.0101578,0.0101578,0.541551,142.471,85.6082)" pers-center="0,0" pers-size="0,0" pers-start="0,0" pers-end="0,0" locked="0" mesh="" flag=""/>
            <path id="shapePath24" d="M139.048,84.8853 C138.521,85.7078 138.795,85.8652 141.839,86.404 C145.917,87.1943 146.133,87.1903 146.117,86.3238 C146.086,84.645 139.94,83.3517 139.048,84.8853 Z" style="stroke:none;fill-rule:nonzero;fill:#583735;fill-opacity:1;"/>
        </g>
        <g id="Shape25">
            <desc shapeID="25" type="0" basicInfo-basicType="0" basicInfo-roundedRectRadius="12" basicInfo-polygonSides="6" basicInfo-starPoints="5" bounding="rect(-5.28702,-3.26879,10.574,6.5376)" text="" font-familyName="" font-pixelSize="20" font-bold="0" font-underline="0" font-alignment="1" strokeStyle="0" markerStart="0" markerEnd="0" shadowEnabled="0" shadowOffsetX="0" shadowOffsetY="2" shadowBlur="4" shadowOpacity="160" blurEnabled="0" blurRadius="4" transform="matrix(0.541551,-0.0101578,0.0101578,0.541551,141.986,90.8991)" pers-center="0,0" pers-size="0,0" pers-start="0,0" pers-end="0,0" locked="0" mesh="" flag=""/>
            <path id="shapePath25" d="M139.191,89.6499 C138.822,90.1986 139.593,90.8343 142.053,92.0341 C145.115,93.5477 146.005,91.9058 143.101,90.1725 C141.185,89.0708 139.663,88.8285 139.191,89.6499 Z" style="stroke:none;fill-rule:nonzero;fill:#583735;fill-opacity:1;"/>
        </g>
        <g id="Shape26">
            <desc shapeID="26" type="0" basicInfo-basicType="0" basicInfo-roundedRectRadius="12" basicInfo-polygonSides="6" basicInfo-starPoints="5" bounding="rect(-6.32088,-4.45302,12.6417,8.90604)" text="" font-familyName="" font-pixelSize="20" font-bold="0" font-underline="0" font-alignment="1" strokeStyle="0" markerStart="0" markerEnd="0" shadowEnabled="0" shadowOffsetX="0" shadowOffsetY="2" shadowBlur="4" shadowOpacity="160" blurEnabled="0" blurRadius="4" transform="matrix(0.541551,-0.0101578,0.0101578,0.541551,139.179,97.0433)" pers-center="0,0" pers-size="0,0" pers-start="0,0" pers-end="0,0" locked="0" mesh="" flag=""/>
            <path id="shapePath26" d="M135.723,95.3491 C135.738,96.1614 140.35,99.4337 141.487,99.4124 C143.816,99.3687 142.423,97.3362 138.925,95.6683 C136.464,94.4684 135.704,94.3743 135.723,95.3491 Z" style="stroke:none;fill-rule:nonzero;fill:#583735;fill-opacity:1;"/>
        </g>
    </g>
    <g id="Layer6" name="Layer 3" opacity="1">
        <g id="Shape27">
            <desc shapeID="27" type="0" basicInfo-basicType="0" basicInfo-roundedRectRadius="12" basicInfo-polygonSides="6" basicInfo-starPoints="5" bounding="rect(-7.13127,-4.8625,14.2625,9.725)" text="" font-familyName="" font-pixelSize="20" font-bold="0" font-underline="0" font-alignment="1" strokeStyle="0" markerStart="0" markerEnd="0" shadowEnabled="0" shadowOffsetX="0" shadowOffsetY="2" shadowBlur="4" shadowOpacity="160" blurEnabled="0" blurRadius="4" transform="matrix(0.83265,-0.0156179,0.0156179,0.83265,66.5688,63.7678)" pers-center="0,0" pers-size="0,0" pers-start="0,0" pers-end="0,0" locked="0" mesh="" flag=""/>
            <path id="shapePath27" d="M61.7504,60.8908 C59.3685,62.6847 60.834,65.3226 65.1118,66.9083 C68.6323,68.0916 68.9654,68.0854 70.9403,66.7989 C72.667,65.6004 72.9075,65.0961 72.0483,63.6963 C71.1844,62.0466 66.5595,59.7178 64.3113,59.76 C63.7285,59.7709 62.5721,60.2923 61.7504,60.8908 Z" style="stroke:none;fill-rule:nonzero;fill:#fc8e76;fill-opacity:0.67451;"/>
        </g>
        <g id="Shape28">
            <desc shapeID="28" type="0" basicInfo-basicType="0" basicInfo-roundedRectRadius="12" basicInfo-polygonSides="6" basicInfo-starPoints="5" bounding="rect(-6.40498,-4.29662,12.81,8.59323)" text="" font-familyName="" font-pixelSize="20" font-bold="0" font-underline="0" font-alignment="1" strokeStyle="0" markerStart="0" markerEnd="0" shadowEnabled="0" shadowOffsetX="0" shadowOffsetY="2" shadowBlur="4" shadowOpacity="160" blurEnabled="0" blurRadius="4" transform="matrix(0.884133,-0.0165835,0.0165836,0.884133,107.207,75.5066)" pers-center="0,0" pers-size="0,0" pers-start="0,0" pers-end="0,0" locked="0" mesh="" flag=""/>
            <path id="shapePath28" d="M102.105,72.4936 C101.756,72.7654 101.514,74.0082 101.536,75.1576 C101.612,79.2246 111.463,80.9856 112.806,77.1573 C113.901,74.2181 104.448,70.0616 102.105,72.4936 Z" style="stroke:none;fill-rule:nonzero;fill:#fc8e76;fill-opacity:0.643137;"/>
        </g>
    </g>
    <g id="Layer7" name="guide_line" visibility="hidden" opacity="1">
        <g id="Shape29">
            <desc shapeID="29" type="0" basicInfo-basicType="4" basicInfo-roundedRectRadius="12" basicInfo-polygonSides="6" basicInfo-starPoints="5" bounding="rect(-496.66,-496.659,993.321,993.318)" text="" font-familyName="Helvetica" font-pixelSize="20" font-bold="0" font-underline="0" font-alignment="1" strokeStyle="0" markerStart="0" markerEnd="0" shadowEnabled="0" shadowOffsetX="0" shadowOffsetY="2" shadowBlur="4" shadowOpacity="160" blurEnabled="0" blurRadius="4" transform="matrix(0.181012,0,0,0.181012,89.9014,90.0618)" pers-center="0,0" pers-size="0,0" pers-start="0,0" pers-end="0,0" locked="0" mesh="" flag=""/>
            <path id="shapePath29" d="M0,90.0618 C4.57764e-05,40.4107 40.2502,0.160538 89.9013,0.160561 C139.552,0.160561 179.803,40.4107 179.803,90.0618 C179.803,139.713 139.552,179.963 89.9013,179.963 C40.2502,179.963 0,139.713 0,90.0618 Z" style="stroke:#323232;stroke-opacity:1;stroke-width:1;stroke-linejoin:miter;stroke-miterlimit:2;stroke-linecap:round;fill:none;"/>
        </g>
        <g id="Shape30">
            <desc shapeID="30" type="0" basicInfo-basicType="2" basicInfo-roundedRectRadius="150" basicInfo-polygonSides="6" basicInfo-starPoints="5" bounding="rect(-512.203,-512.218,1024.42,1024.42)" text="" font-familyName="Helvetica" font-pixelSize="20" font-bold="0" font-underline="0" font-alignment="1" strokeStyle="0" markerStart="0" markerEnd="0" shadowEnabled="0" shadowOffsetX="0" shadowOffsetY="2" shadowBlur="4" shadowOpacity="160" blurEnabled="0" blurRadius="4" transform="matrix(0.175588,0,0,0.175588,90.0973,89.9393)" pers-center="0,0" pers-size="0,0" pers-start="0,0" pers-end="0,0" locked="0" mesh="" flag=""/>
            <path id="shapePath30" d="M0.160629,26.3382 C0.160629,11.792 11.9527,7.62939e-06 26.499,7.62939e-06 L153.698,7.62939e-06 C168.244,7.62939e-06 180.036,11.792 180.036,26.3382 L180.036,153.537 C180.036,168.083 168.244,179.875 153.698,179.875 L26.499,179.875 C11.9527,179.875 0.160629,168.083 0.160629,153.537 L0.160629,26.3382 Z" style="stroke:#323232;stroke-opacity:1;stroke-width:0.5;stroke-linejoin:miter;stroke-miterlimit:2;stroke-linecap:round;fill:none;"/>
        </g>
    </g>
</svg>
