<?xml version="1.0"?>
<svg version="1.1" xmlns="http://www.w3.org/2000/svg" xmlns:xlink="http://www.w3.org/1999/xlink" width="1024" height="1024">
    <desc iVinci="yes" version="4.6" gridStep="20" showGrid="no" snapToGrid="no" codePlatform="0"/>
    <g id="Layer1" name="Layer 7" opacity="1">
        <g id="Shape1">
            <desc shapeID="1" type="0" basicInfo-basicType="0" basicInfo-roundedRectRadius="12" basicInfo-polygonSides="6" basicInfo-starPoints="5" bounding="rect(-148.48,-89.9896,296.96,179.979)" text="" font-familyName="Helvetica" font-pixelSize="20" font-bold="0" font-underline="0" font-alignment="1" strokeStyle="0" markerStart="0" markerEnd="0" shadowEnabled="0" shadowOffsetX="0" shadowOffsetY="2" shadowBlur="4" shadowOpacity="160" blurEnabled="0" blurRadius="4" transform="matrix(1,0,0,1,234.919,593.256)" pers-center="0,0" pers-size="0,0" pers-start="0,0" pers-end="0,0" locked="0" mesh="" flag=""/>
            <path id="shapePath1" d="M92.6384,512.381 C92.6384,512.381 111.188,503.266 111.188,503.266 C111.188,503.266 127.713,535.905 127.713,535.905 C127.713,535.905 166.155,566.404 166.155,566.404 C166.155,566.404 262.1,591.82 262.1,591.82 C262.1,591.82 383.399,616.815 383.399,616.815 C383.399,616.815 374.7,673.755 374.7,673.755 C374.7,673.755 362.046,683.245 362.046,683.245 C362.046,683.245 308.665,683.245 308.665,683.245 C308.665,683.245 228.79,668.219 228.79,668.219 C228.79,668.219 193.202,658.334 193.202,658.334 C193.202,658.334 136.657,638.563 136.657,638.563 C136.657,638.563 114.118,609.697 114.118,609.697 C114.118,609.697 106.21,597.835 106.21,597.835 C106.21,597.835 94.3474,547.221 94.3474,547.221 C94.3474,547.221 86.439,530.218 86.439,530.218 C86.439,530.218 92.6384,512.381 92.6384,512.381 Z" style="stroke:none;fill-rule:evenodd;fill:#fbbbb8;fill-opacity:1;"/>
        </g>
        <g id="Shape2">
            <desc shapeID="2" type="0" basicInfo-basicType="0" basicInfo-roundedRectRadius="12" basicInfo-polygonSides="6" basicInfo-starPoints="5" bounding="rect(-176.775,-90.9032,353.55,181.808)" text="" font-familyName="Helvetica" font-pixelSize="20" font-bold="0" font-underline="0" font-alignment="1" strokeStyle="0" markerStart="0" markerEnd="0" shadowEnabled="0" shadowOffsetX="0" shadowOffsetY="2" shadowBlur="4" shadowOpacity="160" blurEnabled="0" blurRadius="4" transform="matrix(1,0,0,1,754.155,625.782)" pers-center="0,0" pers-size="0,0" pers-start="0,0" pers-end="0,0" locked="0" mesh="" flag=""/>
            <path id="shapePath2" d="M725.944,535.881 C733.116,532.295 741.636,539.297 749.282,541.716 C772.95,549.204 796.383,557.419 819.826,565.584 C847.657,575.277 876.368,582.88 903.1,595.287 C913.72,600.216 928.34,605.562 930.681,617.034 C932.992,628.357 918.555,636.775 913.708,647.267 C903.505,669.355 902.801,697.424 885.597,714.629 C878.243,721.983 866.024,707.435 855.894,705.081 C830.968,699.291 805.12,697.469 780.576,690.23 C766.468,686.069 754.58,676.267 740.795,671.135 C707.832,658.865 672.791,652.234 640.576,638.116 C618.582,628.477 566.978,620.981 579.238,600.334 C596.141,571.868 645.775,591.63 676.085,578.314 C696.065,569.536 706.424,545.641 725.944,535.881 Z" style="stroke:none;fill-rule:evenodd;fill:#fbbbb8;fill-opacity:1;"/>
        </g>
    </g>
    <g id="Layer2" name="skin" opacity="1">
        <g id="Shape3">
            <desc shapeID="3" type="0" basicInfo-basicType="0" basicInfo-roundedRectRadius="12" basicInfo-polygonSides="6" basicInfo-starPoints="5" bounding="rect(-374.511,-249.633,749.021,499.266)" text="" font-familyName="Helvetica" font-pixelSize="20" font-bold="0" font-underline="0" font-alignment="1" strokeStyle="0" markerStart="0" markerEnd="0" shadowEnabled="0" shadowOffsetX="0" shadowOffsetY="2" shadowBlur="4" shadowOpacity="160" blurEnabled="0" blurRadius="4" transform="matrix(1,0,0,1,481.032,381.293)" pers-center="0,0" pers-size="0,0" pers-start="0,0" pers-end="0,0" locked="0" mesh="" flag=""/>
            <path id="shapePath3" d="M108.259,494.021 C104.085,478.019 108.688,460.949 109.079,444.417 C109.645,420.5 105.327,395.885 111.129,372.676 C116.274,352.096 130.246,334.765 141.055,316.513 C153.087,296.195 163.67,274.511 179.59,257.07 C188.596,247.205 202.18,242.747 214.026,236.573 C224.767,230.975 236.417,227.271 247.231,221.815 C251.36,219.732 257.921,218.582 258.71,214.026 C260.704,202.502 254.848,190.873 254.61,179.18 C254.299,163.857 250.509,147.117 257.07,133.266 C259.559,128.012 268.191,137.056 273.058,140.235 C281.688,145.871 290.815,151.447 297.245,159.503 C303.575,167.432 304.196,178.912 310.363,186.969 C313.113,190.562 318.143,192.926 322.662,192.709 C361.356,190.848 399.642,183.777 438.267,180.82 C455.028,179.537 471.939,178.604 488.691,180 C508.168,181.623 527.527,185.122 546.494,189.839 C579.265,197.988 612.256,206.099 643.651,218.535 C654.832,222.964 662.233,234.035 672.758,239.853 C684.395,246.286 696.611,252.43 709.653,255.021 C717.235,256.527 725.709,255.225 732.61,251.741 C743.883,246.051 750.966,233.672 762.43,228.378 C779.158,220.654 797.604,209.629 815.638,213.404 C823.977,215.149 811.907,230.033 810.381,238.415 C808.455,248.996 802.517,259.882 805.283,270.276 C809.727,286.971 821.24,301.005 830.859,315.356 C835.475,322.243 844.875,325.843 847.743,333.622 C853.352,348.837 856.444,365.502 855.309,381.678 C853.353,409.554 848.579,437.727 838.607,463.833 C829.785,486.928 814.375,507.07 799.787,527.029 C786.89,544.674 774.505,563.914 756.452,576.232 C731.856,593.014 702.887,602.607 674.748,612.344 C659.13,617.748 642.286,618.578 625.997,621.372 C606.321,624.748 586.824,630.554 566.863,630.852 C526.028,631.461 485.163,628.208 444.533,624.081 C409.535,620.525 374.916,613.861 340.259,607.83 C310.052,602.574 280.051,596.201 249.978,590.226 C233.104,586.872 215.351,586.34 199.421,579.843 C176.523,570.505 152.876,560.23 134.871,543.28 C121.283,530.487 112.97,512.079 108.259,494.021 Z" style="stroke:none;fill-rule:evenodd;fill:#fff9ed;fill-opacity:1;"/>
        </g>
        <g id="Shape4">
            <desc shapeID="4" type="0" basicInfo-basicType="0" basicInfo-roundedRectRadius="12" basicInfo-polygonSides="6" basicInfo-starPoints="5" bounding="rect(-28.2505,-36.7768,56.501,73.5535)" text="" font-familyName="Helvetica" font-pixelSize="20" font-bold="0" font-underline="0" font-alignment="1" strokeStyle="0" markerStart="0" markerEnd="0" shadowEnabled="0" shadowOffsetX="0" shadowOffsetY="2" shadowBlur="4" shadowOpacity="160" blurEnabled="0" blurRadius="4" transform="matrix(1,0,0,1,400.604,650.047)" pers-center="0,0" pers-size="0,0" pers-start="0,0" pers-end="0,0" locked="0" mesh="" flag=""/>
            <path id="shapePath4" d="M389.407,686.824 C389.407,686.824 372.354,671.826 372.354,671.826 C372.354,671.826 385.093,613.066 385.503,613.271 C385.914,613.477 422.075,619.23 422.075,619.23 C422.075,619.23 418.787,640.597 418.787,640.597 C418.787,640.597 410.158,642.652 410.158,642.652 C410.158,642.652 417.349,656.212 417.349,656.212 C417.349,656.212 428.855,663.608 428.855,663.608 C428.855,663.608 389.407,686.824 389.407,686.824 Z" style="stroke:none;fill-rule:evenodd;fill:#fcf6e5;fill-opacity:1;"/>
        </g>
        <g id="Shape5">
            <desc shapeID="5" type="0" basicInfo-basicType="0" basicInfo-roundedRectRadius="12" basicInfo-polygonSides="6" basicInfo-starPoints="5" bounding="rect(-39.4045,-59.4424,78.809,118.885)" text="" font-familyName="Helvetica" font-pixelSize="20" font-bold="0" font-underline="0" font-alignment="1" strokeStyle="0" markerStart="0" markerEnd="0" shadowEnabled="0" shadowOffsetX="0" shadowOffsetY="2" shadowBlur="4" shadowOpacity="160" blurEnabled="0" blurRadius="4" transform="matrix(1,0,0,1,926.508,676.294)" pers-center="0,0" pers-size="0,0" pers-start="0,0" pers-end="0,0" locked="0" mesh="" flag=""/>
            <path id="shapePath5" d="M887.103,712.453 C887.103,712.453 914.193,643.719 914.193,643.719 C914.193,643.719 928.97,616.852 928.97,616.852 C928.97,616.852 965.912,639.913 965.912,639.913 C965.912,639.913 960.09,658.272 960.09,658.272 C960.09,658.272 931.88,669.242 931.88,669.242 C931.88,669.242 936.582,685.138 936.582,685.138 C936.582,685.138 957.852,699.691 957.852,699.691 C957.852,699.691 944.866,721.185 944.866,721.185 C944.866,721.185 904.566,735.737 904.566,735.737 C904.566,735.737 893.819,728.573 893.819,728.573 C893.819,728.573 887.103,712.453 887.103,712.453 Z" style="stroke:none;fill-rule:evenodd;fill:#fcf6e5;fill-opacity:1;"/>
        </g>
    </g>
    <g id="Layer3" name="Layer 5" opacity="1">
        <g id="Shape6">
            <desc shapeID="6" type="0" basicInfo-basicType="0" basicInfo-roundedRectRadius="12" basicInfo-polygonSides="6" basicInfo-starPoints="5" bounding="rect(-118.137,-92.2041,236.276,184.408)" text="" font-familyName="Helvetica" font-pixelSize="20" font-bold="0" font-underline="0" font-alignment="1" strokeStyle="0" markerStart="0" markerEnd="0" shadowEnabled="0" shadowOffsetX="0" shadowOffsetY="2" shadowBlur="4" shadowOpacity="160" blurEnabled="0" blurRadius="4" transform="matrix(1,0,0,1,479.221,413.404)" pers-center="0,0" pers-size="0,0" pers-start="0,0" pers-end="0,0" locked="0" mesh="" flag=""/>
            <path id="shapePath6" d="M381.96,340.457 C389.807,330.377 402.321,321.33 415.095,321.203 C435.155,321.005 453.882,331.867 472.409,339.562 C477.544,341.695 479.956,348.375 485.17,350.308 C497.701,354.953 512.645,352.366 524.349,358.816 C529.126,361.448 529.792,369.084 529.051,374.487 C527.893,382.934 518.448,389.486 518.976,397.995 C519.808,411.403 524.89,425.014 532.857,435.831 C537.19,441.714 546.844,440.483 553.077,444.295 C557.738,447.147 560.23,452.903 565.031,455.512 C569.356,457.862 576.294,454.868 579.462,458.635 C587.943,468.718 595.306,480.878 597.319,493.9 C597.991,498.253 590.253,499.677 585.956,500.643 C582.377,501.447 578.702,498.245 575.092,498.895 C569.584,499.887 564.988,506.932 559.609,505.388 C545.7,501.395 534.103,491.629 522.024,483.661 C512.121,477.128 504.518,467.064 493.801,461.975 C482.524,456.621 469.888,453.978 457.443,452.998 C442.802,451.845 428.107,456.773 413.463,455.65 C404.553,454.966 395.582,452.18 387.872,447.661 C378.022,441.888 364.295,436.548 361.844,425.397 C358.255,409.068 368.34,392.589 372.192,376.321 C375.048,364.265 374.35,350.235 381.96,340.457 Z" style="stroke:none;fill-rule:evenodd;fill:#ffffff;fill-opacity:1;"/>
        </g>
    </g>
    <g id="Layer4" name="Layer 6" opacity="1">
        <g id="Shape7">
            <desc shapeID="7" type="0" basicInfo-basicType="0" basicInfo-roundedRectRadius="12" basicInfo-polygonSides="6" basicInfo-starPoints="5" bounding="rect(-54.6373,-29.1184,109.275,58.2369)" text="" font-familyName="Helvetica" font-pixelSize="20" font-bold="0" font-underline="0" font-alignment="1" strokeStyle="0" markerStart="0" markerEnd="0" shadowEnabled="0" shadowOffsetX="0" shadowOffsetY="2" shadowBlur="4" shadowOpacity="160" blurEnabled="0" blurRadius="4" transform="matrix(0.703047,0,0,0.703047,327.805,290.249)" pers-center="0,0" pers-size="0,0" pers-start="0,0" pers-end="0,0" locked="0" mesh="" flag=""/>
            <path id="shapePath7" d="M296.584,299.782 C291.865,295.063 286.42,285.001 291.316,280.467 C300.658,271.817 315.7,268.058 328.191,270.517 C342.845,273.401 358.736,281.862 365.651,295.1 C369.11,301.721 355.908,307.858 348.677,309.733 C338.828,312.286 328.236,309.301 318.241,307.391 C310.725,305.956 301.995,305.193 296.584,299.782 Z" style="stroke:none;fill-rule:evenodd;fill:#fbbbb8;fill-opacity:1;"/>
        </g>
        <g id="Shape8">
            <desc shapeID="8" type="0" basicInfo-basicType="0" basicInfo-roundedRectRadius="12" basicInfo-polygonSides="6" basicInfo-starPoints="5" bounding="rect(-35.9706,-18.6382,71.941,37.2765)" text="" font-familyName="Helvetica" font-pixelSize="20" font-bold="0" font-underline="0" font-alignment="1" strokeStyle="0" markerStart="0" markerEnd="0" shadowEnabled="0" shadowOffsetX="0" shadowOffsetY="2" shadowBlur="4" shadowOpacity="160" blurEnabled="0" blurRadius="4" transform="matrix(1,0,0,1,601.963,348.528)" pers-center="0,0" pers-size="0,0" pers-start="0,0" pers-end="0,0" locked="0" mesh="" flag=""/>
            <path id="shapePath8" d="M566.432,341.553 C570.039,334.701 578.787,329.655 586.526,329.898 C601.814,330.379 617.384,335.418 630.331,343.562 C635.603,346.878 640.557,356.644 636.36,361.245 C630.198,367.999 618.493,367.705 609.434,366.469 C597.036,364.779 585.297,359.079 574.47,352.806 C570.482,350.495 564.286,345.632 566.432,341.553 Z" style="stroke:none;fill-rule:evenodd;fill:#fbbbb8;fill-opacity:1;"/>
        </g>
    </g>
    <g id="Layer5" name="Layer 3" opacity="1">
        <g id="Shape9">
            <desc shapeID="9" type="0" basicInfo-basicType="0" basicInfo-roundedRectRadius="12" basicInfo-polygonSides="6" basicInfo-starPoints="5" bounding="rect(0,0,0,0)" text="" font-familyName="Helvetica" font-pixelSize="20" font-bold="0" font-underline="0" font-alignment="1" strokeStyle="0" markerStart="0" markerEnd="0" shadowEnabled="0" shadowOffsetX="0" shadowOffsetY="2" shadowBlur="4" shadowOpacity="160" blurEnabled="0" blurRadius="4" transform="matrix(1.15059,0,-0.0675191,1.14726,61.2273,49.6653)" pers-center="0,0" pers-size="0,0" pers-start="0,0" pers-end="0,0" locked="0" mesh="" flag=""/>
            <path id="shapePath9" d="M61.2273,49.6653 Z" style="stroke:none;fill-rule:evenodd;fill:#000000;fill-opacity:1;"/>
        </g>
        <g id="Shape10">
            <desc shapeID="10" type="0" basicInfo-basicType="0" basicInfo-roundedRectRadius="12" basicInfo-polygonSides="6" basicInfo-starPoints="5" bounding="rect(-19.6286,-11.1476,39.2573,22.2955)" text="" font-familyName="Helvetica" font-pixelSize="20" font-bold="0" font-underline="0" font-alignment="1" strokeStyle="0" markerStart="0" markerEnd="0" shadowEnabled="0" shadowOffsetX="0" shadowOffsetY="2" shadowBlur="4" shadowOpacity="160" blurEnabled="0" blurRadius="4" transform="matrix(1.15059,0,-0.0675191,1.14726,414.031,268.502)" pers-center="0,0" pers-size="0,0" pers-start="0,0" pers-end="0,0" locked="0" mesh="" flag=""/>
            <path id="shapePath10" d="M391.95,262.597 C391.143,259.773 395.179,255.383 398.133,255.733 C405.409,256.598 410.707,262.772 417.345,265.615 C422.573,267.853 429.5,267.096 433.628,270.933 C436.056,273.19 437.433,280.756 434.013,281.108 C423.39,282.202 412.883,278.234 403.377,274.051 C398.397,271.859 393.452,267.841 391.95,262.597 Z" style="stroke:none;fill-rule:evenodd;fill:#000000;fill-opacity:1;"/>
        </g>
        <g id="Shape11">
            <desc shapeID="11" type="0" basicInfo-basicType="0" basicInfo-roundedRectRadius="12" basicInfo-polygonSides="6" basicInfo-starPoints="5" bounding="rect(0,0,0,0)" text="" font-familyName="Helvetica" font-pixelSize="20" font-bold="0" font-underline="0" font-alignment="1" strokeStyle="0" markerStart="0" markerEnd="0" shadowEnabled="0" shadowOffsetX="0" shadowOffsetY="2" shadowBlur="4" shadowOpacity="160" blurEnabled="0" blurRadius="4" transform="matrix(1.15059,0,-0.0675191,1.14726,61.2274,49.6653)" pers-center="0,0" pers-size="0,0" pers-start="0,0" pers-end="0,0" locked="0" mesh="" flag=""/>
            <path id="shapePath11" d="M61.2274,49.6653 Z" style="stroke:none;fill-rule:evenodd;fill:#7a7476;fill-opacity:1;"/>
        </g>
        <g id="Shape12">
            <desc shapeID="12" type="0" basicInfo-basicType="0" basicInfo-roundedRectRadius="12" basicInfo-polygonSides="6" basicInfo-starPoints="5" bounding="rect(0,0,0,0)" text="" font-familyName="Helvetica" font-pixelSize="20" font-bold="0" font-underline="0" font-alignment="1" strokeStyle="0" markerStart="0" markerEnd="0" shadowEnabled="0" shadowOffsetX="0" shadowOffsetY="2" shadowBlur="4" shadowOpacity="160" blurEnabled="0" blurRadius="4" transform="matrix(1.15059,0,-0.0675191,1.14726,61.2273,49.6653)" pers-center="0,0" pers-size="0,0" pers-start="0,0" pers-end="0,0" locked="0" mesh="" flag=""/>
            <path id="shapePath12" d="M61.2273,49.6653 Z" style="stroke:none;fill-rule:evenodd;fill:#000000;fill-opacity:1;"/>
        </g>
        <g id="Shape13">
            <desc shapeID="13" type="0" basicInfo-basicType="0" basicInfo-roundedRectRadius="12" basicInfo-polygonSides="6" basicInfo-starPoints="5" bounding="rect(0,0,0,0)" text="" font-familyName="Helvetica" font-pixelSize="20" font-bold="0" font-underline="0" font-alignment="1" strokeStyle="0" markerStart="0" markerEnd="0" shadowEnabled="0" shadowOffsetX="0" shadowOffsetY="2" shadowBlur="4" shadowOpacity="160" blurEnabled="0" blurRadius="4" transform="matrix(1.15059,0,-0.0675191,1.14726,61.2273,49.6653)" pers-center="0,0" pers-size="0,0" pers-start="0,0" pers-end="0,0" locked="0" mesh="" flag=""/>
            <path id="shapePath13" d="M61.2273,49.6653 Z" style="stroke:none;fill-rule:evenodd;fill:#000000;fill-opacity:1;"/>
        </g>
        <g id="Shape14">
            <desc shapeID="14" type="0" basicInfo-basicType="0" basicInfo-roundedRectRadius="12" basicInfo-polygonSides="6" basicInfo-starPoints="5" bounding="rect(-0.0840761,-0.0139364,0.168132,0.0278863)" text="" font-familyName="Helvetica" font-pixelSize="20" font-bold="0" font-underline="0" font-alignment="1" strokeStyle="0" markerStart="0" markerEnd="0" shadowEnabled="0" shadowOffsetX="0" shadowOffsetY="2" shadowBlur="4" shadowOpacity="160" blurEnabled="0" blurRadius="4" transform="matrix(1.15059,0,-0.0675191,1.14726,464.551,298.229)" pers-center="0,0" pers-size="0,0" pers-start="0,0" pers-end="0,0" locked="0" mesh="" flag=""/>
            <path id="shapePath14" d="M464.455,298.213 C464.886,298.285 464.455,298.213 464.455,298.213 Z" style="stroke:none;fill-rule:evenodd;fill:#000000;fill-opacity:1;"/>
        </g>
        <g id="Shape15">
            <desc shapeID="15" type="0" basicInfo-basicType="0" basicInfo-roundedRectRadius="12" basicInfo-polygonSides="6" basicInfo-starPoints="5" bounding="rect(-13.27,-18.3879,26.5401,36.7759)" text="" font-familyName="Helvetica" font-pixelSize="20" font-bold="0" font-underline="0" font-alignment="1" strokeStyle="0" markerStart="0" markerEnd="0" shadowEnabled="0" shadowOffsetX="0" shadowOffsetY="2" shadowBlur="4" shadowOpacity="160" blurEnabled="0" blurRadius="4" transform="matrix(1.15059,0,-0.0675191,1.14726,477.598,312.021)" pers-center="0,0" pers-size="0,0" pers-start="0,0" pers-end="0,0" locked="0" mesh="" flag=""/>
            <path id="shapePath15" d="M464.294,297.275 C466.362,299.87 471.656,299.083 473.057,302.11 C475.176,306.692 473.089,312.438 473.664,317.528 C474.2,322.293 474.265,327.372 476.38,331.593 C477.119,333.07 479.735,333.528 481.274,332.724 C483.126,331.756 484.493,329.383 484.496,327.352 C484.505,323.127 481.692,319.452 481.31,315.266 C481.033,312.252 480.232,308.269 482.555,306.15 C484.575,304.306 488.029,308.177 490.447,306.927 C492.46,305.887 494.233,302.522 493.081,300.708 C490.917,297.298 486.326,296.189 482.599,294.559 C479.754,293.314 476.627,292.678 473.526,292.156 C470.612,291.666 467.305,290.055 464.631,291.538 C462.912,292.491 463.134,295.82 464.294,297.275 Z" style="stroke:none;fill-rule:evenodd;fill:#000000;fill-opacity:1;"/>
        </g>
        <g id="Shape16">
            <desc shapeID="16" type="0" basicInfo-basicType="0" basicInfo-roundedRectRadius="12" basicInfo-polygonSides="6" basicInfo-starPoints="5" bounding="rect(0,0,0,0)" text="" font-familyName="Helvetica" font-pixelSize="20" font-bold="0" font-underline="0" font-alignment="1" strokeStyle="0" markerStart="0" markerEnd="0" shadowEnabled="0" shadowOffsetX="0" shadowOffsetY="2" shadowBlur="4" shadowOpacity="160" blurEnabled="0" blurRadius="4" transform="matrix(1.15059,0,-0.0675191,1.14726,61.2273,49.6653)" pers-center="0,0" pers-size="0,0" pers-start="0,0" pers-end="0,0" locked="0" mesh="" flag=""/>
            <path id="shapePath16" d="M61.2273,49.6653 Z" style="stroke:none;fill-rule:evenodd;fill:#000000;fill-opacity:1;"/>
        </g>
        <g id="Shape17">
            <desc shapeID="17" type="0" basicInfo-basicType="0" basicInfo-roundedRectRadius="12" basicInfo-polygonSides="6" basicInfo-starPoints="5" bounding="rect(-18.1688,-9.45461,36.3378,18.9093)" text="" font-familyName="Helvetica" font-pixelSize="20" font-bold="0" font-underline="0" font-alignment="1" strokeStyle="0" markerStart="0" markerEnd="0" shadowEnabled="0" shadowOffsetX="0" shadowOffsetY="2" shadowBlur="4" shadowOpacity="160" blurEnabled="0" blurRadius="4" transform="matrix(1.15059,0,-0.0675191,1.14726,529.697,308.439)" pers-center="0,0" pers-size="0,0" pers-start="0,0" pers-end="0,0" locked="0" mesh="" flag=""/>
            <path id="shapePath17" d="M510.857,298.124 C505.561,300.039 515.007,308.695 519.407,311.78 C525.585,316.114 533.288,318.814 541.012,319.274 C544.498,319.482 548.952,316.947 550.196,313.612 C551.105,311.176 547.501,309.052 545.175,308.117 C541.51,306.642 537.04,307.893 533.229,306.784 C525.52,304.539 518.674,295.299 510.857,298.124 Z" style="stroke:none;fill-rule:evenodd;fill:#000000;fill-opacity:1;"/>
        </g>
        <g id="Shape18">
            <desc shapeID="18" type="0" basicInfo-basicType="0" basicInfo-roundedRectRadius="12" basicInfo-polygonSides="6" basicInfo-starPoints="5" bounding="rect(0,0,0,0)" text="" font-familyName="Helvetica" font-pixelSize="20" font-bold="0" font-underline="0" font-alignment="1" strokeStyle="0" markerStart="0" markerEnd="0" shadowEnabled="0" shadowOffsetX="0" shadowOffsetY="2" shadowBlur="4" shadowOpacity="160" blurEnabled="0" blurRadius="4" transform="matrix(1.15059,0,-0.0675191,1.14726,61.2273,49.6653)" pers-center="0,0" pers-size="0,0" pers-start="0,0" pers-end="0,0" locked="0" mesh="" flag=""/>
            <path id="shapePath18" d="M61.2273,49.6653 Z" style="stroke:none;fill-rule:evenodd;fill:#000000;fill-opacity:1;"/>
        </g>
        <g id="Shape19">
            <desc shapeID="19" type="0" basicInfo-basicType="0" basicInfo-roundedRectRadius="12" basicInfo-polygonSides="6" basicInfo-starPoints="5" bounding="rect(-21.9965,-6.39041,43.9927,12.7808)" text="" font-familyName="Helvetica" font-pixelSize="20" font-bold="0" font-underline="0" font-alignment="1" strokeStyle="0" markerStart="0" markerEnd="0" shadowEnabled="0" shadowOffsetX="0" shadowOffsetY="2" shadowBlur="4" shadowOpacity="160" blurEnabled="0" blurRadius="4" transform="matrix(1.15059,0,-0.0675191,1.14726,729.466,408.494)" pers-center="0,0" pers-size="0,0" pers-start="0,0" pers-end="0,0" locked="0" mesh="" flag=""/>
            <path id="shapePath19" d="M704.639,403.253 C703.383,406.192 707.457,408.929 709.944,410.698 C712.361,412.415 715.587,412.885 718.605,413.18 C724.795,413.782 731.143,412.931 737.356,413.371 C741.973,413.696 746.504,416.873 751.016,415.47 C753.505,414.696 755.962,409.66 753.932,408.216 C748.478,404.336 740.833,404.599 734.111,403.444 C727.474,402.303 720.739,401.388 713.941,401.343 C710.813,401.323 705.891,400.324 704.639,403.253 Z" style="stroke:none;fill-rule:evenodd;fill:#000000;fill-opacity:1;"/>
        </g>
        <g id="Shape20">
            <desc shapeID="20" type="0" basicInfo-basicType="0" basicInfo-roundedRectRadius="12" basicInfo-polygonSides="6" basicInfo-starPoints="5" bounding="rect(-14.5595,-7.87542,29.1191,15.751)" text="" font-familyName="Helvetica" font-pixelSize="20" font-bold="0" font-underline="0" font-alignment="1" strokeStyle="0" markerStart="0" markerEnd="0" shadowEnabled="0" shadowOffsetX="0" shadowOffsetY="2" shadowBlur="4" shadowOpacity="160" blurEnabled="0" blurRadius="4" transform="matrix(1.15059,0,-0.0675191,1.14726,732.854,436.139)" pers-center="0,0" pers-size="0,0" pers-start="0,0" pers-end="0,0" locked="0" mesh="" flag=""/>
            <path id="shapePath20" d="M716.4,431.123 C716.433,427.677 722.757,427.002 726.209,427.115 C732.971,427.335 740.337,428.166 745.636,432.078 C748.901,434.489 749.92,439.81 748.959,443.913 C748.49,445.92 744.494,445.181 742.822,444.104 C741.163,443.036 742.021,440.382 740.123,439.775 C735.581,438.324 730.658,440.159 726.098,438.759 C722.114,437.537 716.36,435.344 716.4,431.123 Z" style="stroke:none;fill-rule:evenodd;fill:#000000;fill-opacity:1;"/>
        </g>
        <g id="Shape21">
            <desc shapeID="21" type="0" basicInfo-basicType="0" basicInfo-roundedRectRadius="12" basicInfo-polygonSides="6" basicInfo-starPoints="5" bounding="rect(0,0,0,0)" text="" font-familyName="Helvetica" font-pixelSize="20" font-bold="0" font-underline="0" font-alignment="1" strokeStyle="0" markerStart="0" markerEnd="0" shadowEnabled="0" shadowOffsetX="0" shadowOffsetY="2" shadowBlur="4" shadowOpacity="160" blurEnabled="0" blurRadius="4" transform="matrix(1.15059,0,-0.0675191,1.14726,61.2273,49.6653)" pers-center="0,0" pers-size="0,0" pers-start="0,0" pers-end="0,0" locked="0" mesh="" flag=""/>
            <path id="shapePath21" d="M61.2273,49.6653 Z" style="stroke:none;fill-rule:evenodd;fill:#000000;fill-opacity:1;"/>
        </g>
        <g id="Shape22">
            <desc shapeID="22" type="0" basicInfo-basicType="0" basicInfo-roundedRectRadius="12" basicInfo-polygonSides="6" basicInfo-starPoints="5" bounding="rect(-17.1228,-6.99917,34.2455,13.9985)" text="" font-familyName="Helvetica" font-pixelSize="20" font-bold="0" font-underline="0" font-alignment="1" strokeStyle="0" markerStart="0" markerEnd="0" shadowEnabled="0" shadowOffsetX="0" shadowOffsetY="2" shadowBlur="4" shadowOpacity="160" blurEnabled="0" blurRadius="4" transform="matrix(1.15059,0,-0.0675191,1.14726,731.553,473.001)" pers-center="0,0" pers-size="0,0" pers-start="0,0" pers-end="0,0" locked="0" mesh="" flag=""/>
            <path id="shapePath22" d="M712.211,469.008 C711.221,465.607 718.893,465.178 722.513,464.994 C727.431,464.743 732.1,466.65 736.819,467.754 C741.044,468.743 746.133,468.434 749.321,471.266 C751.351,473.071 751.627,477.125 750.091,479.547 C748.855,481.497 745.542,481.117 743.357,480.676 C741.681,480.338 741.221,477.652 739.523,477.414 C735.228,476.811 730.495,479.557 726.386,478.293 C720.928,476.613 713.803,474.474 712.211,469.008 Z" style="stroke:none;fill-rule:evenodd;fill:#000000;fill-opacity:1;"/>
        </g>
        <g id="Shape23">
            <desc shapeID="23" type="0" basicInfo-basicType="0" basicInfo-roundedRectRadius="12" basicInfo-polygonSides="6" basicInfo-starPoints="5" bounding="rect(-21.0621,-5.99109,42.1244,11.9821)" text="" font-familyName="Helvetica" font-pixelSize="20" font-bold="0" font-underline="0" font-alignment="1" strokeStyle="0" markerStart="0" markerEnd="0" shadowEnabled="0" shadowOffsetX="0" shadowOffsetY="2" shadowBlur="4" shadowOpacity="160" blurEnabled="0" blurRadius="4" transform="matrix(1.15059,0,-0.0675191,1.14726,184.012,311.253)" pers-center="0,0" pers-size="0,0" pers-start="0,0" pers-end="0,0" locked="0" mesh="" flag=""/>
            <path id="shapePath23" d="M173.901,315.923 C170.693,316.509 167.581,318.766 164.507,317.95 C161.93,317.265 158.651,313.881 160.019,311.476 C162.351,307.377 168.834,305.885 173.436,305.207 C180.419,304.179 186.05,305.77 192.997,306.621 C196.554,307.057 200.64,303.162 203.772,304.771 C206.716,306.283 209.686,311.389 207.402,314.019 C203.954,317.991 197.449,317.95 192.331,317.95 C189.8,317.95 187.433,315.55 184.951,315.175 C180.993,314.578 177.914,315.192 173.901,315.923 Z" style="stroke:none;fill-rule:evenodd;fill:#000000;fill-opacity:1;"/>
        </g>
        <g id="Shape24">
            <desc shapeID="24" type="0" basicInfo-basicType="0" basicInfo-roundedRectRadius="12" basicInfo-polygonSides="6" basicInfo-starPoints="5" bounding="rect(-16.7496,-5.93892,33.4992,11.8779)" text="" font-familyName="Helvetica" font-pixelSize="20" font-bold="0" font-underline="0" font-alignment="1" strokeStyle="0" markerStart="0" markerEnd="0" shadowEnabled="0" shadowOffsetX="0" shadowOffsetY="2" shadowBlur="4" shadowOpacity="160" blurEnabled="0" blurRadius="4" transform="matrix(1.15059,0,-0.0675191,1.14726,171.451,338.929)" pers-center="0,0" pers-size="0,0" pers-start="0,0" pers-end="0,0" locked="0" mesh="" flag=""/>
            <path id="shapePath24" d="M152.534,340.145 C157.091,336.486 163.06,334.889 168.682,333.671 C171.172,333.132 173.501,335.264 176.021,335.058 C179.328,334.788 182.591,331.32 185.691,332.284 C188.408,333.129 192.321,337.428 190.138,339.451 C185.216,344.012 177.704,344.476 171.221,345.693 C169.228,346.068 167.517,344.179 165.52,344.075 C161.96,343.889 158.142,345.855 154.776,344.836 C153.102,344.329 151.108,341.29 152.534,340.145 Z" style="stroke:none;fill-rule:evenodd;fill:#000000;fill-opacity:1;"/>
        </g>
        <g id="Shape25">
            <desc shapeID="25" type="0" basicInfo-basicType="0" basicInfo-roundedRectRadius="12" basicInfo-polygonSides="6" basicInfo-starPoints="5" bounding="rect(-23.2997,-6.30205,46.5994,12.6043)" text="" font-familyName="Helvetica" font-pixelSize="20" font-bold="0" font-underline="0" font-alignment="1" strokeStyle="0" markerStart="0" markerEnd="0" shadowEnabled="0" shadowOffsetX="0" shadowOffsetY="2" shadowBlur="4" shadowOpacity="160" blurEnabled="0" blurRadius="4" transform="matrix(1.15059,0,-0.0675191,1.14726,152.76,372.236)" pers-center="0,0" pers-size="0,0" pers-start="0,0" pers-end="0,0" locked="0" mesh="" flag=""/>
            <path id="shapePath25" d="M126.453,372.654 C132.173,365.798 143.217,366.623 151.878,365.219 C156.374,364.489 160.85,365.831 165.301,366.355 C169.975,366.905 175.245,366.123 179.238,368.439 C180.675,369.273 178.681,372.55 177.06,373.175 C172.447,374.952 167.344,374.066 162.519,374.88 C154.988,376.151 147.544,379.892 140.022,379.427 C134.873,379.109 123.045,376.738 126.453,372.654 Z" style="stroke:none;fill-rule:evenodd;fill:#000000;fill-opacity:1;"/>
        </g>
        <g id="Shape26">
            <desc shapeID="26" type="0" basicInfo-basicType="0" basicInfo-roundedRectRadius="12" basicInfo-polygonSides="6" basicInfo-starPoints="5" bounding="rect(-86.1206,-80.4927,172.24,160.987)" text="" font-familyName="Helvetica" font-pixelSize="20" font-bold="0" font-underline="0" font-alignment="1" strokeStyle="0" markerStart="0" markerEnd="0" shadowEnabled="0" shadowOffsetX="0" shadowOffsetY="2" shadowBlur="4" shadowOpacity="160" blurEnabled="0" blurRadius="4" transform="matrix(1.15059,0,-0.0675191,1.14726,506.852,410.473)" pers-center="0,0" pers-size="0,0" pers-start="0,0" pers-end="0,0" locked="0" mesh="" flag=""/>
            <path id="shapePath26" d="M413.131,319.756 C413.766,325.286 418.848,329.856 423.864,332.121 C432.492,336.018 442.872,334.992 452.115,337.367 C458.962,339.126 465.884,341.08 471.988,344.486 C476.256,346.867 478.382,352.078 482.677,354.415 C489.141,357.932 496.459,359.88 503.666,361.722 C508.979,363.08 515.107,361.738 520.068,363.97 C522.75,365.177 524.177,368.413 524.9,371.276 C525.622,374.14 525.219,377.398 524.181,380.269 C522.094,386.049 517.269,390.844 515.697,396.756 C514.677,400.587 515.573,404.696 516.705,408.371 C518.609,414.562 522.261,420 524.686,425.981 C526.875,431.381 527.581,435.886 531.567,440.081 C534.148,442.798 538.42,443.415 541.871,444.96 C547.15,447.323 550.857,450.822 555.312,454.441 C557.467,456.193 560.573,459.089 563.168,460.149 C566.848,461.652 570.484,458.876 573.722,461.13 C578.523,464.474 580.741,470.488 583.716,475.525 C585.698,478.879 585.787,483.468 588.541,486.211 C591.298,488.957 590.799,488.186 591.876,491.972 C592.876,495.48 581.645,492.876 579.431,499.458 C578.443,503.086 582.613,503.137 584.641,502.528 C588.219,501.453 596.46,500.562 598.536,497.419 C600.369,494.643 601.931,492.42 600.758,489.474 C599.569,486.488 601.344,483.742 598.539,482.182 C595.878,480.7 594.629,479.524 592.749,477.146 C589.315,472.801 589.224,466.435 586.307,461.715 C584.372,458.586 581.687,455.765 578.443,454.001 C573.813,451.483 567.994,451.497 563.252,449.178 C559.858,447.519 557.696,444.027 554.377,442.235 C549.998,439.872 544.772,439.174 540.379,436.834 C537.693,435.403 534.859,433.693 533.37,431.048 C529.773,424.663 528.271,417.223 525.493,410.41 C524.365,407.648 521.906,405.358 521.659,402.339 C521.42,399.415 522.939,396.469 524.125,393.698 C525.687,390.052 528.356,386.883 529.849,383.212 C531.308,379.621 533.038,375.85 532.919,372.064 C532.82,368.965 530.13,366.633 529.232,363.71 C528.401,360.997 530.212,356.676 527.766,355.271 C521.443,351.642 513.428,351.723 506.133,350.449 C503.625,350.011 500.827,350.977 498.444,350.148 C492.863,348.206 487.711,345.271 482.667,342.286 C478.523,339.833 475.353,335.894 470.958,333.882 C465.542,331.4 461.23,331.565 455.863,328.989 C453.889,328.042 450.641,326.03 448.589,325.248 C445.745,324.164 443.55,324.212 440.47,323.972 C436.548,323.666 432.644,323.082 428.879,322.09 C426.57,321.481 424.758,319.557 422.381,319.205 C419.364,318.758 412.784,316.733 413.131,319.756 Z" style="stroke:none;fill-rule:evenodd;fill:#000000;fill-opacity:1;"/>
        </g>
        <g id="Shape27">
            <desc shapeID="27" type="0" basicInfo-basicType="0" basicInfo-roundedRectRadius="12" basicInfo-polygonSides="6" basicInfo-starPoints="5" bounding="rect(0,0,0,0)" text="" font-familyName="Helvetica" font-pixelSize="20" font-bold="0" font-underline="0" font-alignment="1" strokeStyle="0" markerStart="0" markerEnd="0" shadowEnabled="0" shadowOffsetX="0" shadowOffsetY="2" shadowBlur="4" shadowOpacity="160" blurEnabled="0" blurRadius="4" transform="matrix(1.15059,0,-0.0675191,1.14726,61.2274,49.6653)" pers-center="0,0" pers-size="0,0" pers-start="0,0" pers-end="0,0" locked="0" mesh="" flag=""/>
            <path id="shapePath27" d="M61.2274,49.6653 Z" style="stroke:none;fill-rule:evenodd;fill:#000000;fill-opacity:1;"/>
        </g>
        <g id="Shape28">
            <desc shapeID="28" type="0" basicInfo-basicType="0" basicInfo-roundedRectRadius="12" basicInfo-polygonSides="6" basicInfo-starPoints="5" bounding="rect(-98.5154,-75.6091,197.028,151.216)" text="" font-familyName="Helvetica" font-pixelSize="20" font-bold="0" font-underline="0" font-alignment="1" strokeStyle="0" markerStart="0" markerEnd="0" shadowEnabled="0" shadowOffsetX="0" shadowOffsetY="2" shadowBlur="4" shadowOpacity="160" blurEnabled="0" blurRadius="4" transform="matrix(1.15059,0,-0.0675191,1.14726,471.795,422.712)" pers-center="0,0" pers-size="0,0" pers-start="0,0" pers-end="0,0" locked="0" mesh="" flag=""/>
            <path id="shapePath28" d="M376.57,344.294 C374.064,349.174 372.898,354.586 371.606,359.854 C369.689,367.683 368.83,375.682 366.959,383.519 C365.286,390.526 362.298,397.281 360.987,404.344 C359.652,411.534 357.72,419.045 359.06,426.079 C359.825,430.092 363.872,432.593 366.877,435.267 C372.396,440.178 378.276,444.73 384.515,448.729 C390.979,452.874 397.528,457.154 404.875,459.627 C408.007,460.681 411.655,458.664 414.984,458.986 C422.017,459.667 428.676,462.491 435.773,462.619 C444.668,462.778 453.719,458.84 462.509,459.84 C473.254,461.064 483.313,465.283 493.251,469.162 C499.333,471.537 505.221,474.571 510.347,478.517 C516.223,483.04 519.951,489.96 525.946,494.331 C533.215,499.631 541.134,504.356 549.757,507.249 C555.808,509.279 562.662,510.153 569.098,508.808 C573.303,507.93 577.181,504.623 579.609,501.012 C580.982,498.97 581.49,494.237 579.135,493.885 C573.799,493.087 568.665,498.563 563.224,498.563 C557.924,498.563 553.004,496.074 548.309,493.885 C541.634,490.773 535.174,487.129 529.308,482.749 C525.251,479.72 522.799,474.916 518.782,471.835 C512.759,467.218 506.113,463.395 499.386,459.808 C494.387,457.142 489.155,454.806 483.696,453.126 C477.039,451.078 470.214,449.221 463.185,448.672 C459.576,448.389 455.985,450.338 452.345,450.677 C443.985,451.454 435.559,452.477 427.249,452.012 C420.826,451.654 414.712,449.589 408.485,448.227 C403.17,447.064 397.477,446.766 392.625,444.44 C387.219,441.848 383.033,437.356 378.288,433.749 C374.338,430.747 368.165,429.343 366.54,424.617 C364.5,418.686 367.505,411.818 368.56,405.463 C369.792,398.05 371.639,390.713 373.388,383.374 C374.345,379.362 375.814,375.449 376.675,371.42 C377.428,367.892 377.532,364.288 378.225,360.752 C379.799,352.726 384.277,344.753 383.473,336.752 C383.144,333.488 378.117,341.283 376.57,344.294 Z" style="stroke:none;fill-rule:evenodd;fill:#000000;fill-opacity:1;"/>
        </g>
        <g id="Shape29">
            <desc shapeID="29" type="0" basicInfo-basicType="0" basicInfo-roundedRectRadius="12" basicInfo-polygonSides="6" basicInfo-starPoints="5" bounding="rect(-327.936,-175.712,655.872,351.422)" text="" font-familyName="Helvetica" font-pixelSize="20" font-bold="0" font-underline="0" font-alignment="1" strokeStyle="0" markerStart="0" markerEnd="0" shadowEnabled="0" shadowOffsetX="0" shadowOffsetY="2" shadowBlur="4" shadowOpacity="160" blurEnabled="0" blurRadius="4" transform="matrix(1.15059,0,-0.0675191,1.14726,476.86,435.046)" pers-center="0,0" pers-size="0,0" pers-start="0,0" pers-end="0,0" locked="0" mesh="" flag=""/>
            <path id="shapePath29" d="M215.391,235.279 C214.818,231.389 207.037,234.655 203.435,236.571 C194.242,241.464 185.838,248.005 178.153,255.094 C172.558,260.253 168.469,266.828 163.986,272.955 C158.803,280.037 153.878,287.303 149.174,294.694 C138.872,310.88 127.719,326.658 118.977,343.668 C112.324,356.616 106.59,370.192 103.191,384.177 C100.935,393.463 102.501,403.055 102.253,412.491 C101.843,428.108 100.424,443.804 101.219,459.336 C101.915,472.958 103.24,486.656 106.713,499.693 C109.438,509.919 113.681,519.859 119.636,528.465 C128.223,540.879 137.067,554.049 149.885,562.096 C170.515,575.047 194.325,582.894 217.851,590.124 C233.221,594.847 250.087,594.247 265.851,597.734 C288.398,602.723 310.034,608.627 332.809,612.734 C350.397,615.906 368.824,617.05 386.47,619.562 C405.181,622.227 423.119,626.219 442.061,628.109 C474.153,631.312 506.921,634.714 539.246,636.139 C551.13,636.663 563.156,637.155 575.059,635.44 C611.028,630.26 646.825,623.149 682.492,615.508 C698.016,612.182 714.381,610.265 728.493,602.57 C747.276,592.328 763.559,577.579 779.144,562.808 C789.952,552.565 798.622,540.233 807.117,528.055 C816.304,514.884 825.191,501.359 832.064,486.946 C839.67,470.994 845.519,454.269 850.337,437.413 C853.488,426.39 854.688,414.981 855.861,403.691 C856.811,394.547 856.954,385.36 856.69,376.241 C856.434,367.421 855.442,358.669 854.303,349.969 C853.541,344.144 852.877,338.22 850.993,332.715 C849.921,329.583 848.015,326.68 845.578,324.481 C840.813,320.18 835.848,310.664 829.708,313.501 C824.425,315.941 834.325,323.608 837.09,328.402 C839.687,332.907 844.849,336.15 845.766,341.342 C848.386,356.169 848.075,371.6 847.415,386.829 C846.971,397.077 844.465,407.262 842.469,417.415 C839.786,431.062 837.93,444.944 833.383,458.197 C829.479,469.574 823.179,480.137 817.31,490.744 C812.603,499.25 807.011,507.278 801.698,515.447 C797.065,522.572 792.644,529.855 787.474,536.622 C782.538,543.085 777.525,549.628 771.446,555.053 C760.009,565.257 747.856,574.712 735.176,583.286 C728.243,587.975 720.725,591.963 712.878,594.657 C699.031,599.413 684.639,601.98 670.492,605.499 C654.526,609.472 638.552,613.407 622.541,617.134 C610.341,619.974 601.112,621.77 588.732,622.895 C583.838,623.339 576.708,621.647 571.815,621.743 C563.343,621.908 556.01,624.171 547.537,624.377 C540.011,624.559 531.833,623.478 524.374,622.895 C510.057,621.775 495.612,621.727 481.262,620.864 C467.374,620.03 453.439,619.429 439.667,617.805 C417.86,615.233 396.203,611.824 374.589,608.283 C353.193,604.779 331.986,600.462 310.656,596.673 C304.292,595.543 297.826,594.84 291.507,593.529 C278.797,590.894 266.274,587.587 253.594,584.84 C239.535,581.794 224.985,580.361 211.296,576.152 C197.477,571.903 184.339,565.854 171.424,559.575 C163.582,555.764 155.969,551.356 149.186,545.962 C141.617,539.943 133.753,533.748 128.627,525.541 C122.357,515.502 118.688,503.844 115.654,492.273 C112.379,479.779 110.237,466.823 109.806,453.759 C109.347,439.85 111.871,425.828 113.002,411.864 C113.723,402.967 114.658,394.075 115.36,385.177 C115.69,380.992 115.042,376.725 116.099,372.618 C117.347,367.772 119.78,363.217 122.163,358.752 C128.978,345.979 136.232,333.418 143.661,320.964 C150.7,309.164 158.085,297.554 165.556,286.003 C170.899,277.741 175.385,268.775 182.097,261.535 C188.554,254.57 197.068,249.848 204.524,243.968 C208.166,241.097 216.04,239.685 215.391,235.279 Z" style="stroke:none;fill-rule:evenodd;fill:#000000;fill-opacity:1;"/>
        </g>
        <g id="Shape30">
            <desc shapeID="30" type="0" basicInfo-basicType="0" basicInfo-roundedRectRadius="12" basicInfo-polygonSides="6" basicInfo-starPoints="5" bounding="rect(0,0,0,0)" text="" font-familyName="Helvetica" font-pixelSize="20" font-bold="0" font-underline="0" font-alignment="1" strokeStyle="0" markerStart="0" markerEnd="0" shadowEnabled="0" shadowOffsetX="0" shadowOffsetY="2" shadowBlur="4" shadowOpacity="160" blurEnabled="0" blurRadius="4" transform="matrix(1.15059,0,-0.0675191,1.14726,61.2273,49.6653)" pers-center="0,0" pers-size="0,0" pers-start="0,0" pers-end="0,0" locked="0" mesh="" flag=""/>
            <path id="shapePath30" d="M61.2273,49.6653 Z" style="stroke:none;fill-rule:evenodd;fill:#000000;fill-opacity:1;"/>
        </g>
        <g id="Shape31">
            <desc shapeID="31" type="0" basicInfo-basicType="0" basicInfo-roundedRectRadius="12" basicInfo-polygonSides="6" basicInfo-starPoints="5" bounding="rect(-122.197,-70.2727,244.393,140.543)" text="" font-familyName="Helvetica" font-pixelSize="20" font-bold="0" font-underline="0" font-alignment="1" strokeStyle="0" markerStart="0" markerEnd="0" shadowEnabled="0" shadowOffsetX="0" shadowOffsetY="2" shadowBlur="4" shadowOpacity="160" blurEnabled="0" blurRadius="4" transform="matrix(1.15059,0,0,1.30969,224.662,600.131)" pers-center="0,0" pers-size="0,0" pers-start="0,0" pers-end="0,0" locked="0" mesh="" flag=""/>
            <path id="shapePath31" d="M87.7526,513.571 C84.896,518.852 83.7521,525.529 84.1357,531.716 C84.5861,538.979 88.3436,545.474 90.1639,552.454 C93.355,564.691 95.8998,577.14 99.1656,589.352 C100.463,594.203 101.365,599.387 103.842,603.601 C107.162,609.247 112.152,613.358 116.21,618.34 C122.291,625.804 127.05,634.909 134.257,640.937 C140.851,646.451 149.087,648.845 156.715,652.216 C163.608,655.263 170.557,658.314 177.769,660.169 C187.942,662.787 198.519,662.979 208.693,665.589 C216.441,667.576 223.635,671.858 231.368,673.917 C238.622,675.848 246.163,675.992 253.492,677.515 C262.21,679.326 270.827,681.722 279.478,683.91 C289.79,686.519 299.883,690.559 310.38,691.905 C317.717,692.845 325.124,690.939 332.503,690.705 C341.982,690.406 351.766,693.003 360.948,690.306 C363.888,689.442 365.712,684.511 365.162,681.112 C364.648,677.94 361.314,675.381 358.49,675.116 C349.354,674.259 340.252,678.491 331.099,677.914 C312.601,676.75 294.314,672.841 275.966,669.92 C264.566,668.105 253.176,666.154 241.867,663.707 C236.773,662.604 231.84,660.688 226.803,659.282 C221.187,657.714 215.57,656.14 209.911,654.784 C195.903,651.425 181.562,649.657 167.808,645.137 C158.283,642.007 148.686,638.172 140.417,631.946 C133.512,626.748 128.927,618.376 123.21,611.56 C119.12,606.684 113.945,602.717 110.997,596.869 C106.632,588.21 104.298,578.388 101.683,568.858 C99.6725,561.527 99.2059,553.719 97.1536,546.404 C95.4882,540.467 90.7289,535.501 90.578,529.272 C90.4087,522.28 97.4882,516.161 96.2552,509.309 C95.6338,505.855 89.3762,510.569 87.7526,513.571 Z" style="stroke:none;fill-rule:evenodd;fill:#000000;fill-opacity:1;"/>
        </g>
        <g id="Shape32">
            <desc shapeID="32" type="0" basicInfo-basicType="0" basicInfo-roundedRectRadius="12" basicInfo-polygonSides="6" basicInfo-starPoints="5" bounding="rect(-8.32686,-24.3177,16.6539,48.6354)" text="" font-familyName="Helvetica" font-pixelSize="20" font-bold="0" font-underline="0" font-alignment="1" strokeStyle="0" markerStart="0" markerEnd="0" shadowEnabled="0" shadowOffsetX="0" shadowOffsetY="2" shadowBlur="4" shadowOpacity="160" blurEnabled="0" blurRadius="4" transform="matrix(1.15059,0,0,1.30969,378.324,646.739)" pers-center="0,0" pers-size="0,0" pers-start="0,0" pers-end="0,0" locked="0" mesh="" flag=""/>
            <path id="shapePath32" d="M368.904,671.908 C368.155,665.737 370.204,659.513 371.432,653.443 C372.878,646.295 375.463,639.488 376.909,632.34 C377.928,627.305 376.011,621.063 378.805,616.992 C380.578,614.409 386.309,613.98 387.443,616.992 C389.228,621.734 385.327,627.029 384.494,632.1 C383.29,639.424 382.919,646.933 381.334,654.162 C379.55,662.295 379.007,671.492 374.416,678.047 C372.814,680.335 369.255,674.806 368.904,671.908 Z" style="stroke:none;fill-rule:evenodd;fill:#000000;fill-opacity:1;"/>
        </g>
        <g id="Shape33">
            <desc shapeID="33" type="0" basicInfo-basicType="0" basicInfo-roundedRectRadius="12" basicInfo-polygonSides="6" basicInfo-starPoints="5" bounding="rect(-20.5581,-28.4798,41.1161,56.9595)" text="" font-familyName="Helvetica" font-pixelSize="20" font-bold="0" font-underline="0" font-alignment="1" strokeStyle="0" markerStart="0" markerEnd="0" shadowEnabled="0" shadowOffsetX="0" shadowOffsetY="2" shadowBlur="4" shadowOpacity="160" blurEnabled="0" blurRadius="4" transform="matrix(1.15059,0,0,1.30969,408.432,654.446)" pers-center="0,0" pers-size="0,0" pers-start="0,0" pers-end="0,0" locked="0" mesh="" flag=""/>
            <path id="shapePath33" d="M387.448,679.792 C395.732,675.342 405.525,675.64 413.97,671.602 C417.37,669.976 421.444,667.287 422.193,663.177 C422.661,660.609 417.86,661.053 416.231,659.199 C414.202,656.889 413.073,653.742 411.503,651.008 C409.578,647.658 404.989,644.854 405.746,640.945 C406.48,637.156 413.115,638.594 414.586,635.095 C416.629,630.238 412.333,623.396 414.998,618.947 C416.662,616.169 422.325,616.762 423.838,619.649 C425.76,623.317 422.357,628.037 421.988,632.286 C421.67,635.936 423.132,639.956 421.782,643.285 C420.802,645.703 415.152,644.946 415.82,647.498 C416.835,651.375 421.966,651.645 424.66,654.284 C427.417,656.985 432.476,659.298 432.062,663.411 C431.485,669.136 426.493,673.36 422.399,676.75 C417.952,680.431 412.307,681.729 407.185,684.005 C401.065,686.723 395.198,690.78 388.682,691.727 C386.863,691.992 385.046,689.328 384.832,687.255 C384.557,684.595 385.321,680.935 387.448,679.792 Z" style="stroke:none;fill-rule:evenodd;fill:#000000;fill-opacity:1;"/>
        </g>
        <g id="Shape34">
            <desc shapeID="34" type="0" basicInfo-basicType="0" basicInfo-roundedRectRadius="12" basicInfo-polygonSides="6" basicInfo-starPoints="5" bounding="rect(-78.4064,-30.5057,156.813,61.0113)" text="" font-familyName="Helvetica" font-pixelSize="20" font-bold="0" font-underline="0" font-alignment="1" strokeStyle="0" markerStart="0" markerEnd="0" shadowEnabled="0" shadowOffsetX="0" shadowOffsetY="2" shadowBlur="4" shadowOpacity="160" blurEnabled="0" blurRadius="4" transform="matrix(1.15059,0,0,1.30969,827.166,680.83)" pers-center="0,0" pers-size="0,0" pers-start="0,0" pers-end="0,0" locked="0" mesh="" flag=""/>
            <path id="shapePath34" d="M737.515,670.352 C747.839,681.505 762.165,686.84 775.44,692.682 C779.425,694.435 783.304,695.727 787.42,697.031 C792.045,698.497 796.218,699.126 800.811,700.72 C808.68,703.452 817.019,703.951 825.135,705.484 C834.892,707.326 844.604,709.558 854.429,710.843 C857.549,711.25 864.707,713.61 867.738,714.546 C875.176,716.842 877.78,722.322 885.293,720.37 C891.804,718.677 893.961,708.645 897.063,701.911 C904.383,686.017 911.278,669.753 916.418,652.787 C917.503,649.202 918.241,643.4 915.371,641.474 C912.512,639.554 907.756,642.591 906.217,645.939 C899.406,660.764 897.671,678.057 891.57,693.277 C889.382,698.734 886.077,704.05 881.631,707.27 C879.539,708.785 876.643,707.596 874.307,706.646 C869.272,704.599 864.91,701.875 859.66,700.72 C854.265,699.533 848.617,699.86 843.183,698.934 C830.445,696.762 817.897,693.161 805.519,689.109 C797.536,686.496 792.074,686.91 784.081,684.34 C780.548,683.204 774.688,679.574 771.255,678.093 C763.669,674.82 757.761,666.818 749.808,664.994 C745.506,664.007 734.332,666.914 737.515,670.352 Z" style="stroke:none;fill-rule:evenodd;fill:#000000;fill-opacity:1;"/>
        </g>
        <g id="Shape35">
            <desc shapeID="35" type="0" basicInfo-basicType="0" basicInfo-roundedRectRadius="12" basicInfo-polygonSides="6" basicInfo-starPoints="5" bounding="rect(-83.134,-72.5199,166.27,145.039)" text="" font-familyName="Helvetica" font-pixelSize="20" font-bold="0" font-underline="0" font-alignment="1" strokeStyle="0" markerStart="0" markerEnd="0" shadowEnabled="0" shadowOffsetX="0" shadowOffsetY="2" shadowBlur="4" shadowOpacity="160" blurEnabled="0" blurRadius="4" transform="matrix(1.15059,0,0,1.30969,874.34,643.968)" pers-center="0,0" pers-size="0,0" pers-start="0,0" pers-end="0,0" locked="0" mesh="" flag=""/>
            <path id="shapePath35" d="M788.12,559.032 C801.574,562.539 814.482,568.365 827.56,573.387 C840.09,578.198 852.399,583.736 864.935,588.525 C874.493,592.177 884.31,594.919 893.827,598.704 C898.545,600.581 903.335,602.497 907.585,605.491 C917.234,612.287 925.992,620.601 935.33,627.937 C940.058,631.652 944.849,635.274 949.776,638.638 C953.265,641.021 958.495,641.168 960.553,645.164 C961.924,647.826 959.848,652.1 957.572,653.777 C951.481,658.263 944.235,660.537 937.164,662.39 C933.439,663.366 929.207,660.401 925.7,662.129 C923.281,663.321 920.933,667.126 921.801,669.959 C923.642,675.965 928.668,680.032 932.579,684.575 C935.621,688.11 939.143,691.072 942.58,694.102 C945.226,696.435 948.098,697.65 948.846,701.363 C949.656,705.382 949.241,709.673 946.15,711.823 C938.273,717.3 928.479,718.019 919.972,722.094 C917.326,723.362 915.606,726.553 912.931,727.738 C909.939,729.064 906.59,729.962 903.412,729.431 C900.223,728.898 897.909,724.69 894.686,724.69 C892.769,724.69 889.809,727.511 890.72,729.431 C892.868,733.961 896.912,738.659 901.429,738.912 C910.221,739.404 918.582,734.345 927.012,731.463 C934,729.073 941.355,727.337 947.637,723.11 C952.144,720.077 956.085,715.505 958.544,710.243 C960.938,705.123 964.404,698.055 961.618,693.199 C957.278,685.635 947.39,685.003 940.993,679.655 C939.239,678.188 935.971,674.695 937.721,673.221 C943.385,668.453 951.726,669.703 957.751,665.546 C961.922,662.669 965.324,657.97 967.234,652.861 C969.396,647.076 970.81,640.276 969.477,634.175 C968.866,631.379 964.737,632.139 962.442,630.925 C959.108,629.162 955.807,627.306 952.606,625.25 C940.383,617.401 928.436,609.003 916.182,601.216 C910.699,597.731 905.174,594.285 899.41,591.444 C890.983,587.29 882.377,583.586 873.67,580.261 C862.452,575.977 850.927,572.799 839.677,568.63 C831.402,565.565 823.373,561.687 815.115,558.566 C806.797,555.422 798.247,553.103 789.964,549.843 C781.043,546.331 770.73,554.498 788.12,559.032 Z" style="stroke:none;fill-rule:evenodd;fill:#000000;fill-opacity:1;"/>
        </g>
        <g id="Shape36">
            <desc shapeID="36" type="0" basicInfo-basicType="0" basicInfo-roundedRectRadius="12" basicInfo-polygonSides="6" basicInfo-starPoints="5" bounding="rect(0,0,0,0)" text="" font-familyName="Helvetica" font-pixelSize="20" font-bold="0" font-underline="0" font-alignment="1" strokeStyle="0" markerStart="0" markerEnd="0" shadowEnabled="0" shadowOffsetX="0" shadowOffsetY="2" shadowBlur="4" shadowOpacity="160" blurEnabled="0" blurRadius="4" transform="matrix(1.15059,0,-0.0675191,1.14726,61.2273,49.6653)" pers-center="0,0" pers-size="0,0" pers-start="0,0" pers-end="0,0" locked="0" mesh="" flag=""/>
            <path id="shapePath36" d="M61.2273,49.6653 Z" style="stroke:none;fill-rule:evenodd;fill:#000000;fill-opacity:1;"/>
        </g>
        <g id="Shape37">
            <desc shapeID="37" type="0" basicInfo-basicType="0" basicInfo-roundedRectRadius="12" basicInfo-polygonSides="6" basicInfo-starPoints="5" bounding="rect(-28.3471,-32.9454,56.6942,65.8909)" text="" font-familyName="Helvetica" font-pixelSize="20" font-bold="0" font-underline="0" font-alignment="1" strokeStyle="0" markerStart="0" markerEnd="0" shadowEnabled="0" shadowOffsetX="0" shadowOffsetY="2" shadowBlur="4" shadowOpacity="160" blurEnabled="0" blurRadius="4" transform="matrix(1.15059,0,-0.0675191,1.14726,282.036,162.966)" pers-center="0,0" pers-size="0,0" pers-start="0,0" pers-end="0,0" locked="0" mesh="" flag=""/>
            <path id="shapePath37" d="M253.848,200.13 C256.492,202.881 262.167,196.007 262.978,192.127 C264.307,185.761 260.034,179.745 259.435,173.383 C258.924,167.965 259.471,162.436 259.663,156.956 C259.844,151.713 259.224,146.366 260.554,141.223 C260.842,140.108 262.953,139.92 263.93,140.452 C268.863,143.137 273.124,146.863 277.44,150.416 C281.663,153.891 285.388,157.923 289.516,161.506 C291.541,163.263 293.696,164.71 294.888,167.124 C296.288,169.957 295.757,172.997 296.691,176.036 C297.644,179.139 299.433,181.941 301.429,184.458 C303.227,186.725 304.944,190.476 307.931,190.21 C310.781,189.957 313.175,186.227 313.447,183.39 C313.731,180.44 310.644,178.357 309.314,175.799 C307.509,172.326 305.778,168.813 304.043,165.302 C302.252,161.676 301.724,157.091 298.738,154.389 C290.901,147.297 280.831,142.993 272.368,136.636 C268.368,133.632 265.858,128.775 261.443,126.379 C259.2,125.162 255.317,124.385 253.588,126.445 C250.89,129.658 251.693,134.484 251.226,138.55 C250.383,145.885 249.915,153.244 249.665,160.589 C249.461,166.567 249.242,172.583 249.866,178.484 C250.641,185.809 248.845,194.925 253.848,200.13 Z" style="stroke:none;fill-rule:evenodd;fill:#000000;fill-opacity:1;"/>
        </g>
        <g id="Shape38">
            <desc shapeID="38" type="0" basicInfo-basicType="0" basicInfo-roundedRectRadius="12" basicInfo-polygonSides="6" basicInfo-starPoints="5" bounding="rect(-40.6617,-28.9925,81.3236,57.9853)" text="" font-familyName="Helvetica" font-pixelSize="20" font-bold="0" font-underline="0" font-alignment="1" strokeStyle="0" markerStart="0" markerEnd="0" shadowEnabled="0" shadowOffsetX="0" shadowOffsetY="2" shadowBlur="4" shadowOpacity="160" blurEnabled="0" blurRadius="4" transform="matrix(1.15059,0,-0.0675191,1.14726,773.277,239.585)" pers-center="0,0" pers-size="0,0" pers-start="0,0" pers-end="0,0" locked="0" mesh="" flag=""/>
            <path id="shapePath38" d="M732.363,243.888 C729.281,246.953 724.162,251.619 726.11,255.24 C727.833,258.441 733.853,254.735 737.204,252.884 C744.296,248.967 749.733,242.382 756.748,238.32 C763.406,234.466 770.665,231.774 777.899,229.324 C787.143,226.193 796.513,223.207 806.061,221.614 C807.627,221.353 810.259,222.411 810.004,223.97 C808.855,230.976 804.22,237.206 802.375,244.103 C800.345,251.699 798.428,259.49 798.437,267.234 C798.439,269.572 800.118,272.384 802.405,272.803 C804.495,273.186 807.021,270.99 807.787,268.947 C810.097,262.781 809.743,256.066 811.069,249.672 C811.745,246.416 812.833,243.236 813.784,240.033 C816.226,231.812 819.664,223.783 821.249,215.402 C821.782,212.584 822.261,208.68 820.021,207.05 C817.648,205.323 813.91,207.11 810.949,207.907 C801.12,210.552 791.567,214.313 781.826,217.33 C774.281,219.668 766.316,220.657 759.097,223.97 C755.185,225.764 752.623,229.738 749.154,232.323 C743.701,236.386 737.188,239.091 732.363,243.888 Z" style="stroke:none;fill-rule:evenodd;fill:#000000;fill-opacity:1;"/>
        </g>
        <g id="Shape39">
            <desc shapeID="39" type="0" basicInfo-basicType="0" basicInfo-roundedRectRadius="12" basicInfo-polygonSides="6" basicInfo-starPoints="5" bounding="rect(0,0,0,0)" text="" font-familyName="Helvetica" font-pixelSize="20" font-bold="0" font-underline="0" font-alignment="1" strokeStyle="0" markerStart="0" markerEnd="0" shadowEnabled="0" shadowOffsetX="0" shadowOffsetY="2" shadowBlur="4" shadowOpacity="160" blurEnabled="0" blurRadius="4" transform="matrix(1.15059,0,0,1.30969,376.854,738.945)" pers-center="0,0" pers-size="0,0" pers-start="0,0" pers-end="0,0" locked="0" mesh="" flag=""/>
            <path id="shapePath39" d="M376.854,738.945 Z" style="stroke:none;fill-rule:evenodd;fill:#000000;fill-opacity:1;"/>
        </g>
        <g id="Shape40">
            <desc shapeID="40" type="0" basicInfo-basicType="0" basicInfo-roundedRectRadius="12" basicInfo-polygonSides="6" basicInfo-starPoints="5" bounding="rect(0,0,0,0)" text="" font-familyName="Helvetica" font-pixelSize="20" font-bold="0" font-underline="0" font-alignment="1" strokeStyle="0" markerStart="0" markerEnd="0" shadowEnabled="0" shadowOffsetX="0" shadowOffsetY="2" shadowBlur="4" shadowOpacity="160" blurEnabled="0" blurRadius="4" transform="matrix(1.15059,0,0,1.30969,566.44,720.491)" pers-center="0,0" pers-size="0,0" pers-start="0,0" pers-end="0,0" locked="0" mesh="" flag=""/>
            <path id="shapePath40" d="M566.44,720.491 Z" style="stroke:none;fill-rule:evenodd;fill:#000000;fill-opacity:1;"/>
        </g>
        <g id="Shape41">
            <desc shapeID="41" type="0" basicInfo-basicType="0" basicInfo-roundedRectRadius="12" basicInfo-polygonSides="6" basicInfo-starPoints="5" bounding="rect(0,0,0,0)" text="" font-familyName="Helvetica" font-pixelSize="20" font-bold="0" font-underline="0" font-alignment="1" strokeStyle="0" markerStart="0" markerEnd="0" shadowEnabled="0" shadowOffsetX="0" shadowOffsetY="2" shadowBlur="4" shadowOpacity="160" blurEnabled="0" blurRadius="4" transform="matrix(1.15059,0,0,1.30969,588.389,740.909)" pers-center="0,0" pers-size="0,0" pers-start="0,0" pers-end="0,0" locked="0" mesh="" flag=""/>
            <path id="shapePath41" d="M588.389,740.909 Z" style="stroke:none;fill-rule:evenodd;fill:#000000;fill-opacity:1;"/>
        </g>
        <g id="Shape42">
            <desc shapeID="42" type="0" basicInfo-basicType="0" basicInfo-roundedRectRadius="12" basicInfo-polygonSides="6" basicInfo-starPoints="5" bounding="rect(-173.233,-38.4754,346.467,76.9509)" text="" font-familyName="Helvetica" font-pixelSize="20" font-bold="0" font-underline="0" font-alignment="1" strokeStyle="0" markerStart="0" markerEnd="0" shadowEnabled="0" shadowOffsetX="0" shadowOffsetY="2" shadowBlur="4" shadowOpacity="160" blurEnabled="0" blurRadius="4" transform="matrix(1.15059,0,-0.0675191,1.14726,516.927,216.932)" pers-center="0,0" pers-size="0,0" pers-start="0,0" pers-end="0,0" locked="0" mesh="" flag=""/>
            <path id="shapePath42" d="M319.383,193.792 C322.806,197.885 329.793,197.215 335.285,197.363 C341.013,197.518 346.709,195.308 352.45,194.685 C374.144,192.332 395.892,191.119 417.566,188.437 C423.982,187.644 430.186,184.361 436.609,184.272 C444.661,184.16 452.216,187.991 460.269,187.842 C468.568,187.689 476.737,183.02 484.998,183.379 C497.614,183.928 509.479,188.591 521.876,190.519 C529.901,191.768 538.322,191.078 546.203,192.899 C563.731,196.951 580.809,202.492 597.824,208.073 C614.39,213.506 631.27,218.432 646.902,225.924 C653.842,229.251 658.151,236.466 664.859,240.205 C674.658,245.666 685.916,248.363 696.015,253.295 C700.18,255.329 702.86,260.253 707.495,261.031 C709.983,261.448 712.953,258.727 713.743,256.27 C714.591,253.631 713.522,250.271 711.513,248.535 C707.686,245.229 702.354,244.057 697.559,242.287 C691.044,239.884 683.544,239.592 677.636,236.04 C666.977,229.631 659.519,220.641 648.649,214.571 C643.137,211.493 635.813,211.008 629.681,209.264 C616.606,205.543 603.921,200.746 591.048,196.47 C579.143,192.515 567.614,187.456 555.346,184.57 C544.751,182.077 533.542,182.212 522.77,180.405 C510.481,178.342 498.685,174.004 486.208,172.967 C475.835,172.104 465.237,174.691 454.773,174.751 C448.089,174.79 441.563,172.789 434.87,173.264 C426.057,173.889 417.424,176.919 408.631,178.025 C404.754,178.512 400.876,177.619 396.994,178.025 C387.536,179.011 378.146,180.963 368.702,182.189 C359.802,183.344 350.866,183.95 341.97,185.165 C337.064,185.835 332,186.055 327.321,187.842 C324.256,189.013 317.381,191.399 319.383,193.792 Z" style="stroke:none;fill-rule:evenodd;fill:#060606;fill-opacity:1;"/>
        </g>
        <g id="Shape43">
            <desc shapeID="43" type="0" basicInfo-basicType="0" basicInfo-roundedRectRadius="12" basicInfo-polygonSides="6" basicInfo-starPoints="5" bounding="rect(0,0,0,0)" text="" font-familyName="Helvetica" font-pixelSize="20" font-bold="0" font-underline="0" font-alignment="1" strokeStyle="0" markerStart="0" markerEnd="0" shadowEnabled="0" shadowOffsetX="0" shadowOffsetY="2" shadowBlur="4" shadowOpacity="160" blurEnabled="0" blurRadius="4" transform="matrix(1.15059,0,-0.0675191,1.14726,463.953,186.138)" pers-center="0,0" pers-size="0,0" pers-start="0,0" pers-end="0,0" locked="0" mesh="" flag=""/>
            <path id="shapePath43" d="M463.953,186.138 Z" style="stroke:none;fill-rule:evenodd;fill:#000000;fill-opacity:1;"/>
        </g>
        <g id="Shape44">
            <desc shapeID="44" type="0" basicInfo-basicType="0" basicInfo-roundedRectRadius="12" basicInfo-polygonSides="6" basicInfo-starPoints="5" bounding="rect(-6.44821,-19.6947,12.8967,39.3895)" text="" font-familyName="Helvetica" font-pixelSize="20" font-bold="0" font-underline="0" font-alignment="1" strokeStyle="0" markerStart="0" markerEnd="0" shadowEnabled="0" shadowOffsetX="0" shadowOffsetY="2" shadowBlur="4" shadowOpacity="160" blurEnabled="0" blurRadius="4" transform="matrix(1.15059,0,-0.0675191,1.14726,458.496,207.921)" pers-center="0,0" pers-size="0,0" pers-start="0,0" pers-end="0,0" locked="0" mesh="" flag=""/>
            <path id="shapePath44" d="M462.751,185.392 C458.594,186.388 458.175,192.796 456.72,196.822 C455.317,200.708 455.285,204.89 454.267,208.872 C453.124,213.347 450.349,217.608 450.246,222.165 C450.182,224.943 451.809,227.667 453.801,229.495 C454.962,230.56 457.375,230.961 458.639,229.867 C459.777,228.883 458.529,226.962 458.396,225.519 C458.25,223.937 457.333,222.354 457.801,220.798 C459.346,215.678 462.585,211.097 464.278,206.015 C465.528,202.265 466.863,198.317 466.578,194.461 C466.332,191.138 466.065,184.6 462.751,185.392 Z" style="stroke:none;fill-rule:evenodd;fill:#000000;fill-opacity:1;"/>
        </g>
        <g id="Shape45">
            <desc shapeID="45" type="0" basicInfo-basicType="0" basicInfo-roundedRectRadius="12" basicInfo-polygonSides="6" basicInfo-starPoints="5" bounding="rect(-5.85533,-18.9371,11.7107,37.8741)" text="" font-familyName="Helvetica" font-pixelSize="20" font-bold="0" font-underline="0" font-alignment="1" strokeStyle="0" markerStart="0" markerEnd="0" shadowEnabled="0" shadowOffsetX="0" shadowOffsetY="2" shadowBlur="4" shadowOpacity="160" blurEnabled="0" blurRadius="4" transform="matrix(1.15059,0,-0.0675191,1.14726,490.128,212.2)" pers-center="0,0" pers-size="0,0" pers-start="0,0" pers-end="0,0" locked="0" mesh="" flag=""/>
            <path id="shapePath45" d="M491.921,191.48 C488.854,196.342 487.969,202.182 486.36,207.63 C484.958,212.381 482.662,217.187 482.896,222.041 C483.094,226.148 484.82,230.318 487.595,233.222 C488.825,234.508 491.59,233.846 493.106,232.725 C494.286,231.852 494.231,229.885 493.978,228.501 C493.604,226.448 491.634,224.977 491.317,222.91 C490.863,219.953 490.9,216.794 491.726,213.841 C492.883,209.703 496.253,206.226 497.155,202.039 C497.91,198.539 498.085,194.581 496.548,191.48 C495.881,190.134 492.763,190.145 491.921,191.48 Z" style="stroke:none;fill-rule:evenodd;fill:#000000;fill-opacity:1;"/>
        </g>
        <g id="Shape46">
            <desc shapeID="46" type="0" basicInfo-basicType="0" basicInfo-roundedRectRadius="12" basicInfo-polygonSides="6" basicInfo-starPoints="5" bounding="rect(-5.00111,-16.3115,10.0021,32.6229)" text="" font-familyName="Helvetica" font-pixelSize="20" font-bold="0" font-underline="0" font-alignment="1" strokeStyle="0" markerStart="0" markerEnd="0" shadowEnabled="0" shadowOffsetX="0" shadowOffsetY="2" shadowBlur="4" shadowOpacity="160" blurEnabled="0" blurRadius="4" transform="matrix(1.15059,0,-0.0675191,1.14726,526.405,218.001)" pers-center="0,0" pers-size="0,0" pers-start="0,0" pers-end="0,0" locked="0" mesh="" flag=""/>
            <path id="shapePath46" d="M523.87,200.634 C522.396,204.319 524.671,208.368 524.3,212.257 C523.826,217.213 522.24,222.067 521.353,226.991 C520.804,230.04 519.001,233.326 519.997,236.171 C520.455,237.48 523.293,236.161 524.15,234.987 C527.338,230.613 529.682,225.619 531.385,220.549 C532.401,217.528 532.505,214.237 532.161,211.146 C531.739,207.351 531.44,203.138 529.121,200.197 C528.071,198.866 524.529,198.983 523.87,200.634 Z" style="stroke:none;fill-rule:evenodd;fill:#000000;fill-opacity:1;"/>
        </g>
    </g>
    <g id="Layer6" name="old_text" opacity="1">
        <g id="Shape47">
            <desc shapeID="47" type="0" basicInfo-basicType="0" basicInfo-roundedRectRadius="12" basicInfo-polygonSides="6" basicInfo-starPoints="5" bounding="rect(-3.69538,-15.4591,7.39087,30.9184)" text="" font-familyName="" font-pixelSize="20" font-bold="0" font-underline="0" font-alignment="1" strokeStyle="0" markerStart="0" markerEnd="0" shadowEnabled="0" shadowOffsetX="0" shadowOffsetY="2" shadowBlur="4" shadowOpacity="160" blurEnabled="0" blurRadius="4" transform="matrix(1.96801,0.122424,-0.122424,1.96801,704.338,791.557)" pers-center="0,0" pers-size="0,0" pers-start="0,0" pers-end="0,0" locked="0" mesh="" flag=""/>
            <path id="shapePath47" d="M700.444,763.094 C697.173,768.028 696.518,797.621 699.635,817.374 C700.289,822.749 704.385,823.596 708.406,819.302 C710.521,817.063 710.643,815.095 709.178,810.065 C708.217,806.449 707.365,794.74 707.251,783.867 C707.334,773.006 706.938,763.498 706.409,762.478 C705.166,760.227 702.374,760.646 700.444,763.094 Z" style="stroke:none;fill-rule:nonzero;fill:#000000;fill-opacity:1;"/>
        </g>
        <g id="Shape48">
            <desc shapeID="48" type="0" basicInfo-basicType="0" basicInfo-roundedRectRadius="12" basicInfo-polygonSides="6" basicInfo-starPoints="5" bounding="rect(-9.68788,-19.8323,19.3758,39.6645)" text="" font-familyName="" font-pixelSize="20" font-bold="0" font-underline="0" font-alignment="1" strokeStyle="0" markerStart="0" markerEnd="0" shadowEnabled="0" shadowOffsetX="0" shadowOffsetY="2" shadowBlur="4" shadowOpacity="160" blurEnabled="0" blurRadius="4" transform="matrix(1.96801,0.122424,-0.122424,1.96801,640.177,798.472)" pers-center="0,0" pers-size="0,0" pers-start="0,0" pers-end="0,0" locked="0" mesh="" flag=""/>
            <path id="shapePath48" d="M627.689,760.742 C626.988,762.476 626.854,764.641 627.383,765.662 C627.9,766.879 627.027,768.208 625.219,768.688 C622.599,769.513 622.145,773.633 621.575,798.688 C620.907,828.479 622.521,837.469 627.896,836.816 C631.29,836.237 632.1,829.57 631.271,811.145 C630.739,800.641 631.784,799.718 642.312,798.793 C648.474,798.189 649.95,796.7 655.703,786.785 C660.375,778.382 661.604,774.507 660.361,772.257 C657.518,767.141 648.365,761.83 638.414,759.828 C631.009,758.182 628.82,758.441 627.689,760.742 M646.45,773.565 C653.499,777.757 647.942,787.685 637.377,789.2 C630.982,790.383 630.994,790.187 631.471,782.511 C631.741,778.182 631.456,773.225 630.976,771.417 C630.151,768.797 631.16,768.465 636.412,769.78 C640.102,770.799 644.543,772.458 646.45,773.565 Z" style="stroke:none;fill-rule:nonzero;fill:#000000;fill-opacity:1;"/>
        </g>
        <g id="Shape49">
            <desc shapeID="49" type="0" basicInfo-basicType="0" basicInfo-roundedRectRadius="12" basicInfo-polygonSides="6" basicInfo-starPoints="5" bounding="rect(-12.4269,-16.7899,24.8537,33.5796)" text="" font-familyName="" font-pixelSize="20" font-bold="0" font-underline="0" font-alignment="1" strokeStyle="0" markerStart="0" markerEnd="0" shadowEnabled="0" shadowOffsetX="0" shadowOffsetY="2" shadowBlur="4" shadowOpacity="160" blurEnabled="0" blurRadius="4" transform="matrix(1.96801,0.122424,-0.122424,1.96801,765.193,806.052)" pers-center="0,0" pers-size="0,0" pers-start="0,0" pers-end="0,0" locked="0" mesh="" flag=""/>
            <path id="shapePath49" d="M764.307,774.97 C758.896,776.214 756.19,778.416 753.056,784.346 C746.147,796.955 740.37,810.425 740.1,814.755 C739.635,822.233 750.905,831.627 765.998,836.714 C781.485,841.827 786.454,841.346 785.874,834.79 C785.701,831.223 783.609,829.907 774.876,827.388 C757.987,822.584 752.057,819.45 751.564,814.677 C751.083,809.708 755.679,796.165 759.589,790.481 C764.125,784.244 773.448,780.477 780.25,782.283 C787.643,784.126 792.525,781.862 791.22,777.434 C790.063,773.806 776.114,772.543 764.307,774.97 Z" style="stroke:none;fill-rule:nonzero;fill:#000000;fill-opacity:1;"/>
        </g>
        <g id="Shape50">
            <desc shapeID="50" type="0" basicInfo-basicType="0" basicInfo-roundedRectRadius="12" basicInfo-polygonSides="6" basicInfo-starPoints="5" bounding="rect(-16.7664,-19.0565,33.5329,38.113)" text="" font-familyName="" font-pixelSize="20" font-bold="0" font-underline="0" font-alignment="1" strokeStyle="0" markerStart="0" markerEnd="0" shadowEnabled="0" shadowOffsetX="0" shadowOffsetY="2" shadowBlur="4" shadowOpacity="160" blurEnabled="0" blurRadius="4" transform="matrix(1.96801,0.122424,-0.122424,1.96801,538.91,797.35)" pers-center="0,0" pers-size="0,0" pers-start="0,0" pers-end="0,0" locked="0" mesh="" flag=""/>
            <path id="shapePath50" d="M563.695,765.212 C562.97,767.34 561.285,769.013 560.104,768.94 C558.727,768.854 556.439,770.688 554.915,772.963 C553.378,775.436 550.009,778.783 547.131,780.579 C541.364,784.369 538.485,783.005 524.853,770.303 C517.385,763.319 515.466,762.41 511.814,763.96 C509.576,765.007 507.694,766.667 507.645,767.454 C507.498,769.816 525.892,788.543 528.45,788.703 C529.434,788.764 529.57,789.76 528.906,790.904 C528.058,791.839 528.686,794.446 530.15,796.316 C533.066,800.251 536.244,815.858 535.73,824.124 C535.203,832.586 542.708,838.98 545.671,832.645 C546.814,830.147 544.271,797.984 542.794,796.312 C542.425,795.894 549.582,788.832 558.767,780.908 C567.768,772.775 574.752,765.307 574.039,764.078 C572.106,760.203 564.936,761.14 563.695,765.212 Z" style="stroke:none;fill-rule:nonzero;fill:#000000;fill-opacity:1;"/>
        </g>
        <g id="Shape51">
            <desc shapeID="51" type="0" basicInfo-basicType="0" basicInfo-roundedRectRadius="12" basicInfo-polygonSides="6" basicInfo-starPoints="5" bounding="rect(-18.3875,-27.0012,36.7749,54.0025)" text="" font-familyName="" font-pixelSize="20" font-bold="0" font-underline="0" font-alignment="1" strokeStyle="0" markerStart="0" markerEnd="0" shadowEnabled="0" shadowOffsetX="0" shadowOffsetY="2" shadowBlur="4" shadowOpacity="160" blurEnabled="0" blurRadius="4" transform="matrix(1.96801,0.122424,-0.122424,1.96801,378.075,806.789)" pers-center="0,0" pers-size="0,0" pers-start="0,0" pers-end="0,0" locked="0" mesh="" flag=""/>
            <path id="shapePath51" d="M367.338,755.368 C366.367,758.271 350.255,801.325 346.727,810.391 C342.733,820.613 341.873,824.906 339.995,839.211 C338.118,853.517 339.534,859.334 344.379,857.66 C346.593,857.007 348.092,851.964 349.663,839.418 C351.872,822.96 355.657,809.761 358.424,809.736 C359.224,809.588 366.53,809.647 375.029,809.583 L390.047,809.529 L395.597,818.765 C398.649,823.697 401.049,829.575 400.914,831.74 C400.767,834.102 402.416,836.18 404.938,836.929 C416.55,840.812 415.145,831.637 400.562,805.64 C393.609,793.551 386.878,781.081 385.475,778.228 C383.887,775.166 382.152,771.304 381.266,769.668 C380.183,768.02 378.484,763.568 377.327,759.94 C375.16,753.484 369.022,750.533 367.338,755.368 M374.861,780.531 C376.239,783.778 378.701,788.672 380.485,791.747 C383.328,796.863 383.315,797.06 379.908,797.835 C372.308,799.338 361.52,798.074 361.655,795.909 C361.888,792.17 369.681,774.875 371.255,774.973 C371.845,775.009 373.667,777.493 374.861,780.531 Z" style="stroke:none;fill-rule:nonzero;fill:#000000;fill-opacity:1;"/>
        </g>
        <g id="Shape52">
            <desc shapeID="52" type="0" basicInfo-basicType="0" basicInfo-roundedRectRadius="12" basicInfo-polygonSides="6" basicInfo-starPoints="5" bounding="rect(-15.2548,-17.299,30.5096,34.5982)" text="" font-familyName="" font-pixelSize="20" font-bold="0" font-underline="0" font-alignment="1" strokeStyle="0" markerStart="0" markerEnd="0" shadowEnabled="0" shadowOffsetX="0" shadowOffsetY="2" shadowBlur="4" shadowOpacity="160" blurEnabled="0" blurRadius="4" transform="matrix(1.96801,0.122424,-0.122424,1.96801,461.769,798.163)" pers-center="0,0" pers-size="0,0" pers-start="0,0" pers-end="0,0" locked="0" mesh="" flag=""/>
            <path id="shapePath52" d="M435.974,763.588 C433.33,764.806 433.06,765.975 434.439,769.222 C436.014,772.481 438.339,773.218 448.179,773.83 L460.184,774.577 L458.414,780.789 C457.407,784.282 454.113,792.77 450.941,799.29 C447.758,806.007 444.636,814.9 443.801,818.799 C442.388,825.626 442.733,826.438 448.293,829.155 C455.773,832.781 482.931,834.471 487.075,831.37 C488.723,830.287 490.075,827.605 490.198,825.637 C490.406,822.291 489.237,822.021 476.187,822.197 C468.279,822.298 459.828,821.575 457.725,820.456 L453.493,818.612 L458.225,806.065 C460.83,799.115 465.476,787.946 468.66,781.229 C472.102,773.541 473.613,768.3 472.506,767.046 C470.291,764.538 440.045,761.668 435.974,763.588 Z" style="stroke:none;fill-rule:nonzero;fill:#000000;fill-opacity:1;"/>
        </g>
        <g id="Shape53">
            <desc shapeID="53" type="0" basicInfo-basicType="0" basicInfo-roundedRectRadius="12" basicInfo-polygonSides="6" basicInfo-starPoints="5" bounding="rect(-18.9859,-21.059,37.9719,42.1179)" text="" font-familyName="" font-pixelSize="20" font-bold="0" font-underline="0" font-alignment="1" strokeStyle="0" markerStart="0" markerEnd="0" shadowEnabled="0" shadowOffsetX="0" shadowOffsetY="2" shadowBlur="4" shadowOpacity="160" blurEnabled="0" blurRadius="4" transform="matrix(1.96801,0.122424,-0.122424,1.96801,272.072,806.544)" pers-center="0,0" pers-size="0,0" pers-start="0,0" pers-end="0,0" locked="0" mesh="" flag=""/>
            <path id="shapePath53" d="M238.144,764.716 C236.202,767.361 234.626,805.392 236.081,816.942 C237.252,826.695 238.717,831.725 243.406,842.093 C246.003,847.983 249.546,848.204 269.987,843.548 C277.194,842.021 284.979,840.727 286.947,840.85 C299.346,841.621 310.832,834.828 307.46,828.692 C306.931,827.671 297.202,828.449 286.022,830.321 C274.645,832.182 262.284,833.982 258.312,834.327 L250.957,835.055 L247.337,823.371 C244.542,814.307 243.851,806.361 244.289,789.794 C244.839,777.776 245.119,766.928 245.204,765.55 C245.179,762.783 240.087,762.071 238.144,764.716 Z" style="stroke:none;fill-rule:nonzero;fill:#000000;fill-opacity:1;"/>
        </g>
    </g>
    <g id="Layer7" name="guide_line" visibility="hidden" opacity="1">
        <g id="Shape54">
            <desc shapeID="54" type="0" basicInfo-basicType="4" basicInfo-roundedRectRadius="12" basicInfo-polygonSides="6" basicInfo-starPoints="5" bounding="rect(-496.658,-496.658,993.317,993.316)" text="" font-familyName="Helvetica" font-pixelSize="20" font-bold="0" font-underline="0" font-alignment="1" strokeStyle="0" markerStart="0" markerEnd="0" shadowEnabled="0" shadowOffsetX="0" shadowOffsetY="2" shadowBlur="4" shadowOpacity="160" blurEnabled="0" blurRadius="4" transform="matrix(1.03089,0,0,1.03089,511.999,512)" pers-center="0,0" pers-size="0,0" pers-start="0,0" pers-end="0,0" locked="0" mesh="" flag=""/>
            <path id="shapePath54" d="M-0.000152588,512 C9.15527e-05,229.23 229.23,-0.00012207 512,0 C794.77,0 1024,229.23 1024,512 C1024,794.77 794.77,1024 512,1024 C229.23,1024 -0.000152588,794.77 -0.000152588,512 Z" style="stroke:#323232;stroke-opacity:1;stroke-width:1;stroke-linejoin:miter;stroke-miterlimit:2;stroke-linecap:round;fill:none;"/>
        </g>
        <g id="Shape55">
            <desc shapeID="55" type="0" basicInfo-basicType="2" basicInfo-roundedRectRadius="150" basicInfo-polygonSides="6" basicInfo-starPoints="5" bounding="rect(-512.206,-512.213,1024.42,1024.41)" text="" font-familyName="Helvetica" font-pixelSize="20" font-bold="0" font-underline="0" font-alignment="1" strokeStyle="0" markerStart="0" markerEnd="0" shadowEnabled="0" shadowOffsetX="0" shadowOffsetY="2" shadowBlur="4" shadowOpacity="160" blurEnabled="0" blurRadius="4" transform="matrix(1,0,0,1,513.12,511.299)" pers-center="0,0" pers-size="0,0" pers-start="0,0" pers-end="0,0" locked="0" mesh="" flag=""/>
            <path id="shapePath55" d="M0.914673,149.085 C0.914673,66.2426 68.072,-0.914551 150.915,-0.914551 L875.329,-0.914551 C958.171,-0.914551 1025.33,66.2426 1025.33,149.085 L1025.33,873.499 C1025.33,956.342 958.171,1023.5 875.329,1023.5 L150.915,1023.5 C68.072,1023.5 0.914673,956.342 0.914673,873.499 L0.914673,149.085 Z" style="stroke:#323232;stroke-opacity:1;stroke-width:1;stroke-linejoin:miter;stroke-miterlimit:2;stroke-linecap:round;fill:none;"/>
        </g>
    </g>
</svg>
