<?xml version="1.0"?>
<svg version="1.1" xmlns="http://www.w3.org/2000/svg" xmlns:xlink="http://www.w3.org/1999/xlink" width="180" height="180">
    <desc iVinci="yes" version="4.6" gridStep="20" showGrid="no" snapToGrid="no" codePlatform="0"/>
    <g id="Layer1" name="Layer 7" opacity="1">
        <g id="Shape1">
            <desc shapeID="1" type="0" basicInfo-basicType="0" basicInfo-roundedRectRadius="12" basicInfo-polygonSides="6" basicInfo-starPoints="5" bounding="rect(-148.48,-89.9896,296.96,179.979)" text="" font-familyName="Helvetica" font-pixelSize="20" font-bold="0" font-underline="0" font-alignment="1" strokeStyle="0" markerStart="0" markerEnd="0" shadowEnabled="0" shadowOffsetX="0" shadowOffsetY="2" shadowBlur="4" shadowOpacity="160" blurEnabled="0" blurRadius="4" transform="matrix(0.175588,0,0,0.175588,41.2491,104.329)" pers-center="0,0" pers-size="0,0" pers-start="0,0" pers-end="0,0" locked="0" mesh="" flag=""/>
            <path id="shapePath1" d="M16.2663,90.1288 C16.2663,90.1288 19.5234,88.5283 19.5234,88.5283 C19.5234,88.5283 22.425,94.2593 22.425,94.2593 C22.425,94.2593 29.1749,99.6146 29.1749,99.6146 C29.1749,99.6146 46.0218,104.077 46.0218,104.077 C46.0218,104.077 67.3205,108.466 67.3205,108.466 C67.3205,108.466 65.793,118.464 65.793,118.464 C65.793,118.464 63.5711,120.131 63.5711,120.131 C63.5711,120.131 54.198,120.131 54.198,120.131 C54.198,120.131 40.1729,117.492 40.1729,117.492 C40.1729,117.492 33.9241,115.756 33.9241,115.756 C33.9241,115.756 23.9954,112.285 23.9954,112.285 C23.9954,112.285 20.0378,107.216 20.0378,107.216 C20.0378,107.216 18.6493,105.134 18.6493,105.134 C18.6493,105.134 16.5663,96.2463 16.5663,96.2463 C16.5663,96.2463 15.1777,93.2607 15.1777,93.2607 C15.1777,93.2607 16.2663,90.1288 16.2663,90.1288 Z" style="stroke:none;fill-rule:evenodd;fill:#fbbbb8;fill-opacity:1;"/>
        </g>
        <g id="Shape2">
            <desc shapeID="2" type="0" basicInfo-basicType="0" basicInfo-roundedRectRadius="12" basicInfo-polygonSides="6" basicInfo-starPoints="5" bounding="rect(-176.775,-90.903,353.55,181.808)" text="" font-familyName="Helvetica" font-pixelSize="20" font-bold="0" font-underline="0" font-alignment="1" strokeStyle="0" markerStart="0" markerEnd="0" shadowEnabled="0" shadowOffsetX="0" shadowOffsetY="2" shadowBlur="4" shadowOpacity="160" blurEnabled="0" blurRadius="4" transform="matrix(0.175588,0,0,0.175588,132.421,110.041)" pers-center="0,0" pers-size="0,0" pers-start="0,0" pers-end="0,0" locked="0" mesh="" flag=""/>
            <path id="shapePath2" d="M127.467,94.2551 C128.727,93.6254 130.223,94.8549 131.565,95.2796 C135.721,96.5944 139.836,98.0369 143.952,99.4706 C148.839,101.173 153.88,102.508 158.574,104.686 C160.439,105.552 163.006,106.49 163.417,108.505 C163.823,110.493 161.288,111.971 160.437,113.813 C158.645,117.692 158.521,122.62 155.501,125.641 C154.209,126.932 152.064,124.378 150.285,123.965 C145.908,122.948 141.37,122.628 137.06,121.357 C134.583,120.626 132.496,118.905 130.075,118.004 C124.287,115.85 118.134,114.685 112.478,112.206 C108.616,110.514 99.5548,109.198 101.708,105.572 C104.675,100.574 113.391,104.044 118.713,101.706 C122.221,100.164 124.04,95.9688 127.467,94.2551 Z" style="stroke:none;fill-rule:evenodd;fill:#fbbbb8;fill-opacity:1;"/>
        </g>
    </g>
    <g id="Layer2" name="skin" opacity="1">
        <g id="Shape3">
            <desc shapeID="3" type="0" basicInfo-basicType="0" basicInfo-roundedRectRadius="12" basicInfo-polygonSides="6" basicInfo-starPoints="5" bounding="rect(-374.511,-249.633,749.021,499.266)" text="" font-familyName="Helvetica" font-pixelSize="20" font-bold="0" font-underline="0" font-alignment="1" strokeStyle="0" markerStart="0" markerEnd="0" shadowEnabled="0" shadowOffsetX="0" shadowOffsetY="2" shadowBlur="4" shadowOpacity="160" blurEnabled="0" blurRadius="4" transform="matrix(0.175588,0,0,0.175588,84.4636,67.1112)" pers-center="0,0" pers-size="0,0" pers-start="0,0" pers-end="0,0" locked="0" mesh="" flag=""/>
            <path id="shapePath3" d="M19.0091,86.905 C18.2761,84.0952 19.0844,81.0979 19.153,78.1951 C19.2524,73.9955 18.4942,69.6734 19.513,65.5982 C20.4164,61.9846 22.8697,58.9415 24.7677,55.7366 C26.8803,52.169 28.7386,48.3616 31.534,45.2991 C33.1153,43.5669 35.5005,42.7842 37.5805,41.7001 C39.4665,40.7171 41.5121,40.0668 43.4109,39.1088 C44.1359,38.743 45.288,38.5411 45.4265,37.7411 C45.7766,35.7176 44.7484,33.6757 44.7066,31.6225 C44.652,28.932 43.9865,25.9927 45.1385,23.5606 C45.5756,22.638 47.0913,24.2261 47.9459,24.7843 C49.4612,25.7739 51.0638,26.753 52.1928,28.1675 C53.3043,29.5597 53.4133,31.5755 54.4962,32.9902 C54.9791,33.6211 55.8623,34.0362 56.6557,33.9981 C63.45,33.6713 70.1725,32.4297 76.9547,31.9105 C79.8977,31.6852 82.8671,31.5214 85.8085,31.7665 C89.2285,32.0515 92.6277,32.6659 95.9581,33.4941 C101.712,34.925 107.505,36.3492 113.018,38.5328 C114.981,39.3105 116.28,41.2544 118.129,42.276 C120.172,43.4056 122.317,44.4844 124.607,44.9393 C125.938,45.2038 127.426,44.9752 128.638,44.3634 C130.617,43.3643 131.861,41.1907 133.874,40.2611 C136.811,38.9049 140.05,36.969 143.217,37.6319 C144.681,37.9383 142.562,40.5517 142.294,42.0235 C141.955,43.8814 140.913,45.7929 141.398,47.6179 C142.179,50.5494 144.2,53.0136 145.889,55.5335 C146.7,56.7427 148.35,57.3749 148.854,58.7408 C149.839,61.4123 150.382,64.3385 150.182,67.1788 C149.839,72.0735 149.001,77.0204 147.25,81.6043 C145.701,85.6595 142.995,89.1962 140.433,92.7008 C138.169,95.799 135.994,99.1774 132.824,101.34 C128.505,104.287 123.419,105.971 118.478,107.681 C115.736,108.63 112.778,108.776 109.918,109.266 C106.463,109.859 103.04,110.879 99.5346,110.931 C92.3645,111.038 85.189,110.467 78.0549,109.742 C71.9096,109.118 65.8309,107.947 59.7456,106.889 C54.4416,105.966 49.1737,104.847 43.8933,103.797 C40.9304,103.209 37.8132,103.115 35.016,101.974 C30.9954,100.335 26.8433,98.5305 23.6818,95.5543 C21.2959,93.308 19.8363,90.0757 19.0091,86.905 Z" style="stroke:none;fill-rule:evenodd;fill:#fff9ed;fill-opacity:1;"/>
        </g>
        <g id="Shape4">
            <desc shapeID="4" type="0" basicInfo-basicType="0" basicInfo-roundedRectRadius="12" basicInfo-polygonSides="6" basicInfo-starPoints="5" bounding="rect(-28.2505,-36.7768,56.501,73.5535)" text="" font-familyName="Helvetica" font-pixelSize="20" font-bold="0" font-underline="0" font-alignment="1" strokeStyle="0" markerStart="0" markerEnd="0" shadowEnabled="0" shadowOffsetX="0" shadowOffsetY="2" shadowBlur="4" shadowOpacity="160" blurEnabled="0" blurRadius="4" transform="matrix(0.175588,0,0,0.175588,70.3416,114.301)" pers-center="0,0" pers-size="0,0" pers-start="0,0" pers-end="0,0" locked="0" mesh="" flag=""/>
            <path id="shapePath4" d="M68.3754,120.759 C68.3754,120.759 65.3811,118.125 65.3811,118.125 C65.3811,118.125 67.6179,107.808 67.6899,107.844 C67.7621,107.88 74.1115,108.89 74.1115,108.89 C74.1115,108.89 73.5342,112.642 73.5342,112.642 C73.5342,112.642 72.019,113.003 72.019,113.003 C72.019,113.003 73.2817,115.384 73.2817,115.384 C73.2817,115.384 75.302,116.682 75.302,116.682 C75.302,116.682 68.3754,120.759 68.3754,120.759 Z" style="stroke:none;fill-rule:evenodd;fill:#fcf6e5;fill-opacity:1;"/>
        </g>
        <g id="Shape5">
            <desc shapeID="5" type="0" basicInfo-basicType="0" basicInfo-roundedRectRadius="12" basicInfo-polygonSides="6" basicInfo-starPoints="5" bounding="rect(-39.4045,-59.4424,78.809,118.885)" text="" font-familyName="Helvetica" font-pixelSize="20" font-bold="0" font-underline="0" font-alignment="1" strokeStyle="0" markerStart="0" markerEnd="0" shadowEnabled="0" shadowOffsetX="0" shadowOffsetY="2" shadowBlur="4" shadowOpacity="160" blurEnabled="0" blurRadius="4" transform="matrix(0.175588,0,0,0.175588,162.684,118.91)" pers-center="0,0" pers-size="0,0" pers-start="0,0" pers-end="0,0" locked="0" mesh="" flag=""/>
            <path id="shapePath5" d="M155.765,125.259 C155.765,125.259 160.522,113.19 160.522,113.19 C160.522,113.19 163.116,108.473 163.116,108.473 C163.116,108.473 169.603,112.522 169.603,112.522 C169.603,112.522 168.581,115.745 168.581,115.745 C168.581,115.745 163.627,117.672 163.627,117.672 C163.627,117.672 164.453,120.463 164.453,120.463 C164.453,120.463 168.188,123.018 168.188,123.018 C168.188,123.018 165.908,126.792 165.908,126.792 C165.908,126.792 158.831,129.347 158.831,129.347 C158.831,129.347 156.944,128.09 156.944,128.09 C156.944,128.09 155.765,125.259 155.765,125.259 Z" style="stroke:none;fill-rule:evenodd;fill:#fcf6e5;fill-opacity:1;"/>
        </g>
    </g>
    <g id="Layer3" name="Layer 5" opacity="1">
        <g id="Shape6">
            <desc shapeID="6" type="0" basicInfo-basicType="0" basicInfo-roundedRectRadius="12" basicInfo-polygonSides="6" basicInfo-starPoints="5" bounding="rect(-118.137,-92.2041,236.276,184.408)" text="" font-familyName="Helvetica" font-pixelSize="20" font-bold="0" font-underline="0" font-alignment="1" strokeStyle="0" markerStart="0" markerEnd="0" shadowEnabled="0" shadowOffsetX="0" shadowOffsetY="2" shadowBlur="4" shadowOpacity="160" blurEnabled="0" blurRadius="4" transform="matrix(0.175588,0,0,0.175588,84.1457,72.7495)" pers-center="0,0" pers-size="0,0" pers-start="0,0" pers-end="0,0" locked="0" mesh="" flag=""/>
            <path id="shapePath6" d="M67.0678,59.9408 C68.4456,58.1709 70.643,56.5824 72.8859,56.5601 C76.4082,56.5253 79.6965,58.4325 82.9496,59.7837 C83.8512,60.1582 84.2748,61.3311 85.1903,61.6706 C87.3906,62.4862 90.0146,62.0319 92.0697,63.1645 C92.9084,63.6266 93.0254,64.9674 92.8953,65.9161 C92.6919,67.3993 91.0335,68.5498 91.1262,70.0438 C91.2723,72.3981 92.1646,74.7881 93.5636,76.6874 C94.3244,77.7204 96.0195,77.5042 97.114,78.1736 C97.9324,78.6744 98.3699,79.6851 99.213,80.1432 C99.9724,80.5558 101.191,80.0301 101.747,80.6915 C103.236,82.462 104.529,84.5971 104.882,86.8836 C105,87.648 103.642,87.898 102.887,88.0676 C102.259,88.2088 101.613,87.6466 100.98,87.7607 C100.012,87.9349 99.2054,89.1719 98.2609,88.9008 C95.8186,88.1997 93.7823,86.4849 91.6614,85.0858 C89.9226,83.9387 88.5876,82.1716 86.7058,81.278 C84.7257,80.3379 82.5069,79.8738 80.3217,79.7017 C77.7509,79.4993 75.1707,80.3646 72.5994,80.1674 C71.0349,80.0473 69.4597,79.5581 68.1059,78.7646 C66.3763,77.7509 63.966,76.8133 63.5357,74.8553 C62.9055,71.9881 64.6763,69.0946 65.3526,66.2381 C65.8541,64.1212 65.7316,61.6577 67.0678,59.9408 Z" style="stroke:none;fill-rule:evenodd;fill:#ffffff;fill-opacity:1;"/>
        </g>
    </g>
    <g id="Layer4" name="Layer 6" opacity="1">
        <g id="Shape7">
            <desc shapeID="7" type="0" basicInfo-basicType="0" basicInfo-roundedRectRadius="12" basicInfo-polygonSides="6" basicInfo-starPoints="5" bounding="rect(-54.6373,-29.1184,109.275,58.2369)" text="" font-familyName="Helvetica" font-pixelSize="20" font-bold="0" font-underline="0" font-alignment="1" strokeStyle="0" markerStart="0" markerEnd="0" shadowEnabled="0" shadowOffsetX="0" shadowOffsetY="2" shadowBlur="4" shadowOpacity="160" blurEnabled="0" blurRadius="4" transform="matrix(0.123447,0,0,0.123447,57.5588,51.1249)" pers-center="0,0" pers-size="0,0" pers-start="0,0" pers-end="0,0" locked="0" mesh="" flag=""/>
            <path id="shapePath7" d="M52.0768,52.7988 C51.2482,51.9702 50.2921,50.2035 51.1518,49.4073 C52.7921,47.8885 55.4333,47.2285 57.6266,47.6602 C60.1997,48.1666 62.9899,49.6523 64.2041,51.9767 C64.8115,53.1393 62.4934,54.2169 61.2237,54.5461 C59.4943,54.9944 57.6345,54.4703 55.8795,54.1349 C54.5598,53.8829 53.0269,53.7489 52.0768,52.7988 Z" style="stroke:none;fill-rule:evenodd;fill:#fbbbb8;fill-opacity:1;"/>
        </g>
        <g id="Shape8">
            <desc shapeID="8" type="0" basicInfo-basicType="0" basicInfo-roundedRectRadius="12" basicInfo-polygonSides="6" basicInfo-starPoints="5" bounding="rect(-35.9706,-18.6382,71.941,37.2765)" text="" font-familyName="Helvetica" font-pixelSize="20" font-bold="0" font-underline="0" font-alignment="1" strokeStyle="0" markerStart="0" markerEnd="0" shadowEnabled="0" shadowOffsetX="0" shadowOffsetY="2" shadowBlur="4" shadowOpacity="160" blurEnabled="0" blurRadius="4" transform="matrix(0.175588,0,0,0.175588,105.698,61.358)" pers-center="0,0" pers-size="0,0" pers-start="0,0" pers-end="0,0" locked="0" mesh="" flag=""/>
            <path id="shapePath8" d="M99.459,60.1333 C100.092,58.9301 101.628,58.0441 102.987,58.0868 C105.672,58.1713 108.406,59.056 110.679,60.486 C111.605,61.0683 112.474,62.7831 111.738,63.591 C110.656,64.7769 108.6,64.7253 107.01,64.5082 C104.833,64.2115 102.771,63.2106 100.87,62.1092 C100.17,61.7034 99.0821,60.8495 99.459,60.1333 Z" style="stroke:none;fill-rule:evenodd;fill:#fbbbb8;fill-opacity:1;"/>
        </g>
    </g>
    <g id="Layer5" name="Layer 3" opacity="1">
        <g id="Shape9">
            <desc shapeID="9" type="0" basicInfo-basicType="0" basicInfo-roundedRectRadius="12" basicInfo-polygonSides="6" basicInfo-starPoints="5" bounding="rect(0,0,0,0)" text="" font-familyName="Helvetica" font-pixelSize="20" font-bold="0" font-underline="0" font-alignment="1" strokeStyle="0" markerStart="0" markerEnd="0" shadowEnabled="0" shadowOffsetX="0" shadowOffsetY="2" shadowBlur="4" shadowOpacity="160" blurEnabled="0" blurRadius="4" transform="matrix(0.20203,0,-0.0118556,0.201446,10.7508,8.88123)" pers-center="0,0" pers-size="0,0" pers-start="0,0" pers-end="0,0" locked="0" mesh="" flag=""/>
            <path id="shapePath9" d="M10.7508,8.88123 Z" style="stroke:none;fill-rule:evenodd;fill:#000000;fill-opacity:1;"/>
        </g>
        <g id="Shape10">
            <desc shapeID="10" type="0" basicInfo-basicType="0" basicInfo-roundedRectRadius="12" basicInfo-polygonSides="6" basicInfo-starPoints="5" bounding="rect(-19.6286,-11.1476,39.2573,22.2955)" text="" font-familyName="Helvetica" font-pixelSize="20" font-bold="0" font-underline="0" font-alignment="1" strokeStyle="0" markerStart="0" markerEnd="0" shadowEnabled="0" shadowOffsetX="0" shadowOffsetY="2" shadowBlur="4" shadowOpacity="160" blurEnabled="0" blurRadius="4" transform="matrix(0.20203,0,-0.0118556,0.201446,72.6991,47.3065)" pers-center="0,0" pers-size="0,0" pers-start="0,0" pers-end="0,0" locked="0" mesh="" flag=""/>
            <path id="shapePath10" d="M68.8219,46.2696 C68.6802,45.7737 69.3889,45.0029 69.9076,45.0644 C71.1852,45.2162 72.1154,46.3003 73.281,46.7995 C74.199,47.1925 75.4153,47.0596 76.1401,47.7333 C76.5664,48.1296 76.8082,49.4581 76.2077,49.5199 C74.3424,49.712 72.4975,49.0153 70.8284,48.2808 C69.9539,47.8959 69.0857,47.1904 68.8219,46.2696 Z" style="stroke:none;fill-rule:evenodd;fill:#000000;fill-opacity:1;"/>
        </g>
        <g id="Shape11">
            <desc shapeID="11" type="0" basicInfo-basicType="0" basicInfo-roundedRectRadius="12" basicInfo-polygonSides="6" basicInfo-starPoints="5" bounding="rect(0,0,0,0)" text="" font-familyName="Helvetica" font-pixelSize="20" font-bold="0" font-underline="0" font-alignment="1" strokeStyle="0" markerStart="0" markerEnd="0" shadowEnabled="0" shadowOffsetX="0" shadowOffsetY="2" shadowBlur="4" shadowOpacity="160" blurEnabled="0" blurRadius="4" transform="matrix(0.20203,0,-0.0118556,0.201446,10.7509,8.88123)" pers-center="0,0" pers-size="0,0" pers-start="0,0" pers-end="0,0" locked="0" mesh="" flag=""/>
            <path id="shapePath11" d="M10.7509,8.88123 Z" style="stroke:none;fill-rule:evenodd;fill:#7a7476;fill-opacity:1;"/>
        </g>
        <g id="Shape12">
            <desc shapeID="12" type="0" basicInfo-basicType="0" basicInfo-roundedRectRadius="12" basicInfo-polygonSides="6" basicInfo-starPoints="5" bounding="rect(0,0,0,0)" text="" font-familyName="Helvetica" font-pixelSize="20" font-bold="0" font-underline="0" font-alignment="1" strokeStyle="0" markerStart="0" markerEnd="0" shadowEnabled="0" shadowOffsetX="0" shadowOffsetY="2" shadowBlur="4" shadowOpacity="160" blurEnabled="0" blurRadius="4" transform="matrix(0.20203,0,-0.0118556,0.201446,10.7508,8.88123)" pers-center="0,0" pers-size="0,0" pers-start="0,0" pers-end="0,0" locked="0" mesh="" flag=""/>
            <path id="shapePath12" d="M10.7508,8.88123 Z" style="stroke:none;fill-rule:evenodd;fill:#000000;fill-opacity:1;"/>
        </g>
        <g id="Shape13">
            <desc shapeID="13" type="0" basicInfo-basicType="0" basicInfo-roundedRectRadius="12" basicInfo-polygonSides="6" basicInfo-starPoints="5" bounding="rect(0,0,0,0)" text="" font-familyName="Helvetica" font-pixelSize="20" font-bold="0" font-underline="0" font-alignment="1" strokeStyle="0" markerStart="0" markerEnd="0" shadowEnabled="0" shadowOffsetX="0" shadowOffsetY="2" shadowBlur="4" shadowOpacity="160" blurEnabled="0" blurRadius="4" transform="matrix(0.20203,0,-0.0118556,0.201446,10.7508,8.88123)" pers-center="0,0" pers-size="0,0" pers-start="0,0" pers-end="0,0" locked="0" mesh="" flag=""/>
            <path id="shapePath13" d="M10.7508,8.88123 Z" style="stroke:none;fill-rule:evenodd;fill:#000000;fill-opacity:1;"/>
        </g>
        <g id="Shape14">
            <desc shapeID="14" type="0" basicInfo-basicType="0" basicInfo-roundedRectRadius="12" basicInfo-polygonSides="6" basicInfo-starPoints="5" bounding="rect(-0.0840759,-0.0139364,0.168132,0.0278863)" text="" font-familyName="Helvetica" font-pixelSize="20" font-bold="0" font-underline="0" font-alignment="1" strokeStyle="0" markerStart="0" markerEnd="0" shadowEnabled="0" shadowOffsetX="0" shadowOffsetY="2" shadowBlur="4" shadowOpacity="160" blurEnabled="0" blurRadius="4" transform="matrix(0.20203,0,-0.0118556,0.201446,81.5698,52.5261)" pers-center="0,0" pers-size="0,0" pers-start="0,0" pers-end="0,0" locked="0" mesh="" flag=""/>
            <path id="shapePath14" d="M81.553,52.5233 C81.6286,52.5359 81.553,52.5233 81.553,52.5233 Z" style="stroke:none;fill-rule:evenodd;fill:#000000;fill-opacity:1;"/>
        </g>
        <g id="Shape15">
            <desc shapeID="15" type="0" basicInfo-basicType="0" basicInfo-roundedRectRadius="12" basicInfo-polygonSides="6" basicInfo-starPoints="5" bounding="rect(-13.27,-18.3879,26.5401,36.7759)" text="" font-familyName="Helvetica" font-pixelSize="20" font-bold="0" font-underline="0" font-alignment="1" strokeStyle="0" markerStart="0" markerEnd="0" shadowEnabled="0" shadowOffsetX="0" shadowOffsetY="2" shadowBlur="4" shadowOpacity="160" blurEnabled="0" blurRadius="4" transform="matrix(0.20203,0,-0.0118556,0.201446,83.8607,54.9477)" pers-center="0,0" pers-size="0,0" pers-start="0,0" pers-end="0,0" locked="0" mesh="" flag=""/>
            <path id="shapePath15" d="M81.5247,52.3586 C81.8878,52.8142 82.8174,52.6761 83.0634,53.2076 C83.4354,54.0121 83.069,55.021 83.17,55.9148 C83.2641,56.7515 83.2755,57.6433 83.6469,58.3844 C83.7766,58.6438 84.2359,58.7242 84.5062,58.583 C84.8314,58.4131 85.0714,57.9964 85.0719,57.6398 C85.0735,56.8979 84.5796,56.2526 84.5125,55.5176 C84.4639,54.9884 84.3232,54.289 84.7311,53.9169 C85.0858,53.5932 85.6923,54.2729 86.1169,54.0534 C86.4703,53.8708 86.7816,53.2799 86.5794,52.9614 C86.1994,52.3626 85.3933,52.1679 84.7388,51.8817 C84.2393,51.6631 83.6902,51.5514 83.1457,51.4598 C82.6341,51.3737 82.0534,51.0908 81.5839,51.3512 C81.282,51.5186 81.321,52.1031 81.5247,52.3586 Z" style="stroke:none;fill-rule:evenodd;fill:#000000;fill-opacity:1;"/>
        </g>
        <g id="Shape16">
            <desc shapeID="16" type="0" basicInfo-basicType="0" basicInfo-roundedRectRadius="12" basicInfo-polygonSides="6" basicInfo-starPoints="5" bounding="rect(0,0,0,0)" text="" font-familyName="Helvetica" font-pixelSize="20" font-bold="0" font-underline="0" font-alignment="1" strokeStyle="0" markerStart="0" markerEnd="0" shadowEnabled="0" shadowOffsetX="0" shadowOffsetY="2" shadowBlur="4" shadowOpacity="160" blurEnabled="0" blurRadius="4" transform="matrix(0.20203,0,-0.0118556,0.201446,10.7508,8.88123)" pers-center="0,0" pers-size="0,0" pers-start="0,0" pers-end="0,0" locked="0" mesh="" flag=""/>
            <path id="shapePath16" d="M10.7508,8.88123 Z" style="stroke:none;fill-rule:evenodd;fill:#000000;fill-opacity:1;"/>
        </g>
        <g id="Shape17">
            <desc shapeID="17" type="0" basicInfo-basicType="0" basicInfo-roundedRectRadius="12" basicInfo-polygonSides="6" basicInfo-starPoints="5" bounding="rect(-18.1688,-9.4546,36.3378,18.9093)" text="" font-familyName="Helvetica" font-pixelSize="20" font-bold="0" font-underline="0" font-alignment="1" strokeStyle="0" markerStart="0" markerEnd="0" shadowEnabled="0" shadowOffsetX="0" shadowOffsetY="2" shadowBlur="4" shadowOpacity="160" blurEnabled="0" blurRadius="4" transform="matrix(0.20203,0,-0.0118556,0.201446,93.0087,54.3188)" pers-center="0,0" pers-size="0,0" pers-start="0,0" pers-end="0,0" locked="0" mesh="" flag=""/>
            <path id="shapePath17" d="M89.7006,52.5077 C88.7707,52.8439 90.4293,54.3638 91.2019,54.9055 C92.2867,55.6665 93.6393,56.1406 94.9955,56.2214 C95.6076,56.2579 96.3897,55.8128 96.6081,55.2272 C96.7677,54.7994 96.1349,54.4265 95.7265,54.2623 C95.0829,54.0033 94.298,54.223 93.6289,54.0283 C92.2753,53.6341 91.0732,52.0116 89.7006,52.5077 Z" style="stroke:none;fill-rule:evenodd;fill:#000000;fill-opacity:1;"/>
        </g>
        <g id="Shape18">
            <desc shapeID="18" type="0" basicInfo-basicType="0" basicInfo-roundedRectRadius="12" basicInfo-polygonSides="6" basicInfo-starPoints="5" bounding="rect(0,0,0,0)" text="" font-familyName="Helvetica" font-pixelSize="20" font-bold="0" font-underline="0" font-alignment="1" strokeStyle="0" markerStart="0" markerEnd="0" shadowEnabled="0" shadowOffsetX="0" shadowOffsetY="2" shadowBlur="4" shadowOpacity="160" blurEnabled="0" blurRadius="4" transform="matrix(0.20203,0,-0.0118556,0.201446,10.7508,8.88123)" pers-center="0,0" pers-size="0,0" pers-start="0,0" pers-end="0,0" locked="0" mesh="" flag=""/>
            <path id="shapePath18" d="M10.7508,8.88123 Z" style="stroke:none;fill-rule:evenodd;fill:#000000;fill-opacity:1;"/>
        </g>
        <g id="Shape19">
            <desc shapeID="19" type="0" basicInfo-basicType="0" basicInfo-roundedRectRadius="12" basicInfo-polygonSides="6" basicInfo-starPoints="5" bounding="rect(-21.9965,-6.39041,43.9927,12.7808)" text="" font-familyName="Helvetica" font-pixelSize="20" font-bold="0" font-underline="0" font-alignment="1" strokeStyle="0" markerStart="0" markerEnd="0" shadowEnabled="0" shadowOffsetX="0" shadowOffsetY="2" shadowBlur="4" shadowOpacity="160" blurEnabled="0" blurRadius="4" transform="matrix(0.20203,0,-0.0118556,0.201446,128.086,71.8875)" pers-center="0,0" pers-size="0,0" pers-start="0,0" pers-end="0,0" locked="0" mesh="" flag=""/>
            <path id="shapePath19" d="M123.726,70.9672 C123.506,71.4832 124.221,71.9638 124.658,72.2744 C125.082,72.5759 125.649,72.6584 126.179,72.7102 C127.266,72.8159 128.38,72.6665 129.471,72.7438 C130.282,72.8008 131.078,73.3587 131.87,73.1123 C132.307,72.9764 132.738,72.0921 132.382,71.8386 C131.424,71.1573 130.082,71.2035 128.901,71.0007 C127.736,70.8003 126.553,70.6397 125.36,70.6318 C124.811,70.6283 123.946,70.4529 123.726,70.9672 Z" style="stroke:none;fill-rule:evenodd;fill:#000000;fill-opacity:1;"/>
        </g>
        <g id="Shape20">
            <desc shapeID="20" type="0" basicInfo-basicType="0" basicInfo-roundedRectRadius="12" basicInfo-polygonSides="6" basicInfo-starPoints="5" bounding="rect(-14.5595,-7.87541,29.1191,15.751)" text="" font-familyName="Helvetica" font-pixelSize="20" font-bold="0" font-underline="0" font-alignment="1" strokeStyle="0" markerStart="0" markerEnd="0" shadowEnabled="0" shadowOffsetX="0" shadowOffsetY="2" shadowBlur="4" shadowOpacity="160" blurEnabled="0" blurRadius="4" transform="matrix(0.20203,0,-0.0118556,0.201446,128.681,76.7414)" pers-center="0,0" pers-size="0,0" pers-start="0,0" pers-end="0,0" locked="0" mesh="" flag=""/>
            <path id="shapePath20" d="M125.792,75.8607 C125.797,75.2557 126.908,75.1371 127.514,75.157 C128.701,75.1956 129.995,75.3415 130.925,76.0284 C131.498,76.4518 131.677,77.3861 131.509,78.1065 C131.426,78.4589 130.725,78.3292 130.431,78.1401 C130.14,77.9525 130.29,77.4865 129.957,77.3799 C129.16,77.1252 128.295,77.4474 127.494,77.2015 C126.795,76.987 125.785,76.6019 125.792,75.8607 Z" style="stroke:none;fill-rule:evenodd;fill:#000000;fill-opacity:1;"/>
        </g>
        <g id="Shape21">
            <desc shapeID="21" type="0" basicInfo-basicType="0" basicInfo-roundedRectRadius="12" basicInfo-polygonSides="6" basicInfo-starPoints="5" bounding="rect(0,0,0,0)" text="" font-familyName="Helvetica" font-pixelSize="20" font-bold="0" font-underline="0" font-alignment="1" strokeStyle="0" markerStart="0" markerEnd="0" shadowEnabled="0" shadowOffsetX="0" shadowOffsetY="2" shadowBlur="4" shadowOpacity="160" blurEnabled="0" blurRadius="4" transform="matrix(0.20203,0,-0.0118556,0.201446,10.7508,8.88123)" pers-center="0,0" pers-size="0,0" pers-start="0,0" pers-end="0,0" locked="0" mesh="" flag=""/>
            <path id="shapePath21" d="M10.7508,8.88123 Z" style="stroke:none;fill-rule:evenodd;fill:#000000;fill-opacity:1;"/>
        </g>
        <g id="Shape22">
            <desc shapeID="22" type="0" basicInfo-basicType="0" basicInfo-roundedRectRadius="12" basicInfo-polygonSides="6" basicInfo-starPoints="5" bounding="rect(-17.1228,-6.99916,34.2455,13.9985)" text="" font-familyName="Helvetica" font-pixelSize="20" font-bold="0" font-underline="0" font-alignment="1" strokeStyle="0" markerStart="0" markerEnd="0" shadowEnabled="0" shadowOffsetX="0" shadowOffsetY="2" shadowBlur="4" shadowOpacity="160" blurEnabled="0" blurRadius="4" transform="matrix(0.20203,0,-0.0118556,0.201446,128.452,83.2141)" pers-center="0,0" pers-size="0,0" pers-start="0,0" pers-end="0,0" locked="0" mesh="" flag=""/>
            <path id="shapePath22" d="M125.056,82.5129 C124.882,81.9157 126.229,81.8404 126.865,81.8081 C127.729,81.764 128.548,82.0989 129.377,82.2927 C130.119,82.4664 131.012,82.4121 131.572,82.9094 C131.929,83.2263 131.977,83.9382 131.707,84.3634 C131.49,84.7058 130.909,84.6391 130.525,84.5617 C130.231,84.5023 130.15,84.0307 129.852,83.9889 C129.098,83.883 128.267,84.3652 127.545,84.1433 C126.587,83.8483 125.336,83.4727 125.056,82.5129 Z" style="stroke:none;fill-rule:evenodd;fill:#000000;fill-opacity:1;"/>
        </g>
        <g id="Shape23">
            <desc shapeID="23" type="0" basicInfo-basicType="0" basicInfo-roundedRectRadius="12" basicInfo-polygonSides="6" basicInfo-starPoints="5" bounding="rect(-21.0621,-5.9911,42.1244,11.9821)" text="" font-familyName="Helvetica" font-pixelSize="20" font-bold="0" font-underline="0" font-alignment="1" strokeStyle="0" markerStart="0" markerEnd="0" shadowEnabled="0" shadowOffsetX="0" shadowOffsetY="2" shadowBlur="4" shadowOpacity="160" blurEnabled="0" blurRadius="4" transform="matrix(0.20203,0,-0.0118556,0.201446,32.3104,54.8129)" pers-center="0,0" pers-size="0,0" pers-start="0,0" pers-end="0,0" locked="0" mesh="" flag=""/>
            <path id="shapePath23" d="M30.535,55.633 C29.9717,55.7359 29.4253,56.1322 28.8856,55.9889 C28.4331,55.8687 27.8573,55.2745 28.0975,54.8522 C28.507,54.1324 29.6453,53.8705 30.4534,53.7514 C31.6795,53.5709 32.6683,53.8503 33.8881,53.9997 C34.5126,54.0763 35.2301,53.3923 35.78,53.6749 C36.297,53.9403 36.8185,54.8369 36.4174,55.2987 C35.812,55.9961 34.6698,55.9889 33.7711,55.9889 C33.3267,55.9889 32.9111,55.5675 32.4753,55.5017 C31.7803,55.3969 31.2397,55.5047 30.535,55.633 Z" style="stroke:none;fill-rule:evenodd;fill:#000000;fill-opacity:1;"/>
        </g>
        <g id="Shape24">
            <desc shapeID="24" type="0" basicInfo-basicType="0" basicInfo-roundedRectRadius="12" basicInfo-polygonSides="6" basicInfo-starPoints="5" bounding="rect(-16.7496,-5.9389,33.4992,11.8779)" text="" font-familyName="Helvetica" font-pixelSize="20" font-bold="0" font-underline="0" font-alignment="1" strokeStyle="0" markerStart="0" markerEnd="0" shadowEnabled="0" shadowOffsetX="0" shadowOffsetY="2" shadowBlur="4" shadowOpacity="160" blurEnabled="0" blurRadius="4" transform="matrix(0.20203,0,-0.0118556,0.201446,30.1048,59.6725)" pers-center="0,0" pers-size="0,0" pers-start="0,0" pers-end="0,0" locked="0" mesh="" flag=""/>
            <path id="shapePath24" d="M26.7832,59.8861 C27.5834,59.2436 28.6315,58.9632 29.6186,58.7493 C30.0559,58.6547 30.4648,59.0291 30.9073,58.9929 C31.488,58.9455 32.0609,58.3365 32.6052,58.5058 C33.0823,58.6542 33.7694,59.409 33.3861,59.7642 C32.5218,60.5651 31.2028,60.6466 30.0645,60.8603 C29.7145,60.9261 29.4141,60.5944 29.0634,60.5762 C28.4383,60.5435 27.7679,60.8887 27.1769,60.7098 C26.883,60.6208 26.5328,60.0872 26.7832,59.8861 Z" style="stroke:none;fill-rule:evenodd;fill:#000000;fill-opacity:1;"/>
        </g>
        <g id="Shape25">
            <desc shapeID="25" type="0" basicInfo-basicType="0" basicInfo-roundedRectRadius="12" basicInfo-polygonSides="6" basicInfo-starPoints="5" bounding="rect(-23.2997,-6.30204,46.5994,12.6043)" text="" font-familyName="Helvetica" font-pixelSize="20" font-bold="0" font-underline="0" font-alignment="1" strokeStyle="0" markerStart="0" markerEnd="0" shadowEnabled="0" shadowOffsetX="0" shadowOffsetY="2" shadowBlur="4" shadowOpacity="160" blurEnabled="0" blurRadius="4" transform="matrix(0.20203,0,-0.0118556,0.201446,26.823,65.5209)" pers-center="0,0" pers-size="0,0" pers-start="0,0" pers-end="0,0" locked="0" mesh="" flag=""/>
            <path id="shapePath25" d="M22.2037,65.5943 C23.2081,64.3904 25.1473,64.5353 26.6681,64.2888 C27.4575,64.1606 28.2434,64.3962 29.025,64.4882 C29.8457,64.5848 30.771,64.4475 31.4722,64.8541 C31.7245,65.0006 31.3743,65.576 31.0897,65.6857 C30.2797,65.9978 29.3837,65.8422 28.5365,65.9851 C27.2141,66.2083 25.9071,66.8652 24.5863,66.7835 C23.6822,66.7277 21.6053,66.3114 22.2037,65.5943 Z" style="stroke:none;fill-rule:evenodd;fill:#000000;fill-opacity:1;"/>
        </g>
        <g id="Shape26">
            <desc shapeID="26" type="0" basicInfo-basicType="0" basicInfo-roundedRectRadius="12" basicInfo-polygonSides="6" basicInfo-starPoints="5" bounding="rect(-86.1207,-80.4926,172.24,160.987)" text="" font-familyName="Helvetica" font-pixelSize="20" font-bold="0" font-underline="0" font-alignment="1" strokeStyle="0" markerStart="0" markerEnd="0" shadowEnabled="0" shadowOffsetX="0" shadowOffsetY="2" shadowBlur="4" shadowOpacity="160" blurEnabled="0" blurRadius="4" transform="matrix(0.20203,0,-0.0118556,0.201446,88.9975,72.2348)" pers-center="0,0" pers-size="0,0" pers-start="0,0" pers-end="0,0" locked="0" mesh="" flag=""/>
            <path id="shapePath26" d="M72.5411,56.306 C72.6526,57.277 73.5449,58.0794 74.4257,58.4771 C75.9406,59.1614 77.7632,58.9813 79.3862,59.3983 C80.5885,59.7071 81.8039,60.0502 82.8757,60.6483 C83.6251,61.0664 83.9984,61.9814 84.7525,62.3917 C85.8875,63.0093 87.1725,63.3513 88.438,63.6747 C89.3709,63.9132 90.4469,63.6775 91.318,64.0695 C91.7889,64.2814 92.0395,64.8496 92.1664,65.3523 C92.2932,65.8552 92.2224,66.4273 92.0402,66.9314 C91.6737,67.9463 90.8265,68.7882 90.5505,69.8263 C90.3714,70.499 90.5287,71.2205 90.7275,71.8658 C91.0618,72.9528 91.703,73.9077 92.1288,74.9579 C92.5132,75.9061 92.6372,76.6971 93.3371,77.4337 C93.7903,77.9107 94.5404,78.0191 95.1463,78.2904 C96.0732,78.7053 96.7242,79.3197 97.5064,79.9551 C97.8848,80.2627 98.4302,80.7712 98.8858,80.9574 C99.532,81.2213 100.17,80.7338 100.739,81.1296 C101.582,81.7168 101.971,82.7728 102.494,83.6572 C102.842,84.2461 102.857,85.0519 103.341,85.5336 C103.825,86.0157 103.738,85.8803 103.927,86.5451 C104.102,87.1611 102.13,86.7039 101.741,87.8596 C101.568,88.4966 102.3,88.5056 102.656,88.3986 C103.285,88.2099 104.732,88.0534 105.096,87.5016 C105.418,87.0141 105.692,86.6238 105.486,86.1065 C105.277,85.5822 105.589,85.1 105.097,84.8261 C104.629,84.5659 104.41,84.3594 104.08,83.9418 C103.477,83.1789 103.461,82.0611 102.949,81.2323 C102.609,80.6829 102.138,80.1876 101.568,79.8779 C100.755,79.4357 99.7332,79.4382 98.9006,79.031 C98.3046,78.7397 97.925,78.1265 97.3422,77.8119 C96.5733,77.397 95.6557,77.2744 94.8843,76.8635 C94.4127,76.6123 93.9151,76.312 93.6536,75.8476 C93.022,74.7264 92.7583,73.4201 92.2705,72.2238 C92.0725,71.7388 91.6407,71.3367 91.5973,70.8066 C91.5554,70.2932 91.8221,69.7759 92.0303,69.2894 C92.3046,68.6492 92.7732,68.0927 93.0354,67.4481 C93.2916,66.8176 93.5953,66.1554 93.5744,65.4907 C93.5571,64.9465 93.0847,64.537 92.927,64.0238 C92.7811,63.5474 93.0991,62.7887 92.6696,62.542 C91.5594,61.9048 90.1521,61.919 88.8711,61.6953 C88.4308,61.6184 87.9395,61.788 87.521,61.6425 C86.5411,61.3015 85.6364,60.7861 84.7508,60.262 C84.0231,59.8313 83.4665,59.1396 82.6948,58.7864 C81.7438,58.3505 80.9867,58.3795 80.0443,57.9272 C79.6977,57.7609 79.1274,57.4076 78.7671,57.2703 C78.2677,57.08 77.8823,57.0884 77.3415,57.0463 C76.6528,56.9925 75.9673,56.89 75.3062,56.7158 C74.9008,56.6089 74.5826,56.2711 74.1653,56.2092 C73.6355,56.1308 72.4801,55.7752 72.5411,56.306 Z" style="stroke:none;fill-rule:evenodd;fill:#000000;fill-opacity:1;"/>
        </g>
        <g id="Shape27">
            <desc shapeID="27" type="0" basicInfo-basicType="0" basicInfo-roundedRectRadius="12" basicInfo-polygonSides="6" basicInfo-starPoints="5" bounding="rect(0,0,0,0)" text="" font-familyName="Helvetica" font-pixelSize="20" font-bold="0" font-underline="0" font-alignment="1" strokeStyle="0" markerStart="0" markerEnd="0" shadowEnabled="0" shadowOffsetX="0" shadowOffsetY="2" shadowBlur="4" shadowOpacity="160" blurEnabled="0" blurRadius="4" transform="matrix(0.20203,0,-0.0118556,0.201446,10.7509,8.88123)" pers-center="0,0" pers-size="0,0" pers-start="0,0" pers-end="0,0" locked="0" mesh="" flag=""/>
            <path id="shapePath27" d="M10.7509,8.88123 Z" style="stroke:none;fill-rule:evenodd;fill:#000000;fill-opacity:1;"/>
        </g>
        <g id="Shape28">
            <desc shapeID="28" type="0" basicInfo-basicType="0" basicInfo-roundedRectRadius="12" basicInfo-polygonSides="6" basicInfo-starPoints="5" bounding="rect(-98.5156,-75.6093,197.028,151.216)" text="" font-familyName="Helvetica" font-pixelSize="20" font-bold="0" font-underline="0" font-alignment="1" strokeStyle="0" markerStart="0" markerEnd="0" shadowEnabled="0" shadowOffsetX="0" shadowOffsetY="2" shadowBlur="4" shadowOpacity="160" blurEnabled="0" blurRadius="4" transform="matrix(0.20203,0,-0.0118556,0.201446,82.8418,74.3839)" pers-center="0,0" pers-size="0,0" pers-start="0,0" pers-end="0,0" locked="0" mesh="" flag=""/>
            <path id="shapePath28" d="M66.1214,60.6146 C65.6813,61.4715 65.4766,62.4218 65.2497,63.3468 C64.9131,64.7215 64.7623,66.126 64.4338,67.5021 C64.14,68.7324 63.6154,69.9185 63.3852,71.1587 C63.1508,72.4212 62.8115,73.74 63.0468,74.9751 C63.1811,75.6798 63.8917,76.1189 64.4194,76.5884 C65.3885,77.4508 66.4209,78.25 67.5164,78.9522 C68.6514,79.68 69.8014,80.4315 71.0914,80.8658 C71.6413,81.0508 72.2819,80.6967 72.8664,80.7532 C74.1013,80.8728 75.2706,81.3687 76.5167,81.3911 C78.0786,81.419 79.6678,80.7276 81.2113,80.9032 C83.098,81.1181 84.8642,81.8589 86.6092,82.54 C87.6771,82.957 88.711,83.4898 89.6111,84.1826 C90.6428,84.9768 91.2974,86.1919 92.3501,86.9594 C93.6264,87.89 95.0169,88.7197 96.531,89.2276 C97.5935,89.5841 98.797,89.7375 99.9271,89.5014 C100.665,89.3472 101.346,88.7665 101.773,88.1325 C102.014,87.7739 102.103,86.9429 101.689,86.8811 C100.753,86.741 99.851,87.7025 98.8957,87.7025 C97.965,87.7025 97.1011,87.2654 96.2768,86.8811 C95.1047,86.3346 93.9704,85.6948 92.9404,84.9257 C92.228,84.3939 91.7975,83.5503 91.0921,83.0093 C90.0346,82.1987 88.8676,81.5274 87.6864,80.8975 C86.8087,80.4294 85.89,80.0193 84.9314,79.7243 C83.7626,79.3647 82.5642,79.0386 81.33,78.9422 C80.6963,78.8925 80.0657,79.2347 79.4266,79.2943 C77.9587,79.4307 76.4791,79.6103 75.02,79.5287 C73.8922,79.4658 72.8187,79.1032 71.7253,78.8641 C70.792,78.6599 69.7924,78.6075 68.9404,78.1991 C67.9912,77.744 67.2562,76.9552 66.423,76.3219 C65.7295,75.7948 64.6455,75.5482 64.3602,74.7184 C64.002,73.677 64.5296,72.4711 64.7149,71.3552 C64.9312,70.0536 65.2555,68.7653 65.5626,67.4766 C65.7307,66.7722 65.9886,66.0851 66.1398,65.3776 C66.272,64.7582 66.2903,64.1253 66.412,63.5045 C66.6883,62.0952 67.4746,60.6952 67.3335,59.2903 C67.2757,58.7172 66.393,60.0859 66.1214,60.6146 Z" style="stroke:none;fill-rule:evenodd;fill:#000000;fill-opacity:1;"/>
        </g>
        <g id="Shape29">
            <desc shapeID="29" type="0" basicInfo-basicType="0" basicInfo-roundedRectRadius="12" basicInfo-polygonSides="6" basicInfo-starPoints="5" bounding="rect(-327.936,-175.712,655.872,351.422)" text="" font-familyName="Helvetica" font-pixelSize="20" font-bold="0" font-underline="0" font-alignment="1" strokeStyle="0" markerStart="0" markerEnd="0" shadowEnabled="0" shadowOffsetX="0" shadowOffsetY="2" shadowBlur="4" shadowOpacity="160" blurEnabled="0" blurRadius="4" transform="matrix(0.20203,0,-0.0118556,0.201446,83.7312,76.5496)" pers-center="0,0" pers-size="0,0" pers-start="0,0" pers-end="0,0" locked="0" mesh="" flag=""/>
            <path id="shapePath29" d="M37.8202,41.4728 C37.7196,40.7898 36.3533,41.3633 35.7209,41.6997 C34.1067,42.5589 32.631,43.7074 31.2816,44.9521 C30.2992,45.858 29.5812,47.0125 28.7941,48.0883 C27.884,49.3318 27.0192,50.6077 26.1933,51.9054 C24.3843,54.7475 22.426,57.5179 20.891,60.5047 C19.7228,62.7782 18.716,65.162 18.1192,67.6176 C17.723,69.2481 17.998,70.9324 17.9545,72.5892 C17.8825,75.3314 17.6333,78.0874 17.7729,80.8147 C17.8951,83.2065 18.1278,85.6117 18.7376,87.9009 C19.2161,89.6964 19.9611,91.4418 21.0067,92.9529 C22.5145,95.1327 24.0674,97.4452 26.3181,98.8581 C29.9405,101.132 34.1213,102.51 38.2521,103.78 C40.9509,104.609 43.9124,104.503 46.6804,105.116 C50.6394,105.992 54.4384,107.028 58.4374,107.75 C61.5257,108.307 64.7613,108.507 67.8597,108.948 C71.1451,109.416 74.2948,110.117 77.6208,110.449 C83.2558,111.012 89.0095,111.609 94.6854,111.859 C96.7721,111.951 98.8837,112.038 100.974,111.736 C107.289,110.827 113.575,109.578 119.838,108.237 C122.564,107.653 125.437,107.316 127.915,105.965 C131.213,104.166 134.072,101.577 136.809,98.9831 C138.706,97.1846 140.229,95.0192 141.72,92.8809 C143.334,90.5682 144.894,88.1934 146.101,85.6626 C147.436,82.8617 148.463,79.9249 149.309,76.9652 C149.863,75.0297 150.073,73.0264 150.279,71.044 C150.446,69.4384 150.471,67.8253 150.425,66.2241 C150.38,64.6754 150.206,63.1387 150.006,61.6111 C149.872,60.5883 149.755,59.5481 149.425,58.5815 C149.236,58.0315 148.902,57.5218 148.474,57.1357 C147.637,56.3805 146.765,54.7096 145.687,55.2077 C144.76,55.6362 146.498,56.9824 146.983,57.8242 C147.439,58.6152 148.346,59.1846 148.507,60.0963 C148.967,62.6997 148.912,65.4092 148.796,68.0833 C148.718,69.8827 148.278,71.6711 147.928,73.4538 C147.457,75.8501 147.131,78.2876 146.332,80.6146 C145.647,82.6123 144.541,84.4671 143.51,86.3295 C142.684,87.8231 141.702,89.2327 140.769,90.6671 C139.955,91.9182 139.179,93.197 138.271,94.3852 C137.405,95.52 136.524,96.6689 135.457,97.6214 C133.449,99.4131 131.315,101.073 129.088,102.579 C127.871,103.402 126.551,104.102 125.173,104.575 C122.742,105.411 120.215,105.861 117.731,106.479 C114.927,107.177 112.122,107.868 109.311,108.522 C107.169,109.021 105.548,109.336 103.375,109.534 C102.515,109.612 101.263,109.315 100.404,109.331 C98.9166,109.36 97.629,109.758 96.1412,109.794 C94.8197,109.826 93.3838,109.636 92.0741,109.534 C89.5602,109.337 87.0238,109.329 84.5041,109.177 C82.0655,109.031 79.6187,108.925 77.2005,108.64 C73.3714,108.188 69.5687,107.59 65.7735,106.968 C62.0166,106.353 58.2929,105.595 54.5476,104.929 C53.4302,104.731 52.2948,104.608 51.1853,104.377 C48.9536,103.915 46.7547,103.334 44.5282,102.852 C42.0596,102.317 39.5048,102.065 37.1012,101.326 C34.6747,100.58 32.3678,99.518 30.1001,98.4155 C28.7231,97.7463 27.3864,96.9723 26.1954,96.0252 C24.8663,94.9683 23.4855,93.8805 22.5854,92.4395 C21.4845,90.6767 20.8403,88.6297 20.3075,86.598 C19.7325,84.4042 19.3564,82.1293 19.2807,79.8354 C19.2001,77.3931 19.6433,74.931 19.8419,72.4791 C19.9685,70.9169 20.1326,69.3556 20.2559,67.7932 C20.3139,67.0583 20.2001,66.3091 20.3857,65.588 C20.6048,64.7371 21.032,63.9373 21.4504,63.1533 C22.6471,60.9105 23.9208,58.7049 25.2252,56.5181 C26.4612,54.4462 27.7579,52.4076 29.0698,50.3794 C30.0079,48.9287 30.7956,47.3543 31.9742,46.0831 C33.1079,44.8601 34.6029,44.031 35.9121,42.9985 C36.5516,42.4944 37.9342,42.2465 37.8202,41.4728 Z" style="stroke:none;fill-rule:evenodd;fill:#000000;fill-opacity:1;"/>
        </g>
        <g id="Shape30">
            <desc shapeID="30" type="0" basicInfo-basicType="0" basicInfo-roundedRectRadius="12" basicInfo-polygonSides="6" basicInfo-starPoints="5" bounding="rect(0,0,0,0)" text="" font-familyName="Helvetica" font-pixelSize="20" font-bold="0" font-underline="0" font-alignment="1" strokeStyle="0" markerStart="0" markerEnd="0" shadowEnabled="0" shadowOffsetX="0" shadowOffsetY="2" shadowBlur="4" shadowOpacity="160" blurEnabled="0" blurRadius="4" transform="matrix(0.20203,0,-0.0118556,0.201446,10.7508,8.88123)" pers-center="0,0" pers-size="0,0" pers-start="0,0" pers-end="0,0" locked="0" mesh="" flag=""/>
            <path id="shapePath30" d="M10.7508,8.88123 Z" style="stroke:none;fill-rule:evenodd;fill:#000000;fill-opacity:1;"/>
        </g>
        <g id="Shape31">
            <desc shapeID="31" type="0" basicInfo-basicType="0" basicInfo-roundedRectRadius="12" basicInfo-polygonSides="6" basicInfo-starPoints="5" bounding="rect(-122.197,-70.2729,244.393,140.543)" text="" font-familyName="Helvetica" font-pixelSize="20" font-bold="0" font-underline="0" font-alignment="1" strokeStyle="0" markerStart="0" markerEnd="0" shadowEnabled="0" shadowOffsetX="0" shadowOffsetY="2" shadowBlur="4" shadowOpacity="160" blurEnabled="0" blurRadius="4" transform="matrix(0.20203,0,0,0.229966,39.4481,105.537)" pers-center="0,0" pers-size="0,0" pers-start="0,0" pers-end="0,0" locked="0" mesh="" flag=""/>
            <path id="shapePath31" d="M15.4084,90.3377 C14.9068,91.265 14.7059,92.4374 14.7733,93.5237 C14.8524,94.799 15.5121,95.9395 15.8318,97.1651 C16.3921,99.3138 16.8389,101.5 17.4124,103.644 C17.6402,104.496 17.7986,105.406 18.2335,106.146 C18.8164,107.137 19.6926,107.859 20.4052,108.734 C21.4729,110.045 22.3085,111.643 23.574,112.702 C24.7318,113.67 26.178,114.09 27.5174,114.682 C28.7277,115.217 29.9479,115.753 31.2142,116.079 C33.0005,116.538 34.8577,116.572 36.6441,117.03 C38.0046,117.379 39.2678,118.131 40.6256,118.493 C41.8993,118.832 43.2234,118.857 44.5103,119.124 C46.0411,119.442 47.5541,119.863 49.0731,120.247 C50.8838,120.705 52.656,121.415 54.4992,121.651 C55.7875,121.816 57.0881,121.481 58.3837,121.44 C60.0481,121.388 61.7661,121.844 63.3783,121.37 C63.8946,121.219 64.2148,120.353 64.1183,119.756 C64.028,119.199 63.4426,118.75 62.9467,118.703 C61.3426,118.553 59.7444,119.296 58.1372,119.194 C54.8892,118.99 51.6782,118.304 48.4565,117.791 C46.4548,117.472 44.4548,117.129 42.4691,116.7 C41.5746,116.506 40.7085,116.17 39.824,115.923 C38.8379,115.648 37.8516,115.371 36.858,115.133 C34.3983,114.543 31.8802,114.233 29.4652,113.439 C27.7927,112.89 26.1076,112.216 24.6556,111.123 C23.4432,110.21 22.6381,108.74 21.6343,107.543 C20.9161,106.687 20.0075,105.991 19.4898,104.964 C18.7234,103.443 18.3136,101.719 17.8544,100.045 C17.5014,98.7582 17.4194,97.3872 17.0591,96.1028 C16.7667,95.0603 15.931,94.1883 15.9045,93.0946 C15.8748,91.8669 17.1178,90.7925 16.9013,89.5893 C16.7922,88.9828 15.6935,89.8106 15.4084,90.3377 Z" style="stroke:none;fill-rule:evenodd;fill:#000000;fill-opacity:1;"/>
        </g>
        <g id="Shape32">
            <desc shapeID="32" type="0" basicInfo-basicType="0" basicInfo-roundedRectRadius="12" basicInfo-polygonSides="6" basicInfo-starPoints="5" bounding="rect(-8.32685,-24.3177,16.6539,48.6354)" text="" font-familyName="Helvetica" font-pixelSize="20" font-bold="0" font-underline="0" font-alignment="1" strokeStyle="0" markerStart="0" markerEnd="0" shadowEnabled="0" shadowOffsetX="0" shadowOffsetY="2" shadowBlur="4" shadowOpacity="160" blurEnabled="0" blurRadius="4" transform="matrix(0.20203,0,0,0.229966,66.4294,113.721)" pers-center="0,0" pers-size="0,0" pers-start="0,0" pers-end="0,0" locked="0" mesh="" flag=""/>
            <path id="shapePath32" d="M64.7753,118.14 C64.6438,117.056 65.0036,115.963 65.2192,114.898 C65.4731,113.642 65.927,112.447 66.1809,111.192 C66.3598,110.308 66.0232,109.212 66.5138,108.497 C66.8251,108.044 67.8314,107.968 68.0305,108.497 C68.344,109.33 67.659,110.26 67.5127,111.15 C67.3013,112.436 67.2362,113.755 66.9579,115.024 C66.6446,116.452 66.5493,118.067 65.7431,119.218 C65.4619,119.62 64.8369,118.649 64.7753,118.14 Z" style="stroke:none;fill-rule:evenodd;fill:#000000;fill-opacity:1;"/>
        </g>
        <g id="Shape33">
            <desc shapeID="33" type="0" basicInfo-basicType="0" basicInfo-roundedRectRadius="12" basicInfo-polygonSides="6" basicInfo-starPoints="5" bounding="rect(-20.5581,-28.4798,41.1161,56.9595)" text="" font-familyName="Helvetica" font-pixelSize="20" font-bold="0" font-underline="0" font-alignment="1" strokeStyle="0" markerStart="0" markerEnd="0" shadowEnabled="0" shadowOffsetX="0" shadowOffsetY="2" shadowBlur="4" shadowOpacity="160" blurEnabled="0" blurRadius="4" transform="matrix(0.20203,0,0,0.229966,71.716,115.074)" pers-center="0,0" pers-size="0,0" pers-start="0,0" pers-end="0,0" locked="0" mesh="" flag=""/>
            <path id="shapePath33" d="M68.0314,119.524 C69.486,118.743 71.2055,118.795 72.6884,118.086 C73.2854,117.801 74.0007,117.328 74.1322,116.607 C74.2144,116.156 73.3714,116.234 73.0854,115.908 C72.7291,115.503 72.5309,114.95 72.2552,114.47 C71.9172,113.882 71.1114,113.389 71.2443,112.703 C71.3732,112.038 72.5383,112.29 72.7965,111.676 C73.1553,110.823 72.4009,109.622 72.8689,108.841 C73.1611,108.353 74.1554,108.457 74.4211,108.964 C74.7586,109.608 74.161,110.437 74.0963,111.183 C74.0404,111.824 74.2971,112.529 74.0601,113.114 C73.888,113.539 72.8959,113.406 73.0132,113.854 C73.1914,114.535 74.0924,114.582 74.5654,115.045 C75.0495,115.52 75.9378,115.926 75.8651,116.648 C75.7638,117.653 74.8873,118.395 74.1684,118.99 C73.3876,119.636 72.3964,119.864 71.497,120.264 C70.4224,120.741 69.3922,121.454 68.2481,121.62 C67.9287,121.666 67.6097,121.199 67.5721,120.835 C67.5238,120.368 67.658,119.725 68.0314,119.524 Z" style="stroke:none;fill-rule:evenodd;fill:#000000;fill-opacity:1;"/>
        </g>
        <g id="Shape34">
            <desc shapeID="34" type="0" basicInfo-basicType="0" basicInfo-roundedRectRadius="12" basicInfo-polygonSides="6" basicInfo-starPoints="5" bounding="rect(-78.4064,-30.5057,156.813,61.0113)" text="" font-familyName="Helvetica" font-pixelSize="20" font-bold="0" font-underline="0" font-alignment="1" strokeStyle="0" markerStart="0" markerEnd="0" shadowEnabled="0" shadowOffsetX="0" shadowOffsetY="2" shadowBlur="4" shadowOpacity="160" blurEnabled="0" blurRadius="4" transform="matrix(0.20203,0,0,0.229966,145.241,119.706)" pers-center="0,0" pers-size="0,0" pers-start="0,0" pers-end="0,0" locked="0" mesh="" flag=""/>
            <path id="shapePath34" d="M129.499,117.867 C131.312,119.825 133.827,120.762 136.158,121.787 C136.858,122.095 137.539,122.322 138.262,122.551 C139.074,122.809 139.807,122.919 140.613,123.199 C141.995,123.679 143.459,123.766 144.884,124.035 C146.597,124.359 148.303,124.751 150.028,124.976 C150.576,125.048 151.833,125.462 152.365,125.627 C153.671,126.03 154.128,126.992 155.447,126.649 C156.591,126.352 156.969,124.59 157.514,123.408 C158.799,120.617 160.01,117.761 160.912,114.782 C161.103,114.153 161.233,113.134 160.729,112.796 C160.227,112.459 159.391,112.992 159.121,113.58 C157.925,116.183 157.621,119.22 156.549,121.892 C156.165,122.85 155.585,123.784 154.804,124.349 C154.437,124.615 153.928,124.406 153.518,124.239 C152.634,123.88 151.868,123.402 150.946,123.199 C149.999,122.99 149.007,123.048 148.053,122.885 C145.817,122.504 143.613,121.872 141.44,121.16 C140.038,120.701 139.079,120.774 137.676,120.323 C137.055,120.123 136.026,119.486 135.423,119.226 C134.091,118.651 133.054,117.246 131.658,116.926 C130.902,116.752 128.94,117.263 129.499,117.867 Z" style="stroke:none;fill-rule:evenodd;fill:#000000;fill-opacity:1;"/>
        </g>
        <g id="Shape35">
            <desc shapeID="35" type="0" basicInfo-basicType="0" basicInfo-roundedRectRadius="12" basicInfo-polygonSides="6" basicInfo-starPoints="5" bounding="rect(-83.134,-72.5199,166.27,145.039)" text="" font-familyName="Helvetica" font-pixelSize="20" font-bold="0" font-underline="0" font-alignment="1" strokeStyle="0" markerStart="0" markerEnd="0" shadowEnabled="0" shadowOffsetX="0" shadowOffsetY="2" shadowBlur="4" shadowOpacity="160" blurEnabled="0" blurRadius="4" transform="matrix(0.20203,0,0,0.229966,153.524,113.234)" pers-center="0,0" pers-size="0,0" pers-start="0,0" pers-end="0,0" locked="0" mesh="" flag=""/>
            <path id="shapePath35" d="M138.385,98.3201 C140.747,98.9359 143.014,99.9589 145.31,100.841 C147.51,101.685 149.671,102.658 151.873,103.499 C153.551,104.14 155.275,104.621 156.946,105.286 C157.774,105.616 158.615,105.952 159.361,106.478 C161.056,107.671 162.594,109.131 164.233,110.419 C165.063,111.071 165.905,111.707 166.77,112.298 C167.382,112.716 168.301,112.742 168.662,113.444 C168.903,113.911 168.538,114.662 168.139,114.956 C167.069,115.744 165.797,116.143 164.555,116.469 C163.901,116.64 163.158,116.119 162.542,116.423 C162.118,116.632 161.705,117.3 161.858,117.798 C162.181,118.852 163.063,119.566 163.75,120.364 C164.284,120.985 164.903,121.505 165.506,122.037 C165.971,122.446 166.475,122.66 166.606,123.312 C166.749,124.017 166.676,124.771 166.133,125.148 C164.75,126.11 163.03,126.236 161.536,126.952 C161.072,127.175 160.77,127.735 160.3,127.943 C159.775,128.176 159.187,128.333 158.629,128.24 C158.069,128.147 157.662,127.408 157.097,127.408 C156.76,127.408 156.24,127.903 156.4,128.24 C156.777,129.036 157.487,129.861 158.281,129.905 C159.824,129.991 161.292,129.103 162.773,128.597 C164,128.177 165.291,127.873 166.394,127.13 C167.186,126.598 167.878,125.795 168.309,124.871 C168.73,123.972 169.338,122.731 168.849,121.878 C168.087,120.55 166.351,120.439 165.228,119.5 C164.92,119.243 164.346,118.629 164.653,118.37 C165.648,117.533 167.112,117.753 168.17,117.023 C168.902,116.518 169.5,115.692 169.835,114.795 C170.215,113.78 170.463,112.586 170.229,111.514 C170.122,111.023 169.397,111.157 168.994,110.944 C168.408,110.634 167.829,110.308 167.267,109.947 C165.12,108.569 163.023,107.094 160.871,105.727 C159.908,105.115 158.938,104.51 157.926,104.011 C156.446,103.282 154.935,102.632 153.406,102.048 C151.437,101.295 149.413,100.737 147.438,100.005 C145.985,99.4672 144.575,98.7863 143.125,98.2383 C141.664,97.6862 140.163,97.279 138.709,96.7066 C137.142,96.09 135.331,97.524 138.385,98.3201 Z" style="stroke:none;fill-rule:evenodd;fill:#000000;fill-opacity:1;"/>
        </g>
        <g id="Shape36">
            <desc shapeID="36" type="0" basicInfo-basicType="0" basicInfo-roundedRectRadius="12" basicInfo-polygonSides="6" basicInfo-starPoints="5" bounding="rect(0,0,0,0)" text="" font-familyName="Helvetica" font-pixelSize="20" font-bold="0" font-underline="0" font-alignment="1" strokeStyle="0" markerStart="0" markerEnd="0" shadowEnabled="0" shadowOffsetX="0" shadowOffsetY="2" shadowBlur="4" shadowOpacity="160" blurEnabled="0" blurRadius="4" transform="matrix(0.20203,0,-0.0118556,0.201446,10.7508,8.88123)" pers-center="0,0" pers-size="0,0" pers-start="0,0" pers-end="0,0" locked="0" mesh="" flag=""/>
            <path id="shapePath36" d="M10.7508,8.88123 Z" style="stroke:none;fill-rule:evenodd;fill:#000000;fill-opacity:1;"/>
        </g>
        <g id="Shape37">
            <desc shapeID="37" type="0" basicInfo-basicType="0" basicInfo-roundedRectRadius="12" basicInfo-polygonSides="6" basicInfo-starPoints="5" bounding="rect(-28.3471,-32.9454,56.6942,65.8909)" text="" font-familyName="Helvetica" font-pixelSize="20" font-bold="0" font-underline="0" font-alignment="1" strokeStyle="0" markerStart="0" markerEnd="0" shadowEnabled="0" shadowOffsetX="0" shadowOffsetY="2" shadowBlur="4" shadowOpacity="160" blurEnabled="0" blurRadius="4" transform="matrix(0.20203,0,-0.0118556,0.201446,49.5223,28.7755)" pers-center="0,0" pers-size="0,0" pers-start="0,0" pers-end="0,0" locked="0" mesh="" flag=""/>
            <path id="shapePath37" d="M44.5728,35.3011 C45.0371,35.7841 46.0335,34.5772 46.1759,33.8959 C46.4093,32.7781 45.659,31.7217 45.5538,30.6046 C45.4641,29.6533 45.5601,28.6825 45.5938,27.7202 C45.6256,26.7996 45.5168,25.8608 45.7503,24.9577 C45.8009,24.7619 46.1715,24.7289 46.3431,24.8223 C47.2093,25.2938 47.9574,25.948 48.7153,26.5719 C49.4568,27.1821 50.1109,27.89 50.8357,28.5192 C51.1913,28.8277 51.5697,29.0818 51.779,29.5056 C52.0248,30.0031 51.9315,30.5369 52.0955,31.0705 C52.2629,31.6153 52.577,32.1073 52.9275,32.5493 C53.2432,32.9473 53.5447,33.606 54.0692,33.5593 C54.5696,33.5148 54.9899,32.8599 55.0377,32.3618 C55.0876,31.8438 54.5455,31.478 54.312,31.0289 C53.9951,30.419 53.6911,29.8022 53.3865,29.1857 C53.072,28.549 52.9793,27.744 52.455,27.2695 C51.0789,26.0242 49.3107,25.2685 47.8247,24.1523 C47.1224,23.6248 46.6816,22.772 45.9064,22.3513 C45.5126,22.1376 44.8307,22.0012 44.5272,22.3629 C44.0534,22.927 44.1944,23.7744 44.1124,24.4884 C43.9644,25.7763 43.8822,27.0685 43.8383,28.3582 C43.8025,29.4078 43.764,30.4642 43.8736,31.5003 C44.0097,32.7865 43.6943,34.3872 44.5728,35.3011 Z" style="stroke:none;fill-rule:evenodd;fill:#000000;fill-opacity:1;"/>
        </g>
        <g id="Shape38">
            <desc shapeID="38" type="0" basicInfo-basicType="0" basicInfo-roundedRectRadius="12" basicInfo-polygonSides="6" basicInfo-starPoints="5" bounding="rect(-40.6617,-28.9925,81.3236,57.9853)" text="" font-familyName="Helvetica" font-pixelSize="20" font-bold="0" font-underline="0" font-alignment="1" strokeStyle="0" markerStart="0" markerEnd="0" shadowEnabled="0" shadowOffsetX="0" shadowOffsetY="2" shadowBlur="4" shadowOpacity="160" blurEnabled="0" blurRadius="4" transform="matrix(0.20203,0,-0.0118556,0.201446,135.779,42.2289)" pers-center="0,0" pers-size="0,0" pers-start="0,0" pers-end="0,0" locked="0" mesh="" flag=""/>
            <path id="shapePath38" d="M128.594,42.9845 C128.053,43.5227 127.154,44.342 127.497,44.9778 C127.799,45.5398 128.856,44.8891 129.445,44.5641 C130.69,43.8763 131.644,42.7201 132.876,42.0068 C134.045,41.3301 135.32,40.8574 136.59,40.4272 C138.213,39.8775 139.858,39.3532 141.535,39.0734 C141.81,39.0276 142.272,39.2134 142.227,39.4871 C142.026,40.7173 141.212,41.8112 140.888,43.0223 C140.531,44.356 140.195,45.724 140.196,47.0838 C140.197,47.4943 140.491,47.9881 140.893,48.0616 C141.26,48.1289 141.704,47.7433 141.838,47.3846 C142.244,46.3019 142.182,45.1228 142.414,44.0001 C142.533,43.4284 142.724,42.87 142.891,42.3076 C143.32,40.8641 143.924,39.4543 144.202,37.9827 C144.295,37.4879 144.38,36.8024 143.986,36.5162 C143.57,36.2129 142.913,36.5267 142.393,36.6667 C140.667,37.1311 138.99,37.7915 137.28,38.3212 C135.955,38.7318 134.556,38.9054 133.289,39.4871 C132.602,39.8021 132.152,40.4999 131.543,40.9538 C130.585,41.6672 129.442,42.1422 128.594,42.9845 Z" style="stroke:none;fill-rule:evenodd;fill:#000000;fill-opacity:1;"/>
        </g>
        <g id="Shape39">
            <desc shapeID="39" type="0" basicInfo-basicType="0" basicInfo-roundedRectRadius="12" basicInfo-polygonSides="6" basicInfo-starPoints="5" bounding="rect(0,0,0,0)" text="" font-familyName="Helvetica" font-pixelSize="20" font-bold="0" font-underline="0" font-alignment="1" strokeStyle="0" markerStart="0" markerEnd="0" shadowEnabled="0" shadowOffsetX="0" shadowOffsetY="2" shadowBlur="4" shadowOpacity="160" blurEnabled="0" blurRadius="4" transform="matrix(0.20203,0,0,0.229966,66.1712,129.911)" pers-center="0,0" pers-size="0,0" pers-start="0,0" pers-end="0,0" locked="0" mesh="" flag=""/>
            <path id="shapePath39" d="M66.1712,129.911 Z" style="stroke:none;fill-rule:evenodd;fill:#000000;fill-opacity:1;"/>
        </g>
        <g id="Shape40">
            <desc shapeID="40" type="0" basicInfo-basicType="0" basicInfo-roundedRectRadius="12" basicInfo-polygonSides="6" basicInfo-starPoints="5" bounding="rect(0,0,0,0)" text="" font-familyName="Helvetica" font-pixelSize="20" font-bold="0" font-underline="0" font-alignment="1" strokeStyle="0" markerStart="0" markerEnd="0" shadowEnabled="0" shadowOffsetX="0" shadowOffsetY="2" shadowBlur="4" shadowOpacity="160" blurEnabled="0" blurRadius="4" transform="matrix(0.20203,0,0,0.229966,99.4604,126.67)" pers-center="0,0" pers-size="0,0" pers-start="0,0" pers-end="0,0" locked="0" mesh="" flag=""/>
            <path id="shapePath40" d="M99.4604,126.67 Z" style="stroke:none;fill-rule:evenodd;fill:#000000;fill-opacity:1;"/>
        </g>
        <g id="Shape41">
            <desc shapeID="41" type="0" basicInfo-basicType="0" basicInfo-roundedRectRadius="12" basicInfo-polygonSides="6" basicInfo-starPoints="5" bounding="rect(0,0,0,0)" text="" font-familyName="Helvetica" font-pixelSize="20" font-bold="0" font-underline="0" font-alignment="1" strokeStyle="0" markerStart="0" markerEnd="0" shadowEnabled="0" shadowOffsetX="0" shadowOffsetY="2" shadowBlur="4" shadowOpacity="160" blurEnabled="0" blurRadius="4" transform="matrix(0.20203,0,0,0.229966,103.314,130.256)" pers-center="0,0" pers-size="0,0" pers-start="0,0" pers-end="0,0" locked="0" mesh="" flag=""/>
            <path id="shapePath41" d="M103.314,130.256 Z" style="stroke:none;fill-rule:evenodd;fill:#000000;fill-opacity:1;"/>
        </g>
        <g id="Shape42">
            <desc shapeID="42" type="0" basicInfo-basicType="0" basicInfo-roundedRectRadius="12" basicInfo-polygonSides="6" basicInfo-starPoints="5" bounding="rect(-173.233,-38.4754,346.467,76.9509)" text="" font-familyName="Helvetica" font-pixelSize="20" font-bold="0" font-underline="0" font-alignment="1" strokeStyle="0" markerStart="0" markerEnd="0" shadowEnabled="0" shadowOffsetX="0" shadowOffsetY="2" shadowBlur="4" shadowOpacity="160" blurEnabled="0" blurRadius="4" transform="matrix(0.20203,0,-0.0118556,0.201446,90.7665,38.2513)" pers-center="0,0" pers-size="0,0" pers-start="0,0" pers-end="0,0" locked="0" mesh="" flag=""/>
            <path id="shapePath42" d="M56.08,34.1882 C56.681,34.9068 57.9079,34.7892 58.8722,34.8152 C59.878,34.8424 60.8781,34.4544 61.8862,34.345 C65.6954,33.9318 69.5141,33.7188 73.3198,33.2479 C74.4464,33.1087 75.5357,32.5322 76.6635,32.5166 C78.0774,32.4969 79.4039,33.1696 80.8179,33.1434 C82.2751,33.1166 83.7095,32.2967 85.1601,32.3598 C87.3753,32.4562 89.4587,33.2749 91.6354,33.6135 C93.0445,33.8328 94.5232,33.7116 95.907,34.0314 C98.9847,34.7429 101.983,35.7158 104.971,36.6957 C107.88,37.6497 110.844,38.5147 113.589,39.8302 C114.807,40.4144 115.564,41.6812 116.742,42.3378 C118.462,43.2966 120.439,43.7702 122.212,44.6362 C122.944,44.9934 123.414,45.8579 124.228,45.9946 C124.665,46.0678 125.186,45.59 125.325,45.1586 C125.474,44.6952 125.286,44.1052 124.933,43.8004 C124.262,43.2199 123.325,43.0141 122.483,42.7033 C121.339,42.2814 120.022,42.2301 118.985,41.6064 C117.113,40.4811 115.804,38.9025 113.895,37.8367 C112.927,37.2963 111.641,37.2111 110.565,36.9049 C108.269,36.2515 106.042,35.4092 103.781,34.6584 C101.691,33.9639 99.6665,33.0756 97.5124,32.5689 C95.652,32.1311 93.6838,32.1549 91.7924,31.8376 C89.6346,31.4753 87.5633,30.7136 85.3725,30.5315 C83.5512,30.38 81.6903,30.8343 79.8529,30.8448 C78.6793,30.8516 77.5334,30.5003 76.3582,30.5837 C74.8107,30.6934 73.2949,31.2255 71.7509,31.4197 C71.0702,31.5052 70.3892,31.3484 69.7076,31.4197 C68.0469,31.5928 66.3981,31.9355 64.7398,32.1508 C63.1771,32.3536 61.608,32.46 60.046,32.6734 C59.1846,32.791 58.2954,32.8296 57.4738,33.1434 C56.9356,33.349 55.7285,33.768 56.08,34.1882 Z" style="stroke:none;fill-rule:evenodd;fill:#060606;fill-opacity:1;"/>
        </g>
        <g id="Shape43">
            <desc shapeID="43" type="0" basicInfo-basicType="0" basicInfo-roundedRectRadius="12" basicInfo-polygonSides="6" basicInfo-starPoints="5" bounding="rect(0,0,0,0)" text="" font-familyName="Helvetica" font-pixelSize="20" font-bold="0" font-underline="0" font-alignment="1" strokeStyle="0" markerStart="0" markerEnd="0" shadowEnabled="0" shadowOffsetX="0" shadowOffsetY="2" shadowBlur="4" shadowOpacity="160" blurEnabled="0" blurRadius="4" transform="matrix(0.20203,0,-0.0118556,0.201446,81.4648,32.8442)" pers-center="0,0" pers-size="0,0" pers-start="0,0" pers-end="0,0" locked="0" mesh="" flag=""/>
            <path id="shapePath43" d="M81.4648,32.8442 Z" style="stroke:none;fill-rule:evenodd;fill:#000000;fill-opacity:1;"/>
        </g>
        <g id="Shape44">
            <desc shapeID="44" type="0" basicInfo-basicType="0" basicInfo-roundedRectRadius="12" basicInfo-polygonSides="6" basicInfo-starPoints="5" bounding="rect(-6.44819,-19.6947,12.8967,39.3895)" text="" font-familyName="Helvetica" font-pixelSize="20" font-bold="0" font-underline="0" font-alignment="1" strokeStyle="0" markerStart="0" markerEnd="0" shadowEnabled="0" shadowOffsetX="0" shadowOffsetY="2" shadowBlur="4" shadowOpacity="160" blurEnabled="0" blurRadius="4" transform="matrix(0.20203,0,-0.0118556,0.201446,80.5066,36.6691)" pers-center="0,0" pers-size="0,0" pers-start="0,0" pers-end="0,0" locked="0" mesh="" flag=""/>
            <path id="shapePath44" d="M81.2538,32.7133 C80.5238,32.8882 80.4503,34.0133 80.1948,34.7203 C79.9484,35.4026 79.9428,36.1369 79.7641,36.8361 C79.5634,37.6218 79.0761,38.37 79.058,39.1702 C79.0468,39.658 79.3325,40.1363 79.6823,40.4573 C79.8861,40.6443 80.3098,40.7147 80.5318,40.5226 C80.7316,40.3498 80.5124,40.0125 80.4891,39.7591 C80.4634,39.4813 80.3024,39.2034 80.3846,38.9302 C80.6559,38.0311 81.2246,37.2268 81.5219,36.3344 C81.7414,35.676 81.9758,34.9828 81.9258,34.3057 C81.8826,33.7222 81.8357,32.5742 81.2538,32.7133 Z" style="stroke:none;fill-rule:evenodd;fill:#000000;fill-opacity:1;"/>
        </g>
        <g id="Shape45">
            <desc shapeID="45" type="0" basicInfo-basicType="0" basicInfo-roundedRectRadius="12" basicInfo-polygonSides="6" basicInfo-starPoints="5" bounding="rect(-5.85532,-18.9371,11.7107,37.8741)" text="" font-familyName="Helvetica" font-pixelSize="20" font-bold="0" font-underline="0" font-alignment="1" strokeStyle="0" markerStart="0" markerEnd="0" shadowEnabled="0" shadowOffsetX="0" shadowOffsetY="2" shadowBlur="4" shadowOpacity="160" blurEnabled="0" blurRadius="4" transform="matrix(0.20203,0,-0.0118556,0.201446,86.0609,37.4205)" pers-center="0,0" pers-size="0,0" pers-start="0,0" pers-end="0,0" locked="0" mesh="" flag=""/>
            <path id="shapePath45" d="M86.3757,33.7823 C85.8371,34.636 85.6818,35.6614 85.3992,36.618 C85.1531,37.4523 84.7499,38.2961 84.791,39.1484 C84.8258,39.8696 85.1288,40.6018 85.6161,41.1117 C85.8321,41.3375 86.3176,41.2213 86.5837,41.0244 C86.7909,40.8711 86.7813,40.5257 86.7369,40.2827 C86.6712,39.9223 86.3253,39.664 86.2696,39.301 C86.1899,38.7818 86.1964,38.2271 86.3414,37.7086 C86.5446,36.982 87.1363,36.3715 87.2947,35.6363 C87.4273,35.0218 87.458,34.3268 87.1881,33.7823 C87.071,33.5459 86.5235,33.5479 86.3757,33.7823 Z" style="stroke:none;fill-rule:evenodd;fill:#000000;fill-opacity:1;"/>
        </g>
        <g id="Shape46">
            <desc shapeID="46" type="0" basicInfo-basicType="0" basicInfo-roundedRectRadius="12" basicInfo-polygonSides="6" basicInfo-starPoints="5" bounding="rect(-5.00112,-16.3115,10.0021,32.6229)" text="" font-familyName="Helvetica" font-pixelSize="20" font-bold="0" font-underline="0" font-alignment="1" strokeStyle="0" markerStart="0" markerEnd="0" shadowEnabled="0" shadowOffsetX="0" shadowOffsetY="2" shadowBlur="4" shadowOpacity="160" blurEnabled="0" blurRadius="4" transform="matrix(0.20203,0,-0.0118556,0.201446,92.4307,38.439)" pers-center="0,0" pers-size="0,0" pers-start="0,0" pers-end="0,0" locked="0" mesh="" flag=""/>
            <path id="shapePath46" d="M91.9855,35.3896 C91.7267,36.0366 92.1262,36.7476 92.0611,37.4304 C91.9778,38.3006 91.6993,39.1529 91.5436,40.0175 C91.4472,40.5529 91.1306,41.1299 91.3055,41.6294 C91.3859,41.8593 91.8842,41.6277 92.0347,41.4215 C92.5945,40.6535 93.0061,39.7766 93.3051,38.8864 C93.4835,38.3559 93.5018,37.7781 93.4414,37.2353 C93.3673,36.569 93.3148,35.8292 92.9076,35.3128 C92.7232,35.0791 92.1013,35.0997 91.9855,35.3896 Z" style="stroke:none;fill-rule:evenodd;fill:#000000;fill-opacity:1;"/>
        </g>
    </g>
    <g id="Layer6" name="old_text" opacity="1">
        <g id="Shape47">
            <desc shapeID="47" type="0" basicInfo-basicType="0" basicInfo-roundedRectRadius="12" basicInfo-polygonSides="6" basicInfo-starPoints="5" bounding="rect(-3.69545,-15.4592,7.391,30.9186)" text="" font-familyName="" font-pixelSize="20" font-bold="0" font-underline="0" font-alignment="1" strokeStyle="0" markerStart="0" markerEnd="0" shadowEnabled="0" shadowOffsetX="0" shadowOffsetY="2" shadowBlur="4" shadowOpacity="160" blurEnabled="0" blurRadius="4" transform="matrix(0.34556,0.0214962,-0.0214962,0.34556,123.674,139.149)" pers-center="0,0" pers-size="0,0" pers-start="0,0" pers-end="0,0" locked="0" mesh="" flag=""/>
            <path id="shapePath47" d="M122.99,134.151 C122.416,135.017 122.301,140.214 122.848,143.682 C122.963,144.626 123.682,144.775 124.388,144.021 C124.759,143.627 124.781,143.282 124.524,142.399 C124.355,141.764 124.205,139.708 124.185,137.799 C124.2,135.891 124.13,134.222 124.037,134.043 C123.819,133.648 123.329,133.721 122.99,134.151 Z" style="stroke:none;fill-rule:evenodd;fill:#000000;fill-opacity:1;"/>
        </g>
        <g id="Shape48">
            <desc shapeID="48" type="0" basicInfo-basicType="0" basicInfo-roundedRectRadius="12" basicInfo-polygonSides="6" basicInfo-starPoints="5" bounding="rect(-9.68803,-19.8323,19.3761,39.6645)" text="" font-familyName="" font-pixelSize="20" font-bold="0" font-underline="0" font-alignment="1" strokeStyle="0" markerStart="0" markerEnd="0" shadowEnabled="0" shadowOffsetX="0" shadowOffsetY="2" shadowBlur="4" shadowOpacity="160" blurEnabled="0" blurRadius="4" transform="matrix(0.34556,0.0214962,-0.0214962,0.34556,112.408,140.363)" pers-center="0,0" pers-size="0,0" pers-start="0,0" pers-end="0,0" locked="0" mesh="" flag=""/>
            <path id="shapePath48" d="M110.215,133.738 C110.092,134.043 110.068,134.423 110.161,134.602 C110.252,134.816 110.099,135.049 109.781,135.133 C109.321,135.278 109.242,136.002 109.141,140.401 C109.024,145.632 109.308,147.21 110.251,147.096 C110.847,146.994 110.989,145.823 110.844,142.588 C110.751,140.744 110.934,140.582 112.783,140.419 C113.865,140.313 114.124,140.052 115.134,138.311 C115.954,136.835 116.17,136.155 115.952,135.76 C115.453,134.862 113.845,133.929 112.098,133.578 C110.798,133.289 110.414,133.334 110.215,133.738 M113.509,135.99 C114.747,136.726 113.771,138.469 111.916,138.735 C110.793,138.943 110.795,138.908 110.879,137.56 C110.926,136.8 110.876,135.93 110.792,135.612 C110.647,135.152 110.824,135.094 111.747,135.325 C112.395,135.504 113.174,135.795 113.509,135.99 Z" style="stroke:none;fill-rule:evenodd;fill:#000000;fill-opacity:1;"/>
        </g>
        <g id="Shape49">
            <desc shapeID="49" type="0" basicInfo-basicType="0" basicInfo-roundedRectRadius="12" basicInfo-polygonSides="6" basicInfo-starPoints="5" bounding="rect(-12.427,-16.79,24.8539,33.5798)" text="" font-familyName="" font-pixelSize="20" font-bold="0" font-underline="0" font-alignment="1" strokeStyle="0" markerStart="0" markerEnd="0" shadowEnabled="0" shadowOffsetX="0" shadowOffsetY="2" shadowBlur="4" shadowOpacity="160" blurEnabled="0" blurRadius="4" transform="matrix(0.34556,0.0214962,-0.0214962,0.34556,134.359,141.694)" pers-center="0,0" pers-size="0,0" pers-start="0,0" pers-end="0,0" locked="0" mesh="" flag=""/>
            <path id="shapePath49" d="M134.204,136.236 C133.253,136.455 132.778,136.841 132.228,137.883 C131.015,140.097 130,142.462 129.953,143.222 C129.871,144.535 131.85,146.185 134.5,147.078 C137.22,147.976 138.092,147.891 137.99,146.74 C137.96,146.114 137.593,145.883 136.059,145.44 C133.094,144.597 132.053,144.046 131.966,143.208 C131.882,142.336 132.689,139.958 133.375,138.96 C134.172,137.865 135.809,137.203 137.003,137.52 C138.301,137.844 139.158,137.446 138.929,136.669 C138.726,136.032 136.277,135.81 134.204,136.236 Z" style="stroke:none;fill-rule:evenodd;fill:#000000;fill-opacity:1;"/>
        </g>
        <g id="Shape50">
            <desc shapeID="50" type="0" basicInfo-basicType="0" basicInfo-roundedRectRadius="12" basicInfo-polygonSides="6" basicInfo-starPoints="5" bounding="rect(-16.7665,-19.0565,33.5331,38.113)" text="" font-familyName="" font-pixelSize="20" font-bold="0" font-underline="0" font-alignment="1" strokeStyle="0" markerStart="0" markerEnd="0" shadowEnabled="0" shadowOffsetX="0" shadowOffsetY="2" shadowBlur="4" shadowOpacity="160" blurEnabled="0" blurRadius="4" transform="matrix(0.34556,0.0214962,-0.0214962,0.34556,94.6263,140.166)" pers-center="0,0" pers-size="0,0" pers-start="0,0" pers-end="0,0" locked="0" mesh="" flag=""/>
            <path id="shapePath50" d="M98.9784,134.523 C98.8511,134.897 98.5552,135.19 98.3478,135.178 C98.106,135.162 97.7043,135.484 97.4367,135.884 C97.1668,136.318 96.5753,136.906 96.0699,137.221 C95.0573,137.887 94.5518,137.647 92.1582,135.417 C90.8469,134.191 90.5099,134.031 89.8687,134.303 C89.4757,134.487 89.1452,134.778 89.1366,134.917 C89.1108,135.331 92.3406,138.62 92.7898,138.648 C92.9625,138.658 92.9864,138.833 92.8698,139.034 C92.7209,139.198 92.8312,139.656 93.0883,139.984 C93.6003,140.675 94.1583,143.416 94.068,144.867 C93.9755,146.353 95.2933,147.476 95.8136,146.363 C96.0143,145.925 95.5677,140.277 95.3084,139.984 C95.2436,139.91 96.5003,138.67 98.1131,137.279 C99.6935,135.851 100.92,134.54 100.795,134.324 C100.455,133.643 99.1963,133.808 98.9784,134.523 Z" style="stroke:none;fill-rule:evenodd;fill:#000000;fill-opacity:1;"/>
        </g>
        <g id="Shape51">
            <desc shapeID="51" type="0" basicInfo-basicType="0" basicInfo-roundedRectRadius="12" basicInfo-polygonSides="6" basicInfo-starPoints="5" bounding="rect(-18.3875,-27.0012,36.7749,54.0025)" text="" font-familyName="" font-pixelSize="20" font-bold="0" font-underline="0" font-alignment="1" strokeStyle="0" markerStart="0" markerEnd="0" shadowEnabled="0" shadowOffsetX="0" shadowOffsetY="2" shadowBlur="4" shadowOpacity="160" blurEnabled="0" blurRadius="4" transform="matrix(0.34556,0.0214962,-0.0214962,0.34556,66.3857,141.823)" pers-center="0,0" pers-size="0,0" pers-start="0,0" pers-end="0,0" locked="0" mesh="" flag=""/>
            <path id="shapePath51" d="M64.5003,132.794 C64.3298,133.304 61.5008,140.864 60.8813,142.456 C60.18,144.251 60.029,145.004 59.6992,147.516 C59.3696,150.028 59.6183,151.05 60.469,150.756 C60.8578,150.641 61.121,149.756 61.3968,147.553 C61.7847,144.663 62.4493,142.345 62.9352,142.341 C63.0756,142.315 64.3585,142.325 65.8508,142.314 L68.4878,142.304 L69.4623,143.926 C69.9982,144.792 70.4196,145.824 70.3959,146.204 C70.3701,146.619 70.6596,146.984 71.1025,147.116 C73.1414,147.797 72.8947,146.186 70.3341,141.622 C69.1132,139.499 67.9313,137.309 67.685,136.808 C67.4062,136.271 67.1015,135.593 66.9459,135.305 C66.7558,135.016 66.4575,134.234 66.2543,133.597 C65.8738,132.464 64.796,131.945 64.5003,132.794 M65.8213,137.213 C66.0633,137.783 66.4956,138.642 66.8088,139.182 C67.308,140.08 67.3057,140.115 66.7075,140.251 C65.373,140.515 63.4788,140.293 63.5025,139.913 C63.5434,139.256 64.9118,136.22 65.1881,136.237 C65.2917,136.243 65.6116,136.679 65.8213,137.213 Z" style="stroke:none;fill-rule:evenodd;fill:#000000;fill-opacity:1;"/>
        </g>
        <g id="Shape52">
            <desc shapeID="52" type="0" basicInfo-basicType="0" basicInfo-roundedRectRadius="12" basicInfo-polygonSides="6" basicInfo-starPoints="5" bounding="rect(-15.2548,-17.299,30.5096,34.5981)" text="" font-familyName="" font-pixelSize="20" font-bold="0" font-underline="0" font-alignment="1" strokeStyle="0" markerStart="0" markerEnd="0" shadowEnabled="0" shadowOffsetX="0" shadowOffsetY="2" shadowBlur="4" shadowOpacity="160" blurEnabled="0" blurRadius="4" transform="matrix(0.34556,0.0214962,-0.0214962,0.34556,81.0814,140.309)" pers-center="0,0" pers-size="0,0" pers-start="0,0" pers-end="0,0" locked="0" mesh="" flag=""/>
            <path id="shapePath52" d="M76.552,134.238 C76.0878,134.452 76.0404,134.657 76.2825,135.227 C76.5591,135.799 76.9673,135.929 78.6951,136.036 L80.803,136.167 L80.4922,137.258 C80.3154,137.871 79.737,139.362 79.1801,140.507 C78.6212,141.686 78.073,143.248 77.9264,143.932 C77.6783,145.131 77.7388,145.273 78.7151,145.751 C80.0285,146.387 84.7971,146.684 85.5248,146.139 C85.8141,145.949 86.0515,145.478 86.0731,145.133 C86.1097,144.545 85.9044,144.498 83.613,144.529 C82.2244,144.547 80.7405,144.42 80.3713,144.223 L79.6282,143.899 L80.459,141.696 C80.9165,140.476 81.7322,138.515 82.2913,137.335 C82.8957,135.985 83.161,135.065 82.9666,134.845 C82.5777,134.405 77.2669,133.901 76.552,134.238 Z" style="stroke:none;fill-rule:evenodd;fill:#000000;fill-opacity:1;"/>
        </g>
        <g id="Shape53">
            <desc shapeID="53" type="0" basicInfo-basicType="0" basicInfo-roundedRectRadius="12" basicInfo-polygonSides="6" basicInfo-starPoints="5" bounding="rect(-18.9858,-21.059,37.9718,42.1179)" text="" font-familyName="" font-pixelSize="20" font-bold="0" font-underline="0" font-alignment="1" strokeStyle="0" markerStart="0" markerEnd="0" shadowEnabled="0" shadowOffsetX="0" shadowOffsetY="2" shadowBlur="4" shadowOpacity="160" blurEnabled="0" blurRadius="4" transform="matrix(0.34556,0.0214962,-0.0214962,0.34556,47.7727,141.78)" pers-center="0,0" pers-size="0,0" pers-start="0,0" pers-end="0,0" locked="0" mesh="" flag=""/>
            <path id="shapePath53" d="M41.8154,134.436 C41.4744,134.9 41.1977,141.578 41.4531,143.606 C41.6587,145.319 41.916,146.202 42.7393,148.022 C43.1953,149.057 43.8174,149.095 47.4066,148.278 C48.6721,148.01 50.0391,147.782 50.3846,147.804 C52.5617,147.939 54.5785,146.747 53.9865,145.669 C53.8936,145.49 52.1853,145.627 50.2222,145.955 C48.2245,146.282 46.0541,146.598 45.3566,146.659 L44.0652,146.787 L43.4296,144.735 C42.9388,143.143 42.8175,141.748 42.8944,138.839 C42.9909,136.729 43.0401,134.824 43.055,134.582 C43.0506,134.096 42.1565,133.971 41.8154,134.436 Z" style="stroke:none;fill-rule:evenodd;fill:#000000;fill-opacity:1;"/>
        </g>
    </g>
    <g id="Layer7" name="guide_line" visibility="hidden" opacity="1">
        <g id="Shape54">
            <desc shapeID="54" type="0" basicInfo-basicType="4" basicInfo-roundedRectRadius="12" basicInfo-polygonSides="6" basicInfo-starPoints="5" bounding="rect(-496.658,-496.658,993.317,993.316)" text="" font-familyName="Helvetica" font-pixelSize="20" font-bold="0" font-underline="0" font-alignment="1" strokeStyle="0" markerStart="0" markerEnd="0" shadowEnabled="0" shadowOffsetX="0" shadowOffsetY="2" shadowBlur="4" shadowOpacity="160" blurEnabled="0" blurRadius="4" transform="matrix(0.181012,0,0,0.181012,89.9012,90.0618)" pers-center="0,0" pers-size="0,0" pers-start="0,0" pers-end="0,0" locked="0" mesh="" flag=""/>
            <path id="shapePath54" d="M0,90.0618 C4.57764e-05,40.4107 40.2502,0.160538 89.9013,0.160561 C139.552,0.160561 179.803,40.4107 179.803,90.0618 C179.803,139.713 139.552,179.963 89.9013,179.963 C40.2502,179.963 0,139.713 0,90.0618 Z" style="stroke:#323232;stroke-opacity:1;stroke-width:1;stroke-linejoin:miter;stroke-miterlimit:2;stroke-linecap:round;fill:none;"/>
        </g>
        <g id="Shape55">
            <desc shapeID="55" type="0" basicInfo-basicType="2" basicInfo-roundedRectRadius="150" basicInfo-polygonSides="6" basicInfo-starPoints="5" bounding="rect(-512.204,-512.215,1024.42,1024.41)" text="" font-familyName="Helvetica" font-pixelSize="20" font-bold="0" font-underline="0" font-alignment="1" strokeStyle="0" markerStart="0" markerEnd="0" shadowEnabled="0" shadowOffsetX="0" shadowOffsetY="2" shadowBlur="4" shadowOpacity="160" blurEnabled="0" blurRadius="4" transform="matrix(0.175588,0,0,0.175588,90.0977,89.9391)" pers-center="0,0" pers-size="0,0" pers-start="0,0" pers-end="0,0" locked="0" mesh="" flag=""/>
            <path id="shapePath55" d="M0.160629,26.3382 C0.160629,11.792 11.9527,7.62939e-06 26.499,7.62939e-06 L153.698,7.62939e-06 C168.244,7.62939e-06 180.036,11.792 180.036,26.3382 L180.036,153.537 C180.036,168.083 168.244,179.875 153.698,179.875 L26.499,179.875 C11.9527,179.875 0.160629,168.083 0.160629,153.537 L0.160629,26.3382 Z" style="stroke:#323232;stroke-opacity:1;stroke-width:0.5;stroke-linejoin:miter;stroke-miterlimit:2;stroke-linecap:round;fill:none;"/>
        </g>
    </g>
</svg>
