<?xml version="1.0"?>
<svg version="1.1" xmlns="http://www.w3.org/2000/svg" xmlns:xlink="http://www.w3.org/1999/xlink" width="500" height="100">
    <desc iVinci="yes" version="4.6" gridStep="20" showGrid="no" snapToGrid="no" codePlatform="0"/>
    <g id="Layer1" name="Layer 1" opacity="1">
        <g id="Shape1">
            <desc shapeID="1" type="0" basicInfo-basicType="0" basicInfo-roundedRectRadius="12" basicInfo-polygonSides="6" basicInfo-starPoints="5" bounding="rect(-1142.63,-111.594,2285.27,223.187)" text="LAZYPIC" font-familyName="Avenir" font-pixelSize="300" font-bold="0" font-underline="0" font-alignment="1" strokeStyle="0" markerStart="0" markerEnd="0" shadowEnabled="0" shadowOffsetX="0" shadowOffsetY="2" shadowBlur="4" shadowOpacity="160" blurEnabled="0" blurRadius="4" transform="matrix(0.205627,0,0,0.205627,249.998,50.0001)" pers-center="0,0" pers-size="0,0" pers-start="0,0" pers-end="0,0" locked="0" mesh="" flag=""/>
            <path id="shapePath1" d="M19.4849,67.7628 L39.8412,67.7628 L39.8412,71.8363 L15.0431,71.8363 L15.0431,28.1606 L19.4849,28.1606 L19.4849,67.7628 M83.6488,71.8363 L78.4669,71.8363 L97.4667,28.1606 L101.785,28.1606 L120.785,71.8363 L115.603,71.8363 L99.5823,33.5035 L83.6488,71.8363 M166.995,67.7628 L193.888,67.7628 L193.888,71.8363 L158.848,71.8363 L186.921,32.2309 L160.707,32.2309 L160.707,28.1606 L194.909,28.1606 L166.995,67.7628 M254.784,71.8363 L250.342,71.8363 L250.342,53.0223 L233.995,28.1606 L239.548,28.1606 L252.563,48.7649 L265.582,28.1606 L271.132,28.1606 L254.784,53.0223 L254.784,71.8363 M322.783,47.4673 L329.941,47.4673 C331.913,47.4673 333.591,47.2615 334.966,46.8529 C336.345,46.4412 337.446,45.8985 338.269,45.2185 C339.089,44.5417 339.685,43.737 340.056,42.8075 C340.427,41.8843 340.611,40.8893 340.611,39.8195 C340.611,38.7933 340.427,37.814 340.056,36.8907 C339.685,35.9644 339.089,35.1535 338.269,34.4517 C337.446,33.753 336.345,33.2103 334.966,32.8204 C333.591,32.4274 331.913,32.2309 329.941,32.2309 L322.783,32.2309 L322.783,47.4673 M318.345,28.1606 L331.049,28.1606 C335.493,28.1606 338.996,29.1275 341.566,31.0612 C344.136,32.992 345.424,35.9145 345.424,39.8195 C345.424,43.7276 344.136,46.6564 341.566,48.6089 C338.996,50.5645 335.493,51.5408 331.049,51.5408 L322.783,51.5408 L322.783,71.8363 L318.345,71.8363 L318.345,28.1606 M394.998,71.8363 L390.556,71.8363 L390.556,28.214 L394.998,28.214 L394.998,71.8363 M484.957,62.3388 C484.704,64.1323 482.324,67.0891 481.236,68.0716 C480.147,69.0603 478.903,69.9149 477.505,70.6354 C476.105,71.3559 474.595,71.9173 472.967,72.329 C471.345,72.7408 469.627,72.9466 467.818,72.9466 C464.571,72.9466 461.558,72.3727 458.782,71.2187 C456.006,70.0646 453.598,68.474 451.564,66.4404 C449.528,64.4036 447.934,61.9895 446.78,59.1917 C445.629,56.394 445.058,53.328 445.058,49.9969 C445.058,46.6658 445.629,43.606 446.78,40.8082 C447.934,38.0136 449.528,35.5963 451.564,33.5596 C453.598,31.5229 456.006,29.9259 458.782,28.7782 C461.558,27.6272 464.571,27.0534 467.818,27.0534 C470.531,27.0534 473.245,27.5867 475.961,28.6534 C478.675,29.7232 482.047,32.2309 483.98,36.7972 L479.046,36.8596 C478.594,36.1577 477.976,35.4622 477.197,34.7636 C476.414,34.0618 475.522,33.4473 474.514,32.914 C473.504,32.3775 472.428,31.9439 471.273,31.6165 C470.12,31.2858 468.969,31.1236 467.818,31.1236 C465.02,31.1236 462.515,31.6352 460.291,32.6613 C458.071,33.6906 456.19,35.0692 454.649,36.7972 C453.105,38.5251 451.923,40.5275 451.103,42.8075 C450.279,45.0938 449.865,47.4892 449.865,49.9969 C449.865,52.5077 450.279,54.9031 451.103,57.1862 C451.923,59.4662 453.105,61.4717 454.649,63.1997 C456.19,64.9276 458.071,66.3031 460.291,67.3324 C462.515,68.3616 465.02,68.8763 467.818,68.8763 C468.969,68.8763 470.113,68.7703 471.242,68.5644 C472.375,68.3616 473.485,68.0123 474.573,67.5195 C475.665,67.0267 476.691,66.3562 477.658,65.514 C478.622,64.6718 479.52,63.6145 480.34,62.3388 L484.957,62.3388 Z" style="stroke:none;fill-rule:evenodd;fill:#000000;fill-opacity:1;"/>
        </g>
        <g id="Shape2">
            <desc shapeID="2" type="0" basicInfo-basicType="1" basicInfo-roundedRectRadius="12" basicInfo-polygonSides="6" basicInfo-starPoints="5" bounding="rect(-4.10933,-0.656006,8.21865,1.31202)" text="" font-familyName="Avenir" font-pixelSize="300" font-bold="0" font-underline="0" font-alignment="1" strokeStyle="0" markerStart="0" markerEnd="0" shadowEnabled="0" shadowOffsetX="0" shadowOffsetY="2" shadowBlur="4" shadowOpacity="160" blurEnabled="0" blurRadius="4" transform="matrix(2.76324,0,0,3.11902,99.2099,53.6056)" pers-center="0,0" pers-size="0,0" pers-start="0,0" pers-end="0,0" locked="0" mesh="" flag=""/>
            <path id="shapePath2" d="M87.8548,51.5595 L110.565,51.5595 L110.565,55.6517 L87.8548,55.6517 L87.8548,51.5595 Z" style="stroke:none;fill-rule:evenodd;fill:#000000;fill-opacity:1;"/>
        </g>
    </g>
</svg>
