<?xml version="1.0"?>
<svg version="1.1" xmlns="http://www.w3.org/2000/svg" xmlns:xlink="http://www.w3.org/1999/xlink" width="100" height="100">
    <desc iVinci="yes" version="4.6" gridStep="20" showGrid="no" snapToGrid="no" codePlatform="0"/>
    <g id="Layer1" name="Layer 3" opacity="1">
        <g id="Shape1">
            <desc shapeID="1" type="0" basicInfo-basicType="0" basicInfo-roundedRectRadius="12" basicInfo-polygonSides="6" basicInfo-starPoints="5" bounding="rect(0,0,0,0)" text="" font-familyName="Helvetica" font-pixelSize="20" font-bold="0" font-underline="0" font-alignment="1" strokeStyle="0" markerStart="0" markerEnd="0" shadowEnabled="0" shadowOffsetX="0" shadowOffsetY="2" shadowBlur="4" shadowOpacity="160" blurEnabled="0" blurRadius="4" transform="matrix(1,0,0,1,5.26664,72.6543)" pers-center="0,0" pers-size="0,0" pers-start="0,0" pers-end="0,0" locked="0" mesh="" flag=""/>
            <path id="shapePath1" d="M5.26664,72.6543 Z" style="stroke:none;fill-rule:evenodd;fill:#92d7fa;fill-opacity:1;"/>
        </g>
        <g id="Shape2">
            <desc shapeID="2" type="0" basicInfo-basicType="0" basicInfo-roundedRectRadius="12" basicInfo-polygonSides="6" basicInfo-starPoints="5" bounding="rect(-46.0985,-33.3496,92.197,66.6993)" text="" font-familyName="Helvetica" font-pixelSize="20" font-bold="0" font-underline="0" font-alignment="1" strokeStyle="0" markerStart="0" markerEnd="0" shadowEnabled="0" shadowOffsetX="0" shadowOffsetY="2" shadowBlur="4" shadowOpacity="160" blurEnabled="0" blurRadius="4" transform="matrix(1,0,0,1,50.9845,39.1778)" pers-center="0,0" pers-size="0,0" pers-start="0,0" pers-end="0,0" locked="0" mesh="" flag=""/>
            <path id="shapePath2" d="M4.88592,72.5274 C4.88592,72.5274 97.0829,70.2031 97.0829,70.2031 C97.0829,70.2031 90.5156,64.9219 90.5156,64.9219 C90.5156,64.9219 87.8076,51.4678 87.8076,51.4678 C87.8076,51.4678 83.4391,41.6306 83.4391,41.6306 C83.4391,41.6306 84.9276,38.9447 84.9276,38.9447 C84.9276,38.9447 80.7053,33.4296 80.7053,33.4296 C80.7053,33.4296 77.2184,29.3345 77.2184,29.3345 C77.2184,29.3345 70.4474,29.6589 70.4474,29.6589 C70.4474,29.6589 71.7244,23.3785 71.7244,23.3785 C71.7244,23.3785 69.6587,19.0087 69.6587,19.0087 C69.6587,19.0087 65.2094,18.7703 65.2094,18.7703 C65.2094,18.7703 64.4944,12.3745 64.4944,12.3745 C64.4944,12.3745 60.0054,11.9772 60.0054,11.9772 C60.0054,11.9772 57.7013,7.24991 57.7013,7.24991 C57.7013,7.24991 46.8906,7.29688 46.8906,7.29688 C46.8906,7.29688 43.2344,5.82812 43.2344,5.82812 C43.2344,5.82812 38.6406,8.01562 38.6406,8.01562 C38.6406,8.01562 36.7656,17.5469 36.7656,17.5469 C36.7656,17.5469 20.4602,22.2216 20.4602,22.2216 C20.4602,22.2216 23.0938,46.118 23.0938,46.118 C23.0938,46.118 21.9635,55.2101 21.9635,55.2101 C21.9635,55.2101 17.8493,54.8361 17.8493,54.8361 C17.8493,54.8361 15.148,64.5607 15.148,64.5607 C15.148,64.5607 12.4883,67.9685 12.4883,67.9685 C12.4883,67.9685 4.88592,72.5274 4.88592,72.5274 Z" style="stroke:none;fill-rule:evenodd;fill:#f8bd6d;fill-opacity:1;"/>
        </g>
        <g id="Shape3">
            <desc shapeID="3" type="0" basicInfo-basicType="0" basicInfo-roundedRectRadius="12" basicInfo-polygonSides="6" basicInfo-starPoints="5" bounding="rect(0,0,0,0)" text="" font-familyName="Helvetica" font-pixelSize="20" font-bold="0" font-underline="0" font-alignment="1" strokeStyle="0" markerStart="0" markerEnd="0" shadowEnabled="0" shadowOffsetX="0" shadowOffsetY="2" shadowBlur="4" shadowOpacity="160" blurEnabled="0" blurRadius="4" transform="matrix(1,0,0,1,8.92751,39.288)" pers-center="0,0" pers-size="0,0" pers-start="0,0" pers-end="0,0" locked="0" mesh="" flag=""/>
            <path id="shapePath3" d="M8.92751,39.288 Z" style="stroke:none;fill-rule:evenodd;fill:#000000;fill-opacity:1;"/>
        </g>
        <g id="Shape4">
            <desc shapeID="4" type="0" basicInfo-basicType="0" basicInfo-roundedRectRadius="12" basicInfo-polygonSides="6" basicInfo-starPoints="5" bounding="rect(-38.2459,-16.8129,76.4917,33.6258)" text="" font-familyName="Helvetica" font-pixelSize="20" font-bold="0" font-underline="0" font-alignment="1" strokeStyle="0" markerStart="0" markerEnd="0" shadowEnabled="0" shadowOffsetX="0" shadowOffsetY="2" shadowBlur="4" shadowOpacity="160" blurEnabled="0" blurRadius="4" transform="matrix(1,0,0,1,46.2007,35.1195)" pers-center="0,0" pers-size="0,0" pers-start="0,0" pers-end="0,0" locked="0" mesh="" flag=""/>
            <path id="shapePath4" d="M23.6562,45.3323 C23.6562,45.3323 48.945,40.9554 48.945,40.9554 C48.945,40.9554 48.7366,46.4439 48.7366,46.4439 C48.7366,46.4439 53.5303,49.8482 53.5303,49.8482 C53.5303,49.8482 61.5894,49.9176 61.5894,49.9176 C61.5894,49.9176 65.2021,48.7366 65.2021,48.7366 C65.2021,48.7366 77.2907,51.9324 77.2907,51.9324 C77.2907,51.9324 78.4718,44.4986 78.4718,44.4986 C78.4718,44.4986 83.7519,41.0943 83.7519,41.0943 C83.7519,41.0943 84.4466,39.0101 84.4466,39.0101 C84.4466,39.0101 81.8761,36.9259 81.8761,36.9259 C81.8761,36.9259 78.4718,29.4921 78.4718,29.4921 C78.4718,29.4921 70.9551,31.5688 70.9551,31.5688 C70.9551,31.5688 66.4556,29.374 61.8322,29.4921 C58.512,29.5768 55.7535,30.6731 55.7535,30.6731 C55.7535,30.6731 53.4609,29.4921 53.4609,29.4921 C53.4609,29.4921 55.8925,24.4899 55.8925,24.4899 C55.8925,24.4899 44.2207,18.3066 44.2902,18.3066 C44.3597,18.3066 33.5911,19.2793 33.5911,19.2793 C33.5911,19.2793 21.294,21.8498 21.294,21.8498 C21.294,21.8498 17.8203,26.0878 17.8203,26.0878 C17.8203,26.0878 9.41384,27.6162 9.41384,27.6162 C9.41384,27.6162 7.95486,32.4795 7.95486,32.4795 C7.95486,32.4795 9.83068,37.3427 9.83068,37.3427 C9.83068,37.3427 8.99699,41.0943 8.99699,41.0943 C8.99699,41.0943 15.3192,44.2207 15.2497,44.2207 C15.1802,44.2207 23.6562,45.3323 23.6562,45.3323 Z" style="stroke:none;fill-rule:evenodd;fill:#daf1fc;fill-opacity:1;"/>
        </g>
        <g id="Shape5">
            <desc shapeID="5" type="0" basicInfo-basicType="0" basicInfo-roundedRectRadius="12" basicInfo-polygonSides="6" basicInfo-starPoints="5" bounding="rect(-35.3656,-10.3462,70.7312,20.6923)" text="" font-familyName="Helvetica" font-pixelSize="20" font-bold="0" font-underline="0" font-alignment="1" strokeStyle="0" markerStart="0" markerEnd="0" shadowEnabled="0" shadowOffsetX="0" shadowOffsetY="2" shadowBlur="4" shadowOpacity="160" blurEnabled="0" blurRadius="4" transform="matrix(1,0,0,1,44.1904,40.8355)" pers-center="0,0" pers-size="0,0" pers-start="0,0" pers-end="0,0" locked="0" mesh="" flag=""/>
            <path id="shapePath5" d="M8.82484,34.6199 C8.82484,34.6199 11.4267,37.9799 14.4901,38.0154 C16.3053,38.0365 18.2826,34.4954 19.9766,34.919 C23.4206,35.7801 24.5217,38.6844 27.3908,38.7454 C31.5744,38.8344 29.7281,35.2746 33.9321,34.919 C38.9462,34.4949 39.4709,38.0451 43.3504,36.9786 C48.0697,35.6812 52.8531,30.8959 52.8531,30.8959 C52.8531,30.8959 55.2509,29.9811 55.942,30.8959 C56.4969,31.6302 55.3752,34.2339 55.3752,34.2339 C55.3752,34.2339 51.0727,36.9786 50.9986,36.9786 C50.9244,36.9786 51.9687,42.3901 51.9687,42.3901 C51.9687,42.3901 54.155,45.6095 56.3837,45.7075 C58.3812,45.7954 60.922,42.618 62.5493,43.0729 C66.1295,44.0736 67.102,45.301 70.6771,45.7075 C76.745,46.3975 76.2013,42.1645 78.2143,43.7259 C80.3739,45.401 79.7953,49.9386 77.4162,50.7644 C72.8128,52.3622 63.4342,48.856 63.4342,48.856 C63.4342,48.856 57.4647,50.1755 57.4647,50.1755 C57.4647,50.1755 49.1701,48.4789 49.1701,48.4789 C49.1701,48.4789 49.2958,44.96 49.2958,44.96 C49.2958,44.96 49.1701,40.6243 49.1701,40.6243 C49.1701,40.6243 36.5095,43.1759 36.5095,43.1759 C36.5095,43.1759 24.5506,44.366 24.5506,44.366 C24.5506,44.366 19.34,42.1981 19.34,42.1981 C19.34,42.1981 10.3261,43.0729 10.3261,43.0729 C10.3261,43.0729 8.82484,34.6199 8.82484,34.6199 Z" style="stroke:none;fill-rule:evenodd;fill:#92d7fa;fill-opacity:1;"/>
        </g>
        <g id="Shape6">
            <desc shapeID="6" type="0" basicInfo-basicType="0" basicInfo-roundedRectRadius="12" basicInfo-polygonSides="6" basicInfo-starPoints="5" bounding="rect(-5.41044,-4.89473,10.8208,9.78946)" text="" font-familyName="Helvetica" font-pixelSize="20" font-bold="0" font-underline="0" font-alignment="1" strokeStyle="0" markerStart="0" markerEnd="0" shadowEnabled="0" shadowOffsetX="0" shadowOffsetY="2" shadowBlur="4" shadowOpacity="160" blurEnabled="0" blurRadius="4" transform="matrix(1,0,0,1,28.0675,63.0381)" pers-center="0,0" pers-size="0,0" pers-start="0,0" pers-end="0,0" locked="0" mesh="" flag=""/>
            <path id="shapePath6" d="M23.3349,67.8796 C25.597,68.3219 27.1878,65.9158 28.9688,64.1653 C30.4347,62.7245 35.8612,60.3009 32.2724,58.3795 C30.048,57.1887 27.2112,60.7546 25.2703,63.442 C23.5711,65.7948 21.5893,67.5382 23.3349,67.8796 Z" style="stroke:none;fill-rule:evenodd;fill:#f8e6d2;fill-opacity:1;"/>
        </g>
        <g id="Shape7">
            <desc shapeID="7" type="0" basicInfo-basicType="0" basicInfo-roundedRectRadius="12" basicInfo-polygonSides="6" basicInfo-starPoints="5" bounding="rect(-11.7282,-5.82592,23.4564,11.6519)" text="" font-familyName="Helvetica" font-pixelSize="20" font-bold="0" font-underline="0" font-alignment="1" strokeStyle="0" markerStart="0" markerEnd="0" shadowEnabled="0" shadowOffsetX="0" shadowOffsetY="2" shadowBlur="4" shadowOpacity="160" blurEnabled="0" blurRadius="4" transform="matrix(1,0,0,1,46.5851,52.8664)" pers-center="0,0" pers-size="0,0" pers-start="0,0" pers-end="0,0" locked="0" mesh="" flag=""/>
            <path id="shapePath7" d="M34.9222,53.3345 C34.9222,53.3345 41.5328,51.1636 44.786,52.2072 C46.9747,52.9094 47.286,57.0493 49.3421,57.9846 C52.2695,59.3161 58.3133,58.3603 58.3133,58.3603 C58.3133,58.3603 56.2936,55.4482 56.2936,55.4482 C56.2936,55.4482 51.9724,56.0118 51.9724,56.0118 C51.9724,56.0118 47.0405,47.0405 47.0405,47.0405 C47.0405,47.0405 40.3081,47.9091 37.1924,49.5273 C34.2542,51.0534 34.9222,53.3345 34.9222,53.3345 Z" style="stroke:none;fill-rule:evenodd;fill:#f8e6d2;fill-opacity:1;"/>
        </g>
        <g id="Shape8">
            <desc shapeID="8" type="0" basicInfo-basicType="0" basicInfo-roundedRectRadius="12" basicInfo-polygonSides="6" basicInfo-starPoints="5" bounding="rect(0,0,0,0)" text="" font-familyName="Helvetica" font-pixelSize="20" font-bold="0" font-underline="0" font-alignment="1" strokeStyle="0" markerStart="0" markerEnd="0" shadowEnabled="0" shadowOffsetX="0" shadowOffsetY="2" shadowBlur="4" shadowOpacity="160" blurEnabled="0" blurRadius="4" transform="matrix(1,0,0,1,78.7257,55.1192)" pers-center="0,0" pers-size="0,0" pers-start="0,0" pers-end="0,0" locked="0" mesh="" flag=""/>
            <path id="shapePath8" d="M78.7257,55.1192 Z" style="stroke:none;fill-rule:evenodd;fill:#f8e6d2;fill-opacity:1;"/>
        </g>
        <g id="Shape9">
            <desc shapeID="9" type="0" basicInfo-basicType="0" basicInfo-roundedRectRadius="12" basicInfo-polygonSides="6" basicInfo-starPoints="5" bounding="rect(0,0,0,0)" text="" font-familyName="Helvetica" font-pixelSize="20" font-bold="0" font-underline="0" font-alignment="1" strokeStyle="0" markerStart="0" markerEnd="0" shadowEnabled="0" shadowOffsetX="0" shadowOffsetY="2" shadowBlur="4" shadowOpacity="160" blurEnabled="0" blurRadius="4" transform="matrix(1,0,0,1,59.6157,50.323)" pers-center="0,0" pers-size="0,0" pers-start="0,0" pers-end="0,0" locked="0" mesh="" flag=""/>
            <path id="shapePath9" d="M59.6157,50.323 Z" style="stroke:none;fill-rule:evenodd;fill:#f8e6d2;fill-opacity:1;"/>
        </g>
        <g id="Shape10">
            <desc shapeID="10" type="0" basicInfo-basicType="0" basicInfo-roundedRectRadius="12" basicInfo-polygonSides="6" basicInfo-starPoints="5" bounding="rect(-13.739,-6.45399,27.4779,12.908)" text="" font-familyName="Helvetica" font-pixelSize="20" font-bold="0" font-underline="0" font-alignment="1" strokeStyle="0" markerStart="0" markerEnd="0" shadowEnabled="0" shadowOffsetX="0" shadowOffsetY="2" shadowBlur="4" shadowOpacity="160" blurEnabled="0" blurRadius="4" transform="matrix(1,0,0,1,73.6049,48.6827)" pers-center="0,0" pers-size="0,0" pers-start="0,0" pers-end="0,0" locked="0" mesh="" flag=""/>
            <path id="shapePath10" d="M63.5876,48.0748 C63.5876,48.0748 78.4259,51.2972 78.4259,51.2972 C78.4259,51.2972 79.4751,42.9038 79.4751,42.9038 C79.4751,42.9038 83.372,42.3043 83.447,42.2293 C83.5219,42.1544 87.3439,49.5736 87.3439,49.5736 C87.3439,49.5736 84.8894,49.3221 83.5219,50 C81.9559,50.7763 80.9028,55.0807 79.0255,55.1192 C72.9528,55.244 64.7872,54.7219 61.3145,52.8775 C57.0398,50.6072 63.5876,48.0748 63.5876,48.0748 Z" style="stroke:none;fill-rule:evenodd;fill:#f8e6d2;fill-opacity:1;"/>
        </g>
        <g id="Shape11">
            <desc shapeID="11" type="0" basicInfo-basicType="0" basicInfo-roundedRectRadius="12" basicInfo-polygonSides="6" basicInfo-starPoints="5" bounding="rect(-3.3349,-2.31915,6.66979,4.6383)" text="" font-familyName="Helvetica" font-pixelSize="20" font-bold="0" font-underline="0" font-alignment="1" strokeStyle="0" markerStart="0" markerEnd="0" shadowEnabled="0" shadowOffsetX="0" shadowOffsetY="2" shadowBlur="4" shadowOpacity="160" blurEnabled="0" blurRadius="4" transform="matrix(1,0,0,1,19.9135,56.8008)" pers-center="0,0" pers-size="0,0" pers-start="0,0" pers-end="0,0" locked="0" mesh="" flag=""/>
            <path id="shapePath11" d="M22.7996,55.6361 C22.7996,55.6361 18.2461,54.4817 18.2461,54.4817 C18.2461,54.4817 16.5786,58.6924 16.5786,58.6924 C16.5786,58.6924 19.6284,59.6545 22.0853,58.6924 C24.186,57.8697 22.7996,55.6361 22.7996,55.6361 Z" style="stroke:none;fill-rule:evenodd;fill:#f8e6d2;fill-opacity:1;"/>
        </g>
        <g id="Shape12">
            <desc shapeID="12" type="0" basicInfo-basicType="0" basicInfo-roundedRectRadius="12" basicInfo-polygonSides="6" basicInfo-starPoints="5" bounding="rect(-17.1188,-8.55958,34.2377,17.1191)" text="" font-familyName="Helvetica" font-pixelSize="20" font-bold="0" font-underline="0" font-alignment="1" strokeStyle="0" markerStart="0" markerEnd="0" shadowEnabled="0" shadowOffsetX="0" shadowOffsetY="2" shadowBlur="4" shadowOpacity="160" blurEnabled="0" blurRadius="4" transform="matrix(1,0,0,1,54.6307,14.2916)" pers-center="0,0" pers-size="0,0" pers-start="0,0" pers-end="0,0" locked="0" mesh="" flag=""/>
            <path id="shapePath12" d="M37.8881,11.9966 C36.6793,10.7869 38.7701,7.29715 38.7701,7.29715 C38.7701,7.29715 43.4233,5.73197 43.4233,5.73197 C43.4233,5.73197 47.019,7.17024 47.019,7.17024 C47.019,7.17024 57.5946,7.33945 57.5946,7.33945 C57.5946,7.33945 60.2597,11.6543 60.2597,11.6543 C60.2597,11.6543 64.4899,12.3734 64.4899,12.3734 C64.4899,12.3734 65.1244,17.915 65.1244,17.915 C65.1244,17.915 71.4275,19.4802 71.4275,19.4802 C71.4275,19.4802 72.2964,21.6768 71.1797,21.8368 C68.513,22.2189 66.833,23.8315 64.6501,21.9756 C62.9237,20.5077 65.1859,17.5109 63.8739,15.4221 C63.0939,14.1801 60.2185,15.7089 58.9438,14.7529 C57.5846,13.7336 59.5925,10.1406 57.7375,9.61755 C55.3391,8.94124 50.6713,9.32287 48.1245,9.34241 C45.8148,9.36012 43.5315,9.06198 41.4333,10.0994 C38.4131,11.5927 38.8717,12.981 37.8881,11.9966 Z" style="stroke:none;fill-rule:evenodd;fill:#f8e6d1;fill-opacity:1;"/>
        </g>
        <g id="Shape13">
            <desc shapeID="13" type="0" basicInfo-basicType="0" basicInfo-roundedRectRadius="12" basicInfo-polygonSides="6" basicInfo-starPoints="5" bounding="rect(-47.3081,-34.4677,94.6163,68.9354)" text="" font-familyName="" font-pixelSize="20" font-bold="0" font-underline="0" font-alignment="1" strokeStyle="0" markerStart="0" markerEnd="0" shadowEnabled="0" shadowOffsetX="0" shadowOffsetY="2" shadowBlur="4" shadowOpacity="160" blurEnabled="0" blurRadius="4" transform="matrix(1,0,0,1,50.6664,39.47)" pers-center="0,0" pers-size="0,0" pers-start="0,0" pers-end="0,0" locked="0" mesh="" flag=""/>
            <path id="shapePath13" d="M38.7,6.2 C37.8,7 37,9.3 36.8,11.9 C36.5,16.9 35.9,17.3 27.5,19.1 C20.9,20.4 17,22.4 17,24.3 C17,25 15.4,25.6 13.3,25.7 C11.1,25.8 9,26.6 8.3,27.6 C6.8,29.7 6.6,34.6 8,35.5 C8.6,35.9 8.5,36.8 7.7,38 C5.2,42.2 12,47.2 17.4,45.2 C21.2,43.7 21.8,44.5 21.3,49.7 C21,52.5 20.4,53.7 19.6,53.4 C17.7,52.7 16.4,54.8 15,60.7 C13.9,65.5 13.5,66 10.5,66.6 C7,67.2 2.5,71.4 3.5,73 C4.5,74.6 6.4,74.1 7.8,71.9 C8.5,70.7 9.4,70.1 9.7,70.4 C10,70.7 11.5,70.3 13.1,69.5 C15.2,68.4 16.1,67 16.5,64.2 C17.8,56 17.9,55.9 20.5,56.6 C22.2,57 23.1,56.8 23.2,55.9 C23.4,53.9 23.7,50.8 23.9,48.2 C24,46.4 24.6,46 27.6,46 C29.5,46 32.1,45.5 33.3,44.8 C34.5,44.2 37.6,43.8 40.2,43.9 C45.4,44.2 50.6,41.8 51.5,38.9 C51.8,37.9 53.2,36.5 54.5,35.6 C55.9,34.7 57,33.3 57,32.6 C57,30.2 61,30.1 66.7,32.3 C71.8,34.2 72.3,34.2 73.2,32.7 C75.2,29 80.8,31.9 79.7,36.1 C79.3,37.5 79.8,38.3 81.3,38.9 L83.4,39.7 L81.3,40.9 C80.1,41.5 78.4,42 77.5,42 C76.2,42 75.9,42.8 76.2,45.7 L76.5,49.5 L72.7,49.4 C70.5,49.3 67.6,48.3 66,47.1 C62.4,44.5 62,44.5 62,47 C62,48.7 61.3,49 57.9,49 C53,49 49.8,47.4 50.2,45.2 C50.6,42.7 48.6,42.4 47.5,44.9 C46.7,46.5 45.6,47 42.4,47 C37.4,47 33.6,49.7 31.9,54.5 C31.2,56.4 30.1,58 29.5,58 C26.9,58 18,70.3 19.5,71.8 C20.3,72.7 23,71 23.6,69.3 C25,64.9 26.7,62.5 29.7,60.7 C31.7,59.6 33.8,57.1 34.9,54.6 C36.6,50.7 37.2,50.2 41.7,49.3 L46.6,48.4 L48.4,52.7 C49.8,56.1 50.7,57.1 52.4,56.9 C56.3,56.6 56.9,57 57.2,59.7 C57.4,61.4 58.1,62.5 59,62.5 C61.2,62.5 60.4,57.9 57.9,55.7 C56.7,54.8 54.9,54.2 54,54.5 C52.9,54.9 51.7,54.2 50.6,52.5 C49,50.1 49,50 51.6,51 C54.9,52.3 59.6,52.3 62,51 C63.3,50.3 64.9,50.5 67.4,51.5 C69.4,52.3 72.4,52.9 74.2,52.8 C77.4,52.5 77.5,52.6 78,57 C78.7,62.9 79.5,64 83.1,64 C85.2,64 86.3,64.7 87.1,66.3 C88.1,68.6 92.9,71 96.3,71 C99.1,71 98.2,68.3 95,67.1 C93,66.5 92,65.4 92,64.1 C92,60.3 88.8,49.4 86.5,45.4 C84.6,42.2 84.4,41 85.3,40.1 C86.2,39.1 86.1,38.6 84.8,37.6 C83.8,36.9 83,35.3 83,34.1 C83,33 82.1,31.1 80.9,29.9 C79.2,28.2 78,27.9 74.6,28.3 C72.4,28.6 71.3,28.6 72.3,28.3 C74.3,27.8 74.3,28 72.9,22.4 C71.9,18.5 71.4,18 68.9,18 C66.5,18 66.1,17.6 65.8,14.7 C65.6,12.2 65,11.4 63.2,11.2 C61.8,11 60.5,9.8 59.9,8.3 C59,5.9 58.6,5.8 53,6.2 C49.7,6.4 47,6.3 47,5.8 C47,4.5 40.6,4.9 38.7,6.2 M45.3,7.7 C45.7,8 48.6,8.2 51.9,8.1 C57.7,7.9 57.7,7.9 58.3,11 C58.9,13.7 59.2,14 61.6,13.4 C64.1,12.7 64.2,12.9 63.8,16.3 C63.5,19.4 63.7,20 65.8,20.5 C67,20.8 68.5,20.8 68.9,20.5 C70.4,19.7 71,26 69.7,28 C68.9,29.4 68,29.8 66.5,29.3 C63.9,28.3 59,28.4 56.5,29.5 C54.9,30.1 54.7,30.1 55.8,28.9 C58.3,26.2 56.6,21 53.3,21 C52.5,21 50.6,20 49.1,18.9 C47,17.3 45.1,16.9 42.2,17.2 C38.8,17.5 38.3,17.3 39,15.9 C39.5,15 39.6,13.3 39.3,12.2 C38.4,8.6 42.9,5.2 45.3,7.7 M48.5,22.4 C49.5,23.9 50.7,24.6 51.9,24.3 C54.4,23.7 55.4,25.4 53.5,27 C51.6,28.6 51.6,31 53.5,31 C54.3,31 55,31.4 55,31.8 C55,33.2 52.6,35 50.7,35 C49.5,35 49,35.5 49.3,36.4 C50.3,38.9 46.2,41.5 41.2,41.5 C38.5,41.5 36.5,41 36.3,40.2 C35.6,38.2 33,38.8 33,41 C33,42.6 32.3,43 29.3,43 C24,43 21.1,42 21.6,40.6 C22.2,39 19.4,36.6 18,37.5 C17.5,37.8 17,39 17,40.1 C17,41.8 16.4,42.1 13.8,41.8 C10.9,41.5 10.5,41.2 10.8,38.8 C10.9,37.4 10.6,35.9 10,35.5 C8.6,34.6 8.7,30.7 10.2,29.2 C10.9,28.5 13.1,28 15.2,28 C18.4,28 19.2,27.6 20,25.5 C21,22.8 22.9,22.3 24.7,24.1 C25.5,24.9 26.1,24.6 26.9,23.1 C28.2,20.7 30.7,20.4 34.5,22.2 C36.8,23.2 37.3,23.2 38.1,21.7 C39.7,18.9 46.6,19.4 48.5,22.4 M84.5,47 C85.4,48.7 86.5,51.9 87,54.3 C87.5,56.6 88.2,59.7 88.6,61.1 L89.2,63.8 L85.1,62.7 C81.3,61.7 81,61.3 80.4,57.3 C80.1,54.9 80.1,51.7 80.4,50.2 C80.8,48.7 81.2,46.7 81.3,45.7 C81.5,43.1 82.8,43.6 84.5,47 Z" style="stroke:none;fill-rule:evenodd;fill:#000000;fill-opacity:1;"/>
        </g>
        <g id="Shape14">
            <desc shapeID="14" type="0" basicInfo-basicType="0" basicInfo-roundedRectRadius="12" basicInfo-polygonSides="6" basicInfo-starPoints="5" bounding="rect(-6.00514,-6.47966,12.0103,12.9594)" text="" font-familyName="" font-pixelSize="20" font-bold="0" font-underline="0" font-alignment="1" strokeStyle="0" markerStart="0" markerEnd="0" shadowEnabled="0" shadowOffsetX="0" shadowOffsetY="2" shadowBlur="4" shadowOpacity="160" blurEnabled="0" blurRadius="4" transform="matrix(1,0,0,1,84.3382,86.5)" pers-center="0,0" pers-size="0,0" pers-start="0,0" pers-end="0,0" locked="0" mesh="" flag=""/>
            <path id="shapePath14" d="M87.2434,81.1797 C87.1434,81.8797 87.2434,83.9797 87.3434,85.6797 C87.4434,87.4797 87.2434,88.9797 86.9434,88.9797 C86.6434,88.9797 85.0434,87.4797 83.3434,85.6797 C80.8434,82.9797 80.1434,82.6797 79.3434,83.9797 C77.7434,86.4797 78.1434,92.9797 79.8434,92.9797 C80.6434,92.9797 81.3434,92.0797 81.3434,90.8797 C81.3434,88.9797 81.4434,88.9797 83.5434,90.3797 C84.7434,91.2797 86.8434,91.9797 88.0434,91.9797 C90.0434,91.9797 90.3434,91.4797 90.3434,87.5797 C90.3434,85.1797 90.0434,82.4797 89.7434,81.5797 C89.0434,79.6797 87.3434,79.4797 87.2434,81.1797 Z" style="stroke:none;fill-rule:evenodd;fill:#000000;fill-opacity:1;"/>
        </g>
        <g id="Shape15">
            <desc shapeID="15" type="0" basicInfo-basicType="0" basicInfo-roundedRectRadius="12" basicInfo-polygonSides="6" basicInfo-starPoints="5" bounding="rect(-4.24506,-6.5884,8.49012,13.1767)" text="" font-familyName="" font-pixelSize="20" font-bold="0" font-underline="0" font-alignment="1" strokeStyle="0" markerStart="0" markerEnd="0" shadowEnabled="0" shadowOffsetX="0" shadowOffsetY="2" shadowBlur="4" shadowOpacity="160" blurEnabled="0" blurRadius="4" transform="matrix(1,0,0,1,70.4539,86.8465)" pers-center="0,0" pers-size="0,0" pers-start="0,0" pers-end="0,0" locked="0" mesh="" flag=""/>
            <path id="shapePath15" d="M66.9128,80.9156 C65.7128,82.0156 66.1128,83.2156 67.6128,83.2156 C69.1417,83.2156 68.9336,88.0008 68.7073,90.5218 C68.4627,91.111 67.6839,90.9289 67.3128,91.2218 C66.1128,92.1218 66.5928,93.0963 67.3128,93.2281 C69.5633,93.6399 72.1248,93.4589 74.2128,92.4843 C74.7432,92.2368 75.1753,90.7218 73.6128,90.5218 C73.1128,90.8218 72.2128,88.6156 72.0128,86.6156 C71.7128,84.2156 72.0128,82.8156 72.9128,82.5156 C73.6128,82.2156 73.9128,81.6156 73.6128,81.1156 C73.0128,80.1156 67.9128,79.9156 66.9128,80.9156 Z" style="stroke:none;fill-rule:evenodd;fill:#000000;fill-opacity:1;"/>
        </g>
        <g id="Shape16">
            <desc shapeID="16" type="0" basicInfo-basicType="0" basicInfo-roundedRectRadius="12" basicInfo-polygonSides="6" basicInfo-starPoints="5" bounding="rect(-4.99887,-6.5,9.99773,13)" text="" font-familyName="" font-pixelSize="20" font-bold="0" font-underline="0" font-alignment="1" strokeStyle="0" markerStart="0" markerEnd="0" shadowEnabled="0" shadowOffsetX="0" shadowOffsetY="2" shadowBlur="4" shadowOpacity="160" blurEnabled="0" blurRadius="4" transform="matrix(1,0,0,1,47.5858,86.5)" pers-center="0,0" pers-size="0,0" pers-start="0,0" pers-end="0,0" locked="0" mesh="" flag=""/>
            <path id="shapePath16" d="M43.2847,80.7 C42.0847,81.8 42.4847,83 44.0847,83 C45.1847,83 45.5847,84.2 45.5847,88 C45.5847,91.8 45.9847,93 47.0847,93 C48.1847,93 48.5847,91.8 48.5847,88 C48.5847,83.7 48.8847,83 50.5847,83 C51.6847,83 52.5847,82.3 52.5847,81.5 C52.5847,80.4 51.4847,80 48.2847,80 C45.8847,80 43.5847,80.3 43.2847,80.7 Z" style="stroke:none;fill-rule:evenodd;fill:#000000;fill-opacity:1;"/>
        </g>
        <g id="Shape17">
            <desc shapeID="17" type="0" basicInfo-basicType="0" basicInfo-roundedRectRadius="12" basicInfo-polygonSides="6" basicInfo-starPoints="5" bounding="rect(-4.39668,-5.43841,8.79337,10.8768)" text="" font-familyName="" font-pixelSize="20" font-bold="0" font-underline="0" font-alignment="1" strokeStyle="0" markerStart="0" markerEnd="0" shadowEnabled="0" shadowOffsetX="0" shadowOffsetY="2" shadowBlur="4" shadowOpacity="160" blurEnabled="0" blurRadius="4" transform="matrix(1.11338,0,0,1.18388,58.5171,86.5615)" pers-center="0,0" pers-size="0,0" pers-start="0,0" pers-end="0,0" locked="0" mesh="" flag=""/>
            <path id="shapePath17" d="M54.8052,83.6474 C53.2465,88.3829 53.2465,93 54.6939,93 C55.3619,93 55.8073,92.1713 55.8073,91.2242 C55.8073,88.738 59.1474,88.9748 60.9288,91.461 C63.1556,94.7758 64.0463,92.2897 62.9329,86.1335 C62.0422,81.2796 61.4855,80.5693 59.0361,80.2141 C56.5867,79.859 55.8073,80.4509 54.8052,83.6474 M58.7021,85.5416 C57.5887,86.7254 56.5867,84.9496 57.5887,83.4106 C58.2567,82.1083 58.4794,82.1083 58.9247,83.4106 C59.1474,84.2393 59.0361,85.1864 58.7021,85.5416 Z" style="stroke:none;fill-rule:evenodd;fill:#000000;fill-opacity:1;"/>
        </g>
        <g id="Shape18">
            <desc shapeID="18" type="0" basicInfo-basicType="0" basicInfo-roundedRectRadius="12" basicInfo-polygonSides="6" basicInfo-starPoints="5" bounding="rect(-4.84205,-6.64384,9.6841,13.2877)" text="" font-familyName="" font-pixelSize="20" font-bold="0" font-underline="0" font-alignment="1" strokeStyle="0" markerStart="0" markerEnd="0" shadowEnabled="0" shadowOffsetX="0" shadowOffsetY="2" shadowBlur="4" shadowOpacity="160" blurEnabled="0" blurRadius="4" transform="matrix(1,0,0,1,15.8315,87.6438)" pers-center="0,0" pers-size="0,0" pers-start="0,0" pers-end="0,0" locked="0" mesh="" flag=""/>
            <path id="shapePath18" d="M11.2847,86.1 C10.3847,93.2 11.3847,94.7 16.4847,94.2 C21.3847,93.7 22.2847,91 17.5847,91 C14.9847,91 14.5847,90.6 14.5847,88.2 C14.5847,84.7 13.5847,81 12.5847,81 C12.1847,81 11.5847,83.3 11.2847,86.1 Z" style="stroke:none;fill-rule:evenodd;fill:#000000;fill-opacity:1;"/>
        </g>
        <g id="Shape19">
            <desc shapeID="19" type="0" basicInfo-basicType="0" basicInfo-roundedRectRadius="12" basicInfo-polygonSides="6" basicInfo-starPoints="5" bounding="rect(-4.80196,-6.45125,9.60391,12.9025)" text="" font-familyName="" font-pixelSize="20" font-bold="0" font-underline="0" font-alignment="1" strokeStyle="0" markerStart="0" markerEnd="0" shadowEnabled="0" shadowOffsetX="0" shadowOffsetY="2" shadowBlur="4" shadowOpacity="160" blurEnabled="0" blurRadius="4" transform="matrix(1,0,0,1,27.4867,87.5488)" pers-center="0,0" pers-size="0,0" pers-start="0,0" pers-end="0,0" locked="0" mesh="" flag=""/>
            <path id="shapePath19" d="M24.1847,83.2 C21.0847,87.6 23.0847,94 27.4847,94 C31.4847,94 33.7847,87.4 31.1847,83.5 C29.1847,80.4 26.1847,80.3 24.1847,83.2 M28.5847,87.6 C28.5847,92.1 26.1847,91.8 25.7847,87.2 C25.5847,84.8 25.8847,84 26.9847,84 C28.1847,84 28.5847,85 28.5847,87.6 Z" style="stroke:none;fill-rule:evenodd;fill:#000000;fill-opacity:1;"/>
        </g>
        <g id="Shape20">
            <desc shapeID="20" type="0" basicInfo-basicType="0" basicInfo-roundedRectRadius="12" basicInfo-polygonSides="6" basicInfo-starPoints="5" bounding="rect(-3.94034,-6.40021,7.88068,12.8005)" text="" font-familyName="" font-pixelSize="20" font-bold="0" font-underline="0" font-alignment="1" strokeStyle="0" markerStart="0" markerEnd="0" shadowEnabled="0" shadowOffsetX="0" shadowOffsetY="2" shadowBlur="4" shadowOpacity="160" blurEnabled="0" blurRadius="4" transform="matrix(1,0,0,1,37.5224,87.4002)" pers-center="0,0" pers-size="0,0" pers-start="0,0" pers-end="0,0" locked="0" mesh="" flag=""/>
            <path id="shapePath20" d="M35.7847,82.2 C34.1847,83.8 34.2847,85.5 36.0847,87 C38.2847,88.8 37.9847,90.9 35.5847,90.3 C32.7847,89.6 32.9847,92.7 35.7847,93.6 C37.3847,94.1 38.4847,93.7 39.7847,92 C42.0847,89.2 42.0847,88.5 39.3847,86 C37.2847,84 37.2847,84 39.1847,82.5 C41.0847,81.1 41.0847,81.1 39.0847,81 C37.8847,81 36.4847,81.5 35.7847,82.2 Z" style="stroke:none;fill-rule:evenodd;fill:#000000;fill-opacity:1;"/>
        </g>
    </g>
</svg>
