<?xml version="1.0"?>
<svg version="1.1" xmlns="http://www.w3.org/2000/svg" xmlns:xlink="http://www.w3.org/1999/xlink" width="600" height="160">
    <desc iVinci="yes" version="4.6" gridStep="20" showGrid="no" snapToGrid="no" codePlatform="0" markedExportShape="15"/>
    <g id="Layer1" name="gmail" opacity="1">
        <g id="Shape1">
            <desc shapeID="1" type="0" basicInfo-basicType="0" basicInfo-roundedRectRadius="12" basicInfo-polygonSides="6" basicInfo-starPoints="5" bounding="rect(-23.9999,-18,47.9998,36)" text="" font-familyName="" font-pixelSize="20" font-bold="0" font-underline="0" font-alignment="1" strokeStyle="0" markerStart="0" markerEnd="0" shadowEnabled="0" shadowOffsetX="0" shadowOffsetY="2" shadowBlur="4" shadowOpacity="160" blurEnabled="0" blurRadius="4" transform="matrix(1.46218,0,0,1.46218,157.594,74.0089)" pers-center="0,0" pers-size="0,0" pers-start="0,0" pers-end="0,0" locked="0" mesh="" flag=""/>
            <path id="shapePath1" d="M188.3,100.328 L126.889,100.328 C124.466,100.328 122.502,98.3644 122.502,95.9416 L122.502,52.0763 C122.502,49.6534 124.466,47.6896 126.889,47.6896 L188.3,47.6896 C190.723,47.6896 192.686,49.6534 192.686,52.0763 L192.686,95.9416 C192.686,98.3644 190.723,100.328 188.3,100.328 Z" style="stroke:none;fill-rule:evenodd;fill:#eaeaea;fill-opacity:1;"/>
        </g>
        <g id="Shape2">
            <desc shapeID="2" type="0" basicInfo-basicType="0" basicInfo-roundedRectRadius="12" basicInfo-polygonSides="6" basicInfo-starPoints="5" bounding="rect(-3.00001,-18,6.00002,36)" text="" font-familyName="" font-pixelSize="20" font-bold="0" font-underline="0" font-alignment="1" strokeStyle="0" markerStart="0" markerEnd="0" shadowEnabled="0" shadowOffsetX="0" shadowOffsetY="2" shadowBlur="4" shadowOpacity="160" blurEnabled="0" blurRadius="4" transform="matrix(1.46218,0,0,1.46218,126.889,74.0089)" pers-center="0,0" pers-size="0,0" pers-start="0,0" pers-end="0,0" locked="0" mesh="" flag=""/>
            <path id="shapePath2" d="M131.275,100.328 L126.889,100.328 C124.466,100.328 122.502,98.3644 122.502,95.9416 L122.502,52.0763 C122.502,49.6534 124.466,47.6896 126.889,47.6896 C129.311,47.6896 131.275,49.6534 131.275,52.0763 L131.275,100.328 Z" style="stroke:none;fill-rule:evenodd;fill:#d54c3f;fill-opacity:1;"/>
        </g>
        <g id="Shape3">
            <desc shapeID="3" type="0" basicInfo-basicType="0" basicInfo-roundedRectRadius="12" basicInfo-polygonSides="6" basicInfo-starPoints="5" bounding="rect(-2.99985,-18,5.9997,36)" text="" font-familyName="" font-pixelSize="20" font-bold="0" font-underline="0" font-alignment="1" strokeStyle="0" markerStart="0" markerEnd="0" shadowEnabled="0" shadowOffsetX="0" shadowOffsetY="2" shadowBlur="4" shadowOpacity="160" blurEnabled="0" blurRadius="4" transform="matrix(1.46218,0,0,1.46218,188.3,74.0089)" pers-center="0,0" pers-size="0,0" pers-start="0,0" pers-end="0,0" locked="0" mesh="" flag=""/>
            <path id="shapePath3" d="M183.914,100.328 L188.3,100.328 C190.723,100.328 192.686,98.3644 192.686,95.9416 L192.686,52.0763 C192.686,49.6534 190.723,47.6896 188.3,47.6896 C185.878,47.6896 183.914,49.6534 183.914,52.0763 L183.914,100.328 Z" style="stroke:none;fill-rule:evenodd;fill:#b63524;fill-opacity:1;"/>
        </g>
        <g id="Shape4">
            <desc shapeID="4" type="0" basicInfo-basicType="0" basicInfo-roundedRectRadius="12" basicInfo-polygonSides="6" basicInfo-starPoints="5" bounding="rect(-23.9999,-11.0001,47.9998,22.0003)" text="" font-familyName="" font-pixelSize="20" font-bold="0" font-underline="0" font-alignment="1" strokeStyle="0" markerStart="0" markerEnd="0" shadowEnabled="0" shadowOffsetX="0" shadowOffsetY="2" shadowBlur="4" shadowOpacity="160" blurEnabled="0" blurRadius="4" transform="matrix(1.46218,0,0,1.46218,157.594,63.7738)" pers-center="0,0" pers-size="0,0" pers-start="0,0" pers-end="0,0" locked="0" mesh="" flag=""/>
            <path id="shapePath4" d="M190.812,55.6735 C191.945,54.8796 192.686,53.5647 192.686,52.0763 C192.686,49.6534 190.723,47.6896 188.3,47.6896 C187.366,47.6896 186.499,47.9822 185.788,48.4797 C185.788,48.4797 157.597,69.0039 157.597,69.0039 L157.594,69.0058 L157.591,69.0039 L129.401,48.4797 C128.69,47.9822 127.823,47.6896 126.889,47.6896 C124.466,47.6896 122.502,49.6534 122.502,52.0763 C122.502,53.5647 123.243,54.8796 124.377,55.6735 L124.26,55.587 L157.594,79.858 " style="stroke:none;fill-rule:evenodd;fill:#de5145;fill-opacity:1;"/>
        </g>
        <g id="Shape5">
            <desc shapeID="5" type="0" basicInfo-basicType="0" basicInfo-roundedRectRadius="12" basicInfo-polygonSides="6" basicInfo-starPoints="5" bounding="rect(-21.0001,-7.28917,42.0002,14.5783)" text="" font-familyName="" font-pixelSize="20" font-bold="0" font-underline="0" font-alignment="1" strokeStyle="0" markerStart="0" markerEnd="0" shadowEnabled="0" shadowOffsetX="0" shadowOffsetY="2" shadowBlur="4" shadowOpacity="160" blurEnabled="0" blurRadius="4" transform="matrix(1.46218,0,0,1.46218,157.595,58.3477)" pers-center="0,0" pers-size="0,0" pers-start="0,0" pers-end="0,0" locked="0" mesh="" flag=""/>
            <path id="shapePath5" d="M188.3,47.6896 C187.366,47.6896 186.499,47.9822 185.788,48.4797 C185.788,48.4797 157.597,69.0039 157.597,69.0039 L157.594,69.0058 L157.591,69.0039 L129.401,48.4797 C128.69,47.9822 127.823,47.6896 126.889,47.6896 L188.3,47.6896 Z" style="stroke:none;fill-rule:evenodd;fill:#efefef;fill-opacity:1;"/>
        </g>
        <g id="Shape6">
            <desc shapeID="6" type="0" basicInfo-basicType="0" basicInfo-roundedRectRadius="12" basicInfo-polygonSides="6" basicInfo-starPoints="5" bounding="rect(-2.52952,-2.522,5.05904,5.04401)" text="" font-familyName="" font-pixelSize="20" font-bold="0" font-underline="0" font-alignment="1" strokeStyle="0" markerStart="0" markerEnd="0" shadowEnabled="0" shadowOffsetX="0" shadowOffsetY="2" shadowBlur="4" shadowOpacity="160" blurEnabled="0" blurRadius="4" transform="matrix(1.46218,0,0,1.46218,127.579,58.9515)" pers-center="0,0" pers-size="0,0" pers-start="0,0" pers-end="0,0" locked="0" mesh="" flag=""/>
            <path id="shapePath6" d="M131.277,62.5865 L123.884,55.2639 L123.881,55.2697 C124.036,55.416 124.201,55.5506 124.377,55.6735 L124.26,55.587 L131.278,60.6974 L131.277,62.6391 " style="stroke:none;fill-rule:evenodd;fill:#c64132;fill-opacity:1;"/>
        </g>
        <g id="Shape7">
            <desc shapeID="7" type="0" basicInfo-basicType="0" basicInfo-roundedRectRadius="12" basicInfo-polygonSides="6" basicInfo-starPoints="5" bounding="rect(-29.6905,-154.551,59.3809,309.101)" text="" font-familyName="" font-pixelSize="20" font-bold="0" font-underline="0" font-alignment="1" strokeStyle="0" markerStart="0" markerEnd="0" shadowEnabled="0" shadowOffsetX="0" shadowOffsetY="2" shadowBlur="4" shadowOpacity="160" blurEnabled="0" blurRadius="4" transform="matrix(0.260071,0,0,0.260071,271.732,63.2217)" pers-center="0,0" pers-size="0,0" pers-start="0,0" pers-end="0,0" locked="0" mesh="" flag=""/>
            <path id="shapePath7" d="M264.01,96.3808 L278.079,103.416 L279.453,102.391 L278.875,23.9632 L278.079,23.0275 L264.01,30.0631 L264.01,96.3808 Z" style="stroke:none;fill-rule:evenodd;fill:#9d5025;fill-opacity:1;"/>
        </g>
        <g id="Shape8">
            <desc shapeID="8" type="0" basicInfo-basicType="0" basicInfo-roundedRectRadius="12" basicInfo-polygonSides="6" basicInfo-starPoints="5" bounding="rect(-27.0487,-154.551,54.0975,309.101)" text="" font-familyName="" font-pixelSize="20" font-bold="0" font-underline="0" font-alignment="1" strokeStyle="0" markerStart="0" markerEnd="0" shadowEnabled="0" shadowOffsetX="0" shadowOffsetY="2" shadowBlur="4" shadowOpacity="160" blurEnabled="0" blurRadius="4" transform="matrix(0.260071,0,0,0.260071,285.114,63.2217)" pers-center="0,0" pers-size="0,0" pers-start="0,0" pers-end="0,0" locked="0" mesh="" flag=""/>
            <path id="shapePath8" d="M292.148,96.3808 L278.079,103.416 L278.079,23.0275 L292.148,30.0631 L292.148,96.3808 Z" style="stroke:none;fill-rule:evenodd;fill:#f68536;fill-opacity:1;"/>
        </g>
        <g id="Shape9">
            <desc shapeID="9" type="0" basicInfo-basicType="0" basicInfo-roundedRectRadius="12" basicInfo-polygonSides="6" basicInfo-starPoints="5" bounding="rect(-53.7854,-7.63953,107.571,15.2791)" text="" font-familyName="" font-pixelSize="20" font-bold="0" font-underline="0" font-alignment="1" strokeStyle="0" markerStart="0" markerEnd="0" shadowEnabled="0" shadowOffsetX="0" shadowOffsetY="2" shadowBlur="4" shadowOpacity="160" blurEnabled="0" blurRadius="4" transform="matrix(0.260071,0,0,0.260071,258.786,51.0213)" pers-center="0,0" pers-size="0,0" pers-start="0,0" pers-end="0,0" locked="0" mesh="" flag=""/>
            <path id="shapePath9" d="M272.774,52.2888 L267.837,53.0081 L244.798,50.4123 L244.896,50.1562 L248.634,49.0344 L249.032,49.2601 L249.122,49.0344 L272.626,51.7816 L272.774,52.2888 Z" style="stroke:none;fill-rule:evenodd;fill:#6b3a19;fill-opacity:1;"/>
        </g>
        <g id="Shape10">
            <desc shapeID="10" type="0" basicInfo-basicType="0" basicInfo-roundedRectRadius="12" basicInfo-polygonSides="6" basicInfo-starPoints="5" bounding="rect(-8.13942,-24.7258,16.2788,49.4517)" text="" font-familyName="" font-pixelSize="20" font-bold="0" font-underline="0" font-alignment="1" strokeStyle="0" markerStart="0" markerEnd="0" shadowEnabled="0" shadowOffsetX="0" shadowOffsetY="2" shadowBlur="4" shadowOpacity="160" blurEnabled="0" blurRadius="4" transform="matrix(0.260071,0,0,0.260071,246.915,43.9818)" pers-center="0,0" pers-size="0,0" pers-start="0,0" pers-end="0,0" locked="0" mesh="" flag=""/>
            <path id="shapePath10" d="M244.798,39.669 L249.032,37.5513 L249.032,49.2601 L244.798,50.4122 L244.798,39.669 Z" style="stroke:none;fill-rule:evenodd;fill:#9d5025;fill-opacity:1;"/>
        </g>
        <g id="Shape11">
            <desc shapeID="11" type="0" basicInfo-basicType="0" basicInfo-roundedRectRadius="12" basicInfo-polygonSides="6" basicInfo-starPoints="5" bounding="rect(-53.8178,-3.77764,107.636,7.5553)" text="" font-familyName="" font-pixelSize="20" font-bold="0" font-underline="0" font-alignment="1" strokeStyle="0" markerStart="0" markerEnd="0" shadowEnabled="0" shadowOffsetX="0" shadowOffsetY="2" shadowBlur="4" shadowOpacity="160" blurEnabled="0" blurRadius="4" transform="matrix(0.260071,0,0,0.260071,297.38,57.3969)" pers-center="0,0" pers-size="0,0" pers-start="0,0" pers-end="0,0" locked="0" mesh="" flag=""/>
            <path id="shapePath11" d="M311.376,57.1133 L287.798,58.3794 L283.383,58.0766 L284.215,57.7308 L307.199,56.4144 L311.376,57.1133 Z" style="stroke:none;fill-rule:evenodd;fill:#6b3a19;fill-opacity:1;"/>
        </g>
        <g id="Shape12">
            <desc shapeID="12" type="0" basicInfo-basicType="0" basicInfo-roundedRectRadius="12" basicInfo-polygonSides="6" basicInfo-starPoints="5" bounding="rect(-45.646,-28.3335,91.2919,56.667)" text="" font-familyName="" font-pixelSize="20" font-bold="0" font-underline="0" font-alignment="1" strokeStyle="0" markerStart="0" markerEnd="0" shadowEnabled="0" shadowOffsetX="0" shadowOffsetY="2" shadowBlur="4" shadowOpacity="160" blurEnabled="0" blurRadius="4" transform="matrix(0.260071,0,0,0.260071,260.903,44.92)" pers-center="0,0" pers-size="0,0" pers-start="0,0" pers-end="0,0" locked="0" mesh="" flag=""/>
            <path id="shapePath12" d="M272.774,52.2887 L249.032,49.2601 L249.032,37.5513 L272.774,43.1199 L272.774,52.2887 Z" style="stroke:none;fill-rule:evenodd;fill:#f68536;fill-opacity:1;"/>
        </g>
        <g id="Shape13">
            <desc shapeID="13" type="0" basicInfo-basicType="0" basicInfo-roundedRectRadius="12" basicInfo-polygonSides="6" basicInfo-starPoints="5" bounding="rect(-45.9117,-26.2706,91.8233,52.5413)" text="" font-familyName="" font-pixelSize="20" font-bold="0" font-underline="0" font-alignment="1" strokeStyle="0" markerStart="0" markerEnd="0" shadowEnabled="0" shadowOffsetX="0" shadowOffsetY="2" shadowBlur="4" shadowOpacity="160" blurEnabled="0" blurRadius="4" transform="matrix(0.260071,0,0,0.260071,295.324,51.2444)" pers-center="0,0" pers-size="0,0" pers-start="0,0" pers-end="0,0" locked="0" mesh="" flag=""/>
            <path id="shapePath13" d="M307.126,44.4122 L283.383,48.4926 L283.383,58.0766 L307.126,56.6522 L307.264,56.3819 L307.215,44.6301 L307.126,44.4122 Z" style="stroke:none;fill-rule:evenodd;fill:#9d5025;fill-opacity:1;"/>
        </g>
        <g id="Shape14">
            <desc shapeID="14" type="0" basicInfo-basicType="0" basicInfo-roundedRectRadius="12" basicInfo-polygonSides="6" basicInfo-starPoints="5" bounding="rect(-8.17125,-24.4185,16.3425,48.837)" text="" font-familyName="" font-pixelSize="20" font-bold="0" font-underline="0" font-alignment="1" strokeStyle="0" markerStart="0" markerEnd="0" shadowEnabled="0" shadowOffsetX="0" shadowOffsetY="2" shadowBlur="4" shadowOpacity="160" blurEnabled="0" blurRadius="4" transform="matrix(0.260071,0,0,0.260071,309.251,50.7627)" pers-center="0,0" pers-size="0,0" pers-start="0,0" pers-end="0,0" locked="0" mesh="" flag=""/>
            <path id="shapePath14" d="M311.376,57.1133 L307.126,56.5609 L307.126,44.4122 L311.376,45.9682 L311.376,57.1133 Z" style="stroke:none;fill-rule:evenodd;fill:#f68536;fill-opacity:1;"/>
        </g>
        <g id="Shape15">
            <desc shapeID="15" type="0" basicInfo-basicType="0" basicInfo-roundedRectRadius="12" basicInfo-polygonSides="6" basicInfo-starPoints="5" bounding="rect(-29.3494,-15.1784,58.6989,30.3568)" text="AWS&#10;Route53" font-familyName="나눔스퀘어" font-pixelSize="16" font-bold="0" font-underline="0" font-alignment="1" strokeStyle="0" markerStart="0" markerEnd="0" shadowEnabled="0" shadowOffsetX="0" shadowOffsetY="2" shadowBlur="4" shadowOpacity="160" blurEnabled="0" blurRadius="4" transform="matrix(1,0,0,1,278.013,127.363)" pers-center="0,0" pers-size="0,0" pers-start="0,0" pers-end="0,0" locked="0" mesh="" flag=""/>
            <path id="shapePath15" d="M268.434,120.168 L263.218,120.168 L261.81,123.896 L261.042,123.896 L265.49,112.36 L266.194,112.36 L270.594,123.896 L269.81,123.896 L268.434,120.168 M263.458,119.544 L268.194,119.544 L266.818,115.816 C266.647,115.347 266.476,114.891 266.306,114.448 C266.135,114.006 265.98,113.56 265.842,113.112 C265.714,113.56 265.567,114.006 265.402,114.448 C265.236,114.891 265.063,115.347 264.882,115.816 L263.458,119.544 M284.801,112.36 L281.569,123.896 L280.737,123.896 L277.761,113.256 L274.817,123.896 L273.985,123.896 L270.753,112.36 L271.505,112.36 L274.401,122.968 L277.377,112.36 L278.177,112.36 L281.169,122.952 L284.097,112.36 L284.801,112.36 M290.053,123.4 C290.543,123.4 290.983,123.339 291.373,123.216 C291.762,123.094 292.093,122.928 292.365,122.72 C292.637,122.512 292.842,122.272 292.981,122 C293.119,121.728 293.189,121.443 293.189,121.144 L293.189,120.728 C293.189,120.408 293.151,120.128 293.077,119.888 C293.002,119.648 292.842,119.435 292.597,119.248 C292.351,119.062 291.999,118.888 291.541,118.728 C291.082,118.568 290.469,118.408 289.701,118.248 C288.965,118.088 288.383,117.902 287.957,117.688 C287.53,117.475 287.21,117.243 286.997,116.992 C286.783,116.742 286.647,116.478 286.589,116.2 C286.53,115.923 286.501,115.646 286.501,115.368 L286.501,114.968 C286.501,114.488 286.607,114.072 286.821,113.72 C287.034,113.368 287.311,113.08 287.653,112.856 C287.994,112.632 288.378,112.464 288.805,112.352 C289.231,112.24 289.663,112.184 290.101,112.184 C290.869,112.184 291.533,112.272 292.093,112.448 C292.653,112.624 293.114,112.846 293.477,113.112 L293.141,113.688 C292.767,113.443 292.33,113.243 291.829,113.088 C291.327,112.934 290.751,112.856 290.101,112.856 C289.759,112.856 289.418,112.896 289.077,112.976 C288.735,113.056 288.426,113.184 288.149,113.36 C287.871,113.536 287.645,113.758 287.469,114.024 C287.293,114.291 287.205,114.611 287.205,114.984 L287.205,115.352 C287.205,115.608 287.234,115.843 287.293,116.056 C287.351,116.27 287.479,116.467 287.677,116.648 C287.874,116.83 288.157,117 288.525,117.16 C288.893,117.32 289.386,117.47 290.005,117.608 C290.783,117.79 291.423,117.966 291.925,118.136 C292.426,118.307 292.823,118.507 293.117,118.736 C293.41,118.966 293.613,119.238 293.725,119.552 C293.837,119.867 293.893,120.254 293.893,120.712 L293.893,121.16 C293.893,121.534 293.807,121.896 293.637,122.248 C293.466,122.6 293.218,122.912 292.893,123.184 C292.567,123.456 292.167,123.672 291.693,123.832 C291.218,123.992 290.677,124.072 290.069,124.072 C289.365,124.072 288.685,123.971 288.029,123.768 C287.373,123.566 286.773,123.262 286.229,122.856 L286.581,122.264 C286.933,122.51 287.269,122.707 287.589,122.856 C287.909,123.006 288.213,123.12 288.501,123.2 C288.789,123.28 289.063,123.334 289.325,123.36 C289.586,123.387 289.829,123.4 290.053,123.4 M248.663,130.829 L252.167,130.829 C252.743,130.829 253.266,130.885 253.735,130.997 C254.205,131.109 254.605,131.285 254.935,131.525 C255.266,131.765 255.519,132.072 255.695,132.445 C255.871,132.818 255.959,133.272 255.959,133.805 L255.959,134.157 C255.959,134.968 255.759,135.613 255.359,136.093 C254.959,136.573 254.407,136.904 253.703,137.085 L256.247,142.365 L255.495,142.365 L252.999,137.229 C252.722,137.261 252.429,137.277 252.119,137.277 L249.367,137.277 L249.367,142.365 L248.663,142.365 L248.663,130.829 M249.367,131.485 L249.367,136.621 L252.039,136.621 C253.149,136.621 253.959,136.41 254.471,135.989 C254.983,135.568 255.239,134.952 255.239,134.141 L255.239,133.837 C255.239,133.037 254.989,132.445 254.487,132.061 C253.986,131.677 253.213,131.485 252.167,131.485 L249.367,131.485 M261.485,133.661 C262.594,133.661 263.456,133.997 264.069,134.669 C264.682,135.341 264.989,136.29 264.989,137.517 L264.989,138.637 C264.989,139.864 264.682,140.813 264.069,141.485 C263.456,142.157 262.594,142.493 261.485,142.493 C260.376,142.493 259.514,142.157 258.901,141.485 C258.288,140.813 257.981,139.864 257.981,138.637 L257.981,137.517 C257.981,136.29 258.288,135.341 258.901,134.669 C259.514,133.997 260.376,133.661 261.485,133.661 M261.485,141.901 C262.349,141.901 263.034,141.634 263.541,141.101 C264.048,140.568 264.301,139.746 264.301,138.637 L264.301,137.517 C264.301,136.408 264.048,135.586 263.541,135.053 C263.034,134.52 262.349,134.253 261.485,134.253 C260.621,134.253 259.936,134.52 259.429,135.053 C258.922,135.586 258.669,136.408 258.669,137.517 L258.669,138.637 C258.669,139.746 258.922,140.568 259.429,141.101 C259.936,141.634 260.621,141.901 261.485,141.901 M267.223,133.837 L267.911,133.837 L267.911,139.469 C267.911,139.714 267.935,139.978 267.983,140.261 C268.031,140.544 268.129,140.805 268.279,141.045 C268.428,141.285 268.649,141.485 268.943,141.645 C269.236,141.805 269.633,141.885 270.135,141.885 C270.615,141.885 271.028,141.802 271.375,141.637 C271.721,141.472 272.007,141.272 272.231,141.037 C272.455,140.802 272.623,140.562 272.735,140.317 C272.847,140.072 272.903,139.869 272.903,139.709 L272.903,133.837 L273.591,133.837 L273.591,142.365 L272.919,142.365 L272.919,141.021 C272.865,141.138 272.761,141.28 272.607,141.445 C272.452,141.61 272.255,141.77 272.015,141.925 C271.775,142.08 271.497,142.213 271.183,142.325 C270.868,142.437 270.529,142.493 270.167,142.493 C269.601,142.493 269.132,142.416 268.759,142.261 C268.385,142.106 268.084,141.896 267.855,141.629 C267.625,141.362 267.463,141.061 267.367,140.725 C267.271,140.389 267.223,140.034 267.223,139.661 L267.223,133.837 M276.83,134.413 L275.342,134.413 L275.342,133.837 L276.83,133.837 L276.83,131.629 L277.518,131.629 L277.518,133.837 L279.934,133.837 L279.934,134.413 L277.518,134.413 L277.518,139.917 C277.518,140.557 277.601,141.037 277.766,141.357 C277.932,141.677 278.286,141.837 278.83,141.837 C279.076,141.837 279.297,141.821 279.494,141.789 C279.692,141.757 279.892,141.714 280.094,141.661 L280.206,142.221 C280.046,142.274 279.836,142.322 279.574,142.365 C279.313,142.408 279.086,142.429 278.894,142.429 C278.596,142.429 278.321,142.4 278.07,142.341 C277.82,142.282 277.601,142.17 277.414,142.005 C277.228,141.84 277.084,141.605 276.982,141.301 C276.881,140.997 276.83,140.594 276.83,140.093 L276.83,134.413 M285.03,134.269 C284.177,134.269 283.505,134.557 283.014,135.133 C282.523,135.709 282.278,136.504 282.278,137.517 L282.278,137.677 L287.75,137.677 C287.75,136.546 287.521,135.696 287.062,135.125 C286.603,134.554 285.926,134.269 285.03,134.269 M285.142,141.885 C285.75,141.885 286.289,141.805 286.758,141.645 C287.227,141.485 287.606,141.282 287.894,141.037 L288.23,141.549 C287.931,141.794 287.518,142.013 286.99,142.205 C286.462,142.397 285.851,142.493 285.158,142.493 C284.55,142.493 284.022,142.397 283.574,142.205 C283.126,142.013 282.758,141.744 282.47,141.397 C282.182,141.05 281.966,140.642 281.822,140.173 C281.678,139.704 281.606,139.197 281.606,138.653 L281.606,137.437 C281.606,136.882 281.686,136.373 281.846,135.909 C282.006,135.445 282.233,135.045 282.526,134.709 C282.819,134.373 283.177,134.114 283.598,133.933 C284.019,133.752 284.497,133.661 285.03,133.661 C285.595,133.661 286.089,133.757 286.51,133.949 C286.931,134.141 287.283,134.408 287.566,134.749 C287.849,135.09 288.062,135.504 288.206,135.989 C288.35,136.474 288.422,137.01 288.422,137.597 L288.422,138.237 L282.278,138.237 L282.278,138.541 C282.278,139.64 282.531,140.472 283.038,141.037 C283.545,141.602 284.246,141.885 285.142,141.885 M297.253,138.893 C297.253,137.89 297.002,137.16 296.501,136.701 C295.999,136.242 295.29,136.013 294.373,136.013 C293.786,136.013 293.298,136.12 292.909,136.333 C292.519,136.546 292.186,136.792 291.909,137.069 L291.109,137.069 L291.477,130.829 L297.237,130.829 L297.237,131.485 L292.117,131.485 L291.845,136.365 C292.122,136.088 292.49,135.85 292.949,135.653 C293.407,135.456 293.909,135.357 294.453,135.357 C294.965,135.357 295.434,135.432 295.861,135.581 C296.287,135.73 296.658,135.949 296.973,136.237 C297.287,136.525 297.53,136.888 297.701,137.325 C297.871,137.762 297.957,138.269 297.957,138.845 L297.957,139.149 C297.957,139.533 297.893,139.928 297.765,140.333 C297.637,140.738 297.423,141.104 297.125,141.429 C296.826,141.754 296.434,142.021 295.949,142.229 C295.463,142.437 294.869,142.541 294.165,142.541 C293.493,142.541 292.845,142.437 292.221,142.229 C291.597,142.021 291.013,141.698 290.469,141.261 L290.869,140.669 C291.423,141.117 291.983,141.432 292.549,141.613 C293.114,141.794 293.653,141.885 294.165,141.885 C294.751,141.885 295.242,141.794 295.637,141.613 C296.031,141.432 296.349,141.205 296.589,140.933 C296.829,140.661 296.999,140.368 297.101,140.053 C297.202,139.738 297.253,139.442 297.253,139.165 L297.253,138.893 M300.322,132.445 C300.45,132.232 300.613,132.018 300.81,131.805 C301.008,131.592 301.242,131.4 301.514,131.229 C301.786,131.058 302.095,130.92 302.442,130.813 C302.789,130.706 303.17,130.653 303.586,130.653 C304.087,130.653 304.543,130.722 304.954,130.861 C305.365,131 305.714,131.194 306.002,131.445 C306.29,131.696 306.514,132 306.674,132.357 C306.834,132.714 306.914,133.106 306.914,133.533 L306.914,133.693 C306.914,133.917 306.882,134.154 306.818,134.405 C306.754,134.656 306.642,134.901 306.482,135.141 C306.322,135.381 306.109,135.602 305.842,135.805 C305.576,136.008 305.234,136.178 304.818,136.317 C305.629,136.456 306.255,136.765 306.698,137.245 C307.141,137.725 307.362,138.306 307.362,138.989 L307.362,139.229 C307.362,139.634 307.298,140.034 307.17,140.429 C307.042,140.824 306.829,141.176 306.53,141.485 C306.232,141.794 305.84,142.048 305.354,142.245 C304.869,142.442 304.274,142.541 303.57,142.541 C302.898,142.541 302.25,142.437 301.626,142.229 C301.002,142.021 300.418,141.698 299.874,141.261 L300.274,140.669 C300.829,141.117 301.389,141.432 301.954,141.613 C302.52,141.794 303.058,141.885 303.57,141.885 C304.157,141.885 304.647,141.8 305.042,141.629 C305.437,141.458 305.754,141.242 305.994,140.981 C306.234,140.72 306.405,140.434 306.506,140.125 C306.607,139.816 306.658,139.522 306.658,139.245 L306.658,139.037 C306.658,138.536 306.554,138.13 306.346,137.821 C306.138,137.512 305.882,137.272 305.578,137.101 C305.274,136.93 304.952,136.816 304.61,136.757 C304.269,136.698 303.965,136.669 303.698,136.669 L302.418,136.669 L302.418,136.029 L303.666,136.029 C303.922,136.029 304.199,135.986 304.498,135.901 C304.797,135.816 305.074,135.68 305.33,135.493 C305.586,135.306 305.797,135.061 305.962,134.757 C306.128,134.453 306.21,134.082 306.21,133.645 L306.21,133.517 C306.21,132.866 305.983,132.336 305.53,131.925 C305.077,131.514 304.434,131.309 303.602,131.309 C303.122,131.309 302.642,131.416 302.162,131.629 C301.682,131.842 301.255,132.242 300.882,132.829 L300.322,132.445 Z" style="stroke:none;fill-rule:nonzero;fill:#000000;fill-opacity:1;"/>
        </g>
        <g id="Shape16">
            <desc shapeID="16" type="0" basicInfo-basicType="0" basicInfo-roundedRectRadius="12" basicInfo-polygonSides="6" basicInfo-starPoints="5" bounding="rect(-26.5,-41.1,53,82.2)" text="" font-familyName="" font-pixelSize="20" font-bold="0" font-underline="0" font-alignment="1" strokeStyle="0" markerStart="0" markerEnd="0" shadowEnabled="0" shadowOffsetX="0" shadowOffsetY="2" shadowBlur="4" shadowOpacity="160" blurEnabled="0" blurRadius="4" transform="matrix(0.540064,0,0,0.540064,516.629,84.2753)" pers-center="0,0" pers-size="0,0" pers-start="0,0" pers-end="0,0" locked="0" mesh="" flag=""/>
            <path id="shapePath16" d="M530.887,62.7808 L524.406,62.7808 L524.406,66.0211 C522.138,63.4828 519.06,62.0787 515.549,62.0787 C507.88,62.0787 502.318,68.4514 502.318,77.2545 C502.318,85.7335 507.88,91.9442 515.495,91.9442 C519.06,91.9442 521.76,90.756 524.406,87.8937 L524.406,91.8362 C524.406,97.7229 522.084,100.639 517.224,100.639 C514.631,100.639 512.039,99.3431 510.905,97.3448 C510.257,96.2107 510.041,95.1305 509.825,92.7003 L503.452,92.7003 C503.506,101.179 508.745,106.472 517.169,106.472 C521.976,106.472 526.189,104.528 528.511,101.017 C530.401,98.3169 530.941,95.8327 530.941,90.324 L530.941,62.7808 L530.887,62.7808 M516.737,67.8573 C521.436,67.8573 524.676,71.5298 524.676,76.8764 C524.676,82.3851 521.544,86.0575 516.845,86.0575 C512.093,86.0575 509.015,82.4931 509.015,76.9844 C508.961,71.4758 512.039,67.8573 516.737,67.8573 Z" style="stroke:none;fill-rule:evenodd;fill:#c12126;fill-opacity:1;"/>
        </g>
        <g id="Shape17">
            <desc shapeID="17" type="0" basicInfo-basicType="0" basicInfo-roundedRectRadius="12" basicInfo-polygonSides="6" basicInfo-starPoints="5" bounding="rect(-35.7,-26.85,71.4,53.7)" text="" font-familyName="" font-pixelSize="20" font-bold="0" font-underline="0" font-alignment="1" strokeStyle="0" markerStart="0" markerEnd="0" shadowEnabled="0" shadowOffsetX="0" shadowOffsetY="2" shadowBlur="4" shadowOpacity="160" blurEnabled="0" blurRadius="4" transform="matrix(0.540064,0,0,0.540064,424.441,76.5254)" pers-center="0,0" pers-size="0,0" pers-start="0,0" pers-end="0,0" locked="0" mesh="" flag=""/>
            <path id="shapePath17" d="M405.16,62.7807 L405.16,91.0261 L411.641,91.0261 L411.641,76.4443 C411.641,70.4497 413.261,67.8573 416.88,67.8573 C419.796,67.8573 421.2,70.2876 421.2,75.3642 L421.2,91.0261 L427.681,91.0261 L427.681,76.4443 C427.681,70.3956 429.301,67.8573 432.92,67.8573 C436.052,67.8573 437.24,69.9636 437.24,75.3102 L437.24,91.0261 L443.721,91.0261 L443.721,73.582 C443.721,66.0211 440.481,62.0246 434.216,62.0246 C430.759,62.0246 427.897,63.4828 425.899,66.1831 C424.171,63.4828 421.524,62.0246 418.392,62.0246 C415.584,62.0246 414.125,62.7807 411.695,65.373 L411.695,62.7807 L405.16,62.7807 Z" style="stroke:none;fill-rule:evenodd;fill:#646569;fill-opacity:1;"/>
        </g>
        <g id="Shape18">
            <desc shapeID="18" type="0" basicInfo-basicType="0" basicInfo-roundedRectRadius="12" basicInfo-polygonSides="6" basicInfo-starPoints="5" bounding="rect(-26.55,-27.65,53.1,55.3)" text="" font-familyName="" font-pixelSize="20" font-bold="0" font-underline="0" font-alignment="1" strokeStyle="0" markerStart="0" markerEnd="0" shadowEnabled="0" shadowOffsetX="0" shadowOffsetY="2" shadowBlur="4" shadowOpacity="160" blurEnabled="0" blurRadius="4" transform="matrix(0.540064,0,0,0.540064,460.328,76.9574)" pers-center="0,0" pers-size="0,0" pers-start="0,0" pers-end="0,0" locked="0" mesh="" flag=""/>
            <path id="shapePath18" d="M468.132,62.7808 L468.132,66.0751 C465.323,63.2128 462.893,62.0247 459.329,62.0247 C451.768,62.0247 445.989,68.3434 445.989,76.7144 C445.989,85.5715 451.606,91.8902 459.491,91.8902 C462.893,91.8902 465.107,90.8641 468.132,88.0557 L468.132,91.0261 L474.667,91.0261 L474.667,62.7808 L468.132,62.7808 M460.517,67.8574 C465.269,67.8574 468.564,71.6378 468.564,76.9305 C468.564,82.3851 465.269,86.0575 460.517,86.0575 C455.926,86.0575 452.686,82.2231 452.686,76.9305 C452.632,71.6918 455.98,67.8574 460.517,67.8574 Z" style="stroke:none;fill-rule:evenodd;fill:#646569;fill-opacity:1;"/>
        </g>
        <g id="Shape19">
            <desc shapeID="19" type="0" basicInfo-basicType="0" basicInfo-roundedRectRadius="12" basicInfo-polygonSides="6" basicInfo-starPoints="5" bounding="rect(-7.89998,-40.7,15.8,81.4)" text="" font-familyName="" font-pixelSize="20" font-bold="0" font-underline="0" font-alignment="1" strokeStyle="0" markerStart="0" markerEnd="0" shadowEnabled="0" shadowOffsetX="0" shadowOffsetY="2" shadowBlur="4" shadowOpacity="160" blurEnabled="0" blurRadius="4" transform="matrix(0.540064,0,0,0.540064,483.092,69.0455)" pers-center="0,0" pers-size="0,0" pers-start="0,0" pers-end="0,0" locked="0" mesh="" flag=""/>
            <path id="shapePath19" d="M486.386,62.7808 L479.851,62.7808 L479.851,91.0261 L486.386,91.0261 L486.386,62.7808 M483.146,47.0649 C480.715,47.0649 478.825,48.9551 478.825,51.2774 C478.825,53.5997 480.769,55.5979 483.038,55.5979 C485.414,55.5979 487.358,53.6537 487.358,51.2774 C487.358,48.9011 485.468,47.0649 483.146,47.0649 Z" style="stroke:none;fill-rule:evenodd;fill:#646569;fill-opacity:1;"/>
        </g>
        <g id="Shape20">
            <desc shapeID="20" type="0" basicInfo-basicType="0" basicInfo-roundedRectRadius="12" basicInfo-polygonSides="6" basicInfo-starPoints="5" bounding="rect(-6.05001,-47.35,12.1,94.7)" text="" font-familyName="" font-pixelSize="20" font-bold="0" font-underline="0" font-alignment="1" strokeStyle="0" markerStart="0" markerEnd="0" shadowEnabled="0" shadowOffsetX="0" shadowOffsetY="2" shadowBlur="4" shadowOpacity="160" blurEnabled="0" blurRadius="4" transform="matrix(0.540064,0,0,0.540064,495.594,65.454)" pers-center="0,0" pers-size="0,0" pers-start="0,0" pers-end="0,0" locked="0" mesh="" flag=""/>
            <path id="shapePath20" d="M492.327,39.882 L498.861,39.882 L498.861,91.0261 L492.327,91.0261 L492.327,39.882 Z" style="stroke:none;fill-rule:evenodd;fill:#646569;fill-opacity:1;"/>
        </g>
        <g id="Shape21">
            <desc shapeID="21" type="0" basicInfo-basicType="0" basicInfo-roundedRectRadius="12" basicInfo-polygonSides="6" basicInfo-starPoints="5" bounding="rect(-22.35,-26.95,44.7,53.9)" text="" font-familyName="" font-pixelSize="20" font-bold="0" font-underline="0" font-alignment="1" strokeStyle="0" markerStart="0" markerEnd="0" shadowEnabled="0" shadowOffsetX="0" shadowOffsetY="2" shadowBlur="4" shadowOpacity="160" blurEnabled="0" blurRadius="4" transform="matrix(0.540064,0,0,0.540064,546.846,77.3354)" pers-center="0,0" pers-size="0,0" pers-start="0,0" pers-end="0,0" locked="0" mesh="" flag=""/>
            <path id="shapePath21" d="M541.31,62.7807 L534.776,62.7807 L534.776,79.1447 C534.776,83.5732 535.586,86.0035 537.746,88.3257 C540.014,90.648 543.093,91.8902 546.819,91.8902 C550.599,91.8902 553.678,90.702 555.946,88.3257 C558.106,86.0035 558.916,83.5732 558.916,79.1447 L558.916,62.7807 L552.382,62.7807 L552.382,79.0366 C552.382,83.8432 550.653,86.0575 546.819,86.0575 C543.039,86.0575 541.31,83.8432 541.31,79.0366 L541.31,62.7807 Z" style="stroke:none;fill-rule:evenodd;fill:#c12126;fill-opacity:1;"/>
        </g>
        <g id="Shape22">
            <desc shapeID="22" type="0" basicInfo-basicType="0" basicInfo-roundedRectRadius="12" basicInfo-polygonSides="6" basicInfo-starPoints="5" bounding="rect(-22.55,-26.85,45.1,53.7)" text="" font-familyName="" font-pixelSize="20" font-bold="0" font-underline="0" font-alignment="1" strokeStyle="0" markerStart="0" markerEnd="0" shadowEnabled="0" shadowOffsetX="0" shadowOffsetY="2" shadowBlur="4" shadowOpacity="160" blurEnabled="0" blurRadius="4" transform="matrix(0.540064,0,0,0.540064,575.415,76.5794)" pers-center="0,0" pers-size="0,0" pers-start="0,0" pers-end="0,0" locked="0" mesh="" flag=""/>
            <path id="shapePath22" d="M563.237,62.7808 L563.237,91.0261 L569.772,91.0261 L569.772,77.4165 C569.772,70.4497 571.392,67.9114 575.766,67.9114 C579.817,67.9114 581.059,69.7476 581.059,75.3102 L581.059,91.0801 L587.594,91.0801 L587.594,73.744 C587.594,65.8051 584.299,62.0787 577.387,62.0787 C574.308,62.0787 572.364,62.9428 569.826,65.427 L569.826,62.8348 L563.237,62.8348 L563.237,62.7808 Z" style="stroke:none;fill-rule:evenodd;fill:#c12126;fill-opacity:1;"/>
        </g>
        <g id="Shape23">
            <desc shapeID="23" type="0" basicInfo-basicType="0" basicInfo-roundedRectRadius="12" basicInfo-polygonSides="6" basicInfo-starPoints="5" bounding="rect(-48.8,-48.8,97.6,97.6)" text="" font-familyName="" font-pixelSize="20" font-bold="0" font-underline="0" font-alignment="1" strokeStyle="0" markerStart="0" markerEnd="0" shadowEnabled="0" shadowOffsetX="0" shadowOffsetY="2" shadowBlur="4" shadowOpacity="160" blurEnabled="0" blurRadius="4" transform="matrix(0.540064,0,0,0.540064,371.892,74.9322)" pers-center="0,0" pers-size="0,0" pers-start="0,0" pers-end="0,0" locked="0" mesh="" flag=""/>
            <path id="shapePath23" d="M371.946,64.995 C366.438,64.995 361.955,69.4775 361.955,74.9862 C361.955,80.4948 366.438,84.9774 371.946,84.9774 C377.455,84.9774 381.938,80.4948 381.938,74.9862 C381.884,69.4775 377.455,64.995 371.946,64.995 M356.393,74.9862 C356.393,66.3992 363.359,59.4324 371.946,59.4324 C380.533,59.4324 387.5,66.3992 387.5,74.9862 C387.5,75.5803 387.446,76.1203 387.392,76.6604 C387.284,78.1726 388.364,79.3067 389.877,79.3067 C392.415,79.3067 392.685,76.0123 392.685,74.9322 C392.685,63.4289 383.396,54.1398 371.892,54.1398 C360.389,54.1398 351.1,63.4289 351.1,74.9322 C351.1,86.4355 360.389,95.7246 371.892,95.7246 C377.995,95.7246 383.45,93.0783 387.284,88.9198 L391.551,92.4843 C386.744,97.8849 379.723,101.287 371.892,101.287 C357.311,101.287 345.537,89.4599 345.537,74.9322 C345.537,60.3505 357.365,48.5771 371.892,48.5771 C386.474,48.5771 398.248,60.4045 398.248,74.9322 C398.248,80.7649 395.439,85.5174 389.877,85.5174 C387.392,85.5174 385.934,84.3833 385.07,83.1412 C382.316,87.5697 377.455,90.486 371.838,90.486 C363.359,90.54 356.393,83.5732 356.393,74.9862 M371.946,70.3957 C374.485,70.3957 376.537,72.4479 376.537,74.9862 C376.537,77.5245 374.485,79.5767 371.946,79.5767 C369.408,79.5767 367.356,77.5245 367.356,74.9862 C367.356,72.4479 369.408,70.3957 371.946,70.3957 Z" style="stroke:none;fill-rule:evenodd;fill:#c12126;fill-opacity:1;"/>
        </g>
        <g id="Shape24">
            <desc shapeID="24" type="0" basicInfo-basicType="0" basicInfo-roundedRectRadius="12" basicInfo-polygonSides="6" basicInfo-starPoints="5" bounding="rect(-39.9999,-40,79.9997,80)" text="" font-familyName="" font-pixelSize="20" font-bold="0" font-underline="0" font-alignment="1" strokeStyle="0" markerStart="0" markerEnd="0" shadowEnabled="0" shadowOffsetX="0" shadowOffsetY="2" shadowBlur="4" shadowOpacity="160" blurEnabled="0" blurRadius="4" transform="matrix(0.835749,0,0,0.835749,45.2274,76.5254)" pers-center="0,0" pers-size="0,0" pers-start="0,0" pers-end="0,0" locked="0" mesh="" flag=""/>
            <path id="shapePath24" d="M11.7975,76.5254 C11.7975,58.0051 26.7073,43.0954 45.2274,43.0954 C63.7476,43.0954 78.6572,58.0051 78.6572,76.5254 C78.6572,95.0457 63.7476,109.955 45.2274,109.955 C26.7073,109.955 11.7975,95.0457 11.7975,76.5254 Z" style="stroke:none;fill-rule:evenodd;fill:#0072c6;fill-opacity:1;"/>
        </g>
        <g id="Shape25">
            <desc shapeID="25" type="0" basicInfo-basicType="0" basicInfo-roundedRectRadius="12" basicInfo-polygonSides="6" basicInfo-starPoints="5" bounding="rect(-34.1418,-34.1418,68.2834,68.2835)" text="" font-familyName="" font-pixelSize="20" font-bold="0" font-underline="0" font-alignment="1" strokeStyle="0" markerStart="0" markerEnd="0" shadowEnabled="0" shadowOffsetX="0" shadowOffsetY="2" shadowBlur="4" shadowOpacity="160" blurEnabled="0" blurRadius="4" transform="matrix(0.835749,0,0,0.835749,40.3312,71.6304)" pers-center="0,0" pers-size="0,0" pers-start="0,0" pers-end="0,0" locked="0" mesh="" flag=""/>
            <path id="shapePath25" d="M21.5885,100.164 C8.53348,87.1093 8.53348,65.9426 21.5885,52.8876 C34.6435,39.8327 55.8099,39.8327 68.865,52.8876 L21.5885,100.164 Z" style="stroke:none;fill-rule:evenodd;fill:#ffffff;fill-opacity:0.2;"/>
        </g>
        <g id="Shape26">
            <desc shapeID="26" type="0" basicInfo-basicType="0" basicInfo-roundedRectRadius="12" basicInfo-polygonSides="6" basicInfo-starPoints="5" bounding="rect(-36.7996,-36.7266,73.5993,73.4531)" text="" font-familyName="" font-pixelSize="20" font-bold="0" font-underline="0" font-alignment="1" strokeStyle="0" markerStart="0" markerEnd="0" shadowEnabled="0" shadowOffsetX="0" shadowOffsetY="2" shadowBlur="4" shadowOpacity="160" blurEnabled="0" blurRadius="4" transform="matrix(0.835749,0,0,0.835749,45.2273,76.4586)" pers-center="0,0" pers-size="0,0" pers-start="0,0" pers-end="0,0" locked="0" mesh="" flag=""/>
            <path id="shapePath26" d="M75.9825,76.52 C75.9825,69.6308 73.6455,62.9875 69.3396,57.5746 L69.0935,57.3286 C68.9708,57.2055 68.9708,57.0824 68.8474,56.9593 L66.8792,54.8681 C61.0973,48.9629 53.4699,45.7644 45.2274,45.7644 C45.2274,45.7644 45.2274,45.7644 45.1044,45.7644 L44.9814,45.7644 C36.862,45.8875 29.3577,48.9629 23.5756,54.745 L21.4843,56.9593 C21.3613,57.0824 21.3613,57.2055 21.2383,57.3286 L20.9922,57.4517 C16.8095,62.8644 14.4721,69.6308 14.4721,76.52 C14.4721,83.4092 16.8095,90.0524 21.1153,95.4657 L21.3613,95.7118 C21.4843,95.8345 21.4843,95.9573 21.6074,96.0806 L23.5756,98.1716 C29.3577,103.954 36.862,107.153 44.9814,107.153 L45.1044,107.153 C45.1044,107.153 45.1044,107.153 45.2274,107.153 C53.3469,107.153 61.0973,103.954 66.8792,98.1716 L68.8474,95.9573 C68.9708,95.8345 68.9708,95.7118 69.0935,95.5884 L69.3396,95.3423 C73.6455,90.1755 75.9825,83.4092 75.9825,76.52 M63.5577,56.4674 C63.4344,56.4674 63.3116,56.5905 63.1883,56.5905 C62.9428,56.7136 62.6967,56.8364 62.5734,56.8364 C62.0812,57.0824 61.4662,57.2055 60.8512,57.4517 C60.7279,57.4517 60.6051,57.5746 60.4824,57.5746 C59.7441,57.8206 59.1291,57.9437 58.3908,58.1898 C58.2675,58.1898 58.0214,58.3128 57.8986,58.3128 C56.7915,55.3602 55.4383,52.7767 53.839,50.8085 C57.4064,51.9155 60.7279,53.8839 63.5577,56.4674 M44.9814,49.3321 L45.1044,49.3321 C48.426,49.3321 51.8707,52.8998 54.3311,59.0509 C51.5016,59.543 48.426,59.7891 45.2274,59.7891 C42.0289,59.7891 38.8304,59.543 35.8778,59.0509 C38.2153,53.0229 41.6598,49.4551 44.9814,49.3321 M36.2469,50.9314 C34.7706,52.8998 33.4174,55.3602 32.3102,58.3128 C32.1872,58.3128 32.1872,58.3128 32.0641,58.3128 C31.326,58.0667 30.5879,57.9437 29.9727,57.6975 C29.8498,57.6975 29.7267,57.5746 29.6037,57.5746 C29.1116,57.3286 28.4965,57.0824 28.0044,56.8364 C27.7584,56.7136 27.6353,56.7136 27.3893,56.5905 C27.2663,56.4674 27.1432,56.4674 26.8972,56.3443 C29.7267,54.0068 32.8023,52.0386 36.2469,50.9314 M26.8972,96.5728 C27.0203,96.5728 27.1432,96.4495 27.2663,96.4495 C27.5123,96.3267 27.6353,96.3267 27.8814,96.2034 C28.3735,95.9573 28.9886,95.8345 29.6037,95.5884 C29.7267,95.5884 29.8498,95.4657 29.9727,95.4657 C30.7109,95.2196 31.326,95.0962 32.0641,94.8501 C32.1872,94.8501 32.1872,94.8501 32.3102,94.8501 C33.4174,97.68 34.7706,100.263 36.2469,102.231 C32.8023,101.001 29.6037,99.0332 26.8972,96.5728 M45.1044,103.708 L44.9814,103.708 C41.6598,103.585 38.2153,100.14 35.8778,94.1121 C38.8304,93.62 42.0289,93.374 45.2274,93.374 C48.426,93.374 51.3785,93.62 54.3311,94.1121 C51.9937,100.14 48.426,103.708 45.1044,103.708 M53.839,102.231 C55.4383,100.263 56.7915,97.68 57.8986,94.7274 C58.0214,94.7274 58.2675,94.8501 58.3908,94.8501 C59.1291,95.0962 59.8668,95.2196 60.4824,95.4657 C60.6051,95.4657 60.7279,95.5884 60.8512,95.5884 C61.4662,95.8345 61.9584,95.9573 62.5734,96.2034 C62.8195,96.3267 62.9428,96.3267 63.1883,96.4495 C63.3116,96.4495 63.4344,96.5728 63.6805,96.6956 C60.7279,99.156 57.4064,101.124 53.839,102.231 M66.2643,93.7431 C65.8948,93.7431 65.6493,93.62 65.2799,93.4971 C64.911,93.374 64.4188,93.1281 64.0499,93.005 C63.9266,93.005 63.8038,92.8819 63.6805,92.8819 C62.2045,92.2668 60.6051,91.8978 59.0058,91.4056 C59.3747,89.9293 59.7441,88.4531 59.9902,86.9768 L56.2993,86.9768 C56.0534,88.3302 55.8074,89.5604 55.4383,90.6674 C52.2397,90.0524 48.7951,89.8064 45.2274,89.8064 C41.5368,89.8064 38.0922,90.1755 34.7706,90.7906 C34.4016,89.5604 34.1555,88.3302 33.9095,86.9768 L30.2188,86.9768 C30.4648,88.5762 30.8339,90.0524 31.203,91.5287 C29.7267,91.8978 28.2505,92.3899 26.8972,92.8819 C26.7742,93.005 26.5281,93.005 26.4051,93.1281 C26.036,93.2511 25.544,93.4971 25.1749,93.62 C24.9289,93.62 24.5598,93.7431 24.3137,93.8662 C20.6231,89.4374 18.5318,83.9013 18.1627,78.2422 L21.2383,78.2422 L21.2383,74.6746 L18.1627,74.6746 C18.5318,69.0157 20.6231,63.6026 24.1907,59.2969 L24.3137,59.1738 C24.5598,59.2969 24.9289,59.42 25.1749,59.543 C25.667,59.7891 26.036,59.9119 26.5281,60.1581 C26.6512,60.1581 26.7742,60.2811 26.8972,60.2811 C28.2505,60.7731 29.7267,61.2653 31.326,61.6344 C30.957,62.9875 30.7109,64.3407 30.4648,65.6941 L34.1555,65.6941 C34.4016,64.5869 34.6476,63.3566 34.8937,62.3725 C38.2153,62.9875 41.7828,63.3566 45.3504,63.3566 C48.9181,63.3566 52.3627,62.9875 55.5613,62.4955 C55.8074,63.4797 56.0534,64.5869 56.2993,65.817 L59.9902,65.817 C59.7441,64.4638 59.498,63.1106 59.1291,61.7574 C60.7279,61.3881 62.2045,60.8962 63.6805,60.2811 C63.8038,60.2811 64.0499,60.1581 64.1727,60.1581 C64.6649,60.035 65.0338,59.7891 65.526,59.6661 C65.7721,59.543 66.1409,59.42 66.387,59.2969 C69.9546,63.7257 72.1695,69.1388 72.5383,74.7977 L68.8474,74.7977 L68.8474,78.3653 L72.5383,78.3653 C71.9234,83.9013 69.8318,89.4374 66.2643,93.7431 Z" style="stroke:none;fill-rule:evenodd;fill:#ffffff;fill-opacity:0.8;"/>
        </g>
        <g id="Shape27">
            <desc shapeID="27" type="0" basicInfo-basicType="0" basicInfo-roundedRectRadius="12" basicInfo-polygonSides="6" basicInfo-starPoints="5" bounding="rect(-7.89836,-9.50635,15.7967,19.0127)" text="" font-familyName="" font-pixelSize="20" font-bold="0" font-underline="0" font-alignment="1" strokeStyle="0" markerStart="0" markerEnd="0" shadowEnabled="0" shadowOffsetX="0" shadowOffsetY="2" shadowBlur="4" shadowOpacity="160" blurEnabled="0" blurRadius="4" transform="matrix(0.835749,0,0,0.835749,30.9001,76.5648)" pers-center="0,0" pers-size="0,0" pers-start="0,0" pers-end="0,0" locked="0" mesh="" flag=""/>
            <path id="shapePath27" d="M37.5011,76.3314 C37.5011,77.7891 37.3099,79.0365 36.9301,80.0715 C36.5504,81.1079 36.0021,81.9531 35.2907,82.6069 C34.578,83.2622 33.7128,83.7435 32.6925,84.0497 C31.6737,84.3559 30.4595,84.5097 29.0514,84.5097 L25.2565,84.5097 C24.9877,84.5097 24.7577,84.4295 24.5745,84.2717 C24.39,84.1112 24.299,83.8518 24.299,83.4921 L24.299,69.6387 C24.299,69.2779 24.3913,69.0183 24.5745,68.8593 C24.759,68.6987 24.9863,68.6199 25.2565,68.6199 L29.3336,68.6199 C30.7497,68.6199 31.9518,68.7855 32.9386,69.1186 C33.9254,69.4502 34.7558,69.9409 35.4325,70.5922 C36.1077,71.2435 36.6212,72.0471 36.9742,73.0045 C37.3246,73.9606 37.5011,75.0719 37.5011,76.3314 M34.1608,76.4425 C34.1608,75.6883 34.0725,74.989 33.896,74.3416 C33.7195,73.6959 33.4374,73.1342 33.0482,72.6595 C32.6591,72.1848 32.1604,71.8145 31.5493,71.5484 C30.9396,71.2809 30.1399,71.1485 29.1477,71.1485 L27.5136,71.1485 L27.5136,81.9557 L29.1972,81.9557 C30.0811,81.9557 30.8259,81.8421 31.433,81.612 C32.0387,81.3822 32.5442,81.0371 32.9493,80.5745 C33.3545,80.1117 33.658,79.5367 33.8586,78.8482 C34.0592,78.1621 34.1608,77.3598 34.1608,76.4425 Z" style="stroke:none;fill-rule:evenodd;fill:#ffffff;fill-opacity:1;"/>
        </g>
        <g id="Shape28">
            <desc shapeID="28" type="0" basicInfo-basicType="0" basicInfo-roundedRectRadius="12" basicInfo-polygonSides="6" basicInfo-starPoints="5" bounding="rect(-7.84076,-9.58,15.6815,19.16)" text="" font-familyName="" font-pixelSize="20" font-bold="0" font-underline="0" font-alignment="1" strokeStyle="0" markerStart="0" markerEnd="0" shadowEnabled="0" shadowOffsetX="0" shadowOffsetY="2" shadowBlur="4" shadowOpacity="160" blurEnabled="0" blurRadius="4" transform="matrix(0.835749,0,0,0.835749,46.7043,76.5768)" pers-center="0,0" pers-size="0,0" pers-start="0,0" pers-end="0,0" locked="0" mesh="" flag=""/>
            <path id="shapePath28" d="M53.2572,83.3823 C53.2572,83.571 53.2251,83.7395 53.1596,83.8853 C53.0914,84.0324 53.0045,84.1542 52.8935,84.2544 C52.7852,84.3533 52.6528,84.4228 52.5017,84.4682 C52.3493,84.5137 52.1955,84.5364 52.0404,84.5364 L50.6657,84.5364 C50.3782,84.5364 50.1322,84.5083 49.9209,84.4509 C49.7136,84.3947 49.5197,84.2891 49.3446,84.1379 C49.1681,83.987 48.9982,83.781 48.8351,83.5242 C48.6706,83.2662 48.4875,82.9318 48.2842,82.5226 L44.3288,75.0918 C44.0988,74.6506 43.8661,74.1731 43.6295,73.6609 C43.3914,73.1488 43.1788,72.6528 42.9903,72.1687 L42.9662,72.1687 C42.9997,72.7584 43.0237,73.3456 43.0397,73.9299 C43.0558,74.5141 43.0638,75.1199 43.0638,75.7405 L43.0638,84.055 C43.0638,84.1379 43.0411,84.2116 42.9956,84.2771 C42.9502,84.3425 42.8726,84.3974 42.7616,84.4429 C42.6506,84.4884 42.5009,84.523 42.3137,84.5459 C42.1251,84.5713 41.8831,84.5833 41.5889,84.5833 C41.3027,84.5833 41.0647,84.5713 40.8762,84.5459 C40.6877,84.5205 40.5406,84.4869 40.4349,84.4429 C40.3279,84.3987 40.2544,84.3425 40.2129,84.2771 C40.1728,84.2116 40.1514,84.1379 40.1514,84.055 L40.1514,69.7724 C40.1514,69.3873 40.2637,69.0999 40.4884,68.906 C40.7131,68.7147 40.9898,68.617 41.3174,68.617 L43.0478,68.617 C43.3593,68.617 43.6214,68.6438 43.8341,68.6973 C44.0467,68.7509 44.2366,68.8377 44.405,68.962 C44.5722,69.0851 44.7326,69.2549 44.8784,69.4715 C45.0255,69.6895 45.1766,69.957 45.3317,70.2766 L48.4273,76.0854 C48.6051,76.4371 48.7856,76.7846 48.9608,77.123 C49.136,77.4613 49.3071,77.8037 49.4703,78.1432 C49.6321,78.4829 49.7912,78.8159 49.949,79.1436 C50.1041,79.4712 50.2552,79.7988 50.4023,80.1263 L50.4143,80.1263 C50.3903,79.5526 50.3715,78.9535 50.3595,78.3332 C50.3475,77.7113 50.3421,77.1176 50.3421,76.5534 L50.3421,69.0985 C50.3421,69.017 50.3662,68.9435 50.4143,68.8765 C50.4624,68.811 50.5454,68.7534 50.6603,68.7053 C50.774,68.6559 50.9265,68.6211 51.1137,68.601 C51.3022,68.5796 51.5443,68.5703 51.8384,68.5703 C52.1166,68.5703 52.3479,68.5796 52.5378,68.601 C52.7263,68.6226 52.8707,68.6559 52.975,68.7053 C53.0753,68.7548 53.1489,68.811 53.1903,68.8765 C53.2305,68.9435 53.2505,69.0156 53.2505,69.0985 L53.2505,83.3823 L53.2572,83.3823 Z" style="stroke:none;fill-rule:evenodd;fill:#ffffff;fill-opacity:1;"/>
        </g>
        <g id="Shape29">
            <desc shapeID="29" type="0" basicInfo-basicType="0" basicInfo-roundedRectRadius="12" basicInfo-polygonSides="6" basicInfo-starPoints="5" bounding="rect(-6.20948,-9.84886,12.419,19.6977)" text="" font-familyName="" font-pixelSize="20" font-bold="0" font-underline="0" font-alignment="1" strokeStyle="0" markerStart="0" markerEnd="0" shadowEnabled="0" shadowOffsetX="0" shadowOffsetY="2" shadowBlur="4" shadowOpacity="160" blurEnabled="0" blurRadius="4" transform="matrix(0.835749,0,0,0.835749,60.9513,76.5608)" pers-center="0,0" pers-size="0,0" pers-start="0,0" pers-end="0,0" locked="0" mesh="" flag=""/>
            <path id="shapePath29" d="M66.1409,79.7453 C66.1409,80.5823 65.9846,81.3139 65.6743,81.9437 C65.3628,82.5747 64.9417,83.1017 64.4091,83.5215 C63.8772,83.9441 63.2542,84.2596 62.5415,84.4736 C61.8299,84.6863 61.0678,84.792 60.2573,84.792 C59.7094,84.792 59.1996,84.7464 58.729,84.6569 C58.2584,84.5658 57.8424,84.4589 57.4826,84.332 C57.1217,84.2048 56.821,84.0725 56.58,83.9322 C56.3395,83.7931 56.1629,83.67 56.0573,83.5629 C55.9517,83.4575 55.8768,83.3036 55.83,83.103 C55.7858,82.9025 55.7618,82.6136 55.7618,82.2365 C55.7618,81.9825 55.7698,81.7698 55.7872,81.5987 C55.8032,81.4262 55.8286,81.2871 55.8674,81.1801 C55.9035,81.0745 55.953,80.9982 56.0145,80.9528 C56.076,80.9089 56.1469,80.8847 56.2298,80.8847 C56.3448,80.8847 56.5066,80.9528 56.7136,81.0878 C56.9222,81.2216 57.191,81.3727 57.519,81.536 C57.8463,81.699 58.2368,81.8487 58.6915,81.9838 C59.145,82.1188 59.6719,82.1871 60.2692,82.1871 C60.6614,82.1871 61.0144,82.1402 61.3247,82.0452 C61.635,81.9504 61.8993,81.818 62.1164,81.6454 C62.3329,81.4742 62.4972,81.2617 62.6137,81.0077 C62.7285,80.7535 62.7859,80.4713 62.7859,80.1599 C62.7859,79.7988 62.687,79.4913 62.4904,79.2332 C62.2937,78.9751 62.0374,78.745 61.7214,78.5445 C61.4059,78.3439 61.049,78.1554 60.6478,77.9803 C60.2465,77.8038 59.8322,77.6179 59.4082,77.4199 C58.9819,77.2234 58.5699,77 58.1686,76.7513 C57.7673,76.5011 57.4081,76.2032 57.095,75.8541 C56.7795,75.5065 56.524,75.0932 56.326,74.6185 C56.1281,74.1438 56.0306,73.5755 56.0306,72.9109 C56.0306,72.1501 56.1723,71.4802 56.4544,70.9023 C56.738,70.3248 57.1177,69.8474 57.5963,69.4649 C58.0765,69.0853 58.6409,68.7989 59.2922,68.6119 C59.943,68.4246 60.633,68.3296 61.3605,68.3296 C61.7379,68.3296 62.1147,68.3579 62.4904,68.4153 C62.8661,68.4728 63.2196,68.5504 63.5458,68.6492 C63.872,68.7483 64.1647,68.8578 64.4171,68.9808 C64.6717,69.1039 64.84,69.2055 64.9201,69.2885 C65.0019,69.3699 65.0565,69.4394 65.086,69.4971 C65.1156,69.5545 65.1395,69.6308 65.1594,69.7244 C65.181,69.8193 65.194,69.9369 65.2009,70.0815 C65.2088,70.2246 65.2145,70.4024 65.2145,70.6163 C65.2145,70.8544 65.2077,71.0548 65.194,71.2181 C65.1821,71.3813 65.1611,71.5176 65.1344,71.6232 C65.1048,71.729 65.0645,71.8076 65.011,71.8572 C64.9576,71.9067 64.8854,71.9307 64.7956,71.9307 C64.7047,71.9307 64.562,71.8746 64.3654,71.7596 C64.1687,71.6445 63.9266,71.5204 63.6407,71.3839 C63.3543,71.25 63.0229,71.1256 62.6472,71.0148 C62.2699,70.9038 61.8567,70.849 61.4076,70.849 C61.0558,70.849 60.7484,70.8917 60.4875,70.9787 C60.2255,71.0643 60.005,71.1833 59.831,71.3358 C59.6543,71.4867 59.5236,71.67 59.4377,71.8812 C59.3519,72.0939 59.3093,72.3198 59.3093,72.5565 C59.3093,72.9081 59.4059,73.2131 59.5969,73.4726 C59.7895,73.7305 60.0476,73.9593 60.371,74.1598 C60.6949,74.3604 61.061,74.549 61.4719,74.7243 C61.8805,74.9005 62.2983,75.0867 62.7245,75.2845 C63.1497,75.4809 63.5668,75.7043 63.9778,75.9531 C64.3864,76.2032 64.7501,76.5011 65.0713,76.8502 C65.3895,77.1978 65.6476,77.6085 65.8442,78.0791 C66.042,78.554 66.1409,79.1076 66.1409,79.7453 Z" style="stroke:none;fill-rule:evenodd;fill:#ffffff;fill-opacity:1;"/>
        </g>
        <g id="Shape30">
            <desc shapeID="30" type="0" basicInfo-basicType="0" basicInfo-roundedRectRadius="12" basicInfo-polygonSides="6" basicInfo-starPoints="5" bounding="rect(-18.4114,-6.136,36.8228,12.272)" text="Gmail" font-familyName="나눔스퀘어" font-pixelSize="16" font-bold="0" font-underline="0" font-alignment="1" strokeStyle="0" markerStart="0" markerEnd="0" shadowEnabled="0" shadowOffsetX="0" shadowOffsetY="2" shadowBlur="4" shadowOpacity="160" blurEnabled="0" blurRadius="4" transform="matrix(1,0,0,1,157.594,114.122)" pers-center="0,0" pers-size="0,0" pers-start="0,0" pers-end="0,0" locked="0" mesh="" flag=""/>
            <path id="shapePath30" d="M146.751,114.754 L143.871,114.754 L143.871,114.082 L147.439,114.082 L147.439,119.266 C147.322,119.372 147.154,119.484 146.935,119.602 C146.716,119.719 146.452,119.826 146.143,119.922 C145.834,120.018 145.482,120.098 145.087,120.162 C144.692,120.226 144.26,120.258 143.791,120.258 C142.98,120.258 142.284,120.127 141.703,119.866 C141.122,119.604 140.644,119.234 140.271,118.754 C139.898,118.274 139.623,117.695 139.447,117.018 C139.271,116.34 139.183,115.591 139.183,114.77 L139.183,113.538 C139.183,112.748 139.279,112.034 139.471,111.394 C139.663,110.754 139.946,110.21 140.319,109.762 C140.692,109.314 141.154,108.97 141.703,108.73 C142.252,108.49 142.884,108.37 143.599,108.37 C144.346,108.37 145.026,108.471 145.639,108.674 C146.252,108.876 146.772,109.132 147.199,109.442 L146.815,109.986 C146.346,109.666 145.863,109.428 145.367,109.274 C144.871,109.119 144.282,109.042 143.599,109.042 C143.023,109.042 142.506,109.143 142.047,109.346 C141.588,109.548 141.199,109.836 140.879,110.21 C140.559,110.583 140.316,111.036 140.151,111.57 C139.986,112.103 139.903,112.695 139.903,113.346 L139.903,114.946 C139.903,116.471 140.242,117.626 140.919,118.41 C141.596,119.194 142.564,119.586 143.823,119.586 C144.378,119.586 144.922,119.524 145.455,119.402 C145.988,119.279 146.42,119.1 146.751,118.866 L146.751,114.754 M160.859,120.082 L160.171,120.082 L160.171,114.418 C160.171,114.055 160.136,113.724 160.067,113.426 C159.997,113.127 159.883,112.871 159.723,112.658 C159.563,112.444 159.349,112.282 159.083,112.17 C158.816,112.058 158.48,112.002 158.075,112.002 C157.648,112.002 157.283,112.082 156.979,112.242 C156.675,112.402 156.424,112.596 156.227,112.826 C156.029,113.055 155.885,113.298 155.795,113.554 C155.704,113.81 155.659,114.034 155.659,114.226 L155.659,120.082 L154.971,120.082 L154.971,114.418 C154.971,114.055 154.936,113.724 154.867,113.426 C154.797,113.127 154.683,112.871 154.523,112.658 C154.363,112.444 154.147,112.282 153.875,112.17 C153.603,112.058 153.264,112.002 152.859,112.002 C152.432,112.002 152.067,112.084 151.763,112.25 C151.459,112.415 151.211,112.618 151.019,112.858 C150.827,113.098 150.685,113.348 150.595,113.61 C150.504,113.871 150.459,114.098 150.459,114.29 L150.459,120.082 L149.771,120.082 L149.771,111.554 L150.443,111.554 L150.443,112.866 C150.517,112.716 150.621,112.556 150.755,112.386 C150.888,112.215 151.056,112.055 151.259,111.906 C151.461,111.756 151.704,111.631 151.987,111.53 C152.269,111.428 152.597,111.378 152.971,111.378 C153.685,111.378 154.243,111.535 154.643,111.85 C155.043,112.164 155.317,112.556 155.467,113.026 C155.68,112.578 156.016,112.191 156.475,111.866 C156.933,111.54 157.504,111.378 158.187,111.378 C158.688,111.378 159.109,111.458 159.451,111.618 C159.792,111.778 160.067,111.988 160.275,112.25 C160.483,112.511 160.632,112.812 160.723,113.154 C160.813,113.495 160.859,113.847 160.859,114.21 L160.859,120.082 M165.777,120.21 C165.382,120.21 165.014,120.156 164.673,120.05 C164.332,119.943 164.038,119.786 163.793,119.578 C163.548,119.37 163.353,119.114 163.209,118.81 C163.065,118.506 162.993,118.151 162.993,117.746 L162.993,117.506 C162.993,117.186 163.049,116.884 163.161,116.602 C163.273,116.319 163.449,116.074 163.689,115.866 C163.929,115.658 164.23,115.492 164.593,115.37 C164.956,115.247 165.388,115.186 165.889,115.186 L168.497,115.186 L168.497,114.146 C168.497,113.442 168.308,112.908 167.929,112.546 C167.55,112.183 166.982,112.002 166.225,112.002 C165.756,112.002 165.316,112.079 164.905,112.234 C164.494,112.388 164.092,112.599 163.697,112.866 L163.361,112.338 C163.734,112.071 164.166,111.844 164.657,111.658 C165.148,111.471 165.686,111.378 166.273,111.378 C167.169,111.378 167.878,111.612 168.401,112.082 C168.924,112.551 169.185,113.228 169.185,114.114 L169.185,120.082 L168.497,120.082 L168.497,118.882 L168.481,118.882 C168.396,119.031 168.278,119.188 168.129,119.354 C167.98,119.519 167.798,119.66 167.585,119.778 C167.35,119.906 167.089,120.01 166.801,120.09 C166.513,120.17 166.172,120.21 165.777,120.21 M168.497,115.778 L165.905,115.778 C165.5,115.778 165.156,115.823 164.873,115.914 C164.59,116.004 164.364,116.127 164.193,116.282 C164.022,116.436 163.9,116.618 163.825,116.826 C163.75,117.034 163.713,117.255 163.713,117.49 L163.713,117.746 C163.713,118.098 163.777,118.391 163.905,118.626 C164.033,118.86 164.196,119.05 164.393,119.194 C164.59,119.338 164.814,119.442 165.065,119.506 C165.316,119.57 165.569,119.602 165.825,119.602 C166.102,119.602 166.369,119.578 166.625,119.53 C166.881,119.482 167.132,119.394 167.377,119.266 C167.718,119.095 167.99,118.86 168.193,118.562 C168.396,118.263 168.497,117.943 168.497,117.602 L168.497,115.778 M172.538,111.554 L172.538,120.082 L171.85,120.082 L171.85,111.554 L172.538,111.554 M172.602,108.754 L172.602,109.698 L171.786,109.698 L171.786,108.754 L172.602,108.754 M176.006,107.986 L176.006,120.082 L175.318,120.082 L175.318,107.986 L176.006,107.986 Z" style="stroke:none;fill-rule:nonzero;fill:#000000;fill-opacity:1;"/>
        </g>
        <g id="Shape31">
            <desc shapeID="31" type="0" basicInfo-basicType="0" basicInfo-roundedRectRadius="12" basicInfo-polygonSides="6" basicInfo-starPoints="5" bounding="rect(-5.09277,-5.10254,10.1855,10.2051)" text="+" font-familyName="Helvetica" font-pixelSize="20" font-bold="0" font-underline="0" font-alignment="1" strokeStyle="0" markerStart="0" markerEnd="0" shadowEnabled="0" shadowOffsetX="0" shadowOffsetY="2" shadowBlur="4" shadowOpacity="160" blurEnabled="0" blurRadius="4" transform="matrix(1.71022,0,0,1.71022,97.6418,76.9574)" pers-center="0,0" pers-size="0,0" pers-start="0,0" pers-end="0,0" locked="0" mesh="" flag=""/>
            <path id="shapePath31" d="M88.9321,78.3687 L88.9321,75.5629 L96.2139,75.5629 L96.2139,68.231 L99.0698,68.231 L99.0698,75.5629 L106.352,75.5629 L106.352,78.3687 L99.0698,78.3687 L99.0698,85.6839 L96.2139,85.6839 L96.2139,78.3687 L88.9321,78.3687 Z" style="stroke:none;fill-rule:nonzero;fill:#a57a7c;fill-opacity:1;"/>
        </g>
        <g id="Shape32">
            <desc shapeID="32" type="0" basicInfo-basicType="0" basicInfo-roundedRectRadius="12" basicInfo-polygonSides="6" basicInfo-starPoints="5" bounding="rect(-5.09277,-5.10254,10.1855,10.2051)" text="+" font-familyName="Helvetica" font-pixelSize="20" font-bold="0" font-underline="0" font-alignment="1" strokeStyle="0" markerStart="0" markerEnd="0" shadowEnabled="0" shadowOffsetX="0" shadowOffsetY="2" shadowBlur="4" shadowOpacity="160" blurEnabled="0" blurRadius="4" transform="matrix(1.71022,0,0,1.71022,226.558,76.4586)" pers-center="0,0" pers-size="0,0" pers-start="0,0" pers-end="0,0" locked="0" mesh="" flag=""/>
            <path id="shapePath32" d="M217.848,77.8698 L217.848,75.064 L225.13,75.064 L225.13,67.7321 L227.986,67.7321 L227.986,75.064 L235.268,75.064 L235.268,77.8698 L227.986,77.8698 L227.986,85.185 L225.13,85.185 L225.13,77.8698 L217.848,77.8698 Z" style="stroke:none;fill-rule:nonzero;fill:#a57a7c;fill-opacity:1;"/>
        </g>
        <g id="Shape33">
            <desc shapeID="33" type="0" basicInfo-basicType="0" basicInfo-roundedRectRadius="12" basicInfo-polygonSides="6" basicInfo-starPoints="5" bounding="rect(-5.09277,-5.10254,10.1855,10.2051)" text="+" font-familyName="Helvetica" font-pixelSize="20" font-bold="0" font-underline="0" font-alignment="1" strokeStyle="0" markerStart="0" markerEnd="0" shadowEnabled="0" shadowOffsetX="0" shadowOffsetY="2" shadowBlur="4" shadowOpacity="160" blurEnabled="0" blurRadius="4" transform="matrix(1.71022,0,0,1.71022,321.713,76.5254)" pers-center="0,0" pers-size="0,0" pers-start="0,0" pers-end="0,0" locked="0" mesh="" flag=""/>
            <path id="shapePath33" d="M313.003,77.9366 L313.003,75.1308 L320.285,75.1308 L320.285,67.7989 L323.141,67.7989 L323.141,75.1308 L330.423,75.1308 L330.423,77.9366 L323.141,77.9366 L323.141,85.2518 L320.285,85.2518 L320.285,77.9366 L313.003,77.9366 Z" style="stroke:none;fill-rule:nonzero;fill:#a57a7c;fill-opacity:1;"/>
        </g>
    </g>
</svg>
