<?xml version="1.0"?>
<svg version="1.1" xmlns="http://www.w3.org/2000/svg" xmlns:xlink="http://www.w3.org/1999/xlink" width="536" height="614">
    <desc iVinci="yes" version="4.6" gridStep="20" showGrid="no" snapToGrid="no" codePlatform="0" markedExportShape="16"/>
    <g id="Layer1" name="Layer 2" opacity="1"/>
    <g id="Layer2" name="gmail" opacity="1">
        <g id="Shape1">
            <desc shapeID="1" type="0" basicInfo-basicType="0" basicInfo-roundedRectRadius="12" basicInfo-polygonSides="6" basicInfo-starPoints="5" bounding="rect(-24,-18,48,36)" text="" font-familyName="" font-pixelSize="20" font-bold="0" font-underline="0" font-alignment="1" strokeStyle="0" markerStart="0" markerEnd="0" shadowEnabled="0" shadowOffsetX="0" shadowOffsetY="2" shadowBlur="4" shadowOpacity="160" blurEnabled="0" blurRadius="4" transform="matrix(2.24861,0,0,2.24861,80.8587,238.579)" pers-center="0,0" pers-size="0,0" pers-start="0,0" pers-end="0,0" locked="0" mesh="" flag=""/>
            <path id="shapePath1" d="M128.08,279.054 L33.6379,279.054 C29.912,279.054 26.8921,276.034 26.8921,272.308 L26.8921,204.85 C26.8921,201.124 29.912,198.104 33.6379,198.104 L128.08,198.104 C131.805,198.104 134.825,201.124 134.825,204.85 L134.825,272.308 C134.825,276.034 131.805,279.054 128.08,279.054 Z" style="stroke:none;fill-rule:nonzero;fill:#eaeaea;fill-opacity:1;"/>
        </g>
        <g id="Shape2">
            <desc shapeID="2" type="0" basicInfo-basicType="0" basicInfo-roundedRectRadius="12" basicInfo-polygonSides="6" basicInfo-starPoints="5" bounding="rect(-3,-18,6,36)" text="" font-familyName="" font-pixelSize="20" font-bold="0" font-underline="0" font-alignment="1" strokeStyle="0" markerStart="0" markerEnd="0" shadowEnabled="0" shadowOffsetX="0" shadowOffsetY="2" shadowBlur="4" shadowOpacity="160" blurEnabled="0" blurRadius="4" transform="matrix(2.24861,0,0,2.24861,33.6379,238.579)" pers-center="0,0" pers-size="0,0" pers-start="0,0" pers-end="0,0" locked="0" mesh="" flag=""/>
            <path id="shapePath2" d="M40.3838,279.054 L33.6379,279.054 C29.912,279.054 26.8921,276.034 26.8921,272.308 L26.8921,204.85 C26.8921,201.124 29.912,198.104 33.6379,198.104 C37.3639,198.104 40.3838,201.124 40.3838,204.85 L40.3838,279.054 Z" style="stroke:none;fill-rule:nonzero;fill:#d54c3f;fill-opacity:1;"/>
        </g>
        <g id="Shape3">
            <desc shapeID="3" type="0" basicInfo-basicType="0" basicInfo-roundedRectRadius="12" basicInfo-polygonSides="6" basicInfo-starPoints="5" bounding="rect(-3,-18,6,36)" text="" font-familyName="" font-pixelSize="20" font-bold="0" font-underline="0" font-alignment="1" strokeStyle="0" markerStart="0" markerEnd="0" shadowEnabled="0" shadowOffsetX="0" shadowOffsetY="2" shadowBlur="4" shadowOpacity="160" blurEnabled="0" blurRadius="4" transform="matrix(2.24861,0,0,2.24861,128.08,238.579)" pers-center="0,0" pers-size="0,0" pers-start="0,0" pers-end="0,0" locked="0" mesh="" flag=""/>
            <path id="shapePath3" d="M121.334,279.054 L128.08,279.054 C131.805,279.054 134.825,276.034 134.825,272.308 L134.825,204.85 C134.825,201.124 131.805,198.104 128.08,198.104 C124.354,198.104 121.334,201.124 121.334,204.85 L121.334,279.054 Z" style="stroke:none;fill-rule:nonzero;fill:#b63524;fill-opacity:1;"/>
        </g>
        <g id="Shape4">
            <desc shapeID="4" type="0" basicInfo-basicType="0" basicInfo-roundedRectRadius="12" basicInfo-polygonSides="6" basicInfo-starPoints="5" bounding="rect(-24,-11,48,22)" text="" font-familyName="" font-pixelSize="20" font-bold="0" font-underline="0" font-alignment="1" strokeStyle="0" markerStart="0" markerEnd="0" shadowEnabled="0" shadowOffsetX="0" shadowOffsetY="2" shadowBlur="4" shadowOpacity="160" blurEnabled="0" blurRadius="4" transform="matrix(2.24861,0,0,2.24861,80.8587,222.839)" pers-center="0,0" pers-size="0,0" pers-start="0,0" pers-end="0,0" locked="0" mesh="" flag=""/>
            <path id="shapePath4" d="M131.943,210.382 C133.685,209.161 134.825,207.139 134.825,204.85 C134.825,201.124 131.805,198.104 128.08,198.104 C126.643,198.104 125.309,198.554 124.216,199.319 C124.216,199.319 80.8632,230.882 80.8632,230.882 L80.8587,230.885 L80.8542,230.882 L37.501,199.319 C36.4082,198.554 35.0748,198.104 33.6379,198.104 C29.912,198.104 26.8921,201.124 26.8921,204.85 C26.8921,207.139 28.0321,209.161 29.7748,210.382 L29.5949,210.249 L80.8587,247.574 " style="stroke:none;fill-rule:nonzero;fill:#de5145;fill-opacity:1;"/>
        </g>
        <g id="Shape5">
            <desc shapeID="5" type="0" basicInfo-basicType="0" basicInfo-roundedRectRadius="12" basicInfo-polygonSides="6" basicInfo-starPoints="5" bounding="rect(-21,-7.289,42,14.578)" text="" font-familyName="" font-pixelSize="20" font-bold="0" font-underline="0" font-alignment="1" strokeStyle="0" markerStart="0" markerEnd="0" shadowEnabled="0" shadowOffsetX="0" shadowOffsetY="2" shadowBlur="4" shadowOpacity="160" blurEnabled="0" blurRadius="4" transform="matrix(2.24861,0,0,2.24861,80.8587,214.494)" pers-center="0,0" pers-size="0,0" pers-start="0,0" pers-end="0,0" locked="0" mesh="" flag=""/>
            <path id="shapePath5" d="M128.08,198.104 C126.643,198.104 125.309,198.554 124.216,199.319 C124.216,199.319 80.8632,230.882 80.8632,230.882 L80.8587,230.885 L80.8542,230.882 L37.501,199.319 C36.4082,198.554 35.0748,198.104 33.6379,198.104 L128.08,198.104 Z" style="stroke:none;fill-rule:nonzero;fill:#efefef;fill-opacity:1;"/>
        </g>
        <g id="Shape6">
            <desc shapeID="6" type="0" basicInfo-basicType="0" basicInfo-roundedRectRadius="12" basicInfo-polygonSides="6" basicInfo-starPoints="5" bounding="rect(-2.5295,-2.522,5.059,5.044)" text="" font-familyName="" font-pixelSize="20" font-bold="0" font-underline="0" font-alignment="1" strokeStyle="0" markerStart="0" markerEnd="0" shadowEnabled="0" shadowOffsetX="0" shadowOffsetY="2" shadowBlur="4" shadowOpacity="160" blurEnabled="0" blurRadius="4" transform="matrix(2.24861,0,0,2.24861,34.7004,215.423)" pers-center="0,0" pers-size="0,0" pers-start="0,0" pers-end="0,0" locked="0" mesh="" flag=""/>
            <path id="shapePath6" d="M40.386,221.013 L29.017,209.752 L29.0125,209.761 C29.2509,209.986 29.505,210.193 29.7748,210.382 L29.5949,210.249 L40.3883,218.108 L40.386,221.094 " style="stroke:none;fill-rule:nonzero;fill:#c64132;fill-opacity:1;"/>
        </g>
        <g id="Shape7">
            <desc shapeID="7" type="2" basicInfo-basicType="0" basicInfo-roundedRectRadius="12" basicInfo-polygonSides="6" basicInfo-starPoints="5" bounding="rect(-164.483,-36.4904,328.966,72.9809)" text="Gmail" font-familyName="Apple LiGothic" font-pixelSize="70" font-bold="0" font-underline="0" font-alignment="1" strokeStyle="0" markerStart="0" markerEnd="0" shadowEnabled="0" shadowOffsetX="0" shadowOffsetY="2" shadowBlur="4" shadowOpacity="160" blurEnabled="0" blurRadius="4" transform="matrix(1,0,0,1,332.134,240.421)" pers-center="0,0" pers-size="0,0" pers-start="0,0" pers-end="0,0" locked="0" mesh="" flag=""/>
            <path id="shapePath7" d="M299.531,240.623 L299.531,241.673 C299.531,248.44 297.804,253.911 294.351,258.088 C290.898,262.265 286.161,264.353 280.141,264.353 C274.308,264.353 269.478,262.206 265.651,257.913 C261.824,253.62 259.911,248.37 259.911,242.163 C259.911,235.723 261.859,230.356 265.756,226.063 C269.653,221.77 274.634,219.623 280.701,219.623 C288.541,219.623 294.141,223.006 297.501,229.773 L291.061,233.203 C288.914,228.303 285.391,225.853 280.491,225.853 C276.711,225.853 273.584,227.475 271.111,230.718 C268.638,233.961 267.401,237.8 267.401,242.233 C267.401,246.666 268.614,250.423 271.041,253.503 C273.468,256.583 276.618,258.123 280.491,258.123 C283.804,258.123 286.441,256.956 288.401,254.623 C290.361,252.29 291.341,249.513 291.341,246.293 L281.191,246.293 L281.191,240.623 L299.531,240.623 M310.162,238.033 C311.888,235.793 314.548,234.673 318.142,234.673 C321.268,234.673 323.742,236.12 325.562,239.013 C327.335,236.12 330.205,234.673 334.172,234.673 C340.005,234.673 342.922,238.453 342.922,246.013 L342.922,263.233 L336.202,263.233 L336.202,248.673 C336.202,242.793 334.592,239.853 331.372,239.853 C328.152,239.853 326.542,243.12 326.542,249.653 L326.542,263.233 L319.752,263.233 L319.752,249.233 C319.752,242.98 318.328,239.853 315.482,239.853 C311.935,239.853 310.162,243.12 310.162,249.653 L310.162,263.233 L303.372,263.233 L303.372,235.583 L310.162,235.583 L310.162,238.033 M374.77,263.233 L368.12,263.233 L368.12,260.713 C366.16,263 363.244,264.143 359.37,264.143 C355.497,264.143 352.405,262.65 350.095,259.663 C347.785,256.676 346.63,253.176 346.63,249.163 C346.63,245.15 347.809,241.731 350.165,238.908 C352.522,236.085 355.544,234.673 359.23,234.673 C363.15,234.673 366.114,235.84 368.12,238.173 L368.12,235.583 L374.77,235.583 L374.77,263.233 M368.89,249.373 C368.89,246.806 368.167,244.695 366.72,243.038 C365.274,241.381 363.419,240.553 361.155,240.553 C358.892,240.553 357.049,241.358 355.625,242.968 C354.202,244.578 353.49,246.713 353.49,249.373 C353.49,252.033 354.214,254.18 355.66,255.813 C357.107,257.446 358.974,258.263 361.26,258.263 C363.547,258.263 365.39,257.47 366.79,255.883 C368.19,254.296 368.89,252.126 368.89,249.373 M388.764,223.963 C388.764,225.036 388.367,225.97 387.574,226.763 C386.781,227.556 385.847,227.953 384.774,227.953 C383.701,227.953 382.767,227.556 381.974,226.763 C381.181,225.97 380.784,225.036 380.784,223.963 C380.784,222.89 381.181,221.956 381.974,221.163 C382.767,220.37 383.701,219.973 384.774,219.973 C385.847,219.973 386.781,220.37 387.574,221.163 C388.367,221.956 388.764,222.89 388.764,223.963 M388.204,263.233 L381.414,263.233 L381.414,235.583 L388.204,235.583 L388.204,263.233 M402.05,263.233 L395.26,263.233 L395.26,215.423 L402.05,215.423 L402.05,263.233 Z" style="stroke:none;fill-rule:nonzero;fill:#000000;fill-opacity:1;"/>
        </g>
    </g>
    <g id="Layer3" name="route53" opacity="1">
        <g id="Shape8">
            <desc shapeID="8" type="0" basicInfo-basicType="0" basicInfo-roundedRectRadius="12" basicInfo-polygonSides="6" basicInfo-starPoints="5" bounding="rect(-29.6905,-154.551,59.381,309.101)" text="" font-familyName="" font-pixelSize="20" font-bold="0" font-underline="0" font-alignment="1" strokeStyle="0" markerStart="0" markerEnd="0" shadowEnabled="0" shadowOffsetX="0" shadowOffsetY="2" shadowBlur="4" shadowOpacity="160" blurEnabled="0" blurRadius="4" transform="matrix(0.367692,0,0,0.367692,81.5648,407.428)" pers-center="0,0" pers-size="0,0" pers-start="0,0" pers-end="0,0" locked="0" mesh="" flag=""/>
            <path id="shapePath8" d="M70.6478,454.309 L90.5388,464.255 L92.4817,462.806 L91.664,351.924 L90.5388,350.601 L70.6478,360.548 L70.6478,454.309 Z" style="stroke:none;fill-rule:nonzero;fill:#9d5025;fill-opacity:1;"/>
        </g>
        <g id="Shape9">
            <desc shapeID="9" type="0" basicInfo-basicType="0" basicInfo-roundedRectRadius="12" basicInfo-polygonSides="6" basicInfo-starPoints="5" bounding="rect(-27.0485,-154.551,54.097,309.101)" text="" font-familyName="" font-pixelSize="20" font-bold="0" font-underline="0" font-alignment="1" strokeStyle="0" markerStart="0" markerEnd="0" shadowEnabled="0" shadowOffsetX="0" shadowOffsetY="2" shadowBlur="4" shadowOpacity="160" blurEnabled="0" blurRadius="4" transform="matrix(0.367692,0,0,0.367692,100.484,407.428)" pers-center="0,0" pers-size="0,0" pers-start="0,0" pers-end="0,0" locked="0" mesh="" flag=""/>
            <path id="shapePath9" d="M110.43,454.309 L90.5388,464.255 L90.5388,350.601 L110.43,360.548 L110.43,454.309 Z" style="stroke:none;fill-rule:nonzero;fill:#f68536;fill-opacity:1;"/>
        </g>
        <g id="Shape10">
            <desc shapeID="10" type="0" basicInfo-basicType="0" basicInfo-roundedRectRadius="12" basicInfo-polygonSides="6" basicInfo-starPoints="5" bounding="rect(-53.7855,-7.6385,107.571,15.277)" text="" font-familyName="" font-pixelSize="20" font-bold="0" font-underline="0" font-alignment="1" strokeStyle="0" markerStart="0" markerEnd="0" shadowEnabled="0" shadowOffsetX="0" shadowOffsetY="2" shadowBlur="4" shadowOpacity="160" blurEnabled="0" blurRadius="4" transform="matrix(0.367692,0,0,0.367692,63.2626,390.179)" pers-center="0,0" pers-size="0,0" pers-start="0,0" pers-end="0,0" locked="0" mesh="" flag=""/>
            <path id="shapePath10" d="M83.039,391.971 L76.0588,392.988 L43.4861,389.318 L43.624,388.956 L48.9095,387.37 L49.4717,387.689 L49.599,387.37 L82.8291,391.254 L83.039,391.971 Z" style="stroke:none;fill-rule:nonzero;fill:#6b3a19;fill-opacity:1;"/>
        </g>
        <g id="Shape11">
            <desc shapeID="11" type="0" basicInfo-basicType="0" basicInfo-roundedRectRadius="12" basicInfo-polygonSides="6" basicInfo-starPoints="5" bounding="rect(-8.1395,-24.726,16.279,49.452)" text="" font-familyName="" font-pixelSize="20" font-bold="0" font-underline="0" font-alignment="1" strokeStyle="0" markerStart="0" markerEnd="0" shadowEnabled="0" shadowOffsetX="0" shadowOffsetY="2" shadowBlur="4" shadowOpacity="160" blurEnabled="0" blurRadius="4" transform="matrix(0.367692,0,0,0.367692,46.4789,380.226)" pers-center="0,0" pers-size="0,0" pers-start="0,0" pers-end="0,0" locked="0" mesh="" flag=""/>
            <path id="shapePath11" d="M43.4861,374.129 L49.4717,371.135 L49.4717,387.689 L43.4861,389.318 L43.4861,374.129 Z" style="stroke:none;fill-rule:nonzero;fill:#9d5025;fill-opacity:1;"/>
        </g>
        <g id="Shape12">
            <desc shapeID="12" type="0" basicInfo-basicType="0" basicInfo-roundedRectRadius="12" basicInfo-polygonSides="6" basicInfo-starPoints="5" bounding="rect(-53.818,-3.7785,107.636,7.55701)" text="" font-familyName="" font-pixelSize="20" font-bold="0" font-underline="0" font-alignment="1" strokeStyle="0" markerStart="0" markerEnd="0" shadowEnabled="0" shadowOffsetX="0" shadowOffsetY="2" shadowBlur="4" shadowOpacity="160" blurEnabled="0" blurRadius="4" transform="matrix(0.367692,0,0,0.367692,117.827,399.193)" pers-center="0,0" pers-size="0,0" pers-start="0,0" pers-end="0,0" locked="0" mesh="" flag=""/>
            <path id="shapePath12" d="M137.615,398.792 L104.28,400.582 L98.0383,400.154 L99.2141,399.665 L131.709,397.804 L137.615,398.792 Z" style="stroke:none;fill-rule:nonzero;fill:#6b3a19;fill-opacity:1;"/>
        </g>
        <g id="Shape13">
            <desc shapeID="13" type="0" basicInfo-basicType="0" basicInfo-roundedRectRadius="12" basicInfo-polygonSides="6" basicInfo-starPoints="5" bounding="rect(-45.646,-28.3345,91.292,56.669)" text="" font-familyName="" font-pixelSize="20" font-bold="0" font-underline="0" font-alignment="1" strokeStyle="0" markerStart="0" markerEnd="0" shadowEnabled="0" shadowOffsetX="0" shadowOffsetY="2" shadowBlur="4" shadowOpacity="160" blurEnabled="0" blurRadius="4" transform="matrix(0.367692,0,0,0.367692,66.2554,381.553)" pers-center="0,0" pers-size="0,0" pers-start="0,0" pers-end="0,0" locked="0" mesh="" flag=""/>
            <path id="shapePath13" d="M83.039,391.971 L49.4717,387.689 L49.4717,371.135 L83.039,379.008 L83.039,391.971 Z" style="stroke:none;fill-rule:nonzero;fill:#f68536;fill-opacity:1;"/>
        </g>
        <g id="Shape14">
            <desc shapeID="14" type="0" basicInfo-basicType="0" basicInfo-roundedRectRadius="12" basicInfo-polygonSides="6" basicInfo-starPoints="5" bounding="rect(-45.9115,-26.2715,91.823,52.543)" text="" font-familyName="" font-pixelSize="20" font-bold="0" font-underline="0" font-alignment="1" strokeStyle="0" markerStart="0" markerEnd="0" shadowEnabled="0" shadowOffsetX="0" shadowOffsetY="2" shadowBlur="4" shadowOpacity="160" blurEnabled="0" blurRadius="4" transform="matrix(0.367692,0,0,0.367692,114.92,390.494)" pers-center="0,0" pers-size="0,0" pers-start="0,0" pers-end="0,0" locked="0" mesh="" flag=""/>
            <path id="shapePath14" d="M131.606,380.835 L98.0383,386.604 L98.0383,400.154 L131.606,398.14 L131.801,397.758 L131.732,381.143 L131.606,380.835 Z" style="stroke:none;fill-rule:nonzero;fill:#9d5025;fill-opacity:1;"/>
        </g>
        <g id="Shape15">
            <desc shapeID="15" type="0" basicInfo-basicType="0" basicInfo-roundedRectRadius="12" basicInfo-polygonSides="6" basicInfo-starPoints="5" bounding="rect(-8.172,-24.419,16.344,48.838)" text="" font-familyName="" font-pixelSize="20" font-bold="0" font-underline="0" font-alignment="1" strokeStyle="0" markerStart="0" markerEnd="0" shadowEnabled="0" shadowOffsetX="0" shadowOffsetY="2" shadowBlur="4" shadowOpacity="160" blurEnabled="0" blurRadius="4" transform="matrix(0.367692,0,0,0.367692,134.61,389.813)" pers-center="0,0" pers-size="0,0" pers-start="0,0" pers-end="0,0" locked="0" mesh="" flag=""/>
            <path id="shapePath15" d="M137.615,398.792 L131.606,398.011 L131.606,380.835 L137.615,383.035 L137.615,398.792 Z" style="stroke:none;fill-rule:nonzero;fill:#f68536;fill-opacity:1;"/>
        </g>
        <g id="Shape16">
            <desc shapeID="16" type="2" basicInfo-basicType="0" basicInfo-roundedRectRadius="12" basicInfo-polygonSides="6" basicInfo-starPoints="5" bounding="rect(-175.438,-38.8321,350.876,77.6642)" text="AWS Route53" font-familyName="Apple LiGothic" font-pixelSize="66" font-bold="0" font-underline="0" font-alignment="1" strokeStyle="0" markerStart="0" markerEnd="0" shadowEnabled="0" shadowOffsetX="0" shadowOffsetY="2" shadowBlur="4" shadowOpacity="160" blurEnabled="0" blurRadius="4" transform="matrix(1,0,0,1,335.862,405.319)" pers-center="0,0" pers-size="0,0" pers-start="0,0" pers-end="0,0" locked="0" mesh="" flag=""/>
            <path id="shapePath16" d="M182.424,418.483 L178.86,427.459 L171.666,427.459 L187.242,386.341 L193.314,386.341 L208.494,427.459 L201.234,427.459 L197.868,418.483 L182.424,418.483 M189.882,396.175 L184.074,413.137 L196.02,413.137 L189.882,396.175 M223.54,417.031 L232.186,386.869 L235.75,386.869 L244.792,417.031 L253.636,387.397 L260.764,387.397 L247.168,428.251 L242.02,428.251 L233.506,400.729 L225.322,428.251 L220.108,428.251 L207.37,387.397 L214.498,387.397 L223.54,417.031 M282.213,395.515 C280.497,393.095 278.319,391.885 275.679,391.885 C274.007,391.885 272.599,392.391 271.455,393.403 C270.311,394.415 269.739,395.768 269.739,397.462 C269.739,399.156 271.818,401.169 275.976,403.501 C280.134,405.833 282.235,406.999 282.279,406.999 C285.227,409.199 286.701,411.795 286.701,414.787 C286.701,418.879 285.524,422.19 283.17,424.72 C280.816,427.25 277.593,428.515 273.501,428.515 C268.309,428.515 264.217,425.919 261.225,420.727 L265.515,416.503 C266.087,418.043 267.143,419.451 268.683,420.727 C270.223,422.003 271.807,422.641 273.435,422.641 C275.371,422.641 276.9,421.981 278.022,420.661 C279.144,419.341 279.705,417.735 279.705,415.843 C279.705,414.479 279.287,413.28 278.451,412.246 C277.615,411.212 274.788,409.628 269.97,407.494 C265.152,405.36 262.743,402.313 262.743,398.353 C262.743,394.965 263.854,392.116 266.076,389.806 C268.298,387.496 271.081,386.341 274.425,386.341 C279.045,386.341 282.697,387.837 285.381,390.829 L282.213,395.515 M339.345,427.459 L330.963,427.459 L319.611,409.639 L319.545,427.459 L312.747,427.459 L312.747,387.397 L323.373,387.397 C332.305,387.397 336.771,391.423 336.771,399.475 C336.771,402.511 335.99,405.041 334.428,407.065 C332.866,409.089 330.743,410.255 328.059,410.563 L339.345,427.459 M319.545,406.867 L321.591,406.867 C327.179,406.867 329.973,404.469 329.973,399.673 C329.973,395.053 327.201,392.743 321.657,392.743 L319.545,392.743 L319.545,406.867 M367.782,414.391 C367.782,418.483 366.528,421.827 364.02,424.423 C361.512,427.019 358.223,428.317 354.153,428.317 C350.083,428.317 346.772,427.019 344.22,424.423 C341.668,421.827 340.392,418.494 340.392,414.424 C340.392,410.354 341.646,407.021 344.154,404.425 C346.662,401.829 349.962,400.531 354.054,400.531 C358.146,400.531 361.457,401.818 363.987,404.392 C366.517,406.966 367.782,410.299 367.782,414.391 M346.86,414.523 C346.86,416.943 347.542,418.923 348.906,420.463 C350.27,422.003 352.03,422.773 354.186,422.773 C356.342,422.773 358.069,421.948 359.367,420.298 C360.665,418.648 361.314,416.69 361.314,414.424 C361.314,412.158 360.654,410.2 359.334,408.55 C358.014,406.9 356.287,406.075 354.153,406.075 C352.019,406.075 350.27,406.867 348.906,408.451 C347.542,410.035 346.86,412.059 346.86,414.523 M377.538,401.389 L377.538,415.513 C377.538,420.573 379.298,423.103 382.818,423.103 C386.338,423.103 388.098,420.573 388.098,415.513 L388.098,401.389 L394.5,401.389 L394.5,416.701 C394.5,424.445 390.606,428.317 382.818,428.317 C375.03,428.317 371.136,424.445 371.136,416.701 L371.136,401.389 L377.538,401.389 M407.559,427.459 L401.157,427.459 L401.157,407.131 L398.055,407.131 L398.055,401.917 L401.157,401.917 L401.157,392.545 L407.559,392.545 L407.559,401.917 L412.641,401.917 L412.641,407.131 L407.559,407.131 L407.559,427.459 M419.233,415.051 C419.233,417.559 419.783,419.627 420.883,421.255 C421.983,422.883 423.501,423.697 425.437,423.697 C428.473,423.697 430.409,422.201 431.245,419.209 L437.317,420.199 C435.337,425.611 431.377,428.317 425.437,428.317 C421.477,428.317 418.32,427.052 415.966,424.522 C413.612,421.992 412.435,418.703 412.435,414.655 C412.435,410.387 413.568,406.966 415.834,404.392 C418.1,401.818 421.18,400.531 425.074,400.531 C428.968,400.531 432.004,401.752 434.182,404.194 C436.36,406.636 437.449,409.969 437.449,414.193 L437.449,415.051 L419.233,415.051 M431.509,411.487 C431.509,409.683 430.948,408.099 429.826,406.735 C428.704,405.371 427.252,404.689 425.47,404.689 C423.688,404.689 422.236,405.404 421.114,406.834 C419.992,408.264 419.431,409.815 419.431,411.487 L431.509,411.487 M451.965,393.139 L450.381,400.333 L453.483,400.201 C457.311,400.201 460.424,401.554 462.822,404.26 C465.22,406.966 466.419,410.255 466.419,414.127 C466.419,418.439 465.077,421.915 462.393,424.555 C459.709,427.195 456.189,428.515 451.833,428.515 C446.993,428.515 443.033,426.755 439.953,423.235 L441.933,417.427 C444.485,420.991 447.609,422.773 451.305,422.773 C453.593,422.773 455.54,421.97 457.146,420.364 C458.752,418.758 459.555,416.58 459.555,413.83 C459.555,411.08 458.719,408.935 457.047,407.395 C455.375,405.855 453.263,405.085 450.711,405.085 C448.159,405.085 446.069,405.965 444.441,407.725 L443.187,407.725 L447.345,387.397 L464.769,387.397 L464.769,393.139 L451.965,393.139 M472.027,397.891 C472.379,394.327 473.633,391.511 475.789,389.443 C477.945,387.375 480.772,386.341 484.27,386.341 C487.768,386.341 490.573,387.353 492.685,389.377 C494.797,391.401 495.853,394.151 495.853,397.627 C495.853,401.499 494.577,404.293 492.025,406.009 C495.457,407.505 497.173,410.761 497.173,415.777 C497.173,419.649 495.93,422.74 493.444,425.05 C490.958,427.36 487.757,428.515 483.841,428.515 C480.189,428.515 477.065,427.305 474.469,424.885 C471.873,422.465 470.575,419.473 470.575,415.909 L477.373,415.909 C477.373,417.845 478.011,419.473 479.287,420.793 C480.563,422.113 482.18,422.773 484.138,422.773 C486.096,422.773 487.658,422.047 488.824,420.595 C489.99,419.143 490.573,417.383 490.573,415.315 C490.573,413.599 489.946,412.004 488.692,410.53 C487.438,409.056 486.019,408.319 484.435,408.319 C484.259,408.319 484.083,408.341 483.907,408.385 L482.455,408.517 L482.455,403.963 L483.313,403.963 C484.985,403.963 486.426,403.38 487.636,402.214 C488.846,401.048 489.451,399.607 489.451,397.891 C489.451,393.799 487.614,391.753 483.94,391.753 C480.266,391.753 478.429,393.799 478.429,397.891 L472.027,397.891 Z" style="stroke:none;fill-rule:nonzero;fill:#000000;fill-opacity:1;"/>
        </g>
    </g>
    <g id="Layer4" name="mailgun" opacity="1">
        <g id="Shape17">
            <desc shapeID="17" type="0" basicInfo-basicType="0" basicInfo-roundedRectRadius="12" basicInfo-polygonSides="6" basicInfo-starPoints="5" bounding="rect(-26.5,-41.1,53,82.2)" text="" font-familyName="" font-pixelSize="20" font-bold="0" font-underline="0" font-alignment="1" strokeStyle="0" markerStart="0" markerEnd="0" shadowEnabled="0" shadowOffsetX="0" shadowOffsetY="2" shadowBlur="4" shadowOpacity="160" blurEnabled="0" blurRadius="4" transform="matrix(1,0,0,1,360.7,563.388)" pers-center="0,0" pers-size="0,0" pers-start="0,0" pers-end="0,0" locked="0" mesh="" flag=""/>
            <path id="shapePath17" d="M387.1,523.588 L375.1,523.588 L375.1,529.588 C370.9,524.888 365.2,522.288 358.7,522.288 C344.5,522.288 334.2,534.088 334.2,550.388 C334.2,566.088 344.5,577.588 358.6,577.588 C365.2,577.588 370.2,575.388 375.1,570.088 L375.1,577.388 C375.1,588.288 370.8,593.688 361.8,593.688 C357,593.688 352.2,591.288 350.1,587.588 C348.9,585.488 348.5,583.488 348.1,578.988 L336.3,578.988 C336.4,594.688 346.1,604.488 361.7,604.488 C370.6,604.488 378.4,600.888 382.7,594.388 C386.2,589.388 387.2,584.788 387.2,574.588 L387.2,523.588 L387.1,523.588 M360.9,532.988 C369.6,532.988 375.6,539.788 375.6,549.688 C375.6,559.888 369.8,566.688 361.1,566.688 C352.3,566.688 346.6,560.088 346.6,549.888 C346.5,539.688 352.2,532.988 360.9,532.988 Z" style="stroke:none;fill-rule:nonzero;fill:#c12126;fill-opacity:1;"/>
        </g>
        <g id="Shape18">
            <desc shapeID="18" type="0" basicInfo-basicType="0" basicInfo-roundedRectRadius="12" basicInfo-polygonSides="6" basicInfo-starPoints="5" bounding="rect(-35.7,-26.85,71.4,53.7)" text="" font-familyName="" font-pixelSize="20" font-bold="0" font-underline="0" font-alignment="1" strokeStyle="0" markerStart="0" markerEnd="0" shadowEnabled="0" shadowOffsetX="0" shadowOffsetY="2" shadowBlur="4" shadowOpacity="160" blurEnabled="0" blurRadius="4" transform="matrix(1,0,0,1,190,549.038)" pers-center="0,0" pers-size="0,0" pers-start="0,0" pers-end="0,0" locked="0" mesh="" flag=""/>
            <path id="shapePath18" d="M154.3,523.588 L154.3,575.888 L166.3,575.888 L166.3,548.888 C166.3,537.788 169.3,532.988 176,532.988 C181.4,532.988 184,537.488 184,546.888 L184,575.888 L196,575.888 L196,548.888 C196,537.688 199,532.988 205.7,532.988 C211.5,532.988 213.7,536.888 213.7,546.788 L213.7,575.888 L225.7,575.888 L225.7,543.588 C225.7,529.588 219.7,522.188 208.1,522.188 C201.7,522.188 196.4,524.888 192.7,529.888 C189.5,524.888 184.6,522.188 178.8,522.188 C173.6,522.188 170.9,523.588 166.4,528.388 L166.4,523.588 L154.3,523.588 Z" style="stroke:none;fill-rule:nonzero;fill:#646569;fill-opacity:1;"/>
        </g>
        <g id="Shape19">
            <desc shapeID="19" type="0" basicInfo-basicType="0" basicInfo-roundedRectRadius="12" basicInfo-polygonSides="6" basicInfo-starPoints="5" bounding="rect(-26.55,-27.65,53.1,55.3)" text="" font-familyName="" font-pixelSize="20" font-bold="0" font-underline="0" font-alignment="1" strokeStyle="0" markerStart="0" markerEnd="0" shadowEnabled="0" shadowOffsetX="0" shadowOffsetY="2" shadowBlur="4" shadowOpacity="160" blurEnabled="0" blurRadius="4" transform="matrix(1,0,0,1,256.45,549.838)" pers-center="0,0" pers-size="0,0" pers-start="0,0" pers-end="0,0" locked="0" mesh="" flag=""/>
            <path id="shapePath19" d="M270.9,523.588 L270.9,529.688 C265.7,524.388 261.2,522.188 254.6,522.188 C240.6,522.188 229.9,533.888 229.9,549.388 C229.9,565.788 240.3,577.488 254.9,577.488 C261.2,577.488 265.3,575.588 270.9,570.388 L270.9,575.888 L283,575.888 L283,523.588 L270.9,523.588 M256.8,532.988 C265.6,532.988 271.7,539.988 271.7,549.788 C271.7,559.888 265.6,566.688 256.8,566.688 C248.3,566.688 242.3,559.588 242.3,549.788 C242.2,540.088 248.4,532.988 256.8,532.988 Z" style="stroke:none;fill-rule:nonzero;fill:#646569;fill-opacity:1;"/>
        </g>
        <g id="Shape20">
            <desc shapeID="20" type="0" basicInfo-basicType="0" basicInfo-roundedRectRadius="12" basicInfo-polygonSides="6" basicInfo-starPoints="5" bounding="rect(-7.89999,-40.7,15.8,81.4)" text="" font-familyName="" font-pixelSize="20" font-bold="0" font-underline="0" font-alignment="1" strokeStyle="0" markerStart="0" markerEnd="0" shadowEnabled="0" shadowOffsetX="0" shadowOffsetY="2" shadowBlur="4" shadowOpacity="160" blurEnabled="0" blurRadius="4" transform="matrix(1,0,0,1,298.6,535.188)" pers-center="0,0" pers-size="0,0" pers-start="0,0" pers-end="0,0" locked="0" mesh="" flag=""/>
            <path id="shapePath20" d="M304.7,523.588 L292.6,523.588 L292.6,575.888 L304.7,575.888 L304.7,523.588 M298.7,494.488 C294.2,494.488 290.7,497.988 290.7,502.288 C290.7,506.588 294.3,510.288 298.5,510.288 C302.9,510.288 306.5,506.688 306.5,502.288 C306.5,497.888 303,494.488 298.7,494.488 Z" style="stroke:none;fill-rule:nonzero;fill:#646569;fill-opacity:1;"/>
        </g>
        <g id="Shape21">
            <desc shapeID="21" type="0" basicInfo-basicType="0" basicInfo-roundedRectRadius="12" basicInfo-polygonSides="6" basicInfo-starPoints="5" bounding="rect(-6.05002,-47.35,12.1,94.7)" text="" font-familyName="" font-pixelSize="20" font-bold="0" font-underline="0" font-alignment="1" strokeStyle="0" markerStart="0" markerEnd="0" shadowEnabled="0" shadowOffsetX="0" shadowOffsetY="2" shadowBlur="4" shadowOpacity="160" blurEnabled="0" blurRadius="4" transform="matrix(1,0,0,1,321.75,528.538)" pers-center="0,0" pers-size="0,0" pers-start="0,0" pers-end="0,0" locked="0" mesh="" flag=""/>
            <path id="shapePath21" d="M315.7,481.188 L327.8,481.188 L327.8,575.888 L315.7,575.888 L315.7,481.188 Z" style="stroke:none;fill-rule:evenodd;fill:#646569;fill-opacity:1;"/>
        </g>
        <g id="Shape22">
            <desc shapeID="22" type="0" basicInfo-basicType="0" basicInfo-roundedRectRadius="12" basicInfo-polygonSides="6" basicInfo-starPoints="5" bounding="rect(-22.35,-26.95,44.7,53.9)" text="" font-familyName="" font-pixelSize="20" font-bold="0" font-underline="0" font-alignment="1" strokeStyle="0" markerStart="0" markerEnd="0" shadowEnabled="0" shadowOffsetX="0" shadowOffsetY="2" shadowBlur="4" shadowOpacity="160" blurEnabled="0" blurRadius="4" transform="matrix(1,0,0,1,416.65,550.538)" pers-center="0,0" pers-size="0,0" pers-start="0,0" pers-end="0,0" locked="0" mesh="" flag=""/>
            <path id="shapePath22" d="M406.4,523.588 L394.3,523.588 L394.3,553.888 C394.3,562.088 395.8,566.588 399.8,570.888 C404,575.188 409.7,577.488 416.6,577.488 C423.6,577.488 429.3,575.288 433.5,570.888 C437.5,566.588 439,562.088 439,553.888 L439,523.588 L426.9,523.588 L426.9,553.688 C426.9,562.588 423.7,566.688 416.6,566.688 C409.6,566.688 406.4,562.588 406.4,553.688 L406.4,523.588 Z" style="stroke:none;fill-rule:nonzero;fill:#c12126;fill-opacity:1;"/>
        </g>
        <g id="Shape23">
            <desc shapeID="23" type="0" basicInfo-basicType="0" basicInfo-roundedRectRadius="12" basicInfo-polygonSides="6" basicInfo-starPoints="5" bounding="rect(-22.55,-26.85,45.1,53.7)" text="" font-familyName="" font-pixelSize="20" font-bold="0" font-underline="0" font-alignment="1" strokeStyle="0" markerStart="0" markerEnd="0" shadowEnabled="0" shadowOffsetX="0" shadowOffsetY="2" shadowBlur="4" shadowOpacity="160" blurEnabled="0" blurRadius="4" transform="matrix(1,0,0,1,469.55,549.138)" pers-center="0,0" pers-size="0,0" pers-start="0,0" pers-end="0,0" locked="0" mesh="" flag=""/>
            <path id="shapePath23" d="M447,523.588 L447,575.888 L459.1,575.888 L459.1,550.688 C459.1,537.788 462.1,533.088 470.2,533.088 C477.7,533.088 480,536.488 480,546.788 L480,575.988 L492.1,575.988 L492.1,543.888 C492.1,529.188 486,522.288 473.2,522.288 C467.5,522.288 463.9,523.888 459.2,528.488 L459.2,523.688 L447,523.688 L447,523.588 Z" style="stroke:none;fill-rule:nonzero;fill:#c12126;fill-opacity:1;"/>
        </g>
        <g id="Shape24">
            <desc shapeID="24" type="0" basicInfo-basicType="0" basicInfo-roundedRectRadius="12" basicInfo-polygonSides="6" basicInfo-starPoints="5" bounding="rect(-48.8,-48.8,97.6,97.6)" text="" font-familyName="" font-pixelSize="20" font-bold="0" font-underline="0" font-alignment="1" strokeStyle="0" markerStart="0" markerEnd="0" shadowEnabled="0" shadowOffsetX="0" shadowOffsetY="2" shadowBlur="4" shadowOpacity="160" blurEnabled="0" blurRadius="4" transform="matrix(1,0,0,1,92.7,546.088)" pers-center="0,0" pers-size="0,0" pers-start="0,0" pers-end="0,0" locked="0" mesh="" flag=""/>
            <path id="shapePath24" d="M92.8,527.688 C82.6,527.688 74.3,535.988 74.3,546.188 C74.3,556.388 82.6,564.688 92.8,564.688 C103,564.688 111.3,556.388 111.3,546.188 C111.2,535.988 103,527.688 92.8,527.688 M64,546.188 C64,530.288 76.9,517.388 92.8,517.388 C108.7,517.388 121.6,530.288 121.6,546.188 C121.6,547.288 121.5,548.288 121.4,549.288 C121.2,552.088 123.2,554.188 126,554.188 C130.7,554.188 131.2,548.088 131.2,546.088 C131.2,524.788 114,507.588 92.7,507.588 C71.4,507.588 54.2,524.788 54.2,546.088 C54.2,567.388 71.4,584.588 92.7,584.588 C104,584.588 114.1,579.688 121.2,571.988 L129.1,578.588 C120.2,588.588 107.2,594.888 92.7,594.888 C65.7,594.888 43.9,572.988 43.9,546.088 C43.9,519.088 65.8,497.288 92.7,497.288 C119.7,497.288 141.5,519.188 141.5,546.088 C141.5,556.888 136.3,565.688 126,565.688 C121.4,565.688 118.7,563.588 117.1,561.288 C112,569.488 103,574.888 92.6,574.888 C76.9,574.988 64,562.088 64,546.188 M92.8,537.688 C97.5,537.688 101.3,541.488 101.3,546.188 C101.3,550.888 97.5,554.688 92.8,554.688 C88.1,554.688 84.3,550.888 84.3,546.188 C84.3,541.488 88.1,537.688 92.8,537.688 Z" style="stroke:none;fill-rule:nonzero;fill:#c12126;fill-opacity:1;"/>
        </g>
    </g>
    <g id="Layer5" name="dns" opacity="1">
        <g id="Shape25">
            <desc shapeID="25" type="0" basicInfo-basicType="0" basicInfo-roundedRectRadius="12" basicInfo-polygonSides="6" basicInfo-starPoints="5" bounding="rect(-39.9998,-40,79.9996,80)" text="" font-familyName="" font-pixelSize="20" font-bold="0" font-underline="0" font-alignment="1" strokeStyle="0" markerStart="0" markerEnd="0" shadowEnabled="0" shadowOffsetX="0" shadowOffsetY="2" shadowBlur="4" shadowOpacity="160" blurEnabled="0" blurRadius="4" transform="matrix(1.47047,0,0,1.47047,80.1064,68.7862)" pers-center="0,0" pers-size="0,0" pers-start="0,0" pers-end="0,0" locked="0" mesh="" flag=""/>
            <path id="shapePath25" d="M21.2878,68.7862 C21.2878,36.2005 47.5209,9.96736 80.1064,9.96736 C112.692,9.96736 138.925,36.2005 138.925,68.7862 C138.925,101.372 112.692,127.605 80.1064,127.605 C47.5209,127.605 21.2878,101.372 21.2878,68.7862 Z" style="stroke:none;fill-rule:evenodd;fill:#0072c6;fill-opacity:1;"/>
        </g>
        <g id="Shape26">
            <desc shapeID="26" type="0" basicInfo-basicType="0" basicInfo-roundedRectRadius="12" basicInfo-polygonSides="6" basicInfo-starPoints="5" bounding="rect(-34.1417,-34.1418,68.2833,68.2835)" text="" font-familyName="" font-pixelSize="20" font-bold="0" font-underline="0" font-alignment="1" strokeStyle="0" markerStart="0" markerEnd="0" shadowEnabled="0" shadowOffsetX="0" shadowOffsetY="2" shadowBlur="4" shadowOpacity="160" blurEnabled="0" blurRadius="4" transform="matrix(1.47047,0,0,1.47047,71.4915,60.1736)" pers-center="0,0" pers-size="0,0" pers-start="0,0" pers-end="0,0" locked="0" mesh="" flag=""/>
            <path id="shapePath26" d="M38.5146,110.378 C15.5448,87.4083 15.5448,50.1663 38.5146,27.1965 C61.4845,4.22676 98.7259,4.22676 121.696,27.1965 L38.5146,110.378 Z" style="stroke:none;fill-rule:evenodd;fill:#ffffff;fill-opacity:0.2;"/>
        </g>
        <g id="Shape27">
            <desc shapeID="27" type="0" basicInfo-basicType="0" basicInfo-roundedRectRadius="12" basicInfo-polygonSides="6" basicInfo-starPoints="5" bounding="rect(-36.7998,-36.7265,73.5996,73.4529)" text="" font-familyName="" font-pixelSize="20" font-bold="0" font-underline="0" font-alignment="1" strokeStyle="0" markerStart="0" markerEnd="0" shadowEnabled="0" shadowOffsetX="0" shadowOffsetY="2" shadowBlur="4" shadowOpacity="160" blurEnabled="0" blurRadius="4" transform="matrix(1.47047,0,0,1.47047,80.1065,68.6686)" pers-center="0,0" pers-size="0,0" pers-start="0,0" pers-end="0,0" locked="0" mesh="" flag=""/>
            <path id="shapePath27" d="M134.219,68.7767 C134.219,56.6554 130.107,44.9669 122.531,35.4431 L122.098,35.0102 C121.882,34.7936 121.882,34.5771 121.665,34.3605 L118.202,30.681 C108.029,20.2911 94.6088,14.6634 80.1065,14.6634 C80.1065,14.6634 80.1065,14.6634 79.89,14.6634 L79.6736,14.6634 C65.3878,14.88 52.1842,20.2911 42.0109,30.4644 L38.3313,34.3605 C38.1149,34.5771 38.1149,34.7936 37.8984,35.0102 L37.4655,35.2268 C30.1061,44.7503 25.9935,56.6554 25.9935,68.7767 C25.9935,80.8981 30.1061,92.5866 37.682,102.111 L38.1149,102.544 C38.3313,102.76 38.3313,102.976 38.5478,103.193 L42.0109,106.872 C52.1842,117.046 65.3878,122.674 79.6736,122.674 L79.89,122.674 C79.89,122.674 79.89,122.674 80.1065,122.674 C94.3924,122.674 108.029,117.046 118.202,106.872 L121.665,102.976 C121.882,102.76 121.882,102.544 122.098,102.327 L122.531,101.894 C130.107,92.8032 134.219,80.8981 134.219,68.7767 M112.358,33.4949 C112.141,33.4949 111.925,33.7115 111.708,33.7115 C111.276,33.9281 110.843,34.1442 110.626,34.1442 C109.76,34.5771 108.678,34.7936 107.596,35.2268 C107.379,35.2268 107.163,35.4431 106.947,35.4431 C105.648,35.8759 104.566,36.0925 103.267,36.5255 C103.05,36.5255 102.617,36.7418 102.401,36.7418 C100.453,31.5468 98.0721,27.0013 95.2582,23.5383 C101.535,25.4861 107.379,28.9494 112.358,33.4949 M79.6736,20.9407 L79.89,20.9407 C85.7343,20.9407 91.795,27.2179 96.124,38.0405 C91.1456,38.9063 85.7343,39.3393 80.1065,39.3393 C74.4787,39.3393 68.8511,38.9063 63.6562,38.0405 C67.7688,27.4345 73.8293,21.157 79.6736,20.9407 M64.3055,23.7545 C61.7081,27.2179 59.3271,31.5468 57.379,36.7418 C57.1626,36.7418 57.1626,36.7418 56.9461,36.7418 C55.6474,36.3089 54.3487,36.0925 53.2664,35.6593 C53.05,35.6593 52.8335,35.4431 52.6171,35.4431 C51.7513,35.0102 50.669,34.5771 49.8032,34.1442 C49.3703,33.9281 49.1538,33.9281 48.7209,33.7115 C48.5045,33.4949 48.288,33.4949 47.8551,33.2784 C52.8335,29.1657 58.2449,25.7026 64.3055,23.7545 M47.8551,104.059 C48.0716,104.059 48.288,103.842 48.5045,103.842 C48.9374,103.626 49.1538,103.626 49.5867,103.409 C50.4525,102.976 51.5348,102.76 52.6171,102.327 C52.8335,102.327 53.05,102.111 53.2664,102.111 C54.5652,101.678 55.6474,101.461 56.9461,101.028 C57.1626,101.028 57.1626,101.028 57.379,101.028 C59.3271,106.007 61.7081,110.552 64.3055,114.015 C58.2449,111.851 52.6171,108.388 47.8551,104.059 M79.89,116.613 L79.6736,116.613 C73.8293,116.397 67.7688,110.336 63.6562,99.7295 C68.8511,98.8636 74.4787,98.4308 80.1065,98.4308 C85.7343,98.4308 90.9291,98.8636 96.124,99.7295 C92.0114,110.336 85.7343,116.613 79.89,116.613 M95.2582,114.015 C98.0721,110.552 100.453,106.007 102.401,100.812 C102.617,100.812 103.05,101.028 103.267,101.028 C104.566,101.461 105.864,101.678 106.947,102.111 C107.163,102.111 107.379,102.327 107.596,102.327 C108.678,102.76 109.544,102.976 110.626,103.409 C111.059,103.626 111.276,103.626 111.708,103.842 C111.925,103.842 112.141,104.059 112.574,104.275 C107.379,108.604 101.535,112.067 95.2582,114.015 M117.12,99.0802 C116.47,99.0802 116.038,98.8636 115.388,98.6474 C114.739,98.4308 113.873,97.9981 113.224,97.7815 C113.007,97.7815 112.791,97.5649 112.574,97.5649 C109.977,96.4827 107.163,95.8334 104.349,94.9674 C104.998,92.37 105.648,89.7726 106.081,87.1751 L99.5871,87.1751 C99.1544,89.5564 98.7215,91.7209 98.0721,93.6687 C92.4443,92.5866 86.3836,92.1538 80.1065,92.1538 C73.6129,92.1538 67.5523,92.8032 61.7081,93.8853 C61.0588,91.7209 60.6258,89.5564 60.1929,87.1751 L53.6993,87.1751 C54.1322,89.9892 54.7816,92.5866 55.431,95.184 C52.8335,95.8334 50.2361,96.6993 47.8551,97.5649 C47.6387,97.7815 47.2057,97.7815 46.9893,97.9981 C46.3399,98.2145 45.4741,98.6474 44.8248,98.8636 C44.3919,98.8636 43.7425,99.0802 43.3096,99.2968 C36.8161,91.5045 33.1364,81.7639 32.4871,71.8069 L37.8984,71.8069 L37.8984,65.5299 L32.4871,65.5299 C33.1364,55.5732 36.8161,46.049 43.0931,38.4733 L43.3096,38.2567 C43.7425,38.4733 44.3919,38.6899 44.8248,38.9063 C45.6906,39.3393 46.3399,39.5554 47.2057,39.9886 C47.4222,39.9886 47.6387,40.2051 47.8551,40.2051 C50.2361,41.0707 52.8335,41.9367 55.6474,42.5861 C54.9981,44.9669 54.5652,47.3477 54.1322,49.729 L60.6258,49.729 C61.0588,47.7809 61.4917,45.6162 61.9246,43.8848 C67.7688,44.9669 74.0458,45.6162 80.3229,45.6162 C86.6001,45.6162 92.6608,44.9669 98.2886,44.1012 C98.7215,45.8328 99.1544,47.7809 99.5871,49.9453 L106.081,49.9453 C105.648,47.5643 105.215,45.1835 104.566,42.8025 C107.379,42.1528 109.977,41.2873 112.574,40.2051 C112.791,40.2051 113.224,39.9886 113.44,39.9886 C114.306,39.772 114.955,39.3393 115.821,39.1229 C116.254,38.9063 116.903,38.6899 117.336,38.4733 C123.613,46.2656 127.51,55.7898 128.159,65.7465 L121.665,65.7465 L121.665,72.0235 L128.159,72.0235 C127.077,81.7639 123.397,91.5045 117.12,99.0802 Z" style="stroke:none;fill-rule:evenodd;fill:#ffffff;fill-opacity:0.8;"/>
        </g>
        <g id="Shape28">
            <desc shapeID="28" type="0" basicInfo-basicType="0" basicInfo-roundedRectRadius="12" basicInfo-polygonSides="6" basicInfo-starPoints="5" bounding="rect(-7.89835,-9.50635,15.7967,19.0127)" text="" font-familyName="" font-pixelSize="20" font-bold="0" font-underline="0" font-alignment="1" strokeStyle="0" markerStart="0" markerEnd="0" shadowEnabled="0" shadowOffsetX="0" shadowOffsetY="2" shadowBlur="4" shadowOpacity="160" blurEnabled="0" blurRadius="4" transform="matrix(1.47047,0,0,1.47047,54.898,68.8556)" pers-center="0,0" pers-size="0,0" pers-start="0,0" pers-end="0,0" locked="0" mesh="" flag=""/>
            <path id="shapePath28" d="M66.5123,68.4449 C66.5123,71.0097 66.1758,73.2045 65.5076,75.0256 C64.8395,76.8491 63.8748,78.3362 62.6232,79.4864 C61.3692,80.6395 59.8469,81.4862 58.0518,82.025 C56.2591,82.5638 54.1228,82.8344 51.6454,82.8344 L44.9683,82.8344 C44.4954,82.8344 44.0907,82.6933 43.7684,82.4156 C43.4437,82.1332 43.2837,81.6769 43.2837,81.0439 L43.2837,56.6694 C43.2837,56.0345 43.446,55.5779 43.7684,55.298 C44.093,55.0154 44.493,54.8768 44.9683,54.8768 L52.1418,54.8768 C54.6334,54.8768 56.7485,55.1682 58.4847,55.7542 C60.221,56.3378 61.6821,57.2011 62.8726,58.3471 C64.0607,59.493 64.9642,60.9069 65.5853,62.5913 C66.2017,64.2736 66.5123,66.2289 66.5123,68.4449 M60.6351,68.6404 C60.6351,67.3134 60.4798,66.0831 60.1693,64.944 C59.8587,63.8078 59.3623,62.8196 58.6776,61.9844 C57.993,61.1492 57.1155,60.4976 56.0403,60.0294 C54.9675,59.5587 53.5605,59.3258 51.8148,59.3258 L48.9397,59.3258 L48.9397,78.3407 L51.9018,78.3407 C53.457,78.3407 54.7675,78.1409 55.8356,77.7359 C56.9014,77.3316 57.7908,76.7244 58.5035,75.9105 C59.2164,75.0963 59.7505,74.0845 60.1034,72.8731 C60.4563,71.666 60.6351,70.2543 60.6351,68.6404 Z" style="stroke:none;fill-rule:evenodd;fill:#ffffff;fill-opacity:1;"/>
        </g>
        <g id="Shape29">
            <desc shapeID="29" type="0" basicInfo-basicType="0" basicInfo-roundedRectRadius="12" basicInfo-polygonSides="6" basicInfo-starPoints="5" bounding="rect(-7.84075,-9.58,15.6815,19.16)" text="" font-familyName="" font-pixelSize="20" font-bold="0" font-underline="0" font-alignment="1" strokeStyle="0" markerStart="0" markerEnd="0" shadowEnabled="0" shadowOffsetX="0" shadowOffsetY="2" shadowBlur="4" shadowOpacity="160" blurEnabled="0" blurRadius="4" transform="matrix(1.47047,0,0,1.47047,82.705,68.8767)" pers-center="0,0" pers-size="0,0" pers-start="0,0" pers-end="0,0" locked="0" mesh="" flag=""/>
            <path id="shapePath29" d="M94.2346,80.8508 C94.2346,81.1828 94.1781,81.4793 94.0628,81.7357 C93.9428,81.9945 93.7899,82.2088 93.5946,82.3851 C93.4041,82.5592 93.1711,82.6815 92.9053,82.7614 C92.6371,82.8415 92.3665,82.8813 92.0936,82.8813 L89.6749,82.8813 C89.1691,82.8813 88.7362,82.8319 88.3645,82.7309 C87.9998,82.6321 87.6586,82.4462 87.3504,82.1802 C87.0399,81.9147 86.7411,81.5522 86.454,81.1005 C86.1646,80.6464 85.8425,80.0582 85.4848,79.3381 L78.5254,66.2639 C78.1207,65.4876 77.7113,64.6475 77.2949,63.7463 C76.8761,62.8453 76.502,61.9726 76.1703,61.1208 L76.1279,61.1208 C76.1868,62.1583 76.2291,63.1915 76.2573,64.2196 C76.2856,65.2475 76.2997,66.3133 76.2997,67.4052 L76.2997,82.0344 C76.2997,82.1802 76.2597,82.3098 76.1797,82.4251 C76.0997,82.5402 75.9633,82.6367 75.768,82.7168 C75.5727,82.7969 75.3092,82.8578 74.9798,82.898 C74.6481,82.9428 74.2222,82.9638 73.7046,82.9638 C73.2011,82.9638 72.7823,82.9428 72.4506,82.898 C72.1189,82.8533 71.8601,82.7943 71.6742,82.7168 C71.486,82.639 71.3566,82.5402 71.2836,82.4251 C71.213,82.3098 71.1754,82.1802 71.1754,82.0344 L71.1754,56.9046 C71.1754,56.227 71.373,55.7213 71.7683,55.3802 C72.1636,55.0436 72.6506,54.8718 73.227,54.8718 L76.2715,54.8718 C76.8196,54.8718 77.2808,54.9189 77.6549,55.0131 C78.029,55.1073 78.3631,55.26 78.6595,55.4788 C78.9536,55.6954 79.2359,55.9941 79.4924,56.3752 C79.7512,56.7587 80.017,57.2294 80.29,57.7918 L85.7366,68.0121 C86.0494,68.631 86.367,69.2424 86.6752,69.8378 C86.9834,70.4329 87.2845,71.0354 87.5716,71.6328 C87.8563,72.2304 88.1362,72.8164 88.4139,73.3929 C88.6868,73.9693 88.9527,74.5457 89.2114,75.122 L89.2326,75.122 C89.1903,74.1125 89.1573,73.0585 89.1362,71.9671 C89.115,70.8729 89.1056,69.8283 89.1056,68.8356 L89.1056,55.719 C89.1056,55.5755 89.1479,55.4462 89.2326,55.3284 C89.3173,55.213 89.4632,55.1118 89.6655,55.0271 C89.8655,54.9401 90.1337,54.8789 90.4631,54.8436 C90.7949,54.806 91.2207,54.7896 91.7383,54.7896 C92.2277,54.7896 92.6347,54.806 92.9688,54.8436 C93.3005,54.8815 93.5546,54.9401 93.7381,55.0271 C93.9146,55.1142 94.044,55.213 94.1169,55.3284 C94.1875,55.4462 94.2228,55.5731 94.2228,55.719 L94.2228,80.8508 L94.2346,80.8508 Z" style="stroke:none;fill-rule:evenodd;fill:#ffffff;fill-opacity:1;"/>
        </g>
        <g id="Shape30">
            <desc shapeID="30" type="0" basicInfo-basicType="0" basicInfo-roundedRectRadius="12" basicInfo-polygonSides="6" basicInfo-starPoints="5" bounding="rect(-6.20955,-9.84885,12.4191,19.6977)" text="" font-familyName="" font-pixelSize="20" font-bold="0" font-underline="0" font-alignment="1" strokeStyle="0" markerStart="0" markerEnd="0" shadowEnabled="0" shadowOffsetX="0" shadowOffsetY="2" shadowBlur="4" shadowOpacity="160" blurEnabled="0" blurRadius="4" transform="matrix(1.47047,0,0,1.47047,107.772,68.8486)" pers-center="0,0" pers-size="0,0" pers-start="0,0" pers-end="0,0" locked="0" mesh="" flag=""/>
            <path id="shapePath30" d="M116.903,74.4516 C116.903,75.9242 116.628,77.2115 116.082,78.3195 C115.534,79.4298 114.793,80.357 113.856,81.0956 C112.92,81.8392 111.824,82.3943 110.57,82.7709 C109.318,83.1451 107.977,83.331 106.551,83.331 C105.587,83.331 104.69,83.2509 103.862,83.0934 C103.034,82.9331 102.302,82.745 101.669,82.5217 C101.034,82.2979 100.505,82.0652 100.081,81.8182 C99.6577,81.5735 99.3471,81.357 99.1612,81.1685 C98.9754,80.9831 98.8436,80.7122 98.7613,80.3593 C98.6836,80.0066 98.6413,79.4982 98.6413,78.8347 C98.6413,78.3879 98.6554,78.0136 98.686,77.7125 C98.7142,77.4091 98.7589,77.1644 98.8271,76.9761 C98.8907,76.7902 98.9777,76.6561 99.0859,76.5762 C99.1942,76.4988 99.3189,76.4563 99.4647,76.4563 C99.6671,76.4563 99.9518,76.5762 100.316,76.8137 C100.683,77.049 101.156,77.3149 101.733,77.6022 C102.309,77.8891 102.996,78.1524 103.796,78.3902 C104.594,78.6277 105.521,78.7478 106.572,78.7478 C107.262,78.7478 107.883,78.6653 108.429,78.4982 C108.975,78.3314 109.44,78.0985 109.822,77.7948 C110.203,77.4935 110.492,77.1196 110.697,76.6727 C110.899,76.2255 111,75.729 111,75.1811 C111,74.5457 110.826,74.0047 110.48,73.5506 C110.134,73.0965 109.683,72.6916 109.127,72.3389 C108.572,71.9859 107.944,71.6542 107.238,71.3461 C106.532,71.0355 105.803,70.7085 105.057,70.3601 C104.307,70.0143 103.582,69.6214 102.876,69.1838 C102.17,68.7436 101.538,68.2193 100.987,67.6052 C100.432,66.9935 99.9823,66.2663 99.6341,65.4311 C99.2859,64.5959 99.1142,63.596 99.1142,62.4267 C99.1142,61.0881 99.3636,59.9094 99.86,58.8927 C100.359,57.8766 101.027,57.0365 101.869,56.3636 C102.714,55.6956 103.707,55.1918 104.853,54.8627 C105.998,54.5333 107.212,54.3661 108.492,54.3661 C109.156,54.3661 109.819,54.4158 110.48,54.5168 C111.141,54.618 111.763,54.7545 112.337,54.9284 C112.911,55.1028 113.426,55.2955 113.87,55.5118 C114.318,55.7284 114.614,55.9072 114.755,56.0532 C114.899,56.1964 114.995,56.3188 115.047,56.4202 C115.099,56.5212 115.141,56.6554 115.176,56.8202 C115.214,56.9871 115.237,57.1941 115.249,57.4484 C115.263,57.7003 115.273,58.013 115.273,58.3895 C115.273,58.8083 115.261,59.1609 115.237,59.4482 C115.216,59.7354 115.179,59.9752 115.132,60.161 C115.08,60.3471 115.009,60.4855 114.915,60.5728 C114.821,60.6599 114.694,60.7021 114.536,60.7021 C114.376,60.7021 114.125,60.6033 113.779,60.4011 C113.433,60.1986 113.007,59.9801 112.504,59.74 C112,59.5044 111.417,59.2856 110.756,59.0906 C110.092,58.8953 109.365,58.7989 108.575,58.7989 C107.956,58.7989 107.415,58.874 106.956,59.0271 C106.495,59.1777 106.107,59.387 105.801,59.6553 C105.49,59.9208 105.26,60.2434 105.109,60.615 C104.958,60.9893 104.883,61.3867 104.883,61.8032 C104.883,62.4218 105.053,62.9584 105.389,63.415 C105.728,63.8687 106.182,64.2714 106.751,64.6241 C107.321,64.977 107.965,65.3088 108.688,65.6173 C109.407,65.9274 110.142,66.2549 110.892,66.6029 C111.64,66.9486 112.374,67.3416 113.097,67.7793 C113.816,68.2193 114.456,68.7436 115.021,69.3577 C115.581,69.9694 116.035,70.692 116.381,71.52 C116.729,72.3556 116.903,73.3295 116.903,74.4516 Z" style="stroke:none;fill-rule:evenodd;fill:#ffffff;fill-opacity:1;"/>
        </g>
        <g id="Shape31">
            <desc shapeID="31" type="2" basicInfo-basicType="0" basicInfo-roundedRectRadius="12" basicInfo-polygonSides="6" basicInfo-starPoints="5" bounding="rect(-175.438,-38.8321,350.876,77.6642)" text="Domain Name" font-familyName="Apple LiGothic" font-pixelSize="66" font-bold="0" font-underline="0" font-alignment="1" strokeStyle="0" markerStart="0" markerEnd="0" shadowEnabled="0" shadowOffsetX="0" shadowOffsetY="2" shadowBlur="4" shadowOpacity="160" blurEnabled="0" blurRadius="4" transform="matrix(1,0,0,1,345.445,66.8661)" pers-center="0,0" pers-size="0,0" pers-start="0,0" pers-end="0,0" locked="0" mesh="" flag=""/>
            <path id="shapePath31" d="M178.392,48.9447 L189.612,48.9447 C195.332,48.9447 199.985,50.8367 203.571,54.6207 C207.157,58.4047 208.95,63.1787 208.95,68.9427 C208.95,74.7067 207.135,79.4917 203.505,83.2977 C199.875,87.1037 195.222,89.0067 189.546,89.0067 L178.392,89.0067 L178.392,48.9447 M185.19,82.8687 L187.5,82.8687 C197.092,82.8687 201.888,78.2377 201.888,68.9757 C201.888,59.7137 197.092,55.0827 187.5,55.0827 L185.19,55.0827 L185.19,82.8687 M238.115,75.9387 C238.115,80.0307 236.861,83.3747 234.353,85.9707 C231.845,88.5667 228.556,89.8647 224.486,89.8647 C220.416,89.8647 217.105,88.5667 214.553,85.9707 C212.001,83.3747 210.725,80.0417 210.725,75.9717 C210.725,71.9017 211.979,68.5687 214.487,65.9727 C216.995,63.3767 220.295,62.0787 224.387,62.0787 C228.479,62.0787 231.79,63.3657 234.32,65.9397 C236.85,68.5137 238.115,71.8467 238.115,75.9387 M217.193,76.0707 C217.193,78.4907 217.875,80.4707 219.239,82.0107 C220.603,83.5507 222.363,84.3207 224.519,84.3207 C226.675,84.3207 228.402,83.4957 229.7,81.8457 C230.998,80.1957 231.647,78.2377 231.647,75.9717 C231.647,73.7057 230.987,71.7477 229.667,70.0977 C228.347,68.4477 226.62,67.6227 224.486,67.6227 C222.352,67.6227 220.603,68.4147 219.239,69.9987 C217.875,71.5827 217.193,73.6067 217.193,76.0707 M248.003,65.2467 C249.631,63.1347 252.139,62.0787 255.527,62.0787 C258.475,62.0787 260.807,63.4427 262.523,66.1707 C264.195,63.4427 266.901,62.0787 270.641,62.0787 C276.141,62.0787 278.891,65.6427 278.891,72.7707 L278.891,89.0067 L272.555,89.0067 L272.555,75.2787 C272.555,69.7347 271.037,66.9627 268.001,66.9627 C264.965,66.9627 263.447,70.0427 263.447,76.2027 L263.447,89.0067 L257.045,89.0067 L257.045,75.8067 C257.045,69.9107 255.703,66.9627 253.019,66.9627 C249.675,66.9627 248.003,70.0427 248.003,76.2027 L248.003,89.0067 L241.601,89.0067 L241.601,62.9367 L248.003,62.9367 L248.003,65.2467 M308.91,89.0067 L302.64,89.0067 L302.64,86.6307 C300.792,88.7867 298.042,89.8647 294.39,89.8647 C290.738,89.8647 287.823,88.4567 285.645,85.6407 C283.467,82.8247 282.378,79.5247 282.378,75.7407 C282.378,71.9567 283.489,68.7337 285.711,66.0717 C287.933,63.4097 290.782,62.0787 294.258,62.0787 C297.954,62.0787 300.748,63.1787 302.64,65.3787 L302.64,62.9367 L308.91,62.9367 L308.91,89.0067 M303.366,75.9387 C303.366,73.5187 302.684,71.5277 301.32,69.9657 C299.956,68.4037 298.207,67.6227 296.073,67.6227 C293.939,67.6227 292.201,68.3817 290.859,69.8997 C289.517,71.4177 288.846,73.4307 288.846,75.9387 C288.846,78.4467 289.528,80.4707 290.892,82.0107 C292.256,83.5507 294.016,84.3207 296.172,84.3207 C298.328,84.3207 300.066,83.5727 301.386,82.0767 C302.706,80.5807 303.366,78.5347 303.366,75.9387 M322.095,51.9807 C322.095,52.9927 321.721,53.8727 320.973,54.6207 C320.225,55.3687 319.345,55.7427 318.333,55.7427 C317.321,55.7427 316.441,55.3687 315.693,54.6207 C314.945,53.8727 314.571,52.9927 314.571,51.9807 C314.571,50.9687 314.945,50.0887 315.693,49.3407 C316.441,48.5927 317.321,48.2187 318.333,48.2187 C319.345,48.2187 320.225,48.5927 320.973,49.3407 C321.721,50.0887 322.095,50.9687 322.095,51.9807 M321.567,89.0067 L315.165,89.0067 L315.165,62.9367 L321.567,62.9367 L321.567,89.0067 M334.096,65.3127 C335.9,63.1567 338.562,62.0787 342.082,62.0787 C348.066,62.0787 351.058,65.7527 351.058,73.1007 L351.058,89.0067 L344.722,89.0067 L344.722,75.2127 C344.722,69.7127 343.028,66.9627 339.64,66.9627 C335.944,66.9627 334.096,69.9107 334.096,75.8067 L334.096,89.0067 L327.694,89.0067 L327.694,62.9367 L334.096,62.9367 L334.096,65.3127 M378.627,47.8887 L383.775,47.8887 L406.413,78.0507 L406.545,48.9447 L413.277,48.9447 L413.277,89.7987 L408.195,89.7987 L385.491,59.7027 L385.425,89.0067 L378.627,89.0067 L378.627,47.8887 M443.425,89.0067 L437.155,89.0067 L437.155,86.6307 C435.307,88.7867 432.557,89.8647 428.905,89.8647 C425.253,89.8647 422.338,88.4567 420.16,85.6407 C417.982,82.8247 416.893,79.5247 416.893,75.7407 C416.893,71.9567 418.004,68.7337 420.226,66.0717 C422.448,63.4097 425.297,62.0787 428.773,62.0787 C432.469,62.0787 435.263,63.1787 437.155,65.3787 L437.155,62.9367 L443.425,62.9367 L443.425,89.0067 M437.881,75.9387 C437.881,73.5187 437.199,71.5277 435.835,69.9657 C434.471,68.4037 432.722,67.6227 430.588,67.6227 C428.454,67.6227 426.716,68.3817 425.374,69.8997 C424.032,71.4177 423.361,73.4307 423.361,75.9387 C423.361,78.4467 424.043,80.4707 425.407,82.0107 C426.771,83.5507 428.531,84.3207 430.687,84.3207 C432.843,84.3207 434.581,83.5727 435.901,82.0767 C437.221,80.5807 437.881,78.5347 437.881,75.9387 M455.159,65.2467 C456.787,63.1347 459.295,62.0787 462.683,62.0787 C465.631,62.0787 467.963,63.4427 469.679,66.1707 C471.351,63.4427 474.057,62.0787 477.797,62.0787 C483.297,62.0787 486.047,65.6427 486.047,72.7707 L486.047,89.0067 L479.711,89.0067 L479.711,75.2787 C479.711,69.7347 478.193,66.9627 475.157,66.9627 C472.121,66.9627 470.603,70.0427 470.603,76.2027 L470.603,89.0067 L464.201,89.0067 L464.201,75.8067 C464.201,69.9107 462.859,66.9627 460.175,66.9627 C456.831,66.9627 455.159,70.0427 455.159,76.2027 L455.159,89.0067 L448.757,89.0067 L448.757,62.9367 L455.159,62.9367 L455.159,65.2467 M496.332,76.5987 C496.332,79.1067 496.882,81.1747 497.982,82.8027 C499.082,84.4307 500.6,85.2447 502.536,85.2447 C505.572,85.2447 507.508,83.7487 508.344,80.7567 L514.416,81.7467 C512.436,87.1587 508.476,89.8647 502.536,89.8647 C498.576,89.8647 495.419,88.5997 493.065,86.0697 C490.711,83.5397 489.534,80.2507 489.534,76.2027 C489.534,71.9347 490.667,68.5137 492.933,65.9397 C495.199,63.3657 498.279,62.0787 502.173,62.0787 C506.067,62.0787 509.103,63.2997 511.281,65.7417 C513.459,68.1837 514.548,71.5167 514.548,75.7407 L514.548,76.5987 L496.332,76.5987 M508.608,73.0347 C508.608,71.2307 508.047,69.6467 506.925,68.2827 C505.803,66.9187 504.351,66.2367 502.569,66.2367 C500.787,66.2367 499.335,66.9517 498.213,68.3817 C497.091,69.8117 496.53,71.3627 496.53,73.0347 L508.608,73.0347 Z" style="stroke:none;fill-rule:nonzero;fill:#000000;fill-opacity:1;"/>
        </g>
    </g>
</svg>
