<?xml version="1.0"?>
<svg version="1.1" xmlns="http://www.w3.org/2000/svg" xmlns:xlink="http://www.w3.org/1999/xlink" width="600" height="160">
    <desc iVinci="yes" version="4.6" gridStep="20" showGrid="no" snapToGrid="no" codePlatform="0"/>
    <g id="Layer1" name="gmail" opacity="1">
        <g id="Shape1">
            <desc shapeID="1" type="0" basicInfo-basicType="0" basicInfo-roundedRectRadius="12" basicInfo-polygonSides="6" basicInfo-starPoints="5" bounding="rect(-178.415,-10.92,356.83,21.84)" text="Service in preparation" font-familyName="Cinzel" font-pixelSize="30" font-bold="0" font-underline="0" font-alignment="1" strokeStyle="0" markerStart="0" markerEnd="0" shadowEnabled="0" shadowOffsetX="0" shadowOffsetY="2" shadowBlur="4" shadowOpacity="160" blurEnabled="0" blurRadius="4" transform="matrix(1,0,0,1,300.522,77.5029)" pers-center="0,0" pers-size="0,0" pers-start="0,0" pers-end="0,0" locked="0" mesh="" flag=""/>
            <path id="shapePath1" d="M122.197,86.7729 C122.137,86.4929 122.107,85.9529 122.107,85.1529 C122.107,84.3529 122.257,83.5029 122.557,82.6029 L122.827,82.6029 C122.807,82.8229 122.797,83.0429 122.797,83.2629 C122.797,84.4829 123.167,85.4979 123.907,86.3079 C124.647,87.1179 125.627,87.5229 126.847,87.5229 C128.107,87.5229 129.142,87.1429 129.952,86.3829 C130.762,85.6229 131.167,84.6679 131.167,83.5179 C131.167,82.3679 130.777,81.4329 129.997,80.7129 L124.237,75.3729 C123.157,74.3729 122.617,73.1629 122.617,71.7429 C122.617,70.3229 123.092,69.1079 124.042,68.0979 C124.992,67.0879 126.277,66.5829 127.897,66.5829 C128.657,66.5829 129.517,66.6829 130.477,66.8829 L131.647,66.8829 L131.647,70.5729 L131.377,70.5729 C131.377,69.6329 131.052,68.8829 130.402,68.3229 C129.752,67.7629 128.917,67.4829 127.897,67.4829 C126.877,67.4829 126.022,67.8229 125.332,68.5029 C124.642,69.1829 124.297,70.0329 124.297,71.0529 C124.297,72.0729 124.697,72.9529 125.497,73.6929 L131.407,79.1529 C132.407,80.0729 132.907,81.3329 132.907,82.9329 C132.907,84.5329 132.397,85.8479 131.377,86.8779 C130.357,87.9079 128.997,88.4229 127.297,88.4229 C126.417,88.4229 125.482,88.2879 124.492,88.0179 C123.502,87.7479 122.737,87.3329 122.197,86.7729 M136.687,87.7029 C137.167,87.7029 137.572,87.5479 137.902,87.2379 C138.232,86.9279 138.407,86.5529 138.427,86.1129 L138.427,71.8629 C138.427,71.4229 138.257,71.0529 137.917,70.7529 C137.577,70.4529 137.167,70.3029 136.687,70.3029 L136.267,70.3029 L136.267,70.0029 L145.027,70.0029 C145.847,70.0029 146.567,69.9429 147.187,69.8229 C147.807,69.7029 148.207,69.6029 148.387,69.5229 L148.387,72.9429 L148.057,72.9129 L148.057,72.4629 C148.057,72.0429 147.917,71.6829 147.637,71.3829 C147.357,71.0829 146.997,70.9329 146.557,70.9329 L140.317,70.9329 L140.317,78.5529 L145.447,78.5529 C145.847,78.5529 146.152,78.4329 146.362,78.1929 C146.572,77.9529 146.677,77.6529 146.677,77.2929 L146.677,76.9029 L147.007,76.9029 L147.007,81.1029 L146.677,81.1029 L146.677,80.7129 C146.677,80.1529 146.467,79.7729 146.047,79.5729 C145.887,79.5129 145.717,79.4729 145.537,79.4529 L140.317,79.4529 L140.317,87.0729 L145.027,87.0729 C145.947,87.0729 146.722,86.9129 147.352,86.5929 C147.982,86.2729 148.462,85.8929 148.792,85.4529 C149.122,85.0129 149.457,84.4329 149.797,83.7129 L150.097,83.7129 L148.447,88.0029 L136.267,88.0029 L136.267,87.7029 L136.687,87.7029 M157.956,70.9329 L156.366,70.9329 L156.366,86.0829 C156.386,86.7029 156.666,87.1729 157.206,87.4929 C157.466,87.6329 157.756,87.7029 158.076,87.7029 L158.466,87.7029 L158.496,88.0029 L152.346,88.0029 L152.346,87.7029 L152.766,87.7029 C153.226,87.7029 153.621,87.5479 153.951,87.2379 C154.281,86.9279 154.446,86.5529 154.446,86.1129 L154.446,71.8629 C154.446,71.4229 154.281,71.0529 153.951,70.7529 C153.621,70.4529 153.226,70.3029 152.766,70.3029 L152.346,70.3029 L152.346,70.0029 L159.876,70.0029 C161.756,70.0029 163.241,70.4329 164.331,71.2929 C165.421,72.1529 165.966,73.2829 165.966,74.6829 C165.966,76.0829 165.526,77.2529 164.646,78.1929 C163.766,79.1329 162.646,79.6729 161.286,79.8129 C161.926,80.0929 162.696,80.8729 163.596,82.1529 C163.576,82.1529 163.921,82.5929 164.631,83.4729 C165.341,84.3529 165.911,85.0379 166.341,85.5279 C166.771,86.0179 167.126,86.3929 167.406,86.6529 C168.146,87.3529 168.996,87.7029 169.956,87.7029 L169.956,88.0029 L169.026,88.0029 C167.446,88.0029 166.206,87.6929 165.306,87.0729 C164.626,86.6129 164.006,86.0429 163.446,85.3629 C163.326,85.2029 162.821,84.4979 161.931,83.2479 C161.041,81.9979 160.566,81.3329 160.506,81.2529 C159.426,79.9129 158.416,79.2429 157.476,79.2429 L157.476,78.9429 C159.816,78.9429 161.226,78.8229 161.706,78.5829 C162.366,78.2429 162.816,77.8829 163.056,77.5029 C163.556,76.7029 163.806,75.8229 163.806,74.8629 C163.806,73.6429 163.446,72.7029 162.726,72.0429 C162.006,71.3829 161.036,71.0229 159.816,70.9629 C159.276,70.9429 158.656,70.9329 157.956,70.9329 M188.375,70.3029 L188.135,70.3029 C187.695,70.3029 187.265,70.4479 186.845,70.7379 C186.425,71.0279 186.065,71.4629 185.765,72.0429 C181.405,81.4029 179.135,86.3029 178.955,86.7429 C178.615,87.5829 178.435,88.1429 178.415,88.4229 L178.145,88.4229 L170.735,72.0729 C170.155,70.8929 169.385,70.3029 168.425,70.3029 L168.185,70.3029 L168.185,70.0029 L174.335,70.0029 L174.335,70.3029 L174.095,70.3029 C173.715,70.3029 173.43,70.4379 173.24,70.7079 C173.05,70.9779 172.955,71.2229 172.955,71.4429 C172.955,71.6629 172.985,71.8929 173.045,72.1329 L178.415,85.2129 L183.935,72.1929 C184.035,71.9329 184.085,71.6879 184.085,71.4579 C184.085,71.2279 183.985,70.9779 183.785,70.7079 C183.585,70.4379 183.285,70.3029 182.885,70.3029 L182.675,70.3029 L182.675,70.0029 L188.375,70.0029 L188.375,70.3029 M190.25,87.7029 C190.79,87.7029 191.26,87.5429 191.66,87.2229 C192.06,86.9029 192.26,86.5229 192.26,86.0829 L192.26,71.9229 C192.26,71.4829 192.06,71.1029 191.66,70.7829 C191.26,70.4629 190.78,70.3029 190.22,70.3029 L189.83,70.3029 L189.83,70.0029 L196.61,70.0029 L196.61,70.3029 L196.22,70.3029 C195.68,70.3029 195.215,70.4529 194.825,70.7529 C194.435,71.0529 194.22,71.4229 194.18,71.8629 L194.18,86.1129 C194.2,86.5529 194.41,86.9279 194.81,87.2379 C195.21,87.5479 195.68,87.7029 196.22,87.7029 L196.61,87.7029 L196.64,88.0029 L189.83,88.0029 L189.83,87.7029 L190.25,87.7029 M209.205,88.4229 C206.145,88.4029 203.73,87.5529 201.96,85.8729 C200.19,84.1929 199.305,81.8979 199.305,78.9879 C199.305,76.0779 200.19,73.7829 201.96,72.1029 C203.73,70.4229 206.145,69.5829 209.205,69.5829 C210.445,69.5829 211.695,69.7429 212.955,70.0629 C214.215,70.3829 215.305,70.8229 216.225,71.3829 L216.885,75.6429 L216.615,75.6429 C215.755,72.2029 213.275,70.4829 209.175,70.4829 C206.795,70.4829 204.915,71.2429 203.535,72.7629 C202.155,74.2829 201.465,76.3629 201.465,79.0029 C201.465,80.7229 201.775,82.2179 202.395,83.4879 C203.015,84.7579 203.915,85.7429 205.095,86.4429 C206.275,87.1429 207.645,87.4929 209.205,87.4929 C210.765,87.4929 212.13,87.2579 213.3,86.7879 C214.47,86.3179 215.44,85.5429 216.21,84.4629 C216.98,83.3829 217.415,82.0429 217.515,80.4429 L217.785,80.4429 L217.455,84.5529 C216.675,85.7529 215.545,86.6979 214.065,87.3879 C212.585,88.0779 210.965,88.4229 209.205,88.4229 M221.016,87.7029 C221.496,87.7029 221.901,87.5479 222.231,87.2379 C222.561,86.9279 222.736,86.5529 222.756,86.1129 L222.756,71.8629 C222.756,71.4229 222.586,71.0529 222.246,70.7529 C221.906,70.4529 221.496,70.3029 221.016,70.3029 L220.596,70.3029 L220.596,70.0029 L229.356,70.0029 C230.176,70.0029 230.896,69.9429 231.516,69.8229 C232.136,69.7029 232.536,69.6029 232.716,69.5229 L232.716,72.9429 L232.386,72.9129 L232.386,72.4629 C232.386,72.0429 232.246,71.6829 231.966,71.3829 C231.686,71.0829 231.326,70.9329 230.886,70.9329 L224.646,70.9329 L224.646,78.5529 L229.776,78.5529 C230.176,78.5529 230.481,78.4329 230.691,78.1929 C230.901,77.9529 231.006,77.6529 231.006,77.2929 L231.006,76.9029 L231.336,76.9029 L231.336,81.1029 L231.006,81.1029 L231.006,80.7129 C231.006,80.1529 230.796,79.7729 230.376,79.5729 C230.216,79.5129 230.046,79.4729 229.866,79.4529 L224.646,79.4529 L224.646,87.0729 L229.356,87.0729 C230.276,87.0729 231.051,86.9129 231.681,86.5929 C232.311,86.2729 232.791,85.8929 233.121,85.4529 C233.451,85.0129 233.786,84.4329 234.126,83.7129 L234.426,83.7129 L232.776,88.0029 L220.596,88.0029 L220.596,87.7029 L221.016,87.7029 M244.891,87.7029 C245.431,87.7029 245.901,87.5429 246.301,87.2229 C246.701,86.9029 246.901,86.5229 246.901,86.0829 L246.901,71.9229 C246.901,71.4829 246.701,71.1029 246.301,70.7829 C245.901,70.4629 245.421,70.3029 244.861,70.3029 L244.471,70.3029 L244.471,70.0029 L251.251,70.0029 L251.251,70.3029 L250.861,70.3029 C250.321,70.3029 249.856,70.4529 249.466,70.7529 C249.076,71.0529 248.861,71.4229 248.821,71.8629 L248.821,86.1129 C248.841,86.5529 249.051,86.9279 249.451,87.2379 C249.851,87.5479 250.321,87.7029 250.861,87.7029 L251.251,87.7029 L251.281,88.0029 L244.471,88.0029 L244.471,87.7029 L244.891,87.7029 M274.709,70.3029 C274.269,70.3029 273.889,70.4479 273.569,70.7379 C273.249,71.0279 273.079,71.3829 273.059,71.8029 L273.059,84.5829 C273.059,85.7429 273.129,86.8429 273.269,87.8829 L273.329,88.4229 L273.059,88.4229 L257.459,73.6329 L257.459,86.1429 C257.459,86.5829 257.619,86.9529 257.939,87.2529 C258.259,87.5529 258.649,87.7029 259.109,87.7029 L259.619,87.7029 L259.619,88.0029 L253.949,88.0029 L253.949,87.7029 L254.459,87.7029 C254.919,87.7029 255.309,87.5529 255.629,87.2529 C255.949,86.9529 256.109,86.5829 256.109,86.1429 L256.109,73.3029 C256.109,72.0829 256.039,70.9929 255.899,70.0329 L255.839,69.5529 L256.169,69.5829 L271.739,84.2529 L271.739,71.8029 C271.699,71.3829 271.519,71.0279 271.199,70.7379 C270.879,70.4479 270.499,70.3029 270.059,70.3029 L269.549,70.3029 L269.549,70.0029 L275.219,70.0029 L275.219,70.3029 L274.709,70.3029 M290.628,79.4829 C291.088,79.6029 291.508,79.6629 291.888,79.6629 C292.268,79.6629 292.578,79.6529 292.818,79.6329 C293.058,79.6129 293.398,79.5479 293.838,79.4379 C294.278,79.3279 294.678,79.1529 295.038,78.9129 C295.878,78.3929 296.498,77.5729 296.898,76.4529 C297.038,76.0529 297.108,75.5129 297.108,74.8329 C297.108,73.6129 296.688,72.6529 295.848,71.9529 C295.008,71.2529 293.848,70.9029 292.368,70.9029 L289.458,70.9029 L289.458,86.0829 C289.478,86.7229 289.768,87.1929 290.328,87.4929 C290.588,87.6329 290.878,87.7029 291.198,87.7029 L291.618,87.7029 L291.618,88.0029 L285.408,88.0029 L285.408,87.7029 L285.828,87.7029 C286.308,87.7029 286.713,87.5479 287.043,87.2379 C287.373,86.9279 287.548,86.5529 287.568,86.1129 L287.568,71.8929 C287.548,71.4329 287.373,71.0529 287.043,70.7529 C286.713,70.4529 286.308,70.3029 285.828,70.3029 L285.408,70.3029 L285.408,70.0029 L292.428,70.0029 C294.528,70.0029 296.193,70.4629 297.423,71.3829 C298.653,72.3029 299.268,73.5429 299.268,75.1029 C299.268,76.2229 299.008,77.2029 298.488,78.0429 C297.468,79.6829 295.888,80.5029 293.748,80.5029 C292.688,80.5029 291.648,80.2629 290.628,79.7829 L290.628,79.4829 M307.596,70.9329 L306.006,70.9329 L306.006,86.0829 C306.026,86.7029 306.306,87.1729 306.846,87.4929 C307.106,87.6329 307.396,87.7029 307.716,87.7029 L308.106,87.7029 L308.136,88.0029 L301.986,88.0029 L301.986,87.7029 L302.406,87.7029 C302.866,87.7029 303.261,87.5479 303.591,87.2379 C303.921,86.9279 304.086,86.5529 304.086,86.1129 L304.086,71.8629 C304.086,71.4229 303.921,71.0529 303.591,70.7529 C303.261,70.4529 302.866,70.3029 302.406,70.3029 L301.986,70.3029 L301.986,70.0029 L309.516,70.0029 C311.396,70.0029 312.881,70.4329 313.971,71.2929 C315.061,72.1529 315.606,73.2829 315.606,74.6829 C315.606,76.0829 315.166,77.2529 314.286,78.1929 C313.406,79.1329 312.286,79.6729 310.926,79.8129 C311.566,80.0929 312.336,80.8729 313.236,82.1529 C313.216,82.1529 313.561,82.5929 314.271,83.4729 C314.981,84.3529 315.551,85.0379 315.981,85.5279 C316.411,86.0179 316.766,86.3929 317.046,86.6529 C317.786,87.3529 318.636,87.7029 319.596,87.7029 L319.596,88.0029 L318.666,88.0029 C317.086,88.0029 315.846,87.6929 314.946,87.0729 C314.266,86.6129 313.646,86.0429 313.086,85.3629 C312.966,85.2029 312.461,84.4979 311.571,83.2479 C310.681,81.9979 310.206,81.3329 310.146,81.2529 C309.066,79.9129 308.056,79.2429 307.116,79.2429 L307.116,78.9429 C309.456,78.9429 310.866,78.8229 311.346,78.5829 C312.006,78.2429 312.456,77.8829 312.696,77.5029 C313.196,76.7029 313.446,75.8229 313.446,74.8629 C313.446,73.6429 313.086,72.7029 312.366,72.0429 C311.646,71.3829 310.676,71.0229 309.456,70.9629 C308.916,70.9429 308.296,70.9329 307.596,70.9329 M321.203,87.7029 C321.683,87.7029 322.088,87.5479 322.418,87.2379 C322.748,86.9279 322.923,86.5529 322.943,86.1129 L322.943,71.8629 C322.943,71.4229 322.773,71.0529 322.433,70.7529 C322.093,70.4529 321.683,70.3029 321.203,70.3029 L320.783,70.3029 L320.783,70.0029 L329.543,70.0029 C330.363,70.0029 331.083,69.9429 331.703,69.8229 C332.323,69.7029 332.723,69.6029 332.903,69.5229 L332.903,72.9429 L332.573,72.9129 L332.573,72.4629 C332.573,72.0429 332.433,71.6829 332.153,71.3829 C331.873,71.0829 331.513,70.9329 331.073,70.9329 L324.833,70.9329 L324.833,78.5529 L329.963,78.5529 C330.363,78.5529 330.668,78.4329 330.878,78.1929 C331.088,77.9529 331.193,77.6529 331.193,77.2929 L331.193,76.9029 L331.523,76.9029 L331.523,81.1029 L331.193,81.1029 L331.193,80.7129 C331.193,80.1529 330.983,79.7729 330.563,79.5729 C330.403,79.5129 330.233,79.4729 330.053,79.4529 L324.833,79.4529 L324.833,87.0729 L329.543,87.0729 C330.463,87.0729 331.238,86.9129 331.868,86.5929 C332.498,86.2729 332.978,85.8929 333.308,85.4529 C333.638,85.0129 333.973,84.4329 334.313,83.7129 L334.613,83.7129 L332.963,88.0029 L320.783,88.0029 L320.783,87.7029 L321.203,87.7029 M342.081,79.4829 C342.541,79.6029 342.961,79.6629 343.341,79.6629 C343.721,79.6629 344.031,79.6529 344.271,79.6329 C344.511,79.6129 344.851,79.5479 345.291,79.4379 C345.731,79.3279 346.131,79.1529 346.491,78.9129 C347.331,78.3929 347.951,77.5729 348.351,76.4529 C348.491,76.0529 348.561,75.5129 348.561,74.8329 C348.561,73.6129 348.141,72.6529 347.301,71.9529 C346.461,71.2529 345.301,70.9029 343.821,70.9029 L340.911,70.9029 L340.911,86.0829 C340.931,86.7229 341.221,87.1929 341.781,87.4929 C342.041,87.6329 342.331,87.7029 342.651,87.7029 L343.071,87.7029 L343.071,88.0029 L336.861,88.0029 L336.861,87.7029 L337.281,87.7029 C337.761,87.7029 338.166,87.5479 338.496,87.2379 C338.826,86.9279 339.001,86.5529 339.021,86.1129 L339.021,71.8929 C339.001,71.4329 338.826,71.0529 338.496,70.7529 C338.166,70.4529 337.761,70.3029 337.281,70.3029 L336.861,70.3029 L336.861,70.0029 L343.881,70.0029 C345.981,70.0029 347.646,70.4629 348.876,71.3829 C350.106,72.3029 350.721,73.5429 350.721,75.1029 C350.721,76.2229 350.461,77.2029 349.941,78.0429 C348.921,79.6829 347.341,80.5029 345.201,80.5029 C344.141,80.5029 343.101,80.2629 342.081,79.7829 L342.081,79.4829 M369.949,87.7029 L370.189,87.7029 L370.189,88.0029 L364.039,88.0029 L364.039,87.7029 L364.279,87.7029 C364.659,87.7029 364.949,87.5729 365.149,87.3129 C365.349,87.0529 365.449,86.8079 365.449,86.5779 C365.449,86.3479 365.409,86.1229 365.329,85.9029 L363.679,81.9129 L356.089,81.9129 L354.439,85.8129 C354.339,86.0729 354.289,86.3179 354.289,86.5479 C354.289,86.7779 354.389,87.0279 354.589,87.2979 C354.789,87.5679 355.089,87.7029 355.489,87.7029 L355.729,87.7029 L355.729,88.0029 L349.999,88.0029 L349.999,87.7029 L350.239,87.7029 C350.659,87.7029 351.084,87.5579 351.514,87.2679 C351.944,86.9779 352.299,86.5429 352.579,85.9629 C356.959,76.6029 359.239,71.7029 359.419,71.2629 C359.759,70.4229 359.939,69.8629 359.959,69.5829 L360.229,69.5829 L367.639,85.9629 C368.219,87.1229 368.989,87.7029 369.949,87.7029 M356.479,81.0129 L363.319,81.0129 L359.959,72.7929 L356.479,81.0129 M377.284,70.9329 L375.694,70.9329 L375.694,86.0829 C375.714,86.7029 375.994,87.1729 376.534,87.4929 C376.794,87.6329 377.084,87.7029 377.404,87.7029 L377.794,87.7029 L377.824,88.0029 L371.674,88.0029 L371.674,87.7029 L372.094,87.7029 C372.554,87.7029 372.949,87.5479 373.279,87.2379 C373.609,86.9279 373.774,86.5529 373.774,86.1129 L373.774,71.8629 C373.774,71.4229 373.609,71.0529 373.279,70.7529 C372.949,70.4529 372.554,70.3029 372.094,70.3029 L371.674,70.3029 L371.674,70.0029 L379.204,70.0029 C381.084,70.0029 382.569,70.4329 383.659,71.2929 C384.749,72.1529 385.294,73.2829 385.294,74.6829 C385.294,76.0829 384.854,77.2529 383.974,78.1929 C383.094,79.1329 381.974,79.6729 380.614,79.8129 C381.254,80.0929 382.024,80.8729 382.924,82.1529 C382.904,82.1529 383.249,82.5929 383.959,83.4729 C384.669,84.3529 385.239,85.0379 385.669,85.5279 C386.099,86.0179 386.454,86.3929 386.734,86.6529 C387.474,87.3529 388.324,87.7029 389.284,87.7029 L389.284,88.0029 L388.354,88.0029 C386.774,88.0029 385.534,87.6929 384.634,87.0729 C383.954,86.6129 383.334,86.0429 382.774,85.3629 C382.654,85.2029 382.149,84.4979 381.259,83.2479 C380.369,81.9979 379.894,81.3329 379.834,81.2529 C378.754,79.9129 377.744,79.2429 376.804,79.2429 L376.804,78.9429 C379.144,78.9429 380.554,78.8229 381.034,78.5829 C381.694,78.2429 382.144,77.8829 382.384,77.5029 C382.884,76.7029 383.134,75.8229 383.134,74.8629 C383.134,73.6429 382.774,72.7029 382.054,72.0429 C381.334,71.3829 380.364,71.0229 379.144,70.9629 C378.604,70.9429 377.984,70.9329 377.284,70.9329 M408.621,87.7029 L408.861,87.7029 L408.861,88.0029 L402.711,88.0029 L402.711,87.7029 L402.951,87.7029 C403.331,87.7029 403.621,87.5729 403.821,87.3129 C404.021,87.0529 404.121,86.8079 404.121,86.5779 C404.121,86.3479 404.081,86.1229 404.001,85.9029 L402.351,81.9129 L394.761,81.9129 L393.111,85.8129 C393.011,86.0729 392.961,86.3179 392.961,86.5479 C392.961,86.7779 393.061,87.0279 393.261,87.2979 C393.461,87.5679 393.761,87.7029 394.161,87.7029 L394.401,87.7029 L394.401,88.0029 L388.671,88.0029 L388.671,87.7029 L388.911,87.7029 C389.331,87.7029 389.756,87.5579 390.186,87.2679 C390.616,86.9779 390.971,86.5429 391.251,85.9629 C395.631,76.6029 397.911,71.7029 398.091,71.2629 C398.431,70.4229 398.611,69.8629 398.631,69.5829 L398.901,69.5829 L406.311,85.9629 C406.891,87.1229 407.661,87.7029 408.621,87.7029 M395.151,81.0129 L401.991,81.0129 L398.631,72.7929 L395.151,81.0129 M416.262,70.8729 L416.262,86.1129 C416.282,86.7329 416.582,87.1929 417.162,87.4929 C417.422,87.6329 417.712,87.7029 418.032,87.7029 L418.362,87.7029 L418.362,88.0029 L412.182,88.0029 L412.182,87.7029 L412.542,87.7029 C413.022,87.7029 413.432,87.5429 413.772,87.2229 C414.112,86.9029 414.292,86.5229 414.312,86.0829 L414.312,70.8729 L408.882,70.8729 C408.422,70.8729 408.057,71.0229 407.787,71.3229 C407.517,71.6229 407.382,71.9829 407.382,72.4029 L407.382,72.8829 L407.052,72.8829 L407.052,69.4929 C407.452,69.6529 408.017,69.7729 408.747,69.8529 C409.477,69.9329 410.022,69.9729 410.382,69.9729 L420.162,69.9729 C421.602,69.9729 422.722,69.8129 423.522,69.4929 L423.522,72.8829 L423.192,72.8829 L423.192,72.4029 C423.192,71.9829 423.052,71.6229 422.772,71.3229 C422.492,71.0229 422.132,70.8729 421.692,70.8729 L416.262,70.8729 M426,87.7029 C426.54,87.7029 427.01,87.5429 427.41,87.2229 C427.81,86.9029 428.01,86.5229 428.01,86.0829 L428.01,71.9229 C428.01,71.4829 427.81,71.1029 427.41,70.7829 C427.01,70.4629 426.53,70.3029 425.97,70.3029 L425.58,70.3029 L425.58,70.0029 L432.36,70.0029 L432.36,70.3029 L431.97,70.3029 C431.43,70.3029 430.965,70.4529 430.575,70.7529 C430.185,71.0529 429.97,71.4229 429.93,71.8629 L429.93,86.1129 C429.95,86.5529 430.16,86.9279 430.56,87.2379 C430.96,87.5479 431.43,87.7029 431.97,87.7029 L432.36,87.7029 L432.39,88.0029 L425.58,88.0029 L425.58,87.7029 L426,87.7029 M440.095,70.7829 C441.635,69.9829 443.33,69.5829 445.18,69.5829 C447.03,69.5829 448.725,69.9779 450.265,70.7679 C451.805,71.5579 453.03,72.6729 453.94,74.1129 C454.85,75.5529 455.305,77.1829 455.305,79.0029 C455.305,80.8229 454.85,82.4529 453.94,83.8929 C453.03,85.3329 451.805,86.4479 450.265,87.2379 C448.725,88.0279 447.145,88.4229 445.525,88.4229 C443.905,88.4229 442.475,88.1929 441.235,87.7329 C439.995,87.2729 438.92,86.6329 438.01,85.8129 C437.1,84.9929 436.38,83.9929 435.85,82.8129 C435.32,81.6329 435.055,80.2479 435.055,78.6579 C435.055,77.0679 435.51,75.5529 436.42,74.1129 C437.33,72.6729 438.555,71.5629 440.095,70.7829 M439.525,85.1529 C441.045,86.7329 442.925,87.5229 445.165,87.5229 C447.405,87.5229 449.285,86.7279 450.805,85.1379 C452.325,83.5479 453.085,81.5029 453.085,79.0029 C453.085,76.5029 452.325,74.4579 450.805,72.8679 C449.285,71.2779 447.405,70.4829 445.165,70.4829 C442.925,70.4829 441.05,71.2779 439.54,72.8679 C438.03,74.4579 437.275,76.5029 437.275,79.0029 C437.275,81.5029 438.025,83.5529 439.525,85.1529 M478.427,70.3029 C477.987,70.3029 477.607,70.4479 477.287,70.7379 C476.967,71.0279 476.797,71.3829 476.777,71.8029 L476.777,84.5829 C476.777,85.7429 476.847,86.8429 476.987,87.8829 L477.047,88.4229 L476.777,88.4229 L461.177,73.6329 L461.177,86.1429 C461.177,86.5829 461.337,86.9529 461.657,87.2529 C461.977,87.5529 462.367,87.7029 462.827,87.7029 L463.337,87.7029 L463.337,88.0029 L457.667,88.0029 L457.667,87.7029 L458.177,87.7029 C458.637,87.7029 459.027,87.5529 459.347,87.2529 C459.667,86.9529 459.827,86.5829 459.827,86.1429 L459.827,73.3029 C459.827,72.0829 459.757,70.9929 459.617,70.0329 L459.557,69.5529 L459.887,69.5829 L475.457,84.2529 L475.457,71.8029 C475.417,71.3829 475.237,71.0279 474.917,70.7379 C474.597,70.4479 474.217,70.3029 473.777,70.3029 L473.267,70.3029 L473.267,70.0029 L478.937,70.0029 L478.937,70.3029 L478.427,70.3029 Z" style="stroke:none;fill-rule:nonzero;fill:#a8a8a8;fill-opacity:1;"/>
        </g>
    </g>
</svg>
