<?xml version="1.0"?>
<svg version="1.1" xmlns="http://www.w3.org/2000/svg" xmlns:xlink="http://www.w3.org/1999/xlink" width="100" height="100">
    <desc iVinci="yes" version="4.6" gridStep="20" showGrid="no" snapToGrid="no" codePlatform="0"/>
    <g id="Layer1" name="Layer 2" opacity="1">
        <g id="Shape1">
            <desc shapeID="1" type="0" basicInfo-basicType="0" basicInfo-roundedRectRadius="12" basicInfo-polygonSides="6" basicInfo-starPoints="5" bounding="rect(-0.0137634,-0.0137634,0.0275269,0.0275269)" text="" font-familyName="Helvetica" font-pixelSize="20" font-bold="0" font-underline="0" font-alignment="1" strokeStyle="0" markerStart="0" markerEnd="0" shadowEnabled="0" shadowOffsetX="0" shadowOffsetY="2" shadowBlur="4" shadowOpacity="160" blurEnabled="0" blurRadius="4" transform="matrix(1,0,0,1,29.7115,15.3151)" pers-center="0,0" pers-size="0,0" pers-start="0,0" pers-end="0,0" locked="0" mesh="" flag=""/>
            <path id="shapePath1" d="M29.6978,15.3289 C29.7597,15.2669 29.6978,15.3289 29.6978,15.3289 Z" style="stroke:none;fill-rule:evenodd;fill:#000000;fill-opacity:1;"/>
        </g>
        <g id="Shape2">
            <desc shapeID="2" type="0" basicInfo-basicType="0" basicInfo-roundedRectRadius="12" basicInfo-polygonSides="6" basicInfo-starPoints="5" bounding="rect(-0.0137634,-0.0137634,0.0275269,0.0275269)" text="" font-familyName="Helvetica" font-pixelSize="20" font-bold="0" font-underline="0" font-alignment="1" strokeStyle="0" markerStart="0" markerEnd="0" shadowEnabled="0" shadowOffsetX="0" shadowOffsetY="2" shadowBlur="4" shadowOpacity="160" blurEnabled="0" blurRadius="4" transform="matrix(1,0,0,1,29.278,15.6867)" pers-center="0,0" pers-size="0,0" pers-start="0,0" pers-end="0,0" locked="0" mesh="" flag=""/>
            <path id="shapePath2" d="M29.2642,15.7005 C29.3261,15.6385 29.2642,15.7005 29.2642,15.7005 Z" style="stroke:none;fill-rule:evenodd;fill:#000000;fill-opacity:1;"/>
        </g>
        <g id="Shape3">
            <desc shapeID="3" type="0" basicInfo-basicType="0" basicInfo-roundedRectRadius="12" basicInfo-polygonSides="6" basicInfo-starPoints="5" bounding="rect(-0.0550537,-0.013763,0.110107,0.0275264)" text="" font-familyName="Helvetica" font-pixelSize="20" font-bold="0" font-underline="0" font-alignment="1" strokeStyle="0" markerStart="0" markerEnd="0" shadowEnabled="0" shadowOffsetX="0" shadowOffsetY="2" shadowBlur="4" shadowOpacity="160" blurEnabled="0" blurRadius="4" transform="matrix(1,0,0,1,29.3812,15.9964)" pers-center="0,0" pers-size="0,0" pers-start="0,0" pers-end="0,0" locked="0" mesh="" flag=""/>
            <path id="shapePath3" d="M29.3261,16.0102 C29.5739,15.9482 29.3261,16.0102 29.3261,16.0102 Z" style="stroke:none;fill-rule:evenodd;fill:#000000;fill-opacity:1;"/>
        </g>
        <g id="Shape4">
            <desc shapeID="4" type="0" basicInfo-basicType="0" basicInfo-roundedRectRadius="12" basicInfo-polygonSides="6" basicInfo-starPoints="5" bounding="rect(-42.3951,-40.9347,84.7902,81.8693)" text="" font-familyName="Helvetica" font-pixelSize="20" font-bold="0" font-underline="0" font-alignment="1" strokeStyle="0" markerStart="0" markerEnd="0" shadowEnabled="0" shadowOffsetX="0" shadowOffsetY="2" shadowBlur="4" shadowOpacity="160" blurEnabled="0" blurRadius="4" transform="matrix(1,0,0,1,50.3295,44.372)" pers-center="0,0" pers-size="0,0" pers-start="0,0" pers-end="0,0" locked="0" mesh="" flag=""/>
            <path id="shapePath4" d="M29.8216,15.6385 C29.8216,15.6385 30.3552,12.7295 30.3552,12.7295 C30.3552,12.7295 28.3646,9.13118 29.2023,7.58702 C30.3872,5.40266 35.3958,3.43739 35.3958,3.43739 C35.3958,3.43739 43.0757,4.55221 43.0757,4.55221 C43.0757,4.55221 47.3492,9.13539 47.3492,9.13539 C47.3492,9.13539 49.393,9.56894 49.393,9.56894 C49.393,9.56894 51.6846,6.16252 51.6846,6.16252 C51.6846,6.16252 54.0382,5.79091 54.0382,5.79091 C54.0382,5.79091 55.7104,8.82571 55.7104,8.82571 C55.7104,8.82571 59.0549,6.90574 59.1168,6.90574 C59.1787,6.90574 62.2755,6.90574 62.2755,6.90574 C62.2755,6.90574 63.6381,9.32119 63.6381,9.32119 C63.6381,9.32119 63.7,11.3031 63.7,11.3031 C63.7,11.3031 67.2922,10.1883 67.2922,10.1883 C67.2922,10.1883 70.2031,11.3031 70.2031,11.3031 C70.2031,11.3031 70.389,15.0192 70.389,15.0192 C70.389,15.0192 72.247,15.5147 72.247,15.5147 C72.247,15.5147 79.9889,12.2941 79.9889,12.2941 C79.9889,12.2941 85.4945,13.1927 85.4945,13.1927 C85.4945,13.1927 90.4711,16.8548 90.4711,16.8548 C90.4711,16.8548 92.1613,22.0192 92.1613,22.0192 C92.1613,22.0192 91.2223,26.3385 91.2223,26.3385 C91.2223,26.3385 89.1565,27.8409 89.1565,27.8409 C89.1565,27.8409 91.9735,36.4795 91.9735,36.4795 C91.9735,36.4795 92.7247,46.245 92.7247,46.245 C92.7247,46.245 92.2552,55.7287 92.2552,55.7287 C92.2552,55.7287 88.3114,69.7196 88.3114,69.7196 C88.3114,69.7196 84.7433,76.5741 84.7433,76.5741 C84.7433,76.5741 70.4707,83.3348 70.4707,83.3348 C70.4707,83.3348 51.785,85.3067 51.785,85.3067 C51.785,85.3067 32.9114,81.7385 32.9114,81.7385 C32.9114,81.7385 14.6012,70.5646 14.6012,70.5646 C14.6012,70.5646 7.93441,55.3531 7.93441,55.3531 C7.93441,55.3531 8.8734,39.2026 8.8734,39.2026 C8.8734,39.2026 16.0097,26.1507 16.0097,26.1507 C16.0097,26.1507 29.8216,15.6385 29.8216,15.6385 Z" style="stroke:none;fill-rule:evenodd;fill:#ffe0c8;fill-opacity:1;"/>
        </g>
        <g id="Shape5">
            <desc shapeID="5" type="0" basicInfo-basicType="0" basicInfo-roundedRectRadius="12" basicInfo-polygonSides="6" basicInfo-starPoints="5" bounding="rect(0,-0.0142517,0,0.0285034)" text="" font-familyName="Helvetica" font-pixelSize="20" font-bold="0" font-underline="0" font-alignment="1" strokeStyle="0" markerStart="0" markerEnd="0" shadowEnabled="0" shadowOffsetX="0" shadowOffsetY="2" shadowBlur="4" shadowOpacity="160" blurEnabled="0" blurRadius="4" transform="matrix(1,0,0,1,48.7097,52.2869)" pers-center="0,0" pers-size="0,0" pers-start="0,0" pers-end="0,0" locked="0" mesh="" flag=""/>
            <path id="shapePath5" d="M48.7097,52.3012 C48.7097,52.237 48.7097,52.3012 48.7097,52.3012 Z" style="stroke:none;fill-rule:evenodd;fill:#ffe8e0;fill-opacity:1;"/>
        </g>
        <g id="Shape6">
            <desc shapeID="6" type="0" basicInfo-basicType="0" basicInfo-roundedRectRadius="12" basicInfo-polygonSides="6" basicInfo-starPoints="5" bounding="rect(0,0,0,0)" text="" font-familyName="Helvetica" font-pixelSize="20" font-bold="0" font-underline="0" font-alignment="1" strokeStyle="0" markerStart="0" markerEnd="0" shadowEnabled="0" shadowOffsetX="0" shadowOffsetY="2" shadowBlur="4" shadowOpacity="160" blurEnabled="0" blurRadius="4" transform="matrix(1,0,0,1,48.3672,52.3563)" pers-center="0,0" pers-size="0,0" pers-start="0,0" pers-end="0,0" locked="0" mesh="" flag=""/>
            <path id="shapePath6" d="M48.3672,52.3563 Z" style="stroke:none;fill-rule:evenodd;fill:#ff805f;fill-opacity:1;"/>
        </g>
        <g id="Shape7">
            <desc shapeID="7" type="0" basicInfo-basicType="0" basicInfo-roundedRectRadius="12" basicInfo-polygonSides="6" basicInfo-starPoints="5" bounding="rect(-9.30774,-6.12339,18.6155,12.2468)" text="" font-familyName="Helvetica" font-pixelSize="20" font-bold="0" font-underline="0" font-alignment="1" strokeStyle="0" markerStart="0" markerEnd="0" shadowEnabled="0" shadowOffsetX="0" shadowOffsetY="2" shadowBlur="4" shadowOpacity="160" blurEnabled="0" blurRadius="4" transform="matrix(1,0,0,1,51.8071,46.3824)" pers-center="0,0" pers-size="0,0" pers-start="0,0" pers-end="0,0" locked="0" mesh="" flag=""/>
            <path id="shapePath7" d="M49.2778,52.4863 C49.2778,52.4863 45.8945,52.2101 44.2462,51.1852 C42.6917,50.2185 42.8769,48.5427 42.5571,47.1965 C41.947,44.6288 46.3727,40.259 46.3727,40.259 C46.3727,40.259 50.9254,40.3024 50.9254,40.3024 C50.9254,40.3024 51.4024,45.9825 51.4024,45.9825 C51.4024,45.9825 56.6055,42.6438 56.6055,42.6438 C56.6055,42.6438 60.6379,44.9852 60.6379,44.9852 C60.6379,44.9852 61.1148,48.8875 61.1148,48.8875 C61.1148,48.8875 59.7757,51.1035 56.8841,51.8441 C53.6197,52.6803 49.2778,52.4863 49.2778,52.4863 Z" style="stroke:none;fill-rule:evenodd;fill:#ffaa9c;fill-opacity:1;"/>
        </g>
        <g id="Shape8">
            <desc shapeID="8" type="0" basicInfo-basicType="0" basicInfo-roundedRectRadius="12" basicInfo-polygonSides="6" basicInfo-starPoints="5" bounding="rect(0,0,0,0)" text="" font-familyName="Helvetica" font-pixelSize="20" font-bold="0" font-underline="0" font-alignment="1" strokeStyle="0" markerStart="0" markerEnd="0" shadowEnabled="0" shadowOffsetX="0" shadowOffsetY="2" shadowBlur="4" shadowOpacity="160" blurEnabled="0" blurRadius="4" transform="matrix(1,0,0,1,41.1765,58.3846)" pers-center="0,0" pers-size="0,0" pers-start="0,0" pers-end="0,0" locked="0" mesh="" flag=""/>
            <path id="shapePath8" d="M41.1765,58.3846 Z" style="stroke:none;fill-rule:evenodd;fill:#ffeedc;fill-opacity:1;"/>
        </g>
        <g id="Shape9">
            <desc shapeID="9" type="0" basicInfo-basicType="0" basicInfo-roundedRectRadius="12" basicInfo-polygonSides="6" basicInfo-starPoints="5" bounding="rect(-7.14235,-6.62744,14.2847,13.2549)" text="" font-familyName="Helvetica" font-pixelSize="20" font-bold="0" font-underline="0" font-alignment="1" strokeStyle="0" markerStart="0" markerEnd="0" shadowEnabled="0" shadowOffsetX="0" shadowOffsetY="2" shadowBlur="4" shadowOpacity="160" blurEnabled="0" blurRadius="4" transform="matrix(1,0,0,1,46.8239,64.8459)" pers-center="0,0" pers-size="0,0" pers-start="0,0" pers-end="0,0" locked="0" mesh="" flag=""/>
            <path id="shapePath9" d="M41.3094,58.2185 C41.3094,58.2185 51.8402,59.2815 51.8402,59.2815 C51.8402,59.2815 53.9663,67.9852 53.9663,67.9852 C53.9663,67.9852 51.6741,71.4734 51.6741,71.4734 C51.6741,71.4734 46.3256,70.9751 46.3256,70.9751 C46.3256,70.9751 41.0104,70.9086 41.0104,70.9086 C41.0104,70.9086 39.6816,68.2178 39.6816,68.2178 C39.6816,68.2178 41.3094,58.2185 41.3094,58.2185 Z" style="stroke:none;fill-rule:evenodd;fill:#fff7ef;fill-opacity:1;"/>
        </g>
        <g id="Shape10">
            <desc shapeID="10" type="0" basicInfo-basicType="0" basicInfo-roundedRectRadius="12" basicInfo-polygonSides="6" basicInfo-starPoints="5" bounding="rect(-38.5592,-19.7677,77.1183,39.5355)" text="" font-familyName="" font-pixelSize="20" font-bold="0" font-underline="0" font-alignment="1" strokeStyle="0" markerStart="0" markerEnd="0" shadowEnabled="0" shadowOffsetX="0" shadowOffsetY="2" shadowBlur="4" shadowOpacity="160" blurEnabled="0" blurRadius="4" transform="matrix(0.258881,0,0,0.258881,37.8286,8.18788)" pers-center="0,0" pers-size="0,0" pers-start="0,0" pers-end="0,0" locked="0" mesh="" flag=""/>
            <path id="shapePath10" d="M33.4821,3.49339 C32.1618,3.8558 31.5405,4.21827 30.1425,5.48676 C29.1846,6.34108 28.2527,7.40245 28.0715,7.86845 C27.2948,9.68062 28.641,12.839 30.3755,13.2532 C31.1262,13.4603 31.5146,13.0202 31.0745,12.4765 C30.9192,12.2694 30.8674,11.9588 30.9709,11.8034 C31.0745,11.6222 31.0486,11.5705 30.8674,11.674 C30.4273,11.9329 29.4694,10.3537 29.34,9.13701 C29.2106,8.07557 29.2623,7.99789 30.6862,6.62581 C32.4983,4.89132 32.8349,4.71012 35.1389,4.3218 C36.5369,4.06292 37.3394,4.06292 38.5043,4.27003 C39.3328,4.42532 40.3942,4.63244 40.8602,4.71012 C42.9571,5.07253 45.3129,6.83293 46.1672,8.72277 C46.7109,9.88773 47.4099,10.3537 47.7723,9.75829 C48.0312,9.31821 46.9439,7.29893 45.7271,6.05629 C44.3551,4.60659 42.8018,3.88171 40.0059,3.3898 C37.3912,2.92387 35.5272,2.97563 33.4821,3.49339 Z" style="stroke:none;fill-rule:nonzero;fill:#000000;fill-opacity:1;"/>
        </g>
        <g id="Shape11">
            <desc shapeID="11" type="0" basicInfo-basicType="0" basicInfo-roundedRectRadius="12" basicInfo-polygonSides="6" basicInfo-starPoints="5" bounding="rect(-167.998,-157.408,335.996,314.816)" text="" font-familyName="" font-pixelSize="20" font-bold="0" font-underline="0" font-alignment="1" strokeStyle="0" markerStart="0" markerEnd="0" shadowEnabled="0" shadowOffsetX="0" shadowOffsetY="2" shadowBlur="4" shadowOpacity="160" blurEnabled="0" blurRadius="4" transform="matrix(0.258881,0,0,0.258881,50,45.6147)" pers-center="0,0" pers-size="0,0" pers-start="0,0" pers-end="0,0" locked="0" mesh="" flag=""/>
            <path id="shapePath11" d="M52.9499,5.07252 C51.0342,5.71972 50.0763,6.4446 49.3773,7.81668 C48.8078,8.95573 48.7301,9.34405 48.9373,9.75829 C49.2221,10.302 49.6362,10.4055 50.2058,10.0431 C50.4388,9.88773 50.4646,9.75829 50.2576,9.65476 C49.8693,9.39588 49.8951,8.74868 50.3611,8.30853 C50.5682,8.10147 50.8271,7.79077 50.9306,7.60957 C51.0601,7.42836 51.6555,7.01413 52.2768,6.67763 L53.39,6.05628 L54.0114,6.80707 C54.3478,7.22124 54.6844,7.92021 54.788,8.38621 C55.0469,9.75829 55.487,9.91364 56.7555,9.03341 C59.1631,7.40245 61.1823,6.85883 62.0884,7.66133 C62.8133,8.28268 63.3828,10.1207 63.2275,11.3892 C63.1498,12.1917 63.2016,12.3471 63.5899,12.3471 C63.8747,12.3471 64.3407,12.0623 64.6513,11.7258 C65.3503,10.975 66.6706,10.6903 68.2498,10.9492 C69.2076,11.0786 69.4665,11.2598 69.6995,11.8034 C69.9584,12.5283 69.8289,14.0298 69.3371,15.376 C69.1559,15.842 69.104,16.2821 69.2076,16.3857 C69.596,16.774 71.3305,16.6963 72.2106,16.2303 C77.2847,13.5897 79.2004,12.9943 81.8928,13.2014 C85.4395,13.5121 89.9699,16.6704 90.8759,19.4922 C91.0572,20.0618 91.316,20.7607 91.4714,21.0714 C91.7044,21.5633 91.6785,22.0551 91.2902,24.3851 C91.2384,24.6698 91.1866,25.0063 91.1608,25.1617 C91.0831,25.6277 89.4262,27.3622 89.0638,27.3622 C88.08,27.3881 87.9506,27.8023 88.5978,28.6825 C88.9603,29.1743 89.4521,30.2099 89.711,30.9865 C89.944,31.7632 90.3323,32.7728 90.5394,33.2129 C90.7465,33.6788 91.0313,34.7144 91.1348,35.5428 C91.2384,36.3971 91.5232,38.4164 91.782,40.0473 C92.2739,43.6458 92.2998,43.6976 92.0668,49.2376 C91.808,56.072 91.6526,57.6512 91.1348,59.334 C90.8759,60.1883 90.2805,62.0263 89.8663,63.3984 C89.4262,64.7705 88.9343,66.5049 88.779,67.2816 C88.5978,68.0324 88.0542,69.5338 87.5364,70.5953 C85.077,75.5917 83.1354,77.611 79.0451,79.3972 C77.5177,80.0703 75.2654,81.0799 74.0487,81.6495 C71.9259,82.6332 67.7838,83.8759 65.6351,84.1606 C55.8494,85.455 47.5134,85.2738 41.9475,83.6428 C41.1708,83.4099 38.7374,82.7886 36.5369,82.219 C33.3785,81.4424 32.1618,81.0023 30.712,80.1479 C29.7024,79.5526 27.6573,78.3876 26.1558,77.611 C24.6542,76.8084 22.8162,75.7211 22.0913,75.1775 C21.3406,74.6597 20.6157,74.2196 20.4863,74.2196 C20.3309,74.2196 20.1238,74.0643 20.0203,73.8572 C19.9167,73.6759 19.4507,73.3394 19.0106,73.1064 C16.836,71.9932 12.4351,66.9969 11.7879,64.8999 C11.6843,64.5375 11.1407,63.3725 10.6229,62.3111 C9.69094,60.4989 8.99194,58.2467 8.11177,54.2858 C7.74934,52.6807 7.77522,49.2117 8.13766,47.4772 C8.2153,47.0889 8.37066,46.4676 8.4483,46.0534 C8.55186,45.665 8.88842,43.9046 9.19906,42.1184 C9.71682,39.2707 10.6747,36.2936 11.1924,35.9052 C11.6067,35.5687 13.7295,31.1677 13.7295,30.5982 C13.7295,30.2616 13.8589,29.8992 13.9884,29.8215 C14.1437,29.7439 14.2472,29.4591 14.2472,29.2261 C14.2731,28.9931 15.2051,28.0353 16.37,27.1033 C17.535,26.1713 20.0203,23.8673 21.936,21.9774 C23.8258,20.1135 25.5086,18.5602 25.6639,18.5602 C25.8192,18.5602 26.4664,18.1719 27.1136,17.7059 C27.7608,17.2658 28.7187,16.6445 29.2364,16.3597 C29.7283,16.075 30.1943,15.6349 30.2461,15.376 C30.4014,14.5476 29.2106,14.8841 27.269,16.2303 C26.2334,16.9293 25.3273,17.5247 25.2497,17.5247 C25.172,17.5247 24.9131,17.7059 24.6801,17.913 C24.4213,18.146 23.5669,18.8191 22.7903,19.4404 C21.9878,20.0618 21.0558,20.9937 20.7193,21.5114 C20.3568,22.0292 18.7,23.5825 17.0432,24.9287 C13.9884,27.4139 13.2894,28.2424 12.694,30.1063 C12.5127,30.65 11.5549,32.6433 10.5711,34.5332 C8.52598,38.4423 8.42242,38.7529 7.90466,42.1184 C7.69754,43.4646 7.28334,45.6133 6.99857,46.9077 C6.37725,49.7554 6.35137,51.697 6.89502,54.7 C7.12801,55.9685 7.33513,57.237 7.36102,57.5218 C7.38689,57.8066 7.54222,58.2984 7.72345,58.6091 C7.87878,58.9197 8.0341,59.4116 8.0341,59.6705 C8.0341,59.9552 8.4483,60.9908 8.94018,61.9487 C9.94982,63.9679 11.6584,67.6699 11.6584,67.8511 C11.6584,68.2913 16.9655,73.7018 17.4056,73.7018 C17.535,73.7018 17.8457,73.9348 18.0787,74.1937 C18.3376,74.4785 18.8812,74.9186 19.3213,75.1775 C19.7873,75.4363 20.9523,76.1871 21.9101,76.8602 C22.8939,77.5074 24.5248,78.4394 25.5086,78.9312 C26.5182,79.4231 28.2009,80.3551 29.3141,81.0282 C31.2557,82.1931 33.9739,83.1251 37.4171,83.7982 C38.2714,83.9794 39.1775,84.2124 39.4364,84.3677 C40.0059,84.6525 44.0444,85.5586 46.7368,85.9987 C49.3256,86.4129 56.4966,86.4905 59.3443,86.154 C60.5351,85.9987 62.3214,85.8433 63.3051,85.7657 C65.3244,85.6104 67.9391,85.222 69.5183,84.8078 C71.2269,84.3419 75.3949,82.7368 76.3786,82.1414 C76.8705,81.8307 77.9837,81.3129 78.838,80.9764 C79.6923,80.6399 80.909,80.1221 81.5562,79.8373 C83.0319,79.1643 86.3973,75.7988 87.3034,74.0902 C89.4262,70.0257 89.8145,69.1714 90.0993,67.7993 C90.41,66.4791 91.3419,63.3207 92.3257,60.3177 C93.1024,57.9619 93.18,57.2888 93.3353,51.5675 C93.5942,42.7138 93.5683,42.3514 92.9729,38.7529 C92.8176,37.8209 92.6364,36.5524 92.5846,35.9052 C92.4033,34.1966 92.1444,33.0576 91.8856,33.0576 C91.7561,33.0576 91.6526,32.7728 91.6526,32.4363 C91.6526,32.0738 91.5491,31.7114 91.3937,31.6337 C91.2643,31.556 91.1348,31.1936 91.1348,30.8571 C91.1348,30.5205 91.0313,30.184 90.9019,30.1063 C90.7983,30.0287 90.6171,29.5886 90.5135,29.1484 C90.3841,28.4754 90.5135,28.1388 91.3419,27.1292 C92.481,25.7571 93.0247,23.7119 92.7916,21.5374 C92.6104,19.6993 92.2998,18.8968 91.1089,17.1364 C89.9958,15.5313 88.0023,14.0298 85.1288,12.6319 C83.9379,12.0623 83.4202,11.9588 81.2974,11.9847 C78.3202,11.9847 77.3106,12.2436 73.8157,13.9263 C72.3401,14.6253 71.0716,15.1948 71.0198,15.1948 C70.9421,15.1948 70.968,14.3405 71.0716,13.2791 C71.2269,11.5445 71.1751,11.2857 70.7092,10.8197 C69.8289,9.93949 67.5249,9.42173 65.9975,9.73237 C65.2985,9.88773 64.6513,10.0172 64.5995,10.0172 C64.5219,10.0172 64.4701,9.70652 64.4701,9.34405 C64.4701,7.86845 62.8133,6.13396 61.4153,6.13396 C59.6291,6.13396 56.4448,7.32483 56.4448,7.97203 C56.4448,8.10147 56.3413,8.205 56.2377,8.205 C56.0047,8.205 55.1504,6.39284 55.1504,5.92684 C55.1504,5.59028 54.1149,4.83955 53.7266,4.86547 C53.5971,4.89132 53.2347,4.96899 52.9499,5.07252 Z" style="stroke:none;fill-rule:nonzero;fill:#000000;fill-opacity:1;"/>
        </g>
        <g id="Shape12">
            <desc shapeID="12" type="0" basicInfo-basicType="0" basicInfo-roundedRectRadius="12" basicInfo-polygonSides="6" basicInfo-starPoints="5" bounding="rect(-4.09594,-4.80873,8.19188,9.6175)" text="" font-familyName="" font-pixelSize="20" font-bold="0" font-underline="0" font-alignment="1" strokeStyle="0" markerStart="0" markerEnd="0" shadowEnabled="0" shadowOffsetX="0" shadowOffsetY="2" shadowBlur="4" shadowOpacity="160" blurEnabled="0" blurRadius="4" transform="matrix(0.258881,0,0,0.258881,46.2702,28.8973)" pers-center="0,0" pers-size="0,0" pers-start="0,0" pers-end="0,0" locked="0" mesh="" flag=""/>
            <path id="shapePath12" d="M45.4424,28.32 C45.0541,29.6662 45.1317,30.0804 45.8307,30.1322 C46.1931,30.184 46.7109,30.0287 46.9698,29.8216 C47.6946,29.252 47.2545,27.7764 46.2967,27.6728 C45.753,27.5952 45.5977,27.7246 45.4424,28.32 Z" style="stroke:none;fill-rule:nonzero;fill:#000000;fill-opacity:1;"/>
        </g>
        <g id="Shape13">
            <desc shapeID="13" type="0" basicInfo-basicType="0" basicInfo-roundedRectRadius="12" basicInfo-polygonSides="6" basicInfo-starPoints="5" bounding="rect(-3.98116,-4.28174,7.96238,8.5635)" text="" font-familyName="" font-pixelSize="20" font-bold="0" font-underline="0" font-alignment="1" strokeStyle="0" markerStart="0" markerEnd="0" shadowEnabled="0" shadowOffsetX="0" shadowOffsetY="2" shadowBlur="4" shadowOpacity="160" blurEnabled="0" blurRadius="4" transform="matrix(0.258881,0,0,0.258881,62.6168,33.4338)" pers-center="0,0" pers-size="0,0" pers-start="0,0" pers-end="0,0" locked="0" mesh="" flag=""/>
            <path id="shapePath13" d="M61.9331,32.721 C61.493,33.5494 61.4671,34.4555 61.8813,34.5332 C62.425,34.6626 63.7452,33.3682 63.6417,32.8505 C63.5123,32.2292 62.2437,32.1256 61.9331,32.721 Z" style="stroke:none;fill-rule:nonzero;fill:#000000;fill-opacity:1;"/>
        </g>
        <g id="Shape14">
            <desc shapeID="14" type="0" basicInfo-basicType="0" basicInfo-roundedRectRadius="12" basicInfo-polygonSides="6" basicInfo-starPoints="5" bounding="rect(-43.8343,-62.8565,87.6688,125.713)" text="" font-familyName="" font-pixelSize="20" font-bold="0" font-underline="0" font-alignment="1" strokeStyle="0" markerStart="0" markerEnd="0" shadowEnabled="0" shadowOffsetX="0" shadowOffsetY="2" shadowBlur="4" shadowOpacity="160" blurEnabled="0" blurRadius="4" transform="matrix(0.258881,0,0,0.258881,50.4998,55.82)" pers-center="0,0" pers-size="0,0" pers-start="0,0" pers-end="0,0" locked="0" mesh="" flag=""/>
            <path id="shapePath14" d="M45.9601,39.892 C44.2256,40.6428 42.1287,44.0341 42.1028,46.1828 C42.0769,46.9077 41.9992,47.5808 41.8957,47.6843 C41.7922,47.7879 41.8957,48.1503 42.1028,48.4869 C42.3358,48.8234 42.4394,49.2117 42.3358,49.3671 C42.1028,49.7295 43.4231,51.3863 44.3033,51.8523 C45.054,52.2407 46.4002,52.3442 46.685,52.0335 C46.9957,51.7487 46.2967,51.1792 45.5977,51.1792 C44.7434,51.1533 44.0185,50.532 43.4749,49.3671 C42.9312,48.1503 43.1124,45.1214 43.7855,44.1377 C44.0703,43.7752 44.2774,43.3869 44.2774,43.3093 C44.2774,42.6879 46.2708,40.9017 47.151,40.7205 C48.1865,40.5134 49.8951,40.7981 50.2576,41.2382 C50.4388,41.4453 50.5165,42.5585 50.4388,44.3189 C50.387,46.4158 50.4388,47.063 50.6977,47.1666 C50.9048,47.2442 51.7073,46.6488 52.5616,45.7686 C54.8656,43.4128 56.2377,42.895 57.9204,43.7494 C59.2666,44.4483 60.5869,46.5453 60.5869,47.9432 C60.5869,48.6939 59.1113,50.532 58.257,50.8944 C56.4448,51.6193 51.7073,51.9818 49.1444,51.5675 C48.1347,51.4122 47.8759,51.464 47.7464,51.8005 C47.6687,52.0335 47.4357,52.2147 47.2545,52.2147 C46.7885,52.2147 46.3226,54.234 46.1931,56.8487 C46.1413,58.0396 46.0378,59.0751 45.986,59.1269 C45.8048,59.3081 43.449,58.4279 42.6982,57.9101 C42.3099,57.6253 41.8698,57.3924 41.7145,57.3924 C41.1967,57.3924 41.4038,58.6091 42.0252,58.9974 C42.8277,59.5411 45.054,60.2401 46.6073,60.473 C46.685,60.4989 46.7627,60.7578 46.7627,61.0685 C46.8921,63.3466 47.1251,65.2623 47.384,66.039 C47.7464,67.1522 47.4099,68.4466 46.4261,69.741 C45.8048,70.5953 45.7789,70.5953 43.682,70.5953 C41.9992,70.5953 41.4297,70.4918 40.912,70.0775 C40.2648,69.5857 40.2648,69.5338 40.2906,66.0131 C40.3424,63.0877 40.446,62.104 40.912,60.6801 C41.3003,59.4634 41.4038,58.8162 41.2226,58.635 C40.9378,58.3502 40.1094,59.1269 39.98,59.7741 C39.9282,59.9553 39.7729,60.5766 39.6434,61.1461 C39.2551,62.8029 39.0221,66.6344 39.2292,68.4725 C39.3846,69.9998 39.514,70.3105 40.3165,71.0354 C41.1967,71.8638 41.2485,71.8897 43.6043,71.8897 C45.4424,71.8897 46.1155,71.7862 46.3484,71.5014 C46.5556,71.2425 46.7885,71.1907 46.9698,71.346 C47.4357,71.7343 50.5941,72.2521 51.3707,72.045 C52.3804,71.7862 54.2961,69.9481 54.6326,68.8866 C54.9174,68.0842 54.8398,66.6862 54.4773,64.8999 C54.2443,63.8903 53.2347,60.9132 53.0534,60.7578 C52.9499,60.6801 52.7946,60.3695 52.7169,60.0329 C52.6134,59.7223 52.225,59.2563 51.8885,59.0233 C51.319,58.6609 51.0083,58.635 49.4291,58.9456 C48.4195,59.101 47.5393,59.1786 47.4357,59.0751 C47.2287,58.868 47.3063,55.8908 47.5911,54.1564 C47.7723,52.8879 47.7982,52.8619 48.6784,52.9137 C55.7717,53.2503 59.2148,52.4477 61.0529,50.0402 C61.9848,48.7975 62.0625,48.228 61.4671,46.2864 C61.027,44.8107 59.7067,43.128 58.4641,42.5067 C56.7554,41.6783 53.9337,42.3773 52.5098,44.0341 L51.7849,44.8366 L51.8367,43.2834 C51.8885,40.6169 51.8885,40.591 50.6977,40.0474 C49.4033,39.4519 47.1251,39.3742 45.9601,39.892 M51.9144,61.2756 C52.1474,61.9745 52.4581,62.6217 52.5875,62.7253 C52.7169,62.8029 52.7687,62.9842 52.6651,63.1137 C52.5875,63.2431 52.6393,63.502 52.7687,63.6832 C52.924,63.8644 53.1829,64.874 53.3641,65.9613 C53.7525,68.343 53.4936,69.2232 52.0956,70.2846 C51.1118,71.0354 49.5327,71.1648 48.1606,70.5953 L47.4617,70.3105 L48.0571,69.0938 C48.6784,67.8511 48.8596,65.9613 48.4195,65.5212 C48.2901,65.3918 48.1089,64.4081 48.0571,63.3207 C47.9794,62.2593 47.85,61.1979 47.7723,60.9649 C47.6429,60.6543 47.9276,60.5248 48.989,60.3177 C51.4484,59.8517 51.4484,59.8517 51.9144,61.2756 Z" style="stroke:none;fill-rule:nonzero;fill:#000000;fill-opacity:1;"/>
        </g>
        <g id="Shape15">
            <desc shapeID="15" type="0" basicInfo-basicType="0" basicInfo-roundedRectRadius="12" basicInfo-polygonSides="6" basicInfo-starPoints="5" bounding="rect(-18.0432,-3.17615,36.0863,6.35231)" text="mamma" font-familyName="godoMaum" font-pixelSize="20" font-bold="0" font-underline="0" font-alignment="1" strokeStyle="0" markerStart="0" markerEnd="0" shadowEnabled="0" shadowOffsetX="0" shadowOffsetY="2" shadowBlur="4" shadowOpacity="160" blurEnabled="0" blurRadius="4" transform="matrix(1.3933,0,0,1.3933,51.8071,91.9899)" pers-center="0,0" pers-size="0,0" pers-start="0,0" pers-end="0,0" locked="0" mesh="" flag=""/>
            <path id="shapePath15" d="M37.2089,92.0788 C37.246,92.246 37.2878,92.4643 37.3343,92.7337 C37.3807,93.003 37.4364,93.2863 37.5014,93.5836 C37.5665,93.8808 37.6361,94.1595 37.7104,94.4196 C37.7848,94.6796 37.8591,94.8747 37.9334,95.0048 C38.1006,95.2648 38.1702,95.497 38.1424,95.7014 C38.1145,95.9058 38.0263,96.0683 37.8776,96.1891 C37.729,96.3098 37.5432,96.3702 37.3203,96.3702 C37.0974,96.3702 36.8652,96.2866 36.6237,96.1194 C36.5308,96.0637 36.4286,95.9475 36.3171,95.7711 C36.2057,95.5946 36.1035,95.4042 36.0106,95.1998 C35.9177,94.9955 35.8295,94.7772 35.7459,94.545 C35.6623,94.3127 35.5926,94.113 35.5369,93.9458 C35.4997,93.8158 35.4672,93.644 35.4394,93.4303 C35.4115,93.2167 35.3836,92.9984 35.3558,92.7755 C35.3279,92.5525 35.2954,92.3389 35.2582,92.1346 C35.2211,91.9302 35.1654,91.763 35.091,91.633 C34.6823,92.0231 34.3433,92.5479 34.0739,93.2074 C33.8046,93.8669 33.6049,94.4939 33.4748,95.0883 C33.4377,95.2555 33.3401,95.4088 33.1822,95.5481 C33.0243,95.6875 32.8571,95.785 32.6806,95.8407 C32.5042,95.8965 32.3277,95.9011 32.1512,95.8547 C31.9747,95.8082 31.84,95.6828 31.7471,95.4785 C31.5985,95.1627 31.4824,94.8376 31.3988,94.5032 C31.3152,94.1688 31.227,93.8251 31.1341,93.4721 C31.0783,93.2863 31.0273,93.0216 30.9808,92.6779 C30.9344,92.3343 30.8647,92.0788 30.7718,91.9116 C30.7347,91.8187 30.6975,91.7537 30.6604,91.7166 C30.6232,91.6794 30.6046,91.6516 30.6046,91.633 C30.5117,91.6887 30.4281,91.8048 30.3538,91.9813 C30.2795,92.1578 30.2099,92.3436 30.1448,92.5386 C30.0798,92.7337 30.0241,92.9241 29.9776,93.1099 C29.9312,93.2956 29.8987,93.4257 29.8801,93.5 C29.7872,93.8158 29.685,94.1502 29.5736,94.5032 C29.4621,94.8561 29.3321,95.1905 29.1835,95.5063 C29.072,95.7107 28.9327,95.8547 28.7655,95.9383 C28.5983,96.0219 28.4218,96.0544 28.236,96.0358 C28.0502,96.0172 27.8784,95.9568 27.7205,95.8547 C27.5626,95.7525 27.4465,95.5992 27.3722,95.3949 C26.982,94.4289 26.7591,93.3792 26.7034,92.246 C26.6477,91.1128 26.6569,90.026 26.7313,88.9857 C26.7498,88.7256 26.8334,88.5259 26.982,88.3866 C27.1307,88.2473 27.2979,88.1729 27.4836,88.1637 C27.6694,88.1544 27.8459,88.2101 28.0131,88.3309 C28.1803,88.4516 28.2918,88.6327 28.3475,88.8742 C28.4589,89.2644 28.5425,89.6591 28.5983,90.0585 C28.654,90.458 28.7005,90.8434 28.7376,91.215 C28.9605,90.7877 29.216,90.4301 29.5039,90.1421 C29.7919,89.8542 30.1959,89.7102 30.7161,89.7102 C31.3477,89.7102 31.8121,89.9053 32.1094,90.2954 C32.4066,90.6855 32.6296,91.1407 32.7782,91.6608 C33.3169,90.862 33.9857,90.2025 34.7845,89.6824 C35.1561,89.4408 35.5555,89.4594 35.9828,89.7381 C36.3543,89.9982 36.633,90.3419 36.8187,90.7691 C37.0045,91.1964 37.1345,91.633 37.2089,92.0788 M44.6639,93.8344 C44.7753,93.853 44.8682,93.8994 44.9425,93.9737 C45.0168,94.0294 45.0819,94.0991 45.1376,94.1827 C45.1933,94.2663 45.2305,94.3731 45.2491,94.5032 C45.2491,94.7447 45.2165,94.9397 45.1515,95.0883 C45.0865,95.237 45.0076,95.3624 44.9147,95.4645 C44.8218,95.5667 44.7196,95.6457 44.6081,95.7014 C44.4967,95.7571 44.3945,95.8129 44.3016,95.8686 C43.8186,96.0915 43.3356,96.2448 42.8526,96.3284 C42.3696,96.412 41.9144,96.4352 41.4872,96.398 C41.0599,96.3609 40.6744,96.2541 40.3307,96.0776 C39.987,95.9011 39.7037,95.6642 39.4808,95.367 C39.1093,94.8468 38.9699,94.3453 39.0628,93.8622 C39.1557,93.3792 39.3508,92.8962 39.648,92.4132 C39.8895,92.0417 40.1821,91.7351 40.5258,91.4936 C40.8695,91.2521 41.2549,91.0478 41.6822,90.8806 C41.8308,90.8434 41.9934,90.7877 42.1699,90.7134 C42.3464,90.6391 42.5089,90.5741 42.6575,90.5183 C42.6761,90.5183 42.6668,90.4115 42.6297,90.1979 C42.5925,89.9842 42.5135,89.7892 42.3928,89.6127 C42.272,89.4362 42.1002,89.3247 41.8773,89.2783 C41.6544,89.2318 41.3571,89.3758 40.9856,89.7102 C40.8369,89.8031 40.6883,89.9006 40.5397,90.0028 C40.3911,90.105 40.2239,90.1282 40.0381,90.0725 C39.8338,90.0353 39.6944,89.9285 39.6201,89.752 C39.5458,89.5755 39.5458,89.4037 39.6201,89.2365 C39.8988,88.6049 40.275,88.1729 40.7487,87.9407 C41.2224,87.7085 41.7751,87.5831 42.4067,87.5645 C42.704,87.5645 42.9594,87.6203 43.173,87.7317 C43.3867,87.8432 43.5632,87.9872 43.7025,88.1637 C43.8418,88.3401 43.9579,88.5259 44.0508,88.721 C44.1437,88.916 44.218,89.0879 44.2738,89.2365 C44.4224,89.7195 44.5245,90.2397 44.5803,90.797 C44.636,91.3543 44.6639,91.9116 44.6639,92.4689 C44.6639,92.6733 44.6546,92.9102 44.636,93.1795 C44.6174,93.4489 44.6267,93.6672 44.6639,93.8344 M41.4872,94.8097 C41.6172,94.8468 41.7658,94.8608 41.933,94.8515 C42.1002,94.8422 42.2535,94.819 42.3928,94.7818 C42.5321,94.7447 42.6529,94.6843 42.7551,94.6007 C42.8572,94.5171 42.9083,94.4196 42.9083,94.3081 C42.9455,93.9923 42.9641,93.7554 42.9641,93.5975 C42.9641,93.4396 42.9641,93.2028 42.9641,92.8869 C42.9641,92.7012 42.913,92.5758 42.8108,92.5107 C42.7086,92.4457 42.5925,92.4132 42.4625,92.4132 C42.3324,92.4132 42.1931,92.4457 42.0445,92.5107 C41.8959,92.5758 41.7658,92.6454 41.6544,92.7197 C41.45,92.8312 41.3014,92.9613 41.2085,93.1099 C41.1156,93.2585 41.0227,93.4535 40.9298,93.6951 C40.7998,94.0666 40.8184,94.336 40.9856,94.5032 C41.1528,94.6704 41.32,94.7725 41.4872,94.8097 M56.5191,92.0788 C56.5563,92.246 56.598,92.4643 56.6445,92.7337 C56.6909,93.003 56.7467,93.2863 56.8117,93.5836 C56.8767,93.8808 56.9464,94.1595 57.0207,94.4196 C57.095,94.6796 57.1693,94.8747 57.2436,95.0048 C57.4108,95.2648 57.4805,95.497 57.4526,95.7014 C57.4247,95.9058 57.3365,96.0683 57.1879,96.1891 C57.0393,96.3098 56.8535,96.3702 56.6306,96.3702 C56.4076,96.3702 56.1754,96.2866 55.9339,96.1194 C55.841,96.0637 55.7388,95.9475 55.6274,95.7711 C55.5159,95.5946 55.4137,95.4042 55.3209,95.1998 C55.228,94.9955 55.1397,94.7772 55.0561,94.545 C54.9725,94.3127 54.9029,94.113 54.8471,93.9458 C54.81,93.8158 54.7775,93.644 54.7496,93.4303 C54.7217,93.2167 54.6939,92.9984 54.666,92.7755 C54.6381,92.5525 54.6056,92.3389 54.5685,92.1346 C54.5313,91.9302 54.4756,91.763 54.4013,91.633 C53.9926,92.0231 53.6535,92.5479 53.3842,93.2074 C53.1148,93.8669 52.9151,94.4939 52.7851,95.0883 C52.7479,95.2555 52.6504,95.4088 52.4925,95.5481 C52.3346,95.6875 52.1674,95.785 51.9909,95.8407 C51.8144,95.8965 51.6379,95.9011 51.4614,95.8547 C51.2849,95.8082 51.1503,95.6828 51.0574,95.4785 C50.9087,95.1627 50.7926,94.8376 50.709,94.5032 C50.6254,94.1688 50.5372,93.8251 50.4443,93.4721 C50.3886,93.2863 50.3375,93.0216 50.2911,92.6779 C50.2446,92.3343 50.1749,92.0788 50.0821,91.9116 C50.0449,91.8187 50.0078,91.7537 49.9706,91.7166 C49.9334,91.6794 49.9149,91.6516 49.9149,91.633 C49.822,91.6887 49.7384,91.8048 49.6641,91.9813 C49.5898,92.1578 49.5201,92.3436 49.4551,92.5386 C49.3901,92.7337 49.3343,92.9241 49.2879,93.1099 C49.2414,93.2956 49.2089,93.4257 49.1903,93.5 C49.0975,93.8158 48.9953,94.1502 48.8838,94.5032 C48.7724,94.8561 48.6423,95.1905 48.4937,95.5063 C48.3822,95.7107 48.2429,95.8547 48.0757,95.9383 C47.9085,96.0219 47.732,96.0544 47.5463,96.0358 C47.3605,96.0172 47.1886,95.9568 47.0307,95.8547 C46.8728,95.7525 46.7567,95.5992 46.6824,95.3949 C46.2923,94.4289 46.0694,93.3792 46.0136,92.246 C45.9579,91.1128 45.9672,90.026 46.0415,88.9857 C46.0601,88.7256 46.1437,88.5259 46.2923,88.3866 C46.4409,88.2473 46.6081,88.1729 46.7939,88.1637 C46.9796,88.1544 47.1561,88.2101 47.3233,88.3309 C47.4905,88.4516 47.602,88.6327 47.6577,88.8742 C47.7692,89.2644 47.8528,89.6591 47.9085,90.0585 C47.9642,90.458 48.0107,90.8434 48.0478,91.215 C48.2708,90.7877 48.5262,90.4301 48.8142,90.1421 C49.1021,89.8542 49.5062,89.7102 50.0263,89.7102 C50.658,89.7102 51.1224,89.9053 51.4196,90.2954 C51.7169,90.6855 51.9398,91.1407 52.0884,91.6608 C52.6272,90.862 53.2959,90.2025 54.0948,89.6824 C54.4663,89.4408 54.8657,89.4594 55.293,89.7381 C55.6645,89.9982 55.9432,90.3419 56.129,90.7691 C56.3147,91.1964 56.4448,91.633 56.5191,92.0788 M68.9064,92.0788 C68.9435,92.246 68.9853,92.4643 69.0318,92.7337 C69.0782,93.003 69.134,93.2863 69.199,93.5836 C69.264,93.8808 69.3337,94.1595 69.408,94.4196 C69.4823,94.6796 69.5566,94.8747 69.6309,95.0048 C69.7981,95.2648 69.8678,95.497 69.8399,95.7014 C69.812,95.9058 69.7238,96.0683 69.5752,96.1891 C69.4266,96.3098 69.2408,96.3702 69.0179,96.3702 C68.7949,96.3702 68.5627,96.2866 68.3212,96.1194 C68.2283,96.0637 68.1261,95.9475 68.0147,95.7711 C67.9032,95.5946 67.801,95.4042 67.7082,95.1998 C67.6153,94.9955 67.527,94.7772 67.4434,94.545 C67.3598,94.3127 67.2902,94.113 67.2344,93.9458 C67.1973,93.8158 67.1648,93.644 67.1369,93.4303 C67.109,93.2167 67.0812,92.9984 67.0533,92.7755 C67.0254,92.5525 66.9929,92.3389 66.9558,92.1346 C66.9186,91.9302 66.8629,91.763 66.7886,91.633 C66.3799,92.0231 66.0408,92.5479 65.7715,93.2074 C65.5021,93.8669 65.3024,94.4939 65.1723,95.0883 C65.1352,95.2555 65.0377,95.4088 64.8798,95.5481 C64.7218,95.6875 64.5547,95.785 64.3782,95.8407 C64.2017,95.8965 64.0252,95.9011 63.8487,95.8547 C63.6722,95.8082 63.5375,95.6828 63.4447,95.4785 C63.296,95.1627 63.1799,94.8376 63.0963,94.5032 C63.0127,94.1688 62.9245,93.8251 62.8316,93.4721 C62.7759,93.2863 62.7248,93.0216 62.6783,92.6779 C62.6319,92.3343 62.5622,92.0788 62.4693,91.9116 C62.4322,91.8187 62.395,91.7537 62.3579,91.7166 C62.3207,91.6794 62.3022,91.6516 62.3022,91.633 C62.2093,91.6887 62.1257,91.8048 62.0514,91.9813 C61.9771,92.1578 61.9074,92.3436 61.8424,92.5386 C61.7773,92.7337 61.7216,92.9241 61.6752,93.1099 C61.6287,93.2956 61.5962,93.4257 61.5776,93.5 C61.4848,93.8158 61.3826,94.1502 61.2711,94.5032 C61.1596,94.8561 61.0296,95.1905 60.881,95.5063 C60.7695,95.7107 60.6302,95.8547 60.463,95.9383 C60.2958,96.0219 60.1193,96.0544 59.9335,96.0358 C59.7478,96.0172 59.5759,95.9568 59.418,95.8547 C59.2601,95.7525 59.144,95.5992 59.0697,95.3949 C58.6796,94.4289 58.4566,93.3792 58.4009,92.246 C58.3452,91.1128 58.3545,90.026 58.4288,88.9857 C58.4474,88.7256 58.531,88.5259 58.6796,88.3866 C58.8282,88.2473 58.9954,88.1729 59.1812,88.1637 C59.3669,88.1544 59.5434,88.2101 59.7106,88.3309 C59.8778,88.4516 59.9893,88.6327 60.045,88.8742 C60.1565,89.2644 60.2401,89.6591 60.2958,90.0585 C60.3515,90.458 60.398,90.8434 60.4351,91.215 C60.6581,90.7877 60.9135,90.4301 61.2015,90.1421 C61.4894,89.8542 61.8935,89.7102 62.4136,89.7102 C63.0452,89.7102 63.5097,89.9053 63.8069,90.2954 C64.1042,90.6855 64.3271,91.1407 64.4757,91.6608 C65.0144,90.862 65.6832,90.2025 66.482,89.6824 C66.8536,89.4408 67.253,89.4594 67.6803,89.7381 C68.0518,89.9982 68.3305,90.3419 68.5163,90.7691 C68.702,91.1964 68.8321,91.633 68.9064,92.0788 M76.3614,93.8344 C76.4729,93.853 76.5658,93.8994 76.6401,93.9737 C76.7144,94.0294 76.7794,94.0991 76.8351,94.1827 C76.8909,94.2663 76.928,94.3731 76.9466,94.5032 C76.9466,94.7447 76.9141,94.9397 76.8491,95.0883 C76.784,95.237 76.7051,95.3624 76.6122,95.4645 C76.5193,95.5667 76.4171,95.6457 76.3057,95.7014 C76.1942,95.7571 76.092,95.8129 75.9991,95.8686 C75.5161,96.0915 75.0331,96.2448 74.5501,96.3284 C74.0671,96.412 73.612,96.4352 73.1847,96.398 C72.7574,96.3609 72.3719,96.2541 72.0282,96.0776 C71.6846,95.9011 71.4013,95.6642 71.1783,95.367 C70.8068,94.8468 70.6675,94.3453 70.7603,93.8622 C70.8532,93.3792 71.0483,92.8962 71.3455,92.4132 C71.587,92.0417 71.8796,91.7351 72.2233,91.4936 C72.567,91.2521 72.9525,91.0478 73.3797,90.8806 C73.5284,90.8434 73.6909,90.7877 73.8674,90.7134 C74.0439,90.6391 74.2064,90.5741 74.3551,90.5183 C74.3736,90.5183 74.3643,90.4115 74.3272,90.1979 C74.29,89.9842 74.2111,89.7892 74.0903,89.6127 C73.9696,89.4362 73.7977,89.3247 73.5748,89.2783 C73.3519,89.2318 73.0546,89.3758 72.6831,89.7102 C72.5345,89.8031 72.3859,89.9006 72.2372,90.0028 C72.0886,90.105 71.9214,90.1282 71.7357,90.0725 C71.5313,90.0353 71.392,89.9285 71.3177,89.752 C71.2434,89.5755 71.2434,89.4037 71.3177,89.2365 C71.5963,88.6049 71.9725,88.1729 72.4462,87.9407 C72.92,87.7085 73.4726,87.5831 74.1043,87.5645 C74.4015,87.5645 74.6569,87.6203 74.8706,87.7317 C75.0842,87.8432 75.2607,87.9872 75.4,88.1637 C75.5394,88.3401 75.6555,88.5259 75.7484,88.721 C75.8412,88.916 75.9155,89.0879 75.9713,89.2365 C76.1199,89.7195 76.2221,90.2397 76.2778,90.797 C76.3335,91.3543 76.3614,91.9116 76.3614,92.4689 C76.3614,92.6733 76.3521,92.9102 76.3335,93.1795 C76.315,93.4489 76.3242,93.6672 76.3614,93.8344 M73.1847,94.8097 C73.3147,94.8468 73.4633,94.8608 73.6305,94.8515 C73.7977,94.8422 73.951,94.819 74.0903,94.7818 C74.2297,94.7447 74.3504,94.6843 74.4526,94.6007 C74.5548,94.5171 74.6059,94.4196 74.6059,94.3081 C74.643,93.9923 74.6616,93.7554 74.6616,93.5975 C74.6616,93.4396 74.6616,93.2028 74.6616,92.8869 C74.6616,92.7012 74.6105,92.5758 74.5083,92.5107 C74.4061,92.4457 74.29,92.4132 74.16,92.4132 C74.03,92.4132 73.8906,92.4457 73.742,92.5107 C73.5934,92.5758 73.4633,92.6454 73.3519,92.7197 C73.1475,92.8312 72.9989,92.9613 72.906,93.1099 C72.8131,93.2585 72.7203,93.4535 72.6274,93.6951 C72.4973,94.0666 72.5159,94.336 72.6831,94.5032 C72.8503,94.6704 73.0175,94.7725 73.1847,94.8097 Z" style="stroke:none;fill-rule:nonzero;fill:#000000;fill-opacity:1;"/>
        </g>
    </g>
</svg>
