<?xml version="1.0"?>
<svg version="1.1" xmlns="http://www.w3.org/2000/svg" xmlns:xlink="http://www.w3.org/1999/xlink" width="180" height="180">
    <desc iVinci="yes" version="4.6" gridStep="20" showGrid="no" snapToGrid="no" codePlatform="0"/>
    <g id="Layer1" name="Layer 2" opacity="1">
        <g id="Shape1">
            <desc shapeID="1" type="0" basicInfo-basicType="0" basicInfo-roundedRectRadius="12" basicInfo-polygonSides="6" basicInfo-starPoints="5" bounding="rect(-213.489,-51.1502,426.978,102.3)" text="" font-familyName="Helvetica" font-pixelSize="20" font-bold="0" font-underline="0" font-alignment="1" strokeStyle="0" markerStart="0" markerEnd="0" shadowEnabled="0" shadowOffsetX="0" shadowOffsetY="2" shadowBlur="4" shadowOpacity="160" blurEnabled="0" blurRadius="4" transform="matrix(0.358413,0,0,0.385741,101.337,150.529)" pers-center="0,0" pers-size="0,0" pers-start="0,0" pers-end="0,0" locked="0" mesh="" flag=""/>
            <path id="shapePath1" d="M24.8197,150.728 C24.8197,137.083 59.0776,130.798 101.337,130.798 C143.596,130.798 177.854,137.083 177.854,150.728 C177.854,164.372 143.596,170.259 101.337,170.259 C59.0776,170.259 24.8197,164.372 24.8197,150.728 Z" style="stroke:none;fill-rule:evenodd;fill:#b6e7ff;fill-opacity:1;"/>
        </g>
    </g>
    <g id="Layer2" name="Layer 3" opacity="1">
        <g id="Shape2">
            <desc shapeID="2" type="0" basicInfo-basicType="0" basicInfo-roundedRectRadius="12" basicInfo-polygonSides="6" basicInfo-starPoints="5" bounding="rect(-100.055,-51.3243,200.11,102.649)" text="" font-familyName="Helvetica" font-pixelSize="20" font-bold="0" font-underline="0" font-alignment="1" strokeStyle="0" markerStart="0" markerEnd="0" shadowEnabled="0" shadowOffsetX="0" shadowOffsetY="2" shadowBlur="4" shadowOpacity="160" blurEnabled="0" blurRadius="4" transform="matrix(0.362766,0,0,0.362766,43.1423,115.318)" pers-center="0,0" pers-size="0,0" pers-start="0,0" pers-end="0,0" locked="0" mesh="" flag=""/>
            <path id="shapePath2" d="M7.76246,106.506 C9.88918,104.987 12.745,106.594 15.1916,107.512 C17.6913,108.451 19.577,110.763 21.6454,112.541 C23.1573,113.84 24.0282,116.086 25.9154,116.728 C29.5897,117.979 33.4403,118.551 37.4965,117.936 C42.5933,117.164 47.5459,115.318 51.0597,112.434 C53.7091,110.26 54.3464,106.133 56.3004,103.317 C58.015,100.847 59.4458,96.7789 62.4527,96.7176 C68.4438,96.5954 78.6122,96.9008 79.3525,102.847 C80.3757,111.065 72.104,118.294 65.8091,123.676 C60.909,127.864 54.0968,128.607 47.9771,130.634 C43.7664,132.028 39.2586,133.9 34.8232,133.936 C30.473,133.971 26.4083,132.302 22.8489,130.087 C19.8615,128.227 17.8715,125.057 15.8883,122.15 C14.4776,120.082 14.2436,117.343 12.7725,115.318 C11.3969,113.424 8.97339,112.505 7.53109,110.645 C6.81035,109.716 6.3529,107.512 7.76246,106.506 Z" style="stroke:none;fill-rule:evenodd;fill:#0a0a0a;fill-opacity:1;"/>
        </g>
    </g>
    <g id="Layer3" name="Layer 4" opacity="1">
        <g id="Shape3">
            <desc shapeID="3" type="0" basicInfo-basicType="0" basicInfo-roundedRectRadius="12" basicInfo-polygonSides="6" basicInfo-starPoints="5" bounding="rect(-31.5096,-28.417,63.0191,56.8341)" text="" font-familyName="Helvetica" font-pixelSize="20" font-bold="0" font-underline="0" font-alignment="1" strokeStyle="0" markerStart="0" markerEnd="0" shadowEnabled="0" shadowOffsetX="0" shadowOffsetY="2" shadowBlur="4" shadowOpacity="160" blurEnabled="0" blurRadius="4" transform="matrix(0.362766,0,0,0.362766,48.0107,157.479)" pers-center="0,0" pers-size="0,0" pers-start="0,0" pers-end="0,0" locked="0" mesh="" flag=""/>
            <path id="shapePath3" d="M38.2901,163.041 C38.2901,163.041 43.1492,164.71 46.002,165.352 C48.3378,165.877 59.4413,167.787 59.4413,167.787 C59.4413,167.787 54.1947,160.541 54.0678,157.244 C53.9352,153.796 55.6014,150.162 52.5331,148.583 C48.141,146.323 42.287,147.116 37.5704,148.583 C36.4489,148.932 36.5312,150.812 36.6386,151.982 C36.7128,152.79 37.8441,153.174 38.0638,153.955 C38.5216,155.583 38.5788,157.307 38.6119,158.998 C38.6339,160.12 38.2901,163.041 38.2901,163.041 Z" style="stroke:none;fill-rule:evenodd;fill:#79c0eb;fill-opacity:1;"/>
        </g>
        <g id="Shape4">
            <desc shapeID="4" type="0" basicInfo-basicType="0" basicInfo-roundedRectRadius="12" basicInfo-polygonSides="6" basicInfo-starPoints="5" bounding="rect(-37.6796,-29.5399,75.3591,59.0799)" text="" font-familyName="Helvetica" font-pixelSize="20" font-bold="0" font-underline="0" font-alignment="1" strokeStyle="0" markerStart="0" markerEnd="0" shadowEnabled="0" shadowOffsetX="0" shadowOffsetY="2" shadowBlur="4" shadowOpacity="160" blurEnabled="0" blurRadius="4" transform="matrix(0.362766,0,0,0.362766,78.9233,159.418)" pers-center="0,0" pers-size="0,0" pers-start="0,0" pers-end="0,0" locked="0" mesh="" flag=""/>
            <path id="shapePath4" d="M65.4085,152.148 C66.3637,150.472 68.2422,149.009 70.1651,148.849 C75.3407,148.418 80.6992,148.93 85.6623,150.46 C87.823,151.126 89.2133,153.333 90.5723,155.14 C91.5089,156.385 92.2424,157.888 92.4136,159.436 C92.8155,163.071 92.4136,170.134 92.4136,170.134 C92.4136,170.134 83.9058,169.957 80.0555,169.787 C75.5139,169.586 67.0986,168.688 67.0986,168.688 C67.0986,168.688 68.7865,163.313 68.6307,160.664 C68.5197,158.777 67.0749,157.215 66.4058,155.447 C65.9993,154.372 64.8398,153.146 65.4085,152.148 Z" style="stroke:none;fill-rule:evenodd;fill:#79c0eb;fill-opacity:1;"/>
        </g>
        <g id="Shape5">
            <desc shapeID="5" type="0" basicInfo-basicType="0" basicInfo-roundedRectRadius="12" basicInfo-polygonSides="6" basicInfo-starPoints="5" bounding="rect(-37.0827,-26.255,74.1654,52.51)" text="" font-familyName="Helvetica" font-pixelSize="20" font-bold="0" font-underline="0" font-alignment="1" strokeStyle="0" markerStart="0" markerEnd="0" shadowEnabled="0" shadowOffsetX="0" shadowOffsetY="2" shadowBlur="4" shadowOpacity="160" blurEnabled="0" blurRadius="4" transform="matrix(0.362766,0,0,0.362766,117.222,160.704)" pers-center="0,0" pers-size="0,0" pers-start="0,0" pers-end="0,0" locked="0" mesh="" flag=""/>
            <path id="shapePath5" d="M103.955,170.228 C103.955,170.228 103.538,163.842 103.955,160.513 C104.318,157.618 103.797,153.149 106.539,152.15 C112.398,150.016 119.053,151.947 125.235,152.762 C127.094,153.007 129.291,153.676 130.266,155.278 C131.131,156.697 130.453,158.717 129.79,160.241 C129.098,161.832 128.497,162.775 128.225,164.489 C127.922,166.408 128.225,169.346 128.225,169.346 C128.225,169.346 119.964,169.907 115.785,170.059 C111.869,170.201 103.955,170.228 103.955,170.228 Z" style="stroke:none;fill-rule:evenodd;fill:#79c0eb;fill-opacity:1;"/>
        </g>
        <g id="Shape6">
            <desc shapeID="6" type="0" basicInfo-basicType="0" basicInfo-roundedRectRadius="12" basicInfo-polygonSides="6" basicInfo-starPoints="5" bounding="rect(-30.4213,-22.3348,60.8425,44.6695)" text="" font-familyName="Helvetica" font-pixelSize="20" font-bold="0" font-underline="0" font-alignment="1" strokeStyle="0" markerStart="0" markerEnd="0" shadowEnabled="0" shadowOffsetX="0" shadowOffsetY="2" shadowBlur="4" shadowOpacity="160" blurEnabled="0" blurRadius="4" transform="matrix(0.362766,0,0,0.362766,159.561,158.936)" pers-center="0,0" pers-size="0,0" pers-start="0,0" pers-end="0,0" locked="0" mesh="" flag=""/>
            <path id="shapePath6" d="M155.847,152.707 C153.813,153.179 151.434,153.44 150.003,154.96 C148.858,156.177 149.277,158.228 149.088,159.888 C148.783,162.576 148.525,167.039 148.525,167.039 C148.525,167.039 155.324,165.719 158.669,164.836 C161.171,164.175 166.044,162.414 166.044,162.414 C166.044,162.414 165.88,161.78 166.336,160.24 C166.822,158.602 169.555,156.739 170.286,154.548 C170.67,153.397 170.977,151.361 169.417,151.014 C166.155,150.287 159.102,151.952 155.847,152.707 Z" style="stroke:none;fill-rule:evenodd;fill:#79c0eb;fill-opacity:1;"/>
        </g>
    </g>
    <g id="Layer4" name="Layer 11" opacity="1">
        <g id="Shape7">
            <desc shapeID="7" type="0" basicInfo-basicType="0" basicInfo-roundedRectRadius="12" basicInfo-polygonSides="6" basicInfo-starPoints="5" bounding="rect(-8.4982,-14.9405,16.9964,29.8811)" text="" font-familyName="Helvetica" font-pixelSize="20" font-bold="0" font-underline="0" font-alignment="1" strokeStyle="0" markerStart="0" markerEnd="0" shadowEnabled="0" shadowOffsetX="0" shadowOffsetY="2" shadowBlur="4" shadowOpacity="160" blurEnabled="0" blurRadius="4" transform="matrix(0.362766,0,0,0.362766,5.22869,118.431)" pers-center="0,0" pers-size="0,0" pers-start="0,0" pers-end="0,0" locked="0" mesh="" flag=""/>
            <path id="shapePath7" d="M5.18397,123.828 C3.62147,124.064 2.23709,122.419 2.15044,120.842 C2.0502,119.016 3.60927,117.724 4.38443,116.068 C4.77379,115.236 4.88359,113.011 5.37209,113.011 C6.03818,113.137 6.1329,115.298 6.57139,116.256 C7.12451,117.464 8.31155,118.502 8.31155,119.83 C8.31155,122.861 6.96261,123.56 5.18397,123.828 Z" style="stroke:none;fill-rule:evenodd;fill:#a9e7ff;fill-opacity:1;"/>
        </g>
        <g id="Shape8">
            <desc shapeID="8" type="0" basicInfo-basicType="4" basicInfo-roundedRectRadius="12" basicInfo-polygonSides="6" basicInfo-starPoints="5" bounding="rect(-4.02237,-2.90506,8.04474,5.81009)" text="" font-familyName="Helvetica" font-pixelSize="20" font-bold="0" font-underline="0" font-alignment="1" strokeStyle="0" markerStart="0" markerEnd="0" shadowEnabled="0" shadowOffsetX="0" shadowOffsetY="2" shadowBlur="4" shadowOpacity="160" blurEnabled="0" blurRadius="4" transform="matrix(0.362766,0,0,0.362766,12.0511,108.198)" pers-center="0,0" pers-size="0,0" pers-start="0,0" pers-end="0,0" locked="0" mesh="" flag=""/>
            <path id="shapePath8" d="M10.5919,108.198 C10.5919,107.616 11.2452,107.145 12.0511,107.145 C12.857,107.145 13.5103,107.616 13.5103,108.198 C13.5103,108.78 12.857,109.252 12.0511,109.252 C11.2452,109.252 10.5919,108.78 10.5919,108.198 Z" style="stroke:none;fill-rule:evenodd;fill:#a9e7ff;fill-opacity:1;"/>
        </g>
        <g id="Shape9">
            <desc shapeID="9" type="0" basicInfo-basicType="4" basicInfo-roundedRectRadius="12" basicInfo-polygonSides="6" basicInfo-starPoints="5" bounding="rect(-3.9266,-3.32004,7.8532,6.64011)" text="" font-familyName="Helvetica" font-pixelSize="20" font-bold="0" font-underline="0" font-alignment="1" strokeStyle="0" markerStart="0" markerEnd="0" shadowEnabled="0" shadowOffsetX="0" shadowOffsetY="2" shadowBlur="4" shadowOpacity="160" blurEnabled="0" blurRadius="4" transform="matrix(0.345854,0.109471,-0.0993856,0.313991,17.4372,110.944)" pers-center="0,0" pers-size="0,0" pers-start="0,0" pers-end="0,0" locked="0" mesh="" flag=""/>
            <path id="shapePath9" d="M16.0792,110.514 C16.2614,109.938 17.0172,109.664 17.7672,109.901 C18.5172,110.139 18.9775,110.798 18.7953,111.374 C18.613,111.949 17.8573,112.224 17.1073,111.986 C16.3573,111.749 15.897,111.09 16.0792,110.514 Z" style="stroke:none;fill-rule:evenodd;fill:#a9e7ff;fill-opacity:1;"/>
        </g>
        <g id="Shape10">
            <desc shapeID="10" type="0" basicInfo-basicType="4" basicInfo-roundedRectRadius="12" basicInfo-polygonSides="6" basicInfo-starPoints="5" bounding="rect(-3.99045,-3.47968,7.9809,6.95935)" text="" font-familyName="Helvetica" font-pixelSize="20" font-bold="0" font-underline="0" font-alignment="1" strokeStyle="0" markerStart="0" markerEnd="0" shadowEnabled="0" shadowOffsetX="0" shadowOffsetY="2" shadowBlur="4" shadowOpacity="160" blurEnabled="0" blurRadius="4" transform="matrix(0.280059,0.230578,-0.205242,0.249287,22.6012,116.745)" pers-center="0,0" pers-size="0,0" pers-start="0,0" pers-end="0,0" locked="0" mesh="" flag=""/>
            <path id="shapePath10" d="M21.4837,115.825 C21.8781,115.346 22.6982,115.37 23.3154,115.878 C23.9326,116.386 24.1132,117.186 23.7188,117.665 C23.3243,118.145 22.5042,118.121 21.887,117.613 C21.2698,117.105 21.0892,116.304 21.4837,115.825 Z" style="stroke:none;fill-rule:evenodd;fill:#a9e7ff;fill-opacity:1;"/>
        </g>
        <g id="Shape11">
            <desc shapeID="11" type="0" basicInfo-basicType="4" basicInfo-roundedRectRadius="12" basicInfo-polygonSides="6" basicInfo-starPoints="5" bounding="rect(-4.89409,-3.05881,9.78818,6.11761)" text="" font-familyName="Helvetica" font-pixelSize="20" font-bold="0" font-underline="0" font-alignment="1" strokeStyle="0" markerStart="0" markerEnd="0" shadowEnabled="0" shadowOffsetX="0" shadowOffsetY="2" shadowBlur="4" shadowOpacity="160" blurEnabled="0" blurRadius="4" transform="matrix(0.362766,0,0,0.362766,29.5655,119.75)" pers-center="0,0" pers-size="0,0" pers-start="0,0" pers-end="0,0" locked="0" mesh="" flag=""/>
            <path id="shapePath11" d="M27.7901,119.75 C27.7901,119.137 28.585,118.64 29.5655,118.64 C30.546,118.64 31.3409,119.137 31.3409,119.75 C31.3409,120.363 30.546,120.86 29.5655,120.86 C28.585,120.86 27.7901,120.363 27.7901,119.75 Z" style="stroke:none;fill-rule:evenodd;fill:#a9e7ff;fill-opacity:1;"/>
        </g>
        <g id="Shape12">
            <desc shapeID="12" type="0" basicInfo-basicType="4" basicInfo-roundedRectRadius="12" basicInfo-polygonSides="6" basicInfo-starPoints="5" bounding="rect(-5.04703,-3.51764,10.0941,7.03525)" text="" font-familyName="Helvetica" font-pixelSize="20" font-bold="0" font-underline="0" font-alignment="1" strokeStyle="0" markerStart="0" markerEnd="0" shadowEnabled="0" shadowOffsetX="0" shadowOffsetY="2" shadowBlur="4" shadowOpacity="160" blurEnabled="0" blurRadius="4" transform="matrix(0.362766,0,0,0.362766,38.498,120.083)" pers-center="0,0" pers-size="0,0" pers-start="0,0" pers-end="0,0" locked="0" mesh="" flag=""/>
            <path id="shapePath12" d="M36.6671,120.083 C36.6671,119.378 37.4869,118.807 38.498,118.807 C39.5092,118.807 40.3289,119.378 40.3289,120.083 C40.3289,120.788 39.5092,121.359 38.498,121.359 C37.4869,121.359 36.6671,120.788 36.6671,120.083 Z" style="stroke:none;fill-rule:evenodd;fill:#a9e7ff;fill-opacity:1;"/>
        </g>
        <g id="Shape13">
            <desc shapeID="13" type="0" basicInfo-basicType="4" basicInfo-roundedRectRadius="12" basicInfo-polygonSides="6" basicInfo-starPoints="5" bounding="rect(-4.39703,-3.40292,8.79407,6.80582)" text="" font-familyName="Helvetica" font-pixelSize="20" font-bold="0" font-underline="0" font-alignment="1" strokeStyle="0" markerStart="0" markerEnd="0" shadowEnabled="0" shadowOffsetX="0" shadowOffsetY="2" shadowBlur="4" shadowOpacity="160" blurEnabled="0" blurRadius="4" transform="matrix(0.354431,-0.0773178,0.0773178,0.354431,44.5594,118.01)" pers-center="0,0" pers-size="0,0" pers-start="0,0" pers-end="0,0" locked="0" mesh="" flag=""/>
            <path id="shapePath13" d="M43.0009,118.35 C42.8556,117.684 43.4356,116.992 44.2963,116.804 C45.157,116.616 45.9725,117.004 46.1178,117.67 C46.2631,118.336 45.6832,119.028 44.8225,119.216 C43.9618,119.404 43.1463,119.016 43.0009,118.35 Z" style="stroke:none;fill-rule:evenodd;fill:#a9e7ff;fill-opacity:1;"/>
        </g>
        <g id="Shape14">
            <desc shapeID="14" type="0" basicInfo-basicType="4" basicInfo-roundedRectRadius="12" basicInfo-polygonSides="6" basicInfo-starPoints="5" bounding="rect(-5.31468,-3.78528,10.6293,7.57056)" text="" font-familyName="Helvetica" font-pixelSize="20" font-bold="0" font-underline="0" font-alignment="1" strokeStyle="0" markerStart="0" markerEnd="0" shadowEnabled="0" shadowOffsetX="0" shadowOffsetY="2" shadowBlur="4" shadowOpacity="160" blurEnabled="0" blurRadius="4" transform="matrix(0.328554,-0.153791,0.153791,0.328554,51.9939,114.499)" pers-center="0,0" pers-size="0,0" pers-start="0,0" pers-end="0,0" locked="0" mesh="" flag=""/>
            <path id="shapePath14" d="M50.2477,115.317 C49.9262,114.63 50.4474,113.707 51.4118,113.256 C52.3761,112.804 53.4185,112.995 53.7401,113.682 C54.0616,114.369 53.5404,115.292 52.576,115.743 C51.6117,116.194 50.5692,116.004 50.2477,115.317 Z" style="stroke:none;fill-rule:evenodd;fill:#a9e7ff;fill-opacity:1;"/>
        </g>
    </g>
    <g id="Layer5" name="Layer 5" opacity="1">
        <g id="Shape15">
            <desc shapeID="15" type="0" basicInfo-basicType="0" basicInfo-roundedRectRadius="12" basicInfo-polygonSides="6" basicInfo-starPoints="5" bounding="rect(-185.392,-93.1215,370.784,186.243)" text="" font-familyName="Helvetica" font-pixelSize="20" font-bold="0" font-underline="0" font-alignment="1" strokeStyle="0" markerStart="0" markerEnd="0" shadowEnabled="0" shadowOffsetX="0" shadowOffsetY="2" shadowBlur="4" shadowOpacity="160" blurEnabled="0" blurRadius="4" transform="matrix(0.362766,0,0,0.362766,103.535,123.635)" pers-center="0,0" pers-size="0,0" pers-start="0,0" pers-end="0,0" locked="0" mesh="" flag=""/>
            <path id="shapePath15" d="M39.2372,150.669 C37.7239,150.155 36.015,148.821 36.3157,147.252 C36.8777,144.318 40.044,144.31 41.3873,142.617 C44.5183,138.668 47.3148,135.339 49.0678,130.615 C51.7508,123.384 51.4396,115.238 54.3105,108.08 C55.9974,103.873 58.2578,98.8803 62.4678,97.203 C72.9639,93.0213 84.6153,92.3534 95.8828,91.5169 C109.554,90.5018 123.729,88.2677 137.01,91.6686 C142.876,93.1708 146.519,99.7197 149.171,105.163 C152.488,111.969 151.705,120.185 154.361,127.274 C156.418,132.764 159.578,137.862 163.16,142.504 C165.012,144.903 169.149,145.262 170.38,148.031 C171.314,150.132 170.622,153.642 168.575,154.687 C164.296,156.872 158.651,158.19 154.248,156.267 C148.424,153.723 144.38,147.958 140.936,142.617 C137.621,137.475 136.691,134.025 135.286,128.196 C134.566,125.209 134.606,122.046 133.603,119.039 C133.354,118.29 131.453,118.28 131.234,119.039 C129.515,125.003 128.691,128.187 128.301,134.381 C128.048,138.411 128.813,142.446 129.317,146.452 C129.604,148.735 131.505,151.077 130.67,153.221 C129.849,155.331 127.389,156.884 125.143,157.169 C120.198,157.798 115.044,157.185 110.251,155.815 C108.177,155.223 106.306,153.487 105.401,151.529 C104.109,148.734 105.243,145.228 104.047,142.391 C103.5,141.093 101.946,139.844 100.55,140.022 C98.9386,140.226 97.8893,141.976 96.9396,143.293 C94.3637,146.866 93.3544,151.653 90.0581,154.575 C88.0037,156.396 84.7813,156.755 82.0485,156.492 C77.1074,156.018 71.9833,154.976 67.7214,152.431 C66.1553,151.496 65.6165,148.791 66.3677,147.129 C67.6381,144.318 71.6939,143.482 73.0236,140.699 C75.84,134.803 76.8603,128.2 78.4385,121.859 C79.0076,119.573 79.9649,117.165 79.4538,114.865 C79.2661,114.02 77.3831,114.063 76.8592,114.752 C73.6692,118.948 71.5187,123.845 69.0752,128.515 C66.4397,133.552 65.191,139.427 61.6296,143.857 C58.6745,147.534 57.7415,149.525 53.229,150.898 C49.728,151.963 42.7021,151.847 39.2372,150.669 Z" style="stroke:none;fill-rule:evenodd;fill:#0a0a0a;fill-opacity:1;"/>
        </g>
    </g>
    <g id="Layer6" name="Layer 6" opacity="1">
        <g id="Shape16">
            <desc shapeID="16" type="0" basicInfo-basicType="0" basicInfo-roundedRectRadius="12" basicInfo-polygonSides="6" basicInfo-starPoints="5" bounding="rect(-194.355,-127.288,388.709,254.575)" text="" font-familyName="Helvetica" font-pixelSize="20" font-bold="0" font-underline="0" font-alignment="1" strokeStyle="0" markerStart="0" markerEnd="0" shadowEnabled="0" shadowOffsetX="0" shadowOffsetY="2" shadowBlur="4" shadowOpacity="160" blurEnabled="0" blurRadius="4" transform="matrix(0.362766,0,0,0.362766,99.0086,55.9163)" pers-center="0,0" pers-size="0,0" pers-start="0,0" pers-end="0,0" locked="0" mesh="" flag=""/>
            <path id="shapePath16" d="M39.4295,36.9719 C39.9861,35.7884 40.8656,34.405 40.4198,33.1755 C39.0217,29.3195 38.2362,27.291 36.8752,23.4217 C36.607,22.6592 38.6343,21.784 39.4295,21.9288 C44.0343,22.7675 44.7895,24.3266 49.6081,25.3627 C50.2066,25.4913 50.8708,25.3499 51.4238,25.0876 C57.4471,18.7349 68.1984,14.6298 77.6034,12.0809 C86.4211,9.69114 95.8477,10.067 104.969,10.5758 C112.857,11.0158 123.499,13.8843 128.271,14.907 C129.195,15.1049 130.227,15.0709 131.097,14.7051 C134.288,13.3643 137.058,11.1206 140.282,9.86038 C140.898,9.61972 142.057,9.71962 142.2,10.365 C142.853,13.3223 141.949,16.4541 142.402,19.4489 C142.508,20.1562 143.288,20.58 143.815,21.0638 C151.966,25.0876 158.676,31.6386 163.711,39.0173 C167.571,44.6729 169.514,51.7681 169.514,58.7218 C169.514,68.9175 165.629,74.6512 158.03,81.4485 C149.796,88.8134 134.526,97.5112 123.698,99.7023 C106.59,103.164 88.7819,102.12 71.354,101.153 C64.5894,100.778 57.8525,98.6978 51.7704,95.7131 C44.6046,92.1965 36.889,88.3821 32.1868,81.932 C28.6068,77.0212 28.1665,70.0961 28.6811,64.0408 C29.2518,57.3236 31.2132,53.5292 33.2016,48.5215 C34.8158,44.4563 37.5678,40.9298 39.4295,36.9719 Z" style="stroke:none;fill-rule:evenodd;fill:#070707;fill-opacity:1;"/>
        </g>
    </g>
    <g id="Layer7" name="Layer 7" opacity="1">
        <g id="Shape17">
            <desc shapeID="17" type="0" basicInfo-basicType="0" basicInfo-roundedRectRadius="12" basicInfo-polygonSides="6" basicInfo-starPoints="5" bounding="rect(-146.728,-89.0342,293.455,178.068)" text="" font-familyName="Helvetica" font-pixelSize="20" font-bold="0" font-underline="0" font-alignment="1" strokeStyle="0" markerStart="0" markerEnd="0" shadowEnabled="0" shadowOffsetX="0" shadowOffsetY="2" shadowBlur="4" shadowOpacity="160" blurEnabled="0" blurRadius="4" transform="matrix(0.362766,0,0,0.362766,99.8465,66.2495)" pers-center="0,0" pers-size="0,0" pers-start="0,0" pers-end="0,0" locked="0" mesh="" flag=""/>
            <path id="shapePath17" d="M87.3369,98.4284 C80.5734,98.3541 73.5455,99.2079 67.0814,97.2166 C60.9898,95.34 55.1464,91.845 50.8078,87.1754 C47.9381,84.0869 46.3627,79.4357 46.6528,75.2299 C47.0935,68.8395 49.6647,62.589 52.8852,57.0519 C56.3627,51.0731 60.5397,44.9888 66.3889,41.2976 C72.9192,37.1766 80.8735,35.3927 88.5487,34.5458 C97.8497,33.5195 107.454,33.758 116.595,35.7576 C124.368,37.458 132.393,40.2435 138.408,45.4526 C144.954,51.1211 150.919,58.6359 152.778,67.093 C154.062,72.9396 151.004,79.7094 146.891,84.0592 C141.373,89.8957 133.506,93.4958 125.77,95.6585 C117.023,98.1039 107.649,96.9099 98.5899,97.5628 C94.8376,97.8333 91.0987,98.4698 87.3369,98.4284 Z" style="stroke:none;fill-rule:evenodd;fill:#e1ab8d;fill-opacity:1;"/>
        </g>
    </g>
    <g id="Layer8" name="Layer 8" opacity="1">
        <g id="Shape18">
            <desc shapeID="18" type="0" basicInfo-basicType="0" basicInfo-roundedRectRadius="12" basicInfo-polygonSides="6" basicInfo-starPoints="5" bounding="rect(-146.763,-83.1967,293.525,166.393)" text="" font-familyName="Helvetica" font-pixelSize="20" font-bold="0" font-underline="0" font-alignment="1" strokeStyle="0" markerStart="0" markerEnd="0" shadowEnabled="0" shadowOffsetX="0" shadowOffsetY="2" shadowBlur="4" shadowOpacity="160" blurEnabled="0" blurRadius="4" transform="matrix(0.362766,0,0,0.362766,99.8558,68.9197)" pers-center="0,0" pers-size="0,0" pers-start="0,0" pers-end="0,0" locked="0" mesh="" flag=""/>
            <path id="shapePath18" d="M67.0814,97.2166 C60.9898,95.34 55.1464,91.8449 50.8077,87.1754 C47.9381,84.0869 46.3463,79.4345 46.6528,75.2299 C47.0814,69.3497 49.5556,63.5426 52.8852,58.6772 C56.3221,53.6549 61.045,49.302 66.3889,46.3902 C73.0975,42.7347 80.6387,40.3365 88.2237,39.4217 C97.6889,38.28 107.438,38.566 116.812,40.3085 C124.517,41.741 132.447,44.1301 138.733,48.8115 C144.897,53.4013 151.045,59.6065 152.778,67.093 C154.127,72.9249 151.004,79.7094 146.891,84.0592 C141.373,89.8957 133.506,93.4958 125.77,95.6585 C117.023,98.1039 107.71,98.6308 98.5899,98.873 C88.0763,99.1521 77.3862,99.602 67.0814,97.2166 Z" style="stroke:none;fill-rule:evenodd;fill:#fdead1;fill-opacity:1;"/>
        </g>
    </g>
    <g id="Layer9" name="Layer 10" opacity="1">
        <g id="Shape19">
            <desc shapeID="19" type="0" basicInfo-basicType="0" basicInfo-roundedRectRadius="12" basicInfo-polygonSides="6" basicInfo-starPoints="5" bounding="rect(-21.6758,-21.7791,43.3516,43.5582)" text="" font-familyName="Helvetica" font-pixelSize="20" font-bold="0" font-underline="0" font-alignment="1" strokeStyle="0" markerStart="0" markerEnd="0" shadowEnabled="0" shadowOffsetX="0" shadowOffsetY="2" shadowBlur="4" shadowOpacity="160" blurEnabled="0" blurRadius="4" transform="matrix(0.362766,0,0,0.362766,96.2598,72.753)" pers-center="0,0" pers-size="0,0" pers-start="0,0" pers-end="0,0" locked="0" mesh="" flag=""/>
            <path id="shapePath19" d="M88.8387,76.4119 C88.4196,74.1397 88.1411,71.7105 88.7475,69.4809 C89.1855,67.8704 90.3001,66.2406 91.8026,65.5138 C93.4038,64.7394 95.3624,65.5315 97.1377,65.4226 C98.5885,65.3337 100.045,64.6339 101.47,64.9211 C102.218,65.072 102.789,65.8801 103.02,66.6082 C103.699,68.752 104.196,71.0182 104.114,73.2656 C104.055,74.894 103.529,76.5716 102.609,77.9167 C101.835,79.0485 100.591,79.9286 99.2808,80.3334 C97.7557,80.8046 96.0677,80.6857 94.4929,80.4246 C93.0783,80.1901 91.6496,79.7041 90.4802,78.8743 C89.6758,78.3033 89.0176,77.382 88.8387,76.4119 Z" style="stroke:none;fill-rule:evenodd;fill:#ffffff;fill-opacity:1;"/>
        </g>
    </g>
    <g id="Layer10" name="Layer 9" opacity="1">
        <g id="Shape20">
            <desc shapeID="20" type="0" basicInfo-basicType="0" basicInfo-roundedRectRadius="12" basicInfo-polygonSides="6" basicInfo-starPoints="5" bounding="rect(-11.4953,-7.33424,22.9906,14.6685)" text="" font-familyName="Helvetica" font-pixelSize="20" font-bold="0" font-underline="0" font-alignment="1" strokeStyle="0" markerStart="0" markerEnd="0" shadowEnabled="0" shadowOffsetX="0" shadowOffsetY="2" shadowBlur="4" shadowOpacity="160" blurEnabled="0" blurRadius="4" transform="matrix(0.362766,0,0,0.362766,79.9382,65.4151)" pers-center="0,0" pers-size="0,0" pers-start="0,0" pers-end="0,0" locked="0" mesh="" flag=""/>
            <path id="shapePath20" d="M75.7681,65.4758 C75.7681,64.0399 77.5004,62.7545 79.837,62.7545 C82.1737,62.7545 84.1083,63.3522 84.1083,64.7881 C84.1083,66.224 82.3355,68.0757 79.9989,68.0757 C77.6623,68.0757 75.7681,66.9117 75.7681,65.4758 Z" style="stroke:none;fill-rule:evenodd;fill:#fe8b82;fill-opacity:1;"/>
        </g>
        <g id="Shape21">
            <desc shapeID="21" type="0" basicInfo-basicType="0" basicInfo-roundedRectRadius="12" basicInfo-polygonSides="6" basicInfo-starPoints="5" bounding="rect(-12.1916,-8.01313,24.3832,16.0263)" text="" font-familyName="Helvetica" font-pixelSize="20" font-bold="0" font-underline="0" font-alignment="1" strokeStyle="0" markerStart="0" markerEnd="0" shadowEnabled="0" shadowOffsetX="0" shadowOffsetY="2" shadowBlur="4" shadowOpacity="160" blurEnabled="0" blurRadius="4" transform="matrix(0.362766,0,0,0.362766,111.811,64.091)" pers-center="0,0" pers-size="0,0" pers-start="0,0" pers-end="0,0" locked="0" mesh="" flag=""/>
            <path id="shapePath21" d="M107.393,64.4831 C107.505,63.1507 108.972,62.1031 110.229,61.6468 C111.829,61.0659 113.737,61.0118 115.334,61.5995 C116.073,61.8715 116.416,63.0844 116.138,63.8213 C115.682,65.0307 114.62,66.0747 113.443,66.6103 C112.339,67.1131 110.949,67.1074 109.804,66.7048 C108.773,66.3424 107.301,65.572 107.393,64.4831 Z" style="stroke:none;fill-rule:evenodd;fill:#fe8b82;fill-opacity:1;"/>
        </g>
        <g id="Shape22">
            <desc shapeID="22" type="0" basicInfo-basicType="0" basicInfo-roundedRectRadius="12" basicInfo-polygonSides="6" basicInfo-starPoints="5" bounding="rect(-3.03152,-8.19183,6.06302,16.3837)" text="" font-familyName="Helvetica" font-pixelSize="20" font-bold="0" font-underline="0" font-alignment="1" strokeStyle="0" markerStart="0" markerEnd="0" shadowEnabled="0" shadowOffsetX="0" shadowOffsetY="2" shadowBlur="4" shadowOpacity="160" blurEnabled="0" blurRadius="4" transform="matrix(0.362766,0,0,0.362766,92.4245,35.3984)" pers-center="0,0" pers-size="0,0" pers-start="0,0" pers-end="0,0" locked="0" mesh="" flag=""/>
            <path id="shapePath22" d="M91.4839,32.7157 C91.0583,33.9645 91.5999,35.3562 91.7908,36.6616 C91.8717,37.215 91.8554,37.9161 92.295,38.2619 C92.6043,38.5051 93.2664,38.3106 93.4349,37.955 C93.6892,37.4181 93.324,36.7719 93.2815,36.1793 C93.2031,35.0871 93.5768,33.8729 93.0724,32.901 C92.8268,32.4278 91.6559,32.2111 91.4839,32.7157 Z" style="stroke:none;fill-rule:evenodd;fill:#020202;fill-opacity:1;"/>
        </g>
        <g id="Shape23">
            <desc shapeID="23" type="0" basicInfo-basicType="0" basicInfo-roundedRectRadius="12" basicInfo-polygonSides="6" basicInfo-starPoints="5" bounding="rect(-4.02862,-9.80025,8.05727,19.6005)" text="" font-familyName="Helvetica" font-pixelSize="20" font-bold="0" font-underline="0" font-alignment="1" strokeStyle="0" markerStart="0" markerEnd="0" shadowEnabled="0" shadowOffsetX="0" shadowOffsetY="2" shadowBlur="4" shadowOpacity="160" blurEnabled="0" blurRadius="4" transform="matrix(0.362766,0,0,0.362766,96.4743,35.3105)" pers-center="0,0" pers-size="0,0" pers-start="0,0" pers-end="0,0" locked="0" mesh="" flag=""/>
            <path id="shapePath23" d="M95.1448,32.4308 C94.7028,33.6018 95.4907,34.9127 95.7586,36.1355 C95.9446,36.9846 95.9427,37.9707 96.5039,38.6345 C96.7829,38.9645 97.6331,38.9465 97.7973,38.5468 C98.1448,37.701 97.7372,36.7183 97.6657,35.8067 C97.5681,34.5612 98.0376,33.0787 97.2902,32.0778 C96.8565,31.4971 95.4007,31.7527 95.1448,32.4308 Z" style="stroke:none;fill-rule:evenodd;fill:#020202;fill-opacity:1;"/>
        </g>
        <g id="Shape24">
            <desc shapeID="24" type="0" basicInfo-basicType="0" basicInfo-roundedRectRadius="12" basicInfo-polygonSides="6" basicInfo-starPoints="5" bounding="rect(0,0,0,0)" text="" font-familyName="Helvetica" font-pixelSize="20" font-bold="0" font-underline="0" font-alignment="1" strokeStyle="0" markerStart="0" markerEnd="0" shadowEnabled="0" shadowOffsetX="0" shadowOffsetY="2" shadowBlur="4" shadowOpacity="160" blurEnabled="0" blurRadius="4" transform="matrix(0.362766,0,0,0.362766,100.639,39.8588)" pers-center="0,0" pers-size="0,0" pers-start="0,0" pers-end="0,0" locked="0" mesh="" flag=""/>
            <path id="shapePath24" d="M100.639,39.8588 Z" style="stroke:none;fill-rule:evenodd;fill:#020202;fill-opacity:1;"/>
        </g>
        <g id="Shape25">
            <desc shapeID="25" type="0" basicInfo-basicType="0" basicInfo-roundedRectRadius="12" basicInfo-polygonSides="6" basicInfo-starPoints="5" bounding="rect(-2.56188,-11.8967,5.12376,23.7934)" text="" font-familyName="Helvetica" font-pixelSize="20" font-bold="0" font-underline="0" font-alignment="1" strokeStyle="0" markerStart="0" markerEnd="0" shadowEnabled="0" shadowOffsetX="0" shadowOffsetY="2" shadowBlur="4" shadowOpacity="160" blurEnabled="0" blurRadius="4" transform="matrix(0.362766,0,0,0.362766,101.368,35.6872)" pers-center="0,0" pers-size="0,0" pers-start="0,0" pers-end="0,0" locked="0" mesh="" flag=""/>
            <path id="shapePath25" d="M100.717,31.5485 C100.249,32.9898 100.499,34.5775 100.562,36.0913 C100.613,37.3108 100.545,38.6114 101.058,39.7193 C101.23,40.0909 101.848,40.104 101.988,39.7193 C102.441,38.4747 102.28,37.1664 102.221,35.8432 C102.161,34.5118 102.43,33.1159 101.927,31.8819 C101.769,31.4946 100.846,31.1506 100.717,31.5485 Z" style="stroke:none;fill-rule:evenodd;fill:#020202;fill-opacity:1;"/>
        </g>
        <g id="Shape26">
            <desc shapeID="26" type="0" basicInfo-basicType="0" basicInfo-roundedRectRadius="12" basicInfo-polygonSides="6" basicInfo-starPoints="5" bounding="rect(-10.1773,-2.92109,20.3546,5.84219)" text="" font-familyName="Helvetica" font-pixelSize="20" font-bold="0" font-underline="0" font-alignment="1" strokeStyle="0" markerStart="0" markerEnd="0" shadowEnabled="0" shadowOffsetX="0" shadowOffsetY="2" shadowBlur="4" shadowOpacity="160" blurEnabled="0" blurRadius="4" transform="matrix(0.362766,0,0,0.362766,85.6593,59.4585)" pers-center="0,0" pers-size="0,0" pers-start="0,0" pers-end="0,0" locked="0" mesh="" flag=""/>
            <path id="shapePath26" d="M82.2275,59.7751 C81.8917,59.5966 81.8696,58.763 82.2275,58.6342 C83.3317,58.2369 84.5738,58.4493 85.7457,58.5094 C86.8487,58.5659 88.0356,58.4918 89.025,58.9825 C89.3848,59.1609 89.4896,60.024 89.1211,60.1835 C88.0525,60.6458 86.8005,60.5165 85.6383,60.4477 C84.4815,60.3792 83.2507,60.3191 82.2275,59.7751 Z" style="stroke:none;fill-rule:evenodd;fill:#020202;fill-opacity:1;"/>
        </g>
        <g id="Shape27">
            <desc shapeID="27" type="0" basicInfo-basicType="0" basicInfo-roundedRectRadius="12" basicInfo-polygonSides="6" basicInfo-starPoints="5" bounding="rect(-7.89632,-6.8108,15.7927,13.6216)" text="" font-familyName="Helvetica" font-pixelSize="20" font-bold="0" font-underline="0" font-alignment="1" strokeStyle="0" markerStart="0" markerEnd="0" shadowEnabled="0" shadowOffsetX="0" shadowOffsetY="2" shadowBlur="4" shadowOpacity="160" blurEnabled="0" blurRadius="4" transform="matrix(0.362766,0,0,0.362766,95.9309,61.9708)" pers-center="0,0" pers-size="0,0" pers-start="0,0" pers-end="0,0" locked="0" mesh="" flag=""/>
            <path id="shapePath27" d="M94.3306,61.5011 C94.1626,61.1717 93.5481,61.3474 93.3113,61.0634 C93.1118,60.8243 92.9402,60.3191 93.1927,60.1368 C93.594,59.8471 94.1816,60.0876 94.6765,60.0778 C95.1743,60.068 95.6806,60.1682 96.1702,60.0778 C96.7366,59.9734 97.2242,59.4667 97.7991,59.5018 C98.1977,59.5261 99.0013,59.9276 98.7465,60.2351 C98.0712,61.0498 96.557,60.8688 95.9484,61.7345 C95.5186,62.3457 96.3898,63.2722 96.121,63.9694 C95.9764,64.3447 95.1962,64.6234 94.96,64.2978 C94.399,63.5243 94.7645,62.3525 94.3306,61.5011 Z" style="stroke:none;fill-rule:evenodd;fill:#020202;fill-opacity:1;"/>
        </g>
        <g id="Shape28">
            <desc shapeID="28" type="0" basicInfo-basicType="0" basicInfo-roundedRectRadius="12" basicInfo-polygonSides="6" basicInfo-starPoints="5" bounding="rect(0,0,0,0)" text="" font-familyName="Helvetica" font-pixelSize="20" font-bold="0" font-underline="0" font-alignment="1" strokeStyle="0" markerStart="0" markerEnd="0" shadowEnabled="0" shadowOffsetX="0" shadowOffsetY="2" shadowBlur="4" shadowOpacity="160" blurEnabled="0" blurRadius="4" transform="matrix(0.362766,0,0,0.362766,101.315,60.3095)" pers-center="0,0" pers-size="0,0" pers-start="0,0" pers-end="0,0" locked="0" mesh="" flag=""/>
            <path id="shapePath28" d="M101.315,60.3095 Z" style="stroke:none;fill-rule:evenodd;fill:#020202;fill-opacity:1;"/>
        </g>
        <g id="Shape29">
            <desc shapeID="29" type="0" basicInfo-basicType="0" basicInfo-roundedRectRadius="12" basicInfo-polygonSides="6" basicInfo-starPoints="5" bounding="rect(-10.2891,-3.3833,20.5782,6.7666)" text="" font-familyName="Helvetica" font-pixelSize="20" font-bold="0" font-underline="0" font-alignment="1" strokeStyle="0" markerStart="0" markerEnd="0" shadowEnabled="0" shadowOffsetX="0" shadowOffsetY="2" shadowBlur="4" shadowOpacity="160" blurEnabled="0" blurRadius="4" transform="matrix(0.362766,0,0,0.362766,105.096,59.457)" pers-center="0,0" pers-size="0,0" pers-start="0,0" pers-end="0,0" locked="0" mesh="" flag=""/>
            <path id="shapePath29" d="M102.177,60.6745 C101.199,60.5976 101.061,59.9023 101.992,59.5929 C103.079,59.2316 104.015,58.8836 104.713,58.8329 C105.767,58.7563 106.513,58.4233 108.282,58.2297 C108.956,58.4155 109.032,59.5455 108.369,59.7658 C107.172,60.1634 106.179,60.0174 105.173,60.1277 C104.242,60.2298 103.301,60.7629 102.177,60.6745 Z" style="stroke:none;fill-rule:evenodd;fill:#020202;fill-opacity:1;"/>
        </g>
        <g id="Shape30">
            <desc shapeID="30" type="0" basicInfo-basicType="0" basicInfo-roundedRectRadius="12" basicInfo-polygonSides="6" basicInfo-starPoints="5" bounding="rect(-23.0815,-23.3653,46.1631,46.7306)" text="" font-familyName="Helvetica" font-pixelSize="20" font-bold="0" font-underline="0" font-alignment="1" strokeStyle="0" markerStart="0" markerEnd="0" shadowEnabled="0" shadowOffsetX="0" shadowOffsetY="2" shadowBlur="4" shadowOpacity="160" blurEnabled="0" blurRadius="4" transform="matrix(0.362766,0,0,0.362766,96.4675,72.82)" pers-center="0,0" pers-size="0,0" pers-start="0,0" pers-end="0,0" locked="0" mesh="" flag=""/>
            <path id="shapePath30" d="M91.7569,66.0377 C93.3474,66.3349 94.9956,66.1289 96.6111,66.0377 C97.9848,65.9602 99.3343,65.4511 100.708,65.5327 C101.301,65.5679 102.069,65.8185 102.279,66.3744 C102.913,68.0538 102.892,69.9166 103.037,71.7057 C103.145,73.0388 103.466,74.4513 103.037,75.7181 C102.624,76.9357 101.664,77.9564 100.652,78.7485 C99.7953,79.4185 98.7062,79.8851 97.6212,79.9551 C96.0082,80.0591 94.3486,79.7878 92.8231,79.2536 C91.692,78.8575 90.9872,78.1442 90.1465,77.29 C89.7647,76.9021 89.503,76.1334 89.0323,75.8601 C88.6521,75.6393 88.1727,75.7881 88.1092,76.2232 C88.0062,76.928 88.454,77.677 88.951,78.1873 C89.8885,79.1503 90.9931,80.0451 92.2619,80.4882 C94.0189,81.1017 95.9316,81.3805 97.7896,81.2738 C99.1156,81.1977 100.475,80.7354 101.55,79.9551 C102.713,79.1106 103.735,77.9323 104.243,76.588 C104.855,74.9698 104.92,73.1492 104.776,71.4251 C104.626,69.6209 104.059,67.8538 103.373,66.178 C103.095,65.4963 102.588,64.8488 101.942,64.4945 C101.434,64.2154 100.782,64.4027 100.203,64.4384 C98.9542,64.5152 97.7184,64.7411 96.4708,64.8312 C94.7955,64.9521 93.0648,64.6546 91.4376,65.0711 C91.1088,65.1552 91.4233,65.9754 91.7569,66.0377 Z" style="stroke:none;fill-rule:evenodd;fill:#020202;fill-opacity:1;"/>
        </g>
        <g id="Shape31">
            <desc shapeID="31" type="0" basicInfo-basicType="0" basicInfo-roundedRectRadius="12" basicInfo-polygonSides="6" basicInfo-starPoints="5" bounding="rect(0,0,0,0)" text="" font-familyName="Helvetica" font-pixelSize="20" font-bold="0" font-underline="0" font-alignment="1" strokeStyle="0" markerStart="0" markerEnd="0" shadowEnabled="0" shadowOffsetX="0" shadowOffsetY="2" shadowBlur="4" shadowOpacity="160" blurEnabled="0" blurRadius="4" transform="matrix(0.362766,0,0,0.362766,144.526,59.2341)" pers-center="0,0" pers-size="0,0" pers-start="0,0" pers-end="0,0" locked="0" mesh="" flag=""/>
            <path id="shapePath31" d="M144.526,59.2341 Z" style="stroke:none;fill-rule:evenodd;fill:#020202;fill-opacity:1;"/>
        </g>
        <g id="Shape32">
            <desc shapeID="32" type="0" basicInfo-basicType="0" basicInfo-roundedRectRadius="12" basicInfo-polygonSides="6" basicInfo-starPoints="5" bounding="rect(-10.2611,-4.25336,20.5223,8.50674)" text="" font-familyName="Helvetica" font-pixelSize="20" font-bold="0" font-underline="0" font-alignment="1" strokeStyle="0" markerStart="0" markerEnd="0" shadowEnabled="0" shadowOffsetX="0" shadowOffsetY="2" shadowBlur="4" shadowOpacity="160" blurEnabled="0" blurRadius="4" transform="matrix(0.362766,0,0,0.362766,149.033,58.5847)" pers-center="0,0" pers-size="0,0" pers-start="0,0" pers-end="0,0" locked="0" mesh="" flag=""/>
            <path id="shapePath32" d="M145.437,59.1203 C147.534,58.093 149.795,57.146 152.127,57.0421 C152.726,57.0155 153.007,58.5435 152.469,58.8071 C150.442,59.7999 148.083,60.0271 145.829,60.1275 C145.469,60.1435 145.114,59.2788 145.437,59.1203 Z" style="stroke:none;fill-rule:evenodd;fill:#020202;fill-opacity:1;"/>
        </g>
        <g id="Shape33">
            <desc shapeID="33" type="0" basicInfo-basicType="0" basicInfo-roundedRectRadius="12" basicInfo-polygonSides="6" basicInfo-starPoints="5" bounding="rect(-11.815,-5.41112,23.63,10.8222)" text="" font-familyName="Helvetica" font-pixelSize="20" font-bold="0" font-underline="0" font-alignment="1" strokeStyle="0" markerStart="0" markerEnd="0" shadowEnabled="0" shadowOffsetX="0" shadowOffsetY="2" shadowBlur="4" shadowOpacity="160" blurEnabled="0" blurRadius="4" transform="matrix(0.362766,0,0,0.362766,149.587,62.242)" pers-center="0,0" pers-size="0,0" pers-start="0,0" pers-end="0,0" locked="0" mesh="" flag=""/>
            <path id="shapePath33" d="M153.494,60.3095 C154.078,60.4073 153.914,61.668 153.494,62.0857 C152.808,62.7688 151.689,62.8014 150.751,63.0405 C148.913,63.5091 147.683,64.2049 145.786,64.2049 C145.383,64.2049 145.114,63.2474 145.46,63.0405 C146.936,62.1576 148.127,61.9799 149.766,61.4615 C151.007,61.0695 152.212,60.0947 153.494,60.3095 Z" style="stroke:none;fill-rule:evenodd;fill:#020202;fill-opacity:1;"/>
        </g>
        <g id="Shape34">
            <desc shapeID="34" type="0" basicInfo-basicType="0" basicInfo-roundedRectRadius="12" basicInfo-polygonSides="6" basicInfo-starPoints="5" bounding="rect(-11.6301,-4.37592,23.2602,8.75185)" text="" font-familyName="Helvetica" font-pixelSize="20" font-bold="0" font-underline="0" font-alignment="1" strokeStyle="0" markerStart="0" markerEnd="0" shadowEnabled="0" shadowOffsetX="0" shadowOffsetY="2" shadowBlur="4" shadowOpacity="160" blurEnabled="0" blurRadius="4" transform="matrix(0.362766,0,0,0.362766,150.993,66.8547)" pers-center="0,0" pers-size="0,0" pers-start="0,0" pers-end="0,0" locked="0" mesh="" flag=""/>
            <path id="shapePath34" d="M146.904,67.2981 C149.149,66.2033 151.55,65.4217 154.117,65.268 C154.712,65.2324 155.58,66.5356 155.045,66.7969 C152.763,67.9094 150.143,68.2898 147.61,68.4415 C147.118,68.4709 146.502,67.4944 146.904,67.2981 Z" style="stroke:none;fill-rule:evenodd;fill:#020202;fill-opacity:1;"/>
        </g>
        <g id="Shape35">
            <desc shapeID="35" type="0" basicInfo-basicType="0" basicInfo-roundedRectRadius="12" basicInfo-polygonSides="6" basicInfo-starPoints="5" bounding="rect(-13.5681,-2.76492,27.1362,5.52982)" text="" font-familyName="Helvetica" font-pixelSize="20" font-bold="0" font-underline="0" font-alignment="1" strokeStyle="0" markerStart="0" markerEnd="0" shadowEnabled="0" shadowOffsetX="0" shadowOffsetY="2" shadowBlur="4" shadowOpacity="160" blurEnabled="0" blurRadius="4" transform="matrix(0.362766,0,0,0.362766,52.0047,63.444)" pers-center="0,0" pers-size="0,0" pers-start="0,0" pers-end="0,0" locked="0" mesh="" flag=""/>
            <path id="shapePath35" d="M47.2413,62.8154 C50.2711,62.3017 53.4189,62.3421 56.4604,62.7813 C56.9254,62.8485 57.1278,64.0976 56.6645,64.1761 C54.0588,64.6179 51.3519,64.4687 48.7361,64.091 C48.0878,63.9974 46.5955,62.9249 47.2413,62.8154 Z" style="stroke:none;fill-rule:evenodd;fill:#020202;fill-opacity:1;"/>
        </g>
        <g id="Shape36">
            <desc shapeID="36" type="0" basicInfo-basicType="0" basicInfo-roundedRectRadius="12" basicInfo-polygonSides="6" basicInfo-starPoints="5" bounding="rect(-13.5681,-2.48311,27.1362,4.96621)" text="" font-familyName="Helvetica" font-pixelSize="20" font-bold="0" font-underline="0" font-alignment="1" strokeStyle="0" markerStart="0" markerEnd="0" shadowEnabled="0" shadowOffsetX="0" shadowOffsetY="2" shadowBlur="4" shadowOpacity="160" blurEnabled="0" blurRadius="4" transform="matrix(0.362766,0,0,0.362766,50.2177,68.2997)" pers-center="0,0" pers-size="0,0" pers-start="0,0" pers-end="0,0" locked="0" mesh="" flag=""/>
            <path id="shapePath36" d="M45.4543,67.5689 C48.4841,67.0551 51.6318,67.8734 54.6733,67.8394 C55.1384,67.9065 55.3407,68.8511 54.8774,68.9296 C52.2717,69.3714 49.5649,69.2222 46.9491,68.8445 C46.3008,68.7509 44.8084,67.6784 45.4543,67.5689 Z" style="stroke:none;fill-rule:evenodd;fill:#020202;fill-opacity:1;"/>
        </g>
        <g id="Shape37">
            <desc shapeID="37" type="0" basicInfo-basicType="0" basicInfo-roundedRectRadius="12" basicInfo-polygonSides="6" basicInfo-starPoints="5" bounding="rect(-13.5681,-2.48311,27.1362,4.96621)" text="" font-familyName="Helvetica" font-pixelSize="20" font-bold="0" font-underline="0" font-alignment="1" strokeStyle="0" markerStart="0" markerEnd="0" shadowEnabled="0" shadowOffsetX="0" shadowOffsetY="2" shadowBlur="4" shadowOpacity="160" blurEnabled="0" blurRadius="4" transform="matrix(0.362766,0,0,0.362766,48.7253,73.2463)" pers-center="0,0" pers-size="0,0" pers-start="0,0" pers-end="0,0" locked="0" mesh="" flag=""/>
            <path id="shapePath37" d="M43.9619,72.5154 C46.9917,72.0017 50.1395,72.82 53.181,72.786 C53.6461,72.8531 53.8484,73.7976 53.3851,73.8762 C50.7794,74.318 48.0726,74.1688 45.4567,73.7911 C44.8084,73.6975 43.3161,72.6249 43.9619,72.5154 Z" style="stroke:none;fill-rule:evenodd;fill:#020202;fill-opacity:1;"/>
        </g>
    </g>
</svg>
