<?xml version="1.0"?>
<svg version="1.1" xmlns="http://www.w3.org/2000/svg" xmlns:xlink="http://www.w3.org/1999/xlink" width="100" height="100">
    <desc iVinci="yes" version="4.6" gridStep="20" showGrid="no" snapToGrid="no" codePlatform="0"/>
    <g id="Layer1" name="Layer 1" opacity="1">
        <g id="Shape1">
            <desc shapeID="1" type="0" basicInfo-basicType="0" basicInfo-roundedRectRadius="12" basicInfo-polygonSides="6" basicInfo-starPoints="5" bounding="rect(-79.6651,-58.3379,159.33,116.676)" text="" font-familyName="" font-pixelSize="20" font-bold="0" font-underline="0" font-alignment="1" strokeStyle="0" markerStart="0" markerEnd="0" shadowEnabled="0" shadowOffsetX="0" shadowOffsetY="2" shadowBlur="4" shadowOpacity="160" blurEnabled="0" blurRadius="4" transform="matrix(0.615518,0,0,0.615518,50,39.4737)" pers-center="0,0" pers-size="0,0" pers-start="0,0" pers-end="0,0" locked="0" mesh="" flag=""/>
            <path id="shapePath1" d="M41.115,5.5308 C32.19,8.60839 29.5432,9.83943 24.4345,13.4094 C19.3872,16.8563 17.2329,19.2569 14.6477,24.2426 C12.9242,27.5048 12.9242,27.6279 13.232,36.2452 L13.6014,44.9855 L11.2624,44.9855 C5.66116,44.9855 -0.678711,54.2798 1.35253,59.6348 C2.15266,61.7276 5.10717,63.5126 9.23112,64.4359 C12.3703,65.1745 14.2784,64.9283 18.4024,63.328 C18.8948,63.1433 20.6182,64.4974 22.6494,66.7133 C24.6191,68.8061 27.6351,71.2066 29.7894,72.3761 C34.8367,75.0844 44.0695,76.0076 55.7027,74.9613 C62.7812,74.2842 64.1354,73.9764 67.4592,72.253 C72.6295,69.4831 76.8766,64.9899 80.2619,58.7731 C83.0318,53.6643 83.0933,53.6028 85.8631,53.2335 C91.3412,52.4333 97.3734,48.2478 98.6659,44.3084 C99.1584,42.8928 99.1584,41.6002 98.6659,39.9383 C97.9273,37.1069 97.2502,36.2452 94.1726,33.9677 C92.0183,32.3058 91.5875,32.2443 87.6481,32.5521 L83.4627,32.9214 L82.2316,29.9053 L80.939,26.8893 L84.8783,23.3808 C87.5866,20.9803 88.8176,19.5031 88.8176,18.5182 C88.8176,17.1025 87.4019,15.1329 86.3556,15.1329 C85.617,15.1329 76.5073,16.9179 75.2762,17.2872 C74.5376,17.5334 73.6759,16.7332 72.3217,14.6405 C71.2754,12.9786 69.0595,10.3934 67.3976,8.85461 C63.7045,5.4077 59.8883,4.05357 52.5021,3.68425 C47.701,3.37649 46.7162,3.56115 41.115,5.5308 M57.6109,8.05443 C62.4734,9.34702 63.8276,10.3318 67.8285,15.8715 C75.0916,26.0276 76.4457,28.1819 78.6001,33.66 C80.5081,38.2764 80.939,40.246 81.0006,44.0007 C81.0621,48.6171 81.0621,48.7402 77.4305,55.4493 C73.0604,63.5126 69.6135,67.1442 63.8276,69.9756 L59.5805,72.0683 L47.7626,72.253 L36.0062,72.4992 L31.4514,70.3449 C28.0044,68.683 25.9117,67.0826 22.2801,63.3895 C16.6789,57.5421 15.8172,56.0033 14.8939,50.0943 C13.9091,44.0007 14.5862,29.9669 15.9403,27.3202 C20.1874,19.0722 29.1739,12.7324 42.6538,8.30064 C46.8393,6.9465 52.9329,6.82339 57.6109,8.05443 M86.3556,18.4567 C86.3556,19.38 81.0621,24.3657 80.1388,24.3657 C79.154,24.3657 78.2923,21.7805 78.6616,20.057 C78.9693,18.5798 79.4002,18.272 81.3083,18.0258 C85.9247,17.5334 86.3556,17.595 86.3556,18.4567 M77.1228,19.4415 C77.1228,19.7493 76.9997,20.057 76.8766,20.057 C76.692,20.057 76.3842,19.7493 76.1995,19.4415 C76.0148,19.0722 76.138,18.826 76.4457,18.826 C76.815,18.826 77.1228,19.0722 77.1228,19.4415 M93.1878,37.23 C95.9576,39.9998 96.3269,42.3388 94.3573,44.8009 C93.0647,46.5243 88.079,49.8481 85.9247,50.4636 C84.6321,50.8945 84.6321,50.7714 85.2476,48.5555 C85.8631,46.2166 85.617,37.9071 84.8168,35.8758 C84.4475,34.9526 84.7552,34.8295 87.5866,34.8295 C90.4795,34.8295 91.0335,35.0757 93.1878,37.23 M13.232,50.2174 C12.8627,54.2183 14.0937,58.5269 16.3712,61.1121 L18.1561,63.1433 L13.6629,61.543 C11.1393,60.6197 8.30784,59.3886 7.38456,58.7116 C5.90738,57.6652 5.72269,57.1728 6.03045,55.5109 C6.76904,52.064 10.8315,47.3245 13.1704,47.1398 C13.3551,47.1398 13.4167,48.5555 13.232,50.2174 Z" style="stroke:none;fill-rule:nonzero;fill:#000000;fill-opacity:1;"/>
        </g>
        <g id="Shape2">
            <desc shapeID="2" type="0" basicInfo-basicType="0" basicInfo-roundedRectRadius="12" basicInfo-polygonSides="6" basicInfo-starPoints="5" bounding="rect(-2.81885,-2.60215,5.63782,5.2043)" text="" font-familyName="" font-pixelSize="20" font-bold="0" font-underline="0" font-alignment="1" strokeStyle="0" markerStart="0" markerEnd="0" shadowEnabled="0" shadowOffsetX="0" shadowOffsetY="2" shadowBlur="4" shadowOpacity="160" blurEnabled="0" blurRadius="4" transform="matrix(0.615518,0,0,0.615518,59.3842,48.4936)" pers-center="0,0" pers-size="0,0" pers-start="0,0" pers-end="0,0" locked="0" mesh="" flag=""/>
            <path id="shapePath2" d="M58.3495,47.5707 C57.4262,48.4324 57.4262,48.6171 58.2879,49.4788 C59.0265,50.279 59.3958,50.279 60.1345,49.6019 C60.6885,49.171 61.1193,48.494 61.1193,48.0631 C61.1193,46.7705 59.3958,46.4628 58.3495,47.5707 Z" style="stroke:none;fill-rule:nonzero;fill:#000000;fill-opacity:1;"/>
        </g>
        <g id="Shape3">
            <desc shapeID="3" type="0" basicInfo-basicType="0" basicInfo-roundedRectRadius="12" basicInfo-polygonSides="6" basicInfo-starPoints="5" bounding="rect(-4.01065,-3.34067,8.02119,6.68134)" text="" font-familyName="" font-pixelSize="20" font-bold="0" font-underline="0" font-alignment="1" strokeStyle="0" markerStart="0" markerEnd="0" shadowEnabled="0" shadowOffsetX="0" shadowOffsetY="2" shadowBlur="4" shadowOpacity="160" blurEnabled="0" blurRadius="4" transform="matrix(0.615518,0,0,0.615518,38.285,49.8335)" pers-center="0,0" pers-size="0,0" pers-start="0,0" pers-end="0,0" locked="0" mesh="" flag=""/>
            <path id="shapePath3" d="M36.3139,48.1862 C34.529,49.9097 37.9759,53.0488 39.8839,51.4485 C41.0534,50.4636 41.0534,49.9097 39.8224,48.7402 C38.8376,47.7554 36.991,47.4476 36.3139,48.1862 Z" style="stroke:none;fill-rule:nonzero;fill:#000000;fill-opacity:1;"/>
        </g>
        <g id="Shape4">
            <desc shapeID="4" type="0" basicInfo-basicType="0" basicInfo-roundedRectRadius="12" basicInfo-polygonSides="6" basicInfo-starPoints="5" bounding="rect(-7.66855,-7.3755,15.337,14.751)" text="" font-familyName="" font-pixelSize="20" font-bold="0" font-underline="0" font-alignment="1" strokeStyle="0" markerStart="0" markerEnd="0" shadowEnabled="0" shadowOffsetX="0" shadowOffsetY="2" shadowBlur="4" shadowOpacity="160" blurEnabled="0" blurRadius="4" transform="matrix(0.615518,0,0,0.615518,52.7061,65.3104)" pers-center="0,0" pers-size="0,0" pers-start="0,0" pers-end="0,0" locked="0" mesh="" flag=""/>
            <path id="shapePath4" d="M50.6555,61.6045 C48.1934,62.2816 47.8857,62.5278 48.0088,64.0666 C48.255,67.5135 52.0096,70.8988 54.1639,69.5447 C55.0872,68.9907 57.3647,63.2664 57.4262,61.4198 C57.4262,60.4966 54.4717,60.5581 50.6555,61.6045 Z" style="stroke:none;fill-rule:nonzero;fill:#000000;fill-opacity:1;"/>
        </g>
        <g id="Shape5">
            <desc shapeID="5" type="0" basicInfo-basicType="0" basicInfo-roundedRectRadius="12" basicInfo-polygonSides="6" basicInfo-starPoints="5" bounding="rect(-1.9778,-2.97039,3.9557,5.94079)" text="" font-familyName="" font-pixelSize="20" font-bold="0" font-underline="0" font-alignment="1" strokeStyle="0" markerStart="0" markerEnd="0" shadowEnabled="0" shadowOffsetX="0" shadowOffsetY="2" shadowBlur="4" shadowOpacity="160" blurEnabled="0" blurRadius="4" transform="matrix(0.615518,0,0,0.615518,80.214,20.6908)" pers-center="0,0" pers-size="0,0" pers-start="0,0" pers-end="0,0" locked="0" mesh="" flag=""/>
            <path id="shapePath5" d="M79.7079,19.5646 C78.9078,20.3648 78.7231,22.5191 79.4618,22.5191 C80.3235,22.5191 81.4314,21.1034 81.4314,19.9339 C81.4314,18.6413 80.7544,18.5182 79.7079,19.5646 Z" style="stroke:none;fill-rule:nonzero;fill:#000000;fill-opacity:1;"/>
        </g>
        <g id="Shape6">
            <desc shapeID="6" type="0" basicInfo-basicType="0" basicInfo-roundedRectRadius="12" basicInfo-polygonSides="6" basicInfo-starPoints="5" bounding="rect(-5.99142,-11.9116,11.9828,23.8232)" text="" font-familyName="" font-pixelSize="20" font-bold="0" font-underline="0" font-alignment="1" strokeStyle="0" markerStart="0" markerEnd="0" shadowEnabled="0" shadowOffsetX="0" shadowOffsetY="2" shadowBlur="4" shadowOpacity="160" blurEnabled="0" blurRadius="4" transform="matrix(0.615518,0,0,0.615518,66.2044,84.632)" pers-center="0,0" pers-size="0,0" pers-start="0,0" pers-end="0,0" locked="0" mesh="" flag=""/>
            <path id="shapePath6" d="M62.8752,80.5009 C62.2597,85.8559 62.4444,89.9183 63.3677,91.2109 C64.6603,92.8728 65.4605,91.7649 65.7066,88.0718 C65.8913,84.6249 66.9376,84.1325 67.4301,87.2716 C67.6148,88.5642 68.1071,89.3644 68.8458,89.4875 C69.6459,89.6721 69.8922,89.2413 69.8922,87.5178 C69.8922,83.3938 67.7379,80.9318 65.7682,82.9014 C65.3373,83.3323 65.0296,82.5937 64.7218,80.4394 C64.4756,78.7159 64.1063,77.3002 63.7985,77.3002 C63.5523,77.3002 63.1215,78.7775 62.8752,80.5009 Z" style="stroke:none;fill-rule:nonzero;fill:#000000;fill-opacity:1;"/>
        </g>
        <g id="Shape7">
            <desc shapeID="7" type="0" basicInfo-basicType="0" basicInfo-roundedRectRadius="12" basicInfo-polygonSides="6" basicInfo-starPoints="5" bounding="rect(-6.53118,-13.4361,13.0623,26.8722)" text="" font-familyName="" font-pixelSize="20" font-bold="0" font-underline="0" font-alignment="1" strokeStyle="0" markerStart="0" markerEnd="0" shadowEnabled="0" shadowOffsetX="0" shadowOffsetY="2" shadowBlur="4" shadowOpacity="160" blurEnabled="0" blurRadius="4" transform="matrix(0.615518,0,0,0.615518,34.1224,87.4176)" pers-center="0,0" pers-size="0,0" pers-start="0,0" pers-end="0,0" locked="0" mesh="" flag=""/>
            <path id="shapePath7" d="M30.1912,79.8854 C30.0066,80.3163 30.1297,84.0094 30.3759,88.0718 C30.7452,94.4116 30.9298,95.458 31.9147,95.6427 C32.6533,95.8273 32.9611,95.458 32.9611,94.2885 C32.9611,93.4268 33.2073,92.6266 33.5151,92.3804 C33.8228,92.1958 34.2537,91.2109 34.4999,90.2261 C35.1154,87.3332 35.9771,88.0718 36.1617,91.5802 C36.2849,93.9808 36.5927,94.8425 37.2697,94.8425 C38.0083,94.8425 38.193,94.1039 38.1314,91.5802 C38.0083,88.1949 37.1466,86.533 35.4847,86.533 C34.8692,86.533 34.1306,85.6713 33.6381,84.3787 C33.2073,83.2092 32.5918,82.2244 32.284,82.2244 C31.9763,82.2244 31.73,81.5473 31.73,80.6856 C31.73,79.0852 30.6837,78.5928 30.1912,79.8854 Z" style="stroke:none;fill-rule:nonzero;fill:#000000;fill-opacity:1;"/>
        </g>
        <g id="Shape8">
            <desc shapeID="8" type="0" basicInfo-basicType="0" basicInfo-roundedRectRadius="12" basicInfo-polygonSides="6" basicInfo-starPoints="5" bounding="rect(-10.3585,-7.9398,20.717,15.8796)" text="" font-familyName="" font-pixelSize="20" font-bold="0" font-underline="0" font-alignment="1" strokeStyle="0" markerStart="0" markerEnd="0" shadowEnabled="0" shadowOffsetX="0" shadowOffsetY="2" shadowBlur="4" shadowOpacity="160" blurEnabled="0" blurRadius="4" transform="matrix(0.615518,0,0,0.615518,77.4991,85.3298)" pers-center="0,0" pers-size="0,0" pers-start="0,0" pers-end="0,0" locked="0" mesh="" flag=""/>
            <path id="shapePath8" d="M77.4015,81.1164 C76.9706,81.5473 76.6629,82.7168 76.6629,83.7632 C76.6629,85.5482 75.7396,87.1485 74.7548,87.1485 C74.5086,87.1485 74.0161,85.9175 73.6468,84.3787 C72.6005,80.1932 71.1232,81.0549 71.1232,85.8559 C71.1232,90.1645 75.1241,91.8264 77.2169,88.318 C77.8939,87.2101 78.571,86.7176 78.7557,87.087 C79.0019,87.4563 79.8635,87.764 80.6637,87.764 C82.3872,87.764 84.4184,84.6249 83.7413,82.963 C83.4336,82.1012 83.3105,82.1012 82.3872,83.0245 C81.4639,83.9478 81.2793,83.8863 80.2329,82.2244 C79.0634,80.1932 78.5094,80.0085 77.4015,81.1164 Z" style="stroke:none;fill-rule:nonzero;fill:#000000;fill-opacity:1;"/>
        </g>
        <g id="Shape9">
            <desc shapeID="9" type="0" basicInfo-basicType="0" basicInfo-roundedRectRadius="12" basicInfo-polygonSides="6" basicInfo-starPoints="5" bounding="rect(-6.3607,-6.87666,12.7215,13.7533)" text="" font-familyName="" font-pixelSize="20" font-bold="0" font-underline="0" font-alignment="1" strokeStyle="0" markerStart="0" markerEnd="0" shadowEnabled="0" shadowOffsetX="0" shadowOffsetY="2" shadowBlur="4" shadowOpacity="160" blurEnabled="0" blurRadius="4" transform="matrix(0.615518,0,0,0.615518,57.3936,88.3849)" pers-center="0,0" pers-size="0,0" pers-start="0,0" pers-end="0,0" locked="0" mesh="" flag=""/>
            <path id="shapePath9" d="M54.935,85.302 C53.0885,87.5178 52.9654,89.3644 54.7504,91.0878 C56.597,92.9959 58.382,93.119 60.0439,91.4571 C62.1367,89.3644 61.5827,86.4099 58.7513,84.9942 C56.5354,83.8247 56.2277,83.8247 54.935,85.302 M58.4435,87.9487 C59.1821,89.1182 58.6282,89.9183 57.274,89.4259 C56.2277,88.9951 55.9815,86.2868 57.0894,86.6561 C57.4587,86.7792 58.0742,87.3947 58.4435,87.9487 Z" style="stroke:none;fill-rule:nonzero;fill:#000000;fill-opacity:1;"/>
        </g>
        <g id="Shape10">
            <desc shapeID="10" type="0" basicInfo-basicType="0" basicInfo-roundedRectRadius="12" basicInfo-polygonSides="6" basicInfo-starPoints="5" bounding="rect(-8.88632,-7.5148,17.7727,15.0296)" text="" font-familyName="" font-pixelSize="20" font-bold="0" font-underline="0" font-alignment="1" strokeStyle="0" markerStart="0" markerEnd="0" shadowEnabled="0" shadowOffsetX="0" shadowOffsetY="2" shadowBlur="4" shadowOpacity="160" blurEnabled="0" blurRadius="4" transform="matrix(0.615518,0,0,0.615518,44.8026,89.9054)" pers-center="0,0" pers-size="0,0" pers-start="0,0" pers-end="0,0" locked="0" mesh="" flag=""/>
            <path id="shapePath10" d="M45.0252,86.4099 C44.779,87.0869 44.779,88.0718 45.0252,88.6257 C45.3945,89.6106 44.3482,91.4571 43.3634,91.4571 C43.0556,91.4571 42.8094,90.657 42.8094,89.6721 C42.8094,86.2252 40.2858,86.7176 39.424,90.3492 C38.6238,93.4268 43.3018,96.012 45.333,93.5499 C45.7639,93.0575 46.564,92.7497 47.118,92.8728 C49.2108,93.4268 51.4882,90.7801 49.5185,90.103 C49.1492,89.9799 48.6568,88.9335 48.4106,87.764 C47.9182,85.2404 45.6407,84.3787 45.0252,86.4099 Z" style="stroke:none;fill-rule:nonzero;fill:#000000;fill-opacity:1;"/>
        </g>
        <g id="Shape11">
            <desc shapeID="11" type="0" basicInfo-basicType="0" basicInfo-roundedRectRadius="12" basicInfo-polygonSides="6" basicInfo-starPoints="5" bounding="rect(-8.1829,-8.00243,16.3658,16.0049)" text="" font-familyName="" font-pixelSize="20" font-bold="0" font-underline="0" font-alignment="1" strokeStyle="0" markerStart="0" markerEnd="0" shadowEnabled="0" shadowOffsetX="0" shadowOffsetY="2" shadowBlur="4" shadowOpacity="160" blurEnabled="0" blurRadius="4" transform="matrix(0.615518,0,0,0.615518,22.3847,91.5087)" pers-center="0,0" pers-size="0,0" pers-start="0,0" pers-end="0,0" locked="0" mesh="" flag=""/>
            <path id="shapePath11" d="M21.7587,86.9639 C19.3581,87.3331 16.6499,91.888 17.5116,94.0423 C19.3581,98.9665 27.4214,95.6426 27.4214,89.9183 C27.4214,88.5026 25.3286,86.4099 24.0361,86.5945 C23.7283,86.6561 22.682,86.8407 21.7587,86.9639 M23.6052,90.9647 C23.4206,91.3956 22.805,91.888 22.128,92.0111 C21.1432,92.1958 21.0816,92.0726 21.8202,91.2109 C22.805,90.0414 23.913,89.9183 23.6052,90.9647 Z" style="stroke:none;fill-rule:nonzero;fill:#000000;fill-opacity:1;"/>
        </g>
    </g>
</svg>
