<?xml version="1.0"?>
<svg version="1.1" xmlns="http://www.w3.org/2000/svg" xmlns:xlink="http://www.w3.org/1999/xlink" width="100" height="100">
    <desc iVinci="yes" version="4.6" gridStep="20" showGrid="no" snapToGrid="no" codePlatform="0"/>
    <g id="Layer1" name="Layer 2" opacity="1">
        <g id="Shape1">
            <desc shapeID="1" type="0" basicInfo-basicType="0" basicInfo-roundedRectRadius="12" basicInfo-polygonSides="6" basicInfo-starPoints="5" bounding="rect(-45.6568,-20.1778,91.3136,40.3555)" text="" font-familyName="Helvetica" font-pixelSize="20" font-bold="0" font-underline="0" font-alignment="1" strokeStyle="0" markerStart="0" markerEnd="0" shadowEnabled="0" shadowOffsetX="0" shadowOffsetY="2" shadowBlur="4" shadowOpacity="160" blurEnabled="0" blurRadius="4" transform="matrix(1,0,0,1,50.2361,53.9522)" pers-center="0,0" pers-size="0,0" pers-start="0,0" pers-end="0,0" locked="0" mesh="" flag=""/>
            <path id="shapePath1" d="M6.93693,51.9136 C6.93693,51.8693 9.73417,46.6917 13.703,42.7113 C17.8462,38.556 27.8837,33.7744 27.8837,33.7744 C27.8837,33.7744 48.2865,33.9592 48.2865,33.7779 C48.2865,33.5965 72.5884,40.5788 72.5884,40.5788 C72.5884,40.5788 82.7444,49.828 82.7444,49.828 C82.7444,49.828 88.8199,47.7424 88.8199,47.7424 C88.8199,47.7424 95.8928,51.3695 95.8928,51.3695 C95.8928,51.3695 89.7267,55.8128 89.7267,55.8128 C89.7267,55.8128 78.7545,65.7875 78.7545,65.7875 C78.7545,65.7875 53.9086,71.6816 53.9086,71.6816 C53.9086,71.6816 43.7525,70.4121 43.7525,70.4121 C43.7525,70.4121 28.4278,74.1299 28.4278,74.1299 C28.4278,74.1299 9.11322,69.9587 9.11322,69.9587 C9.11322,69.9587 4.57928,61.2535 4.57928,61.2535 C4.57928,61.2535 6.93693,51.9136 6.93693,51.9136 Z" style="stroke:none;fill-rule:evenodd;fill:#eefbfc;fill-opacity:1;"/>
        </g>
        <g id="Shape2">
            <desc shapeID="2" type="0" basicInfo-basicType="0" basicInfo-roundedRectRadius="12" basicInfo-polygonSides="6" basicInfo-starPoints="5" bounding="rect(-4.07877,-3.22531,8.15754,6.45062)" text="" font-familyName="Helvetica" font-pixelSize="20" font-bold="0" font-underline="0" font-alignment="1" strokeStyle="0" markerStart="0" markerEnd="0" shadowEnabled="0" shadowOffsetX="0" shadowOffsetY="2" shadowBlur="4" shadowOpacity="160" blurEnabled="0" blurRadius="4" transform="matrix(1,0,0,1,28.9864,56.1689)" pers-center="0,0" pers-size="0,0" pers-start="0,0" pers-end="0,0" locked="0" mesh="" flag=""/>
            <path id="shapePath2" d="M29.3388,59.2426 C27.2282,60.0383 23.9984,57.5358 25.1483,55.5953 C26.7507,52.8913 31.239,52.4916 32.8309,53.3449 C33.7772,54.4868 31.704,58.3509 29.3388,59.2426 Z" style="stroke:none;fill-rule:evenodd;fill:#7d6b69;fill-opacity:1;"/>
        </g>
        <g id="Shape3">
            <desc shapeID="3" type="0" basicInfo-basicType="0" basicInfo-roundedRectRadius="12" basicInfo-polygonSides="6" basicInfo-starPoints="5" bounding="rect(-23.7692,-6.11013,47.5384,12.2203)" text="" font-familyName="Helvetica" font-pixelSize="20" font-bold="0" font-underline="0" font-alignment="1" strokeStyle="0" markerStart="0" markerEnd="0" shadowEnabled="0" shadowOffsetX="0" shadowOffsetY="2" shadowBlur="4" shadowOpacity="160" blurEnabled="0" blurRadius="4" transform="matrix(1,0,0,1,29.4244,67.2091)" pers-center="0,0" pers-size="0,0" pers-start="0,0" pers-end="0,0" locked="0" mesh="" flag=""/>
            <path id="shapePath3" d="M5.65518,64.4432 C5.65518,64.4432 14.0634,68.7404 29.131,68.7404 C41.9384,68.7404 53.1936,61.0989 53.1936,61.0989 C53.1936,61.0989 51.2492,66.9173 48.2225,68.7404 C42.7286,72.0497 36.0411,72.9831 29.515,73.239 C22.6408,73.5086 14.8829,73.2334 9.05201,70.2765 C6.15642,68.8082 5.65518,64.4432 5.65518,64.4432 Z" style="stroke:none;fill-rule:evenodd;fill:#a7b6c4;fill-opacity:1;"/>
        </g>
        <g id="Shape4">
            <desc shapeID="4" type="0" basicInfo-basicType="0" basicInfo-roundedRectRadius="12" basicInfo-polygonSides="6" basicInfo-starPoints="5" bounding="rect(-21.2677,-8.2912,42.5354,16.5824)" text="" font-familyName="Helvetica" font-pixelSize="20" font-bold="0" font-underline="0" font-alignment="1" strokeStyle="0" markerStart="0" markerEnd="0" shadowEnabled="0" shadowOffsetX="0" shadowOffsetY="2" shadowBlur="4" shadowOpacity="160" blurEnabled="0" blurRadius="4" transform="matrix(1,0,0,1,67.207,63.1368)" pers-center="0,0" pers-size="0,0" pers-start="0,0" pers-end="0,0" locked="0" mesh="" flag=""/>
            <path id="shapePath4" d="M50.1365,67.3861 C50.1365,67.3861 54.7026,68.3584 58.619,68.0234 C63.3085,67.6222 69.6383,65.2363 69.6383,65.2363 C69.6383,65.2363 71.9417,65.8506 71.9417,65.8506 C71.9417,65.8506 75.0544,64.2397 77.9223,62.417 C80.8127,60.58 83.4585,58.531 83.4585,58.531 C83.4585,58.531 88.4747,54.8456 88.4747,54.8456 C88.4747,54.8456 83.4585,61.0989 83.4585,61.0989 C83.4585,61.0989 74.4498,67.8468 74.4498,67.8468 C74.4498,67.8468 67.9323,70.0108 60.961,70.8619 C53.6836,71.7503 45.9393,71.3274 45.9393,71.3274 C45.9393,71.3274 50.1365,67.3861 50.1365,67.3861 Z" style="stroke:none;fill-rule:evenodd;fill:#a7b6c4;fill-opacity:1;"/>
        </g>
        <g id="Shape5">
            <desc shapeID="5" type="0" basicInfo-basicType="0" basicInfo-roundedRectRadius="12" basicInfo-polygonSides="6" basicInfo-starPoints="5" bounding="rect(-5.99144,-11.9116,11.9828,23.8232)" text="" font-familyName="" font-pixelSize="20" font-bold="0" font-underline="0" font-alignment="1" strokeStyle="0" markerStart="0" markerEnd="0" shadowEnabled="0" shadowOffsetX="0" shadowOffsetY="2" shadowBlur="4" shadowOpacity="160" blurEnabled="0" blurRadius="4" transform="matrix(0.614866,0.0283172,-0.0283172,0.614866,66.2907,85.3517)" pers-center="0,0" pers-size="0,0" pers-start="0,0" pers-end="0,0" locked="0" mesh="" flag=""/>
            <path id="shapePath5" d="M63.1551,81.0718 C62.2939,86.3929 62.2915,90.4594 63.1544,91.7932 C64.3691,93.5128 65.2195,92.4429 65.6352,88.765 C65.9783,85.3302 67.0461,84.8865 67.3937,88.0449 C67.5187,89.3447 67.9737,90.1667 68.706,90.3236 C69.4967,90.5448 69.7626,90.1258 69.8419,88.4041 C70.0316,84.2845 67.9928,81.726 65.9346,83.6029 C65.4843,84.0135 65.2109,83.2615 65.0026,81.0954 C64.8359,79.3624 64.5322,77.9312 64.2247,77.917 C63.9787,77.9057 63.4804,79.3616 63.1551,81.0718 Z" style="stroke:none;fill-rule:evenodd;fill:#000000;fill-opacity:1;"/>
        </g>
        <g id="Shape6">
            <desc shapeID="6" type="0" basicInfo-basicType="0" basicInfo-roundedRectRadius="12" basicInfo-polygonSides="6" basicInfo-starPoints="5" bounding="rect(-6.53119,-13.4361,13.0623,26.8723)" text="" font-familyName="" font-pixelSize="20" font-bold="0" font-underline="0" font-alignment="1" strokeStyle="0" markerStart="0" markerEnd="0" shadowEnabled="0" shadowOffsetX="0" shadowOffsetY="2" shadowBlur="4" shadowOpacity="160" blurEnabled="0" blurRadius="4" transform="matrix(0.614866,0.0283172,-0.0283172,0.614866,34.1145,86.6584)" pers-center="0,0" pers-size="0,0" pers-start="0,0" pers-end="0,0" locked="0" mesh="" flag=""/>
            <path id="shapePath6" d="M30.534,78.9534 C30.3298,79.3753 30.2829,83.0702 30.3419,87.1396 C30.4192,93.4897 30.5554,94.5434 31.5308,94.7733 C32.2601,94.9916 32.5846,94.6369 32.6384,93.4686 C32.6384,91.8809 32.517,90.9104 32.6384,89.2938 C33.3863,86.4323 35.9372,87.3973 35.9602,90.9105 C35.9728,93.3142 36.2406,94.1891 36.9169,94.2203 C37.6547,94.2542 37.8732,93.5249 37.9278,91.0011 C37.9606,87.6137 37.1762,85.3317 35.5161,85.2553 C34.9012,85.227 33.0709,86.0706 32.6384,84.7567 C32.3787,83.0313 32.3049,81.5349 32.0344,79.8235 C32.108,78.2248 31.0855,77.6848 30.534,78.9534 Z" style="stroke:none;fill-rule:evenodd;fill:#000000;fill-opacity:1;"/>
        </g>
        <g id="Shape7">
            <desc shapeID="7" type="0" basicInfo-basicType="0" basicInfo-roundedRectRadius="12" basicInfo-polygonSides="6" basicInfo-starPoints="5" bounding="rect(-10.3585,-7.93977,20.717,15.8795)" text="" font-familyName="" font-pixelSize="20" font-bold="0" font-underline="0" font-alignment="1" strokeStyle="0" markerStart="0" markerEnd="0" shadowEnabled="0" shadowOffsetX="0" shadowOffsetY="2" shadowBlur="4" shadowOpacity="160" blurEnabled="0" blurRadius="4" transform="matrix(0.614866,0.0283172,-0.0283172,0.614866,77.5413,86.5684)" pers-center="0,0" pers-size="0,0" pers-start="0,0" pers-end="0,0" locked="0" mesh="" flag=""/>
            <path id="shapePath7" d="M77.6377,82.355 C77.1874,82.7656 76.8263,83.9197 76.7781,84.965 C76.696,86.7481 75.7001,88.3042 74.7163,88.2589 C74.4704,88.2476 74.035,86.9953 73.7369,85.4411 C72.8843,81.2119 71.3689,82.0047 71.148,86.8006 C70.9498,91.1047 74.87,92.9489 77.122,89.5405 C77.8492,88.4649 78.5483,88.0041 78.7158,88.3816 C78.9447,88.7618 79.7913,89.1088 80.5906,89.1456 C82.3123,89.2249 84.4858,86.1826 83.8858,84.4913 C83.6181,83.6162 83.4951,83.6106 82.5303,84.4904 C81.5655,85.3703 81.384,85.3003 80.4151,83.5921 C79.3403,81.5092 78.7954,81.2992 77.6377,82.355 Z" style="stroke:none;fill-rule:evenodd;fill:#000000;fill-opacity:1;"/>
        </g>
        <g id="Shape8">
            <desc shapeID="8" type="0" basicInfo-basicType="0" basicInfo-roundedRectRadius="12" basicInfo-polygonSides="6" basicInfo-starPoints="5" bounding="rect(-6.36073,-6.87664,12.7216,13.7533)" text="" font-familyName="" font-pixelSize="20" font-bold="0" font-underline="0" font-alignment="1" strokeStyle="0" markerStart="0" markerEnd="0" shadowEnabled="0" shadowOffsetX="0" shadowOffsetY="2" shadowBlur="4" shadowOpacity="160" blurEnabled="0" blurRadius="4" transform="matrix(0.614866,0.0283172,-0.0283172,0.614866,57.3166,88.6953)" pers-center="0,0" pers-size="0,0" pers-start="0,0" pers-end="0,0" locked="0" mesh="" flag=""/>
            <path id="shapePath8" d="M55.0024,85.5026 C53.056,87.6311 52.848,89.4701 54.5518,91.2738 C56.3087,93.2648 58.0862,93.4699 59.8228,91.8862 C62.0096,89.892 61.5921,86.9151 58.8288,85.3707 C56.6691,84.1005 56.3617,84.0863 55.0024,85.5026 M58.3855,88.3079 C59.0695,89.5101 58.4794,90.2839 57.1492,89.7297 C56.1239,89.2512 56.0025,86.5345 57.0923,86.9544 C57.4555,87.0943 58.042,87.7375 58.3855,88.3079 Z" style="stroke:none;fill-rule:evenodd;fill:#000000;fill-opacity:1;"/>
        </g>
        <g id="Shape9">
            <desc shapeID="9" type="0" basicInfo-basicType="0" basicInfo-roundedRectRadius="12" basicInfo-polygonSides="6" basicInfo-starPoints="5" bounding="rect(-8.88636,-7.51479,17.7728,15.0296)" text="" font-familyName="" font-pixelSize="20" font-bold="0" font-underline="0" font-alignment="1" strokeStyle="0" markerStart="0" markerEnd="0" shadowEnabled="0" shadowOffsetX="0" shadowOffsetY="2" shadowBlur="4" shadowOpacity="160" blurEnabled="0" blurRadius="4" transform="matrix(0.614866,0.0283172,-0.0283172,0.614866,44.669,89.635)" pers-center="0,0" pers-size="0,0" pers-start="0,0" pers-end="0,0" locked="0" mesh="" flag=""/>
            <path id="shapePath9" d="M45.0522,86.1534 C44.7751,86.8184 44.7298,87.8022 44.9502,88.3669 C45.2738,89.3677 44.1437,91.1641 43.1599,91.1188 C42.8524,91.1046 42.6433,90.2941 42.6886,89.3102 C42.8472,85.867 40.3036,86.2427 39.2757,89.8308 C38.3347,92.8684 42.8888,95.666 45.0311,93.3 C45.4842,92.8279 46.2977,92.5573 46.8454,92.7057 C48.9105,93.3554 51.3073,90.8163 49.3708,90.0493 C49.0075,89.9093 48.5638,88.8414 48.3717,87.6618 C47.9959,85.1182 45.7604,84.1527 45.0522,86.1534 Z" style="stroke:none;fill-rule:evenodd;fill:#000000;fill-opacity:1;"/>
        </g>
        <g id="Shape10">
            <desc shapeID="10" type="0" basicInfo-basicType="0" basicInfo-roundedRectRadius="12" basicInfo-polygonSides="6" basicInfo-starPoints="5" bounding="rect(-8.18285,-8.00244,16.3657,16.0049)" text="" font-familyName="" font-pixelSize="20" font-bold="0" font-underline="0" font-alignment="1" strokeStyle="0" markerStart="0" markerEnd="0" shadowEnabled="0" shadowOffsetX="0" shadowOffsetY="2" shadowBlur="4" shadowOpacity="160" blurEnabled="0" blurRadius="4" transform="matrix(0.614866,0.0283172,-0.0283172,0.614866,22.2011,90.2052)" pers-center="0,0" pers-size="0,0" pers-start="0,0" pers-end="0,0" locked="0" mesh="" flag=""/>
            <path id="shapePath10" d="M21.7848,85.6364 C19.3698,85.8948 16.4549,90.3203 17.2166,92.5119 C18.8346,97.5159 27.0422,94.5664 27.3056,88.8482 C27.3707,87.434 25.3764,85.2472 24.0768,85.3722 C23.7665,85.4195 22.7128,85.5558 21.7848,85.6364 M23.9765,90.1242 C23.7723,90.5461 22.4668,91.2178 21.7848,91.3097 C20.7925,91.4489 20.2171,90.0523 20.9946,89.2255 C22.0322,88.1025 24.3322,89.093 23.9765,90.1242 Z" style="stroke:none;fill-rule:evenodd;fill:#000000;fill-opacity:1;"/>
        </g>
        <g id="Shape11">
            <desc shapeID="11" type="0" basicInfo-basicType="0" basicInfo-roundedRectRadius="12" basicInfo-polygonSides="6" basicInfo-starPoints="5" bounding="rect(-114.67,-53.8648,229.34,107.73)" text="" font-familyName="" font-pixelSize="20" font-bold="0" font-underline="0" font-alignment="1" strokeStyle="0" markerStart="0" markerEnd="0" shadowEnabled="0" shadowOffsetX="0" shadowOffsetY="2" shadowBlur="4" shadowOpacity="160" blurEnabled="0" blurRadius="4" transform="matrix(0.404769,0,0,0.404769,50.2724,53.312)" pers-center="0,0" pers-size="0,0" pers-start="0,0" pers-end="0,0" locked="0" mesh="" flag=""/>
            <path id="shapePath11" d="M36.6218,31.8248 C33.2218,31.9867 29.9431,32.3105 29.336,32.5533 C28.7288,32.7962 26.8264,33.4034 25.1669,33.8486 C20.2287,35.2653 17.962,36.7225 12.7405,41.863 C8.69279,45.8298 7.64035,47.125 6.26417,49.837 C4.19981,53.9251 3.59266,57.0419 3.95696,61.6967 C4.48318,68.9016 7.55941,72.0588 16.4643,74.5684 C19.1358,75.2969 28.6074,75.2969 34.5575,74.5684 C37.0671,74.2445 40.2242,73.8802 41.56,73.7183 C42.8957,73.5564 44.6362,73.1517 45.4053,72.8278 C46.5387,72.3421 47.9554,72.3016 52.4888,72.504 C57.0221,72.7064 58.6817,72.6255 60.7865,72.1397 C62.2437,71.7755 64.8342,71.2897 66.5342,71.0873 C68.3962,70.885 70.8653,70.1968 72.6057,69.4683 C74.2248,68.7802 76.2487,67.9301 77.0987,67.5658 C78.0297,67.1611 80.5393,64.9753 83.3726,62.1015 C87.5822,57.8109 88.5132,57.0823 91.8728,55.4228 C96.3252,53.1966 97.2966,52.1442 96.3657,50.4846 C95.8799,49.6346 95.4752,49.4322 94.1799,49.4322 C92.8037,49.4322 92.4799,49.2703 92.0752,48.2989 C91.4275,46.8822 89.8894,46.275 88.4322,46.8417 C87.7846,47.0845 86.1655,47.3274 84.7488,47.3679 C82.2797,47.4084 82.1988,47.3679 80.9845,45.8702 C79.0011,43.4416 73.9415,39.313 70.9867,37.7749 C67.1414,35.7915 60.0174,33.0795 58.3579,32.9986 C57.5888,32.9581 55.4841,32.5938 53.7031,32.1891 C50.2625,31.3795 47.5506,31.339 36.6218,31.8248 M54.9522,35.8725 C62.1584,36.8228 69.2879,38.9677 74.4677,44.6964 C76.1677,46.2345 77.6654,47.975 78.0297,48.7846 C78.3535,49.5941 79.4868,51.0918 80.5393,52.1442 C81.5916,53.1561 82.8059,54.4918 83.2512,55.099 C84.0607,56.1514 84.1417,56.1918 84.7893,55.5442 C85.3965,54.8966 85.3965,54.6942 84.8703,53.3989 C84.1012,51.537 84.1012,50.8084 84.8703,51.0918 C85.1941,51.2537 85.7607,51.1322 86.0846,50.8489 C86.4084,50.5656 86.6917,50.4846 86.6917,50.6465 C86.6917,50.7679 87.3393,50.5251 88.1084,50.0394 C89.2013,49.3513 89.6465,49.2703 90.3346,49.6346 C90.7799,49.8775 91.1442,50.4037 91.1442,50.7679 C91.1442,51.3346 91.4275,51.4561 92.8037,51.3346 C93.8156,51.2132 94.3823,51.2941 94.2609,51.537 C94.099,51.7799 91.9942,52.9132 89.5251,54.087 C85.356,56.1109 84.9917,56.3942 84.2631,58.0133 C83.7774,59.1467 83.1297,59.9157 82.4012,60.1586 C81.794,60.4014 80.2963,61.5348 79.0416,62.6681 C77.7868,63.8015 76.0058,65.0968 75.0344,65.5015 L73.3343,66.2706 L71.9986,64.8944 C70.501,63.2753 68.639,62.6277 64.6318,62.3443 C62.527,62.1824 61.5961,62.2634 61.0294,62.7086 C59.7746,63.6396 60.5032,64.4491 63.1747,64.9753 C64.5104,65.2587 66.5747,65.7444 67.7485,66.0682 C70.2986,66.8373 69.9747,67.1206 65.3199,68.0111 C63.4984,68.3754 60.746,68.9421 59.2484,69.2659 C57.3055,69.7111 55.646,69.8326 53.4197,69.6302 L50.303,69.3468 L51.8007,67.4849 C53.865,64.9753 54.5935,63.2753 55.3626,58.9038 C56.2531,54.168 55.7269,47.5298 54.1888,43.6845 C52.9745,40.7297 50.4649,37.5725 47.9148,35.8725 L46.0934,34.6581 L47.753,34.6581 C48.6435,34.6581 51.9974,35.1034 54.9522,35.8725 M41.3576,36.4391 C47.8744,38.7463 51.0316,42.4702 51.8816,49.0274 C52.084,50.3632 52.3673,52.3061 52.4888,53.318 C52.8531,55.5037 52.2054,59.9562 51.2744,61.8991 C50.9101,62.7086 49.6149,64.4087 48.4411,65.7444 C45.4458,69.023 42.7743,69.9945 33.0598,71.3302 C24.9645,72.4635 22.1311,72.4231 16.2619,71.0064 C11.4047,69.873 11.4857,69.9135 10.1904,68.7397 C9.54279,68.1325 8.6118,67.323 8.04512,66.9587 C7.23558,66.392 6.99273,65.7039 6.54749,62.5467 C6.06179,59.2276 6.06179,58.5395 6.70941,56.1918 C8.04512,51.1322 9.58326,48.6227 14.2786,43.7654 C18.9334,38.9487 20.9573,37.613 25.7335,35.9939 C28.2836,35.1439 29.1741,35.0629 33.4646,35.2248 C37.3504,35.3462 38.929,35.5891 41.3576,36.4391 Z" style="stroke:none;fill-rule:evenodd;fill:#000000;fill-opacity:1;"/>
        </g>
        <g id="Shape12">
            <desc shapeID="12" type="0" basicInfo-basicType="0" basicInfo-roundedRectRadius="12" basicInfo-polygonSides="6" basicInfo-starPoints="5" bounding="rect(-3.18931,-2.95745,6.37862,5.91491)" text="" font-familyName="" font-pixelSize="20" font-bold="0" font-underline="0" font-alignment="1" strokeStyle="0" markerStart="0" markerEnd="0" shadowEnabled="0" shadowOffsetX="0" shadowOffsetY="2" shadowBlur="4" shadowOpacity="160" blurEnabled="0" blurRadius="4" transform="matrix(0.404769,0,0,0.404769,37.9541,44.3898)" pers-center="0,0" pers-size="0,0" pers-start="0,0" pers-end="0,0" locked="0" mesh="" flag=""/>
            <path id="shapePath12" d="M37.148,43.6845 C36.2171,44.3726 36.7028,45.5869 37.9575,45.5869 C39.1314,45.5869 39.6171,44.6155 38.929,43.7654 C38.3218,43.0369 38.079,42.9964 37.148,43.6845 Z" style="stroke:none;fill-rule:nonzero;fill:#000000;fill-opacity:1;"/>
        </g>
        <g id="Shape13">
            <desc shapeID="13" type="0" basicInfo-basicType="0" basicInfo-roundedRectRadius="12" basicInfo-polygonSides="6" basicInfo-starPoints="5" bounding="rect(-2.90014,-3.75002,5.80035,7.50003)" text="" font-familyName="" font-pixelSize="20" font-bold="0" font-underline="0" font-alignment="1" strokeStyle="0" markerStart="0" markerEnd="0" shadowEnabled="0" shadowOffsetX="0" shadowOffsetY="2" shadowBlur="4" shadowOpacity="160" blurEnabled="0" blurRadius="4" transform="matrix(0.404769,0,0,0.404769,18.6722,47.6006)" pers-center="0,0" pers-size="0,0" pers-start="0,0" pers-end="0,0" locked="0" mesh="" flag=""/>
            <path id="shapePath13" d="M18.0025,46.275 C17.3953,46.5179 17.3143,48.6632 17.881,49.0274 C18.1239,49.1489 18.6501,49.1489 19.1358,49.0274 C19.7834,48.8251 19.9049,48.4608 19.8239,47.4893 C19.7025,46.2345 19.0549,45.7893 18.0025,46.275 Z" style="stroke:none;fill-rule:nonzero;fill:#000000;fill-opacity:1;"/>
        </g>
        <g id="Shape14">
            <desc shapeID="14" type="0" basicInfo-basicType="0" basicInfo-roundedRectRadius="12" basicInfo-polygonSides="6" basicInfo-starPoints="5" bounding="rect(-35.3433,-18.0736,70.6867,36.1471)" text="" font-familyName="" font-pixelSize="20" font-bold="0" font-underline="0" font-alignment="1" strokeStyle="0" markerStart="0" markerEnd="0" shadowEnabled="0" shadowOffsetX="0" shadowOffsetY="2" shadowBlur="4" shadowOpacity="160" blurEnabled="0" blurRadius="4" transform="matrix(0.404769,0,0,0.404769,31.4367,55.4934)" pers-center="0,0" pers-size="0,0" pers-start="0,0" pers-end="0,0" locked="0" mesh="" flag=""/>
            <path id="shapePath14" d="M31.036,48.3798 C27.7574,49.2703 23.7502,50.9703 22.2525,52.1442 C19.4192,54.4513 16.8691,59.1871 17.1524,61.6158 C17.3548,63.3967 18.0834,63.1539 18.6096,61.0896 C20.0263,55.8276 22.6168,53.1966 28.0407,51.4561 C31.8051,50.2822 34.4765,50.1608 37.7552,51.0918 C39.9814,51.6989 40.1433,51.8608 41.7219,54.5323 C42.7338,56.2323 43.3815,57.8109 43.3815,58.6205 C43.3815,60.3205 43.8672,61.0896 44.8386,60.8872 C46.7005,60.5634 45.5267,55.3014 42.7743,51.5775 C41.6409,50.0394 40.9933,49.5536 39.2528,49.0274 C36.6623,48.2584 32.6955,47.9346 31.036,48.3798 Z" style="stroke:none;fill-rule:nonzero;fill:#000000;fill-opacity:1;"/>
        </g>
        <g id="Shape15">
            <desc shapeID="15" type="0" basicInfo-basicType="0" basicInfo-roundedRectRadius="12" basicInfo-polygonSides="6" basicInfo-starPoints="5" bounding="rect(-12.2242,-11.417,24.4484,22.834)" text="" font-familyName="" font-pixelSize="20" font-bold="0" font-underline="0" font-alignment="1" strokeStyle="0" markerStart="0" markerEnd="0" shadowEnabled="0" shadowOffsetX="0" shadowOffsetY="2" shadowBlur="4" shadowOpacity="160" blurEnabled="0" blurRadius="4" transform="matrix(0.404769,0,0,0.404769,28.6497,57.2068)" pers-center="0,0" pers-size="0,0" pers-start="0,0" pers-end="0,0" locked="0" mesh="" flag=""/>
            <path id="shapePath15" d="M26.8264,53.1966 C24.3573,54.0061 23.3859,55.099 23.7906,56.6776 C24.1549,58.2157 26.1383,60.1586 27.3121,60.1586 C27.9598,60.1586 28.3645,60.4419 28.5265,60.9681 C28.8502,62.2229 30.4288,62.061 30.4288,60.7657 C30.4288,60.2395 31.1575,58.8228 32.0479,57.649 C33.3432,55.949 33.667,55.2204 33.5861,54.087 L33.4646,52.6704 L31.2384,52.5894 C30.0241,52.5489 28.0407,52.8323 26.8264,53.1966 M32.4527,54.3299 C32.4527,54.6942 31.886,55.7061 31.1979,56.5561 C30.1455,57.8919 29.7408,58.1347 28.3645,58.1347 C27.0288,58.1347 26.705,57.9728 26.3002,57.1228 C25.6931,55.7466 26.3407,55.099 29.2145,54.3299 C32.1289,53.5608 32.4527,53.5608 32.4527,54.3299 Z" style="stroke:none;fill-rule:nonzero;fill:#000000;fill-opacity:1;"/>
        </g>
    </g>
</svg>
