<?xml version="1.0"?>
<svg version="1.1" xmlns="http://www.w3.org/2000/svg" xmlns:xlink="http://www.w3.org/1999/xlink" width="1600" height="1000">
    <desc iVinci="yes" version="4.6" gridStep="20" showGrid="no" snapToGrid="no" codePlatform="0"/>
    <g id="Layer1" name="Layer 1" opacity="1">
        <g id="Shape1">
            <desc shapeID="1" type="0" basicInfo-basicType="0" basicInfo-roundedRectRadius="12" basicInfo-polygonSides="6" basicInfo-starPoints="5" bounding="rect(-640.435,-40.4999,1280.87,80.9997)" text="OPENPIPELINE.IO" font-familyName="AppleGothic" font-pixelSize="100" font-bold="0" font-underline="0" font-alignment="1" strokeStyle="0" markerStart="0" markerEnd="0" shadowEnabled="0" shadowOffsetX="0" shadowOffsetY="2" shadowBlur="4" shadowOpacity="160" blurEnabled="0" blurRadius="4" transform="matrix(1.23377,0,0,1.23377,796.907,777.063)" pers-center="0,0" pers-size="0,0" pers-start="0,0" pers-end="0,0" locked="0" mesh="" flag=""/>
            <path id="shapePath1" d="M49.9412,827.031 C38.7541,827.031 28.9661,822.672 20.576,813.953 C11.3641,804.494 6.75708,792.28 6.75708,777.31 C6.75708,762.999 11.0761,750.908 19.7131,741.038 C28.1021,731.743 38.0551,727.096 49.5711,727.096 C61.2511,727.096 71.2862,731.661 79.6761,740.791 C88.3121,750.414 92.6312,762.546 92.6312,777.187 C92.6312,792.404 87.9421,804.741 78.5651,814.2 C70.2581,822.754 60.7161,827.031 49.9412,827.031 M49.201,817.901 C58.3311,817.901 66.1041,814.077 72.5201,806.427 C79.0181,798.613 82.2671,788.867 82.2671,777.187 C82.2671,771.512 81.4851,766.248 79.9232,761.395 C78.3601,756.542 76.0151,752.142 72.8901,748.193 C66.6381,740.215 58.9071,736.226 49.6942,736.226 C40.5641,736.226 32.8321,740.215 26.4981,748.193 C20.2471,756.007 17.1221,765.754 17.1221,777.434 C17.1221,789.607 20.4121,799.518 26.9921,807.168 C33.1611,814.323 40.5641,817.901 49.201,817.901 M145.391,728.7 L176.359,728.7 C185.242,728.7 192.521,730.222 198.196,733.265 C205.846,737.542 209.67,744.369 209.67,753.745 C209.67,762.793 206.504,769.784 200.17,774.719 C194.413,779.326 187.01,781.629 177.963,781.629 L155.138,781.629 L155.138,825.427 L145.391,825.427 L145.391,728.7 M176.235,737.213 L155.138,737.213 L155.138,773.116 L176.976,773.116 C182.733,773.116 187.709,771.594 191.904,768.551 C196.592,765.096 198.937,760.449 198.937,754.609 C198.937,748.029 196.181,743.3 190.67,740.421 C186.64,738.282 181.828,737.213 176.235,737.213 M263.212,728.577 L323.421,728.577 L323.421,737.09 L272.959,737.09 L272.959,770.525 L321.57,770.525 L321.57,779.038 L272.959,779.038 L272.959,816.914 L323.791,816.914 L323.791,825.427 L263.212,825.427 L263.212,728.577 M378.435,825.427 L378.435,728.7 L387.319,728.7 L446.786,810.622 L446.786,728.7 L455.67,728.7 L455.67,825.427 L446.786,825.427 L387.319,743.629 L387.319,825.427 L378.435,825.427 M509.947,728.7 L540.914,728.7 C549.797,728.7 557.076,730.222 562.752,733.265 C570.401,737.542 574.226,744.369 574.226,753.745 C574.226,762.793 571.059,769.784 564.726,774.719 C558.968,779.326 551.566,781.629 542.518,781.629 L519.694,781.629 L519.694,825.427 L509.947,825.427 L509.947,728.7 M540.791,737.213 L519.694,737.213 L519.694,773.116 L541.531,773.116 C547.289,773.116 552.265,771.594 556.46,768.551 C561.148,765.096 563.492,760.449 563.492,754.609 C563.492,748.029 560.737,743.3 555.226,740.421 C551.196,738.282 546.384,737.213 540.791,737.213 M630.727,728.7 L640.351,728.7 L640.351,825.427 L630.727,825.427 L630.727,728.7 M696.98,728.7 L727.948,728.7 C736.831,728.7 744.11,730.222 749.787,733.265 C757.437,737.542 761.257,744.369 761.257,753.745 C761.257,762.793 758.097,769.784 751.757,774.719 C745.997,779.326 738.599,781.629 729.552,781.629 L706.727,781.629 L706.727,825.427 L696.98,825.427 L696.98,728.7 M727.824,737.213 L706.727,737.213 L706.727,773.116 L728.565,773.116 C734.322,773.116 739.298,771.594 743.493,768.551 C748.177,765.096 750.527,760.449 750.527,754.609 C750.527,748.029 747.767,743.3 742.259,740.421 C738.229,738.282 733.417,737.213 727.824,737.213 M814.797,728.577 L875.007,728.577 L875.007,737.09 L824.547,737.09 L824.547,770.525 L873.157,770.525 L873.157,779.038 L824.547,779.038 L824.547,816.914 L875.377,816.914 L875.377,825.427 L814.797,825.427 L814.797,728.577 M930.267,728.7 L940.017,728.7 L940.017,816.914 L987.767,816.914 L987.767,825.427 L930.267,825.427 L930.267,728.7 M1043.39,728.7 L1053.02,728.7 L1053.02,825.427 L1043.39,825.427 L1043.39,728.7 M1110.75,825.427 L1110.75,728.7 L1119.64,728.7 L1179.1,810.622 L1179.1,728.7 L1187.99,728.7 L1187.99,825.427 L1179.1,825.427 L1119.64,743.629 L1119.64,825.427 L1110.75,825.427 M1242.64,728.577 L1302.85,728.577 L1302.85,737.09 L1252.38,737.09 L1252.38,770.525 L1300.99,770.525 L1300.99,779.038 L1252.38,779.038 L1252.38,816.914 L1303.22,816.914 L1303.22,825.427 L1242.64,825.427 L1242.64,728.577 M1369.33,825.797 C1367.36,825.797 1365.67,824.975 1364.27,823.33 C1362.88,821.685 1362.18,819.67 1362.18,817.284 C1362.18,814.817 1362.9,812.74 1364.34,811.054 C1365.78,809.368 1367.44,808.525 1369.33,808.525 C1371.14,808.525 1372.77,809.286 1374.21,810.807 C1375.65,812.329 1376.37,814.406 1376.37,817.038 C1376.37,819.505 1375.67,821.582 1374.27,823.268 C1372.87,824.954 1371.22,825.797 1369.33,825.797 M1435.05,728.7 L1444.67,728.7 L1444.67,825.427 L1435.05,825.427 L1435.05,728.7 M1544.37,827.031 C1533.18,827.031 1523.39,822.672 1515,813.953 C1505.79,804.494 1501.18,792.28 1501.18,777.31 C1501.18,762.999 1505.5,750.908 1514.14,741.038 C1522.53,731.743 1532.48,727.096 1544,727.096 C1555.68,727.096 1565.71,731.661 1574.1,740.791 C1582.74,750.414 1587.06,762.546 1587.06,777.187 C1587.06,792.404 1582.37,804.741 1572.99,814.2 C1564.68,822.754 1555.14,827.031 1544.37,827.031 M1543.63,817.901 C1552.76,817.901 1560.53,814.077 1566.94,806.427 C1573.44,798.613 1576.69,788.867 1576.69,777.187 C1576.69,771.512 1575.91,766.248 1574.35,761.395 C1572.78,756.542 1570.44,752.142 1567.32,748.193 C1561.06,740.215 1553.33,736.226 1544.12,736.226 C1534.99,736.226 1527.26,740.215 1520.92,748.193 C1514.67,756.007 1511.55,765.754 1511.55,777.434 C1511.55,789.607 1514.84,799.518 1521.42,807.168 C1527.59,814.323 1534.99,817.901 1543.63,817.901 Z" style="stroke:none;fill-rule:evenodd;fill:#ccaf70;fill-opacity:1;"/>
        </g>
        <g id="Shape2">
            <desc shapeID="2" type="0" basicInfo-basicType="0" basicInfo-roundedRectRadius="12" basicInfo-polygonSides="6" basicInfo-starPoints="5" bounding="rect(-25.8708,-555.219,51.7415,1110.44)" text="" font-familyName="Helvetica" font-pixelSize="20" font-bold="0" font-underline="0" font-alignment="1" strokeStyle="0" markerStart="0" markerEnd="0" shadowEnabled="0" shadowOffsetX="0" shadowOffsetY="2" shadowBlur="4" shadowOpacity="160" blurEnabled="0" blurRadius="4" transform="matrix(0.293227,0,0,0.293227,638.601,519.752)" pers-center="0,0" pers-size="0,0" pers-start="0,0" pers-end="0,0" locked="0" mesh="" flag=""/>
            <path id="shapePath2" d="M632.508,364.327 L631.015,390.573 L634.695,442.232 L635.886,482.793 L636.78,535.653 L634.543,570.139 L633.646,591.19 L634.543,611.346 L631.015,654.791 L632.303,681.662 L643.947,682.559 L643.947,670.467 L642.604,634.189 L643.947,598.805 C643.947,598.805 646.187,541.475 646.187,541.475 L644.941,484.202 L642.604,443.798 L636.78,394.121 L638.572,361.426 L635.886,356.947 L632.508,364.327 Z" style="stroke:none;fill-rule:evenodd;fill:url(#linearGradientFill2);fill-opacity:1;"/><defs><linearGradient id="linearGradientFill2" gradientUnits="userSpaceOnUse" x1="574.79" y1="696.531" x2="590.145" y2="182.284"><stop offset="0.152687" stop-color="#e5ce7e" stop-opacity="1"/><stop offset="0.996613" stop-color="#cbac6f" stop-opacity="1"/></linearGradient></defs>
        </g>
        <g id="Shape3">
            <desc shapeID="3" type="0" basicInfo-basicType="0" basicInfo-roundedRectRadius="12" basicInfo-polygonSides="6" basicInfo-starPoints="5" bounding="rect(-178.823,-166.994,357.648,333.987)" text="" font-familyName="Avenir" font-pixelSize="300" font-bold="0" font-underline="0" font-alignment="1" strokeStyle="0" markerStart="0" markerEnd="0" shadowEnabled="0" shadowOffsetX="0" shadowOffsetY="2" shadowBlur="4" shadowOpacity="160" blurEnabled="0" blurRadius="4" transform="matrix(0.293227,0,0,0.293227,636.506,348.134)" pers-center="0,0" pers-size="0,0" pers-start="0,0" pers-end="0,0" locked="0" mesh="" flag=""/>
            <path id="shapePath3" d="M605.27,395.675 L612.401,389.019 L618.581,379.511 L627.139,370.954 L635.22,369.052 L645.535,374.282 L652.87,383.593 L665.367,389.019 L669.103,384.766 L666.598,376.183 L648.518,367.151 L659.467,367.626 L671.827,365.724 L678.958,367.626 L688.467,368.101 L688.942,364.773 L678.008,359.544 L663.745,355.265 L655.189,357.167 L649.958,356.216 L653.761,353.839 L666.598,347.183 L679.433,342.429 L687.992,339.101 L687.514,336.724 L675.63,335.774 L663.745,341.003 L653.761,345.757 L642.827,350.987 L641.876,346.708 L647.105,330.069 L647.583,320.726 L656.139,302.97 L656.139,299.642 L651.386,299.167 L647.105,305.823 L637.76,318.659 L635.848,333.075 L632.845,338.151 L628.564,328.167 L625.712,323.888 L622.385,322.938 L619.532,325.79 L622.385,333.872 L625.712,340.528 L622.86,341.954 L617.433,336.724 L611.417,333.075 C611.417,333.075 603.368,331.02 603.368,331.02 L596.237,328.167 L591.958,331.97 L599.565,335.774 L610.411,342.96 L620.483,347.183 L614.303,349.31 L611.934,352.5 L616.177,356.216 L608.318,359.544 L596.906,362.761 L588.349,367.151 L584.07,371.905 L586.922,375.232 L596.906,371.905 L603.844,370.478 L615.729,369.527 L614.303,376.183 L609.549,380.937 L600.04,390.921 L599.565,397.101 L605.27,395.675 Z" style="stroke:none;fill-rule:evenodd;fill:url(#linearGradientFill3);fill-opacity:1;"/><defs><linearGradient id="linearGradientFill3" gradientUnits="userSpaceOnUse" x1="574.79" y1="696.531" x2="590.145" y2="182.284"><stop offset="0.152687" stop-color="#e5ce7e" stop-opacity="1"/><stop offset="0.996613" stop-color="#cbac6f" stop-opacity="1"/></linearGradient></defs>
        </g>
        <g id="Shape4">
            <desc shapeID="4" type="0" basicInfo-basicType="0" basicInfo-roundedRectRadius="12" basicInfo-polygonSides="6" basicInfo-starPoints="5" bounding="rect(-25.8709,-555.221,51.7417,1110.45)" text="" font-familyName="Helvetica" font-pixelSize="20" font-bold="0" font-underline="0" font-alignment="1" strokeStyle="0" markerStart="0" markerEnd="0" shadowEnabled="0" shadowOffsetX="0" shadowOffsetY="2" shadowBlur="4" shadowOpacity="160" blurEnabled="0" blurRadius="4" transform="matrix(0.336866,0,0,0.336866,516.424,495.522)" pers-center="0,0" pers-size="0,0" pers-start="0,0" pers-end="0,0" locked="0" mesh="" flag=""/>
            <path id="shapePath4" d="M509.424,316.966 L507.709,347.118 L510.795,400.226 L512.163,446.824 L514.332,513.789 L511.762,553.408 L510.731,577.592 L511.762,600.748 L511.762,650.658 L509.188,681.529 L522.565,682.559 L522.565,668.667 L521.022,626.99 L522.565,586.34 C522.565,586.34 525.139,520.479 525.139,520.479 L522.565,448.443 L522.565,400.076 L515.875,351.194 L516.39,313.633 L513.305,308.487 L509.424,316.966 Z" style="stroke:none;fill-rule:evenodd;fill:url(#linearGradientFill4);fill-opacity:1;"/><defs><linearGradient id="linearGradientFill4" gradientUnits="userSpaceOnUse" x1="574.79" y1="696.53" x2="590.145" y2="182.283"><stop offset="0.152687" stop-color="#e5ce7e" stop-opacity="1"/><stop offset="0.996613" stop-color="#cbac6f" stop-opacity="1"/></linearGradient></defs>
        </g>
        <g id="Shape5">
            <desc shapeID="5" type="0" basicInfo-basicType="0" basicInfo-roundedRectRadius="12" basicInfo-polygonSides="6" basicInfo-starPoints="5" bounding="rect(-187.259,-132.891,374.52,265.782)" text="" font-familyName="Avenir" font-pixelSize="300" font-bold="0" font-underline="0" font-alignment="1" strokeStyle="0" markerStart="0" markerEnd="0" shadowEnabled="0" shadowOffsetX="0" shadowOffsetY="2" shadowBlur="4" shadowOpacity="160" blurEnabled="0" blurRadius="4" transform="matrix(0.336866,0,0,0.336866,511.175,309.851)" pers-center="0,0" pers-size="0,0" pers-start="0,0" pers-end="0,0" locked="0" mesh="" flag=""/>
            <path id="shapePath5" d="M478.133,352.979 C478.133,352.979 486.325,345.333 486.325,345.333 C486.325,345.333 493.425,334.41 493.425,334.41 C493.425,334.41 503.256,324.579 503.256,324.579 C503.256,324.579 512.54,322.394 512.54,322.394 C512.54,322.394 530.017,328.402 530.017,328.402 C530.017,328.402 539.85,334.41 539.85,334.41 C539.85,334.41 553.503,339.871 553.503,339.871 C553.503,339.871 555.686,335.502 555.686,335.502 C555.686,335.502 549.68,329.494 549.68,329.494 C549.68,329.494 539.304,321.302 539.304,321.302 C539.304,321.302 540.396,319.117 540.396,319.117 C540.396,319.117 554.595,318.571 554.595,318.571 C554.595,318.571 562.787,320.756 562.787,320.756 C562.787,320.756 573.712,321.302 573.712,321.302 C573.712,321.302 574.257,317.479 574.257,317.479 C574.257,317.479 561.696,311.471 561.696,311.471 C561.696,311.471 545.31,306.555 545.31,306.555 C545.31,306.555 535.481,308.74 535.481,308.74 C535.481,308.74 529.471,307.648 529.471,307.648 C529.471,307.648 533.84,304.917 533.84,304.917 C533.84,304.917 548.588,297.271 548.588,297.271 C548.588,297.271 563.333,291.809 563.333,291.809 C563.333,291.809 573.166,287.986 573.166,287.986 C573.166,287.986 572.617,285.255 572.617,285.255 C572.617,285.255 558.964,284.163 558.964,284.163 C558.964,284.163 545.31,290.171 545.31,290.171 C545.31,290.171 533.84,295.632 533.84,295.632 C533.84,295.632 521.278,301.64 521.278,301.64 C521.278,301.64 522.851,298.056 522.851,298.056 C522.851,298.056 530.43,287.986 530.43,287.986 C530.43,287.986 535.481,277.242 535.481,277.242 C535.481,277.242 552.493,271.398 552.493,271.398 C552.493,271.398 552.493,267.575 552.493,267.575 C552.493,267.575 547.032,267.029 547.032,267.029 C547.032,267.029 536.653,265.085 536.653,265.085 C536.653,265.085 520.376,273.786 520.376,273.786 C520.376,273.786 513.261,281.062 513.261,281.062 C513.261,281.062 509.812,286.894 509.812,286.894 C509.812,286.894 504.893,275.424 504.893,275.424 C504.893,275.424 501.617,270.509 501.617,270.509 C501.617,270.509 497.794,269.417 497.794,269.417 C497.794,269.417 494.517,272.694 494.517,272.694 C494.517,272.694 497.794,281.978 497.794,281.978 C497.794,281.978 501.617,289.625 501.617,289.625 C501.617,289.625 498.341,291.263 498.341,291.263 C498.341,291.263 489.602,283.617 489.602,283.617 C489.602,283.617 481.41,280.34 481.41,280.34 C481.41,280.34 474.31,278.701 474.31,278.701 C474.31,278.701 462.84,276.693 462.84,276.693 C462.84,276.693 454.648,276.693 454.648,276.693 C454.648,276.693 449.732,281.062 449.732,281.062 C449.732,281.062 461.469,283.617 461.469,283.617 C461.469,283.617 476.494,289.625 476.494,289.625 C476.494,289.625 495.61,297.271 495.61,297.271 C495.61,297.271 501.617,301.64 501.617,301.64 C501.617,301.64 498.887,308.194 498.887,308.194 C498.887,308.194 491.24,310.925 491.24,310.925 C491.24,310.925 480.863,313.656 480.863,313.656 C480.863,313.656 464.478,317.479 464.478,317.479 C464.478,317.479 453.009,320.756 453.009,320.756 C453.009,320.756 448.094,326.217 448.094,326.217 C448.094,326.217 451.371,330.04 451.371,330.04 C451.371,330.04 462.84,326.217 462.84,326.217 C462.84,326.217 476.494,324.033 476.494,324.033 C476.494,324.033 490.148,322.94 490.148,322.94 C490.148,322.94 488.509,330.587 488.509,330.587 C488.509,330.587 483.048,336.048 483.048,336.048 C483.048,336.048 472.125,347.518 472.125,347.518 C472.125,347.518 471.579,354.618 471.579,354.618 C471.579,354.618 478.133,352.979 478.133,352.979 Z" style="stroke:none;fill-rule:evenodd;fill:url(#linearGradientFill5);fill-opacity:1;"/><defs><linearGradient id="linearGradientFill5" gradientUnits="userSpaceOnUse" x1="574.79" y1="696.531" x2="590.145" y2="182.283"><stop offset="0.152687" stop-color="#e5ce7e" stop-opacity="1"/><stop offset="0.996613" stop-color="#cbac6f" stop-opacity="1"/></linearGradient></defs>
        </g>
        <g id="Shape6">
            <desc shapeID="6" type="0" basicInfo-basicType="0" basicInfo-roundedRectRadius="12" basicInfo-polygonSides="6" basicInfo-starPoints="5" bounding="rect(-25.8652,-555.219,51.7302,1110.44)" text="" font-familyName="Helvetica" font-pixelSize="20" font-bold="0" font-underline="0" font-alignment="1" strokeStyle="0" markerStart="0" markerEnd="0" shadowEnabled="0" shadowOffsetX="0" shadowOffsetY="2" shadowBlur="4" shadowOpacity="160" blurEnabled="0" blurRadius="4" transform="matrix(0.411364,0,0,0.411364,830.487,454.159)" pers-center="0,0" pers-size="0,0" pers-start="0,0" pers-end="0,0" locked="0" mesh="" flag=""/>
            <path id="shapePath6" d="M821.937,236.116 L819.847,272.935 L823.617,337.788 L825.287,394.691 L827.937,476.466 L824.797,524.847 L823.537,554.378 L824.797,582.656 L824.797,643.603 L821.657,681.301 L837.987,682.559 L837.987,665.595 L836.107,614.701 L837.987,565.062 C837.987,565.062 841.127,484.635 841.127,484.635 L837.987,396.668 L837.987,337.605 L829.817,277.913 L830.447,232.045 L826.677,225.762 L821.937,236.116 Z" style="stroke:none;fill-rule:evenodd;fill:url(#linearGradientFill6);fill-opacity:1;"/><defs><linearGradient id="linearGradientFill6" gradientUnits="userSpaceOnUse" x1="574.79" y1="696.53" x2="590.145" y2="182.283"><stop offset="0.152687" stop-color="#e5ce7e" stop-opacity="1"/><stop offset="0.996613" stop-color="#cbac6f" stop-opacity="1"/></linearGradient></defs>
        </g>
        <g id="Shape7">
            <desc shapeID="7" type="0" basicInfo-basicType="0" basicInfo-roundedRectRadius="12" basicInfo-polygonSides="6" basicInfo-starPoints="5" bounding="rect(-187.266,-166.994,374.534,333.989)" text="" font-familyName="Avenir" font-pixelSize="300" font-bold="0" font-underline="0" font-alignment="1" strokeStyle="0" markerStart="0" markerEnd="0" shadowEnabled="0" shadowOffsetX="0" shadowOffsetY="2" shadowBlur="4" shadowOpacity="160" blurEnabled="0" blurRadius="4" transform="matrix(0.411364,0,0,0.411364,824.082,213.398)" pers-center="0,0" pers-size="0,0" pers-start="0,0" pers-end="0,0" locked="0" mesh="" flag=""/>
            <path id="shapePath7" d="M783.727,280.093 C783.727,280.093 793.737,270.756 793.737,270.756 C793.737,270.756 802.407,257.417 802.407,257.417 C802.407,257.417 814.407,245.412 814.407,245.412 C814.407,245.412 826.627,236.741 826.627,236.741 C826.627,236.741 846.417,255.434 846.417,255.434 C846.417,255.434 860.277,265.966 860.277,265.966 C860.277,265.966 883.627,280.093 883.627,280.093 C883.627,280.093 879.617,265.966 879.617,265.966 C879.617,265.966 872.287,256.768 872.287,256.768 C872.287,256.768 858.427,241.41 858.427,241.41 C858.427,241.41 859.757,238.742 859.757,238.742 C859.757,238.742 877.097,238.075 877.097,238.075 C877.097,238.075 887.107,240.743 887.107,240.743 C887.107,240.743 900.447,241.41 900.447,241.41 C900.447,241.41 901.117,236.741 901.117,236.741 C901.117,236.741 885.777,229.405 885.777,229.405 C885.777,229.405 865.767,223.402 865.767,223.402 C865.767,223.402 853.757,226.071 853.757,226.071 C853.757,226.071 846.417,224.736 846.417,224.736 C846.417,224.736 851.757,221.402 851.757,221.402 C851.757,221.402 869.767,212.064 869.767,212.064 C869.767,212.064 887.767,205.395 887.767,205.395 C887.767,205.395 899.777,200.726 899.777,200.726 C899.777,200.726 899.107,197.392 899.107,197.392 C899.107,197.392 882.437,196.058 882.437,196.058 C882.437,196.058 865.767,203.394 865.767,203.394 C865.767,203.394 851.757,210.064 851.757,210.064 C851.757,210.064 836.417,217.4 836.417,217.4 C836.417,217.4 835.087,211.398 835.087,211.398 C835.087,211.398 842.417,188.054 842.417,188.054 C842.417,188.054 843.087,174.947 843.087,174.947 C843.087,174.947 855.097,150.039 855.097,150.039 C855.097,150.039 855.097,145.37 855.097,145.37 C855.097,145.37 848.427,144.703 848.427,144.703 C848.427,144.703 842.417,154.04 842.417,154.04 C842.417,154.04 829.307,172.048 829.307,172.048 C829.307,172.048 826.627,192.272 826.627,192.272 C826.627,192.272 822.417,199.393 822.417,199.393 C822.417,199.393 816.407,185.387 816.407,185.387 C816.407,185.387 812.407,179.384 812.407,179.384 C812.407,179.384 807.737,178.05 807.737,178.05 C807.737,178.05 803.737,182.052 803.737,182.052 C803.737,182.052 807.737,193.39 807.737,193.39 C807.737,193.39 812.407,202.727 812.407,202.727 C812.407,202.727 808.407,204.728 808.407,204.728 C808.407,204.728 797.737,195.391 797.737,195.391 C797.737,195.391 787.067,189.388 787.067,189.388 C787.067,189.388 778.397,187.388 778.397,187.388 C778.397,187.388 767.727,182.052 767.727,182.052 C767.727,182.052 757.717,178.05 757.717,178.05 C757.717,178.05 751.717,183.386 751.717,183.386 C751.717,183.386 762.387,188.722 762.387,188.722 C762.387,188.722 781.057,200.726 781.057,200.726 C781.057,200.726 805.067,212.064 805.067,212.064 C805.067,212.064 812.407,217.4 812.407,217.4 C812.407,217.4 809.077,225.403 809.077,225.403 C809.077,225.403 799.737,228.738 799.737,228.738 C799.737,228.738 787.067,232.073 787.067,232.073 C787.067,232.073 767.057,236.741 767.057,236.741 C767.057,236.741 753.047,240.743 753.047,240.743 C753.047,240.743 747.047,247.413 747.047,247.413 C747.047,247.413 751.047,252.081 751.047,252.081 C751.047,252.081 765.057,247.413 765.057,247.413 C765.057,247.413 781.727,244.745 781.727,244.745 C781.727,244.745 798.397,243.411 798.397,243.411 C798.397,243.411 796.397,252.748 796.397,252.748 C796.397,252.748 789.727,259.418 789.727,259.418 C789.727,259.418 776.397,273.423 776.397,273.423 C776.397,273.423 775.727,282.094 775.727,282.094 C775.727,282.094 783.727,280.093 783.727,280.093 Z" style="stroke:none;fill-rule:evenodd;fill:url(#linearGradientFill7);fill-opacity:1;"/><defs><linearGradient id="linearGradientFill7" gradientUnits="userSpaceOnUse" x1="574.795" y1="696.532" x2="590.15" y2="182.285"><stop offset="0.152687" stop-color="#e5ce7e" stop-opacity="1"/><stop offset="0.996613" stop-color="#cbac6f" stop-opacity="1"/></linearGradient></defs>
        </g>
        <g id="Shape8">
            <desc shapeID="8" type="0" basicInfo-basicType="0" basicInfo-roundedRectRadius="12" basicInfo-polygonSides="6" basicInfo-starPoints="5" bounding="rect(-22.0399,-555.221,44.0796,1110.45)" text="" font-familyName="Helvetica" font-pixelSize="20" font-bold="0" font-underline="0" font-alignment="1" strokeStyle="0" markerStart="0" markerEnd="0" shadowEnabled="0" shadowOffsetX="0" shadowOffsetY="2" shadowBlur="4" shadowOpacity="160" blurEnabled="0" blurRadius="4" transform="matrix(0.33054,0,0,0.330539,1045.98,499.035)" pers-center="0,0" pers-size="0,0" pers-start="0,0" pers-end="0,0" locked="0" mesh="" flag=""/>
            <path id="shapePath8" d="M1040.38,323.833 L1038.7,353.418 L1041.73,405.528 L1043.07,451.251 L1039.96,516.959 L1042.67,555.834 L1041.66,579.563 L1042.67,602.285 L1042.67,651.257 L1040.15,681.548 L1053.27,682.559 L1053.27,668.928 L1051.76,628.034 L1053.27,588.147 C1053.27,588.147 1050.56,523.523 1050.56,523.523 L1053.27,452.84 L1053.27,405.381 L1046.71,357.418 L1047.22,320.562 L1044.19,315.513 L1040.38,323.833 Z" style="stroke:none;fill-rule:evenodd;fill:url(#linearGradientFill8);fill-opacity:1;"/><defs><linearGradient id="linearGradientFill8" gradientUnits="userSpaceOnUse" x1="574.785" y1="696.53" x2="590.14" y2="182.283"><stop offset="0.152687" stop-color="#e5ce7e" stop-opacity="1"/><stop offset="0.996613" stop-color="#cbac6f" stop-opacity="1"/></linearGradient></defs>
        </g>
        <g id="Shape9">
            <desc shapeID="9" type="0" basicInfo-basicType="0" basicInfo-roundedRectRadius="12" basicInfo-polygonSides="6" basicInfo-starPoints="5" bounding="rect(-187.258,-154.1,374.517,308.2)" text="" font-familyName="Avenir" font-pixelSize="300" font-bold="0" font-underline="0" font-alignment="1" strokeStyle="0" markerStart="0" markerEnd="0" shadowEnabled="0" shadowOffsetX="0" shadowOffsetY="2" shadowBlur="4" shadowOpacity="160" blurEnabled="0" blurRadius="4" transform="matrix(0.324614,0.0623053,-0.0623053,0.324614,1041.29,309.764)" pers-center="0,0" pers-size="0,0" pers-start="0,0" pers-end="0,0" locked="0" mesh="" flag=""/>
            <path id="shapePath9" d="M1000.16,352.097 C1000.16,352.097 1009.46,346.244 1009.46,346.244 C1009.46,346.244 1018.33,337.031 1018.33,337.031 C1018.33,337.031 1029.62,329.376 1029.62,329.376 C1029.62,329.376 1038.97,328.988 1038.97,328.988 C1038.97,328.988 1054.7,338.01 1054.7,338.01 C1054.7,338.01 1063.06,345.618 1063.06,345.618 C1063.06,345.618 1075.21,353.406 1075.21,353.406 C1075.21,353.406 1078.12,349.599 1078.12,349.599 C1078.12,349.599 1073.44,342.699 1073.44,342.699 C1073.44,342.699 1064.96,332.886 1064.96,332.886 C1064.96,332.886 1066.42,330.982 1066.42,330.982 C1066.42,330.982 1080.2,333.082 1080.2,333.082 C1080.2,333.082 1087.69,336.703 1087.69,336.703 C1087.69,336.703 1098.12,339.25 1098.12,339.25 C1098.12,339.25 1099.35,335.666 1099.35,335.666 C1099.35,335.666 1088.36,327.554 1088.36,327.554 C1088.36,327.554 1073.48,319.787 1073.48,319.787 C1073.48,319.787 1063.6,320.074 1063.6,320.074 C1063.6,320.074 1058.01,317.91 1058.01,317.91 C1058.01,317.91 1062.73,316.086 1062.73,316.086 C1062.73,316.086 1078.35,311.446 1078.35,311.446 C1078.35,311.446 1093.57,308.91 1093.57,308.91 C1093.57,308.91 1103.75,307.045 1103.75,307.045 C1103.75,307.045 1103.73,304.312 1103.73,304.312 C1103.73,304.312 1090.78,300.734 1090.78,300.734 C1090.78,300.734 1076.51,303.998 1076.51,303.998 C1076.51,303.998 1064.44,307.139 1064.44,307.139 C1064.44,307.139 1051.23,310.605 1051.23,310.605 C1051.23,310.605 1051.09,305.667 1051.09,305.667 C1051.09,305.667 1061.46,294.274 1061.46,294.274 C1061.46,294.274 1073.48,291.293 1073.48,291.293 C1073.48,291.293 1084,277.762 1084,277.762 C1084,277.762 1094.49,272.307 1094.49,272.307 C1094.49,272.307 1087.69,266.803 1087.69,266.803 C1087.69,266.803 1070.13,269.213 1070.13,269.213 C1070.13,269.213 1055.8,279.939 1055.8,279.939 C1055.8,279.939 1047.31,289.293 1047.31,289.293 C1047.31,289.293 1042.91,294.274 1042.91,294.274 C1042.91,294.274 1040.29,282.312 1040.29,282.312 C1040.29,282.312 1038.04,276.97 1038.04,276.97 C1038.04,276.97 1034.56,275.21 1034.56,275.21 C1034.56,275.21 1030.79,277.762 1030.79,277.762 C1030.79,277.762 1032.23,287.315 1032.23,287.315 C1032.23,287.315 1034.5,295.39 1034.5,295.39 C1034.5,295.39 1031.04,296.363 1031.04,296.363 C1031.04,296.363 1024.04,287.379 1024.04,287.379 C1024.04,287.379 1016.53,281.026 1016.53,281.026 C1016.53,281.026 1009.99,278.134 1009.99,278.134 C1009.99,278.134 1002.37,272.307 1002.37,272.307 C1002.37,272.307 995.087,267.634 995.087,267.634 C995.087,267.634 989.537,270.935 989.537,270.935 C989.537,270.935 997.147,276.762 997.147,276.762 C997.147,276.762 1010.07,289.064 1010.07,289.064 C1010.07,289.064 1027.3,301.647 1027.3,301.647 C1027.3,301.647 1032.28,306.969 1032.28,306.969 C1032.28,306.969 1028.44,312.779 1028.44,312.779 C1028.44,312.779 1020.57,313.997 1020.57,313.997 C1020.57,313.997 1010.06,314.709 1010.06,314.709 C1010.06,314.709 993.557,315.362 993.557,315.362 C993.557,315.362 981.907,316.399 981.907,316.399 C981.907,316.399 976.157,320.753 976.157,320.753 C976.157,320.753 978.607,325.043 978.607,325.043 C978.607,325.043 990.367,323.48 990.367,323.48 C990.367,323.48 1003.93,323.9 1003.93,323.9 C1003.93,323.9 1017.29,325.373 1017.29,325.373 C1017.29,325.373 1014.3,332.438 1014.3,332.438 C1014.3,332.438 1008.02,336.691 1008.02,336.691 C1008.02,336.691 995.377,345.723 995.377,345.723 C995.377,345.723 993.537,352.464 993.537,352.464 C993.537,352.464 1000.16,352.097 1000.16,352.097 Z" style="stroke:none;fill-rule:evenodd;fill:url(#linearGradientFill9);fill-opacity:1;"/><defs><linearGradient id="linearGradientFill9" gradientUnits="userSpaceOnUse" x1="574.785" y1="696.531" x2="590.14" y2="182.284"><stop offset="0.152687" stop-color="#e5ce7e" stop-opacity="1"/><stop offset="0.996613" stop-color="#cbac6f" stop-opacity="1"/></linearGradient></defs>
        </g>
        <g id="Shape10">
            <desc shapeID="10" type="0" basicInfo-basicType="0" basicInfo-roundedRectRadius="12" basicInfo-polygonSides="6" basicInfo-starPoints="5" bounding="rect(-22.7393,-555.219,45.4785,1110.44)" text="" font-familyName="Helvetica" font-pixelSize="20" font-bold="0" font-underline="0" font-alignment="1" strokeStyle="0" markerStart="0" markerEnd="0" shadowEnabled="0" shadowOffsetX="0" shadowOffsetY="2" shadowBlur="4" shadowOpacity="160" blurEnabled="0" blurRadius="4" transform="matrix(0.271557,0,0,0.271557,1111.75,535.54)" pers-center="0,0" pers-size="0,0" pers-start="0,0" pers-end="0,0" locked="0" mesh="" flag=""/>
            <path id="shapePath10" d="M1107.33,391.601 L1105.95,415.907 L1108.44,458.719 L1105.58,494.978 L1107.33,548.96 L1109.22,582.203 L1108.39,601.698 L1109.22,620.365 L1109.22,660.599 L1107.14,685.484 L1117.93,686.315 L1117.93,675.116 L1116.68,641.519 L1117.93,608.751 C1117.93,608.751 1116.04,554.353 1116.04,554.353 L1113.97,496.283 L1117.93,458.598 L1112.53,419.193 L1112.95,388.914 L1110.46,384.766 L1107.33,391.601 Z" style="stroke:none;fill-rule:evenodd;fill:url(#linearGradientFill10);fill-opacity:1;"/><defs><linearGradient id="linearGradientFill10" gradientUnits="userSpaceOnUse" x1="574.795" y1="696.531" x2="590.15" y2="182.284"><stop offset="0.152687" stop-color="#e5ce7e" stop-opacity="1"/><stop offset="0.996613" stop-color="#cbac6f" stop-opacity="1"/></linearGradient></defs>
        </g>
        <g id="Shape11">
            <desc shapeID="11" type="0" basicInfo-basicType="0" basicInfo-roundedRectRadius="12" basicInfo-polygonSides="6" basicInfo-starPoints="5" bounding="rect(-170.341,-142.459,340.684,284.917)" text="" font-familyName="Avenir" font-pixelSize="300" font-bold="0" font-underline="0" font-alignment="1" strokeStyle="0" markerStart="0" markerEnd="0" shadowEnabled="0" shadowOffsetX="0" shadowOffsetY="2" shadowBlur="4" shadowOpacity="160" blurEnabled="0" blurRadius="4" transform="matrix(0.270255,0.0265568,-0.0265568,0.270255,1111.74,382.164)" pers-center="0,0" pers-size="0,0" pers-start="0,0" pers-end="0,0" locked="0" mesh="" flag=""/>
            <path id="shapePath11" d="M1087.04,417.283 L1093.1,414.542 L1098.44,406.643 L1105.68,399.531 L1113.3,398.51 L1122.58,404.707 L1134.26,410.303 L1144.79,415.761 L1146.88,412.427 L1142.54,407.134 L1134.86,399.743 L1135.91,398.077 L1142.54,400.282 L1148.97,401.157 L1155.96,400.683 L1156.7,397.659 L1148.11,391.794 L1139.32,388.387 L1133.19,388.387 L1129.06,388.014 L1131.77,386.168 L1144.2,381.196 L1152.1,380.008 L1157.85,376.46 L1157.62,374.226 L1146.88,372.006 L1138.78,374.226 L1129.35,376.078 L1123.57,380.999 L1121.46,378.519 L1126.28,369.131 L1131.11,362.281 L1136.54,349.267 L1136.84,346.2 L1132.5,345.332 L1127.31,351.078 L1121.46,354.891 L1117.14,365.408 L1113.91,369.814 L1110.87,360.225 L1108.63,356.023 L1105.65,354.846 L1102.76,357.216 L1104.66,364.923 L1107.12,371.359 L1104.36,372.415 L1098.44,366.06 L1091.33,360.96 L1084.53,359.086 L1078.22,355.811 L1073.93,358.928 L1081.34,365.408 L1089.94,370.924 L1100.2,378.799 C1100.2,378.799 1097.77,384.766 1097.77,384.766 L1089.33,387.129 L1076.16,388.717 L1068.29,391.826 L1063.92,395.82 L1066.25,399.146 L1075.75,396.983 L1084.25,396.983 L1093.97,397.183 L1091.65,401.461 L1088.57,405.717 L1082.66,412.427 L1081.66,418.08 L1087.04,417.283 Z" style="stroke:none;fill-rule:evenodd;fill:url(#linearGradientFill11);fill-opacity:1;"/><defs><linearGradient id="linearGradientFill11" gradientUnits="userSpaceOnUse" x1="574.792" y1="696.531" x2="590.147" y2="182.284"><stop offset="0.152687" stop-color="#e5ce7e" stop-opacity="1"/><stop offset="0.996613" stop-color="#cbac6f" stop-opacity="1"/></linearGradient></defs>
        </g>
    </g>
</svg>
