<?xml version="1.0"?>
<svg version="1.1" xmlns="http://www.w3.org/2000/svg" xmlns:xlink="http://www.w3.org/1999/xlink" width="2000" height="1000">
    <desc iVinci="yes" version="4.6" gridStep="20" showGrid="no" snapToGrid="no" codePlatform="0"/>
    <g id="Layer1" name="Layer 1" opacity="1">
        <g id="Shape1">
            <desc shapeID="1" type="0" basicInfo-basicType="0" basicInfo-roundedRectRadius="12" basicInfo-polygonSides="6" basicInfo-starPoints="5" bounding="rect(-640.435,-40.5,1280.87,81)" text="OPENPIPELINE.IO" font-familyName="AppleGothic" font-pixelSize="100" font-bold="0" font-underline="0" font-alignment="1" strokeStyle="0" markerStart="0" markerEnd="0" shadowEnabled="0" shadowOffsetX="0" shadowOffsetY="2" shadowBlur="4" shadowOpacity="160" blurEnabled="0" blurRadius="4" transform="matrix(1.23377,0,0,1.23377,1052.67,777.064)" pers-center="0,0" pers-size="0,0" pers-start="0,0" pers-end="0,0" locked="0" mesh="" flag=""/>
            <path id="shapePath1" d="M305.704,827.031 C294.517,827.031 284.729,822.672 276.339,813.953 C267.127,804.494 262.52,792.28 262.52,777.31 C262.52,762.999 266.839,750.908 275.476,741.038 C283.865,731.743 293.818,727.096 305.334,727.096 C317.014,727.096 327.049,731.661 335.439,740.791 C344.075,750.414 348.394,762.546 348.394,777.187 C348.394,792.404 343.705,804.741 334.328,814.2 C326.021,822.754 316.479,827.031 305.704,827.031 M304.964,817.901 C314.094,817.901 321.867,814.077 328.283,806.427 C334.781,798.613 338.03,788.867 338.03,777.187 C338.03,771.512 337.248,766.248 335.686,761.395 C334.123,756.542 331.778,752.142 328.653,748.193 C322.401,740.215 314.67,736.226 305.457,736.226 C296.327,736.226 288.595,740.215 282.261,748.193 C276.01,756.007 272.885,765.754 272.885,777.434 C272.885,789.607 276.175,799.518 282.755,807.168 C288.924,814.323 296.327,817.901 304.964,817.901 M401.154,728.7 L432.122,728.7 C441.005,728.7 448.284,730.222 453.959,733.265 C461.609,737.542 465.433,744.369 465.433,753.745 C465.433,762.793 462.267,769.784 455.933,774.719 C450.176,779.326 442.773,781.629 433.726,781.629 L410.901,781.629 L410.901,825.427 L401.154,825.427 L401.154,728.7 M431.998,737.213 L410.901,737.213 L410.901,773.116 L432.739,773.116 C438.496,773.116 443.472,771.594 447.667,768.551 C452.355,765.096 454.7,760.449 454.7,754.609 C454.7,748.029 451.944,743.3 446.433,740.421 C442.403,738.282 437.591,737.213 431.998,737.213 M518.975,728.577 L579.184,728.577 L579.184,737.09 L528.722,737.09 L528.722,770.525 L577.333,770.525 L577.333,779.038 L528.722,779.038 L528.722,816.914 L579.554,816.914 L579.554,825.427 L518.975,825.427 L518.975,728.577 M634.198,825.427 L634.198,728.7 L643.082,728.7 L702.549,810.622 L702.549,728.7 L711.433,728.7 L711.433,825.427 L702.549,825.427 L643.082,743.629 L643.082,825.427 L634.198,825.427 M765.71,728.7 L796.677,728.7 C805.56,728.7 812.839,730.222 818.515,733.265 C826.164,737.542 829.989,744.369 829.989,753.745 C829.989,762.793 826.822,769.784 820.489,774.719 C814.731,779.326 807.329,781.629 798.281,781.629 L775.457,781.629 L775.457,825.427 L765.71,825.427 L765.71,728.7 M796.554,737.213 L775.457,737.213 L775.457,773.116 L797.294,773.116 C803.052,773.116 808.028,771.594 812.223,768.551 C816.911,765.096 819.255,760.449 819.255,754.609 C819.255,748.029 816.5,743.3 810.989,740.421 C806.959,738.282 802.147,737.213 796.554,737.213 M886.49,728.7 L896.114,728.7 L896.114,825.427 L886.49,825.427 L886.49,728.7 M952.743,728.7 L983.711,728.7 C992.594,728.7 999.873,730.222 1005.55,733.265 C1013.2,737.542 1017.02,744.369 1017.02,753.745 C1017.02,762.793 1013.86,769.784 1007.52,774.719 C1001.76,779.326 994.362,781.629 985.315,781.629 L962.49,781.629 L962.49,825.427 L952.743,825.427 L952.743,728.7 M983.587,737.213 L962.49,737.213 L962.49,773.116 L984.328,773.116 C990.085,773.116 995.061,771.594 999.256,768.551 C1003.94,765.096 1006.29,760.449 1006.29,754.609 C1006.29,748.029 1003.53,743.3 998.022,740.421 C993.992,738.282 989.18,737.213 983.587,737.213 M1070.56,728.577 L1130.77,728.577 L1130.77,737.09 L1080.31,737.09 L1080.31,770.525 L1128.92,770.525 L1128.92,779.038 L1080.31,779.038 L1080.31,816.914 L1131.14,816.914 L1131.14,825.427 L1070.56,825.427 L1070.56,728.577 M1186.03,728.7 L1195.78,728.7 L1195.78,816.914 L1243.53,816.914 L1243.53,825.427 L1186.03,825.427 L1186.03,728.7 M1299.15,728.7 L1308.78,728.7 L1308.78,825.427 L1299.15,825.427 L1299.15,728.7 M1366.51,825.427 L1366.51,728.7 L1375.4,728.7 L1434.86,810.622 L1434.86,728.7 L1443.75,728.7 L1443.75,825.427 L1434.86,825.427 L1375.4,743.629 L1375.4,825.427 L1366.51,825.427 M1498.4,728.577 L1558.61,728.577 L1558.61,737.09 L1508.14,737.09 L1508.14,770.525 L1556.75,770.525 L1556.75,779.038 L1508.14,779.038 L1508.14,816.914 L1558.98,816.914 L1558.98,825.427 L1498.4,825.427 L1498.4,728.577 M1625.09,825.797 C1623.12,825.797 1621.43,824.975 1620.03,823.33 C1618.64,821.685 1617.94,819.67 1617.94,817.284 C1617.94,814.817 1618.66,812.74 1620.1,811.054 C1621.54,809.368 1623.2,808.525 1625.09,808.525 C1626.9,808.525 1628.53,809.286 1629.97,810.807 C1631.41,812.329 1632.13,814.406 1632.13,817.038 C1632.13,819.505 1631.43,821.582 1630.03,823.268 C1628.63,824.954 1626.98,825.797 1625.09,825.797 M1690.81,728.7 L1700.43,728.7 L1700.43,825.427 L1690.81,825.427 L1690.81,728.7 M1800.13,827.031 C1788.94,827.031 1779.15,822.672 1770.76,813.953 C1761.55,804.494 1756.94,792.28 1756.94,777.31 C1756.94,762.999 1761.26,750.908 1769.9,741.038 C1778.29,731.743 1788.24,727.096 1799.76,727.096 C1811.44,727.096 1821.47,731.661 1829.86,740.791 C1838.5,750.414 1842.82,762.546 1842.82,777.187 C1842.82,792.404 1838.13,804.741 1828.75,814.2 C1820.44,822.754 1810.9,827.031 1800.13,827.031 M1799.39,817.901 C1808.52,817.901 1816.29,814.077 1822.7,806.427 C1829.2,798.613 1832.45,788.867 1832.45,777.187 C1832.45,771.512 1831.67,766.248 1830.11,761.395 C1828.54,756.542 1826.2,752.142 1823.08,748.193 C1816.82,740.215 1809.09,736.226 1799.88,736.226 C1790.75,736.226 1783.02,740.215 1776.68,748.193 C1770.43,756.007 1767.31,765.754 1767.31,777.434 C1767.31,789.607 1770.6,799.518 1777.18,807.168 C1783.35,814.323 1790.75,817.901 1799.39,817.901 Z" style="stroke:none;fill-rule:nonzero;fill:#ccaf70;fill-opacity:1;"/>
        </g>
        <g id="Shape2">
            <desc shapeID="2" type="0" basicInfo-basicType="0" basicInfo-roundedRectRadius="12" basicInfo-polygonSides="6" basicInfo-starPoints="5" bounding="rect(-25.8701,-555.222,51.7401,1110.45)" text="" font-familyName="Helvetica" font-pixelSize="20" font-bold="0" font-underline="0" font-alignment="1" strokeStyle="0" markerStart="0" markerEnd="0" shadowEnabled="0" shadowOffsetX="0" shadowOffsetY="2" shadowBlur="4" shadowOpacity="160" blurEnabled="0" blurRadius="4" transform="matrix(0.293227,0,0,0.293227,894.364,519.752)" pers-center="0,0" pers-size="0,0" pers-start="0,0" pers-end="0,0" locked="0" mesh="" flag=""/>
            <path id="shapePath2" d="M888.271,364.327 L886.778,390.573 L890.458,442.232 L891.649,482.793 L892.543,535.653 L890.306,570.139 L889.409,591.19 L890.306,611.346 L886.778,654.791 L888.066,681.662 L899.71,682.559 L899.71,670.467 L898.367,634.189 L899.71,598.805 C899.71,598.805 901.95,541.475 901.95,541.475 L900.704,484.202 L898.367,443.798 L892.543,394.121 L894.335,361.426 L891.649,356.947 L888.271,364.327 Z" style="stroke:none;fill-rule:evenodd;fill:url(#linearGradientFill2);fill-opacity:1;"/><defs><linearGradient id="linearGradientFill2" gradientUnits="userSpaceOnUse" x1="830.553" y1="696.531" x2="845.908" y2="182.284"><stop offset="0.152687" stop-color="#e5ce7e" stop-opacity="1"/><stop offset="0.996613" stop-color="#cbac6f" stop-opacity="1"/></linearGradient></defs>
        </g>
        <g id="Shape3">
            <desc shapeID="3" type="0" basicInfo-basicType="0" basicInfo-roundedRectRadius="12" basicInfo-polygonSides="6" basicInfo-starPoints="5" bounding="rect(-178.824,-166.994,357.65,333.988)" text="" font-familyName="Avenir" font-pixelSize="300" font-bold="0" font-underline="0" font-alignment="1" strokeStyle="0" markerStart="0" markerEnd="0" shadowEnabled="0" shadowOffsetX="0" shadowOffsetY="2" shadowBlur="4" shadowOpacity="160" blurEnabled="0" blurRadius="4" transform="matrix(0.293227,0,0,0.293227,892.269,348.134)" pers-center="0,0" pers-size="0,0" pers-start="0,0" pers-end="0,0" locked="0" mesh="" flag=""/>
            <path id="shapePath3" d="M861.033,395.675 L868.164,389.019 L874.344,379.511 L882.902,370.954 L890.983,369.052 L901.298,374.282 L908.633,383.593 L921.13,389.019 L924.866,384.766 L922.361,376.183 L904.281,367.151 L915.23,367.626 L927.59,365.724 L934.721,367.626 L944.23,368.101 L944.705,364.773 L933.771,359.544 L919.508,355.265 L910.952,357.167 L905.721,356.216 L909.524,353.839 L922.361,347.183 L935.196,342.429 L943.755,339.101 L943.277,336.724 L931.393,335.774 L919.508,341.003 L909.524,345.757 L898.59,350.987 L897.639,346.708 L902.868,330.069 L903.346,320.726 L911.902,302.97 L911.902,299.642 L907.149,299.167 L902.868,305.823 L893.523,318.659 L891.611,333.075 L888.608,338.151 L884.327,328.167 L881.475,323.888 L878.148,322.938 L875.295,325.79 L878.148,333.872 L881.475,340.528 L878.623,341.954 L873.196,336.724 L867.18,333.075 C867.18,333.075 859.131,331.02 859.131,331.02 L852,328.167 L847.721,331.97 L855.328,335.774 L866.174,342.96 L876.246,347.183 L870.066,349.31 L867.697,352.5 L871.94,356.216 L864.081,359.544 L852.669,362.761 L844.112,367.151 L839.833,371.905 L842.685,375.232 L852.669,371.905 L859.607,370.478 L871.492,369.527 L870.066,376.183 L865.312,380.937 L855.803,390.921 L855.328,397.101 L861.033,395.675 Z" style="stroke:none;fill-rule:evenodd;fill:url(#linearGradientFill3);fill-opacity:1;"/><defs><linearGradient id="linearGradientFill3" gradientUnits="userSpaceOnUse" x1="830.553" y1="696.531" x2="845.908" y2="182.284"><stop offset="0.152687" stop-color="#e5ce7e" stop-opacity="1"/><stop offset="0.996613" stop-color="#cbac6f" stop-opacity="1"/></linearGradient></defs>
        </g>
        <g id="Shape4">
            <desc shapeID="4" type="0" basicInfo-basicType="0" basicInfo-roundedRectRadius="12" basicInfo-polygonSides="6" basicInfo-starPoints="5" bounding="rect(-25.8701,-555.222,51.7401,1110.45)" text="" font-familyName="Helvetica" font-pixelSize="20" font-bold="0" font-underline="0" font-alignment="1" strokeStyle="0" markerStart="0" markerEnd="0" shadowEnabled="0" shadowOffsetX="0" shadowOffsetY="2" shadowBlur="4" shadowOpacity="160" blurEnabled="0" blurRadius="4" transform="matrix(0.336866,0,0,0.336866,772.187,495.523)" pers-center="0,0" pers-size="0,0" pers-start="0,0" pers-end="0,0" locked="0" mesh="" flag=""/>
            <path id="shapePath4" d="M765.187,316.966 L763.472,347.118 L766.558,400.226 L767.926,446.824 L770.095,513.789 L767.525,553.408 L766.494,577.592 L767.525,600.748 L767.525,650.658 L764.951,681.529 L778.328,682.559 L778.328,668.667 L776.785,626.99 L778.328,586.34 C778.328,586.34 780.902,520.479 780.902,520.479 L778.328,448.443 L778.328,400.076 L771.638,351.194 L772.153,313.633 L769.068,308.487 L765.187,316.966 Z" style="stroke:none;fill-rule:evenodd;fill:url(#linearGradientFill4);fill-opacity:1;"/><defs><linearGradient id="linearGradientFill4" gradientUnits="userSpaceOnUse" x1="830.553" y1="696.531" x2="845.908" y2="182.284"><stop offset="0.152687" stop-color="#e5ce7e" stop-opacity="1"/><stop offset="0.996613" stop-color="#cbac6f" stop-opacity="1"/></linearGradient></defs>
        </g>
        <g id="Shape5">
            <desc shapeID="5" type="0" basicInfo-basicType="0" basicInfo-roundedRectRadius="12" basicInfo-polygonSides="6" basicInfo-starPoints="5" bounding="rect(-187.26,-132.89,374.522,265.78)" text="" font-familyName="Avenir" font-pixelSize="300" font-bold="0" font-underline="0" font-alignment="1" strokeStyle="0" markerStart="0" markerEnd="0" shadowEnabled="0" shadowOffsetX="0" shadowOffsetY="2" shadowBlur="4" shadowOpacity="160" blurEnabled="0" blurRadius="4" transform="matrix(0.336866,0,0,0.336866,766.938,309.852)" pers-center="0,0" pers-size="0,0" pers-start="0,0" pers-end="0,0" locked="0" mesh="" flag=""/>
            <path id="shapePath5" d="M733.896,352.979 C733.896,352.979 742.088,345.333 742.088,345.333 C742.088,345.333 749.188,334.41 749.188,334.41 C749.188,334.41 759.019,324.579 759.019,324.579 C759.019,324.579 768.303,322.394 768.303,322.394 C768.303,322.394 785.78,328.402 785.78,328.402 C785.78,328.402 795.613,334.41 795.613,334.41 C795.613,334.41 809.266,339.871 809.266,339.871 C809.266,339.871 811.449,335.502 811.449,335.502 C811.449,335.502 805.443,329.494 805.443,329.494 C805.443,329.494 795.067,321.302 795.067,321.302 C795.067,321.302 796.159,319.117 796.159,319.117 C796.159,319.117 810.358,318.571 810.358,318.571 C810.358,318.571 818.55,320.756 818.55,320.756 C818.55,320.756 829.475,321.302 829.475,321.302 C829.475,321.302 830.02,317.479 830.02,317.479 C830.02,317.479 817.459,311.471 817.459,311.471 C817.459,311.471 801.073,306.555 801.073,306.555 C801.073,306.555 791.244,308.74 791.244,308.74 C791.244,308.74 785.234,307.648 785.234,307.648 C785.234,307.648 789.603,304.917 789.603,304.917 C789.603,304.917 804.351,297.271 804.351,297.271 C804.351,297.271 819.096,291.809 819.096,291.809 C819.096,291.809 828.929,287.986 828.929,287.986 C828.929,287.986 828.38,285.255 828.38,285.255 C828.38,285.255 814.727,284.163 814.727,284.163 C814.727,284.163 801.073,290.171 801.073,290.171 C801.073,290.171 789.603,295.632 789.603,295.632 C789.603,295.632 777.041,301.64 777.041,301.64 C777.041,301.64 778.614,298.056 778.614,298.056 C778.614,298.056 786.193,287.986 786.193,287.986 C786.193,287.986 791.244,277.242 791.244,277.242 C791.244,277.242 808.256,271.398 808.256,271.398 C808.256,271.398 808.256,267.575 808.256,267.575 C808.256,267.575 802.795,267.029 802.795,267.029 C802.795,267.029 792.416,265.085 792.416,265.085 C792.416,265.085 776.139,273.786 776.139,273.786 C776.139,273.786 769.024,281.062 769.024,281.062 C769.024,281.062 765.575,286.894 765.575,286.894 C765.575,286.894 760.656,275.424 760.656,275.424 C760.656,275.424 757.38,270.509 757.38,270.509 C757.38,270.509 753.557,269.417 753.557,269.417 C753.557,269.417 750.28,272.694 750.28,272.694 C750.28,272.694 753.557,281.978 753.557,281.978 C753.557,281.978 757.38,289.625 757.38,289.625 C757.38,289.625 754.104,291.263 754.104,291.263 C754.104,291.263 745.365,283.617 745.365,283.617 C745.365,283.617 737.173,280.34 737.173,280.34 C737.173,280.34 730.073,278.701 730.073,278.701 C730.073,278.701 718.603,276.693 718.603,276.693 C718.603,276.693 710.411,276.693 710.411,276.693 C710.411,276.693 705.495,281.062 705.495,281.062 C705.495,281.062 717.232,283.617 717.232,283.617 C717.232,283.617 732.257,289.625 732.257,289.625 C732.257,289.625 751.373,297.271 751.373,297.271 C751.373,297.271 757.38,301.64 757.38,301.64 C757.38,301.64 754.65,308.194 754.65,308.194 C754.65,308.194 747.003,310.925 747.003,310.925 C747.003,310.925 736.626,313.656 736.626,313.656 C736.626,313.656 720.241,317.479 720.241,317.479 C720.241,317.479 708.772,320.756 708.772,320.756 C708.772,320.756 703.857,326.217 703.857,326.217 C703.857,326.217 707.134,330.04 707.134,330.04 C707.134,330.04 718.603,326.217 718.603,326.217 C718.603,326.217 732.257,324.033 732.257,324.033 C732.257,324.033 745.911,322.94 745.911,322.94 C745.911,322.94 744.272,330.587 744.272,330.587 C744.272,330.587 738.811,336.048 738.811,336.048 C738.811,336.048 727.888,347.518 727.888,347.518 C727.888,347.518 727.342,354.618 727.342,354.618 C727.342,354.618 733.896,352.979 733.896,352.979 Z" style="stroke:none;fill-rule:evenodd;fill:url(#linearGradientFill5);fill-opacity:1;"/><defs><linearGradient id="linearGradientFill5" gradientUnits="userSpaceOnUse" x1="830.553" y1="696.531" x2="845.908" y2="182.284"><stop offset="0.152687" stop-color="#e5ce7e" stop-opacity="1"/><stop offset="0.996613" stop-color="#cbac6f" stop-opacity="1"/></linearGradient></defs>
        </g>
        <g id="Shape6">
            <desc shapeID="6" type="0" basicInfo-basicType="0" basicInfo-roundedRectRadius="12" basicInfo-polygonSides="6" basicInfo-starPoints="5" bounding="rect(-25.8701,-555.222,51.7401,1110.45)" text="" font-familyName="Helvetica" font-pixelSize="20" font-bold="0" font-underline="0" font-alignment="1" strokeStyle="0" markerStart="0" markerEnd="0" shadowEnabled="0" shadowOffsetX="0" shadowOffsetY="2" shadowBlur="4" shadowOpacity="160" blurEnabled="0" blurRadius="4" transform="matrix(0.411364,0,0,0.411364,1086.25,454.16)" pers-center="0,0" pers-size="0,0" pers-start="0,0" pers-end="0,0" locked="0" mesh="" flag=""/>
            <path id="shapePath6" d="M1077.7,236.116 L1075.61,272.935 L1079.38,337.788 L1081.05,394.691 L1083.7,476.466 L1080.56,524.847 L1079.3,554.378 L1080.56,582.656 L1080.56,643.603 L1077.42,681.301 L1093.75,682.559 L1093.75,665.595 L1091.87,614.701 L1093.75,565.062 C1093.75,565.062 1096.89,484.635 1096.89,484.635 L1093.75,396.668 L1093.75,337.605 L1085.58,277.913 L1086.21,232.045 L1082.44,225.762 L1077.7,236.116 Z" style="stroke:none;fill-rule:evenodd;fill:url(#linearGradientFill6);fill-opacity:1;"/><defs><linearGradient id="linearGradientFill6" gradientUnits="userSpaceOnUse" x1="830.553" y1="696.531" x2="845.908" y2="182.284"><stop offset="0.152687" stop-color="#e5ce7e" stop-opacity="1"/><stop offset="0.996613" stop-color="#cbac6f" stop-opacity="1"/></linearGradient></defs>
        </g>
        <g id="Shape7">
            <desc shapeID="7" type="0" basicInfo-basicType="0" basicInfo-roundedRectRadius="12" basicInfo-polygonSides="6" basicInfo-starPoints="5" bounding="rect(-187.26,-166.994,374.522,333.988)" text="" font-familyName="Avenir" font-pixelSize="300" font-bold="0" font-underline="0" font-alignment="1" strokeStyle="0" markerStart="0" markerEnd="0" shadowEnabled="0" shadowOffsetX="0" shadowOffsetY="2" shadowBlur="4" shadowOpacity="160" blurEnabled="0" blurRadius="4" transform="matrix(0.411364,0,0,0.411364,1079.84,213.398)" pers-center="0,0" pers-size="0,0" pers-start="0,0" pers-end="0,0" locked="0" mesh="" flag=""/>
            <path id="shapePath7" d="M1039.49,280.093 C1039.49,280.093 1049.5,270.756 1049.5,270.756 C1049.5,270.756 1058.17,257.417 1058.17,257.417 C1058.17,257.417 1070.17,245.412 1070.17,245.412 C1070.17,245.412 1082.39,236.741 1082.39,236.741 C1082.39,236.741 1102.18,255.434 1102.18,255.434 C1102.18,255.434 1116.04,265.966 1116.04,265.966 C1116.04,265.966 1139.39,280.093 1139.39,280.093 C1139.39,280.093 1135.38,265.966 1135.38,265.966 C1135.38,265.966 1128.05,256.768 1128.05,256.768 C1128.05,256.768 1114.19,241.41 1114.19,241.41 C1114.19,241.41 1115.52,238.742 1115.52,238.742 C1115.52,238.742 1132.86,238.075 1132.86,238.075 C1132.86,238.075 1142.87,240.743 1142.87,240.743 C1142.87,240.743 1156.21,241.41 1156.21,241.41 C1156.21,241.41 1156.88,236.741 1156.88,236.741 C1156.88,236.741 1141.54,229.405 1141.54,229.405 C1141.54,229.405 1121.53,223.402 1121.53,223.402 C1121.53,223.402 1109.52,226.071 1109.52,226.071 C1109.52,226.071 1102.18,224.736 1102.18,224.736 C1102.18,224.736 1107.52,221.402 1107.52,221.402 C1107.52,221.402 1125.53,212.064 1125.53,212.064 C1125.53,212.064 1143.53,205.395 1143.53,205.395 C1143.53,205.395 1155.54,200.726 1155.54,200.726 C1155.54,200.726 1154.87,197.392 1154.87,197.392 C1154.87,197.392 1138.2,196.058 1138.2,196.058 C1138.2,196.058 1121.53,203.394 1121.53,203.394 C1121.53,203.394 1107.52,210.064 1107.52,210.064 C1107.52,210.064 1092.18,217.4 1092.18,217.4 C1092.18,217.4 1090.85,211.398 1090.85,211.398 C1090.85,211.398 1098.18,188.054 1098.18,188.054 C1098.18,188.054 1098.85,174.947 1098.85,174.947 C1098.85,174.947 1110.86,150.039 1110.86,150.039 C1110.86,150.039 1110.86,145.37 1110.86,145.37 C1110.86,145.37 1104.19,144.703 1104.19,144.703 C1104.19,144.703 1098.18,154.04 1098.18,154.04 C1098.18,154.04 1085.07,172.048 1085.07,172.048 C1085.07,172.048 1082.39,192.272 1082.39,192.272 C1082.39,192.272 1078.18,199.393 1078.18,199.393 C1078.18,199.393 1072.17,185.387 1072.17,185.387 C1072.17,185.387 1068.17,179.384 1068.17,179.384 C1068.17,179.384 1063.5,178.05 1063.5,178.05 C1063.5,178.05 1059.5,182.052 1059.5,182.052 C1059.5,182.052 1063.5,193.39 1063.5,193.39 C1063.5,193.39 1068.17,202.727 1068.17,202.727 C1068.17,202.727 1064.17,204.728 1064.17,204.728 C1064.17,204.728 1053.5,195.391 1053.5,195.391 C1053.5,195.391 1042.83,189.388 1042.83,189.388 C1042.83,189.388 1034.16,187.388 1034.16,187.388 C1034.16,187.388 1023.49,182.052 1023.49,182.052 C1023.49,182.052 1013.48,178.05 1013.48,178.05 C1013.48,178.05 1007.48,183.386 1007.48,183.386 C1007.48,183.386 1018.15,188.722 1018.15,188.722 C1018.15,188.722 1036.82,200.726 1036.82,200.726 C1036.82,200.726 1060.83,212.064 1060.83,212.064 C1060.83,212.064 1068.17,217.4 1068.17,217.4 C1068.17,217.4 1064.84,225.403 1064.84,225.403 C1064.84,225.403 1055.5,228.738 1055.5,228.738 C1055.5,228.738 1042.83,232.073 1042.83,232.073 C1042.83,232.073 1022.82,236.741 1022.82,236.741 C1022.82,236.741 1008.81,240.743 1008.81,240.743 C1008.81,240.743 1002.81,247.413 1002.81,247.413 C1002.81,247.413 1006.81,252.081 1006.81,252.081 C1006.81,252.081 1020.82,247.413 1020.82,247.413 C1020.82,247.413 1037.49,244.745 1037.49,244.745 C1037.49,244.745 1054.16,243.411 1054.16,243.411 C1054.16,243.411 1052.16,252.748 1052.16,252.748 C1052.16,252.748 1045.49,259.418 1045.49,259.418 C1045.49,259.418 1032.16,273.423 1032.16,273.423 C1032.16,273.423 1031.49,282.094 1031.49,282.094 C1031.49,282.094 1039.49,280.093 1039.49,280.093 Z" style="stroke:none;fill-rule:evenodd;fill:url(#linearGradientFill7);fill-opacity:1;"/><defs><linearGradient id="linearGradientFill7" gradientUnits="userSpaceOnUse" x1="830.553" y1="696.531" x2="845.908" y2="182.284"><stop offset="0.152687" stop-color="#e5ce7e" stop-opacity="1"/><stop offset="0.996613" stop-color="#cbac6f" stop-opacity="1"/></linearGradient></defs>
        </g>
        <g id="Shape8">
            <desc shapeID="8" type="0" basicInfo-basicType="0" basicInfo-roundedRectRadius="12" basicInfo-polygonSides="6" basicInfo-starPoints="5" bounding="rect(-22.0501,-555.222,44.1,1110.45)" text="" font-familyName="Helvetica" font-pixelSize="20" font-bold="0" font-underline="0" font-alignment="1" strokeStyle="0" markerStart="0" markerEnd="0" shadowEnabled="0" shadowOffsetX="0" shadowOffsetY="2" shadowBlur="4" shadowOpacity="160" blurEnabled="0" blurRadius="4" transform="matrix(0.33054,0,0,0.330539,1301.75,499.036)" pers-center="0,0" pers-size="0,0" pers-start="0,0" pers-end="0,0" locked="0" mesh="" flag=""/>
            <path id="shapePath8" d="M1296.14,323.833 L1294.46,353.418 L1297.49,405.528 L1298.83,451.251 L1295.72,516.959 L1298.43,555.834 L1297.42,579.563 L1298.43,602.285 L1298.43,651.257 L1295.91,681.548 L1309.03,682.559 L1309.03,668.928 L1307.52,628.034 L1309.03,588.147 C1309.03,588.147 1306.32,523.523 1306.32,523.523 L1309.03,452.84 L1309.03,405.381 L1302.47,357.418 L1302.98,320.562 L1299.95,315.513 L1296.14,323.833 Z" style="stroke:none;fill-rule:evenodd;fill:url(#linearGradientFill8);fill-opacity:1;"/><defs><linearGradient id="linearGradientFill8" gradientUnits="userSpaceOnUse" x1="830.553" y1="696.531" x2="845.908" y2="182.284"><stop offset="0.152687" stop-color="#e5ce7e" stop-opacity="1"/><stop offset="0.996613" stop-color="#cbac6f" stop-opacity="1"/></linearGradient></defs>
        </g>
        <g id="Shape9">
            <desc shapeID="9" type="0" basicInfo-basicType="0" basicInfo-roundedRectRadius="12" basicInfo-polygonSides="6" basicInfo-starPoints="5" bounding="rect(-187.26,-154.101,374.522,308.202)" text="" font-familyName="Avenir" font-pixelSize="300" font-bold="0" font-underline="0" font-alignment="1" strokeStyle="0" markerStart="0" markerEnd="0" shadowEnabled="0" shadowOffsetX="0" shadowOffsetY="2" shadowBlur="4" shadowOpacity="160" blurEnabled="0" blurRadius="4" transform="matrix(0.324614,0.0623053,-0.0623053,0.324614,1297.06,309.764)" pers-center="0,0" pers-size="0,0" pers-start="0,0" pers-end="0,0" locked="0" mesh="" flag=""/>
            <path id="shapePath9" d="M1255.92,352.097 C1255.92,352.097 1265.22,346.244 1265.22,346.244 C1265.22,346.244 1274.09,337.031 1274.09,337.031 C1274.09,337.031 1285.38,329.376 1285.38,329.376 C1285.38,329.376 1294.73,328.988 1294.73,328.988 C1294.73,328.988 1310.46,338.01 1310.46,338.01 C1310.46,338.01 1318.82,345.618 1318.82,345.618 C1318.82,345.618 1330.97,353.406 1330.97,353.406 C1330.97,353.406 1333.88,349.599 1333.88,349.599 C1333.88,349.599 1329.2,342.699 1329.2,342.699 C1329.2,342.699 1320.72,332.886 1320.72,332.886 C1320.72,332.886 1322.18,330.982 1322.18,330.982 C1322.18,330.982 1335.96,333.082 1335.96,333.082 C1335.96,333.082 1343.45,336.703 1343.45,336.703 C1343.45,336.703 1353.88,339.25 1353.88,339.25 C1353.88,339.25 1355.11,335.666 1355.11,335.666 C1355.11,335.666 1344.12,327.554 1344.12,327.554 C1344.12,327.554 1329.24,319.787 1329.24,319.787 C1329.24,319.787 1319.36,320.074 1319.36,320.074 C1319.36,320.074 1313.77,317.91 1313.77,317.91 C1313.77,317.91 1318.49,316.086 1318.49,316.086 C1318.49,316.086 1334.11,311.446 1334.11,311.446 C1334.11,311.446 1349.33,308.91 1349.33,308.91 C1349.33,308.91 1359.51,307.045 1359.51,307.045 C1359.51,307.045 1359.49,304.312 1359.49,304.312 C1359.49,304.312 1346.54,300.734 1346.54,300.734 C1346.54,300.734 1332.27,303.998 1332.27,303.998 C1332.27,303.998 1320.2,307.139 1320.2,307.139 C1320.2,307.139 1306.99,310.605 1306.99,310.605 C1306.99,310.605 1306.85,305.667 1306.85,305.667 C1306.85,305.667 1317.22,294.274 1317.22,294.274 C1317.22,294.274 1329.24,291.293 1329.24,291.293 C1329.24,291.293 1339.76,277.762 1339.76,277.762 C1339.76,277.762 1350.25,272.307 1350.25,272.307 C1350.25,272.307 1343.45,266.803 1343.45,266.803 C1343.45,266.803 1325.89,269.213 1325.89,269.213 C1325.89,269.213 1311.56,279.939 1311.56,279.939 C1311.56,279.939 1303.07,289.293 1303.07,289.293 C1303.07,289.293 1298.67,294.274 1298.67,294.274 C1298.67,294.274 1296.05,282.312 1296.05,282.312 C1296.05,282.312 1293.8,276.97 1293.8,276.97 C1293.8,276.97 1290.32,275.21 1290.32,275.21 C1290.32,275.21 1286.55,277.762 1286.55,277.762 C1286.55,277.762 1287.99,287.315 1287.99,287.315 C1287.99,287.315 1290.26,295.39 1290.26,295.39 C1290.26,295.39 1286.8,296.363 1286.8,296.363 C1286.8,296.363 1279.8,287.379 1279.8,287.379 C1279.8,287.379 1272.29,281.026 1272.29,281.026 C1272.29,281.026 1265.75,278.134 1265.75,278.134 C1265.75,278.134 1258.13,272.307 1258.13,272.307 C1258.13,272.307 1250.85,267.634 1250.85,267.634 C1250.85,267.634 1245.3,270.935 1245.3,270.935 C1245.3,270.935 1252.91,276.762 1252.91,276.762 C1252.91,276.762 1265.83,289.064 1265.83,289.064 C1265.83,289.064 1283.06,301.647 1283.06,301.647 C1283.06,301.647 1288.04,306.969 1288.04,306.969 C1288.04,306.969 1284.2,312.779 1284.2,312.779 C1284.2,312.779 1276.33,313.997 1276.33,313.997 C1276.33,313.997 1265.82,314.709 1265.82,314.709 C1265.82,314.709 1249.32,315.362 1249.32,315.362 C1249.32,315.362 1237.67,316.399 1237.67,316.399 C1237.67,316.399 1231.92,320.753 1231.92,320.753 C1231.92,320.753 1234.37,325.043 1234.37,325.043 C1234.37,325.043 1246.13,323.48 1246.13,323.48 C1246.13,323.48 1259.69,323.9 1259.69,323.9 C1259.69,323.9 1273.05,325.373 1273.05,325.373 C1273.05,325.373 1270.06,332.438 1270.06,332.438 C1270.06,332.438 1263.78,336.691 1263.78,336.691 C1263.78,336.691 1251.14,345.723 1251.14,345.723 C1251.14,345.723 1249.3,352.464 1249.3,352.464 C1249.3,352.464 1255.92,352.097 1255.92,352.097 Z" style="stroke:none;fill-rule:evenodd;fill:url(#linearGradientFill9);fill-opacity:1;"/><defs><linearGradient id="linearGradientFill9" gradientUnits="userSpaceOnUse" x1="830.553" y1="696.531" x2="845.908" y2="182.284"><stop offset="0.152687" stop-color="#e5ce7e" stop-opacity="1"/><stop offset="0.996613" stop-color="#cbac6f" stop-opacity="1"/></linearGradient></defs>
        </g>
        <g id="Shape10">
            <desc shapeID="10" type="0" basicInfo-basicType="0" basicInfo-roundedRectRadius="12" basicInfo-polygonSides="6" basicInfo-starPoints="5" bounding="rect(-22.725,-555.222,45.4499,1110.45)" text="" font-familyName="Helvetica" font-pixelSize="20" font-bold="0" font-underline="0" font-alignment="1" strokeStyle="0" markerStart="0" markerEnd="0" shadowEnabled="0" shadowOffsetX="0" shadowOffsetY="2" shadowBlur="4" shadowOpacity="160" blurEnabled="0" blurRadius="4" transform="matrix(0.271557,0,0,0.271557,1367.51,535.54)" pers-center="0,0" pers-size="0,0" pers-start="0,0" pers-end="0,0" locked="0" mesh="" flag=""/>
            <path id="shapePath10" d="M1363.09,391.601 L1361.71,415.907 L1364.2,458.719 L1361.34,494.978 L1363.09,548.96 L1364.98,582.203 L1364.15,601.698 L1364.98,620.365 L1364.98,660.599 L1362.9,685.484 L1373.69,686.315 L1373.69,675.116 L1372.44,641.519 L1373.69,608.751 C1373.69,608.751 1371.8,554.353 1371.8,554.353 L1369.73,496.283 L1373.69,458.598 L1368.29,419.193 L1368.71,388.914 L1366.22,384.766 L1363.09,391.601 Z" style="stroke:none;fill-rule:evenodd;fill:url(#linearGradientFill10);fill-opacity:1;"/><defs><linearGradient id="linearGradientFill10" gradientUnits="userSpaceOnUse" x1="830.553" y1="696.531" x2="845.908" y2="182.284"><stop offset="0.152687" stop-color="#e5ce7e" stop-opacity="1"/><stop offset="0.996613" stop-color="#cbac6f" stop-opacity="1"/></linearGradient></defs>
        </g>
        <g id="Shape11">
            <desc shapeID="11" type="0" basicInfo-basicType="0" basicInfo-roundedRectRadius="12" basicInfo-polygonSides="6" basicInfo-starPoints="5" bounding="rect(-170.348,-142.46,340.697,284.92)" text="" font-familyName="Avenir" font-pixelSize="300" font-bold="0" font-underline="0" font-alignment="1" strokeStyle="0" markerStart="0" markerEnd="0" shadowEnabled="0" shadowOffsetX="0" shadowOffsetY="2" shadowBlur="4" shadowOpacity="160" blurEnabled="0" blurRadius="4" transform="matrix(0.270255,0.0265568,-0.0265568,0.270255,1367.5,382.164)" pers-center="0,0" pers-size="0,0" pers-start="0,0" pers-end="0,0" locked="0" mesh="" flag=""/>
            <path id="shapePath11" d="M1342.8,417.283 L1348.86,414.542 L1354.2,406.643 L1361.44,399.531 L1369.06,398.51 L1378.34,404.707 L1390.02,410.303 L1400.55,415.761 L1402.64,412.427 L1398.3,407.134 L1390.62,399.743 L1391.67,398.077 L1398.3,400.282 L1404.73,401.157 L1411.72,400.683 L1412.46,397.659 L1403.87,391.794 L1395.08,388.387 L1388.95,388.387 L1384.82,388.014 L1387.53,386.168 L1399.96,381.196 L1407.86,380.008 L1413.61,376.46 L1413.38,374.226 L1402.64,372.006 L1394.54,374.226 L1385.11,376.078 L1379.33,380.999 L1377.22,378.519 L1382.04,369.131 L1386.87,362.281 L1392.3,349.267 L1392.6,346.2 L1388.26,345.332 L1383.07,351.078 L1377.22,354.891 L1372.9,365.408 L1369.67,369.814 L1366.63,360.225 L1364.39,356.023 L1361.41,354.846 L1358.52,357.216 L1360.42,364.923 L1362.88,371.359 L1360.12,372.415 L1354.2,366.06 L1347.09,360.96 L1340.29,359.086 L1333.98,355.811 L1329.69,358.928 L1337.1,365.408 L1345.7,370.924 L1355.96,378.799 C1355.96,378.799 1353.53,384.766 1353.53,384.766 L1345.09,387.129 L1331.92,388.717 L1324.05,391.826 L1319.68,395.82 L1322.01,399.146 L1331.51,396.983 L1340.01,396.983 L1349.73,397.183 L1347.41,401.461 L1344.33,405.717 L1338.42,412.427 L1337.42,418.08 L1342.8,417.283 Z" style="stroke:none;fill-rule:evenodd;fill:url(#linearGradientFill11);fill-opacity:1;"/><defs><linearGradient id="linearGradientFill11" gradientUnits="userSpaceOnUse" x1="830.553" y1="696.531" x2="845.908" y2="182.284"><stop offset="0.152687" stop-color="#e5ce7e" stop-opacity="1"/><stop offset="0.996613" stop-color="#cbac6f" stop-opacity="1"/></linearGradient></defs>
        </g>
    </g>
</svg>
