<?xml version="1.0"?>
<svg version="1.1" xmlns="http://www.w3.org/2000/svg" xmlns:xlink="http://www.w3.org/1999/xlink" width="400" height="180">
    <desc iVinci="yes" version="4.6" gridStep="20" showGrid="no" snapToGrid="no" codePlatform="0"/>
    <g id="Layer1" name="Layer 1" opacity="1">
        <g id="Shape1">
            <desc shapeID="1" type="0" basicInfo-basicType="0" basicInfo-roundedRectRadius="12" basicInfo-polygonSides="6" basicInfo-starPoints="5" bounding="rect(-640.437,-40.4999,1280.87,80.9997)" text="OPENPIPELINE.IO" font-familyName="AppleGothic" font-pixelSize="100" font-bold="0" font-underline="0" font-alignment="1" strokeStyle="0" markerStart="0" markerEnd="0" shadowEnabled="0" shadowOffsetX="0" shadowOffsetY="2" shadowBlur="4" shadowOpacity="160" blurEnabled="0" blurRadius="4" transform="matrix(0.306083,0,0,0.306083,199.951,162.242)" pers-center="0,0" pers-size="0,0" pers-start="0,0" pers-end="0,0" locked="0" mesh="" flag=""/>
            <path id="shapePath1" d="M14.6379,174.638 C11.8625,174.638 9.43423,173.557 7.35274,171.394 C5.0674,169.047 3.92444,166.017 3.92444,162.303 C3.92444,158.753 4.99591,155.753 7.13869,153.305 C9.21988,150.999 11.6891,149.846 14.5461,149.846 C17.4437,149.846 19.9333,150.978 22.0147,153.243 C24.1572,155.631 25.2287,158.641 25.2287,162.273 C25.2287,166.048 24.0654,169.109 21.7391,171.455 C19.6783,173.577 17.311,174.638 14.6379,174.638 M14.4543,172.373 C16.7193,172.373 18.6477,171.425 20.2394,169.527 C21.8515,167.588 22.6575,165.17 22.6575,162.273 C22.6575,160.865 22.4635,159.559 22.076,158.355 C21.6882,157.151 21.1065,156.059 20.3312,155.08 C18.7802,153.101 16.8622,152.111 14.5766,152.111 C12.3115,152.111 10.3933,153.101 8.82195,155.08 C7.27113,157.018 6.49588,159.436 6.49588,162.334 C6.49588,165.354 7.31209,167.813 8.9445,169.711 C10.475,171.486 12.3115,172.373 14.4543,172.373 M38.3178,150.244 L46.0005,150.244 C48.2043,150.244 50.0101,150.621 51.418,151.376 C53.3159,152.437 54.2646,154.131 54.2646,156.457 C54.2646,158.702 53.4791,160.436 51.9077,161.661 C50.4795,162.803 48.6429,163.375 46.3985,163.375 L40.7359,163.375 L40.7359,174.241 L38.3178,174.241 L38.3178,150.244 M45.9698,152.356 L40.7359,152.356 L40.7359,161.263 L46.1536,161.263 C47.5818,161.263 48.8163,160.885 49.8571,160.13 C51.0201,159.273 51.6018,158.12 51.6018,156.671 C51.6018,155.039 50.9181,153.866 49.5509,153.152 C48.5511,152.621 47.3573,152.356 45.9698,152.356 M67.5477,150.213 L82.4848,150.213 L82.4848,152.325 L69.9658,152.325 L69.9658,160.62 L82.0255,160.62 L82.0255,162.732 L69.9658,162.732 L69.9658,172.129 L82.5765,172.129 L82.5765,174.241 L67.5477,174.241 L67.5477,150.213 M96.133,174.241 L96.133,150.244 L98.337,150.244 L113.09,170.568 L113.09,150.244 L115.294,150.244 L115.294,174.241 L113.09,174.241 L98.337,153.947 L98.337,174.241 L96.133,174.241 M128.759,150.244 L136.442,150.244 C138.646,150.244 140.452,150.621 141.86,151.376 C143.757,152.437 144.706,154.131 144.706,156.457 C144.706,158.702 143.921,160.436 142.349,161.661 C140.921,162.803 139.085,163.375 136.84,163.375 L131.178,163.375 L131.178,174.241 L128.759,174.241 L128.759,150.244 M136.412,152.356 L131.178,152.356 L131.178,161.263 L136.595,161.263 C138.024,161.263 139.258,160.885 140.299,160.13 C141.462,159.273 142.043,158.12 142.043,156.671 C142.043,155.039 141.36,153.866 139.993,153.152 C138.993,152.621 137.799,152.356 136.412,152.356 M158.723,150.244 L161.111,150.244 L161.111,174.241 L158.723,174.241 L158.723,150.244 M175.16,150.244 L182.843,150.244 C185.047,150.244 186.852,150.621 188.261,151.376 C190.159,152.437 191.106,154.131 191.106,156.457 C191.106,158.702 190.322,160.436 188.75,161.661 C187.321,162.803 185.485,163.375 183.241,163.375 L177.578,163.375 L177.578,174.241 L175.16,174.241 L175.16,150.244 M182.812,152.356 L177.578,152.356 L177.578,161.263 L182.996,161.263 C184.424,161.263 185.659,160.885 186.699,160.13 C187.861,159.273 188.444,158.12 188.444,156.671 C188.444,155.039 187.76,153.866 186.393,153.152 C185.393,152.621 184.2,152.356 182.812,152.356 M204.389,150.213 L219.326,150.213 L219.326,152.325 L206.808,152.325 L206.808,160.62 L218.867,160.62 L218.867,162.732 L206.808,162.732 L206.808,172.129 L219.418,172.129 L219.418,174.241 L204.389,174.241 L204.389,150.213 M233.036,150.244 L235.454,150.244 L235.454,172.129 L247.301,172.129 L247.301,174.241 L233.036,174.241 L233.036,150.244 M261.1,150.244 L263.489,150.244 L263.489,174.241 L261.1,174.241 L261.1,150.244 M277.811,174.241 L277.811,150.244 L280.017,150.244 L294.768,170.568 L294.768,150.244 L296.973,150.244 L296.973,174.241 L294.768,174.241 L280.017,153.947 L280.017,174.241 L277.811,174.241 M310.531,150.213 L325.469,150.213 L325.469,152.325 L312.948,152.325 L312.948,160.62 L325.007,160.62 L325.007,162.732 L312.948,162.732 L312.948,172.129 L325.56,172.129 L325.56,174.241 L310.531,174.241 L310.531,150.213 M341.962,174.332 C341.473,174.332 341.054,174.128 340.706,173.72 C340.361,173.312 340.188,172.812 340.188,172.22 C340.188,171.608 340.366,171.093 340.724,170.675 C341.081,170.257 341.493,170.047 341.962,170.047 C342.411,170.047 342.815,170.236 343.172,170.614 C343.529,170.991 343.708,171.506 343.708,172.159 C343.708,172.771 343.534,173.287 343.187,173.705 C342.84,174.123 342.43,174.332 341.962,174.332 M358.266,150.244 L360.652,150.244 L360.652,174.241 L358.266,174.241 L358.266,150.244 M385.387,174.638 C382.611,174.638 380.182,173.557 378.1,171.394 C375.816,169.047 374.672,166.017 374.672,162.303 C374.672,158.753 375.744,155.753 377.887,153.305 C379.969,150.999 382.437,149.846 385.295,149.846 C388.193,149.846 390.681,150.978 392.762,153.243 C394.906,155.631 395.978,158.641 395.978,162.273 C395.978,166.048 394.814,169.109 392.487,171.455 C390.425,173.577 388.059,174.638 385.387,174.638 M385.203,172.373 C387.468,172.373 389.396,171.425 390.986,169.527 C392.599,167.588 393.405,165.17 393.405,162.273 C393.405,160.865 393.211,159.559 392.824,158.355 C392.435,157.151 391.854,156.059 391.08,155.08 C389.527,153.101 387.61,152.111 385.325,152.111 C383.06,152.111 381.142,153.101 379.569,155.08 C378.019,157.018 377.245,159.436 377.245,162.334 C377.245,165.354 378.061,167.813 379.693,169.711 C381.224,171.486 383.06,172.373 385.203,172.373 Z" style="stroke:none;fill-rule:evenodd;fill:url(#linearGradientFill1);fill-opacity:1;"/><defs><linearGradient id="linearGradientFill1" gradientUnits="userSpaceOnUse" x1="204.381" y1="149.846" x2="204.381" y2="174.638"><stop offset="0" stop-color="#e5ce7e" stop-opacity="1"/><stop offset="1" stop-color="#c5aa6c" stop-opacity="1"/></linearGradient></defs>
        </g>
        <g id="Shape2">
            <desc shapeID="2" type="0" basicInfo-basicType="0" basicInfo-roundedRectRadius="12" basicInfo-polygonSides="6" basicInfo-starPoints="5" bounding="rect(-26.4178,-559.73,52.8355,1119.46)" text="" font-familyName="Helvetica" font-pixelSize="20" font-bold="0" font-underline="0" font-alignment="1" strokeStyle="0" markerStart="0" markerEnd="0" shadowEnabled="0" shadowOffsetX="0" shadowOffsetY="2" shadowBlur="4" shadowOpacity="160" blurEnabled="0" blurRadius="4" transform="matrix(0.0727459,0,0,0.0727459,160.643,98.7088)" pers-center="0,0" pers-size="0,0" pers-start="0,0" pers-end="0,0" locked="0" mesh="" flag=""/>
            <path id="shapePath2" d="M159.165,59.8475 C158.854,61.999 158.734,64.1857 158.795,66.3588 C158.915,70.6399 159.482,74.8979 159.708,79.1747 C159.885,82.5257 159.929,85.8826 160.003,89.2374 C160.101,93.6082 160.292,97.9799 160.225,102.351 C160.181,105.209 159.831,108.054 159.67,110.907 C159.572,112.646 159.448,114.387 159.448,116.129 C159.448,117.798 159.739,119.463 159.67,121.13 C159.521,124.731 158.91,128.305 158.795,131.908 C158.724,134.131 158.576,136.416 159.115,138.574 C159.257,139.147 160.081,139.377 160.67,139.423 C161.159,139.46 161.834,139.258 162.003,138.797 C162.348,137.858 162.031,136.797 162.003,135.797 C161.92,132.796 161.67,129.799 161.67,126.797 C161.67,123.869 161.89,120.945 162.003,118.019 C162.186,113.277 162.518,108.54 162.559,103.796 C162.6,99.0585 162.423,94.3211 162.25,89.587 C162.127,86.2424 161.972,82.8964 161.67,79.5632 C161.297,75.4439 160.427,71.3703 160.225,67.239 C160.093,64.5344 160.735,61.8348 160.67,59.1278 C160.659,58.696 160.393,57.8302 160.003,58.0166 C159.398,58.3063 159.262,59.1832 159.165,59.8475 Z" style="stroke:none;fill-rule:evenodd;fill:url(#linearGradientFill2);fill-opacity:1;"/><defs><linearGradient id="linearGradientFill2" gradientUnits="userSpaceOnUse" x1="145.716" y1="142.411" x2="148.41" y2="14.661"><stop offset="0.141844" stop-color="#e5ce7e" stop-opacity="1"/><stop offset="0.996216" stop-color="#b99d65" stop-opacity="1"/></linearGradient></defs>
        </g>
        <g id="Shape3">
            <desc shapeID="3" type="0" basicInfo-basicType="0" basicInfo-roundedRectRadius="12" basicInfo-polygonSides="6" basicInfo-starPoints="5" bounding="rect(-178.823,-166.994,357.648,333.987)" text="" font-familyName="Avenir" font-pixelSize="300" font-bold="0" font-underline="0" font-alignment="1" strokeStyle="0" markerStart="0" markerEnd="0" shadowEnabled="0" shadowOffsetX="0" shadowOffsetY="2" shadowBlur="4" shadowOpacity="160" blurEnabled="0" blurRadius="4" transform="matrix(0.0727459,0,0,0.0727459,160.157,55.8302)" pers-center="0,0" pers-size="0,0" pers-start="0,0" pers-end="0,0" locked="0" mesh="" flag=""/>
            <path id="shapePath3" d="M152.408,67.6245 L154.177,65.9732 L155.71,63.6144 L157.833,61.4915 L159.838,61.0197 L162.397,62.3172 L164.217,64.6271 L167.317,65.9732 L168.244,64.9181 L167.623,62.7888 L163.137,60.5481 L165.854,60.6659 L168.92,60.194 L170.689,60.6659 L173.048,60.7837 L173.166,59.9581 L170.453,58.6609 L166.915,57.5993 L164.792,58.0712 L163.494,57.8352 L164.438,57.2455 L167.623,55.5943 L170.807,54.4148 L172.93,53.5892 L172.812,52.9995 L169.863,52.7638 L166.915,54.0611 L164.438,55.2405 L161.725,56.538 L161.489,55.4764 L162.787,51.3485 L162.905,49.0306 L165.028,44.6256 L165.028,43.7999 L163.849,43.6821 L162.787,45.3334 L160.468,48.5178 L159.994,52.0942 L159.249,53.3535 L158.187,50.8766 L157.479,49.8151 L156.654,49.5794 L155.946,50.2869 L156.654,52.292 L157.479,53.9432 L156.772,54.297 L155.425,52.9995 L153.933,52.0942 C153.933,52.0942 151.936,51.5844 151.936,51.5844 L150.167,50.8766 L149.105,51.8201 L150.993,52.7638 L153.683,54.5466 L156.182,55.5943 L154.649,56.1219 L154.061,56.9133 L155.114,57.8352 L153.164,58.6609 L150.333,59.459 L148.21,60.5481 L147.148,61.7275 L147.856,62.5529 L150.333,61.7275 L152.054,61.3734 L155.003,61.1375 L154.649,62.7888 L153.47,63.9682 L151.11,66.4451 L150.993,67.9783 L152.408,67.6245 Z" style="stroke:none;fill-rule:evenodd;fill:url(#linearGradientFill3);fill-opacity:1;"/><defs><linearGradient id="linearGradientFill3" gradientUnits="userSpaceOnUse" x1="145.716" y1="142.411" x2="148.41" y2="14.661"><stop offset="0.141844" stop-color="#e5ce7e" stop-opacity="1"/><stop offset="0.996216" stop-color="#b99d65" stop-opacity="1"/></linearGradient></defs>
        </g>
        <g id="Shape4">
            <desc shapeID="4" type="0" basicInfo-basicType="0" basicInfo-roundedRectRadius="12" basicInfo-polygonSides="6" basicInfo-starPoints="5" bounding="rect(-25.92,-561.013,51.8399,1122.03)" text="" font-familyName="Helvetica" font-pixelSize="20" font-bold="0" font-underline="0" font-alignment="1" strokeStyle="0" markerStart="0" markerEnd="0" shadowEnabled="0" shadowOffsetX="0" shadowOffsetY="2" shadowBlur="4" shadowOpacity="160" blurEnabled="0" blurRadius="4" transform="matrix(0.0835722,0,0,0.0835722,130.362,92.8496)" pers-center="0,0" pers-size="0,0" pers-start="0,0" pers-end="0,0" locked="0" mesh="" flag=""/>
            <path id="shapePath4" d="M128.63,48.0978 C128.272,50.5695 128.163,53.081 128.204,55.5782 C128.277,59.9768 128.774,64.3587 128.97,68.7536 C129.142,72.6049 129.727,76.8624 129.847,80.7156 C130.02,86.2535 130.383,91.3865 130.362,96.9271 C130.35,100.21 129.395,103.478 129.21,106.756 C129.097,108.755 128.954,110.754 128.954,112.756 C128.954,114.673 129.183,116.584 129.21,118.501 C129.268,122.627 129.341,126.757 129.21,130.883 C129.128,133.443 128.239,136.001 128.571,138.541 C128.664,139.253 129.65,139.677 130.366,139.732 C130.96,139.778 131.694,139.36 131.89,138.797 C132.267,137.712 131.922,136.499 131.89,135.35 C131.794,131.903 131.507,128.46 131.507,125.011 C131.507,121.647 131.377,118.288 131.507,114.926 C131.718,109.48 132.528,104.037 132.528,98.5868 C132.528,92.6259 132.017,86.6751 131.89,80.7156 C131.804,76.7168 130.921,72.7439 130.647,68.7536 C130.367,64.6832 129.883,60.659 129.593,56.5894 C129.371,53.4908 129.779,50.3718 129.593,47.2709 C129.563,46.7757 130.04,45.7801 129.593,45.9943 C128.897,46.3271 128.74,47.3346 128.63,48.0978 Z" style="stroke:none;fill-rule:evenodd;fill:url(#linearGradientFill4);fill-opacity:1;"/><defs><linearGradient id="linearGradientFill4" gradientUnits="userSpaceOnUse" x1="145.716" y1="142.411" x2="148.41" y2="14.661"><stop offset="0.141844" stop-color="#e5ce7e" stop-opacity="1"/><stop offset="0.996216" stop-color="#b99d65" stop-opacity="1"/></linearGradient></defs>
        </g>
        <g id="Shape5">
            <desc shapeID="5" type="0" basicInfo-basicType="0" basicInfo-roundedRectRadius="12" basicInfo-polygonSides="6" basicInfo-starPoints="5" bounding="rect(-187.259,-132.891,374.52,265.782)" text="" font-familyName="Avenir" font-pixelSize="300" font-bold="0" font-underline="0" font-alignment="1" strokeStyle="0" markerStart="0" markerEnd="0" shadowEnabled="0" shadowOffsetX="0" shadowOffsetY="2" shadowBlur="4" shadowOpacity="160" blurEnabled="0" blurRadius="4" transform="matrix(0.0835722,0,0,0.0835722,129.064,46.3328)" pers-center="0,0" pers-size="0,0" pers-start="0,0" pers-end="0,0" locked="0" mesh="" flag=""/>
            <path id="shapePath5" d="M120.867,57.0322 C120.867,57.0322 122.899,55.1353 122.899,55.1353 C122.899,55.1353 124.661,52.4254 124.661,52.4254 C124.661,52.4254 127.1,49.9865 127.1,49.9865 C127.1,49.9865 129.403,49.4444 129.403,49.4444 C129.403,49.4444 133.739,50.9349 133.739,50.9349 C133.739,50.9349 136.178,52.4254 136.178,52.4254 C136.178,52.4254 139.565,53.7803 139.565,53.7803 C139.565,53.7803 140.107,52.6964 140.107,52.6964 C140.107,52.6964 138.617,51.2058 138.617,51.2058 C138.617,51.2058 136.043,49.1735 136.043,49.1735 C136.043,49.1735 136.314,48.6315 136.314,48.6315 C136.314,48.6315 139.836,48.496 139.836,48.496 C139.836,48.496 141.868,49.0381 141.868,49.0381 C141.868,49.0381 144.579,49.1735 144.579,49.1735 C144.579,49.1735 144.714,48.2251 144.714,48.2251 C144.714,48.2251 141.598,46.7346 141.598,46.7346 C141.598,46.7346 137.533,45.515 137.533,45.515 C137.533,45.515 135.094,46.057 135.094,46.057 C135.094,46.057 133.603,45.7861 133.603,45.7861 C133.603,45.7861 134.687,45.1086 134.687,45.1086 C134.687,45.1086 138.346,43.2117 138.346,43.2117 C138.346,43.2117 142.004,41.8567 142.004,41.8567 C142.004,41.8567 144.443,40.9082 144.443,40.9082 C144.443,40.9082 144.307,40.2307 144.307,40.2307 C144.307,40.2307 140.92,39.9598 140.92,39.9598 C140.92,39.9598 137.533,41.4503 137.533,41.4503 C137.533,41.4503 134.687,42.8051 134.687,42.8051 C134.687,42.8051 131.571,44.2956 131.571,44.2956 C131.571,44.2956 131.961,43.4065 131.961,43.4065 C131.961,43.4065 133.841,40.9082 133.841,40.9082 C133.841,40.9082 135.094,38.2428 135.094,38.2428 C135.094,38.2428 139.315,36.793 139.315,36.793 C139.315,36.793 139.315,35.8445 139.315,35.8445 C139.315,35.8445 137.96,35.7091 137.96,35.7091 C137.96,35.7091 135.385,35.2268 135.385,35.2268 C135.385,35.2268 131.347,37.3854 131.347,37.3854 C131.347,37.3854 129.582,39.1905 129.582,39.1905 C129.582,39.1905 128.726,40.6373 128.726,40.6373 C128.726,40.6373 127.506,37.7918 127.506,37.7918 C127.506,37.7918 126.693,36.5724 126.693,36.5724 C126.693,36.5724 125.745,36.3015 125.745,36.3015 C125.745,36.3015 124.932,37.1145 124.932,37.1145 C124.932,37.1145 125.745,39.4177 125.745,39.4177 C125.745,39.4177 126.693,41.3149 126.693,41.3149 C126.693,41.3149 125.88,41.7212 125.88,41.7212 C125.88,41.7212 123.712,39.8243 123.712,39.8243 C123.712,39.8243 121.68,39.0114 121.68,39.0114 C121.68,39.0114 119.918,38.6047 119.918,38.6047 C119.918,38.6047 117.073,38.1066 117.073,38.1066 C117.073,38.1066 115.041,38.1066 115.041,38.1066 C115.041,38.1066 113.821,39.1905 113.821,39.1905 C113.821,39.1905 116.733,39.8243 116.733,39.8243 C116.733,39.8243 120.46,41.3149 120.46,41.3149 C120.46,41.3149 125.203,43.2117 125.203,43.2117 C125.203,43.2117 126.693,44.2956 126.693,44.2956 C126.693,44.2956 126.016,45.9216 126.016,45.9216 C126.016,45.9216 124.119,46.5991 124.119,46.5991 C124.119,46.5991 121.544,47.2766 121.544,47.2766 C121.544,47.2766 117.479,48.2251 117.479,48.2251 C117.479,48.2251 114.634,49.0381 114.634,49.0381 C114.634,49.0381 113.415,50.3929 113.415,50.3929 C113.415,50.3929 114.228,51.3413 114.228,51.3413 C114.228,51.3413 117.073,50.3929 117.073,50.3929 C117.073,50.3929 120.46,49.851 120.46,49.851 C120.46,49.851 123.848,49.5799 123.848,49.5799 C123.848,49.5799 123.441,51.477 123.441,51.477 C123.441,51.477 122.086,52.8318 122.086,52.8318 C122.086,52.8318 119.376,55.6774 119.376,55.6774 C119.376,55.6774 119.241,57.4388 119.241,57.4388 C119.241,57.4388 120.867,57.0322 120.867,57.0322 Z" style="stroke:none;fill-rule:evenodd;fill:url(#linearGradientFill5);fill-opacity:1;"/><defs><linearGradient id="linearGradientFill5" gradientUnits="userSpaceOnUse" x1="145.716" y1="142.411" x2="148.41" y2="14.661"><stop offset="0.141844" stop-color="#e5ce7e" stop-opacity="1"/><stop offset="0.996216" stop-color="#b99d65" stop-opacity="1"/></linearGradient></defs>
        </g>
        <g id="Shape6">
            <desc shapeID="6" type="0" basicInfo-basicType="0" basicInfo-roundedRectRadius="12" basicInfo-polygonSides="6" basicInfo-starPoints="5" bounding="rect(-23.1373,-561.1,46.2745,1122.21)" text="" font-familyName="Helvetica" font-pixelSize="20" font-bold="0" font-underline="0" font-alignment="1" strokeStyle="0" markerStart="0" markerEnd="0" shadowEnabled="0" shadowOffsetX="0" shadowOffsetY="2" shadowBlur="4" shadowOpacity="160" blurEnabled="0" blurRadius="4" transform="matrix(0.0820028,0,0,0.0820025,261.826,93.7197)" pers-center="0,0" pers-size="0,0" pers-start="0,0" pers-end="0,0" locked="0" mesh="" flag=""/>
            <path id="shapePath6" d="M260.353,49.8014 C260.002,52.2266 259.896,54.6909 259.936,57.1411 C260.008,61.4571 260.495,65.7567 260.688,70.0689 C260.857,73.8479 261.081,77.63 261.021,81.4122 C260.934,86.8514 260.27,92.2737 260.249,97.7135 C260.237,100.936 260.834,104.137 260.921,107.358 C260.975,109.321 260.671,111.281 260.671,113.245 C260.671,115.126 260.895,117.001 260.921,118.882 C260.978,122.931 261.05,126.983 260.921,131.031 C260.841,133.543 259.973,136.053 260.296,138.546 C260.387,139.245 261.347,139.674 262.05,139.729 C262.637,139.774 263.358,139.353 263.551,138.797 C263.922,137.732 263.582,136.542 263.551,135.415 C263.457,132.032 263.176,128.654 263.176,125.27 C263.176,121.969 263.589,118.675 263.551,115.374 C263.49,110.026 262.879,104.691 262.879,99.342 C262.879,93.4925 262.745,87.7866 262.879,81.9386 C262.969,78.015 262.542,74.4326 262.273,70.5172 C261.999,66.5233 261.583,62.1265 261.298,58.1334 C261.082,55.093 262.233,52.0326 262.05,48.9899 C262.021,48.5039 261.738,47.5273 261.298,47.7373 C260.616,48.0638 260.462,49.0525 260.353,49.8014 Z" style="stroke:none;fill-rule:evenodd;fill:url(#linearGradientFill6);fill-opacity:1;"/><defs><linearGradient id="linearGradientFill6" gradientUnits="userSpaceOnUse" x1="145.716" y1="142.411" x2="148.41" y2="14.661"><stop offset="0.141844" stop-color="#e5ce7e" stop-opacity="1"/><stop offset="0.996216" stop-color="#b99d65" stop-opacity="1"/></linearGradient></defs>
        </g>
        <g id="Shape7">
            <desc shapeID="7" type="0" basicInfo-basicType="0" basicInfo-roundedRectRadius="12" basicInfo-polygonSides="6" basicInfo-starPoints="5" bounding="rect(-187.263,-154.101,374.526,308.202)" text="" font-familyName="Avenir" font-pixelSize="300" font-bold="0" font-underline="0" font-alignment="1" strokeStyle="0" markerStart="0" markerEnd="0" shadowEnabled="0" shadowOffsetX="0" shadowOffsetY="2" shadowBlur="4" shadowOpacity="160" blurEnabled="0" blurRadius="4" transform="matrix(0.0805326,0.0154572,-0.0154572,0.0805326,260.58,46.3111)" pers-center="0,0" pers-size="0,0" pers-start="0,0" pers-end="0,0" locked="0" mesh="" flag=""/>
            <path id="shapePath7" d="M250.375,56.8134 C250.375,56.8134 252.682,55.3613 252.682,55.3613 C252.682,55.3613 254.883,53.0757 254.883,53.0757 C254.883,53.0757 257.684,51.1766 257.684,51.1766 C257.684,51.1766 260.003,51.0803 260.003,51.0803 C260.003,51.0803 263.906,53.3186 263.906,53.3186 C263.906,53.3186 265.98,55.206 265.98,55.206 C265.98,55.206 268.994,57.1381 268.994,57.1381 C268.994,57.1381 269.716,56.1936 269.716,56.1936 C269.716,56.1936 268.555,54.4818 268.555,54.4818 C268.555,54.4818 266.451,52.0474 266.451,52.0474 C266.451,52.0474 266.813,51.575 266.813,51.575 C266.813,51.575 270.232,52.096 270.232,52.096 C270.232,52.096 272.09,52.9943 272.09,52.9943 C272.09,52.9943 274.678,53.6262 274.678,53.6262 C274.678,53.6262 274.983,52.737 274.983,52.737 C274.983,52.737 272.256,50.7245 272.256,50.7245 C272.256,50.7245 268.565,48.7977 268.565,48.7977 C268.565,48.7977 266.114,48.8689 266.114,48.8689 C266.114,48.8689 264.727,48.332 264.727,48.332 C264.727,48.332 265.898,47.8795 265.898,47.8795 C265.898,47.8795 269.773,46.7284 269.773,46.7284 C269.773,46.7284 273.549,46.0992 273.549,46.0992 C273.549,46.0992 276.074,45.6365 276.074,45.6365 C276.074,45.6365 276.07,44.9585 276.07,44.9585 C276.07,44.9585 272.857,44.0709 272.857,44.0709 C272.857,44.0709 269.317,44.8806 269.317,44.8806 C269.317,44.8806 266.322,45.6599 266.322,45.6599 C266.322,45.6599 263.045,46.5197 263.045,46.5197 C263.045,46.5197 263.01,45.2947 263.01,45.2947 C263.01,45.2947 265.583,42.4682 265.583,42.4682 C265.583,42.4682 268.565,41.7287 268.565,41.7287 C268.565,41.7287 271.175,38.3718 271.175,38.3718 C271.175,38.3718 273.777,37.0185 273.777,37.0185 C273.777,37.0185 272.09,35.653 272.09,35.653 C272.09,35.653 267.734,36.2509 267.734,36.2509 C267.734,36.2509 264.179,38.9119 264.179,38.9119 C264.179,38.9119 262.072,41.2325 262.072,41.2325 C262.072,41.2325 260.981,42.4682 260.981,42.4682 C260.981,42.4682 260.331,39.5006 260.331,39.5006 C260.331,39.5006 259.773,38.1753 259.773,38.1753 C259.773,38.1753 258.909,37.7387 258.909,37.7387 C258.909,37.7387 257.974,38.3718 257.974,38.3718 C257.974,38.3718 258.331,40.7418 258.331,40.7418 C258.331,40.7418 258.894,42.7451 258.894,42.7451 C258.894,42.7451 258.036,42.9865 258.036,42.9865 C258.036,42.9865 256.299,40.7576 256.299,40.7576 C256.299,40.7576 254.436,39.1815 254.436,39.1815 C254.436,39.1815 252.814,38.4641 252.814,38.4641 C252.814,38.4641 250.923,37.0185 250.923,37.0185 C250.923,37.0185 249.117,35.8592 249.117,35.8592 C249.117,35.8592 247.74,36.6781 247.74,36.6781 C247.74,36.6781 249.628,38.1237 249.628,38.1237 C249.628,38.1237 252.834,41.1757 252.834,41.1757 C252.834,41.1757 257.108,44.2974 257.108,44.2974 C257.108,44.2974 258.344,45.6177 258.344,45.6177 C258.344,45.6177 257.391,47.0591 257.391,47.0591 C257.391,47.0591 255.439,47.3612 255.439,47.3612 C255.439,47.3612 252.831,47.5379 252.831,47.5379 C252.831,47.5379 248.737,47.6999 248.737,47.6999 C248.737,47.6999 245.847,47.9571 245.847,47.9571 C245.847,47.9571 244.42,49.0373 244.42,49.0373 C244.42,49.0373 245.028,50.1016 245.028,50.1016 C245.028,50.1016 247.946,49.7138 247.946,49.7138 C247.946,49.7138 251.31,49.818 251.31,49.818 C251.31,49.818 254.625,50.1835 254.625,50.1835 C254.625,50.1835 253.883,51.9362 253.883,51.9362 C253.883,51.9362 252.325,52.9913 252.325,52.9913 C252.325,52.9913 249.189,55.2321 249.189,55.2321 C249.189,55.2321 248.732,56.9044 248.732,56.9044 C248.732,56.9044 250.375,56.8134 250.375,56.8134 Z" style="stroke:none;fill-rule:evenodd;fill:url(#linearGradientFill7);fill-opacity:1;"/><defs><linearGradient id="linearGradientFill7" gradientUnits="userSpaceOnUse" x1="145.716" y1="142.411" x2="148.41" y2="14.661"><stop offset="0.141844" stop-color="#e5ce7e" stop-opacity="1"/><stop offset="0.996216" stop-color="#b99d65" stop-opacity="1"/></linearGradient></defs>
        </g>
        <g id="Shape8">
            <desc shapeID="8" type="0" basicInfo-basicType="0" basicInfo-roundedRectRadius="12" basicInfo-polygonSides="6" basicInfo-starPoints="5" bounding="rect(-23.8394,-560.749,47.6786,1121.5)" text="" font-familyName="Helvetica" font-pixelSize="20" font-bold="0" font-underline="0" font-alignment="1" strokeStyle="0" markerStart="0" markerEnd="0" shadowEnabled="0" shadowOffsetX="0" shadowOffsetY="2" shadowBlur="4" shadowOpacity="160" blurEnabled="0" blurRadius="4" transform="matrix(0.0673699,0,0,0.0673699,278.128,102.672)" pers-center="0,0" pers-size="0,0" pers-start="0,0" pers-end="0,0" locked="0" mesh="" flag=""/>
            <path id="shapePath8" d="M276.963,66.6138 C276.674,68.6063 276.587,70.6309 276.62,72.6438 C276.679,76.1897 277.255,79.7186 277.238,83.265 C277.224,86.2727 276.565,89.2528 276.528,92.2603 C276.474,96.7264 276.776,101.19 276.963,105.653 C277.077,108.404 277.376,111.147 277.432,113.9 C277.464,115.513 277.226,117.123 277.226,118.736 C277.226,120.281 277.41,121.822 277.432,123.367 C277.478,126.694 277.538,130.023 277.432,133.349 C277.366,135.413 276.644,137.475 276.915,139.522 C276.991,140.092 277.798,140.402 278.371,140.447 C278.842,140.483 279.437,140.174 279.592,139.729 C279.898,138.854 279.618,137.876 279.592,136.95 C279.515,134.171 279.282,131.396 279.282,128.615 C279.282,125.904 279.612,123.198 279.592,120.486 C279.559,115.985 279.282,111.489 279.123,106.991 C278.954,102.188 278.515,97.3884 278.61,92.5841 C278.672,89.4512 279.651,86.3679 279.592,83.2349 C279.531,79.9464 278.487,76.7398 278.253,73.4591 C278.074,70.9612 278.507,68.4469 278.357,65.9472 C278.333,65.5479 278.1,64.7456 277.739,64.9181 C277.178,65.1863 277.052,65.9986 276.963,66.6138 Z" style="stroke:none;fill-rule:evenodd;fill:url(#linearGradientFill8);fill-opacity:1;"/><defs><linearGradient id="linearGradientFill8" gradientUnits="userSpaceOnUse" x1="145.716" y1="142.411" x2="148.41" y2="14.661"><stop offset="0.141844" stop-color="#e5ce7e" stop-opacity="1"/><stop offset="0.996216" stop-color="#b99d65" stop-opacity="1"/></linearGradient></defs>
        </g>
        <g id="Shape9">
            <desc shapeID="9" type="0" basicInfo-basicType="0" basicInfo-roundedRectRadius="12" basicInfo-polygonSides="6" basicInfo-starPoints="5" bounding="rect(-170.341,-142.459,340.684,284.917)" text="" font-familyName="Avenir" font-pixelSize="300" font-bold="0" font-underline="0" font-alignment="1" strokeStyle="0" markerStart="0" markerEnd="0" shadowEnabled="0" shadowOffsetX="0" shadowOffsetY="2" shadowBlur="4" shadowOpacity="160" blurEnabled="0" blurRadius="4" transform="matrix(0.0670468,0.00658841,-0.00658841,0.0670468,278.057,64.2727)" pers-center="0,0" pers-size="0,0" pers-start="0,0" pers-end="0,0" locked="0" mesh="" flag=""/>
            <path id="shapePath9" d="M271.929,72.9852 L273.432,72.3052 L274.757,70.3455 L276.553,68.5811 L278.444,68.3278 L280.746,69.8652 L283.644,71.2535 L286.256,72.6076 L286.775,71.7805 L285.698,70.4673 L283.793,68.6337 L284.053,68.2204 L285.698,68.7675 L287.293,68.9845 L289.027,68.8669 L289.211,68.1167 L287.08,66.6617 L284.899,65.8164 L283.378,65.8164 L282.354,65.7239 L283.026,65.2659 L286.11,64.0325 L288.07,63.7377 L289.496,62.8575 L289.439,62.3033 L286.775,61.7525 L284.765,62.3033 L282.426,62.7627 L280.992,63.9836 L280.468,63.3683 L281.664,61.0393 L282.862,59.3399 L284.209,56.1113 L284.284,55.3504 L283.207,55.135 L281.92,56.5606 L280.468,57.5065 L279.396,60.1156 L278.595,61.2087 L277.841,58.8298 L277.285,57.7874 L276.546,57.4953 L275.829,58.0833 L276.3,59.9953 L276.911,61.592 L276.226,61.854 L274.757,60.2774 L272.993,59.0122 L271.306,58.5472 L269.741,57.7348 L268.677,58.508 L270.515,60.1156 L272.648,61.4841 L275.194,63.4378 C275.194,63.4378 274.591,64.9181 274.591,64.9181 L272.497,65.5044 L269.23,65.8983 L267.277,66.6696 L266.193,67.6605 L266.771,68.4856 L269.128,67.949 L271.237,67.949 L273.648,67.9986 L273.073,69.0599 L272.309,70.1158 L270.842,71.7805 L270.594,73.1829 L271.929,72.9852 Z" style="stroke:none;fill-rule:evenodd;fill:url(#linearGradientFill9);fill-opacity:1;"/><defs><linearGradient id="linearGradientFill9" gradientUnits="userSpaceOnUse" x1="145.716" y1="142.411" x2="148.41" y2="14.661"><stop offset="0.141844" stop-color="#e5ce7e" stop-opacity="1"/><stop offset="0.996216" stop-color="#b99d65" stop-opacity="1"/></linearGradient></defs>
        </g>
        <g id="Shape10">
            <desc shapeID="10" type="0" basicInfo-basicType="0" basicInfo-roundedRectRadius="12" basicInfo-polygonSides="6" basicInfo-starPoints="5" bounding="rect(-123.074,-426.156,246.146,852.313)" text="" font-familyName="" font-pixelSize="20" font-bold="0" font-underline="0" font-alignment="1" strokeStyle="0" markerStart="0" markerEnd="0" shadowEnabled="0" shadowOffsetX="0" shadowOffsetY="2" shadowBlur="4" shadowOpacity="160" blurEnabled="0" blurRadius="4" transform="matrix(0.148709,0,0,0.148709,204.381,75.4237)" pers-center="0,0" pers-size="0,0" pers-start="0,0" pers-end="0,0" locked="0" mesh="" flag=""/>
            <path id="shapePath10" d="M209.663,12.3564 C209.054,12.7729 207.804,14.2897 207.492,15.0035 C207.373,15.286 206.972,16.1337 206.6,16.8921 C205.901,18.3495 205.857,18.5726 206.094,19.2715 C206.228,19.6581 206.183,19.8663 205.648,20.9221 C204.949,22.305 204.637,22.4984 203.775,22.0821 C203.403,21.9184 203.18,21.6359 202.912,21.0708 C202.51,20.1488 202.169,19.8068 201.38,19.5391 C200.458,19.2268 200.295,19.4053 200.295,20.7882 C200.295,21.7252 200.369,22.0821 200.637,22.6025 C201.053,23.3758 201.232,24.3127 201.038,24.6845 C200.904,24.9224 200.86,24.9224 200.265,24.6993 C199.566,24.4465 198.48,23.7029 197.945,23.123 C197.752,22.9148 197.261,22.6471 196.83,22.4984 C196.399,22.3646 195.789,22.0969 195.462,21.9184 C195.135,21.7252 194.361,21.4723 193.752,21.3385 C193.142,21.2047 192.041,20.8329 191.298,20.5206 C190.569,20.1934 189.692,19.896 189.35,19.8365 C188.785,19.7473 188.71,19.7771 188.339,20.2083 C187.729,20.937 187.669,20.8775 189.959,22.0821 C190.867,22.5431 191.803,23.0784 192.041,23.2717 C192.294,23.4501 192.696,23.6435 192.949,23.6881 C193.454,23.807 194.926,24.8629 195.402,25.4726 C195.566,25.6659 196.042,25.9485 196.473,26.0823 C196.889,26.231 197.41,26.4986 197.618,26.692 C197.826,26.8704 198.287,27.1679 198.659,27.3314 C200.027,27.956 201.395,28.9226 201.737,29.5174 C201.93,29.8298 202.079,30.1718 202.079,30.261 C202.079,30.4692 201.559,30.7071 200.414,30.9897 C199.893,31.1235 199.284,31.3615 199.031,31.5101 C198.421,31.8819 197.529,32.0753 195.744,32.2388 C194.911,32.3132 194.034,32.4767 193.781,32.6106 C193.529,32.7445 192.83,32.9526 192.235,33.0716 C191.64,33.2055 190.748,33.5028 190.257,33.7259 C189.766,33.9638 188.993,34.2613 188.532,34.3951 C187.714,34.6182 186.42,35.5104 186.123,36.0458 C185.93,36.4175 186.391,36.8191 187.179,36.9975 C187.892,37.1462 189.305,36.8785 190.569,36.3431 C190.881,36.2093 191.818,35.9714 192.636,35.8078 C193.454,35.6294 194.644,35.3468 195.283,35.1386 C196.458,34.7817 197.246,34.6925 197.573,34.9007 C197.663,34.9602 197.782,35.2576 197.841,35.5551 C197.93,36.0458 197.871,36.2391 197.306,37.161 C196.949,37.741 196.428,38.5292 196.161,38.8861 C195.893,39.2578 195.551,39.9568 195.402,40.4326 C195.253,40.9085 194.986,41.4885 194.807,41.7115 C194.525,42.0684 194.51,42.1577 194.688,42.4253 C194.822,42.6335 195.09,42.7525 195.447,42.7822 C195.923,42.8269 196.101,42.7377 196.636,42.2469 C196.979,41.9346 197.365,41.6074 197.484,41.5331 C197.722,41.3844 198.57,40.2988 199.864,38.4698 C200.637,37.3841 200.979,37.0569 202.496,35.9565 L203.15,35.4955 L203.804,35.7483 C204.161,35.8821 204.503,36.0606 204.548,36.1499 C204.607,36.2242 204.667,36.9083 204.697,37.6667 C204.711,38.4102 204.801,39.1836 204.875,39.3917 C204.949,39.6297 204.949,40.1798 204.86,40.8491 C204.741,41.667 204.741,42.0833 204.889,42.5592 C204.979,42.9012 205.054,43.2432 205.054,43.3325 C204.889,44.656 204.861,49.4593 205.054,51.5115 C205.396,55.3333 205.336,56.5675 205.499,56.984 C205.871,57.9357 205.961,60.8057 205.945,70.4421 C205.93,75.974 205.916,80.9409 205.916,81.4762 C205.901,82.0116 205.916,84.3464 205.945,86.6811 C205.976,91.0234 205.782,95.6484 205.485,97.7601 C205.068,100.615 205.023,107.455 205.425,109.061 C205.782,110.519 205.916,111.917 205.782,112.705 C205.648,113.493 205.336,120.006 205.395,120.661 C205.485,121.553 205.366,124.84 205.217,125.569 C205.142,125.97 205.039,128.914 204.994,132.097 C204.949,135.279 204.875,137.926 204.845,137.971 C204.697,138.223 205.336,138.699 205.916,138.774 C206.421,138.833 206.585,138.789 206.852,138.506 C207.12,138.223 207.165,138.03 207.12,137.51 C207.076,137.152 207.135,136.707 207.239,136.483 C207.492,135.993 207.522,134.922 207.358,132.707 C207.284,131.725 207.254,129.316 207.299,127.353 C207.343,125.39 207.329,123.531 207.284,123.234 C207.239,122.937 207.284,122.222 207.388,121.643 C207.492,121.077 207.611,119.561 207.655,118.252 C207.701,116.958 207.805,115.664 207.894,115.382 C208.146,114.579 208.087,110.564 207.82,109.508 C207.686,109.017 207.552,107.946 207.522,107.129 C207.492,106.311 207.388,105.032 207.299,104.303 C207.076,102.682 207.18,100.585 207.582,98.3545 C207.76,97.4472 207.954,96.0499 208.042,95.2322 C208.34,92.4957 208.489,85.5657 208.355,81.6993 C208.28,79.6472 208.221,77.6395 208.221,77.2381 C208.206,76.8216 208.117,76.0781 208.027,75.5577 C207.894,74.8439 207.894,74.4126 208.027,73.7731 C208.236,72.762 208.28,70.7395 208.206,65.3413 C208.146,60.5381 207.998,58.709 207.611,58.0695 C207.433,57.7721 207.299,57.1773 207.239,56.4188 C207.195,55.7645 207.091,54.6938 207.001,54.0395 C206.927,53.3852 207.002,51.1546 206.912,49.0726 C206.808,46.4257 206.779,45.2062 206.645,44.9831 C206.541,44.8047 206.603,44.2592 206.6,43.8886 C206.588,42.6614 206.775,41.5877 206.6,40.3137 C206.653,39.9729 206.7,39.6309 206.733,39.2876 C206.78,38.8077 206.733,38.321 206.838,37.8451 C207.21,36.0755 207.433,35.912 208.83,36.4771 C209.366,36.6852 209.871,36.8637 209.976,36.8637 C210.273,36.8637 213.202,38.3358 214.124,38.9456 C216.087,40.2542 216.132,40.284 216.92,40.3137 C217.545,40.3435 217.753,40.284 218.006,40.0312 L218.318,39.7188 L217.931,39.0497 C217.59,38.4698 215.284,36.2986 213.946,35.2873 L213.515,34.9602 L213.902,34.5141 C214.496,33.8003 215.537,33.6218 217.366,33.9341 C220.861,34.4992 222.081,34.5289 222.527,34.0382 C222.75,33.7854 222.75,33.7556 222.422,33.5177 C222.229,33.3839 221.724,33.0121 221.277,32.6849 C220.846,32.3726 220.415,32.105 220.34,32.105 C220.252,32.105 219.716,31.867 219.136,31.5697 C217.812,30.9005 214.273,30.0974 213.202,30.2461 L212.489,30.3354 L212.489,29.7405 C212.489,29.0713 212.742,28.8632 213.976,28.536 C214.348,28.4468 215.106,28.1344 215.671,27.8519 C216.251,27.5693 216.786,27.3464 216.89,27.3464 C216.98,27.3464 217.396,27.1233 217.783,26.8555 C218.184,26.5879 218.853,26.2161 219.284,26.0525 C220.221,25.6659 221.53,24.8331 221.634,24.5358 C221.679,24.4167 221.575,24.1788 221.412,24.0152 C220.921,23.5097 219.047,23.5988 217.322,24.1937 C216.593,24.4465 215.686,24.729 215.314,24.8183 C214.942,24.9075 214.214,25.2496 213.678,25.5618 C213.143,25.8741 212.518,26.2161 212.28,26.3054 C211.745,26.4986 210.183,27.4355 209.589,27.9114 C209.247,28.194 209.039,28.2534 208.577,28.194 C208.251,28.1493 207.923,28.0453 207.834,27.956 C207.567,27.6883 207.522,25.6065 207.774,24.7737 C208.385,22.7363 208.682,21.398 208.711,20.5652 C208.726,19.9555 208.875,19.2863 209.202,18.4536 C209.455,17.7844 209.663,17.0259 209.663,16.7583 C209.663,16.4906 209.901,15.7917 210.183,15.1968 C210.66,14.2153 210.986,13.1743 211.002,12.6093 C211.002,12.4754 210.838,12.297 210.63,12.2078 C210.154,11.9847 210.243,11.9698 209.663,12.3564 Z" style="stroke:none;fill-rule:evenodd;fill:url(#linearGradientFill10);fill-opacity:1;"/><defs><linearGradient id="linearGradientFill10" gradientUnits="userSpaceOnUse" x1="145.716" y1="142.411" x2="148.41" y2="14.661"><stop offset="0.141844" stop-color="#e5ce7e" stop-opacity="1"/><stop offset="0.996216" stop-color="#b99d65" stop-opacity="1"/></linearGradient></defs>
        </g>
    </g>
    <g id="Layer2" name="Layer 2" visibility="hidden" opacity="1">
        <g id="Shape11">
            <desc shapeID="11" type="0" basicInfo-basicType="0" basicInfo-roundedRectRadius="12" basicInfo-polygonSides="6" basicInfo-starPoints="5" bounding="rect(-640.437,-40.4999,1280.87,80.9997)" text="OPENPIPELINE.IO" font-familyName="AppleGothic" font-pixelSize="100" font-bold="0" font-underline="0" font-alignment="1" strokeStyle="0" markerStart="0" markerEnd="0" shadowEnabled="0" shadowOffsetX="0" shadowOffsetY="2" shadowBlur="4" shadowOpacity="160" blurEnabled="0" blurRadius="4" transform="matrix(0.306083,0,0,0.306083,199.951,162.242)" pers-center="0,0" pers-size="0,0" pers-start="0,0" pers-end="0,0" locked="0" mesh="" flag=""/>
            <path id="shapePath11" d="M14.6379,174.638 C11.8625,174.638 9.43423,173.557 7.35274,171.394 C5.0674,169.047 3.92444,166.017 3.92444,162.303 C3.92444,158.753 4.99591,155.753 7.13869,153.305 C9.21988,150.999 11.6891,149.846 14.5461,149.846 C17.4437,149.846 19.9333,150.978 22.0147,153.243 C24.1572,155.631 25.2287,158.641 25.2287,162.273 C25.2287,166.048 24.0654,169.109 21.7391,171.455 C19.6783,173.577 17.311,174.638 14.6379,174.638 M14.4543,172.373 C16.7193,172.373 18.6477,171.425 20.2394,169.527 C21.8515,167.588 22.6575,165.17 22.6575,162.273 C22.6575,160.865 22.4635,159.559 22.076,158.355 C21.6882,157.151 21.1065,156.059 20.3312,155.08 C18.7802,153.101 16.8622,152.111 14.5766,152.111 C12.3115,152.111 10.3933,153.101 8.82195,155.08 C7.27113,157.018 6.49588,159.436 6.49588,162.334 C6.49588,165.354 7.31209,167.813 8.9445,169.711 C10.475,171.486 12.3115,172.373 14.4543,172.373 M38.3178,150.244 L46.0005,150.244 C48.2043,150.244 50.0101,150.621 51.418,151.376 C53.3159,152.437 54.2646,154.131 54.2646,156.457 C54.2646,158.702 53.4791,160.436 51.9077,161.661 C50.4795,162.803 48.6429,163.375 46.3985,163.375 L40.7359,163.375 L40.7359,174.241 L38.3178,174.241 L38.3178,150.244 M45.9698,152.356 L40.7359,152.356 L40.7359,161.263 L46.1536,161.263 C47.5818,161.263 48.8163,160.885 49.8571,160.13 C51.0201,159.273 51.6018,158.12 51.6018,156.671 C51.6018,155.039 50.9181,153.866 49.5509,153.152 C48.5511,152.621 47.3573,152.356 45.9698,152.356 M67.5477,150.213 L82.4848,150.213 L82.4848,152.325 L69.9658,152.325 L69.9658,160.62 L82.0255,160.62 L82.0255,162.732 L69.9658,162.732 L69.9658,172.129 L82.5765,172.129 L82.5765,174.241 L67.5477,174.241 L67.5477,150.213 M96.133,174.241 L96.133,150.244 L98.337,150.244 L113.09,170.568 L113.09,150.244 L115.294,150.244 L115.294,174.241 L113.09,174.241 L98.337,153.947 L98.337,174.241 L96.133,174.241 M128.759,150.244 L136.442,150.244 C138.646,150.244 140.452,150.621 141.86,151.376 C143.757,152.437 144.706,154.131 144.706,156.457 C144.706,158.702 143.921,160.436 142.349,161.661 C140.921,162.803 139.085,163.375 136.84,163.375 L131.178,163.375 L131.178,174.241 L128.759,174.241 L128.759,150.244 M136.412,152.356 L131.178,152.356 L131.178,161.263 L136.595,161.263 C138.024,161.263 139.258,160.885 140.299,160.13 C141.462,159.273 142.043,158.12 142.043,156.671 C142.043,155.039 141.36,153.866 139.993,153.152 C138.993,152.621 137.799,152.356 136.412,152.356 M158.723,150.244 L161.111,150.244 L161.111,174.241 L158.723,174.241 L158.723,150.244 M175.16,150.244 L182.843,150.244 C185.047,150.244 186.852,150.621 188.261,151.376 C190.159,152.437 191.106,154.131 191.106,156.457 C191.106,158.702 190.322,160.436 188.75,161.661 C187.321,162.803 185.485,163.375 183.241,163.375 L177.578,163.375 L177.578,174.241 L175.16,174.241 L175.16,150.244 M182.812,152.356 L177.578,152.356 L177.578,161.263 L182.996,161.263 C184.424,161.263 185.659,160.885 186.699,160.13 C187.861,159.273 188.444,158.12 188.444,156.671 C188.444,155.039 187.76,153.866 186.393,153.152 C185.393,152.621 184.2,152.356 182.812,152.356 M204.389,150.213 L219.326,150.213 L219.326,152.325 L206.808,152.325 L206.808,160.62 L218.867,160.62 L218.867,162.732 L206.808,162.732 L206.808,172.129 L219.418,172.129 L219.418,174.241 L204.389,174.241 L204.389,150.213 M233.036,150.244 L235.454,150.244 L235.454,172.129 L247.301,172.129 L247.301,174.241 L233.036,174.241 L233.036,150.244 M261.1,150.244 L263.489,150.244 L263.489,174.241 L261.1,174.241 L261.1,150.244 M277.811,174.241 L277.811,150.244 L280.017,150.244 L294.768,170.568 L294.768,150.244 L296.973,150.244 L296.973,174.241 L294.768,174.241 L280.017,153.947 L280.017,174.241 L277.811,174.241 M310.531,150.213 L325.469,150.213 L325.469,152.325 L312.948,152.325 L312.948,160.62 L325.007,160.62 L325.007,162.732 L312.948,162.732 L312.948,172.129 L325.56,172.129 L325.56,174.241 L310.531,174.241 L310.531,150.213 M341.962,174.332 C341.473,174.332 341.054,174.128 340.706,173.72 C340.361,173.312 340.188,172.812 340.188,172.22 C340.188,171.608 340.366,171.093 340.724,170.675 C341.081,170.257 341.493,170.047 341.962,170.047 C342.411,170.047 342.815,170.236 343.172,170.614 C343.529,170.991 343.708,171.506 343.708,172.159 C343.708,172.771 343.534,173.287 343.187,173.705 C342.84,174.123 342.43,174.332 341.962,174.332 M358.266,150.244 L360.652,150.244 L360.652,174.241 L358.266,174.241 L358.266,150.244 M385.387,174.638 C382.611,174.638 380.182,173.557 378.1,171.394 C375.816,169.047 374.672,166.017 374.672,162.303 C374.672,158.753 375.744,155.753 377.887,153.305 C379.969,150.999 382.437,149.846 385.295,149.846 C388.193,149.846 390.681,150.978 392.762,153.243 C394.906,155.631 395.978,158.641 395.978,162.273 C395.978,166.048 394.814,169.109 392.487,171.455 C390.425,173.577 388.059,174.638 385.387,174.638 M385.203,172.373 C387.468,172.373 389.396,171.425 390.986,169.527 C392.599,167.588 393.405,165.17 393.405,162.273 C393.405,160.865 393.211,159.559 392.824,158.355 C392.435,157.151 391.854,156.059 391.08,155.08 C389.527,153.101 387.61,152.111 385.325,152.111 C383.06,152.111 381.142,153.101 379.569,155.08 C378.019,157.018 377.245,159.436 377.245,162.334 C377.245,165.354 378.061,167.813 379.693,169.711 C381.224,171.486 383.06,172.373 385.203,172.373 Z" style="stroke:none;fill-rule:evenodd;fill:#000000;fill-opacity:1;"/>
        </g>
        <g id="Shape12">
            <desc shapeID="12" type="0" basicInfo-basicType="0" basicInfo-roundedRectRadius="12" basicInfo-polygonSides="6" basicInfo-starPoints="5" bounding="rect(-26.4178,-559.73,52.8355,1119.46)" text="" font-familyName="Helvetica" font-pixelSize="20" font-bold="0" font-underline="0" font-alignment="1" strokeStyle="0" markerStart="0" markerEnd="0" shadowEnabled="0" shadowOffsetX="0" shadowOffsetY="2" shadowBlur="4" shadowOpacity="160" blurEnabled="0" blurRadius="4" transform="matrix(0.0727459,0,0,0.0727459,160.643,98.7088)" pers-center="0,0" pers-size="0,0" pers-start="0,0" pers-end="0,0" locked="0" mesh="" flag=""/>
            <path id="shapePath12" d="M159.165,59.8475 C158.854,61.999 158.734,64.1857 158.795,66.3588 C158.915,70.6399 159.482,74.8979 159.708,79.1747 C159.885,82.5257 159.929,85.8826 160.003,89.2374 C160.101,93.6082 160.292,97.9799 160.225,102.351 C160.181,105.209 159.831,108.054 159.67,110.907 C159.572,112.646 159.448,114.387 159.448,116.129 C159.448,117.798 159.739,119.463 159.67,121.13 C159.521,124.731 158.91,128.305 158.795,131.908 C158.724,134.131 158.576,136.416 159.115,138.574 C159.257,139.147 160.081,139.377 160.67,139.423 C161.159,139.46 161.834,139.258 162.003,138.797 C162.348,137.858 162.031,136.797 162.003,135.797 C161.92,132.796 161.67,129.799 161.67,126.797 C161.67,123.869 161.89,120.945 162.003,118.019 C162.186,113.277 162.518,108.54 162.559,103.796 C162.6,99.0585 162.423,94.3211 162.25,89.587 C162.127,86.2424 161.972,82.8964 161.67,79.5632 C161.297,75.4439 160.427,71.3703 160.225,67.239 C160.093,64.5344 160.735,61.8348 160.67,59.1278 C160.659,58.696 160.393,57.8302 160.003,58.0166 C159.398,58.3063 159.262,59.1832 159.165,59.8475 Z" style="stroke:none;fill-rule:evenodd;fill:#000000;fill-opacity:1;"/>
        </g>
        <g id="Shape13">
            <desc shapeID="13" type="0" basicInfo-basicType="0" basicInfo-roundedRectRadius="12" basicInfo-polygonSides="6" basicInfo-starPoints="5" bounding="rect(-178.823,-166.994,357.648,333.987)" text="" font-familyName="Avenir" font-pixelSize="300" font-bold="0" font-underline="0" font-alignment="1" strokeStyle="0" markerStart="0" markerEnd="0" shadowEnabled="0" shadowOffsetX="0" shadowOffsetY="2" shadowBlur="4" shadowOpacity="160" blurEnabled="0" blurRadius="4" transform="matrix(0.0727459,0,0,0.0727459,160.157,55.8302)" pers-center="0,0" pers-size="0,0" pers-start="0,0" pers-end="0,0" locked="0" mesh="" flag=""/>
            <path id="shapePath13" d="M152.408,67.6245 L154.177,65.9732 L155.71,63.6144 L157.833,61.4915 L159.838,61.0197 L162.397,62.3172 L164.217,64.6271 L167.317,65.9732 L168.244,64.9181 L167.623,62.7888 L163.137,60.5481 L165.854,60.6659 L168.92,60.194 L170.689,60.6659 L173.048,60.7837 L173.166,59.9581 L170.453,58.6609 L166.915,57.5993 L164.792,58.0712 L163.494,57.8352 L164.438,57.2455 L167.623,55.5943 L170.807,54.4148 L172.93,53.5892 L172.812,52.9995 L169.863,52.7638 L166.915,54.0611 L164.438,55.2405 L161.725,56.538 L161.489,55.4764 L162.787,51.3485 L162.905,49.0306 L165.028,44.6256 L165.028,43.7999 L163.849,43.6821 L162.787,45.3334 L160.468,48.5178 L159.994,52.0942 L159.249,53.3535 L158.187,50.8766 L157.479,49.8151 L156.654,49.5794 L155.946,50.2869 L156.654,52.292 L157.479,53.9432 L156.772,54.297 L155.425,52.9995 L153.933,52.0942 C153.933,52.0942 151.936,51.5844 151.936,51.5844 L150.167,50.8766 L149.105,51.8201 L150.993,52.7638 L153.683,54.5466 L156.182,55.5943 L154.649,56.1219 L154.061,56.9133 L155.114,57.8352 L153.164,58.6609 L150.333,59.459 L148.21,60.5481 L147.148,61.7275 L147.856,62.5529 L150.333,61.7275 L152.054,61.3734 L155.003,61.1375 L154.649,62.7888 L153.47,63.9682 L151.11,66.4451 L150.993,67.9783 L152.408,67.6245 Z" style="stroke:none;fill-rule:evenodd;fill:#000000;fill-opacity:1;"/>
        </g>
        <g id="Shape14">
            <desc shapeID="14" type="0" basicInfo-basicType="0" basicInfo-roundedRectRadius="12" basicInfo-polygonSides="6" basicInfo-starPoints="5" bounding="rect(-25.92,-561.013,51.8399,1122.03)" text="" font-familyName="Helvetica" font-pixelSize="20" font-bold="0" font-underline="0" font-alignment="1" strokeStyle="0" markerStart="0" markerEnd="0" shadowEnabled="0" shadowOffsetX="0" shadowOffsetY="2" shadowBlur="4" shadowOpacity="160" blurEnabled="0" blurRadius="4" transform="matrix(0.0835722,0,0,0.0835722,130.362,92.8496)" pers-center="0,0" pers-size="0,0" pers-start="0,0" pers-end="0,0" locked="0" mesh="" flag=""/>
            <path id="shapePath14" d="M128.63,48.0978 C128.272,50.5695 128.163,53.081 128.204,55.5782 C128.277,59.9768 128.774,64.3587 128.97,68.7536 C129.142,72.6049 129.727,76.8624 129.847,80.7156 C130.02,86.2535 130.383,91.3865 130.362,96.9271 C130.35,100.21 129.395,103.478 129.21,106.756 C129.097,108.755 128.954,110.754 128.954,112.756 C128.954,114.673 129.183,116.584 129.21,118.501 C129.268,122.627 129.341,126.757 129.21,130.883 C129.128,133.443 128.239,136.001 128.571,138.541 C128.664,139.253 129.65,139.677 130.366,139.732 C130.96,139.778 131.694,139.36 131.89,138.797 C132.267,137.712 131.922,136.499 131.89,135.35 C131.794,131.903 131.507,128.46 131.507,125.011 C131.507,121.647 131.377,118.288 131.507,114.926 C131.718,109.48 132.528,104.037 132.528,98.5868 C132.528,92.6259 132.017,86.6751 131.89,80.7156 C131.804,76.7168 130.921,72.7439 130.647,68.7536 C130.367,64.6832 129.883,60.659 129.593,56.5894 C129.371,53.4908 129.779,50.3718 129.593,47.2709 C129.563,46.7757 130.04,45.7801 129.593,45.9943 C128.897,46.3271 128.74,47.3346 128.63,48.0978 Z" style="stroke:none;fill-rule:evenodd;fill:#000000;fill-opacity:1;"/>
        </g>
        <g id="Shape15">
            <desc shapeID="15" type="0" basicInfo-basicType="0" basicInfo-roundedRectRadius="12" basicInfo-polygonSides="6" basicInfo-starPoints="5" bounding="rect(-187.259,-132.891,374.52,265.782)" text="" font-familyName="Avenir" font-pixelSize="300" font-bold="0" font-underline="0" font-alignment="1" strokeStyle="0" markerStart="0" markerEnd="0" shadowEnabled="0" shadowOffsetX="0" shadowOffsetY="2" shadowBlur="4" shadowOpacity="160" blurEnabled="0" blurRadius="4" transform="matrix(0.0835722,0,0,0.0835722,129.064,46.3328)" pers-center="0,0" pers-size="0,0" pers-start="0,0" pers-end="0,0" locked="0" mesh="" flag=""/>
            <path id="shapePath15" d="M120.867,57.0322 C120.867,57.0322 122.899,55.1353 122.899,55.1353 C122.899,55.1353 124.661,52.4254 124.661,52.4254 C124.661,52.4254 127.1,49.9865 127.1,49.9865 C127.1,49.9865 129.403,49.4444 129.403,49.4444 C129.403,49.4444 133.739,50.9349 133.739,50.9349 C133.739,50.9349 136.178,52.4254 136.178,52.4254 C136.178,52.4254 139.565,53.7803 139.565,53.7803 C139.565,53.7803 140.107,52.6964 140.107,52.6964 C140.107,52.6964 138.617,51.2058 138.617,51.2058 C138.617,51.2058 136.043,49.1735 136.043,49.1735 C136.043,49.1735 136.314,48.6315 136.314,48.6315 C136.314,48.6315 139.836,48.496 139.836,48.496 C139.836,48.496 141.868,49.0381 141.868,49.0381 C141.868,49.0381 144.579,49.1735 144.579,49.1735 C144.579,49.1735 144.714,48.2251 144.714,48.2251 C144.714,48.2251 141.598,46.7346 141.598,46.7346 C141.598,46.7346 137.533,45.515 137.533,45.515 C137.533,45.515 135.094,46.057 135.094,46.057 C135.094,46.057 133.603,45.7861 133.603,45.7861 C133.603,45.7861 134.687,45.1086 134.687,45.1086 C134.687,45.1086 138.346,43.2117 138.346,43.2117 C138.346,43.2117 142.004,41.8567 142.004,41.8567 C142.004,41.8567 144.443,40.9082 144.443,40.9082 C144.443,40.9082 144.307,40.2307 144.307,40.2307 C144.307,40.2307 140.92,39.9598 140.92,39.9598 C140.92,39.9598 137.533,41.4503 137.533,41.4503 C137.533,41.4503 134.687,42.8051 134.687,42.8051 C134.687,42.8051 131.571,44.2956 131.571,44.2956 C131.571,44.2956 131.961,43.4065 131.961,43.4065 C131.961,43.4065 133.841,40.9082 133.841,40.9082 C133.841,40.9082 135.094,38.2428 135.094,38.2428 C135.094,38.2428 139.315,36.793 139.315,36.793 C139.315,36.793 139.315,35.8445 139.315,35.8445 C139.315,35.8445 137.96,35.7091 137.96,35.7091 C137.96,35.7091 135.385,35.2268 135.385,35.2268 C135.385,35.2268 131.347,37.3854 131.347,37.3854 C131.347,37.3854 129.582,39.1905 129.582,39.1905 C129.582,39.1905 128.726,40.6373 128.726,40.6373 C128.726,40.6373 127.506,37.7918 127.506,37.7918 C127.506,37.7918 126.693,36.5724 126.693,36.5724 C126.693,36.5724 125.745,36.3015 125.745,36.3015 C125.745,36.3015 124.932,37.1145 124.932,37.1145 C124.932,37.1145 125.745,39.4177 125.745,39.4177 C125.745,39.4177 126.693,41.3149 126.693,41.3149 C126.693,41.3149 125.88,41.7212 125.88,41.7212 C125.88,41.7212 123.712,39.8243 123.712,39.8243 C123.712,39.8243 121.68,39.0114 121.68,39.0114 C121.68,39.0114 119.918,38.6047 119.918,38.6047 C119.918,38.6047 117.073,38.1066 117.073,38.1066 C117.073,38.1066 115.041,38.1066 115.041,38.1066 C115.041,38.1066 113.821,39.1905 113.821,39.1905 C113.821,39.1905 116.733,39.8243 116.733,39.8243 C116.733,39.8243 120.46,41.3149 120.46,41.3149 C120.46,41.3149 125.203,43.2117 125.203,43.2117 C125.203,43.2117 126.693,44.2956 126.693,44.2956 C126.693,44.2956 126.016,45.9216 126.016,45.9216 C126.016,45.9216 124.119,46.5991 124.119,46.5991 C124.119,46.5991 121.544,47.2766 121.544,47.2766 C121.544,47.2766 117.479,48.2251 117.479,48.2251 C117.479,48.2251 114.634,49.0381 114.634,49.0381 C114.634,49.0381 113.415,50.3929 113.415,50.3929 C113.415,50.3929 114.228,51.3413 114.228,51.3413 C114.228,51.3413 117.073,50.3929 117.073,50.3929 C117.073,50.3929 120.46,49.851 120.46,49.851 C120.46,49.851 123.848,49.5799 123.848,49.5799 C123.848,49.5799 123.441,51.477 123.441,51.477 C123.441,51.477 122.086,52.8318 122.086,52.8318 C122.086,52.8318 119.376,55.6774 119.376,55.6774 C119.376,55.6774 119.241,57.4388 119.241,57.4388 C119.241,57.4388 120.867,57.0322 120.867,57.0322 Z" style="stroke:none;fill-rule:evenodd;fill:#000000;fill-opacity:1;"/>
        </g>
        <g id="Shape16">
            <desc shapeID="16" type="0" basicInfo-basicType="0" basicInfo-roundedRectRadius="12" basicInfo-polygonSides="6" basicInfo-starPoints="5" bounding="rect(-23.1373,-561.1,46.2745,1122.21)" text="" font-familyName="Helvetica" font-pixelSize="20" font-bold="0" font-underline="0" font-alignment="1" strokeStyle="0" markerStart="0" markerEnd="0" shadowEnabled="0" shadowOffsetX="0" shadowOffsetY="2" shadowBlur="4" shadowOpacity="160" blurEnabled="0" blurRadius="4" transform="matrix(0.0820028,0,0,0.0820025,261.826,93.7197)" pers-center="0,0" pers-size="0,0" pers-start="0,0" pers-end="0,0" locked="0" mesh="" flag=""/>
            <path id="shapePath16" d="M260.353,49.8014 C260.002,52.2266 259.896,54.6909 259.936,57.1411 C260.008,61.4571 260.495,65.7567 260.688,70.0689 C260.857,73.8479 261.081,77.63 261.021,81.4122 C260.934,86.8514 260.27,92.2737 260.249,97.7135 C260.237,100.936 260.834,104.137 260.921,107.358 C260.975,109.321 260.671,111.281 260.671,113.245 C260.671,115.126 260.895,117.001 260.921,118.882 C260.978,122.931 261.05,126.983 260.921,131.031 C260.841,133.543 259.973,136.053 260.296,138.546 C260.387,139.245 261.347,139.674 262.05,139.729 C262.637,139.774 263.358,139.353 263.551,138.797 C263.922,137.732 263.582,136.542 263.551,135.415 C263.457,132.032 263.176,128.654 263.176,125.27 C263.176,121.969 263.589,118.675 263.551,115.374 C263.49,110.026 262.879,104.691 262.879,99.342 C262.879,93.4925 262.745,87.7866 262.879,81.9386 C262.969,78.015 262.542,74.4326 262.273,70.5172 C261.999,66.5233 261.583,62.1265 261.298,58.1334 C261.082,55.093 262.233,52.0326 262.05,48.9899 C262.021,48.5039 261.738,47.5273 261.298,47.7373 C260.616,48.0638 260.462,49.0525 260.353,49.8014 Z" style="stroke:none;fill-rule:evenodd;fill:#000000;fill-opacity:1;"/>
        </g>
        <g id="Shape17">
            <desc shapeID="17" type="0" basicInfo-basicType="0" basicInfo-roundedRectRadius="12" basicInfo-polygonSides="6" basicInfo-starPoints="5" bounding="rect(-187.263,-154.101,374.526,308.202)" text="" font-familyName="Avenir" font-pixelSize="300" font-bold="0" font-underline="0" font-alignment="1" strokeStyle="0" markerStart="0" markerEnd="0" shadowEnabled="0" shadowOffsetX="0" shadowOffsetY="2" shadowBlur="4" shadowOpacity="160" blurEnabled="0" blurRadius="4" transform="matrix(0.0805326,0.0154572,-0.0154572,0.0805326,260.58,46.3111)" pers-center="0,0" pers-size="0,0" pers-start="0,0" pers-end="0,0" locked="0" mesh="" flag=""/>
            <path id="shapePath17" d="M250.375,56.8134 C250.375,56.8134 252.682,55.3613 252.682,55.3613 C252.682,55.3613 254.883,53.0757 254.883,53.0757 C254.883,53.0757 257.684,51.1766 257.684,51.1766 C257.684,51.1766 260.003,51.0803 260.003,51.0803 C260.003,51.0803 263.906,53.3186 263.906,53.3186 C263.906,53.3186 265.98,55.206 265.98,55.206 C265.98,55.206 268.994,57.1381 268.994,57.1381 C268.994,57.1381 269.716,56.1936 269.716,56.1936 C269.716,56.1936 268.555,54.4818 268.555,54.4818 C268.555,54.4818 266.451,52.0474 266.451,52.0474 C266.451,52.0474 266.813,51.575 266.813,51.575 C266.813,51.575 270.232,52.096 270.232,52.096 C270.232,52.096 272.09,52.9943 272.09,52.9943 C272.09,52.9943 274.678,53.6262 274.678,53.6262 C274.678,53.6262 274.983,52.737 274.983,52.737 C274.983,52.737 272.256,50.7245 272.256,50.7245 C272.256,50.7245 268.565,48.7977 268.565,48.7977 C268.565,48.7977 266.114,48.8689 266.114,48.8689 C266.114,48.8689 264.727,48.332 264.727,48.332 C264.727,48.332 265.898,47.8795 265.898,47.8795 C265.898,47.8795 269.773,46.7284 269.773,46.7284 C269.773,46.7284 273.549,46.0992 273.549,46.0992 C273.549,46.0992 276.074,45.6365 276.074,45.6365 C276.074,45.6365 276.07,44.9585 276.07,44.9585 C276.07,44.9585 272.857,44.0709 272.857,44.0709 C272.857,44.0709 269.317,44.8806 269.317,44.8806 C269.317,44.8806 266.322,45.6599 266.322,45.6599 C266.322,45.6599 263.045,46.5197 263.045,46.5197 C263.045,46.5197 263.01,45.2947 263.01,45.2947 C263.01,45.2947 265.583,42.4682 265.583,42.4682 C265.583,42.4682 268.565,41.7287 268.565,41.7287 C268.565,41.7287 271.175,38.3718 271.175,38.3718 C271.175,38.3718 273.777,37.0185 273.777,37.0185 C273.777,37.0185 272.09,35.653 272.09,35.653 C272.09,35.653 267.734,36.2509 267.734,36.2509 C267.734,36.2509 264.179,38.9119 264.179,38.9119 C264.179,38.9119 262.072,41.2325 262.072,41.2325 C262.072,41.2325 260.981,42.4682 260.981,42.4682 C260.981,42.4682 260.331,39.5006 260.331,39.5006 C260.331,39.5006 259.773,38.1753 259.773,38.1753 C259.773,38.1753 258.909,37.7387 258.909,37.7387 C258.909,37.7387 257.974,38.3718 257.974,38.3718 C257.974,38.3718 258.331,40.7418 258.331,40.7418 C258.331,40.7418 258.894,42.7451 258.894,42.7451 C258.894,42.7451 258.036,42.9865 258.036,42.9865 C258.036,42.9865 256.299,40.7576 256.299,40.7576 C256.299,40.7576 254.436,39.1815 254.436,39.1815 C254.436,39.1815 252.814,38.4641 252.814,38.4641 C252.814,38.4641 250.923,37.0185 250.923,37.0185 C250.923,37.0185 249.117,35.8592 249.117,35.8592 C249.117,35.8592 247.74,36.6781 247.74,36.6781 C247.74,36.6781 249.628,38.1237 249.628,38.1237 C249.628,38.1237 252.834,41.1757 252.834,41.1757 C252.834,41.1757 257.108,44.2974 257.108,44.2974 C257.108,44.2974 258.344,45.6177 258.344,45.6177 C258.344,45.6177 257.391,47.0591 257.391,47.0591 C257.391,47.0591 255.439,47.3612 255.439,47.3612 C255.439,47.3612 252.831,47.5379 252.831,47.5379 C252.831,47.5379 248.737,47.6999 248.737,47.6999 C248.737,47.6999 245.847,47.9571 245.847,47.9571 C245.847,47.9571 244.42,49.0373 244.42,49.0373 C244.42,49.0373 245.028,50.1016 245.028,50.1016 C245.028,50.1016 247.946,49.7138 247.946,49.7138 C247.946,49.7138 251.31,49.818 251.31,49.818 C251.31,49.818 254.625,50.1835 254.625,50.1835 C254.625,50.1835 253.883,51.9362 253.883,51.9362 C253.883,51.9362 252.325,52.9913 252.325,52.9913 C252.325,52.9913 249.189,55.2321 249.189,55.2321 C249.189,55.2321 248.732,56.9044 248.732,56.9044 C248.732,56.9044 250.375,56.8134 250.375,56.8134 Z" style="stroke:none;fill-rule:evenodd;fill:#000000;fill-opacity:1;"/>
        </g>
        <g id="Shape18">
            <desc shapeID="18" type="0" basicInfo-basicType="0" basicInfo-roundedRectRadius="12" basicInfo-polygonSides="6" basicInfo-starPoints="5" bounding="rect(-23.8394,-560.749,47.6786,1121.5)" text="" font-familyName="Helvetica" font-pixelSize="20" font-bold="0" font-underline="0" font-alignment="1" strokeStyle="0" markerStart="0" markerEnd="0" shadowEnabled="0" shadowOffsetX="0" shadowOffsetY="2" shadowBlur="4" shadowOpacity="160" blurEnabled="0" blurRadius="4" transform="matrix(0.0673699,0,0,0.0673699,278.128,102.672)" pers-center="0,0" pers-size="0,0" pers-start="0,0" pers-end="0,0" locked="0" mesh="" flag=""/>
            <path id="shapePath18" d="M276.963,66.6138 C276.674,68.6063 276.587,70.6309 276.62,72.6438 C276.679,76.1897 277.255,79.7186 277.238,83.265 C277.224,86.2727 276.565,89.2528 276.528,92.2603 C276.474,96.7264 276.776,101.19 276.963,105.653 C277.077,108.404 277.376,111.147 277.432,113.9 C277.464,115.513 277.226,117.123 277.226,118.736 C277.226,120.281 277.41,121.822 277.432,123.367 C277.478,126.694 277.538,130.023 277.432,133.349 C277.366,135.413 276.644,137.475 276.915,139.522 C276.991,140.092 277.798,140.402 278.371,140.447 C278.842,140.483 279.437,140.174 279.592,139.729 C279.898,138.854 279.618,137.876 279.592,136.95 C279.515,134.171 279.282,131.396 279.282,128.615 C279.282,125.904 279.612,123.198 279.592,120.486 C279.559,115.985 279.282,111.489 279.123,106.991 C278.954,102.188 278.515,97.3884 278.61,92.5841 C278.672,89.4512 279.651,86.3679 279.592,83.2349 C279.531,79.9464 278.487,76.7398 278.253,73.4591 C278.074,70.9612 278.507,68.4469 278.357,65.9472 C278.333,65.5479 278.1,64.7456 277.739,64.9181 C277.178,65.1863 277.052,65.9986 276.963,66.6138 Z" style="stroke:none;fill-rule:evenodd;fill:#000000;fill-opacity:1;"/>
        </g>
        <g id="Shape19">
            <desc shapeID="19" type="0" basicInfo-basicType="0" basicInfo-roundedRectRadius="12" basicInfo-polygonSides="6" basicInfo-starPoints="5" bounding="rect(-170.341,-142.459,340.684,284.917)" text="" font-familyName="Avenir" font-pixelSize="300" font-bold="0" font-underline="0" font-alignment="1" strokeStyle="0" markerStart="0" markerEnd="0" shadowEnabled="0" shadowOffsetX="0" shadowOffsetY="2" shadowBlur="4" shadowOpacity="160" blurEnabled="0" blurRadius="4" transform="matrix(0.0670468,0.00658841,-0.00658841,0.0670468,278.057,64.2727)" pers-center="0,0" pers-size="0,0" pers-start="0,0" pers-end="0,0" locked="0" mesh="" flag=""/>
            <path id="shapePath19" d="M271.929,72.9852 L273.432,72.3052 L274.757,70.3455 L276.553,68.5811 L278.444,68.3278 L280.746,69.8652 L283.644,71.2535 L286.256,72.6076 L286.775,71.7805 L285.698,70.4673 L283.793,68.6337 L284.053,68.2204 L285.698,68.7675 L287.293,68.9845 L289.027,68.8669 L289.211,68.1167 L287.08,66.6617 L284.899,65.8164 L283.378,65.8164 L282.354,65.7239 L283.026,65.2659 L286.11,64.0325 L288.07,63.7377 L289.496,62.8575 L289.439,62.3033 L286.775,61.7525 L284.765,62.3033 L282.426,62.7627 L280.992,63.9836 L280.468,63.3683 L281.664,61.0393 L282.862,59.3399 L284.209,56.1113 L284.284,55.3504 L283.207,55.135 L281.92,56.5606 L280.468,57.5065 L279.396,60.1156 L278.595,61.2087 L277.841,58.8298 L277.285,57.7874 L276.546,57.4953 L275.829,58.0833 L276.3,59.9953 L276.911,61.592 L276.226,61.854 L274.757,60.2774 L272.993,59.0122 L271.306,58.5472 L269.741,57.7348 L268.677,58.508 L270.515,60.1156 L272.648,61.4841 L275.194,63.4378 C275.194,63.4378 274.591,64.9181 274.591,64.9181 L272.497,65.5044 L269.23,65.8983 L267.277,66.6696 L266.193,67.6605 L266.771,68.4856 L269.128,67.949 L271.237,67.949 L273.648,67.9986 L273.073,69.0599 L272.309,70.1158 L270.842,71.7805 L270.594,73.1829 L271.929,72.9852 Z" style="stroke:none;fill-rule:evenodd;fill:#000000;fill-opacity:1;"/>
        </g>
        <g id="Shape20">
            <desc shapeID="20" type="0" basicInfo-basicType="0" basicInfo-roundedRectRadius="12" basicInfo-polygonSides="6" basicInfo-starPoints="5" bounding="rect(-123.074,-426.156,246.146,852.313)" text="" font-familyName="" font-pixelSize="20" font-bold="0" font-underline="0" font-alignment="1" strokeStyle="0" markerStart="0" markerEnd="0" shadowEnabled="0" shadowOffsetX="0" shadowOffsetY="2" shadowBlur="4" shadowOpacity="160" blurEnabled="0" blurRadius="4" transform="matrix(0.148709,0,0,0.148709,204.381,75.4237)" pers-center="0,0" pers-size="0,0" pers-start="0,0" pers-end="0,0" locked="0" mesh="" flag=""/>
            <path id="shapePath20" d="M209.663,12.3564 C209.054,12.7729 207.804,14.2897 207.492,15.0035 C207.373,15.286 206.972,16.1337 206.6,16.8921 C205.901,18.3495 205.857,18.5726 206.094,19.2715 C206.228,19.6581 206.183,19.8663 205.648,20.9221 C204.949,22.305 204.637,22.4984 203.775,22.0821 C203.403,21.9184 203.18,21.6359 202.912,21.0708 C202.51,20.1488 202.169,19.8068 201.38,19.5391 C200.458,19.2268 200.295,19.4053 200.295,20.7882 C200.295,21.7252 200.369,22.0821 200.637,22.6025 C201.053,23.3758 201.232,24.3127 201.038,24.6845 C200.904,24.9224 200.86,24.9224 200.265,24.6993 C199.566,24.4465 198.48,23.7029 197.945,23.123 C197.752,22.9148 197.261,22.6471 196.83,22.4984 C196.399,22.3646 195.789,22.0969 195.462,21.9184 C195.135,21.7252 194.361,21.4723 193.752,21.3385 C193.142,21.2047 192.041,20.8329 191.298,20.5206 C190.569,20.1934 189.692,19.896 189.35,19.8365 C188.785,19.7473 188.71,19.7771 188.339,20.2083 C187.729,20.937 187.669,20.8775 189.959,22.0821 C190.867,22.5431 191.803,23.0784 192.041,23.2717 C192.294,23.4501 192.696,23.6435 192.949,23.6881 C193.454,23.807 194.926,24.8629 195.402,25.4726 C195.566,25.6659 196.042,25.9485 196.473,26.0823 C196.889,26.231 197.41,26.4986 197.618,26.692 C197.826,26.8704 198.287,27.1679 198.659,27.3314 C200.027,27.956 201.395,28.9226 201.737,29.5174 C201.93,29.8298 202.079,30.1718 202.079,30.261 C202.079,30.4692 201.559,30.7071 200.414,30.9897 C199.893,31.1235 199.284,31.3615 199.031,31.5101 C198.421,31.8819 197.529,32.0753 195.744,32.2388 C194.911,32.3132 194.034,32.4767 193.781,32.6106 C193.529,32.7445 192.83,32.9526 192.235,33.0716 C191.64,33.2055 190.748,33.5028 190.257,33.7259 C189.766,33.9638 188.993,34.2613 188.532,34.3951 C187.714,34.6182 186.42,35.5104 186.123,36.0458 C185.93,36.4175 186.391,36.8191 187.179,36.9975 C187.892,37.1462 189.305,36.8785 190.569,36.3431 C190.881,36.2093 191.818,35.9714 192.636,35.8078 C193.454,35.6294 194.644,35.3468 195.283,35.1386 C196.458,34.7817 197.246,34.6925 197.573,34.9007 C197.663,34.9602 197.782,35.2576 197.841,35.5551 C197.93,36.0458 197.871,36.2391 197.306,37.161 C196.949,37.741 196.428,38.5292 196.161,38.8861 C195.893,39.2578 195.551,39.9568 195.402,40.4326 C195.253,40.9085 194.986,41.4885 194.807,41.7115 C194.525,42.0684 194.51,42.1577 194.688,42.4253 C194.822,42.6335 195.09,42.7525 195.447,42.7822 C195.923,42.8269 196.101,42.7377 196.636,42.2469 C196.979,41.9346 197.365,41.6074 197.484,41.5331 C197.722,41.3844 198.57,40.2988 199.864,38.4698 C200.637,37.3841 200.979,37.0569 202.496,35.9565 L203.15,35.4955 L203.804,35.7483 C204.161,35.8821 204.503,36.0606 204.548,36.1499 C204.607,36.2242 204.667,36.9083 204.697,37.6667 C204.711,38.4102 204.801,39.1836 204.875,39.3917 C204.949,39.6297 204.949,40.1798 204.86,40.8491 C204.741,41.667 204.741,42.0833 204.889,42.5592 C204.979,42.9012 205.054,43.2432 205.054,43.3325 C204.889,44.656 204.861,49.4593 205.054,51.5115 C205.396,55.3333 205.336,56.5675 205.499,56.984 C205.871,57.9357 205.961,60.8057 205.945,70.4421 C205.93,75.974 205.916,80.9409 205.916,81.4762 C205.901,82.0116 205.916,84.3464 205.945,86.6811 C205.976,91.0234 205.782,95.6484 205.485,97.7601 C205.068,100.615 205.023,107.455 205.425,109.061 C205.782,110.519 205.916,111.917 205.782,112.705 C205.648,113.493 205.336,120.006 205.395,120.661 C205.485,121.553 205.366,124.84 205.217,125.569 C205.142,125.97 205.039,128.914 204.994,132.097 C204.949,135.279 204.875,137.926 204.845,137.971 C204.697,138.223 205.336,138.699 205.916,138.774 C206.421,138.833 206.585,138.789 206.852,138.506 C207.12,138.223 207.165,138.03 207.12,137.51 C207.076,137.152 207.135,136.707 207.239,136.483 C207.492,135.993 207.522,134.922 207.358,132.707 C207.284,131.725 207.254,129.316 207.299,127.353 C207.343,125.39 207.329,123.531 207.284,123.234 C207.239,122.937 207.284,122.222 207.388,121.643 C207.492,121.077 207.611,119.561 207.655,118.252 C207.701,116.958 207.805,115.664 207.894,115.382 C208.146,114.579 208.087,110.564 207.82,109.508 C207.686,109.017 207.552,107.946 207.522,107.129 C207.492,106.311 207.388,105.032 207.299,104.303 C207.076,102.682 207.18,100.585 207.582,98.3545 C207.76,97.4472 207.954,96.0499 208.042,95.2322 C208.34,92.4957 208.489,85.5657 208.355,81.6993 C208.28,79.6472 208.221,77.6395 208.221,77.2381 C208.206,76.8216 208.117,76.0781 208.027,75.5577 C207.894,74.8439 207.894,74.4126 208.027,73.7731 C208.236,72.762 208.28,70.7395 208.206,65.3413 C208.146,60.5381 207.998,58.709 207.611,58.0695 C207.433,57.7721 207.299,57.1773 207.239,56.4188 C207.195,55.7645 207.091,54.6938 207.001,54.0395 C206.927,53.3852 207.002,51.1546 206.912,49.0726 C206.808,46.4257 206.779,45.2062 206.645,44.9831 C206.541,44.8047 206.603,44.2592 206.6,43.8886 C206.588,42.6614 206.775,41.5877 206.6,40.3137 C206.653,39.9729 206.7,39.6309 206.733,39.2876 C206.78,38.8077 206.733,38.321 206.838,37.8451 C207.21,36.0755 207.433,35.912 208.83,36.4771 C209.366,36.6852 209.871,36.8637 209.976,36.8637 C210.273,36.8637 213.202,38.3358 214.124,38.9456 C216.087,40.2542 216.132,40.284 216.92,40.3137 C217.545,40.3435 217.753,40.284 218.006,40.0312 L218.318,39.7188 L217.931,39.0497 C217.59,38.4698 215.284,36.2986 213.946,35.2873 L213.515,34.9602 L213.902,34.5141 C214.496,33.8003 215.537,33.6218 217.366,33.9341 C220.861,34.4992 222.081,34.5289 222.527,34.0382 C222.75,33.7854 222.75,33.7556 222.422,33.5177 C222.229,33.3839 221.724,33.0121 221.277,32.6849 C220.846,32.3726 220.415,32.105 220.34,32.105 C220.252,32.105 219.716,31.867 219.136,31.5697 C217.812,30.9005 214.273,30.0974 213.202,30.2461 L212.489,30.3354 L212.489,29.7405 C212.489,29.0713 212.742,28.8632 213.976,28.536 C214.348,28.4468 215.106,28.1344 215.671,27.8519 C216.251,27.5693 216.786,27.3464 216.89,27.3464 C216.98,27.3464 217.396,27.1233 217.783,26.8555 C218.184,26.5879 218.853,26.2161 219.284,26.0525 C220.221,25.6659 221.53,24.8331 221.634,24.5358 C221.679,24.4167 221.575,24.1788 221.412,24.0152 C220.921,23.5097 219.047,23.5988 217.322,24.1937 C216.593,24.4465 215.686,24.729 215.314,24.8183 C214.942,24.9075 214.214,25.2496 213.678,25.5618 C213.143,25.8741 212.518,26.2161 212.28,26.3054 C211.745,26.4986 210.183,27.4355 209.589,27.9114 C209.247,28.194 209.039,28.2534 208.577,28.194 C208.251,28.1493 207.923,28.0453 207.834,27.956 C207.567,27.6883 207.522,25.6065 207.774,24.7737 C208.385,22.7363 208.682,21.398 208.711,20.5652 C208.726,19.9555 208.875,19.2863 209.202,18.4536 C209.455,17.7844 209.663,17.0259 209.663,16.7583 C209.663,16.4906 209.901,15.7917 210.183,15.1968 C210.66,14.2153 210.986,13.1743 211.002,12.6093 C211.002,12.4754 210.838,12.297 210.63,12.2078 C210.154,11.9847 210.243,11.9698 209.663,12.3564 Z" style="stroke:none;fill-rule:evenodd;fill:#000000;fill-opacity:1;"/>
        </g>
    </g>
</svg>
