<?xml version="1.0"?>
<svg version="1.1" xmlns="http://www.w3.org/2000/svg" xmlns:xlink="http://www.w3.org/1999/xlink" width="400" height="180">
    <desc iVinci="yes" version="4.6" gridStep="20" showGrid="no" snapToGrid="no" codePlatform="0"/>
    <g id="Layer1" name="Layer 2" opacity="1">
        <g id="Shape1">
            <desc shapeID="1" type="0" basicInfo-basicType="0" basicInfo-roundedRectRadius="12" basicInfo-polygonSides="6" basicInfo-starPoints="5" bounding="rect(-794.25,-40.4999,1588.51,80.9996)" text="OPENPIPELINE.IO" font-familyName="AppleGothic" font-pixelSize="100" font-bold="0" font-underline="0" font-alignment="1" strokeStyle="0" markerStart="0" markerEnd="0" shadowEnabled="0" shadowOffsetX="0" shadowOffsetY="2" shadowBlur="4" shadowOpacity="160" blurEnabled="0" blurRadius="4" transform="matrix(0.219604,0,0,0.219604,204.612,160.219)" pers-center="0,0" pers-size="0,0" pers-start="0,0" pers-end="0,0" locked="0" mesh="" flag=""/>
            <path id="shapePath1" d="M37.8785,169.113 C35.8872,169.113 34.1451,168.337 32.6517,166.785 C31.012,165.101 30.192,162.928 30.192,160.262 C30.192,157.716 30.9607,155.563 32.4981,153.807 C33.9912,152.152 35.7628,151.325 37.8127,151.325 C39.8915,151.325 41.6778,152.137 43.1711,153.763 C44.7083,155.475 45.4771,157.635 45.4771,160.241 C45.4771,162.95 44.6425,165.145 42.9734,166.829 C41.4948,168.352 39.7964,169.113 37.8785,169.113 M37.7467,167.488 C39.3718,167.488 40.7554,166.807 41.8974,165.445 C43.0541,164.055 43.6324,162.32 43.6324,160.241 C43.6324,159.23 43.4931,158.294 43.2151,157.43 C42.9368,156.567 42.5195,155.783 41.9633,155.081 C40.8504,153.661 39.4744,152.951 37.8345,152.951 C36.2095,152.951 34.8332,153.661 33.7058,155.081 C32.5931,156.471 32.0369,158.206 32.0369,160.285 C32.0369,162.452 32.6225,164.216 33.7937,165.577 C34.8918,166.851 36.2095,167.488 37.7467,167.488 M59.6935,151.611 L65.2059,151.611 C66.7868,151.611 68.0825,151.882 69.0926,152.424 C70.4542,153.185 71.1349,154.4 71.1349,156.069 C71.1349,157.679 70.5714,158.924 69.4439,159.802 C68.4193,160.622 67.1015,161.032 65.4913,161.032 L61.4286,161.032 L61.4286,168.827 L59.6935,168.827 L59.6935,151.611 M65.1836,153.125 L61.4286,153.125 L61.4286,159.516 L65.3156,159.516 C66.3403,159.516 67.226,159.245 67.9727,158.704 C68.8071,158.089 69.2245,157.262 69.2245,156.223 C69.2245,155.051 68.734,154.209 67.7531,153.697 C67.0356,153.317 66.1792,153.125 65.1836,153.125 M85.4908,151.589 L96.2075,151.589 L96.2075,153.104 L87.2256,153.104 L87.2256,159.056 L95.8781,159.056 L95.8781,160.571 L87.2256,160.571 L87.2256,167.312 L96.2734,167.312 L96.2734,168.827 L85.4908,168.827 L85.4908,151.589 M110.825,168.827 L110.825,151.611 L112.407,151.611 L122.991,166.193 L122.991,151.611 L124.573,151.611 L124.573,168.827 L122.991,168.827 L112.407,154.269 L112.407,168.827 L110.825,168.827 M139.059,151.611 L144.571,151.611 C146.152,151.611 147.448,151.882 148.459,152.424 C149.819,153.185 150.501,154.4 150.501,156.069 C150.501,157.679 149.937,158.924 148.809,159.802 C147.785,160.622 146.467,161.032 144.857,161.032 L140.794,161.032 L140.794,168.827 L139.059,168.827 L139.059,151.611 M144.549,153.125 L140.794,153.125 L140.794,159.516 L144.682,159.516 C145.706,159.516 146.592,159.245 147.339,158.704 C148.173,158.089 148.59,157.262 148.59,156.223 C148.59,155.051 148.1,154.209 147.119,153.697 C146.401,153.317 145.545,153.125 144.549,153.125 M165.383,151.611 L167.096,151.611 L167.096,168.827 L165.383,168.827 L165.383,151.611 M182.001,151.611 L187.514,151.611 C189.094,151.611 190.39,151.882 191.401,152.424 C192.763,153.185 193.442,154.4 193.442,156.069 C193.442,157.679 192.88,158.924 191.751,159.802 C190.726,160.622 189.41,161.032 187.798,161.032 L183.737,161.032 L183.737,168.827 L182.001,168.827 L182.001,151.611 M187.492,153.125 L183.737,153.125 L183.737,159.516 L187.624,159.516 C188.648,159.516 189.534,159.245 190.28,158.704 C191.115,158.089 191.533,157.262 191.533,156.223 C191.533,155.051 191.041,154.209 190.061,153.697 C189.343,153.317 188.486,153.125 187.492,153.125 M207.797,151.589 L218.514,151.589 L218.514,153.104 L209.534,153.104 L209.534,159.056 L218.185,159.056 L218.185,160.571 L209.534,160.571 L209.534,167.312 L218.58,167.312 L218.58,168.827 L207.797,168.827 L207.797,151.589 M233.177,151.611 L234.912,151.611 L234.912,167.312 L243.41,167.312 L243.41,168.827 L233.177,168.827 L233.177,151.611 M258.137,151.611 L259.852,151.611 L259.852,168.827 L258.137,168.827 L258.137,151.611 M274.953,168.827 L274.953,151.611 L276.536,151.611 L287.118,166.193 L287.118,151.611 L288.7,151.611 L288.7,168.827 L287.118,168.827 L276.536,154.269 L276.536,168.827 L274.953,168.827 M303.253,151.589 L313.97,151.589 L313.97,153.104 L304.987,153.104 L304.987,159.056 L313.639,159.056 L313.639,160.571 L304.987,160.571 L304.987,167.312 L314.036,167.312 L314.036,168.827 L303.253,168.827 L303.253,151.589 M330.629,168.893 C330.279,168.893 329.977,168.747 329.729,168.454 C329.481,168.161 329.356,167.803 329.356,167.378 C329.356,166.939 329.484,166.57 329.741,166.269 C329.998,165.969 330.293,165.819 330.629,165.819 C330.951,165.819 331.241,165.955 331.497,166.225 C331.754,166.497 331.881,166.865 331.881,167.334 C331.881,167.774 331.757,168.143 331.508,168.443 C331.259,168.743 330.965,168.893 330.629,168.893 M347.152,151.611 L348.865,151.611 L348.865,168.827 L347.152,168.827 L347.152,151.611 M371.435,169.113 C369.444,169.113 367.701,168.337 366.209,166.785 C364.569,165.101 363.748,162.928 363.748,160.262 C363.748,157.716 364.518,155.563 366.054,153.807 C367.548,152.152 369.32,151.325 371.369,151.325 C373.449,151.325 375.235,152.137 376.727,153.763 C378.266,155.475 379.034,157.635 379.034,160.241 C379.034,162.95 378.182,165.128 376.53,166.829 C375.052,168.352 373.353,169.113 371.435,169.113 M371.304,167.488 C372.929,167.488 374.313,166.807 375.454,165.445 C376.609,164.055 377.189,162.32 377.189,160.241 C377.189,159.23 377.05,158.294 376.772,157.43 C376.494,156.567 376.076,155.783 375.521,155.081 C374.406,153.661 373.03,152.951 371.391,152.951 C369.766,152.951 368.39,153.661 367.262,155.081 C366.149,156.471 365.594,158.206 365.594,160.285 C365.594,162.452 366.18,164.216 367.351,165.577 C368.449,166.851 369.766,167.488 371.304,167.488 Z" style="stroke:none;fill-rule:evenodd;fill:#000000;fill-opacity:1;"/>
        </g>
        <g id="Shape2">
            <desc shapeID="2" type="0" basicInfo-basicType="0" basicInfo-roundedRectRadius="12" basicInfo-polygonSides="6" basicInfo-starPoints="5" bounding="rect(-26.4187,-559.73,52.8372,1119.46)" text="" font-familyName="Helvetica" font-pixelSize="20" font-bold="0" font-underline="0" font-alignment="1" strokeStyle="0" markerStart="0" markerEnd="0" shadowEnabled="0" shadowOffsetX="0" shadowOffsetY="2" shadowBlur="4" shadowOpacity="160" blurEnabled="0" blurRadius="4" transform="matrix(0.0791534,0,0,0.0791534,156.98,98.684)" pers-center="0,0" pers-size="0,0" pers-start="0,0" pers-end="0,0" locked="0" mesh="" flag=""/>
            <path id="shapePath2" d="M155.372,56.3998 C155.034,58.7408 154.903,61.1201 154.97,63.4846 C155.1,68.1428 155.717,72.7759 155.963,77.4294 C156.156,81.0755 156.204,84.7281 156.284,88.3784 C156.391,93.1342 156.598,97.8909 156.526,102.647 C156.478,105.757 156.097,108.852 155.922,111.957 C155.815,113.849 155.68,115.743 155.68,117.639 C155.68,119.455 155.997,121.266 155.922,123.08 C155.76,126.998 155.095,130.887 154.97,134.807 C154.892,137.226 154.731,139.713 155.318,142.061 C155.472,142.684 156.369,142.934 157.01,142.984 C157.542,143.025 158.276,142.805 158.46,142.303 C158.836,141.282 158.491,140.127 158.46,139.039 C158.37,135.774 158.098,132.513 158.098,129.246 C158.098,126.06 158.337,122.879 158.46,119.695 C158.659,114.535 159.021,109.381 159.065,104.219 C159.11,99.0646 158.917,93.9099 158.729,88.7588 C158.595,85.1196 158.426,81.4789 158.098,77.8521 C157.692,73.37 156.745,68.9376 156.526,64.4424 C156.382,61.4995 157.081,58.5622 157.01,55.6167 C156.998,55.1469 156.708,54.2048 156.284,54.4077 C155.626,54.7229 155.478,55.677 155.372,56.3998 Z" style="stroke:none;fill-rule:evenodd;fill:#000000;fill-opacity:1;"/>
        </g>
        <g id="Shape3">
            <desc shapeID="3" type="0" basicInfo-basicType="0" basicInfo-roundedRectRadius="12" basicInfo-polygonSides="6" basicInfo-starPoints="5" bounding="rect(-178.823,-166.994,357.647,333.987)" text="" font-familyName="Avenir" font-pixelSize="300" font-bold="0" font-underline="0" font-alignment="1" strokeStyle="0" markerStart="0" markerEnd="0" shadowEnabled="0" shadowOffsetX="0" shadowOffsetY="2" shadowBlur="4" shadowOpacity="160" blurEnabled="0" blurRadius="4" transform="matrix(0.0791534,0,0,0.0791534,156.451,52.0287)" pers-center="0,0" pers-size="0,0" pers-start="0,0" pers-end="0,0" locked="0" mesh="" flag=""/>
            <path id="shapePath3" d="M148.02,64.8618 L149.945,63.0651 L151.613,60.4985 L153.923,58.1886 L156.104,57.6753 L158.889,59.087 L160.869,61.6004 L164.242,63.0651 L165.251,61.917 L164.575,59.6002 L159.694,57.1621 L162.65,57.2903 L165.986,56.7768 L167.911,57.2903 L170.478,57.4185 L170.606,56.5202 L167.654,55.1087 L163.805,53.9536 L161.495,54.4671 L160.083,54.2103 L161.11,53.5686 L164.575,51.772 L168.04,50.4886 L170.35,49.5903 L170.221,48.9486 L167.012,48.6922 L163.805,50.1037 L161.11,51.387 L158.158,52.7988 L157.901,51.6437 L159.313,47.1522 L159.442,44.6302 L161.752,39.8372 L161.752,38.9387 L160.469,38.8106 L159.313,40.6073 L156.79,44.0722 L156.274,47.9636 L155.464,49.3338 L154.308,46.6387 L153.538,45.4838 L152.64,45.2273 L151.87,45.9971 L152.64,48.1788 L153.538,49.9755 L152.768,50.3604 L151.303,48.9486 L149.679,47.9636 C149.679,47.9636 147.506,47.4089 147.506,47.4089 L145.582,46.6387 L144.426,47.6654 L146.48,48.6922 L149.407,50.632 L152.126,51.772 L150.458,52.3461 L149.819,53.2072 L150.964,54.2103 L148.843,55.1087 L145.762,55.9771 L143.452,57.1621 L142.297,58.4454 L143.067,59.3435 L145.762,58.4454 L147.635,58.0601 L150.844,57.8034 L150.458,59.6002 L149.176,60.8835 L146.608,63.5785 L146.48,65.2468 L148.02,64.8618 Z" style="stroke:none;fill-rule:evenodd;fill:#000000;fill-opacity:1;"/>
        </g>
        <g id="Shape4">
            <desc shapeID="4" type="0" basicInfo-basicType="0" basicInfo-roundedRectRadius="12" basicInfo-polygonSides="6" basicInfo-starPoints="5" bounding="rect(-25.9202,-561.02,51.8402,1122.04)" text="" font-familyName="Helvetica" font-pixelSize="20" font-bold="0" font-underline="0" font-alignment="1" strokeStyle="0" markerStart="0" markerEnd="0" shadowEnabled="0" shadowOffsetX="0" shadowOffsetY="2" shadowBlur="4" shadowOpacity="160" blurEnabled="0" blurRadius="4" transform="matrix(0.0909333,0,0,0.0909333,127.329,92.3094)" pers-center="0,0" pers-size="0,0" pers-start="0,0" pers-end="0,0" locked="0" mesh="" flag=""/>
            <path id="shapePath4" d="M125.445,43.6152 C125.055,46.3046 124.936,49.0373 124.981,51.7545 C125.06,56.5405 125.601,61.3084 125.814,66.0904 C126.002,70.2809 126.638,74.9134 126.769,79.106 C126.957,85.1317 127.352,90.7168 127.329,96.7454 C127.316,100.317 126.277,103.873 126.076,107.44 C125.953,109.615 125.797,111.79 125.797,113.969 C125.797,116.054 126.046,118.134 126.076,120.22 C126.139,124.709 126.218,129.203 126.076,133.692 C125.986,136.478 125.019,139.261 125.38,142.025 C125.482,142.799 126.554,143.261 127.333,143.321 C127.981,143.371 128.778,142.916 128.992,142.303 C129.402,141.123 129.027,139.803 128.992,138.553 C128.887,134.802 128.575,131.056 128.575,127.303 C128.575,123.643 128.434,119.988 128.575,116.33 C128.805,110.404 129.686,104.482 129.686,98.5513 C129.686,92.0654 129.13,85.5904 128.992,79.106 C128.898,74.755 127.937,70.4321 127.639,66.0904 C127.335,61.6614 126.808,57.2828 126.492,52.8547 C126.251,49.4832 126.695,46.0895 126.492,42.7155 C126.46,42.1766 126.979,41.0933 126.492,41.3264 C125.735,41.6885 125.564,42.7848 125.445,43.6152 Z" style="stroke:none;fill-rule:evenodd;fill:#000000;fill-opacity:1;"/>
        </g>
        <g id="Shape5">
            <desc shapeID="5" type="0" basicInfo-basicType="0" basicInfo-roundedRectRadius="12" basicInfo-polygonSides="6" basicInfo-starPoints="5" bounding="rect(-187.257,-132.891,374.516,265.783)" text="" font-familyName="Avenir" font-pixelSize="300" font-bold="0" font-underline="0" font-alignment="1" strokeStyle="0" markerStart="0" markerEnd="0" shadowEnabled="0" shadowOffsetX="0" shadowOffsetY="2" shadowBlur="4" shadowOpacity="160" blurEnabled="0" blurRadius="4" transform="matrix(0.0909333,0,0,0.0909333,125.917,41.6948)" pers-center="0,0" pers-size="0,0" pers-start="0,0" pers-end="0,0" locked="0" mesh="" flag=""/>
            <path id="shapePath5" d="M116.998,53.3365 C116.998,53.3365 119.209,51.2726 119.209,51.2726 C119.209,51.2726 121.126,48.324 121.126,48.324 C121.126,48.324 123.78,45.6702 123.78,45.6702 C123.78,45.6702 126.286,45.0804 126.286,45.0804 C126.286,45.0804 131.004,46.7022 131.004,46.7022 C131.004,46.7022 133.657,48.324 133.657,48.324 C133.657,48.324 137.343,49.7982 137.343,49.7982 C137.343,49.7982 137.932,48.6188 137.932,48.6188 C137.932,48.6188 136.311,46.9969 136.311,46.9969 C136.311,46.9969 133.51,44.7856 133.51,44.7856 C133.51,44.7856 133.805,44.1959 133.805,44.1959 C133.805,44.1959 137.638,44.0485 137.638,44.0485 C137.638,44.0485 139.849,44.6383 139.849,44.6383 C139.849,44.6383 142.798,44.7856 142.798,44.7856 C142.798,44.7856 142.945,43.7537 142.945,43.7537 C142.945,43.7537 139.555,42.1319 139.555,42.1319 C139.555,42.1319 135.132,40.8049 135.132,40.8049 C135.132,40.8049 132.478,41.3946 132.478,41.3946 C132.478,41.3946 130.856,41.0999 130.856,41.0999 C130.856,41.0999 132.035,40.3627 132.035,40.3627 C132.035,40.3627 136.016,38.2987 136.016,38.2987 C136.016,38.2987 139.997,36.8244 139.997,36.8244 C139.997,36.8244 142.65,35.7923 142.65,35.7923 C142.65,35.7923 142.502,35.0552 142.502,35.0552 C142.502,35.0552 138.817,34.7604 138.817,34.7604 C138.817,34.7604 135.132,36.3822 135.132,36.3822 C135.132,36.3822 132.035,37.8563 132.035,37.8563 C132.035,37.8563 128.645,39.4781 128.645,39.4781 C128.645,39.4781 129.069,38.5107 129.069,38.5107 C129.069,38.5107 131.115,35.7923 131.115,35.7923 C131.115,35.7923 132.478,32.8922 132.478,32.8922 C132.478,32.8922 137.071,31.3147 137.071,31.3147 C137.071,31.3147 137.071,30.2826 137.071,30.2826 C137.071,30.2826 135.596,30.1353 135.596,30.1353 C135.596,30.1353 132.795,29.6105 132.795,29.6105 C132.795,29.6105 128.401,31.9592 128.401,31.9592 C128.401,31.9592 126.48,33.9233 126.48,33.9233 C126.48,33.9233 125.549,35.4976 125.549,35.4976 C125.549,35.4976 124.222,32.4014 124.222,32.4014 C124.222,32.4014 123.337,31.0746 123.337,31.0746 C123.337,31.0746 122.305,30.7799 122.305,30.7799 C122.305,30.7799 121.421,31.6645 121.421,31.6645 C121.421,31.6645 122.305,34.1705 122.305,34.1705 C122.305,34.1705 123.337,36.2348 123.337,36.2348 C123.337,36.2348 122.452,36.6769 122.452,36.6769 C122.452,36.6769 120.093,34.613 120.093,34.613 C120.093,34.613 117.882,33.7285 117.882,33.7285 C117.882,33.7285 115.965,33.2859 115.965,33.2859 C115.965,33.2859 112.87,32.744 112.87,32.744 C112.87,32.744 110.659,32.744 110.659,32.744 C110.659,32.744 109.331,33.9233 109.331,33.9233 C109.331,33.9233 112.5,34.613 112.5,34.613 C112.5,34.613 116.555,36.2348 116.555,36.2348 C116.555,36.2348 121.716,38.2987 121.716,38.2987 C121.716,38.2987 123.337,39.4781 123.337,39.4781 C123.337,39.4781 122.6,41.2473 122.6,41.2473 C122.6,41.2473 120.536,41.9845 120.536,41.9845 C120.536,41.9845 117.734,42.7217 117.734,42.7217 C117.734,42.7217 113.311,43.7537 113.311,43.7537 C113.311,43.7537 110.216,44.6383 110.216,44.6383 C110.216,44.6383 108.889,46.1124 108.889,46.1124 C108.889,46.1124 109.774,47.1444 109.774,47.1444 C109.774,47.1444 112.87,46.1124 112.87,46.1124 C112.87,46.1124 116.555,45.5228 116.555,45.5228 C116.555,45.5228 120.241,45.2278 120.241,45.2278 C120.241,45.2278 119.799,47.292 119.799,47.292 C119.799,47.292 118.324,48.7662 118.324,48.7662 C118.324,48.7662 115.375,51.8624 115.375,51.8624 C115.375,51.8624 115.229,53.779 115.229,53.779 C115.229,53.779 116.998,53.3365 116.998,53.3365 Z" style="stroke:none;fill-rule:evenodd;fill:#000000;fill-opacity:1;"/>
        </g>
        <g id="Shape6">
            <desc shapeID="6" type="0" basicInfo-basicType="0" basicInfo-roundedRectRadius="12" basicInfo-polygonSides="6" basicInfo-starPoints="5" bounding="rect(-23.139,-561.1,46.2779,1122.21)" text="" font-familyName="Helvetica" font-pixelSize="20" font-bold="0" font-underline="0" font-alignment="1" strokeStyle="0" markerStart="0" markerEnd="0" shadowEnabled="0" shadowOffsetX="0" shadowOffsetY="2" shadowBlur="4" shadowOpacity="160" blurEnabled="0" blurRadius="4" transform="matrix(0.0892257,0,0,0.0892253,264.328,93.2555)" pers-center="0,0" pers-size="0,0" pers-start="0,0" pers-end="0,0" locked="0" mesh="" flag=""/>
            <path id="shapePath6" d="M262.726,45.4688 C262.344,48.1077 262.228,50.789 262.272,53.455 C262.35,58.1512 262.88,62.8295 263.09,67.5215 C263.274,71.6334 263.518,75.7486 263.452,79.8639 C263.358,85.7822 262.635,91.6821 262.612,97.6011 C262.599,101.107 263.249,104.59 263.344,108.095 C263.402,110.231 263.072,112.364 263.072,114.501 C263.072,116.547 263.315,118.587 263.344,120.634 C263.406,125.04 263.484,129.449 263.344,133.853 C263.257,136.586 262.312,139.318 262.664,142.03 C262.763,142.791 263.807,143.257 264.572,143.317 C265.211,143.366 265.995,142.908 266.205,142.303 C266.609,141.144 266.239,139.85 266.205,138.623 C266.103,134.942 265.797,131.267 265.797,127.585 C265.797,123.993 266.247,120.409 266.205,116.817 C266.139,110.998 265.474,105.193 265.474,99.373 C265.474,93.0083 265.328,86.7998 265.474,80.4367 C265.572,76.1675 265.107,72.2696 264.815,68.0093 C264.517,63.6636 264.064,58.8795 263.754,54.5347 C263.519,51.2265 264.771,47.8966 264.572,44.5859 C264.54,44.0571 264.233,42.9944 263.754,43.2229 C263.012,43.5782 262.844,44.654 262.726,45.4688 Z" style="stroke:none;fill-rule:evenodd;fill:#000000;fill-opacity:1;"/>
        </g>
        <g id="Shape7">
            <desc shapeID="7" type="0" basicInfo-basicType="0" basicInfo-roundedRectRadius="12" basicInfo-polygonSides="6" basicInfo-starPoints="5" bounding="rect(-187.266,-154.101,374.531,308.202)" text="" font-familyName="Avenir" font-pixelSize="300" font-bold="0" font-underline="0" font-alignment="1" strokeStyle="0" markerStart="0" markerEnd="0" shadowEnabled="0" shadowOffsetX="0" shadowOffsetY="2" shadowBlur="4" shadowOpacity="160" blurEnabled="0" blurRadius="4" transform="matrix(0.087626,0.0168187,-0.0168187,0.087626,262.972,41.6711)" pers-center="0,0" pers-size="0,0" pers-start="0,0" pers-end="0,0" locked="0" mesh="" flag=""/>
            <path id="shapePath7" d="M251.869,53.0985 C251.869,53.0985 254.379,51.5185 254.379,51.5185 C254.379,51.5185 256.774,49.0315 256.774,49.0315 C256.774,49.0315 259.821,46.9652 259.821,46.9652 C259.821,46.9652 262.345,46.8604 262.345,46.8604 C262.345,46.8604 266.592,49.2958 266.592,49.2958 C266.592,49.2958 268.848,51.3495 268.848,51.3495 C268.848,51.3495 272.128,53.4518 272.128,53.4518 C272.128,53.4518 272.913,52.4241 272.913,52.4241 C272.913,52.4241 271.65,50.5615 271.65,50.5615 C271.65,50.5615 269.361,47.9127 269.361,47.9127 C269.361,47.9127 269.755,47.3987 269.755,47.3987 C269.755,47.3987 273.475,47.9656 273.475,47.9656 C273.475,47.9656 275.496,48.943 275.496,48.943 C275.496,48.943 278.312,49.6305 278.312,49.6305 C278.312,49.6305 278.644,48.663 278.644,48.663 C278.644,48.663 275.677,46.4733 275.677,46.4733 C275.677,46.4733 271.661,44.3767 271.661,44.3767 C271.661,44.3767 268.994,44.4542 268.994,44.4542 C268.994,44.4542 267.485,43.87 267.485,43.87 C267.485,43.87 268.759,43.3777 268.759,43.3777 C268.759,43.3777 272.975,42.1252 272.975,42.1252 C272.975,42.1252 277.084,41.4406 277.084,41.4406 C277.084,41.4406 279.831,40.9371 279.831,40.9371 C279.831,40.9371 279.826,40.1994 279.826,40.1994 C279.826,40.1994 276.331,39.2336 276.331,39.2336 C276.331,39.2336 272.479,40.1146 272.479,40.1146 C272.479,40.1146 269.22,40.9626 269.22,40.9626 C269.22,40.9626 265.655,41.8981 265.655,41.8981 C265.655,41.8981 265.617,40.5652 265.617,40.5652 C265.617,40.5652 268.416,37.4897 268.416,37.4897 C268.416,37.4897 271.661,36.6851 271.661,36.6851 C271.661,36.6851 274.501,33.0325 274.501,33.0325 C274.501,33.0325 277.332,31.56 277.332,31.56 C277.332,31.56 275.496,30.0742 275.496,30.0742 C275.496,30.0742 270.757,30.7248 270.757,30.7248 C270.757,30.7248 266.889,33.6202 266.889,33.6202 C266.889,33.6202 264.596,36.1452 264.596,36.1452 C264.596,36.1452 263.409,37.4897 263.409,37.4897 C263.409,37.4897 262.702,34.2607 262.702,34.2607 C262.702,34.2607 262.094,32.8187 262.094,32.8187 C262.094,32.8187 261.154,32.3437 261.154,32.3437 C261.154,32.3437 260.137,33.0325 260.137,33.0325 C260.137,33.0325 260.525,35.6113 260.525,35.6113 C260.525,35.6113 261.138,37.791 261.138,37.791 C261.138,37.791 260.204,38.0537 260.204,38.0537 C260.204,38.0537 258.314,35.6285 258.314,35.6285 C258.314,35.6285 256.287,33.9135 256.287,33.9135 C256.287,33.9135 254.523,33.1329 254.523,33.1329 C254.523,33.1329 252.465,31.56 252.465,31.56 C252.465,31.56 250.5,30.2986 250.5,30.2986 C250.5,30.2986 249.002,31.1896 249.002,31.1896 C249.002,31.1896 251.056,32.7626 251.056,32.7626 C251.056,32.7626 254.544,36.0834 254.544,36.0834 C254.544,36.0834 259.195,39.48 259.195,39.48 C259.195,39.48 260.54,40.9166 260.54,40.9166 C260.54,40.9166 259.503,42.485 259.503,42.485 C259.503,42.485 257.379,42.8137 257.379,42.8137 C257.379,42.8137 254.541,43.006 254.541,43.006 C254.541,43.006 250.086,43.1822 250.086,43.1822 C250.086,43.1822 246.942,43.4621 246.942,43.4621 C246.942,43.4621 245.389,44.6374 245.389,44.6374 C245.389,44.6374 246.051,45.7955 246.051,45.7955 C246.051,45.7955 249.226,45.3735 249.226,45.3735 C249.226,45.3735 252.886,45.4869 252.886,45.4869 C252.886,45.4869 256.493,45.8846 256.493,45.8846 C256.493,45.8846 255.686,47.7917 255.686,47.7917 C255.686,47.7917 253.99,48.9397 253.99,48.9397 C253.99,48.9397 250.577,51.3779 250.577,51.3779 C250.577,51.3779 250.081,53.1975 250.081,53.1975 C250.081,53.1975 251.869,53.0985 251.869,53.0985 Z" style="stroke:none;fill-rule:evenodd;fill:#000000;fill-opacity:1;"/>
        </g>
        <g id="Shape8">
            <desc shapeID="8" type="0" basicInfo-basicType="0" basicInfo-roundedRectRadius="12" basicInfo-polygonSides="6" basicInfo-starPoints="5" bounding="rect(-23.8419,-560.753,47.6837,1121.51)" text="" font-familyName="Helvetica" font-pixelSize="20" font-bold="0" font-underline="0" font-alignment="1" strokeStyle="0" markerStart="0" markerEnd="0" shadowEnabled="0" shadowOffsetX="0" shadowOffsetY="2" shadowBlur="4" shadowOpacity="160" blurEnabled="0" blurRadius="4" transform="matrix(0.0733039,0,0,0.0733039,282.066,102.996)" pers-center="0,0" pers-size="0,0" pers-start="0,0" pers-end="0,0" locked="0" mesh="" flag=""/>
            <path id="shapePath8" d="M280.799,63.7621 C280.484,65.9301 280.389,68.133 280.425,70.3232 C280.49,74.1814 281.116,78.0212 281.098,81.8799 C281.083,85.1526 280.365,88.3951 280.325,91.6676 C280.266,96.527 280.595,101.384 280.799,106.24 C280.923,109.233 281.248,112.218 281.308,115.213 C281.344,116.968 281.085,118.72 281.085,120.475 C281.085,122.156 281.285,123.833 281.308,125.514 C281.359,129.134 281.424,132.756 281.308,136.375 C281.237,138.621 280.451,140.865 280.746,143.092 C280.829,143.712 281.707,144.05 282.331,144.099 C282.843,144.138 283.49,143.802 283.659,143.317 C283.992,142.365 283.687,141.301 283.659,140.294 C283.575,137.27 283.322,134.25 283.322,131.224 C283.322,128.275 283.681,125.33 283.659,122.379 C283.623,117.482 283.322,112.59 283.149,107.696 C282.965,102.47 282.487,97.2473 282.591,92.0199 C282.658,88.611 283.723,85.2561 283.659,81.8472 C283.593,78.269 282.457,74.78 282.202,71.2103 C282.007,68.4924 282.479,65.7567 282.315,63.0368 C282.289,62.6023 282.036,61.7293 281.643,61.917 C281.032,62.2089 280.895,63.0927 280.799,63.7621 Z" style="stroke:none;fill-rule:evenodd;fill:#000000;fill-opacity:1;"/>
        </g>
        <g id="Shape9">
            <desc shapeID="9" type="0" basicInfo-basicType="0" basicInfo-roundedRectRadius="12" basicInfo-polygonSides="6" basicInfo-starPoints="5" bounding="rect(-170.341,-142.46,340.686,284.919)" text="" font-familyName="Avenir" font-pixelSize="300" font-bold="0" font-underline="0" font-alignment="1" strokeStyle="0" markerStart="0" markerEnd="0" shadowEnabled="0" shadowOffsetX="0" shadowOffsetY="2" shadowBlur="4" shadowOpacity="160" blurEnabled="0" blurRadius="4" transform="matrix(0.0729523,0.00716872,-0.00716872,0.0729523,281.989,61.2147)" pers-center="0,0" pers-size="0,0" pers-start="0,0" pers-end="0,0" locked="0" mesh="" flag=""/>
            <path id="shapePath9" d="M275.321,70.6947 L276.957,69.9548 L278.398,67.8225 L280.352,65.9027 L282.41,65.6271 L284.915,67.2999 L288.068,68.8105 L290.91,70.2838 L291.475,69.3839 L290.303,67.955 L288.23,65.9599 L288.513,65.5102 L290.303,66.1055 L292.038,66.3416 L293.925,66.2137 L294.125,65.3974 L291.807,63.8142 L289.434,62.8945 L287.779,62.8945 L286.664,62.7938 L287.396,62.2955 L290.751,60.9534 L292.884,60.6327 L294.435,59.6749 L294.373,59.0719 L291.475,58.4726 L289.288,59.0719 L286.743,59.5718 L285.182,60.9002 L284.612,60.2307 L285.914,57.6966 L287.217,55.8475 L288.683,52.3345 L288.764,51.5066 L287.593,51.2722 L286.192,52.8234 L284.612,53.8526 L283.446,56.6915 L282.574,57.8809 L281.754,55.2925 L281.149,54.1583 L280.345,53.8404 L279.565,54.4802 L280.077,56.5606 L280.742,58.298 L279.997,58.5831 L278.398,56.8676 L276.479,55.4909 L274.643,54.985 L272.94,54.101 L271.783,54.9423 L273.783,56.6915 L276.103,58.1806 L278.874,60.3064 C278.874,60.3064 278.218,61.917 278.218,61.917 L275.939,62.555 L272.384,62.9836 L270.259,63.8228 L269.08,64.901 L269.709,65.7988 L272.273,65.2149 L274.568,65.2149 L277.192,65.2689 L276.566,66.4237 L275.735,67.5726 L274.138,69.3839 L273.869,70.9098 L275.321,70.6947 Z" style="stroke:none;fill-rule:evenodd;fill:#000000;fill-opacity:1;"/>
        </g>
        <g id="Shape10">
            <desc shapeID="10" type="0" basicInfo-basicType="0" basicInfo-roundedRectRadius="12" basicInfo-polygonSides="6" basicInfo-starPoints="5" bounding="rect(-123.073,-426.154,246.144,852.311)" text="" font-familyName="" font-pixelSize="20" font-bold="0" font-underline="0" font-alignment="1" strokeStyle="0" markerStart="0" markerEnd="0" shadowEnabled="0" shadowOffsetX="0" shadowOffsetY="2" shadowBlur="4" shadowOpacity="160" blurEnabled="0" blurRadius="4" transform="matrix(0.161807,0,0,0.161807,206.219,73.3478)" pers-center="0,0" pers-size="0,0" pers-start="0,0" pers-end="0,0" locked="0" mesh="" flag=""/>
            <path id="shapePath10" d="M211.967,4.72565 C211.304,5.17885 209.944,6.82925 209.604,7.60592 C209.475,7.91329 209.039,8.83566 208.634,9.66086 C207.873,11.2466 207.825,11.4894 208.083,12.2499 C208.229,12.6705 208.18,12.897 207.598,14.0458 C206.837,15.5505 206.498,15.761 205.56,15.308 C205.155,15.1299 204.913,14.8225 204.621,14.2076 C204.184,13.2044 203.812,12.8323 202.954,12.541 C201.951,12.2012 201.773,12.3954 201.773,13.9001 C201.773,14.9197 201.854,15.308 202.146,15.8742 C202.598,16.7157 202.793,17.7351 202.582,18.1396 C202.436,18.3985 202.388,18.3985 201.741,18.1557 C200.98,17.8807 199.8,17.0716 199.216,16.4406 C199.006,16.2141 198.472,15.9228 198.003,15.761 C197.534,15.6154 196.871,15.3241 196.515,15.1299 C196.159,14.9197 195.317,14.6445 194.654,14.4989 C193.99,14.3533 192.792,13.9488 191.984,13.609 C191.191,13.2529 190.237,12.9294 189.864,12.8646 C189.25,12.7676 189.168,12.8 188.764,13.2692 C188.101,14.062 188.035,13.9973 190.527,15.308 C191.515,15.8096 192.535,16.3921 192.792,16.6024 C193.068,16.7965 193.505,17.0069 193.78,17.0555 C194.33,17.1848 195.932,18.3337 196.449,18.9971 C196.628,19.2075 197.146,19.515 197.615,19.6605 C198.067,19.8223 198.634,20.1135 198.861,20.3239 C199.087,20.5181 199.589,20.8418 199.993,21.0197 C201.482,21.6993 202.97,22.751 203.342,23.3982 C203.554,23.7381 203.715,24.1103 203.715,24.2073 C203.715,24.4338 203.149,24.6927 201.903,25.0002 C201.336,25.1458 200.673,25.4047 200.398,25.5664 C199.734,25.971 198.764,26.1814 196.822,26.3593 C195.915,26.4403 194.961,26.6182 194.686,26.7639 C194.411,26.9096 193.651,27.136 193.003,27.2655 C192.356,27.4112 191.386,27.7347 190.851,27.9774 C190.317,28.2363 189.476,28.56 188.974,28.7055 C188.084,28.9483 186.676,29.9191 186.353,30.5016 C186.143,30.9061 186.645,31.3431 187.502,31.5372 C188.279,31.699 189.815,31.4077 191.191,30.8251 C191.53,30.6795 192.55,30.4207 193.44,30.2427 C194.33,30.0486 195.625,29.7411 196.32,29.5145 C197.598,29.1262 198.456,29.0291 198.812,29.2557 C198.91,29.3204 199.039,29.644 199.103,29.9677 C199.2,30.5016 199.136,30.712 198.521,31.7151 C198.133,32.3462 197.566,33.2038 197.275,33.5921 C196.984,33.9966 196.612,34.7571 196.449,35.2748 C196.287,35.7926 195.997,36.4237 195.802,36.6664 C195.495,37.0547 195.479,37.1519 195.673,37.4431 C195.818,37.6696 196.11,37.7991 196.498,37.8314 C197.016,37.88 197.21,37.783 197.793,37.2489 C198.165,36.9091 198.585,36.5531 198.715,36.4723 C198.974,36.3105 199.896,35.1292 201.304,33.1391 C202.146,31.9578 202.518,31.6018 204.168,30.4045 L204.88,29.9029 L205.592,30.1779 C205.98,30.3235 206.352,30.5177 206.401,30.6149 C206.465,30.6958 206.531,31.4401 206.563,32.2653 C206.578,33.0743 206.676,33.9158 206.757,34.1423 C206.837,34.4012 206.837,34.9998 206.741,35.728 C206.611,36.618 206.611,37.0709 206.772,37.5887 C206.87,37.9609 206.952,38.333 206.952,38.4302 C206.772,39.8702 206.742,45.0966 206.952,47.3296 C207.324,51.488 207.258,52.8309 207.436,53.2841 C207.841,54.3196 207.938,57.4424 207.921,67.9276 C207.905,73.9467 207.89,79.3511 207.89,79.9336 C207.873,80.5161 207.89,83.0566 207.921,85.5969 C207.955,90.3217 207.744,95.3541 207.421,97.6518 C206.967,100.758 206.918,108.201 207.355,109.948 C207.744,111.534 207.89,113.056 207.744,113.913 C207.598,114.77 207.258,121.857 207.323,122.57 C207.421,123.54 207.291,127.117 207.129,127.91 C207.047,128.346 206.935,131.55 206.886,135.013 C206.837,138.475 206.757,141.356 206.724,141.404 C206.563,141.679 207.258,142.197 207.89,142.278 C208.439,142.342 208.617,142.295 208.908,141.987 C209.2,141.679 209.249,141.469 209.2,140.903 C209.152,140.513 209.216,140.029 209.329,139.785 C209.604,139.252 209.637,138.087 209.459,135.677 C209.378,134.608 209.345,131.987 209.394,129.851 C209.442,127.715 209.427,125.693 209.378,125.369 C209.329,125.046 209.378,124.268 209.491,123.638 C209.604,123.022 209.734,121.373 209.782,119.949 C209.832,118.541 209.945,117.133 210.042,116.826 C210.316,115.952 210.252,111.583 209.961,110.434 C209.815,109.9 209.67,108.735 209.637,107.846 C209.604,106.956 209.491,105.564 209.394,104.771 C209.152,103.007 209.265,100.725 209.702,98.2985 C209.896,97.3113 210.107,95.7909 210.203,94.9012 C210.527,91.9237 210.689,84.3833 210.543,80.1763 C210.462,77.9435 210.398,75.7589 210.398,75.3222 C210.381,74.869 210.284,74.06 210.186,73.4938 C210.042,72.7171 210.042,72.2478 210.186,71.552 C210.414,70.4518 210.462,68.2512 210.381,62.3775 C210.316,57.1512 210.155,55.161 209.734,54.4652 C209.54,54.1416 209.394,53.4944 209.329,52.6691 C209.281,51.9572 209.168,50.7922 209.07,50.0802 C208.99,49.3683 209.071,46.9412 208.973,44.6758 C208.86,41.7958 208.829,40.4689 208.683,40.2261 C208.57,40.032 208.637,39.4385 208.634,39.0352 C208.621,37.6999 208.824,36.5317 208.634,35.1455 C208.691,34.7746 208.743,34.4025 208.778,34.029 C208.83,33.5068 208.778,32.9772 208.893,32.4594 C209.298,30.534 209.54,30.3561 211.06,30.9709 C211.643,31.1974 212.193,31.3916 212.307,31.3916 C212.63,31.3916 215.817,32.9933 216.821,33.6569 C218.956,35.0807 219.005,35.1131 219.863,35.1455 C220.543,35.1779 220.769,35.1131 221.044,34.8381 L221.384,34.4982 L220.963,33.7701 C220.592,33.1391 218.083,30.7767 216.627,29.6763 L216.158,29.3204 L216.579,28.835 C217.225,28.0584 218.358,27.8641 220.348,28.2039 C224.151,28.8188 225.478,28.8511 225.964,28.3172 C226.206,28.0421 226.206,28.0097 225.849,27.7509 C225.639,27.6053 225.09,27.2007 224.604,26.8447 C224.135,26.5049 223.666,26.2137 223.584,26.2137 C223.488,26.2137 222.905,25.9548 222.274,25.6313 C220.833,24.9031 216.983,24.0293 215.817,24.1911 L215.041,24.2883 L215.041,23.641 C215.041,22.9128 215.317,22.6864 216.659,22.3304 C217.064,22.2333 217.889,21.8934 218.504,21.586 C219.135,21.2785 219.717,21.036 219.83,21.036 C219.928,21.036 220.381,20.7932 220.802,20.5019 C221.238,20.2107 221.966,19.8061 222.435,19.6281 C223.455,19.2075 224.879,18.3013 224.992,17.9778 C225.041,17.8482 224.928,17.5894 224.75,17.4114 C224.216,16.8614 222.177,16.9583 220.3,17.6056 C219.507,17.8807 218.52,18.188 218.115,18.2852 C217.711,18.3823 216.918,18.7545 216.335,19.0942 C215.753,19.434 215.073,19.8061 214.814,19.9033 C214.232,20.1135 212.532,21.1329 211.886,21.6508 C211.514,21.9582 211.288,22.0229 210.785,21.9582 C210.43,21.9096 210.073,21.7964 209.976,21.6993 C209.686,21.408 209.637,19.1428 209.911,18.2367 C210.576,16.0198 210.899,14.5637 210.931,13.6575 C210.947,12.9941 211.109,12.2659 211.465,11.3599 C211.74,10.6318 211.967,9.80644 211.967,9.51528 C211.967,9.22401 212.226,8.46355 212.532,7.81625 C213.051,6.74828 213.406,5.61559 213.423,5.00083 C213.423,4.85513 213.245,4.66103 213.019,4.56396 C212.501,4.32121 212.598,4.30501 211.967,4.72565 Z" style="stroke:none;fill-rule:evenodd;fill:#000000;fill-opacity:1;"/>
        </g>
        <g id="Shape11">
            <desc shapeID="11" type="0" basicInfo-basicType="0" basicInfo-roundedRectRadius="12" basicInfo-polygonSides="6" basicInfo-starPoints="5" bounding="rect(-1140.26,-111.594,2280.53,223.187)" text="LAZYPIC" font-familyName="Avenir" font-pixelSize="300" font-bold="0" font-underline="0" font-alignment="1" strokeStyle="0" markerStart="0" markerEnd="0" shadowEnabled="0" shadowOffsetX="0" shadowOffsetY="2" shadowBlur="4" shadowOpacity="160" blurEnabled="0" blurRadius="4" transform="matrix(0.0659266,0,0,0.0659268,189,-238)" pers-center="0,0" pers-size="0,0" pers-start="0,0" pers-end="0,0" locked="0" mesh="" flag=""/>
            <path id="shapePath11" d="M115.251,-232.305 L121.777,-232.305 L121.777,-230.999 L113.827,-230.999 L113.827,-245.002 L115.251,-245.002 L115.251,-232.305 M137.899,-235.983 L143.971,-235.983 L140.945,-243.341 L137.899,-235.983 M135.822,-230.999 L134.161,-230.999 L140.253,-245.002 L141.637,-245.002 L147.729,-230.999 L146.067,-230.999 L144.525,-234.678 L137.365,-234.678 L135.822,-230.999 M170.713,-243.815 L162.544,-232.305 L170.831,-232.305 L170.831,-230.999 L160.745,-230.999 L160.745,-232.186 L168.933,-243.697 L160.863,-243.697 L160.863,-245.002 L170.713,-245.002 L170.713,-243.815 M190.691,-230.999 L189.266,-230.999 L189.266,-237.031 L184.026,-245.002 L185.806,-245.002 L189.979,-238.396 L194.153,-245.002 L195.932,-245.002 L190.691,-237.031 L190.691,-230.999 M212.492,-238.812 L214.787,-238.812 C215.419,-238.812 215.957,-238.878 216.398,-239.009 C216.84,-239.141 217.193,-239.315 217.457,-239.533 C217.72,-239.75 217.911,-240.008 218.03,-240.306 C218.149,-240.602 218.208,-240.921 218.208,-241.264 C218.208,-241.593 218.149,-241.907 218.03,-242.203 C217.911,-242.5 217.72,-242.76 217.457,-242.985 C217.193,-243.209 216.84,-243.383 216.398,-243.508 C215.957,-243.634 215.419,-243.697 214.787,-243.697 L212.492,-243.697 L212.492,-238.812 M211.069,-245.002 L215.142,-245.002 C216.567,-245.002 217.69,-244.692 218.514,-244.072 C219.338,-243.453 219.751,-242.516 219.751,-241.264 C219.751,-240.011 219.338,-239.072 218.514,-238.446 C217.69,-237.819 216.567,-237.506 215.142,-237.506 L212.492,-237.506 L212.492,-230.999 L211.069,-230.999 L211.069,-245.002 M235.645,-230.999 L234.221,-230.999 L234.221,-245.002 L235.645,-245.002 L235.645,-230.999 M264.174,-233.214 C263.937,-232.858 263.643,-232.521 263.294,-232.206 C262.945,-231.889 262.546,-231.615 262.098,-231.384 C261.649,-231.153 261.165,-230.973 260.643,-230.841 C260.123,-230.709 259.572,-230.643 258.992,-230.643 C257.951,-230.643 256.985,-230.827 256.095,-231.197 C255.205,-231.567 254.433,-232.077 253.781,-232.729 C253.128,-233.382 252.617,-234.156 252.247,-235.053 C251.878,-235.95 251.695,-236.933 251.695,-238.001 C251.695,-239.069 251.878,-240.05 252.247,-240.947 C252.617,-241.843 253.128,-242.618 253.781,-243.271 C254.433,-243.924 255.205,-244.436 256.095,-244.804 C256.985,-245.173 257.951,-245.357 258.992,-245.357 C259.862,-245.357 260.732,-245.186 261.603,-244.844 C262.473,-244.501 263.218,-243.934 263.838,-243.143 L262.592,-242.213 C262.447,-242.438 262.249,-242.661 261.999,-242.885 C261.748,-243.11 261.462,-243.307 261.139,-243.478 C260.815,-243.65 260.47,-243.789 260.1,-243.894 C259.73,-244 259.361,-244.052 258.992,-244.052 C258.095,-244.052 257.292,-243.888 256.579,-243.559 C255.867,-243.229 255.264,-242.787 254.77,-242.233 C254.275,-241.679 253.896,-241.037 253.633,-240.306 C253.369,-239.573 253.236,-238.805 253.236,-238.001 C253.236,-237.196 253.369,-236.428 253.633,-235.696 C253.896,-234.965 254.275,-234.322 254.77,-233.768 C255.264,-233.214 255.867,-232.773 256.579,-232.443 C257.292,-232.113 258.095,-231.948 258.992,-231.948 C259.361,-231.948 259.728,-231.982 260.09,-232.048 C260.453,-232.113 260.809,-232.225 261.158,-232.383 C261.508,-232.541 261.837,-232.756 262.147,-233.026 C262.456,-233.296 262.744,-233.635 263.007,-234.044 L264.174,-233.214 Z" style="stroke:none;fill-rule:evenodd;fill:#000000;fill-opacity:1;"/>
        </g>
        <g id="Shape12">
            <desc shapeID="12" type="0" basicInfo-basicType="0" basicInfo-roundedRectRadius="12" basicInfo-polygonSides="6" basicInfo-starPoints="5" bounding="rect(-123.073,-426.155,246.144,852.312)" text="" font-familyName="" font-pixelSize="20" font-bold="0" font-underline="0" font-alignment="1" strokeStyle="0" markerStart="0" markerEnd="0" shadowEnabled="0" shadowOffsetX="0" shadowOffsetY="2" shadowBlur="4" shadowOpacity="160" blurEnabled="0" blurRadius="4" transform="matrix(0.142011,0,0,0.142011,187.706,-317.883)" pers-center="0,0" pers-size="0,0" pers-start="0,0" pers-end="0,0" locked="0" mesh="" flag=""/>
            <path id="shapePath12" d="M192.75,-378.11 C192.168,-377.712 190.975,-376.264 190.677,-375.582 C190.563,-375.313 190.18,-374.503 189.824,-373.779 C189.157,-372.387 189.115,-372.174 189.341,-371.507 C189.469,-371.137 189.427,-370.938 188.916,-369.93 C188.248,-368.61 187.95,-368.425 187.127,-368.823 C186.771,-368.979 186.558,-369.249 186.303,-369.788 C185.919,-370.669 185.593,-370.995 184.84,-371.251 C183.96,-371.549 183.804,-371.379 183.804,-370.058 C183.804,-369.163 183.874,-368.823 184.13,-368.326 C184.528,-367.587 184.698,-366.692 184.514,-366.337 C184.386,-366.11 184.343,-366.11 183.775,-366.323 C183.108,-366.565 182.071,-367.275 181.56,-367.829 C181.375,-368.027 180.906,-368.283 180.495,-368.425 C180.083,-368.553 179.501,-368.808 179.188,-368.979 C178.876,-369.163 178.137,-369.405 177.555,-369.533 C176.973,-369.66 175.922,-370.015 175.212,-370.314 C174.516,-370.626 173.678,-370.91 173.351,-370.967 C172.812,-371.052 172.741,-371.024 172.386,-370.612 C171.804,-369.916 171.747,-369.973 173.934,-368.823 C174.8,-368.382 175.695,-367.871 175.922,-367.686 C176.163,-367.516 176.547,-367.331 176.788,-367.289 C177.271,-367.175 178.677,-366.167 179.131,-365.585 C179.288,-365.4 179.742,-365.13 180.154,-365.002 C180.551,-364.86 181.048,-364.605 181.247,-364.42 C181.446,-364.25 181.886,-363.966 182.241,-363.81 C183.548,-363.213 184.854,-362.29 185.181,-361.722 C185.366,-361.424 185.508,-361.097 185.508,-361.012 C185.508,-360.813 185.011,-360.586 183.917,-360.316 C183.42,-360.188 182.838,-359.961 182.596,-359.819 C182.014,-359.464 181.162,-359.279 179.458,-359.123 C178.663,-359.052 177.825,-358.896 177.583,-358.768 C177.342,-358.64 176.675,-358.442 176.107,-358.328 C175.538,-358.2 174.686,-357.916 174.218,-357.703 C173.749,-357.476 173.011,-357.192 172.57,-357.064 C171.789,-356.851 170.554,-355.999 170.27,-355.488 C170.085,-355.133 170.525,-354.749 171.278,-354.579 C171.96,-354.437 173.309,-354.692 174.516,-355.204 C174.814,-355.332 175.709,-355.559 176.49,-355.715 C177.271,-355.885 178.407,-356.155 179.018,-356.354 C180.14,-356.695 180.892,-356.78 181.205,-356.581 C181.29,-356.524 181.403,-356.24 181.46,-355.956 C181.545,-355.488 181.489,-355.303 180.949,-354.423 C180.608,-353.869 180.111,-353.116 179.856,-352.775 C179.6,-352.42 179.273,-351.753 179.131,-351.298 C178.989,-350.844 178.734,-350.29 178.563,-350.077 C178.293,-349.736 178.279,-349.651 178.45,-349.396 C178.577,-349.197 178.833,-349.083 179.174,-349.055 C179.628,-349.012 179.799,-349.097 180.31,-349.566 C180.637,-349.864 181.006,-350.177 181.119,-350.248 C181.347,-350.39 182.156,-351.426 183.392,-353.173 C184.13,-354.21 184.457,-354.522 185.905,-355.573 L186.53,-356.013 L187.155,-355.772 C187.496,-355.644 187.822,-355.474 187.865,-355.388 C187.921,-355.317 187.979,-354.664 188.007,-353.94 C188.021,-353.23 188.107,-352.491 188.177,-352.293 C188.248,-352.065 188.248,-351.54 188.163,-350.901 C188.049,-350.12 188.049,-349.722 188.191,-349.268 C188.277,-348.941 188.348,-348.614 188.348,-348.529 C188.191,-347.265 188.164,-342.678 188.348,-340.719 C188.675,-337.069 188.618,-335.89 188.774,-335.493 C189.129,-334.584 189.214,-331.843 189.199,-322.641 C189.185,-317.358 189.171,-312.615 189.171,-312.103 C189.157,-311.592 189.171,-309.363 189.199,-307.133 C189.229,-302.986 189.043,-298.57 188.76,-296.553 C188.362,-293.827 188.319,-287.294 188.702,-285.761 C189.043,-284.369 189.171,-283.034 189.043,-282.281 C188.916,-281.528 188.618,-275.309 188.674,-274.684 C188.76,-273.832 188.646,-270.693 188.504,-269.997 C188.433,-269.613 188.334,-266.802 188.291,-263.763 C188.248,-260.724 188.177,-258.196 188.149,-258.153 C188.007,-257.912 188.618,-257.458 189.171,-257.386 C189.654,-257.33 189.81,-257.372 190.066,-257.642 C190.321,-257.912 190.365,-258.097 190.321,-258.594 C190.279,-258.935 190.336,-259.36 190.435,-259.574 C190.677,-260.042 190.705,-261.065 190.549,-263.18 C190.478,-264.118 190.449,-266.418 190.492,-268.293 C190.535,-270.168 190.521,-271.943 190.478,-272.227 C190.435,-272.51 190.478,-273.193 190.577,-273.746 C190.677,-274.286 190.79,-275.734 190.833,-276.984 C190.876,-278.22 190.975,-279.455 191.06,-279.725 C191.302,-280.492 191.245,-284.326 190.99,-285.334 C190.862,-285.803 190.734,-286.825 190.705,-287.606 C190.677,-288.387 190.577,-289.609 190.492,-290.305 C190.279,-291.853 190.379,-293.855 190.762,-295.985 C190.932,-296.852 191.117,-298.186 191.202,-298.967 C191.487,-301.58 191.628,-308.198 191.501,-311.89 C191.429,-313.85 191.373,-315.767 191.373,-316.151 C191.359,-316.548 191.273,-317.258 191.188,-317.755 C191.06,-318.437 191.06,-318.849 191.188,-319.46 C191.387,-320.425 191.429,-322.357 191.359,-327.512 C191.302,-332.099 191.16,-333.845 190.79,-334.456 C190.62,-334.74 190.492,-335.308 190.435,-336.032 C190.393,-336.657 190.293,-337.68 190.208,-338.304 C190.137,-338.929 190.209,-341.059 190.123,-343.048 C190.024,-345.575 189.995,-346.74 189.868,-346.953 C189.768,-347.123 189.828,-347.644 189.824,-347.998 C189.813,-349.17 189.992,-350.195 189.824,-351.412 C189.875,-351.737 189.92,-352.064 189.952,-352.392 C189.996,-352.85 189.952,-353.315 190.052,-353.769 C190.407,-355.459 190.62,-355.616 191.955,-355.076 C192.466,-354.877 192.949,-354.707 193.048,-354.707 C193.332,-354.707 196.13,-353.301 197.01,-352.719 C198.885,-351.469 198.927,-351.44 199.68,-351.412 C200.276,-351.384 200.476,-351.44 200.717,-351.682 L201.015,-351.98 L200.646,-352.619 C200.32,-353.173 198.118,-355.246 196.84,-356.212 L196.428,-356.524 L196.798,-356.95 C197.365,-357.632 198.359,-357.803 200.106,-357.504 C203.443,-356.965 204.608,-356.936 205.034,-357.405 C205.247,-357.646 205.247,-357.675 204.934,-357.902 C204.75,-358.03 204.267,-358.385 203.841,-358.697 C203.429,-358.995 203.017,-359.251 202.946,-359.251 C202.861,-359.251 202.35,-359.478 201.796,-359.762 C200.532,-360.401 197.152,-361.168 196.13,-361.026 L195.448,-360.941 L195.448,-361.509 C195.448,-362.148 195.69,-362.347 196.868,-362.659 C197.223,-362.744 197.948,-363.043 198.487,-363.313 C199.041,-363.582 199.552,-363.795 199.651,-363.795 C199.737,-363.795 200.134,-364.008 200.504,-364.264 C200.887,-364.52 201.526,-364.875 201.938,-365.031 C202.832,-365.4 204.082,-366.195 204.182,-366.479 C204.225,-366.593 204.125,-366.82 203.969,-366.976 C203.5,-367.459 201.711,-367.374 200.064,-366.806 C199.368,-366.565 198.501,-366.295 198.146,-366.21 C197.791,-366.124 197.096,-365.798 196.584,-365.5 C196.073,-365.201 195.477,-364.875 195.249,-364.789 C194.738,-364.605 193.247,-363.71 192.679,-363.256 C192.352,-362.986 192.154,-362.929 191.713,-362.986 C191.401,-363.029 191.088,-363.128 191.004,-363.213 C190.748,-363.469 190.705,-365.457 190.946,-366.252 C191.529,-368.198 191.813,-369.476 191.841,-370.271 C191.855,-370.853 191.997,-371.492 192.31,-372.288 C192.551,-372.927 192.75,-373.651 192.75,-373.907 C192.75,-374.162 192.977,-374.83 193.247,-375.398 C193.701,-376.335 194.013,-377.329 194.028,-377.869 C194.028,-377.997 193.872,-378.167 193.673,-378.252 C193.218,-378.465 193.304,-378.479 192.75,-378.11 Z" style="stroke:none;fill-rule:evenodd;fill:#000000;fill-opacity:1;"/>
        </g>
    </g>
</svg>
