<?xml version="1.0"?>
<svg version="1.1" xmlns="http://www.w3.org/2000/svg" xmlns:xlink="http://www.w3.org/1999/xlink" width="300" height="120">
    <desc iVinci="yes" version="4.6" gridStep="20" showGrid="no" snapToGrid="no" codePlatform="0"/>
    <g id="Layer1" name="Layer 2" opacity="1">
        <g id="Shape1">
            <desc shapeID="1" type="0" basicInfo-basicType="0" basicInfo-roundedRectRadius="12" basicInfo-polygonSides="6" basicInfo-starPoints="5" bounding="rect(-794.247,-40.5003,1588.5,81.0004)" text="OPENPIPELINE.IO" font-familyName="AppleGothic" font-pixelSize="100" font-bold="0" font-underline="0" font-alignment="1" strokeStyle="0" markerStart="0" markerEnd="0" shadowEnabled="0" shadowOffsetX="0" shadowOffsetY="2" shadowBlur="4" shadowOpacity="160" blurEnabled="0" blurRadius="4" transform="matrix(0.157913,0,0,0.157913,151.422,113.051)" pers-center="0,0" pers-size="0,0" pers-start="0,0" pers-end="0,0" locked="0" mesh="" flag=""/>
            <path id="shapePath1" d="M31.5272,119.447 C30.0953,119.447 28.8426,118.889 27.7687,117.773 C26.5896,116.562 26,114.999 26,113.082 C26,111.251 26.5527,109.703 27.6583,108.441 C28.7319,107.25 30.0058,106.656 31.4799,106.656 C32.9747,106.656 34.2592,107.24 35.333,108.409 C36.4384,109.64 36.9912,111.193 36.9912,113.067 C36.9912,115.015 36.3911,116.593 35.1908,117.804 C34.1276,118.9 32.9063,119.447 31.5272,119.447 M31.4324,118.278 C32.601,118.278 33.5959,117.789 34.4171,116.809 C35.2489,115.81 35.6647,114.562 35.6647,113.067 C35.6647,112.34 35.5645,111.667 35.3646,111.046 C35.1645,110.425 34.8644,109.861 34.4645,109.357 C33.6642,108.336 32.6748,107.825 31.4956,107.825 C30.3271,107.825 29.3374,108.336 28.5267,109.357 C27.7266,110.356 27.3266,111.604 27.3266,113.099 C27.3266,114.657 27.7477,115.925 28.5899,116.904 C29.3795,117.82 30.3271,118.278 31.4324,118.278 M47.2139,106.861 L51.1778,106.861 C52.3146,106.861 53.2463,107.056 53.9726,107.446 C54.9517,107.993 55.4412,108.867 55.4412,110.067 C55.4412,111.225 55.036,112.12 54.2252,112.751 C53.4885,113.341 52.5409,113.636 51.383,113.636 L48.4616,113.636 L48.4616,119.241 L47.2139,119.241 L47.2139,106.861 M51.1617,107.95 L48.4616,107.95 L48.4616,112.546 L51.2567,112.546 C51.9935,112.546 52.6304,112.351 53.1673,111.962 C53.7673,111.52 54.0675,110.925 54.0675,110.178 C54.0675,109.335 53.7148,108.73 53.0094,108.361 C52.4935,108.088 51.8777,107.95 51.1617,107.95 M65.7642,106.846 L73.4704,106.846 L73.4704,107.935 L67.0117,107.935 L67.0117,112.215 L73.2335,112.215 L73.2335,113.304 L67.0117,113.304 L67.0117,118.152 L73.5178,118.152 L73.5178,119.241 L65.7642,119.241 L65.7642,106.846 M83.9815,119.241 L83.9815,106.861 L85.1191,106.861 L92.7299,117.347 L92.7299,106.861 L93.8674,106.861 L93.8674,119.241 L92.7299,119.241 L85.1191,108.773 L85.1191,119.241 L83.9815,119.241 M104.284,106.861 L108.248,106.861 C109.384,106.861 110.316,107.056 111.043,107.446 C112.021,107.993 112.512,108.867 112.512,110.067 C112.512,111.225 112.106,112.12 111.295,112.751 C110.559,113.341 109.611,113.636 108.453,113.636 L105.532,113.636 L105.532,119.241 L104.284,119.241 L104.284,106.861 M108.232,107.95 L105.532,107.95 L105.532,112.546 L108.327,112.546 C109.064,112.546 109.701,112.351 110.238,111.962 C110.838,111.52 111.138,110.925 111.138,110.178 C111.138,109.335 110.785,108.73 110.08,108.361 C109.564,108.088 108.948,107.95 108.232,107.95 M123.213,106.861 L124.445,106.861 L124.445,119.241 L123.213,119.241 L123.213,106.861 M135.163,106.861 L139.127,106.861 C140.263,106.861 141.195,107.056 141.922,107.446 C142.901,107.993 143.39,108.867 143.39,110.067 C143.39,111.225 142.986,112.12 142.174,112.751 C141.437,113.341 140.49,113.636 139.331,113.636 L136.411,113.636 L136.411,119.241 L135.163,119.241 L135.163,106.861 M139.111,107.95 L136.411,107.95 L136.411,112.546 L139.206,112.546 C139.942,112.546 140.58,112.351 141.116,111.962 C141.716,111.52 142.017,110.925 142.017,110.178 C142.017,109.335 141.663,108.73 140.959,108.361 C140.442,108.088 139.826,107.95 139.111,107.95 M153.712,106.846 L161.419,106.846 L161.419,107.935 L154.961,107.935 L154.961,112.215 L161.182,112.215 L161.182,113.304 L154.961,113.304 L154.961,118.152 L161.466,118.152 L161.466,119.241 L153.712,119.241 L153.712,106.846 M171.962,106.861 L173.21,106.861 L173.21,118.152 L179.321,118.152 L179.321,119.241 L171.962,119.241 L171.962,106.861 M189.911,106.861 L191.144,106.861 L191.144,119.241 L189.911,119.241 L189.911,106.861 M202.003,119.241 L202.003,106.861 L203.141,106.861 L210.75,117.347 L210.75,106.861 L211.888,106.861 L211.888,119.241 L210.75,119.241 L203.141,108.773 L203.141,119.241 L202.003,119.241 M222.353,106.846 L230.059,106.846 L230.059,107.935 L223.599,107.935 L223.599,112.215 L229.821,112.215 L229.821,113.304 L223.599,113.304 L223.599,118.152 L230.106,118.152 L230.106,119.241 L222.353,119.241 L222.353,106.846 M242.038,119.289 C241.786,119.289 241.569,119.184 241.391,118.973 C241.213,118.762 241.123,118.505 241.123,118.199 C241.123,117.883 241.215,117.618 241.4,117.402 C241.584,117.186 241.797,117.078 242.038,117.078 C242.27,117.078 242.478,117.176 242.662,117.37 C242.847,117.566 242.938,117.83 242.938,118.168 C242.938,118.484 242.849,118.749 242.67,118.965 C242.491,119.181 242.28,119.289 242.038,119.289 M253.919,106.861 L255.151,106.861 L255.151,119.241 L253.919,119.241 L253.919,106.861 M271.381,119.447 C269.949,119.447 268.696,118.889 267.623,117.773 C266.444,116.562 265.853,114.999 265.853,113.082 C265.853,111.251 266.407,109.703 267.512,108.441 C268.586,107.25 269.86,106.656 271.333,106.656 C272.829,106.656 274.113,107.24 275.186,108.409 C276.293,109.64 276.845,111.193 276.845,113.067 C276.845,115.015 276.233,116.581 275.045,117.804 C273.982,118.9 272.76,119.447 271.381,119.447 M271.287,118.278 C272.455,118.278 273.45,117.789 274.271,116.809 C275.101,115.81 275.518,114.562 275.518,113.067 C275.518,112.34 275.419,111.667 275.219,111.046 C275.019,110.425 274.718,109.861 274.319,109.357 C273.517,108.336 272.528,107.825 271.349,107.825 C270.181,107.825 269.191,108.336 268.38,109.357 C267.58,110.356 267.181,111.604 267.181,113.099 C267.181,114.657 267.602,115.925 268.444,116.904 C269.234,117.82 270.181,118.278 271.287,118.278 Z" style="stroke:none;fill-rule:evenodd;fill:#000000;fill-opacity:1;"/>
        </g>
        <g id="Shape2">
            <desc shapeID="2" type="0" basicInfo-basicType="0" basicInfo-roundedRectRadius="12" basicInfo-polygonSides="6" basicInfo-starPoints="5" bounding="rect(-26.4187,-559.732,52.8372,1119.46)" text="" font-familyName="Helvetica" font-pixelSize="20" font-bold="0" font-underline="0" font-alignment="1" strokeStyle="0" markerStart="0" markerEnd="0" shadowEnabled="0" shadowOffsetX="0" shadowOffsetY="2" shadowBlur="4" shadowOpacity="160" blurEnabled="0" blurRadius="4" transform="matrix(0.0569176,0,0,0.0569176,117.171,68.8028)" pers-center="0,0" pers-size="0,0" pers-start="0,0" pers-end="0,0" locked="0" mesh="" flag=""/>
            <path id="shapePath2" d="M116.014,38.397 C115.771,40.0804 115.677,41.7913 115.725,43.4916 C115.819,46.8412 116.262,50.1727 116.439,53.519 C116.578,56.1408 116.613,58.7673 116.67,61.3922 C116.747,64.812 116.896,68.2324 116.844,71.6524 C116.81,73.8888 116.536,76.1143 116.41,78.3471 C116.333,79.7076 116.236,81.0695 116.236,82.4329 C116.236,83.7387 116.464,85.041 116.41,86.3454 C116.293,89.1627 115.815,91.9592 115.725,94.778 C115.669,96.5175 115.553,98.3058 115.976,99.9942 C116.086,100.442 116.731,100.622 117.192,100.658 C117.575,100.687 118.103,100.529 118.235,100.168 C118.505,99.4341 118.257,98.6035 118.235,97.8212 C118.17,95.4734 117.975,93.1285 117.975,90.7792 C117.975,88.4882 118.146,86.2009 118.235,83.9113 C118.378,80.2009 118.638,76.4947 118.67,72.7828 C118.702,69.0764 118.564,65.3698 118.428,61.6657 C118.332,59.0488 118.21,56.4309 117.975,53.8229 C117.683,50.6 117.002,47.4127 116.844,44.1803 C116.741,42.0641 117.243,39.952 117.192,37.8339 C117.184,37.4961 116.975,36.8186 116.67,36.9645 C116.197,37.1912 116.091,37.8773 116.014,38.397 Z" style="stroke:none;fill-rule:evenodd;fill:#000000;fill-opacity:1;"/>
        </g>
        <g id="Shape3">
            <desc shapeID="3" type="0" basicInfo-basicType="0" basicInfo-roundedRectRadius="12" basicInfo-polygonSides="6" basicInfo-starPoints="5" bounding="rect(-178.823,-166.994,357.647,333.987)" text="" font-familyName="Avenir" font-pixelSize="300" font-bold="0" font-underline="0" font-alignment="1" strokeStyle="0" markerStart="0" markerEnd="0" shadowEnabled="0" shadowOffsetX="0" shadowOffsetY="2" shadowBlur="4" shadowOpacity="160" blurEnabled="0" blurRadius="4" transform="matrix(0.0569176,0,0,0.0569176,116.791,35.2539)" pers-center="0,0" pers-size="0,0" pers-start="0,0" pers-end="0,0" locked="0" mesh="" flag=""/>
            <path id="shapePath3" d="M110.728,44.4819 L112.112,43.1899 L113.311,41.3443 L114.972,39.6833 L116.541,39.3142 L118.543,40.3293 L119.967,42.1367 L122.393,43.1899 L123.118,42.3643 L122.632,40.6984 L119.122,38.9452 L121.248,39.0374 L123.647,38.6681 L125.031,39.0374 L126.877,39.1295 L126.969,38.4836 L124.846,37.4686 L122.078,36.638 L120.417,37.0072 L119.402,36.8226 L120.14,36.3612 L122.632,35.0693 L125.124,34.1464 L126.785,33.5004 L126.692,33.039 L124.384,32.8546 L122.078,33.8696 L120.14,34.7924 L118.018,35.8076 L117.833,34.977 L118.848,31.7473 L118.941,29.9337 L120.602,26.4872 L120.602,25.8411 L119.68,25.749 L118.848,27.041 L117.034,29.5325 L116.663,32.3307 L116.081,33.316 L115.249,31.378 L114.696,30.5475 L114.05,30.3631 L113.496,30.9166 L114.05,32.4855 L114.696,33.7774 L114.142,34.0542 L113.088,33.039 L111.921,32.3307 C111.921,32.3307 110.358,31.9318 110.358,31.9318 L108.975,31.378 L108.143,32.1163 L109.62,32.8546 L111.725,34.2495 L113.68,35.0693 L112.481,35.4821 L112.021,36.1013 L112.845,36.8226 L111.32,37.4686 L109.104,38.0931 L107.443,38.9452 L106.612,39.868 L107.166,40.5138 L109.104,39.868 L110.451,39.5909 L112.758,39.4063 L112.481,40.6984 L111.559,41.6212 L109.712,43.5591 L109.62,44.7587 L110.728,44.4819 Z" style="stroke:none;fill-rule:evenodd;fill:#000000;fill-opacity:1;"/>
        </g>
        <g id="Shape4">
            <desc shapeID="4" type="0" basicInfo-basicType="0" basicInfo-roundedRectRadius="12" basicInfo-polygonSides="6" basicInfo-starPoints="5" bounding="rect(-25.9202,-561.02,51.8402,1122.04)" text="" font-familyName="Helvetica" font-pixelSize="20" font-bold="0" font-underline="0" font-alignment="1" strokeStyle="0" markerStart="0" markerEnd="0" shadowEnabled="0" shadowOffsetX="0" shadowOffsetY="2" shadowBlur="4" shadowOpacity="160" blurEnabled="0" blurRadius="4" transform="matrix(0.0653883,0,0,0.0653883,95.8492,64.2188)" pers-center="0,0" pers-size="0,0" pers-start="0,0" pers-end="0,0" locked="0" mesh="" flag=""/>
            <path id="shapePath4" d="M94.4945,29.2039 C94.214,31.1378 94.1285,33.1028 94.1608,35.0567 C94.2176,38.4982 94.6067,41.9267 94.7598,45.3653 C94.895,48.3786 95.3523,51.7098 95.4465,54.7246 C95.5817,59.0575 95.8658,63.0737 95.8492,67.4087 C95.8399,69.977 95.0928,72.534 94.9482,75.099 C94.8598,76.663 94.7476,78.227 94.7476,79.7938 C94.7476,81.2931 94.9266,82.7888 94.9482,84.2888 C94.9935,87.5167 95.0503,90.7483 94.9482,93.9762 C94.8835,95.9796 94.1881,97.9808 94.4477,99.9683 C94.5211,100.525 95.2919,100.857 95.8521,100.9 C96.3181,100.936 96.8912,100.609 97.0451,100.168 C97.3399,99.3197 97.0702,98.3705 97.0451,97.4717 C96.9696,94.7744 96.7452,92.0807 96.7452,89.382 C96.7452,86.7502 96.6438,84.122 96.7452,81.4916 C96.9106,77.2303 97.5441,72.9719 97.5441,68.7073 C97.5441,64.0434 97.1443,59.3874 97.0451,54.7246 C96.9775,51.5959 96.2864,48.4873 96.0721,45.3653 C95.8535,42.1805 95.4746,39.0319 95.2474,35.8478 C95.0741,33.4234 95.3933,30.9831 95.2474,28.5569 C95.2243,28.1694 95.5975,27.3904 95.2474,27.558 C94.703,27.8184 94.5801,28.6067 94.4945,29.2039 Z" style="stroke:none;fill-rule:evenodd;fill:#000000;fill-opacity:1;"/>
        </g>
        <g id="Shape5">
            <desc shapeID="5" type="0" basicInfo-basicType="0" basicInfo-roundedRectRadius="12" basicInfo-polygonSides="6" basicInfo-starPoints="5" bounding="rect(-187.257,-132.891,374.516,265.783)" text="" font-familyName="Avenir" font-pixelSize="300" font-bold="0" font-underline="0" font-alignment="1" strokeStyle="0" markerStart="0" markerEnd="0" shadowEnabled="0" shadowOffsetX="0" shadowOffsetY="2" shadowBlur="4" shadowOpacity="160" blurEnabled="0" blurRadius="4" transform="matrix(0.0653883,0,0,0.0653883,94.8338,27.8229)" pers-center="0,0" pers-size="0,0" pers-start="0,0" pers-end="0,0" locked="0" mesh="" flag=""/>
            <path id="shapePath5" d="M88.4204,36.1943 C88.4204,36.1943 90.0103,34.7101 90.0103,34.7101 C90.0103,34.7101 91.3888,32.5899 91.3888,32.5899 C91.3888,32.5899 93.2972,30.6816 93.2972,30.6816 C93.2972,30.6816 95.0992,30.2575 95.0992,30.2575 C95.0992,30.2575 98.4919,31.4237 98.4919,31.4237 C98.4919,31.4237 100.4,32.5899 100.4,32.5899 C100.4,32.5899 103.05,33.6499 103.05,33.6499 C103.05,33.6499 103.474,32.8019 103.474,32.8019 C103.474,32.8019 102.308,31.6356 102.308,31.6356 C102.308,31.6356 100.294,30.0455 100.294,30.0455 C100.294,30.0455 100.506,29.6214 100.506,29.6214 C100.506,29.6214 103.262,29.5154 103.262,29.5154 C103.262,29.5154 104.852,29.9396 104.852,29.9396 C104.852,29.9396 106.973,30.0455 106.973,30.0455 C106.973,30.0455 107.078,29.3035 107.078,29.3035 C107.078,29.3035 104.641,28.1373 104.641,28.1373 C104.641,28.1373 101.46,27.183 101.46,27.183 C101.46,27.183 99.5518,27.6071 99.5518,27.6071 C99.5518,27.6071 98.3854,27.3952 98.3854,27.3952 C98.3854,27.3952 99.2332,26.8651 99.2332,26.8651 C99.2332,26.8651 102.096,25.3809 102.096,25.3809 C102.096,25.3809 104.959,24.3207 104.959,24.3207 C104.959,24.3207 106.866,23.5786 106.866,23.5786 C106.866,23.5786 106.76,23.0485 106.76,23.0485 C106.76,23.0485 104.11,22.8366 104.11,22.8366 C104.11,22.8366 101.46,24.0028 101.46,24.0028 C101.46,24.0028 99.2332,25.0628 99.2332,25.0628 C99.2332,25.0628 96.7956,26.229 96.7956,26.229 C96.7956,26.229 97.1004,25.5333 97.1004,25.5333 C97.1004,25.5333 98.5717,23.5786 98.5717,23.5786 C98.5717,23.5786 99.5518,21.4932 99.5518,21.4932 C99.5518,21.4932 102.855,20.3588 102.855,20.3588 C102.855,20.3588 102.855,19.6167 102.855,19.6167 C102.855,19.6167 101.794,19.5107 101.794,19.5107 C101.794,19.5107 99.7797,19.1334 99.7797,19.1334 C99.7797,19.1334 96.6201,20.8223 96.6201,20.8223 C96.6201,20.8223 95.2387,22.2346 95.2387,22.2346 C95.2387,22.2346 94.5693,23.3667 94.5693,23.3667 C94.5693,23.3667 93.6151,21.1403 93.6151,21.1403 C93.6151,21.1403 92.9787,20.1862 92.9787,20.1862 C92.9787,20.1862 92.2366,19.9743 92.2366,19.9743 C92.2366,19.9743 91.6009,20.6104 91.6009,20.6104 C91.6009,20.6104 92.2366,22.4124 92.2366,22.4124 C92.2366,22.4124 92.9787,23.8968 92.9787,23.8968 C92.9787,23.8968 92.3423,24.2147 92.3423,24.2147 C92.3423,24.2147 90.646,22.7306 90.646,22.7306 C90.646,22.7306 89.0561,22.0945 89.0561,22.0945 C89.0561,22.0945 87.6776,21.7763 87.6776,21.7763 C87.6776,21.7763 85.4521,21.3866 85.4521,21.3866 C85.4521,21.3866 83.8622,21.3866 83.8622,21.3866 C83.8622,21.3866 82.9072,22.2346 82.9072,22.2346 C82.9072,22.2346 85.186,22.7306 85.186,22.7306 C85.186,22.7306 88.1019,23.8968 88.1019,23.8968 C88.1019,23.8968 91.813,25.3809 91.813,25.3809 C91.813,25.3809 92.9787,26.229 92.9787,26.229 C92.9787,26.229 92.4487,27.5012 92.4487,27.5012 C92.4487,27.5012 90.9645,28.0313 90.9645,28.0313 C90.9645,28.0313 88.9497,28.5614 88.9497,28.5614 C88.9497,28.5614 85.7692,29.3035 85.7692,29.3035 C85.7692,29.3035 83.5436,29.9396 83.5436,29.9396 C83.5436,29.9396 82.5894,30.9996 82.5894,30.9996 C82.5894,30.9996 83.2258,31.7416 83.2258,31.7416 C83.2258,31.7416 85.4521,30.9996 85.4521,30.9996 C85.4521,30.9996 88.1019,30.5756 88.1019,30.5756 C88.1019,30.5756 90.7524,30.3635 90.7524,30.3635 C90.7524,30.3635 90.4346,31.8478 90.4346,31.8478 C90.4346,31.8478 89.3739,32.9079 89.3739,32.9079 C89.3739,32.9079 87.2534,35.1343 87.2534,35.1343 C87.2534,35.1343 87.1484,36.5125 87.1484,36.5125 C87.1484,36.5125 88.4204,36.1943 88.4204,36.1943 Z" style="stroke:none;fill-rule:evenodd;fill:#000000;fill-opacity:1;"/>
        </g>
        <g id="Shape6">
            <desc shapeID="6" type="0" basicInfo-basicType="0" basicInfo-roundedRectRadius="12" basicInfo-polygonSides="6" basicInfo-starPoints="5" bounding="rect(-23.139,-561.099,46.2779,1122.21)" text="" font-familyName="Helvetica" font-pixelSize="20" font-bold="0" font-underline="0" font-alignment="1" strokeStyle="0" markerStart="0" markerEnd="0" shadowEnabled="0" shadowOffsetX="0" shadowOffsetY="2" shadowBlur="4" shadowOpacity="160" blurEnabled="0" blurRadius="4" transform="matrix(0.0641604,0,0,0.0641601,194.362,64.8991)" pers-center="0,0" pers-size="0,0" pers-start="0,0" pers-end="0,0" locked="0" mesh="" flag=""/>
            <path id="shapePath6" d="M193.21,30.5368 C192.936,32.4343 192.852,34.3624 192.884,36.2795 C192.94,39.6564 193.321,43.0205 193.472,46.3944 C193.604,49.3512 193.78,52.3103 193.732,55.2696 C193.665,59.5253 193.145,63.7678 193.128,68.024 C193.119,70.545 193.587,73.0496 193.655,75.57 C193.697,77.1059 193.459,78.6397 193.459,80.1764 C193.459,81.6476 193.634,83.1146 193.655,84.5865 C193.699,87.7548 193.756,90.9252 193.655,94.092 C193.592,96.0573 192.913,98.0218 193.166,99.9719 C193.237,100.519 193.988,100.854 194.538,100.897 C194.997,100.933 195.561,100.603 195.712,100.168 C196.003,99.3348 195.737,98.4044 195.712,97.522 C195.639,94.8751 195.419,92.2325 195.419,89.5848 C195.419,87.0019 195.742,84.4247 195.712,81.8418 C195.665,77.6575 195.186,73.4832 195.186,69.2982 C195.186,64.7214 195.081,60.257 195.186,55.6815 C195.257,52.6116 194.923,49.8087 194.713,46.7452 C194.498,43.6203 194.173,40.1801 193.95,37.0559 C193.781,34.677 194.681,32.2825 194.538,29.9019 C194.515,29.5216 194.294,28.7575 193.95,28.9218 C193.416,29.1773 193.295,29.9508 193.21,30.5368 Z" style="stroke:none;fill-rule:evenodd;fill:#000000;fill-opacity:1;"/>
        </g>
        <g id="Shape7">
            <desc shapeID="7" type="0" basicInfo-basicType="0" basicInfo-roundedRectRadius="12" basicInfo-polygonSides="6" basicInfo-starPoints="5" bounding="rect(-187.266,-154.101,374.531,308.202)" text="" font-familyName="Avenir" font-pixelSize="300" font-bold="0" font-underline="0" font-alignment="1" strokeStyle="0" markerStart="0" markerEnd="0" shadowEnabled="0" shadowOffsetX="0" shadowOffsetY="2" shadowBlur="4" shadowOpacity="160" blurEnabled="0" blurRadius="4" transform="matrix(0.0630101,0.012094,-0.012094,0.0630101,193.387,27.8059)" pers-center="0,0" pers-size="0,0" pers-start="0,0" pers-end="0,0" locked="0" mesh="" flag=""/>
            <path id="shapePath7" d="M185.403,36.0231 C185.403,36.0231 187.208,34.887 187.208,34.887 C187.208,34.887 188.93,33.0986 188.93,33.0986 C188.93,33.0986 191.122,31.6128 191.122,31.6128 C191.122,31.6128 192.936,31.5374 192.936,31.5374 C192.936,31.5374 195.99,33.2887 195.99,33.2887 C195.99,33.2887 197.613,34.7654 197.613,34.7654 C197.613,34.7654 199.971,36.2772 199.971,36.2772 C199.971,36.2772 200.536,35.5382 200.536,35.5382 C200.536,35.5382 199.628,34.1988 199.628,34.1988 C199.628,34.1988 197.982,32.2941 197.982,32.2941 C197.982,32.2941 198.265,31.9245 198.265,31.9245 C198.265,31.9245 200.94,32.3321 200.94,32.3321 C200.94,32.3321 202.393,33.035 202.393,33.035 C202.393,33.035 204.418,33.5293 204.418,33.5293 C204.418,33.5293 204.657,32.8336 204.657,32.8336 C204.657,32.8336 202.523,31.2591 202.523,31.2591 C202.523,31.2591 199.635,29.7514 199.635,29.7514 C199.635,29.7514 197.718,29.8072 197.718,29.8072 C197.718,29.8072 196.633,29.3871 196.633,29.3871 C196.633,29.3871 197.549,29.0331 197.549,29.0331 C197.549,29.0331 200.58,28.1324 200.58,28.1324 C200.58,28.1324 203.535,27.6402 203.535,27.6402 C203.535,27.6402 205.51,27.2781 205.51,27.2781 C205.51,27.2781 205.507,26.7476 205.507,26.7476 C205.507,26.7476 202.994,26.0531 202.994,26.0531 C202.994,26.0531 200.224,26.6867 200.224,26.6867 C200.224,26.6867 197.88,27.2964 197.88,27.2964 C197.88,27.2964 195.317,27.9691 195.317,27.9691 C195.317,27.9691 195.289,27.0107 195.289,27.0107 C195.289,27.0107 197.302,24.7991 197.302,24.7991 C197.302,24.7991 199.635,24.2206 199.635,24.2206 C199.635,24.2206 201.678,21.5941 201.678,21.5941 C201.678,21.5941 203.713,20.5352 203.713,20.5352 C203.713,20.5352 202.393,19.4668 202.393,19.4668 C202.393,19.4668 198.985,19.9346 198.985,19.9346 C198.985,19.9346 196.204,22.0167 196.204,22.0167 C196.204,22.0167 194.555,23.8323 194.555,23.8323 C194.555,23.8323 193.702,24.7991 193.702,24.7991 C193.702,24.7991 193.193,22.4772 193.193,22.4772 C193.193,22.4772 192.756,21.4403 192.756,21.4403 C192.756,21.4403 192.08,21.0988 192.08,21.0988 C192.08,21.0988 191.349,21.5941 191.349,21.5941 C191.349,21.5941 191.628,23.4484 191.628,23.4484 C191.628,23.4484 192.069,25.0158 192.069,25.0158 C192.069,25.0158 191.397,25.2047 191.397,25.2047 C191.397,25.2047 190.038,23.4608 190.038,23.4608 C190.038,23.4608 188.58,22.2276 188.58,22.2276 C188.58,22.2276 187.312,21.6663 187.312,21.6663 C187.312,21.6663 185.832,20.5352 185.832,20.5352 C185.832,20.5352 184.419,19.6282 184.419,19.6282 C184.419,19.6282 183.342,20.2689 183.342,20.2689 C183.342,20.2689 184.819,21.4 184.819,21.4 C184.819,21.4 187.327,23.7879 187.327,23.7879 C187.327,23.7879 190.671,26.2303 190.671,26.2303 C190.671,26.2303 191.639,27.2634 191.639,27.2634 C191.639,27.2634 190.893,28.3912 190.893,28.3912 C190.893,28.3912 189.366,28.6275 189.366,28.6275 C189.366,28.6275 187.325,28.7658 187.325,28.7658 C187.325,28.7658 184.121,28.8925 184.121,28.8925 C184.121,28.8925 181.86,29.0938 181.86,29.0938 C181.86,29.0938 180.744,29.9389 180.744,29.9389 C180.744,29.9389 181.22,30.7717 181.22,30.7717 C181.22,30.7717 183.503,30.4682 183.503,30.4682 C183.503,30.4682 186.135,30.5498 186.135,30.5498 C186.135,30.5498 188.728,30.8357 188.728,30.8357 C188.728,30.8357 188.148,32.2071 188.148,32.2071 C188.148,32.2071 186.929,33.0326 186.929,33.0326 C186.929,33.0326 184.474,34.7859 184.474,34.7859 C184.474,34.7859 184.118,36.0943 184.118,36.0943 C184.118,36.0943 185.403,36.0231 185.403,36.0231 Z" style="stroke:none;fill-rule:evenodd;fill:#000000;fill-opacity:1;"/>
        </g>
        <g id="Shape8">
            <desc shapeID="8" type="0" basicInfo-basicType="0" basicInfo-roundedRectRadius="12" basicInfo-polygonSides="6" basicInfo-starPoints="5" bounding="rect(-23.8419,-560.754,47.6837,1121.51)" text="" font-familyName="Helvetica" font-pixelSize="20" font-bold="0" font-underline="0" font-alignment="1" strokeStyle="0" markerStart="0" markerEnd="0" shadowEnabled="0" shadowOffsetX="0" shadowOffsetY="2" shadowBlur="4" shadowOpacity="160" blurEnabled="0" blurRadius="4" transform="matrix(0.0527113,0,0,0.0527113,207.117,71.9036)" pers-center="0,0" pers-size="0,0" pers-start="0,0" pers-end="0,0" locked="0" mesh="" flag=""/>
            <path id="shapePath8" d="M206.206,43.6911 C205.98,45.25 205.912,46.8341 205.937,48.409 C205.984,51.1834 206.434,53.9445 206.421,56.7192 C206.411,59.0726 205.894,61.4042 205.866,63.7574 C205.823,67.2517 206.06,70.7442 206.206,74.2361 C206.296,76.3883 206.529,78.5347 206.572,80.6884 C206.598,81.9504 206.412,83.2102 206.412,84.4722 C206.412,85.6809 206.556,86.8868 206.572,88.0956 C206.609,90.6987 206.656,93.3032 206.572,95.9055 C206.521,97.5206 205.956,99.1342 206.168,100.736 C206.228,101.181 206.859,101.424 207.308,101.46 C207.676,101.488 208.141,101.246 208.263,100.897 C208.502,100.213 208.283,99.4477 208.263,98.7236 C208.203,96.5491 208.021,94.3775 208.021,92.2016 C208.021,90.081 208.279,87.9633 208.263,85.8413 C208.237,82.32 208.021,78.8022 207.896,75.2831 C207.764,71.5251 207.42,67.7696 207.495,64.0107 C207.543,61.5594 208.309,59.147 208.263,56.6957 C208.215,54.1227 207.399,51.6138 207.215,49.0469 C207.075,47.0925 207.414,45.1254 207.296,43.1695 C207.278,42.8571 207.096,42.2293 206.813,42.3643 C206.374,42.5742 206.275,43.2097 206.206,43.6911 Z" style="stroke:none;fill-rule:evenodd;fill:#000000;fill-opacity:1;"/>
        </g>
        <g id="Shape9">
            <desc shapeID="9" type="0" basicInfo-basicType="0" basicInfo-roundedRectRadius="12" basicInfo-polygonSides="6" basicInfo-starPoints="5" bounding="rect(-170.341,-142.46,340.686,284.919)" text="" font-familyName="Avenir" font-pixelSize="300" font-bold="0" font-underline="0" font-alignment="1" strokeStyle="0" markerStart="0" markerEnd="0" shadowEnabled="0" shadowOffsetX="0" shadowOffsetY="2" shadowBlur="4" shadowOpacity="160" blurEnabled="0" blurRadius="4" transform="matrix(0.0524585,0.00515488,-0.00515488,0.0524585,207.062,41.8593)" pers-center="0,0" pers-size="0,0" pers-start="0,0" pers-end="0,0" locked="0" mesh="" flag=""/>
            <path id="shapePath9" d="M202.267,48.6762 L203.444,48.1441 L204.48,46.6108 L205.885,45.2304 L207.365,45.0322 L209.166,46.2351 L211.433,47.3213 L213.477,48.3807 L213.883,47.7336 L213.04,46.7061 L211.55,45.2715 L211.753,44.9481 L213.04,45.3762 L214.288,45.546 L215.645,45.454 L215.789,44.867 L214.122,43.7286 L212.416,43.0672 L211.226,43.0672 L210.424,42.9948 L210.95,42.6365 L213.363,41.6714 L214.896,41.4408 L216.012,40.7521 L215.967,40.3185 L213.883,39.8875 L212.311,40.3185 L210.481,40.6779 L209.358,41.6332 L208.948,41.1517 L209.884,39.3295 L210.821,37.9999 L211.876,35.4737 L211.934,34.8784 L211.092,34.7099 L210.084,35.8253 L208.948,36.5654 L208.11,38.6068 L207.483,39.462 L206.893,37.6008 L206.458,36.7852 L205.88,36.5566 L205.319,37.0167 L205.687,38.5126 L206.165,39.762 L205.63,39.967 L204.48,38.7334 L203.1,37.7434 L201.78,37.3797 L200.555,36.744 L199.723,37.349 L201.161,38.6068 L202.83,39.6776 L204.822,41.2062 C204.822,41.2062 204.35,42.3643 204.35,42.3643 L202.712,42.8231 L200.155,43.1313 L198.627,43.7347 L197.779,44.5101 L198.232,45.1556 L200.076,44.7358 L201.726,44.7358 L203.613,44.7746 L203.163,45.605 L202.565,46.4311 L201.417,47.7336 L201.223,48.8309 L202.267,48.6762 Z" style="stroke:none;fill-rule:evenodd;fill:#000000;fill-opacity:1;"/>
        </g>
        <g id="Shape10">
            <desc shapeID="10" type="0" basicInfo-basicType="0" basicInfo-roundedRectRadius="12" basicInfo-polygonSides="6" basicInfo-starPoints="5" bounding="rect(-123.073,-426.154,246.144,852.311)" text="" font-familyName="" font-pixelSize="20" font-bold="0" font-underline="0" font-alignment="1" strokeStyle="0" markerStart="0" markerEnd="0" shadowEnabled="0" shadowOffsetX="0" shadowOffsetY="2" shadowBlur="4" shadowOpacity="160" blurEnabled="0" blurRadius="4" transform="matrix(0.116352,0,0,0.116352,152.578,50.5839)" pers-center="0,0" pers-size="0,0" pers-start="0,0" pers-end="0,0" locked="0" mesh="" flag=""/>
            <path id="shapePath10" d="M156.711,1.23919 C156.234,1.56508 155.256,2.75185 155.012,3.31034 C154.919,3.53136 154.605,4.19462 154.314,4.788 C153.767,5.92827 153.732,6.10287 153.918,6.64973 C154.023,6.95217 153.988,7.11504 153.569,7.94112 C153.022,9.02312 152.778,9.17449 152.104,8.84874 C151.812,8.72068 151.638,8.49963 151.428,8.05747 C151.114,7.33609 150.847,7.06852 150.23,6.85905 C149.508,6.61471 149.38,6.75435 149.38,7.83635 C149.38,8.56952 149.439,8.84874 149.649,9.25589 C149.974,9.86099 150.114,10.594 149.962,10.8849 C149.857,11.0711 149.823,11.0711 149.357,10.8965 C148.81,10.6987 147.962,10.1169 147.542,9.66317 C147.391,9.5003 147.007,9.29083 146.669,9.17449 C146.332,9.06979 145.855,8.86032 145.599,8.72068 C145.343,8.56952 144.738,8.37164 144.261,8.26694 C143.784,8.16224 142.922,7.87137 142.341,7.62703 C141.771,7.37097 141.085,7.13834 140.817,7.09174 C140.375,7.022 140.316,7.04529 140.026,7.38269 C139.549,7.95277 139.502,7.90625 141.294,8.84874 C142.004,9.20944 142.738,9.6283 142.922,9.77952 C143.121,9.91909 143.435,10.0704 143.633,10.1053 C144.028,10.1983 145.18,11.0245 145.552,11.5015 C145.681,11.6528 146.053,11.8739 146.39,11.9785 C146.715,12.0949 147.123,12.3043 147.286,12.4556 C147.449,12.5952 147.81,12.828 148.1,12.9559 C149.171,13.4446 150.241,14.2009 150.509,14.6662 C150.661,14.9107 150.777,15.1783 150.777,15.248 C150.777,15.4109 150.37,15.5971 149.474,15.8182 C149.066,15.9229 148.589,16.1091 148.392,16.2254 C147.914,16.5163 147.217,16.6676 145.82,16.7955 C145.168,16.8538 144.482,16.9817 144.284,17.0864 C144.087,17.1912 143.54,17.354 143.074,17.4471 C142.609,17.5519 141.911,17.7845 141.527,17.9591 C141.143,18.1452 140.538,18.378 140.177,18.4826 C139.537,18.6572 138.524,19.3553 138.292,19.7742 C138.141,20.065 138.502,20.3793 139.118,20.5188 C139.677,20.6352 140.782,20.4257 141.771,20.0068 C142.015,19.9021 142.748,19.716 143.388,19.588 C144.028,19.4484 144.96,19.2273 145.459,19.0643 C146.378,18.7851 146.995,18.7153 147.251,18.8783 C147.322,18.9248 147.414,19.1575 147.46,19.3902 C147.53,19.7742 147.484,19.9254 147.042,20.6468 C146.763,21.1006 146.355,21.7172 146.146,21.9965 C145.937,22.2873 145.669,22.8342 145.552,23.2065 C145.436,23.5788 145.227,24.0326 145.087,24.2071 C144.866,24.4864 144.855,24.5562 144.994,24.7656 C145.098,24.9285 145.308,25.0216 145.587,25.0449 C145.96,25.0798 146.099,25.0101 146.518,24.626 C146.786,24.3817 147.088,24.1257 147.181,24.0676 C147.368,23.9512 148.031,23.1018 149.043,21.6707 C149.649,20.8213 149.916,20.5653 151.103,19.7043 L151.615,19.3436 L152.127,19.5414 C152.406,19.6461 152.673,19.7857 152.708,19.8556 C152.754,19.9138 152.802,20.449 152.825,21.0424 C152.836,21.6241 152.906,22.2292 152.964,22.3921 C153.022,22.5783 153.022,23.0087 152.953,23.5323 C152.859,24.1723 152.859,24.498 152.975,24.8703 C153.046,25.138 153.105,25.4056 153.105,25.4754 C152.975,26.5109 152.954,30.2691 153.105,31.8748 C153.372,34.865 153.325,35.8307 153.453,36.1566 C153.744,36.9012 153.814,39.1467 153.801,46.6864 C153.79,51.0146 153.779,54.9008 153.779,55.3197 C153.767,55.7386 153.779,57.5654 153.801,59.3921 C153.826,62.7896 153.674,66.4083 153.442,68.0605 C153.115,70.2941 153.08,75.6462 153.394,76.9024 C153.674,78.0429 153.779,79.1373 153.674,79.7536 C153.569,80.3698 153.325,85.466 153.371,85.9787 C153.442,86.6762 153.348,89.2483 153.232,89.8185 C153.173,90.132 153.092,92.436 153.057,94.9262 C153.022,97.4156 152.964,99.4873 152.941,99.5218 C152.825,99.7195 153.325,100.092 153.779,100.15 C154.174,100.196 154.302,100.162 154.511,99.941 C154.721,99.7195 154.756,99.5685 154.721,99.1615 C154.686,98.8811 154.733,98.5331 154.814,98.3576 C155.012,97.9743 155.035,97.1366 154.907,95.4036 C154.849,94.6349 154.825,92.7502 154.861,91.2143 C154.895,89.6783 154.884,88.2243 154.849,87.9914 C154.814,87.7591 154.849,87.1996 154.93,86.7466 C155.012,86.3037 155.105,85.1179 155.14,84.0939 C155.175,83.0815 155.257,82.069 155.326,81.8483 C155.523,81.2198 155.477,78.0781 155.268,77.2519 C155.163,76.8679 155.059,76.0302 155.035,75.3909 C155.012,74.7509 154.93,73.75 154.861,73.1798 C154.686,71.9113 154.768,70.2704 155.082,68.5255 C155.221,67.8156 155.373,66.7223 155.442,66.0826 C155.675,63.9415 155.792,58.5194 155.687,55.4942 C155.628,53.8886 155.582,52.3177 155.582,52.0037 C155.57,51.6778 155.5,51.0961 155.43,50.689 C155.326,50.1305 155.326,49.793 155.43,49.2927 C155.594,48.5015 155.628,46.9191 155.57,42.6955 C155.523,38.9373 155.408,37.5062 155.105,37.0059 C154.965,36.7732 154.861,36.3078 154.814,35.7143 C154.779,35.2024 154.698,34.3647 154.628,33.8527 C154.57,33.3408 154.628,31.5955 154.558,29.9665 C154.477,27.8956 154.454,26.9414 154.349,26.7668 C154.268,26.6273 154.316,26.2005 154.314,25.9105 C154.305,24.9503 154.451,24.1103 154.314,23.1135 C154.355,22.8468 154.392,22.5792 154.418,22.3106 C154.455,21.9351 154.418,21.5543 154.5,21.182 C154.791,19.7974 154.965,19.6695 156.059,20.1116 C156.478,20.2745 156.873,20.4141 156.955,20.4141 C157.187,20.4141 159.479,21.5659 160.201,22.0431 C161.736,23.0669 161.772,23.0902 162.389,23.1135 C162.878,23.1368 163.04,23.0902 163.238,22.8924 L163.482,22.648 L163.18,22.1245 C162.913,21.6707 161.109,19.972 160.062,19.1807 L159.724,18.9248 L160.027,18.5757 C160.492,18.0173 161.306,17.8776 162.737,18.1219 C165.472,18.5641 166.426,18.5873 166.776,18.2034 C166.95,18.0056 166.95,17.9823 166.693,17.7962 C166.542,17.6915 166.147,17.4005 165.798,17.1446 C165.46,16.9002 165.123,16.6908 165.064,16.6908 C164.995,16.6908 164.576,16.5046 164.122,16.272 C163.086,15.7484 160.318,15.1201 159.479,15.2364 L158.921,15.3063 L158.921,14.8408 C158.921,14.3172 159.12,14.1544 160.085,13.8984 C160.376,13.8286 160.969,13.5842 161.411,13.3631 C161.865,13.142 162.284,12.9676 162.365,12.9676 C162.435,12.9676 162.761,12.793 163.064,12.5836 C163.377,12.3742 163.901,12.0832 164.238,11.9552 C164.971,11.6528 165.995,11.0012 166.077,10.7685 C166.112,10.6754 166.031,10.4893 165.903,10.3613 C165.519,9.96576 164.053,10.0354 162.703,10.5009 C162.133,10.6987 161.423,10.9197 161.132,10.9896 C160.841,11.0594 160.271,11.3271 159.852,11.5713 C159.433,11.8157 158.944,12.0832 158.758,12.1531 C158.339,12.3043 157.117,13.0373 156.652,13.4097 C156.385,13.6308 156.222,13.6773 155.861,13.6308 C155.605,13.5958 155.349,13.5144 155.279,13.4446 C155.07,13.2351 155.035,11.6063 155.232,10.9547 C155.71,9.36059 155.943,8.31353 155.966,7.6619 C155.977,7.18486 156.094,6.66123 156.35,6.00975 C156.547,5.48618 156.711,4.89269 156.711,4.68332 C156.711,4.47387 156.897,3.92704 157.117,3.46158 C157.49,2.69363 157.745,1.87913 157.758,1.43707 C157.758,1.3323 157.63,1.19273 157.467,1.12293 C157.095,0.948372 157.164,0.936722 156.711,1.23919 Z" style="stroke:none;fill-rule:evenodd;fill:#000000;fill-opacity:1;"/>
        </g>
        <g id="Shape11">
            <desc shapeID="11" type="0" basicInfo-basicType="0" basicInfo-roundedRectRadius="12" basicInfo-polygonSides="6" basicInfo-starPoints="5" bounding="rect(-1140.26,-111.594,2280.52,223.187)" text="LAZYPIC" font-familyName="Avenir" font-pixelSize="300" font-bold="0" font-underline="0" font-alignment="1" strokeStyle="0" markerStart="0" markerEnd="0" shadowEnabled="0" shadowOffsetX="0" shadowOffsetY="2" shadowBlur="4" shadowOpacity="160" blurEnabled="0" blurRadius="4" transform="matrix(0.0659266,0,0,0.0659268,189,-238)" pers-center="0,0" pers-size="0,0" pers-start="0,0" pers-end="0,0" locked="0" mesh="" flag=""/>
            <path id="shapePath11" d="M115.251,-232.305 L121.777,-232.305 L121.777,-230.999 L113.827,-230.999 L113.827,-245.002 L115.251,-245.002 L115.251,-232.305 M137.899,-235.983 L143.971,-235.983 L140.945,-243.341 L137.899,-235.983 M135.822,-230.999 L134.161,-230.999 L140.253,-245.002 L141.637,-245.002 L147.729,-230.999 L146.067,-230.999 L144.525,-234.678 L137.365,-234.678 L135.822,-230.999 M170.713,-243.815 L162.544,-232.305 L170.831,-232.305 L170.831,-230.999 L160.745,-230.999 L160.745,-232.186 L168.933,-243.697 L160.863,-243.697 L160.863,-245.002 L170.713,-245.002 L170.713,-243.815 M190.691,-230.999 L189.266,-230.999 L189.266,-237.031 L184.026,-245.002 L185.806,-245.002 L189.979,-238.396 L194.153,-245.002 L195.932,-245.002 L190.691,-237.031 L190.691,-230.999 M212.492,-238.812 L214.787,-238.812 C215.419,-238.812 215.957,-238.878 216.398,-239.009 C216.84,-239.141 217.193,-239.315 217.457,-239.533 C217.72,-239.75 217.911,-240.008 218.03,-240.306 C218.149,-240.602 218.208,-240.921 218.208,-241.264 C218.208,-241.593 218.149,-241.907 218.03,-242.203 C217.911,-242.5 217.72,-242.76 217.457,-242.985 C217.193,-243.209 216.84,-243.383 216.398,-243.508 C215.957,-243.634 215.419,-243.697 214.787,-243.697 L212.492,-243.697 L212.492,-238.812 M211.069,-245.002 L215.142,-245.002 C216.567,-245.002 217.69,-244.692 218.514,-244.072 C219.338,-243.453 219.751,-242.516 219.751,-241.264 C219.751,-240.011 219.338,-239.072 218.514,-238.446 C217.69,-237.819 216.567,-237.506 215.142,-237.506 L212.492,-237.506 L212.492,-230.999 L211.069,-230.999 L211.069,-245.002 M235.645,-230.999 L234.221,-230.999 L234.221,-245.002 L235.645,-245.002 L235.645,-230.999 M264.174,-233.214 C263.937,-232.858 263.643,-232.521 263.294,-232.206 C262.945,-231.889 262.546,-231.615 262.098,-231.384 C261.649,-231.153 261.165,-230.973 260.643,-230.841 C260.123,-230.709 259.572,-230.643 258.992,-230.643 C257.951,-230.643 256.985,-230.827 256.095,-231.197 C255.205,-231.567 254.433,-232.077 253.781,-232.729 C253.128,-233.382 252.617,-234.156 252.247,-235.053 C251.878,-235.95 251.695,-236.933 251.695,-238.001 C251.695,-239.069 251.878,-240.05 252.247,-240.947 C252.617,-241.843 253.128,-242.618 253.781,-243.271 C254.433,-243.924 255.205,-244.436 256.095,-244.804 C256.985,-245.173 257.951,-245.357 258.992,-245.357 C259.862,-245.357 260.732,-245.186 261.603,-244.844 C262.473,-244.501 263.218,-243.934 263.838,-243.143 L262.592,-242.213 C262.447,-242.438 262.249,-242.661 261.999,-242.885 C261.748,-243.11 261.462,-243.307 261.139,-243.478 C260.815,-243.65 260.47,-243.789 260.1,-243.894 C259.73,-244 259.361,-244.052 258.992,-244.052 C258.095,-244.052 257.292,-243.888 256.579,-243.559 C255.867,-243.229 255.264,-242.787 254.77,-242.233 C254.275,-241.679 253.896,-241.037 253.633,-240.306 C253.369,-239.573 253.236,-238.805 253.236,-238.001 C253.236,-237.196 253.369,-236.428 253.633,-235.696 C253.896,-234.965 254.275,-234.322 254.77,-233.768 C255.264,-233.214 255.867,-232.773 256.579,-232.443 C257.292,-232.113 258.095,-231.948 258.992,-231.948 C259.361,-231.948 259.728,-231.982 260.09,-232.048 C260.453,-232.113 260.809,-232.225 261.158,-232.383 C261.508,-232.541 261.837,-232.756 262.147,-233.026 C262.456,-233.296 262.744,-233.635 263.007,-234.044 L264.174,-233.214 Z" style="stroke:none;fill-rule:evenodd;fill:#000000;fill-opacity:1;"/>
        </g>
        <g id="Shape12">
            <desc shapeID="12" type="0" basicInfo-basicType="0" basicInfo-roundedRectRadius="12" basicInfo-polygonSides="6" basicInfo-starPoints="5" bounding="rect(-123.073,-426.154,246.144,852.311)" text="" font-familyName="" font-pixelSize="20" font-bold="0" font-underline="0" font-alignment="1" strokeStyle="0" markerStart="0" markerEnd="0" shadowEnabled="0" shadowOffsetX="0" shadowOffsetY="2" shadowBlur="4" shadowOpacity="160" blurEnabled="0" blurRadius="4" transform="matrix(0.142011,0,0,0.142011,187.706,-317.883)" pers-center="0,0" pers-size="0,0" pers-start="0,0" pers-end="0,0" locked="0" mesh="" flag=""/>
            <path id="shapePath12" d="M192.75,-378.11 C192.168,-377.712 190.975,-376.264 190.677,-375.582 C190.563,-375.313 190.18,-374.503 189.824,-373.779 C189.157,-372.387 189.115,-372.174 189.341,-371.507 C189.469,-371.137 189.427,-370.938 188.916,-369.93 C188.248,-368.61 187.95,-368.425 187.127,-368.823 C186.771,-368.979 186.558,-369.249 186.303,-369.788 C185.919,-370.669 185.593,-370.995 184.84,-371.251 C183.96,-371.549 183.804,-371.379 183.804,-370.058 C183.804,-369.163 183.874,-368.823 184.13,-368.326 C184.528,-367.587 184.698,-366.692 184.514,-366.337 C184.386,-366.11 184.343,-366.11 183.775,-366.323 C183.108,-366.565 182.071,-367.275 181.56,-367.829 C181.375,-368.027 180.906,-368.283 180.495,-368.425 C180.083,-368.553 179.501,-368.808 179.188,-368.979 C178.876,-369.163 178.137,-369.405 177.555,-369.533 C176.973,-369.66 175.922,-370.015 175.212,-370.314 C174.516,-370.626 173.678,-370.91 173.351,-370.967 C172.812,-371.052 172.741,-371.024 172.386,-370.612 C171.804,-369.916 171.747,-369.973 173.934,-368.823 C174.8,-368.382 175.695,-367.871 175.922,-367.686 C176.163,-367.516 176.547,-367.331 176.788,-367.289 C177.271,-367.175 178.677,-366.167 179.131,-365.585 C179.288,-365.4 179.742,-365.13 180.154,-365.002 C180.551,-364.86 181.048,-364.605 181.247,-364.42 C181.446,-364.25 181.886,-363.966 182.241,-363.81 C183.548,-363.213 184.854,-362.29 185.181,-361.722 C185.366,-361.424 185.508,-361.097 185.508,-361.012 C185.508,-360.813 185.011,-360.586 183.917,-360.316 C183.42,-360.188 182.838,-359.961 182.596,-359.819 C182.014,-359.464 181.162,-359.279 179.458,-359.123 C178.663,-359.052 177.825,-358.896 177.583,-358.768 C177.342,-358.64 176.675,-358.442 176.107,-358.328 C175.538,-358.2 174.686,-357.916 174.218,-357.703 C173.749,-357.476 173.011,-357.192 172.57,-357.064 C171.789,-356.851 170.554,-355.999 170.27,-355.488 C170.085,-355.133 170.525,-354.749 171.278,-354.579 C171.96,-354.437 173.309,-354.692 174.516,-355.204 C174.814,-355.332 175.709,-355.559 176.49,-355.715 C177.271,-355.885 178.407,-356.155 179.018,-356.354 C180.14,-356.695 180.892,-356.78 181.205,-356.581 C181.29,-356.524 181.403,-356.24 181.46,-355.956 C181.545,-355.488 181.489,-355.303 180.949,-354.423 C180.608,-353.869 180.111,-353.116 179.856,-352.775 C179.6,-352.42 179.273,-351.753 179.131,-351.298 C178.989,-350.844 178.734,-350.29 178.563,-350.077 C178.293,-349.736 178.279,-349.651 178.45,-349.396 C178.577,-349.197 178.833,-349.083 179.174,-349.055 C179.628,-349.012 179.799,-349.097 180.31,-349.566 C180.637,-349.864 181.006,-350.177 181.119,-350.248 C181.347,-350.39 182.156,-351.426 183.392,-353.173 C184.13,-354.21 184.457,-354.522 185.905,-355.573 L186.53,-356.013 L187.155,-355.772 C187.496,-355.644 187.822,-355.474 187.865,-355.388 C187.921,-355.317 187.979,-354.664 188.007,-353.94 C188.021,-353.23 188.107,-352.491 188.177,-352.293 C188.248,-352.065 188.248,-351.54 188.163,-350.901 C188.049,-350.12 188.049,-349.722 188.191,-349.268 C188.277,-348.941 188.348,-348.614 188.348,-348.529 C188.191,-347.265 188.164,-342.678 188.348,-340.719 C188.675,-337.069 188.618,-335.89 188.774,-335.493 C189.129,-334.584 189.214,-331.843 189.199,-322.641 C189.185,-317.358 189.171,-312.615 189.171,-312.103 C189.157,-311.592 189.171,-309.363 189.199,-307.133 C189.229,-302.986 189.043,-298.57 188.76,-296.553 C188.362,-293.827 188.319,-287.294 188.702,-285.761 C189.043,-284.369 189.171,-283.034 189.043,-282.281 C188.916,-281.528 188.618,-275.309 188.674,-274.684 C188.76,-273.832 188.646,-270.693 188.504,-269.997 C188.433,-269.613 188.334,-266.802 188.291,-263.763 C188.248,-260.724 188.177,-258.196 188.149,-258.153 C188.007,-257.912 188.618,-257.458 189.171,-257.386 C189.654,-257.33 189.81,-257.372 190.066,-257.642 C190.321,-257.912 190.365,-258.097 190.321,-258.594 C190.279,-258.935 190.336,-259.36 190.435,-259.574 C190.677,-260.042 190.705,-261.065 190.549,-263.18 C190.478,-264.118 190.449,-266.418 190.492,-268.293 C190.535,-270.168 190.521,-271.943 190.478,-272.227 C190.435,-272.51 190.478,-273.193 190.577,-273.746 C190.677,-274.286 190.79,-275.734 190.833,-276.984 C190.876,-278.22 190.975,-279.455 191.06,-279.725 C191.302,-280.492 191.245,-284.326 190.99,-285.334 C190.862,-285.803 190.734,-286.825 190.705,-287.606 C190.677,-288.387 190.577,-289.609 190.492,-290.305 C190.279,-291.853 190.379,-293.855 190.762,-295.985 C190.932,-296.852 191.117,-298.186 191.202,-298.967 C191.487,-301.58 191.628,-308.198 191.501,-311.89 C191.429,-313.85 191.373,-315.767 191.373,-316.151 C191.359,-316.548 191.273,-317.258 191.188,-317.755 C191.06,-318.437 191.06,-318.849 191.188,-319.46 C191.387,-320.425 191.429,-322.357 191.359,-327.512 C191.302,-332.099 191.16,-333.845 190.79,-334.456 C190.62,-334.74 190.492,-335.308 190.435,-336.032 C190.393,-336.657 190.293,-337.68 190.208,-338.304 C190.137,-338.929 190.209,-341.059 190.123,-343.048 C190.024,-345.575 189.995,-346.74 189.868,-346.953 C189.768,-347.123 189.828,-347.644 189.824,-347.998 C189.813,-349.17 189.992,-350.195 189.824,-351.412 C189.875,-351.737 189.92,-352.064 189.952,-352.392 C189.996,-352.85 189.952,-353.315 190.052,-353.769 C190.407,-355.459 190.62,-355.616 191.955,-355.076 C192.466,-354.877 192.949,-354.707 193.048,-354.707 C193.332,-354.707 196.13,-353.301 197.01,-352.719 C198.885,-351.469 198.927,-351.44 199.68,-351.412 C200.276,-351.384 200.476,-351.44 200.717,-351.682 L201.015,-351.98 L200.646,-352.619 C200.32,-353.173 198.118,-355.246 196.84,-356.212 L196.428,-356.524 L196.798,-356.95 C197.365,-357.632 198.359,-357.803 200.106,-357.504 C203.443,-356.965 204.608,-356.936 205.034,-357.405 C205.247,-357.646 205.247,-357.675 204.934,-357.902 C204.75,-358.03 204.267,-358.385 203.841,-358.697 C203.429,-358.995 203.017,-359.251 202.946,-359.251 C202.861,-359.251 202.35,-359.478 201.796,-359.762 C200.532,-360.401 197.152,-361.168 196.13,-361.026 L195.448,-360.941 L195.448,-361.509 C195.448,-362.148 195.69,-362.347 196.868,-362.659 C197.223,-362.744 197.948,-363.043 198.487,-363.313 C199.041,-363.582 199.552,-363.795 199.651,-363.795 C199.737,-363.795 200.134,-364.008 200.504,-364.264 C200.887,-364.52 201.526,-364.875 201.938,-365.031 C202.832,-365.4 204.082,-366.195 204.182,-366.479 C204.225,-366.593 204.125,-366.82 203.969,-366.976 C203.5,-367.459 201.711,-367.374 200.064,-366.806 C199.368,-366.565 198.501,-366.295 198.146,-366.21 C197.791,-366.124 197.096,-365.798 196.584,-365.5 C196.073,-365.201 195.477,-364.875 195.249,-364.789 C194.738,-364.605 193.247,-363.71 192.679,-363.256 C192.352,-362.986 192.154,-362.929 191.713,-362.986 C191.401,-363.029 191.088,-363.128 191.004,-363.213 C190.748,-363.469 190.705,-365.457 190.946,-366.252 C191.529,-368.198 191.813,-369.476 191.841,-370.271 C191.855,-370.853 191.997,-371.492 192.31,-372.288 C192.551,-372.927 192.75,-373.651 192.75,-373.907 C192.75,-374.162 192.977,-374.83 193.247,-375.398 C193.701,-376.335 194.013,-377.329 194.028,-377.869 C194.028,-377.997 193.872,-378.167 193.673,-378.252 C193.218,-378.465 193.304,-378.479 192.75,-378.11 Z" style="stroke:none;fill-rule:evenodd;fill:#000000;fill-opacity:1;"/>
        </g>
    </g>
</svg>
