<?xml version="1.0"?>
<svg version="1.1" xmlns="http://www.w3.org/2000/svg" xmlns:xlink="http://www.w3.org/1999/xlink" width="300" height="120">
    <desc iVinci="yes" version="4.6" gridStep="20" showGrid="no" snapToGrid="no" codePlatform="0"/>
    <g id="Layer1" name="Layer 2" opacity="1">
        <g id="Shape1">
            <desc shapeID="1" type="0" basicInfo-basicType="0" basicInfo-roundedRectRadius="12" basicInfo-polygonSides="6" basicInfo-starPoints="5" bounding="rect(-794.248,-40.5003,1588.5,81.0003)" text="OPENPIPELINE.IO" font-familyName="AppleGothic" font-pixelSize="100" font-bold="0" font-underline="0" font-alignment="1" strokeStyle="0" markerStart="0" markerEnd="0" shadowEnabled="0" shadowOffsetX="0" shadowOffsetY="2" shadowBlur="4" shadowOpacity="160" blurEnabled="0" blurRadius="4" transform="matrix(0.157913,0,0,0.157913,151.422,101.42)" pers-center="0,0" pers-size="0,0" pers-start="0,0" pers-end="0,0" locked="0" mesh="" flag=""/>
            <path id="shapePath1" d="M31.5272,107.816 C30.0953,107.816 28.8426,107.258 27.7687,106.142 C26.5896,104.931 26,103.368 26,101.451 C26,99.62 26.5527,98.072 27.6583,96.81 C28.7319,95.619 30.0058,95.025 31.4799,95.025 C32.9747,95.025 34.2592,95.609 35.333,96.778 C36.4384,98.009 36.9912,99.562 36.9912,101.436 C36.9912,103.384 36.3911,104.962 35.1908,106.173 C34.1276,107.269 32.9063,107.816 31.5272,107.816 M31.4324,106.647 C32.601,106.647 33.5959,106.158 34.4171,105.178 C35.2489,104.179 35.6647,102.931 35.6647,101.436 C35.6647,100.709 35.5645,100.036 35.3646,99.415 C35.1645,98.794 34.8644,98.23 34.4645,97.726 C33.6642,96.705 32.6748,96.194 31.4956,96.194 C30.3271,96.194 29.3374,96.705 28.5267,97.726 C27.7266,98.725 27.3266,99.973 27.3266,101.468 C27.3266,103.026 27.7477,104.294 28.5899,105.273 C29.3795,106.189 30.3271,106.647 31.4324,106.647 M47.2139,95.23 L51.1778,95.23 C52.3146,95.23 53.2463,95.425 53.9726,95.815 C54.9517,96.362 55.4412,97.236 55.4412,98.436 C55.4412,99.594 55.036,100.489 54.2252,101.12 C53.4885,101.71 52.5409,102.005 51.383,102.005 L48.4616,102.005 L48.4616,107.61 L47.2139,107.61 L47.2139,95.23 M51.1617,96.319 L48.4616,96.319 L48.4616,100.915 L51.2567,100.915 C51.9935,100.915 52.6304,100.72 53.1673,100.331 C53.7673,99.889 54.0675,99.294 54.0675,98.547 C54.0675,97.704 53.7148,97.099 53.0094,96.73 C52.4935,96.457 51.8777,96.319 51.1617,96.319 M65.7642,95.215 L73.4704,95.215 L73.4704,96.304 L67.0117,96.304 L67.0117,100.584 L73.2335,100.584 L73.2335,101.673 L67.0117,101.673 L67.0117,106.521 L73.5178,106.521 L73.5178,107.61 L65.7642,107.61 L65.7642,95.215 M83.9815,107.61 L83.9815,95.23 L85.1191,95.23 L92.7299,105.716 L92.7299,95.23 L93.8674,95.23 L93.8674,107.61 L92.7299,107.61 L85.1191,97.142 L85.1191,107.61 L83.9815,107.61 M104.284,95.23 L108.248,95.23 C109.384,95.23 110.316,95.425 111.043,95.815 C112.021,96.362 112.512,97.236 112.512,98.436 C112.512,99.594 112.106,100.489 111.295,101.12 C110.559,101.71 109.611,102.005 108.453,102.005 L105.532,102.005 L105.532,107.61 L104.284,107.61 L104.284,95.23 M108.232,96.319 L105.532,96.319 L105.532,100.915 L108.327,100.915 C109.064,100.915 109.701,100.72 110.238,100.331 C110.838,99.889 111.138,99.294 111.138,98.547 C111.138,97.704 110.785,97.099 110.08,96.73 C109.564,96.457 108.948,96.319 108.232,96.319 M123.213,95.23 L124.445,95.23 L124.445,107.61 L123.213,107.61 L123.213,95.23 M135.163,95.23 L139.127,95.23 C140.263,95.23 141.195,95.425 141.922,95.815 C142.901,96.362 143.39,97.236 143.39,98.436 C143.39,99.594 142.986,100.489 142.174,101.12 C141.437,101.71 140.49,102.005 139.331,102.005 L136.411,102.005 L136.411,107.61 L135.163,107.61 L135.163,95.23 M139.111,96.319 L136.411,96.319 L136.411,100.915 L139.206,100.915 C139.942,100.915 140.58,100.72 141.116,100.331 C141.716,99.889 142.017,99.294 142.017,98.547 C142.017,97.704 141.663,97.099 140.959,96.73 C140.442,96.457 139.826,96.319 139.111,96.319 M153.712,95.215 L161.419,95.215 L161.419,96.304 L154.961,96.304 L154.961,100.584 L161.182,100.584 L161.182,101.673 L154.961,101.673 L154.961,106.521 L161.466,106.521 L161.466,107.61 L153.712,107.61 L153.712,95.215 M171.962,95.23 L173.21,95.23 L173.21,106.521 L179.321,106.521 L179.321,107.61 L171.962,107.61 L171.962,95.23 M189.911,95.23 L191.144,95.23 L191.144,107.61 L189.911,107.61 L189.911,95.23 M202.003,107.61 L202.003,95.23 L203.141,95.23 L210.75,105.716 L210.75,95.23 L211.888,95.23 L211.888,107.61 L210.75,107.61 L203.141,97.142 L203.141,107.61 L202.003,107.61 M222.353,95.215 L230.059,95.215 L230.059,96.304 L223.599,96.304 L223.599,100.584 L229.821,100.584 L229.821,101.673 L223.599,101.673 L223.599,106.521 L230.106,106.521 L230.106,107.61 L222.353,107.61 L222.353,95.215 M242.038,107.658 C241.786,107.658 241.569,107.553 241.391,107.342 C241.213,107.131 241.123,106.874 241.123,106.568 C241.123,106.252 241.215,105.987 241.4,105.771 C241.584,105.555 241.797,105.447 242.038,105.447 C242.27,105.447 242.478,105.545 242.662,105.739 C242.847,105.935 242.938,106.199 242.938,106.537 C242.938,106.853 242.849,107.118 242.67,107.334 C242.491,107.55 242.28,107.658 242.038,107.658 M253.919,95.23 L255.151,95.23 L255.151,107.61 L253.919,107.61 L253.919,95.23 M271.381,107.816 C269.949,107.816 268.696,107.258 267.623,106.142 C266.444,104.931 265.853,103.368 265.853,101.451 C265.853,99.62 266.407,98.072 267.512,96.81 C268.586,95.619 269.86,95.025 271.333,95.025 C272.829,95.025 274.113,95.609 275.186,96.778 C276.293,98.009 276.845,99.562 276.845,101.436 C276.845,103.384 276.233,104.95 275.045,106.173 C273.982,107.269 272.76,107.816 271.381,107.816 M271.287,106.647 C272.455,106.647 273.45,106.158 274.271,105.178 C275.101,104.179 275.518,102.931 275.518,101.436 C275.518,100.709 275.419,100.036 275.219,99.415 C275.019,98.794 274.718,98.23 274.319,97.726 C273.517,96.705 272.528,96.194 271.349,96.194 C270.181,96.194 269.191,96.705 268.38,97.726 C267.58,98.725 267.181,99.973 267.181,101.468 C267.181,103.026 267.602,104.294 268.444,105.273 C269.234,106.189 270.181,106.647 271.287,106.647 Z" style="stroke:none;fill-rule:evenodd;fill:#000000;fill-opacity:1;"/>
        </g>
    </g>
    <g id="Layer2" name="Layer 1" opacity="1">
        <g id="Shape2">
            <desc shapeID="2" type="0" basicInfo-basicType="0" basicInfo-roundedRectRadius="12" basicInfo-polygonSides="6" basicInfo-starPoints="5" bounding="rect(-31.2298,-300.919,62.4593,601.834)" text="" font-familyName="Helvetica" font-pixelSize="20" font-bold="0" font-underline="0" font-alignment="1" strokeStyle="0" markerStart="0" markerEnd="0" shadowEnabled="0" shadowOffsetX="0" shadowOffsetY="2" shadowBlur="4" shadowOpacity="160" blurEnabled="0" blurRadius="4" transform="matrix(0.0672214,0,0,0.0672214,119.157,57.269)" pers-center="0,0" pers-size="0,0" pers-start="0,0" pers-end="0,0" locked="0" mesh="" flag=""/>
            <path id="shapePath2" d="M117.414,38.7566 C117.127,40.7448 117.016,42.7654 117.072,44.7735 C117.183,48.7295 117.707,52.6641 117.916,56.6161 C118.08,59.7126 118.121,62.8145 118.188,65.9146 C118.279,69.9535 118.035,67.521 117.973,71.5601 C117.933,74.2014 117.456,75.5226 117.656,77.081 C117.736,77.7107 118.847,77.4383 119.482,77.4383 C120.182,77.4383 121.016,77.3144 121.199,76.6381 C121.492,75.5525 120.571,77.0207 120.608,72.6368 C120.646,68.2594 120.425,70.6123 120.265,66.2376 C120.151,63.147 120.007,60.0552 119.73,56.9751 C119.385,53.1687 118.581,49.4044 118.394,45.5869 C118.272,43.0876 118.865,40.5931 118.805,38.0916 C118.796,37.6926 118.549,36.8925 118.188,37.0648 C117.63,37.3325 117.505,38.1428 117.414,38.7566 Z" style="stroke:none;fill-rule:evenodd;fill:#515151;fill-opacity:1;"/>
        </g>
        <g id="Shape3">
            <desc shapeID="3" type="0" basicInfo-basicType="0" basicInfo-roundedRectRadius="12" basicInfo-polygonSides="6" basicInfo-starPoints="5" bounding="rect(-179.756,-168.68,359.514,337.358)" text="" font-familyName="Avenir" font-pixelSize="300" font-bold="0" font-underline="0" font-alignment="1" strokeStyle="0" markerStart="0" markerEnd="0" shadowEnabled="0" shadowOffsetX="0" shadowOffsetY="2" shadowBlur="4" shadowOpacity="160" blurEnabled="0" blurRadius="4" transform="matrix(0.0672214,0,0,0.0672214,118.387,35.0416)" pers-center="0,0" pers-size="0,0" pers-start="0,0" pers-end="0,0" locked="0" mesh="" flag=""/>
            <path id="shapePath3" d="M111.171,45.9432 C111.802,45.5461 112.332,44.9928 112.805,44.4173 C113.356,43.7484 113.674,42.909 114.221,42.2376 C114.806,41.521 115.4,40.768 116.183,40.2759 C116.72,39.9382 117.412,39.727 118.036,39.84 C118.906,39.9973 119.719,40.477 120.401,41.0389 C121.1,41.6148 121.355,42.6332 122.082,43.1735 C122.918,43.7944 123.909,44.3423 124.948,44.4173 C125.379,44.4485 125.763,43.8728 125.804,43.4423 C125.869,42.7622 125.749,41.9189 125.23,41.4748 C124.056,40.4706 122.073,40.5908 121.084,39.4042 C120.548,38.7606 122.759,39.5643 123.595,39.5131 C124.549,39.4547 125.473,39.0769 126.429,39.0769 C126.992,39.0769 127.505,39.4333 128.063,39.5131 C128.783,39.616 129.544,39.8218 130.243,39.6219 C130.49,39.5513 130.551,39.0216 130.352,38.859 C129.635,38.2726 128.711,37.9873 127.845,37.6603 C126.78,37.2586 125.707,36.7972 124.576,36.6793 C123.909,36.6099 123.282,37.0693 122.614,37.1154 C122.209,37.1433 121.575,37.2706 121.415,36.8974 C121.28,36.5824 121.986,36.5159 122.287,36.3524 C123.258,35.8252 124.22,35.2754 125.23,34.8267 C126.186,34.4018 127.194,34.1064 128.173,33.7367 C128.829,33.4887 129.562,33.3785 130.135,32.9737 C130.286,32.8668 130.204,32.4769 130.025,32.4288 C129.145,32.192 128.196,32.0495 127.299,32.211 C126.323,32.3867 125.478,32.9978 124.576,33.4098 C123.807,33.7607 123.049,34.1356 122.287,34.4996 C121.451,34.8985 120.704,35.6247 119.781,35.6986 C119.447,35.7253 119.495,35.0458 119.562,34.7176 C119.829,33.4119 120.475,32.205 120.761,30.9033 C120.914,30.205 120.644,29.4395 120.871,28.7614 C121.347,27.3325 122.266,26.0865 122.832,24.6909 C122.928,24.4552 123.031,24.0868 122.832,23.9279 C122.548,23.6999 122.044,23.6131 121.743,23.8191 C121.244,24.1607 121.108,24.8492 120.761,25.345 C120.065,26.3392 119.082,27.1661 118.618,28.2875 C118.194,29.3146 118.452,30.5147 118.18,31.5923 C118.07,32.0291 117.867,33.0077 117.493,32.756 C116.804,32.292 116.882,31.2097 116.51,30.4671 C116.335,30.1158 116.157,29.74 115.857,29.4863 C115.655,29.3154 115.347,29.1907 115.094,29.2685 C114.8,29.3591 114.44,29.6139 114.44,29.9222 C114.44,30.5772 114.841,31.1711 115.094,31.7751 C115.314,32.2995 115.824,32.7332 115.857,33.3009 C115.871,33.5443 115.424,33.7295 115.203,33.6278 C114.679,33.3874 114.413,32.782 113.958,32.4288 C113.533,32.0993 113.078,31.7943 112.58,31.5923 C111.991,31.3536 111.338,31.3166 110.734,31.1212 C110.176,30.9407 109.685,30.4184 109.1,30.4671 C108.664,30.5035 107.943,30.9378 108.118,31.3391 C108.378,31.9348 109.304,31.8784 109.862,32.211 C110.716,32.7197 111.476,33.3824 112.348,33.8584 C113.081,34.2581 114.221,34.1152 114.657,34.8267 C114.918,35.2522 113.665,35.0505 113.241,35.3142 C112.983,35.4746 112.618,35.7524 112.698,36.0455 C112.811,36.4615 113.868,36.5137 113.671,36.8974 C113.374,37.4775 112.487,37.4506 111.87,37.6603 C111.012,37.9518 110.1,38.0752 109.253,38.3979 C108.566,38.6594 107.89,38.9778 107.291,39.4042 C106.893,39.6878 106.395,40.0126 106.31,40.4941 C106.251,40.8239 106.629,41.2568 106.964,41.2568 C107.768,41.2568 108.479,40.7116 109.253,40.4941 C109.774,40.3476 110.307,40.2347 110.844,40.1668 C111.748,40.0526 112.769,39.5124 113.568,39.9488 C114.025,40.1979 113.489,41.0173 113.241,41.4748 C112.997,41.9264 112.509,42.1956 112.152,42.5646 C111.419,43.3219 110.525,43.9568 109.971,44.8534 C109.722,45.2563 109.512,45.9517 109.862,46.2701 C110.195,46.5724 110.79,46.1827 111.171,45.9432 Z" style="stroke:none;fill-rule:evenodd;fill:#515151;fill-opacity:1;"/>
        </g>
        <g id="Shape4">
            <desc shapeID="4" type="0" basicInfo-basicType="0" basicInfo-roundedRectRadius="12" basicInfo-polygonSides="6" basicInfo-starPoints="5" bounding="rect(-31.4952,-397.074,62.9902,794.148)" text="" font-familyName="Helvetica" font-pixelSize="20" font-bold="0" font-underline="0" font-alignment="1" strokeStyle="0" markerStart="0" markerEnd="0" shadowEnabled="0" shadowOffsetX="0" shadowOffsetY="2" shadowBlur="4" shadowOpacity="160" blurEnabled="0" blurRadius="4" transform="matrix(0.0511111,0,0,0.0511111,95.226,66.2499)" pers-center="0,0" pers-size="0,0" pers-start="0,0" pers-end="0,0" locked="0" mesh="" flag=""/>
            <path id="shapePath4" d="M93.8821,47.2597 C93.6629,48.7714 93.596,50.3073 93.6213,51.8346 C93.6657,54.5247 93.9698,57.2046 94.0895,59.8924 C94.1952,62.2477 94.5526,64.8516 94.6263,67.2081 C94.7319,70.5949 94.6392,73.7342 94.6263,77.1227 C94.619,79.1302 94.7396,81.1289 94.6263,83.1339 C94.5572,84.3564 94.4093,85.68 94.6263,86.3029 C94.7774,86.7368 95.0885,86.4545 95.548,86.4545 C95.9621,86.4545 96.6831,86.0051 96.7377,85.5945 C97.044,83.29 96.5345,81.4712 96.5345,78.1377 C96.5345,74.4922 95.9533,70.8528 95.8758,67.2081 C95.823,64.7625 95.2828,62.3327 95.1153,59.8924 C94.9444,57.403 94.6482,54.9418 94.4706,52.453 C94.3352,50.5579 94.5847,48.6505 94.4706,46.754 C94.4526,46.4511 94.7443,45.8422 94.4706,45.9732 C94.0451,46.1767 93.949,46.7929 93.8821,47.2597 Z" style="stroke:none;fill-rule:evenodd;fill:#616161;fill-opacity:1;"/>
        </g>
        <g id="Shape5">
            <desc shapeID="5" type="0" basicInfo-basicType="0" basicInfo-roundedRectRadius="12" basicInfo-polygonSides="6" basicInfo-starPoints="5" bounding="rect(-188.184,-133.999,376.37,268)" text="" font-familyName="Avenir" font-pixelSize="300" font-bold="0" font-underline="0" font-alignment="1" strokeStyle="0" markerStart="0" markerEnd="0" shadowEnabled="0" shadowOffsetX="0" shadowOffsetY="2" shadowBlur="4" shadowOpacity="160" blurEnabled="0" blurRadius="4" transform="matrix(0.0511111,0,0,0.0511111,94.1902,46.2075)" pers-center="0,0" pers-size="0,0" pers-start="0,0" pers-end="0,0" locked="0" mesh="" flag=""/>
            <path id="shapePath5" d="M89.1342,52.7239 C89.6138,52.4219 90.0167,52.0012 90.377,51.5638 C90.7959,51.0551 91.0379,50.4171 91.4545,49.9065 C91.899,49.3617 92.3509,48.7891 92.9462,48.4149 C93.3546,48.1582 93.8773,48.0152 94.3548,48.0834 C95.2801,48.2156 96.1511,48.6185 97.0067,48.9949 C97.54,49.2296 97.9746,49.6508 98.4982,49.9065 C99.1664,50.2329 99.8277,50.6839 100.57,50.7351 C100.816,50.7521 100.986,50.304 100.901,50.0722 C100.752,49.669 100.314,49.442 99.9896,49.1606 C99.4843,48.7227 98.8611,48.416 98.4153,47.9177 C98.3329,47.8256 98.4594,47.6079 98.581,47.5862 C99.2884,47.4598 100.019,47.4508 100.735,47.5033 C101.163,47.5346 101.554,47.7743 101.978,47.8349 C102.526,47.9131 103.104,48.0697 103.636,47.9177 C103.824,47.864 103.869,47.4613 103.718,47.3377 C103.173,46.8919 102.472,46.6747 101.813,46.4261 C101.004,46.1206 100.187,45.7698 99.3267,45.6802 C98.8201,45.6274 98.3433,45.9766 97.8352,46.0117 C97.527,46.033 97.0453,46.1299 96.9234,45.8461 C96.8206,45.6067 97.3572,45.556 97.5861,45.4317 C98.3245,45.0309 99.056,44.6128 99.8238,44.2716 C100.551,43.9485 101.318,43.724 102.062,43.4429 C102.56,43.2544 103.117,43.1704 103.552,42.8628 C103.667,42.7815 103.605,42.4851 103.469,42.4484 C102.801,42.2684 102.08,42.1601 101.398,42.2828 C100.656,42.4165 100.013,42.8811 99.3267,43.1944 C98.7422,43.4612 98.166,43.7461 97.5861,44.0229 C96.9507,44.3262 96.3683,44.7828 95.6808,44.9345 C95.4875,44.9771 95.8088,44.5551 95.919,44.3907 C96.2739,43.8611 96.7384,43.4078 97.0691,42.8628 C97.3805,42.3495 97.3553,41.5935 97.8352,41.2327 C98.5626,40.6859 99.6259,40.7955 100.417,40.346 C100.585,40.2505 100.568,39.8867 100.417,39.766 C100.2,39.5925 99.8622,39.7262 99.5878,39.6831 C99.0603,39.6002 98.5309,39.257 98.0133,39.3882 C97.1085,39.6176 96.3144,40.1819 95.5436,40.7083 C95.1185,40.9986 94.7868,41.4115 94.4638,41.8122 C94.2488,42.079 94.2247,42.8887 93.9406,42.6972 C93.4172,42.3444 93.477,41.5214 93.1947,40.9569 C93.0611,40.6896 92.9254,40.4041 92.6973,40.2111 C92.5437,40.0812 92.3094,39.9863 92.1172,40.0455 C91.8933,40.1144 91.6203,40.3084 91.6203,40.5427 C91.6203,41.0406 91.9247,41.4921 92.1172,41.9512 C92.2844,42.35 92.6719,42.6799 92.6973,43.1115 C92.7081,43.2965 92.3656,43.4429 92.1998,43.36 C91.6746,43.0974 91.3674,42.5183 90.8739,42.1999 C90.499,41.9581 90.0559,41.8393 89.6311,41.7027 C89.2802,41.5899 88.9153,41.5251 88.5536,41.454 C87.976,41.3405 87.3997,41.2092 86.8141,41.1494 C86.402,41.1073 85.9643,41.0184 85.5713,41.1494 C85.2556,41.2546 84.5913,41.5752 84.8248,41.8122 C85.2512,42.2452 86.0273,42.0148 86.6061,42.1999 C87.3854,42.4493 88.1255,42.8077 88.8853,43.1115 C89.8522,43.4982 90.8466,43.8223 91.7861,44.2716 C92.1249,44.4336 92.5894,44.5747 92.6973,44.9345 C92.8004,45.2785 92.5506,45.6895 92.283,45.9289 C91.977,46.2027 91.5159,46.2242 91.1229,46.3433 C90.6034,46.5007 90.0752,46.6285 89.548,46.7576 C88.7215,46.96 87.8865,47.1275 87.0619,47.3377 C86.4775,47.4867 85.8544,47.5511 85.3223,47.8349 C84.9944,48.0098 84.641,48.2975 84.5764,48.6634 C84.5322,48.9143 84.8192,49.2434 85.0739,49.2434 C85.6853,49.2434 86.2194,48.8056 86.8141,48.6634 C87.4941,48.5008 88.1911,48.4153 88.8853,48.332 C89.5732,48.2495 90.3488,47.8345 90.9571,48.1662 C91.3043,48.3556 90.8971,48.9787 90.7087,49.3265 C90.5225,49.67 90.1513,49.8743 89.8796,50.1551 C89.3224,50.7307 88.6429,51.2137 88.2221,51.8954 C88.0329,52.2018 87.8734,52.7305 88.14,52.9726 C88.3929,53.2023 88.8452,52.906 89.1342,52.7239 Z" style="stroke:none;fill-rule:evenodd;fill:#616161;fill-opacity:1;"/>
        </g>
        <g id="Shape6">
            <desc shapeID="6" type="0" basicInfo-basicType="0" basicInfo-roundedRectRadius="12" basicInfo-polygonSides="6" basicInfo-starPoints="5" bounding="rect(-24.7923,-342.592,49.5846,685.195)" text="" font-familyName="Helvetica" font-pixelSize="20" font-bold="0" font-underline="0" font-alignment="1" strokeStyle="0" markerStart="0" markerEnd="0" shadowEnabled="0" shadowOffsetX="0" shadowOffsetY="2" shadowBlur="4" shadowOpacity="160" blurEnabled="0" blurRadius="4" transform="matrix(0.0684559,0,0,0.0684556,188.976,55.7058)" pers-center="0,0" pers-size="0,0" pers-start="0,0" pers-end="0,0" locked="0" mesh="" flag=""/>
            <path id="shapePath6" d="M188.06,34.001 C187.768,36.0255 187.678,38.0827 187.712,40.1281 C187.772,43.7311 188.178,47.3205 188.339,50.9202 C188.48,54.075 188.668,57.2322 188.617,60.3896 C188.545,64.9303 188.301,69.4687 187.972,73.9979 C187.877,75.3089 187.035,76.6146 187.348,77.8914 C187.522,78.6029 188.505,78.8583 189.21,79.0579 C189.663,79.1862 190.484,79.269 190.602,78.8129 C190.893,77.6891 190.196,76.518 190.168,75.3575 C190.051,70.5161 190.056,65.7109 190.168,60.8291 C190.244,57.5537 189.888,54.5631 189.664,51.2945 C189.434,47.9604 189.086,44.29 188.849,40.9565 C188.669,38.4184 189.629,35.8635 189.477,33.3236 C189.452,32.9178 189.216,32.1025 188.849,32.2778 C188.28,32.5505 188.151,33.3757 188.06,34.001 Z" style="stroke:none;fill-rule:evenodd;fill:#3d3d3d;fill-opacity:1;"/>
        </g>
        <g id="Shape7">
            <desc shapeID="7" type="0" basicInfo-basicType="0" basicInfo-roundedRectRadius="12" basicInfo-polygonSides="6" basicInfo-starPoints="5" bounding="rect(-188.194,-154.944,376.388,309.887)" text="" font-familyName="Avenir" font-pixelSize="300" font-bold="0" font-underline="0" font-alignment="1" strokeStyle="0" markerStart="0" markerEnd="0" shadowEnabled="0" shadowOffsetX="0" shadowOffsetY="2" shadowBlur="4" shadowOpacity="160" blurEnabled="0" blurRadius="4" transform="matrix(0.0672286,0.0129037,-0.0129037,0.0672286,188.296,31.1517)" pers-center="0,0" pers-size="0,0" pers-start="0,0" pers-end="0,0" locked="0" mesh="" flag=""/>
            <path id="shapePath7" d="M179.73,39.8547 C180.437,39.5787 181.072,39.1267 181.656,38.6425 C182.336,38.079 182.816,37.3009 183.493,36.7344 C184.216,36.1301 184.955,35.4911 185.832,35.1491 C186.434,34.9147 187.157,34.8585 187.768,35.0687 C188.951,35.4763 189.996,36.226 191.026,36.9372 C191.668,37.3805 192.134,38.0443 192.758,38.5128 C193.554,39.1109 194.31,39.8712 195.274,40.1258 C195.593,40.2104 195.93,39.6638 195.876,39.3373 C195.783,38.7695 195.264,38.3604 194.908,37.9083 C194.354,37.2048 193.612,36.644 193.151,35.876 C193.066,35.734 193.288,35.4796 193.453,35.4817 C194.416,35.4941 195.378,35.6666 196.307,35.9166 C196.862,36.0657 197.315,36.4797 197.858,36.6665 C198.559,36.9078 199.28,37.2596 200.018,37.1939 C200.279,37.1708 200.441,36.6525 200.273,36.4517 C199.669,35.7276 198.8,35.2651 197.996,34.7717 C197.009,34.1657 196.024,33.4983 194.915,33.1631 C194.262,32.9658 193.547,33.3048 192.87,33.2226 C192.459,33.1728 191.8,33.1787 191.712,32.7744 C191.638,32.4332 192.357,32.5025 192.689,32.3967 C193.761,32.056 194.828,31.6906 195.923,31.4357 C196.961,31.1943 198.026,31.0925 199.076,30.9106 C199.78,30.7886 200.533,30.8187 201.183,30.5242 C201.355,30.4464 201.35,30.0408 201.18,29.9582 C200.346,29.5523 199.426,29.2279 198.499,29.2172 C197.488,29.2056 196.525,29.6545 195.543,29.8932 C194.706,30.0967 193.876,30.326 193.043,30.5438 C192.131,30.782 191.245,31.3648 190.308,31.2615 C189.969,31.2241 190.097,30.5279 190.278,30.2389 C190.843,29.3375 191.531,28.4538 192.426,27.8793 C193.145,27.4174 194.225,27.7671 194.915,27.262 C195.87,26.5628 196.217,25.2532 197.095,24.4597 C197.7,23.9127 199.006,24.1032 199.266,23.3299 C199.458,22.7574 198.457,22.2661 197.858,22.19 C196.644,22.0358 195.353,22.223 194.222,22.6891 C193.079,23.1597 192.182,24.0944 191.254,24.9106 C190.599,25.4868 190.078,26.1991 189.495,26.8477 C189.188,27.1887 188.91,28.2027 188.585,27.8793 C187.986,27.283 188.271,26.2156 188.042,25.4019 C187.933,25.0167 187.827,24.6069 187.575,24.2956 C187.406,24.086 187.122,23.902 186.854,23.9312 C186.542,23.9653 186.134,24.1513 186.074,24.4597 C185.948,25.1146 186.235,25.7855 186.372,26.4381 C186.491,27.0048 186.918,27.5363 186.843,28.1105 C186.81,28.3566 186.323,28.4629 186.126,28.312 C185.501,27.834 185.216,27.0225 184.676,26.4514 C184.209,25.958 183.687,25.509 183.12,25.1356 C182.708,24.8644 182.187,24.7953 181.767,24.5367 C181.203,24.1893 180.73,23.7114 180.188,23.3299 C179.7,22.986 179.274,22.4257 178.68,22.3622 C178.237,22.3148 177.433,22.611 177.531,23.0458 C177.677,23.6911 178.611,23.8146 179.107,24.2526 C180.03,25.0678 180.833,26.0164 181.783,26.8004 C182.919,27.7379 184.204,28.4821 185.351,29.4063 C185.743,29.7223 186.332,30.0077 186.384,30.5085 C186.433,30.9869 186,31.4644 185.588,31.7118 C185.117,31.9946 184.505,31.9066 183.959,31.964 C183.235,32.0399 182.508,32.0748 181.781,32.1115 C180.642,32.1691 179.501,32.1784 178.362,32.2467 C177.557,32.2951 176.721,32.2225 175.95,32.4615 C175.474,32.6088 174.937,32.898 174.759,33.3632 C174.638,33.6819 174.932,34.1874 175.267,34.2517 C176.072,34.406 176.885,33.9648 177.703,33.9279 C178.639,33.8857 179.577,33.9493 180.511,34.015 C181.437,34.0801 182.562,33.7303 183.278,34.32 C183.687,34.6566 182.994,35.3735 182.659,35.7832 C182.327,36.1883 181.787,36.3632 181.358,36.664 C180.48,37.2804 179.465,37.7443 178.739,38.5347 C178.413,38.8899 178.07,39.545 178.359,39.9307 C178.634,40.2967 179.304,40.0213 179.73,39.8547 Z" style="stroke:none;fill-rule:evenodd;fill:#3d3d3d;fill-opacity:1;"/>
        </g>
        <g id="Shape8">
            <desc shapeID="8" type="0" basicInfo-basicType="0" basicInfo-roundedRectRadius="12" basicInfo-polygonSides="6" basicInfo-starPoints="5" bounding="rect(-25.729,-344.235,51.458,688.471)" text="" font-familyName="Helvetica" font-pixelSize="20" font-bold="0" font-underline="0" font-alignment="1" strokeStyle="0" markerStart="0" markerEnd="0" shadowEnabled="0" shadowOffsetX="0" shadowOffsetY="2" shadowBlur="4" shadowOpacity="160" blurEnabled="0" blurRadius="4" transform="matrix(0.0435392,0,0,0.0435392,213.491,69.9457)" pers-center="0,0" pers-size="0,0" pers-start="0,0" pers-end="0,0" locked="0" mesh="" flag=""/>
            <path id="shapePath8" d="M212.911,56.0694 C212.724,57.3571 213.068,58.6655 213.088,59.9664 C213.127,62.258 212.821,64.5387 212.81,66.8306 C212.802,68.7745 212.653,70.7003 212.63,72.6441 C212.594,75.5303 212.584,78.4151 212.704,81.2994 C212.779,83.0771 212.181,83.3933 212.434,84.412 C212.552,84.8876 213.49,84.9604 213.811,84.9263 C214.116,84.8938 214.356,84.526 214.41,84.2229 C214.531,83.5466 214.41,85.071 214.307,82.1642 C214.198,79.0602 213.914,75.9581 213.975,72.8533 C214.015,70.8285 214.648,68.8359 214.61,66.8111 C214.57,64.6859 214.296,62.6135 214.144,60.4933 C214.028,58.879 213.909,57.2541 213.811,55.6386 C213.796,55.3805 213.646,54.862 213.412,54.9735 C213.05,55.1469 212.968,55.6718 212.911,56.0694 Z" style="stroke:none;fill-rule:evenodd;fill:#777777;fill-opacity:1;"/>
        </g>
        <g id="Shape9">
            <desc shapeID="9" type="0" basicInfo-basicType="0" basicInfo-roundedRectRadius="12" basicInfo-polygonSides="6" basicInfo-starPoints="5" bounding="rect(-171.186,-144.05,342.375,288.099)" text="" font-familyName="Avenir" font-pixelSize="300" font-bold="0" font-underline="0" font-alignment="1" strokeStyle="0" markerStart="0" markerEnd="0" shadowEnabled="0" shadowOffsetX="0" shadowOffsetY="2" shadowBlur="4" shadowOpacity="160" blurEnabled="0" blurRadius="4" transform="matrix(0.0433304,0.0042579,-0.0042579,0.0433304,213.651,54.556)" pers-center="0,0" pers-size="0,0" pers-start="0,0" pers-end="0,0" locked="0" mesh="" flag=""/>
            <path id="shapePath9" d="M209.657,60.1872 C209.997,60.0821 210.369,59.9903 210.629,59.7477 C211.002,59.4001 211.158,58.8717 211.485,58.4812 C211.833,58.0655 212.17,57.6013 212.646,57.341 C213.006,57.1436 213.475,57.0569 213.868,57.1773 C214.438,57.3519 214.836,57.8784 215.356,58.1709 C215.959,58.5103 216.609,58.7597 217.228,59.0681 C217.796,59.3505 218.292,59.8379 218.917,59.9431 C219.124,59.978 219.305,59.6121 219.252,59.4086 C219.16,59.0546 218.807,58.8255 218.556,58.5599 C218.164,58.1465 217.661,57.8345 217.325,57.3749 C217.263,57.2901 217.388,57.1005 217.493,57.1078 C217.865,57.134 218.192,57.3757 218.556,57.4614 C218.893,57.541 219.24,57.5913 219.586,57.6017 C219.961,57.6129 220.366,57.68 220.707,57.5257 C220.859,57.4571 220.936,57.1656 220.826,57.0408 C220.458,56.6242 219.94,56.3622 219.449,56.1005 C219.005,55.8634 218.531,55.6664 218.04,55.5542 C217.721,55.4813 217.385,55.5661 217.057,55.5542 C216.836,55.5462 216.514,55.6811 216.395,55.4944 C216.3,55.3469 216.67,55.2704 216.829,55.1984 C217.482,54.9047 218.138,54.6088 218.822,54.4013 C219.231,54.2775 219.685,54.3508 220.089,54.2108 C220.43,54.0924 220.761,53.9032 221.01,53.6419 C221.093,53.5551 221.085,53.329 220.973,53.2838 C220.43,53.0633 219.838,52.9278 219.252,52.9278 C218.803,52.9278 218.391,53.1822 217.953,53.2838 C217.453,53.4 216.911,53.3718 216.442,53.5807 C216.071,53.7458 215.902,54.2499 215.514,54.3697 C215.348,54.4211 215.137,54.1418 215.176,53.972 C215.301,53.4221 215.661,52.9518 215.949,52.4669 C216.178,52.0819 216.517,51.7665 216.723,51.3686 C217.069,50.699 217.341,49.992 217.594,49.282 C217.649,49.1269 217.76,48.9052 217.642,48.7903 C217.473,48.6253 217.157,48.5434 216.947,48.6511 C216.578,48.8397 216.427,49.3016 216.114,49.5724 C215.832,49.8167 215.392,49.8793 215.176,50.1838 C214.824,50.6792 214.758,51.3278 214.483,51.8699 C214.352,52.1305 214.191,52.7624 213.966,52.5763 C213.551,52.2338 213.67,51.541 213.478,51.039 C213.387,50.8013 213.296,50.548 213.119,50.3653 C213,50.2425 212.809,50.1424 212.642,50.1765 C212.446,50.2163 212.198,50.3577 212.178,50.5565 C212.136,50.9786 212.357,51.3868 212.482,51.7921 C212.591,52.1441 212.891,52.4561 212.877,52.8241 C212.871,52.9817 212.57,53.0756 212.435,52.9935 C212.039,52.7515 211.834,52.2811 211.485,51.9745 C211.134,51.6658 210.763,51.3664 210.345,51.1568 C210.008,50.9878 209.606,50.9942 209.255,50.8564 C208.901,50.7175 208.623,50.3369 208.243,50.3313 C207.96,50.3271 207.468,50.5617 207.556,50.831 C207.719,51.3312 208.323,51.5545 208.744,51.8699 C209.181,52.1974 209.677,52.4383 210.122,52.7544 C210.686,53.1547 211.427,53.4153 211.768,54.017 C211.937,54.3167 211.651,54.7642 211.378,54.9736 C211.006,55.2585 210.485,55.2683 210.025,55.3526 C209.327,55.4801 208.605,55.4527 207.913,55.6071 C207.471,55.7057 207.042,55.8785 206.651,56.1056 C206.377,56.2644 206.035,56.4412 205.95,56.746 C205.892,56.9552 206.108,57.258 206.324,57.2792 C206.843,57.3301 207.33,56.9946 207.847,56.9325 C208.298,56.8783 208.756,56.9275 209.21,56.9325 C209.73,56.9382 210.324,56.6956 210.769,56.9645 C210.991,57.0991 210.536,57.4306 210.397,57.6504 C210.247,57.8877 210.081,58.1157 209.903,58.3328 C209.6,58.7024 209.188,58.9914 208.955,59.4086 C208.805,59.6764 208.589,60.0871 208.795,60.315 C208.989,60.5308 209.38,60.2731 209.657,60.1872 Z" style="stroke:none;fill-rule:evenodd;fill:#777777;fill-opacity:1;"/>
        </g>
        <g id="Shape10">
            <desc shapeID="10" type="0" basicInfo-basicType="0" basicInfo-roundedRectRadius="12" basicInfo-polygonSides="6" basicInfo-starPoints="5" bounding="rect(-123.075,-280.006,246.149,560.015)" text="" font-familyName="" font-pixelSize="20" font-bold="0" font-underline="0" font-alignment="1" strokeStyle="0" markerStart="0" markerEnd="0" shadowEnabled="0" shadowOffsetX="0" shadowOffsetY="2" shadowBlur="4" shadowOpacity="160" blurEnabled="0" blurRadius="4" transform="matrix(0.115039,0,0,0.115039,152.739,42.336)" pers-center="0,0" pers-size="0,0" pers-start="0,0" pers-end="0,0" locked="0" mesh="" flag=""/>
            <path id="shapePath10" d="M156.826,10.3609 C156.354,10.6831 155.387,11.8565 155.146,12.4086 C155.054,12.6272 154.743,13.2829 154.456,13.8696 C153.915,14.997 153.88,15.1697 154.064,15.7104 C154.168,16.0094 154.133,16.1704 153.719,16.9872 C153.178,18.057 152.937,18.2066 152.271,17.8846 C151.982,17.7579 151.81,17.5394 151.602,17.1022 C151.292,16.389 151.028,16.1244 150.418,15.9173 C149.704,15.6757 149.577,15.8138 149.577,16.8836 C149.577,17.6085 149.636,17.8846 149.843,18.2871 C150.165,18.8854 150.303,19.6101 150.153,19.8977 C150.049,20.0818 150.015,20.0818 149.555,19.9092 C149.014,19.7136 148.175,19.1384 147.76,18.6898 C147.611,18.5288 147.231,18.3217 146.897,18.2066 C146.564,18.1031 146.092,17.896 145.839,17.7579 C145.586,17.6085 144.988,17.4128 144.516,17.3093 C144.045,17.2058 143.192,16.9182 142.618,16.6766 C142.054,16.4235 141.376,16.1935 141.111,16.1474 C140.674,16.0784 140.616,16.1015 140.329,16.435 C139.857,16.9987 139.811,16.9527 141.583,17.8846 C142.285,18.2412 143.01,18.6553 143.192,18.8048 C143.389,18.9428 143.699,19.0924 143.895,19.1269 C144.286,19.2189 145.425,20.0358 145.793,20.5074 C145.92,20.657 146.288,20.8756 146.621,20.979 C146.942,21.0941 147.346,21.3011 147.507,21.4507 C147.668,21.5887 148.025,21.8189 148.312,21.9454 C149.371,22.4286 150.429,23.1763 150.694,23.6364 C150.844,23.8781 150.959,24.1427 150.959,24.2116 C150.959,24.3727 150.556,24.5568 149.67,24.7754 C149.267,24.8789 148.795,25.063 148.601,25.178 C148.128,25.4656 147.439,25.6152 146.058,25.7417 C145.413,25.7993 144.735,25.9258 144.539,26.0293 C144.344,26.1329 143.803,26.2939 143.343,26.3859 C142.883,26.4895 142.193,26.7195 141.813,26.8921 C141.433,27.0761 140.835,27.3063 140.478,27.4097 C139.845,27.5824 138.844,28.2726 138.615,28.6868 C138.465,28.9743 138.822,29.285 139.431,29.423 C139.984,29.538 141.076,29.3309 142.054,28.9167 C142.296,28.8132 143.02,28.6292 143.653,28.5027 C144.286,28.3646 145.207,28.146 145.701,27.9849 C146.609,27.7088 147.219,27.6398 147.472,27.801 C147.543,27.8469 147.634,28.077 147.679,28.3071 C147.748,28.6868 147.703,28.8362 147.266,29.5495 C146.99,29.9982 146.587,30.6078 146.38,30.884 C146.173,31.1715 145.908,31.7122 145.793,32.0803 C145.678,32.4484 145.471,32.8971 145.333,33.0696 C145.114,33.3458 145.103,33.4148 145.241,33.6218 C145.344,33.7829 145.551,33.875 145.827,33.898 C146.196,33.9325 146.333,33.8636 146.748,33.4838 C147.013,33.2423 147.311,32.9892 147.403,32.9317 C147.588,32.8166 148.244,31.9768 149.244,30.5619 C149.843,29.722 150.107,29.4689 151.281,28.6176 L151.787,28.261 L152.293,28.4566 C152.569,28.5601 152.833,28.6981 152.868,28.7672 C152.913,28.8248 152.961,29.3539 152.984,29.9407 C152.994,30.5158 153.064,31.1141 153.121,31.2751 C153.178,31.4592 153.178,31.8848 153.11,32.4025 C153.017,33.0352 153.017,33.3573 153.132,33.7254 C153.202,33.99 153.26,34.2546 153.26,34.3236 C153.132,35.3475 153.111,39.0633 153.26,40.6508 C153.524,43.6073 153.478,44.5621 153.604,44.8843 C153.892,45.6205 153.961,47.8407 153.949,55.2953 C153.938,59.5747 153.525,63.417 153.525,63.8312 C153.513,64.2454 153.339,66.3112 153.352,68.1174 C153.377,71.4766 153.028,70.6271 153.028,73.492 C153.028,74.7347 155.245,74.7017 155.881,74.298 C156.595,73.8452 155.942,72.19 155.985,71.2901 C156.166,67.5194 155.698,68.426 155.559,64.0038 C155.509,62.416 155.709,60.8631 155.709,60.5526 C155.698,60.2304 155.628,59.6553 155.559,59.2528 C155.456,58.7006 155.456,58.3669 155.559,57.8722 C155.721,57.09 155.755,55.5254 155.698,51.3495 C155.651,47.6337 155.537,46.2187 155.238,45.724 C155.099,45.494 154.997,45.0338 154.95,44.447 C154.915,43.9409 154.835,43.1126 154.766,42.6064 C154.709,42.1003 154.766,40.3747 154.697,38.7641 C154.617,36.7165 154.594,35.7731 154.49,35.6005 C154.41,35.4625 154.458,35.0406 154.456,34.7538 C154.447,33.8045 154.591,32.9739 154.456,31.9884 C154.496,31.7247 154.533,31.4601 154.559,31.1945 C154.595,30.8233 154.559,30.4468 154.64,30.0787 C154.927,28.7097 155.099,28.5832 156.181,29.0203 C156.595,29.1814 156.986,29.3194 157.067,29.3194 C157.296,29.3194 159.562,30.4582 160.276,30.9301 C161.794,31.9423 161.83,31.9653 162.44,31.9884 C162.923,32.0114 163.083,31.9653 163.279,31.7698 L163.52,31.5281 L163.222,31.0105 C162.958,30.5619 161.174,28.8823 160.139,28.0999 L159.805,27.8469 L160.104,27.5018 C160.564,26.9497 161.369,26.8116 162.784,27.0531 C165.488,27.4903 166.431,27.5132 166.777,27.1337 C166.949,26.9381 166.949,26.9151 166.695,26.7311 C166.546,26.6276 166.155,26.3398 165.81,26.0868 C165.476,25.8452 165.143,25.6381 165.084,25.6381 C165.016,25.6381 164.602,25.454 164.153,25.2241 C163.129,24.7064 160.392,24.0852 159.562,24.2002 L159.011,24.2693 L159.011,23.809 C159.011,23.2913 159.208,23.1304 160.162,22.8772 C160.449,22.8082 161.036,22.5666 161.473,22.348 C161.922,22.1294 162.336,21.9569 162.416,21.9569 C162.485,21.9569 162.807,21.7843 163.107,21.5773 C163.416,21.3702 163.935,21.0825 164.268,20.956 C164.992,20.657 166.005,20.0127 166.086,19.7827 C166.121,19.6906 166.041,19.5066 165.914,19.3801 C165.534,18.989 164.085,19.0578 162.75,19.5181 C162.187,19.7136 161.485,19.9322 161.197,20.0013 C160.909,20.0703 160.346,20.335 159.931,20.5764 C159.517,20.818 159.033,21.0825 158.85,21.1516 C158.435,21.3011 157.227,22.0259 156.767,22.3941 C156.503,22.6127 156.342,22.6586 155.985,22.6127 C155.732,22.5781 155.479,22.4976 155.41,22.4286 C155.203,22.2214 155.169,20.611 155.363,19.9668 C155.836,18.3906 156.066,17.3554 156.089,16.7111 C156.1,16.2395 156.216,15.7217 156.469,15.0776 C156.664,14.5599 156.826,13.9731 156.826,13.7661 C156.826,13.559 157.01,13.0184 157.227,12.5582 C157.596,11.7989 157.848,10.9936 157.861,10.5565 C157.861,10.4529 157.734,10.3149 157.573,10.2459 C157.205,10.0733 157.274,10.0618 156.826,10.3609 Z" style="stroke:none;fill-rule:evenodd;fill:#000000;fill-opacity:1;"/>
        </g>
    </g>
</svg>
