<?xml version="1.0"?>
<svg version="1.1" xmlns="http://www.w3.org/2000/svg" xmlns:xlink="http://www.w3.org/1999/xlink" width="300" height="120">
    <desc iVinci="yes" version="4.6" gridStep="20" showGrid="no" snapToGrid="no" codePlatform="0"/>
    <g id="Layer1" name="Layer 2" opacity="1">
        <g id="Shape1">
            <desc shapeID="1" type="0" basicInfo-basicType="0" basicInfo-roundedRectRadius="12" basicInfo-polygonSides="6" basicInfo-starPoints="5" bounding="rect(-794.249,-40.5003,1588.5,81.0003)" text="OPENPIPELINE.IO" font-familyName="AppleGothic" font-pixelSize="100" font-bold="0" font-underline="0" font-alignment="1" strokeStyle="0" markerStart="0" markerEnd="0" shadowEnabled="0" shadowOffsetX="0" shadowOffsetY="2" shadowBlur="4" shadowOpacity="160" blurEnabled="0" blurRadius="4" transform="matrix(0.157913,0,0,0.157913,151.422,101.421)" pers-center="0,0" pers-size="0,0" pers-start="0,0" pers-end="0,0" locked="0" mesh="" flag=""/>
            <path id="shapePath1" d="M31.5272,107.816 C30.0953,107.816 28.8426,107.258 27.7687,106.142 C26.5896,104.931 26,103.368 26,101.451 C26,99.62 26.5527,98.072 27.6583,96.81 C28.7319,95.619 30.0058,95.025 31.4799,95.025 C32.9747,95.025 34.2592,95.609 35.333,96.778 C36.4384,98.009 36.9912,99.562 36.9912,101.436 C36.9912,103.384 36.3911,104.962 35.1908,106.173 C34.1276,107.269 32.9063,107.816 31.5272,107.816 M31.4324,106.647 C32.601,106.647 33.5959,106.158 34.4171,105.178 C35.2489,104.179 35.6647,102.931 35.6647,101.436 C35.6647,100.709 35.5645,100.036 35.3646,99.415 C35.1645,98.794 34.8644,98.23 34.4645,97.726 C33.6642,96.705 32.6748,96.194 31.4956,96.194 C30.3271,96.194 29.3374,96.705 28.5267,97.726 C27.7266,98.725 27.3266,99.973 27.3266,101.468 C27.3266,103.026 27.7477,104.294 28.5899,105.273 C29.3795,106.189 30.3271,106.647 31.4324,106.647 M47.2139,95.23 L51.1778,95.23 C52.3146,95.23 53.2463,95.425 53.9726,95.815 C54.9517,96.362 55.4412,97.236 55.4412,98.436 C55.4412,99.594 55.036,100.489 54.2252,101.12 C53.4885,101.71 52.5409,102.005 51.383,102.005 L48.4616,102.005 L48.4616,107.61 L47.2139,107.61 L47.2139,95.23 M51.1617,96.319 L48.4616,96.319 L48.4616,100.915 L51.2567,100.915 C51.9935,100.915 52.6304,100.72 53.1673,100.331 C53.7673,99.889 54.0675,99.294 54.0675,98.547 C54.0675,97.704 53.7148,97.099 53.0094,96.73 C52.4935,96.457 51.8777,96.319 51.1617,96.319 M65.7642,95.215 L73.4704,95.215 L73.4704,96.304 L67.0117,96.304 L67.0117,100.584 L73.2335,100.584 L73.2335,101.673 L67.0117,101.673 L67.0117,106.521 L73.5178,106.521 L73.5178,107.61 L65.7642,107.61 L65.7642,95.215 M83.9815,107.61 L83.9815,95.23 L85.1191,95.23 L92.7299,105.716 L92.7299,95.23 L93.8674,95.23 L93.8674,107.61 L92.7299,107.61 L85.1191,97.142 L85.1191,107.61 L83.9815,107.61 M104.284,95.23 L108.248,95.23 C109.384,95.23 110.316,95.425 111.043,95.815 C112.021,96.362 112.512,97.236 112.512,98.436 C112.512,99.594 112.106,100.489 111.295,101.12 C110.559,101.71 109.611,102.005 108.453,102.005 L105.532,102.005 L105.532,107.61 L104.284,107.61 L104.284,95.23 M108.232,96.319 L105.532,96.319 L105.532,100.915 L108.327,100.915 C109.064,100.915 109.701,100.72 110.238,100.331 C110.838,99.889 111.138,99.294 111.138,98.547 C111.138,97.704 110.785,97.099 110.08,96.73 C109.564,96.457 108.948,96.319 108.232,96.319 M123.213,95.23 L124.445,95.23 L124.445,107.61 L123.213,107.61 L123.213,95.23 M135.163,95.23 L139.127,95.23 C140.263,95.23 141.195,95.425 141.922,95.815 C142.901,96.362 143.39,97.236 143.39,98.436 C143.39,99.594 142.986,100.489 142.174,101.12 C141.437,101.71 140.49,102.005 139.331,102.005 L136.411,102.005 L136.411,107.61 L135.163,107.61 L135.163,95.23 M139.111,96.319 L136.411,96.319 L136.411,100.915 L139.206,100.915 C139.942,100.915 140.58,100.72 141.116,100.331 C141.716,99.889 142.017,99.294 142.017,98.547 C142.017,97.704 141.663,97.099 140.959,96.73 C140.442,96.457 139.826,96.319 139.111,96.319 M153.712,95.215 L161.419,95.215 L161.419,96.304 L154.961,96.304 L154.961,100.584 L161.182,100.584 L161.182,101.673 L154.961,101.673 L154.961,106.521 L161.466,106.521 L161.466,107.61 L153.712,107.61 L153.712,95.215 M171.962,95.23 L173.21,95.23 L173.21,106.521 L179.321,106.521 L179.321,107.61 L171.962,107.61 L171.962,95.23 M189.911,95.23 L191.144,95.23 L191.144,107.61 L189.911,107.61 L189.911,95.23 M202.003,107.61 L202.003,95.23 L203.141,95.23 L210.75,105.716 L210.75,95.23 L211.888,95.23 L211.888,107.61 L210.75,107.61 L203.141,97.142 L203.141,107.61 L202.003,107.61 M222.353,95.215 L230.059,95.215 L230.059,96.304 L223.599,96.304 L223.599,100.584 L229.821,100.584 L229.821,101.673 L223.599,101.673 L223.599,106.521 L230.106,106.521 L230.106,107.61 L222.353,107.61 L222.353,95.215 M242.038,107.658 C241.786,107.658 241.569,107.553 241.391,107.342 C241.213,107.131 241.123,106.874 241.123,106.568 C241.123,106.252 241.215,105.987 241.4,105.771 C241.584,105.555 241.797,105.447 242.038,105.447 C242.27,105.447 242.478,105.545 242.662,105.739 C242.847,105.935 242.938,106.199 242.938,106.537 C242.938,106.853 242.849,107.118 242.67,107.334 C242.491,107.55 242.28,107.658 242.038,107.658 M253.919,95.23 L255.151,95.23 L255.151,107.61 L253.919,107.61 L253.919,95.23 M271.381,107.816 C269.949,107.816 268.696,107.258 267.623,106.142 C266.444,104.931 265.853,103.368 265.853,101.451 C265.853,99.62 266.407,98.072 267.512,96.81 C268.586,95.619 269.86,95.025 271.333,95.025 C272.829,95.025 274.113,95.609 275.186,96.778 C276.293,98.009 276.845,99.562 276.845,101.436 C276.845,103.384 276.233,104.95 275.045,106.173 C273.982,107.269 272.76,107.816 271.381,107.816 M271.287,106.647 C272.455,106.647 273.45,106.158 274.271,105.178 C275.101,104.179 275.518,102.931 275.518,101.436 C275.518,100.709 275.419,100.036 275.219,99.415 C275.019,98.794 274.718,98.23 274.319,97.726 C273.517,96.705 272.528,96.194 271.349,96.194 C270.181,96.194 269.191,96.705 268.38,97.726 C267.58,98.725 267.181,99.973 267.181,101.468 C267.181,103.026 267.602,104.294 268.444,105.273 C269.234,106.189 270.181,106.647 271.287,106.647 Z" style="stroke:none;fill-rule:evenodd;fill:#000000;fill-opacity:1;"/>
        </g>
    </g>
    <g id="Layer2" name="Layer 3" opacity="1">
        <g id="Shape2">
            <desc shapeID="2" type="0" basicInfo-basicType="0" basicInfo-roundedRectRadius="12" basicInfo-polygonSides="6" basicInfo-starPoints="5" bounding="rect(-123.074,-400.81,246.145,801.623)" text="" font-familyName="" font-pixelSize="20" font-bold="0" font-underline="0" font-alignment="1" strokeStyle="0" markerStart="0" markerEnd="0" shadowEnabled="0" shadowOffsetX="0" shadowOffsetY="2" shadowBlur="4" shadowOpacity="160" blurEnabled="0" blurRadius="4" transform="matrix(0.091545,0,0,0.0915452,152.812,45.0001)" pers-center="0,0" pers-size="0,0" pers-start="0,0" pers-end="0,0" locked="0" mesh="" flag=""/>
            <path id="shapePath2" d="M156.064,8.49603 C155.689,8.7524 154.92,9.68615 154.728,10.1256 C154.654,10.2995 154.407,10.8214 154.178,11.2882 C153.748,12.1853 153.721,12.3227 153.867,12.7529 C153.949,12.9909 153.922,13.1192 153.592,13.7691 C153.162,14.6204 152.97,14.7394 152.439,14.4831 C152.21,14.3824 152.073,14.2085 151.908,13.8606 C151.661,13.293 151.45,13.0825 150.965,12.9177 C150.398,12.7255 150.297,12.8353 150.297,13.6866 C150.297,14.2634 150.343,14.4831 150.507,14.8035 C150.764,15.2796 150.874,15.8563 150.755,16.0852 C150.672,16.2316 150.645,16.2316 150.279,16.0943 C149.848,15.9387 149.18,15.481 148.85,15.1239 C148.732,14.9958 148.429,14.831 148.164,14.7394 C147.898,14.6571 147.523,14.4923 147.322,14.3824 C147.12,14.2634 146.644,14.1078 146.269,14.0254 C145.894,13.943 145.216,13.7142 144.758,13.5219 C144.31,13.3205 143.77,13.1374 143.559,13.1008 C143.211,13.0459 143.166,13.0642 142.937,13.3297 C142.561,13.7782 142.525,13.7416 143.935,14.4831 C144.493,14.767 145.07,15.0964 145.216,15.2155 C145.372,15.3254 145.619,15.4444 145.775,15.4718 C146.086,15.545 146.992,16.195 147.285,16.5704 C147.386,16.6893 147.679,16.8633 147.944,16.9457 C148.2,17.0372 148.521,17.202 148.649,17.321 C148.777,17.4309 149.061,17.614 149.29,17.7146 C150.132,18.0992 150.974,18.6942 151.185,19.0604 C151.304,19.2527 151.395,19.4632 151.395,19.5181 C151.395,19.6463 151.075,19.7927 150.37,19.9667 C150.05,20.0491 149.674,20.1956 149.519,20.2871 C149.143,20.516 148.594,20.635 147.496,20.7356 C146.983,20.7814 146.443,20.8821 146.287,20.9646 C146.132,21.0469 145.701,21.175 145.335,21.2483 C144.969,21.3307 144.42,21.5138 144.118,21.6511 C143.816,21.7976 143.339,21.9807 143.056,22.0631 C142.552,22.2004 141.756,22.7496 141.573,23.0792 C141.454,23.3081 141.737,23.5553 142.223,23.6651 C142.662,23.7567 143.532,23.5919 144.31,23.2623 C144.502,23.1799 145.079,23.0334 145.582,22.9328 C146.086,22.8228 146.818,22.649 147.212,22.5208 C147.935,22.3011 148.42,22.2462 148.622,22.3743 C148.677,22.411 148.75,22.594 148.786,22.7771 C148.841,23.0792 148.805,23.1983 148.457,23.7658 C148.237,24.1228 147.917,24.608 147.752,24.8277 C147.587,25.0566 147.377,25.4869 147.285,25.7798 C147.193,26.0727 147.029,26.4298 146.919,26.5671 C146.745,26.7868 146.736,26.8417 146.846,27.0065 C146.928,27.1347 147.093,27.2079 147.313,27.2262 C147.605,27.2537 147.715,27.1988 148.045,26.8967 C148.255,26.7044 148.493,26.503 148.567,26.4572 C148.713,26.3656 149.235,25.6974 150.031,24.5714 C150.507,23.9031 150.718,23.7017 151.652,23.0243 L152.055,22.7405 L152.457,22.8961 C152.677,22.9785 152.887,23.0884 152.915,23.1433 C152.951,23.1891 152.988,23.6101 153.007,24.077 C153.016,24.5348 153.071,25.0109 153.116,25.139 C153.162,25.2855 153.162,25.6242 153.107,26.0362 C153.034,26.5396 153.034,26.7959 153.125,27.0889 C153.18,27.2994 153.226,27.51 153.226,27.5649 C153.125,28.3797 153.108,31.3366 153.226,32.5999 C153.437,34.9526 153.072,35.7124 153.173,35.9688 C153.402,36.5547 153.457,38.3215 153.447,44.2536 C153.438,47.6591 153.429,48.9766 153.429,49.3061 C153.42,49.6357 153.429,51.073 153.447,52.5102 C153.466,55.1833 153.347,58.0305 153.164,59.3304 C152.907,61.0878 152.88,63.559 153.127,64.5472 C153.347,65.4445 153.429,66.3051 153.347,66.7905 C153.264,67.2759 153.072,70.1248 153.109,70.5277 C153.164,71.0769 153.09,73.1004 152.999,73.5491 C152.953,73.7967 152.889,75.6087 152.861,77.5678 C152.834,79.5268 152.788,81.1564 152.77,81.1842 C152.678,81.3395 153.072,81.6322 153.429,81.6786 C153.74,81.7147 153.841,81.6876 154.006,81.5136 C154.17,81.3395 154.198,81.2203 154.17,80.8999 C154.143,80.6801 154.271,80.3255 154.335,80.1876 C154.491,79.8859 154.418,79.307 154.317,77.9436 C154.272,77.3389 154.253,75.8563 154.281,74.6476 C154.308,73.4389 154.299,72.2947 154.272,72.1116 C154.244,71.9291 154.272,71.4889 154.335,71.1324 C154.399,70.7843 154.473,69.8508 154.5,69.0451 C154.528,68.2483 154.592,68.6123 154.647,68.4382 C154.802,67.9438 154.766,65.4722 154.601,64.8224 C154.519,64.5201 154.436,63.8613 154.418,63.3578 C154.399,62.8544 154.335,62.0666 154.281,61.618 C154.143,60.6203 154.207,61.0696 154.455,59.6963 C154.564,59.1379 154.647,57.7743 154.738,57.7743 C154.922,56.0897 155.013,51.8236 154.931,49.4434 C154.885,48.1801 154.848,46.9442 154.848,46.6971 C154.839,46.4408 154.784,45.983 154.729,45.6626 C154.647,45.2232 154.647,44.9577 154.729,44.564 C154.857,43.9416 154.885,44.4367 154.839,41.1136 C154.802,38.1567 154.711,37.0307 154.473,36.637 C154.363,36.454 154.422,36.0878 154.385,35.6209 C154.358,35.2181 154.293,34.5589 154.238,34.1562 C154.183,33.7546 154.426,32.3802 154.371,31.0985 C154.307,29.4691 154.288,28.7184 154.206,28.581 C154.142,28.4713 154.18,28.1354 154.178,27.9073 C154.171,27.1518 154.286,26.4908 154.178,25.7066 C154.211,25.4968 154.24,25.2863 154.261,25.0749 C154.289,24.7795 154.261,24.4798 154.325,24.1869 C154.554,23.0975 154.691,22.9968 155.551,23.3447 C155.881,23.4728 156.192,23.5827 156.256,23.5827 C156.439,23.5827 158.243,24.489 158.81,24.8643 C160.019,25.6699 160.046,25.6882 160.532,25.7066 C160.916,25.7249 161.045,25.6882 161.2,25.5326 L161.392,25.3403 L161.154,24.9285 C160.944,24.5714 159.525,23.2348 158.701,22.6123 L158.435,22.411 L158.673,22.1363 C159.039,21.6969 159.68,21.587 160.806,21.7793 C162.957,22.1272 163.708,22.1455 163.983,21.8434 C164.12,21.6878 164.12,21.6694 163.918,21.5229 C163.8,21.4406 163.488,21.2117 163.214,21.0103 C162.948,20.818 162.683,20.6533 162.637,20.6533 C162.582,20.6533 162.253,20.5068 161.896,20.3237 C161.081,19.9117 158.902,19.4174 158.243,19.509 L157.804,19.5639 L157.804,19.1977 C157.804,18.7858 157.959,18.6576 158.719,18.4562 C158.948,18.4013 159.415,18.209 159.762,18.0351 C160.12,17.8611 160.449,17.7238 160.513,17.7238 C160.568,17.7238 160.824,17.5865 161.063,17.4217 C161.31,17.2569 161.722,17.0281 161.987,16.9273 C162.563,16.6893 163.369,16.1767 163.434,15.9937 C163.461,15.9204 163.397,15.7739 163.296,15.6732 C162.994,15.362 161.841,15.4168 160.779,15.7831 C160.33,15.9387 159.772,16.1126 159.543,16.1676 C159.314,16.2225 158.865,16.433 158.536,16.6253 C158.206,16.8176 157.822,17.0281 157.675,17.083 C157.346,17.202 156.384,17.7787 156.018,18.0717 C155.808,18.2456 155.68,18.2822 155.396,18.2456 C155.195,18.2182 154.993,18.1541 154.938,18.0992 C154.774,17.9343 154.746,16.6528 154.901,16.1401 C155.277,14.8859 155.46,14.0621 155.478,13.5494 C155.487,13.174 155.579,12.7621 155.78,12.2495 C155.936,11.8375 156.064,11.3706 156.064,11.2058 C156.064,11.041 156.21,10.6108 156.384,10.2446 C156.677,9.64038 156.879,8.99955 156.888,8.65171 C156.888,8.56926 156.787,8.45948 156.659,8.40449 C156.366,8.26719 156.421,8.25803 156.064,8.49603 Z" style="stroke:none;fill-rule:evenodd;fill:#000000;fill-opacity:1;"/>
        </g>
        <g id="Shape3">
            <desc shapeID="3" type="0" basicInfo-basicType="0" basicInfo-roundedRectRadius="12" basicInfo-polygonSides="6" basicInfo-starPoints="5" bounding="rect(-123.074,-400.81,246.145,801.623)" text="" font-familyName="" font-pixelSize="20" font-bold="0" font-underline="0" font-alignment="1" strokeStyle="0" markerStart="0" markerEnd="0" shadowEnabled="0" shadowOffsetX="0" shadowOffsetY="2" shadowBlur="4" shadowOpacity="160" blurEnabled="0" blurRadius="4" transform="matrix(0.0749418,0,0,0.0749421,185.456,49.6877)" pers-center="0,0" pers-size="0,0" pers-start="0,0" pers-end="0,0" locked="0" mesh="" flag=""/>
            <path id="shapePath3" d="M188.118,19.8042 C187.811,20.0141 187.181,20.7785 187.024,21.1382 C186.964,21.2806 186.762,21.7078 186.574,22.09 C186.222,22.8244 186.2,22.9369 186.319,23.2891 C186.387,23.4839 186.365,23.5889 186.095,24.1209 C185.743,24.8179 185.585,24.9153 185.151,24.7055 C184.963,24.623 184.851,24.4806 184.716,24.1958 C184.514,23.7312 184.341,23.5588 183.944,23.4239 C183.48,23.2666 183.397,23.3565 183.397,24.0534 C183.397,24.5256 183.434,24.7055 183.569,24.9677 C183.779,25.3575 183.869,25.8296 183.772,26.0169 C183.704,26.1368 183.682,26.1368 183.382,26.0244 C183.03,25.897 182.483,25.5223 182.213,25.23 C182.116,25.1251 181.868,24.9902 181.651,24.9153 C181.434,24.8478 181.126,24.7129 180.961,24.623 C180.797,24.5256 180.407,24.3982 180.1,24.3307 C179.792,24.2633 179.238,24.0759 178.863,23.9186 C178.496,23.7537 178.054,23.6038 177.881,23.5738 C177.597,23.5289 177.559,23.5438 177.372,23.7612 C177.064,24.1284 177.034,24.0984 178.189,24.7055 C178.646,24.9378 179.118,25.2075 179.238,25.305 C179.365,25.3949 179.568,25.4923 179.695,25.5148 C179.95,25.5748 180.692,26.1069 180.931,26.4142 C181.014,26.5115 181.254,26.654 181.471,26.7214 C181.681,26.7963 181.943,26.9312 182.048,27.0286 C182.153,27.1186 182.385,27.2685 182.573,27.3509 C183.262,27.6656 183.952,28.1528 184.124,28.4525 C184.221,28.61 184.296,28.7823 184.296,28.8272 C184.296,28.9322 184.034,29.0521 183.457,29.1945 C183.195,29.2619 182.887,29.3818 182.76,29.4568 C182.453,29.6441 182.003,29.7415 181.104,29.824 C180.684,29.8614 180.242,29.9439 180.115,30.0114 C179.987,30.0788 179.635,30.1837 179.335,30.2436 C179.035,30.3111 178.586,30.461 178.338,30.5734 C178.091,30.6933 177.701,30.8432 177.469,30.9107 C177.057,31.0231 176.405,31.4727 176.255,31.7425 C176.158,31.9298 176.39,32.1322 176.787,32.2221 C177.147,32.2971 177.859,32.1622 178.496,31.8924 C178.653,31.8249 179.125,31.705 179.538,31.6226 C179.95,31.5326 180.549,31.3903 180.872,31.2853 C181.464,31.1055 181.861,31.0605 182.026,31.1654 C182.071,31.1955 182.13,31.3453 182.161,31.4952 C182.205,31.7425 182.176,31.84 181.891,32.3045 C181.711,32.5968 181.449,32.994 181.314,33.1739 C181.179,33.3612 181.006,33.7135 180.931,33.9533 C180.856,34.1931 180.722,34.4854 180.632,34.5978 C180.489,34.7776 180.482,34.8226 180.572,34.9575 C180.639,35.0624 180.774,35.1224 180.954,35.1374 C181.194,35.1599 181.284,35.1149 181.553,34.8676 C181.726,34.7102 181.921,34.5453 181.981,34.5079 C182.101,34.4329 182.528,33.8858 183.18,32.9641 C183.569,32.417 183.742,32.2521 184.506,31.6975 L184.836,31.4652 L185.166,31.5926 C185.346,31.66 185.518,31.75 185.54,31.795 C185.57,31.8324 185.6,32.1771 185.615,32.5594 C185.623,32.9341 185.668,33.3238 185.705,33.4287 C185.743,33.5486 185.743,33.8259 185.698,34.1632 C185.638,34.5753 185.638,34.7851 185.712,35.025 C185.758,35.1973 185.795,35.3697 185.795,35.4146 C185.712,36.0816 185.698,38.5023 185.795,39.5365 C185.968,41.4625 185.669,42.0845 185.751,42.2943 C185.939,42.774 185.984,44.2203 185.976,49.0766 C185.969,51.8644 185.961,52.943 185.961,53.2127 C185.954,53.4826 185.961,54.6592 185.976,55.8357 C185.991,58.024 185.894,60.3548 185.744,61.419 C185.534,62.8576 185.511,64.8806 185.714,65.6896 C185.894,66.4242 185.961,67.1287 185.894,67.5261 C185.826,67.9234 185.669,70.2556 185.699,70.5855 C185.744,71.0351 185.684,72.6916 185.609,73.0589 C185.571,73.2615 185.519,74.745 185.496,76.3487 C185.474,77.9524 185.436,79.2865 185.422,79.3092 C185.347,79.4364 185.669,79.676 185.961,79.714 C186.216,79.7435 186.298,79.7214 186.433,79.5789 C186.568,79.4364 186.591,79.3388 186.568,79.0765 C186.546,78.8965 186.65,78.6063 186.703,78.4934 C186.83,78.2464 186.77,77.7725 186.688,76.6564 C186.652,76.1614 186.636,74.9476 186.658,73.9581 C186.681,72.9687 186.673,72.032 186.651,71.8821 C186.628,71.7327 186.651,71.3723 186.703,71.0805 C186.756,70.7955 186.816,70.0314 186.838,69.3717 C186.861,68.7195 186.913,69.0174 186.958,68.8749 C187.085,68.4702 187.055,66.4469 186.921,65.9149 C186.853,65.6674 186.786,65.1281 186.77,64.716 C186.756,64.3038 186.703,63.6589 186.658,63.2916 C186.546,62.4749 186.598,62.8427 186.801,61.7185 C186.89,61.2614 186.958,60.1451 187.033,60.1451 C187.183,58.766 187.258,55.2736 187.19,53.3251 C187.153,52.291 187.123,51.2792 187.123,51.0769 C187.115,50.8671 187.07,50.4923 187.025,50.2301 C186.958,49.8704 186.958,49.653 187.025,49.3307 C187.13,48.8211 187.153,49.2264 187.115,46.5061 C187.085,44.0855 187.01,43.1637 186.816,42.8414 C186.726,42.6915 186.774,42.3918 186.744,42.0096 C186.721,41.6798 186.669,41.1402 186.624,40.8105 C186.579,40.4817 186.777,39.3566 186.732,38.3074 C186.679,36.9735 186.665,36.3589 186.597,36.2465 C186.545,36.1566 186.576,35.8817 186.574,35.6949 C186.568,35.0765 186.663,34.5354 186.574,33.8933 C186.601,33.7216 186.625,33.5493 186.642,33.3762 C186.665,33.1344 186.642,32.8891 186.694,32.6493 C186.882,31.7575 186.994,31.6751 187.699,31.9599 C187.968,32.0647 188.223,32.1547 188.276,32.1547 C188.425,32.1547 189.902,32.8966 190.366,33.2039 C191.356,33.8634 191.378,33.8783 191.775,33.8933 C192.09,33.9083 192.196,33.8783 192.323,33.7509 L192.48,33.5935 L192.285,33.2564 C192.113,32.9641 190.951,31.8699 190.277,31.3603 L190.059,31.1955 L190.254,30.9706 C190.554,30.6109 191.078,30.5209 192,30.6784 C193.761,30.9631 194.376,30.9781 194.601,30.7308 C194.713,30.6034 194.713,30.5884 194.548,30.4685 C194.451,30.401 194.196,30.2137 193.971,30.0488 C193.754,29.8914 193.536,29.7565 193.499,29.7565 C193.454,29.7565 193.184,29.6366 192.892,29.4868 C192.225,29.1495 190.441,28.7448 189.902,28.8198 L189.542,28.8647 L189.542,28.5649 C189.542,28.2277 189.67,28.1228 190.292,27.958 C190.479,27.913 190.861,27.7556 191.146,27.6132 C191.438,27.4708 191.708,27.3584 191.76,27.3584 C191.806,27.3584 192.015,27.246 192.21,27.1111 C192.412,26.9762 192.75,26.7888 192.967,26.7064 C193.439,26.5115 194.098,26.0919 194.151,25.942 C194.174,25.882 194.121,25.7621 194.039,25.6797 C193.791,25.4249 192.847,25.4698 191.978,25.7697 C191.611,25.897 191.153,26.0394 190.966,26.0844 C190.779,26.1293 190.411,26.3017 190.142,26.4591 C189.872,26.6165 189.557,26.7888 189.437,26.8338 C189.167,26.9312 188.38,27.4033 188.081,27.6432 C187.908,27.7855 187.804,27.8155 187.571,27.7855 C187.406,27.7631 187.241,27.7107 187.197,27.6656 C187.062,27.5307 187.039,26.4816 187.166,26.0619 C187.474,25.0352 187.624,24.3607 187.639,23.9411 C187.646,23.6338 187.721,23.2965 187.886,22.8769 C188.013,22.5396 188.118,22.1574 188.118,22.0225 C188.118,21.8876 188.238,21.5354 188.38,21.2356 C188.62,20.741 188.785,20.2164 188.793,19.9316 C188.793,19.8641 188.71,19.7743 188.605,19.7293 C188.365,19.6169 188.411,19.6094 188.118,19.8042 Z" style="stroke:none;fill-rule:evenodd;fill:#000000;fill-opacity:1;"/>
        </g>
        <g id="Shape4">
            <desc shapeID="4" type="0" basicInfo-basicType="0" basicInfo-roundedRectRadius="12" basicInfo-polygonSides="6" basicInfo-starPoints="5" bounding="rect(-123.074,-400.81,246.145,801.623)" text="" font-familyName="" font-pixelSize="20" font-bold="0" font-underline="0" font-alignment="1" strokeStyle="0" markerStart="0" markerEnd="0" shadowEnabled="0" shadowOffsetX="0" shadowOffsetY="2" shadowBlur="4" shadowOpacity="160" blurEnabled="0" blurRadius="4" transform="matrix(0.0615448,0,0,0.0615451,213.038,54.3752)" pers-center="0,0" pers-size="0,0" pers-start="0,0" pers-end="0,0" locked="0" mesh="" flag=""/>
            <path id="shapePath4" d="M215.224,29.8339 C214.972,30.0062 214.455,30.634 214.326,30.9294 C214.277,31.0463 214.111,31.3972 213.957,31.711 C213.668,32.3142 213.649,32.4065 213.747,32.6957 C213.803,32.8558 213.784,32.942 213.563,33.3789 C213.274,33.9513 213.144,34.0313 212.788,33.8589 C212.634,33.7913 212.541,33.6743 212.431,33.4404 C212.264,33.0588 212.123,32.9173 211.797,32.8065 C211.415,32.6773 211.347,32.7511 211.347,33.3235 C211.347,33.7113 211.378,33.8589 211.489,34.0743 C211.661,34.3944 211.735,34.7821 211.655,34.936 C211.6,35.0345 211.581,35.0345 211.335,34.9421 C211.046,34.8375 210.597,34.5298 210.375,34.2897 C210.295,34.2036 210.092,34.0928 209.913,34.0313 C209.735,33.9759 209.483,33.8651 209.347,33.7913 C209.212,33.7113 208.892,33.6066 208.639,33.5512 C208.387,33.4958 207.932,33.342 207.624,33.2127 C207.322,33.0773 206.959,32.9542 206.818,32.9296 C206.584,32.8927 206.553,32.905 206.399,33.0835 C206.147,33.385 206.122,33.3604 207.07,33.8589 C207.445,34.0498 207.833,34.2713 207.932,34.3513 C208.036,34.4252 208.202,34.5052 208.307,34.5236 C208.516,34.5729 209.126,35.0098 209.323,35.2622 C209.39,35.3422 209.587,35.4591 209.766,35.5145 C209.938,35.576 210.153,35.6868 210.24,35.7668 C210.326,35.8407 210.516,35.9638 210.67,36.0315 C211.237,36.29 211.803,36.69 211.944,36.9362 C212.024,37.0655 212.086,37.207 212.086,37.2439 C212.086,37.3301 211.87,37.4286 211.397,37.5455 C211.181,37.6009 210.929,37.6994 210.824,37.7609 C210.572,37.9148 210.203,37.9948 209.464,38.0625 C209.119,38.0932 208.756,38.1609 208.652,38.2164 C208.547,38.2717 208.258,38.3579 208.012,38.4071 C207.765,38.4625 207.396,38.5856 207.193,38.6779 C206.99,38.7764 206.67,38.8995 206.479,38.9549 C206.141,39.0472 205.605,39.4164 205.482,39.638 C205.402,39.7919 205.593,39.9581 205.919,40.0319 C206.215,40.0935 206.799,39.9827 207.322,39.7611 C207.452,39.7057 207.839,39.6073 208.178,39.5396 C208.516,39.4657 209.009,39.3488 209.273,39.2626 C209.76,39.1149 210.086,39.078 210.221,39.1641 C210.258,39.1888 210.307,39.3118 210.332,39.4349 C210.369,39.638 210.344,39.7181 210.11,40.0996 C209.963,40.3396 209.747,40.6658 209.636,40.8135 C209.526,40.9674 209.384,41.2567 209.323,41.4536 C209.261,41.6505 209.15,41.8906 209.076,41.9829 C208.959,42.1306 208.953,42.1675 209.027,42.2783 C209.083,42.3645 209.193,42.4137 209.341,42.426 C209.538,42.4445 209.612,42.4076 209.833,42.2045 C209.975,42.0752 210.135,41.9398 210.184,41.909 C210.283,41.8475 210.633,41.3982 211.169,40.6412 C211.489,40.1919 211.63,40.0565 212.258,39.6011 L212.529,39.4103 L212.8,39.5149 C212.948,39.5703 213.089,39.6442 213.108,39.6811 C213.132,39.7119 213.157,39.995 213.169,40.3089 C213.175,40.6166 213.212,40.9367 213.243,41.0228 C213.274,41.1213 213.274,41.349 213.237,41.6259 C213.187,41.9644 213.187,42.1367 213.249,42.3337 C213.286,42.4753 213.317,42.6168 213.317,42.6537 C213.249,43.2015 213.237,45.1894 213.317,46.0387 C213.459,47.6204 213.213,48.1312 213.281,48.3036 C213.435,48.6975 213.472,49.8853 213.465,53.8734 C213.459,56.1629 213.453,57.0486 213.453,57.2702 C213.447,57.4917 213.453,58.458 213.465,59.4242 C213.478,61.2213 213.398,63.1355 213.275,64.0094 C213.102,65.1909 213.084,66.8522 213.25,67.5166 C213.398,68.1199 213.453,68.6985 213.398,69.0248 C213.342,69.3511 213.213,71.2664 213.238,71.5373 C213.275,71.9065 213.225,73.2669 213.164,73.5685 C213.133,73.735 213.09,74.9532 213.071,76.2702 C213.053,77.5873 213.022,78.6829 213.01,78.7015 C212.948,78.806 213.213,79.0027 213.453,79.0339 C213.662,79.0582 213.73,79.04 213.841,78.923 C213.952,78.806 213.97,78.7258 213.952,78.5104 C213.933,78.3626 214.019,78.1243 214.062,78.0315 C214.167,77.8287 214.118,77.4395 214.05,76.5229 C214.02,76.1164 214.007,75.1196 214.026,74.307 C214.044,73.4944 214.038,72.7252 214.02,72.6021 C214.001,72.4794 214.02,72.1834 214.062,71.9438 C214.105,71.7098 214.155,71.0822 214.173,70.5405 C214.192,70.0048 214.235,70.2495 214.272,70.1325 C214.376,69.8001 214.352,68.1385 214.241,67.7017 C214.186,67.4984 214.13,67.0555 214.118,66.717 C214.105,66.3785 214.062,65.849 214.026,65.5473 C213.933,64.8766 213.976,65.1786 214.143,64.2554 C214.216,63.88 214.272,62.9632 214.333,62.9632 C214.456,61.8307 214.518,58.9626 214.463,57.3625 C214.432,56.5132 214.407,55.6823 214.407,55.5161 C214.401,55.3438 214.364,55.0361 214.327,54.8207 C214.272,54.5253 214.272,54.3468 214.327,54.0821 C214.413,53.6636 214.432,53.9965 214.401,51.7624 C214.376,49.7745 214.315,49.0175 214.155,48.7528 C214.081,48.6298 214.12,48.3836 214.096,48.0697 C214.077,47.7989 214.034,47.3557 213.997,47.085 C213.96,46.815 214.123,45.891 214.086,45.0294 C214.043,43.9339 214.031,43.4292 213.975,43.3369 C213.932,43.2631 213.958,43.0373 213.957,42.8839 C213.952,42.376 214.029,41.9316 213.957,41.4044 C213.979,41.2633 213.998,41.1218 214.012,40.9797 C214.031,40.7811 214.012,40.5796 214.055,40.3827 C214.209,39.6503 214.302,39.5826 214.88,39.8165 C215.101,39.9026 215.311,39.9765 215.354,39.9765 C215.477,39.9765 216.689,40.5858 217.071,40.8381 C217.883,41.3797 217.902,41.3921 218.228,41.4044 C218.486,41.4167 218.573,41.3921 218.677,41.2874 L218.807,41.1582 L218.647,40.8813 C218.505,40.6412 217.551,39.7426 216.997,39.3241 L216.819,39.1888 L216.979,39.0041 C217.225,38.7087 217.656,38.6348 218.413,38.7641 C219.859,38.998 220.364,39.0103 220.548,38.8072 C220.641,38.7026 220.641,38.6902 220.505,38.5917 C220.425,38.5364 220.216,38.3825 220.031,38.2471 C219.853,38.1178 219.674,38.0071 219.643,38.0071 C219.607,38.0071 219.385,37.9086 219.145,37.7855 C218.597,37.5086 217.132,37.1762 216.689,37.2378 L216.394,37.2747 L216.394,37.0285 C216.394,36.7516 216.499,36.6654 217.009,36.53 C217.163,36.4931 217.477,36.3638 217.711,36.2469 C217.951,36.1299 218.173,36.0377 218.215,36.0377 C218.253,36.0377 218.425,35.9453 218.585,35.8345 C218.751,35.7238 219.028,35.5699 219.207,35.5022 C219.594,35.3422 220.136,34.9975 220.179,34.8745 C220.198,34.8252 220.154,34.7267 220.087,34.659 C219.884,34.4498 219.108,34.4867 218.394,34.7329 C218.093,34.8375 217.717,34.9545 217.563,34.9914 C217.409,35.0283 217.108,35.1698 216.886,35.2991 C216.665,35.4284 216.406,35.5699 216.308,35.6068 C216.086,35.6868 215.44,36.0745 215.194,36.2715 C215.052,36.3884 214.966,36.413 214.775,36.3884 C214.64,36.37 214.504,36.3269 214.468,36.29 C214.357,36.1791 214.338,35.3176 214.443,34.9729 C214.695,34.1297 214.818,33.5759 214.831,33.2312 C214.837,32.9788 214.898,32.7019 215.034,32.3573 C215.138,32.0803 215.224,31.7664 215.224,31.6556 C215.224,31.5449 215.323,31.2556 215.44,31.0094 C215.637,30.6032 215.772,30.1724 215.779,29.9385 C215.779,29.8831 215.711,29.8093 215.625,29.7723 C215.428,29.68 215.465,29.6739 215.224,29.8339 Z" style="stroke:none;fill-rule:evenodd;fill:#000000;fill-opacity:1;"/>
        </g>
        <g id="Shape5">
            <desc shapeID="5" type="0" basicInfo-basicType="0" basicInfo-roundedRectRadius="12" basicInfo-polygonSides="6" basicInfo-starPoints="5" bounding="rect(-123.074,-400.81,246.145,801.623)" text="" font-familyName="" font-pixelSize="20" font-bold="0" font-underline="0" font-alignment="1" strokeStyle="0" markerStart="0" markerEnd="0" shadowEnabled="0" shadowOffsetX="0" shadowOffsetY="2" shadowBlur="4" shadowOpacity="160" blurEnabled="0" blurRadius="4" transform="matrix(0.0749418,0,0,0.0749421,116.25,49.9432)" pers-center="0,0" pers-size="0,0" pers-start="0,0" pers-end="0,0" locked="0" mesh="" flag=""/>
            <path id="shapePath5" d="M118.912,20.0597 C118.605,20.2696 117.975,21.034 117.818,21.3937 C117.758,21.5361 117.555,21.9633 117.368,22.3455 C117.016,23.0799 116.994,23.1924 117.113,23.5446 C117.181,23.7394 117.158,23.8444 116.888,24.3764 C116.536,25.0734 116.379,25.1708 115.944,24.961 C115.757,24.8785 115.644,24.7361 115.51,24.4513 C115.307,23.9867 115.135,23.8143 114.738,23.6794 C114.273,23.5221 114.191,23.612 114.191,24.3089 C114.191,24.7811 114.228,24.961 114.363,25.2232 C114.573,25.613 114.663,26.0851 114.565,26.2724 C114.498,26.3923 114.475,26.3923 114.176,26.2799 C113.823,26.1525 113.276,25.7778 113.007,25.4855 C112.909,25.3806 112.662,25.2457 112.445,25.1708 C112.227,25.1033 111.92,24.9685 111.755,24.8785 C111.59,24.7811 111.2,24.6537 110.893,24.5862 C110.586,24.5188 110.031,24.3314 109.657,24.1741 C109.289,24.0092 108.847,23.8593 108.675,23.8293 C108.39,23.7844 108.353,23.7993 108.165,24.0167 C107.858,24.3839 107.828,24.3539 108.982,24.961 C109.439,25.1933 109.911,25.463 110.031,25.5605 C110.159,25.6504 110.361,25.7478 110.489,25.7703 C110.743,25.8303 111.485,26.3624 111.725,26.6697 C111.807,26.767 112.047,26.9095 112.265,26.9769 C112.474,27.0518 112.737,27.1867 112.842,27.2841 C112.947,27.3741 113.179,27.524 113.366,27.6064 C114.056,27.9211 114.745,28.4083 114.918,28.708 C115.015,28.8655 115.09,29.0378 115.09,29.0827 C115.09,29.1877 114.828,29.3076 114.251,29.45 C113.988,29.5174 113.681,29.6373 113.554,29.7123 C113.246,29.8996 112.797,29.997 111.897,30.0795 C111.478,30.1169 111.036,30.1994 110.908,30.2669 C110.781,30.3343 110.429,30.4392 110.129,30.4991 C109.829,30.5666 109.379,30.7165 109.132,30.8289 C108.885,30.9488 108.495,31.0987 108.263,31.1662 C107.851,31.2786 107.199,31.7282 107.049,31.998 C106.951,32.1853 107.184,32.3877 107.581,32.4776 C107.941,32.5526 108.652,32.4177 109.289,32.1479 C109.447,32.0804 109.919,31.9605 110.331,31.8781 C110.743,31.7881 111.343,31.6458 111.665,31.5408 C112.257,31.361 112.654,31.316 112.819,31.4209 C112.864,31.451 112.924,31.6008 112.954,31.7507 C112.999,31.998 112.969,32.0955 112.684,32.56 C112.504,32.8523 112.242,33.2495 112.107,33.4294 C111.972,33.6167 111.8,33.969 111.725,34.2088 C111.65,34.4486 111.515,34.7409 111.425,34.8533 C111.283,35.0331 111.275,35.0781 111.365,35.213 C111.433,35.3179 111.568,35.3779 111.748,35.3929 C111.987,35.4154 112.077,35.3704 112.347,35.1231 C112.519,34.9657 112.714,34.8008 112.774,34.7634 C112.894,34.6884 113.321,34.1413 113.973,33.2196 C114.363,32.6725 114.535,32.5076 115.3,31.953 L115.629,31.7207 L115.959,31.8481 C116.139,31.9155 116.311,32.0055 116.334,32.0505 C116.364,32.0879 116.394,32.4326 116.409,32.8149 C116.416,33.1896 116.461,33.5793 116.499,33.6842 C116.536,33.8041 116.536,34.0814 116.491,34.4187 C116.431,34.8308 116.431,35.0406 116.506,35.2805 C116.551,35.4528 116.589,35.6252 116.589,35.6701 C116.506,36.3371 116.492,38.7578 116.589,39.792 C116.761,41.718 116.463,42.34 116.545,42.5498 C116.732,43.0295 116.777,44.4758 116.77,49.3321 C116.762,52.1199 116.755,53.1985 116.755,53.4682 C116.747,53.7381 116.755,54.9147 116.77,56.0912 C116.785,58.2795 116.687,60.6103 116.537,61.6745 C116.328,63.1131 116.305,65.1361 116.507,65.9451 C116.687,66.6797 116.755,67.3842 116.687,67.7816 C116.62,68.1789 116.463,70.5111 116.492,70.841 C116.537,71.2906 116.477,72.9471 116.403,73.3144 C116.365,73.517 116.313,75.0005 116.29,76.6042 C116.268,78.2079 116.23,79.542 116.215,79.5647 C116.14,79.6919 116.463,79.9315 116.755,79.9695 C117.01,79.999 117.092,79.9769 117.227,79.8344 C117.362,79.6919 117.384,79.5943 117.362,79.332 C117.339,79.152 117.444,78.8618 117.497,78.7489 C117.624,78.5019 117.564,78.028 117.482,76.9119 C117.445,76.4169 117.429,75.2031 117.452,74.2136 C117.474,73.2242 117.467,72.2875 117.444,72.1376 C117.422,71.9882 117.444,71.6278 117.497,71.336 C117.549,71.051 117.609,70.2869 117.631,69.6272 C117.654,68.975 117.707,69.2729 117.751,69.1304 C117.879,68.7257 117.849,66.7024 117.714,66.1704 C117.647,65.9229 117.579,65.3836 117.564,64.9715 C117.549,64.5593 117.497,63.9144 117.452,63.5471 C117.339,62.7304 117.392,63.0982 117.594,61.974 C117.684,61.5169 117.751,60.4006 117.826,60.4006 C117.977,59.0215 118.051,55.5291 117.984,53.5806 C117.946,52.5465 117.917,51.5347 117.917,51.3324 C117.909,51.1226 117.864,50.7478 117.819,50.4856 C117.751,50.1259 117.751,49.9085 117.819,49.5862 C117.924,49.0766 117.946,49.4819 117.909,46.7616 C117.879,44.341 117.804,43.4192 117.609,43.0969 C117.519,42.947 117.567,42.6473 117.537,42.2651 C117.515,41.9353 117.462,41.3957 117.417,41.066 C117.372,40.7372 117.571,39.6121 117.526,38.5629 C117.473,37.229 117.458,36.6144 117.391,36.502 C117.338,36.4121 117.37,36.1372 117.368,35.9504 C117.362,35.332 117.456,34.7909 117.368,34.1488 C117.395,33.9771 117.419,33.8048 117.435,33.6317 C117.459,33.3899 117.435,33.1446 117.488,32.9048 C117.675,32.013 117.788,31.9306 118.492,32.2154 C118.762,32.3202 119.017,32.4102 119.069,32.4102 C119.219,32.4102 120.695,33.1521 121.16,33.4594 C122.149,34.1189 122.172,34.1338 122.569,34.1488 C122.884,34.1638 122.989,34.1338 123.116,34.0065 L123.274,33.849 L123.079,33.5119 C122.907,33.2196 121.745,32.1254 121.07,31.6158 L120.853,31.451 L121.048,31.2261 C121.347,30.8664 121.872,30.7764 122.794,30.9339 C124.555,31.2186 125.17,31.2336 125.394,30.9863 C125.507,30.8589 125.507,30.8439 125.342,30.724 C125.245,30.6565 124.99,30.4692 124.765,30.3043 C124.547,30.1469 124.33,30.012 124.293,30.012 C124.248,30.012 123.978,29.8921 123.686,29.7423 C123.019,29.405 121.235,29.0003 120.695,29.0753 L120.336,29.1202 L120.336,28.8204 C120.336,28.4832 120.463,28.3783 121.085,28.2135 C121.272,28.1685 121.655,28.0111 121.939,27.8687 C122.232,27.7263 122.501,27.6139 122.554,27.6139 C122.599,27.6139 122.809,27.5015 123.004,27.3666 C123.206,27.2317 123.543,27.0443 123.761,26.9619 C124.232,26.767 124.892,26.3474 124.945,26.1975 C124.968,26.1375 124.915,26.0176 124.832,25.9352 C124.585,25.6804 123.641,25.7253 122.772,26.0252 C122.404,26.1525 121.947,26.2949 121.76,26.3399 C121.572,26.3848 121.205,26.5572 120.935,26.7146 C120.666,26.872 120.351,27.0443 120.231,27.0893 C119.961,27.1867 119.174,27.6588 118.874,27.8987 C118.702,28.041 118.597,28.071 118.365,28.041 C118.2,28.0186 118.035,27.9662 117.99,27.9211 C117.855,27.7862 117.833,26.7371 117.96,26.3174 C118.267,25.2907 118.417,24.6162 118.432,24.1966 C118.44,23.8893 118.514,23.552 118.68,23.1324 C118.807,22.7951 118.912,22.4129 118.912,22.278 C118.912,22.1431 119.032,21.7909 119.174,21.4911 C119.414,20.9965 119.579,20.4719 119.587,20.1871 C119.587,20.1196 119.504,20.0298 119.399,19.9848 C119.159,19.8724 119.204,19.8649 118.912,20.0597 Z" style="stroke:none;fill-rule:evenodd;fill:#000000;fill-opacity:1;"/>
        </g>
        <g id="Shape6">
            <desc shapeID="6" type="0" basicInfo-basicType="0" basicInfo-roundedRectRadius="12" basicInfo-polygonSides="6" basicInfo-starPoints="5" bounding="rect(-123.074,-400.81,246.145,801.623)" text="" font-familyName="" font-pixelSize="20" font-bold="0" font-underline="0" font-alignment="1" strokeStyle="0" markerStart="0" markerEnd="0" shadowEnabled="0" shadowOffsetX="0" shadowOffsetY="2" shadowBlur="4" shadowOpacity="160" blurEnabled="0" blurRadius="4" transform="matrix(0.0615448,0,0,0.0615452,90.3947,54.212)" pers-center="0,0" pers-size="0,0" pers-start="0,0" pers-end="0,0" locked="0" mesh="" flag=""/>
            <path id="shapePath6" d="M92.5806,29.6707 C92.3285,29.843 91.8113,30.4708 91.6822,30.7662 C91.6329,30.8831 91.4668,31.2339 91.3128,31.5478 C91.0237,32.1509 91.0054,32.2433 91.1035,32.5325 C91.1589,32.6925 91.1406,32.7787 90.919,33.2157 C90.6299,33.788 90.5004,33.868 90.1437,33.6957 C89.9898,33.628 89.8975,33.5111 89.7867,33.2772 C89.6205,32.8956 89.479,32.7541 89.1528,32.6433 C88.7712,32.5141 88.7035,32.5879 88.7035,33.1602 C88.7035,33.548 88.7343,33.6957 88.845,33.9111 C89.0174,34.2312 89.0912,34.6189 89.0112,34.7728 C88.9559,34.8712 88.9374,34.8712 88.6912,34.7789 C88.4019,34.6743 87.9527,34.3666 87.7311,34.1265 C87.6511,34.0404 87.448,33.9296 87.2695,33.868 C87.091,33.8127 86.8387,33.7019 86.7033,33.628 C86.5679,33.548 86.2479,33.4434 85.9956,33.388 C85.7432,33.3326 85.2878,33.1788 84.9801,33.0495 C84.6785,32.9141 84.3154,32.791 84.1738,32.7664 C83.94,32.7295 83.9092,32.7418 83.7553,32.9203 C83.503,33.2218 83.4784,33.1972 84.4262,33.6957 C84.8016,33.8866 85.1893,34.1081 85.2878,34.1881 C85.3924,34.262 85.5586,34.342 85.6632,34.3604 C85.8724,34.4096 86.4818,34.8466 86.6787,35.099 C86.7464,35.1789 86.9433,35.2959 87.1218,35.3513 C87.2941,35.4128 87.5095,35.5236 87.5957,35.6036 C87.6819,35.6775 87.8726,35.8006 88.0266,35.8682 C88.5927,36.1268 89.1589,36.5268 89.3005,36.773 C89.3805,36.9023 89.4421,37.0438 89.4421,37.0807 C89.4421,37.1669 89.2266,37.2653 88.7528,37.3823 C88.5373,37.4377 88.285,37.5362 88.1804,37.5977 C87.9281,37.7515 87.5588,37.8316 86.8202,37.8993 C86.4756,37.93 86.1125,37.9977 86.0079,38.0531 C85.9033,38.1085 85.614,38.1946 85.3678,38.2439 C85.1216,38.2993 84.7523,38.4224 84.5492,38.5147 C84.3462,38.6132 84.0261,38.7363 83.8353,38.7917 C83.4968,38.884 82.9614,39.2532 82.8383,39.4748 C82.7583,39.6287 82.9491,39.7949 83.2752,39.8687 C83.5707,39.9303 84.1554,39.8195 84.6785,39.5979 C84.8077,39.5425 85.1955,39.444 85.534,39.3763 C85.8724,39.3025 86.3648,39.1856 86.6295,39.0994 C87.1157,38.9517 87.4418,38.9148 87.5772,39.0009 C87.6142,39.0256 87.6634,39.1486 87.688,39.2717 C87.7249,39.4748 87.7004,39.5549 87.4665,39.9364 C87.3188,40.1764 87.1033,40.5026 86.9926,40.6503 C86.8818,40.8042 86.7402,41.0935 86.6787,41.2904 C86.6171,41.4873 86.5063,41.7274 86.4325,41.8197 C86.3156,41.9674 86.3094,42.0043 86.3833,42.1151 C86.4387,42.2013 86.5495,42.2505 86.6972,42.2628 C86.8941,42.2813 86.968,42.2443 87.1895,42.0413 C87.3311,41.912 87.4911,41.7766 87.5403,41.7458 C87.6388,41.6842 87.9896,41.235 88.525,40.478 C88.845,40.0287 88.9866,39.8933 89.6144,39.4379 L89.8852,39.2471 L90.1559,39.3517 C90.3037,39.4071 90.445,39.481 90.4637,39.5179 C90.4882,39.5487 90.513,39.8317 90.5252,40.1456 C90.5313,40.4534 90.5684,40.7734 90.5989,40.8596 C90.6299,40.9581 90.6299,41.1858 90.5928,41.4627 C90.5435,41.8012 90.5435,41.9735 90.605,42.1705 C90.6421,42.312 90.673,42.4536 90.673,42.4905 C90.605,43.0383 90.5932,45.0262 90.673,45.8755 C90.8148,47.4572 90.5693,47.968 90.6369,48.1403 C90.7909,48.5343 90.8279,49.7221 90.8214,53.7102 C90.8153,55.9997 90.8092,56.8854 90.8092,57.1069 C90.8031,57.3285 90.8092,58.2948 90.8214,59.261 C90.834,61.0581 90.7538,62.9723 90.6308,63.8462 C90.4586,65.0277 90.4398,66.689 90.606,67.3534 C90.7538,67.9567 90.8092,68.5352 90.7538,68.8616 C90.6984,69.1879 90.5693,71.1032 90.5938,71.3741 C90.6308,71.7433 90.5816,73.1037 90.5201,73.4053 C90.4891,73.5718 90.4463,74.79 90.4276,76.107 C90.4093,77.4241 90.3783,78.5197 90.3661,78.5383 C90.3046,78.6428 90.5693,78.8395 90.8092,78.8707 C91.0185,78.895 91.0861,78.8768 91.1969,78.7598 C91.3077,78.6428 91.3264,78.5626 91.3077,78.3472 C91.2894,78.1994 91.3753,77.9611 91.4185,77.8683 C91.5231,77.6655 91.4738,77.2763 91.4062,76.3597 C91.3763,75.9532 91.3631,74.9564 91.3818,74.1438 C91.4001,73.3312 91.394,72.562 91.3757,72.4389 C91.357,72.3162 91.3757,72.0202 91.4185,71.7806 C91.4616,71.5466 91.5109,70.919 91.5292,70.3773 C91.548,69.8416 91.5911,70.0863 91.6278,69.9693 C91.7324,69.6369 91.708,67.9753 91.5972,67.5385 C91.5418,67.3352 91.4865,66.8923 91.4738,66.5538 C91.4616,66.2153 91.4185,65.6858 91.3818,65.3841 C91.2894,64.7134 91.3325,65.0154 91.4987,64.0922 C91.5724,63.7168 91.6278,62.8 91.6893,62.8 C91.8126,61.6675 91.8741,58.7994 91.8187,57.1993 C91.7878,56.35 91.7634,55.5191 91.7634,55.3529 C91.7572,55.1806 91.7202,54.8729 91.6832,54.6575 C91.6278,54.3621 91.6278,54.1836 91.6832,53.9189 C91.7695,53.5004 91.7878,53.8333 91.7572,51.5992 C91.7324,49.6113 91.6709,48.8543 91.5109,48.5896 C91.4372,48.4666 91.4766,48.2204 91.4518,47.9065 C91.4335,47.6357 91.3903,47.1925 91.3532,46.9218 C91.3163,46.6518 91.4794,45.7278 91.4423,44.8661 C91.3992,43.7707 91.387,43.266 91.3316,43.1736 C91.2884,43.0998 91.3144,42.8741 91.3128,42.7207 C91.3079,42.2128 91.3854,41.7684 91.3128,41.2411 C91.335,41.1001 91.3545,40.9586 91.3682,40.8165 C91.3873,40.6179 91.3682,40.4164 91.4114,40.2195 C91.5653,39.4871 91.6578,39.4194 92.236,39.6533 C92.4576,39.7394 92.6669,39.8133 92.7101,39.8133 C92.8331,39.8133 94.0454,40.4226 94.427,40.6749 C95.2396,41.2165 95.2578,41.2288 95.5842,41.2411 C95.8425,41.2535 95.9291,41.2288 96.0336,41.1242 L96.1627,40.9949 L96.0028,40.7181 C95.8615,40.478 94.9072,39.5794 94.3533,39.1609 L94.1749,39.0256 L94.3349,38.8409 C94.5809,38.5455 95.0117,38.4716 95.7688,38.6009 C97.215,38.8347 97.7199,38.8471 97.9045,38.644 C97.9968,38.5394 97.9968,38.527 97.8611,38.4285 C97.7814,38.3732 97.5721,38.2193 97.3875,38.0839 C97.2089,37.9546 97.0303,37.8439 96.9996,37.8439 C96.9627,37.8439 96.7413,37.7454 96.5012,37.6223 C95.9534,37.3453 94.4886,37.013 94.0454,37.0746 L93.7502,37.1115 L93.7502,36.8653 C93.7502,36.5883 93.8548,36.5022 94.3655,36.3668 C94.5193,36.3299 94.8335,36.2006 95.0671,36.0837 C95.3072,35.9667 95.5287,35.8744 95.5716,35.8744 C95.6089,35.8744 95.7809,35.7821 95.9413,35.6713 C96.1072,35.5605 96.3842,35.4067 96.5627,35.339 C96.9502,35.1789 97.4919,34.8343 97.5352,34.7112 C97.5539,34.662 97.5105,34.5635 97.4429,34.4958 C97.2397,34.2866 96.4644,34.3234 95.7506,34.5697 C95.4489,34.6743 95.0732,34.7912 94.9193,34.8282 C94.7655,34.8651 94.4639,35.0066 94.2425,35.1359 C94.021,35.2651 93.7624,35.4067 93.6638,35.4436 C93.4423,35.5236 92.796,35.9113 92.55,36.1083 C92.4083,36.2252 92.3224,36.2498 92.1314,36.2252 C91.9962,36.2068 91.8606,36.1637 91.8239,36.1268 C91.7132,36.0159 91.6944,35.1544 91.7991,34.8097 C92.0515,33.9665 92.1746,33.4127 92.1868,33.068 C92.1929,32.8156 92.2544,32.5387 92.39,32.1941 C92.4946,31.9171 92.5806,31.6032 92.5806,31.4924 C92.5806,31.3816 92.6791,31.0924 92.796,30.8462 C92.9931,30.44 93.1283,30.0092 93.1348,29.7753 C93.1348,29.7199 93.0668,29.6461 92.9809,29.6091 C92.7838,29.5168 92.8208,29.5106 92.5806,29.6707 Z" style="stroke:none;fill-rule:evenodd;fill:#000000;fill-opacity:1;"/>
        </g>
    </g>
</svg>
