<?xml version="1.0"?>
<svg version="1.1" xmlns="http://www.w3.org/2000/svg" xmlns:xlink="http://www.w3.org/1999/xlink" width="400" height="180">
    <desc iVinci="yes" version="4.6" gridStep="20" showGrid="no" snapToGrid="no" codePlatform="0"/>
    <g id="Layer1" name="Layer 2" opacity="1">
        <g id="Shape1">
            <desc shapeID="1" type="0" basicInfo-basicType="0" basicInfo-roundedRectRadius="12" basicInfo-polygonSides="6" basicInfo-starPoints="5" bounding="rect(-794.252,-40.4992,1588.51,80.9982)" text="OPENPIPELINE.IO" font-familyName="AppleGothic" font-pixelSize="100" font-bold="0" font-underline="0" font-alignment="1" strokeStyle="0" markerStart="0" markerEnd="0" shadowEnabled="0" shadowOffsetX="0" shadowOffsetY="2" shadowBlur="4" shadowOpacity="160" blurEnabled="0" blurRadius="4" transform="matrix(0.250063,0,0,0.250063,199.803,164.453)" pers-center="0,0" pers-size="0,0" pers-start="0,0" pers-end="0,0" locked="0" mesh="" flag=""/>
            <path id="shapePath1" d="M9.94328,174.58 C7.67583,174.58 5.69203,173.697 3.99147,171.929 C2.12444,170.012 1.19064,167.537 1.19064,164.502 C1.19064,161.602 2.06601,159.151 3.81662,157.151 C5.51685,155.267 7.53415,154.325 9.86832,154.325 C12.2355,154.325 14.2695,155.25 15.9699,157.101 C17.7203,159.051 18.5958,161.51 18.5958,164.478 C18.5958,167.562 17.6454,170.062 15.7448,171.98 C14.0611,173.714 12.1272,174.58 9.94328,174.58 M9.79323,172.73 C11.6437,172.73 13.2192,171.954 14.5196,170.404 C15.8367,168.821 16.4952,166.845 16.4952,164.478 C16.4952,163.327 16.3366,162.261 16.0201,161.277 C15.7032,160.294 15.228,159.401 14.5946,158.602 C13.3274,156.985 11.7605,156.176 9.89322,156.176 C8.04272,156.176 6.47557,156.985 5.19185,158.602 C3.92477,160.185 3.29141,162.161 3.29141,164.528 C3.29141,166.995 3.9583,169.004 5.29196,170.554 C6.54227,172.005 8.04272,172.73 9.79323,172.73 M34.784,154.651 L41.0609,154.651 C42.8612,154.651 44.3365,154.959 45.4867,155.576 C47.0372,156.443 47.8123,157.826 47.8123,159.727 C47.8123,161.56 47.1707,162.978 45.8868,163.978 C44.72,164.911 43.2195,165.378 41.3859,165.378 L36.7597,165.378 L36.7597,174.255 L34.784,174.255 L34.784,154.651 M41.0356,156.375 L36.7597,156.375 L36.7597,163.652 L41.1859,163.652 C42.3527,163.652 43.3613,163.344 44.2115,162.728 C45.1616,162.027 45.6369,161.086 45.6369,159.902 C45.6369,158.568 45.0784,157.609 43.9614,157.026 C43.1445,156.593 42.1693,156.375 41.0356,156.375 M64.1593,154.626 L76.3625,154.626 L76.3625,156.351 L66.1348,156.351 L66.1348,163.128 L75.9874,163.128 L75.9874,164.853 L66.1348,164.853 L66.1348,172.53 L76.4375,172.53 L76.4375,174.255 L64.1593,174.255 L64.1593,154.626 M93.0078,174.255 L93.0078,154.651 L94.8086,154.651 L106.861,171.255 L106.861,154.651 L108.662,154.651 L108.662,174.255 L106.861,174.255 L94.8086,157.677 L94.8086,174.255 L93.0078,174.255 M125.157,154.651 L131.434,154.651 C133.234,154.651 134.71,154.959 135.861,155.576 C137.41,156.443 138.186,157.826 138.186,159.727 C138.186,161.56 137.544,162.978 136.26,163.978 C135.094,164.911 133.593,165.378 131.76,165.378 L127.133,165.378 L127.133,174.255 L125.157,174.255 L125.157,154.651 M131.409,156.375 L127.133,156.375 L127.133,163.652 L131.56,163.652 C132.726,163.652 133.735,163.344 134.586,162.728 C135.535,162.027 136.01,161.086 136.01,159.902 C136.01,158.568 135.452,157.609 134.335,157.026 C133.518,156.593 132.543,156.375 131.409,156.375 M155.133,154.651 L157.083,154.651 L157.083,174.255 L155.133,174.255 L155.133,154.651 M174.056,154.651 L180.333,154.651 C182.132,154.651 183.608,154.959 184.759,155.576 C186.31,156.443 187.083,157.826 187.083,159.727 C187.083,161.56 186.443,162.978 185.158,163.978 C183.991,164.911 182.492,165.378 180.657,165.378 L176.032,165.378 L176.032,174.255 L174.056,174.255 L174.056,154.651 M180.308,156.375 L176.032,156.375 L176.032,163.652 L180.458,163.652 C181.624,163.652 182.633,163.344 183.483,162.728 C184.433,162.027 184.909,161.086 184.909,159.902 C184.909,158.568 184.349,157.609 183.233,157.026 C182.416,156.593 181.44,156.375 180.308,156.375 M203.429,154.626 L215.633,154.626 L215.633,156.351 L205.407,156.351 L205.407,163.128 L215.258,163.128 L215.258,164.853 L205.407,164.853 L205.407,172.53 L215.708,172.53 L215.708,174.255 L203.429,174.255 L203.429,154.626 M232.329,154.651 L234.305,154.651 L234.305,172.53 L243.982,172.53 L243.982,174.255 L232.329,174.255 L232.329,154.651 M260.752,154.651 L262.704,154.651 L262.704,174.255 L260.752,174.255 L260.752,154.651 M279.9,174.255 L279.9,154.651 L281.702,154.651 L293.752,171.255 L293.752,154.651 L295.554,154.651 L295.554,174.255 L293.752,174.255 L281.702,157.677 L281.702,174.255 L279.9,174.255 M312.125,154.626 L324.329,154.626 L324.329,156.351 L314.1,156.351 L314.1,163.128 L323.952,163.128 L323.952,164.853 L314.1,164.853 L314.1,172.53 L324.404,172.53 L324.404,174.255 L312.125,174.255 L312.125,154.626 M343.298,174.33 C342.899,174.33 342.556,174.163 342.273,173.83 C341.991,173.496 341.849,173.088 341.849,172.605 C341.849,172.105 341.994,171.684 342.287,171.342 C342.579,171 342.915,170.829 343.298,170.829 C343.665,170.829 343.995,170.984 344.287,171.292 C344.579,171.601 344.724,172.021 344.724,172.555 C344.724,173.055 344.583,173.476 344.299,173.817 C344.016,174.159 343.681,174.33 343.298,174.33 M362.113,154.651 L364.063,154.651 L364.063,174.255 L362.113,174.255 L362.113,154.651 M389.764,174.58 C387.497,174.58 385.512,173.697 383.813,171.929 C381.945,170.012 381.011,167.537 381.011,164.502 C381.011,161.602 381.887,159.151 383.637,157.151 C385.338,155.267 387.355,154.325 389.689,154.325 C392.057,154.325 394.091,155.25 395.79,157.101 C397.542,159.051 398.417,161.51 398.417,164.478 C398.417,167.562 397.447,170.043 395.566,171.98 C393.882,173.714 391.948,174.58 389.764,174.58 M389.615,172.73 C391.465,172.73 393.041,171.954 394.34,170.404 C395.656,168.821 396.316,166.845 396.316,164.478 C396.316,163.327 396.158,162.261 395.841,161.277 C395.524,160.294 395.049,159.401 394.416,158.602 C393.147,156.985 391.58,156.176 389.714,156.176 C387.863,156.176 386.297,156.985 385.012,158.602 C383.745,160.185 383.113,162.161 383.113,164.528 C383.113,166.995 383.78,169.004 385.113,170.554 C386.364,172.005 387.863,172.73 389.615,172.73 Z" style="stroke:none;fill-rule:evenodd;fill:#000000;fill-opacity:1;"/>
        </g>
        <g id="Shape2">
            <desc shapeID="2" type="0" basicInfo-basicType="0" basicInfo-roundedRectRadius="12" basicInfo-polygonSides="6" basicInfo-starPoints="5" bounding="rect(-26.418,-559.733,52.8358,1119.47)" text="" font-familyName="Helvetica" font-pixelSize="20" font-bold="0" font-underline="0" font-alignment="1" strokeStyle="0" markerStart="0" markerEnd="0" shadowEnabled="0" shadowOffsetX="0" shadowOffsetY="2" shadowBlur="4" shadowOpacity="160" blurEnabled="0" blurRadius="4" transform="matrix(0.0791534,0,0,0.0791534,156.981,98.6843)" pers-center="0,0" pers-size="0,0" pers-start="0,0" pers-end="0,0" locked="0" mesh="" flag=""/>
            <path id="shapePath2" d="M155.372,56.3998 C155.034,58.7408 154.903,61.1201 154.97,63.4846 C155.1,68.1428 155.717,72.7759 155.963,77.4294 C156.156,81.0755 156.204,84.7281 156.284,88.3784 C156.391,93.1342 156.598,97.8909 156.526,102.647 C156.478,105.757 156.097,108.852 155.922,111.957 C155.815,113.849 155.68,115.743 155.68,117.639 C155.68,119.455 155.997,121.266 155.922,123.08 C155.76,126.998 155.095,130.887 154.97,134.807 C154.892,137.226 154.731,139.713 155.318,142.061 C155.472,142.684 156.369,142.934 157.01,142.984 C157.542,143.025 158.276,142.805 158.46,142.303 C158.836,141.282 158.491,140.127 158.46,139.039 C158.37,135.774 158.098,132.513 158.098,129.246 C158.098,126.06 158.337,122.879 158.46,119.695 C158.659,114.535 159.021,109.381 159.065,104.219 C159.11,99.0646 158.917,93.9099 158.729,88.7588 C158.595,85.1196 158.426,81.4789 158.098,77.8521 C157.692,73.37 156.745,68.9376 156.526,64.4424 C156.382,61.4995 157.081,58.5622 157.01,55.6167 C156.998,55.1469 156.708,54.2048 156.284,54.4077 C155.626,54.7229 155.478,55.677 155.372,56.3998 Z" style="stroke:none;fill-rule:evenodd;fill:#000000;fill-opacity:1;"/>
        </g>
        <g id="Shape3">
            <desc shapeID="3" type="0" basicInfo-basicType="0" basicInfo-roundedRectRadius="12" basicInfo-polygonSides="6" basicInfo-starPoints="5" bounding="rect(-178.827,-166.994,357.656,333.987)" text="" font-familyName="Avenir" font-pixelSize="300" font-bold="0" font-underline="0" font-alignment="1" strokeStyle="0" markerStart="0" markerEnd="0" shadowEnabled="0" shadowOffsetX="0" shadowOffsetY="2" shadowBlur="4" shadowOpacity="160" blurEnabled="0" blurRadius="4" transform="matrix(0.0791534,0,0,0.0791534,156.452,52.0287)" pers-center="0,0" pers-size="0,0" pers-start="0,0" pers-end="0,0" locked="0" mesh="" flag=""/>
            <path id="shapePath3" d="M148.02,64.8618 L149.945,63.0651 L151.613,60.4985 L153.923,58.1886 L156.104,57.6753 L158.889,59.087 L160.869,61.6004 L164.242,63.0651 L165.251,61.917 L164.575,59.6002 L159.694,57.1621 L162.65,57.2903 L165.986,56.7768 L167.911,57.2903 L170.478,57.4185 L170.606,56.5202 L167.654,55.1087 L163.805,53.9536 L161.495,54.4671 L160.083,54.2103 L161.11,53.5686 L164.575,51.772 L168.04,50.4886 L170.35,49.5903 L170.221,48.9486 L167.012,48.6922 L163.805,50.1037 L161.11,51.387 L158.158,52.7988 L157.901,51.6437 L159.313,47.1522 L159.442,44.6302 L161.752,39.8372 L161.752,38.9387 L160.469,38.8106 L159.313,40.6073 L156.79,44.0722 L156.274,47.9636 L155.464,49.3338 L154.308,46.6387 L153.538,45.4838 L152.64,45.2273 L151.87,45.9971 L152.64,48.1788 L153.538,49.9755 L152.768,50.3604 L151.303,48.9486 L149.679,47.9636 C149.679,47.9636 147.506,47.4089 147.506,47.4089 L145.582,46.6387 L144.426,47.6654 L146.48,48.6922 L149.407,50.632 L152.126,51.772 L150.458,52.3461 L149.819,53.2072 L150.964,54.2103 L148.843,55.1087 L145.762,55.9771 L143.452,57.1621 L142.297,58.4454 L143.067,59.3435 L145.762,58.4454 L147.635,58.0601 L150.844,57.8034 L150.458,59.6002 L149.176,60.8835 L146.608,63.5785 L146.48,65.2468 L148.02,64.8618 Z" style="stroke:none;fill-rule:evenodd;fill:#000000;fill-opacity:1;"/>
        </g>
        <g id="Shape4">
            <desc shapeID="4" type="0" basicInfo-basicType="0" basicInfo-roundedRectRadius="12" basicInfo-polygonSides="6" basicInfo-starPoints="5" bounding="rect(-25.9188,-561.015,51.8375,1122.03)" text="" font-familyName="Helvetica" font-pixelSize="20" font-bold="0" font-underline="0" font-alignment="1" strokeStyle="0" markerStart="0" markerEnd="0" shadowEnabled="0" shadowOffsetX="0" shadowOffsetY="2" shadowBlur="4" shadowOpacity="160" blurEnabled="0" blurRadius="4" transform="matrix(0.0909333,0,0,0.0909333,127.329,92.309)" pers-center="0,0" pers-size="0,0" pers-start="0,0" pers-end="0,0" locked="0" mesh="" flag=""/>
            <path id="shapePath4" d="M125.445,43.6152 C125.055,46.3046 124.936,49.0373 124.981,51.7545 C125.06,56.5405 125.601,61.3084 125.814,66.0904 C126.002,70.2809 126.638,74.9134 126.769,79.106 C126.957,85.1317 127.352,90.7168 127.329,96.7454 C127.316,100.317 126.277,103.873 126.076,107.44 C125.953,109.615 125.797,111.79 125.797,113.969 C125.797,116.054 126.046,118.134 126.076,120.22 C126.139,124.709 126.218,129.203 126.076,133.692 C125.986,136.478 125.019,139.261 125.38,142.025 C125.482,142.799 126.554,143.261 127.333,143.321 C127.981,143.371 128.778,142.916 128.992,142.303 C129.402,141.123 129.027,139.803 128.992,138.553 C128.887,134.802 128.575,131.056 128.575,127.303 C128.575,123.643 128.434,119.988 128.575,116.33 C128.805,110.404 129.686,104.482 129.686,98.5513 C129.686,92.0654 129.13,85.5904 128.992,79.106 C128.898,74.755 127.937,70.4321 127.639,66.0904 C127.335,61.6614 126.808,57.2828 126.492,52.8547 C126.251,49.4832 126.695,46.0895 126.492,42.7155 C126.46,42.1766 126.979,41.0933 126.492,41.3264 C125.735,41.6885 125.564,42.7848 125.445,43.6152 Z" style="stroke:none;fill-rule:evenodd;fill:#000000;fill-opacity:1;"/>
        </g>
        <g id="Shape5">
            <desc shapeID="5" type="0" basicInfo-basicType="0" basicInfo-roundedRectRadius="12" basicInfo-polygonSides="6" basicInfo-starPoints="5" bounding="rect(-187.256,-132.891,374.515,265.782)" text="" font-familyName="Avenir" font-pixelSize="300" font-bold="0" font-underline="0" font-alignment="1" strokeStyle="0" markerStart="0" markerEnd="0" shadowEnabled="0" shadowOffsetX="0" shadowOffsetY="2" shadowBlur="4" shadowOpacity="160" blurEnabled="0" blurRadius="4" transform="matrix(0.0909333,0,0,0.0909333,125.917,41.6947)" pers-center="0,0" pers-size="0,0" pers-start="0,0" pers-end="0,0" locked="0" mesh="" flag=""/>
            <path id="shapePath5" d="M116.998,53.3365 C116.998,53.3365 119.209,51.2726 119.209,51.2726 C119.209,51.2726 121.126,48.324 121.126,48.324 C121.126,48.324 123.78,45.6702 123.78,45.6702 C123.78,45.6702 126.286,45.0804 126.286,45.0804 C126.286,45.0804 131.004,46.7022 131.004,46.7022 C131.004,46.7022 133.657,48.324 133.657,48.324 C133.657,48.324 137.343,49.7982 137.343,49.7982 C137.343,49.7982 137.932,48.6188 137.932,48.6188 C137.932,48.6188 136.311,46.9969 136.311,46.9969 C136.311,46.9969 133.51,44.7856 133.51,44.7856 C133.51,44.7856 133.805,44.1959 133.805,44.1959 C133.805,44.1959 137.638,44.0485 137.638,44.0485 C137.638,44.0485 139.849,44.6383 139.849,44.6383 C139.849,44.6383 142.798,44.7856 142.798,44.7856 C142.798,44.7856 142.945,43.7537 142.945,43.7537 C142.945,43.7537 139.555,42.1319 139.555,42.1319 C139.555,42.1319 135.132,40.8049 135.132,40.8049 C135.132,40.8049 132.478,41.3946 132.478,41.3946 C132.478,41.3946 130.856,41.0999 130.856,41.0999 C130.856,41.0999 132.035,40.3627 132.035,40.3627 C132.035,40.3627 136.016,38.2987 136.016,38.2987 C136.016,38.2987 139.997,36.8244 139.997,36.8244 C139.997,36.8244 142.65,35.7923 142.65,35.7923 C142.65,35.7923 142.502,35.0552 142.502,35.0552 C142.502,35.0552 138.817,34.7604 138.817,34.7604 C138.817,34.7604 135.132,36.3822 135.132,36.3822 C135.132,36.3822 132.035,37.8563 132.035,37.8563 C132.035,37.8563 128.645,39.4781 128.645,39.4781 C128.645,39.4781 129.069,38.5107 129.069,38.5107 C129.069,38.5107 131.115,35.7923 131.115,35.7923 C131.115,35.7923 132.478,32.8922 132.478,32.8922 C132.478,32.8922 137.071,31.3147 137.071,31.3147 C137.071,31.3147 137.071,30.2826 137.071,30.2826 C137.071,30.2826 135.596,30.1353 135.596,30.1353 C135.596,30.1353 132.795,29.6105 132.795,29.6105 C132.795,29.6105 128.401,31.9592 128.401,31.9592 C128.401,31.9592 126.48,33.9233 126.48,33.9233 C126.48,33.9233 125.549,35.4976 125.549,35.4976 C125.549,35.4976 124.222,32.4014 124.222,32.4014 C124.222,32.4014 123.337,31.0746 123.337,31.0746 C123.337,31.0746 122.305,30.7799 122.305,30.7799 C122.305,30.7799 121.421,31.6645 121.421,31.6645 C121.421,31.6645 122.305,34.1705 122.305,34.1705 C122.305,34.1705 123.337,36.2348 123.337,36.2348 C123.337,36.2348 122.452,36.6769 122.452,36.6769 C122.452,36.6769 120.093,34.613 120.093,34.613 C120.093,34.613 117.882,33.7285 117.882,33.7285 C117.882,33.7285 115.965,33.2859 115.965,33.2859 C115.965,33.2859 112.87,32.744 112.87,32.744 C112.87,32.744 110.659,32.744 110.659,32.744 C110.659,32.744 109.331,33.9233 109.331,33.9233 C109.331,33.9233 112.5,34.613 112.5,34.613 C112.5,34.613 116.555,36.2348 116.555,36.2348 C116.555,36.2348 121.716,38.2987 121.716,38.2987 C121.716,38.2987 123.337,39.4781 123.337,39.4781 C123.337,39.4781 122.6,41.2473 122.6,41.2473 C122.6,41.2473 120.536,41.9845 120.536,41.9845 C120.536,41.9845 117.734,42.7217 117.734,42.7217 C117.734,42.7217 113.311,43.7537 113.311,43.7537 C113.311,43.7537 110.216,44.6383 110.216,44.6383 C110.216,44.6383 108.889,46.1124 108.889,46.1124 C108.889,46.1124 109.774,47.1444 109.774,47.1444 C109.774,47.1444 112.87,46.1124 112.87,46.1124 C112.87,46.1124 116.555,45.5228 116.555,45.5228 C116.555,45.5228 120.241,45.2278 120.241,45.2278 C120.241,45.2278 119.799,47.292 119.799,47.292 C119.799,47.292 118.324,48.7662 118.324,48.7662 C118.324,48.7662 115.375,51.8624 115.375,51.8624 C115.375,51.8624 115.229,53.779 115.229,53.779 C115.229,53.779 116.998,53.3365 116.998,53.3365 Z" style="stroke:none;fill-rule:evenodd;fill:#000000;fill-opacity:1;"/>
        </g>
        <g id="Shape6">
            <desc shapeID="6" type="0" basicInfo-basicType="0" basicInfo-roundedRectRadius="12" basicInfo-polygonSides="6" basicInfo-starPoints="5" bounding="rect(-23.1394,-561.101,46.2786,1122.21)" text="" font-familyName="Helvetica" font-pixelSize="20" font-bold="0" font-underline="0" font-alignment="1" strokeStyle="0" markerStart="0" markerEnd="0" shadowEnabled="0" shadowOffsetX="0" shadowOffsetY="2" shadowBlur="4" shadowOpacity="160" blurEnabled="0" blurRadius="4" transform="matrix(0.0892257,0,0,0.0892253,264.328,93.2556)" pers-center="0,0" pers-size="0,0" pers-start="0,0" pers-end="0,0" locked="0" mesh="" flag=""/>
            <path id="shapePath6" d="M262.726,45.4688 C262.344,48.1077 262.228,50.789 262.272,53.455 C262.35,58.1512 262.88,62.8295 263.09,67.5215 C263.274,71.6334 263.518,75.7486 263.452,79.8639 C263.358,85.7822 262.635,91.6821 262.612,97.6011 C262.599,101.107 263.249,104.59 263.344,108.095 C263.402,110.231 263.072,112.364 263.072,114.501 C263.072,116.547 263.315,118.587 263.344,120.634 C263.406,125.04 263.484,129.449 263.344,133.853 C263.257,136.586 262.312,139.318 262.664,142.03 C262.763,142.791 263.807,143.257 264.572,143.317 C265.211,143.366 265.995,142.908 266.205,142.303 C266.609,141.144 266.239,139.85 266.205,138.623 C266.103,134.942 265.797,131.267 265.797,127.585 C265.797,123.993 266.247,120.409 266.205,116.817 C266.139,110.998 265.474,105.193 265.474,99.373 C265.474,93.0083 265.328,86.7998 265.474,80.4367 C265.572,76.1675 265.107,72.2696 264.815,68.0093 C264.517,63.6636 264.064,58.8795 263.754,54.5347 C263.519,51.2265 264.771,47.8966 264.572,44.5859 C264.54,44.0571 264.233,42.9944 263.754,43.2229 C263.012,43.5782 262.844,44.654 262.726,45.4688 Z" style="stroke:none;fill-rule:evenodd;fill:#000000;fill-opacity:1;"/>
        </g>
        <g id="Shape7">
            <desc shapeID="7" type="0" basicInfo-basicType="0" basicInfo-roundedRectRadius="12" basicInfo-polygonSides="6" basicInfo-starPoints="5" bounding="rect(-187.266,-154.101,374.531,308.202)" text="" font-familyName="Avenir" font-pixelSize="300" font-bold="0" font-underline="0" font-alignment="1" strokeStyle="0" markerStart="0" markerEnd="0" shadowEnabled="0" shadowOffsetX="0" shadowOffsetY="2" shadowBlur="4" shadowOpacity="160" blurEnabled="0" blurRadius="4" transform="matrix(0.087626,0.0168187,-0.0168187,0.087626,262.972,41.6711)" pers-center="0,0" pers-size="0,0" pers-start="0,0" pers-end="0,0" locked="0" mesh="" flag=""/>
            <path id="shapePath7" d="M251.869,53.0985 C251.869,53.0985 254.379,51.5185 254.379,51.5185 C254.379,51.5185 256.774,49.0315 256.774,49.0315 C256.774,49.0315 259.821,46.9652 259.821,46.9652 C259.821,46.9652 262.345,46.8604 262.345,46.8604 C262.345,46.8604 266.592,49.2958 266.592,49.2958 C266.592,49.2958 268.848,51.3495 268.848,51.3495 C268.848,51.3495 272.128,53.4518 272.128,53.4518 C272.128,53.4518 272.913,52.4241 272.913,52.4241 C272.913,52.4241 271.65,50.5615 271.65,50.5615 C271.65,50.5615 269.361,47.9127 269.361,47.9127 C269.361,47.9127 269.755,47.3987 269.755,47.3987 C269.755,47.3987 273.475,47.9656 273.475,47.9656 C273.475,47.9656 275.496,48.943 275.496,48.943 C275.496,48.943 278.312,49.6305 278.312,49.6305 C278.312,49.6305 278.644,48.663 278.644,48.663 C278.644,48.663 275.677,46.4733 275.677,46.4733 C275.677,46.4733 271.661,44.3767 271.661,44.3767 C271.661,44.3767 268.994,44.4542 268.994,44.4542 C268.994,44.4542 267.485,43.87 267.485,43.87 C267.485,43.87 268.759,43.3777 268.759,43.3777 C268.759,43.3777 272.975,42.1252 272.975,42.1252 C272.975,42.1252 277.084,41.4406 277.084,41.4406 C277.084,41.4406 279.831,40.9371 279.831,40.9371 C279.831,40.9371 279.826,40.1994 279.826,40.1994 C279.826,40.1994 276.331,39.2336 276.331,39.2336 C276.331,39.2336 272.479,40.1146 272.479,40.1146 C272.479,40.1146 269.22,40.9626 269.22,40.9626 C269.22,40.9626 265.655,41.8981 265.655,41.8981 C265.655,41.8981 265.617,40.5652 265.617,40.5652 C265.617,40.5652 268.416,37.4897 268.416,37.4897 C268.416,37.4897 271.661,36.6851 271.661,36.6851 C271.661,36.6851 274.501,33.0325 274.501,33.0325 C274.501,33.0325 277.332,31.56 277.332,31.56 C277.332,31.56 275.496,30.0742 275.496,30.0742 C275.496,30.0742 270.757,30.7248 270.757,30.7248 C270.757,30.7248 266.889,33.6202 266.889,33.6202 C266.889,33.6202 264.596,36.1452 264.596,36.1452 C264.596,36.1452 263.409,37.4897 263.409,37.4897 C263.409,37.4897 262.702,34.2607 262.702,34.2607 C262.702,34.2607 262.094,32.8187 262.094,32.8187 C262.094,32.8187 261.154,32.3437 261.154,32.3437 C261.154,32.3437 260.137,33.0325 260.137,33.0325 C260.137,33.0325 260.525,35.6113 260.525,35.6113 C260.525,35.6113 261.138,37.791 261.138,37.791 C261.138,37.791 260.204,38.0537 260.204,38.0537 C260.204,38.0537 258.314,35.6285 258.314,35.6285 C258.314,35.6285 256.287,33.9135 256.287,33.9135 C256.287,33.9135 254.523,33.1329 254.523,33.1329 C254.523,33.1329 252.465,31.56 252.465,31.56 C252.465,31.56 250.5,30.2986 250.5,30.2986 C250.5,30.2986 249.002,31.1896 249.002,31.1896 C249.002,31.1896 251.056,32.7626 251.056,32.7626 C251.056,32.7626 254.544,36.0834 254.544,36.0834 C254.544,36.0834 259.195,39.48 259.195,39.48 C259.195,39.48 260.54,40.9166 260.54,40.9166 C260.54,40.9166 259.503,42.485 259.503,42.485 C259.503,42.485 257.379,42.8137 257.379,42.8137 C257.379,42.8137 254.541,43.006 254.541,43.006 C254.541,43.006 250.086,43.1822 250.086,43.1822 C250.086,43.1822 246.942,43.4621 246.942,43.4621 C246.942,43.4621 245.389,44.6374 245.389,44.6374 C245.389,44.6374 246.051,45.7955 246.051,45.7955 C246.051,45.7955 249.226,45.3735 249.226,45.3735 C249.226,45.3735 252.886,45.4869 252.886,45.4869 C252.886,45.4869 256.493,45.8846 256.493,45.8846 C256.493,45.8846 255.686,47.7917 255.686,47.7917 C255.686,47.7917 253.99,48.9397 253.99,48.9397 C253.99,48.9397 250.577,51.3779 250.577,51.3779 C250.577,51.3779 250.081,53.1975 250.081,53.1975 C250.081,53.1975 251.869,53.0985 251.869,53.0985 Z" style="stroke:none;fill-rule:evenodd;fill:#000000;fill-opacity:1;"/>
        </g>
        <g id="Shape8">
            <desc shapeID="8" type="0" basicInfo-basicType="0" basicInfo-roundedRectRadius="12" basicInfo-polygonSides="6" basicInfo-starPoints="5" bounding="rect(-23.841,-560.752,47.6819,1121.51)" text="" font-familyName="Helvetica" font-pixelSize="20" font-bold="0" font-underline="0" font-alignment="1" strokeStyle="0" markerStart="0" markerEnd="0" shadowEnabled="0" shadowOffsetX="0" shadowOffsetY="2" shadowBlur="4" shadowOpacity="160" blurEnabled="0" blurRadius="4" transform="matrix(0.0733039,0,0,0.0733039,282.066,102.996)" pers-center="0,0" pers-size="0,0" pers-start="0,0" pers-end="0,0" locked="0" mesh="" flag=""/>
            <path id="shapePath8" d="M280.799,63.7621 C280.484,65.9301 280.389,68.133 280.425,70.3232 C280.49,74.1814 281.116,78.0212 281.098,81.8799 C281.083,85.1526 280.365,88.3951 280.325,91.6676 C280.266,96.527 280.595,101.384 280.799,106.24 C280.923,109.233 281.248,112.218 281.308,115.213 C281.344,116.968 281.085,118.72 281.085,120.475 C281.085,122.156 281.285,123.833 281.308,125.514 C281.359,129.134 281.424,132.756 281.308,136.375 C281.237,138.621 280.451,140.865 280.746,143.092 C280.829,143.712 281.707,144.05 282.331,144.099 C282.843,144.138 283.49,143.802 283.659,143.317 C283.992,142.365 283.687,141.301 283.659,140.294 C283.575,137.27 283.322,134.25 283.322,131.224 C283.322,128.275 283.681,125.33 283.659,122.379 C283.623,117.482 283.322,112.59 283.149,107.696 C282.965,102.47 282.487,97.2473 282.591,92.0199 C282.658,88.611 283.723,85.2561 283.659,81.8472 C283.593,78.269 282.457,74.78 282.202,71.2103 C282.007,68.4924 282.479,65.7567 282.315,63.0368 C282.289,62.6023 282.036,61.7293 281.643,61.917 C281.032,62.2089 280.895,63.0927 280.799,63.7621 Z" style="stroke:none;fill-rule:evenodd;fill:#000000;fill-opacity:1;"/>
        </g>
        <g id="Shape9">
            <desc shapeID="9" type="0" basicInfo-basicType="0" basicInfo-roundedRectRadius="12" basicInfo-polygonSides="6" basicInfo-starPoints="5" bounding="rect(-170.344,-142.46,340.691,284.918)" text="" font-familyName="Avenir" font-pixelSize="300" font-bold="0" font-underline="0" font-alignment="1" strokeStyle="0" markerStart="0" markerEnd="0" shadowEnabled="0" shadowOffsetX="0" shadowOffsetY="2" shadowBlur="4" shadowOpacity="160" blurEnabled="0" blurRadius="4" transform="matrix(0.0729523,0.00716872,-0.00716872,0.0729523,281.989,61.2147)" pers-center="0,0" pers-size="0,0" pers-start="0,0" pers-end="0,0" locked="0" mesh="" flag=""/>
            <path id="shapePath9" d="M275.321,70.6947 L276.957,69.9548 L278.398,67.8225 L280.352,65.9027 L282.41,65.6271 L284.915,67.2999 L288.068,68.8105 L290.91,70.2838 L291.475,69.3839 L290.303,67.955 L288.23,65.9599 L288.513,65.5102 L290.303,66.1055 L292.038,66.3416 L293.925,66.2137 L294.125,65.3974 L291.807,63.8142 L289.434,62.8945 L287.779,62.8945 L286.664,62.7938 L287.396,62.2955 L290.751,60.9534 L292.884,60.6327 L294.435,59.6749 L294.373,59.0719 L291.475,58.4726 L289.288,59.0719 L286.743,59.5718 L285.182,60.9002 L284.612,60.2307 L285.914,57.6966 L287.217,55.8475 L288.683,52.3345 L288.764,51.5066 L287.593,51.2722 L286.192,52.8234 L284.612,53.8526 L283.446,56.6915 L282.574,57.8809 L281.754,55.2925 L281.149,54.1583 L280.345,53.8404 L279.565,54.4802 L280.077,56.5606 L280.742,58.298 L279.997,58.5831 L278.398,56.8676 L276.479,55.4909 L274.643,54.985 L272.94,54.101 L271.783,54.9423 L273.783,56.6915 L276.103,58.1806 L278.874,60.3064 C278.874,60.3064 278.218,61.917 278.218,61.917 L275.939,62.555 L272.384,62.9836 L270.259,63.8228 L269.08,64.901 L269.709,65.7988 L272.273,65.2149 L274.568,65.2149 L277.192,65.2689 L276.566,66.4237 L275.735,67.5726 L274.138,69.3839 L273.869,70.9098 L275.321,70.6947 Z" style="stroke:none;fill-rule:evenodd;fill:#000000;fill-opacity:1;"/>
        </g>
        <g id="Shape10">
            <desc shapeID="10" type="0" basicInfo-basicType="0" basicInfo-roundedRectRadius="12" basicInfo-polygonSides="6" basicInfo-starPoints="5" bounding="rect(-123.073,-426.154,246.144,852.31)" text="" font-familyName="" font-pixelSize="20" font-bold="0" font-underline="0" font-alignment="1" strokeStyle="0" markerStart="0" markerEnd="0" shadowEnabled="0" shadowOffsetX="0" shadowOffsetY="2" shadowBlur="4" shadowOpacity="160" blurEnabled="0" blurRadius="4" transform="matrix(0.161807,0,0,0.161807,206.22,73.3479)" pers-center="0,0" pers-size="0,0" pers-start="0,0" pers-end="0,0" locked="0" mesh="" flag=""/>
            <path id="shapePath10" d="M211.967,4.72566 C211.304,5.17885 209.944,6.82925 209.604,7.60592 C209.475,7.9133 209.039,8.83567 208.634,9.66087 C207.873,11.2466 207.825,11.4894 208.083,12.2499 C208.229,12.6705 208.18,12.897 207.598,14.0458 C206.837,15.5505 206.498,15.761 205.56,15.308 C205.155,15.1299 204.913,14.8225 204.621,14.2076 C204.184,13.2044 203.812,12.8323 202.954,12.541 C201.951,12.2012 201.773,12.3954 201.773,13.9001 C201.773,14.9197 201.854,15.308 202.146,15.8742 C202.598,16.7157 202.793,17.7351 202.582,18.1396 C202.436,18.3985 202.388,18.3985 201.741,18.1557 C200.98,17.8807 199.8,17.0716 199.216,16.4406 C199.006,16.2141 198.472,15.9228 198.003,15.761 C197.534,15.6154 196.871,15.3241 196.515,15.1299 C196.159,14.9197 195.317,14.6445 194.654,14.4989 C193.99,14.3533 192.792,13.9488 191.984,13.609 C191.191,13.2529 190.237,12.9294 189.864,12.8646 C189.25,12.7676 189.168,12.8 188.764,13.2692 C188.101,14.062 188.035,13.9973 190.527,15.308 C191.515,15.8096 192.535,16.3921 192.792,16.6024 C193.068,16.7965 193.505,17.0069 193.78,17.0555 C194.33,17.1848 195.932,18.3337 196.449,18.9971 C196.628,19.2075 197.146,19.515 197.615,19.6605 C198.067,19.8223 198.634,20.1135 198.861,20.3239 C199.087,20.5181 199.589,20.8418 199.993,21.0197 C201.482,21.6993 202.97,22.751 203.342,23.3982 C203.554,23.7381 203.715,24.1103 203.715,24.2073 C203.715,24.4338 203.149,24.6927 201.903,25.0002 C201.336,25.1458 200.673,25.4047 200.398,25.5664 C199.734,25.971 198.764,26.1814 196.822,26.3593 C195.915,26.4403 194.961,26.6182 194.686,26.7639 C194.411,26.9096 193.651,27.136 193.003,27.2655 C192.356,27.4112 191.386,27.7347 190.851,27.9774 C190.317,28.2363 189.476,28.56 188.974,28.7055 C188.084,28.9483 186.676,29.9191 186.353,30.5016 C186.143,30.9061 186.645,31.3431 187.502,31.5372 C188.279,31.699 189.815,31.4077 191.191,30.8251 C191.53,30.6795 192.55,30.4207 193.44,30.2427 C194.33,30.0486 195.625,29.7411 196.32,29.5145 C197.598,29.1262 198.456,29.0291 198.812,29.2557 C198.91,29.3204 199.039,29.644 199.103,29.9677 C199.2,30.5016 199.136,30.712 198.521,31.7151 C198.133,32.3462 197.566,33.2038 197.275,33.5921 C196.984,33.9966 196.612,34.7571 196.449,35.2748 C196.287,35.7926 195.997,36.4237 195.802,36.6664 C195.495,37.0547 195.479,37.1519 195.673,37.4431 C195.818,37.6696 196.11,37.7991 196.498,37.8314 C197.016,37.88 197.21,37.783 197.793,37.2489 C198.165,36.9091 198.585,36.5531 198.715,36.4723 C198.974,36.3105 199.896,35.1292 201.304,33.1391 C202.146,31.9578 202.518,31.6018 204.168,30.4045 L204.88,29.9029 L205.592,30.1779 C205.98,30.3235 206.352,30.5177 206.401,30.6149 C206.465,30.6958 206.531,31.4401 206.563,32.2653 C206.578,33.0743 206.676,33.9158 206.757,34.1423 C206.837,34.4012 206.837,34.9998 206.741,35.728 C206.611,36.618 206.611,37.0709 206.772,37.5887 C206.87,37.9609 206.952,38.333 206.952,38.4302 C206.772,39.8702 206.742,45.0966 206.952,47.3296 C207.324,51.488 207.258,52.8309 207.436,53.2841 C207.841,54.3196 207.938,57.4424 207.921,67.9276 C207.905,73.9467 207.89,79.3511 207.89,79.9336 C207.873,80.5161 207.89,83.0566 207.921,85.5969 C207.955,90.3217 207.744,95.3541 207.421,97.6518 C206.967,100.758 206.918,108.201 207.355,109.948 C207.744,111.534 207.89,113.056 207.744,113.913 C207.598,114.77 207.258,121.857 207.323,122.57 C207.421,123.54 207.291,127.117 207.129,127.91 C207.047,128.346 206.935,131.55 206.886,135.013 C206.837,138.475 206.757,141.356 206.724,141.404 C206.563,141.679 207.258,142.197 207.89,142.278 C208.439,142.342 208.617,142.295 208.908,141.987 C209.2,141.679 209.249,141.469 209.2,140.903 C209.152,140.513 209.216,140.029 209.329,139.785 C209.604,139.252 209.637,138.087 209.459,135.677 C209.378,134.608 209.345,131.987 209.394,129.851 C209.442,127.715 209.427,125.693 209.378,125.369 C209.329,125.046 209.378,124.268 209.491,123.638 C209.604,123.022 209.734,121.373 209.782,119.949 C209.832,118.541 209.945,117.133 210.042,116.826 C210.316,115.952 210.252,111.583 209.961,110.434 C209.815,109.9 209.67,108.735 209.637,107.846 C209.604,106.956 209.491,105.564 209.394,104.771 C209.152,103.007 209.265,100.725 209.702,98.2985 C209.896,97.3113 210.107,95.7909 210.203,94.9012 C210.527,91.9237 210.689,84.3833 210.543,80.1763 C210.462,77.9435 210.398,75.7589 210.398,75.3222 C210.381,74.869 210.284,74.06 210.186,73.4938 C210.042,72.7171 210.042,72.2478 210.186,71.552 C210.414,70.4518 210.462,68.2512 210.381,62.3775 C210.316,57.1512 210.155,55.161 209.734,54.4652 C209.54,54.1416 209.394,53.4944 209.329,52.6691 C209.281,51.9572 209.168,50.7922 209.07,50.0802 C208.99,49.3683 209.071,46.9412 208.973,44.6758 C208.86,41.7958 208.829,40.4689 208.683,40.2261 C208.57,40.032 208.637,39.4385 208.634,39.0352 C208.621,37.6999 208.824,36.5317 208.634,35.1455 C208.691,34.7746 208.743,34.4025 208.778,34.029 C208.83,33.5068 208.778,32.9772 208.893,32.4594 C209.298,30.534 209.54,30.3561 211.06,30.9709 C211.643,31.1974 212.193,31.3916 212.307,31.3916 C212.63,31.3916 215.817,32.9933 216.821,33.6569 C218.956,35.0807 219.005,35.1131 219.863,35.1455 C220.543,35.1779 220.769,35.1131 221.044,34.8381 L221.384,34.4982 L220.963,33.7701 C220.592,33.1391 218.083,30.7767 216.627,29.6763 L216.158,29.3204 L216.579,28.835 C217.225,28.0584 218.358,27.8641 220.348,28.2039 C224.151,28.8188 225.478,28.8511 225.964,28.3172 C226.206,28.0421 226.206,28.0097 225.849,27.7509 C225.639,27.6053 225.09,27.2007 224.604,26.8447 C224.135,26.5049 223.666,26.2137 223.584,26.2137 C223.488,26.2137 222.905,25.9548 222.274,25.6313 C220.833,24.9031 216.983,24.0293 215.817,24.1911 L215.041,24.2883 L215.041,23.641 C215.041,22.9128 215.317,22.6864 216.659,22.3304 C217.064,22.2333 217.889,21.8934 218.504,21.586 C219.135,21.2785 219.717,21.036 219.83,21.036 C219.928,21.036 220.381,20.7932 220.802,20.5019 C221.238,20.2107 221.966,19.8061 222.435,19.6281 C223.455,19.2075 224.879,18.3013 224.992,17.9778 C225.041,17.8482 224.928,17.5894 224.75,17.4114 C224.216,16.8614 222.177,16.9583 220.3,17.6056 C219.507,17.8807 218.52,18.188 218.115,18.2852 C217.711,18.3823 216.918,18.7545 216.335,19.0942 C215.753,19.434 215.073,19.8061 214.814,19.9033 C214.232,20.1135 212.532,21.1329 211.886,21.6508 C211.514,21.9582 211.288,22.0229 210.785,21.9582 C210.43,21.9096 210.073,21.7964 209.976,21.6993 C209.686,21.408 209.637,19.1428 209.911,18.2367 C210.576,16.0198 210.899,14.5637 210.931,13.6575 C210.947,12.9941 211.109,12.2659 211.465,11.3599 C211.74,10.6318 211.967,9.80645 211.967,9.51528 C211.967,9.22401 212.226,8.46355 212.532,7.81625 C213.051,6.74829 213.406,5.6156 213.423,5.00084 C213.423,4.85514 213.245,4.66103 213.019,4.56397 C212.501,4.32122 212.598,4.30501 211.967,4.72566 Z" style="stroke:none;fill-rule:evenodd;fill:#000000;fill-opacity:1;"/>
        </g>
    </g>
</svg>
