<?xml version="1.0"?>
<svg version="1.1" xmlns="http://www.w3.org/2000/svg" xmlns:xlink="http://www.w3.org/1999/xlink" width="400" height="180">
    <desc iVinci="yes" version="4.6" gridStep="20" showGrid="no" snapToGrid="no" codePlatform="0"/>
    <g id="Layer1" name="Layer 1" opacity="1">
        <g id="Shape1">
            <desc shapeID="1" type="0" basicInfo-basicType="0" basicInfo-roundedRectRadius="12" basicInfo-polygonSides="6" basicInfo-starPoints="5" bounding="rect(-794.254,-40.4999,1588.51,80.9997)" text="OPENPIPELINE.IO" font-familyName="AppleGothic" font-pixelSize="100" font-bold="0" font-underline="0" font-alignment="1" strokeStyle="0" markerStart="0" markerEnd="0" shadowEnabled="0" shadowOffsetX="0" shadowOffsetY="2" shadowBlur="4" shadowOpacity="160" blurEnabled="0" blurRadius="4" transform="matrix(0.22982,0,0,0.22982,200,159.154)" pers-center="0,0" pers-size="0,0" pers-start="0,0" pers-end="0,0" locked="0" mesh="" flag=""/>
            <path id="shapePath1" d="M25.5086,168.461 C23.4247,168.461 21.6015,167.649 20.0386,166.025 C18.3227,164.263 17.4645,161.988 17.4645,159.199 C17.4645,156.534 18.269,154.281 19.8779,152.443 C21.4405,150.711 23.2945,149.846 25.4397,149.846 C27.6153,149.846 29.4846,150.696 31.0474,152.397 C32.6561,154.189 33.4607,156.449 33.4607,159.177 C33.4607,162.011 32.5872,164.309 30.8405,166.071 C29.2931,167.665 27.5157,168.461 25.5086,168.461 M25.3707,166.761 C27.0714,166.761 28.5193,166.048 29.7145,164.623 C30.9249,163.168 31.5301,161.352 31.5301,159.177 C31.5301,158.119 31.3844,157.139 31.0935,156.235 C30.8023,155.331 30.3655,154.511 29.7834,153.776 C28.6188,152.29 27.1787,151.547 25.4626,151.547 C23.7619,151.547 22.3216,152.29 21.1418,153.776 C19.9773,155.231 19.3952,157.047 19.3952,159.223 C19.3952,161.49 20.0081,163.336 21.2338,164.761 C22.3829,166.094 23.7619,166.761 25.3707,166.761 M48.3385,150.145 L54.1072,150.145 C55.7618,150.145 57.1177,150.428 58.1748,150.995 C59.5998,151.792 60.3121,153.063 60.3121,154.81 C60.3121,156.495 59.7224,157.798 58.5425,158.717 C57.4701,159.575 56.0911,160.004 54.4059,160.004 L50.1542,160.004 L50.1542,168.162 L48.3385,168.162 L48.3385,150.145 M54.084,151.73 L50.1542,151.73 L50.1542,158.418 L54.2221,158.418 C55.2945,158.418 56.2214,158.135 57.0028,157.568 C57.876,156.924 58.3128,156.059 58.3128,154.971 C58.3128,153.745 57.7995,152.864 56.7729,152.328 C56.0222,151.93 55.1259,151.73 54.084,151.73 M75.3358,150.122 L86.5512,150.122 L86.5512,151.708 L77.1514,151.708 L77.1514,157.936 L86.2064,157.936 L86.2064,159.521 L77.1514,159.521 L77.1514,166.577 L86.6201,166.577 L86.6201,168.162 L75.3358,168.162 L75.3358,150.122 M101.849,168.162 L101.849,150.145 L103.504,150.145 L114.581,165.405 L114.581,150.145 L116.236,150.145 L116.236,168.162 L114.581,168.162 L103.504,152.926 L103.504,168.162 L101.849,168.162 M131.396,150.145 L137.165,150.145 C138.819,150.145 140.175,150.428 141.233,150.995 C142.657,151.792 143.37,153.063 143.37,154.81 C143.37,156.495 142.78,157.798 141.6,158.717 C140.528,159.575 139.149,160.004 137.464,160.004 L133.212,160.004 L133.212,168.162 L131.396,168.162 L131.396,150.145 M137.142,151.73 L133.212,151.73 L133.212,158.418 L137.28,158.418 C138.352,158.418 139.279,158.135 140.061,157.568 C140.934,156.924 141.37,156.059 141.37,154.971 C141.37,153.745 140.857,152.864 139.831,152.328 C139.08,151.93 138.184,151.73 137.142,151.73 M158.945,150.145 L160.737,150.145 L160.737,168.162 L158.945,168.162 L158.945,150.145 M176.336,150.145 L182.105,150.145 C183.759,150.145 185.115,150.428 186.173,150.995 C187.598,151.792 188.309,153.063 188.309,154.81 C188.309,156.495 187.721,157.798 186.54,158.717 C185.467,159.575 184.089,160.004 182.403,160.004 L178.152,160.004 L178.152,168.162 L176.336,168.162 L176.336,150.145 M182.082,151.73 L178.152,151.73 L178.152,158.418 L182.22,158.418 C183.292,158.418 184.219,158.135 185,157.568 C185.873,156.924 186.311,156.059 186.311,154.971 C186.311,153.745 185.796,152.864 184.77,152.328 C184.02,151.93 183.123,151.73 182.082,151.73 M203.332,150.122 L214.548,150.122 L214.548,151.708 L205.149,151.708 L205.149,157.936 L214.203,157.936 L214.203,159.521 L205.149,159.521 L205.149,166.577 L214.617,166.577 L214.617,168.162 L203.332,168.162 L203.332,150.122 M229.892,150.145 L231.708,150.145 L231.708,166.577 L240.602,166.577 L240.602,168.162 L229.892,168.162 L229.892,150.145 M256.014,150.145 L257.808,150.145 L257.808,168.162 L256.014,168.162 L256.014,150.145 M273.612,168.162 L273.612,150.145 L275.268,150.145 L286.343,165.405 L286.343,150.145 L287.999,150.145 L287.999,168.162 L286.343,168.162 L275.268,152.926 L275.268,168.162 L273.612,168.162 M303.229,150.122 L314.445,150.122 L314.445,151.708 L305.044,151.708 L305.044,157.936 L314.098,157.936 L314.098,159.521 L305.044,159.521 L305.044,166.577 L314.514,166.577 L314.514,168.162 L303.229,168.162 L303.229,150.122 M331.878,168.231 C331.511,168.231 331.196,168.078 330.936,167.772 C330.677,167.465 330.546,167.09 330.546,166.646 C330.546,166.186 330.68,165.799 330.949,165.485 C331.217,165.171 331.526,165.014 331.878,165.014 C332.215,165.014 332.519,165.156 332.787,165.439 C333.055,165.723 333.189,166.109 333.189,166.6 C333.189,167.059 333.059,167.446 332.798,167.76 C332.538,168.074 332.23,168.231 331.878,168.231 M349.17,150.145 L350.962,150.145 L350.962,168.162 L349.17,168.162 L349.17,150.145 M374.583,168.461 C372.499,168.461 370.675,167.649 369.113,166.025 C367.397,164.263 366.538,161.988 366.538,159.199 C366.538,156.534 367.343,154.281 368.952,152.443 C370.515,150.711 372.369,149.846 374.514,149.846 C376.69,149.846 378.559,150.696 380.121,152.397 C381.731,154.189 382.535,156.449 382.535,159.177 C382.535,162.011 381.644,164.291 379.915,166.071 C378.367,167.665 376.59,168.461 374.583,168.461 M374.446,166.761 C376.146,166.761 377.594,166.048 378.788,164.623 C379.998,163.168 380.604,161.352 380.604,159.177 C380.604,158.119 380.459,157.139 380.168,156.235 C379.876,155.331 379.44,154.511 378.858,153.776 C377.692,152.29 376.252,151.547 374.537,151.547 C372.836,151.547 371.396,152.29 370.215,153.776 C369.051,155.231 368.47,157.047 368.47,159.223 C368.47,161.49 369.083,163.336 370.308,164.761 C371.458,166.094 372.836,166.761 374.446,166.761 Z" style="stroke:none;fill-rule:evenodd;fill:url(#linearGradientFill1);fill-opacity:1;"/><defs><linearGradient id="linearGradientFill1" gradientUnits="userSpaceOnUse" x1="203.326" y1="149.846" x2="203.326" y2="168.461"><stop offset="0" stop-color="#e5ce7e" stop-opacity="1"/><stop offset="1" stop-color="#c5aa6c" stop-opacity="1"/></linearGradient></defs>
        </g>
        <g id="Shape2">
            <desc shapeID="2" type="0" basicInfo-basicType="0" basicInfo-roundedRectRadius="12" basicInfo-polygonSides="6" basicInfo-starPoints="5" bounding="rect(-26.4178,-559.73,52.8355,1119.46)" text="" font-familyName="Helvetica" font-pixelSize="20" font-bold="0" font-underline="0" font-alignment="1" strokeStyle="0" markerStart="0" markerEnd="0" shadowEnabled="0" shadowOffsetX="0" shadowOffsetY="2" shadowBlur="4" shadowOpacity="160" blurEnabled="0" blurRadius="4" transform="matrix(0.0727459,0,0,0.0727459,160.643,98.7088)" pers-center="0,0" pers-size="0,0" pers-start="0,0" pers-end="0,0" locked="0" mesh="" flag=""/>
            <path id="shapePath2" d="M159.165,59.8475 C158.854,61.999 158.734,64.1857 158.795,66.3588 C158.915,70.6399 159.482,74.8979 159.708,79.1747 C159.885,82.5257 159.929,85.8826 160.003,89.2374 C160.101,93.6082 160.292,97.9799 160.225,102.351 C160.181,105.209 159.831,108.054 159.67,110.907 C159.572,112.646 159.448,114.387 159.448,116.129 C159.448,117.798 159.739,119.463 159.67,121.13 C159.521,124.731 158.91,128.305 158.795,131.908 C158.724,134.131 158.576,136.416 159.115,138.574 C159.257,139.147 160.081,139.377 160.67,139.423 C161.159,139.46 161.834,139.258 162.003,138.797 C162.348,137.858 162.031,136.797 162.003,135.797 C161.92,132.796 161.67,129.799 161.67,126.797 C161.67,123.869 161.89,120.945 162.003,118.019 C162.186,113.277 162.518,108.54 162.559,103.796 C162.6,99.0585 162.423,94.3211 162.25,89.587 C162.127,86.2424 161.972,82.8964 161.67,79.5632 C161.297,75.4439 160.427,71.3703 160.225,67.239 C160.093,64.5344 160.735,61.8348 160.67,59.1278 C160.659,58.696 160.393,57.8302 160.003,58.0166 C159.398,58.3063 159.262,59.1832 159.165,59.8475 Z" style="stroke:none;fill-rule:evenodd;fill:url(#linearGradientFill2);fill-opacity:1;"/><defs><linearGradient id="linearGradientFill2" gradientUnits="userSpaceOnUse" x1="145.716" y1="142.411" x2="148.41" y2="14.661"><stop offset="0.141844" stop-color="#e5ce7e" stop-opacity="1"/><stop offset="0.996216" stop-color="#b99d65" stop-opacity="1"/></linearGradient></defs>
        </g>
        <g id="Shape3">
            <desc shapeID="3" type="0" basicInfo-basicType="0" basicInfo-roundedRectRadius="12" basicInfo-polygonSides="6" basicInfo-starPoints="5" bounding="rect(-178.823,-166.994,357.648,333.987)" text="" font-familyName="Avenir" font-pixelSize="300" font-bold="0" font-underline="0" font-alignment="1" strokeStyle="0" markerStart="0" markerEnd="0" shadowEnabled="0" shadowOffsetX="0" shadowOffsetY="2" shadowBlur="4" shadowOpacity="160" blurEnabled="0" blurRadius="4" transform="matrix(0.0727459,0,0,0.0727459,160.157,55.8302)" pers-center="0,0" pers-size="0,0" pers-start="0,0" pers-end="0,0" locked="0" mesh="" flag=""/>
            <path id="shapePath3" d="M152.408,67.6245 L154.177,65.9732 L155.71,63.6144 L157.833,61.4915 L159.838,61.0197 L162.397,62.3172 L164.217,64.6271 L167.317,65.9732 L168.244,64.9181 L167.623,62.7888 L163.137,60.5481 L165.854,60.6659 L168.92,60.194 L170.689,60.6659 L173.048,60.7837 L173.166,59.9581 L170.453,58.6609 L166.915,57.5993 L164.792,58.0712 L163.494,57.8352 L164.438,57.2455 L167.623,55.5943 L170.807,54.4148 L172.93,53.5892 L172.812,52.9995 L169.863,52.7638 L166.915,54.0611 L164.438,55.2405 L161.725,56.538 L161.489,55.4764 L162.787,51.3485 L162.905,49.0306 L165.028,44.6256 L165.028,43.7999 L163.849,43.6821 L162.787,45.3334 L160.468,48.5178 L159.994,52.0942 L159.249,53.3535 L158.187,50.8766 L157.479,49.8151 L156.654,49.5794 L155.946,50.2869 L156.654,52.292 L157.479,53.9432 L156.772,54.297 L155.425,52.9995 L153.933,52.0942 C153.933,52.0942 151.936,51.5844 151.936,51.5844 L150.167,50.8766 L149.105,51.8201 L150.993,52.7638 L153.683,54.5466 L156.182,55.5943 L154.649,56.1219 L154.061,56.9133 L155.114,57.8352 L153.164,58.6609 L150.333,59.459 L148.21,60.5481 L147.148,61.7275 L147.856,62.5529 L150.333,61.7275 L152.054,61.3734 L155.003,61.1375 L154.649,62.7888 L153.47,63.9682 L151.11,66.4451 L150.993,67.9783 L152.408,67.6245 Z" style="stroke:none;fill-rule:evenodd;fill:url(#linearGradientFill3);fill-opacity:1;"/><defs><linearGradient id="linearGradientFill3" gradientUnits="userSpaceOnUse" x1="145.716" y1="142.411" x2="148.41" y2="14.661"><stop offset="0.141844" stop-color="#e5ce7e" stop-opacity="1"/><stop offset="0.996216" stop-color="#b99d65" stop-opacity="1"/></linearGradient></defs>
        </g>
        <g id="Shape4">
            <desc shapeID="4" type="0" basicInfo-basicType="0" basicInfo-roundedRectRadius="12" basicInfo-polygonSides="6" basicInfo-starPoints="5" bounding="rect(-25.92,-561.013,51.8399,1122.03)" text="" font-familyName="Helvetica" font-pixelSize="20" font-bold="0" font-underline="0" font-alignment="1" strokeStyle="0" markerStart="0" markerEnd="0" shadowEnabled="0" shadowOffsetX="0" shadowOffsetY="2" shadowBlur="4" shadowOpacity="160" blurEnabled="0" blurRadius="4" transform="matrix(0.0835722,0,0,0.0835722,133.392,92.8496)" pers-center="0,0" pers-size="0,0" pers-start="0,0" pers-end="0,0" locked="0" mesh="" flag=""/>
            <path id="shapePath4" d="M131.66,48.0978 C131.302,50.5695 131.193,53.081 131.234,55.5782 C131.307,59.9768 131.804,64.3587 132,68.7536 C132.172,72.6049 132.757,76.8624 132.877,80.7156 C133.05,86.2535 133.413,91.3865 133.392,96.9271 C133.38,100.21 132.425,103.478 132.24,106.756 C132.127,108.755 131.984,110.754 131.984,112.756 C131.984,114.673 132.213,116.584 132.24,118.501 C132.298,122.627 132.371,126.757 132.24,130.883 C132.158,133.443 131.269,136.001 131.601,138.541 C131.694,139.253 132.68,139.677 133.396,139.732 C133.991,139.778 134.724,139.36 134.92,138.797 C135.297,137.712 134.952,136.499 134.92,135.35 C134.824,131.903 134.537,128.46 134.537,125.011 C134.537,121.647 134.407,118.288 134.537,114.926 C134.748,109.48 135.558,104.037 135.558,98.5868 C135.558,92.6259 135.047,86.6751 134.92,80.7156 C134.834,76.7168 133.951,72.7439 133.677,68.7536 C133.397,64.6832 132.913,60.659 132.623,56.5894 C132.401,53.4908 132.809,50.3718 132.623,47.2709 C132.593,46.7757 133.07,45.7801 132.623,45.9943 C131.927,46.3271 131.77,47.3346 131.66,48.0978 Z" style="stroke:none;fill-rule:evenodd;fill:url(#linearGradientFill4);fill-opacity:1;"/><defs><linearGradient id="linearGradientFill4" gradientUnits="userSpaceOnUse" x1="148.746" y1="142.411" x2="151.44" y2="14.661"><stop offset="0.141844" stop-color="#e5ce7e" stop-opacity="1"/><stop offset="0.996216" stop-color="#b99d65" stop-opacity="1"/></linearGradient></defs>
        </g>
        <g id="Shape5">
            <desc shapeID="5" type="0" basicInfo-basicType="0" basicInfo-roundedRectRadius="12" basicInfo-polygonSides="6" basicInfo-starPoints="5" bounding="rect(-187.259,-132.891,374.52,265.782)" text="" font-familyName="Avenir" font-pixelSize="300" font-bold="0" font-underline="0" font-alignment="1" strokeStyle="0" markerStart="0" markerEnd="0" shadowEnabled="0" shadowOffsetX="0" shadowOffsetY="2" shadowBlur="4" shadowOpacity="160" blurEnabled="0" blurRadius="4" transform="matrix(0.0835722,0,0,0.0835722,132.094,46.3328)" pers-center="0,0" pers-size="0,0" pers-start="0,0" pers-end="0,0" locked="0" mesh="" flag=""/>
            <path id="shapePath5" d="M123.897,57.0322 C123.897,57.0322 125.929,55.1353 125.929,55.1353 C125.929,55.1353 127.691,52.4254 127.691,52.4254 C127.691,52.4254 130.13,49.9865 130.13,49.9865 C130.13,49.9865 132.433,49.4444 132.433,49.4444 C132.433,49.4444 136.769,50.9349 136.769,50.9349 C136.769,50.9349 139.208,52.4254 139.208,52.4254 C139.208,52.4254 142.595,53.7803 142.595,53.7803 C142.595,53.7803 143.137,52.6964 143.137,52.6964 C143.137,52.6964 141.647,51.2058 141.647,51.2058 C141.647,51.2058 139.073,49.1735 139.073,49.1735 C139.073,49.1735 139.344,48.6315 139.344,48.6315 C139.344,48.6315 142.866,48.496 142.866,48.496 C142.866,48.496 144.898,49.0381 144.898,49.0381 C144.898,49.0381 147.609,49.1735 147.609,49.1735 C147.609,49.1735 147.744,48.2251 147.744,48.2251 C147.744,48.2251 144.628,46.7346 144.628,46.7346 C144.628,46.7346 140.563,45.515 140.563,45.515 C140.563,45.515 138.124,46.057 138.124,46.057 C138.124,46.057 136.633,45.7861 136.633,45.7861 C136.633,45.7861 137.717,45.1086 137.717,45.1086 C137.717,45.1086 141.376,43.2117 141.376,43.2117 C141.376,43.2117 145.034,41.8567 145.034,41.8567 C145.034,41.8567 147.473,40.9082 147.473,40.9082 C147.473,40.9082 147.337,40.2307 147.337,40.2307 C147.337,40.2307 143.95,39.9598 143.95,39.9598 C143.95,39.9598 140.563,41.4503 140.563,41.4503 C140.563,41.4503 137.717,42.8051 137.717,42.8051 C137.717,42.8051 134.601,44.2956 134.601,44.2956 C134.601,44.2956 134.991,43.4065 134.991,43.4065 C134.991,43.4065 136.871,40.9082 136.871,40.9082 C136.871,40.9082 138.124,38.2428 138.124,38.2428 C138.124,38.2428 142.345,36.793 142.345,36.793 C142.345,36.793 142.345,35.8445 142.345,35.8445 C142.345,35.8445 140.99,35.7091 140.99,35.7091 C140.99,35.7091 138.415,35.2268 138.415,35.2268 C138.415,35.2268 134.377,37.3854 134.377,37.3854 C134.377,37.3854 132.612,39.1905 132.612,39.1905 C132.612,39.1905 131.756,40.6373 131.756,40.6373 C131.756,40.6373 130.536,37.7918 130.536,37.7918 C130.536,37.7918 129.723,36.5724 129.723,36.5724 C129.723,36.5724 128.775,36.3015 128.775,36.3015 C128.775,36.3015 127.962,37.1145 127.962,37.1145 C127.962,37.1145 128.775,39.4177 128.775,39.4177 C128.775,39.4177 129.723,41.3149 129.723,41.3149 C129.723,41.3149 128.91,41.7212 128.91,41.7212 C128.91,41.7212 126.742,39.8243 126.742,39.8243 C126.742,39.8243 124.71,39.0114 124.71,39.0114 C124.71,39.0114 122.948,38.6047 122.948,38.6047 C122.948,38.6047 120.103,38.1066 120.103,38.1066 C120.103,38.1066 118.071,38.1066 118.071,38.1066 C118.071,38.1066 116.851,39.1905 116.851,39.1905 C116.851,39.1905 119.763,39.8243 119.763,39.8243 C119.763,39.8243 123.49,41.3149 123.49,41.3149 C123.49,41.3149 128.233,43.2117 128.233,43.2117 C128.233,43.2117 129.723,44.2956 129.723,44.2956 C129.723,44.2956 129.046,45.9216 129.046,45.9216 C129.046,45.9216 127.149,46.5991 127.149,46.5991 C127.149,46.5991 124.574,47.2766 124.574,47.2766 C124.574,47.2766 120.509,48.2251 120.509,48.2251 C120.509,48.2251 117.664,49.0381 117.664,49.0381 C117.664,49.0381 116.445,50.3929 116.445,50.3929 C116.445,50.3929 117.258,51.3413 117.258,51.3413 C117.258,51.3413 120.103,50.3929 120.103,50.3929 C120.103,50.3929 123.49,49.851 123.49,49.851 C123.49,49.851 126.878,49.5799 126.878,49.5799 C126.878,49.5799 126.471,51.477 126.471,51.477 C126.471,51.477 125.116,52.8318 125.116,52.8318 C125.116,52.8318 122.406,55.6774 122.406,55.6774 C122.406,55.6774 122.271,57.4388 122.271,57.4388 C122.271,57.4388 123.897,57.0322 123.897,57.0322 Z" style="stroke:none;fill-rule:evenodd;fill:url(#linearGradientFill5);fill-opacity:1;"/><defs><linearGradient id="linearGradientFill5" gradientUnits="userSpaceOnUse" x1="148.746" y1="142.411" x2="151.44" y2="14.661"><stop offset="0.141844" stop-color="#e5ce7e" stop-opacity="1"/><stop offset="0.996216" stop-color="#b99d65" stop-opacity="1"/></linearGradient></defs>
        </g>
        <g id="Shape6">
            <desc shapeID="6" type="0" basicInfo-basicType="0" basicInfo-roundedRectRadius="12" basicInfo-polygonSides="6" basicInfo-starPoints="5" bounding="rect(-23.1373,-561.1,46.2745,1122.21)" text="" font-familyName="Helvetica" font-pixelSize="20" font-bold="0" font-underline="0" font-alignment="1" strokeStyle="0" markerStart="0" markerEnd="0" shadowEnabled="0" shadowOffsetX="0" shadowOffsetY="2" shadowBlur="4" shadowOpacity="160" blurEnabled="0" blurRadius="4" transform="matrix(0.0820028,0,0,0.0820025,259.301,93.7197)" pers-center="0,0" pers-size="0,0" pers-start="0,0" pers-end="0,0" locked="0" mesh="" flag=""/>
            <path id="shapePath6" d="M257.828,49.8014 C257.477,52.2266 257.371,54.6909 257.411,57.1411 C257.483,61.4571 257.97,65.7567 258.163,70.0689 C258.332,73.8479 258.556,77.63 258.496,81.4122 C258.409,86.8514 257.745,92.2737 257.724,97.7135 C257.712,100.936 258.309,104.137 258.396,107.358 C258.45,109.321 258.146,111.281 258.146,113.245 C258.146,115.126 258.37,117.001 258.396,118.882 C258.453,122.931 258.525,126.983 258.396,131.031 C258.316,133.543 257.448,136.053 257.771,138.546 C257.862,139.245 258.822,139.674 259.525,139.729 C260.112,139.774 260.833,139.353 261.026,138.797 C261.397,137.732 261.057,136.542 261.026,135.415 C260.932,132.032 260.651,128.654 260.651,125.27 C260.651,121.969 261.064,118.675 261.026,115.374 C260.965,110.026 260.354,104.691 260.354,99.342 C260.354,93.4925 260.22,87.7866 260.354,81.9386 C260.444,78.015 260.017,74.4326 259.748,70.5172 C259.474,66.5233 259.058,62.1265 258.773,58.1334 C258.557,55.093 259.708,52.0326 259.525,48.9899 C259.496,48.5039 259.213,47.5273 258.773,47.7373 C258.091,48.0638 257.937,49.0525 257.828,49.8014 Z" style="stroke:none;fill-rule:evenodd;fill:url(#linearGradientFill6);fill-opacity:1;"/><defs><linearGradient id="linearGradientFill6" gradientUnits="userSpaceOnUse" x1="143.191" y1="142.411" x2="145.885" y2="14.661"><stop offset="0.141844" stop-color="#e5ce7e" stop-opacity="1"/><stop offset="0.996216" stop-color="#b99d65" stop-opacity="1"/></linearGradient></defs>
        </g>
        <g id="Shape7">
            <desc shapeID="7" type="0" basicInfo-basicType="0" basicInfo-roundedRectRadius="12" basicInfo-polygonSides="6" basicInfo-starPoints="5" bounding="rect(-187.263,-154.101,374.526,308.202)" text="" font-familyName="Avenir" font-pixelSize="300" font-bold="0" font-underline="0" font-alignment="1" strokeStyle="0" markerStart="0" markerEnd="0" shadowEnabled="0" shadowOffsetX="0" shadowOffsetY="2" shadowBlur="4" shadowOpacity="160" blurEnabled="0" blurRadius="4" transform="matrix(0.0805326,0.0154572,-0.0154572,0.0805326,258.055,46.3111)" pers-center="0,0" pers-size="0,0" pers-start="0,0" pers-end="0,0" locked="0" mesh="" flag=""/>
            <path id="shapePath7" d="M247.85,56.8134 C247.85,56.8134 250.157,55.3613 250.157,55.3613 C250.157,55.3613 252.358,53.0757 252.358,53.0757 C252.358,53.0757 255.159,51.1766 255.159,51.1766 C255.159,51.1766 257.478,51.0803 257.478,51.0803 C257.478,51.0803 261.381,53.3186 261.381,53.3186 C261.381,53.3186 263.455,55.206 263.455,55.206 C263.455,55.206 266.469,57.1381 266.469,57.1381 C266.469,57.1381 267.191,56.1936 267.191,56.1936 C267.191,56.1936 266.03,54.4818 266.03,54.4818 C266.03,54.4818 263.926,52.0474 263.926,52.0474 C263.926,52.0474 264.288,51.575 264.288,51.575 C264.288,51.575 267.707,52.096 267.707,52.096 C267.707,52.096 269.565,52.9943 269.565,52.9943 C269.565,52.9943 272.153,53.6262 272.153,53.6262 C272.153,53.6262 272.458,52.737 272.458,52.737 C272.458,52.737 269.731,50.7245 269.731,50.7245 C269.731,50.7245 266.04,48.7977 266.04,48.7977 C266.04,48.7977 263.589,48.8689 263.589,48.8689 C263.589,48.8689 262.202,48.332 262.202,48.332 C262.202,48.332 263.373,47.8795 263.373,47.8795 C263.373,47.8795 267.248,46.7284 267.248,46.7284 C267.248,46.7284 271.024,46.0992 271.024,46.0992 C271.024,46.0992 273.549,45.6365 273.549,45.6365 C273.549,45.6365 273.544,44.9585 273.544,44.9585 C273.544,44.9585 270.332,44.0709 270.332,44.0709 C270.332,44.0709 266.792,44.8806 266.792,44.8806 C266.792,44.8806 263.797,45.6599 263.797,45.6599 C263.797,45.6599 260.52,46.5197 260.52,46.5197 C260.52,46.5197 260.485,45.2947 260.485,45.2947 C260.485,45.2947 263.058,42.4682 263.058,42.4682 C263.058,42.4682 266.04,41.7287 266.04,41.7287 C266.04,41.7287 268.65,38.3718 268.65,38.3718 C268.65,38.3718 271.252,37.0185 271.252,37.0185 C271.252,37.0185 269.565,35.653 269.565,35.653 C269.565,35.653 265.209,36.2509 265.209,36.2509 C265.209,36.2509 261.654,38.9119 261.654,38.9119 C261.654,38.9119 259.547,41.2325 259.547,41.2325 C259.547,41.2325 258.456,42.4682 258.456,42.4682 C258.456,42.4682 257.806,39.5006 257.806,39.5006 C257.806,39.5006 257.248,38.1753 257.248,38.1753 C257.248,38.1753 256.384,37.7387 256.384,37.7387 C256.384,37.7387 255.449,38.3718 255.449,38.3718 C255.449,38.3718 255.806,40.7418 255.806,40.7418 C255.806,40.7418 256.369,42.7451 256.369,42.7451 C256.369,42.7451 255.511,42.9865 255.511,42.9865 C255.511,42.9865 253.774,40.7576 253.774,40.7576 C253.774,40.7576 251.911,39.1815 251.911,39.1815 C251.911,39.1815 250.289,38.4641 250.289,38.4641 C250.289,38.4641 248.398,37.0185 248.398,37.0185 C248.398,37.0185 246.592,35.8592 246.592,35.8592 C246.592,35.8592 245.215,36.6781 245.215,36.6781 C245.215,36.6781 247.103,38.1237 247.103,38.1237 C247.103,38.1237 250.309,41.1757 250.309,41.1757 C250.309,41.1757 254.583,44.2974 254.583,44.2974 C254.583,44.2974 255.819,45.6177 255.819,45.6177 C255.819,45.6177 254.866,47.0591 254.866,47.0591 C254.866,47.0591 252.914,47.3612 252.914,47.3612 C252.914,47.3612 250.306,47.5379 250.306,47.5379 C250.306,47.5379 246.212,47.6999 246.212,47.6999 C246.212,47.6999 243.322,47.9571 243.322,47.9571 C243.322,47.9571 241.895,49.0373 241.895,49.0373 C241.895,49.0373 242.503,50.1016 242.503,50.1016 C242.503,50.1016 245.421,49.7138 245.421,49.7138 C245.421,49.7138 248.785,49.818 248.785,49.818 C248.785,49.818 252.1,50.1835 252.1,50.1835 C252.1,50.1835 251.358,51.9362 251.358,51.9362 C251.358,51.9362 249.8,52.9913 249.8,52.9913 C249.8,52.9913 246.663,55.2321 246.663,55.2321 C246.663,55.2321 246.207,56.9044 246.207,56.9044 C246.207,56.9044 247.85,56.8134 247.85,56.8134 Z" style="stroke:none;fill-rule:evenodd;fill:url(#linearGradientFill7);fill-opacity:1;"/><defs><linearGradient id="linearGradientFill7" gradientUnits="userSpaceOnUse" x1="143.191" y1="142.411" x2="145.885" y2="14.661"><stop offset="0.141844" stop-color="#e5ce7e" stop-opacity="1"/><stop offset="0.996216" stop-color="#b99d65" stop-opacity="1"/></linearGradient></defs>
        </g>
        <g id="Shape8">
            <desc shapeID="8" type="0" basicInfo-basicType="0" basicInfo-roundedRectRadius="12" basicInfo-polygonSides="6" basicInfo-starPoints="5" bounding="rect(-23.8394,-560.749,47.6786,1121.5)" text="" font-familyName="Helvetica" font-pixelSize="20" font-bold="0" font-underline="0" font-alignment="1" strokeStyle="0" markerStart="0" markerEnd="0" shadowEnabled="0" shadowOffsetX="0" shadowOffsetY="2" shadowBlur="4" shadowOpacity="160" blurEnabled="0" blurRadius="4" transform="matrix(0.0673699,0,0,0.0673699,275.603,102.672)" pers-center="0,0" pers-size="0,0" pers-start="0,0" pers-end="0,0" locked="0" mesh="" flag=""/>
            <path id="shapePath8" d="M274.438,66.6138 C274.149,68.6063 274.062,70.6309 274.095,72.6438 C274.154,76.1897 274.73,79.7186 274.713,83.265 C274.699,86.2727 274.04,89.2528 274.003,92.2603 C273.949,96.7264 274.251,101.19 274.438,105.653 C274.552,108.404 274.851,111.147 274.906,113.9 C274.939,115.513 274.701,117.123 274.701,118.736 C274.701,120.281 274.885,121.822 274.906,123.367 C274.953,126.694 275.013,130.023 274.906,133.349 C274.841,135.413 274.119,137.475 274.39,139.522 C274.466,140.092 275.273,140.402 275.846,140.447 C276.317,140.483 276.912,140.174 277.067,139.729 C277.373,138.854 277.093,137.876 277.067,136.95 C276.99,134.171 276.757,131.396 276.757,128.615 C276.757,125.904 277.087,123.198 277.067,120.486 C277.034,115.985 276.757,111.489 276.598,106.991 C276.429,102.188 275.99,97.3884 276.085,92.5841 C276.147,89.4512 277.126,86.3679 277.067,83.2349 C277.006,79.9464 275.962,76.7398 275.728,73.4591 C275.549,70.9612 275.982,68.4469 275.832,65.9472 C275.808,65.5479 275.575,64.7456 275.214,64.9181 C274.653,65.1863 274.527,65.9986 274.438,66.6138 Z" style="stroke:none;fill-rule:evenodd;fill:url(#linearGradientFill8);fill-opacity:1;"/><defs><linearGradient id="linearGradientFill8" gradientUnits="userSpaceOnUse" x1="143.191" y1="142.411" x2="145.885" y2="14.661"><stop offset="0.141844" stop-color="#e5ce7e" stop-opacity="1"/><stop offset="0.996216" stop-color="#b99d65" stop-opacity="1"/></linearGradient></defs>
        </g>
        <g id="Shape9">
            <desc shapeID="9" type="0" basicInfo-basicType="0" basicInfo-roundedRectRadius="12" basicInfo-polygonSides="6" basicInfo-starPoints="5" bounding="rect(-170.341,-142.459,340.684,284.917)" text="" font-familyName="Avenir" font-pixelSize="300" font-bold="0" font-underline="0" font-alignment="1" strokeStyle="0" markerStart="0" markerEnd="0" shadowEnabled="0" shadowOffsetX="0" shadowOffsetY="2" shadowBlur="4" shadowOpacity="160" blurEnabled="0" blurRadius="4" transform="matrix(0.0670468,0.00658841,-0.00658841,0.0670468,275.532,64.2727)" pers-center="0,0" pers-size="0,0" pers-start="0,0" pers-end="0,0" locked="0" mesh="" flag=""/>
            <path id="shapePath9" d="M269.404,72.9852 L270.907,72.3052 L272.232,70.3455 L274.028,68.5811 L275.919,68.3278 L278.221,69.8652 L281.119,71.2535 L283.731,72.6076 L284.25,71.7805 L283.173,70.4673 L281.268,68.6337 L281.528,68.2204 L283.173,68.7675 L284.768,68.9845 L286.502,68.8669 L286.686,68.1167 L284.555,66.6617 L282.374,65.8164 L280.853,65.8164 L279.829,65.7239 L280.501,65.2659 L283.585,64.0325 L285.545,63.7377 L286.971,62.8575 L286.914,62.3033 L284.25,61.7525 L282.24,62.3033 L279.901,62.7627 L278.467,63.9836 L277.943,63.3683 L279.139,61.0393 L280.337,59.3399 L281.684,56.1113 L281.759,55.3504 L280.682,55.135 L279.395,56.5606 L277.943,57.5065 L276.871,60.1156 L276.07,61.2087 L275.316,58.8298 L274.76,57.7874 L274.021,57.4953 L273.304,58.0833 L273.775,59.9953 L274.386,61.592 L273.701,61.854 L272.232,60.2774 L270.468,59.0122 L268.781,58.5472 L267.216,57.7348 L266.152,58.508 L267.99,60.1156 L270.123,61.4841 L272.669,63.4378 C272.669,63.4378 272.066,64.9181 272.066,64.9181 L269.972,65.5044 L266.705,65.8983 L264.752,66.6696 L263.668,67.6605 L264.246,68.4856 L266.603,67.949 L268.712,67.949 L271.123,67.9986 L270.548,69.0599 L269.784,70.1158 L268.317,71.7805 L268.069,73.1829 L269.404,72.9852 Z" style="stroke:none;fill-rule:evenodd;fill:url(#linearGradientFill9);fill-opacity:1;"/><defs><linearGradient id="linearGradientFill9" gradientUnits="userSpaceOnUse" x1="143.191" y1="142.411" x2="145.885" y2="14.661"><stop offset="0.141844" stop-color="#e5ce7e" stop-opacity="1"/><stop offset="0.996216" stop-color="#b99d65" stop-opacity="1"/></linearGradient></defs>
        </g>
        <g id="Shape10">
            <desc shapeID="10" type="0" basicInfo-basicType="0" basicInfo-roundedRectRadius="12" basicInfo-polygonSides="6" basicInfo-starPoints="5" bounding="rect(-123.074,-426.156,246.146,852.313)" text="" font-familyName="" font-pixelSize="20" font-bold="0" font-underline="0" font-alignment="1" strokeStyle="0" markerStart="0" markerEnd="0" shadowEnabled="0" shadowOffsetX="0" shadowOffsetY="2" shadowBlur="4" shadowOpacity="160" blurEnabled="0" blurRadius="4" transform="matrix(0.148709,0,0,0.148709,205.896,75.4237)" pers-center="0,0" pers-size="0,0" pers-start="0,0" pers-end="0,0" locked="0" mesh="" flag=""/>
            <path id="shapePath10" d="M211.178,12.3564 C210.569,12.7729 209.319,14.2897 209.007,15.0035 C208.888,15.286 208.487,16.1337 208.115,16.8921 C207.416,18.3495 207.372,18.5726 207.609,19.2715 C207.743,19.6581 207.698,19.8663 207.163,20.9221 C206.464,22.305 206.152,22.4984 205.29,22.0821 C204.918,21.9184 204.695,21.6359 204.427,21.0708 C204.025,20.1488 203.684,19.8068 202.895,19.5391 C201.973,19.2268 201.81,19.4053 201.81,20.7882 C201.81,21.7252 201.884,22.0821 202.152,22.6025 C202.568,23.3758 202.747,24.3127 202.553,24.6845 C202.419,24.9224 202.375,24.9224 201.78,24.6993 C201.081,24.4465 199.996,23.7029 199.46,23.123 C199.267,22.9148 198.776,22.6471 198.345,22.4984 C197.914,22.3646 197.304,22.0969 196.977,21.9184 C196.65,21.7252 195.876,21.4723 195.267,21.3385 C194.657,21.2047 193.556,20.8329 192.813,20.5206 C192.084,20.1934 191.207,19.896 190.865,19.8365 C190.3,19.7473 190.225,19.7771 189.854,20.2083 C189.244,20.937 189.184,20.8775 191.474,22.0821 C192.382,22.5431 193.319,23.0784 193.556,23.2717 C193.809,23.4501 194.211,23.6435 194.464,23.6881 C194.969,23.807 196.441,24.8629 196.917,25.4726 C197.081,25.6659 197.557,25.9485 197.988,26.0823 C198.404,26.231 198.925,26.4986 199.133,26.692 C199.341,26.8704 199.802,27.1679 200.174,27.3314 C201.542,27.956 202.91,28.9226 203.252,29.5174 C203.446,29.8298 203.594,30.1718 203.594,30.261 C203.594,30.4692 203.074,30.7071 201.929,30.9897 C201.408,31.1235 200.799,31.3615 200.546,31.5101 C199.936,31.8819 199.044,32.0753 197.259,32.2388 C196.426,32.3132 195.549,32.4767 195.296,32.6106 C195.044,32.7445 194.345,32.9526 193.75,33.0716 C193.155,33.2055 192.263,33.5028 191.772,33.7259 C191.281,33.9638 190.508,34.2613 190.047,34.3951 C189.229,34.6182 187.935,35.5104 187.638,36.0458 C187.445,36.4175 187.906,36.8191 188.694,36.9975 C189.408,37.1462 190.82,36.8785 192.084,36.3431 C192.396,36.2093 193.333,35.9714 194.151,35.8078 C194.969,35.6294 196.159,35.3468 196.798,35.1386 C197.973,34.7817 198.761,34.6925 199.088,34.9007 C199.178,34.9602 199.297,35.2576 199.356,35.5551 C199.445,36.0458 199.386,36.2391 198.821,37.161 C198.464,37.741 197.943,38.5292 197.676,38.8861 C197.408,39.2578 197.066,39.9568 196.917,40.4326 C196.768,40.9085 196.501,41.4885 196.322,41.7115 C196.04,42.0684 196.025,42.1577 196.203,42.4253 C196.337,42.6335 196.605,42.7525 196.962,42.7822 C197.438,42.8269 197.616,42.7377 198.152,42.2469 C198.494,41.9346 198.88,41.6074 198.999,41.5331 C199.237,41.3844 200.085,40.2988 201.379,38.4698 C202.152,37.3841 202.494,37.0569 204.011,35.9565 L204.665,35.4955 L205.319,35.7483 C205.676,35.8821 206.018,36.0606 206.063,36.1499 C206.122,36.2242 206.182,36.9083 206.212,37.6667 C206.226,38.4102 206.316,39.1836 206.39,39.3917 C206.464,39.6297 206.464,40.1798 206.375,40.8491 C206.256,41.667 206.256,42.0833 206.404,42.5592 C206.494,42.9012 206.569,43.2432 206.569,43.3325 C206.404,44.656 206.376,49.4593 206.569,51.5115 C206.911,55.3333 206.851,56.5675 207.014,56.984 C207.386,57.9357 207.476,60.8057 207.46,70.4421 C207.445,75.974 207.431,80.9409 207.431,81.4762 C207.416,82.0116 207.431,84.3464 207.46,86.6811 C207.491,91.0234 207.297,95.6484 207,97.7601 C206.583,100.615 206.538,107.455 206.94,109.061 C207.297,110.519 207.431,111.917 207.297,112.705 C207.163,113.493 206.851,120.006 206.91,120.661 C207,121.553 206.881,124.84 206.732,125.569 C206.657,125.97 206.554,128.914 206.509,132.097 C206.464,135.279 206.39,137.926 206.36,137.971 C206.212,138.223 206.851,138.699 207.431,138.774 C207.936,138.833 208.1,138.789 208.367,138.506 C208.635,138.223 208.68,138.03 208.635,137.51 C208.591,137.152 208.65,136.707 208.754,136.483 C209.007,135.993 209.037,134.922 208.873,132.707 C208.799,131.725 208.769,129.316 208.814,127.353 C208.858,125.39 208.844,123.531 208.799,123.234 C208.754,122.937 208.799,122.222 208.903,121.643 C209.007,121.077 209.126,119.561 209.17,118.252 C209.216,116.958 209.32,115.664 209.409,115.382 C209.661,114.579 209.602,110.564 209.335,109.508 C209.201,109.017 209.067,107.946 209.037,107.129 C209.007,106.311 208.903,105.032 208.814,104.303 C208.591,102.682 208.695,100.585 209.097,98.3545 C209.275,97.4472 209.469,96.0499 209.557,95.2322 C209.855,92.4957 210.004,85.5657 209.87,81.6993 C209.795,79.6472 209.736,77.6395 209.736,77.2381 C209.721,76.8216 209.632,76.0781 209.542,75.5577 C209.409,74.8439 209.409,74.4126 209.542,73.7731 C209.751,72.762 209.795,70.7395 209.721,65.3413 C209.661,60.5381 209.513,58.709 209.126,58.0695 C208.948,57.7721 208.814,57.1773 208.754,56.4188 C208.71,55.7645 208.606,54.6938 208.516,54.0395 C208.442,53.3852 208.517,51.1546 208.427,49.0726 C208.323,46.4257 208.294,45.2062 208.16,44.9831 C208.056,44.8047 208.118,44.2592 208.115,43.8886 C208.103,42.6614 208.29,41.5877 208.115,40.3137 C208.168,39.9729 208.215,39.6309 208.248,39.2876 C208.295,38.8077 208.248,38.321 208.353,37.8451 C208.725,36.0755 208.948,35.912 210.345,36.4771 C210.881,36.6852 211.386,36.8637 211.491,36.8637 C211.788,36.8637 214.717,38.3358 215.639,38.9456 C217.602,40.2542 217.647,40.284 218.435,40.3137 C219.06,40.3435 219.268,40.284 219.521,40.0312 L219.833,39.7188 L219.446,39.0497 C219.105,38.4698 216.799,36.2986 215.461,35.2873 L215.03,34.9602 L215.417,34.5141 C216.011,33.8003 217.052,33.6218 218.881,33.9341 C222.376,34.4992 223.596,34.5289 224.042,34.0382 C224.265,33.7854 224.265,33.7556 223.937,33.5177 C223.744,33.3839 223.239,33.0121 222.792,32.6849 C222.361,32.3726 221.93,32.105 221.855,32.105 C221.767,32.105 221.231,31.867 220.651,31.5697 C219.327,30.9005 215.788,30.0974 214.717,30.2461 L214.004,30.3354 L214.004,29.7405 C214.004,29.0713 214.257,28.8632 215.491,28.536 C215.863,28.4468 216.621,28.1344 217.186,27.8519 C217.766,27.5693 218.301,27.3464 218.405,27.3464 C218.495,27.3464 218.911,27.1233 219.298,26.8555 C219.699,26.5879 220.368,26.2161 220.799,26.0525 C221.736,25.6659 223.045,24.8331 223.149,24.5358 C223.194,24.4167 223.09,24.1788 222.927,24.0152 C222.436,23.5097 220.562,23.5988 218.837,24.1937 C218.108,24.4465 217.201,24.729 216.829,24.8183 C216.457,24.9075 215.729,25.2496 215.193,25.5618 C214.658,25.8741 214.033,26.2161 213.795,26.3054 C213.26,26.4986 211.698,27.4355 211.104,27.9114 C210.762,28.194 210.554,28.2534 210.092,28.194 C209.766,28.1493 209.438,28.0453 209.349,27.956 C209.082,27.6883 209.037,25.6065 209.289,24.7737 C209.9,22.7363 210.197,21.398 210.226,20.5652 C210.241,19.9555 210.39,19.2863 210.717,18.4536 C210.97,17.7844 211.178,17.0259 211.178,16.7583 C211.178,16.4906 211.416,15.7917 211.698,15.1968 C212.175,14.2153 212.501,13.1743 212.517,12.6093 C212.517,12.4754 212.353,12.297 212.145,12.2078 C211.669,11.9847 211.758,11.9698 211.178,12.3564 Z" style="stroke:none;fill-rule:evenodd;fill:url(#linearGradientFill10);fill-opacity:1;"/><defs><linearGradient id="linearGradientFill10" gradientUnits="userSpaceOnUse" x1="147.231" y1="142.411" x2="149.925" y2="14.661"><stop offset="0.141844" stop-color="#e5ce7e" stop-opacity="1"/><stop offset="0.996216" stop-color="#b99d65" stop-opacity="1"/></linearGradient></defs>
        </g>
    </g>
    <g id="Layer2" name="Layer 2" opacity="1">
        <g id="Shape11">
            <desc shapeID="11" type="0" basicInfo-basicType="0" basicInfo-roundedRectRadius="12" basicInfo-polygonSides="6" basicInfo-starPoints="5" bounding="rect(-794.254,-40.4999,1588.51,80.9997)" text="OPENPIPELINE.IO" font-familyName="AppleGothic" font-pixelSize="100" font-bold="0" font-underline="0" font-alignment="1" strokeStyle="0" markerStart="0" markerEnd="0" shadowEnabled="0" shadowOffsetX="0" shadowOffsetY="2" shadowBlur="4" shadowOpacity="160" blurEnabled="0" blurRadius="4" transform="matrix(0.22982,0,0,0.22982,200,159.154)" pers-center="0,0" pers-size="0,0" pers-start="0,0" pers-end="0,0" locked="0" mesh="" flag=""/>
            <path id="shapePath11" d="M25.5086,168.461 C23.4247,168.461 21.6015,167.649 20.0386,166.025 C18.3227,164.263 17.4645,161.988 17.4645,159.199 C17.4645,156.534 18.269,154.281 19.8779,152.443 C21.4405,150.711 23.2945,149.846 25.4397,149.846 C27.6153,149.846 29.4846,150.696 31.0474,152.397 C32.6561,154.189 33.4607,156.449 33.4607,159.177 C33.4607,162.011 32.5872,164.309 30.8405,166.071 C29.2931,167.665 27.5157,168.461 25.5086,168.461 M25.3707,166.761 C27.0714,166.761 28.5193,166.048 29.7145,164.623 C30.9249,163.168 31.5301,161.352 31.5301,159.177 C31.5301,158.119 31.3844,157.139 31.0935,156.235 C30.8023,155.331 30.3655,154.511 29.7834,153.776 C28.6188,152.29 27.1787,151.547 25.4626,151.547 C23.7619,151.547 22.3216,152.29 21.1418,153.776 C19.9773,155.231 19.3952,157.047 19.3952,159.223 C19.3952,161.49 20.0081,163.336 21.2338,164.761 C22.3829,166.094 23.7619,166.761 25.3707,166.761 M48.3385,150.145 L54.1072,150.145 C55.7618,150.145 57.1177,150.428 58.1748,150.995 C59.5998,151.792 60.3121,153.063 60.3121,154.81 C60.3121,156.495 59.7224,157.798 58.5425,158.717 C57.4701,159.575 56.0911,160.004 54.4059,160.004 L50.1542,160.004 L50.1542,168.162 L48.3385,168.162 L48.3385,150.145 M54.084,151.73 L50.1542,151.73 L50.1542,158.418 L54.2221,158.418 C55.2945,158.418 56.2214,158.135 57.0028,157.568 C57.876,156.924 58.3128,156.059 58.3128,154.971 C58.3128,153.745 57.7995,152.864 56.7729,152.328 C56.0222,151.93 55.1259,151.73 54.084,151.73 M75.3358,150.122 L86.5512,150.122 L86.5512,151.708 L77.1514,151.708 L77.1514,157.936 L86.2064,157.936 L86.2064,159.521 L77.1514,159.521 L77.1514,166.577 L86.6201,166.577 L86.6201,168.162 L75.3358,168.162 L75.3358,150.122 M101.849,168.162 L101.849,150.145 L103.504,150.145 L114.581,165.405 L114.581,150.145 L116.236,150.145 L116.236,168.162 L114.581,168.162 L103.504,152.926 L103.504,168.162 L101.849,168.162 M131.396,150.145 L137.165,150.145 C138.819,150.145 140.175,150.428 141.233,150.995 C142.657,151.792 143.37,153.063 143.37,154.81 C143.37,156.495 142.78,157.798 141.6,158.717 C140.528,159.575 139.149,160.004 137.464,160.004 L133.212,160.004 L133.212,168.162 L131.396,168.162 L131.396,150.145 M137.142,151.73 L133.212,151.73 L133.212,158.418 L137.28,158.418 C138.352,158.418 139.279,158.135 140.061,157.568 C140.934,156.924 141.37,156.059 141.37,154.971 C141.37,153.745 140.857,152.864 139.831,152.328 C139.08,151.93 138.184,151.73 137.142,151.73 M158.945,150.145 L160.737,150.145 L160.737,168.162 L158.945,168.162 L158.945,150.145 M176.336,150.145 L182.105,150.145 C183.759,150.145 185.115,150.428 186.173,150.995 C187.598,151.792 188.309,153.063 188.309,154.81 C188.309,156.495 187.721,157.798 186.54,158.717 C185.467,159.575 184.089,160.004 182.403,160.004 L178.152,160.004 L178.152,168.162 L176.336,168.162 L176.336,150.145 M182.082,151.73 L178.152,151.73 L178.152,158.418 L182.22,158.418 C183.292,158.418 184.219,158.135 185,157.568 C185.873,156.924 186.311,156.059 186.311,154.971 C186.311,153.745 185.796,152.864 184.77,152.328 C184.02,151.93 183.123,151.73 182.082,151.73 M203.332,150.122 L214.548,150.122 L214.548,151.708 L205.149,151.708 L205.149,157.936 L214.203,157.936 L214.203,159.521 L205.149,159.521 L205.149,166.577 L214.617,166.577 L214.617,168.162 L203.332,168.162 L203.332,150.122 M229.892,150.145 L231.708,150.145 L231.708,166.577 L240.602,166.577 L240.602,168.162 L229.892,168.162 L229.892,150.145 M256.014,150.145 L257.808,150.145 L257.808,168.162 L256.014,168.162 L256.014,150.145 M273.612,168.162 L273.612,150.145 L275.268,150.145 L286.343,165.405 L286.343,150.145 L287.999,150.145 L287.999,168.162 L286.343,168.162 L275.268,152.926 L275.268,168.162 L273.612,168.162 M303.229,150.122 L314.445,150.122 L314.445,151.708 L305.044,151.708 L305.044,157.936 L314.098,157.936 L314.098,159.521 L305.044,159.521 L305.044,166.577 L314.514,166.577 L314.514,168.162 L303.229,168.162 L303.229,150.122 M331.878,168.231 C331.511,168.231 331.196,168.078 330.936,167.772 C330.677,167.465 330.546,167.09 330.546,166.646 C330.546,166.186 330.68,165.799 330.949,165.485 C331.217,165.171 331.526,165.014 331.878,165.014 C332.215,165.014 332.519,165.156 332.787,165.439 C333.055,165.723 333.189,166.109 333.189,166.6 C333.189,167.059 333.059,167.446 332.798,167.76 C332.538,168.074 332.23,168.231 331.878,168.231 M349.17,150.145 L350.962,150.145 L350.962,168.162 L349.17,168.162 L349.17,150.145 M374.583,168.461 C372.499,168.461 370.675,167.649 369.113,166.025 C367.397,164.263 366.538,161.988 366.538,159.199 C366.538,156.534 367.343,154.281 368.952,152.443 C370.515,150.711 372.369,149.846 374.514,149.846 C376.69,149.846 378.559,150.696 380.121,152.397 C381.731,154.189 382.535,156.449 382.535,159.177 C382.535,162.011 381.644,164.291 379.915,166.071 C378.367,167.665 376.59,168.461 374.583,168.461 M374.446,166.761 C376.146,166.761 377.594,166.048 378.788,164.623 C379.998,163.168 380.604,161.352 380.604,159.177 C380.604,158.119 380.459,157.139 380.168,156.235 C379.876,155.331 379.44,154.511 378.858,153.776 C377.692,152.29 376.252,151.547 374.537,151.547 C372.836,151.547 371.396,152.29 370.215,153.776 C369.051,155.231 368.47,157.047 368.47,159.223 C368.47,161.49 369.083,163.336 370.308,164.761 C371.458,166.094 372.836,166.761 374.446,166.761 Z" style="stroke:none;fill-rule:evenodd;fill:#000000;fill-opacity:1;"/>
        </g>
        <g id="Shape12">
            <desc shapeID="12" type="0" basicInfo-basicType="0" basicInfo-roundedRectRadius="12" basicInfo-polygonSides="6" basicInfo-starPoints="5" bounding="rect(-26.4178,-559.73,52.8355,1119.46)" text="" font-familyName="Helvetica" font-pixelSize="20" font-bold="0" font-underline="0" font-alignment="1" strokeStyle="0" markerStart="0" markerEnd="0" shadowEnabled="0" shadowOffsetX="0" shadowOffsetY="2" shadowBlur="4" shadowOpacity="160" blurEnabled="0" blurRadius="4" transform="matrix(0.0727459,0,0,0.0727459,160.643,98.7088)" pers-center="0,0" pers-size="0,0" pers-start="0,0" pers-end="0,0" locked="0" mesh="" flag=""/>
            <path id="shapePath12" d="M159.165,59.8475 C158.854,61.999 158.734,64.1857 158.795,66.3588 C158.915,70.6399 159.482,74.8979 159.708,79.1747 C159.885,82.5257 159.929,85.8826 160.003,89.2374 C160.101,93.6082 160.292,97.9799 160.225,102.351 C160.181,105.209 159.831,108.054 159.67,110.907 C159.572,112.646 159.448,114.387 159.448,116.129 C159.448,117.798 159.739,119.463 159.67,121.13 C159.521,124.731 158.91,128.305 158.795,131.908 C158.724,134.131 158.576,136.416 159.115,138.574 C159.257,139.147 160.081,139.377 160.67,139.423 C161.159,139.46 161.834,139.258 162.003,138.797 C162.348,137.858 162.031,136.797 162.003,135.797 C161.92,132.796 161.67,129.799 161.67,126.797 C161.67,123.869 161.89,120.945 162.003,118.019 C162.186,113.277 162.518,108.54 162.559,103.796 C162.6,99.0585 162.423,94.3211 162.25,89.587 C162.127,86.2424 161.972,82.8964 161.67,79.5632 C161.297,75.4439 160.427,71.3703 160.225,67.239 C160.093,64.5344 160.735,61.8348 160.67,59.1278 C160.659,58.696 160.393,57.8302 160.003,58.0166 C159.398,58.3063 159.262,59.1832 159.165,59.8475 Z" style="stroke:none;fill-rule:evenodd;fill:#000000;fill-opacity:1;"/>
        </g>
        <g id="Shape13">
            <desc shapeID="13" type="0" basicInfo-basicType="0" basicInfo-roundedRectRadius="12" basicInfo-polygonSides="6" basicInfo-starPoints="5" bounding="rect(-178.823,-166.994,357.648,333.987)" text="" font-familyName="Avenir" font-pixelSize="300" font-bold="0" font-underline="0" font-alignment="1" strokeStyle="0" markerStart="0" markerEnd="0" shadowEnabled="0" shadowOffsetX="0" shadowOffsetY="2" shadowBlur="4" shadowOpacity="160" blurEnabled="0" blurRadius="4" transform="matrix(0.0727459,0,0,0.0727459,160.157,55.8302)" pers-center="0,0" pers-size="0,0" pers-start="0,0" pers-end="0,0" locked="0" mesh="" flag=""/>
            <path id="shapePath13" d="M152.408,67.6245 L154.177,65.9732 L155.71,63.6144 L157.833,61.4915 L159.838,61.0197 L162.397,62.3172 L164.217,64.6271 L167.317,65.9732 L168.244,64.9181 L167.623,62.7888 L163.137,60.5481 L165.854,60.6659 L168.92,60.194 L170.689,60.6659 L173.048,60.7837 L173.166,59.9581 L170.453,58.6609 L166.915,57.5993 L164.792,58.0712 L163.494,57.8352 L164.438,57.2455 L167.623,55.5943 L170.807,54.4148 L172.93,53.5892 L172.812,52.9995 L169.863,52.7638 L166.915,54.0611 L164.438,55.2405 L161.725,56.538 L161.489,55.4764 L162.787,51.3485 L162.905,49.0306 L165.028,44.6256 L165.028,43.7999 L163.849,43.6821 L162.787,45.3334 L160.468,48.5178 L159.994,52.0942 L159.249,53.3535 L158.187,50.8766 L157.479,49.8151 L156.654,49.5794 L155.946,50.2869 L156.654,52.292 L157.479,53.9432 L156.772,54.297 L155.425,52.9995 L153.933,52.0942 C153.933,52.0942 151.936,51.5844 151.936,51.5844 L150.167,50.8766 L149.105,51.8201 L150.993,52.7638 L153.683,54.5466 L156.182,55.5943 L154.649,56.1219 L154.061,56.9133 L155.114,57.8352 L153.164,58.6609 L150.333,59.459 L148.21,60.5481 L147.148,61.7275 L147.856,62.5529 L150.333,61.7275 L152.054,61.3734 L155.003,61.1375 L154.649,62.7888 L153.47,63.9682 L151.11,66.4451 L150.993,67.9783 L152.408,67.6245 Z" style="stroke:none;fill-rule:evenodd;fill:#000000;fill-opacity:1;"/>
        </g>
        <g id="Shape14">
            <desc shapeID="14" type="0" basicInfo-basicType="0" basicInfo-roundedRectRadius="12" basicInfo-polygonSides="6" basicInfo-starPoints="5" bounding="rect(-25.92,-561.013,51.8399,1122.03)" text="" font-familyName="Helvetica" font-pixelSize="20" font-bold="0" font-underline="0" font-alignment="1" strokeStyle="0" markerStart="0" markerEnd="0" shadowEnabled="0" shadowOffsetX="0" shadowOffsetY="2" shadowBlur="4" shadowOpacity="160" blurEnabled="0" blurRadius="4" transform="matrix(0.0835722,0,0,0.0835722,133.392,92.8496)" pers-center="0,0" pers-size="0,0" pers-start="0,0" pers-end="0,0" locked="0" mesh="" flag=""/>
            <path id="shapePath14" d="M131.66,48.0978 C131.302,50.5695 131.193,53.081 131.234,55.5782 C131.307,59.9768 131.804,64.3587 132,68.7536 C132.172,72.6049 132.757,76.8624 132.877,80.7156 C133.05,86.2535 133.413,91.3865 133.392,96.9271 C133.38,100.21 132.425,103.478 132.24,106.756 C132.127,108.755 131.984,110.754 131.984,112.756 C131.984,114.673 132.213,116.584 132.24,118.501 C132.298,122.627 132.371,126.757 132.24,130.883 C132.158,133.443 131.269,136.001 131.601,138.541 C131.694,139.253 132.68,139.677 133.396,139.732 C133.991,139.778 134.724,139.36 134.92,138.797 C135.297,137.712 134.952,136.499 134.92,135.35 C134.824,131.903 134.537,128.46 134.537,125.011 C134.537,121.647 134.407,118.288 134.537,114.926 C134.748,109.48 135.558,104.037 135.558,98.5868 C135.558,92.6259 135.047,86.6751 134.92,80.7156 C134.834,76.7168 133.951,72.7439 133.677,68.7536 C133.397,64.6832 132.913,60.659 132.623,56.5894 C132.401,53.4908 132.809,50.3718 132.623,47.2709 C132.593,46.7757 133.07,45.7801 132.623,45.9943 C131.927,46.3271 131.77,47.3346 131.66,48.0978 Z" style="stroke:none;fill-rule:evenodd;fill:#000000;fill-opacity:1;"/>
        </g>
        <g id="Shape15">
            <desc shapeID="15" type="0" basicInfo-basicType="0" basicInfo-roundedRectRadius="12" basicInfo-polygonSides="6" basicInfo-starPoints="5" bounding="rect(-187.259,-132.891,374.52,265.782)" text="" font-familyName="Avenir" font-pixelSize="300" font-bold="0" font-underline="0" font-alignment="1" strokeStyle="0" markerStart="0" markerEnd="0" shadowEnabled="0" shadowOffsetX="0" shadowOffsetY="2" shadowBlur="4" shadowOpacity="160" blurEnabled="0" blurRadius="4" transform="matrix(0.0835722,0,0,0.0835722,132.094,46.3328)" pers-center="0,0" pers-size="0,0" pers-start="0,0" pers-end="0,0" locked="0" mesh="" flag=""/>
            <path id="shapePath15" d="M123.897,57.0322 C123.897,57.0322 125.929,55.1353 125.929,55.1353 C125.929,55.1353 127.691,52.4254 127.691,52.4254 C127.691,52.4254 130.13,49.9865 130.13,49.9865 C130.13,49.9865 132.433,49.4444 132.433,49.4444 C132.433,49.4444 136.769,50.9349 136.769,50.9349 C136.769,50.9349 139.208,52.4254 139.208,52.4254 C139.208,52.4254 142.595,53.7803 142.595,53.7803 C142.595,53.7803 143.137,52.6964 143.137,52.6964 C143.137,52.6964 141.647,51.2058 141.647,51.2058 C141.647,51.2058 139.073,49.1735 139.073,49.1735 C139.073,49.1735 139.344,48.6315 139.344,48.6315 C139.344,48.6315 142.866,48.496 142.866,48.496 C142.866,48.496 144.898,49.0381 144.898,49.0381 C144.898,49.0381 147.609,49.1735 147.609,49.1735 C147.609,49.1735 147.744,48.2251 147.744,48.2251 C147.744,48.2251 144.628,46.7346 144.628,46.7346 C144.628,46.7346 140.563,45.515 140.563,45.515 C140.563,45.515 138.124,46.057 138.124,46.057 C138.124,46.057 136.633,45.7861 136.633,45.7861 C136.633,45.7861 137.717,45.1086 137.717,45.1086 C137.717,45.1086 141.376,43.2117 141.376,43.2117 C141.376,43.2117 145.034,41.8567 145.034,41.8567 C145.034,41.8567 147.473,40.9082 147.473,40.9082 C147.473,40.9082 147.337,40.2307 147.337,40.2307 C147.337,40.2307 143.95,39.9598 143.95,39.9598 C143.95,39.9598 140.563,41.4503 140.563,41.4503 C140.563,41.4503 137.717,42.8051 137.717,42.8051 C137.717,42.8051 134.601,44.2956 134.601,44.2956 C134.601,44.2956 134.991,43.4065 134.991,43.4065 C134.991,43.4065 136.871,40.9082 136.871,40.9082 C136.871,40.9082 138.124,38.2428 138.124,38.2428 C138.124,38.2428 142.345,36.793 142.345,36.793 C142.345,36.793 142.345,35.8445 142.345,35.8445 C142.345,35.8445 140.99,35.7091 140.99,35.7091 C140.99,35.7091 138.415,35.2268 138.415,35.2268 C138.415,35.2268 134.377,37.3854 134.377,37.3854 C134.377,37.3854 132.612,39.1905 132.612,39.1905 C132.612,39.1905 131.756,40.6373 131.756,40.6373 C131.756,40.6373 130.536,37.7918 130.536,37.7918 C130.536,37.7918 129.723,36.5724 129.723,36.5724 C129.723,36.5724 128.775,36.3015 128.775,36.3015 C128.775,36.3015 127.962,37.1145 127.962,37.1145 C127.962,37.1145 128.775,39.4177 128.775,39.4177 C128.775,39.4177 129.723,41.3149 129.723,41.3149 C129.723,41.3149 128.91,41.7212 128.91,41.7212 C128.91,41.7212 126.742,39.8243 126.742,39.8243 C126.742,39.8243 124.71,39.0114 124.71,39.0114 C124.71,39.0114 122.948,38.6047 122.948,38.6047 C122.948,38.6047 120.103,38.1066 120.103,38.1066 C120.103,38.1066 118.071,38.1066 118.071,38.1066 C118.071,38.1066 116.851,39.1905 116.851,39.1905 C116.851,39.1905 119.763,39.8243 119.763,39.8243 C119.763,39.8243 123.49,41.3149 123.49,41.3149 C123.49,41.3149 128.233,43.2117 128.233,43.2117 C128.233,43.2117 129.723,44.2956 129.723,44.2956 C129.723,44.2956 129.046,45.9216 129.046,45.9216 C129.046,45.9216 127.149,46.5991 127.149,46.5991 C127.149,46.5991 124.574,47.2766 124.574,47.2766 C124.574,47.2766 120.509,48.2251 120.509,48.2251 C120.509,48.2251 117.664,49.0381 117.664,49.0381 C117.664,49.0381 116.445,50.3929 116.445,50.3929 C116.445,50.3929 117.258,51.3413 117.258,51.3413 C117.258,51.3413 120.103,50.3929 120.103,50.3929 C120.103,50.3929 123.49,49.851 123.49,49.851 C123.49,49.851 126.878,49.5799 126.878,49.5799 C126.878,49.5799 126.471,51.477 126.471,51.477 C126.471,51.477 125.116,52.8318 125.116,52.8318 C125.116,52.8318 122.406,55.6774 122.406,55.6774 C122.406,55.6774 122.271,57.4388 122.271,57.4388 C122.271,57.4388 123.897,57.0322 123.897,57.0322 Z" style="stroke:none;fill-rule:evenodd;fill:#000000;fill-opacity:1;"/>
        </g>
        <g id="Shape16">
            <desc shapeID="16" type="0" basicInfo-basicType="0" basicInfo-roundedRectRadius="12" basicInfo-polygonSides="6" basicInfo-starPoints="5" bounding="rect(-23.1373,-561.1,46.2745,1122.21)" text="" font-familyName="Helvetica" font-pixelSize="20" font-bold="0" font-underline="0" font-alignment="1" strokeStyle="0" markerStart="0" markerEnd="0" shadowEnabled="0" shadowOffsetX="0" shadowOffsetY="2" shadowBlur="4" shadowOpacity="160" blurEnabled="0" blurRadius="4" transform="matrix(0.0820028,0,0,0.0820025,259.301,93.7197)" pers-center="0,0" pers-size="0,0" pers-start="0,0" pers-end="0,0" locked="0" mesh="" flag=""/>
            <path id="shapePath16" d="M257.828,49.8014 C257.477,52.2266 257.371,54.6909 257.411,57.1411 C257.483,61.4571 257.97,65.7567 258.163,70.0689 C258.332,73.8479 258.556,77.63 258.496,81.4122 C258.409,86.8514 257.745,92.2737 257.724,97.7135 C257.712,100.936 258.309,104.137 258.396,107.358 C258.45,109.321 258.146,111.281 258.146,113.245 C258.146,115.126 258.37,117.001 258.396,118.882 C258.453,122.931 258.525,126.983 258.396,131.031 C258.316,133.543 257.448,136.053 257.771,138.546 C257.862,139.245 258.822,139.674 259.525,139.729 C260.112,139.774 260.833,139.353 261.026,138.797 C261.397,137.732 261.057,136.542 261.026,135.415 C260.932,132.032 260.651,128.654 260.651,125.27 C260.651,121.969 261.064,118.675 261.026,115.374 C260.965,110.026 260.354,104.691 260.354,99.342 C260.354,93.4925 260.22,87.7866 260.354,81.9386 C260.444,78.015 260.017,74.4326 259.748,70.5172 C259.474,66.5233 259.058,62.1265 258.773,58.1334 C258.557,55.093 259.708,52.0326 259.525,48.9899 C259.496,48.5039 259.213,47.5273 258.773,47.7373 C258.091,48.0638 257.937,49.0525 257.828,49.8014 Z" style="stroke:none;fill-rule:evenodd;fill:#000000;fill-opacity:1;"/>
        </g>
        <g id="Shape17">
            <desc shapeID="17" type="0" basicInfo-basicType="0" basicInfo-roundedRectRadius="12" basicInfo-polygonSides="6" basicInfo-starPoints="5" bounding="rect(-187.263,-154.101,374.526,308.202)" text="" font-familyName="Avenir" font-pixelSize="300" font-bold="0" font-underline="0" font-alignment="1" strokeStyle="0" markerStart="0" markerEnd="0" shadowEnabled="0" shadowOffsetX="0" shadowOffsetY="2" shadowBlur="4" shadowOpacity="160" blurEnabled="0" blurRadius="4" transform="matrix(0.0805326,0.0154572,-0.0154572,0.0805326,258.055,46.3111)" pers-center="0,0" pers-size="0,0" pers-start="0,0" pers-end="0,0" locked="0" mesh="" flag=""/>
            <path id="shapePath17" d="M247.85,56.8134 C247.85,56.8134 250.157,55.3613 250.157,55.3613 C250.157,55.3613 252.358,53.0757 252.358,53.0757 C252.358,53.0757 255.159,51.1766 255.159,51.1766 C255.159,51.1766 257.478,51.0803 257.478,51.0803 C257.478,51.0803 261.381,53.3186 261.381,53.3186 C261.381,53.3186 263.455,55.206 263.455,55.206 C263.455,55.206 266.469,57.1381 266.469,57.1381 C266.469,57.1381 267.191,56.1936 267.191,56.1936 C267.191,56.1936 266.03,54.4818 266.03,54.4818 C266.03,54.4818 263.926,52.0474 263.926,52.0474 C263.926,52.0474 264.288,51.575 264.288,51.575 C264.288,51.575 267.707,52.096 267.707,52.096 C267.707,52.096 269.565,52.9943 269.565,52.9943 C269.565,52.9943 272.153,53.6262 272.153,53.6262 C272.153,53.6262 272.458,52.737 272.458,52.737 C272.458,52.737 269.731,50.7245 269.731,50.7245 C269.731,50.7245 266.04,48.7977 266.04,48.7977 C266.04,48.7977 263.589,48.8689 263.589,48.8689 C263.589,48.8689 262.202,48.332 262.202,48.332 C262.202,48.332 263.373,47.8795 263.373,47.8795 C263.373,47.8795 267.248,46.7284 267.248,46.7284 C267.248,46.7284 271.024,46.0992 271.024,46.0992 C271.024,46.0992 273.549,45.6365 273.549,45.6365 C273.549,45.6365 273.544,44.9585 273.544,44.9585 C273.544,44.9585 270.332,44.0709 270.332,44.0709 C270.332,44.0709 266.792,44.8806 266.792,44.8806 C266.792,44.8806 263.797,45.6599 263.797,45.6599 C263.797,45.6599 260.52,46.5197 260.52,46.5197 C260.52,46.5197 260.485,45.2947 260.485,45.2947 C260.485,45.2947 263.058,42.4682 263.058,42.4682 C263.058,42.4682 266.04,41.7287 266.04,41.7287 C266.04,41.7287 268.65,38.3718 268.65,38.3718 C268.65,38.3718 271.252,37.0185 271.252,37.0185 C271.252,37.0185 269.565,35.653 269.565,35.653 C269.565,35.653 265.209,36.2509 265.209,36.2509 C265.209,36.2509 261.654,38.9119 261.654,38.9119 C261.654,38.9119 259.547,41.2325 259.547,41.2325 C259.547,41.2325 258.456,42.4682 258.456,42.4682 C258.456,42.4682 257.806,39.5006 257.806,39.5006 C257.806,39.5006 257.248,38.1753 257.248,38.1753 C257.248,38.1753 256.384,37.7387 256.384,37.7387 C256.384,37.7387 255.449,38.3718 255.449,38.3718 C255.449,38.3718 255.806,40.7418 255.806,40.7418 C255.806,40.7418 256.369,42.7451 256.369,42.7451 C256.369,42.7451 255.511,42.9865 255.511,42.9865 C255.511,42.9865 253.774,40.7576 253.774,40.7576 C253.774,40.7576 251.911,39.1815 251.911,39.1815 C251.911,39.1815 250.289,38.4641 250.289,38.4641 C250.289,38.4641 248.398,37.0185 248.398,37.0185 C248.398,37.0185 246.592,35.8592 246.592,35.8592 C246.592,35.8592 245.215,36.6781 245.215,36.6781 C245.215,36.6781 247.103,38.1237 247.103,38.1237 C247.103,38.1237 250.309,41.1757 250.309,41.1757 C250.309,41.1757 254.583,44.2974 254.583,44.2974 C254.583,44.2974 255.819,45.6177 255.819,45.6177 C255.819,45.6177 254.866,47.0591 254.866,47.0591 C254.866,47.0591 252.914,47.3612 252.914,47.3612 C252.914,47.3612 250.306,47.5379 250.306,47.5379 C250.306,47.5379 246.212,47.6999 246.212,47.6999 C246.212,47.6999 243.322,47.9571 243.322,47.9571 C243.322,47.9571 241.895,49.0373 241.895,49.0373 C241.895,49.0373 242.503,50.1016 242.503,50.1016 C242.503,50.1016 245.421,49.7138 245.421,49.7138 C245.421,49.7138 248.785,49.818 248.785,49.818 C248.785,49.818 252.1,50.1835 252.1,50.1835 C252.1,50.1835 251.358,51.9362 251.358,51.9362 C251.358,51.9362 249.8,52.9913 249.8,52.9913 C249.8,52.9913 246.663,55.2321 246.663,55.2321 C246.663,55.2321 246.207,56.9044 246.207,56.9044 C246.207,56.9044 247.85,56.8134 247.85,56.8134 Z" style="stroke:none;fill-rule:evenodd;fill:#000000;fill-opacity:1;"/>
        </g>
        <g id="Shape18">
            <desc shapeID="18" type="0" basicInfo-basicType="0" basicInfo-roundedRectRadius="12" basicInfo-polygonSides="6" basicInfo-starPoints="5" bounding="rect(-23.8394,-560.749,47.6786,1121.5)" text="" font-familyName="Helvetica" font-pixelSize="20" font-bold="0" font-underline="0" font-alignment="1" strokeStyle="0" markerStart="0" markerEnd="0" shadowEnabled="0" shadowOffsetX="0" shadowOffsetY="2" shadowBlur="4" shadowOpacity="160" blurEnabled="0" blurRadius="4" transform="matrix(0.0673699,0,0,0.0673699,275.603,102.672)" pers-center="0,0" pers-size="0,0" pers-start="0,0" pers-end="0,0" locked="0" mesh="" flag=""/>
            <path id="shapePath18" d="M274.438,66.6138 C274.149,68.6063 274.062,70.6309 274.095,72.6438 C274.154,76.1897 274.73,79.7186 274.713,83.265 C274.699,86.2727 274.04,89.2528 274.003,92.2603 C273.949,96.7264 274.251,101.19 274.438,105.653 C274.552,108.404 274.851,111.147 274.906,113.9 C274.939,115.513 274.701,117.123 274.701,118.736 C274.701,120.281 274.885,121.822 274.906,123.367 C274.953,126.694 275.013,130.023 274.906,133.349 C274.841,135.413 274.119,137.475 274.39,139.522 C274.466,140.092 275.273,140.402 275.846,140.447 C276.317,140.483 276.912,140.174 277.067,139.729 C277.373,138.854 277.093,137.876 277.067,136.95 C276.99,134.171 276.757,131.396 276.757,128.615 C276.757,125.904 277.087,123.198 277.067,120.486 C277.034,115.985 276.757,111.489 276.598,106.991 C276.429,102.188 275.99,97.3884 276.085,92.5841 C276.147,89.4512 277.126,86.3679 277.067,83.2349 C277.006,79.9464 275.962,76.7398 275.728,73.4591 C275.549,70.9612 275.982,68.4469 275.832,65.9472 C275.808,65.5479 275.575,64.7456 275.214,64.9181 C274.653,65.1863 274.527,65.9986 274.438,66.6138 Z" style="stroke:none;fill-rule:evenodd;fill:#000000;fill-opacity:1;"/>
        </g>
        <g id="Shape19">
            <desc shapeID="19" type="0" basicInfo-basicType="0" basicInfo-roundedRectRadius="12" basicInfo-polygonSides="6" basicInfo-starPoints="5" bounding="rect(-170.341,-142.459,340.684,284.917)" text="" font-familyName="Avenir" font-pixelSize="300" font-bold="0" font-underline="0" font-alignment="1" strokeStyle="0" markerStart="0" markerEnd="0" shadowEnabled="0" shadowOffsetX="0" shadowOffsetY="2" shadowBlur="4" shadowOpacity="160" blurEnabled="0" blurRadius="4" transform="matrix(0.0670468,0.00658841,-0.00658841,0.0670468,275.532,64.2727)" pers-center="0,0" pers-size="0,0" pers-start="0,0" pers-end="0,0" locked="0" mesh="" flag=""/>
            <path id="shapePath19" d="M269.404,72.9852 L270.907,72.3052 L272.232,70.3455 L274.028,68.5811 L275.919,68.3278 L278.221,69.8652 L281.119,71.2535 L283.731,72.6076 L284.25,71.7805 L283.173,70.4673 L281.268,68.6337 L281.528,68.2204 L283.173,68.7675 L284.768,68.9845 L286.502,68.8669 L286.686,68.1167 L284.555,66.6617 L282.374,65.8164 L280.853,65.8164 L279.829,65.7239 L280.501,65.2659 L283.585,64.0325 L285.545,63.7377 L286.971,62.8575 L286.914,62.3033 L284.25,61.7525 L282.24,62.3033 L279.901,62.7627 L278.467,63.9836 L277.943,63.3683 L279.139,61.0393 L280.337,59.3399 L281.684,56.1113 L281.759,55.3504 L280.682,55.135 L279.395,56.5606 L277.943,57.5065 L276.871,60.1156 L276.07,61.2087 L275.316,58.8298 L274.76,57.7874 L274.021,57.4953 L273.304,58.0833 L273.775,59.9953 L274.386,61.592 L273.701,61.854 L272.232,60.2774 L270.468,59.0122 L268.781,58.5472 L267.216,57.7348 L266.152,58.508 L267.99,60.1156 L270.123,61.4841 L272.669,63.4378 C272.669,63.4378 272.066,64.9181 272.066,64.9181 L269.972,65.5044 L266.705,65.8983 L264.752,66.6696 L263.668,67.6605 L264.246,68.4856 L266.603,67.949 L268.712,67.949 L271.123,67.9986 L270.548,69.0599 L269.784,70.1158 L268.317,71.7805 L268.069,73.1829 L269.404,72.9852 Z" style="stroke:none;fill-rule:evenodd;fill:#000000;fill-opacity:1;"/>
        </g>
        <g id="Shape20">
            <desc shapeID="20" type="0" basicInfo-basicType="0" basicInfo-roundedRectRadius="12" basicInfo-polygonSides="6" basicInfo-starPoints="5" bounding="rect(-123.074,-426.156,246.146,852.313)" text="" font-familyName="" font-pixelSize="20" font-bold="0" font-underline="0" font-alignment="1" strokeStyle="0" markerStart="0" markerEnd="0" shadowEnabled="0" shadowOffsetX="0" shadowOffsetY="2" shadowBlur="4" shadowOpacity="160" blurEnabled="0" blurRadius="4" transform="matrix(0.148709,0,0,0.148709,205.896,75.4237)" pers-center="0,0" pers-size="0,0" pers-start="0,0" pers-end="0,0" locked="0" mesh="" flag=""/>
            <path id="shapePath20" d="M211.178,12.3564 C210.569,12.7729 209.319,14.2897 209.007,15.0035 C208.888,15.286 208.487,16.1337 208.115,16.8921 C207.416,18.3495 207.372,18.5726 207.609,19.2715 C207.743,19.6581 207.698,19.8663 207.163,20.9221 C206.464,22.305 206.152,22.4984 205.29,22.0821 C204.918,21.9184 204.695,21.6359 204.427,21.0708 C204.025,20.1488 203.684,19.8068 202.895,19.5391 C201.973,19.2268 201.81,19.4053 201.81,20.7882 C201.81,21.7252 201.884,22.0821 202.152,22.6025 C202.568,23.3758 202.747,24.3127 202.553,24.6845 C202.419,24.9224 202.375,24.9224 201.78,24.6993 C201.081,24.4465 199.996,23.7029 199.46,23.123 C199.267,22.9148 198.776,22.6471 198.345,22.4984 C197.914,22.3646 197.304,22.0969 196.977,21.9184 C196.65,21.7252 195.876,21.4723 195.267,21.3385 C194.657,21.2047 193.556,20.8329 192.813,20.5206 C192.084,20.1934 191.207,19.896 190.865,19.8365 C190.3,19.7473 190.225,19.7771 189.854,20.2083 C189.244,20.937 189.184,20.8775 191.474,22.0821 C192.382,22.5431 193.319,23.0784 193.556,23.2717 C193.809,23.4501 194.211,23.6435 194.464,23.6881 C194.969,23.807 196.441,24.8629 196.917,25.4726 C197.081,25.6659 197.557,25.9485 197.988,26.0823 C198.404,26.231 198.925,26.4986 199.133,26.692 C199.341,26.8704 199.802,27.1679 200.174,27.3314 C201.542,27.956 202.91,28.9226 203.252,29.5174 C203.446,29.8298 203.594,30.1718 203.594,30.261 C203.594,30.4692 203.074,30.7071 201.929,30.9897 C201.408,31.1235 200.799,31.3615 200.546,31.5101 C199.936,31.8819 199.044,32.0753 197.259,32.2388 C196.426,32.3132 195.549,32.4767 195.296,32.6106 C195.044,32.7445 194.345,32.9526 193.75,33.0716 C193.155,33.2055 192.263,33.5028 191.772,33.7259 C191.281,33.9638 190.508,34.2613 190.047,34.3951 C189.229,34.6182 187.935,35.5104 187.638,36.0458 C187.445,36.4175 187.906,36.8191 188.694,36.9975 C189.408,37.1462 190.82,36.8785 192.084,36.3431 C192.396,36.2093 193.333,35.9714 194.151,35.8078 C194.969,35.6294 196.159,35.3468 196.798,35.1386 C197.973,34.7817 198.761,34.6925 199.088,34.9007 C199.178,34.9602 199.297,35.2576 199.356,35.5551 C199.445,36.0458 199.386,36.2391 198.821,37.161 C198.464,37.741 197.943,38.5292 197.676,38.8861 C197.408,39.2578 197.066,39.9568 196.917,40.4326 C196.768,40.9085 196.501,41.4885 196.322,41.7115 C196.04,42.0684 196.025,42.1577 196.203,42.4253 C196.337,42.6335 196.605,42.7525 196.962,42.7822 C197.438,42.8269 197.616,42.7377 198.152,42.2469 C198.494,41.9346 198.88,41.6074 198.999,41.5331 C199.237,41.3844 200.085,40.2988 201.379,38.4698 C202.152,37.3841 202.494,37.0569 204.011,35.9565 L204.665,35.4955 L205.319,35.7483 C205.676,35.8821 206.018,36.0606 206.063,36.1499 C206.122,36.2242 206.182,36.9083 206.212,37.6667 C206.226,38.4102 206.316,39.1836 206.39,39.3917 C206.464,39.6297 206.464,40.1798 206.375,40.8491 C206.256,41.667 206.256,42.0833 206.404,42.5592 C206.494,42.9012 206.569,43.2432 206.569,43.3325 C206.404,44.656 206.376,49.4593 206.569,51.5115 C206.911,55.3333 206.851,56.5675 207.014,56.984 C207.386,57.9357 207.476,60.8057 207.46,70.4421 C207.445,75.974 207.431,80.9409 207.431,81.4762 C207.416,82.0116 207.431,84.3464 207.46,86.6811 C207.491,91.0234 207.297,95.6484 207,97.7601 C206.583,100.615 206.538,107.455 206.94,109.061 C207.297,110.519 207.431,111.917 207.297,112.705 C207.163,113.493 206.851,120.006 206.91,120.661 C207,121.553 206.881,124.84 206.732,125.569 C206.657,125.97 206.554,128.914 206.509,132.097 C206.464,135.279 206.39,137.926 206.36,137.971 C206.212,138.223 206.851,138.699 207.431,138.774 C207.936,138.833 208.1,138.789 208.367,138.506 C208.635,138.223 208.68,138.03 208.635,137.51 C208.591,137.152 208.65,136.707 208.754,136.483 C209.007,135.993 209.037,134.922 208.873,132.707 C208.799,131.725 208.769,129.316 208.814,127.353 C208.858,125.39 208.844,123.531 208.799,123.234 C208.754,122.937 208.799,122.222 208.903,121.643 C209.007,121.077 209.126,119.561 209.17,118.252 C209.216,116.958 209.32,115.664 209.409,115.382 C209.661,114.579 209.602,110.564 209.335,109.508 C209.201,109.017 209.067,107.946 209.037,107.129 C209.007,106.311 208.903,105.032 208.814,104.303 C208.591,102.682 208.695,100.585 209.097,98.3545 C209.275,97.4472 209.469,96.0499 209.557,95.2322 C209.855,92.4957 210.004,85.5657 209.87,81.6993 C209.795,79.6472 209.736,77.6395 209.736,77.2381 C209.721,76.8216 209.632,76.0781 209.542,75.5577 C209.409,74.8439 209.409,74.4126 209.542,73.7731 C209.751,72.762 209.795,70.7395 209.721,65.3413 C209.661,60.5381 209.513,58.709 209.126,58.0695 C208.948,57.7721 208.814,57.1773 208.754,56.4188 C208.71,55.7645 208.606,54.6938 208.516,54.0395 C208.442,53.3852 208.517,51.1546 208.427,49.0726 C208.323,46.4257 208.294,45.2062 208.16,44.9831 C208.056,44.8047 208.118,44.2592 208.115,43.8886 C208.103,42.6614 208.29,41.5877 208.115,40.3137 C208.168,39.9729 208.215,39.6309 208.248,39.2876 C208.295,38.8077 208.248,38.321 208.353,37.8451 C208.725,36.0755 208.948,35.912 210.345,36.4771 C210.881,36.6852 211.386,36.8637 211.491,36.8637 C211.788,36.8637 214.717,38.3358 215.639,38.9456 C217.602,40.2542 217.647,40.284 218.435,40.3137 C219.06,40.3435 219.268,40.284 219.521,40.0312 L219.833,39.7188 L219.446,39.0497 C219.105,38.4698 216.799,36.2986 215.461,35.2873 L215.03,34.9602 L215.417,34.5141 C216.011,33.8003 217.052,33.6218 218.881,33.9341 C222.376,34.4992 223.596,34.5289 224.042,34.0382 C224.265,33.7854 224.265,33.7556 223.937,33.5177 C223.744,33.3839 223.239,33.0121 222.792,32.6849 C222.361,32.3726 221.93,32.105 221.855,32.105 C221.767,32.105 221.231,31.867 220.651,31.5697 C219.327,30.9005 215.788,30.0974 214.717,30.2461 L214.004,30.3354 L214.004,29.7405 C214.004,29.0713 214.257,28.8632 215.491,28.536 C215.863,28.4468 216.621,28.1344 217.186,27.8519 C217.766,27.5693 218.301,27.3464 218.405,27.3464 C218.495,27.3464 218.911,27.1233 219.298,26.8555 C219.699,26.5879 220.368,26.2161 220.799,26.0525 C221.736,25.6659 223.045,24.8331 223.149,24.5358 C223.194,24.4167 223.09,24.1788 222.927,24.0152 C222.436,23.5097 220.562,23.5988 218.837,24.1937 C218.108,24.4465 217.201,24.729 216.829,24.8183 C216.457,24.9075 215.729,25.2496 215.193,25.5618 C214.658,25.8741 214.033,26.2161 213.795,26.3054 C213.26,26.4986 211.698,27.4355 211.104,27.9114 C210.762,28.194 210.554,28.2534 210.092,28.194 C209.766,28.1493 209.438,28.0453 209.349,27.956 C209.082,27.6883 209.037,25.6065 209.289,24.7737 C209.9,22.7363 210.197,21.398 210.226,20.5652 C210.241,19.9555 210.39,19.2863 210.717,18.4536 C210.97,17.7844 211.178,17.0259 211.178,16.7583 C211.178,16.4906 211.416,15.7917 211.698,15.1968 C212.175,14.2153 212.501,13.1743 212.517,12.6093 C212.517,12.4754 212.353,12.297 212.145,12.2078 C211.669,11.9847 211.758,11.9698 211.178,12.3564 Z" style="stroke:none;fill-rule:evenodd;fill:#000000;fill-opacity:1;"/>
        </g>
    </g>
</svg>
