<?xml version="1.0"?>
<svg version="1.1" xmlns="http://www.w3.org/2000/svg" xmlns:xlink="http://www.w3.org/1999/xlink" width="100" height="100">
    <desc iVinci="yes" version="4.6" gridStep="20" showGrid="no" snapToGrid="no" codePlatform="0"/>
    <g id="Layer1" name="Layer 1" opacity="1">
        <g id="Shape1">
            <desc shapeID="1" type="0" basicInfo-basicType="0" basicInfo-roundedRectRadius="12" basicInfo-polygonSides="6" basicInfo-starPoints="5" bounding="rect(-68.7532,-87.9706,137.506,175.941)" text="" font-familyName="" font-pixelSize="20" font-bold="0" font-underline="0" font-alignment="1" strokeStyle="0" markerStart="0" markerEnd="0" shadowEnabled="0" shadowOffsetX="0" shadowOffsetY="2" shadowBlur="4" shadowOpacity="160" blurEnabled="0" blurRadius="4" transform="matrix(0.497647,0,0,0.436571,42.0166,41.5869)" pers-center="0,0" pers-size="0,0" pers-start="0,0" pers-end="0,0" locked="0" mesh="" flag=""/>
            <path id="shapePath1" d="M42.7231,3.827 C34.1137,5.48597 27.1467,11.1614 24.6087,18.5831 C23.3148,22.3376 21.1749,30.5451 21.1749,31.6802 C21.1749,32.1168 20.6275,33.1209 19.9805,33.8631 C18.189,36.0023 12.5656,45.6505 10.2267,50.5401 C7.88774,55.517 7.24077,59.2715 8.28582,61.9346 C8.63421,62.8514 8.88303,64.0738 8.78347,64.5977 C8.53464,66.4749 10.8238,65.5144 12.3167,63.1133 C12.9637,62.0655 14.9046,59.6644 16.6463,57.6998 L19.881,54.1636 L20.7768,58.2674 C21.8716,63.1133 25.0068,69.0507 27.1964,70.4914 C29.187,71.8011 29.0378,72.063 26.4997,71.8447 C24.6087,71.6264 24.1608,71.7574 22.8172,72.9798 C19.2341,76.0795 20.727,79.572 25.5542,79.572 C26.3007,79.572 29.2368,79.0481 32.0734,78.4369 C36.3033,77.5201 37.8461,77.3892 40.2845,77.6511 C41.9766,77.8257 44.5643,77.9131 46.1568,77.8694 C48.3465,77.8257 49.491,78.044 51.3821,78.9608 C53.6215,80.0086 54.0694,80.0959 59.2947,79.9213 C64.3707,79.7466 65.1669,79.6157 68.2026,78.306 C71.8851,76.6907 72.9302,75.4683 72.0843,73.7656 C71.4373,72.5432 68.6007,71.2772 65.9632,70.9716 L64.0721,70.7533 L66.5106,68.0902 C71.1885,62.9823 74.2242,53.3341 72.3828,49.143 C71.6363,47.3968 70.9396,48.5755 70.9396,51.6315 C70.9396,57.1759 67.3566,64.5977 62.7285,68.7887 C59.7924,71.4081 52.4769,75.6429 50.9342,75.6429 C50.4366,75.6429 49.8891,75.3373 49.7398,74.988 C49.292,73.9839 48.5455,74.2022 48.5455,75.3809 C48.5455,76.6033 47.6995,76.8653 42.9719,77.1709 L39.8367,77.3455 L42.9719,76.9089 C44.9127,76.6033 45.9578,76.2541 45.7089,76.0358 C45.4601,75.8175 43.5192,75.3373 41.4291,74.988 C36.9006,74.2458 34.1137,73.2854 34.1137,72.4996 C34.1137,72.194 32.6705,70.797 30.9288,69.4436 C27.1467,66.4312 26.4499,65.1215 23.8622,55.517 C21.7721,47.6587 21.8219,47.7024 20.6275,47.7024 C19.5825,47.7024 19.4829,48.008 19.682,50.4528 C19.7815,51.9807 19.4829,52.4173 16.5966,55.0367 C14.8548,56.6521 12.914,58.6166 12.267,59.4025 C10.8238,61.1924 10.1271,60.8431 10.5252,58.4857 C10.9731,55.648 11.6201,54.0763 15.2031,47.0475 C17.0444,43.424 18.836,39.7568 19.1346,38.84 C19.4829,37.9232 20.6275,36.3079 21.7223,35.2164 C23.2152,33.6884 23.6631,32.859 23.6631,31.6366 C23.6631,29.0608 25.0566,22.9051 26.4002,19.3253 C28.2415,14.4793 32.372,10.2883 37.1991,8.23637 C39.1897,7.40688 41.8273,6.49009 43.0714,6.2718 C46.4554,5.57329 55.1642,5.6606 57.3538,6.40277 C58.3989,6.75203 60.1904,7.27591 61.3848,7.53786 C62.9773,7.88711 64.52,8.84757 67.4063,11.2924 C71.288,14.5666 71.288,14.5666 72.3331,18.3648 C72.9302,20.4604 73.6767,24.3895 73.9753,27.0962 C74.3734,30.1959 74.7715,31.9422 75.1198,31.8548 C75.8166,31.6366 76.5133,24.6078 76.1151,21.5081 C75.9659,20.1984 75.3687,17.7536 74.8213,16.051 C73.9753,13.4316 73.3781,12.6457 70.5913,10.1136 C67.2073,7.05762 64.6692,5.70426 58.9961,4.08895 C55.1642,2.99752 47.6995,2.86655 42.7231,3.827 M69.2974,73.9839 C70.0937,74.7261 70.0438,74.7697 68.3519,75.3809 C66.0627,76.2541 61.0365,76.9526 57.3041,76.9526 C53.9201,76.9526 53.9698,76.778 58.0506,74.5078 C60.5885,73.1544 60.9867,73.0671 64.5697,73.1544 C67.4561,73.2417 68.6504,73.46 69.2974,73.9839 M29.8837,75.1627 L31.8743,75.4683 L29.2368,75.9921 C25.0068,76.8216 23.7626,76.6033 25.2556,75.2936 C25.9523,74.6824 26.9973,74.6824 29.8837,75.1627 Z" style="stroke:none;fill-rule:nonzero;fill:#000000;fill-opacity:1;"/>
        </g>
        <g id="Shape2">
            <desc shapeID="2" type="0" basicInfo-basicType="0" basicInfo-roundedRectRadius="12" basicInfo-polygonSides="6" basicInfo-starPoints="5" bounding="rect(-1.92114,-1.91075,3.84232,3.82149)" text="" font-familyName="" font-pixelSize="20" font-bold="0" font-underline="0" font-alignment="1" strokeStyle="0" markerStart="0" markerEnd="0" shadowEnabled="0" shadowOffsetX="0" shadowOffsetY="2" shadowBlur="4" shadowOpacity="160" blurEnabled="0" blurRadius="4" transform="matrix(0.497647,0,0,0.436571,41.0415,19.7229)" pers-center="0,0" pers-size="0,0" pers-start="0,0" pers-end="0,0" locked="0" mesh="" flag=""/>
            <path id="shapePath2" d="M40.0855,19.8055 C40.0855,20.8969 41.7278,20.7659 41.9766,19.6309 C42.0761,19.107 41.8273,18.8887 41.1306,18.8887 C40.3841,18.8887 40.0855,19.1506 40.0855,19.8055 Z" style="stroke:none;fill-rule:nonzero;fill:#000000;fill-opacity:1;"/>
        </g>
        <g id="Shape3">
            <desc shapeID="3" type="0" basicInfo-basicType="0" basicInfo-roundedRectRadius="12" basicInfo-polygonSides="6" basicInfo-starPoints="5" bounding="rect(-2.20326,-2.27674,4.40652,4.55348)" text="" font-familyName="" font-pixelSize="20" font-bold="0" font-underline="0" font-alignment="1" strokeStyle="0" markerStart="0" markerEnd="0" shadowEnabled="0" shadowOffsetX="0" shadowOffsetY="2" shadowBlur="4" shadowOpacity="160" blurEnabled="0" blurRadius="4" transform="matrix(0.497647,0,0,0.436571,54.6643,20.3515)" pers-center="0,0" pers-size="0,0" pers-start="0,0" pers-end="0,0" locked="0" mesh="" flag=""/>
            <path id="shapePath3" d="M53.6713,20.0238 C53.2233,21.0279 54.3183,21.7701 55.2637,21.0715 C55.8609,20.635 55.9107,20.373 55.4628,19.9365 C54.7163,19.1506 54.0694,19.1506 53.6713,20.0238 Z" style="stroke:none;fill-rule:nonzero;fill:#000000;fill-opacity:1;"/>
        </g>
        <g id="Shape4">
            <desc shapeID="4" type="0" basicInfo-basicType="0" basicInfo-roundedRectRadius="12" basicInfo-polygonSides="6" basicInfo-starPoints="5" bounding="rect(-39.6845,-51.0563,79.369,102.113)" text="" font-familyName="" font-pixelSize="20" font-bold="0" font-underline="0" font-alignment="1" strokeStyle="0" markerStart="0" markerEnd="0" shadowEnabled="0" shadowOffsetX="0" shadowOffsetY="2" shadowBlur="4" shadowOpacity="160" blurEnabled="0" blurRadius="4" transform="matrix(0.497647,0,0,0.436571,47.5514,48.7992)" pers-center="0,0" pers-size="0,0" pers-start="0,0" pers-end="0,0" locked="0" mesh="" flag=""/>
            <path id="shapePath4" d="M47.6497,27.0526 C45.3606,28.013 41.6779,31.7239 40.9813,33.8194 C40.5333,35.1291 39.8865,35.784 38.2442,36.6135 C37.0996,37.2247 35.5569,38.3161 34.91,39.0146 C34.2132,39.7131 33.4668,40.2807 33.2678,40.2807 C31.9241,40.2807 28.5899,44.7773 27.9429,47.5277 C27.1964,50.5837 29.5852,64.685 31.3767,67.7846 C32.1729,69.138 34.064,70.666 35.3578,71.0152 C35.9053,71.1462 37.0498,71.1026 37.8461,70.8843 C39.14,70.535 39.2395,70.4914 38.3437,70.2294 C34.1635,68.9634 33.5166,67.8283 32.0734,59.2715 C30.9288,52.3737 30.9288,45.0829 32.0734,44.0788 C32.4715,43.7296 32.6208,43.7732 32.6208,44.2098 C32.6208,44.559 33.1682,43.8605 33.8152,42.6818 C34.9597,40.5426 36.5522,39.0146 39.0902,37.5303 C39.7372,37.0937 40.4836,36.7881 40.7325,36.7881 C41.1803,36.7881 43.569,41.3284 43.569,42.2452 C43.569,43.5113 44.6141,43.3367 47.1024,41.5904 C48.5455,40.5863 50.3371,39.4948 51.0836,39.1892 C51.83,38.84 52.5765,38.1415 52.7755,37.6612 C53.2233,36.3952 53.721,36.5698 55.1642,38.4907 C56.3089,39.9751 61.5342,43.8605 63.0271,44.2971 C63.9228,44.559 64.9181,50.1472 64.9679,55.0367 C64.9679,60.1446 64.4702,61.367 60.9867,64.8159 C59.8421,65.9947 59.1454,66.9115 59.4937,66.9115 C60.3895,66.9115 64.8186,62.8077 65.8637,60.9304 C67.2073,58.6603 67.6551,54.0763 67.0083,48.8374 C66.5603,45.0829 66.3115,44.2971 65.0674,42.9437 C64.2712,42.0706 62.9773,41.1101 62.181,40.7609 C61.3848,40.4553 59.5933,39.1892 58.1501,37.9668 C56.1097,36.2642 55.3136,35.8276 54.368,36.0023 C53.2233,36.1769 53.0243,36.0023 52.5267,34.2996 C51.6807,31.8112 48.6948,28.0567 48.2967,29.0171 C48.0977,29.4101 48.5455,30.6761 49.2422,31.8548 C49.9389,32.9899 50.5361,34.0813 50.5361,34.256 C50.5361,34.4306 49.7896,34.3433 48.9436,34.125 C47.2019,33.6884 44.7136,33.9504 43.6685,34.7362 C42.6236,35.4784 42.4742,34.7799 43.2704,33.0772 C43.7183,32.2041 45.3108,30.4142 46.8536,29.1044 C48.3962,27.7947 49.5408,26.616 49.4413,26.5287 C49.3418,26.4414 48.5455,26.6597 47.6497,27.0526 M50.0883,35.6967 C51.8797,36.2206 51.0836,37.3993 48.0977,38.84 L45.1615,40.1933 L44.2657,38.1851 C43.7183,37.05 43.2704,36.0459 43.2207,35.915 C43.0216,35.5657 48.9933,35.3911 50.0883,35.6967 M33.2179,41.8087 C33.1184,42.4199 32.6705,42.9001 32.3222,42.9001 C31.725,42.9001 31.7748,42.6818 32.4217,41.8087 C32.8696,41.1975 33.2678,40.7172 33.3673,40.7172 C33.417,40.7172 33.3673,41.1975 33.2179,41.8087 Z" style="stroke:none;fill-rule:nonzero;fill:#000000;fill-opacity:1;"/>
        </g>
        <g id="Shape5">
            <desc shapeID="5" type="0" basicInfo-basicType="0" basicInfo-roundedRectRadius="12" basicInfo-polygonSides="6" basicInfo-starPoints="5" bounding="rect(-8.80887,-33.6263,17.6177,67.2526)" text="" font-familyName="" font-pixelSize="20" font-bold="0" font-underline="0" font-alignment="1" strokeStyle="0" markerStart="0" markerEnd="0" shadowEnabled="0" shadowOffsetX="0" shadowOffsetY="2" shadowBlur="4" shadowOpacity="160" blurEnabled="0" blurRadius="4" transform="matrix(0.497647,0,0,0.436571,80.9877,44.9615)" pers-center="0,0" pers-size="0,0" pers-start="0,0" pers-end="0,0" locked="0" mesh="" flag=""/>
            <path id="shapePath5" d="M76.6626,30.6324 C76.5133,30.8507 76.6626,31.2 76.9612,31.3746 C77.9067,31.8548 80.8428,37.8359 81.6889,41.0228 C82.8334,45.1702 82.8334,54.2073 81.7386,56.8267 C80.4447,59.7517 80.6438,60.4066 82.3855,58.7476 C84.4756,56.6957 85.3714,53.5961 85.3714,48.1826 C85.3714,40.4116 83.8287,35.9586 79.7978,32.1604 C77.7574,30.1959 77.21,29.9339 76.6626,30.6324 Z" style="stroke:none;fill-rule:nonzero;fill:#000000;fill-opacity:1;"/>
        </g>
        <g id="Shape6">
            <desc shapeID="6" type="0" basicInfo-basicType="0" basicInfo-roundedRectRadius="12" basicInfo-polygonSides="6" basicInfo-starPoints="5" bounding="rect(-5.85042,-20.2973,11.7007,40.5945)" text="" font-familyName="" font-pixelSize="20" font-bold="0" font-underline="0" font-alignment="1" strokeStyle="0" markerStart="0" markerEnd="0" shadowEnabled="0" shadowOffsetX="0" shadowOffsetY="2" shadowBlur="4" shadowOpacity="160" blurEnabled="0" blurRadius="4" transform="matrix(0.497647,0,0,0.436571,76.4452,55.6649)" pers-center="0,0" pers-size="0,0" pers-start="0,0" pers-end="0,0" locked="0" mesh="" flag=""/>
            <path id="shapePath6" d="M73.5772,47.4841 C73.4279,47.877 73.6767,49.1867 74.1245,50.4528 C74.5725,51.7188 75.2692,54.6002 75.6673,56.8703 C76.6128,62.5458 78.0062,65.5581 78.9518,64.2047 C79.5987,63.3316 79.4495,57.9181 78.6532,54.12 C77.6579,49.0994 74.6222,45.1703 73.5772,47.4841 Z" style="stroke:none;fill-rule:nonzero;fill:#000000;fill-opacity:1;"/>
        </g>
        <g id="Shape7">
            <desc shapeID="7" type="0" basicInfo-basicType="0" basicInfo-roundedRectRadius="12" basicInfo-polygonSides="6" basicInfo-starPoints="5" bounding="rect(-9.42651,-8.88355,18.8532,17.7671)" text="" font-familyName="" font-pixelSize="20" font-bold="0" font-underline="0" font-alignment="1" strokeStyle="0" markerStart="0" markerEnd="0" shadowEnabled="0" shadowOffsetX="0" shadowOffsetY="2" shadowBlur="4" shadowOpacity="160" blurEnabled="0" blurRadius="4" transform="matrix(0.492188,0,0,0.492188,56.5983,86.0154)" pers-center="0,0" pers-size="0,0" pers-start="0,0" pers-end="0,0" locked="0" mesh="" flag=""/>
            <path id="shapePath7" d="M53.5829,82.1795 C52.0079,82.7209 51.9586,82.8194 51.9586,85.5264 C51.9586,87.9874 52.1063,88.4795 53.2384,89.3655 C55.1579,90.8913 57.4711,90.6944 59.5876,88.8733 C61.9501,86.8061 61.7531,86.2647 59.1446,87.5444 C57.9633,88.135 56.6344,88.4303 56.1422,88.2334 C55.4039,87.9874 55.5024,87.7413 56.8312,86.5108 C58.5048,84.9358 58.7509,83.5084 57.5695,82.3272 C56.7328,81.4412 55.8961,81.4412 53.5829,82.1795 M56.8805,83.9514 C56.8805,84.4928 54.8133,86.0678 54.518,85.7725 C54.4196,85.6248 54.5673,85.0834 54.9118,84.542 C55.4532,83.5084 56.8805,83.1147 56.8805,83.9514 Z" style="stroke:none;fill-rule:nonzero;fill:#000000;fill-opacity:1;"/>
        </g>
        <g id="Shape8">
            <desc shapeID="8" type="0" basicInfo-basicType="0" basicInfo-roundedRectRadius="12" basicInfo-polygonSides="6" basicInfo-starPoints="5" bounding="rect(-20.7513,-15.9261,41.5026,31.8521)" text="" font-familyName="" font-pixelSize="20" font-bold="0" font-underline="0" font-alignment="1" strokeStyle="0" markerStart="0" markerEnd="0" shadowEnabled="0" shadowOffsetX="0" shadowOffsetY="2" shadowBlur="4" shadowOpacity="160" blurEnabled="0" blurRadius="4" transform="matrix(0.492188,0,0,0.492188,41.123,90.4355)" pers-center="0,0" pers-size="0,0" pers-start="0,0" pers-end="0,0" locked="0" mesh="" flag=""/>
            <path id="shapePath8" d="M38.6203,84.0498 C37.8328,84.8866 37.193,85.3295 37.193,85.0342 C37.193,84.7389 36.4054,84.0991 35.4703,83.6561 L33.7477,82.8194 L32.2711,84.4436 C30.6468,86.2155 30.5976,86.6092 31.4836,92.86 C31.8773,95.9608 32.2218,97.0436 32.7633,97.0436 C33.3539,97.0436 33.5508,96.2561 33.6492,93.5983 C33.7969,90.3498 33.8953,90.1038 35.3719,89.1686 L36.8976,88.1842 L38.2266,89.5131 C39.9493,91.2358 42.9516,91.4327 44.3297,89.9069 C45.5602,88.578 46.0524,89.3655 46.0524,92.6631 C46.0524,96.1085 46.5446,98.2741 47.2828,98.2741 C48.0704,98.2741 48.464,96.6991 48.7101,92.7124 C48.8578,90.3991 49.1532,89.6116 50.236,88.6272 C51.2696,87.6428 51.5157,87.1506 51.2203,86.0678 C50.8266,84.3452 50.0883,83.6561 48.1688,83.2623 C46.7414,82.967 46.4953,83.0655 46.0524,84.2467 C45.8063,84.9358 45.5602,86.0678 45.5602,86.7569 C45.5602,87.5936 45.1664,88.0858 44.2804,88.4303 C42.8039,89.021 39.6539,88.578 39.6539,87.8397 C39.6539,87.5444 39.9984,87.4459 40.3922,87.6428 C41.5734,88.0858 43.5914,86.9045 43.5914,85.7725 C43.5914,84.4436 43.1485,83.8037 41.7704,83.0655 C40.2938,82.3272 40.2445,82.3272 38.6203,84.0498 M35.1258,85.0834 C35.9132,85.8709 35.8641,86.2155 34.9289,87.1506 C33.6,88.4795 32.7633,88.135 32.7633,86.2155 C32.7633,84.8866 32.9601,84.4928 33.6492,84.4928 C34.1414,84.4928 34.7813,84.7389 35.1258,85.0834 M42.1149,85.1819 C42.1149,86.0186 40.786,86.6092 40.3922,85.9694 C40.1954,85.6741 40.2445,85.2311 40.3922,84.985 C40.8351,84.2467 42.1149,84.3944 42.1149,85.1819 Z" style="stroke:none;fill-rule:nonzero;fill:#000000;fill-opacity:1;"/>
        </g>
    </g>
</svg>
