<?xml version="1.0"?>
<svg version="1.1" xmlns="http://www.w3.org/2000/svg" xmlns:xlink="http://www.w3.org/1999/xlink" width="100" height="100">
    <desc iVinci="yes" version="4.6" gridStep="20" showGrid="no" snapToGrid="no" codePlatform="0"/>
    <g id="Layer1" name="Layer 1" opacity="1">
        <g id="Shape1">
            <desc shapeID="1" type="0" basicInfo-basicType="0" basicInfo-roundedRectRadius="12" basicInfo-polygonSides="6" basicInfo-starPoints="5" bounding="rect(-9.7915,-8.70389,19.583,17.4078)" text="" font-familyName="" font-pixelSize="20" font-bold="0" font-underline="0" font-alignment="1" strokeStyle="0" markerStart="0" markerEnd="0" shadowEnabled="0" shadowOffsetX="0" shadowOffsetY="2" shadowBlur="4" shadowOpacity="160" blurEnabled="0" blurRadius="4" transform="matrix(0.509028,0.0721065,-0.0721065,0.509028,78.7085,13.7474)" pers-center="0,0" pers-size="0,0" pers-start="0,0" pers-end="0,0" locked="0" mesh="" flag=""/>
            <path id="shapePath1" d="M79.5053,10.3957 C76.5042,11.7879 72.8808,15.7401 73.1952,17.1866 C73.3631,17.8335 73.8136,17.5858 75.157,16.1664 C76.8491,14.4849 80.3508,12.1251 81.1143,12.2333 C81.3179,12.2621 81.3192,13.3527 81.1317,14.6762 C80.4034,19.8173 82.5337,19.8076 83.6255,14.666 C84.5655,10.2298 83.124,8.67557 79.5053,10.3957 Z" style="stroke:none;fill-rule:nonzero;fill:#000000;fill-opacity:1;"/>
        </g>
        <g id="Shape2">
            <desc shapeID="2" type="0" basicInfo-basicType="0" basicInfo-roundedRectRadius="12" basicInfo-polygonSides="6" basicInfo-starPoints="5" bounding="rect(-36.7729,-10.4723,73.5457,20.9446)" text="" font-familyName="" font-pixelSize="20" font-bold="0" font-underline="0" font-alignment="1" strokeStyle="0" markerStart="0" markerEnd="0" shadowEnabled="0" shadowOffsetX="0" shadowOffsetY="2" shadowBlur="4" shadowOpacity="160" blurEnabled="0" blurRadius="4" transform="matrix(0.509028,0.0721065,-0.0721065,0.509028,49.1148,16.8698)" pers-center="0,0" pers-size="0,0" pers-start="0,0" pers-end="0,0" locked="0" mesh="" flag=""/>
            <path id="shapePath2" d="M55.7185,12.634 C46.4338,12.5649 35.9522,14.7148 31.4477,17.5557 C28.6651,19.2385 29.3353,20.3719 32.3292,19.0306 C39.6541,15.7066 56.3302,13.4476 65.3688,14.5202 C67.4121,14.7578 68.8154,14.7489 68.4879,14.4947 C67.9856,14.0082 58.5177,12.667 55.7185,12.634 Z" style="stroke:none;fill-rule:nonzero;fill:#000000;fill-opacity:1;"/>
        </g>
        <g id="Shape3">
            <desc shapeID="3" type="0" basicInfo-basicType="0" basicInfo-roundedRectRadius="12" basicInfo-polygonSides="6" basicInfo-starPoints="5" bounding="rect(-10.2896,-10.5434,20.579,21.0868)" text="" font-familyName="" font-pixelSize="20" font-bold="0" font-underline="0" font-alignment="1" strokeStyle="0" markerStart="0" markerEnd="0" shadowEnabled="0" shadowOffsetX="0" shadowOffsetY="2" shadowBlur="4" shadowOpacity="160" blurEnabled="0" blurRadius="4" transform="matrix(0.509028,0.0721065,-0.0721065,0.509028,24.2984,17.4031)" pers-center="0,0" pers-size="0,0" pers-start="0,0" pers-end="0,0" locked="0" mesh="" flag=""/>
            <path id="shapePath3" d="M20.0047,12.1962 C19.7872,12.6327 19.3677,14.4945 19.1009,16.3778 C18.524,20.4501 19.1658,22.1506 21.4055,22.4679 C23.0853,22.7059 23.4989,21.9856 22.0295,21.362 C21.193,21.0358 21.1124,20.5052 21.5234,17.6037 C21.783,15.7712 22.1011,14.2586 22.2538,14.2802 C22.4066,14.3018 23.6367,15.5146 25.0344,17.0107 C27.5096,19.6979 29.8812,20.9166 29.2029,19.107 C29.0133,18.6128 27.5643,16.746 25.9918,15.0174 C23.0869,11.6982 20.8464,10.6538 20.0047,12.1962 Z" style="stroke:none;fill-rule:nonzero;fill:#000000;fill-opacity:1;"/>
        </g>
        <g id="Shape4">
            <desc shapeID="4" type="0" basicInfo-basicType="0" basicInfo-roundedRectRadius="12" basicInfo-polygonSides="6" basicInfo-starPoints="5" bounding="rect(-86.2889,-46.3321,172.578,92.6642)" text="" font-familyName="" font-pixelSize="20" font-bold="0" font-underline="0" font-alignment="1" strokeStyle="0" markerStart="0" markerEnd="0" shadowEnabled="0" shadowOffsetX="0" shadowOffsetY="2" shadowBlur="4" shadowOpacity="160" blurEnabled="0" blurRadius="4" transform="matrix(0.509028,0.0721065,-0.0721065,0.509028,50.1582,47.5527)" pers-center="0,0" pers-size="0,0" pers-start="0,0" pers-end="0,0" locked="0" mesh="" flag=""/>
            <path id="shapePath4" d="M80.2606,28.1569 C80.2245,28.4114 80.896,30.6354 81.786,33.15 C83.0043,36.6457 83.1727,37.6562 82.5839,37.7804 C82.1551,37.8755 79.4369,38.7366 76.6025,39.6851 C73.7609,40.6845 71.2098,41.4655 71.0062,41.4367 C70.8026,41.4078 69.502,42.1582 68.2235,43.1195 C66.7779,44.1609 65.3391,44.7878 64.6264,44.6869 C63.9647,44.5931 63.3759,44.7174 63.3326,45.0229 C63.1812,46.0918 62.9924,46.3247 61.0459,47.9701 C58.1041,50.4093 58.9555,50.9972 61.9409,48.6162 L64.4542,46.6356 L65.8447,48.1826 C67.5046,50.0274 67.8028,50.1215 67.9903,48.7981 C68.1201,47.8818 68.28,47.8526 69.175,48.4986 C70.2084,49.2681 70.2012,49.319 69.2128,49.6982 C67.5122,50.34 63.7709,52.9255 63.6916,53.4854 C63.6555,53.7399 64.4768,53.4409 65.5449,52.8652 L67.5139,51.7941 L67.749,53.8005 C68.0718,56.2867 67.9857,57.2611 67.4325,56.7673 C67.1997,56.5786 66.8289,56.6299 66.582,56.9065 C66.3933,57.1393 66.4082,57.4011 66.6627,57.4371 C67.528,57.5597 67.4216,59.7774 66.5214,60.9999 C65.7448,62.0841 65.6357,62.1206 65.7146,61.1971 C65.7503,60.5791 65.4453,60.8994 64.8141,62.0562 C62.8191,65.8755 58.2413,68.1348 53.8056,67.5584 C51.9731,67.2988 50.5181,66.5735 47.7312,64.621 C45.701,63.191 43.7947,61.9864 43.4384,61.9359 C42.0131,61.734 41.1155,58.9068 41.5337,55.9544 C41.7572,54.3765 42.1191,52.9219 42.4024,52.7543 C42.6348,52.5796 42.9029,51.7868 43.0039,51.0741 C43.1629,50.3178 43.4743,49.2196 43.8225,48.5939 C44.5551,47.088 43.1735,46.9442 41.7211,48.4001 C40.2687,49.8559 38.0794,49.1823 37.1462,46.9731 C36.4463,45.3163 35.7773,45.2734 35.5466,46.9023 C35.4673,47.4622 35.0605,47.7681 34.3987,47.6744 C33.1262,47.4941 33.155,47.2905 34.7096,46.2126 C35.8138,45.3824 35.8791,45.2878 35.1079,44.8671 C34.526,44.5769 33.6611,44.8179 32.4478,45.6845 C31.0676,46.6313 30.0427,46.9015 28.2976,46.7582 C27.0106,46.6797 24.524,46.639 22.7429,46.7502 L19.544,46.9721 L19.4549,45.4017 C19.4176,44.5656 19.7408,41.1844 20.2023,37.9266 C21.0175,32.5382 21.4811,31.098 23.4549,27.7949 C23.7959,27.2201 23.7302,26.9511 23.1193,26.8646 C22.6612,26.7997 21.5282,27.8335 20.5556,29.2015 C18.8134,31.6028 18.712,31.952 17.6449,39.4856 L16.5416,47.2737 L14.4334,47.4943 C13.2703,47.6411 8.22594,47.5981 5.42664,48.7627 C4.01835,49.3486 8.43891,49.3534 9.9642,49.3536 C12.2506,49.3538 16.7979,48.7639 16.7979,48.7639 L17.5482,50.0644 C17.9635,50.7983 18.2771,51.5177 18.2554,51.6704 C18.2338,51.8231 18.7288,52.3605 19.391,52.8178 C20.8027,53.8486 20.7959,54.263 19.285,55.399 C17.8321,56.4913 18.1172,57.7779 19.5556,56.7874 C20.1295,56.4014 20.6891,56.1171 20.8417,56.1388 C21.1472,56.182 21.579,58.6317 21.5078,59.8678 C21.4501,60.275 21.7122,60.6237 22.0248,60.6161 C22.3375,60.6084 22.8105,60.9351 23.0654,61.3346 C23.4442,61.9595 22.9649,62.4108 20.7197,63.5986 C17.973,65.0268 16.7675,66.2061 17.2919,66.9035 C17.4229,67.0778 17.9608,66.9463 18.4329,66.5459 C18.9487,66.2035 20.1911,65.4968 21.2957,65.0302 C22.9017,64.3231 23.476,64.3006 24.7855,64.9534 C29.1721,66.9767 40.0734,69.196 45.0173,69.1174 C48.2017,68.9973 47.3575,68.3585 42.6741,67.3316 C36.7324,66.0226 31.5174,64.3493 31.5967,63.7893 C31.7914,62.4149 34.2615,60.7398 36.4859,60.4318 C38.7613,60.131 38.9139,60.1527 39.708,61.5113 C40.167,62.3033 41.7391,63.6683 43.2814,64.5099 C44.8166,65.4024 46.4684,66.571 46.9634,67.1084 C48.9292,69.36 50.9661,70.3755 53.6054,70.4378 C59.7782,70.4814 72.7172,68.2123 71.9744,67.2244 C71.7997,66.9919 72.8313,66.3073 74.1683,65.6659 C75.5635,64.9808 77.6848,63.5678 78.9778,62.5048 C80.9825,60.8156 81.5348,60.5823 83.3164,60.8347 C85.9124,61.2024 86.5805,60.5182 84.6453,59.5171 C83.816,59.14 83.2048,58.69 83.2192,58.5882 C83.2408,58.4355 83.8504,57.4314 84.5833,56.2891 C86.3178,53.5751 86.9163,49.3502 86.3644,43.7161 C86.1362,41.2952 85.9736,39.1433 86.0025,38.9397 C86.0385,38.6852 88.4806,37.9407 91.4245,37.3193 C94.3755,36.6469 96.7014,35.9898 96.614,35.8736 C96.3955,35.583 90.3979,36.1354 87.6212,36.6767 L85.4841,37.1009 L84.5072,34.8336 C82.3344,29.6449 80.4624,26.7316 80.2606,28.1569 M83.7458,42.774 C84.1888,48.4446 83.7502,52.6402 82.2919,55.2375 C81.3778,56.9254 80.6516,57.6533 79.9245,57.6542 C78.9357,57.6699 78.87,57.4009 79.3743,53.4742 C79.6478,51.1764 79.7764,49.1695 79.6453,48.9952 C79.5142,48.8209 80.0809,48.4857 80.8949,48.2376 L82.4067,47.8287 L80.836,47.5542 C79.6215,47.3303 79.0246,46.7784 77.9608,44.7584 C77.2248,43.3561 76.351,42.1938 76.0455,42.1505 C75.6964,42.0492 77.0263,41.4587 78.9958,40.7511 C80.9652,40.0435 82.746,39.5688 83.037,39.7139 C83.2843,39.8009 83.6059,41.1964 83.7458,42.774 M76.5075,45.4872 L78.2039,47.441 L75.2019,48.1061 C72.3671,48.6911 72.1562,48.7132 70.9045,47.6532 C68.4373,45.6421 68.3274,44.9515 70.333,43.9894 C72.9346,42.8522 74.4909,43.2284 76.5075,45.4872 M78.4937,52.7264 C78.2439,56.6892 77.9249,57.4748 76.6523,57.2945 C75.5325,57.1359 73.0925,53.4671 73.1781,52.1292 C73.2066,51.5621 73.2566,50.8422 73.2489,50.5296 C73.2846,49.9115 77.8853,48.5901 78.3948,49.0257 C78.5331,49.1492 78.6077,50.8213 78.4937,52.7264 M71.7393,52.7561 C71.8785,53.6067 72.3743,54.8711 72.8477,55.5613 L73.7071,56.8254 L71.8242,56.9221 C70.7845,56.9306 69.8538,56.9026 69.8173,56.7936 C69.7808,56.6846 69.5395,55.4561 69.2761,54.0169 C68.8298,51.669 68.8586,51.4654 69.6871,51.1154 C70.9587,50.5686 71.4754,50.9534 71.7393,52.7561 M28.4822,49.1209 C28.4677,49.2227 27.9817,50.0885 27.4302,51.0489 C26.5377,52.584 24.7358,53.5749 23.3105,53.373 C22.6997,53.2865 19.4957,49.146 19.8372,48.9348 C20.4837,48.4033 28.5543,48.6119 28.4822,49.1209 M35.5581,50.4867 C35.486,50.9957 33.0367,51.7911 30.514,52.0049 L29.0383,52.1593 L30.0763,50.6967 C30.9836,49.4233 31.3615,49.3211 33.3468,49.6023 C34.6193,49.7826 35.6013,50.1813 35.5581,50.4867 M38.7217,51.2464 C38.3509,51.2977 37.6383,51.1968 37.1946,51.0301 C36.7072,50.8053 37.0271,50.7467 37.8415,50.8621 C38.7068,50.9847 39.0487,51.137 38.7217,51.2464 M39.7211,54.088 C39.5625,55.2079 39.1994,55.5719 38.247,55.6966 C37.5637,55.7555 36.6042,55.9312 36.1244,56.019 C35.4267,56.1797 35.3172,55.8527 35.5191,54.4274 C35.7859,52.544 36.2364,52.2963 38.8032,52.5041 C39.7266,52.583 39.8942,52.8664 39.7211,54.088 M34.4506,54.6395 C34.2198,56.2684 33.9946,56.3923 31.1962,57.0863 C27.9109,57.919 26.9361,57.4694 27.7989,55.4108 C28.1323,54.5234 29.0332,54.0279 31.0757,53.5384 C34.7827,52.6615 34.7318,52.6543 34.4506,54.6395 M77.2169,61.3726 C74.472,64.255 68.732,67.3881 64.8867,68.1415 C60.8815,68.9242 60.1761,68.7724 61.7087,67.4837 C62.406,66.9594 63.4444,65.8603 63.967,65.1035 C64.5477,64.3031 65.7749,62.9711 66.6754,62.1121 C67.6269,61.2603 68.44,60.2851 68.4905,59.9288 C68.577,59.3179 70.4965,59.3302 75.9211,59.891 L78.3788,60.1353 L77.2169,61.3726 M38.737,58.1026 C38.7311,59.244 38.5135,59.6805 37.7793,59.7323 C37.2486,59.8129 36.9575,59.6678 37.1972,59.4422 C37.386,59.2093 36.804,58.9191 35.9896,58.8038 C33.9534,58.5154 34.1197,57.7081 36.3366,57.0875 C38.7204,56.3867 38.7204,56.3867 38.737,58.1026 M25.1257,57.4206 C25.2071,58.6783 24.2107,58.3814 23.7292,57.0151 C23.35,56.0267 23.4153,55.9322 24.2081,56.2002 C24.7027,56.3742 25.0959,56.8972 25.1257,57.4206 M33.917,58.4063 C33.8665,58.7627 27.1872,60.8281 26.5908,60.6398 C25.6453,60.3501 26.8296,59.687 29.8023,58.8619 C33.48,57.8252 34.0035,57.7955 33.917,58.4063 M31.4351,62.3645 C30.5634,63.0198 29.9237,63.1369 29.2981,62.7887 C28.5268,62.3679 28.6503,62.2296 30.0603,61.8063 C32.437,61.1564 32.8298,61.3159 31.4351,62.3645 Z" style="stroke:none;fill-rule:evenodd;fill:#000000;fill-opacity:1;"/>
        </g>
        <g id="Shape5">
            <desc shapeID="5" type="0" basicInfo-basicType="0" basicInfo-roundedRectRadius="12" basicInfo-polygonSides="6" basicInfo-starPoints="5" bounding="rect(-12.3516,-5.87581,24.7034,11.7516)" text="" font-familyName="" font-pixelSize="20" font-bold="0" font-underline="0" font-alignment="1" strokeStyle="0" markerStart="0" markerEnd="0" shadowEnabled="0" shadowOffsetX="0" shadowOffsetY="2" shadowBlur="4" shadowOpacity="160" blurEnabled="0" blurRadius="4" transform="matrix(0.509028,0.0721065,-0.0721065,0.509028,62.1998,29.2663)" pers-center="0,0" pers-size="0,0" pers-start="0,0" pers-end="0,0" locked="0" mesh="" flag=""/>
            <path id="shapePath5" d="M59.4791,26.4074 C56.9132,26.9266 55.8455,27.8658 55.753,29.6181 C55.6894,31.1668 55.784,31.2321 58.2057,31.7309 C61.2311,32.3672 66.4142,31.6995 67.8305,30.4981 C68.8329,29.6536 68.8474,29.5518 67.6388,28.1863 C66.656,27.0605 65.8267,26.6834 63.7324,26.4387 C62.2563,26.2296 60.3877,26.2245 59.4791,26.4074 M65.8725,28.5592 C66.309,28.7768 66.6148,29.1836 66.586,29.3872 C66.4995,29.998 62.0938,30.3086 59.1415,29.8904 C56.749,29.5515 56.5526,29.4717 57.3734,28.8091 C58.6448,27.8988 64.3811,27.7248 65.8725,28.5592 Z" style="stroke:none;fill-rule:nonzero;fill:#000000;fill-opacity:1;"/>
        </g>
        <g id="Shape6">
            <desc shapeID="6" type="0" basicInfo-basicType="0" basicInfo-roundedRectRadius="12" basicInfo-polygonSides="6" basicInfo-starPoints="5" bounding="rect(-13.9837,-7.20856,27.9673,14.4171)" text="" font-familyName="" font-pixelSize="20" font-bold="0" font-underline="0" font-alignment="1" strokeStyle="0" markerStart="0" markerEnd="0" shadowEnabled="0" shadowOffsetX="0" shadowOffsetY="2" shadowBlur="4" shadowOpacity="160" blurEnabled="0" blurRadius="4" transform="matrix(0.509028,0.0721065,-0.0721065,0.509028,39.6223,30.9114)" pers-center="0,0" pers-size="0,0" pers-start="0,0" pers-end="0,0" locked="0" mesh="" flag=""/>
            <path id="shapePath6" d="M37.7483,27.3272 C35.1459,27.7374 33.8963,28.4951 32.8804,30.1685 C31.4436,32.6131 32.2882,33.6155 36.2078,34.1707 C39.3709,34.5669 42.4017,33.6981 45.6854,31.4112 C47.0075,30.5081 47.218,30.1225 46.8824,29.1923 C46.5469,28.262 46.0086,28.03 42.7945,27.6267 C40.7583,27.3382 38.4898,27.2246 37.7483,27.3272 M41.8897,31.0813 C38.721,32.1901 33.4284,32.5308 33.5582,31.6146 C33.7962,29.9348 37.9104,29.1156 42.6516,29.7353 L44.9494,30.0089 L41.8897,31.0813 Z" style="stroke:none;fill-rule:nonzero;fill:#000000;fill-opacity:1;"/>
        </g>
        <g id="Shape7">
            <desc shapeID="7" type="0" basicInfo-basicType="0" basicInfo-roundedRectRadius="12" basicInfo-polygonSides="6" basicInfo-starPoints="5" bounding="rect(-2.51885,-2.35008,5.03761,4.70015)" text="" font-familyName="" font-pixelSize="20" font-bold="0" font-underline="0" font-alignment="1" strokeStyle="0" markerStart="0" markerEnd="0" shadowEnabled="0" shadowOffsetX="0" shadowOffsetY="2" shadowBlur="4" shadowOpacity="160" blurEnabled="0" blurRadius="4" transform="matrix(0.509028,0.0721065,-0.0721065,0.509028,59.0757,38.4517)" pers-center="0,0" pers-size="0,0" pers-start="0,0" pers-end="0,0" locked="0" mesh="" flag=""/>
            <path id="shapePath7" d="M57.9873,37.6713 C57.4287,38.6826 58.1133,39.7142 59.2111,39.662 C60.6216,39.6022 60.7866,37.7043 59.441,37.3061 C58.8446,37.1177 58.1977,37.2857 57.9873,37.6713 Z" style="stroke:none;fill-rule:nonzero;fill:#000000;fill-opacity:1;"/>
        </g>
        <g id="Shape8">
            <desc shapeID="8" type="0" basicInfo-basicType="0" basicInfo-roundedRectRadius="12" basicInfo-polygonSides="6" basicInfo-starPoints="5" bounding="rect(-4.26817,-3.98789,8.53627,7.97581)" text="" font-familyName="" font-pixelSize="20" font-bold="0" font-underline="0" font-alignment="1" strokeStyle="0" markerStart="0" markerEnd="0" shadowEnabled="0" shadowOffsetX="0" shadowOffsetY="2" shadowBlur="4" shadowOpacity="160" blurEnabled="0" blurRadius="4" transform="matrix(0.509028,0.0721065,-0.0721065,0.509028,42.5164,38.9649)" pers-center="0,0" pers-size="0,0" pers-start="0,0" pers-end="0,0" locked="0" mesh="" flag=""/>
            <path id="shapePath8" d="M41.1627,37.313 C39.5937,38.4927 40.367,40.7312 42.454,41.0268 C43.9302,41.2359 45.1353,39.6931 44.5664,38.2106 C44.1143,37.0042 42.2669,36.4829 41.1627,37.313 Z" style="stroke:none;fill-rule:nonzero;fill:#000000;fill-opacity:1;"/>
        </g>
        <g id="Shape9">
            <desc shapeID="9" type="0" basicInfo-basicType="0" basicInfo-roundedRectRadius="12" basicInfo-polygonSides="6" basicInfo-starPoints="5" bounding="rect(-9.78582,-9.38102,19.5716,18.7621)" text="" font-familyName="" font-pixelSize="20" font-bold="0" font-underline="0" font-alignment="1" strokeStyle="0" markerStart="0" markerEnd="0" shadowEnabled="0" shadowOffsetX="0" shadowOffsetY="2" shadowBlur="4" shadowOpacity="160" blurEnabled="0" blurRadius="4" transform="matrix(0.509028,0.0721065,-0.0721065,0.509028,51.9517,55.7019)" pers-center="0,0" pers-size="0,0" pers-start="0,0" pers-end="0,0" locked="0" mesh="" flag=""/>
            <path id="shapePath9" d="M51.0384,51.5373 C48.9378,52.0705 46.0979,54.524 47.3705,54.7043 C47.625,54.7404 47.8948,55.4017 47.9466,56.1359 C48.2995,59.5091 52.3811,61.8527 54.6183,59.9888 C56.0855,58.7947 57.5786,54.8522 57.1985,53.1368 C56.9571,51.9084 56.586,51.5962 55.1751,51.2925 C54.2152,51.1046 52.3322,51.2013 51.0384,51.5373 M55.7101,54.8472 C55.2918,57.7995 54.1448,59.2986 52.516,59.0679 C50.8871,58.8371 49.7511,57.3262 49.6395,55.1815 C49.5869,53.7202 49.7103,53.5819 51.651,53.0779 C52.7849,52.7712 54.2097,52.6096 54.8714,52.7033 C55.8458,52.7894 55.9624,53.0656 55.7101,54.8472 Z" style="stroke:none;fill-rule:nonzero;fill:#000000;fill-opacity:1;"/>
        </g>
        <g id="Shape10">
            <desc shapeID="10" type="0" basicInfo-basicType="0" basicInfo-roundedRectRadius="12" basicInfo-polygonSides="6" basicInfo-starPoints="5" bounding="rect(-0.325073,-1.53192,0.650055,3.06383)" text="" font-familyName="" font-pixelSize="20" font-bold="0" font-underline="0" font-alignment="1" strokeStyle="0" markerStart="0" markerEnd="0" shadowEnabled="0" shadowOffsetX="0" shadowOffsetY="2" shadowBlur="4" shadowOpacity="160" blurEnabled="0" blurRadius="4" transform="matrix(0.509028,0.0721065,-0.0721065,0.509028,66.3076,58.9353)" pers-center="0,0" pers-size="0,0" pers-start="0,0" pers-end="0,0" locked="0" mesh="" flag=""/>
            <path id="shapePath10" d="M66.1409,58.9209 C66.0399,59.6336 66.1057,59.9025 66.3089,59.5678 C66.454,59.2768 66.5405,58.666 66.4891,58.2953 C66.3797,57.9682 66.2418,58.2083 66.1409,58.9209 Z" style="stroke:none;fill-rule:nonzero;fill:#000000;fill-opacity:1;"/>
        </g>
        <g id="Shape11">
            <desc shapeID="11" type="0" basicInfo-basicType="0" basicInfo-roundedRectRadius="12" basicInfo-polygonSides="6" basicInfo-starPoints="5" bounding="rect(-11.1973,-22.9799,22.3945,45.9597)" text="" font-familyName="" font-pixelSize="20" font-bold="0" font-underline="0" font-alignment="1" strokeStyle="0" markerStart="0" markerEnd="0" shadowEnabled="0" shadowOffsetX="0" shadowOffsetY="2" shadowBlur="4" shadowOpacity="160" blurEnabled="0" blurRadius="4" transform="matrix(0.507391,0.0828406,-0.0828406,0.507391,80.2836,82.3937)" pers-center="0,0" pers-size="0,0" pers-start="0,0" pers-end="0,0" locked="0" mesh="" flag=""/>
            <path id="shapePath11" d="M80.8252,71.3029 C80.1697,72.4461 79.4055,81.5936 79.7037,84.872 C79.861,86.4605 79.8994,87.8211 79.8321,87.9143 C79.7223,87.9485 78.8587,87.4949 77.9102,86.9233 C75.8351,85.5948 75.0077,85.8764 73.7227,88.3233 C70.9848,93.6064 80.181,96.3059 83.9088,91.3407 C85.5159,89.1548 85.286,88.6485 83.1684,89.8134 C79.4644,91.7611 76.4802,91.5344 75.9821,89.161 C75.5959,87.3789 76.8633,87.2733 79.2014,88.9053 C82.6155,91.2859 82.8505,90.8033 82.718,81.4052 C82.5855,77.112 82.4871,72.9287 82.4084,72.1344 C82.3018,70.5543 81.5314,70.168 80.8252,71.3029 Z" style="stroke:none;fill-rule:nonzero;fill:#000000;fill-opacity:1;"/>
        </g>
        <g id="Shape12">
            <desc shapeID="12" type="0" basicInfo-basicType="0" basicInfo-roundedRectRadius="12" basicInfo-polygonSides="6" basicInfo-starPoints="5" bounding="rect(-8.85793,-16.316,17.7158,32.632)" text="" font-familyName="" font-pixelSize="20" font-bold="0" font-underline="0" font-alignment="1" strokeStyle="0" markerStart="0" markerEnd="0" shadowEnabled="0" shadowOffsetX="0" shadowOffsetY="2" shadowBlur="4" shadowOpacity="160" blurEnabled="0" blurRadius="4" transform="matrix(0.507391,0.0828406,-0.0828406,0.507391,51.3038,85.705)" pers-center="0,0" pers-size="0,0" pers-start="0,0" pers-end="0,0" locked="0" mesh="" flag=""/>
            <path id="shapePath12" d="M48.1274,77.2683 C47.9006,77.7001 47.4398,81.4796 47.124,85.6475 C46.7222,91.9371 46.7605,93.2977 47.3952,93.5576 C48.0383,93.7668 48.6275,93.0296 49.8618,90.5744 C50.7264,88.7882 51.7516,86.9761 52.1223,86.6199 C52.6866,86.0348 52.7881,86.0514 53.1371,86.7855 C53.3245,87.2329 53.4985,88.7198 53.4353,90.0639 C53.3203,93.6395 54.622,93.6436 55.2018,90.0919 C55.9971,85.2209 53.8247,82.5742 51.3829,85.4052 C50.0275,87.0071 49.5025,86.713 49.8504,84.582 C50.1984,82.4509 49.7873,78.2686 49.1587,77.3325 C48.7083,76.5818 48.5478,76.6077 48.1274,77.2683 Z" style="stroke:none;fill-rule:nonzero;fill:#000000;fill-opacity:1;"/>
        </g>
        <g id="Shape13">
            <desc shapeID="13" type="0" basicInfo-basicType="0" basicInfo-roundedRectRadius="12" basicInfo-polygonSides="6" basicInfo-starPoints="5" bounding="rect(-7.83957,-10.2983,15.6792,20.5965)" text="" font-familyName="" font-pixelSize="20" font-bold="0" font-underline="0" font-alignment="1" strokeStyle="0" markerStart="0" markerEnd="0" shadowEnabled="0" shadowOffsetX="0" shadowOffsetY="2" shadowBlur="4" shadowOpacity="160" blurEnabled="0" blurRadius="4" transform="matrix(0.507391,0.0828406,-0.0828406,0.507391,69.9111,86.6563)" pers-center="0,0" pers-size="0,0" pers-start="0,0" pers-end="0,0" locked="0" mesh="" flag=""/>
            <path id="shapePath13" d="M66.8025,81.255 C66.5581,81.4755 66.5529,82.4645 66.7756,83.3343 C66.9391,84.2465 67.1577,86.418 67.1887,88.1421 C67.2343,91.6917 68.1424,92.8298 68.9884,90.5196 C69.2814,89.6819 70.5955,88.3336 71.835,87.4421 C73.0744,86.5505 74.1617,85.6341 74.1949,85.4312 C74.3274,84.6193 72.0203,84.7115 70.7384,85.544 L69.4564,86.3765 L69.3839,84.9062 C69.1292,81.9995 67.779,80.0601 66.8025,81.255 Z" style="stroke:none;fill-rule:nonzero;fill:#000000;fill-opacity:1;"/>
        </g>
        <g id="Shape14">
            <desc shapeID="14" type="0" basicInfo-basicType="0" basicInfo-roundedRectRadius="12" basicInfo-polygonSides="6" basicInfo-starPoints="5" bounding="rect(-8.07872,-7.95714,16.1573,15.9143)" text="" font-familyName="" font-pixelSize="20" font-bold="0" font-underline="0" font-alignment="1" strokeStyle="0" markerStart="0" markerEnd="0" shadowEnabled="0" shadowOffsetX="0" shadowOffsetY="2" shadowBlur="4" shadowOpacity="160" blurEnabled="0" blurRadius="4" transform="matrix(0.507391,0.0828406,-0.0828406,0.507391,61.7838,88.7318)" pers-center="0,0" pers-size="0,0" pers-start="0,0" pers-end="0,0" locked="0" mesh="" flag=""/>
            <path id="shapePath14" d="M61.5577,84.9828 C61.3641,85.2116 60.7894,85.2219 60.3068,84.9869 C58.3601,84.1481 56.3947,90.4429 58.1748,91.9837 C59.3531,93.0617 60.7449,92.195 61.7006,89.8506 C62.4804,87.9463 62.6574,87.819 64.1796,88.0675 C66.6658,88.4734 66.7983,87.6616 64.5534,86.0969 C62.266,84.4733 62.0206,84.3811 61.5577,84.9828 M60.5377,88.3585 C60.3027,88.841 60.2509,88.52 60.3834,87.7082 C60.5243,86.8456 60.6838,86.507 60.7862,86.8363 C60.8298,87.208 60.7138,87.9184 60.5377,88.3585 Z" style="stroke:none;fill-rule:nonzero;fill:#000000;fill-opacity:1;"/>
        </g>
        <g id="Shape15">
            <desc shapeID="15" type="0" basicInfo-basicType="0" basicInfo-roundedRectRadius="12" basicInfo-polygonSides="6" basicInfo-starPoints="5" bounding="rect(-3.77466,-2.36322,7.54939,4.72641)" text="" font-familyName="" font-pixelSize="20" font-bold="0" font-underline="0" font-alignment="1" strokeStyle="0" markerStart="0" markerEnd="0" shadowEnabled="0" shadowOffsetX="0" shadowOffsetY="2" shadowBlur="4" shadowOpacity="160" blurEnabled="0" blurRadius="4" transform="matrix(0.507391,0.0828406,-0.0828406,0.507391,32.0106,81.4607)" pers-center="0,0" pers-size="0,0" pers-start="0,0" pers-end="0,0" locked="0" mesh="" flag=""/>
            <path id="shapePath15" d="M30.2279,80.3364 C30.1699,80.6916 31.1277,81.5252 33.0506,82.8289 C33.237,82.9635 33.5155,82.8527 33.7599,82.6321 C33.9619,82.3526 33.4948,81.7033 32.7575,81.1141 C31.224,79.9782 30.3273,79.7276 30.2279,80.3364 Z" style="stroke:none;fill-rule:nonzero;fill:#000000;fill-opacity:1;"/>
        </g>
        <g id="Shape16">
            <desc shapeID="16" type="0" basicInfo-basicType="0" basicInfo-roundedRectRadius="12" basicInfo-polygonSides="6" basicInfo-starPoints="5" bounding="rect(-7.47547,-9.9364,14.9509,19.8728)" text="" font-familyName="" font-pixelSize="20" font-bold="0" font-underline="0" font-alignment="1" strokeStyle="0" markerStart="0" markerEnd="0" shadowEnabled="0" shadowOffsetX="0" shadowOffsetY="2" shadowBlur="4" shadowOpacity="160" blurEnabled="0" blurRadius="4" transform="matrix(0.507391,0.0828406,-0.0828406,0.507391,40.4779,89.4275)" pers-center="0,0" pers-size="0,0" pers-start="0,0" pers-end="0,0" locked="0" mesh="" flag=""/>
            <path id="shapePath16" d="M39.947,85.2571 C36.8446,87.6677 35.4622,91.3489 36.8881,93.1445 C38.0168,94.5268 41.4753,95.0394 42.7314,94.0464 C44.2319,92.8328 44.2122,91.9961 42.6837,92.4238 C41.8647,92.6547 41.0529,92.5221 40.1976,92.0178 C39.0037,91.3541 38.986,91.1428 39.6405,89.6869 C40.7319,87.4689 41.9548,86.6788 42.778,87.6988 C43.3973,88.3729 43.5153,88.288 43.6892,87.2225 C44.0952,84.7363 42.0801,83.678 39.947,85.2571 Z" style="stroke:none;fill-rule:nonzero;fill:#000000;fill-opacity:1;"/>
        </g>
        <g id="Shape17">
            <desc shapeID="17" type="0" basicInfo-basicType="0" basicInfo-roundedRectRadius="12" basicInfo-polygonSides="6" basicInfo-starPoints="5" bounding="rect(-12.6525,-11.9895,25.305,23.9791)" text="" font-familyName="" font-pixelSize="20" font-bold="0" font-underline="0" font-alignment="1" strokeStyle="0" markerStart="0" markerEnd="0" shadowEnabled="0" shadowOffsetX="0" shadowOffsetY="2" shadowBlur="4" shadowOpacity="160" blurEnabled="0" blurRadius="4" transform="matrix(0.507391,0.0828406,-0.0828406,0.507391,26.497,90.2694)" pers-center="0,0" pers-size="0,0" pers-start="0,0" pers-end="0,0" locked="0" mesh="" flag=""/>
            <path id="shapePath17" d="M21.0016,83.883 C20.7241,84.3065 20.9892,85.2353 21.7275,86.1372 C22.5507,87.1572 22.7474,87.8665 22.3436,88.4257 C21.1662,90.2129 20.6371,93.773 21.3505,94.8271 C22.8023,96.7832 23.7467,96.1039 24.63,92.2891 C25.505,88.5251 25.8674,88.2196 29.6614,87.9535 C31.0811,87.8727 31.0811,87.8727 30.6834,90.3082 C30.3852,92.1348 30.4898,93.0896 31.1432,93.8734 C32.3485,95.4246 32.7845,94.3498 32.627,90.2088 C32.4894,86.9046 32.4044,86.7865 30.6524,86.0316 C29.2814,85.4953 28.2501,85.4311 26.7382,85.7572 C24.7449,86.1611 24.6434,86.1445 23.7177,84.7953 C22.6305,83.1592 21.5897,82.833 21.0016,83.883 Z" style="stroke:none;fill-rule:nonzero;fill:#000000;fill-opacity:1;"/>
        </g>
    </g>
</svg>
