<?xml version="1.0"?>
<svg version="1.1" xmlns="http://www.w3.org/2000/svg" xmlns:xlink="http://www.w3.org/1999/xlink" width="100" height="100">
    <desc iVinci="yes" version="4.6" gridStep="20" showGrid="no" snapToGrid="no" codePlatform="0"/>
    <g id="Layer1" name="Layer 1" opacity="1">
        <g id="Shape1">
            <desc shapeID="1" type="0" basicInfo-basicType="0" basicInfo-roundedRectRadius="12" basicInfo-polygonSides="6" basicInfo-starPoints="5" bounding="rect(-66.1496,-47.8604,132.299,95.7207)" text="" font-familyName="" font-pixelSize="20" font-bold="0" font-underline="0" font-alignment="1" strokeStyle="0" markerStart="0" markerEnd="0" shadowEnabled="0" shadowOffsetX="0" shadowOffsetY="2" shadowBlur="4" shadowOpacity="160" blurEnabled="0" blurRadius="4" transform="matrix(0.740556,0,0,0.740555,50,39.148)" pers-center="0,0" pers-size="0,0" pers-start="0,0" pers-end="0,0" locked="0" mesh="" flag=""/>
            <path id="shapePath1" d="M43.8927,4.4758 C37.8202,5.88285 29.7481,11.8814 29.0816,15.436 C28.7113,17.2874 28.267,17.7317 26.7119,17.7317 C23.9718,17.7317 20.0469,20.9902 16.4922,26.1741 C14.863,28.692 11.3083,32.9872 8.71633,35.8753 C2.86602,42.2441 0.940498,46.1691 1.01463,51.7232 C1.01463,55.0557 1.3849,56.0925 2.64381,57.1293 C4.56924,58.6845 6.49466,58.8326 8.79046,57.6477 C12.123,55.8703 16.8624,51.5011 19.3063,47.8723 C22.3426,43.429 22.6388,44.5398 20.4171,51.6492 C18.5658,57.4996 18.5658,60.9802 20.2691,62.7575 C20.9355,63.4981 22.1945,65.4235 23.0091,67.0527 C24.1199,69.1263 25.601,70.4593 28.6373,72.0145 C32.5623,74.0139 33.4509,74.1621 44.189,74.4583 C54.0384,74.7545 55.9638,74.6064 58.1855,73.4956 C59.5926,72.755 61.0737,71.4961 61.4439,70.6074 C61.8142,69.7928 63.6656,68.3117 65.517,67.349 C75.6626,62.091 79.6616,58.018 79.6616,52.9822 C79.6616,52.0195 77.8102,47.5021 75.5885,43.0587 C71.2933,34.3942 67.5165,29.5806 66.2576,30.8396 C65.7391,31.358 66.3316,32.9131 68.183,35.8013 C69.6641,38.097 70.6268,40.3187 70.3306,40.763 C70.1084,41.2073 70.4787,42.4663 71.2933,43.5031 C73.4409,46.3912 74.6999,50.8346 74.2555,53.7968 C73.7371,57.0552 69.4419,62.3132 66.1094,63.9424 C63.1472,65.2754 57.4449,64.9051 54.7049,63.2018 C53.2978,62.3132 53.0016,61.4986 53.0016,58.4623 C53.0016,56.4628 53.3719,54.6114 53.7421,54.3892 C54.7789,53.7968 58.1855,46.9837 58.1855,45.5766 C58.1855,44.9842 57.6671,43.9474 57.0006,43.2809 C55.9638,42.3182 54.853,42.1701 50.854,42.6144 C44.189,43.2809 43.0781,43.9474 43.6706,46.8356 C44.263,49.8718 46.0403,52.4638 48.0399,53.2043 C50.4096,54.1671 50.4837,53.6487 48.262,50.4643 C47.2252,48.9091 46.3366,47.2799 46.3366,46.9096 C46.3366,45.9469 55.8898,44.3917 56.4081,45.2804 C56.8524,45.9469 52.6313,52.3897 50.7059,54.019 C49.8172,54.8336 49.2988,56.5368 49.0766,59.8693 C48.7805,64.1646 48.4842,64.9051 46.3366,66.8306 C44.7814,68.2376 43.4484,68.8301 42.4116,68.5338 C41.597,68.3117 39.9678,68.682 38.857,69.2744 C34.2655,71.6442 29.7481,69.9409 24.5642,63.7943 C22.0463,60.9061 21.1577,59.2028 21.1577,57.4996 C21.1577,54.6114 22.7869,49.1313 24.7124,45.3545 C27.9708,39.1338 29.6001,26.1 27.3043,25.2854 C26.6378,25.1373 26.3416,26.1 26.3416,28.692 C26.3416,32.1726 25.9713,32.9872 19.0101,42.6885 C12.6413,51.5751 11.3083,53.0562 8.8645,53.7968 C7.30935,54.2411 5.75411,54.4633 5.45796,54.3152 C3.60657,53.1303 6.34659,43.7252 9.16074,41.2814 C11.6045,39.2078 15.3813,34.3942 16.9366,31.432 C18.862,27.6552 24.0459,22.3232 27.4524,20.6199 C29.3038,19.6572 30.7849,18.5464 30.7849,18.102 C30.7849,16.6209 36.2651,12.0295 39.5235,10.7705 C41.4489,10.03 44.8555,9.58563 48.262,9.58563 C55.2233,9.58563 58.926,11.2889 60.9255,15.2879 C62.2585,18.1761 64.8505,19.5091 64.8505,17.4355 C64.8505,14.6214 77.0696,19.2129 83.5124,24.3967 C86.0303,26.3962 88.326,28.0995 88.6963,28.0995 C89.7331,28.0995 94.4727,36.3197 95.1392,39.356 C96.0278,43.2809 95.2133,44.3917 91.5105,44.3917 C85.8082,44.3917 84.4012,43.7252 80.6243,38.9116 C78.6248,36.4678 76.2551,33.2093 75.3663,31.7282 C73.4409,28.5439 70.923,26.1741 70.2566,26.9146 C69.9603,27.2109 70.3306,28.3217 70.9971,29.4325 C71.7377,30.5434 73.3669,33.5796 74.6999,36.1716 C75.9588,38.8376 78.4027,42.3922 80.0319,44.1696 C82.92,47.2799 83.0681,47.354 89.0666,47.7983 C94.843,48.2426 95.1392,48.2426 96.9906,46.3912 C99.8788,43.5031 99.6566,39.2819 96.176,32.4688 C94.1024,28.4698 92.5473,26.4703 90.1034,24.8411 C88.252,23.5821 85.512,21.4345 84.0309,20.1015 C80.9205,17.3615 70.4046,12.5479 67.5905,12.5479 C66.6278,12.5479 62.7769,10.5484 59.0741,8.10452 C51.9648,3.36497 50.2616,2.99469 43.8927,4.4758 M56.186,68.4598 C59.5185,69.3484 59.2223,70.3112 55.5935,70.3112 C51.6686,70.3112 49.8172,69.0522 50.928,67.0527 C51.5945,65.8678 51.8167,65.8678 52.8535,66.8306 C53.5941,67.4971 55.0011,68.2376 56.186,68.4598 Z" style="stroke:none;fill-rule:nonzero;fill:#000000;fill-opacity:1;"/>
        </g>
        <g id="Shape2">
            <desc shapeID="2" type="0" basicInfo-basicType="0" basicInfo-roundedRectRadius="12" basicInfo-polygonSides="6" basicInfo-starPoints="5" bounding="rect(-2.66491,-2.89077,5.32973,5.78154)" text="" font-familyName="" font-pixelSize="20" font-bold="0" font-underline="0" font-alignment="1" strokeStyle="0" markerStart="0" markerEnd="0" shadowEnabled="0" shadowOffsetX="0" shadowOffsetY="2" shadowBlur="4" shadowOpacity="160" blurEnabled="0" blurRadius="4" transform="matrix(0.740556,0,0,0.740555,53.2313,30.2901)" pers-center="0,0" pers-size="0,0" pers-start="0,0" pers-end="0,0" locked="0" mesh="" flag=""/>
            <path id="shapePath2" d="M51.5945,29.0622 C50.4837,30.4693 52.3351,32.9872 54.0384,32.3207 C55.5935,31.7282 55.5935,29.1363 54.0384,28.5439 C52.4832,27.9514 52.5573,27.9514 51.5945,29.0622 Z" style="stroke:none;fill-rule:nonzero;fill:#000000;fill-opacity:1;"/>
        </g>
        <g id="Shape3">
            <desc shapeID="3" type="0" basicInfo-basicType="0" basicInfo-roundedRectRadius="12" basicInfo-polygonSides="6" basicInfo-starPoints="5" bounding="rect(-2.75624,-2.96249,5.51247,5.925)" text="" font-familyName="" font-pixelSize="20" font-bold="0" font-underline="0" font-alignment="1" strokeStyle="0" markerStart="0" markerEnd="0" shadowEnabled="0" shadowOffsetX="0" shadowOffsetY="2" shadowBlur="4" shadowOpacity="160" blurEnabled="0" blurRadius="4" transform="matrix(0.740556,0,0,0.740555,39.6716,31.7745)" pers-center="0,0" pers-size="0,0" pers-start="0,0" pers-end="0,0" locked="0" mesh="" flag=""/>
            <path id="shapePath3" d="M38.1905,30.7655 C37.3759,31.6542 37.4499,32.0985 38.4127,33.1353 C39.5976,34.2461 39.7456,34.2461 40.9305,33.1353 C41.8933,32.0985 41.9673,31.6542 41.1527,30.7655 C40.6343,30.099 39.9678,29.5806 39.6716,29.5806 C39.3753,29.5806 38.7088,30.099 38.1905,30.7655 Z" style="stroke:none;fill-rule:nonzero;fill:#000000;fill-opacity:1;"/>
        </g>
        <g id="Shape4">
            <desc shapeID="4" type="0" basicInfo-basicType="0" basicInfo-roundedRectRadius="12" basicInfo-polygonSides="6" basicInfo-starPoints="5" bounding="rect(-4,-2.8541,8,5.70821)" text="" font-familyName="" font-pixelSize="20" font-bold="0" font-underline="0" font-alignment="1" strokeStyle="0" markerStart="0" markerEnd="0" shadowEnabled="0" shadowOffsetX="0" shadowOffsetY="2" shadowBlur="4" shadowOpacity="160" blurEnabled="0" blurRadius="4" transform="matrix(0.740556,0,0,0.740555,42.2302,78.7894)" pers-center="0,0" pers-size="0,0" pers-start="0,0" pers-end="0,0" locked="0" mesh="" flag=""/>
            <path id="shapePath4" d="M39.268,78.1569 C39.268,79.1196 39.7863,79.638 40.601,79.638 C41.3416,79.638 42.3043,80.0083 42.7486,80.4526 C43.7113,81.4153 45.1924,80.7489 45.1924,79.2677 C45.1924,78.0088 42.8967,76.6758 40.8231,76.6758 C39.7863,76.6758 39.268,77.1201 39.268,78.1569 Z" style="stroke:none;fill-rule:nonzero;fill:#000000;fill-opacity:1;"/>
        </g>
        <g id="Shape5">
            <desc shapeID="5" type="0" basicInfo-basicType="0" basicInfo-roundedRectRadius="12" basicInfo-polygonSides="6" basicInfo-starPoints="5" bounding="rect(-16.3137,-8.83406,32.6275,17.6681)" text="" font-familyName="" font-pixelSize="20" font-bold="0" font-underline="0" font-alignment="1" strokeStyle="0" markerStart="0" markerEnd="0" shadowEnabled="0" shadowOffsetX="0" shadowOffsetY="2" shadowBlur="4" shadowOpacity="160" blurEnabled="0" blurRadius="4" transform="matrix(0.740556,0,0,0.740555,59.4843,86.9347)" pers-center="0,0" pers-size="0,0" pers-start="0,0" pers-end="0,0" locked="0" mesh="" flag=""/>
            <path id="shapePath5" d="M49.3395,81.9337 C47.4141,83.4148 46.7476,86.5252 48.1547,87.4138 C48.5249,87.636 50.3023,88.1544 52.0055,88.4506 L55.1899,89.0431 L52.2277,89.5614 C47.8584,90.3761 47.4141,90.5982 47.4141,91.8572 C47.4141,93.8567 49.6358,94.0048 53.1163,92.3015 C55.4862,91.1166 56.7451,90.8945 57.2635,91.4128 C58.3744,92.5237 61.2625,92.4496 62.3733,91.1907 C63.188,90.3761 63.6323,90.4501 65.3355,91.7091 C67.4091,93.2642 70.8897,93.0421 71.5562,91.2647 C71.7044,90.7463 70.0751,88.4506 67.9275,86.0808 C64.2988,82.2299 63.7804,81.8597 61.5587,82.304 C60.2258,82.6002 58.5224,83.7111 57.5597,84.896 C56.0045,86.8954 55.7824,86.9695 53.1163,86.1549 C49.4877,85.0441 49.932,83.637 54.3013,82.304 C55.0419,82.0818 55.4121,81.5635 55.1899,81.1191 C54.4494,79.8602 51.4131,80.3045 49.3395,81.9337 M61.8549,87.0436 C62.0771,87.4138 61.929,87.7841 61.5587,87.7841 C61.1144,87.7841 60.7441,87.4138 60.7441,87.0436 C60.7441,86.5992 60.8922,86.303 61.0403,86.303 C61.2625,86.303 61.6327,86.5992 61.8549,87.0436 Z" style="stroke:none;fill-rule:nonzero;fill:#000000;fill-opacity:1;"/>
        </g>
        <g id="Shape6">
            <desc shapeID="6" type="0" basicInfo-basicType="0" basicInfo-roundedRectRadius="12" basicInfo-polygonSides="6" basicInfo-starPoints="5" bounding="rect(-8.52665,-10.0928,17.0534,20.1856)" text="" font-familyName="" font-pixelSize="20" font-bold="0" font-underline="0" font-alignment="1" strokeStyle="0" markerStart="0" markerEnd="0" shadowEnabled="0" shadowOffsetX="0" shadowOffsetY="2" shadowBlur="4" shadowOpacity="160" blurEnabled="0" blurRadius="4" transform="matrix(0.740556,0,0,0.740555,34.7489,88.821)" pers-center="0,0" pers-size="0,0" pers-start="0,0" pers-end="0,0" locked="0" mesh="" flag=""/>
            <path id="shapePath6" d="M28.9002,82.6003 C27.8634,84.5257 28.678,92.6718 30.1591,95.0416 C31.0478,96.4486 31.4181,96.5967 32.3068,95.8562 C33.1213,95.1897 33.2695,94.1529 32.9733,92.1534 L32.529,89.4134 L36.9723,87.7841 C39.4161,86.8214 41.2675,85.8587 41.0453,85.4884 C40.3788,84.3776 35.4912,83.8592 33.7138,84.6738 C32.1587,85.4144 31.9365,85.2663 31.7144,83.563 C31.4181,81.0451 30.0111,80.6007 28.9002,82.6003 Z" style="stroke:none;fill-rule:nonzero;fill:#000000;fill-opacity:1;"/>
        </g>
        <g id="Shape7">
            <desc shapeID="7" type="0" basicInfo-basicType="0" basicInfo-roundedRectRadius="12" basicInfo-polygonSides="6" basicInfo-starPoints="5" bounding="rect(-2.11042,-4.57939,4.22073,9.15879)" text="" font-familyName="" font-pixelSize="20" font-bold="0" font-underline="0" font-alignment="1" strokeStyle="0" markerStart="0" markerEnd="0" shadowEnabled="0" shadowOffsetX="0" shadowOffsetY="2" shadowBlur="4" shadowOpacity="160" blurEnabled="0" blurRadius="4" transform="matrix(0.740556,0,0,0.740555,43.1221,88.4659)" pers-center="0,0" pers-size="0,0" pers-start="0,0" pers-end="0,0" locked="0" mesh="" flag=""/>
            <path id="shapePath7" d="M42.2302,86.303 C40.9713,88.6728 41.5637,91.8572 43.341,91.8572 C44.8962,91.8572 44.9702,91.3388 44.2297,87.4879 C43.6373,84.6738 43.267,84.3776 42.2302,86.303 Z" style="stroke:none;fill-rule:nonzero;fill:#000000;fill-opacity:1;"/>
        </g>
    </g>
</svg>
