<?xml version="1.0"?>
<svg version="1.1" xmlns="http://www.w3.org/2000/svg" xmlns:xlink="http://www.w3.org/1999/xlink" width="100" height="100">
    <desc iVinci="yes" version="4.6" gridStep="20" showGrid="no" snapToGrid="no" codePlatform="0"/>
    <g id="Layer1" name="Layer 2" opacity="1">
        <g id="Shape1">
            <desc shapeID="1" type="0" basicInfo-basicType="0" basicInfo-roundedRectRadius="12" basicInfo-polygonSides="6" basicInfo-starPoints="5" bounding="rect(0,0,0,0)" text="" font-familyName="Helvetica" font-pixelSize="20" font-bold="0" font-underline="0" font-alignment="1" strokeStyle="0" markerStart="0" markerEnd="0" shadowEnabled="0" shadowOffsetX="0" shadowOffsetY="2" shadowBlur="4" shadowOpacity="160" blurEnabled="0" blurRadius="4" transform="matrix(1,0,0,1,6.53637,74.4033)" pers-center="0,0" pers-size="0,0" pers-start="0,0" pers-end="0,0" locked="0" mesh="" flag=""/>
            <path id="shapePath1" d="M6.53637,74.4033 Z" style="stroke:#323232;stroke-opacity:1;stroke-width:1;stroke-linejoin:miter;stroke-miterlimit:2;stroke-linecap:round;fill-rule:evenodd;fill:#969696;fill-opacity:1;"/>
        </g>
        <g id="Shape2">
            <desc shapeID="2" type="0" basicInfo-basicType="0" basicInfo-roundedRectRadius="12" basicInfo-polygonSides="6" basicInfo-starPoints="5" bounding="rect(-45.7515,-36.0996,91.5031,72.1993)" text="" font-familyName="Helvetica" font-pixelSize="20" font-bold="0" font-underline="0" font-alignment="1" strokeStyle="0" markerStart="0" markerEnd="0" shadowEnabled="0" shadowOffsetX="0" shadowOffsetY="2" shadowBlur="4" shadowOpacity="160" blurEnabled="0" blurRadius="4" transform="matrix(1,0,0,1,50.3857,42.7002)" pers-center="0,0" pers-size="0,0" pers-start="0,0" pers-end="0,0" locked="0" mesh="" flag=""/>
            <path id="shapePath2" d="M19.53,66.032 C19.53,66.184 37.6178,71.3519 37.6178,71.3519 C37.6178,71.3519 54.0337,72.2639 54.0337,72.2639 C54.0337,72.2639 68.6255,68.16 68.6255,68.16 C68.6255,68.16 78.5054,62.384 78.5054,62.384 C78.5054,62.384 79.7214,73.9359 79.7214,73.9359 C79.7214,73.9359 85.3454,78.7999 85.3454,78.7999 C85.3454,78.7999 92.9453,78.4959 92.9453,78.4959 C92.9453,78.4959 96.1372,70.4399 96.1372,70.4399 C96.1372,70.4399 92.0333,54.0241 92.0333,54.0241 C92.0333,54.0241 84.2814,36.5443 84.2814,36.5443 C84.2814,36.5443 76.3774,25.4484 76.3774,25.4484 C76.3774,25.4484 72.1215,16.7845 72.1215,16.7845 C72.1215,16.7845 66.0415,11.0085 66.0415,11.0085 C66.0415,11.0085 57.0736,8.57657 57.0736,8.57657 C57.0736,8.57657 48.4097,6.60059 48.4097,6.60059 C48.4097,6.60059 33.3619,13.1365 33.3619,13.1365 C33.3619,13.1365 26.5219,18.9125 26.5219,18.9125 C26.5219,18.9125 19.834,29.5524 19.834,29.5524 C19.834,29.5524 12.6901,41.8642 12.6901,41.8642 C12.6901,41.8642 7.21814,51.4401 7.21814,51.4401 C7.21814,51.4401 4.63416,66.184 4.63416,66.184 C4.63416,66.184 6.61014,72.7199 6.61014,72.7199 C6.61014,72.7199 12.2341,74.3919 12.2341,74.3919 C12.2341,74.3919 14.7336,73.3918 16.5138,71.3519 C18.3795,69.2141 19.53,66.032 19.53,66.032 Z" style="stroke:none;fill-rule:evenodd;fill:#fbbf85;fill-opacity:1;"/>
        </g>
        <g id="Shape3">
            <desc shapeID="3" type="0" basicInfo-basicType="0" basicInfo-roundedRectRadius="12" basicInfo-polygonSides="6" basicInfo-starPoints="5" bounding="rect(-7.66281,-6.40902,15.3256,12.818)" text="" font-familyName="Helvetica" font-pixelSize="20" font-bold="0" font-underline="0" font-alignment="1" strokeStyle="0" markerStart="0" markerEnd="0" shadowEnabled="0" shadowOffsetX="0" shadowOffsetY="2" shadowBlur="4" shadowOpacity="160" blurEnabled="0" blurRadius="4" transform="matrix(0.854236,0,0,0.854236,51.5964,55.4748)" pers-center="0,0" pers-size="0,0" pers-start="0,0" pers-end="0,0" locked="0" mesh="" flag=""/>
            <path id="shapePath3" d="M45.627,52.2413 C48.9707,50.1062 53.8081,49.2229 57.4427,50.8131 C59.3181,51.6336 56.9299,54.9549 56.0145,56.7858 C55.1914,58.4319 54.2141,60.8046 52.3789,60.9408 C50.2606,61.098 48.3491,59.1295 47.0467,57.4514 C45.9431,56.0294 44.1099,53.2101 45.627,52.2413 Z" style="stroke:none;fill-rule:evenodd;fill:#fbac6f;fill-opacity:1;"/>
        </g>
        <g id="Shape4">
            <desc shapeID="4" type="0" basicInfo-basicType="0" basicInfo-roundedRectRadius="12" basicInfo-polygonSides="6" basicInfo-starPoints="5" bounding="rect(-3.83857,-4.1951,7.67713,8.39019)" text="" font-familyName="Helvetica" font-pixelSize="20" font-bold="0" font-underline="0" font-alignment="1" strokeStyle="0" markerStart="0" markerEnd="0" shadowEnabled="0" shadowOffsetX="0" shadowOffsetY="2" shadowBlur="4" shadowOpacity="160" blurEnabled="0" blurRadius="4" transform="matrix(1,0,0,0.920635,36.3672,33.3168)" pers-center="0,0" pers-size="0,0" pers-start="0,0" pers-end="0,0" locked="0" mesh="" flag=""/>
            <path id="shapePath4" d="M32.551,33.5268 C32.551,31.0923 32.1371,29.4547 34.8654,29.4547 C37.5937,29.4547 40.2057,31.4702 40.2057,33.9046 C40.2057,36.3391 39.0437,37.179 36.3154,37.179 C33.5872,37.179 32.551,35.9612 32.551,33.5268 Z" style="stroke:none;fill-rule:evenodd;fill:#fbd1a9;fill-opacity:1;"/>
        </g>
        <g id="Shape5">
            <desc shapeID="5" type="0" basicInfo-basicType="0" basicInfo-roundedRectRadius="12" basicInfo-polygonSides="6" basicInfo-starPoints="5" bounding="rect(-4.49473,-4.88379,8.98947,9.76758)" text="" font-familyName="Helvetica" font-pixelSize="20" font-bold="0" font-underline="0" font-alignment="1" strokeStyle="0" markerStart="0" markerEnd="0" shadowEnabled="0" shadowOffsetX="0" shadowOffsetY="2" shadowBlur="4" shadowOpacity="160" blurEnabled="0" blurRadius="4" transform="matrix(1,0,0,0.920635,60.4584,32.2465)" pers-center="0,0" pers-size="0,0" pers-start="0,0" pers-end="0,0" locked="0" mesh="" flag=""/>
            <path id="shapePath5" d="M55.9637,33.6407 C55.9637,31.2063 57.0726,29.3478 59.479,28.1642 C62.9789,26.4427 64.9532,30.4939 64.9532,32.9284 C64.9532,35.3628 61.9104,36.7427 59.1821,36.7427 C56.4539,36.7427 55.9637,36.0751 55.9637,33.6407 Z" style="stroke:none;fill-rule:evenodd;fill:#fbd1a9;fill-opacity:1;"/>
        </g>
        <g id="Shape6">
            <desc shapeID="6" type="0" basicInfo-basicType="0" basicInfo-roundedRectRadius="12" basicInfo-polygonSides="6" basicInfo-starPoints="5" bounding="rect(-0.0337753,0,0.0675541,0)" text="" font-familyName="Helvetica" font-pixelSize="20" font-bold="0" font-underline="0" font-alignment="1" strokeStyle="0" markerStart="0" markerEnd="0" shadowEnabled="0" shadowOffsetX="0" shadowOffsetY="2" shadowBlur="4" shadowOpacity="160" blurEnabled="0" blurRadius="4" transform="matrix(1,0,0,1,42.7458,56.1634)" pers-center="0,0" pers-size="0,0" pers-start="0,0" pers-end="0,0" locked="0" mesh="" flag=""/>
            <path id="shapePath6" d="M42.712,56.1634 C42.864,56.1634 42.712,56.1634 42.712,56.1634 Z" style="stroke:none;fill-rule:evenodd;fill:#fdcb9f;fill-opacity:1;"/>
        </g>
        <g id="Shape7">
            <desc shapeID="7" type="0" basicInfo-basicType="0" basicInfo-roundedRectRadius="12" basicInfo-polygonSides="6" basicInfo-starPoints="5" bounding="rect(-17.823,-9.39584,35.646,18.7917)" text="" font-familyName="Helvetica" font-pixelSize="20" font-bold="0" font-underline="0" font-alignment="1" strokeStyle="0" markerStart="0" markerEnd="0" shadowEnabled="0" shadowOffsetX="0" shadowOffsetY="2" shadowBlur="4" shadowOpacity="160" blurEnabled="0" blurRadius="4" transform="matrix(1,0,0,1,51.3857,65.8628)" pers-center="0,0" pers-size="0,0" pers-start="0,0" pers-end="0,0" locked="0" mesh="" flag=""/>
            <path id="shapePath7" d="M34.6561,65.5873 C39.1302,64.0446 41.1759,67.356 45.904,67.5633 C47.4853,67.6327 49.4019,66.0991 49.5519,64.5234 C49.7759,62.1722 45.7309,60.0852 46.816,57.9874 C47.6504,56.3742 50.0412,60.4189 51.8319,60.1154 C53.5995,59.8158 53.9921,56.5252 55.7839,56.4674 C56.9758,56.429 56.765,58.7915 56.5439,59.9634 C56.2288,61.6333 54.4784,62.8376 54.2639,64.5234 C54.096,65.8426 54.1523,68.2441 55.4799,68.3233 C58.6473,68.5124 61.2798,65.3093 64.4478,65.1313 C66.1677,65.0347 70.144,66.2685 69.0077,67.5633 C67.4626,69.3241 63.5139,70.2629 61.282,71.3379 C59.6468,72.1255 58.6454,72.3907 56.986,73.4855 C54.2295,74.6669 53.5012,75.9876 50.3217,74.781 C44.5526,72.5918 40.2068,72.499 37.0881,70.6033 C34.6974,69.1501 32.0112,66.4994 34.6561,65.5873 Z" style="stroke:none;fill-rule:evenodd;fill:#fddcbd;fill-opacity:1;"/>
        </g>
        <g id="Shape8">
            <desc shapeID="8" type="0" basicInfo-basicType="0" basicInfo-roundedRectRadius="12" basicInfo-polygonSides="6" basicInfo-starPoints="5" bounding="rect(-7.20897,-8.20643,14.4179,16.4129)" text="" font-familyName="Helvetica" font-pixelSize="20" font-bold="0" font-underline="0" font-alignment="1" strokeStyle="0" markerStart="0" markerEnd="0" shadowEnabled="0" shadowOffsetX="0" shadowOffsetY="2" shadowBlur="4" shadowOpacity="160" blurEnabled="0" blurRadius="4" transform="matrix(1,0,0,1,11.8431,66.7396)" pers-center="0,0" pers-size="0,0" pers-start="0,0" pers-end="0,0" locked="0" mesh="" flag=""/>
            <path id="shapePath8" d="M5.81299,58.5332 C5.81299,58.6238 7.04013,67.9549 10.7096,68.5078 C14.7068,69.1102 19.0521,60.5281 19.0521,60.5281 C19.0521,60.5281 16.6944,72.7697 16.6944,72.7697 C16.6944,72.7697 12.2512,74.946 12.2512,74.946 C12.2512,74.946 6.6291,74.4926 6.6291,74.4926 C6.6291,74.4926 4.63416,68.7799 4.63416,68.7799 C4.63416,68.7799 5.81299,58.5332 5.81299,58.5332 Z" style="stroke:none;fill-rule:evenodd;fill:#fbad6f;fill-opacity:1;"/>
        </g>
        <g id="Shape9">
            <desc shapeID="9" type="0" basicInfo-basicType="0" basicInfo-roundedRectRadius="12" basicInfo-polygonSides="6" basicInfo-starPoints="5" bounding="rect(0,0,0,0)" text="" font-familyName="Helvetica" font-pixelSize="20" font-bold="0" font-underline="0" font-alignment="1" strokeStyle="0" markerStart="0" markerEnd="0" shadowEnabled="0" shadowOffsetX="0" shadowOffsetY="2" shadowBlur="4" shadowOpacity="160" blurEnabled="0" blurRadius="4" transform="matrix(1,0,0,1,78.5146,65.3701)" pers-center="0,0" pers-size="0,0" pers-start="0,0" pers-end="0,0" locked="0" mesh="" flag=""/>
            <path id="shapePath9" d="M78.5146,65.3701 Z" style="stroke:none;fill-rule:evenodd;fill:#fbad6f;fill-opacity:1;"/>
        </g>
        <g id="Shape10">
            <desc shapeID="10" type="0" basicInfo-basicType="0" basicInfo-roundedRectRadius="12" basicInfo-polygonSides="6" basicInfo-starPoints="5" bounding="rect(-8.45481,-11.0669,16.9096,22.1337)" text="" font-familyName="Helvetica" font-pixelSize="20" font-bold="0" font-underline="0" font-alignment="1" strokeStyle="0" markerStart="0" markerEnd="0" shadowEnabled="0" shadowOffsetX="0" shadowOffsetY="2" shadowBlur="4" shadowOpacity="160" blurEnabled="0" blurRadius="4" transform="matrix(1,0,0,1,86.8319,68.6008)" pers-center="0,0" pers-size="0,0" pers-start="0,0" pers-end="0,0" locked="0" mesh="" flag=""/>
            <path id="shapePath10" d="M93.0871,57.534 C93.2246,57.534 95.2868,68.2571 95.2868,68.2571 C95.2868,68.2571 93.7745,77.4681 93.7745,77.4681 C93.7745,77.4681 88.8253,79.6677 88.8253,79.6677 C88.8253,79.6677 81.814,77.0556 81.814,77.0556 C81.814,77.0556 78.3771,72.5189 78.3771,72.5189 C78.3771,72.5189 86.174,74.6648 88.5504,72.244 C92.145,68.5822 93.0871,57.534 93.0871,57.534 Z" style="stroke:none;fill-rule:evenodd;fill:#fbad6f;fill-opacity:1;"/>
        </g>
        <g id="Shape11">
            <desc shapeID="11" type="0" basicInfo-basicType="0" basicInfo-roundedRectRadius="12" basicInfo-polygonSides="6" basicInfo-starPoints="5" bounding="rect(-26.0362,-34.6269,52.0723,69.2538)" text="" font-familyName="" font-pixelSize="20" font-bold="0" font-underline="0" font-alignment="1" strokeStyle="0" markerStart="0" markerEnd="0" shadowEnabled="0" shadowOffsetX="0" shadowOffsetY="2" shadowBlur="4" shadowOpacity="160" blurEnabled="0" blurRadius="4" transform="matrix(1,0,0,1,29.6326,41.3731)" pers-center="0,0" pers-size="0,0" pers-start="0,0" pers-end="0,0" locked="0" mesh="" flag=""/>
            <path id="shapePath11" d="M45.2964,7.10625 C39.4964,8.40625 35.8964,9.6 32.7964,12.5 C25.8964,19 25.9964,18.9 24.8964,17.1 C23.9964,15.8 23.5964,16.4 22.6964,20 C21.9964,22.5 19.2964,28.1 16.5964,32.5 C6.89643,48.7 3.59642,57.3 3.59642,66.5 C3.59642,73.8 5.29642,76 10.9964,76 C14.5964,76 18.6964,73.3 19.7964,70 C20.0964,69 21.1964,69 25.3964,70.4 C28.8964,71.6 31.0964,71.8 32.1964,71.2 C33.6964,70.4 33.4964,70.1 30.8964,69.6 C29.2964,69.2 26.3964,67.6 24.4964,66.1 L21.0964,63.2 L21.6964,55.4 C21.9964,51 22.5964,45 22.9964,42 L23.6964,36.5 L21.6964,38.9 C20.3964,40.3 19.6964,42.4 19.7964,44.4 C20.0964,49.9 17.3964,68.4 16.0964,70.6 C14.1964,73.6 9.79642,74.5 7.49642,72.4 C5.79642,70.9 5.69642,69.7 6.19642,64.1 C6.49642,60.5 7.29642,55.9 7.79642,54 C9.19642,49.4 17.1964,35.3 20.6964,31.3 C22.1964,29.6 22.5089,26.6312 22.9089,25.4312 C23.2707,24.3458 24.4872,22.4494 25.3964,21.197 C27.7541,17.9494 31.9974,15.9227 33.2964,16.5 C33.9964,16.7 35.7964,15.8 37.1964,14.5 C38.6964,13.1 40.4964,12 41.2964,12 C42.0964,12 42.4964,11.6 42.1964,11.1 C41.7964,10.6 42.5964,10.4 43.7964,10.8 C45.0964,11.1 45.6964,10.9 45.2964,10.3 C44.8964,9.7 46.2964,9 48.7964,8.6 C51.9964,8.1 56.6027,8.65094 55.5027,7.95094 C53.9027,6.95094 48.6964,6.30625 45.2964,7.10625 Z" style="stroke:none;fill-rule:nonzero;fill:#000000;fill-opacity:1;"/>
        </g>
        <g id="Shape12">
            <desc shapeID="12" type="0" basicInfo-basicType="0" basicInfo-roundedRectRadius="12" basicInfo-polygonSides="6" basicInfo-starPoints="5" bounding="rect(-33.8988,-36.545,67.7976,73.09)" text="" font-familyName="" font-pixelSize="20" font-bold="0" font-underline="0" font-alignment="1" strokeStyle="0" markerStart="0" markerEnd="0" shadowEnabled="0" shadowOffsetX="0" shadowOffsetY="2" shadowBlur="4" shadowOpacity="160" blurEnabled="0" blurRadius="4" transform="matrix(1,0,0,1,62.5048,44.4959)" pers-center="0,0" pers-size="0,0" pers-start="0,0" pers-end="0,0" locked="0" mesh="" flag=""/>
            <path id="shapePath12" d="M56.0964,9 C56.3964,9.5 57.3964,10 58.1964,10 C58.9964,10 60.7964,11.2 62.0964,12.6 C63.5964,14.2 64.7902,13.0938 65.6902,12.6938 C66.4902,12.3937 68.3964,13.3188 68.3964,14.0187 C68.3964,14.7188 68.8402,16.1 69.9402,16.8 C71.0402,17.5 72.0027,19.575 72.0027,20.475 C72.0027,22.275 74.4964,26.9 79.1964,32.1 C80.8964,34.1 82.6964,36.8 83.0964,38.1 C83.4964,39.4 85.7964,44.8 88.1964,50 C90.5964,55.2 92.6964,61.1 92.9964,63 C93.1964,64.9 93.6964,67.7 94.0964,69.1 C94.9964,72.7 92.1964,78 89.4964,78 C87.0964,78 80.2964,75 80.9964,74.2 C81.2964,74 81.0964,73 80.6964,72.1 C80.1964,71.2 79.4964,64.4 79.1964,57 C78.3964,42.5 77.8964,39 76.4964,39 C75.3964,39 75.3964,39.8 76.5964,45.7 C77.1964,48.4 77.2964,53.3 76.7964,56.9 C76.1964,62.8 75.7964,63.6 72.7964,65.3 C68.7964,67.7 67.8964,67 70.1964,63.6 C72.2964,60.3 71.0964,54.7 68.0964,54.2 C66.4964,53.9 66.2964,54.1 67.3964,55.1 C72.0964,60 62.3964,72.4 55.2964,70.6 C53.3964,70.2 53.0964,69.4 53.0964,65.3 C53.0964,61.3 53.5964,60.1 55.9964,57.9 C57.6964,56.4 58.5964,54.8 58.1964,54.2 C57.0964,52.4 56.1964,52.7 55.0964,55.2 C53.6964,58.4 48.6964,59 47.8964,56.1 C47.2964,53.6 45.9964,53.4 45.1964,55.6 C44.3964,57.7 45.1964,58.9 48.1964,60 C50.1964,60.8 50.5964,61.7 50.5964,64.9 C51.5182,69.4135 48.1964,71.1802 45.4964,71 C43.8125,71 42.3964,70.5 40.6964,69.9 C36.9099,68.9246 30.5932,66.6008 31.7964,58.8 C32.1964,54.8 31.7964,54.2 29.7964,56.2 C28.2964,57.7 28.1964,63.4 29.5964,66.1 C30.1964,67.1 32.9964,69.3 35.8964,71 C40.4964,73.6 39.4339,73.625 46.5339,73.625 C47.6973,74.4187 50.894,71.1938 51.8877,71.1429 C55.7626,70.9447 58.8883,73.1347 61.1964,72.1 C63.4964,71.1 66.6964,69.9 68.3964,69.5 C70.0964,69.2 72.6964,68 74.0964,66.9 L76.5964,64.9 L76.5964,68.2 C76.5964,72.7 78.4964,76 82.4964,78.7 C89.4964,83.5 95.4964,80.7 96.2964,72.3 C96.8964,66.3 94.9964,59 90.0964,48.8 C88.0964,44.8 86.2964,39.8 85.8964,37.7 C85.5964,35.3 84.1964,32.9 82.3964,31.2 C78.8964,28 74.5964,21.6 74.5964,19.6 C74.5964,18.8 73.5964,17.3 72.2964,16.3 C71.0964,15.3 69.3964,13 68.6964,11.2 C67.3964,8 65.0964,6.9 64.3964,9.1 C64.0964,10 63.4964,10 61.8964,9.1 C59.1964,7.7 55.2964,7.6 56.0964,9 Z" style="stroke:none;fill-rule:evenodd;fill:#000000;fill-opacity:1;"/>
        </g>
        <g id="Shape13">
            <desc shapeID="13" type="0" basicInfo-basicType="0" basicInfo-roundedRectRadius="12" basicInfo-polygonSides="6" basicInfo-starPoints="5" bounding="rect(-2.63937,-2.88887,5.27875,5.77774)" text="" font-familyName="" font-pixelSize="20" font-bold="0" font-underline="0" font-alignment="1" strokeStyle="0" markerStart="0" markerEnd="0" shadowEnabled="0" shadowOffsetX="0" shadowOffsetY="2" shadowBlur="4" shadowOpacity="160" blurEnabled="0" blurRadius="4" transform="matrix(0.825151,0,0,0.825151,59.6972,33.6725)" pers-center="0,0" pers-size="0,0" pers-start="0,0" pers-end="0,0" locked="0" mesh="" flag=""/>
            <path id="shapePath13" d="M58.1644,32.5081 C56.9267,33.6633 57.5868,36.0562 59.1546,36.0562 C60.0794,36.0562 61.0997,35.7444 61.4791,34.914 C61.6907,34.4507 61.8682,33.6053 61.294,32.9847 C61.3109,32.3114 62.119,32.0737 61.8011,31.7558 C60.7284,30.6831 58.907,31.6829 58.1644,32.5081 Z" style="stroke:none;fill-rule:nonzero;fill:#000000;fill-opacity:1;"/>
        </g>
        <g id="Shape14">
            <desc shapeID="14" type="0" basicInfo-basicType="0" basicInfo-roundedRectRadius="12" basicInfo-polygonSides="6" basicInfo-starPoints="5" bounding="rect(-2.41046,-2.14056,4.82091,4.28112)" text="" font-familyName="" font-pixelSize="20" font-bold="0" font-underline="0" font-alignment="1" strokeStyle="0" markerStart="0" markerEnd="0" shadowEnabled="0" shadowOffsetX="0" shadowOffsetY="2" shadowBlur="4" shadowOpacity="160" blurEnabled="0" blurRadius="4" transform="matrix(1.00735,0,0,1.00735,37.5082,33.963)" pers-center="0,0" pers-size="0,0" pers-start="0,0" pers-end="0,0" locked="0" mesh="" flag=""/>
            <path id="shapePath14" d="M35.1019,32.3882 C34.9106,32.7229 36.0411,32.4129 36.0502,33.2003 C36.0603,34.072 35.5351,35.1822 35.8526,35.4997 C37.2629,36.91 40.3857,35.7012 39.882,33.9887 C39.2776,32.377 36.0085,30.9779 35.1019,32.3882 Z" style="stroke:none;fill-rule:nonzero;fill:#000000;fill-opacity:1;"/>
        </g>
        <g id="Shape15">
            <desc shapeID="15" type="0" basicInfo-basicType="0" basicInfo-roundedRectRadius="12" basicInfo-polygonSides="6" basicInfo-starPoints="5" bounding="rect(-1.91695,-1.39993,3.8339,2.79986)" text="" font-familyName="" font-pixelSize="20" font-bold="0" font-underline="0" font-alignment="1" strokeStyle="0" markerStart="0" markerEnd="0" shadowEnabled="0" shadowOffsetX="0" shadowOffsetY="2" shadowBlur="4" shadowOpacity="160" blurEnabled="0" blurRadius="4" transform="matrix(1,0,0,1,45.0506,79.2749)" pers-center="0,0" pers-size="0,0" pers-start="0,0" pers-end="0,0" locked="0" mesh="" flag=""/>
            <path id="shapePath15" d="M43.1675,79.075 C43.8675,80.975 46.9675,81.275 46.9675,79.475 C46.9675,78.475 46.0675,77.875 44.8675,77.875 C43.6675,77.875 42.9675,78.375 43.1675,79.075 Z" style="stroke:none;fill-rule:nonzero;fill:#000000;fill-opacity:1;"/>
        </g>
        <g id="Shape16">
            <desc shapeID="16" type="0" basicInfo-basicType="0" basicInfo-roundedRectRadius="12" basicInfo-polygonSides="6" basicInfo-starPoints="5" bounding="rect(-7.93711,-4.27219,15.8742,8.54438)" text="" font-familyName="" font-pixelSize="20" font-bold="0" font-underline="0" font-alignment="1" strokeStyle="0" markerStart="0" markerEnd="0" shadowEnabled="0" shadowOffsetX="0" shadowOffsetY="2" shadowBlur="4" shadowOpacity="160" blurEnabled="0" blurRadius="4" transform="matrix(1,0,0,1,69.0053,83.7132)" pers-center="0,0" pers-size="0,0" pers-start="0,0" pers-end="0,0" locked="0" mesh="" flag=""/>
            <path id="shapePath16" d="M61.9732,82.36 C59.9732,87.26 60.9732,88.16 68.1732,87.96 C71.6732,87.86 75.0732,87.46 75.7732,87.06 C77.9732,85.56 76.9732,84.36 73.5732,84.36 C71.0732,84.36 69.7732,83.76 68.5732,81.86 C66.3732,78.46 63.4732,78.66 61.9732,82.36 M65.9732,83.86 C65.9732,84.66 65.5732,85.36 64.9732,85.36 C64.4732,85.36 64.2732,84.66 64.5732,83.86 C64.9732,83.06 65.3732,82.36 65.5732,82.36 C65.7732,82.36 65.9732,83.06 65.9732,83.86 Z" style="stroke:none;fill-rule:nonzero;fill:#000000;fill-opacity:1;"/>
        </g>
        <g id="Shape17">
            <desc shapeID="17" type="0" basicInfo-basicType="0" basicInfo-roundedRectRadius="12" basicInfo-polygonSides="6" basicInfo-starPoints="5" bounding="rect(-3.91047,-5.42666,7.82094,10.8533)" text="" font-familyName="" font-pixelSize="20" font-bold="0" font-underline="0" font-alignment="1" strokeStyle="0" markerStart="0" markerEnd="0" shadowEnabled="0" shadowOffsetX="0" shadowOffsetY="2" shadowBlur="4" shadowOpacity="160" blurEnabled="0" blurRadius="4" transform="matrix(1,0,0,1,53.6514,83.7132)" pers-center="0,0" pers-size="0,0" pers-start="0,0" pers-end="0,0" locked="0" mesh="" flag=""/>
            <path id="shapePath17" d="M52.8964,79.1398 C49.6964,80.4398 49.9964,82.0398 53.8964,83.6398 C56.4964,84.7398 56.7964,85.1398 55.2964,85.6398 C54.3964,86.0398 52.8964,85.8398 52.0964,85.1398 C50.8964,84.1398 50.4964,84.2398 49.9964,85.4398 C49.1964,87.6398 50.2964,89.1398 52.9964,89.1398 C57.4964,89.1398 59.2964,84.1398 55.4964,82.1398 C53.4964,81.0398 53.4964,80.9398 55.2964,79.6398 C57.2964,78.0398 56.1964,77.8398 52.8964,79.1398 Z" style="stroke:none;fill-rule:nonzero;fill:#000000;fill-opacity:1;"/>
        </g>
        <g id="Shape18">
            <desc shapeID="18" type="0" basicInfo-basicType="0" basicInfo-roundedRectRadius="12" basicInfo-polygonSides="6" basicInfo-starPoints="5" bounding="rect(-4.9324,-5.27276,9.8648,10.5455)" text="" font-familyName="" font-pixelSize="20" font-bold="0" font-underline="0" font-alignment="1" strokeStyle="0" markerStart="0" markerEnd="0" shadowEnabled="0" shadowOffsetX="0" shadowOffsetY="2" shadowBlur="4" shadowOpacity="160" blurEnabled="0" blurRadius="4" transform="matrix(1,0,0,1,36.5408,84.8362)" pers-center="0,0" pers-size="0,0" pers-start="0,0" pers-end="0,0" locked="0" mesh="" flag=""/>
            <path id="shapePath18" d="M32.2964,79.7398 C31.3964,80.6398 31.3964,86.3398 32.1964,88.5398 C33.0964,91.0398 34.5964,90.4398 34.5964,87.5398 C34.5964,85.6398 35.3964,84.7398 38.0964,83.5398 C42.4964,81.7398 42.5964,80.7398 38.3964,81.3398 C36.2964,81.7398 34.7964,81.3398 34.0964,80.4398 C33.4964,79.6398 32.6964,79.3398 32.2964,79.7398 Z" style="stroke:none;fill-rule:nonzero;fill:#000000;fill-opacity:1;"/>
        </g>
        <g id="Shape19">
            <desc shapeID="19" type="0" basicInfo-basicType="0" basicInfo-roundedRectRadius="12" basicInfo-polygonSides="6" basicInfo-starPoints="5" bounding="rect(-1.05658,-3.53631,2.11315,7.07262)" text="" font-familyName="" font-pixelSize="20" font-bold="0" font-underline="0" font-alignment="1" strokeStyle="0" markerStart="0" markerEnd="0" shadowEnabled="0" shadowOffsetX="0" shadowOffsetY="2" shadowBlur="4" shadowOpacity="160" blurEnabled="0" blurRadius="4" transform="matrix(1,0,0,1,44.9715,86.5363)" pers-center="0,0" pers-size="0,0" pers-start="0,0" pers-end="0,0" locked="0" mesh="" flag=""/>
            <path id="shapePath19" d="M44.4038,84.2 C44.0038,85.2 43.7038,87.8 44.1038,88.7 C44.9038,90.4 45.5038,90.5875 45.9038,88.8875 C46.2038,87.9875 45.9038,85.2 45.6038,84.2 C45.2038,82.6 45.2038,82.6 44.4038,84.2 Z" style="stroke:none;fill-rule:nonzero;fill:#000000;fill-opacity:1;"/>
        </g>
        <g id="Shape20">
            <desc shapeID="20" type="0" basicInfo-basicType="0" basicInfo-roundedRectRadius="12" basicInfo-polygonSides="6" basicInfo-starPoints="5" bounding="rect(-5.76779,-1.66467,11.5356,3.32934)" text="" font-familyName="Helvetica" font-pixelSize="20" font-bold="0" font-underline="0" font-alignment="1" strokeStyle="0" markerStart="0" markerEnd="0" shadowEnabled="0" shadowOffsetX="0" shadowOffsetY="2" shadowBlur="4" shadowOpacity="160" blurEnabled="0" blurRadius="4" transform="matrix(1,0,0,1,53.0477,73.8226)" pers-center="0,0" pers-size="0,0" pers-start="0,0" pers-end="0,0" locked="0" mesh="" flag=""/>
            <path id="shapePath20" d="M47.3155,73.3906 C47.519,72.7443 49.4522,74.2122 52.932,73.7114 C55.4862,73.3438 58.3476,71.8082 58.7769,72.2309 C59.2156,72.8787 55.8135,74.9979 53.2445,75.3676 C49.2365,75.9444 46.9636,74.2965 47.3155,73.3906 Z" style="stroke:none;fill-rule:evenodd;fill:#000000;fill-opacity:1;"/>
        </g>
    </g>
</svg>
