<?xml version="1.0"?>
<svg version="1.1" xmlns="http://www.w3.org/2000/svg" xmlns:xlink="http://www.w3.org/1999/xlink" width="100" height="100">
    <desc iVinci="yes" version="4.6" gridStep="20" showGrid="no" snapToGrid="no" codePlatform="0"/>
    <g id="Layer1" name="Layer 1" opacity="1">
        <g id="Shape1">
            <desc shapeID="1" type="0" basicInfo-basicType="0" basicInfo-roundedRectRadius="12" basicInfo-polygonSides="6" basicInfo-starPoints="5" bounding="rect(-556.36,-307.436,1112.72,614.873)" text="" font-familyName="Helvetica" font-pixelSize="20" font-bold="0" font-underline="0" font-alignment="1" strokeStyle="0" markerStart="0" markerEnd="0" shadowEnabled="0" shadowOffsetX="0" shadowOffsetY="2" shadowBlur="4" shadowOpacity="160" blurEnabled="0" blurRadius="4" transform="matrix(0.0851915,0,0,0.0851915,49.0562,43.0625)" pers-center="0,0" pers-size="0,0" pers-start="0,0" pers-end="0,0" locked="0" mesh="" flag=""/>
            <path id="shapePath1" d="M3.17592,28.9428 C3.17592,28.9428 6.08189,28.831 6.08189,28.831 C6.08189,28.831 10.9438,30.284 10.8879,30.284 C10.832,30.284 28.9384,28.9987 28.9384,28.9987 C28.9384,28.9987 38.7182,24.5838 38.7182,24.5838 C38.7182,24.5838 46.1508,23.3543 46.1508,23.3543 C46.1508,23.3543 48.7773,22.572 48.7773,22.572 C48.7773,22.572 48.1535,18.7776 48.1535,18.7776 C48.1535,18.7776 49.5949,18.4089 49.5949,18.4089 C49.5949,18.4089 51.0697,19.6491 51.0697,19.6491 C51.0697,19.6491 52.7121,19.0122 52.7121,19.0122 C52.7121,19.0122 55.3045,16.8716 55.3045,16.8716 C55.3045,16.8716 56.5176,17.3265 56.5176,17.3265 C56.5176,17.3265 56.9725,19.4277 56.9725,19.4277 C56.9725,19.4277 57.7973,20.8774 57.7973,20.8774 C57.7973,20.8774 63.0276,21.7426 63.0276,21.7426 C63.0276,21.7426 63.5625,24.8288 63.5625,24.8288 C63.5625,24.8288 65.3318,27.2154 65.3318,27.2154 C65.3318,27.2154 67.9972,26.7598 67.9972,26.7598 C67.9972,26.7598 77.5149,33.1836 77.5149,33.1836 C77.5149,33.1836 90.228,37.7617 90.228,37.7617 C90.228,37.7617 95.7263,37.6522 95.7263,37.6522 C95.7263,37.6522 96.453,39.8639 96.453,39.8639 C96.453,39.8639 94.9366,45.8352 94.9366,45.8352 C94.9366,45.8352 88.4918,50.7955 88.4918,50.7955 C88.4918,50.7955 83.1205,50.4164 83.1205,50.4164 C83.1205,50.4164 77.6546,45.8984 77.6546,45.8984 C77.6546,45.8984 74.7671,40.7267 74.7671,40.7267 C74.7671,40.7267 72.3232,40.3879 72.3232,40.3879 C72.3232,40.3879 67.9285,47.8287 67.9285,47.8287 C67.9285,47.8287 69.8106,56.6818 69.8106,56.6818 C69.8106,56.6818 69.9501,62.3282 69.9501,62.3282 C69.9501,62.3282 63.2439,67.7888 59.2194,68.7894 C54.6165,69.9337 44.7153,68.602 44.7153,68.602 C44.7153,68.602 47.4339,50.9656 47.4339,50.9656 C47.4339,50.9656 41.2486,48.783 41.2486,48.783 C41.2486,48.783 37.0679,42.5565 37.0679,42.5565 C37.0679,42.5565 36.979,36.1076 36.979,36.1076 C36.979,36.1076 34.4439,35.6184 34.4439,35.6184 C34.4439,35.6184 31.7754,37.2195 31.7754,37.2195 C31.7754,37.2195 23.7147,44.6002 23.7147,44.6002 C23.7147,44.6002 13.2491,44.8596 13.2491,44.8596 C13.2491,44.8596 5.37829,42.6108 5.37829,42.6108 C5.37829,42.6108 1.91858,37.8537 1.91858,37.8537 C1.91858,37.8537 1.65908,32.6642 1.65908,32.6642 C1.65908,32.6642 3.17592,28.9428 3.17592,28.9428 Z" style="stroke:none;fill-rule:evenodd;fill:#a0ece9;fill-opacity:1;"/>
        </g>
        <g id="Shape2">
            <desc shapeID="2" type="0" basicInfo-basicType="0" basicInfo-roundedRectRadius="12" basicInfo-polygonSides="6" basicInfo-starPoints="5" bounding="rect(-48.9708,-30.162,97.9417,60.3241)" text="" font-familyName="Helvetica" font-pixelSize="20" font-bold="0" font-underline="0" font-alignment="1" strokeStyle="0" markerStart="0" markerEnd="0" shadowEnabled="0" shadowOffsetX="0" shadowOffsetY="2" shadowBlur="4" shadowOpacity="160" blurEnabled="0" blurRadius="4" transform="matrix(0.0851915,0,0,0.0851915,53.5144,33.3987)" pers-center="0,0" pers-size="0,0" pers-start="0,0" pers-end="0,0" locked="0" mesh="" flag=""/>
            <path id="shapePath2" d="M49.3425,33.6874 C49.3425,33.6874 50.2953,31.6953 50.2953,31.6953 C50.2953,31.6953 52.7782,30.8291 52.7782,30.8291 C52.7782,30.8291 55.8963,31.1756 55.8963,31.1756 C55.8963,31.1756 57.6863,32.8501 57.6863,32.8501 C57.6863,32.8501 56.9068,35.8528 56.9068,35.8528 C56.9068,35.8528 52.9514,35.9682 52.9514,35.9682 C52.9514,35.9682 50.7572,35.9394 50.7572,35.9394 C50.7572,35.9394 49.3425,33.6874 49.3425,33.6874 Z" style="stroke:none;fill-rule:evenodd;fill:#fafff7;fill-opacity:1;"/>
        </g>
        <g id="Shape3">
            <desc shapeID="3" type="0" basicInfo-basicType="0" basicInfo-roundedRectRadius="12" basicInfo-polygonSides="6" basicInfo-starPoints="5" bounding="rect(-31.8975,-29.9583,63.795,59.9167)" text="" font-familyName="Helvetica" font-pixelSize="20" font-bold="0" font-underline="0" font-alignment="1" strokeStyle="0" markerStart="0" markerEnd="0" shadowEnabled="0" shadowOffsetX="0" shadowOffsetY="2" shadowBlur="4" shadowOpacity="160" blurEnabled="0" blurRadius="4" transform="matrix(0.0851915,0,0,0.0851915,60.3511,51.7704)" pers-center="0,0" pers-size="0,0" pers-start="0,0" pers-end="0,0" locked="0" mesh="" flag=""/>
            <path id="shapePath3" d="M57.6337,49.2182 C57.6337,49.2182 59.3596,49.5854 59.4697,49.512 C59.5799,49.4385 62.4075,49.2182 62.4075,49.2182 C62.4075,49.2182 63.0685,53.4413 63.0685,53.4413 C63.0685,53.4413 61.9301,54.3226 61.9301,54.3226 C61.9301,54.3226 58.3314,53.5881 58.3314,53.5881 C58.3314,53.5881 57.6337,50.5035 57.6337,50.5035 C57.6337,50.5035 57.6337,49.2182 57.6337,49.2182 Z" style="stroke:none;fill-rule:evenodd;fill:#f9fff7;fill-opacity:1;"/>
        </g>
        <g id="Shape4">
            <desc shapeID="4" type="0" basicInfo-basicType="0" basicInfo-roundedRectRadius="12" basicInfo-polygonSides="6" basicInfo-starPoints="5" bounding="rect(-68.6697,-84.4027,137.339,168.806)" text="" font-familyName="Helvetica" font-pixelSize="20" font-bold="0" font-underline="0" font-alignment="1" strokeStyle="0" markerStart="0" markerEnd="0" shadowEnabled="0" shadowOffsetX="0" shadowOffsetY="2" shadowBlur="4" shadowOpacity="160" blurEnabled="0" blurRadius="4" transform="matrix(0.0851915,0,0,0.0851915,54.8908,58.869)" pers-center="0,0" pers-size="0,0" pers-start="0,0" pers-end="0,0" locked="0" mesh="" flag=""/>
            <path id="shapePath4" d="M49.0407,51.6786 C49.0407,51.6786 49.1559,56.7707 49.5491,59.2793 C49.7722,60.7027 49.9318,62.3052 50.8768,63.3928 C52.0061,64.6925 53.6597,65.6736 55.3569,65.9634 C56.8907,66.2253 58.7514,65.9734 59.9104,64.9351 C60.8491,64.0942 60.8192,62.4745 60.6448,61.2262 C60.5561,60.591 59.8534,59.9715 59.2127,59.941 C58.0914,59.8876 57.1402,61.0309 56.0179,61.0059 C54.8103,60.9791 53.3263,60.7613 52.6028,59.7941 C50.8332,57.4285 49.0407,51.6786 49.0407,51.6786 Z" style="stroke:none;fill-rule:evenodd;fill:#f9fff7;fill-opacity:1;"/>
        </g>
        <g id="Shape5">
            <desc shapeID="5" type="0" basicInfo-basicType="0" basicInfo-roundedRectRadius="12" basicInfo-polygonSides="6" basicInfo-starPoints="5" bounding="rect(-32.7156,-38.6224,65.4313,77.2447)" text="" font-familyName="Helvetica" font-pixelSize="20" font-bold="0" font-underline="0" font-alignment="1" strokeStyle="0" markerStart="0" markerEnd="0" shadowEnabled="0" shadowOffsetX="0" shadowOffsetY="2" shadowBlur="4" shadowOpacity="160" blurEnabled="0" blurRadius="4" transform="matrix(0.0851915,0,0,0.0851915,48.5702,20.1548)" pers-center="0,0" pers-size="0,0" pers-start="0,0" pers-end="0,0" locked="0" mesh="" flag=""/>
            <path id="shapePath5" d="M50.0285,23.0477 C49.5828,23.3542 48.9274,23.5783 48.4353,23.3542 C47.492,22.9245 46.5861,22.2 46.1271,21.2707 C45.689,20.3839 45.7183,19.2721 45.9433,18.309 C46.0839,17.707 46.537,16.9903 47.1485,16.8996 C48.1906,16.745 49.3184,17.1182 50.2124,17.6757 C50.8028,18.0441 51.0488,18.8149 51.2745,19.4732 C51.3896,19.8091 51.4039,20.2498 51.1928,20.5354 C51.069,20.7029 50.748,20.536 50.58,20.4128 C50.3142,20.2178 50.165,19.9003 49.9672,19.6367 C49.8176,19.4372 49.787,19.041 49.5383,19.0239 C49.3404,19.0102 49.3277,19.4032 49.3749,19.5958 C49.4995,20.1048 49.8241,20.5431 50.0285,21.0256 C50.1647,21.347 50.3961,21.657 50.3961,22.006 C50.3961,22.3743 50.332,22.8392 50.0285,23.0477 Z" style="stroke:none;fill-rule:evenodd;fill:#334b4a;fill-opacity:1;"/>
        </g>
        <g id="Shape6">
            <desc shapeID="6" type="0" basicInfo-basicType="0" basicInfo-roundedRectRadius="12" basicInfo-polygonSides="6" basicInfo-starPoints="5" bounding="rect(-37.8452,-36.0195,75.6905,72.0391)" text="" font-familyName="Helvetica" font-pixelSize="20" font-bold="0" font-underline="0" font-alignment="1" strokeStyle="0" markerStart="0" markerEnd="0" shadowEnabled="0" shadowOffsetX="0" shadowOffsetY="2" shadowBlur="4" shadowOpacity="160" blurEnabled="0" blurRadius="4" transform="matrix(0.0851915,0,0,0.0851915,54.6427,19.1163)" pers-center="0,0" pers-size="0,0" pers-start="0,0" pers-end="0,0" locked="0" mesh="" flag=""/>
            <path id="shapePath6" d="M52.438,19.7825 C52.0793,19.778 51.6497,19.5987 51.4869,19.279 C51.3284,18.9676 51.4714,18.5415 51.6548,18.244 C52.0602,17.5861 52.5392,16.9212 53.1933,16.5096 C53.7523,16.158 54.4663,15.9964 55.1235,16.0621 C55.7502,16.1247 56.4023,16.4109 56.8299,16.8733 C57.3706,17.4582 57.8197,18.2319 57.8649,19.0273 C57.902,19.6814 57.3825,20.2509 57.0537,20.8176 C56.7728,21.3015 56.5774,21.9834 56.0466,22.1603 C55.6461,22.2938 55.2082,21.8552 54.9557,21.5169 C54.6768,21.1433 54.537,20.6396 54.564,20.1741 C54.587,19.7787 54.8542,19.4254 55.0955,19.1112 C55.3568,18.771 55.7836,18.583 56.0466,18.244 C56.1519,18.1082 56.2309,17.8965 56.1585,17.7405 C56.081,17.5737 55.8564,17.3995 55.6829,17.4608 C55.4384,17.547 55.3973,17.8997 55.2074,18.0761 C54.7317,18.5184 54.2498,18.9663 53.6969,19.307 C53.315,19.5423 52.8865,19.7882 52.438,19.7825 Z" style="stroke:none;fill-rule:evenodd;fill:#334b4a;fill-opacity:1;"/>
        </g>
        <g id="Shape7">
            <desc shapeID="7" type="0" basicInfo-basicType="0" basicInfo-roundedRectRadius="12" basicInfo-polygonSides="6" basicInfo-starPoints="5" bounding="rect(-45.1013,-32.5463,90.2026,65.0928)" text="" font-familyName="Helvetica" font-pixelSize="20" font-bold="0" font-underline="0" font-alignment="1" strokeStyle="0" markerStart="0" markerEnd="0" shadowEnabled="0" shadowOffsetX="0" shadowOffsetY="2" shadowBlur="4" shadowOpacity="160" blurEnabled="0" blurRadius="4" transform="matrix(0.0851915,0,0,0.0851915,60.8052,22.5136)" pers-center="0,0" pers-size="0,0" pers-start="0,0" pers-end="0,0" locked="0" mesh="" flag=""/>
            <path id="shapePath7" d="M57.7288,21.5382 C58.2595,21.7113 58.7723,21.969 59.3256,22.0425 C59.8871,22.1169 60.4634,21.8904 61.0233,21.9752 C61.4125,22.0342 62.0824,22.0693 62.0991,22.4626 C62.1165,22.8773 61.3892,22.8991 61.0737,23.1686 C60.8084,23.3953 60.2574,23.6107 60.3678,23.9418 C60.5586,24.5143 61.1778,24.8901 61.7292,25.1352 C62.1907,25.3403 62.744,25.3031 63.242,25.2193 C63.6558,25.1496 64.2228,25.076 64.3833,24.6883 C64.6987,23.9264 64.7304,23.0039 64.4852,22.2164 C64.2588,21.4894 63.7254,20.7994 63.0581,20.4326 C62.1837,19.952 61.1202,19.9234 60.1276,19.821 C59.4592,19.7522 58.725,19.6424 58.1145,19.923 C57.5779,20.1696 57.1049,20.6992 56.9677,21.2736 C56.9054,21.5348 57.4735,21.4549 57.7288,21.5382 Z" style="stroke:none;fill-rule:evenodd;fill:#334b4a;fill-opacity:1;"/>
        </g>
        <g id="Shape8">
            <desc shapeID="8" type="0" basicInfo-basicType="0" basicInfo-roundedRectRadius="12" basicInfo-polygonSides="6" basicInfo-starPoints="5" bounding="rect(-199.151,-161.505,398.303,323.011)" text="" font-familyName="Helvetica" font-pixelSize="20" font-bold="0" font-underline="0" font-alignment="1" strokeStyle="0" markerStart="0" markerEnd="0" shadowEnabled="0" shadowOffsetX="0" shadowOffsetY="2" shadowBlur="4" shadowOpacity="160" blurEnabled="0" blurRadius="4" transform="matrix(0.0851915,0,0,0.0851915,80.3125,38.6349)" pers-center="0,0" pers-size="0,0" pers-start="0,0" pers-end="0,0" locked="0" mesh="" flag=""/>
            <path id="shapePath8" d="M63.3545,26.1619 C63.4425,25.5158 64.1937,24.782 64.8374,24.886 C66.9469,25.2269 68.8801,26.3275 70.7524,27.3575 C73.291,28.754 75.4626,30.7612 78.0141,32.1349 C80.04,33.2257 82.2464,33.949 84.4154,34.7147 C86.5818,35.4792 88.7389,36.3652 91.0084,36.7212 C92.0588,36.8859 93.1569,35.8974 94.1613,36.2435 C95.3122,36.6396 96.5075,37.5562 96.8372,38.7277 C97.4403,40.8741 97.4412,43.299 96.7418,45.416 C96.1292,47.2674 94.7483,48.9443 93.1109,50.0024 C90.9956,51.3687 88.4612,52.3171 85.9446,52.3911 C83.8906,52.4515 81.8392,51.5043 80.1158,50.3846 C78.5457,49.364 77.4374,47.7323 76.3895,46.1805 C75.7574,45.2443 75.5197,44.0941 75.1474,43.0274 C74.8193,42.0853 73.3316,40.4303 74.2918,40.1596 C75.3979,39.8478 76.0087,41.6979 76.7499,42.5755 C77.3999,43.3449 77.6844,44.4172 78.4452,45.0763 C79.8355,46.2793 81.357,47.4285 83.0847,48.0584 C84.8388,48.6981 86.7906,49.0679 88.6375,48.7934 C89.9835,48.5933 91.1481,47.6331 92.1491,46.711 C93.099,45.836 93.7405,44.6618 94.3538,43.526 C94.8377,42.6319 95.2518,41.6707 95.4162,40.6677 C95.5184,40.0428 95.4579,39.3313 95.1299,38.7894 C94.9945,38.5654 94.5966,38.8129 94.3538,38.9119 C93.9194,39.0893 93.5897,39.514 93.1288,39.6061 C92.1942,39.7931 91.1958,39.9623 90.2706,39.7286 C88.6579,39.3209 87.2795,38.2439 85.6975,37.7278 C84.0525,37.1911 82.2302,37.254 80.6346,36.5844 C78.7868,35.809 77.1528,34.5896 75.5044,33.45 C73.891,32.3345 72.433,31.0089 70.8652,29.8303 C69.9004,29.1051 69.0582,28.1072 67.9084,27.7402 C67.299,27.5458 66.7127,28.2916 66.0731,28.301 C65.5034,28.3093 64.8894,28.1435 64.4417,27.7912 C63.9286,27.3875 63.2664,26.8089 63.3545,26.1619 Z" style="stroke:none;fill-rule:evenodd;fill:#334b4a;fill-opacity:1;"/>
        </g>
        <g id="Shape9">
            <desc shapeID="9" type="0" basicInfo-basicType="0" basicInfo-roundedRectRadius="12" basicInfo-polygonSides="6" basicInfo-starPoints="5" bounding="rect(-12.4223,-17.2483,24.8446,34.4964)" text="" font-familyName="Helvetica" font-pixelSize="20" font-bold="0" font-underline="0" font-alignment="1" strokeStyle="0" markerStart="0" markerEnd="0" shadowEnabled="0" shadowOffsetX="0" shadowOffsetY="2" shadowBlur="4" shadowOpacity="160" blurEnabled="0" blurRadius="4" transform="matrix(0.0851915,0,0,0.0851915,50.2716,29.034)" pers-center="0,0" pers-size="0,0" pers-start="0,0" pers-end="0,0" locked="0" mesh="" flag=""/>
            <path id="shapePath9" d="M51.1155,30.4157 C50.7579,30.5845 50.2578,30.4968 49.9389,30.2629 C49.573,29.9946 49.3905,29.5114 49.2818,29.0709 C49.1792,28.6554 49.1897,28.1927 49.3277,27.7874 C49.3813,27.6298 49.6384,27.5118 49.7861,27.5888 C50.1788,27.7937 50.469,28.1655 50.7335,28.5209 C50.9797,28.8517 51.2174,29.2169 51.2988,29.6211 C51.3526,29.8876 51.3614,30.2997 51.1155,30.4157 Z" style="stroke:none;fill-rule:evenodd;fill:#334b4a;fill-opacity:1;"/>
        </g>
        <g id="Shape10">
            <desc shapeID="10" type="0" basicInfo-basicType="0" basicInfo-roundedRectRadius="12" basicInfo-polygonSides="6" basicInfo-starPoints="5" bounding="rect(-9.91747,-17.567,19.8349,35.134)" text="" font-familyName="Helvetica" font-pixelSize="20" font-bold="0" font-underline="0" font-alignment="1" strokeStyle="0" markerStart="0" markerEnd="0" shadowEnabled="0" shadowOffsetX="0" shadowOffsetY="2" shadowBlur="4" shadowOpacity="160" blurEnabled="0" blurRadius="4" transform="matrix(0.0851915,0,0,0.0851915,55.2534,28.5989)" pers-center="0,0" pers-size="0,0" pers-start="0,0" pers-end="0,0" locked="0" mesh="" flag=""/>
            <path id="shapePath10" d="M54.5383,29.1627 C54.419,28.8404 54.3931,28.4818 54.4161,28.1389 C54.4397,27.7876 54.345,27.2354 54.6759,27.115 C54.9652,27.0099 55.0752,27.5845 55.2566,27.8333 C55.4729,28.1301 55.7211,28.4134 55.8677,28.7501 C56.001,29.056 56.1485,29.4012 56.0816,29.728 C56.0408,29.9276 55.7961,30.083 55.5927,30.0948 C55.3788,30.1072 55.1878,29.931 55.0273,29.7892 C54.8288,29.6137 54.6303,29.4111 54.5383,29.1627 Z" style="stroke:none;fill-rule:evenodd;fill:#334b4a;fill-opacity:1;"/>
        </g>
        <g id="Shape11">
            <desc shapeID="11" type="0" basicInfo-basicType="0" basicInfo-roundedRectRadius="12" basicInfo-polygonSides="6" basicInfo-starPoints="5" bounding="rect(0,0,0,0)" text="" font-familyName="Helvetica" font-pixelSize="20" font-bold="0" font-underline="0" font-alignment="1" strokeStyle="0" markerStart="0" markerEnd="0" shadowEnabled="0" shadowOffsetX="0" shadowOffsetY="2" shadowBlur="4" shadowOpacity="160" blurEnabled="0" blurRadius="4" transform="matrix(0.0851915,0,0,0.0851915,53.5518,33.9632)" pers-center="0,0" pers-size="0,0" pers-start="0,0" pers-end="0,0" locked="0" mesh="" flag=""/>
            <path id="shapePath11" d="M53.5518,33.9632 Z" style="stroke:none;fill-rule:evenodd;fill:#334b4a;fill-opacity:1;"/>
        </g>
        <g id="Shape12">
            <desc shapeID="12" type="0" basicInfo-basicType="0" basicInfo-roundedRectRadius="12" basicInfo-polygonSides="6" basicInfo-starPoints="5" bounding="rect(-15.2405,-25.238,30.481,50.4759)" text="" font-familyName="Helvetica" font-pixelSize="20" font-bold="0" font-underline="0" font-alignment="1" strokeStyle="0" markerStart="0" markerEnd="0" shadowEnabled="0" shadowOffsetX="0" shadowOffsetY="2" shadowBlur="4" shadowOpacity="160" blurEnabled="0" blurRadius="4" transform="matrix(0.0851915,0,0,0.0851915,53.4794,31.8862)" pers-center="0,0" pers-size="0,0" pers-start="0,0" pers-end="0,0" locked="0" mesh="" flag=""/>
            <path id="shapePath12" d="M53.5271,34.0176 C53.3266,34.1246 53.1193,33.7451 53.0528,33.5278 C52.9544,33.2056 53.1023,32.8523 53.0684,32.5171 C53.0523,32.3581 52.9883,32.2028 52.9052,32.0662 C52.6957,31.7222 52.295,31.4775 52.1977,31.0867 C52.1254,30.7962 52.3036,30.4867 52.4464,30.2237 C52.555,30.0241 52.702,29.7604 52.9285,29.7417 C53.4059,29.7022 53.8881,29.8783 54.3279,30.0682 C54.5019,30.1433 54.6395,30.3219 54.6933,30.5035 C54.7838,30.8095 54.8052,31.1474 54.7399,31.4598 C54.7033,31.635 54.5387,31.7601 54.4056,31.8796 C54.2554,32.0146 53.9835,32.0299 53.9003,32.2139 C53.7784,32.4835 53.9136,32.8105 53.8536,33.1003 C53.7879,33.4181 53.8134,33.8647 53.5271,34.0176 Z" style="stroke:none;fill-rule:evenodd;fill:#334b4a;fill-opacity:1;"/>
        </g>
        <g id="Shape13">
            <desc shapeID="13" type="0" basicInfo-basicType="0" basicInfo-roundedRectRadius="12" basicInfo-polygonSides="6" basicInfo-starPoints="5" bounding="rect(-54.8005,-38.3972,109.601,76.7944)" text="" font-familyName="Helvetica" font-pixelSize="20" font-bold="0" font-underline="0" font-alignment="1" strokeStyle="0" markerStart="0" markerEnd="0" shadowEnabled="0" shadowOffsetX="0" shadowOffsetY="2" shadowBlur="4" shadowOpacity="160" blurEnabled="0" blurRadius="4" transform="matrix(0.0851915,0,0,0.0851915,53.5254,33.6727)" pers-center="0,0" pers-size="0,0" pers-start="0,0" pers-end="0,0" locked="0" mesh="" flag=""/>
            <path id="shapePath13" d="M52.5803,31.0743 C52.3789,31.3653 51.9644,31.4272 51.6827,31.6413 C51.1597,32.0387 50.5375,32.3601 50.1708,32.9051 C49.9402,33.2478 49.9293,33.7273 50.0054,34.1334 C50.0801,34.531 50.2426,35.0014 50.5997,35.1912 C51.103,35.4587 51.732,35.3706 52.3016,35.354 C52.9244,35.3358 53.5388,35.2006 54.1515,35.0876 C54.6837,34.9895 55.2495,34.9643 55.733,34.7214 C56.1442,34.5149 56.5309,34.1908 56.7462,33.7843 C56.9329,33.432 56.9368,32.985 56.8602,32.5938 C56.8105,32.3394 56.6103,32.1124 56.3917,31.9732 C55.8941,31.6565 55.305,31.5136 54.7705,31.2639 C54.5361,31.1545 54.184,31.1364 54.0866,30.8967 C54.0154,30.7214 54.2581,30.5012 54.4413,30.4534 C54.7972,30.3606 55.1945,30.399 55.5431,30.5167 C56.1388,30.718 56.7292,30.9912 57.2149,31.3906 C57.5848,31.6948 57.9096,32.107 58.0381,32.5685 C58.2216,33.2277 58.2379,33.9471 58.1141,34.6202 C57.9873,35.3087 57.8538,36.125 57.3035,36.5578 C56.7634,36.9828 55.9497,36.8094 55.2645,36.8618 C54.4562,36.9236 53.6384,36.9899 52.8328,36.8998 C52.338,36.8444 51.9059,36.5108 51.4143,36.4312 C51.1332,36.3857 50.8295,36.6403 50.5658,36.5325 C49.9966,36.3 49.3509,36.0097 49.0587,35.4687 C48.7513,34.8994 48.8659,34.1731 48.9447,33.531 C49.0122,32.9811 49.1626,32.4081 49.4894,31.9606 C49.808,31.5241 50.3077,31.2341 50.7938,30.998 C51.3142,30.7452 51.8832,30.492 52.4613,30.5167 C52.6511,30.5248 52.6885,30.9181 52.5803,31.0743 Z" style="stroke:none;fill-rule:evenodd;fill:#334b4a;fill-opacity:1;"/>
        </g>
        <g id="Shape14">
            <desc shapeID="14" type="0" basicInfo-basicType="0" basicInfo-roundedRectRadius="12" basicInfo-polygonSides="6" basicInfo-starPoints="5" bounding="rect(-88.0276,-108.327,176.055,216.652)" text="" font-familyName="Helvetica" font-pixelSize="20" font-bold="0" font-underline="0" font-alignment="1" strokeStyle="0" markerStart="0" markerEnd="0" shadowEnabled="0" shadowOffsetX="0" shadowOffsetY="2" shadowBlur="4" shadowOpacity="160" blurEnabled="0" blurRadius="4" transform="matrix(0.0851915,0,0,0.0851915,56.3545,52.4618)" pers-center="0,0" pers-size="0,0" pers-start="0,0" pers-end="0,0" locked="0" mesh="" flag=""/>
            <path id="shapePath14" d="M59.3298,60.1273 C58.8775,60.7433 58.183,61.2123 57.4561,61.4482 C56.5777,61.7333 55.6104,61.7255 54.6917,61.6325 C53.9636,61.5587 53.1252,61.4693 52.6029,60.9568 C51.409,59.7852 50.4512,58.3408 49.777,56.81 C49.178,55.45 48.86,53.9343 48.8554,52.4482 C48.8496,50.4803 49.0508,48.453 49.7463,46.6121 C50.1382,45.5748 51.1007,44.8191 51.9886,44.1547 C52.6431,43.6649 53.444,43.2333 54.2616,43.2333 C54.9668,43.2333 55.6649,43.6586 56.1661,44.1547 C56.7589,44.7418 57.1234,45.5466 57.3947,46.3356 C57.6849,47.1793 57.655,48.1014 57.8247,48.9772 C58.0341,50.0577 58.065,51.2055 58.5312,52.2025 C58.7656,52.7037 59.3106,53.034 59.8213,53.2469 C60.4537,53.5103 61.1637,53.5962 61.8486,53.5847 C62.4073,53.5753 62.9387,53.0341 63.4766,53.1854 C63.8008,53.2766 63.9243,53.8193 63.8145,54.1376 C63.6772,54.5355 63.2255,54.7542 62.8623,54.967 C62.4961,55.1814 62.0841,55.4588 61.6643,55.397 C61.283,55.3409 61.1401,54.7789 60.7736,54.6598 C60.3059,54.508 59.7338,54.8586 59.2992,54.6291 C58.3868,54.1473 57.4467,53.5279 56.934,52.6325 C56.6322,52.1055 57.1237,51.4274 57.1183,50.8203 C57.1134,50.2729 57.0665,49.7147 56.9032,49.1922 C56.6021,48.2285 56.1991,47.2943 55.736,46.397 C55.3765,45.7006 55.089,44.8792 54.4459,44.4312 C54.0507,44.1559 53.4187,44.2507 53.0022,44.4927 C52.3875,44.8495 51.835,45.4229 51.5892,46.0899 C51.0934,47.4356 50.8912,48.8951 50.8521,50.3288 C50.8085,51.9237 50.9904,53.534 51.3435,55.0899 C51.6512,56.4454 51.7509,58.0998 52.818,58.9909 C53.8892,59.8855 55.5428,59.6464 56.934,59.7588 C57.5935,59.812 58.2458,59.3818 58.8998,59.4824 C59.1553,59.5216 59.4828,59.9191 59.3298,60.1273 Z" style="stroke:none;fill-rule:evenodd;fill:#334b4a;fill-opacity:1;"/>
        </g>
        <g id="Shape15">
            <desc shapeID="15" type="0" basicInfo-basicType="0" basicInfo-roundedRectRadius="12" basicInfo-polygonSides="6" basicInfo-starPoints="5" bounding="rect(-92.246,-97.5689,184.492,195.139)" text="" font-familyName="Helvetica" font-pixelSize="20" font-bold="0" font-underline="0" font-alignment="1" strokeStyle="0" markerStart="0" markerEnd="0" shadowEnabled="0" shadowOffsetX="0" shadowOffsetY="2" shadowBlur="4" shadowOpacity="160" blurEnabled="0" blurRadius="4" transform="matrix(0.0851915,0,0,0.0851915,65.1985,41.9133)" pers-center="0,0" pers-size="0,0" pers-start="0,0" pers-end="0,0" locked="0" mesh="" flag=""/>
            <path id="shapePath15" d="M67.1513,33.7026 C67.3885,33.4379 67.8986,33.7518 68.1857,33.9612 C68.9616,34.5269 69.6614,35.2104 70.2546,35.9654 C71.2111,37.1828 72.3075,38.3798 72.8085,39.8447 C73.1955,40.9764 73.0793,42.2679 72.8085,43.433 C72.4951,44.7811 72.0048,46.172 71.0951,47.2152 C70.3761,48.0399 69.2293,48.4058 68.1857,48.7346 C67.0432,49.0944 65.8034,49.0129 64.6298,49.2518 C63.3646,49.5093 62.1587,50.044 60.8798,50.2216 C60.5625,50.2657 60.2946,49.9148 59.9747,49.8983 C59.2302,49.86 58.4279,50.3569 57.7442,50.0599 C57.3622,49.8941 57.1794,49.0741 57.5178,48.8315 C58.1063,48.4098 58.9701,48.7921 59.6837,48.6699 C60.9256,48.4572 62.1917,48.2781 63.369,47.8294 C65.0666,47.1824 66.8789,46.5964 68.2504,45.4049 C69.3594,44.4414 70.0138,43.0043 70.5133,41.6226 C70.8659,40.6472 70.9724,39.53 70.7395,38.5193 C70.5404,37.6542 69.892,36.9363 69.2848,36.2887 C68.7408,35.7084 67.8515,35.5122 67.3452,34.8986 C67.0882,34.5871 66.8816,34.0033 67.1513,33.7026 Z" style="stroke:none;fill-rule:evenodd;fill:#334b4a;fill-opacity:1;"/>
        </g>
        <g id="Shape16">
            <desc shapeID="16" type="0" basicInfo-basicType="0" basicInfo-roundedRectRadius="12" basicInfo-polygonSides="6" basicInfo-starPoints="5" bounding="rect(-86.2553,-127.962,172.511,255.925)" text="" font-familyName="Helvetica" font-pixelSize="20" font-bold="0" font-underline="0" font-alignment="1" strokeStyle="0" markerStart="0" markerEnd="0" shadowEnabled="0" shadowOffsetX="0" shadowOffsetY="2" shadowBlur="4" shadowOpacity="160" blurEnabled="0" blurRadius="4" transform="matrix(0.0851915,0,0,0.0851915,42.8612,41.1746)" pers-center="0,0" pers-size="0,0" pers-start="0,0" pers-end="0,0" locked="0" mesh="" flag=""/>
            <path id="shapePath16" d="M41.2944,30.3174 C39.5462,31.3055 37.9683,32.7378 36.8994,34.4378 C35.9701,35.9157 35.4201,37.7494 35.526,39.4921 C35.6678,41.8278 36.333,44.2361 37.6136,46.1946 C38.9202,48.193 40.9768,49.6474 42.9975,50.9192 C44.1599,51.6509 45.5803,52.0304 46.9531,52.073 C48.0419,52.1067 49.2638,51.8551 50.0846,51.139 C50.4434,50.826 49.9567,50.0419 49.5352,49.8205 C48.7328,49.3989 47.7363,49.5909 46.8432,49.436 C45.5198,49.2062 44.0627,49.3177 42.8877,48.6668 C41.4144,47.8506 40.1455,46.604 39.2068,45.2057 C38.3025,43.8585 37.8695,42.2266 37.5037,40.6458 C37.3463,39.9657 37.5097,39.2379 37.6685,38.5581 C37.9703,37.2667 38.3009,35.9619 38.8771,34.7674 C39.3212,33.847 40.2024,33.1932 40.6901,32.2952 C41.0192,31.6894 41.8946,29.9782 41.2944,30.3174 Z" style="stroke:none;fill-rule:evenodd;fill:#334b4a;fill-opacity:1;"/>
        </g>
        <g id="Shape17">
            <desc shapeID="17" type="0" basicInfo-basicType="0" basicInfo-roundedRectRadius="12" basicInfo-polygonSides="6" basicInfo-starPoints="5" bounding="rect(-270.971,-144.877,541.942,289.753)" text="" font-familyName="Helvetica" font-pixelSize="20" font-bold="0" font-underline="0" font-alignment="1" strokeStyle="0" markerStart="0" markerEnd="0" shadowEnabled="0" shadowOffsetX="0" shadowOffsetY="2" shadowBlur="4" shadowOpacity="160" blurEnabled="0" blurRadius="4" transform="matrix(0.0851915,0,0,0.0851915,23.9711,33.8766)" pers-center="0,0" pers-size="0,0" pers-start="0,0" pers-end="0,0" locked="0" mesh="" flag=""/>
            <path id="shapePath17" d="M47.0393,23.3584 C47.1753,22.7324 46.4323,22.0427 45.8131,21.8784 C44.2046,21.4517 42.468,21.4542 40.8234,21.7093 C38.9604,21.9983 37.1828,22.7344 35.4533,23.4853 C33.2096,24.4594 31.1699,25.8595 28.9414,26.8681 C26.991,27.7507 24.9389,28.389 22.9377,29.1495 C22.8771,29.1725 22.8208,29.2186 22.756,29.2186 C20.6634,29.2186 18.5694,29.2383 16.4787,29.1496 C13.693,29.0313 10.9059,28.8814 8.13211,28.5977 C6.85347,28.4669 5.62279,27.8615 4.33819,27.9079 C3.62889,27.9336 2.79333,28.2094 2.40673,28.8047 C1.55933,30.1098 0.898497,31.6633 0.889215,33.2194 C0.874647,35.659 0.875837,38.4404 2.33781,40.3934 C4.14182,42.8034 7.08442,44.2959 9.92565,45.291 C12.6939,46.2605 15.7609,46.335 18.6861,46.1188 C21.7507,45.8922 24.8182,45.1653 27.6536,43.9804 C29.5332,43.1948 31.2188,41.8655 32.5512,40.3244 C33.2225,39.5479 32.7962,38.2033 33.379,37.3583 C33.7937,36.757 34.9557,36.962 35.3104,36.3236 C35.7465,35.5386 35.596,34.519 35.4483,33.6333 C35.3975,33.3282 35.0444,32.894 34.7585,33.0125 C33.8992,33.3688 33.3315,34.2064 32.6202,34.806 C30.5492,36.5517 28.7382,38.6611 26.4119,40.0485 C24.8439,40.9837 22.9289,41.1474 21.1694,41.6351 C18.6972,42.3203 16.2849,43.5415 13.7196,43.5664 C11.4105,43.589 9.12757,42.7351 7.02845,41.773 C5.7384,41.1818 4.54137,40.2154 3.7864,39.0138 C2.84632,37.5177 2.32597,35.7343 2.13088,33.9782 C1.99389,32.7457 2.18838,31.3892 2.82067,30.3222 C3.0788,29.8867 3.8555,30.4063 4.33819,30.2532 C4.83077,30.0971 5.13541,29.3672 5.64886,29.4255 C6.33951,29.504 6.92665,30.0656 7.37339,30.5982 C7.58075,30.8455 7.15488,31.4171 7.44231,31.5639 C9.47004,32.5993 11.6078,33.559 13.8575,33.9092 C16.5613,34.3301 19.3609,34.251 22.0662,33.8402 C23.8223,33.5736 25.4041,32.6177 27.0328,31.9088 C29.3152,30.9153 31.5427,29.8004 33.7928,28.7357 C36.2565,27.57 38.7623,26.4879 41.1737,25.2177 C41.784,24.8962 42.1601,24.1434 42.8293,23.9761 C43.6351,23.7746 44.4907,24.3035 45.3126,24.183 C45.9437,24.0904 46.904,23.9817 47.0393,23.3584 Z" style="stroke:none;fill-rule:evenodd;fill:#334b4a;fill-opacity:1;"/>
        </g>
        <g id="Shape18">
            <desc shapeID="18" type="0" basicInfo-basicType="0" basicInfo-roundedRectRadius="12" basicInfo-polygonSides="6" basicInfo-starPoints="5" bounding="rect(-21.7447,-88.1962,43.4893,176.393)" text="" font-familyName="Helvetica" font-pixelSize="20" font-bold="0" font-underline="0" font-alignment="1" strokeStyle="0" markerStart="0" markerEnd="0" shadowEnabled="0" shadowOffsetX="0" shadowOffsetY="2" shadowBlur="4" shadowOpacity="160" blurEnabled="0" blurRadius="4" transform="matrix(0.0851915,0,0,0.0851915,68.8452,55.0559)" pers-center="0,0" pers-size="0,0" pers-start="0,0" pers-end="0,0" locked="0" mesh="" flag=""/>
            <path id="shapePath18" d="M67.2486,47.6138 C67.5868,47.3147 68.1244,48.0255 68.3319,48.4263 C69.0236,49.7618 69.4791,51.216 69.8667,52.6692 C70.2643,54.1606 70.5948,55.6868 70.6791,57.2281 C70.7615,58.7341 70.5534,60.2456 70.3631,61.7418 C70.3258,62.0358 70.2906,62.487 70.002,62.5543 C69.6417,62.6384 69.2248,62.3584 69.009,62.0578 C68.7577,61.7078 68.7553,61.2244 68.7382,60.794 C68.6798,59.3205 68.933,57.8374 68.7834,56.3705 C68.6303,54.8703 68.1808,53.4149 67.8354,51.947 C67.639,51.112 67.2735,50.3144 67.1584,49.4644 C67.0755,48.8524 66.786,48.023 67.2486,47.6138 Z" style="stroke:none;fill-rule:evenodd;fill:#334b4a;fill-opacity:1;"/>
        </g>
        <g id="Shape19">
            <desc shapeID="19" type="0" basicInfo-basicType="0" basicInfo-roundedRectRadius="12" basicInfo-polygonSides="6" basicInfo-starPoints="5" bounding="rect(-20.6829,-113.122,41.3657,226.244)" text="" font-familyName="Helvetica" font-pixelSize="20" font-bold="0" font-underline="0" font-alignment="1" strokeStyle="0" markerStart="0" markerEnd="0" shadowEnabled="0" shadowOffsetX="0" shadowOffsetY="2" shadowBlur="4" shadowOpacity="160" blurEnabled="0" blurRadius="4" transform="matrix(0.0851915,0,0,0.0851915,46.0835,60.0426)" pers-center="0,0" pers-size="0,0" pers-start="0,0" pers-end="0,0" locked="0" mesh="" flag=""/>
            <path id="shapePath19" d="M47.0567,50.4568 C47.3411,50.2174 47.8437,50.8737 47.8452,51.2454 C47.858,54.2025 47.4173,57.1455 47.0982,60.0853 C46.8361,62.501 46.5221,64.9133 46.1021,67.3067 C45.9675,68.0742 45.7916,68.8535 45.4382,69.5478 C45.3626,69.6963 45.0263,69.7319 44.9401,69.5893 C44.6096,69.0427 44.3958,68.401 44.3591,67.7632 C44.2559,65.967 44.3827,64.1616 44.5251,62.368 C44.6598,60.6711 44.8909,58.9806 45.1891,57.3047 C45.4726,55.7121 45.8426,54.134 46.2682,52.5734 C46.4663,51.8471 46.4808,50.9418 47.0567,50.4568 Z" style="stroke:none;fill-rule:evenodd;fill:#334b4a;fill-opacity:1;"/>
        </g>
        <g id="Shape20">
            <desc shapeID="20" type="0" basicInfo-basicType="0" basicInfo-roundedRectRadius="12" basicInfo-polygonSides="6" basicInfo-starPoints="5" bounding="rect(0,0,0,0)" text="" font-familyName="Helvetica" font-pixelSize="20" font-bold="0" font-underline="0" font-alignment="1" strokeStyle="0" markerStart="0" markerEnd="0" shadowEnabled="0" shadowOffsetX="0" shadowOffsetY="2" shadowBlur="4" shadowOpacity="160" blurEnabled="0" blurRadius="4" transform="matrix(1,0,0,1,6.53637,74.4033)" pers-center="0,0" pers-size="0,0" pers-start="0,0" pers-end="0,0" locked="0" mesh="" flag=""/>
            <path id="shapePath20" d="M6.53637,74.4033 Z" style="stroke:#323232;stroke-opacity:1;stroke-width:1;stroke-linejoin:miter;stroke-miterlimit:2;stroke-linecap:round;fill-rule:evenodd;fill:#969696;fill-opacity:1;"/>
        </g>
        <g id="Shape21">
            <desc shapeID="21" type="0" basicInfo-basicType="0" basicInfo-roundedRectRadius="12" basicInfo-polygonSides="6" basicInfo-starPoints="5" bounding="rect(-1.91695,-1.39993,3.8339,2.79987)" text="" font-familyName="" font-pixelSize="20" font-bold="0" font-underline="0" font-alignment="1" strokeStyle="0" markerStart="0" markerEnd="0" shadowEnabled="0" shadowOffsetX="0" shadowOffsetY="2" shadowBlur="4" shadowOpacity="160" blurEnabled="0" blurRadius="4" transform="matrix(1,0,0,1,48.9381,75.8032)" pers-center="0,0" pers-size="0,0" pers-start="0,0" pers-end="0,0" locked="0" mesh="" flag=""/>
            <path id="shapePath21" d="M47.0551,75.6033 C47.7551,77.5033 50.8551,77.8033 50.8551,76.0033 C50.8551,75.0033 49.9551,74.4033 48.7551,74.4033 C47.5551,74.4033 46.8551,74.9033 47.0551,75.6033 Z" style="stroke:none;fill-rule:evenodd;fill:#334b4a;fill-opacity:1;"/>
        </g>
        <g id="Shape22">
            <desc shapeID="22" type="0" basicInfo-basicType="0" basicInfo-roundedRectRadius="12" basicInfo-polygonSides="6" basicInfo-starPoints="5" bounding="rect(-7.93715,-4.27219,15.8742,8.54438)" text="" font-familyName="" font-pixelSize="20" font-bold="0" font-underline="0" font-alignment="1" strokeStyle="0" markerStart="0" markerEnd="0" shadowEnabled="0" shadowOffsetX="0" shadowOffsetY="2" shadowBlur="4" shadowOpacity="160" blurEnabled="0" blurRadius="4" transform="matrix(1,0,0,1,72.8929,80.2415)" pers-center="0,0" pers-size="0,0" pers-start="0,0" pers-end="0,0" locked="0" mesh="" flag=""/>
            <path id="shapePath22" d="M65.8608,78.8883 C63.8608,83.7883 64.8608,84.6883 72.0608,84.4883 C75.5608,84.3883 78.9608,83.9883 79.6608,83.5883 C81.8608,82.0883 80.8608,80.8883 77.4608,80.8883 C74.9608,80.8883 73.6608,80.2883 72.4608,78.3883 C70.2608,74.9883 67.3608,75.1883 65.8608,78.8883 M69.8608,80.3883 C69.8608,81.1883 69.4608,81.8883 68.8608,81.8883 C68.3608,81.8883 68.1608,81.1883 68.4608,80.3883 C68.8608,79.5883 69.2608,78.8883 69.4608,78.8883 C69.6608,78.8883 69.8608,79.5883 69.8608,80.3883 Z" style="stroke:none;fill-rule:evenodd;fill:#334b4a;fill-opacity:1;"/>
        </g>
        <g id="Shape23">
            <desc shapeID="23" type="0" basicInfo-basicType="0" basicInfo-roundedRectRadius="12" basicInfo-polygonSides="6" basicInfo-starPoints="5" bounding="rect(-3.91047,-5.42668,7.82094,10.8533)" text="" font-familyName="" font-pixelSize="20" font-bold="0" font-underline="0" font-alignment="1" strokeStyle="0" markerStart="0" markerEnd="0" shadowEnabled="0" shadowOffsetX="0" shadowOffsetY="2" shadowBlur="4" shadowOpacity="160" blurEnabled="0" blurRadius="4" transform="matrix(1,0,0,1,57.539,80.2415)" pers-center="0,0" pers-size="0,0" pers-start="0,0" pers-end="0,0" locked="0" mesh="" flag=""/>
            <path id="shapePath23" d="M56.784,75.6681 C53.584,76.9681 53.884,78.5681 57.784,80.1681 C60.384,81.2681 60.684,81.6681 59.184,82.1681 C58.284,82.5681 56.784,82.3681 55.984,81.6681 C54.784,80.6681 54.384,80.7681 53.884,81.9681 C53.084,84.1681 54.184,85.6681 56.884,85.6681 C61.384,85.6681 63.184,80.6681 59.384,78.6681 C57.384,77.5681 57.384,77.4681 59.184,76.1681 C61.184,74.5681 60.084,74.3681 56.784,75.6681 Z" style="stroke:none;fill-rule:evenodd;fill:#334b4a;fill-opacity:1;"/>
        </g>
        <g id="Shape24">
            <desc shapeID="24" type="0" basicInfo-basicType="0" basicInfo-roundedRectRadius="12" basicInfo-polygonSides="6" basicInfo-starPoints="5" bounding="rect(-4.9324,-5.27279,9.8648,10.5455)" text="" font-familyName="" font-pixelSize="20" font-bold="0" font-underline="0" font-alignment="1" strokeStyle="0" markerStart="0" markerEnd="0" shadowEnabled="0" shadowOffsetX="0" shadowOffsetY="2" shadowBlur="4" shadowOpacity="160" blurEnabled="0" blurRadius="4" transform="matrix(1,0,0,1,40.4283,81.3645)" pers-center="0,0" pers-size="0,0" pers-start="0,0" pers-end="0,0" locked="0" mesh="" flag=""/>
            <path id="shapePath24" d="M36.184,76.2681 C35.284,77.1681 35.284,82.8681 36.084,85.0681 C36.984,87.5681 38.484,86.9681 38.484,84.0681 C38.484,82.1681 39.284,81.2681 41.984,80.0681 C46.384,78.2681 46.484,77.2681 42.284,77.8681 C40.184,78.2681 38.684,77.8681 37.984,76.9681 C37.384,76.1681 36.584,75.8681 36.184,76.2681 Z" style="stroke:none;fill-rule:evenodd;fill:#334b4a;fill-opacity:1;"/>
        </g>
        <g id="Shape25">
            <desc shapeID="25" type="0" basicInfo-basicType="0" basicInfo-roundedRectRadius="12" basicInfo-polygonSides="6" basicInfo-starPoints="5" bounding="rect(-1.05658,-3.53631,2.11315,7.07262)" text="" font-familyName="" font-pixelSize="20" font-bold="0" font-underline="0" font-alignment="1" strokeStyle="0" markerStart="0" markerEnd="0" shadowEnabled="0" shadowOffsetX="0" shadowOffsetY="2" shadowBlur="4" shadowOpacity="160" blurEnabled="0" blurRadius="4" transform="matrix(1,0,0,1,48.8591,83.0646)" pers-center="0,0" pers-size="0,0" pers-start="0,0" pers-end="0,0" locked="0" mesh="" flag=""/>
            <path id="shapePath25" d="M48.2914,80.7283 C47.8914,81.7283 47.5914,84.3283 47.9914,85.2283 C48.7914,86.9283 49.3914,87.1158 49.7914,85.4158 C50.0914,84.5158 49.7914,81.7283 49.4914,80.7283 C49.0914,79.1283 49.0914,79.1283 48.2914,80.7283 Z" style="stroke:none;fill-rule:evenodd;fill:#334b4a;fill-opacity:1;"/>
        </g>
    </g>
</svg>
