<?xml version="1.0"?>
<svg version="1.1" xmlns="http://www.w3.org/2000/svg" xmlns:xlink="http://www.w3.org/1999/xlink" width="100" height="100">
    <desc iVinci="yes" version="4.6" gridStep="20" showGrid="no" snapToGrid="no" codePlatform="0"/>
    <g id="Layer1" name="Layer 2" opacity="1">
        <g id="Shape1">
            <desc shapeID="1" type="0" basicInfo-basicType="0" basicInfo-roundedRectRadius="12" basicInfo-polygonSides="6" basicInfo-starPoints="5" bounding="rect(-37.4405,-34.5285,74.881,69.0569)" text="" font-familyName="Helvetica" font-pixelSize="20" font-bold="0" font-underline="0" font-alignment="1" strokeStyle="0" markerStart="0" markerEnd="0" shadowEnabled="0" shadowOffsetX="0" shadowOffsetY="2" shadowBlur="4" shadowOpacity="160" blurEnabled="0" blurRadius="4" transform="matrix(1.08089,0,0,1.08089,45.1565,40.0286)" pers-center="0,0" pers-size="0,0" pers-start="0,0" pers-end="0,0" locked="0" mesh="" flag=""/>
            <path id="shapePath1" d="M17.1495,30.072 C17.1495,30.072 14.1946,45.4887 14.1946,45.4887 C14.1946,45.4887 18.0488,65.2735 18.0488,65.2735 C18.0488,65.2735 31.41,75.8083 31.41,75.8083 C31.41,75.8083 51.5802,77.3499 51.5802,77.3499 C51.5802,77.3499 64.299,74.7805 64.299,74.7805 C64.299,74.7805 79.8442,57.6936 79.8442,57.6936 C79.8442,57.6936 83.3129,44.204 83.3129,44.204 C83.3129,44.204 81.2574,33.9262 81.2574,33.9262 C81.2574,33.9262 78.3025,23.7768 78.3025,23.7768 C78.3025,23.7768 84.7261,16.1969 84.7261,16.1969 C84.7261,16.1969 85.6254,8.23162 85.6254,8.23162 C85.6254,8.23162 79.4588,2.70729 79.4588,2.70729 C79.4588,2.70729 72.9066,3.34966 72.9066,3.34966 C72.9066,3.34966 66.9969,11.058 66.9969,11.058 C66.9969,11.058 64.8129,13.7559 64.8129,13.7559 C64.8129,13.7559 49.91,11.058 49.91,11.058 C49.91,11.058 41.9447,11.315 41.9447,11.315 C41.9447,11.315 29.0975,16.0685 29.0975,16.0685 C29.0975,16.0685 27.1704,10.8011 27.1704,10.8011 C27.1704,10.8011 18.5627,4.89133 18.5627,4.89133 C18.5627,4.89133 9.31267,6.81842 9.31267,6.81842 C9.31267,6.81842 4.68765,14.3983 4.68765,14.3983 C4.68765,14.3983 9.1842,23.9053 9.1842,23.9053 C9.1842,23.9053 17.1495,30.072 17.1495,30.072 Z" style="stroke:none;fill-rule:evenodd;fill:#fdf5f3;fill-opacity:1;"/>
        </g>
        <g id="Shape2">
            <desc shapeID="2" type="0" basicInfo-basicType="0" basicInfo-roundedRectRadius="12" basicInfo-polygonSides="6" basicInfo-starPoints="5" bounding="rect(-7.78525,-8.9144,15.5705,17.8288)" text="" font-familyName="Helvetica" font-pixelSize="20" font-bold="0" font-underline="0" font-alignment="1" strokeStyle="0" markerStart="0" markerEnd="0" shadowEnabled="0" shadowOffsetX="0" shadowOffsetY="2" shadowBlur="4" shadowOpacity="160" blurEnabled="0" blurRadius="4" transform="matrix(1.08089,0,0,1.08089,16.5714,19.5372)" pers-center="0,0" pers-size="0,0" pers-start="0,0" pers-end="0,0" locked="0" mesh="" flag=""/>
            <path id="shapePath2" d="M21.1322,29.1727 C21.1322,29.1727 9.44115,24.6761 9.44115,24.6761 C9.44115,24.6761 8.15642,15.1692 8.15642,15.1692 C8.15642,15.1692 14.1946,9.90178 14.1946,9.90178 C14.1946,9.90178 19.8474,11.315 19.8474,11.315 C19.8474,11.315 24.9863,17.7386 24.9863,17.7386 C24.9863,17.7386 22.5085,20.1947 21.5176,23.1345 C20.5831,25.9069 21.1322,29.1727 21.1322,29.1727 Z" style="stroke:none;fill-rule:evenodd;fill:#fdccc3;fill-opacity:1;"/>
        </g>
        <g id="Shape3">
            <desc shapeID="3" type="0" basicInfo-basicType="0" basicInfo-roundedRectRadius="12" basicInfo-polygonSides="6" basicInfo-starPoints="5" bounding="rect(-8.02296,-8.20125,16.0459,16.4025)" text="" font-familyName="Helvetica" font-pixelSize="20" font-bold="0" font-underline="0" font-alignment="1" strokeStyle="0" markerStart="0" markerEnd="0" shadowEnabled="0" shadowOffsetX="0" shadowOffsetY="2" shadowBlur="4" shadowOpacity="160" blurEnabled="0" blurRadius="4" transform="matrix(1.08089,0,0,1.08089,73.0994,15.1692)" pers-center="0,0" pers-size="0,0" pers-start="0,0" pers-end="0,0" locked="0" mesh="" flag=""/>
            <path id="shapePath3" d="M64.4275,14.2698 C64.4275,14.2698 71.7504,6.30454 71.7504,6.30454 C71.7504,6.30454 77.7887,7.07537 77.7887,7.07537 C77.7887,7.07537 81.7713,13.2421 81.7713,13.2421 C81.7713,13.2421 77.4032,23.1345 77.4032,23.1345 C77.4032,23.1345 69.8233,24.0338 69.8233,24.0338 C69.8233,24.0338 69.8534,21.2496 68.4102,18.6379 C67.1712,16.396 64.4275,14.2698 64.4275,14.2698 Z" style="stroke:none;fill-rule:evenodd;fill:#fdccc3;fill-opacity:1;"/>
        </g>
        <g id="Shape4">
            <desc shapeID="4" type="0" basicInfo-basicType="0" basicInfo-roundedRectRadius="12" basicInfo-polygonSides="6" basicInfo-starPoints="5" bounding="rect(0,0,0,0)" text="" font-familyName="Helvetica" font-pixelSize="20" font-bold="0" font-underline="0" font-alignment="1" strokeStyle="0" markerStart="0" markerEnd="0" shadowEnabled="0" shadowOffsetX="0" shadowOffsetY="2" shadowBlur="4" shadowOpacity="160" blurEnabled="0" blurRadius="4" transform="matrix(1.08089,0,0,1.08089,42.5512,69.1614)" pers-center="0,0" pers-size="0,0" pers-start="0,0" pers-end="0,0" locked="0" mesh="" flag=""/>
            <path id="shapePath4" d="M42.5512,69.1614 Z" style="stroke:none;fill-rule:evenodd;fill:#fdccc3;fill-opacity:1;"/>
        </g>
        <g id="Shape5">
            <desc shapeID="5" type="0" basicInfo-basicType="0" basicInfo-roundedRectRadius="12" basicInfo-polygonSides="6" basicInfo-starPoints="5" bounding="rect(-7.23332,-6.66965,14.4666,13.3393)" text="" font-familyName="Helvetica" font-pixelSize="20" font-bold="0" font-underline="0" font-alignment="1" strokeStyle="0" markerStart="0" markerEnd="0" shadowEnabled="0" shadowOffsetX="0" shadowOffsetY="2" shadowBlur="4" shadowOpacity="160" blurEnabled="0" blurRadius="4" transform="matrix(1.08089,0,0,1.08089,50.9775,65.774)" pers-center="0,0" pers-size="0,0" pers-start="0,0" pers-end="0,0" locked="0" mesh="" flag=""/>
            <path id="shapePath5" d="M56.6898,72.9831 C56.6898,72.9831 45.9386,71.9408 45.9386,71.9408 C45.9386,71.9408 43.1592,67.6848 43.1592,67.6848 C43.1592,67.6848 47.6757,61.1706 47.6757,61.1706 C47.6757,61.1706 50.542,58.5649 50.542,58.5649 C50.542,58.5649 54.9717,59.6071 54.9717,59.6071 C54.9717,59.6071 58.7066,65.0791 58.7934,65.0791 C58.8803,65.0791 56.6898,72.9831 56.6898,72.9831 Z" style="stroke:none;fill-rule:evenodd;fill:#fdccc3;fill-opacity:1;"/>
        </g>
        <g id="Shape6">
            <desc shapeID="6" type="0" basicInfo-basicType="0" basicInfo-roundedRectRadius="12" basicInfo-polygonSides="6" basicInfo-starPoints="5" bounding="rect(-7.31953,-7.07684,14.6391,14.1537)" text="" font-familyName="Helvetica" font-pixelSize="20" font-bold="0" font-underline="0" font-alignment="1" strokeStyle="0" markerStart="0" markerEnd="0" shadowEnabled="0" shadowOffsetX="0" shadowOffsetY="2" shadowBlur="4" shadowOpacity="160" blurEnabled="0" blurRadius="4" transform="matrix(0.685074,0,0,0.685074,51.4732,67.0307)" pers-center="0,0" pers-size="0,0" pers-start="0,0" pers-end="0,0" locked="0" mesh="" flag=""/>
            <path id="shapePath6" d="M55.055,71.3875 C53.0418,72.4621 50.3658,71.5589 48.2408,70.7268 C47.2408,70.3353 46.3082,69.0896 46.4792,68.0294 C46.7459,66.376 48.2881,65.2022 49.3418,63.9006 C49.8568,63.2645 50.3583,62.4205 51.1585,62.249 C52.0986,62.0476 53.2115,62.3139 53.9661,62.9097 C55.0728,63.7834 56.2087,64.9792 56.3883,66.3778 C56.6085,68.0918 56.5795,70.5737 55.055,71.3875 Z" style="stroke:none;fill-rule:evenodd;fill:#fba9a8;fill-opacity:1;"/>
        </g>
        <g id="Shape7">
            <desc shapeID="7" type="0" basicInfo-basicType="0" basicInfo-roundedRectRadius="12" basicInfo-polygonSides="6" basicInfo-starPoints="5" bounding="rect(-42.7364,-35.9794,85.4727,71.9588)" text="" font-familyName="" font-pixelSize="20" font-bold="0" font-underline="0" font-alignment="1" strokeStyle="0" markerStart="0" markerEnd="0" shadowEnabled="0" shadowOffsetX="0" shadowOffsetY="2" shadowBlur="4" shadowOpacity="160" blurEnabled="0" blurRadius="4" transform="matrix(1.08089,0,0,1.08089,50.1369,40.2981)" pers-center="0,0" pers-size="0,0" pers-start="0,0" pers-end="0,0" locked="0" mesh="" flag=""/>
            <path id="shapePath7" d="M72.2262,2.84608 C69.9564,3.81887 68.0108,5.76447 66.8218,8.57477 L64.9843,12.6821 L60.1203,11.1689 C53.7431,9.2233 40.0158,10.1961 33.6386,13.0064 L28.7746,15.1682 L28.7746,12.574 C28.7746,9.76375 23.5864,4.79167 19.479,3.81887 C10.5077,1.54902 0.6716,10.7365 4.99514,17.438 C5.75176,18.627 6.07603,18.1947 6.07603,15.4924 C6.07603,7.92624 14.9393,4.14314 22.2893,8.46668 C25.4239,10.3042 28.2342,14.7358 27.8018,17.1138 C27.6937,17.9785 28.6665,18.5189 30.0717,18.5189 C31.9092,18.5189 32.1254,18.1947 31.0445,17.5461 C28.9908,16.2491 38.8269,13.1145 43.1504,13.763 C45.9607,14.0873 46.1769,13.9792 44.4475,13.2226 C40.6644,11.3851 49.6357,11.8174 57.6343,13.8711 C64.2277,15.4924 64.8762,15.4924 66.0652,13.8711 C66.8218,12.8983 67.6865,12.3579 68.0108,12.7902 C68.4431,13.1145 68.7674,12.8983 68.7674,12.2498 C68.7674,11.6013 70.2806,10.3042 72.0101,9.33139 C76.2255,7.16962 79.5762,8.68286 79.5762,12.8983 C79.5762,17.1138 76.874,20.5726 71.5777,22.9506 L67.1461,25.0042 L71.1453,24.68 C74.0637,24.4638 74.8204,24.68 74.1718,25.5447 C73.5233,26.3013 73.4152,27.166 73.8476,27.4903 C74.1718,27.9226 75.0365,27.3822 75.7932,26.4094 C76.9821,24.8961 77.3064,25.1123 78.2792,28.355 C80.2248,34.2999 82.0623,45.3249 81.4138,46.9462 C81.0895,47.7028 77.9549,49.2161 74.4961,50.1889 C70.9292,51.1617 66.8218,52.9992 65.4167,54.1881 C63.5791,55.9176 63.363,56.3499 64.7681,55.9176 C65.7409,55.5933 66.6056,55.7014 66.6056,56.2418 C66.6056,56.6742 69.0917,56.8904 72.1181,56.5661 C76.1174,56.2418 77.5226,56.3499 76.9821,57.3227 C76.5498,57.9712 75.2527,58.5117 74.1718,58.5117 C73.0909,58.5117 71.7939,58.944 71.4696,59.5926 C71.1453,60.133 71.5777,60.6735 72.4424,60.6735 C75.2527,60.6735 74.4961,62.0786 68.4431,68.0235 C61.7416,74.6169 58.3909,75.8059 46.6092,75.8059 C35.4761,75.8059 30.7202,74.4007 25.3158,69.5367 C21.3165,65.9698 21.2084,65.5374 22.9378,64.2404 C24.6673,62.9433 24.5592,62.8352 21.965,62.8352 C17.5334,62.8352 18.5062,61.1058 23.6945,59.9168 L28.2342,58.7279 L22.8298,58.5117 L17.4253,58.2955 L21.7489,57.2146 C24.1268,56.6742 27.9099,56.458 30.1798,56.7823 C32.4496,57.2146 34.1791,56.9984 34.1791,56.458 C34.1791,54.9448 27.6937,53.8639 21.857,54.2962 C17.3172,54.7286 16.993,54.5124 16.4525,51.594 C15.0474,44.6764 16.1283,33.0028 17.9658,34.1918 C18.5062,34.516 19.2628,34.1918 19.6952,33.5432 C20.0195,32.8947 19.6952,31.9219 18.9386,31.3815 C17.8577,30.7329 18.29,30.4087 20.4518,30.4087 C24.2349,30.4087 23.3702,28.6792 19.1547,27.7064 C17.4253,27.3822 14.615,25.7609 12.6694,24.2476 C8.45398,20.7888 8.02162,15.2763 11.6966,12.6821 C15.4797,9.97992 17.5334,10.6285 21.6408,15.4924 C24.1268,18.4108 25.532,19.3836 25.532,18.1947 C25.532,17.2219 24.0187,14.7358 22.1812,12.574 C18.1819,8.14242 14.2908,7.60197 9.85913,11.1689 C7.15691,13.3307 6.94073,13.8711 7.37309,19.4917 C7.80545,23.7072 8.45398,25.7609 9.96722,26.7337 C15.9121,30.7329 15.804,30.4087 14.0746,36.894 C13.1018,40.2447 12.5613,45.5411 12.8856,49.108 C13.2099,55.269 13.2099,55.3771 9.75104,56.8904 C5.4275,58.6198 3.58999,61.2139 7.69736,59.5926 C13.9665,57.2146 17.5334,59.2683 11.4805,61.7543 C9.75104,62.511 7.69736,63.808 7.04882,64.5646 C6.18412,65.6455 7.26501,65.5374 10.8319,64.0242 C16.8849,61.4301 17.8577,63.3757 12.0209,66.5102 C9.96722,67.5911 7.48118,69.5367 6.40029,70.7257 C4.88705,72.347 5.85985,72.1308 10.94,69.5367 L17.3172,66.186 L21.2084,70.4014 C27.6937,77.3191 33.7467,79.4809 47.0416,79.1566 C60.5527,78.8323 63.363,77.6434 73.0909,68.2397 L79.7924,61.5382 L84.2241,62.7271 C89.9528,64.1323 90.7094,63.4838 85.3049,61.7543 C79.7924,59.9168 79.5762,59.8087 80.3329,57.9712 C80.6571,56.8904 82.4946,56.3499 86.2777,56.3499 C92.2226,56.3499 92.4388,54.8367 86.602,53.7558 C82.7108,52.9992 81.6299,51.3778 84.3322,50.297 C85.1969,49.9727 88.2233,49.3242 91.0336,48.7837 L96.33,47.919 L90.3851,47.8109 L84.4402,47.7028 L84.3322,41.866 C84.3322,38.0829 83.4674,34.4079 81.6299,30.7329 L79.0358,25.4366 L82.4946,22.1939 C89.0881,15.9248 88.0072,5.00785 80.3329,2.41373 C76.3336,1.00857 76.5498,1.00857 72.2262,2.84608 M81.9542,6.30491 C84.3322,8.46668 84.5483,15.1682 82.1704,18.0866 C80.549,20.0322 80.549,20.0322 81.6299,17.7623 C84.4402,12.1417 81.5219,6.08873 75.7932,5.22403 C72.6586,4.79167 72.6586,4.79167 76.2255,4.5755 C78.3873,4.5755 80.7652,5.22403 81.9542,6.30491 M80.1167,51.9183 C79.4682,52.4587 77.0902,53.1073 74.7123,53.4315 L70.3887,54.0801 L74.7123,52.5668 C80.0086,50.8374 81.4138,50.6212 80.1167,51.9183 Z" style="stroke:none;fill-rule:nonzero;fill:#000000;fill-opacity:1;"/>
        </g>
        <g id="Shape8">
            <desc shapeID="8" type="0" basicInfo-basicType="0" basicInfo-roundedRectRadius="12" basicInfo-polygonSides="6" basicInfo-starPoints="5" bounding="rect(-1.81097,-1.51918,3.62195,3.03837)" text="" font-familyName="" font-pixelSize="20" font-bold="0" font-underline="0" font-alignment="1" strokeStyle="0" markerStart="0" markerEnd="0" shadowEnabled="0" shadowOffsetX="0" shadowOffsetY="2" shadowBlur="4" shadowOpacity="160" blurEnabled="0" blurRadius="4" transform="matrix(1.08089,0,0,1.08089,56.0011,29.8475)" pers-center="0,0" pers-size="0,0" pers-start="0,0" pers-end="0,0" locked="0" mesh="" flag=""/>
            <path id="shapePath8" d="M54.3916,28.8954 C53.4188,29.9763 54.6078,31.4896 56.4453,31.4896 C57.31,31.4896 57.9585,30.7329 57.9585,29.8682 C57.9585,28.2469 55.6887,27.5984 54.3916,28.8954 Z" style="stroke:none;fill-rule:nonzero;fill:#000000;fill-opacity:1;"/>
        </g>
        <g id="Shape9">
            <desc shapeID="9" type="0" basicInfo-basicType="0" basicInfo-roundedRectRadius="12" basicInfo-polygonSides="6" basicInfo-starPoints="5" bounding="rect(-1.88256,-2.0153,3.76512,4.03061)" text="" font-familyName="" font-pixelSize="20" font-bold="0" font-underline="0" font-alignment="1" strokeStyle="0" markerStart="0" markerEnd="0" shadowEnabled="0" shadowOffsetX="0" shadowOffsetY="2" shadowBlur="4" shadowOpacity="160" blurEnabled="0" blurRadius="4" transform="matrix(1.08089,0,0,1.08089,35.3869,32.5539)" pers-center="0,0" pers-size="0,0" pers-start="0,0" pers-end="0,0" locked="0" mesh="" flag=""/>
            <path id="shapePath9" d="M33.6386,31.4896 C32.7739,33.0028 33.9629,34.7322 35.9085,34.7322 C36.7732,34.7322 37.4217,33.7594 37.4217,32.5704 C37.4217,30.3006 34.8276,29.544 33.6386,31.4896 Z" style="stroke:none;fill-rule:nonzero;fill:#000000;fill-opacity:1;"/>
        </g>
        <g id="Shape10">
            <desc shapeID="10" type="0" basicInfo-basicType="0" basicInfo-roundedRectRadius="12" basicInfo-polygonSides="6" basicInfo-starPoints="5" bounding="rect(-10.5787,-7.97893,21.1574,15.9579)" text="" font-familyName="" font-pixelSize="20" font-bold="0" font-underline="0" font-alignment="1" strokeStyle="0" markerStart="0" markerEnd="0" shadowEnabled="0" shadowOffsetX="0" shadowOffsetY="2" shadowBlur="4" shadowOpacity="160" blurEnabled="0" blurRadius="4" transform="matrix(1.08089,0,0,1.08089,50.7963,66.1353)" pers-center="0,0" pers-size="0,0" pers-start="0,0" pers-end="0,0" locked="0" mesh="" flag=""/>
            <path id="shapePath10" d="M48.0144,59.2683 C47.0416,60.3492 45.7445,62.2948 45.096,63.6999 C44.1232,65.4294 43.1504,65.9698 41.6372,65.5374 C36.1246,63.808 41.6372,71.3742 47.4739,73.536 C53.2026,75.6978 56.5534,75.0492 59.4718,71.1581 C62.2821,67.483 63.0387,64.997 61.3093,64.997 C60.7688,64.997 60.1203,63.9161 59.796,62.6191 C59.3637,61.322 58.8232,60.5654 58.499,60.8896 C58.0666,61.322 56.8777,60.6735 55.6887,59.4845 C53.0946,56.8904 50.1762,56.8904 48.0144,59.2683 M55.1482,62.2948 C56.121,63.6999 56.8777,66.0779 56.8777,67.5911 C56.8777,70.4014 54.1754,72.2389 53.2026,70.0772 C52.6622,69.1044 52.446,69.1044 51.9056,70.0772 C51.0409,71.9147 48.771,71.8066 47.1497,69.861 C46.1769,68.672 46.1769,67.483 47.1497,64.5646 C48.9872,59.0521 52.3379,58.0793 55.1482,62.2948 Z" style="stroke:none;fill-rule:nonzero;fill:#000000;fill-opacity:1;"/>
        </g>
        <g id="Shape11">
            <desc shapeID="11" type="0" basicInfo-basicType="0" basicInfo-roundedRectRadius="12" basicInfo-polygonSides="6" basicInfo-starPoints="5" bounding="rect(-3.9266,-6.25555,7.8532,12.5111)" text="" font-familyName="" font-pixelSize="20" font-bold="0" font-underline="0" font-alignment="1" strokeStyle="0" markerStart="0" markerEnd="0" shadowEnabled="0" shadowOffsetX="0" shadowOffsetY="2" shadowBlur="4" shadowOpacity="160" blurEnabled="0" blurRadius="4" transform="matrix(1.08089,0,0,1.08089,50.1656,89.0385)" pers-center="0,0" pers-size="0,0" pers-start="0,0" pers-end="0,0" locked="0" mesh="" flag=""/>
            <path id="shapePath11" d="M46.9752,84.2537 C45.5701,86.9559 45.5701,94.8464 46.9752,95.7111 C47.6238,96.1434 48.0561,94.9545 48.0561,93.117 C48.0561,90.5228 48.4885,89.7662 50.2179,89.7662 C51.6231,89.7662 52.3797,90.5228 52.3797,91.928 C52.3797,93.117 52.9201,94.0898 53.5686,94.0898 C55.2981,94.0898 54.1091,84.3618 52.2716,83.1728 C49.8936,81.6596 48.1642,82.0919 46.9752,84.2537 M51.2988,86.6317 C51.2988,87.1721 50.5422,87.6044 49.6775,87.6044 C48.7047,87.6044 48.3804,86.9559 48.7047,85.9831 C49.3532,84.3618 51.2988,84.7942 51.2988,86.6317 Z" style="stroke:none;fill-rule:nonzero;fill:#000000;fill-opacity:1;"/>
        </g>
        <g id="Shape12">
            <desc shapeID="12" type="0" basicInfo-basicType="0" basicInfo-roundedRectRadius="12" basicInfo-polygonSides="6" basicInfo-starPoints="5" bounding="rect(-5.34867,-7,10.6973,14)" text="" font-familyName="" font-pixelSize="20" font-bold="0" font-underline="0" font-alignment="1" strokeStyle="0" markerStart="0" markerEnd="0" shadowEnabled="0" shadowOffsetX="0" shadowOffsetY="2" shadowBlur="4" shadowOpacity="160" blurEnabled="0" blurRadius="4" transform="matrix(1.08089,0,0,1.08089,37.4217,89.0385)" pers-center="0,0" pers-size="0,0" pers-start="0,0" pers-end="0,0" locked="0" mesh="" flag=""/>
            <path id="shapePath12" d="M36.6888,83.8502 C35.6079,85.7958 35.8241,86.4444 37.7696,88.0657 C42.3094,91.7407 39.7152,94.9834 34.4189,92.173 C31.5005,90.5517 30.6358,91.8488 33.0138,94.4429 C34.0946,95.6319 36.2564,96.6047 37.8777,96.6047 C43.2822,96.6047 45.0116,91.8488 41.0123,87.8495 C38.8505,85.6877 38.8505,85.4716 40.688,83.526 C42.4175,81.5804 42.4175,81.4723 40.2557,81.4723 C38.9586,81.4723 37.3373,82.5532 36.6888,83.8502 Z" style="stroke:none;fill-rule:nonzero;fill:#000000;fill-opacity:1;"/>
        </g>
        <g id="Shape13">
            <desc shapeID="13" type="0" basicInfo-basicType="0" basicInfo-roundedRectRadius="12" basicInfo-polygonSides="6" basicInfo-starPoints="5" bounding="rect(-5.79371,-6.01428,11.5874,12.0286)" text="" font-familyName="" font-pixelSize="20" font-bold="0" font-underline="0" font-alignment="1" strokeStyle="0" markerStart="0" markerEnd="0" shadowEnabled="0" shadowOffsetX="0" shadowOffsetY="2" shadowBlur="4" shadowOpacity="160" blurEnabled="0" blurRadius="4" transform="matrix(1.08089,0,0,1.08089,61.9206,89.8256)" pers-center="0,0" pers-size="0,0" pers-start="0,0" pers-end="0,0" locked="0" mesh="" flag=""/>
            <path id="shapePath13" d="M56.2709,85.0103 C55.2981,87.7125 55.5142,92.7927 56.7032,93.5493 C57.3517,93.8736 58.2165,93.117 58.7569,91.7118 L59.6216,89.2258 L60.3782,91.7118 C60.9187,93.2251 61.7834,93.9817 62.7562,93.6574 C63.5128,93.3331 64.7018,93.9817 65.2422,94.9545 C67.1878,98.4133 68.8091,94.9545 67.9444,88.7934 C67.1878,83.2809 65.9988,82.0919 63.2966,84.578 C62.1076,85.6589 61.7834,85.6589 61.351,84.578 C60.5944,82.7405 57.0275,82.9566 56.2709,85.0103 Z" style="stroke:none;fill-rule:nonzero;fill:#000000;fill-opacity:1;"/>
        </g>
    </g>
</svg>
