<svg width="512" height="512" xmlns="http://www.w3.org/2000/svg">
 <!--! Font Awesome Pro 6.2.0 by @fontawesome - https://fontawesome.com License - https://fontawesome.com/license (Commercial License) Copyright 2022 Fonticons, Inc. -->

 <g>
  <title>Layer 1</title>
  <path stroke="#2ca363" stroke-width="25" fill-opacity="0" fill="#000000" id="svg_1" d="m471,94c0,95.85001 -71.38101,175.078 -163.85599,187.31299c-6.991,-50.05699 -22.819,-83.72598 -55.09702,-130.53499c32.315,-57.7124 94.078,-83.778 164.953,-83.778l27,0c14.93399,0 27,12.0656 27,27zm-432,54c0,-14.93401 12.0656,-27 27,-27l27,0c104.37199,0 146,68.62801 181,189l3,49l5,59c0,14.93399 -12.06601,27 -27,27s-27,-12.06601 -27,-27l0,-81c-104.372,0 -189,-84.62801 -189,-189z"/>
 </g>
</svg>