<?xml version="1.0"?>
<svg version="1.1" xmlns="http://www.w3.org/2000/svg" xmlns:xlink="http://www.w3.org/1999/xlink" width="100" height="100">
    <desc iVinci="yes" version="4.6" gridStep="20" showGrid="no" snapToGrid="no" codePlatform="0"/>
    <g id="Layer1" name="Layer 1" opacity="1">
        <g id="Shape1">
            <desc shapeID="1" type="0" basicInfo-basicType="0" basicInfo-roundedRectRadius="12" basicInfo-polygonSides="6" basicInfo-starPoints="5" bounding="rect(-67.4443,-57.7802,134.888,115.56)" text="" font-familyName="" font-pixelSize="20" font-bold="0" font-underline="0" font-alignment="1" strokeStyle="0" markerStart="0" markerEnd="0" shadowEnabled="0" shadowOffsetX="0" shadowOffsetY="2" shadowBlur="4" shadowOpacity="160" blurEnabled="0" blurRadius="4" transform="matrix(0.597941,0,0,0.597941,58.2176,37.1251)" pers-center="0,0" pers-size="0,0" pers-start="0,0" pers-end="0,0" locked="0" mesh="" flag=""/>
            <path id="shapePath1" d="M53.2686,2.91102 C47.8273,3.56876 44.0006,4.94402 39.815,7.63475 C35.3901,10.5049 26.5407,19.2348 24.4479,22.7627 C22.5344,26.1111 20.2025,32.5091 18.6478,39.1463 C17.3323,44.8267 17.6911,47.8762 20.023,49.9092 C21.2788,51.0453 21.2788,51.0453 20.8603,49.8494 C19.6644,46.8597 19.9035,44.169 21.9364,36.2164 C24.3282,27.0081 25.5241,23.839 26.5407,23.839 C26.8994,23.839 27.0788,23.4204 26.8994,22.9421 C26.6603,22.4039 28.1551,20.5503 31.1448,17.7998 C40.0541,9.54817 45.4954,6.73784 53.9263,5.96053 C61.3409,5.30279 63.9717,5.60176 68.2172,7.81414 C71.0275,9.2492 72.7017,10.6245 74.675,13.1358 C76.11,15.0492 78.0234,17.142 78.9801,17.8596 C80.8935,19.4142 82.0295,21.2678 82.0894,23.0617 C82.0894,23.7792 83.5244,26.4699 85.2585,29.0411 C89.8626,35.6782 90.7595,37.5916 89.7431,38.2494 C89.3245,38.5483 88.5472,38.7875 88.0688,38.7875 C87.5904,38.7875 85.5575,39.5648 83.5842,40.5215 C77.6647,43.3319 73.7182,48.4742 73.7182,53.2577 C73.7182,55.8886 74.3162,57.9216 75.0337,57.9216 C75.3925,57.9216 75.512,57.3237 75.3326,56.6061 C75.1532,55.8886 75.2729,54.035 75.5719,52.4804 C76.7079,47.2783 83.1059,41.7772 89.1451,40.8205 C91.5966,40.4617 91.6564,40.4617 92.3739,42.4349 L93.0915,44.4679 L93.4503,42.6741 L93.8091,40.8803 L94.8853,42.5545 C96.141,44.4679 96.739,48.5339 96.2009,51.5834 C95.6626,54.2742 90.9389,59.5361 87.7698,60.9711 C86.4544,61.5691 84.0028,62.1072 82.3285,62.1072 C79.0997,62.1072 77.9038,61.3299 76.8275,58.5196 L76.2295,57.0247 L75.6316,58.5196 C74.8542,60.5526 75.8709,63.2433 77.6647,64.0206 C78.6812,64.499 79.0997,65.1567 79.0997,66.3526 C79.0997,68.3258 81.7306,71.6743 83.3451,71.6743 C84.84,71.6743 84.7801,71.1959 82.9265,67.8475 L81.3719,65.0969 L83.1657,65.0969 C84.4812,65.0969 85.0791,65.4557 85.3781,66.2928 C85.9162,68.0268 88.5472,69.6413 89.3842,68.8042 C89.8028,68.3856 89.6235,67.6083 88.6667,66.2928 C87.9492,65.2763 87.411,64.3794 87.5307,64.2598 C87.6503,64.2 88.9657,63.4227 90.4606,62.5856 C93.6894,60.732 97.277,56.1876 98.174,52.8391 C99.4297,48.1752 97.3369,40.9999 94.3472,39.3854 C93.3904,38.9071 92.7925,37.7112 92.3142,35.3792 C91.8359,33.406 90.5204,30.6555 89.0256,28.3833 C87.5904,26.3503 85.976,23.241 85.3781,21.507 C84.0028,17.2616 73.7781,6.67805 68.8748,4.46567 C65.1079,2.73164 59.3676,2.1337 53.2686,2.91102 Z" style="stroke:none;fill-rule:nonzero;fill:#000000;fill-opacity:1;"/>
        </g>
        <g id="Shape2">
            <desc shapeID="2" type="0" basicInfo-basicType="0" basicInfo-roundedRectRadius="12" basicInfo-polygonSides="6" basicInfo-starPoints="5" bounding="rect(-6.40796,-2.46004,12.816,4.92006)" text="" font-familyName="" font-pixelSize="20" font-bold="0" font-underline="0" font-alignment="1" strokeStyle="0" markerStart="0" markerEnd="0" shadowEnabled="0" shadowOffsetX="0" shadowOffsetY="2" shadowBlur="4" shadowOpacity="160" blurEnabled="0" blurRadius="4" transform="matrix(0.597941,0,0,0.597941,64.3951,29.8244)" pers-center="0,0" pers-size="0,0" pers-start="0,0" pers-end="0,0" locked="0" mesh="" flag=""/>
            <path id="shapePath2" d="M66.2439,28.4431 C63.7923,28.8617 60.5635,29.9978 60.5635,30.4761 C60.5635,31.4926 61.7594,31.5524 64.6295,30.7153 C67.5594,29.8184 68.8748,28.9813 67.9182,28.4431 C67.6192,28.3235 66.9017,28.3235 66.2439,28.4431 Z" style="stroke:none;fill-rule:nonzero;fill:#000000;fill-opacity:1;"/>
        </g>
        <g id="Shape3">
            <desc shapeID="3" type="0" basicInfo-basicType="0" basicInfo-roundedRectRadius="12" basicInfo-polygonSides="6" basicInfo-starPoints="5" bounding="rect(-10,-2.43065,20,4.86132)" text="" font-familyName="" font-pixelSize="20" font-bold="0" font-underline="0" font-alignment="1" strokeStyle="0" markerStart="0" markerEnd="0" shadowEnabled="0" shadowOffsetX="0" shadowOffsetY="2" shadowBlur="4" shadowOpacity="160" blurEnabled="0" blurRadius="4" transform="matrix(0.597941,0,0,0.597941,42.6253,30.7345)" pers-center="0,0" pers-size="0,0" pers-start="0,0" pers-end="0,0" locked="0" mesh="" flag=""/>
            <path id="shapePath3" d="M40.8314,30.1772 C39.9944,30.5957 38.7386,31.0143 38.0211,31.0143 C37.2438,31.0143 36.6458,31.2534 36.6458,31.6122 C36.6458,32.3895 38.7386,32.3895 42.7448,31.5524 C44.4789,31.1936 46.5119,30.7751 47.2892,30.6555 C48.0067,30.5359 48.6047,30.1174 48.6047,29.8184 C48.6047,28.9215 42.5654,29.2204 40.8314,30.1772 Z" style="stroke:none;fill-rule:nonzero;fill:#000000;fill-opacity:1;"/>
        </g>
        <g id="Shape4">
            <desc shapeID="4" type="0" basicInfo-basicType="0" basicInfo-roundedRectRadius="12" basicInfo-polygonSides="6" basicInfo-starPoints="5" bounding="rect(-14.8305,-11.7655,29.6611,23.531)" text="" font-familyName="" font-pixelSize="20" font-bold="0" font-underline="0" font-alignment="1" strokeStyle="0" markerStart="0" markerEnd="0" shadowEnabled="0" shadowOffsetX="0" shadowOffsetY="2" shadowBlur="4" shadowOpacity="160" blurEnabled="0" blurRadius="4" transform="matrix(0.597941,0,0,0.597941,53.9524,47.2989)" pers-center="0,0" pers-size="0,0" pers-start="0,0" pers-end="0,0" locked="0" mesh="" flag=""/>
            <path id="shapePath4" d="M59.0686,40.5813 C58.1119,40.8205 55.4211,41.0597 53.0892,41.1195 C50.0397,41.1793 48.3656,41.538 46.8707,42.4349 C44.9572,43.6308 44.8975,43.7504 45.2561,46.4411 C45.9139,51.4639 49.382,54.334 54.7036,54.334 C57.1553,54.334 57.8129,54.035 59.6666,52.1216 C62.2975,49.3711 63.3141,46.2618 62.5964,42.9133 C61.9985,40.103 61.6995,39.9236 59.0686,40.5813 M61.4006,43.87 C61.8789,46.1422 60.9223,48.6535 58.5306,51.5834 C57.215,53.3175 57.0357,53.3773 54.7635,52.6597 C51.4748,51.703 49.4417,49.9092 48.6047,47.3979 C47.6479,44.6473 48.1263,44.2288 52.9098,43.571 C55.0625,43.2721 57.4542,42.7339 58.2316,42.4349 C60.5635,41.4782 60.982,41.6576 61.4006,43.87 Z" style="stroke:none;fill-rule:nonzero;fill:#000000;fill-opacity:1;"/>
        </g>
        <g id="Shape5">
            <desc shapeID="5" type="0" basicInfo-basicType="0" basicInfo-roundedRectRadius="12" basicInfo-polygonSides="6" basicInfo-starPoints="5" bounding="rect(-55.427,-23.8647,110.854,47.7295)" text="" font-familyName="" font-pixelSize="20" font-bold="0" font-underline="0" font-alignment="1" strokeStyle="0" markerStart="0" markerEnd="0" shadowEnabled="0" shadowOffsetX="0" shadowOffsetY="2" shadowBlur="4" shadowOpacity="160" blurEnabled="0" blurRadius="4" transform="matrix(0.597941,0,0,0.597941,34.5968,68.1146)" pers-center="0,0" pers-size="0,0" pers-start="0,0" pers-end="0,0" locked="0" mesh="" flag=""/>
            <path id="shapePath5" d="M19.9035,54.6329 C19.0664,55.0515 17.8705,55.3505 17.1529,55.1711 C15.5983,54.7525 14.2829,56.6659 13.2066,60.6124 C12.6086,62.8247 12.0107,63.6021 9.9179,64.7979 C5.97143,67.1299 1.00848,73.9464 1.48687,76.3382 C1.66628,77.0557 2.20437,76.4578 3.10128,74.664 C3.87863,73.2289 6.15084,70.299 8.18378,68.2062 L11.7714,64.4392 L13.0272,67.3093 L14.2829,70.1794 L12.8478,71.3155 C11.1735,72.631 9.73849,75.6805 9.73849,78.0125 C9.73849,80.464 10.9344,79.4475 12.4891,75.5609 C14.2829,71.1361 14.821,70.5382 16.0767,71.7341 C16.9138,72.5712 16.8539,72.9897 15.4788,75.5609 C13.8045,78.6702 13.5055,80.5836 14.6416,81.7197 C15.7179,82.796 16.3158,82.5568 16.3158,81.062 C16.3158,80.3444 16.6747,78.5506 17.1529,77.0557 C17.7508,74.963 18.2292,74.4248 19.0664,74.5444 C23.6705,75.2021 24.687,75.5011 24.687,76.0392 C24.687,76.4578 24.9261,76.4578 25.4045,75.9795 C25.8231,75.5609 26.7798,75.2619 27.6169,75.2619 C28.9922,75.2619 28.9922,75.2021 28.0953,74.1856 C27.5572,73.5877 25.6438,72.631 23.85,72.0928 C21.5778,71.3753 19.9633,70.3588 18.4086,68.6248 C16.0169,65.9938 16.0767,66.233 17.3323,59.1175 C17.7508,56.6659 17.9901,56.367 19.9035,55.9484 C23.3117,55.1113 27.2582,57.2041 29.8891,61.3299 C31.9819,64.6186 32.0417,64.7979 31.6829,69.2227 L31.3242,73.7671 L32.5201,72.332 C33.1181,71.5547 33.6561,70.5382 33.6561,70.0598 C33.6561,69.3423 34.1345,69.2227 35.9283,69.4619 C41.9078,70.3588 47.05,70.5382 52.3119,69.9402 C58.3511,69.2825 67.7388,66.6516 67.7388,65.6949 C67.7388,64.8577 65.4666,64.9773 58.7697,65.9938 C55.6006,66.4722 48.8438,66.8907 43.4623,66.8907 L33.7757,66.8907 L33.417,64.9175 C33.2376,63.901 32.1014,61.5093 30.9056,59.6556 C29.052,56.6659 28.3345,56.1278 25.3448,54.9917 C21.2788,53.4969 21.8169,53.5567 19.9035,54.6329 Z" style="stroke:none;fill-rule:nonzero;fill:#000000;fill-opacity:1;"/>
        </g>
        <g id="Shape6">
            <desc shapeID="6" type="0" basicInfo-basicType="0" basicInfo-roundedRectRadius="12" basicInfo-polygonSides="6" basicInfo-starPoints="5" bounding="rect(-10.9717,-3.87147,21.9435,7.74292)" text="" font-familyName="" font-pixelSize="20" font-bold="0" font-underline="0" font-alignment="1" strokeStyle="0" markerStart="0" markerEnd="0" shadowEnabled="0" shadowOffsetX="0" shadowOffsetY="2" shadowBlur="4" shadowOpacity="160" blurEnabled="0" blurRadius="4" transform="matrix(0.597941,0,0,0.597941,56.361,57.8796)" pers-center="0,0" pers-size="0,0" pers-start="0,0" pers-end="0,0" locked="0" mesh="" flag=""/>
            <path id="shapePath6" d="M59.6666,56.4268 C58.7098,56.9051 56.4975,57.2639 54.7635,57.3237 C51.1759,57.3237 49.8006,57.7423 49.8006,58.8185 C49.8006,61.0309 58.7098,60.433 61.3409,58.0412 C63.9717,55.5299 63.2542,54.8123 59.6666,56.4268 Z" style="stroke:none;fill-rule:nonzero;fill:#000000;fill-opacity:1;"/>
        </g>
        <g id="Shape7">
            <desc shapeID="7" type="0" basicInfo-basicType="0" basicInfo-roundedRectRadius="12" basicInfo-polygonSides="6" basicInfo-starPoints="5" bounding="rect(-3.93526,-3.94885,7.87069,7.89767)" text="" font-familyName="" font-pixelSize="20" font-bold="0" font-underline="0" font-alignment="1" strokeStyle="0" markerStart="0" markerEnd="0" shadowEnabled="0" shadowOffsetX="0" shadowOffsetY="2" shadowBlur="4" shadowOpacity="160" blurEnabled="0" blurRadius="4" transform="matrix(0.597941,0,0,0.597941,92.8729,65.1275)" pers-center="0,0" pers-size="0,0" pers-start="0,0" pers-end="0,0" locked="0" mesh="" flag=""/>
            <path id="shapePath7" d="M90.8791,63.1237 C89.6235,64.3196 91.8956,67.4887 94.0482,67.4887 C95.842,67.4887 95.5431,65.5155 93.4503,64.0206 C91.5369,62.5856 91.4173,62.5258 90.8791,63.1237 Z" style="stroke:none;fill-rule:nonzero;fill:#000000;fill-opacity:1;"/>
        </g>
        <g id="Shape8">
            <desc shapeID="8" type="0" basicInfo-basicType="0" basicInfo-roundedRectRadius="12" basicInfo-polygonSides="6" basicInfo-starPoints="5" bounding="rect(-33.8923,-19.7544,67.7843,39.5087)" text="" font-familyName="" font-pixelSize="20" font-bold="0" font-underline="0" font-alignment="1" strokeStyle="0" markerStart="0" markerEnd="0" shadowEnabled="0" shadowOffsetX="0" shadowOffsetY="2" shadowBlur="4" shadowOpacity="160" blurEnabled="0" blurRadius="4" transform="matrix(0.597941,0,0,0.597941,51.3497,85.6122)" pers-center="0,0" pers-size="0,0" pers-start="0,0" pers-end="0,0" locked="0" mesh="" flag=""/>
            <path id="shapePath8" d="M61.7922,74.8967 C61.6128,75.6142 61.4334,77.1689 61.4334,78.4246 C61.4334,80.2782 61.2539,80.5173 60.2973,80.2782 C59.52,80.0988 58.5632,80.5173 57.5467,81.5338 L55.992,83.0885 L54.2581,81.8926 C51.9859,80.2782 49.8334,80.338 48.3982,82.1916 C46.9632,83.9854 46.7239,84.0452 46.3054,82.4905 C46.0663,81.5338 45.4683,81.2947 43.555,81.2947 C41.0435,81.2947 41.1033,81.2349 40.3858,84.8823 C40.2663,85.5999 39.5486,85.7194 36.9178,85.4803 L33.6889,85.1813 L35.961,82.9091 C38.1136,80.8761 38.1735,80.6967 36.9776,80.6967 C35.3631,80.6967 31.5363,84.2844 31.5363,85.7194 C31.5363,86.3174 32.4332,87.0947 33.5095,87.5731 C35.3631,88.4102 35.3631,88.4102 33.8682,88.47 C32.9713,88.47 31.9548,88.8885 31.5363,89.4267 C30.8785,90.1442 30.9383,90.503 31.7157,91.2803 C32.5528,92.1174 33.0311,92.1772 35.1838,91.5195 C36.5589,91.1009 38.2931,90.1442 39.0704,89.3669 L40.5054,87.9318 L40.5653,91.0411 C40.7445,99.1731 43.8539,99.7113 44.2126,91.639 C44.3322,89.3669 44.7508,87.7524 45.4683,87.0349 C46.0064,86.3772 46.4848,85.4205 46.5447,84.9421 C46.5447,84.3442 46.7838,84.4637 47.0828,85.3009 C47.7406,86.9751 49.6539,87.0947 51.2085,85.5401 C52.5241,84.2246 55.2148,84.4637 56.8292,86.138 C58.2045,87.5731 59.4004,87.5731 62.2704,86.0782 C64.0045,85.1215 64.722,85.0019 65.3798,85.5401 C66.3364,86.3772 69.087,85.7792 70.5819,84.4637 C72.0169,83.0885 71.9572,79.74 70.4025,78.9029 C68.7881,78.0658 67.2334,78.5441 66.5159,80.2184 C65.6189,82.1916 64.4231,82.2514 64.4231,80.2782 C64.4231,78.1854 63.3467,74.2987 62.6891,73.8204 C62.3901,73.7008 62.0313,74.1194 61.7922,74.8967 M68.5488,82.5503 C67.4128,83.2679 67.1138,82.6699 68.0706,81.5338 C68.6087,80.8761 68.9076,80.7565 69.087,81.2947 C69.2664,81.7132 68.9675,82.2514 68.5488,82.5503 M61.9117,83.8658 C62.0313,84.5235 61.7323,84.8823 60.955,84.8823 C59.52,84.8823 59.0416,84.404 59.4601,83.3277 C59.8786,82.1318 61.6725,82.5503 61.9117,83.8658 Z" style="stroke:none;fill-rule:nonzero;fill:#000000;fill-opacity:1;"/>
        </g>
        <g id="Shape9">
            <desc shapeID="9" type="0" basicInfo-basicType="0" basicInfo-roundedRectRadius="12" basicInfo-polygonSides="6" basicInfo-starPoints="5" bounding="rect(-9.50678,-8.94867,19.0134,17.8974)" text="" font-familyName="" font-pixelSize="20" font-bold="0" font-underline="0" font-alignment="1" strokeStyle="0" markerStart="0" markerEnd="0" shadowEnabled="0" shadowOffsetX="0" shadowOffsetY="2" shadowBlur="4" shadowOpacity="160" blurEnabled="0" blurRadius="4" transform="matrix(0.597941,0,0,0.597941,79.6666,80.0681)" pers-center="0,0" pers-size="0,0" pers-start="0,0" pers-end="0,0" locked="0" mesh="" flag=""/>
            <path id="shapePath9" d="M78.4747,75.4348 C74.7675,77.5276 72.6747,83.0287 74.887,84.7029 C76.4417,85.7792 77.9963,85.6596 80.986,84.2246 C83.4973,83.0287 85.351,80.6369 85.351,78.6039 C85.351,77.1689 82.6004,74.7173 81.0459,74.7173 C80.2685,74.7173 79.1325,75.0761 78.4747,75.4348 M79.9695,80.3978 C79.551,80.8761 78.7138,81.2947 78.1159,81.2947 C77.4582,81.2947 76.9798,80.8761 76.9798,80.3978 C76.9798,79.7998 77.5778,79.5008 78.8335,79.5008 C80.4479,79.5008 80.6273,79.6204 79.9695,80.3978 Z" style="stroke:none;fill-rule:nonzero;fill:#000000;fill-opacity:1;"/>
        </g>
    </g>
</svg>
