<?xml version="1.0"?>
<svg version="1.1" xmlns="http://www.w3.org/2000/svg" xmlns:xlink="http://www.w3.org/1999/xlink" width="100" height="100">
    <desc iVinci="yes" version="4.6" gridStep="20" showGrid="no" snapToGrid="no" codePlatform="0"/>
    <g id="Layer1" name="Layer 1" opacity="1">
        <g id="Shape1">
            <desc shapeID="1" type="0" basicInfo-basicType="0" basicInfo-roundedRectRadius="12" basicInfo-polygonSides="6" basicInfo-starPoints="5" bounding="rect(-89.4551,-93.2403,178.91,186.481)" text="" font-familyName="" font-pixelSize="20" font-bold="0" font-underline="0" font-alignment="1" strokeStyle="0" markerStart="0" markerEnd="0" shadowEnabled="0" shadowOffsetX="0" shadowOffsetY="2" shadowBlur="4" shadowOpacity="160" blurEnabled="0" blurRadius="4" transform="matrix(0.468605,0,0,0.468605,46.9164,45.7708)" pers-center="0,0" pers-size="0,0" pers-start="0,0" pers-end="0,0" locked="0" mesh="" flag=""/>
            <path id="shapePath1" d="M76.1783,2.27767 C74.4445,2.46511 71.2112,3.12115 68.9619,3.68348 C66.7125,4.24582 64.4632,4.57383 63.9478,4.48012 C63.2917,4.29267 62.9169,4.48012 62.7763,5.13616 C62.4951,6.16709 62.3077,6.21395 60.7613,5.3236 L59.5898,4.71442 L60.9956,4.19895 C63.9946,3.0743 64.2758,2.93371 63.526,2.65255 C63.1512,2.51197 61.8391,2.69941 60.527,3.0743 C59.2618,3.44918 57.6216,3.77721 56.9187,3.73035 C51.7641,3.63662 50.452,3.44918 50.452,2.88685 C50.452,1.90279 48.9055,2.18394 46.6562,3.63662 C45.4847,4.33953 43.7509,5.22988 42.8137,5.51104 C41.8765,5.83907 40.0489,6.82314 38.7368,7.71349 C37.4716,8.60384 36.3001,9.30675 36.1595,9.30675 C35.2692,9.30675 37.003,8.04151 41.2205,5.55791 C45.2036,3.16802 45.719,2.74627 44.5475,2.74627 C41.7359,2.74627 34.988,7.05745 34.988,8.83814 C34.988,9.30675 34.5194,9.82222 33.9571,10.0097 C33.0199,10.2908 33.1136,10.3845 34.7537,10.7126 C36.1126,10.9937 36.8155,10.9 37.331,10.4783 C37.7059,10.1034 39.5334,9.54105 41.3142,9.21302 L44.5944,8.60384 L42.4857,8.36954 L40.3769,8.08837 L43.6572,7.05745 C45.4847,6.49512 47.3591,6.02651 47.8746,6.02651 C48.3901,6.07337 49.9364,5.93279 51.3423,5.74535 C53.3573,5.51104 53.9196,5.55791 54.2477,6.16709 C54.5757,6.72942 54.9037,6.77628 56.0283,6.35454 C57.1061,5.97965 57.9027,6.07337 60.1521,6.87 C63.1512,7.9478 65.213,8.22896 64.7444,7.43233 C64.6038,7.15116 64.885,6.96372 65.4004,6.96372 C65.869,6.96372 66.6188,6.82314 66.9937,6.68256 C67.5091,6.49512 67.603,6.72942 67.4623,7.5729 C67.2748,8.55698 67.556,8.93187 69.6179,10.0097 C70.93,10.7594 72.0078,11.5092 72.0078,11.7435 C72.0078,11.9309 72.289,12.1184 72.6638,12.1184 C73.0387,12.1184 73.5073,12.3527 73.6948,12.6807 C73.9291,13.0087 73.8353,13.0556 73.4136,12.8213 C72.617,12.3058 73.1324,13.8522 75.1943,18.1165 C76.6938,21.303 76.8812,22.006 77.1155,27.02 C77.3031,30.7689 77.5842,32.4558 77.9123,32.409 C78.2403,32.3621 78.3809,32.6901 78.2403,33.2056 C77.9591,34.3303 78.8026,34.424 79.4586,33.3462 C79.8335,32.6901 80.021,32.6433 80.6301,33.1587 C81.9422,34.2834 82.2702,37.0013 82.364,46.8889 C82.4108,56.3547 82.364,56.6827 81.2393,59.1664 C79.5524,62.7746 77.4905,65.7268 73.9291,69.3819 C70.8832,72.6153 70.1334,73.0839 70.1334,71.9124 C70.1334,70.694 68.587,70.6003 67.6967,71.725 C67.1343,72.4279 66.7125,72.6153 66.5251,72.2873 C66.2908,72.0061 65.7753,71.6781 65.3536,71.4907 C64.1821,71.0689 64.3227,70.2723 65.5879,69.7568 C66.5719,69.3819 66.5719,69.3351 65.3536,69.3351 C63.0574,69.2414 61.6516,71.9593 63.4792,72.9902 C63.9009,73.2714 64.0415,73.5057 63.8072,73.5057 C63.526,73.5057 63.0574,73.2714 62.8231,73.0371 C62.4483,72.6622 62.1202,72.7559 61.6985,73.2714 C60.6676,74.4897 59.6367,74.068 58.7932,72.0998 C57.9965,70.2254 56.7312,69.6162 56.2626,70.8815 C56.1221,71.2564 56.4969,72.5685 57.1061,73.7868 C58.3713,76.4579 59.7772,76.9734 61.4642,75.3801 C62.1202,74.724 63.2449,74.3491 64.6038,74.2554 C65.7285,74.1617 67.1343,73.8337 67.6967,73.4588 C68.587,72.8965 68.8213,72.8965 69.1493,73.4588 C69.4305,73.8337 70.0397,74.0211 70.7894,73.8805 C72.3827,73.5525 72.3358,73.7868 70.602,74.6772 C69.8054,75.0989 69.2899,75.6144 69.4305,75.8487 C69.7117,76.3173 64.3227,79.2226 63.9009,78.8478 C63.7603,78.7072 62.9637,78.9415 62.1671,79.3632 C60.9487,79.9724 60.3864,80.0661 59.5429,79.6444 C58.9338,79.3632 58.4182,78.8946 58.4182,78.6135 C58.4182,78.2386 57.7622,78.1449 56.3095,78.3323 C54.482,78.6135 54.2945,78.5197 54.5288,77.8168 C54.81,77.1139 54.7631,77.1139 54.0602,77.6763 C53.6385,78.0043 53.2636,78.6135 53.2636,78.9415 C53.2636,79.6913 51.8578,79.2695 51.0143,78.2386 C50.5457,77.5825 50.4989,77.6763 50.7332,78.754 C50.9675,79.785 50.78,80.113 49.5617,80.7222 C47.734,81.7063 47.7809,81.7063 48.0152,80.113 C48.1558,79.0821 47.9683,78.754 47.2186,78.5197 C46.6562,78.3792 46.0939,78.4729 45.9533,78.7072 C45.8128,78.9415 46.0471,79.1289 46.4219,79.1289 C47.734,79.1289 47.2186,80.3004 45.4847,81.0971 C43.4698,82.128 41.0329,82.1749 39.2523,81.2376 C38.5025,80.8628 36.8155,79.3632 35.5035,77.8637 C33.2073,75.2864 32.0358,74.724 33.1136,76.7859 C33.3948,77.3482 33.5822,77.8637 33.4885,77.9574 C33.3948,78.0511 29.8333,74.6772 25.5222,70.4597 C19.6177,64.649 17.4153,62.1186 16.4781,60.1504 C14.2757,55.6987 14.4163,49.5599 16.8061,43.1869 C17.3216,41.8279 17.9308,40.797 18.1651,40.9376 C18.3994,41.125 18.5868,40.797 18.5868,40.2816 C18.5868,39.7661 19.1491,38.9695 19.8052,38.5477 C20.7892,37.8917 20.8829,37.6574 20.3206,37.3293 C19.7114,37.0013 19.7583,36.6733 20.6955,34.9395 C21.3047,33.8617 22.0544,32.081 22.3826,30.9563 C22.7106,29.8785 23.2259,28.9882 23.6009,28.9882 C24.4444,28.9882 24.3975,28.2384 23.5072,27.8635 C23.1322,27.7229 22.8042,27.3012 22.8042,26.9263 C22.8042,26.5514 22.523,26.1765 22.2419,26.0828 C21.539,25.8485 23.5072,21.1625 24.6787,20.2252 C25.2879,19.7566 25.1942,19.5223 23.9758,18.5851 C23.2259,18.0228 22.1013,17.4136 21.4921,17.273 C20.8361,17.1325 20.18,16.5701 19.9457,15.9609 C19.5709,15.0237 19.7114,14.93 20.9767,14.93 C22.195,14.93 22.3826,14.7894 22.195,13.9928 C22.0076,13.3368 22.195,13.0556 22.7106,13.0556 C23.1792,13.0556 23.7884,12.8682 24.1632,12.6338 C24.6318,12.3058 24.3038,11.9778 22.7573,11.2749 L20.6955,10.3845 L22.9449,10.0097 C24.2101,9.82222 26.0845,9.77535 27.1154,9.91593 C28.5681,10.1034 28.8961,10.0565 28.4744,9.63478 C28.0995,9.25988 26.0376,9.07245 22.6636,9.07245 C18.1182,9.07245 17.4153,9.16617 17.2747,9.86908 C17.181,10.4314 17.509,10.7594 18.4462,10.9469 C19.1491,11.1343 20.18,11.4155 20.6955,11.6498 C22.3356,12.3527 18.4462,12.2121 16.4312,11.4623 C15.1192,11.0406 13.1978,10.9 9.82391,11.0874 C5.55956,11.2749 4.99725,11.4155 4.99725,12.1652 C4.99725,13.0556 6.54367,13.6648 10.5268,14.274 C12.0263,14.5083 12.4949,14.7894 12.4949,15.4455 C12.4949,16.3827 12.6823,16.4764 15.5409,16.3358 C16.5718,16.3358 17.837,16.617 18.3525,16.9919 C19.2897,17.6479 19.2897,17.6948 18.2588,18.7726 C17.6496,19.4286 17.181,20.2721 17.181,20.6938 C17.181,21.9591 17.8839,21.6311 18.4462,20.0378 C18.868,18.96 19.2428,18.632 19.7583,18.8663 C20.18,19.0069 21.1641,19.1475 21.9139,19.1475 L23.2729,19.1475 L21.867,21.303 C21.1172,22.5214 20.3675,24.3958 20.18,25.5205 C19.9457,27.1137 19.6646,27.5824 18.9148,27.6761 C18.3056,27.7698 17.837,28.1915 17.7902,28.7539 C17.6965,29.2693 17.7902,29.4099 17.9308,29.0819 C18.2588,28.4258 19.9457,28.3321 20.8829,28.9413 C21.4453,29.3162 21.4921,29.6911 20.9767,31.4249 C19.7114,35.6424 18.2119,37.8917 16.1032,38.782 L14.0881,39.6255 L13.2447,46.0923 C11.9326,55.7924 12.6355,62.962 15.5409,69.4757 L16.7124,72.1936 L18.5399,71.8655 C20.1332,71.5844 20.4612,71.725 21.3515,72.8965 C22.523,74.3491 25.241,76.5047 26.928,77.2545 C27.584,77.5357 28.6149,77.5825 29.5053,77.3482 C30.7705,77.0202 31.2861,77.2076 33.1136,78.5666 C34.2851,79.4101 35.5972,80.6285 36.0658,81.2376 C36.9093,82.3623 36.9093,82.3623 35.0349,83.2995 C34.0039,83.8618 32.8324,84.7522 32.4576,85.3145 C31.4734,86.6735 31.5204,88.4542 32.4576,88.8291 C33.301,89.1571 37.8465,88.2199 39.9083,87.2827 C41.2673,86.6735 41.3142,86.7203 41.9234,88.0324 C42.6731,89.86 44.8287,89.9537 46.5625,88.2199 C47.5934,87.1889 47.6872,86.7672 47.406,84.9396 C47.2186,83.6275 47.3123,82.8778 47.5934,82.8778 C47.8746,82.8778 48.9524,82.2686 50.0303,81.5188 C51.9047,80.2536 52.139,80.2067 53.5448,80.8159 C54.4351,81.1908 56.0752,81.4719 57.2467,81.4719 C59.2149,81.4719 59.4492,81.6125 59.871,82.8778 C60.9019,85.7362 68.915,88.1262 72.0078,86.5329 C72.8513,86.0643 73.2262,85.4082 73.4136,84.0493 C73.601,82.6435 73.8822,82.128 74.5851,81.9874 C75.7097,81.8 76.2252,81.0971 76.2252,79.785 C76.2252,79.0821 76.6469,78.7072 78.006,78.3792 C79.2243,78.098 79.7867,77.6763 79.8804,76.9734 C80.0678,75.8018 78.99,75.3801 75.6629,75.3801 C73.0856,75.3801 72.8981,75.0052 74.7257,73.6462 C75.616,72.9902 76.4595,72.7559 77.5842,72.9433 C79.3181,73.1776 79.9741,72.5685 79.9741,70.6003 C79.9741,69.6162 80.1615,69.4288 80.9113,69.6162 C81.6142,69.8037 81.8485,69.6162 81.8485,68.9133 C81.8485,68.351 81.6611,67.7887 81.3799,67.6481 C81.0987,67.4606 81.3799,66.4297 82.0828,65.0708 C83.9572,61.4157 85.363,54.9489 83.7229,57.5731 C82.9731,58.7446 82.7388,57.7605 83.2074,55.6518 C83.4886,54.5272 83.7229,51.1532 83.7698,48.201 L83.8166,42.812 L85.8786,51.0126 C87.9873,59.4944 88.2684,61.6968 87.4718,63.2432 C87.1906,63.7118 87.0969,64.1336 87.1906,64.1336 C87.3312,64.1336 87.753,63.5244 88.1747,62.7277 C89.2525,60.6659 89.0182,56.7765 87.4249,49.0445 C85.5036,39.6724 84.0041,34.7989 82.3171,32.409 C81.0519,30.6751 80.9113,30.1128 80.9113,26.7857 C80.9113,24.7707 80.7239,22.3808 80.4896,21.4905 L80.1147,19.8504 L82.7388,19.9441 L85.363,20.0378 L82.7857,19.5692 C78.2871,18.7726 77.4905,17.6948 79.1775,14.5551 C80.2553,12.587 79.8335,11.2749 77.9591,10.8063 L76.4595,10.4314 L77.7717,9.58791 C79.0838,8.69757 79.4586,7.66663 78.5214,7.3386 C78.1934,7.24489 79.8804,6.54198 82.2702,5.83907 C86.5346,4.52697 87.4249,3.73035 85.738,2.79314 C84.4258,2.13709 79.5524,1.85593 76.1783,2.27767 M81.3799,4.48012 C81.005,4.62069 79.4118,5.18303 77.8654,5.74535 L75.0537,6.77628 L75.0068,5.69848 C74.9131,4.855 75.1943,4.62069 76.6469,4.48012 C79.3181,4.19895 82.1297,4.19895 81.3799,4.48012 M74.0228,7.90093 C73.8353,8.69757 74.0228,8.83814 75.1006,8.83814 C76.1315,8.83814 76.2721,8.97872 75.8503,9.40048 C74.8663,10.3845 75.2411,11.556 76.7408,12.0715 C77.5374,12.3527 78.0528,12.7744 77.8654,13.0556 C77.6311,13.4305 77.3498,13.3836 76.8344,12.9619 C76.4595,12.6338 75.6629,12.1652 75.1006,11.8841 C74.5851,11.6029 74.1165,11.1812 74.1165,10.9469 C74.0696,9.86908 73.2262,9.30675 71.5861,9.30675 C69.5242,9.30675 68.0716,8.13524 69.2431,7.38546 C69.6179,7.15116 70.8832,6.96372 72.1015,6.96372 C74.0228,6.96372 74.2571,7.05745 74.0228,7.90093 M15.5878,13.0556 C17.6027,13.8522 16.6655,14.0397 14.3694,13.2899 C13.1041,12.915 12.6823,12.6338 13.2915,12.6338 C13.8538,12.587 14.8849,12.8213 15.5878,13.0556 M78.8963,22.2871 C78.7557,22.7557 78.662,22.4746 78.662,21.7248 C78.662,20.9282 78.7557,20.6001 78.8963,20.8813 C78.99,21.2093 78.99,21.8654 78.8963,22.2871 M79.3649,28.1447 C79.2243,28.5196 79.0838,28.379 79.0838,27.8635 C79.0369,27.348 79.1775,27.0669 79.3181,27.2543 C79.4586,27.3949 79.5055,27.8167 79.3649,28.1447 M78.8963,30.9563 C78.7557,31.3312 78.6152,31.1906 78.6152,30.6751 C78.5683,30.1597 78.7089,29.8785 78.8495,30.066 C78.99,30.2065 79.0369,30.6283 78.8963,30.9563 M81.5205,62.9152 C80.8176,64.3679 80.1147,65.5394 79.9272,65.5394 C79.7867,65.5394 80.3021,64.2741 81.0987,62.7746 C82.9263,59.2601 83.2543,59.3538 81.5205,62.9152 M24.2101,71.3969 C28.943,74.9115 30.4425,76.3173 29.5521,76.3173 C28.5212,76.3173 25.6159,74.9115 25.6159,74.396 C25.6159,74.1617 25.3347,73.9743 25.0536,73.9743 C24.7256,73.9743 23.5072,72.9902 22.3826,71.8187 C21.2578,70.6472 20.0395,69.8037 19.7114,69.9443 C19.3834,70.0848 19.0554,69.7568 18.9617,69.1945 C18.7274,67.4138 17.7433,67.6949 17.5559,69.6162 C17.4153,71.0221 17.3216,71.2095 17.0404,70.4597 C16.8061,69.9443 16.3375,68.9133 15.9626,68.2104 C15.5878,67.4606 15.166,66.008 15.0254,64.9302 L14.7443,62.962 L17.9308,66.0548 C19.7114,67.7418 22.523,70.1786 24.2101,71.3969 M77.8654,68.8196 C77.3968,69.3351 76.7875,69.7568 76.5532,69.7568 C76.2721,69.7568 76.5532,69.2414 77.1625,68.5853 C78.4277,67.2263 79.1306,67.4138 77.8654,68.8196 M75.0537,71.5844 C74.9131,71.8655 74.3039,72.3341 73.7416,72.6153 C72.7576,73.1308 72.7576,73.0839 73.8353,71.9124 C74.9131,70.7409 75.7097,70.5535 75.0537,71.5844 M78.0997,71.8655 C78.0997,72.2404 77.7717,72.5685 77.3498,72.5685 C76.6938,72.5685 76.6938,72.4279 77.1625,71.8655 C77.4905,71.4907 77.8185,71.1626 77.9123,71.1626 C78.006,71.1626 78.0997,71.4907 78.0997,71.8655 M73.0856,78.1917 C72.8981,78.8478 73.1324,79.2226 73.9291,79.5507 C75.0068,79.9724 75.0068,80.0193 73.2262,80.769 C71.5861,81.4719 71.4455,81.6594 71.6329,83.1589 C71.8204,84.6585 71.7266,84.7522 70.4614,84.7522 C69.2431,84.7522 64.7913,83.1589 63.9009,82.4092 C63.6666,82.2217 64.4164,81.6125 65.541,81.0033 C66.6657,80.441 67.9777,79.5975 68.4933,79.1289 C69.8991,77.9106 71.1643,77.3014 72.3358,77.2545 C73.0856,77.2545 73.273,77.4888 73.0856,78.1917 M57.481,79.5975 C57.481,79.8318 56.6844,80.0193 55.7472,80.0193 C53.9665,79.9724 53.9665,79.9724 55.3723,79.5975 C57.3873,79.0821 57.481,79.0821 57.481,79.5975 M45.5785,85.4082 C45.8128,86.4392 45.6722,86.9546 45.0161,87.4232 C43.8915,88.2667 43.5166,88.173 43.1886,87.1421 C42.6731,85.5019 41.8297,85.1739 39.8614,85.83 C38.8774,86.2048 37.0967,86.6266 35.9721,86.8141 C34.0508,87.0952 33.9571,87.0484 34.5663,86.3455 C36.0658,84.5179 37.7059,84.0024 41.5016,84.0024 L45.2504,84.0493 L45.5785,85.4082 Z" style="stroke:none;fill-rule:nonzero;fill:#000000;fill-opacity:1;"/>
        </g>
        <g id="Shape2">
            <desc shapeID="2" type="0" basicInfo-basicType="0" basicInfo-roundedRectRadius="12" basicInfo-polygonSides="6" basicInfo-starPoints="5" bounding="rect(-11.98,-5.47654,23.96,10.9531)" text="" font-familyName="" font-pixelSize="20" font-bold="0" font-underline="0" font-alignment="1" strokeStyle="0" markerStart="0" markerEnd="0" shadowEnabled="0" shadowOffsetX="0" shadowOffsetY="2" shadowBlur="4" shadowOpacity="160" blurEnabled="0" blurRadius="4" transform="matrix(0.468605,0,0,0.468605,57.9403,20.7986)" pers-center="0,0" pers-size="0,0" pers-start="0,0" pers-end="0,0" locked="0" mesh="" flag=""/>
            <path id="shapePath2" d="M59.5429,19.1006 C56.4969,19.9909 52.3264,22.1934 52.3264,22.8963 C52.3264,23.1775 52.5607,23.3649 52.8419,23.3649 C53.6853,23.3649 59.4492,20.975 61.6048,19.7566 C64.6975,17.9291 64.1821,17.7885 59.5429,19.1006 Z" style="stroke:none;fill-rule:nonzero;fill:#000000;fill-opacity:1;"/>
        </g>
        <g id="Shape3">
            <desc shapeID="3" type="0" basicInfo-basicType="0" basicInfo-roundedRectRadius="12" basicInfo-polygonSides="6" basicInfo-starPoints="5" bounding="rect(-6.92171,-15.2022,13.8434,30.4044)" text="" font-familyName="" font-pixelSize="20" font-bold="0" font-underline="0" font-alignment="1" strokeStyle="0" markerStart="0" markerEnd="0" shadowEnabled="0" shadowOffsetX="0" shadowOffsetY="2" shadowBlur="4" shadowOpacity="160" blurEnabled="0" blurRadius="4" transform="matrix(0.468605,0,0,0.468605,17.6587,27.7219)" pers-center="0,0" pers-size="0,0" pers-start="0,0" pers-end="0,0" locked="0" mesh="" flag=""/>
            <path id="shapePath3" d="M18.7274,22.4746 C15.8689,26.1765 14.3694,29.6911 14.4163,32.5027 L14.4631,34.8457 L14.8849,33.0182 C15.4003,30.8626 17.6027,26.364 19.5709,23.5055 C21.7733,20.319 21.0704,19.4286 18.7274,22.4746 Z" style="stroke:none;fill-rule:nonzero;fill:#000000;fill-opacity:1;"/>
        </g>
        <g id="Shape4">
            <desc shapeID="4" type="0" basicInfo-basicType="0" basicInfo-roundedRectRadius="12" basicInfo-polygonSides="6" basicInfo-starPoints="5" bounding="rect(-3.89771,-2.76152,7.79559,5.52305)" text="" font-familyName="" font-pixelSize="20" font-bold="0" font-underline="0" font-alignment="1" strokeStyle="0" markerStart="0" markerEnd="0" shadowEnabled="0" shadowOffsetX="0" shadowOffsetY="2" shadowBlur="4" shadowOpacity="160" blurEnabled="0" blurRadius="4" transform="matrix(0.468605,0,0,0.468605,70.554,22.5394)" pers-center="0,0" pers-size="0,0" pers-start="0,0" pers-end="0,0" locked="0" mesh="" flag=""/>
            <path id="shapePath4" d="M68.7276,21.3968 C68.7276,22.0997 71.0237,23.8335 71.9609,23.8335 C72.5701,23.7866 72.5233,23.6929 71.7735,23.2712 C71.258,22.99 70.3677,22.334 69.8054,21.8185 C69.1962,21.303 68.7276,21.0687 68.7276,21.3968 Z" style="stroke:none;fill-rule:nonzero;fill:#000000;fill-opacity:1;"/>
        </g>
        <g id="Shape5">
            <desc shapeID="5" type="0" basicInfo-basicType="0" basicInfo-roundedRectRadius="12" basicInfo-polygonSides="6" basicInfo-starPoints="5" bounding="rect(-12.097,-1.89582,24.1939,3.79164)" text="" font-familyName="" font-pixelSize="20" font-bold="0" font-underline="0" font-alignment="1" strokeStyle="0" markerStart="0" markerEnd="0" shadowEnabled="0" shadowOffsetX="0" shadowOffsetY="2" shadowBlur="4" shadowOpacity="160" blurEnabled="0" blurRadius="4" transform="matrix(0.468605,0,0,0.468605,32.4379,23.3306)" pers-center="0,0" pers-size="0,0" pers-start="0,0" pers-end="0,0" locked="0" mesh="" flag=""/>
            <path id="shapePath5" d="M29.1304,22.9432 C28.0995,23.1775 27.0686,23.6461 26.7874,23.9272 C26.2719,24.4896 36.8624,24.1615 37.7996,23.5992 C39.5803,22.4746 33.2073,22.0059 29.1304,22.9432 Z" style="stroke:none;fill-rule:nonzero;fill:#000000;fill-opacity:1;"/>
        </g>
        <g id="Shape6">
            <desc shapeID="6" type="0" basicInfo-basicType="0" basicInfo-roundedRectRadius="12" basicInfo-polygonSides="6" basicInfo-starPoints="5" bounding="rect(-16.0772,-3.72441,32.1543,7.44883)" text="" font-familyName="" font-pixelSize="20" font-bold="0" font-underline="0" font-alignment="1" strokeStyle="0" markerStart="0" markerEnd="0" shadowEnabled="0" shadowOffsetX="0" shadowOffsetY="2" shadowBlur="4" shadowOpacity="160" blurEnabled="0" blurRadius="4" transform="matrix(0.468605,0,0,0.468605,60.8532,24.3156)" pers-center="0,0" pers-size="0,0" pers-start="0,0" pers-end="0,0" locked="0" mesh="" flag=""/>
            <path id="shapePath6" d="M56.825,23.0837 C54.81,23.8335 52.8887,25.4736 53.4042,25.9891 C53.5916,26.1765 54.1071,25.9891 54.6225,25.5205 C55.8409,24.4427 61.183,23.6461 65.4473,23.9741 C68.8213,24.2084 68.915,24.2084 67.603,23.5055 C65.6347,22.4746 59.1212,22.2403 56.825,23.0837 Z" style="stroke:none;fill-rule:nonzero;fill:#000000;fill-opacity:1;"/>
        </g>
        <g id="Shape7">
            <desc shapeID="7" type="0" basicInfo-basicType="0" basicInfo-roundedRectRadius="12" basicInfo-polygonSides="6" basicInfo-starPoints="5" bounding="rect(-14.817,-5.32837,29.6339,10.6568)" text="" font-familyName="" font-pixelSize="20" font-bold="0" font-underline="0" font-alignment="1" strokeStyle="0" markerStart="0" markerEnd="0" shadowEnabled="0" shadowOffsetX="0" shadowOffsetY="2" shadowBlur="4" shadowOpacity="160" blurEnabled="0" blurRadius="4" transform="matrix(0.468605,0,0,0.468605,32.7308,28.2381)" pers-center="0,0" pers-size="0,0" pers-start="0,0" pers-end="0,0" locked="0" mesh="" flag=""/>
            <path id="shapePath7" d="M31.1454,26.4577 C28.8492,27.1606 24.9599,30.394 25.9439,30.722 C26.2719,30.8157 27.4434,30.394 28.5212,29.7379 C30.4425,28.6133 33.9102,27.5823 37.9402,26.8794 C38.8774,26.7389 39.674,26.4108 39.674,26.1765 C39.674,25.4736 33.6291,25.6611 31.1454,26.4577 Z" style="stroke:none;fill-rule:nonzero;fill:#000000;fill-opacity:1;"/>
        </g>
        <g id="Shape8">
            <desc shapeID="8" type="0" basicInfo-basicType="0" basicInfo-roundedRectRadius="12" basicInfo-polygonSides="6" basicInfo-starPoints="5" bounding="rect(-12.3806,-12.1436,24.7613,24.2872)" text="" font-familyName="" font-pixelSize="20" font-bold="0" font-underline="0" font-alignment="1" strokeStyle="0" markerStart="0" markerEnd="0" shadowEnabled="0" shadowOffsetX="0" shadowOffsetY="2" shadowBlur="4" shadowOpacity="160" blurEnabled="0" blurRadius="4" transform="matrix(0.468605,0,0,0.468605,48.2873,35.177)" pers-center="0,0" pers-size="0,0" pers-start="0,0" pers-end="0,0" locked="0" mesh="" flag=""/>
            <path id="shapePath8" d="M47.8746,30.3003 C44.9224,31.3312 42.4857,33.0182 42.4857,34.0491 C42.4857,34.4709 42.9543,35.2206 43.5635,35.7829 C44.1727,36.2984 44.3601,36.5327 44.0321,36.2984 C43.6572,36.0641 43.2355,36.0172 43.048,36.2047 C42.6731,36.6264 44.7818,38.3134 45.6722,38.3603 C46.0002,38.3603 46.8905,38.9695 47.6872,39.7661 C49.2804,41.2656 49.9834,41.2188 49.9834,39.7192 C49.9834,39.11 50.2646,38.8289 50.78,38.9226 C51.2486,39.0163 51.6704,38.6883 51.7641,38.2197 C51.8578,37.7042 52.467,36.5796 53.0762,35.6424 C54.2008,34.0022 54.4351,32.0341 53.5448,32.0341 C53.3105,32.0341 52.9356,32.5964 52.7481,33.2993 C52.5607,34.0022 52.0452,35.0332 51.6235,35.6424 L50.8269,36.7202 L51.108,35.3143 C51.2955,34.5177 51.8578,33.2993 52.3733,32.5964 C52.9356,31.8467 53.2167,31.1438 53.0762,31.0032 C52.5607,30.4877 50.3583,32.9244 49.4678,34.9395 C48.9992,36.0641 48.4838,36.9545 48.2963,36.9545 C48.1558,36.9545 47.406,36.4859 46.7031,35.8767 C46.0002,35.3143 45.0161,34.6114 44.5475,34.2834 C43.7509,33.8148 43.9384,33.6274 46.4219,32.5027 C47.9683,31.8467 50.3583,31.0032 51.8109,30.6751 C53.5916,30.2534 54.1539,30.0191 53.5448,29.7848 C52.2327,29.2693 50.4051,29.4099 47.8746,30.3003 Z" style="stroke:none;fill-rule:nonzero;fill:#000000;fill-opacity:1;"/>
        </g>
        <g id="Shape9">
            <desc shapeID="9" type="0" basicInfo-basicType="0" basicInfo-roundedRectRadius="12" basicInfo-polygonSides="6" basicInfo-starPoints="5" bounding="rect(-9.07513,-3.81332,18.1503,7.62662)" text="" font-familyName="" font-pixelSize="20" font-bold="0" font-underline="0" font-alignment="1" strokeStyle="0" markerStart="0" markerEnd="0" shadowEnabled="0" shadowOffsetX="0" shadowOffsetY="2" shadowBlur="4" shadowOpacity="160" blurEnabled="0" blurRadius="4" transform="matrix(0.468605,0,0,0.468605,73.3784,43.5376)" pers-center="0,0" pers-size="0,0" pers-start="0,0" pers-end="0,0" locked="0" mesh="" flag=""/>
            <path id="shapePath9" d="M75.0537,42.4371 C74.0228,42.7652 73.0856,43.2806 72.945,43.5149 C72.8044,43.7492 71.9141,43.9835 70.93,44.0773 C68.4933,44.2647 68.5402,45.1082 70.9769,45.2956 C72.1484,45.3893 72.945,45.2488 72.945,44.9676 C72.945,44.6864 73.4605,44.4521 74.1165,44.4521 C75.5692,44.4521 77.6311,43.1869 77.6311,42.2966 C77.6311,41.5468 77.5374,41.5468 75.0537,42.4371 Z" style="stroke:none;fill-rule:nonzero;fill:#000000;fill-opacity:1;"/>
        </g>
        <g id="Shape10">
            <desc shapeID="10" type="0" basicInfo-basicType="0" basicInfo-roundedRectRadius="12" basicInfo-polygonSides="6" basicInfo-starPoints="5" bounding="rect(-2.50448,-7.45746,5.00908,14.9149)" text="" font-familyName="" font-pixelSize="20" font-bold="0" font-underline="0" font-alignment="1" strokeStyle="0" markerStart="0" markerEnd="0" shadowEnabled="0" shadowOffsetX="0" shadowOffsetY="2" shadowBlur="4" shadowOpacity="160" blurEnabled="0" blurRadius="4" transform="matrix(0.468605,0,0,0.468605,24.2606,49.3526)" pers-center="0,0" pers-size="0,0" pers-start="0,0" pers-end="0,0" locked="0" mesh="" flag=""/>
            <path id="shapePath10" d="M23.6946,46.4203 C23.6946,46.7483 23.5072,48.0604 23.3198,49.3725 C23.0855,50.6377 23.0386,51.9498 23.1322,52.2779 C23.4603,53.0745 24.4444,53.0276 25.1473,52.1841 C25.4753,51.8092 25.5222,51.4812 25.2879,51.4812 C25.0536,51.4812 24.9599,50.2629 25.0536,48.6696 C25.241,46.3266 25.1473,45.858 24.4913,45.858 C24.0695,45.858 23.7415,46.1391 23.6946,46.4203 Z" style="stroke:none;fill-rule:nonzero;fill:#000000;fill-opacity:1;"/>
        </g>
        <g id="Shape11">
            <desc shapeID="11" type="0" basicInfo-basicType="0" basicInfo-roundedRectRadius="12" basicInfo-polygonSides="6" basicInfo-starPoints="5" bounding="rect(-4.96289,-1.77167,9.92558,3.54335)" text="" font-familyName="" font-pixelSize="20" font-bold="0" font-underline="0" font-alignment="1" strokeStyle="0" markerStart="0" markerEnd="0" shadowEnabled="0" shadowOffsetX="0" shadowOffsetY="2" shadowBlur="4" shadowOpacity="160" blurEnabled="0" blurRadius="4" transform="matrix(0.468605,0,0,0.468605,65.4299,47.1568)" pers-center="0,0" pers-size="0,0" pers-start="0,0" pers-end="0,0" locked="0" mesh="" flag=""/>
            <path id="shapePath11" d="M63.1043,46.9826 C63.1043,47.873 65.1193,48.2947 66.5719,47.7324 C68.5402,47.0295 67.9777,46.3266 65.4473,46.3266 C63.7603,46.3266 63.1043,46.514 63.1043,46.9826 Z" style="stroke:none;fill-rule:nonzero;fill:#000000;fill-opacity:1;"/>
        </g>
        <g id="Shape12">
            <desc shapeID="12" type="0" basicInfo-basicType="0" basicInfo-roundedRectRadius="12" basicInfo-polygonSides="6" basicInfo-starPoints="5" bounding="rect(-2.99504,-6.87833,5.99016,13.7567)" text="" font-familyName="" font-pixelSize="20" font-bold="0" font-underline="0" font-alignment="1" strokeStyle="0" markerStart="0" markerEnd="0" shadowEnabled="0" shadowOffsetX="0" shadowOffsetY="2" shadowBlur="4" shadowOpacity="160" blurEnabled="0" blurRadius="4" transform="matrix(0.468605,0,0,0.468605,28.4298,50.1497)" pers-center="0,0" pers-size="0,0" pers-start="0,0" pers-end="0,0" locked="0" mesh="" flag=""/>
            <path id="shapePath12" d="M27.3497,47.0763 C26.8343,47.5918 26.9748,51.4344 27.4903,52.4653 C28.0058,53.4025 29.8333,53.7305 29.8333,52.887 C29.8333,52.6059 29.6459,52.4184 29.4116,52.4184 C29.2241,52.4184 28.8961,51.3406 28.7555,49.9817 C28.4744,47.5449 27.9589,46.514 27.3497,47.0763 Z" style="stroke:none;fill-rule:nonzero;fill:#000000;fill-opacity:1;"/>
        </g>
        <g id="Shape13">
            <desc shapeID="13" type="0" basicInfo-basicType="0" basicInfo-roundedRectRadius="12" basicInfo-polygonSides="6" basicInfo-starPoints="5" bounding="rect(-10.7236,-3.94562,21.447,7.89118)" text="" font-familyName="" font-pixelSize="20" font-bold="0" font-underline="0" font-alignment="1" strokeStyle="0" markerStart="0" markerEnd="0" shadowEnabled="0" shadowOffsetX="0" shadowOffsetY="2" shadowBlur="4" shadowOpacity="160" blurEnabled="0" blurRadius="4" transform="matrix(0.468605,0,0,0.468605,50.8686,49.5813)" pers-center="0,0" pers-size="0,0" pers-start="0,0" pers-end="0,0" locked="0" mesh="" flag=""/>
            <path id="shapePath13" d="M50.7332,48.9039 C49.8897,50.1691 48.6244,50.4034 47.078,49.5599 C45.719,48.8102 45.3442,49.5599 46.6562,50.5909 C48.1089,51.8092 48.8587,51.7155 50.2646,50.216 L51.4361,48.9507 L52.139,49.9817 C52.8887,51.0595 55.2786,51.4344 55.8409,50.544 C55.9815,50.2629 55.8409,50.0754 55.4192,50.0754 C55.0443,50.0754 54.1071,49.5599 53.3573,48.9039 C52.5607,48.2478 51.8578,47.7324 51.7172,47.7324 C51.6235,47.7324 51.1549,48.2478 50.7332,48.9039 Z" style="stroke:none;fill-rule:nonzero;fill:#000000;fill-opacity:1;"/>
        </g>
        <g id="Shape14">
            <desc shapeID="14" type="0" basicInfo-basicType="0" basicInfo-roundedRectRadius="12" basicInfo-polygonSides="6" basicInfo-starPoints="5" bounding="rect(-3.47559,-1.62539,6.95138,3.25082)" text="" font-familyName="" font-pixelSize="20" font-bold="0" font-underline="0" font-alignment="1" strokeStyle="0" markerStart="0" markerEnd="0" shadowEnabled="0" shadowOffsetX="0" shadowOffsetY="2" shadowBlur="4" shadowOpacity="160" blurEnabled="0" blurRadius="4" transform="matrix(0.468605,0,0,0.468605,60.0469,48.6867)" pers-center="0,0" pers-size="0,0" pers-start="0,0" pers-end="0,0" locked="0" mesh="" flag=""/>
            <path id="shapePath14" d="M58.4182,48.1541 C58.4182,48.9039 60.2458,49.7005 61.1362,49.3725 C61.8391,49.1382 61.8391,49.0445 61.2299,48.7164 C59.8241,47.9667 58.4182,47.6855 58.4182,48.1541 Z" style="stroke:none;fill-rule:nonzero;fill:#000000;fill-opacity:1;"/>
        </g>
        <g id="Shape15">
            <desc shapeID="15" type="0" basicInfo-basicType="0" basicInfo-roundedRectRadius="12" basicInfo-polygonSides="6" basicInfo-starPoints="5" bounding="rect(-13.8232,-5.34799,27.6463,10.696)" text="" font-familyName="" font-pixelSize="20" font-bold="0" font-underline="0" font-alignment="1" strokeStyle="0" markerStart="0" markerEnd="0" shadowEnabled="0" shadowOffsetX="0" shadowOffsetY="2" shadowBlur="4" shadowOpacity="160" blurEnabled="0" blurRadius="4" transform="matrix(0.468605,0,0,0.468605,36.7829,50.8495)" pers-center="0,0" pers-size="0,0" pers-start="0,0" pers-end="0,0" locked="0" mesh="" flag=""/>
            <path id="shapePath15" d="M30.6299,48.4821 C29.6927,49.4193 30.9579,53.3556 32.2233,53.3556 C32.4576,53.3556 33.0667,52.9339 33.5822,52.4184 C34.4725,51.5281 34.6131,51.5281 35.2692,52.1841 C36.3001,53.1682 37.1904,53.0745 38.5494,51.7155 C39.9083,50.3566 40.1426,50.3097 40.1426,51.2001 C40.1426,52.3716 41.4548,53.0745 42.6263,52.5122 C43.376,52.1373 43.4698,51.9967 42.8606,51.9967 C42.4388,51.9498 41.6891,51.3875 41.1735,50.6377 L40.1895,49.3725 L38.8305,50.6846 C37.2841,52.1841 36.0658,51.9967 35.644,50.2629 C35.2692,48.7633 34.9411,48.857 33.9102,50.5909 C32.973,52.3247 31.989,52.1841 31.8014,50.2629 C31.6141,48.7633 31.0985,48.0135 30.6299,48.4821 Z" style="stroke:none;fill-rule:nonzero;fill:#000000;fill-opacity:1;"/>
        </g>
        <g id="Shape16">
            <desc shapeID="16" type="0" basicInfo-basicType="0" basicInfo-roundedRectRadius="12" basicInfo-polygonSides="6" basicInfo-starPoints="5" bounding="rect(-26.4246,-10.1787,52.8494,20.3574)" text="" font-familyName="" font-pixelSize="20" font-bold="0" font-underline="0" font-alignment="1" strokeStyle="0" markerStart="0" markerEnd="0" shadowEnabled="0" shadowOffsetX="0" shadowOffsetY="2" shadowBlur="4" shadowOpacity="160" blurEnabled="0" blurRadius="4" transform="matrix(0.468605,0,0,0.468605,63.2756,54.4348)" pers-center="0,0" pers-size="0,0" pers-start="0,0" pers-end="0,0" locked="0" mesh="" flag=""/>
            <path id="shapePath16" d="M72.2421,50.4972 C72.5701,51.6687 71.1643,52.1841 68.8682,51.7155 C67.3687,51.4344 67.2281,51.5281 67.4154,52.3247 C67.603,53.0276 67.3217,53.3556 66.0565,53.7305 C65.1661,54.0117 64.1352,54.1054 63.7603,53.9648 C63.3855,53.8242 62.7294,54.0117 62.2608,54.4334 C61.183,55.3706 59.3555,55.8861 59.3555,55.2769 C59.3555,54.3397 58.3246,54.7146 58.0902,55.7455 C57.5279,57.8074 53.5916,57.9011 52.6544,55.8392 C52.2327,54.9489 52.2795,54.6209 52.795,54.2928 C53.3573,53.9648 53.3573,53.8242 52.7013,53.5899 C50.6863,52.7933 50.2177,55.7924 51.9984,57.8542 C53.3105,59.4007 56.4032,59.6818 57.809,58.3697 C58.3246,57.948 59.0742,57.5731 59.5429,57.5731 C59.9647,57.5731 60.8082,57.0576 61.4173,56.4953 C62.214,55.6987 62.9169,55.4175 63.9009,55.5581 C64.885,55.7455 65.6816,55.4644 66.7125,54.574 C67.5091,53.918 68.4464,53.4494 68.8213,53.5899 C69.1962,53.7305 70.2271,53.3556 71.1175,52.7465 C72.289,51.9498 73.2262,51.6687 74.2571,51.8561 C76.1783,52.1373 76.1315,51.8092 74.0696,50.5909 C72.0547,49.3725 71.8672,49.3725 72.2421,50.4972 Z" style="stroke:none;fill-rule:nonzero;fill:#000000;fill-opacity:1;"/>
        </g>
        <g id="Shape17">
            <desc shapeID="17" type="0" basicInfo-basicType="0" basicInfo-roundedRectRadius="12" basicInfo-polygonSides="6" basicInfo-starPoints="5" bounding="rect(-9.46188,-6.97926,18.9239,13.9585)" text="" font-familyName="" font-pixelSize="20" font-bold="0" font-underline="0" font-alignment="1" strokeStyle="0" markerStart="0" markerEnd="0" shadowEnabled="0" shadowOffsetX="0" shadowOffsetY="2" shadowBlur="4" shadowOpacity="160" blurEnabled="0" blurRadius="4" transform="matrix(0.468605,0,0,0.468605,27.7212,60.1181)" pers-center="0,0" pers-size="0,0" pers-start="0,0" pers-end="0,0" locked="0" mesh="" flag=""/>
            <path id="shapePath17" d="M23.8352,57.1982 C23.0386,57.9948 23.1323,60.4316 23.9758,61.65 C25.1004,63.2432 27.5372,63.8524 29.5053,63.0089 C30.4425,62.634 31.3797,61.9311 31.6608,61.4157 C32.3638,60.1036 32.317,59.6818 31.5204,60.3379 C31.1922,60.619 29.927,60.9002 28.7087,60.947 C26.2719,61.0876 25.2879,60.3847 25.0536,58.4166 C24.8193,56.8233 24.5381,56.4953 23.8352,57.1982 Z" style="stroke:none;fill-rule:nonzero;fill:#000000;fill-opacity:1;"/>
        </g>
        <g id="Shape18">
            <desc shapeID="18" type="0" basicInfo-basicType="0" basicInfo-roundedRectRadius="12" basicInfo-polygonSides="6" basicInfo-starPoints="5" bounding="rect(-6.95712,-4.87424,13.9141,9.74855)" text="" font-familyName="" font-pixelSize="20" font-bold="0" font-underline="0" font-alignment="1" strokeStyle="0" markerStart="0" markerEnd="0" shadowEnabled="0" shadowOffsetX="0" shadowOffsetY="2" shadowBlur="4" shadowOpacity="160" blurEnabled="0" blurRadius="4" transform="matrix(0.468605,0,0,0.468605,34.3316,59.0926)" pers-center="0,0" pers-size="0,0" pers-start="0,0" pers-end="0,0" locked="0" mesh="" flag=""/>
            <path id="shapePath18" d="M31.0985,56.9639 C30.9579,57.1513 31.3797,58.2291 32.0357,59.3538 C33.4416,61.7437 35.1286,62.0248 36.8624,60.1504 C37.7059,59.26 37.7996,58.9789 37.2373,58.9789 C36.8155,58.9789 36.2532,59.3069 35.9252,59.6818 C34.988,60.8065 33.7696,60.5253 33.1136,58.9789 C32.4576,57.4325 31.4265,56.4016 31.0985,56.9639 Z" style="stroke:none;fill-rule:nonzero;fill:#000000;fill-opacity:1;"/>
        </g>
        <g id="Shape19">
            <desc shapeID="19" type="0" basicInfo-basicType="0" basicInfo-roundedRectRadius="12" basicInfo-polygonSides="6" basicInfo-starPoints="5" bounding="rect(-5.52246,-2.50116,11.0449,5.00234)" text="" font-familyName="" font-pixelSize="20" font-bold="0" font-underline="0" font-alignment="1" strokeStyle="0" markerStart="0" markerEnd="0" shadowEnabled="0" shadowOffsetX="0" shadowOffsetY="2" shadowBlur="4" shadowOpacity="160" blurEnabled="0" blurRadius="4" transform="matrix(0.468605,0,0,0.468605,40.8561,59.2137)" pers-center="0,0" pers-size="0,0" pers-start="0,0" pers-end="0,0" locked="0" mesh="" flag=""/>
            <path id="shapePath19" d="M41.3611,58.7446 C40.6582,59.1195 39.6271,59.4475 39.1585,59.4475 C38.6431,59.4475 38.2682,59.6349 38.2682,59.9161 C38.2682,60.6659 41.2205,60.4784 42.392,59.6349 C43.376,58.932 43.7978,58.0417 43.0949,58.0417 C42.8606,58.0417 42.1108,58.3697 41.3611,58.7446 Z" style="stroke:none;fill-rule:nonzero;fill:#000000;fill-opacity:1;"/>
        </g>
        <g id="Shape20">
            <desc shapeID="20" type="0" basicInfo-basicType="0" basicInfo-roundedRectRadius="12" basicInfo-polygonSides="6" basicInfo-starPoints="5" bounding="rect(-4.27332,-4.9416,8.54667,9.88323)" text="" font-familyName="" font-pixelSize="20" font-bold="0" font-underline="0" font-alignment="1" strokeStyle="0" markerStart="0" markerEnd="0" shadowEnabled="0" shadowOffsetX="0" shadowOffsetY="2" shadowBlur="4" shadowOpacity="160" blurEnabled="0" blurRadius="4" transform="matrix(0.468605,0,0,0.468605,84.1598,66.5145)" pers-center="0,0" pers-size="0,0" pers-start="0,0" pers-end="0,0" locked="0" mesh="" flag=""/>
            <path id="shapePath20" d="M84.3789,65.4925 C84.0509,67.0858 83.4886,67.6949 83.02,66.9452 C82.8794,66.7109 82.5045,66.4766 82.2702,66.4766 C82.0359,66.4766 82.1765,66.992 82.5983,67.6481 C84.0041,69.8037 85.7847,68.9133 86.1129,65.7737 C86.2533,64.7427 86.1129,64.321 85.4567,64.2273 C84.8944,64.0867 84.5664,64.4616 84.3789,65.4925 Z" style="stroke:none;fill-rule:nonzero;fill:#000000;fill-opacity:1;"/>
        </g>
        <g id="Shape21">
            <desc shapeID="21" type="0" basicInfo-basicType="0" basicInfo-roundedRectRadius="12" basicInfo-polygonSides="6" basicInfo-starPoints="5" bounding="rect(-20.8432,-5.39053,41.6865,10.7811)" text="" font-familyName="" font-pixelSize="20" font-bold="0" font-underline="0" font-alignment="1" strokeStyle="0" markerStart="0" markerEnd="0" shadowEnabled="0" shadowOffsetX="0" shadowOffsetY="2" shadowBlur="4" shadowOpacity="160" blurEnabled="0" blurRadius="4" transform="matrix(0.468605,0,0,0.468605,43.9101,67.1703)" pers-center="0,0" pers-size="0,0" pers-start="0,0" pers-end="0,0" locked="0" mesh="" flag=""/>
            <path id="shapePath21" d="M42.1108,65.1645 C41.7828,65.4925 41.5485,65.9611 41.5485,66.2891 C41.5485,66.992 40.002,67.4138 37.0967,67.4138 L34.7537,67.3669 L36.1595,66.1486 L37.5653,64.977 L35.9252,65.8674 C31.6608,68.2104 35.8315,71.1626 40.2363,68.8665 C41.2673,68.351 42.2045,68.1636 42.5794,68.3979 C43.7041,69.1476 46.0471,68.8196 48.2495,67.6949 L50.452,66.6172 L50.452,67.6949 C50.452,69.0071 51.6704,69.1945 53.0762,68.1167 C53.9196,67.4606 53.9196,67.4138 52.795,67.5544 C51.9047,67.6012 51.5766,67.4138 51.4829,66.5703 C51.2955,65.3051 51.0612,65.3051 49.2804,66.4766 C48.3901,67.0858 47.078,67.4138 45.6722,67.4138 C43.4698,67.4138 43.4229,67.3669 43.4229,66.008 C43.4229,64.5084 43.0012,64.2741 42.1108,65.1645 Z" style="stroke:none;fill-rule:nonzero;fill:#000000;fill-opacity:1;"/>
        </g>
        <g id="Shape22">
            <desc shapeID="22" type="0" basicInfo-basicType="0" basicInfo-roundedRectRadius="12" basicInfo-polygonSides="6" basicInfo-starPoints="5" bounding="rect(-5.25,-2.87845,10.5,5.75692)" text="" font-familyName="" font-pixelSize="20" font-bold="0" font-underline="0" font-alignment="1" strokeStyle="0" markerStart="0" markerEnd="0" shadowEnabled="0" shadowOffsetX="0" shadowOffsetY="2" shadowBlur="4" shadowOpacity="160" blurEnabled="0" blurRadius="4" transform="matrix(0.468605,0,0,0.468605,58.0668,67.3583)" pers-center="0,0" pers-size="0,0" pers-start="0,0" pers-end="0,0" locked="0" mesh="" flag=""/>
            <path id="shapePath22" d="M55.6066,66.3829 C55.6066,66.6171 56.1221,67.2732 56.7312,67.8355 C57.6216,68.679 58.1839,68.8664 59.2149,68.5853 L60.527,68.2573 L59.0742,67.6481 C58.2309,67.3201 57.4341,66.8046 57.2936,66.5234 C56.9187,65.9142 55.6066,65.8205 55.6066,66.3829 Z" style="stroke:none;fill-rule:nonzero;fill:#000000;fill-opacity:1;"/>
        </g>
        <g id="Shape23">
            <desc shapeID="23" type="0" basicInfo-basicType="0" basicInfo-roundedRectRadius="12" basicInfo-polygonSides="6" basicInfo-starPoints="5" bounding="rect(-4.88996,-1.0783,9.78009,2.15656)" text="" font-familyName="" font-pixelSize="20" font-bold="0" font-underline="0" font-alignment="1" strokeStyle="0" markerStart="0" markerEnd="0" shadowEnabled="0" shadowOffsetX="0" shadowOffsetY="2" shadowBlur="4" shadowOpacity="160" blurEnabled="0" blurRadius="4" transform="matrix(0.468605,0,0,0.468605,63.6244,68.1385)" pers-center="0,0" pers-size="0,0" pers-start="0,0" pers-end="0,0" locked="0" mesh="" flag=""/>
            <path id="shapePath23" d="M61.4173,67.9761 C60.9956,68.6322 62.214,68.8665 63.7603,68.3979 C64.6507,68.1636 65.4942,68.1167 65.6347,68.2573 C65.7753,68.3979 65.9159,68.3042 65.9159,68.0699 C65.9159,67.5544 61.6985,67.4606 61.4173,67.9761 Z" style="stroke:none;fill-rule:nonzero;fill:#000000;fill-opacity:1;"/>
        </g>
        <g id="Shape24">
            <desc shapeID="24" type="0" basicInfo-basicType="0" basicInfo-roundedRectRadius="12" basicInfo-polygonSides="6" basicInfo-starPoints="5" bounding="rect(-6.06465,-10.2158,12.1293,20.4315)" text="" font-familyName="" font-pixelSize="20" font-bold="0" font-underline="0" font-alignment="1" strokeStyle="0" markerStart="0" markerEnd="0" shadowEnabled="0" shadowOffsetX="0" shadowOffsetY="2" shadowBlur="4" shadowOpacity="160" blurEnabled="0" blurRadius="4" transform="matrix(0.468605,0,0,0.468605,51.0865,93.1349)" pers-center="0,0" pers-size="0,0" pers-start="0,0" pers-end="0,0" locked="0" mesh="" flag=""/>
            <path id="shapePath24" d="M49.6876,89.3729 C48.4224,90.7319 48.2818,93.9184 49.4065,95.0899 C50.1562,95.7928 50.1562,95.8396 49.3127,95.6991 C48.2818,95.5116 47.8132,97.1049 48.7504,97.7141 C49.4533,98.1827 51.89,97.8078 52.7804,97.1049 C53.7644,96.2614 53.3896,94.9962 51.9369,94.387 C50.3437,93.7309 50.0625,91.9971 51.234,90.4507 C51.7963,89.7478 52.0306,89.6541 52.5929,90.1227 C53.7176,91.0599 54.3736,90.5444 53.577,89.326 C52.5929,88.014 50.9528,88.014 49.6876,89.3729 Z" style="stroke:none;fill-rule:nonzero;fill:#000000;fill-opacity:1;"/>
        </g>
        <g id="Shape25">
            <desc shapeID="25" type="0" basicInfo-basicType="0" basicInfo-roundedRectRadius="12" basicInfo-polygonSides="6" basicInfo-starPoints="5" bounding="rect(-10.7859,-7.98621,21.572,15.9725)" text="" font-familyName="" font-pixelSize="20" font-bold="0" font-underline="0" font-alignment="1" strokeStyle="0" markerStart="0" markerEnd="0" shadowEnabled="0" shadowOffsetX="0" shadowOffsetY="2" shadowBlur="4" shadowOpacity="160" blurEnabled="0" blurRadius="4" transform="matrix(0.468605,0,0,0.468605,60.3755,92.0259)" pers-center="0,0" pers-size="0,0" pers-start="0,0" pers-end="0,0" locked="0" mesh="" flag=""/>
            <path id="shapePath25" d="M59.7626,88.6232 C59.5752,88.7637 59.4346,89.5135 59.4346,90.2633 C59.4346,93.2623 57.279,94.7619 56.9979,91.9034 C56.8104,89.7947 56.0138,90.029 55.4984,92.372 C55.2172,93.8247 55.2641,94.5744 55.6858,95.0899 C56.5293,96.074 58.6848,95.9803 59.6689,94.8556 C60.3718,94.059 60.5592,94.059 61.1684,94.6213 C62.2931,95.746 64.5424,95.5117 65.1516,94.1995 C65.7608,92.7469 65.2922,91.1536 64.4956,91.9502 C63.5114,92.9343 62.8554,92.5594 62.0588,90.4038 C61.309,88.4357 60.5124,87.8265 59.7626,88.6232 Z" style="stroke:none;fill-rule:nonzero;fill:#000000;fill-opacity:1;"/>
        </g>
    </g>
</svg>
