<?xml version="1.0"?>
<svg version="1.1" xmlns="http://www.w3.org/2000/svg" xmlns:xlink="http://www.w3.org/1999/xlink" width="600" height="160">
    <desc iVinci="yes" version="4.6" gridStep="20" showGrid="no" snapToGrid="no" codePlatform="0"/>
    <g id="Layer1" name="Layer 1" opacity="1">
        <g id="Shape1">
            <desc shapeID="1" type="0" basicInfo-basicType="0" basicInfo-roundedRectRadius="12" basicInfo-polygonSides="6" basicInfo-starPoints="5" bounding="rect(-25.7055,-51.4009,51.4108,102.801)" text="" font-familyName="" font-pixelSize="20" font-bold="0" font-underline="0" font-alignment="1" strokeStyle="0" markerStart="0" markerEnd="0" shadowEnabled="0" shadowOffsetX="0" shadowOffsetY="2" shadowBlur="4" shadowOpacity="160" blurEnabled="0" blurRadius="4" transform="matrix(0.277129,0,0,0.277129,42.8987,61.8481)" pers-center="0,0" pers-size="0,0" pers-start="0,0" pers-end="0,0" locked="0" mesh="" flag=""/>
            <path id="shapePath1" d="M39.1837,50.9293 C37.2992,52.8138 35.775,54.5043 35.775,54.6983 C35.775,55.0586 35.9136,55.0863 38.5463,55.1417 L40.3476,55.1694 L40.4308,64.6195 L40.4862,74.0973 L41.5947,75.095 C42.2044,75.6493 42.7864,76.0927 42.9249,76.0927 C43.0358,76.0927 43.6455,75.5661 44.3106,74.9564 L45.4745,73.8202 L45.4745,64.4255 L45.4745,55.0308 L47.6638,55.0308 C48.8832,55.0308 49.9363,54.92 50.0194,54.7814 C50.1857,54.532 43.4515,47.7423 42.8972,47.6038 C42.7032,47.5761 41.0405,49.0726 39.1837,50.9293 Z" style="stroke:none;fill-rule:evenodd;fill:#777777;fill-opacity:1;"/>
        </g>
        <g id="Shape2">
            <desc shapeID="2" type="0" basicInfo-basicType="0" basicInfo-roundedRectRadius="12" basicInfo-polygonSides="6" basicInfo-starPoints="5" bounding="rect(-91.2635,-104.875,182.527,209.752)" text="" font-familyName="" font-pixelSize="20" font-bold="0" font-underline="0" font-alignment="1" strokeStyle="0" markerStart="0" markerEnd="0" shadowEnabled="0" shadowOffsetX="0" shadowOffsetY="2" shadowBlur="4" shadowOpacity="160" blurEnabled="0" blurRadius="4" transform="matrix(0.277129,0,0,0.277129,236.628,80.0069)" pers-center="0,0" pers-size="0,0" pers-start="0,0" pers-end="0,0" locked="0" mesh="" flag=""/>
            <path id="shapePath2" d="M234.421,51.2342 C233.618,51.539 218.985,60.0746 215.964,62.0145 C215.549,62.2916 214.967,62.6242 214.662,62.7628 C213.886,63.123 212.473,64.6749 211.863,65.8389 C211.364,66.7534 211.336,67.6679 211.336,79.9725 C211.336,92.9421 211.336,93.1638 211.946,94.2446 C212.556,95.4086 213.803,96.7111 214.773,97.2653 C215.078,97.4316 219.401,99.9812 224.361,102.946 C229.35,105.912 233.922,108.489 234.56,108.711 C236.777,109.487 238.8,109.043 241.876,107.048 C242.541,106.632 243.123,106.3 243.206,106.3 C243.262,106.3 243.982,105.884 244.786,105.358 C245.59,104.859 246.698,104.194 247.225,103.916 C251.077,101.783 259.418,96.6279 260.083,95.9351 C261.912,93.9675 261.885,94.1615 261.912,80.0279 C261.94,67.9728 261.912,67.1968 261.414,66.0329 C260.61,64.2038 259.363,63.2062 253.82,59.936 C247.945,56.4719 248.028,56.4996 246.532,55.5851 C245.922,55.2248 244.869,54.6152 244.176,54.2272 C243.483,53.8669 242.43,53.2295 241.821,52.8415 C239.548,51.4005 238.744,51.0679 237.109,50.9571 C236.112,50.9016 235.031,51.0125 234.421,51.2342 M248.61,58.5504 C256.508,63.2339 258.615,64.6195 259.363,65.5618 C260.388,66.892 260.499,67.3908 259.723,66.9474 C258.587,66.3377 258.587,66.3377 251.16,70.9381 C249.913,71.714 248.638,72.4623 248.389,72.6286 C248.111,72.7671 246.282,73.9034 244.315,75.1504 C242.319,76.3698 240.213,77.6723 239.604,78.0603 C237.885,79.0857 236.943,80.0002 236.389,81.2196 C235.918,82.2449 235.862,83.2703 235.862,94.1338 C235.862,105.662 235.862,105.967 236.444,106.688 L236.999,107.408 L236.001,107.408 C235.447,107.408 234.726,107.27 234.394,107.103 C233.23,106.494 227.133,102.919 225.692,101.977 C224.888,101.45 224.167,101.034 224.112,101.034 C224.001,101.034 218.985,98.069 217.572,97.1545 C217.35,97.0159 216.574,96.5448 215.881,96.1291 C215.133,95.7134 214.191,94.7989 213.664,94.0229 L212.722,92.6373 L212.722,79.9725 L212.722,67.3077 L213.637,65.9497 C214.412,64.8135 215.244,64.2038 218.763,62.0976 C221.064,60.712 223.475,59.2986 224.084,58.9107 C226.08,57.719 231.788,54.3103 233.202,53.5066 C234.781,52.5921 236.112,52.315 237.664,52.5644 C238.412,52.6753 242.015,54.6429 248.61,58.5504 M245.035,84.5451 C245.811,84.3788 245.839,84.4065 245.839,85.3211 C245.839,86.2079 245.784,86.291 244.758,86.4573 C244.01,86.5682 243.456,86.9007 242.957,87.4827 C241.765,88.896 242.042,89.5334 244.038,89.8106 C245.756,90.06 246.061,90.3094 246.282,91.5288 C246.532,92.8036 246.005,94.5495 244.98,95.8243 C244.509,96.434 244.176,97.1822 244.176,97.6533 C244.176,98.5124 243.566,99.2607 243.068,98.9558 C242.929,98.8727 242.791,98.5401 242.791,98.2353 C242.791,97.8196 242.597,97.7087 241.821,97.7087 C240.989,97.7087 240.851,97.6256 240.851,97.0714 C240.851,96.2677 241.266,95.658 241.627,95.8797 C242.098,96.1568 243.76,95.3531 244.287,94.6326 C244.897,93.7458 244.869,92.5264 244.204,92.1662 C243.899,92.0276 243.234,91.889 242.707,91.889 C241.266,91.889 240.74,91.1408 240.906,89.284 C240.989,88.1478 241.239,87.5381 241.904,86.679 C242.458,85.9862 242.791,85.2656 242.791,84.7391 C242.791,84.1571 243.012,83.7414 243.428,83.4366 C244.01,83.0209 244.038,83.0209 244.121,83.8523 C244.204,84.656 244.287,84.7114 245.035,84.5451 Z" style="stroke:none;fill-rule:evenodd;fill:#4d4d4d;fill-opacity:1;"/>
        </g>
        <g id="Shape3">
            <desc shapeID="3" type="0" basicInfo-basicType="0" basicInfo-roundedRectRadius="12" basicInfo-polygonSides="6" basicInfo-starPoints="5" bounding="rect(-36.9702,-70.929,73.9406,141.858)" text="" font-familyName="" font-pixelSize="20" font-bold="0" font-underline="0" font-alignment="1" strokeStyle="0" markerStart="0" markerEnd="0" shadowEnabled="0" shadowOffsetX="0" shadowOffsetY="2" shadowBlur="4" shadowOpacity="160" blurEnabled="0" blurRadius="4" transform="matrix(0.260219,0,0,0.260219,523.936,73.4024)" pers-center="0,0" pers-size="0,0" pers-start="0,0" pers-end="0,0" locked="0" mesh="" flag=""/>
            <path id="shapePath3" d="M516.675,55.2056 C516.468,55.3356 515.999,55.4658 515.635,55.4658 C515.244,55.4658 514.828,55.5959 514.646,55.7781 C514.255,56.1684 514.178,91.246 514.594,91.5062 C514.958,91.7404 517.508,91.8445 518.055,91.6624 C518.523,91.5062 518.549,91.0118 518.497,83.1532 C518.497,78.3651 518.575,74.5139 518.732,74.1496 C519.252,72.7964 524.013,70.8447 525.914,71.183 C527.006,71.3912 528.906,73.1867 528.906,74.0194 C528.906,74.3577 529.01,74.7221 529.167,74.8781 C529.322,75.0343 529.452,78.4171 529.478,83.4394 L529.556,91.7664 L531.274,91.8445 C532.549,91.8965 533.07,91.8185 533.304,91.5322 C533.537,91.246 533.59,89.0341 533.537,82.3465 C533.46,73.7332 533.46,73.525 532.835,72.1719 C531.638,69.5437 529.687,68.3987 526.304,68.3987 C523.753,68.4247 521.62,68.9192 519.929,69.908 C518.992,70.4805 518.732,70.5325 518.627,70.2202 C518.523,70.012 518.497,69.7518 518.523,69.6217 C518.549,69.4916 518.549,66.1348 518.523,62.1534 L518.497,54.9453 L517.794,54.9453 C517.379,54.9453 516.884,55.0754 516.675,55.2056 Z" style="stroke:none;fill-rule:evenodd;fill:#4d4d4d;fill-opacity:1;"/>
        </g>
        <g id="Shape4">
            <desc shapeID="4" type="0" basicInfo-basicType="0" basicInfo-roundedRectRadius="12" basicInfo-polygonSides="6" basicInfo-starPoints="5" bounding="rect(-69.0753,-69.7845,138.151,139.569)" text="" font-familyName="" font-pixelSize="20" font-bold="0" font-underline="0" font-alignment="1" strokeStyle="0" markerStart="0" markerEnd="0" shadowEnabled="0" shadowOffsetX="0" shadowOffsetY="2" shadowBlur="4" shadowOpacity="160" blurEnabled="0" blurRadius="4" transform="matrix(0.260219,0,0,0.260219,406.567,74.2065)" pers-center="0,0" pers-size="0,0" pers-start="0,0" pers-end="0,0" locked="0" mesh="" flag=""/>
            <path id="shapePath4" d="M408.814,56.2725 C406.264,56.5848 403.662,57.3393 402.751,58.094 C401.32,59.213 401.034,60.1757 401.007,63.7928 L401.007,67.0456 L406.732,67.1757 C409.882,67.2798 412.484,67.3578 412.535,67.3838 C412.562,67.4098 412.588,67.6701 412.588,67.9303 C412.588,68.4247 412.302,68.4508 403.688,68.5288 L394.762,68.6068 L393.28,69.3355 C390.807,70.5325 390.027,71.7555 388.881,76.0231 C388.492,77.5324 388.492,83.3614 388.908,84.8706 C389.636,87.629 389.792,88.1754 390.235,89.0341 C390.756,90.101 391.822,91.1679 392.941,91.7144 C393.384,91.9226 394.944,92.1567 396.61,92.2609 C400.045,92.469 399.759,92.8073 399.811,88.3835 C399.837,86.7963 399.967,85.1048 400.123,84.6104 C400.722,82.7629 402.751,80.8372 404.833,80.1347 C405.328,79.9525 408.84,79.7703 413.16,79.6922 L420.602,79.5361 L421.721,78.7555 C422.346,78.313 423.205,77.4023 423.621,76.6997 L424.401,75.4506 L424.506,68.8671 C424.636,61.4769 424.48,60.514 422.944,58.8487 C421.539,57.3393 419.926,56.7148 416.361,56.3505 C412.848,55.9603 411.442,55.9603 408.814,56.2725 M407.565,60.5661 C408.112,61.1125 408.19,61.3988 408.06,62.1794 C407.774,63.9489 405.978,64.5995 404.677,63.4024 C403.844,62.6219 403.793,61.5289 404.547,60.5661 C405.275,59.6293 406.628,59.6293 407.565,60.5661 Z" style="stroke:none;fill-rule:evenodd;fill:#4d4d4d;fill-opacity:1;"/>
        </g>
        <g id="Shape5">
            <desc shapeID="5" type="0" basicInfo-basicType="0" basicInfo-roundedRectRadius="12" basicInfo-polygonSides="6" basicInfo-starPoints="5" bounding="rect(-37.0123,-37.1165,74.0246,74.233)" text="" font-familyName="" font-pixelSize="20" font-bold="0" font-underline="0" font-alignment="1" strokeStyle="0" markerStart="0" markerEnd="0" shadowEnabled="0" shadowOffsetX="0" shadowOffsetY="2" shadowBlur="4" shadowOpacity="160" blurEnabled="0" blurRadius="4" transform="matrix(0.277129,0,0,0.277129,29.3976,66.1483)" pers-center="0,0" pers-size="0,0" pers-start="0,0" pers-end="0,0" locked="0" mesh="" flag=""/>
            <path id="shapePath5" d="M19.3412,56.0562 C19.0087,56.3611 19.1195,69.1644 19.4521,69.1644 C19.5907,69.1644 20.8655,68.0282 22.2511,66.6426 L24.773,64.1484 L30.8975,70.2452 C35.9136,75.2336 37.1607,76.3421 37.8535,76.3975 C39.5163,76.5084 39.6548,76.4252 39.6548,75.3444 C39.6548,74.3745 39.2945,73.9588 33.5025,68.1391 C30.0939,64.7304 27.2949,61.8759 27.2394,61.8205 C27.184,61.7928 28.2925,60.6011 29.6782,59.1878 C31.2301,57.6359 32.1723,56.4996 32.0615,56.2779 C31.9506,55.9731 30.759,55.8899 25.7152,55.8622 C22.3065,55.8622 19.4244,55.9454 19.3412,56.0562 Z" style="stroke:none;fill-rule:evenodd;fill:#777777;fill-opacity:1;"/>
        </g>
        <g id="Shape6">
            <desc shapeID="6" type="0" basicInfo-basicType="0" basicInfo-roundedRectRadius="12" basicInfo-polygonSides="6" basicInfo-starPoints="5" bounding="rect(-20.0505,-29.9856,40.101,59.9713)" text="" font-familyName="" font-pixelSize="20" font-bold="0" font-underline="0" font-alignment="1" strokeStyle="0" markerStart="0" markerEnd="0" shadowEnabled="0" shadowOffsetX="0" shadowOffsetY="2" shadowBlur="4" shadowOpacity="160" blurEnabled="0" blurRadius="4" transform="matrix(0.277129,0,0,0.277129,34.1263,64.1801)" pers-center="0,0" pers-size="0,0" pers-start="0,0" pers-end="0,0" locked="0" mesh="" flag=""/>
            <path id="shapePath6" d="M34.1399,56.1116 C33.3917,56.5828 28.5697,61.488 28.5697,61.7651 C28.5697,62.2085 38.8789,72.49 39.2946,72.49 C39.7934,72.49 39.8211,56.6936 39.3223,56.1948 C38.9343,55.8068 34.7219,55.7514 34.1399,56.1116 Z" style="stroke:none;fill-rule:evenodd;fill:#4d4d4d;fill-opacity:1;"/>
        </g>
        <g id="Shape7">
            <desc shapeID="7" type="0" basicInfo-basicType="0" basicInfo-roundedRectRadius="12" basicInfo-polygonSides="6" basicInfo-starPoints="5" bounding="rect(-19.4994,-30.0001,38.9987,60.0002)" text="" font-familyName="" font-pixelSize="20" font-bold="0" font-underline="0" font-alignment="1" strokeStyle="0" markerStart="0" markerEnd="0" shadowEnabled="0" shadowOffsetX="0" shadowOffsetY="2" shadowBlur="4" shadowOpacity="160" blurEnabled="0" blurRadius="4" transform="matrix(0.277129,0,0,0.277129,51.7102,64.1761)" pers-center="0,0" pers-size="0,0" pers-start="0,0" pers-end="0,0" locked="0" mesh="" flag=""/>
            <path id="shapePath7" d="M46.4999,56.0562 C46.1951,56.3334 46.2782,72.49 46.5553,72.49 C46.9987,72.49 57.114,62.2085 57.114,61.7928 C57.114,61.5711 55.8392,60.13 54.2872,58.6335 L51.4605,55.8622 L49.0772,55.8622 C47.747,55.8622 46.583,55.9454 46.4999,56.0562 Z" style="stroke:none;fill-rule:evenodd;fill:#4d4d4d;fill-opacity:1;"/>
        </g>
        <g id="Shape8">
            <desc shapeID="8" type="0" basicInfo-basicType="0" basicInfo-roundedRectRadius="12" basicInfo-polygonSides="6" basicInfo-starPoints="5" bounding="rect(-37.4122,-37.2548,74.8243,74.5096)" text="" font-familyName="" font-pixelSize="20" font-bold="0" font-underline="0" font-alignment="1" strokeStyle="0" markerStart="0" markerEnd="0" shadowEnabled="0" shadowOffsetX="0" shadowOffsetY="2" shadowBlur="4" shadowOpacity="160" blurEnabled="0" blurRadius="4" transform="matrix(0.277129,0,0,0.277129,56.6739,66.2231)" pers-center="0,0" pers-size="0,0" pers-start="0,0" pers-end="0,0" locked="0" mesh="" flag=""/>
            <path id="shapePath8" d="M53.5113,56.2225 C53.5113,56.4165 54.6475,57.6913 56.0054,59.0492 C57.3911,60.4072 58.4996,61.5988 58.4996,61.6819 C58.4996,61.7651 55.756,64.5918 52.4028,67.9451 C46.4168,73.9034 46.3059,74.0419 46.3059,75.1781 C46.3059,76.2035 46.3891,76.3421 47.0819,76.5084 C47.5253,76.5915 48.1627,76.5361 48.5507,76.3975 C48.9109,76.2589 51.9039,73.4322 55.1741,70.1621 L61.1323,64.1761 L63.8205,66.8643 C65.6773,68.721 66.6195,69.4693 66.8135,69.2753 C67.0075,69.0813 67.0629,66.698 67.0352,62.4856 L66.952,56.0008 L60.2455,55.9177 C54.8969,55.8622 53.5113,55.9177 53.5113,56.2225 Z" style="stroke:none;fill-rule:evenodd;fill:#777777;fill-opacity:1;"/>
        </g>
        <g id="Shape9">
            <desc shapeID="9" type="0" basicInfo-basicType="0" basicInfo-roundedRectRadius="12" basicInfo-polygonSides="6" basicInfo-starPoints="5" bounding="rect(-21.6185,-60.2885,43.2368,120.577)" text="" font-familyName="" font-pixelSize="20" font-bold="0" font-underline="0" font-alignment="1" strokeStyle="0" markerStart="0" markerEnd="0" shadowEnabled="0" shadowOffsetX="0" shadowOffsetY="2" shadowBlur="4" shadowOpacity="160" blurEnabled="0" blurRadius="4" transform="matrix(0.260219,0,0,0.260219,504.415,76.4324)" pers-center="0,0" pers-size="0,0" pers-start="0,0" pers-end="0,0" locked="0" mesh="" flag=""/>
            <path id="shapePath9" d="M503.665,61.1646 C501.505,61.9712 501.609,61.7631 501.531,65.2241 L501.452,68.3466 L500.334,68.3727 C498.877,68.3987 498.59,68.685 498.903,69.96 C499.111,70.9228 499.163,70.9489 500.359,71.0269 L501.583,71.105 L501.583,79.432 C501.583,87.1605 501.609,87.8371 502.077,88.7478 C503.17,90.8817 505.851,92.2869 508.479,92.1047 L509.779,92.0267 L509.858,90.9077 C509.936,89.8928 509.91,89.8148 509.259,89.8148 C508.244,89.8148 506.579,88.852 506.137,87.9933 C505.824,87.3687 505.746,85.8855 505.746,79.1458 L505.746,71.079 L507.672,71.079 C508.739,71.079 509.676,71.0009 509.728,70.8708 C509.806,70.7667 509.91,70.2202 509.962,69.6477 L510.04,68.6068 L507.88,68.5288 L505.746,68.4508 L505.746,64.9638 C505.746,60.2798 505.773,60.3579 503.665,61.1646 Z" style="stroke:none;fill-rule:evenodd;fill:#4d4d4d;fill-opacity:1;"/>
        </g>
        <g id="Shape10">
            <desc shapeID="10" type="0" basicInfo-basicType="0" basicInfo-roundedRectRadius="12" basicInfo-polygonSides="6" basicInfo-starPoints="5" bounding="rect(-30.3565,-20.1677,60.7132,40.3355)" text="" font-familyName="" font-pixelSize="20" font-bold="0" font-underline="0" font-alignment="1" strokeStyle="0" markerStart="0" markerEnd="0" shadowEnabled="0" shadowOffsetX="0" shadowOffsetY="2" shadowBlur="4" shadowOpacity="160" blurEnabled="0" blurRadius="4" transform="matrix(0.277129,0,0,0.277129,58.6779,70.7906)" pers-center="0,0" pers-size="0,0" pers-start="0,0" pers-end="0,0" locked="0" mesh="" flag=""/>
            <path id="shapePath10" d="M55.5898,70.6332 C52.569,73.6262 50.158,76.1758 50.2689,76.2589 C50.4629,76.4529 66.5364,76.3975 66.8689,76.2035 C66.9798,76.1204 67.0906,74.9842 67.0906,73.6816 L67.0906,71.2983 L64.0699,68.2499 L61.0769,65.2015 L55.5898,70.6332 Z" style="stroke:none;fill-rule:evenodd;fill:#4d4d4d;fill-opacity:1;"/>
        </g>
        <g id="Shape11">
            <desc shapeID="11" type="0" basicInfo-basicType="0" basicInfo-roundedRectRadius="12" basicInfo-polygonSides="6" basicInfo-starPoints="5" bounding="rect(-29.4035,-19.5461,58.807,39.0924)" text="" font-familyName="" font-pixelSize="20" font-bold="0" font-underline="0" font-alignment="1" strokeStyle="0" markerStart="0" markerEnd="0" shadowEnabled="0" shadowOffsetX="0" shadowOffsetY="2" shadowBlur="4" shadowOpacity="160" blurEnabled="0" blurRadius="4" transform="matrix(0.277129,0,0,0.277129,27.2959,70.9786)" pers-center="0,0" pers-size="0,0" pers-start="0,0" pers-end="0,0" locked="0" mesh="" flag=""/>
            <path id="shapePath11" d="M21.8354,68.2776 L19.1473,70.9658 L19.1473,73.6816 C19.1473,75.6493 19.2304,76.3698 19.5075,76.3698 C22.2788,76.4529 35.3593,76.3144 35.4425,76.2312 C35.6087,76.0927 25.0224,65.5618 24.7453,65.5618 C24.6344,65.5618 23.3319,66.7811 21.8354,68.2776 Z" style="stroke:none;fill-rule:evenodd;fill:#4d4d4d;fill-opacity:1;"/>
        </g>
        <g id="Shape12">
            <desc shapeID="12" type="0" basicInfo-basicType="0" basicInfo-roundedRectRadius="12" basicInfo-polygonSides="6" basicInfo-starPoints="5" bounding="rect(-41.3145,-46.7134,82.629,93.4269)" text="" font-familyName="" font-pixelSize="20" font-bold="0" font-underline="0" font-alignment="1" strokeStyle="0" markerStart="0" markerEnd="0" shadowEnabled="0" shadowOffsetX="0" shadowOffsetY="2" shadowBlur="4" shadowOpacity="160" blurEnabled="0" blurRadius="4" transform="matrix(0.260219,0,0,0.260219,547.697,79.9674)" pers-center="0,0" pers-size="0,0" pers-start="0,0" pers-end="0,0" locked="0" mesh="" flag=""/>
            <path id="shapePath12" d="M546.211,67.8523 C542.854,68.2946 539.419,70.8447 538.092,73.9154 C536.999,76.4655 536.634,80.551 537.233,83.3093 C537.883,86.1717 539.757,89.2163 541.709,90.5434 C543.739,91.8965 545.014,92.2088 547.98,92.1047 C550.27,92.0267 550.843,91.9226 552.143,91.298 C555.266,89.7367 557.4,86.7181 558.181,82.6587 C559.144,77.6105 557.452,72.4321 553.939,69.8039 C553.288,69.3095 552.221,68.711 551.545,68.4768 C550.244,68.0083 547.538,67.6961 546.211,67.8523 M549.802,71.2091 C550.868,71.6514 552.534,73.2388 552.898,74.2016 C553.549,75.867 553.887,77.7926 553.887,79.9265 C553.887,86.6921 551.181,90.153 546.419,89.4245 C544.727,89.1642 543.062,87.4208 542.177,84.9747 C541.604,83.3614 541.526,82.7889 541.553,79.5361 C541.553,76.3354 541.631,75.7369 542.151,74.5919 C542.879,72.9786 543.296,72.5102 544.754,71.5474 C545.69,70.9749 546.211,70.8187 547.407,70.8187 C548.214,70.8187 549.307,71.0009 549.802,71.2091 Z" style="stroke:none;fill-rule:evenodd;fill:#4d4d4d;fill-opacity:1;"/>
        </g>
        <g id="Shape13">
            <desc shapeID="13" type="0" basicInfo-basicType="0" basicInfo-roundedRectRadius="12" basicInfo-polygonSides="6" basicInfo-starPoints="5" bounding="rect(-36.4523,-46.1071,72.9048,92.2141)" text="" font-familyName="" font-pixelSize="20" font-bold="0" font-underline="0" font-alignment="1" strokeStyle="0" markerStart="0" markerEnd="0" shadowEnabled="0" shadowOffsetX="0" shadowOffsetY="2" shadowBlur="4" shadowOpacity="160" blurEnabled="0" blurRadius="4" transform="matrix(0.260219,0,0,0.260219,571.171,79.8482)" pers-center="0,0" pers-size="0,0" pers-start="0,0" pers-end="0,0" locked="0" mesh="" flag=""/>
            <path id="shapePath13" d="M570.801,67.9563 C568.381,68.2426 567.288,68.5808 564.92,69.7779 C561.355,71.5734 561.694,70.3243 561.694,81.6179 C561.694,91.1159 561.719,91.3761 562.214,91.6364 C562.787,91.9486 565.051,91.8965 565.493,91.5842 C565.701,91.4282 565.805,88.6178 565.831,81.9822 C565.857,76.8038 565.935,72.4842 566.013,72.328 C566.091,72.1979 566.768,71.8076 567.497,71.4432 C568.615,70.8968 569.24,70.7667 571.14,70.7667 C573.273,70.7407 573.456,70.7667 574.393,71.4953 C574.913,71.9377 575.615,72.7964 575.953,73.4209 C576.5,74.5399 576.526,74.7741 576.526,82.971 C576.526,92.4951 576.344,91.8445 578.816,91.7404 C579.545,91.7144 580.3,91.6884 580.429,91.6624 C580.638,91.6364 580.689,88.5397 580.638,81.9301 C580.56,73.1087 580.507,72.1719 580.091,71.3652 C578.634,68.711 575.199,67.4619 570.801,67.9563 Z" style="stroke:none;fill-rule:evenodd;fill:#4d4d4d;fill-opacity:1;"/>
        </g>
        <g id="Shape14">
            <desc shapeID="14" type="0" basicInfo-basicType="0" basicInfo-roundedRectRadius="12" basicInfo-polygonSides="6" basicInfo-starPoints="5" bounding="rect(-34.4015,-46.7456,68.8031,93.4912)" text="" font-familyName="" font-pixelSize="20" font-bold="0" font-underline="0" font-alignment="1" strokeStyle="0" markerStart="0" markerEnd="0" shadowEnabled="0" shadowOffsetX="0" shadowOffsetY="2" shadowBlur="4" shadowOpacity="160" blurEnabled="0" blurRadius="4" transform="matrix(0.277129,0,0,0.277129,319.43,79.9694)" pers-center="0,0" pers-size="0,0" pers-start="0,0" pers-end="0,0" locked="0" mesh="" flag=""/>
            <path id="shapePath14" d="M317.061,67.2522 C314.65,67.7234 312.267,69.4416 311.158,71.52 C310.355,73.0442 310.355,75.5384 311.186,77.0903 C312.322,79.2796 314.844,80.9424 319.001,82.2172 C322.742,83.3812 324.211,84.7945 323.463,86.5404 C322.881,87.8984 321.911,88.3695 319.694,88.3972 C317.92,88.3972 317.588,88.3141 316.701,87.6489 C316.119,87.2056 315.592,86.485 315.398,85.8753 C314.816,84.1017 314.428,83.8523 312.35,83.8523 C310.05,83.8523 309.717,84.1571 309.967,85.9862 C310.438,89.4226 313.902,92.3324 318.197,92.859 C320.137,93.1084 323.407,92.6096 324.848,91.889 C328.257,90.1431 329.865,86.291 328.451,83.2149 C327.26,80.6376 325.015,79.0302 320.664,77.6723 C316.645,76.3975 315.343,75.1781 316.091,73.4045 C316.645,72.102 317.671,71.5755 319.528,71.5755 C321.523,71.5755 322.687,72.296 323.158,73.8202 C323.823,75.8987 324.073,76.0927 326.179,76.0927 C327.647,76.0927 328.146,75.9818 328.507,75.5938 C329.116,74.9287 329.089,74.4853 328.396,72.6008 C326.844,68.4716 322.188,66.2546 317.061,67.2522 Z" style="stroke:none;fill-rule:evenodd;fill:#4d4d4d;fill-opacity:1;"/>
        </g>
        <g id="Shape15">
            <desc shapeID="15" type="0" basicInfo-basicType="0" basicInfo-roundedRectRadius="12" basicInfo-polygonSides="6" basicInfo-starPoints="5" bounding="rect(-39.4996,-68.3435,78.9993,136.687)" text="" font-familyName="" font-pixelSize="20" font-bold="0" font-underline="0" font-alignment="1" strokeStyle="0" markerStart="0" markerEnd="0" shadowEnabled="0" shadowOffsetX="0" shadowOffsetY="2" shadowBlur="4" shadowOpacity="160" blurEnabled="0" blurRadius="4" transform="matrix(0.260219,0,0,0.260219,460.859,85.765)" pers-center="0,0" pers-size="0,0" pers-start="0,0" pers-end="0,0" locked="0" mesh="" flag=""/>
            <path id="shapePath15" d="M456.695,68.4508 C454.666,69.0232 452.011,70.4544 451.205,71.3912 L450.58,72.1719 L450.58,87.2126 C450.58,98.9225 450.658,102.305 450.918,102.513 C451.438,102.93 454.145,103.684 454.561,103.528 C454.926,103.398 454.977,102.513 454.977,97.0749 C454.977,93.6139 455.03,90.7255 455.108,90.6735 C455.186,90.5954 455.628,90.6995 456.097,90.9337 C458.49,92.0527 459.089,92.1827 461.379,92.2087 C464.033,92.2087 465.517,91.7404 467.39,90.2051 C469.472,88.4876 471.111,84.168 471.137,80.3167 C471.137,76.2573 469.472,71.6254 467.39,69.908 C465.282,68.2165 464.45,67.9563 461.196,67.9823 C459.297,68.0083 457.71,68.1645 456.695,68.4508 M463.513,71.5213 C465.543,73.0566 466.193,75.1384 466.219,80.1346 C466.219,83.4134 466.167,84.0639 465.646,85.339 C465.334,86.1717 464.762,87.1605 464.397,87.5768 C463.513,88.5397 461.9,89.2943 460.598,89.2943 C459.297,89.2943 456.383,88.3835 455.55,87.707 L454.926,87.1866 L454.9,79.9004 C454.873,75.867 454.926,72.4842 455.004,72.354 C455.264,71.9377 457.736,70.9749 458.907,70.8447 C460.963,70.5845 462.576,70.8187 463.513,71.5213 Z" style="stroke:none;fill-rule:evenodd;fill:#4d4d4d;fill-opacity:1;"/>
        </g>
        <g id="Shape16">
            <desc shapeID="16" type="0" basicInfo-basicType="0" basicInfo-roundedRectRadius="12" basicInfo-polygonSides="6" basicInfo-starPoints="5" bounding="rect(-37.7514,-68.7919,75.5028,137.584)" text="" font-familyName="" font-pixelSize="20" font-bold="0" font-underline="0" font-alignment="1" strokeStyle="0" markerStart="0" markerEnd="0" shadowEnabled="0" shadowOffsetX="0" shadowOffsetY="2" shadowBlur="4" shadowOpacity="160" blurEnabled="0" blurRadius="4" transform="matrix(0.260219,0,0,0.260219,484.994,85.8528)" pers-center="0,0" pers-size="0,0" pers-start="0,0" pers-end="0,0" locked="0" mesh="" flag=""/>
            <path id="shapePath16" d="M477.825,68.1385 C477.721,68.2165 477.07,68.5028 476.394,68.711 L475.17,69.1273 L475.17,78.105 C475.17,86.8743 475.197,87.1085 475.743,88.1493 C476.523,89.6067 478.345,91.1419 479.933,91.6884 C480.739,91.9746 481.988,92.1567 483.237,92.1567 C485.189,92.1567 485.658,92.0787 488.884,91.194 C491.07,90.5955 491.122,90.6475 490.862,93.3538 C490.602,96.4504 490.237,97.4653 489.04,98.5582 C487.791,99.6767 487.271,99.8851 484.148,100.614 C481.754,101.16 481.677,101.213 481.598,101.967 C481.546,102.409 481.702,102.956 481.988,103.295 C482.457,103.866 482.483,103.866 484.669,103.502 C489.144,102.773 492.189,101.004 493.542,98.402 C494.713,96.1901 494.791,94.8631 494.818,81.3056 C494.818,73.0827 494.713,68.4768 494.557,68.4247 C494.427,68.3727 493.516,68.3987 492.554,68.4768 L490.784,68.6068 L490.732,77.1941 C490.679,81.9041 490.653,86.1457 490.653,86.5881 C490.653,87.3167 490.497,87.4728 488.962,88.2535 C487.635,88.93 486.854,89.1382 485.371,89.2163 C483.706,89.3204 483.341,89.2683 482.066,88.5918 C480.011,87.5508 479.568,86.7442 479.334,83.6476 C479.229,82.2424 479.178,78.287 479.204,74.8521 C479.256,71.4172 479.256,68.4508 479.229,68.2686 C479.204,67.9303 478.111,67.8263 477.825,68.1385 Z" style="stroke:none;fill-rule:evenodd;fill:#4d4d4d;fill-opacity:1;"/>
        </g>
        <g id="Shape17">
            <desc shapeID="17" type="0" basicInfo-basicType="0" basicInfo-roundedRectRadius="12" basicInfo-polygonSides="6" basicInfo-starPoints="5" bounding="rect(-32.4993,-45.9943,64.9986,91.9886)" text="" font-familyName="" font-pixelSize="20" font-bold="0" font-underline="0" font-alignment="1" strokeStyle="0" markerStart="0" markerEnd="0" shadowEnabled="0" shadowOffsetX="0" shadowOffsetY="2" shadowBlur="4" shadowOpacity="160" blurEnabled="0" blurRadius="4" transform="matrix(0.277129,0,0,0.277129,278.125,79.9684)" pers-center="0,0" pers-size="0,0" pers-start="0,0" pers-end="0,0" locked="0" mesh="" flag=""/>
            <path id="shapePath17" d="M269.423,67.7234 C269.229,68.1113 269.118,72.0466 269.118,80.0833 C269.118,90.7528 269.173,91.889 269.589,92.3047 C270.005,92.7204 270.642,92.7758 275.326,92.665 C279.676,92.5541 280.84,92.4433 281.866,92.0276 C285.468,90.5311 287.104,88.3141 287.131,85.0162 C287.131,83.0209 286.577,81.6907 285.108,80.1942 L284.194,79.2242 L285.108,78.1711 C287.436,75.4553 286.826,71.3815 283.75,69.109 C281.783,67.6402 280.73,67.4185 275.021,67.28 C269.894,67.1691 269.728,67.1691 269.423,67.7234 M279.178,72.0466 C280.757,72.6286 281.311,73.2382 281.311,74.4299 C281.311,75.1227 281.117,75.6216 280.702,76.0095 C279.593,77.0072 278.9,77.2012 276.628,77.2012 L274.383,77.2012 L274.383,74.4299 L274.383,71.6586 L276.268,71.6586 C277.293,71.6863 278.596,71.8526 279.178,72.0466 M280.175,82.1895 C280.813,82.4944 281.422,83.0763 281.699,83.686 C282.281,84.9054 282.254,85.1825 281.589,86.291 C280.757,87.6212 279.15,88.2864 276.545,88.2864 L274.383,88.2864 L274.383,84.9608 L274.383,81.6353 L276.739,81.6353 C278.54,81.6353 279.372,81.7738 280.175,82.1895 Z" style="stroke:none;fill-rule:evenodd;fill:#4d4d4d;fill-opacity:1;"/>
        </g>
        <g id="Shape18">
            <desc shapeID="18" type="0" basicInfo-basicType="0" basicInfo-roundedRectRadius="12" basicInfo-polygonSides="6" basicInfo-starPoints="5" bounding="rect(-36.1457,-45.9782,72.2915,91.9564)" text="" font-familyName="" font-pixelSize="20" font-bold="0" font-underline="0" font-alignment="1" strokeStyle="0" markerStart="0" markerEnd="0" shadowEnabled="0" shadowOffsetX="0" shadowOffsetY="2" shadowBlur="4" shadowOpacity="160" blurEnabled="0" blurRadius="4" transform="matrix(0.277129,0,0,0.277129,298.578,79.9664)" pers-center="0,0" pers-size="0,0" pers-start="0,0" pers-end="0,0" locked="0" mesh="" flag=""/>
            <path id="shapePath18" d="M296.581,67.8065 C296.304,68.1113 295.972,68.8319 295.861,69.3584 C295.778,69.9127 295.584,70.5501 295.445,70.7995 C295.307,71.0489 294.253,74.0419 293.117,77.4783 C291.981,80.9147 290.484,85.3211 289.792,87.3164 C288.434,91.1685 288.267,92.277 288.96,92.5541 C289.57,92.7758 292.757,92.7481 293.117,92.4987 C293.283,92.3879 293.755,91.2794 294.143,90.0046 C295.307,86.3465 294.974,86.6236 298.715,86.6236 L301.958,86.6236 L302.9,89.5334 C303.953,92.8036 303.953,92.8036 306.641,92.665 C307.805,92.6096 308.359,92.4433 308.553,92.1107 C308.803,91.7505 307.971,88.9792 304.895,79.7231 C302.706,73.1828 300.794,67.6956 300.627,67.5294 C300.461,67.3631 299.602,67.2245 298.715,67.2245 C297.468,67.2245 297.025,67.3354 296.581,67.8065 M299.741,79.5568 C300.129,80.7207 300.433,81.7461 300.433,81.8015 C300.433,81.857 299.63,81.9124 298.66,81.9124 L296.886,81.9124 L297.136,80.8593 C297.302,80.305 297.607,79.2797 297.856,78.5868 C298.078,77.894 298.327,77.1458 298.41,76.9241 C298.577,76.3421 298.854,76.8686 299.741,79.5568 Z" style="stroke:none;fill-rule:evenodd;fill:#4d4d4d;fill-opacity:1;"/>
        </g>
        <g id="Shape19">
            <desc shapeID="19" type="0" basicInfo-basicType="0" basicInfo-roundedRectRadius="12" basicInfo-polygonSides="6" basicInfo-starPoints="5" bounding="rect(-32.5108,-46.1089,65.0214,92.2179)" text="" font-familyName="" font-pixelSize="20" font-bold="0" font-underline="0" font-alignment="1" strokeStyle="0" markerStart="0" markerEnd="0" shadowEnabled="0" shadowOffsetX="0" shadowOffsetY="2" shadowBlur="4" shadowOpacity="160" blurEnabled="0" blurRadius="4" transform="matrix(0.277129,0,0,0.277129,339.928,79.9725)" pers-center="0,0" pers-size="0,0" pers-start="0,0" pers-end="0,0" locked="0" mesh="" flag=""/>
            <path id="shapePath19" d="M331.361,67.6679 C330.973,68.0559 330.918,69.5524 330.918,79.9725 C330.918,90.3925 330.973,91.889 331.361,92.277 C331.915,92.8313 335.13,92.8867 335.601,92.3601 C335.767,92.1384 335.934,90.1154 335.961,87.0116 L336.045,82.0509 L340.008,81.9678 L343.943,81.8847 L343.943,87.0116 C343.943,92.9144 343.86,92.7204 346.548,92.7204 C349.18,92.7204 348.931,93.9952 348.931,79.9725 C348.931,65.9497 349.18,67.2245 346.548,67.2245 C343.86,67.2245 343.943,67.086 343.943,72.6285 L343.943,77.4783 L340.091,77.4783 C336.848,77.4783 336.211,77.4229 336.072,77.0349 C335.989,76.7855 335.906,74.6516 335.906,72.2406 C335.906,69.2199 335.795,67.7788 335.573,67.5571 C335.075,67.0583 331.888,67.1414 331.361,67.6679 Z" style="stroke:none;fill-rule:evenodd;fill:#4d4d4d;fill-opacity:1;"/>
        </g>
        <g id="Shape20">
            <desc shapeID="20" type="0" basicInfo-basicType="0" basicInfo-roundedRectRadius="12" basicInfo-polygonSides="6" basicInfo-starPoints="5" bounding="rect(-27,-32.0504,54,64.1009)" text="" font-familyName="" font-pixelSize="20" font-bold="0" font-underline="0" font-alignment="1" strokeStyle="0" markerStart="0" markerEnd="0" shadowEnabled="0" shadowOffsetX="0" shadowOffsetY="2" shadowBlur="4" shadowOpacity="160" blurEnabled="0" blurRadius="4" transform="matrix(0.277129,0,0,0.277129,85.3812,79.8477)" pers-center="0,0" pers-size="0,0" pers-start="0,0" pers-end="0,0" locked="0" mesh="" flag=""/>
            <path id="shapePath20" d="M84.2449,71.2152 C79.9494,72.0189 77.8987,74.901 77.8987,80.111 C77.8987,82.8823 78.1758,83.88 79.4783,85.9585 C80.1157,87.0116 80.6977,87.5658 81.6953,88.0369 C82.9147,88.6466 83.3581,88.702 87.5982,88.7298 C90.1201,88.7298 92.3371,88.702 92.5311,88.6189 C92.9745,88.4803 92.9745,86.0139 92.5311,85.5705 C92.3094,85.3488 90.9514,85.2379 88.291,85.2379 C84.5775,85.2379 84.3281,85.2102 83.8015,84.6283 C82.693,83.4089 82.499,82.6883 82.499,79.9725 C82.499,77.2843 82.7207,76.5084 83.8015,75.3167 C84.3281,74.7347 84.5775,74.707 88.485,74.707 L92.5865,74.707 L92.5865,72.9057 L92.5865,71.1043 L90.1201,71.1043 C88.7621,71.1043 87.321,71.0489 86.8776,70.9935 C86.4342,70.9104 85.2426,71.0212 84.2449,71.2152 Z" style="stroke:none;fill-rule:evenodd;fill:#4d4d4d;fill-opacity:1;"/>
        </g>
        <g id="Shape21">
            <desc shapeID="21" type="0" basicInfo-basicType="0" basicInfo-roundedRectRadius="12" basicInfo-polygonSides="6" basicInfo-starPoints="5" bounding="rect(-34.7084,-32.9508,69.4168,65.9017)" text="" font-familyName="" font-pixelSize="20" font-bold="0" font-underline="0" font-alignment="1" strokeStyle="0" markerStart="0" markerEnd="0" shadowEnabled="0" shadowOffsetX="0" shadowOffsetY="2" shadowBlur="4" shadowOpacity="160" blurEnabled="0" blurRadius="4" transform="matrix(0.277129,0,0,0.277129,141.281,79.9861)" pers-center="0,0" pers-size="0,0" pers-start="0,0" pers-end="0,0" locked="0" mesh="" flag=""/>
            <path id="shapePath21" d="M137.62,71.1598 C135.237,71.9634 133.99,72.8503 132.881,74.5685 C131.967,75.9818 131.662,77.2566 131.662,79.8339 C131.662,86.0416 134.821,89.1177 141.223,89.1177 C145.906,89.09 148.927,87.5935 150.257,84.6282 C150.839,83.3257 150.922,82.7438 150.895,79.6953 C150.895,77.0626 150.784,75.9818 150.423,75.2336 C148.982,72.0466 146.433,70.8272 141.361,70.8549 C139.754,70.8549 138.091,70.9935 137.62,71.1598 M143.883,74.7902 C145.49,75.5938 146.183,77.1458 146.183,79.9725 C146.183,83.492 145.518,84.656 142.969,85.5428 C141.749,85.9585 139.2,85.5151 138.008,84.656 C135.957,83.2149 135.763,77.8109 137.675,75.6493 C139.006,74.0973 141.694,73.7371 143.883,74.7902 Z" style="stroke:none;fill-rule:evenodd;fill:#4d4d4d;fill-opacity:1;"/>
        </g>
        <g id="Shape22">
            <desc shapeID="22" type="0" basicInfo-basicType="0" basicInfo-roundedRectRadius="12" basicInfo-polygonSides="6" basicInfo-starPoints="5" bounding="rect(-34.6846,-32.0719,69.3692,64.1438)" text="" font-familyName="" font-pixelSize="20" font-bold="0" font-underline="0" font-alignment="1" strokeStyle="0" markerStart="0" markerEnd="0" shadowEnabled="0" shadowOffsetX="0" shadowOffsetY="2" shadowBlur="4" shadowOpacity="160" blurEnabled="0" blurRadius="4" transform="matrix(0.277129,0,0,0.277129,161.817,79.9292)" pers-center="0,0" pers-size="0,0" pers-start="0,0" pers-end="0,0" locked="0" mesh="" flag=""/>
            <path id="shapePath22" d="M157.241,71.1598 C155.162,71.5755 154.913,71.6863 153.998,72.6008 C151.172,75.3167 151.754,79.0025 155.273,80.8316 C156.132,81.275 156.908,81.3581 160.123,81.3581 C164.806,81.3581 165.832,81.7184 165.97,83.3535 C166.109,85.0994 165.665,85.2379 159.375,85.2379 C155.523,85.2379 153.86,85.3211 153.61,85.5705 C153.416,85.7645 153.278,86.4296 153.278,87.0947 C153.278,88.0092 153.416,88.3418 153.86,88.5912 C154.275,88.7852 156.465,88.8683 161.01,88.7852 C166.525,88.702 167.689,88.6189 168.437,88.2032 C171.873,86.3742 172.483,81.4967 169.573,79.3351 C168.104,78.2543 166.996,78.0326 163.06,78.0326 C160.954,78.0326 159.098,77.894 158.793,77.7277 C158.044,77.3398 157.629,76.2035 157.989,75.5107 C158.654,74.319 159.652,74.0973 164.89,74.1805 C167.605,74.2082 169.961,74.1528 170.127,74.0419 C170.571,73.7648 170.571,71.4092 170.127,71.2429 C169.49,71.0212 158.294,70.9658 157.241,71.1598 Z" style="stroke:none;fill-rule:evenodd;fill:#4d4d4d;fill-opacity:1;"/>
        </g>
        <g id="Shape23">
            <desc shapeID="23" type="0" basicInfo-basicType="0" basicInfo-roundedRectRadius="12" basicInfo-polygonSides="6" basicInfo-starPoints="5" bounding="rect(-17.0498,-31.7559,34.0996,63.5118)" text="" font-familyName="" font-pixelSize="20" font-bold="0" font-underline="0" font-alignment="1" strokeStyle="0" markerStart="0" markerEnd="0" shadowEnabled="0" shadowOffsetX="0" shadowOffsetY="2" shadowBlur="4" shadowOpacity="160" blurEnabled="0" blurRadius="4" transform="matrix(0.277129,0,0,0.277129,125.856,79.9385)" pers-center="0,0" pers-size="0,0" pers-start="0,0" pers-end="0,0" locked="0" mesh="" flag=""/>
            <path id="shapePath23" d="M123.542,71.2706 C123.431,71.3815 123.348,72.3791 123.348,73.5154 L123.348,75.5384 L122.572,75.5384 C121.602,75.5384 121.131,75.9818 121.131,76.9518 C121.131,78.2543 121.408,78.5868 122.406,78.5868 L123.348,78.5868 L123.348,81.8847 C123.348,83.686 123.486,85.5705 123.653,86.097 C124.373,88.2032 126.036,89.0346 128.835,88.6466 C130.359,88.4249 130.415,88.3972 130.415,87.5935 C130.442,86.2356 130.082,85.7922 129.029,85.7922 C127.505,85.7922 127.2,85.0439 127.283,81.6075 L127.366,78.7254 L128.974,78.6423 L130.581,78.5591 L130.498,77.118 L130.415,75.677 L128.89,75.5384 L127.366,75.3998 L127.228,73.3214 L127.089,71.2429 L125.426,71.1598 C124.484,71.1043 123.653,71.1598 123.542,71.2706 Z" style="stroke:none;fill-rule:evenodd;fill:#4d4d4d;fill-opacity:1;"/>
        </g>
        <g id="Shape24">
            <desc shapeID="24" type="0" basicInfo-basicType="0" basicInfo-roundedRectRadius="12" basicInfo-polygonSides="6" basicInfo-starPoints="5" bounding="rect(-52.1501,-26.7069,104.3,53.4139)" text="" font-familyName="" font-pixelSize="20" font-bold="0" font-underline="0" font-alignment="1" strokeStyle="0" markerStart="0" markerEnd="0" shadowEnabled="0" shadowOffsetX="0" shadowOffsetY="2" shadowBlur="4" shadowOpacity="160" blurEnabled="0" blurRadius="4" transform="matrix(0.277129,0,0,0.277129,25.0085,79.8913)" pers-center="0,0" pers-size="0,0" pers-start="0,0" pers-end="0,0" locked="0" mesh="" flag=""/>
            <path id="shapePath24" d="M13.9649,75.9541 C12.0805,77.8386 10.5562,79.5568 10.5562,79.7785 C10.5562,80.2773 17.7616,87.4827 18.0665,87.2887 C18.205,87.2056 18.3159,86.0416 18.3159,84.656 L18.3159,82.1895 L27.7105,82.1895 L37.1052,82.1895 L38.2969,81.0533 L39.4608,79.9448 L38.2692,78.7254 L37.0498,77.4783 L27.766,77.4229 L18.4544,77.3397 L18.3713,74.901 C18.3159,72.8225 18.2327,72.49 17.817,72.49 C17.5676,72.5177 15.8217,74.0696 13.9649,75.9541 Z" style="stroke:none;fill-rule:evenodd;fill:#777777;fill-opacity:1;"/>
        </g>
        <g id="Shape25">
            <desc shapeID="25" type="0" basicInfo-basicType="0" basicInfo-roundedRectRadius="12" basicInfo-polygonSides="6" basicInfo-starPoints="5" bounding="rect(-52.0002,-26.4999,104,52.9999)" text="" font-familyName="" font-pixelSize="20" font-bold="0" font-underline="0" font-alignment="1" strokeStyle="0" markerStart="0" markerEnd="0" shadowEnabled="0" shadowOffsetX="0" shadowOffsetY="2" shadowBlur="4" shadowOpacity="160" blurEnabled="0" blurRadius="4" transform="matrix(0.277129,0,0,0.277129,60.9938,79.8339)" pers-center="0,0" pers-size="0,0" pers-start="0,0" pers-end="0,0" locked="0" mesh="" flag=""/>
            <path id="shapePath25" d="M67.5894,74.901 L67.5063,77.3397 L58.0839,77.4229 L48.6892,77.4783 L47.6361,78.5037 C47.0542,79.0579 46.583,79.6676 46.583,79.8616 C46.583,80.0279 47.0819,80.6376 47.6916,81.1918 L48.8001,82.1895 L58.0562,82.1895 C66.2315,82.1895 67.34,82.2449 67.4786,82.6329 C67.5617,82.8823 67.6449,83.9908 67.6449,85.1271 C67.6449,86.679 67.728,87.1778 68.0328,87.1778 C68.4763,87.1778 75.4045,80.305 75.4045,79.8616 C75.4045,79.4459 68.4208,72.49 68.0051,72.49 C67.7834,72.49 67.6449,73.2659 67.5894,74.901 Z" style="stroke:none;fill-rule:evenodd;fill:#777777;fill-opacity:1;"/>
        </g>
        <g id="Shape26">
            <desc shapeID="26" type="0" basicInfo-basicType="0" basicInfo-roundedRectRadius="12" basicInfo-polygonSides="6" basicInfo-starPoints="5" bounding="rect(-21.1533,-23.7791,42.3066,47.5581)" text="" font-familyName="" font-pixelSize="20" font-bold="0" font-underline="0" font-alignment="1" strokeStyle="0" markerStart="0" markerEnd="0" shadowEnabled="0" shadowOffsetX="0" shadowOffsetY="2" shadowBlur="4" shadowOpacity="160" blurEnabled="0" blurRadius="4" transform="matrix(0.277129,0,0,0.277129,99.8878,82.2318)" pers-center="0,0" pers-size="0,0" pers-start="0,0" pers-end="0,0" locked="0" mesh="" flag=""/>
            <path id="shapePath26" d="M98.4339,75.7324 C97.3808,75.9541 94.7204,78.8085 94.3324,80.1665 C93.5287,82.8269 94.3324,85.6536 96.4109,87.5104 C97.7134,88.702 98.9328,88.9237 103.117,88.7852 L105.75,88.702 L105.75,87.455 L105.75,86.2079 L102.674,86.0693 C99.3762,85.9307 98.6833,85.6536 98.6833,84.5174 C98.6833,83.88 98.7111,83.88 102.231,83.7969 L105.75,83.7137 L105.75,82.3281 L105.75,80.9424 L102.286,80.8593 C100.402,80.8316 98.7388,80.693 98.6002,80.5544 C98.4893,80.4436 98.7111,79.9448 99.099,79.4736 C99.8196,78.6145 99.8473,78.6145 102.785,78.5314 L105.75,78.4483 L105.75,77.0626 L105.75,75.677 L102.425,75.6493 C100.596,75.6215 98.7942,75.677 98.4339,75.7324 Z" style="stroke:none;fill-rule:evenodd;fill:#4d4d4d;fill-opacity:1;"/>
        </g>
        <g id="Shape27">
            <desc shapeID="27" type="0" basicInfo-basicType="0" basicInfo-roundedRectRadius="12" basicInfo-polygonSides="6" basicInfo-starPoints="5" bounding="rect(-22.4306,-23.9438,44.8613,47.8875)" text="" font-familyName="" font-pixelSize="20" font-bold="0" font-underline="0" font-alignment="1" strokeStyle="0" markerStart="0" markerEnd="0" shadowEnabled="0" shadowOffsetX="0" shadowOffsetY="2" shadowBlur="4" shadowOpacity="160" blurEnabled="0" blurRadius="4" transform="matrix(0.277129,0,0,0.277129,114.045,82.1982)" pers-center="0,0" pers-size="0,0" pers-start="0,0" pers-end="0,0" locked="0" mesh="" flag=""/>
            <path id="shapePath27" d="M108.189,75.8432 C107.912,76.1204 107.829,77.7831 107.829,82.2449 C107.829,87.9261 107.856,88.2863 108.355,88.5635 C109.048,88.9237 110.35,88.9237 111.265,88.5635 L111.986,88.3141 L112.041,83.5197 L112.124,78.7254 L113.842,78.7254 C116.503,78.7254 116.53,78.8085 116.697,84.2125 L116.835,88.702 L118.498,88.702 L120.161,88.702 L120.244,83.5751 C120.299,78.8917 120.244,78.3651 119.773,77.5614 C118.72,75.8432 118.166,75.677 113.094,75.5938 C109.658,75.5107 108.438,75.5938 108.189,75.8432 Z" style="stroke:none;fill-rule:evenodd;fill:#4d4d4d;fill-opacity:1;"/>
        </g>
        <g id="Shape28">
            <desc shapeID="28" type="0" basicInfo-basicType="0" basicInfo-roundedRectRadius="12" basicInfo-polygonSides="6" basicInfo-starPoints="5" bounding="rect(-29.5,-20.0001,59,40.0002)" text="" font-familyName="" font-pixelSize="20" font-bold="0" font-underline="0" font-alignment="1" strokeStyle="0" markerStart="0" markerEnd="0" shadowEnabled="0" shadowOffsetX="0" shadowOffsetY="2" shadowBlur="4" shadowOpacity="160" blurEnabled="0" blurRadius="4" transform="matrix(0.277129,0,0,0.277129,27.3226,88.5635)" pers-center="0,0" pers-size="0,0" pers-start="0,0" pers-end="0,0" locked="0" mesh="" flag=""/>
            <path id="shapePath28" d="M19.3412,83.2149 C19.2304,83.298 19.1473,84.6005 19.1473,86.0416 L19.1473,88.7021 L21.8631,91.4179 C23.3319,92.8867 24.7176,94.1061 24.9115,94.1061 C25.3827,94.1061 35.4979,83.9354 35.4979,83.4366 C35.4979,83.0763 34.4171,83.0209 27.5166,83.0209 C23.1102,83.0209 19.4244,83.104 19.3412,83.2149 Z" style="stroke:none;fill-rule:evenodd;fill:#4d4d4d;fill-opacity:1;"/>
        </g>
        <g id="Shape29">
            <desc shapeID="29" type="0" basicInfo-basicType="0" basicInfo-roundedRectRadius="12" basicInfo-polygonSides="6" basicInfo-starPoints="5" bounding="rect(-37.5875,-36.9992,75.175,73.9984)" text="" font-familyName="" font-pixelSize="20" font-bold="0" font-underline="0" font-alignment="1" strokeStyle="0" markerStart="0" markerEnd="0" shadowEnabled="0" shadowOffsetX="0" shadowOffsetY="2" shadowBlur="4" shadowOpacity="160" blurEnabled="0" blurRadius="4" transform="matrix(0.277129,0,0,0.277129,29.5153,93.2745)" pers-center="0,0" pers-size="0,0" pers-start="0,0" pers-end="0,0" locked="0" mesh="" flag=""/>
            <path id="shapePath29" d="M31.0084,89.3117 L24.6898,95.6026 L22.0571,92.9975 C20.616,91.5565 19.369,90.448 19.2858,90.5311 C19.1195,90.7251 19.0641,93.2747 19.1195,99.2884 L19.1473,103.528 L25.6598,103.528 C29.595,103.528 32.1723,103.418 32.1723,103.251 C32.1723,103.113 31.1192,101.977 29.8167,100.702 C28.5142,99.4547 27.4611,98.2076 27.4611,97.9582 C27.4611,97.7087 30.2601,94.7712 33.6965,91.3902 C38.5463,86.6513 39.9319,85.1271 39.9319,84.6005 C39.9319,83.298 39.6548,83.0209 38.4632,83.0209 C37.3824,83.0209 37.1884,83.1872 31.0084,89.3117 Z" style="stroke:none;fill-rule:evenodd;fill:#777777;fill-opacity:1;"/>
        </g>
        <g id="Shape30">
            <desc shapeID="30" type="0" basicInfo-basicType="0" basicInfo-roundedRectRadius="12" basicInfo-polygonSides="6" basicInfo-starPoints="5" bounding="rect(-37.4122,-36.9126,74.8243,73.8252)" text="" font-familyName="" font-pixelSize="20" font-bold="0" font-underline="0" font-alignment="1" strokeStyle="0" markerStart="0" markerEnd="0" shadowEnabled="0" shadowOffsetX="0" shadowOffsetY="2" shadowBlur="4" shadowOpacity="160" blurEnabled="0" blurRadius="4" transform="matrix(0.277129,0,0,0.277129,56.6739,93.2505)" pers-center="0,0" pers-size="0,0" pers-start="0,0" pers-end="0,0" locked="0" mesh="" flag=""/>
            <path id="shapePath30" d="M46.4999,83.2149 C46.3891,83.298 46.3059,83.9077 46.3059,84.5174 C46.3059,85.6259 46.4445,85.7922 52.2642,91.6119 C55.5343,94.882 58.2225,97.7642 58.2225,97.9859 C58.2225,98.2353 57.1694,99.4547 55.8669,100.757 C54.5644,102.06 53.5113,103.196 53.5113,103.307 C53.5113,103.445 56.532,103.501 60.2455,103.473 L66.952,103.39 L67.0352,97.0436 C67.0629,92.9144 67.0075,90.5865 66.8135,90.3925 C66.6195,90.1985 65.7327,90.8914 63.9591,92.665 C62.5457,94.0783 61.2432,95.2146 61.0769,95.2146 C60.8829,95.2146 57.9731,92.471 54.5921,89.1177 C49.1881,83.7691 48.3013,83.0209 47.553,83.0209 C47.0819,83.0209 46.583,83.104 46.4999,83.2149 Z" style="stroke:none;fill-rule:evenodd;fill:#777777;fill-opacity:1;"/>
        </g>
        <g id="Shape31">
            <desc shapeID="31" type="0" basicInfo-basicType="0" basicInfo-roundedRectRadius="12" basicInfo-polygonSides="6" basicInfo-starPoints="5" bounding="rect(-30.55,-20.6343,61.1001,41.2685)" text="" font-familyName="" font-pixelSize="20" font-bold="0" font-underline="0" font-alignment="1" strokeStyle="0" markerStart="0" markerEnd="0" shadowEnabled="0" shadowOffsetX="0" shadowOffsetY="2" shadowBlur="4" shadowOpacity="160" blurEnabled="0" blurRadius="4" transform="matrix(0.277129,0,0,0.277129,58.652,88.7757)" pers-center="0,0" pers-size="0,0" pers-start="0,0" pers-end="0,0" locked="0" mesh="" flag=""/>
            <path id="shapePath31" d="M50.1857,83.3812 C50.1857,83.5752 52.6245,86.1525 55.5897,89.1177 L60.9938,94.494 L64.0422,91.4733 L67.1183,88.4249 L67.0352,85.7922 L66.952,83.1595 L58.5827,83.0763 C51.8485,83.0209 50.1857,83.0763 50.1857,83.3812 Z" style="stroke:none;fill-rule:evenodd;fill:#4d4d4d;fill-opacity:1;"/>
        </g>
        <g id="Shape32">
            <desc shapeID="32" type="0" basicInfo-basicType="0" basicInfo-roundedRectRadius="12" basicInfo-polygonSides="6" basicInfo-starPoints="5" bounding="rect(-27.0678,-52.0009,54.1358,104.002)" text="" font-familyName="" font-pixelSize="20" font-bold="0" font-underline="0" font-alignment="1" strokeStyle="0" markerStart="0" markerEnd="0" shadowEnabled="0" shadowOffsetX="0" shadowOffsetY="2" shadowBlur="4" shadowOpacity="160" blurEnabled="0" blurRadius="4" transform="matrix(0.277129,0,0,0.277129,42.8279,97.9861)" pers-center="0,0" pers-size="0,0" pers-start="0,0" pers-end="0,0" locked="0" mesh="" flag=""/>
            <path id="shapePath32" d="M41.567,84.5728 L40.6248,85.5428 L40.4862,95.0206 L40.3476,104.498 L37.9366,104.498 C36.6341,104.498 35.4425,104.609 35.3316,104.72 C35.1099,104.942 42.343,112.397 42.7864,112.397 C43.1744,112.397 50.546,104.886 50.3243,104.692 C50.2134,104.582 49.2989,104.471 48.3013,104.471 C47.2759,104.443 46.2228,104.415 45.9734,104.388 C45.5022,104.36 45.4745,103.722 45.4745,95.1592 L45.4745,85.9585 L44.3106,84.7668 C43.6732,84.1017 43.0081,83.5751 42.8418,83.5751 C42.6755,83.5751 42.0936,84.0186 41.567,84.5728 Z" style="stroke:none;fill-rule:evenodd;fill:#777777;fill-opacity:1;"/>
        </g>
        <g id="Shape33">
            <desc shapeID="33" type="0" basicInfo-basicType="0" basicInfo-roundedRectRadius="12" basicInfo-polygonSides="6" basicInfo-starPoints="5" bounding="rect(-20.5,-29.8031,41,59.6063)" text="" font-familyName="" font-pixelSize="20" font-bold="0" font-underline="0" font-alignment="1" strokeStyle="0" markerStart="0" markerEnd="0" shadowEnabled="0" shadowOffsetX="0" shadowOffsetY="2" shadowBlur="4" shadowOpacity="160" blurEnabled="0" blurRadius="4" transform="matrix(0.277129,0,0,0.277129,34.2508,95.2687)" pers-center="0,0" pers-size="0,0" pers-start="0,0" pers-end="0,0" locked="0" mesh="" flag=""/>
            <path id="shapePath33" d="M33.946,92.1939 C30.9807,95.1314 28.5696,97.7365 28.5696,97.9859 C28.5696,98.2076 29.7336,99.5655 31.1469,100.979 L33.6965,103.528 L36.8281,103.528 L39.9319,103.528 L39.9319,95.3809 C39.9319,89.8106 39.8488,87.1501 39.6271,87.0116 C39.4608,86.9284 36.9667,89.1732 33.946,92.1939 Z" style="stroke:none;fill-rule:evenodd;fill:#4d4d4d;fill-opacity:1;"/>
        </g>
        <g id="Shape34">
            <desc shapeID="34" type="0" basicInfo-basicType="0" basicInfo-roundedRectRadius="12" basicInfo-polygonSides="6" basicInfo-starPoints="5" bounding="rect(-19.5001,-28.9991,39.0002,57.9983)" text="" font-familyName="" font-pixelSize="20" font-bold="0" font-underline="0" font-alignment="1" strokeStyle="0" markerStart="0" markerEnd="0" shadowEnabled="0" shadowOffsetX="0" shadowOffsetY="2" shadowBlur="4" shadowOpacity="160" blurEnabled="0" blurRadius="4" transform="matrix(0.277129,0,0,0.277129,51.7099,95.4915)" pers-center="0,0" pers-size="0,0" pers-start="0,0" pers-end="0,0" locked="0" mesh="" flag=""/>
            <path id="shapePath34" d="M46.3059,95.4917 L46.3059,103.528 L49.0772,103.528 L51.8485,103.528 L54.4812,100.896 C55.9223,99.4547 57.114,98.1244 57.114,97.9305 C57.114,97.487 47.0819,87.455 46.6385,87.455 C46.3891,87.455 46.3059,89.5057 46.3059,95.4917 Z" style="stroke:none;fill-rule:evenodd;fill:#4d4d4d;fill-opacity:1;"/>
        </g>
        <g id="Shape35">
            <desc shapeID="35" type="0" basicInfo-basicType="0" basicInfo-roundedRectRadius="12" basicInfo-polygonSides="6" basicInfo-starPoints="5" bounding="rect(-1.23786,-0.400364,2.4757,0.800737)" text="" font-familyName="" font-pixelSize="20" font-bold="0" font-underline="0" font-alignment="1" strokeStyle="0" markerStart="0" markerEnd="0" shadowEnabled="0" shadowOffsetX="0" shadowOffsetY="2" shadowBlur="4" shadowOpacity="160" blurEnabled="0" blurRadius="4" transform="matrix(0.260219,0,0,0.260219,431.476,91.241)" pers-center="0,0" pers-size="0,0" pers-start="0,0" pers-end="0,0" locked="0" mesh="" flag=""/>
            <path id="shapePath35" d="M431.272,91.298 C431.454,91.3761 431.688,91.3501 431.766,91.272 C431.87,91.1939 431.714,91.1159 431.428,91.1419 C431.141,91.1419 431.063,91.2199 431.272,91.298 Z" style="stroke:none;fill-rule:evenodd;fill:#4d4d4d;fill-opacity:1;"/>
        </g>
        <g id="Shape36">
            <desc shapeID="36" type="0" basicInfo-basicType="0" basicInfo-roundedRectRadius="12" basicInfo-polygonSides="6" basicInfo-starPoints="5" bounding="rect(-69.0758,-69.7845,138.152,139.569)" text="" font-familyName="" font-pixelSize="20" font-bold="0" font-underline="0" font-alignment="1" strokeStyle="0" markerStart="0" markerEnd="0" shadowEnabled="0" shadowOffsetX="0" shadowOffsetY="2" shadowBlur="4" shadowOpacity="160" blurEnabled="0" blurRadius="4" transform="matrix(-0.260219,-0.000376332,0.000376332,-0.260219,418.672,86.9175)" pers-center="0,0" pers-size="0,0" pers-start="0,0" pers-end="0,0" locked="0" mesh="" flag=""/>
            <path id="shapePath36" d="M416.398,104.849 C418.95,104.54 421.552,103.788 422.464,103.035 C423.897,101.919 424.184,100.956 424.216,97.3392 L424.221,94.0865 L418.496,93.9481 C415.348,93.8395 412.746,93.7576 412.693,93.7315 C412.668,93.7055 412.641,93.4452 412.642,93.185 C412.643,92.6905 412.929,92.665 421.542,92.5994 L430.468,92.5342 L431.953,91.8077 C434.426,90.6143 435.209,89.3923 436.36,85.1265 C436.753,83.6177 436.761,77.7889 436.347,76.279 C435.622,73.5196 435.466,72.9729 435.026,72.1136 C434.507,71.0459 433.441,69.9775 432.324,69.4294 C431.881,69.2206 430.32,68.9841 428.655,68.8775 C425.22,68.6644 425.507,68.3265 425.448,72.7502 C425.42,74.3375 425.288,76.0287 425.131,76.5229 C424.53,78.3696 422.497,80.2923 420.414,80.9919 C419.92,81.1733 416.407,81.3504 412.087,81.4223 L404.644,81.5676 L403.524,82.3467 C402.899,82.7881 402.038,83.6976 401.622,84.3996 L400.839,85.6476 L400.726,92.231 C400.585,99.6213 400.74,100.584 402.272,102.251 C403.675,103.763 405.287,104.389 408.853,104.759 C412.365,105.155 413.77,105.157 416.398,104.849 M417.654,100.556 C417.108,100.009 417.03,99.7227 417.162,98.9424 C417.451,97.1733 419.247,96.5253 420.547,97.7242 C421.378,98.5061 421.428,99.5987 420.673,100.561 C419.942,101.496 418.589,101.495 417.654,100.556 Z" style="stroke:none;fill-rule:evenodd;fill:#787878;fill-opacity:1;"/>
        </g>
    </g>
</svg>
