<?xml version="1.0"?>
<svg version="1.1" xmlns="http://www.w3.org/2000/svg" xmlns:xlink="http://www.w3.org/1999/xlink" width="600" height="160">
    <desc iVinci="yes" version="4.6" gridStep="20" showGrid="no" snapToGrid="no" codePlatform="0"/>
    <g id="Layer1" name="Layer 1" opacity="1">
        <g id="Shape1">
            <desc shapeID="1" type="0" basicInfo-basicType="0" basicInfo-roundedRectRadius="12" basicInfo-polygonSides="6" basicInfo-starPoints="5" bounding="rect(-25.7055,-51.4007,51.4109,102.801)" text="" font-familyName="" font-pixelSize="20" font-bold="0" font-underline="0" font-alignment="1" strokeStyle="0" markerStart="0" markerEnd="0" shadowEnabled="0" shadowOffsetX="0" shadowOffsetY="2" shadowBlur="4" shadowOpacity="160" blurEnabled="0" blurRadius="4" transform="matrix(0.277129,0,0,0.277129,42.8987,61.848)" pers-center="0,0" pers-size="0,0" pers-start="0,0" pers-end="0,0" locked="0" mesh="" flag=""/>
            <path id="shapePath1" d="M39.1837,50.9293 C37.2992,52.8138 35.775,54.5043 35.775,54.6983 C35.775,55.0586 35.9136,55.0863 38.5463,55.1417 L40.3476,55.1694 L40.4308,64.6195 L40.4862,74.0973 L41.5947,75.095 C42.2044,75.6493 42.7864,76.0927 42.9249,76.0927 C43.0358,76.0927 43.6455,75.5661 44.3106,74.9564 L45.4745,73.8202 L45.4745,64.4255 L45.4745,55.0308 L47.6638,55.0308 C48.8832,55.0308 49.9363,54.92 50.0194,54.7814 C50.1857,54.532 43.4515,47.7423 42.8972,47.6038 C42.7032,47.5761 41.0405,49.0726 39.1837,50.9293 Z" style="stroke:none;fill-rule:nonzero;fill:#777777;fill-opacity:1;"/>
        </g>
        <g id="Shape2">
            <desc shapeID="2" type="0" basicInfo-basicType="0" basicInfo-roundedRectRadius="12" basicInfo-polygonSides="6" basicInfo-starPoints="5" bounding="rect(-91.2632,-104.875,182.526,209.751)" text="" font-familyName="" font-pixelSize="20" font-bold="0" font-underline="0" font-alignment="1" strokeStyle="0" markerStart="0" markerEnd="0" shadowEnabled="0" shadowOffsetX="0" shadowOffsetY="2" shadowBlur="4" shadowOpacity="160" blurEnabled="0" blurRadius="4" transform="matrix(0.277129,0,0,0.277129,236.628,80.007)" pers-center="0,0" pers-size="0,0" pers-start="0,0" pers-end="0,0" locked="0" mesh="" flag=""/>
            <path id="shapePath2" d="M234.421,51.2342 C233.618,51.539 218.985,60.0746 215.964,62.0145 C215.549,62.2916 214.967,62.6242 214.662,62.7628 C213.886,63.123 212.473,64.6749 211.863,65.8389 C211.364,66.7534 211.336,67.6679 211.336,79.9725 C211.336,92.9421 211.336,93.1638 211.946,94.2446 C212.556,95.4086 213.803,96.7111 214.773,97.2653 C215.078,97.4316 219.401,99.9812 224.361,102.946 C229.35,105.912 233.922,108.489 234.56,108.711 C236.777,109.487 238.8,109.043 241.876,107.048 C242.541,106.632 243.123,106.3 243.206,106.3 C243.262,106.3 243.982,105.884 244.786,105.358 C245.59,104.859 246.698,104.194 247.225,103.916 C251.077,101.783 259.418,96.6279 260.083,95.9351 C261.912,93.9675 261.885,94.1615 261.912,80.0279 C261.94,67.9728 261.912,67.1968 261.414,66.0329 C260.61,64.2038 259.363,63.2062 253.82,59.936 C247.945,56.4719 248.028,56.4996 246.532,55.5851 C245.922,55.2248 244.869,54.6152 244.176,54.2272 C243.483,53.8669 242.43,53.2295 241.821,52.8415 C239.548,51.4005 238.744,51.0679 237.109,50.9571 C236.112,50.9016 235.031,51.0125 234.421,51.2342 M248.61,58.5504 C256.508,63.2339 258.615,64.6195 259.363,65.5618 C260.388,66.892 260.499,67.3908 259.723,66.9474 C258.587,66.3377 258.587,66.3377 251.16,70.9381 C249.913,71.714 248.638,72.4623 248.389,72.6286 C248.111,72.7671 246.282,73.9034 244.315,75.1504 C242.319,76.3698 240.213,77.6723 239.604,78.0603 C237.885,79.0857 236.943,80.0002 236.389,81.2196 C235.918,82.2449 235.862,83.2703 235.862,94.1338 C235.862,105.662 235.862,105.967 236.444,106.688 L236.999,107.408 L236.001,107.408 C235.447,107.408 234.726,107.27 234.394,107.103 C233.23,106.494 227.133,102.919 225.692,101.977 C224.888,101.45 224.167,101.034 224.112,101.034 C224.001,101.034 218.985,98.069 217.572,97.1545 C217.35,97.0159 216.574,96.5448 215.881,96.1291 C215.133,95.7134 214.191,94.7989 213.664,94.0229 L212.722,92.6373 L212.722,79.9725 L212.722,67.3077 L213.637,65.9497 C214.412,64.8135 215.244,64.2038 218.763,62.0976 C221.064,60.712 223.475,59.2986 224.084,58.9107 C226.08,57.719 231.788,54.3103 233.202,53.5066 C234.781,52.5921 236.112,52.315 237.664,52.5644 C238.412,52.6753 242.015,54.6429 248.61,58.5504 M245.035,84.5451 C245.811,84.3788 245.839,84.4065 245.839,85.3211 C245.839,86.2079 245.784,86.291 244.758,86.4573 C244.01,86.5682 243.456,86.9007 242.957,87.4827 C241.765,88.896 242.042,89.5334 244.038,89.8106 C245.756,90.06 246.061,90.3094 246.282,91.5288 C246.532,92.8036 246.005,94.5495 244.98,95.8243 C244.509,96.434 244.176,97.1822 244.176,97.6533 C244.176,98.5124 243.566,99.2607 243.068,98.9558 C242.929,98.8727 242.791,98.5401 242.791,98.2353 C242.791,97.8196 242.597,97.7087 241.821,97.7087 C240.989,97.7087 240.851,97.6256 240.851,97.0714 C240.851,96.2677 241.266,95.658 241.627,95.8797 C242.098,96.1568 243.76,95.3531 244.287,94.6326 C244.897,93.7458 244.869,92.5264 244.204,92.1662 C243.899,92.0276 243.234,91.889 242.707,91.889 C241.266,91.889 240.74,91.1408 240.906,89.284 C240.989,88.1478 241.239,87.5381 241.904,86.679 C242.458,85.9862 242.791,85.2656 242.791,84.7391 C242.791,84.1571 243.012,83.7414 243.428,83.4366 C244.01,83.0209 244.038,83.0209 244.121,83.8523 C244.204,84.656 244.287,84.7114 245.035,84.5451 Z" style="stroke:none;fill-rule:nonzero;fill:#4d4d4d;fill-opacity:1;"/>
        </g>
        <g id="Shape3">
            <desc shapeID="3" type="0" basicInfo-basicType="0" basicInfo-roundedRectRadius="12" basicInfo-polygonSides="6" basicInfo-starPoints="5" bounding="rect(-36.9704,-70.9289,73.9409,141.858)" text="" font-familyName="" font-pixelSize="20" font-bold="0" font-underline="0" font-alignment="1" strokeStyle="0" markerStart="0" markerEnd="0" shadowEnabled="0" shadowOffsetX="0" shadowOffsetY="2" shadowBlur="4" shadowOpacity="160" blurEnabled="0" blurRadius="4" transform="matrix(0.277129,0,0,0.277129,529.037,72.7474)" pers-center="0,0" pers-size="0,0" pers-start="0,0" pers-end="0,0" locked="0" mesh="" flag=""/>
            <path id="shapePath3" d="M521.305,53.3681 C521.084,53.5066 520.585,53.6452 520.197,53.6452 C519.781,53.6452 519.338,53.7838 519.144,53.9778 C518.728,54.3935 518.645,91.7505 519.088,92.0276 C519.476,92.277 522.192,92.3879 522.774,92.1939 C523.273,92.0276 523.301,91.5011 523.245,83.1318 C523.245,78.0326 523.328,73.9311 523.495,73.5431 C524.049,72.102 529.12,70.0235 531.144,70.3838 C532.307,70.6055 534.331,72.5177 534.331,73.4045 C534.331,73.7648 534.441,74.1528 534.608,74.319 C534.774,74.4853 534.912,78.088 534.94,83.4366 L535.023,92.3047 L536.852,92.3879 C538.21,92.4433 538.765,92.3602 539.014,92.0553 C539.263,91.7505 539.319,89.3949 539.263,82.2727 C539.18,73.0997 539.18,72.878 538.515,71.4369 C537.24,68.6379 535.162,67.4185 531.559,67.4185 C528.843,67.4462 526.571,67.9728 524.77,69.0259 C523.772,69.6356 523.495,69.691 523.384,69.3584 C523.273,69.1367 523.245,68.8596 523.273,68.721 C523.301,68.5825 523.301,65.0075 523.273,60.7674 L523.245,53.0909 L522.497,53.0909 C522.054,53.0909 521.527,53.2295 521.305,53.3681 Z" style="stroke:none;fill-rule:nonzero;fill:#4d4d4d;fill-opacity:1;"/>
        </g>
        <g id="Shape4">
            <desc shapeID="4" type="0" basicInfo-basicType="0" basicInfo-roundedRectRadius="12" basicInfo-polygonSides="6" basicInfo-starPoints="5" bounding="rect(-69.0759,-69.7842,138.152,139.568)" text="" font-familyName="" font-pixelSize="20" font-bold="0" font-underline="0" font-alignment="1" strokeStyle="0" markerStart="0" markerEnd="0" shadowEnabled="0" shadowOffsetX="0" shadowOffsetY="2" shadowBlur="4" shadowOpacity="160" blurEnabled="0" blurRadius="4" transform="matrix(0.277129,0,0,0.277129,404.042,73.6037)" pers-center="0,0" pers-size="0,0" pers-start="0,0" pers-end="0,0" locked="0" mesh="" flag=""/>
            <path id="shapePath4" d="M406.435,54.5043 C403.719,54.8369 400.948,55.6405 399.978,56.4442 C398.454,57.6359 398.149,58.6612 398.121,62.5133 L398.121,65.9775 L404.218,66.116 C407.572,66.2269 410.343,66.31 410.398,66.3377 C410.426,66.3654 410.454,66.6426 410.454,66.9197 C410.454,67.4462 410.149,67.474 400.976,67.5571 L391.47,67.6402 L389.891,68.4162 C387.258,69.691 386.427,70.9935 385.207,75.5384 C384.792,77.1458 384.792,83.3535 385.235,84.9608 C386.011,87.8984 386.177,88.4803 386.648,89.3949 C387.203,90.5311 388.339,91.6673 389.53,92.2493 C390.002,92.471 391.664,92.7204 393.438,92.8313 C397.096,93.053 396.791,93.4132 396.847,88.702 C396.874,87.0116 397.013,85.2102 397.179,84.6837 C397.817,82.7161 399.978,80.6653 402.195,79.9171 C402.722,79.7231 406.463,79.5291 411.063,79.4459 L418.989,79.2797 L420.181,78.4483 C420.846,77.9771 421.761,77.0072 422.204,76.2589 L423.035,74.9287 L423.146,67.9174 C423.285,60.0469 423.119,59.0215 421.483,57.2479 C419.987,55.6405 418.269,54.9754 414.472,54.5874 C410.731,54.1718 409.234,54.1718 406.435,54.5043 M405.105,59.0769 C405.687,59.6589 405.77,59.9638 405.632,60.7951 C405.327,62.6796 403.415,63.3724 402.029,62.0976 C401.142,61.2663 401.087,60.1023 401.89,59.0769 C402.666,58.0793 404.107,58.0793 405.105,59.0769 Z" style="stroke:none;fill-rule:nonzero;fill:#4d4d4d;fill-opacity:1;"/>
        </g>
        <g id="Shape5">
            <desc shapeID="5" type="0" basicInfo-basicType="0" basicInfo-roundedRectRadius="12" basicInfo-polygonSides="6" basicInfo-starPoints="5" bounding="rect(-37.0123,-37.1164,74.0246,74.2328)" text="" font-familyName="" font-pixelSize="20" font-bold="0" font-underline="0" font-alignment="1" strokeStyle="0" markerStart="0" markerEnd="0" shadowEnabled="0" shadowOffsetX="0" shadowOffsetY="2" shadowBlur="4" shadowOpacity="160" blurEnabled="0" blurRadius="4" transform="matrix(0.277129,0,0,0.277129,29.3976,66.1483)" pers-center="0,0" pers-size="0,0" pers-start="0,0" pers-end="0,0" locked="0" mesh="" flag=""/>
            <path id="shapePath5" d="M19.3412,56.0562 C19.0087,56.3611 19.1195,69.1644 19.4521,69.1644 C19.5907,69.1644 20.8655,68.0282 22.2511,66.6426 L24.773,64.1484 L30.8975,70.2452 C35.9136,75.2336 37.1607,76.3421 37.8535,76.3975 C39.5163,76.5084 39.6548,76.4252 39.6548,75.3444 C39.6548,74.3745 39.2945,73.9588 33.5025,68.1391 C30.0939,64.7304 27.2949,61.8759 27.2394,61.8205 C27.184,61.7928 28.2925,60.6011 29.6782,59.1878 C31.2301,57.6359 32.1723,56.4996 32.0615,56.2779 C31.9506,55.9731 30.759,55.8899 25.7152,55.8622 C22.3065,55.8622 19.4244,55.9454 19.3412,56.0562 Z" style="stroke:none;fill-rule:nonzero;fill:#777777;fill-opacity:1;"/>
        </g>
        <g id="Shape6">
            <desc shapeID="6" type="0" basicInfo-basicType="0" basicInfo-roundedRectRadius="12" basicInfo-polygonSides="6" basicInfo-starPoints="5" bounding="rect(-20.0505,-29.9856,40.101,59.9712)" text="" font-familyName="" font-pixelSize="20" font-bold="0" font-underline="0" font-alignment="1" strokeStyle="0" markerStart="0" markerEnd="0" shadowEnabled="0" shadowOffsetX="0" shadowOffsetY="2" shadowBlur="4" shadowOpacity="160" blurEnabled="0" blurRadius="4" transform="matrix(0.277129,0,0,0.277129,34.1262,64.1801)" pers-center="0,0" pers-size="0,0" pers-start="0,0" pers-end="0,0" locked="0" mesh="" flag=""/>
            <path id="shapePath6" d="M34.1399,56.1116 C33.3917,56.5828 28.5697,61.488 28.5697,61.7651 C28.5697,62.2085 38.8789,72.49 39.2946,72.49 C39.7934,72.49 39.8211,56.6936 39.3223,56.1948 C38.9343,55.8068 34.7219,55.7514 34.1399,56.1116 Z" style="stroke:none;fill-rule:nonzero;fill:#4d4d4d;fill-opacity:1;"/>
        </g>
        <g id="Shape7">
            <desc shapeID="7" type="0" basicInfo-basicType="0" basicInfo-roundedRectRadius="12" basicInfo-polygonSides="6" basicInfo-starPoints="5" bounding="rect(-19.4993,-30,38.9985,60)" text="" font-familyName="" font-pixelSize="20" font-bold="0" font-underline="0" font-alignment="1" strokeStyle="0" markerStart="0" markerEnd="0" shadowEnabled="0" shadowOffsetX="0" shadowOffsetY="2" shadowBlur="4" shadowOpacity="160" blurEnabled="0" blurRadius="4" transform="matrix(0.277129,0,0,0.277129,51.7101,64.1761)" pers-center="0,0" pers-size="0,0" pers-start="0,0" pers-end="0,0" locked="0" mesh="" flag=""/>
            <path id="shapePath7" d="M46.4999,56.0562 C46.1951,56.3334 46.2782,72.49 46.5553,72.49 C46.9987,72.49 57.114,62.2085 57.114,61.7928 C57.114,61.5711 55.8392,60.13 54.2872,58.6335 L51.4605,55.8622 L49.0772,55.8622 C47.747,55.8622 46.583,55.9454 46.4999,56.0562 Z" style="stroke:none;fill-rule:nonzero;fill:#4d4d4d;fill-opacity:1;"/>
        </g>
        <g id="Shape8">
            <desc shapeID="8" type="0" basicInfo-basicType="0" basicInfo-roundedRectRadius="12" basicInfo-polygonSides="6" basicInfo-starPoints="5" bounding="rect(-37.4121,-37.2548,74.8241,74.5096)" text="" font-familyName="" font-pixelSize="20" font-bold="0" font-underline="0" font-alignment="1" strokeStyle="0" markerStart="0" markerEnd="0" shadowEnabled="0" shadowOffsetX="0" shadowOffsetY="2" shadowBlur="4" shadowOpacity="160" blurEnabled="0" blurRadius="4" transform="matrix(0.277129,0,0,0.277129,56.6739,66.223)" pers-center="0,0" pers-size="0,0" pers-start="0,0" pers-end="0,0" locked="0" mesh="" flag=""/>
            <path id="shapePath8" d="M53.5113,56.2225 C53.5113,56.4165 54.6475,57.6913 56.0054,59.0492 C57.3911,60.4072 58.4996,61.5988 58.4996,61.6819 C58.4996,61.7651 55.756,64.5918 52.4028,67.9451 C46.4168,73.9034 46.3059,74.0419 46.3059,75.1781 C46.3059,76.2035 46.3891,76.3421 47.0819,76.5084 C47.5253,76.5915 48.1627,76.5361 48.5507,76.3975 C48.9109,76.2589 51.9039,73.4322 55.1741,70.1621 L61.1323,64.1761 L63.8205,66.8643 C65.6773,68.721 66.6195,69.4693 66.8135,69.2753 C67.0075,69.0813 67.0629,66.698 67.0352,62.4856 L66.952,56.0008 L60.2455,55.9177 C54.8969,55.8622 53.5113,55.9177 53.5113,56.2225 Z" style="stroke:none;fill-rule:nonzero;fill:#777777;fill-opacity:1;"/>
        </g>
        <g id="Shape9">
            <desc shapeID="9" type="0" basicInfo-basicType="0" basicInfo-roundedRectRadius="12" basicInfo-polygonSides="6" basicInfo-starPoints="5" bounding="rect(-21.6183,-60.2882,43.2364,120.576)" text="" font-familyName="" font-pixelSize="20" font-bold="0" font-underline="0" font-alignment="1" strokeStyle="0" markerStart="0" markerEnd="0" shadowEnabled="0" shadowOffsetX="0" shadowOffsetY="2" shadowBlur="4" shadowOpacity="160" blurEnabled="0" blurRadius="4" transform="matrix(0.277129,0,0,0.277129,508.248,75.9742)" pers-center="0,0" pers-size="0,0" pers-start="0,0" pers-end="0,0" locked="0" mesh="" flag=""/>
            <path id="shapePath9" d="M507.449,59.7143 C505.149,60.5734 505.26,60.3517 505.177,64.0376 L505.093,67.3631 L503.902,67.3908 C502.35,67.4185 502.045,67.7234 502.378,69.0813 C502.599,70.1067 502.655,70.1344 503.929,70.2175 L505.232,70.3007 L505.232,79.1688 C505.232,87.3995 505.26,88.1201 505.758,89.09 C506.922,91.3625 509.777,92.859 512.576,92.665 L513.961,92.5819 L514.045,91.3902 C514.128,90.3094 514.1,90.2263 513.407,90.2263 C512.326,90.2263 510.553,89.2009 510.082,88.2864 C509.749,87.6212 509.666,86.0416 509.666,78.864 L509.666,70.273 L511.717,70.273 C512.853,70.273 513.851,70.1898 513.906,70.0513 C513.989,69.9404 514.1,69.3584 514.156,68.7487 L514.239,67.6402 L511.938,67.5571 L509.666,67.474 L509.666,63.7604 C509.666,58.7721 509.694,58.8552 507.449,59.7143 Z" style="stroke:none;fill-rule:nonzero;fill:#4d4d4d;fill-opacity:1;"/>
        </g>
        <g id="Shape10">
            <desc shapeID="10" type="0" basicInfo-basicType="0" basicInfo-roundedRectRadius="12" basicInfo-polygonSides="6" basicInfo-starPoints="5" bounding="rect(-30.3566,-20.1678,60.7133,40.3356)" text="" font-familyName="" font-pixelSize="20" font-bold="0" font-underline="0" font-alignment="1" strokeStyle="0" markerStart="0" markerEnd="0" shadowEnabled="0" shadowOffsetX="0" shadowOffsetY="2" shadowBlur="4" shadowOpacity="160" blurEnabled="0" blurRadius="4" transform="matrix(0.277129,0,0,0.277129,58.6779,70.7906)" pers-center="0,0" pers-size="0,0" pers-start="0,0" pers-end="0,0" locked="0" mesh="" flag=""/>
            <path id="shapePath10" d="M55.5898,70.6332 C52.569,73.6262 50.158,76.1758 50.2689,76.2589 C50.4629,76.4529 66.5364,76.3975 66.8689,76.2035 C66.9798,76.1204 67.0906,74.9842 67.0906,73.6816 L67.0906,71.2983 L64.0699,68.2499 L61.0769,65.2015 L55.5898,70.6332 Z" style="stroke:none;fill-rule:nonzero;fill:#4d4d4d;fill-opacity:1;"/>
        </g>
        <g id="Shape11">
            <desc shapeID="11" type="0" basicInfo-basicType="0" basicInfo-roundedRectRadius="12" basicInfo-polygonSides="6" basicInfo-starPoints="5" bounding="rect(-29.4035,-19.5462,58.807,39.0925)" text="" font-familyName="" font-pixelSize="20" font-bold="0" font-underline="0" font-alignment="1" strokeStyle="0" markerStart="0" markerEnd="0" shadowEnabled="0" shadowOffsetX="0" shadowOffsetY="2" shadowBlur="4" shadowOpacity="160" blurEnabled="0" blurRadius="4" transform="matrix(0.277129,0,0,0.277129,27.2958,70.9786)" pers-center="0,0" pers-size="0,0" pers-start="0,0" pers-end="0,0" locked="0" mesh="" flag=""/>
            <path id="shapePath11" d="M21.8354,68.2776 L19.1473,70.9658 L19.1473,73.6816 C19.1473,75.6493 19.2304,76.3698 19.5075,76.3698 C22.2788,76.4529 35.3593,76.3144 35.4425,76.2312 C35.6087,76.0927 25.0224,65.5618 24.7453,65.5618 C24.6344,65.5618 23.3319,66.7811 21.8354,68.2776 Z" style="stroke:none;fill-rule:nonzero;fill:#4d4d4d;fill-opacity:1;"/>
        </g>
        <g id="Shape12">
            <desc shapeID="12" type="0" basicInfo-basicType="0" basicInfo-roundedRectRadius="12" basicInfo-polygonSides="6" basicInfo-starPoints="5" bounding="rect(-41.3138,-46.7135,82.6276,93.427)" text="" font-familyName="" font-pixelSize="20" font-bold="0" font-underline="0" font-alignment="1" strokeStyle="0" markerStart="0" markerEnd="0" shadowEnabled="0" shadowOffsetX="0" shadowOffsetY="2" shadowBlur="4" shadowOpacity="160" blurEnabled="0" blurRadius="4" transform="matrix(0.277129,0,0,0.277129,554.343,79.739)" pers-center="0,0" pers-size="0,0" pers-start="0,0" pers-end="0,0" locked="0" mesh="" flag=""/>
            <path id="shapePath12" d="M552.76,66.8366 C549.185,67.3077 545.527,70.0235 544.113,73.2937 C542.949,76.0095 542.561,80.3605 543.199,83.298 C543.891,86.3465 545.887,89.5889 547.965,91.0022 C550.127,92.4433 551.485,92.7758 554.644,92.665 C557.083,92.5819 557.693,92.471 559.078,91.8059 C562.404,90.1431 564.676,86.9284 565.508,82.6052 C566.533,77.2289 564.732,71.714 560.99,68.915 C560.297,68.3885 559.161,67.7511 558.441,67.5017 C557.055,67.0028 554.173,66.6703 552.76,66.8366 M556.584,70.4115 C557.72,70.8826 559.494,72.5731 559.882,73.5985 C560.575,75.3721 560.935,77.4229 560.935,79.6954 C560.935,86.9007 558.053,90.5865 552.981,89.8106 C551.18,89.5334 549.406,87.6767 548.464,85.0717 C547.854,83.3535 547.771,82.7438 547.799,79.2797 C547.799,75.871 547.882,75.2336 548.436,74.0142 C549.212,72.296 549.656,71.7972 551.208,70.7718 C552.205,70.1621 552.76,69.9958 554.034,69.9958 C554.893,69.9958 556.057,70.1898 556.584,70.4115 Z" style="stroke:none;fill-rule:nonzero;fill:#4d4d4d;fill-opacity:1;"/>
        </g>
        <g id="Shape13">
            <desc shapeID="13" type="0" basicInfo-basicType="0" basicInfo-roundedRectRadius="12" basicInfo-polygonSides="6" basicInfo-starPoints="5" bounding="rect(-36.4525,-46.1071,72.9052,92.2141)" text="" font-familyName="" font-pixelSize="20" font-bold="0" font-underline="0" font-alignment="1" strokeStyle="0" markerStart="0" markerEnd="0" shadowEnabled="0" shadowOffsetX="0" shadowOffsetY="2" shadowBlur="4" shadowOpacity="160" blurEnabled="0" blurRadius="4" transform="matrix(0.277129,0,0,0.277129,579.342,79.612)" pers-center="0,0" pers-size="0,0" pers-start="0,0" pers-end="0,0" locked="0" mesh="" flag=""/>
            <path id="shapePath13" d="M578.948,66.9474 C576.371,67.2523 575.207,67.6125 572.685,68.8873 C568.888,70.7995 569.249,69.4693 569.249,81.4967 C569.249,91.6119 569.276,91.889 569.803,92.1662 C570.413,92.4987 572.824,92.4433 573.295,92.1107 C573.517,91.9445 573.627,88.9515 573.655,81.8847 C573.683,76.3698 573.766,71.7695 573.849,71.6032 C573.932,71.4646 574.653,71.0489 575.429,70.6609 C576.62,70.079 577.286,69.9404 579.309,69.9404 C581.581,69.9127 581.775,69.9404 582.773,70.7164 C583.327,71.1875 584.075,72.102 584.435,72.7671 C585.017,73.9588 585.045,74.2082 585.045,82.9378 C585.045,93.0807 584.851,92.3879 587.484,92.277 C588.26,92.2493 589.064,92.2216 589.202,92.1939 C589.424,92.1662 589.479,88.8683 589.424,81.8292 C589.341,72.4346 589.285,71.4369 588.842,70.5778 C587.29,67.7511 583.632,66.4209 578.948,66.9474 Z" style="stroke:none;fill-rule:nonzero;fill:#4d4d4d;fill-opacity:1;"/>
        </g>
        <g id="Shape14">
            <desc shapeID="14" type="0" basicInfo-basicType="0" basicInfo-roundedRectRadius="12" basicInfo-polygonSides="6" basicInfo-starPoints="5" bounding="rect(-34.4016,-46.7455,68.8032,93.4911)" text="" font-familyName="" font-pixelSize="20" font-bold="0" font-underline="0" font-alignment="1" strokeStyle="0" markerStart="0" markerEnd="0" shadowEnabled="0" shadowOffsetX="0" shadowOffsetY="2" shadowBlur="4" shadowOpacity="160" blurEnabled="0" blurRadius="4" transform="matrix(0.277129,0,0,0.277129,319.43,79.9695)" pers-center="0,0" pers-size="0,0" pers-start="0,0" pers-end="0,0" locked="0" mesh="" flag=""/>
            <path id="shapePath14" d="M317.061,67.2522 C314.65,67.7234 312.267,69.4416 311.158,71.52 C310.355,73.0442 310.355,75.5384 311.186,77.0903 C312.322,79.2796 314.844,80.9424 319.001,82.2172 C322.742,83.3812 324.211,84.7945 323.463,86.5404 C322.881,87.8984 321.911,88.3695 319.694,88.3972 C317.92,88.3972 317.588,88.3141 316.701,87.6489 C316.119,87.2056 315.592,86.485 315.398,85.8753 C314.816,84.1017 314.428,83.8523 312.35,83.8523 C310.05,83.8523 309.717,84.1571 309.967,85.9862 C310.438,89.4226 313.902,92.3324 318.197,92.859 C320.137,93.1084 323.407,92.6096 324.848,91.889 C328.257,90.1431 329.865,86.291 328.451,83.2149 C327.26,80.6376 325.015,79.0302 320.664,77.6723 C316.645,76.3975 315.343,75.1781 316.091,73.4045 C316.645,72.102 317.671,71.5755 319.528,71.5755 C321.523,71.5755 322.687,72.296 323.158,73.8202 C323.823,75.8987 324.073,76.0927 326.179,76.0927 C327.647,76.0927 328.146,75.9818 328.507,75.5938 C329.116,74.9287 329.089,74.4853 328.396,72.6008 C326.844,68.4716 322.188,66.2546 317.061,67.2522 Z" style="stroke:none;fill-rule:nonzero;fill:#4d4d4d;fill-opacity:1;"/>
        </g>
        <g id="Shape15">
            <desc shapeID="15" type="0" basicInfo-basicType="0" basicInfo-roundedRectRadius="12" basicInfo-polygonSides="6" basicInfo-starPoints="5" bounding="rect(-39.5,-68.3435,79,136.687)" text="" font-familyName="" font-pixelSize="20" font-bold="0" font-underline="0" font-alignment="1" strokeStyle="0" markerStart="0" markerEnd="0" shadowEnabled="0" shadowOffsetX="0" shadowOffsetY="2" shadowBlur="4" shadowOpacity="160" blurEnabled="0" blurRadius="4" transform="matrix(0.277129,0,0,0.277129,461.861,85.9133)" pers-center="0,0" pers-size="0,0" pers-start="0,0" pers-end="0,0" locked="0" mesh="" flag=""/>
            <path id="shapePath15" d="M457.427,67.474 C455.266,68.0836 452.439,69.6078 451.58,70.6055 L450.915,71.4369 L450.915,87.455 C450.915,99.9258 450.998,103.528 451.275,103.75 C451.829,104.194 454.711,104.997 455.155,104.831 C455.543,104.692 455.598,103.75 455.598,97.9582 C455.598,94.2723 455.654,91.1962 455.737,91.1408 C455.82,91.0576 456.291,91.1685 456.79,91.4179 C459.339,92.6096 459.977,92.7481 462.415,92.7758 C465.242,92.7758 466.822,92.277 468.817,90.642 C471.034,88.8129 472.78,84.2126 472.808,80.111 C472.808,75.7878 471.034,70.8549 468.817,69.0259 C466.572,67.2245 465.686,66.9474 462.221,66.9751 C460.198,67.0028 458.508,67.1691 457.427,67.474 M464.688,70.7441 C466.85,72.3791 467.542,74.5962 467.57,79.9171 C467.57,83.4089 467.515,84.1017 466.96,85.4596 C466.628,86.3465 466.018,87.3995 465.63,87.8429 C464.688,88.8683 462.97,89.672 461.584,89.672 C460.198,89.672 457.095,88.702 456.208,87.9815 L455.543,87.4273 L455.515,79.6676 C455.487,75.3721 455.543,71.7695 455.626,71.6309 C455.903,71.1875 458.536,70.1621 459.783,70.0235 C461.972,69.7464 463.69,69.9958 464.688,70.7441 Z" style="stroke:none;fill-rule:nonzero;fill:#4d4d4d;fill-opacity:1;"/>
        </g>
        <g id="Shape16">
            <desc shapeID="16" type="0" basicInfo-basicType="0" basicInfo-roundedRectRadius="12" basicInfo-polygonSides="6" basicInfo-starPoints="5" bounding="rect(-37.75,-68.7921,75.5,137.584)" text="" font-familyName="" font-pixelSize="20" font-bold="0" font-underline="0" font-alignment="1" strokeStyle="0" markerStart="0" markerEnd="0" shadowEnabled="0" shadowOffsetX="0" shadowOffsetY="2" shadowBlur="4" shadowOpacity="160" blurEnabled="0" blurRadius="4" transform="matrix(0.277129,0,0,0.277129,487.565,86.0069)" pers-center="0,0" pers-size="0,0" pers-start="0,0" pers-end="0,0" locked="0" mesh="" flag=""/>
            <path id="shapePath16" d="M479.93,67.1414 C479.819,67.2245 479.126,67.5294 478.406,67.7511 L477.103,68.1945 L477.103,77.7555 C477.103,87.0947 477.131,87.3441 477.713,88.4526 C478.544,90.0046 480.484,91.6396 482.175,92.2216 C483.034,92.5264 484.364,92.7204 485.694,92.7204 C487.773,92.7204 488.272,92.6373 491.708,91.6951 C494.036,91.0577 494.091,91.1131 493.814,93.9952 C493.537,97.2931 493.149,98.3739 491.874,99.5378 C490.544,100.729 489.99,100.951 486.664,101.727 C484.115,102.309 484.032,102.365 483.948,103.168 C483.893,103.639 484.059,104.221 484.364,104.582 C484.863,105.191 484.891,105.191 487.219,104.803 C491.985,104.027 495.228,102.143 496.669,99.3715 C497.916,97.0159 497.999,95.6026 498.027,81.1641 C498.027,72.4069 497.916,67.5017 497.749,67.4462 C497.611,67.3908 496.641,67.4185 495.616,67.5017 L493.731,67.6402 L493.676,76.7855 C493.62,81.8015 493.592,86.3187 493.592,86.7899 C493.592,87.5658 493.426,87.7321 491.791,88.5635 C490.378,89.284 489.546,89.5057 487.967,89.5889 C486.193,89.6997 485.805,89.6443 484.447,88.9238 C482.258,87.8152 481.787,86.9561 481.537,83.6583 C481.426,82.1618 481.371,77.9494 481.399,74.2913 C481.454,70.6332 481.454,67.474 481.426,67.28 C481.399,66.9197 480.235,66.8089 479.93,67.1414 Z" style="stroke:none;fill-rule:nonzero;fill:#4d4d4d;fill-opacity:1;"/>
        </g>
        <g id="Shape17">
            <desc shapeID="17" type="0" basicInfo-basicType="0" basicInfo-roundedRectRadius="12" basicInfo-polygonSides="6" basicInfo-starPoints="5" bounding="rect(-32.5,-45.9943,65,91.9886)" text="" font-familyName="" font-pixelSize="20" font-bold="0" font-underline="0" font-alignment="1" strokeStyle="0" markerStart="0" markerEnd="0" shadowEnabled="0" shadowOffsetX="0" shadowOffsetY="2" shadowBlur="4" shadowOpacity="160" blurEnabled="0" blurRadius="4" transform="matrix(0.277129,0,0,0.277129,278.125,79.9684)" pers-center="0,0" pers-size="0,0" pers-start="0,0" pers-end="0,0" locked="0" mesh="" flag=""/>
            <path id="shapePath17" d="M269.423,67.7234 C269.229,68.1113 269.118,72.0466 269.118,80.0833 C269.118,90.7528 269.173,91.889 269.589,92.3047 C270.005,92.7204 270.642,92.7758 275.326,92.665 C279.676,92.5541 280.84,92.4433 281.866,92.0276 C285.468,90.5311 287.104,88.3141 287.131,85.0162 C287.131,83.0209 286.577,81.6907 285.108,80.1942 L284.194,79.2242 L285.108,78.1711 C287.436,75.4553 286.826,71.3815 283.75,69.109 C281.783,67.6402 280.73,67.4185 275.021,67.28 C269.894,67.1691 269.728,67.1691 269.423,67.7234 M279.178,72.0466 C280.757,72.6286 281.311,73.2382 281.311,74.4299 C281.311,75.1227 281.117,75.6216 280.702,76.0095 C279.593,77.0072 278.9,77.2012 276.628,77.2012 L274.383,77.2012 L274.383,74.4299 L274.383,71.6586 L276.268,71.6586 C277.293,71.6863 278.596,71.8526 279.178,72.0466 M280.175,82.1895 C280.813,82.4944 281.422,83.0763 281.699,83.686 C282.281,84.9054 282.254,85.1825 281.589,86.291 C280.757,87.6212 279.15,88.2864 276.545,88.2864 L274.383,88.2864 L274.383,84.9608 L274.383,81.6353 L276.739,81.6353 C278.54,81.6353 279.372,81.7738 280.175,82.1895 Z" style="stroke:none;fill-rule:nonzero;fill:#4d4d4d;fill-opacity:1;"/>
        </g>
        <g id="Shape18">
            <desc shapeID="18" type="0" basicInfo-basicType="0" basicInfo-roundedRectRadius="12" basicInfo-polygonSides="6" basicInfo-starPoints="5" bounding="rect(-36.1456,-45.9781,72.2913,91.9561)" text="" font-familyName="" font-pixelSize="20" font-bold="0" font-underline="0" font-alignment="1" strokeStyle="0" markerStart="0" markerEnd="0" shadowEnabled="0" shadowOffsetX="0" shadowOffsetY="2" shadowBlur="4" shadowOpacity="160" blurEnabled="0" blurRadius="4" transform="matrix(0.277129,0,0,0.277129,298.578,79.9664)" pers-center="0,0" pers-size="0,0" pers-start="0,0" pers-end="0,0" locked="0" mesh="" flag=""/>
            <path id="shapePath18" d="M296.581,67.8065 C296.304,68.1113 295.972,68.8319 295.861,69.3584 C295.778,69.9127 295.584,70.5501 295.445,70.7995 C295.307,71.0489 294.253,74.0419 293.117,77.4783 C291.981,80.9147 290.484,85.3211 289.792,87.3164 C288.434,91.1685 288.267,92.277 288.96,92.5541 C289.57,92.7758 292.757,92.7481 293.117,92.4987 C293.283,92.3879 293.755,91.2794 294.143,90.0046 C295.307,86.3465 294.974,86.6236 298.715,86.6236 L301.958,86.6236 L302.9,89.5334 C303.953,92.8036 303.953,92.8036 306.641,92.665 C307.805,92.6096 308.359,92.4433 308.553,92.1107 C308.803,91.7505 307.971,88.9792 304.895,79.7231 C302.706,73.1828 300.794,67.6956 300.627,67.5294 C300.461,67.3631 299.602,67.2245 298.715,67.2245 C297.468,67.2245 297.025,67.3354 296.581,67.8065 M299.741,79.5568 C300.129,80.7207 300.433,81.7461 300.433,81.8015 C300.433,81.857 299.63,81.9124 298.66,81.9124 L296.886,81.9124 L297.136,80.8593 C297.302,80.305 297.607,79.2797 297.856,78.5868 C298.078,77.894 298.327,77.1458 298.41,76.9241 C298.577,76.3421 298.854,76.8686 299.741,79.5568 Z" style="stroke:none;fill-rule:nonzero;fill:#4d4d4d;fill-opacity:1;"/>
        </g>
        <g id="Shape19">
            <desc shapeID="19" type="0" basicInfo-basicType="0" basicInfo-roundedRectRadius="12" basicInfo-polygonSides="6" basicInfo-starPoints="5" bounding="rect(-32.5115,-46.1089,65.0228,92.2178)" text="" font-familyName="" font-pixelSize="20" font-bold="0" font-underline="0" font-alignment="1" strokeStyle="0" markerStart="0" markerEnd="0" shadowEnabled="0" shadowOffsetX="0" shadowOffsetY="2" shadowBlur="4" shadowOpacity="160" blurEnabled="0" blurRadius="4" transform="matrix(0.277129,0,0,0.277129,339.928,79.9725)" pers-center="0,0" pers-size="0,0" pers-start="0,0" pers-end="0,0" locked="0" mesh="" flag=""/>
            <path id="shapePath19" d="M331.361,67.6679 C330.973,68.0559 330.918,69.5524 330.918,79.9725 C330.918,90.3925 330.973,91.889 331.361,92.277 C331.915,92.8313 335.13,92.8867 335.601,92.3601 C335.767,92.1384 335.934,90.1154 335.961,87.0116 L336.045,82.0509 L340.008,81.9678 L343.943,81.8847 L343.943,87.0116 C343.943,92.9144 343.86,92.7204 346.548,92.7204 C349.18,92.7204 348.931,93.9952 348.931,79.9725 C348.931,65.9497 349.18,67.2245 346.548,67.2245 C343.86,67.2245 343.943,67.086 343.943,72.6285 L343.943,77.4783 L340.091,77.4783 C336.848,77.4783 336.211,77.4229 336.072,77.0349 C335.989,76.7855 335.906,74.6516 335.906,72.2406 C335.906,69.2199 335.795,67.7788 335.573,67.5571 C335.075,67.0583 331.888,67.1414 331.361,67.6679 Z" style="stroke:none;fill-rule:nonzero;fill:#4d4d4d;fill-opacity:1;"/>
        </g>
        <g id="Shape20">
            <desc shapeID="20" type="0" basicInfo-basicType="0" basicInfo-roundedRectRadius="12" basicInfo-polygonSides="6" basicInfo-starPoints="5" bounding="rect(-27,-32.0504,54,64.1008)" text="" font-familyName="" font-pixelSize="20" font-bold="0" font-underline="0" font-alignment="1" strokeStyle="0" markerStart="0" markerEnd="0" shadowEnabled="0" shadowOffsetX="0" shadowOffsetY="2" shadowBlur="4" shadowOpacity="160" blurEnabled="0" blurRadius="4" transform="matrix(0.277129,0,0,0.277129,85.3811,79.8477)" pers-center="0,0" pers-size="0,0" pers-start="0,0" pers-end="0,0" locked="0" mesh="" flag=""/>
            <path id="shapePath20" d="M84.2449,71.2152 C79.9494,72.0189 77.8987,74.901 77.8987,80.111 C77.8987,82.8823 78.1758,83.88 79.4783,85.9585 C80.1157,87.0116 80.6977,87.5658 81.6953,88.0369 C82.9147,88.6466 83.3581,88.702 87.5982,88.7298 C90.1201,88.7298 92.3371,88.702 92.5311,88.6189 C92.9745,88.4803 92.9745,86.0139 92.5311,85.5705 C92.3094,85.3488 90.9514,85.2379 88.291,85.2379 C84.5775,85.2379 84.3281,85.2102 83.8015,84.6283 C82.693,83.4089 82.499,82.6883 82.499,79.9725 C82.499,77.2843 82.7207,76.5084 83.8015,75.3167 C84.3281,74.7347 84.5775,74.707 88.485,74.707 L92.5865,74.707 L92.5865,72.9057 L92.5865,71.1043 L90.1201,71.1043 C88.7621,71.1043 87.321,71.0489 86.8776,70.9935 C86.4342,70.9104 85.2426,71.0212 84.2449,71.2152 Z" style="stroke:none;fill-rule:nonzero;fill:#4d4d4d;fill-opacity:1;"/>
        </g>
        <g id="Shape21">
            <desc shapeID="21" type="0" basicInfo-basicType="0" basicInfo-roundedRectRadius="12" basicInfo-polygonSides="6" basicInfo-starPoints="5" bounding="rect(-34.7083,-32.9508,69.4167,65.9017)" text="" font-familyName="" font-pixelSize="20" font-bold="0" font-underline="0" font-alignment="1" strokeStyle="0" markerStart="0" markerEnd="0" shadowEnabled="0" shadowOffsetX="0" shadowOffsetY="2" shadowBlur="4" shadowOpacity="160" blurEnabled="0" blurRadius="4" transform="matrix(0.277129,0,0,0.277129,141.28,79.9861)" pers-center="0,0" pers-size="0,0" pers-start="0,0" pers-end="0,0" locked="0" mesh="" flag=""/>
            <path id="shapePath21" d="M137.62,71.1598 C135.237,71.9634 133.99,72.8503 132.881,74.5685 C131.967,75.9818 131.662,77.2566 131.662,79.8339 C131.662,86.0416 134.821,89.1177 141.223,89.1177 C145.906,89.09 148.927,87.5935 150.257,84.6282 C150.839,83.3257 150.922,82.7438 150.895,79.6953 C150.895,77.0626 150.784,75.9818 150.423,75.2336 C148.982,72.0466 146.433,70.8272 141.361,70.8549 C139.754,70.8549 138.091,70.9935 137.62,71.1598 M143.883,74.7902 C145.49,75.5938 146.183,77.1458 146.183,79.9725 C146.183,83.492 145.518,84.656 142.969,85.5428 C141.749,85.9585 139.2,85.5151 138.008,84.656 C135.957,83.2149 135.763,77.8109 137.675,75.6493 C139.006,74.0973 141.694,73.7371 143.883,74.7902 Z" style="stroke:none;fill-rule:nonzero;fill:#4d4d4d;fill-opacity:1;"/>
        </g>
        <g id="Shape22">
            <desc shapeID="22" type="0" basicInfo-basicType="0" basicInfo-roundedRectRadius="12" basicInfo-polygonSides="6" basicInfo-starPoints="5" bounding="rect(-34.6849,-32.0719,69.3698,64.1438)" text="" font-familyName="" font-pixelSize="20" font-bold="0" font-underline="0" font-alignment="1" strokeStyle="0" markerStart="0" markerEnd="0" shadowEnabled="0" shadowOffsetX="0" shadowOffsetY="2" shadowBlur="4" shadowOpacity="160" blurEnabled="0" blurRadius="4" transform="matrix(0.277129,0,0,0.277129,161.817,79.9292)" pers-center="0,0" pers-size="0,0" pers-start="0,0" pers-end="0,0" locked="0" mesh="" flag=""/>
            <path id="shapePath22" d="M157.241,71.1598 C155.162,71.5755 154.913,71.6863 153.998,72.6008 C151.172,75.3167 151.754,79.0025 155.273,80.8316 C156.132,81.275 156.908,81.3581 160.123,81.3581 C164.806,81.3581 165.832,81.7184 165.97,83.3535 C166.109,85.0994 165.665,85.2379 159.375,85.2379 C155.523,85.2379 153.86,85.3211 153.61,85.5705 C153.416,85.7645 153.278,86.4296 153.278,87.0947 C153.278,88.0092 153.416,88.3418 153.86,88.5912 C154.275,88.7852 156.465,88.8683 161.01,88.7852 C166.525,88.702 167.689,88.6189 168.437,88.2032 C171.873,86.3742 172.483,81.4967 169.573,79.3351 C168.104,78.2543 166.996,78.0326 163.06,78.0326 C160.954,78.0326 159.098,77.894 158.793,77.7277 C158.044,77.3398 157.629,76.2035 157.989,75.5107 C158.654,74.319 159.652,74.0973 164.89,74.1805 C167.605,74.2082 169.961,74.1528 170.127,74.0419 C170.571,73.7648 170.571,71.4092 170.127,71.2429 C169.49,71.0212 158.294,70.9658 157.241,71.1598 Z" style="stroke:none;fill-rule:nonzero;fill:#4d4d4d;fill-opacity:1;"/>
        </g>
        <g id="Shape23">
            <desc shapeID="23" type="0" basicInfo-basicType="0" basicInfo-roundedRectRadius="12" basicInfo-polygonSides="6" basicInfo-starPoints="5" bounding="rect(-17.05,-31.7559,34.1,63.5118)" text="" font-familyName="" font-pixelSize="20" font-bold="0" font-underline="0" font-alignment="1" strokeStyle="0" markerStart="0" markerEnd="0" shadowEnabled="0" shadowOffsetX="0" shadowOffsetY="2" shadowBlur="4" shadowOpacity="160" blurEnabled="0" blurRadius="4" transform="matrix(0.277129,0,0,0.277129,125.856,79.9385)" pers-center="0,0" pers-size="0,0" pers-start="0,0" pers-end="0,0" locked="0" mesh="" flag=""/>
            <path id="shapePath23" d="M123.542,71.2706 C123.431,71.3815 123.348,72.3791 123.348,73.5154 L123.348,75.5384 L122.572,75.5384 C121.602,75.5384 121.131,75.9818 121.131,76.9518 C121.131,78.2543 121.408,78.5868 122.406,78.5868 L123.348,78.5868 L123.348,81.8847 C123.348,83.686 123.486,85.5705 123.653,86.097 C124.373,88.2032 126.036,89.0346 128.835,88.6466 C130.359,88.4249 130.415,88.3972 130.415,87.5935 C130.442,86.2356 130.082,85.7922 129.029,85.7922 C127.505,85.7922 127.2,85.0439 127.283,81.6075 L127.366,78.7254 L128.974,78.6423 L130.581,78.5591 L130.498,77.118 L130.415,75.677 L128.89,75.5384 L127.366,75.3998 L127.228,73.3214 L127.089,71.2429 L125.426,71.1598 C124.484,71.1043 123.653,71.1598 123.542,71.2706 Z" style="stroke:none;fill-rule:nonzero;fill:#4d4d4d;fill-opacity:1;"/>
        </g>
        <g id="Shape24">
            <desc shapeID="24" type="0" basicInfo-basicType="0" basicInfo-roundedRectRadius="12" basicInfo-polygonSides="6" basicInfo-starPoints="5" bounding="rect(-52.15,-26.7069,104.3,53.4139)" text="" font-familyName="" font-pixelSize="20" font-bold="0" font-underline="0" font-alignment="1" strokeStyle="0" markerStart="0" markerEnd="0" shadowEnabled="0" shadowOffsetX="0" shadowOffsetY="2" shadowBlur="4" shadowOpacity="160" blurEnabled="0" blurRadius="4" transform="matrix(0.277129,0,0,0.277129,25.0085,79.8913)" pers-center="0,0" pers-size="0,0" pers-start="0,0" pers-end="0,0" locked="0" mesh="" flag=""/>
            <path id="shapePath24" d="M13.9649,75.9541 C12.0805,77.8386 10.5562,79.5568 10.5562,79.7785 C10.5562,80.2773 17.7616,87.4827 18.0665,87.2887 C18.205,87.2056 18.3159,86.0416 18.3159,84.656 L18.3159,82.1895 L27.7105,82.1895 L37.1052,82.1895 L38.2969,81.0533 L39.4608,79.9448 L38.2692,78.7254 L37.0498,77.4783 L27.766,77.4229 L18.4544,77.3397 L18.3713,74.901 C18.3159,72.8225 18.2327,72.49 17.817,72.49 C17.5676,72.5177 15.8217,74.0696 13.9649,75.9541 Z" style="stroke:none;fill-rule:nonzero;fill:#777777;fill-opacity:1;"/>
        </g>
        <g id="Shape25">
            <desc shapeID="25" type="0" basicInfo-basicType="0" basicInfo-roundedRectRadius="12" basicInfo-polygonSides="6" basicInfo-starPoints="5" bounding="rect(-52,-26.5,104,53)" text="" font-familyName="" font-pixelSize="20" font-bold="0" font-underline="0" font-alignment="1" strokeStyle="0" markerStart="0" markerEnd="0" shadowEnabled="0" shadowOffsetX="0" shadowOffsetY="2" shadowBlur="4" shadowOpacity="160" blurEnabled="0" blurRadius="4" transform="matrix(0.277129,0,0,0.277129,60.9938,79.8339)" pers-center="0,0" pers-size="0,0" pers-start="0,0" pers-end="0,0" locked="0" mesh="" flag=""/>
            <path id="shapePath25" d="M67.5894,74.901 L67.5063,77.3397 L58.0839,77.4229 L48.6892,77.4783 L47.6361,78.5037 C47.0542,79.0579 46.583,79.6676 46.583,79.8616 C46.583,80.0279 47.0819,80.6376 47.6916,81.1918 L48.8001,82.1895 L58.0562,82.1895 C66.2315,82.1895 67.34,82.2449 67.4786,82.6329 C67.5617,82.8823 67.6449,83.9908 67.6449,85.1271 C67.6449,86.679 67.728,87.1778 68.0328,87.1778 C68.4763,87.1778 75.4045,80.305 75.4045,79.8616 C75.4045,79.4459 68.4208,72.49 68.0051,72.49 C67.7834,72.49 67.6449,73.2659 67.5894,74.901 Z" style="stroke:none;fill-rule:nonzero;fill:#777777;fill-opacity:1;"/>
        </g>
        <g id="Shape26">
            <desc shapeID="26" type="0" basicInfo-basicType="0" basicInfo-roundedRectRadius="12" basicInfo-polygonSides="6" basicInfo-starPoints="5" bounding="rect(-21.1535,-23.7791,42.307,47.5581)" text="" font-familyName="" font-pixelSize="20" font-bold="0" font-underline="0" font-alignment="1" strokeStyle="0" markerStart="0" markerEnd="0" shadowEnabled="0" shadowOffsetX="0" shadowOffsetY="2" shadowBlur="4" shadowOpacity="160" blurEnabled="0" blurRadius="4" transform="matrix(0.277129,0,0,0.277129,99.8879,82.2318)" pers-center="0,0" pers-size="0,0" pers-start="0,0" pers-end="0,0" locked="0" mesh="" flag=""/>
            <path id="shapePath26" d="M98.4339,75.7324 C97.3808,75.9541 94.7204,78.8085 94.3324,80.1665 C93.5287,82.8269 94.3324,85.6536 96.4109,87.5104 C97.7134,88.702 98.9328,88.9237 103.117,88.7852 L105.75,88.702 L105.75,87.455 L105.75,86.2079 L102.674,86.0693 C99.3762,85.9307 98.6833,85.6536 98.6833,84.5174 C98.6833,83.88 98.7111,83.88 102.231,83.7969 L105.75,83.7137 L105.75,82.3281 L105.75,80.9424 L102.286,80.8593 C100.402,80.8316 98.7388,80.693 98.6002,80.5544 C98.4893,80.4436 98.7111,79.9448 99.099,79.4736 C99.8196,78.6145 99.8473,78.6145 102.785,78.5314 L105.75,78.4483 L105.75,77.0626 L105.75,75.677 L102.425,75.6493 C100.596,75.6215 98.7942,75.677 98.4339,75.7324 Z" style="stroke:none;fill-rule:nonzero;fill:#4d4d4d;fill-opacity:1;"/>
        </g>
        <g id="Shape27">
            <desc shapeID="27" type="0" basicInfo-basicType="0" basicInfo-roundedRectRadius="12" basicInfo-polygonSides="6" basicInfo-starPoints="5" bounding="rect(-22.4316,-23.9438,44.8632,47.8875)" text="" font-familyName="" font-pixelSize="20" font-bold="0" font-underline="0" font-alignment="1" strokeStyle="0" markerStart="0" markerEnd="0" shadowEnabled="0" shadowOffsetX="0" shadowOffsetY="2" shadowBlur="4" shadowOpacity="160" blurEnabled="0" blurRadius="4" transform="matrix(0.277129,0,0,0.277129,114.045,82.1982)" pers-center="0,0" pers-size="0,0" pers-start="0,0" pers-end="0,0" locked="0" mesh="" flag=""/>
            <path id="shapePath27" d="M108.189,75.8432 C107.912,76.1204 107.829,77.7831 107.829,82.2449 C107.829,87.9261 107.856,88.2863 108.355,88.5635 C109.048,88.9237 110.35,88.9237 111.265,88.5635 L111.986,88.3141 L112.041,83.5197 L112.124,78.7254 L113.842,78.7254 C116.503,78.7254 116.53,78.8085 116.697,84.2125 L116.835,88.702 L118.498,88.702 L120.161,88.702 L120.244,83.5751 C120.299,78.8917 120.244,78.3651 119.773,77.5614 C118.72,75.8432 118.166,75.677 113.094,75.5938 C109.658,75.5107 108.438,75.5938 108.189,75.8432 Z" style="stroke:none;fill-rule:nonzero;fill:#4d4d4d;fill-opacity:1;"/>
        </g>
        <g id="Shape28">
            <desc shapeID="28" type="0" basicInfo-basicType="0" basicInfo-roundedRectRadius="12" basicInfo-polygonSides="6" basicInfo-starPoints="5" bounding="rect(-29.5,-20,59,40)" text="" font-familyName="" font-pixelSize="20" font-bold="0" font-underline="0" font-alignment="1" strokeStyle="0" markerStart="0" markerEnd="0" shadowEnabled="0" shadowOffsetX="0" shadowOffsetY="2" shadowBlur="4" shadowOpacity="160" blurEnabled="0" blurRadius="4" transform="matrix(0.277129,0,0,0.277129,27.3226,88.5635)" pers-center="0,0" pers-size="0,0" pers-start="0,0" pers-end="0,0" locked="0" mesh="" flag=""/>
            <path id="shapePath28" d="M19.3412,83.2149 C19.2304,83.298 19.1473,84.6005 19.1473,86.0416 L19.1473,88.7021 L21.8631,91.4179 C23.3319,92.8867 24.7176,94.1061 24.9115,94.1061 C25.3827,94.1061 35.4979,83.9354 35.4979,83.4366 C35.4979,83.0763 34.4171,83.0209 27.5166,83.0209 C23.1102,83.0209 19.4244,83.104 19.3412,83.2149 Z" style="stroke:none;fill-rule:nonzero;fill:#4d4d4d;fill-opacity:1;"/>
        </g>
        <g id="Shape29">
            <desc shapeID="29" type="0" basicInfo-basicType="0" basicInfo-roundedRectRadius="12" basicInfo-polygonSides="6" basicInfo-starPoints="5" bounding="rect(-37.5875,-37,75.175,74)" text="" font-familyName="" font-pixelSize="20" font-bold="0" font-underline="0" font-alignment="1" strokeStyle="0" markerStart="0" markerEnd="0" shadowEnabled="0" shadowOffsetX="0" shadowOffsetY="2" shadowBlur="4" shadowOpacity="160" blurEnabled="0" blurRadius="4" transform="matrix(0.277129,0,0,0.277129,29.5154,93.2747)" pers-center="0,0" pers-size="0,0" pers-start="0,0" pers-end="0,0" locked="0" mesh="" flag=""/>
            <path id="shapePath29" d="M31.0084,89.3117 L24.6898,95.6026 L22.0571,92.9975 C20.616,91.5565 19.369,90.448 19.2858,90.5311 C19.1195,90.7251 19.0641,93.2747 19.1195,99.2884 L19.1473,103.528 L25.6598,103.528 C29.595,103.528 32.1723,103.418 32.1723,103.251 C32.1723,103.113 31.1192,101.977 29.8167,100.702 C28.5142,99.4547 27.4611,98.2076 27.4611,97.9582 C27.4611,97.7087 30.2601,94.7712 33.6965,91.3902 C38.5463,86.6513 39.9319,85.1271 39.9319,84.6005 C39.9319,83.298 39.6548,83.0209 38.4632,83.0209 C37.3824,83.0209 37.1884,83.1872 31.0084,89.3117 Z" style="stroke:none;fill-rule:nonzero;fill:#777777;fill-opacity:1;"/>
        </g>
        <g id="Shape30">
            <desc shapeID="30" type="0" basicInfo-basicType="0" basicInfo-roundedRectRadius="12" basicInfo-polygonSides="6" basicInfo-starPoints="5" bounding="rect(-37.4121,-36.9125,74.8241,73.825)" text="" font-familyName="" font-pixelSize="20" font-bold="0" font-underline="0" font-alignment="1" strokeStyle="0" markerStart="0" markerEnd="0" shadowEnabled="0" shadowOffsetX="0" shadowOffsetY="2" shadowBlur="4" shadowOpacity="160" blurEnabled="0" blurRadius="4" transform="matrix(0.277129,0,0,0.277129,56.6739,93.2504)" pers-center="0,0" pers-size="0,0" pers-start="0,0" pers-end="0,0" locked="0" mesh="" flag=""/>
            <path id="shapePath30" d="M46.4999,83.2149 C46.3891,83.298 46.3059,83.9077 46.3059,84.5174 C46.3059,85.6259 46.4445,85.7922 52.2642,91.6119 C55.5343,94.882 58.2225,97.7642 58.2225,97.9859 C58.2225,98.2353 57.1694,99.4547 55.8669,100.757 C54.5644,102.06 53.5113,103.196 53.5113,103.307 C53.5113,103.445 56.532,103.501 60.2455,103.473 L66.952,103.39 L67.0352,97.0436 C67.0629,92.9144 67.0075,90.5865 66.8135,90.3925 C66.6195,90.1985 65.7327,90.8914 63.9591,92.665 C62.5457,94.0783 61.2432,95.2146 61.0769,95.2146 C60.8829,95.2146 57.9731,92.471 54.5921,89.1177 C49.1881,83.7691 48.3013,83.0209 47.553,83.0209 C47.0819,83.0209 46.583,83.104 46.4999,83.2149 Z" style="stroke:none;fill-rule:nonzero;fill:#777777;fill-opacity:1;"/>
        </g>
        <g id="Shape31">
            <desc shapeID="31" type="0" basicInfo-basicType="0" basicInfo-roundedRectRadius="12" basicInfo-polygonSides="6" basicInfo-starPoints="5" bounding="rect(-30.55,-20.6343,61.1,41.2686)" text="" font-familyName="" font-pixelSize="20" font-bold="0" font-underline="0" font-alignment="1" strokeStyle="0" markerStart="0" markerEnd="0" shadowEnabled="0" shadowOffsetX="0" shadowOffsetY="2" shadowBlur="4" shadowOpacity="160" blurEnabled="0" blurRadius="4" transform="matrix(0.277129,0,0,0.277129,58.652,88.7757)" pers-center="0,0" pers-size="0,0" pers-start="0,0" pers-end="0,0" locked="0" mesh="" flag=""/>
            <path id="shapePath31" d="M50.1857,83.3812 C50.1857,83.5752 52.6245,86.1525 55.5897,89.1177 L60.9938,94.494 L64.0422,91.4733 L67.1183,88.4249 L67.0352,85.7922 L66.952,83.1595 L58.5827,83.0763 C51.8485,83.0209 50.1857,83.0763 50.1857,83.3812 Z" style="stroke:none;fill-rule:nonzero;fill:#4d4d4d;fill-opacity:1;"/>
        </g>
        <g id="Shape32">
            <desc shapeID="32" type="0" basicInfo-basicType="0" basicInfo-roundedRectRadius="12" basicInfo-polygonSides="6" basicInfo-starPoints="5" bounding="rect(-27.0678,-52,54.1357,104)" text="" font-familyName="" font-pixelSize="20" font-bold="0" font-underline="0" font-alignment="1" strokeStyle="0" markerStart="0" markerEnd="0" shadowEnabled="0" shadowOffsetX="0" shadowOffsetY="2" shadowBlur="4" shadowOpacity="160" blurEnabled="0" blurRadius="4" transform="matrix(0.277129,0,0,0.277129,42.8279,97.9859)" pers-center="0,0" pers-size="0,0" pers-start="0,0" pers-end="0,0" locked="0" mesh="" flag=""/>
            <path id="shapePath32" d="M41.567,84.5728 L40.6248,85.5428 L40.4862,95.0206 L40.3476,104.498 L37.9366,104.498 C36.6341,104.498 35.4425,104.609 35.3316,104.72 C35.1099,104.942 42.343,112.397 42.7864,112.397 C43.1744,112.397 50.546,104.886 50.3243,104.692 C50.2134,104.582 49.2989,104.471 48.3013,104.471 C47.2759,104.443 46.2228,104.415 45.9734,104.388 C45.5022,104.36 45.4745,103.722 45.4745,95.1592 L45.4745,85.9585 L44.3106,84.7668 C43.6732,84.1017 43.0081,83.5751 42.8418,83.5751 C42.6755,83.5751 42.0936,84.0186 41.567,84.5728 Z" style="stroke:none;fill-rule:nonzero;fill:#777777;fill-opacity:1;"/>
        </g>
        <g id="Shape33">
            <desc shapeID="33" type="0" basicInfo-basicType="0" basicInfo-roundedRectRadius="12" basicInfo-polygonSides="6" basicInfo-starPoints="5" bounding="rect(-20.5,-29.804,41,59.6081)" text="" font-familyName="" font-pixelSize="20" font-bold="0" font-underline="0" font-alignment="1" strokeStyle="0" markerStart="0" markerEnd="0" shadowEnabled="0" shadowOffsetX="0" shadowOffsetY="2" shadowBlur="4" shadowOpacity="160" blurEnabled="0" blurRadius="4" transform="matrix(0.277129,0,0,0.277129,34.2508,95.2689)" pers-center="0,0" pers-size="0,0" pers-start="0,0" pers-end="0,0" locked="0" mesh="" flag=""/>
            <path id="shapePath33" d="M33.946,92.1939 C30.9807,95.1314 28.5696,97.7365 28.5696,97.9859 C28.5696,98.2076 29.7336,99.5655 31.1469,100.979 L33.6965,103.528 L36.8281,103.528 L39.9319,103.528 L39.9319,95.3809 C39.9319,89.8106 39.8488,87.1501 39.6271,87.0116 C39.4608,86.9284 36.9667,89.1732 33.946,92.1939 Z" style="stroke:none;fill-rule:nonzero;fill:#4d4d4d;fill-opacity:1;"/>
        </g>
        <g id="Shape34">
            <desc shapeID="34" type="0" basicInfo-basicType="0" basicInfo-roundedRectRadius="12" basicInfo-polygonSides="6" basicInfo-starPoints="5" bounding="rect(-19.5,-29,39,58)" text="" font-familyName="" font-pixelSize="20" font-bold="0" font-underline="0" font-alignment="1" strokeStyle="0" markerStart="0" markerEnd="0" shadowEnabled="0" shadowOffsetX="0" shadowOffsetY="2" shadowBlur="4" shadowOpacity="160" blurEnabled="0" blurRadius="4" transform="matrix(0.277129,0,0,0.277129,51.7099,95.4917)" pers-center="0,0" pers-size="0,0" pers-start="0,0" pers-end="0,0" locked="0" mesh="" flag=""/>
            <path id="shapePath34" d="M46.3059,95.4917 L46.3059,103.528 L49.0772,103.528 L51.8485,103.528 L54.4812,100.896 C55.9223,99.4547 57.114,98.1244 57.114,97.9305 C57.114,97.487 47.0819,87.455 46.6385,87.455 C46.3891,87.455 46.3059,89.5057 46.3059,95.4917 Z" style="stroke:none;fill-rule:nonzero;fill:#4d4d4d;fill-opacity:1;"/>
        </g>
        <g id="Shape35">
            <desc shapeID="35" type="0" basicInfo-basicType="0" basicInfo-roundedRectRadius="12" basicInfo-polygonSides="6" basicInfo-starPoints="5" bounding="rect(-1.23814,-0.40037,2.47626,0.800748)" text="" font-familyName="" font-pixelSize="20" font-bold="0" font-underline="0" font-alignment="1" strokeStyle="0" markerStart="0" markerEnd="0" shadowEnabled="0" shadowOffsetX="0" shadowOffsetY="2" shadowBlur="4" shadowOpacity="160" blurEnabled="0" blurRadius="4" transform="matrix(0.277129,0,0,0.277129,430.569,91.7451)" pers-center="0,0" pers-size="0,0" pers-start="0,0" pers-end="0,0" locked="0" mesh="" flag=""/>
            <path id="shapePath35" d="M430.352,91.8059 C430.546,91.889 430.795,91.8613 430.878,91.7782 C430.989,91.695 430.823,91.6119 430.518,91.6396 C430.213,91.6396 430.13,91.7227 430.352,91.8059 Z" style="stroke:none;fill-rule:nonzero;fill:#4d4d4d;fill-opacity:1;"/>
        </g>
        <g id="Shape36">
            <desc shapeID="36" type="0" basicInfo-basicType="0" basicInfo-roundedRectRadius="12" basicInfo-polygonSides="6" basicInfo-starPoints="5" bounding="rect(-69.0759,-69.7842,138.152,139.568)" text="" font-familyName="" font-pixelSize="20" font-bold="0" font-underline="0" font-alignment="1" strokeStyle="0" markerStart="0" markerEnd="0" shadowEnabled="0" shadowOffsetX="0" shadowOffsetY="2" shadowBlur="4" shadowOpacity="160" blurEnabled="0" blurRadius="4" transform="matrix(-0.277129,-0.000400787,0.000400787,-0.277129,416.933,87.1408)" pers-center="0,0" pers-size="0,0" pers-start="0,0" pers-end="0,0" locked="0" mesh="" flag=""/>
            <path id="shapePath36" d="M414.512,106.237 C417.229,105.908 420.001,105.108 420.972,104.306 C422.498,103.117 422.804,102.092 422.838,98.2397 L422.843,94.7756 L416.746,94.6282 C413.393,94.5125 410.622,94.4253 410.566,94.3975 C410.539,94.3698 410.511,94.0926 410.512,93.8155 C410.513,93.2889 410.817,93.2617 419.99,93.1918 L429.496,93.1224 L431.077,92.3487 C433.711,91.0777 434.545,89.7764 435.771,85.2333 C436.189,83.6265 436.198,77.4189 435.757,75.8109 C434.985,72.8722 434.819,72.29 434.35,71.3748 C433.797,70.2377 432.662,69.0999 431.472,68.5162 C431.001,68.2938 429.338,68.042 427.565,67.9285 C423.907,67.7015 424.213,67.3417 424.15,72.0528 C424.12,73.7433 423.979,75.5444 423.812,76.0707 C423.172,78.0374 421.007,80.085 418.789,80.8301 C418.262,81.0233 414.521,81.2119 409.92,81.2884 L401.994,81.4432 L400.801,82.2729 C400.135,82.743 399.219,83.7116 398.775,84.4592 L397.942,85.7883 L397.821,92.7995 C397.671,100.67 397.836,101.695 399.468,103.471 C400.962,105.081 402.679,105.748 406.476,106.142 C410.216,106.563 411.713,106.565 414.512,106.237 M415.849,101.666 C415.268,101.083 415.185,100.778 415.325,99.947 C415.633,98.063 417.546,97.3729 418.93,98.6497 C419.815,99.4824 419.869,100.646 419.064,101.671 C418.286,102.667 416.845,102.665 415.849,101.666 Z" style="stroke:none;fill-rule:nonzero;fill:#787878;fill-opacity:1;"/>
        </g>
    </g>
</svg>
