<?xml version="1.0"?>
<svg version="1.1" xmlns="http://www.w3.org/2000/svg" xmlns:xlink="http://www.w3.org/1999/xlink" width="150" height="190">
    <desc iVinci="yes" version="4.6" gridStep="20" showGrid="no" snapToGrid="no" codePlatform="0"/>
    <g id="Layer1" name="Layer 1" opacity="1">
        <g id="Shape1">
            <desc shapeID="1" type="0" basicInfo-basicType="0" basicInfo-roundedRectRadius="12" basicInfo-polygonSides="6" basicInfo-starPoints="5" bounding="rect(-127.636,-126.601,255.272,253.202)" text="" font-familyName="" font-pixelSize="20" font-bold="0" font-underline="0" font-alignment="1" strokeStyle="0" markerStart="0" markerEnd="0" shadowEnabled="0" shadowOffsetX="0" shadowOffsetY="2" shadowBlur="4" shadowOpacity="160" blurEnabled="0" blurRadius="4" transform="matrix(0.570755,0,0,0.570755,75.0304,73.6216)" pers-center="0,0" pers-size="0,0" pers-start="0,0" pers-end="0,0" locked="0" mesh="" flag=""/>
            <path id="shapePath1" d="M147.522,52.1235 C147.453,51.5927 147.372,51.0619 147.262,50.5425 C147.164,49.9968 147.038,49.4564 146.885,48.9233 L146.48,48.2794 C144.808,46.9667 143.004,45.9747 141.173,45.0981 C139.662,44.3846 138.127,43.7625 136.573,43.1895 C132.244,31.1745 124.802,20.5208 115.017,13.0976 C104.903,5.4249 93.0073,1.36342 80.6186,1.36342 C68.2292,1.36342 56.3329,5.4249 46.2192,13.0981 C36.4336,20.5208 28.9909,31.1751 24.6623,43.1929 C23.1127,43.7636 21.5746,44.3875 20.0655,45.0981 C18.2311,45.9747 16.4286,46.9667 14.7569,48.2794 L14.3499,48.9233 C14.2044,49.458 14.0785,49.9979 13.9727,50.5419 C13.8677,51.0624 13.7889,51.5921 13.7136,52.1229 C13.5646,53.1741 13.4629,54.2314 13.4088,55.2917 C13.3015,57.4143 13.3643,59.542 13.5966,61.6545 C13.8232,63.7724 14.2171,65.8691 14.7746,67.9248 C15.0672,68.9592 15.4091,69.9789 15.7991,70.9806 C15.9954,71.4863 16.21,71.9886 16.448,72.4903 C16.5656,72.7397 16.6935,72.9834 16.8247,73.2385 C17.1153,73.7477 17.1683,73.847 17.2905,74.0279 L17.8395,74.5336 C18.1974,74.7174 18.4936,74.8572 18.8172,75.0107 L19.763,75.4348 C19.9382,75.5067 20.1026,75.5775 20.2812,75.6494 C15.9863,79.6201 11.3221,84.7786 7.28287,91.154 L2.18147,99.201 L9.34272,92.9153 C9.46429,92.8091 15.4692,87.6107 25.4837,81.7217 L25.6241,82.8729 C24.9688,83.2136 21.82,84.866 20.884,85.649 C19.3326,86.9372 19.2573,88.9366 19.6728,92.6665 C19.8857,94.5785 20.6026,98.2895 21.5694,101.692 C23.2349,107.548 24.4557,108.583 25.5276,108.826 C26.011,108.942 26.6349,108.995 27.3369,108.995 C29.2552,108.995 31.7123,108.621 33.3156,108.137 C35.1962,113.985 37.8599,119.265 41.1075,123.898 C40.9505,123.94 40.7959,123.991 40.6389,124.036 C38.6858,123.13 31.8561,119.966 29.5606,118.934 L24.7634,116.775 L27.6006,121.205 C27.8072,121.524 32.7048,129.161 36.703,134.308 C40.4431,139.108 45.5639,144.022 55.2268,144.022 C56.39,144.022 57.6069,143.946 58.8608,143.808 C61.742,143.477 63.9074,143.218 65.5535,143.006 C75.6969,146.733 86.882,146.963 97.4963,142.941 C100.276,141.884 102.949,140.564 105.478,138.999 C109.571,138.016 114.047,136.95 116.258,136.328 C116.613,136.232 117.057,136.127 117.518,136.018 C120.599,135.309 125.749,134.114 128.494,128.622 C131.261,123.08 135.773,114.589 135.82,114.502 L137.93,110.541 L133.819,112.328 C133.599,112.428 128.391,114.696 125.685,116.115 C127.565,111.786 128.673,108.203 129.059,106.827 C130.574,107.192 132.82,107.145 134.473,107.145 C135.285,107.145 136.12,107.004 136.663,106.866 C137.737,106.593 138.566,105.879 140.125,99.8374 C141.033,96.3256 141.685,92.5015 141.863,90.5358 C142.209,86.7106 142.097,84.6605 140.536,83.3666 C139.758,82.7239 137.475,81.4945 136.314,80.8895 C136.963,80.6115 137.282,80.6932 137.307,80.7 L138.361,76.703 C138.732,76.5443 139.124,76.3851 139.571,76.2139 C140.207,75.9605 140.843,75.7088 141.48,75.4342 L142.42,75.0102 C142.748,74.8566 143.043,74.7174 143.401,74.533 L143.95,74.0273 C144.069,73.8464 144.133,73.7471 144.205,73.609 C144.553,72.9828 144.676,72.7391 144.792,72.4903 C145.03,71.988 145.241,71.4858 145.441,70.9801 C145.831,69.9784 146.172,68.9587 146.464,67.9242 C147.022,65.8686 147.417,63.7719 147.643,61.6539 C147.88,59.5421 147.933,57.4149 147.827,55.2912 C147.776,54.2308 147.674,53.1736 147.522,52.1229 L147.522,52.1235 Z" style="stroke:none;fill-rule:nonzero;fill:#0e0f0d;fill-opacity:1;"/>
        </g>
        <g id="Shape2">
            <desc shapeID="2" type="0" basicInfo-basicType="0" basicInfo-roundedRectRadius="12" basicInfo-polygonSides="6" basicInfo-starPoints="5" bounding="rect(-3.50299,-2.769,7.006,5.53801)" text="" font-familyName="" font-pixelSize="20" font-bold="0" font-underline="0" font-alignment="1" strokeStyle="0" markerStart="0" markerEnd="0" shadowEnabled="0" shadowOffsetX="0" shadowOffsetY="2" shadowBlur="4" shadowOpacity="160" blurEnabled="0" blurRadius="4" transform="matrix(0.570755,0,0,0.570755,85.2622,133.205)" pers-center="0,0" pers-size="0,0" pers-start="0,0" pers-end="0,0" locked="0" mesh="" flag=""/>
            <path id="shapePath2" d="M87.2616,134.434 C86.4853,134.55 85.7091,134.645 84.942,134.706 C84.4426,134.731 83.9187,134.781 83.4409,134.781 L83.2629,134.785 C83.8622,133.45 84.3176,132.411 84.6606,131.624 C85.3627,132.411 86.2553,133.383 87.2616,134.434 Z" style="stroke:none;fill-rule:nonzero;fill:#e1c5a2;fill-opacity:1;"/>
        </g>
        <g id="Shape3">
            <desc shapeID="3" type="0" basicInfo-basicType="0" basicInfo-roundedRectRadius="12" basicInfo-polygonSides="6" basicInfo-starPoints="5" bounding="rect(-82.9835,-24.0615,165.967,48.123)" text="" font-familyName="" font-pixelSize="20" font-bold="0" font-underline="0" font-alignment="1" strokeStyle="0" markerStart="0" markerEnd="0" shadowEnabled="0" shadowOffsetX="0" shadowOffsetY="2" shadowBlur="4" shadowOpacity="160" blurEnabled="0" blurRadius="4" transform="matrix(0.570755,0,0,0.570755,80.8586,88.4003)" pers-center="0,0" pers-size="0,0" pers-start="0,0" pers-end="0,0" locked="0" mesh="" flag=""/>
            <path id="shapePath3" d="M86.3198,74.7179 C85.1064,75.703 83.8279,76.6203 82.4963,77.425 L78.0553,80.1041 C75.27,80.4443 72.8523,81.1326 72.7142,81.1749 C72.6331,81.192 72.5566,81.2302 72.4847,81.2736 C72.2648,81.4035 72.101,81.6106 72.0253,81.8546 L67.502,96.757 L43.3266,102.134 L35.7099,96.7999 L33.4953,78.8553 C37.8211,78.0608 43.6034,77.1442 50.5495,76.3646 C49.7925,77.269 49.0746,78.2056 48.3977,79.1715 L44.2626,85.1068 L50.2847,81.0927 C50.376,81.0299 54.208,78.5072 60.4806,75.4377 C67.3137,74.9257 74.1635,74.6686 81.0158,74.6671 C82.8194,74.6671 84.5853,74.6888 86.3198,74.7185 L86.3198,74.7179 M48.69,94.9341 C50.4079,94.0054 52.3485,94.1418 55.3866,94.1487 C55.7103,94.1544 56.0476,94.151 56.3969,94.1418 C56.6965,94.1418 56.9962,94.1361 57.3141,94.127 C60.4452,94.0956 63.0462,94.3918 62.9988,89.4799 C62.9526,84.5674 60.7689,80.5944 57.64,80.6252 C54.5122,80.6532 51.4838,84.6793 51.671,89.5895 C51.7207,90.868 51.9107,91.7921 52.211,92.4558 C49.4845,93.1413 48.7294,94.8279 48.6894,94.9341 L48.69,94.9341 M128.221,78.7965 L126.044,94.0545 L118.366,99.4322 L94.2219,96.688 L89.7169,81.8541 C89.617,81.5254 89.3576,81.2696 89.0275,81.1743 C88.8791,81.1292 85.89,80.2748 82.7212,80.0008 L83.3011,79.9626 C83.8005,79.9249 92.1267,78.9056 102.072,75.4787 C113.082,76.3235 122.076,77.6744 128.222,78.7965 L128.221,78.7965 M112.795,92.9199 C112.764,92.8011 112.101,90.8275 109.195,91.1739 C109.528,90.4434 109.679,89.4577 109.574,88.105 C109.19,83.2022 106.335,79.3057 103.21,79.4158 C100.081,79.5243 98.0797,83.5886 98.2526,88.5079 C98.425,93.4153 101.047,93.3816 104.176,93.2697 C108.378,93.1898 110.685,91.8999 112.795,92.9199 Z" style="stroke:none;fill-rule:nonzero;fill:#a89983;fill-opacity:1;"/>
        </g>
        <g id="Shape4">
            <desc shapeID="4" type="0" basicInfo-basicType="0" basicInfo-roundedRectRadius="12" basicInfo-polygonSides="6" basicInfo-starPoints="5" bounding="rect(-42.0622,-3.84047,84.1244,7.68094)" text="" font-familyName="" font-pixelSize="20" font-bold="0" font-underline="0" font-alignment="1" strokeStyle="0" markerStart="0" markerEnd="0" shadowEnabled="0" shadowOffsetX="0" shadowOffsetY="2" shadowBlur="4" shadowOpacity="160" blurEnabled="0" blurRadius="4" transform="matrix(0.570755,0,0,0.570755,80.5279,84.7157)" pers-center="0,0" pers-size="0,0" pers-start="0,0" pers-end="0,0" locked="0" mesh="" flag=""/>
            <path id="shapePath4" d="M104.535,84.0931 C104.55,84.9753 103.849,85.7035 102.966,85.7204 C102.543,85.728 102.133,85.5669 101.829,85.2724 C101.524,84.978 101.349,84.5745 101.342,84.1508 C101.333,83.7273 101.493,83.3178 101.787,83.0127 C102.081,82.7076 102.484,82.5318 102.908,82.5241 C103.332,82.5148 103.743,82.6753 104.048,82.97 C104.354,83.2648 104.529,83.6693 104.535,84.0937 M59.7209,85.2689 C59.743,86.1498 59.0481,86.8824 58.1674,86.907 C57.7424,86.9197 57.3299,86.7627 57.0211,86.4706 C56.7122,86.1785 56.5323,85.7755 56.5213,85.3505 C56.5103,84.9264 56.6685,84.5152 56.961,84.2079 C57.2536,83.9006 57.6564,83.7223 58.0806,83.7124 C58.9632,83.6898 59.6973,84.3863 59.7209,85.2689 Z" style="stroke:none;fill-rule:nonzero;fill:#ffffff;fill-opacity:1;"/>
        </g>
        <g id="Shape5">
            <desc shapeID="5" type="0" basicInfo-basicType="0" basicInfo-roundedRectRadius="12" basicInfo-polygonSides="6" basicInfo-starPoints="5" bounding="rect(-102.526,-50.6756,205.052,101.351)" text="" font-familyName="" font-pixelSize="20" font-bold="0" font-underline="0" font-alignment="1" strokeStyle="0" markerStart="0" markerEnd="0" shadowEnabled="0" shadowOffsetX="0" shadowOffsetY="2" shadowBlur="4" shadowOpacity="160" blurEnabled="0" blurRadius="4" transform="matrix(0.570755,0,0,0.570755,80.7204,112.736)" pers-center="0,0" pers-size="0,0" pers-start="0,0" pers-end="0,0" locked="0" mesh="" flag=""/>
            <path id="shapePath5" d="M138.76,85.5086 C138.383,85.197 137.122,84.4767 135.893,83.8123 L133.87,97.9956 C133.827,98.2719 133.674,98.5189 133.445,98.6805 L130.55,100.706 C130.481,101.048 130.428,101.334 130.376,101.602 C133.221,102.302 135.984,100.251 137.535,98.7707 C138.253,95.9763 138.878,92.659 139.094,90.2847 C139.424,86.6045 139.132,85.8145 138.76,85.5092 M94.0456,139.392 C92.1672,138.724 90.4452,137.634 88.9464,136.152 C88.8214,136.025 88.7027,135.902 88.5772,135.778 C87.4042,136.017 86.2182,136.187 85.0253,136.288 C84.5162,136.311 84.0305,136.354 83.4997,136.354 L82.7144,136.361 L82.4119,136.354 C80.6163,139.021 77.5981,140.487 75.2329,141.267 C82.2589,142.472 89.9898,140.628 94.0456,139.392 M32.1946,104.657 C32.1318,104.443 32.0656,104.231 32.0045,104.016 L28.2433,101.384 C28.0088,101.218 27.8549,100.961 27.8192,100.676 L25.9854,85.7832 C24.6281,86.5074 23.0591,87.4012 22.6419,87.7511 C22.2789,88.0508 22.0021,88.8144 22.3942,92.3628 C22.6921,95.0311 23.6293,99.1297 24.5864,102.201 C26.491,103.658 29.2963,105.193 32.1946,104.657 M88.4236,103.977 C88.0213,103.931 87.685,103.65 87.5686,103.262 L82.9273,87.9663 C82.1488,87.8647 81.4581,87.8076 80.8748,87.8076 C80.2892,87.8076 79.602,87.8647 78.8247,87.9663 L74.3129,102.822 C74.2055,103.17 73.9194,103.434 73.5635,103.514 L71.406,103.994 C71.2234,104.756 70.6024,105.874 68.6019,106.487 C65.3737,107.472 44.9378,113.563 42.6074,113.232 C41.2468,113.041 38.6578,111.613 36.7429,110.458 C35.9764,108.653 35.5523,107.427 35.4553,107.136 L35.4553,107.13 L35.4496,107.136 C35.7207,107.928 38.3873,115.604 43.8055,123.112 C49.614,121.401 54.631,119.805 56.2353,119.297 C59.5023,114.259 64.1574,109.259 67.4632,109.089 C68.0457,109.059 68.6288,109.044 69.212,109.043 C70.8318,109.043 72.378,109.158 73.8134,109.328 C72.5943,108.221 72.3443,106.927 72.1674,106.353 C72.1674,106.353 76.3893,109.655 81.7595,108.96 C87.1383,108.272 90.4749,105.175 90.4749,105.175 L90.5805,104.222 L88.423,103.977 Z" style="stroke:none;fill-rule:nonzero;fill:#e1c5a2;fill-opacity:1;"/>
        </g>
        <g id="Shape6">
            <desc shapeID="6" type="0" basicInfo-basicType="0" basicInfo-roundedRectRadius="12" basicInfo-polygonSides="6" basicInfo-starPoints="5" bounding="rect(-33.4405,-10.7645,66.881,21.529)" text="" font-familyName="" font-pixelSize="20" font-bold="0" font-underline="0" font-alignment="1" strokeStyle="0" markerStart="0" markerEnd="0" shadowEnabled="0" shadowOffsetX="0" shadowOffsetY="2" shadowBlur="4" shadowOpacity="160" blurEnabled="0" blurRadius="4" transform="matrix(0.570755,0,0,0.570755,107.203,110.83)" pers-center="0,0" pers-size="0,0" pers-start="0,0" pers-end="0,0" locked="0" mesh="" flag=""/>
            <path id="shapePath6" d="M92.7887,105.913 C91.6746,105.625 90.9732,105.165 90.5285,104.686 L90.4738,105.175 C90.4738,105.175 90.4555,107.432 88.1165,109.181 C92.6204,107.817 94.4827,107.354 95.7584,107.354 C97.1624,107.354 97.8565,107.94 98.4655,108.455 C98.5808,108.551 98.6961,108.652 98.8342,108.76 C101.79,111.087 104.738,113.424 107.679,115.769 C109.089,115.932 113.564,116.444 116.381,116.7 C118.002,116.852 119.472,116.974 120.91,116.974 C121.371,116.974 121.807,116.958 122.22,116.93 C123.705,114.085 125.072,110.939 126.289,107.47 C124.624,108.638 120.829,111.195 119.05,111.525 C116.738,111.958 96.0506,106.759 92.7887,105.913 Z" style="stroke:none;fill-rule:nonzero;fill:#e1c5a2;fill-opacity:1;"/>
        </g>
        <g id="Shape7">
            <desc shapeID="7" type="0" basicInfo-basicType="0" basicInfo-roundedRectRadius="12" basicInfo-polygonSides="6" basicInfo-starPoints="5" bounding="rect(-112.758,-60.7765,225.516,121.553)" text="" font-familyName="" font-pixelSize="20" font-bold="0" font-underline="0" font-alignment="1" strokeStyle="0" markerStart="0" markerEnd="0" shadowEnabled="0" shadowOffsetX="0" shadowOffsetY="2" shadowBlur="4" shadowOpacity="160" blurEnabled="0" blurRadius="4" transform="matrix(0.570755,0,0,0.570755,80.6203,38.7921)" pers-center="0,0" pers-size="0,0" pers-start="0,0" pers-end="0,0" locked="0" mesh="" flag=""/>
            <path id="shapePath7" d="M144.844,52.4226 C144.804,51.9339 144.753,51.4462 144.691,50.9597 C144.65,50.6122 144.599,50.2659 144.537,49.9215 C143.23,48.8228 141.745,47.844 140.199,46.9581 C138.525,45.9753 136.772,45.1015 134.982,44.2882 C133.208,43.4492 131.382,42.6906 129.549,41.9515 C128.633,41.5775 127.71,41.2188 126.781,40.8756 C125.857,40.5143 124.925,40.1776 123.988,39.8368 C125.95,40.1627 127.896,40.6114 129.827,41.1073 C131.084,41.4281 132.332,41.7928 133.571,42.1832 C124.745,19.1207 103.651,4.10361 80.618,4.10361 C57.5818,4.10361 36.4895,19.1213 27.6691,42.1832 C28.9076,41.7928 30.1587,41.4281 31.4092,41.1073 C33.3384,40.6108 35.2858,40.1627 37.2509,39.8374 C36.3092,40.1776 35.3788,40.5143 34.4496,40.8762 C33.523,41.2204 32.6017,41.5789 31.686,41.9515 C29.8522,42.6906 28.0298,43.4492 26.2496,44.2882 C24.466,45.1015 22.7138,45.9753 21.0375,46.9581 C19.4913,47.844 18.0091,48.8228 16.6997,49.9215 C16.6425,50.2667 16.5912,50.6128 16.5456,50.9597 C16.4866,51.4465 16.435,51.9342 16.391,52.4226 C16.31,53.4064 16.2681,54.3931 16.2654,55.3802 C16.2443,57.3567 16.3784,59.3338 16.6273,61.2875 C16.8989,63.2492 17.2579,65.1978 17.7893,67.083 C18.0468,68.0206 18.3485,68.9454 18.6934,69.8545 C18.8675,70.3037 19.0552,70.7495 19.2516,71.1781 C19.348,71.3927 19.4479,71.605 19.5518,71.8077 L19.6785,72.0474 C19.8229,72.1199 19.9753,72.1969 20.118,72.266 L20.9947,72.6843 C21.4844,72.9092 22.1624,73.2306 22.7223,73.4805 C22.7537,73.452 22.7851,73.4235 22.8102,73.3961 L21.1825,67.1948 C21.5283,67.1018 24.6195,66.3027 29.947,65.2862 C29.5153,65.2058 29.0858,65.1145 28.6588,65.0123 C27.4459,64.7086 26.2485,64.341 25.087,63.873 C24.5128,63.6293 23.946,63.3651 23.4061,63.0591 C22.8667,62.7475 22.3365,62.3976 21.9239,61.9302 C27.7758,63.8422 39.8718,62.9781 50.6248,61.8651 C60.4561,60.8509 70.317,60.1962 80.2247,60.174 C90.1302,60.1962 99.9945,60.8509 109.821,61.8651 C120.578,62.9781 132.674,63.8422 138.525,61.9302 C138.117,62.3982 137.583,62.7475 137.048,63.0591 C136.504,63.3645 135.936,63.6299 135.362,63.873 C134.202,64.341 133.009,64.7086 131.794,65.0123 C131.614,65.0551 131.432,65.0927 131.252,65.1333 C137.096,66.2166 140.497,67.0984 140.858,67.1943 L139.302,73.1016 C139.618,72.9646 139.935,72.8276 140.24,72.6838 L141.119,72.2654 C141.264,72.1964 141.414,72.1193 141.563,72.0468 L141.681,71.8071 C141.787,71.6045 141.89,71.3922 141.986,71.1776 C142.182,70.7495 142.37,70.3032 142.541,69.854 C142.885,68.9444 143.187,68.0196 143.447,67.0824 C143.979,65.1972 144.338,63.2481 144.606,61.2869 C144.86,59.3333 144.994,57.3562 144.976,55.3796 C144.973,54.3926 144.929,53.406 144.844,52.4226 Z" style="stroke:none;fill-rule:nonzero;fill:#e0d896;fill-opacity:1;"/>
        </g>
        <g id="Shape8">
            <desc shapeID="8" type="0" basicInfo-basicType="0" basicInfo-roundedRectRadius="12" basicInfo-polygonSides="6" basicInfo-starPoints="5" bounding="rect(-84.4945,-38.6825,168.989,77.365)" text="" font-familyName="" font-pixelSize="20" font-bold="0" font-underline="0" font-alignment="1" strokeStyle="0" markerStart="0" markerEnd="0" shadowEnabled="0" shadowOffsetX="0" shadowOffsetY="2" shadowBlur="4" shadowOpacity="160" blurEnabled="0" blurRadius="4" transform="matrix(0.570755,0,0,0.570755,80.6143,36.8458)" pers-center="0,0" pers-size="0,0" pers-start="0,0" pers-end="0,0" locked="0" mesh="" flag=""/>
            <path id="shapePath8" d="M104.853,40.951 C104.943,43.589 104.878,48.3765 103.648,52.8558 C103.599,53.027 103.606,53.2056 103.648,53.3711 C102.085,53.2075 100.519,53.0629 98.9523,52.9374 C100.708,49.256 101.092,45.3361 101.177,43.9543 C102.526,42.9971 103.868,41.8459 104.853,40.951 M60.064,43.9543 C60.1456,45.3355 60.5291,49.2463 62.2842,52.9282 C60.7186,53.0521 59.153,53.1959 57.5909,53.362 C57.6331,53.2033 57.6365,53.0275 57.5909,52.8563 C56.3638,48.3839 56.2987,43.5964 56.3832,40.9515 C57.3723,41.8459 58.7107,42.9971 60.064,43.9543 M124.08,57.0257 C124.072,57.0702 124.061,57.114 124.047,57.157 C124.219,57.2066 124.387,57.2568 124.559,57.3128 C126.007,57.7871 127.456,58.2831 128.84,58.9223 C126.529,57.4212 125.064,53.0909 124.248,49.7805 C124.472,54.1137 124.101,56.8619 124.08,57.0257 M54.4569,40.1182 L39.5122,44.3686 C38.6173,50.1818 38.8901,54.6211 39.0339,56.1616 L39.1098,56.1159 C39.1098,56.1159 39.5967,49.784 40.5892,47.3537 C41.1006,46.106 44.2289,45.3104 46.6136,44.7402 C49.0039,44.1729 52.8148,43.0348 53.5545,46.3902 C54.0111,48.4638 54.6401,50.188 55.2428,51.4597 C54.2828,46.8497 54.3439,42.3419 54.4569,40.1182 M106.778,40.1182 C106.9,42.4286 106.957,47.2041 105.873,51.9985 C106.552,50.696 107.306,48.7749 107.832,46.3902 C108.571,43.0348 112.382,44.1729 114.771,44.7408 C117.161,45.311 120.285,46.106 120.797,47.3537 C121.639,49.4107 122.115,54.2598 122.241,55.7027 C122.383,53.8483 122.54,49.6806 121.726,44.3681 L106.778,40.1182 M59.9452,41.4121 C60.4715,41.8346 61.0142,42.2364 61.5719,42.6164 C61.8327,42.7979 61.9925,43.0936 61.9983,43.412 C62.0017,43.4617 62.1135,48.3856 64.2904,52.5784 C64.3218,52.6412 64.3441,52.7096 64.3652,52.7747 C69.7771,52.4066 75.2049,52.2576 80.6191,52.2542 C86.0367,52.2576 91.4612,52.4168 96.8702,52.7873 C96.8919,52.7159 96.9119,52.6469 96.9501,52.5784 C99.1236,48.3856 99.2406,43.4617 99.2406,43.412 C99.2478,43.0932 99.4076,42.7972 99.6703,42.6164 C100.207,42.249 100.729,41.8612 101.235,41.4538 L101.304,41.262 C102.435,30.2482 100.36,20.0984 99.0408,15.0838 C98.9712,18.5129 98.1584,47.8942 90.8676,47.8942 L70.7439,47.8942 C63.0016,47.8942 62.3789,14.7676 62.3789,14.7676 L61.98,15.9439 C60.6593,21.2262 58.846,30.9354 59.9447,41.4121 M37.1898,57.1541 C37.183,57.1113 37.171,57.0696 37.1613,57.0257 C37.1373,56.8619 36.7641,54.1103 36.9889,49.7731 C36.1716,53.0858 34.7025,57.4235 32.3886,58.924 C33.7727,58.2819 35.2281,57.7848 36.6779,57.3099 C36.8468,57.2568 37.0203,57.2066 37.1898,57.1541 Z" style="stroke:none;fill-rule:nonzero;fill:#d7c184;fill-opacity:1;"/>
        </g>
        <g id="Shape9">
            <desc shapeID="9" type="0" basicInfo-basicType="0" basicInfo-roundedRectRadius="12" basicInfo-polygonSides="6" basicInfo-starPoints="5" bounding="rect(-98.9465,-39.2625,197.893,78.5251)" text="" font-familyName="" font-pixelSize="20" font-bold="0" font-underline="0" font-alignment="1" strokeStyle="0" markerStart="0" markerEnd="0" shadowEnabled="0" shadowOffsetX="0" shadowOffsetY="2" shadowBlur="4" shadowOpacity="160" blurEnabled="0" blurRadius="4" transform="matrix(0.570755,0,0,0.570755,81.0617,121.179)" pers-center="0,0" pers-size="0,0" pers-start="0,0" pers-end="0,0" locked="0" mesh="" flag=""/>
            <path id="shapePath9" d="M130.377,101.602 C130.254,102.254 130.112,102.902 129.949,103.546 C131.609,103.933 134.322,104.233 135.619,103.979 C136.175,103.376 136.892,101.284 137.536,98.7701 C135.985,100.251 133.221,102.302 130.377,101.601 M70.9026,142.225 C74.8665,143.31 78.9154,143.781 82.9044,143.517 C86.9066,143.244 92.1021,142.381 97.6173,140.142 C96.3985,140.053 95.1972,139.801 94.0455,139.392 C89.9898,140.629 82.2595,142.473 75.2335,141.268 C73.3728,141.88 71.9151,142.07 71.773,142.088 C71.4796,142.122 71.2365,142.162 70.9026,142.225 M32.4566,105.546 C32.3652,105.25 32.2813,104.953 32.194,104.657 C29.2957,105.193 26.4905,103.658 24.5876,102.202 C25.204,104.173 25.8255,105.723 26.2907,106.194 C27.7262,106.445 30.9013,106.004 32.4566,105.546 M36.7424,110.458 C38.6567,111.613 41.2456,113.042 42.6069,113.232 C44.9373,113.563 65.3731,107.472 68.6013,106.487 C70.6012,105.874 71.2234,104.756 71.406,103.994 L41.9231,110.559 C41.8502,110.572 41.7763,110.58 41.7022,110.581 L41.6988,110.581 C41.4956,110.581 41.2918,110.519 41.1183,110.398 L39.97,109.597 L36.526,107.185 L36.526,107.18 L35.1363,106.209 C35.1602,106.288 35.1888,106.366 35.2145,106.444 C35.2932,106.673 35.3708,106.905 35.4542,107.129 L35.4542,107.135 C35.5512,107.426 35.9753,108.653 36.7418,110.457 M127.181,104.794 C127.369,104.098 127.554,103.393 127.722,102.681 L126.699,103.401 L123.944,105.33 L120.964,107.419 C120.811,107.524 120.633,107.588 120.45,107.601 C120.39,107.605 120.329,107.604 120.269,107.597 L90.5805,104.222 L90.5303,104.685 C90.9743,105.165 91.6758,105.624 92.7893,105.913 C96.0512,106.758 116.738,111.957 119.05,111.523 C120.829,111.194 124.625,108.637 126.289,107.469 C126.303,107.428 126.317,107.389 126.33,107.349 C126.625,106.501 126.909,105.649 127.181,104.794 Z" style="stroke:none;fill-rule:nonzero;fill:#9f8f78;fill-opacity:1;"/>
        </g>
        <g id="Shape10">
            <desc shapeID="10" type="0" basicInfo-basicType="0" basicInfo-roundedRectRadius="12" basicInfo-polygonSides="6" basicInfo-starPoints="5" bounding="rect(-98.956,-38.272,197.912,76.544)" text="" font-familyName="" font-pixelSize="20" font-bold="0" font-underline="0" font-alignment="1" strokeStyle="0" markerStart="0" markerEnd="0" shadowEnabled="0" shadowOffsetX="0" shadowOffsetY="2" shadowBlur="4" shadowOpacity="160" blurEnabled="0" blurRadius="4" transform="matrix(0.570755,0,0,0.570755,81.0209,86.6393)" pers-center="0,0" pers-size="0,0" pers-start="0,0" pers-end="0,0" locked="0" mesh="" flag=""/>
            <path id="shapePath10" d="M95.7681,64.7959 C95.5341,65.0984 95.2784,65.4295 95.0033,65.7748 C93.5935,67.5567 91.6404,69.8294 89.3271,72.0594 C86.5581,71.9724 83.7879,71.9288 81.0175,71.9287 C76.3105,71.9287 71.7975,72.0525 67.5123,72.2586 C73.5697,69.7484 80.8434,67.2941 88.7216,65.8216 C91.0543,65.3771 93.4054,65.0347 95.7681,64.7954 M60.3322,67.5065 C58.1674,69.0258 55.7285,70.9618 53.3616,73.3133 C48.1056,73.8378 42.8666,74.52 37.6516,75.3589 C44.3568,72.2785 52.0106,69.4402 60.3322,67.5065 M134.391,80.0202 L131.923,97.2667 L120.112,105.543 L89.3083,102.04 L84.6738,86.7688 C84.5617,86.3982 84.2484,86.1236 83.8662,86.0611 C82.7258,85.8768 81.7173,85.7871 80.8748,85.7871 C80.0301,85.7871 79.0222,85.8768 77.8744,86.0611 C77.4944,86.1271 77.1833,86.4005 77.069,86.7688 L72.5475,101.668 L41.918,108.483 L29.7792,99.9807 L27.3837,80.6247 C27.9119,80.3302 28.4408,80.0371 28.9704,79.7451 C29.7232,79.583 30.5685,79.4118 31.5034,79.2343 L33.7579,97.499 C33.7893,97.7827 33.9491,98.0355 34.1837,98.1988 L42.5367,104.051 C42.7045,104.167 42.9105,104.232 43.112,104.232 C43.1868,104.232 43.2587,104.222 43.3374,104.207 L68.5203,98.6046 C68.607,98.5831 68.6912,98.5523 68.7714,98.5127 C69.0031,98.3871 69.1892,98.1742 69.2651,97.91 L73.8032,82.979 C75.0195,82.668 78.1363,81.9374 80.8743,81.9374 C83.607,81.9374 86.7228,82.668 87.9425,82.979 L92.4777,97.91 C92.5936,98.2958 92.9326,98.5778 93.3316,98.6234 L118.519,101.485 C118.76,101.514 119.009,101.446 119.21,101.306 L127.565,95.4649 C127.79,95.3022 127.945,95.0499 127.984,94.7754 L130.214,79.1681 C131.889,79.4889 133.289,79.7828 134.391,80.0202 M137.501,69.2027 L135.332,77.4279 C130.897,76.4496 121.16,74.5302 107.904,73.2385 C112.233,71.3922 116.643,69.0789 120.674,66.1806 C128.561,67.2947 134.353,68.491 137.501,69.2027 M24.5413,69.2027 L25.1441,71.48 C26.6138,70.3092 28.1264,69.1932 29.6787,68.1343 C27.5549,68.5418 25.8227,68.9128 24.5413,69.2027 Z" style="stroke:none;fill-rule:nonzero;fill:#6e6a67;fill-opacity:1;"/>
        </g>
        <g id="Shape11">
            <desc shapeID="11" type="0" basicInfo-basicType="0" basicInfo-roundedRectRadius="12" basicInfo-polygonSides="6" basicInfo-starPoints="5" bounding="rect(-98.413,-104.542,196.826,209.084)" text="" font-familyName="" font-pixelSize="20" font-bold="0" font-underline="0" font-alignment="1" strokeStyle="0" markerStart="0" markerEnd="0" shadowEnabled="0" shadowOffsetX="0" shadowOffsetY="2" shadowBlur="4" shadowOpacity="160" blurEnabled="0" blurRadius="4" transform="matrix(0.570755,0,0,0.570755,71.2513,77.4947)" pers-center="0,0" pers-size="0,0" pers-start="0,0" pers-end="0,0" locked="0" mesh="" flag=""/>
            <path id="shapePath11" d="M109.588,64.6156 C106.269,64.4272 102.951,64.2686 99.6293,64.131 C99.2581,64.6791 98.8766,65.2201 98.4849,65.7537 C96.7053,68.1611 93.1974,72.5502 88.7004,76.316 C92.0839,75.2442 105.506,70.7415 112.304,64.7828 C111.399,64.7239 110.494,64.6682 109.588,64.6156 M85.2639,63.7389 L85.2776,63.7355 C83.5939,63.7138 81.909,63.6955 80.2282,63.6892 L80.2247,63.6892 C77.7482,63.6961 75.278,63.7275 72.8015,63.7703 L68.2355,65.9346 C68.2113,65.9441 68.1886,65.9569 68.1681,65.9728 C67.4809,66.3061 61.4869,69.3311 55.8432,74.7276 C56.3369,74.4674 56.8603,74.198 57.3997,73.9246 C60.4863,71.8505 68.7183,66.9391 81.5192,63.7024 C82.7674,63.7098 84.0163,63.7172 85.2634,63.7389 M57.2051,64.2902 C55.091,64.3878 52.9758,64.4963 50.864,64.6156 C48.4143,64.7526 45.9726,64.9181 43.5326,65.1019 C42.3158,65.1955 41.0972,65.2993 39.8907,65.426 C39.5402,65.4603 39.1978,65.498 38.8547,65.5419 C35.6665,67.4477 23.4649,75.1077 15.0817,85.1325 C15.2261,84.9584 15.375,84.7866 15.5229,84.6148 C31.0434,71.3733 48.0593,66.2194 57.2051,64.2902 M127.421,118.744 L127.141,118.887 C125.585,119.706 123.546,120.106 120.91,120.106 C119.341,120.106 117.802,119.975 116.097,119.821 C112.692,119.509 106.927,118.831 106.868,118.82 L106.428,118.774 L106.079,118.493 C106.026,118.458 100.979,114.432 96.8976,111.223 C96.731,111.089 96.5814,110.961 96.4444,110.852 C96.0141,110.484 96.0141,110.484 95.7573,110.484 C94.4474,110.484 90.6422,111.666 82.3086,114.247 L81.7972,114.411 L81.2909,114.219 C81.2338,114.204 75.7672,112.177 69.2137,112.177 C68.6772,112.177 68.1419,112.19 67.6213,112.216 C66.9655,112.25 63.2825,114 58.5692,121.451 L58.2672,121.931 L57.725,122.105 C57.6463,122.131 49.5381,124.747 40.938,127.206 L40.3832,127.363 L39.8524,127.118 C39.7971,127.1 36.4387,125.537 33.2379,124.071 C33.4737,124.18 33.7111,124.287 33.9474,124.397 C37.1071,127.124 43.1577,132.369 43.8294,133.096 C43.9225,133.2 44.052,133.328 44.2061,133.473 C44.0504,133.296 43.8986,133.115 43.7507,132.931 L43.745,132.926 L43.7455,132.926 C45.1393,134.248 46.6952,135.39 48.3949,136.193 C49.243,136.592 50.1323,136.9 51.0364,137.051 C51.4924,137.125 51.9347,137.162 52.3965,137.162 C52.8639,137.162 53.3416,137.149 53.8188,137.125 C55.7091,137.028 57.6171,136.883 59.5206,136.699 C61.4212,136.528 63.3236,136.338 65.2225,136.107 C67.1191,135.903 69.0157,135.664 70.8958,135.373 C71.8375,135.236 72.7735,135.08 73.6879,134.877 C74.1371,134.771 74.6051,134.654 74.9607,134.494 C75.2854,134.339 75.6787,134.027 76.0246,133.729 C76.7323,133.12 77.4155,132.445 78.0918,131.772 C78.7699,131.093 79.4366,130.404 80.0918,129.703 C81.2053,128.537 82.1596,127.299 83.2378,126.098 C83.3759,125.949 83.5169,125.79 83.6601,125.636 C83.6601,125.639 83.6601,125.639 83.6624,125.639 L83.6749,125.653 C83.8998,125.815 84.1241,125.979 84.3439,126.151 C85.6412,127.118 86.9808,128.166 88.2729,129.07 C89.939,130.24 91.6256,131.413 93.3704,132.389 C93.8058,132.632 94.2562,132.858 94.686,133.001 C94.7419,133.021 94.7887,133.031 94.8315,133.037 C94.8634,133.056 94.9782,133.075 94.9913,133.075 C95.0763,133.087 95.1899,133.093 95.2995,133.1 C95.5347,133.103 95.7778,133.093 96.0215,133.082 C97.0055,133.013 98.0037,132.87 99.0031,132.713 C100.998,132.402 102.998,132.043 104.987,131.645 C106.98,131.264 108.971,130.855 110.949,130.415 C112.935,129.993 114.912,129.533 116.88,129.035 C117.857,128.772 118.835,128.529 119.706,128.111 C120.596,127.697 121.422,127.128 122.183,126.476 C123.719,125.169 125.009,123.548 126.081,121.782 L126.079,121.788 C126.605,120.81 127.054,119.792 127.421,118.744 M90.2158,24.9556 L93.7254,24.9556 L93.7254,17.8268 L68.0642,17.8268 L68.0642,24.9556 L71.5744,24.9556 L71.5744,21.3353 L78.8304,21.3353 L78.8304,43.3521 L75.8431,43.3521 L75.8431,47.4387 L85.9454,47.4387 L85.9454,43.3521 L82.9575,43.3521 L82.9575,21.3353 L90.2158,21.3353 L90.2158,24.9556 Z" style="stroke:none;fill-rule:nonzero;fill:#93232c;fill-opacity:1;"/>
        </g>
        <g id="Shape12">
            <desc shapeID="12" type="0" basicInfo-basicType="0" basicInfo-roundedRectRadius="12" basicInfo-polygonSides="6" basicInfo-starPoints="5" bounding="rect(-101.489,-67.6165,202.978,135.233)" text="" font-familyName="" font-pixelSize="20" font-bold="0" font-underline="0" font-alignment="1" strokeStyle="0" markerStart="0" markerEnd="0" shadowEnabled="0" shadowOffsetX="0" shadowOffsetY="2" shadowBlur="4" shadowOpacity="160" blurEnabled="0" blurRadius="4" transform="matrix(0.570755,0,0,0.570755,73.007,102.294)" pers-center="0,0" pers-size="0,0" pers-start="0,0" pers-end="0,0" locked="0" mesh="" flag=""/>
            <path id="shapePath12" d="M116.767,65.0984 C116.761,65.0945 116.754,65.0924 116.747,65.0922 C115.294,64.9829 113.84,64.8815 112.386,64.7879 L112.303,64.7828 C105.504,70.7415 92.0833,75.2442 88.6993,76.316 C88.6337,76.372 88.5692,76.4279 88.5035,76.4827 C92.8595,75.6985 99.3661,74.1438 106.119,71.1536 C109.441,69.6833 112.821,67.8677 116.037,65.623 C116.285,65.4506 116.526,65.2702 116.767,65.0984 M81.5192,63.7018 C68.7183,66.938 60.4863,71.8493 57.3991,73.9234 C60.2493,72.4733 63.1523,71.1292 66.102,69.8939 C66.4578,69.7459 66.8142,69.599 67.171,69.4533 C67.2829,69.4076 67.3936,69.362 67.506,69.3169 C67.8023,69.197 68.1019,69.0789 68.4027,68.9585 C68.5705,68.8934 68.736,68.8272 68.905,68.7621 C69.1755,68.6559 69.4489,68.5509 69.724,68.4453 C69.93,68.3671 70.1361,68.2884 70.3444,68.2113 C70.5967,68.1143 70.8507,68.0196 71.1069,67.9259 C71.3461,67.8375 71.5886,67.7502 71.8289,67.6634 C72.0664,67.5766 72.3021,67.4922 72.5412,67.4066 C72.8135,67.3107 73.088,67.2159 73.3643,67.1195 C73.5823,67.0447 73.7992,66.9688 74.0183,66.894 C74.3414,66.7856 74.6667,66.6771 74.9938,66.5698 C75.1736,66.5105 75.3516,66.4511 75.532,66.3923 C76.0434,66.2268 76.5605,66.0624 77.081,65.9032 C78.2168,65.5545 79.3772,65.2217 80.5569,64.9015 C82.1164,64.4762 83.6858,64.0883 85.2639,63.7383 C84.0163,63.7172 82.7674,63.7098 81.5192,63.7018 M57.2051,64.2902 C48.0593,66.2194 31.0434,71.3733 15.5229,84.6148 C15.375,84.7866 15.2261,84.9578 15.0817,85.1325 C22.9712,79.6475 36.5323,71.4949 53.2977,66.535 C53.8382,66.3752 54.3838,66.2194 54.9306,66.0653 C57.7646,65.2709 60.6299,64.5927 63.5193,64.0323 C61.4161,64.107 59.3106,64.1944 57.2051,64.2902 M130.443,117.281 C130.282,117.355 130.122,117.43 129.962,117.506 C129.875,117.546 129.791,117.586 129.703,117.626 L129.495,117.724 L129.178,117.876 C129.134,117.898 129.088,117.918 129.043,117.942 C128.923,117.999 128.803,118.054 128.688,118.112 L128.609,118.151 C128.482,118.213 128.355,118.274 128.233,118.336 L128.193,118.354 C127.92,118.489 127.662,118.619 127.421,118.743 C127.053,119.792 126.603,120.811 126.075,121.79 L126.08,121.783 C126.077,121.786 126.075,121.789 126.073,121.794 C125.002,123.552 123.713,125.168 122.181,126.474 C121.421,127.126 120.594,127.694 119.705,128.109 C118.832,128.527 117.855,128.769 116.879,129.033 C114.915,129.527 112.936,129.992 110.947,130.412 C108.966,130.852 106.979,131.262 104.986,131.642 C102.996,132.042 100.997,132.401 99.0003,132.711 C98.002,132.868 97.0043,133.011 96.0192,133.079 C95.7792,133.092 95.5388,133.099 95.2984,133.098 C95.1949,133.093 95.0917,133.085 94.989,133.072 C94.9347,133.067 94.8813,133.054 94.8303,133.035 C94.7803,133.029 94.7312,133.016 94.6842,132.998 C94.2533,132.857 93.8047,132.628 93.3686,132.387 C91.6244,131.41 89.9367,130.238 88.2707,129.067 C86.9808,128.163 85.6383,127.115 84.3416,126.148 L84.2286,126.308 L84.2366,126.317 C84.317,126.39 84.3987,126.457 84.4791,126.528 L84.4734,126.525 C84.4141,126.48 84.3576,126.437 84.3022,126.397 L85.3895,127.694 C85.3929,127.698 85.434,127.748 85.5139,127.841 C86.0687,128.493 88.3905,131.186 91.1473,133.921 C93.2459,136.002 95.7778,137.052 98.6824,137.052 C99.6738,137.052 100.716,136.922 101.769,136.672 C102.743,136.432 103.803,136.18 104.888,135.918 C108.108,135.152 111.674,134.297 114.042,133.683 C114.199,133.641 114.353,133.602 114.5,133.562 C114.835,133.474 115.139,133.393 115.411,133.317 C115.873,133.189 116.34,133.074 116.809,132.972 C119.68,132.306 123.607,131.395 125.686,127.227 C126.309,125.984 126.939,124.744 127.575,123.508 C128.617,121.484 129.666,119.465 130.725,117.45 C130.725,117.449 130.726,117.449 130.726,117.449 L130.932,117.054 L130.443,117.281 M83.4244,126.273 L83.2377,126.096 C82.159,127.297 81.2041,128.536 80.0917,129.702 C79.4366,130.402 78.7699,131.092 78.0918,131.77 C77.4155,132.443 76.7317,133.121 76.0246,133.728 C75.6781,134.026 75.2849,134.338 74.9607,134.492 C74.6057,134.652 74.1371,134.77 73.6879,134.875 C72.7747,135.079 71.8375,135.234 70.8958,135.371 C69.0163,135.663 67.1191,135.903 65.2225,136.105 C63.3235,136.336 61.4212,136.527 59.5206,136.697 C57.6177,136.882 55.7091,137.027 53.8188,137.125 C53.3416,137.146 52.8639,137.161 52.3965,137.161 C51.9347,137.161 51.4912,137.125 51.0363,137.049 C50.1317,136.899 49.2425,136.59 48.3949,136.192 C46.6958,135.389 45.1399,134.246 43.7455,132.925 L43.7507,132.93 C43.939,133.161 44.1462,133.379 44.3442,133.6 C44.2963,133.556 44.2506,133.512 44.2061,133.471 C44.052,133.326 43.9225,133.199 43.8289,133.094 C43.1565,132.366 37.1054,127.122 33.9468,124.395 C33.7105,124.285 33.4731,124.178 33.2374,124.068 C33.8347,124.953 34.4378,125.834 35.0467,126.711 C35.9777,128.056 36.9289,129.386 37.8999,130.702 C38.3181,131.267 38.7427,131.828 39.1738,132.384 C42.608,136.803 46.9309,140.887 55.2268,140.887 C56.2656,140.887 57.3711,140.823 58.5058,140.694 C58.7701,140.666 59.0269,140.636 59.2798,140.606 C59.5229,140.578 59.762,140.552 59.9938,140.524 C67.2075,139.695 69.1863,139.341 70.2845,139.152 C70.5687,139.102 70.8113,139.06 71.0738,139.021 C71.176,139.007 71.2804,138.99 71.3912,138.975 C71.4311,138.972 73.8705,138.658 76.2551,137.498 C77.8989,136.7 79.5153,135.5 80.3058,133.727 C82.3023,129.261 82.7081,128.194 82.7241,128.154 L83.4244,126.273 Z" style="stroke:none;fill-rule:nonzero;fill:#731b2a;fill-opacity:1;"/>
        </g>
        <g id="Shape13">
            <desc shapeID="13" type="0" basicInfo-basicType="0" basicInfo-roundedRectRadius="12" basicInfo-polygonSides="6" basicInfo-starPoints="5" bounding="rect(-87.2505,-72.825,174.501,145.65)" text="" font-familyName="" font-pixelSize="20" font-bold="0" font-underline="0" font-alignment="1" strokeStyle="0" markerStart="0" markerEnd="0" shadowEnabled="0" shadowOffsetX="0" shadowOffsetY="2" shadowBlur="4" shadowOpacity="160" blurEnabled="0" blurRadius="4" transform="matrix(0.570755,0,0,0.570755,80.6188,53.3683)" pers-center="0,0" pers-size="0,0" pers-start="0,0" pers-end="0,0" locked="0" mesh="" flag=""/>
            <path id="shapePath13" d="M102.966,85.7209 C103.848,85.7031 104.549,84.9759 104.535,84.0943 C104.529,83.6697 104.353,83.2651 104.048,82.9704 C103.742,82.6757 103.331,82.5152 102.907,82.5247 C102.483,82.5322 102.079,82.7081 101.785,83.0135 C101.491,83.3189 101.331,83.7287 101.34,84.1525 C101.356,85.0347 102.084,85.7369 102.966,85.7209 M112.795,92.9199 C110.685,91.8999 108.378,93.191 104.176,93.2697 C101.047,93.3816 98.425,93.4153 98.2526,88.5074 C98.0797,83.5886 100.081,79.5237 103.209,79.4152 C106.335,79.3057 109.189,83.2022 109.573,88.105 C109.679,89.4577 109.53,90.4434 109.195,91.1739 C112.101,90.8269 112.764,92.8006 112.795,92.9199 M58.1679,86.907 C59.0487,86.8824 59.7436,86.1498 59.7215,85.2689 C59.6982,84.3861 58.964,83.6892 58.0812,83.7119 C57.199,83.7358 56.5033,84.4704 56.5273,85.3525 C56.5512,86.2347 57.2858,86.9304 58.1679,86.9064 L58.1679,86.907 M62.9988,89.4794 C63.045,94.3913 60.4441,94.0956 57.3135,94.1264 C56.9956,94.1367 56.6959,94.1407 56.3957,94.1407 C56.047,94.1504 55.7097,94.1544 55.3861,94.1481 C52.3474,94.1407 50.4074,94.0054 48.6888,94.9335 C48.7288,94.8273 49.4845,93.1413 52.2104,92.4536 C51.9096,91.7898 51.7207,90.8663 51.671,89.5884 C51.4832,84.6787 54.5122,80.6526 57.64,80.6241 C60.7683,80.5933 62.952,84.5669 62.9988,89.4794 M122.242,55.7027 C122.219,56.0049 122.191,56.3067 122.156,56.6079 C120.917,56.2736 119.671,55.9615 118.421,55.6719 C114.289,54.7644 110.105,54.0914 105.902,53.6114 C105.757,53.5926 105.609,53.5829 105.461,53.5646 C105.489,53.5019 105.515,53.4396 105.534,53.3774 C105.659,52.9185 105.769,52.4591 105.873,51.9991 C106.957,47.2047 106.9,42.4298 106.778,40.1188 L121.726,44.3692 C122.54,49.6812 122.382,53.8483 122.242,55.7027 M103.649,52.8558 C103.599,53.027 103.606,53.2056 103.649,53.3711 C102.085,53.2075 100.52,53.0629 98.9523,52.9374 C100.708,49.256 101.092,45.3361 101.177,43.9543 C102.526,42.9971 103.868,41.8459 104.853,40.951 C104.943,43.589 104.878,48.3765 103.648,52.8558 L103.649,52.8558 M57.5909,53.3614 C57.6331,53.2028 57.6366,53.027 57.5909,52.8558 C56.3638,48.3828 56.2987,43.5958 56.3832,40.951 C57.3717,41.8459 58.7101,42.9971 60.064,43.9543 C60.1456,45.3355 60.5291,49.2463 62.2842,52.9282 C60.7186,53.0515 59.1536,53.1959 57.5909,53.362 L57.5909,53.3614 M55.3336,53.608 C53.2366,53.8637 51.1374,54.128 49.0484,54.4744 C46.9652,54.8311 44.8813,55.2101 42.8158,55.669 C41.563,55.9601 40.3216,56.2683 39.079,56.6045 C39.0676,56.5063 39.0522,56.3551 39.0345,56.1604 C38.8907,54.6194 38.6179,50.1812 39.5128,44.3675 L54.4569,40.1165 C54.3439,42.3407 54.2828,46.848 55.2434,51.4574 C55.3769,52.0978 55.5288,52.7382 55.7034,53.3751 C55.7228,53.4379 55.7479,53.5007 55.7753,53.5566 C55.6252,53.5755 55.4814,53.5886 55.333,53.6074 L55.3336,53.608 M130.254,59.6432 C130.126,59.5821 130.001,59.5199 129.88,59.4605 C129.695,59.3715 129.491,59.2699 129.256,59.1557 C129.112,59.0864 128.973,59.0082 128.839,58.9217 C127.456,58.2825 126.007,57.7871 124.559,57.3122 C124.388,57.2563 124.219,57.206 124.048,57.1558 C124.061,57.113 124.072,57.0693 124.08,57.0251 C124.101,56.8613 124.473,54.1126 124.249,49.78 C124.154,47.9296 123.949,45.7904 123.562,43.4394 C123.499,43.066 123.228,42.7615 122.864,42.6564 L120.733,42.0537 C120.275,25.5668 113.487,17.8194 113.275,17.5791 C119.339,27.339 119.285,38.9134 119.18,41.6107 L105.97,37.8558 C105.961,37.8558 105.952,37.8558 105.94,37.85 C105.884,37.8378 105.827,37.8294 105.77,37.8249 C105.757,37.8249 105.743,37.8227 105.721,37.8227 C105.649,37.8192 105.577,37.8253 105.506,37.8409 C105.495,37.8409 105.484,37.8506 105.47,37.8506 C105.411,37.863 105.354,37.8828 105.299,37.9094 C105.279,37.9191 105.26,37.9322 105.241,37.9379 C105.196,37.9682 105.153,37.9933 105.11,38.0247 C105.1,38.0315 105.087,38.0373 105.078,38.0464 C105.065,38.0555 105.061,38.0652 105.053,38.0715 C105.04,38.0846 105.025,38.0932 105.015,38.1029 C105.002,38.116 104.647,38.4642 104.094,38.9859 C104.133,37.7502 104.143,35.8593 104.002,33.5506 L103.96,32.8845 C103.544,27.0839 102.173,18.9364 98.0757,11.8037 C98.111,11.9064 98.5163,13.0896 99.0402,15.0832 C100.359,20.0979 102.435,30.2476 101.303,41.2614 C101.298,41.3117 101.294,41.3613 101.289,41.4121 C101.272,41.4264 101.253,41.4395 101.235,41.4532 C100.728,41.8605 100.206,42.2483 99.6698,42.6158 C99.407,42.7967 99.2468,43.0926 99.2388,43.4115 C99.2388,43.4611 99.123,48.385 96.9501,52.5778 C96.9113,52.6463 96.8913,52.7154 96.8691,52.7867 C91.4606,52.4157 86.0362,52.2576 80.6186,52.2536 C75.2038,52.257 69.7765,52.406 64.3646,52.7741 C64.3429,52.7085 64.3212,52.64 64.2898,52.5772 C62.113,48.385 62.0011,43.4611 61.9977,43.4109 C61.9915,43.0927 61.8326,42.7968 61.5708,42.6158 C61.0131,42.236 60.4706,41.8343 59.9447,41.4116 C58.8454,30.9342 60.6593,21.2257 61.9794,15.9428 C62.6061,13.4349 63.1232,11.919 63.1643,11.8031 C57.2188,22.1486 57.0127,34.6316 57.1446,38.9853 C56.5824,38.4636 56.2336,38.116 56.2245,38.1023 C56.2142,38.0926 56.196,38.0841 56.1834,38.0709 L56.1623,38.0452 C56.152,38.0367 56.14,38.031 56.1275,38.0241 C56.0854,37.9946 56.0416,37.9677 55.9962,37.9436 C55.9745,37.9317 55.9585,37.9185 55.9334,37.9088 C55.8832,37.8816 55.8285,37.8637 55.7719,37.8558 C55.7559,37.85 55.7439,37.8403 55.7337,37.8403 C55.6616,37.8251 55.588,37.819 55.5145,37.8221 C55.4962,37.8221 55.4768,37.8244 55.4586,37.8244 C55.4049,37.8301 55.353,37.8363 55.297,37.8495 C55.2839,37.8552 55.2776,37.8552 55.2651,37.8552 L42.0601,41.6102 C41.9539,38.9122 41.8969,27.3379 47.9605,17.5786 C47.7505,17.82 40.9637,25.568 40.5019,42.0548 L38.3816,42.6569 C38.0135,42.7579 37.7383,43.0644 37.6773,43.4412 C37.3309,45.5376 37.1011,47.6517 36.9889,49.7737 C36.7652,54.1114 37.1373,56.8625 37.1613,57.0263 C37.171,57.0696 37.183,57.1119 37.1898,57.1547 C37.0209,57.2072 36.8468,57.2574 36.6779,57.3105 C35.2282,57.7854 33.7733,58.2831 32.3892,58.9246 C32.2635,59.0056 32.1332,59.0792 31.9988,59.1449 L31.9771,59.1569 C31.7414,59.271 31.5365,59.3726 31.3516,59.4617 L31.0268,59.6203 C30.9583,59.6603 30.8876,59.6945 30.8202,59.7351 C31.8002,59.3504 32.8139,59.0696 33.8264,58.8207 C34.8408,58.5683 35.8621,58.3444 36.889,58.1495 C38.9455,57.7671 41.0065,57.4349 43.0806,57.1826 C45.149,56.911 47.226,56.6867 49.3064,56.5126 C51.3874,56.3351 53.4649,56.1599 55.5504,56.0394 C63.8909,55.5457 72.253,55.3899 80.618,55.3871 C88.9858,55.3928 97.3468,55.524 105.686,56.0366 C107.773,56.157 109.85,56.3311 111.934,56.5074 C114.017,56.6844 116.088,56.9115 118.155,57.1832 C120.23,57.4326 122.295,57.7631 124.348,58.1478 C125.374,58.3412 126.394,58.5656 127.407,58.8207 C128.427,59.0701 129.435,59.3509 130.417,59.7356 C130.363,59.7025 130.307,59.674 130.254,59.6432 Z" style="stroke:none;fill-rule:nonzero;fill:#0e0f0d;fill-opacity:1;"/>
        </g>
        <g id="Shape14">
            <desc shapeID="14" type="0" basicInfo-basicType="0" basicInfo-roundedRectRadius="12" basicInfo-polygonSides="6" basicInfo-starPoints="5" bounding="rect(-27.1025,-30.5585,54.205,61.117)" text="" font-familyName="" font-pixelSize="20" font-bold="0" font-underline="0" font-alignment="1" strokeStyle="0" markerStart="0" markerEnd="0" shadowEnabled="0" shadowOffsetX="0" shadowOffsetY="2" shadowBlur="4" shadowOpacity="160" blurEnabled="0" blurRadius="4" transform="matrix(0.570755,0,0,0.570755,80.8985,32.6291)" pers-center="0,0" pers-size="0,0" pers-start="0,0" pers-end="0,0" locked="0" mesh="" flag=""/>
            <path id="shapePath14" d="M82.9575,21.3353 L82.9575,43.3521 L85.9454,43.3521 L85.9454,47.4387 L75.843,47.4387 L75.843,43.3521 L78.8304,43.3521 L78.8304,21.3353 L71.5738,21.3353 L71.5738,24.9561 L68.0654,24.9561 L68.0654,17.8274 L93.7254,17.8274 L93.7254,24.9561 L90.2164,24.9561 L90.2164,21.3347 L82.9575,21.3347 L82.9575,21.3353 M96.3674,27.5919 L96.3674,15.1877 L65.4296,15.1877 L65.4296,27.5919 L74.2153,27.5919 L74.2153,23.971 L76.1889,23.971 L76.1889,40.7112 L73.2084,40.7112 L73.2084,50.0705 L88.5846,50.0705 L88.5846,40.7101 L85.5938,40.7101 L85.5938,23.9699 L87.5749,23.9699 L87.5749,27.5913 L96.3674,27.5913 L96.3674,27.5919 Z" style="stroke:none;fill-rule:nonzero;fill:#0e0f0d;fill-opacity:1;"/>
        </g>
        <g id="Shape15">
            <desc shapeID="15" type="0" basicInfo-basicType="0" basicInfo-roundedRectRadius="12" basicInfo-polygonSides="6" basicInfo-starPoints="5" bounding="rect(-89.5655,-19.6535,179.131,39.307)" text="" font-familyName="" font-pixelSize="20" font-bold="0" font-underline="0" font-alignment="1" strokeStyle="0" markerStart="0" markerEnd="0" shadowEnabled="0" shadowOffsetX="0" shadowOffsetY="2" shadowBlur="4" shadowOpacity="160" blurEnabled="0" blurRadius="4" transform="matrix(0.570755,0,0,0.570755,80.3226,177.551)" pers-center="0,0" pers-size="0,0" pers-start="0,0" pers-end="0,0" locked="0" mesh="" flag=""/>
            <path id="shapePath15" d="M35.0923,171.068 L29.2027,171.068 L29.2027,168.016 L44.5663,168.016 L44.5663,171.068 L38.7046,171.068 L38.7046,188.393 L35.0917,188.393 L35.0917,171.068 M44.2387,173.097 L47.2026,173.097 L47.4497,175.807 L47.5787,175.807 C48.6649,173.812 50.2869,172.723 51.9073,172.723 C52.6875,172.723 53.1847,172.815 53.651,173.031 L53.0283,176.15 C52.4986,175.991 52.0922,175.899 51.4421,175.899 C50.2264,175.899 48.7625,176.742 47.8258,179.046 L47.8258,188.393 L44.2415,188.393 L44.2415,173.097 L44.2387,173.097 M60.0993,185.961 C61.3465,185.961 62.3116,185.339 63.432,184.278 L63.432,180.852 C59.2946,181.38 57.9236,182.471 57.9236,183.996 C57.9196,185.37 58.8197,185.962 60.0993,185.962 L60.0993,185.961 M63.432,178.61 C63.4035,176.991 62.7185,175.621 60.6633,175.621 C59.1359,175.621 57.701,176.306 56.3598,177.113 L55.0556,174.715 C56.7405,173.662 58.8899,172.723 61.3173,172.723 C65.1471,172.723 67.0186,175.059 67.0186,179.326 L67.0186,188.396 L64.0901,188.396 L63.8087,186.708 L63.7219,186.708 C62.3436,187.865 60.7894,188.767 58.9818,188.767 C56.305,188.767 54.4306,186.958 54.4306,184.281 C54.4283,181.007 57.1714,179.295 63.4314,178.61 L63.432,178.61 M68.042,173.097 L71.6902,173.097 L74.1188,181.04 C74.5212,182.535 74.9909,184.093 75.3961,185.651 L75.5183,185.651 C75.9566,184.089 76.3961,182.535 76.8253,181.04 L79.2567,173.097 L82.7144,173.097 L77.5136,188.397 L73.3683,188.397 L68.042,173.097 M84.466,173.097 L88.0481,173.097 L88.0481,188.397 L84.466,188.397 L84.466,173.097 M84.0608,168.39 C84.0608,167.174 84.9991,166.334 86.2753,166.334 C87.5538,166.334 88.4875,167.174 88.4875,168.39 C88.4875,169.574 87.5538,170.415 86.2753,170.415 C84.9991,170.415 84.0608,169.571 84.0608,168.39 M91.7842,184.343 C93.1557,185.399 94.4639,186.056 96.0232,186.056 C97.6767,186.056 98.4546,185.278 98.4546,184.217 C98.4546,182.94 96.7983,182.382 95.1831,181.755 C93.1552,181.01 90.8824,179.853 90.8824,177.301 C90.8824,174.624 93.0313,172.722 96.4604,172.722 C98.5779,172.722 100.291,173.588 101.537,174.559 L99.8878,176.739 C98.8262,175.958 97.7361,175.433 96.5198,175.433 C94.9959,175.433 94.2767,176.148 94.2767,177.114 C94.2767,178.298 95.8035,178.797 97.4484,179.389 C99.5374,180.165 101.839,181.162 101.839,184.029 C101.839,186.643 99.7571,188.767 95.8942,188.767 C93.8127,188.767 91.5947,187.858 90.0988,186.644 L91.7848,184.343 M119.417,167.643 C121.909,167.643 123.936,168.858 125.211,170.231 L123.217,172.473 C122.156,171.446 121.006,170.791 119.449,170.791 C116.112,170.791 113.713,173.592 113.713,178.176 C113.713,182.815 115.925,185.621 119.322,185.621 C121.126,185.621 122.467,184.873 123.624,183.597 L125.615,185.81 C123.965,187.709 121.848,188.768 119.261,188.768 C114.089,188.768 110.007,185.028 110.007,178.269 C110.007,171.599 114.182,167.643 119.417,167.643 M127.826,168.016 L131.443,168.016 L131.443,188.397 L127.826,188.397 L127.826,168.016 Z" style="stroke:none;fill-rule:nonzero;fill:#2a2d2e;fill-opacity:1;"/>
        </g>
    </g>
</svg>
