<?xml version="1.0"?>
<svg version="1.1" xmlns="http://www.w3.org/2000/svg" xmlns:xlink="http://www.w3.org/1999/xlink" width="600" height="160">
    <desc iVinci="yes" version="4.6" gridStep="20" showGrid="no" snapToGrid="no" codePlatform="0"/>
    <g id="Layer1" name="gmail" opacity="1">
        <g id="Shape1">
            <desc shapeID="1" type="0" basicInfo-basicType="0" basicInfo-roundedRectRadius="12" basicInfo-polygonSides="6" basicInfo-starPoints="5" bounding="rect(-31.5319,-32.4357,63.0638,64.8714)" text="" font-familyName="" font-pixelSize="20" font-bold="0" font-underline="0" font-alignment="1" strokeStyle="0" markerStart="0" markerEnd="0" shadowEnabled="0" shadowOffsetX="0" shadowOffsetY="2" shadowBlur="4" shadowOpacity="160" blurEnabled="0" blurRadius="4" transform="matrix(0.158118,0,0,0.158118,90.9183,49.7236)" pers-center="0,0" pers-size="0,0" pers-start="0,0" pers-end="0,0" locked="0" mesh="" flag=""/>
            <path id="shapePath1" d="M85.9326,44.6173 C89.2531,44.5762 92.5735,44.6047 95.894,44.6031 C95.9019,45.6419 95.9177,46.6808 95.8798,47.7196 C93.5792,47.7038 91.2801,47.7196 88.9811,47.7338 C88.9653,49.2423 88.9352,50.7507 88.9495,52.2592 C91.258,52.2734 93.5681,52.2955 95.8766,52.2861 C95.9035,53.1399 95.894,53.9969 95.8687,54.8523 C92.5577,54.8302 89.2467,54.8397 85.9357,54.8428 C85.9436,51.4338 85.95,48.0264 85.9326,44.6173 Z" style="stroke:none;fill-rule:nonzero;fill:#000000;fill-opacity:1;"/>
        </g>
        <g id="Shape2">
            <desc shapeID="2" type="0" basicInfo-basicType="0" basicInfo-roundedRectRadius="12" basicInfo-polygonSides="6" basicInfo-starPoints="5" bounding="rect(-31.9463,-32.4506,63.8926,64.9011)" text="" font-familyName="" font-pixelSize="20" font-bold="0" font-underline="0" font-alignment="1" strokeStyle="0" markerStart="0" markerEnd="0" shadowEnabled="0" shadowOffsetX="0" shadowOffsetY="2" shadowBlur="4" shadowOpacity="160" blurEnabled="0" blurRadius="4" transform="matrix(0.158118,0,0,0.158118,102.113,49.726)" pers-center="0,0" pers-size="0,0" pers-start="0,0" pers-end="0,0" locked="0" mesh="" flag=""/>
            <path id="shapePath2" d="M97.0783,44.6063 C100.44,44.6 103.801,44.5794 107.165,44.6173 C107.152,45.5993 107.161,46.5796 107.161,47.5615 C104.715,47.5536 102.268,47.5647 99.8216,47.5931 C99.8248,47.9789 99.8248,48.3647 99.8216,48.7505 C102.265,48.7901 104.706,48.7948 107.147,48.8091 C107.157,50.8219 107.152,52.8331 107.165,54.8444 C103.801,54.8381 100.438,54.8412 97.0751,54.8571 C97.0577,54.0443 97.0562,53.2332 97.0799,52.4205 C99.4105,52.4268 101.743,52.43 104.073,52.411 C104.088,51.8876 104.094,51.3627 104.092,50.8393 C101.751,50.8393 99.4074,50.8472 97.0657,50.8314 C97.0657,48.7569 97.0657,46.6808 97.0783,44.6063 Z" style="stroke:none;fill-rule:nonzero;fill:#000000;fill-opacity:1;"/>
        </g>
        <g id="Shape3">
            <desc shapeID="3" type="0" basicInfo-basicType="0" basicInfo-roundedRectRadius="12" basicInfo-polygonSides="6" basicInfo-starPoints="5" bounding="rect(-32.0133,-32.4,64.0266,64.8)" text="" font-familyName="" font-pixelSize="20" font-bold="0" font-underline="0" font-alignment="1" strokeStyle="0" markerStart="0" markerEnd="0" shadowEnabled="0" shadowOffsetX="0" shadowOffsetY="2" shadowBlur="4" shadowOpacity="160" blurEnabled="0" blurRadius="4" transform="matrix(0.158118,0,0,0.158118,113.312,49.7467)" pers-center="0,0" pers-size="0,0" pers-start="0,0" pers-end="0,0" locked="0" mesh="" flag=""/>
            <path id="shapePath3" d="M108.29,44.6237 C111.646,44.6237 115.003,44.6237 118.358,44.6237 C118.372,45.6103 118.386,46.597 118.355,47.5821 C115.897,47.5805 113.44,47.5947 110.983,47.5995 C110.99,48.0027 110.999,48.4059 111.02,48.8091 C113.462,48.798 115.905,48.828 118.347,48.8533 C118.369,50.8567 118.385,52.86 118.356,54.8634 C114.993,54.8539 111.63,54.8539 108.267,54.8697 C108.246,54.0602 108.24,53.2474 108.275,52.4379 C110.601,52.4553 112.928,52.4521 115.256,52.43 C115.262,51.905 115.273,51.3801 115.268,50.8567 C112.933,50.8788 110.596,50.8662 108.259,50.8583 C108.259,48.7806 108.275,46.7013 108.29,44.6237 Z" style="stroke:none;fill-rule:nonzero;fill:#000000;fill-opacity:1;"/>
        </g>
        <g id="Shape4">
            <desc shapeID="4" type="0" basicInfo-basicType="0" basicInfo-roundedRectRadius="12" basicInfo-polygonSides="6" basicInfo-starPoints="5" bounding="rect(-170.875,-193.776,341.75,387.552)" text="" font-familyName="" font-pixelSize="20" font-bold="0" font-underline="0" font-alignment="1" strokeStyle="0" markerStart="0" markerEnd="0" shadowEnabled="0" shadowOffsetX="0" shadowOffsetY="2" shadowBlur="4" shadowOpacity="160" blurEnabled="0" blurRadius="4" transform="matrix(0.158118,0,0,0.158118,102.14,89.7227)" pers-center="0,0" pers-size="0,0" pers-start="0,0" pers-end="0,0" locked="0" mesh="" flag=""/>
            <path id="shapePath4" d="M75.1221,59.0851 C93.1349,59.0835 111.146,59.082 129.159,59.0851 C128.167,70.2878 127.192,81.4904 126.159,92.6899 C125.546,99.8479 124.913,107.006 124.246,114.159 C120.402,115.177 116.596,116.338 112.754,117.361 C109.225,118.397 105.667,119.334 102.137,120.362 L102.032,120.362 C98.6721,119.363 95.2789,118.484 91.9189,117.484 C87.9533,116.415 84.0225,115.223 80.0553,114.159 C79.5383,108.797 79.0719,103.432 78.6117,98.0675 C77.7437,88.1551 76.7997,78.249 75.9648,68.335 C75.6755,65.3513 75.4683,62.3582 75.1221,59.3808 L75.1221,59.0851 M102.225,63.5045 C102.187,65.6565 102.254,67.8101 102.187,69.9605 C96.0079,69.9383 89.827,69.9557 83.6478,69.9621 C83.7537,72.0508 84.0336,74.1253 84.3214,76.1966 C90.0705,76.4101 95.8276,76.1887 101.577,76.3611 C96.547,78.6174 91.4556,80.7425 86.4038,82.9514 C85.9705,83.1443 85.5072,83.2898 85.1199,83.5713 C85.1626,85.8655 85.5325,88.1472 85.6954,90.4367 C88.7597,90.4257 91.8225,90.3766 94.8868,90.3719 C97.3424,90.3593 99.7995,90.4083 102.255,90.3545 C102.138,94.1272 102.291,97.9046 102.176,101.677 C100.524,101.432 98.8919,101.064 97.2459,100.771 C95.9478,100.488 94.618,100.341 93.3388,99.9697 C93.157,98.1592 93.0305,96.3424 92.8692,94.5304 C92.4992,94.4166 92.1071,94.4276 91.7244,94.4213 C89.8681,94.4324 88.0103,94.415 86.1524,94.4434 C86.3342,97.9268 86.6473,101.405 87.1801,104.855 C89.0111,105.333 90.8453,105.801 92.6731,106.299 C95.4734,107.061 98.3085,107.695 101.113,108.445 C101.447,108.516 101.784,108.639 102.13,108.611 C102.317,110.902 102.173,113.207 102.208,115.505 C102.854,115.4 103.49,115.241 104.115,115.048 C109.424,113.606 114.727,112.137 120.034,110.681 C120.298,108.593 120.421,106.492 120.63,104.4 C121.182,98.0406 121.738,91.6811 122.317,85.3232 C122.995,78.0498 123.582,70.7685 124.265,63.495 C116.917,63.5014 109.571,63.4808 102.225,63.5045 Z" style="stroke:none;fill-rule:nonzero;fill:#6b6b6b;fill-opacity:1;"/>
        </g>
        <g id="Shape5">
            <desc shapeID="5" type="0" basicInfo-basicType="0" basicInfo-roundedRectRadius="12" basicInfo-polygonSides="6" basicInfo-starPoints="5" bounding="rect(-69.995,-164.472,139.99,328.944)" text="" font-familyName="" font-pixelSize="20" font-bold="0" font-underline="0" font-alignment="1" strokeStyle="0" markerStart="0" markerEnd="0" shadowEnabled="0" shadowOffsetX="0" shadowOffsetY="2" shadowBlur="4" shadowOpacity="160" blurEnabled="0" blurRadius="4" transform="matrix(0.158118,0,0,0.158118,113.198,89.4987)" pers-center="0,0" pers-size="0,0" pers-start="0,0" pers-end="0,0" locked="0" mesh="" flag=""/>
            <path id="shapePath5" d="M102.225,63.5045 C109.571,63.4808 116.917,63.5014 124.265,63.495 C123.582,70.7685 122.995,78.0498 122.317,85.3232 C121.738,91.6811 121.182,98.0406 120.63,104.4 C120.421,106.492 120.298,108.593 120.034,110.681 C114.727,112.137 109.424,113.606 104.115,115.048 C103.49,115.241 102.854,115.4 102.208,115.505 C102.173,113.207 102.317,110.902 102.13,108.611 C102.178,108.601 102.274,108.582 102.321,108.573 C107.26,107.333 112.164,105.969 117.091,104.685 C117.714,97.6959 118.405,90.7103 118.843,83.7072 C114.653,83.7294 110.461,83.7167 106.271,83.7341 C105.661,83.7373 105.051,83.7341 104.443,83.6898 C106.698,82.5293 109.07,81.609 111.385,80.5733 C113.606,79.5661 115.855,78.6222 118.084,77.6339 C118.514,77.4363 118.973,77.2718 119.351,76.9777 C119.499,76.4322 119.492,75.8614 119.55,75.3033 C119.678,73.5324 119.906,71.7709 119.991,69.9984 C114.057,69.951 108.123,69.9921 102.187,69.9605 C102.254,67.8101 102.187,65.6565 102.225,63.5045 Z" style="stroke:none;fill-rule:nonzero;fill:#9d9d9d;fill-opacity:1;"/>
        </g>
        <g id="Shape6">
            <desc shapeID="6" type="0" basicInfo-basicType="0" basicInfo-roundedRectRadius="12" basicInfo-polygonSides="6" basicInfo-starPoints="5" bounding="rect(-27.44,-35.8573,54.88,71.7145)" text="" font-familyName="" font-pixelSize="20" font-bold="0" font-underline="0" font-alignment="1" strokeStyle="0" markerStart="0" markerEnd="0" shadowEnabled="0" shadowOffsetX="0" shadowOffsetY="2" shadowBlur="4" shadowOpacity="160" blurEnabled="0" blurRadius="4" transform="matrix(0.158118,0,0,0.158118,106.515,96.0077)" pers-center="0,0" pers-size="0,0" pers-start="0,0" pers-end="0,0" locked="0" mesh="" flag=""/>
            <path id="shapePath6" d="M102.255,90.3545 C105.12,90.3055 107.987,90.383 110.854,90.364 C110.694,93.2939 110.45,96.2191 110.299,99.149 C108.542,99.723 106.758,100.208 104.987,100.74 C104.043,101.027 103.074,101.255 102.176,101.677 C102.291,97.9046 102.138,94.1272 102.255,90.3545 Z" style="stroke:none;fill-rule:nonzero;fill:#9d9d9d;fill-opacity:1;"/>
        </g>
        <g id="Shape7">
            <desc shapeID="7" type="0" basicInfo-basicType="0" basicInfo-roundedRectRadius="12" basicInfo-polygonSides="6" basicInfo-starPoints="5" bounding="rect(-58.84,-64.7845,117.68,129.569)" text="" font-familyName="" font-pixelSize="20" font-bold="0" font-underline="0" font-alignment="1" strokeStyle="0" markerStart="0" markerEnd="0" shadowEnabled="0" shadowOffsetX="0" shadowOffsetY="2" shadowBlur="4" shadowOpacity="160" blurEnabled="0" blurRadius="4" transform="matrix(0.158118,0,0,0.158118,92.9514,80.1932)" pers-center="0,0" pers-size="0,0" pers-start="0,0" pers-end="0,0" locked="0" mesh="" flag=""/>
            <path id="shapePath7" d="M83.6478,69.9621 C89.827,69.9557 96.0078,69.9383 102.187,69.9605 C102.268,76.7596 102.167,83.5586 102.255,90.3545 C99.7995,90.4083 97.3423,90.3593 94.8868,90.3719 C91.8225,90.3767 88.7597,90.4257 85.6954,90.4367 C85.5325,88.1472 85.1625,85.8656 85.1198,83.5713 C85.5072,83.2898 85.9705,83.1443 86.4038,82.9514 C91.4556,80.7425 96.547,78.6174 101.577,76.3611 C95.8276,76.1887 90.0705,76.4101 84.3213,76.1966 C84.0336,74.1253 83.7537,72.0508 83.6478,69.9621 Z" style="stroke:none;fill-rule:nonzero;fill:#cfcfcf;fill-opacity:1;"/>
        </g>
        <g id="Shape8">
            <desc shapeID="8" type="0" basicInfo-basicType="0" basicInfo-roundedRectRadius="12" basicInfo-polygonSides="6" basicInfo-starPoints="5" bounding="rect(-51.13,-44.8832,102.26,89.7665)" text="" font-familyName="" font-pixelSize="20" font-bold="0" font-underline="0" font-alignment="1" strokeStyle="0" markerStart="0" markerEnd="0" shadowEnabled="0" shadowOffsetX="0" shadowOffsetY="2" shadowBlur="4" shadowOpacity="160" blurEnabled="0" blurRadius="4" transform="matrix(0.158118,0,0,0.158118,94.2369,101.518)" pers-center="0,0" pers-size="0,0" pers-start="0,0" pers-end="0,0" locked="0" mesh="" flag=""/>
            <path id="shapePath8" d="M86.1524,94.4434 C88.0103,94.415 89.8681,94.4324 91.7244,94.4213 C92.1071,94.4276 92.4992,94.4166 92.8692,94.5304 C93.0305,96.3424 93.157,98.1592 93.3388,99.9697 C94.618,100.341 95.9478,100.488 97.2459,100.771 C98.8919,101.064 100.524,101.432 102.176,101.677 C102.334,103.973 102.057,106.285 102.322,108.573 C102.274,108.582 102.178,108.601 102.13,108.611 C101.784,108.639 101.447,108.516 101.113,108.445 C98.3085,107.695 95.4734,107.061 92.6732,106.299 C90.8453,105.801 89.0111,105.333 87.1801,104.855 C86.6473,101.405 86.3342,97.9268 86.1524,94.4434 Z" style="stroke:none;fill-rule:nonzero;fill:#cfcfcf;fill-opacity:1;"/>
        </g>
        <g id="Shape9">
            <desc shapeID="9" type="0" basicInfo-basicType="0" basicInfo-roundedRectRadius="12" basicInfo-polygonSides="6" basicInfo-starPoints="5" bounding="rect(-56.335,-122.1,112.67,244.2)" text="" font-familyName="" font-pixelSize="20" font-bold="0" font-underline="0" font-alignment="1" strokeStyle="0" markerStart="0" markerEnd="0" shadowEnabled="0" shadowOffsetX="0" shadowOffsetY="2" shadowBlur="4" shadowOpacity="160" blurEnabled="0" blurRadius="4" transform="matrix(0.158118,0,0,0.158118,111.084,89.2667)" pers-center="0,0" pers-size="0,0" pers-start="0,0" pers-end="0,0" locked="0" mesh="" flag=""/>
            <path id="shapePath9" d="M102.187,69.9605 C108.123,69.9921 114.057,69.951 119.991,69.9984 C119.906,71.7709 119.678,73.5324 119.55,75.3033 C119.492,75.8614 119.499,76.4322 119.351,76.9777 C118.973,77.2718 118.514,77.4363 118.084,77.6339 C115.855,78.6222 113.606,79.5661 111.385,80.5733 C109.07,81.609 106.698,82.5293 104.443,83.6898 C105.051,83.7341 105.661,83.7373 106.271,83.7341 C110.461,83.7167 114.653,83.7294 118.843,83.7072 C118.405,90.7103 117.714,97.6959 117.091,104.685 C112.164,105.969 107.26,107.333 102.322,108.573 C102.057,106.285 102.334,103.973 102.176,101.677 C103.074,101.255 104.043,101.027 104.987,100.74 C106.758,100.208 108.542,99.723 110.299,99.149 C110.45,96.2191 110.694,93.2939 110.854,90.364 C107.987,90.383 105.12,90.3055 102.255,90.3545 C102.167,83.5586 102.268,76.7595 102.187,69.9605 Z" style="stroke:none;fill-rule:nonzero;fill:#ffffff;fill-opacity:1;"/>
        </g>
        <g id="Shape10">
            <desc shapeID="10" type="0" basicInfo-basicType="0" basicInfo-roundedRectRadius="12" basicInfo-polygonSides="6" basicInfo-starPoints="5" bounding="rect(-147.95,-34.5,295.9,69)" text="" font-familyName="" font-pixelSize="20" font-bold="0" font-underline="0" font-alignment="1" strokeStyle="0" markerStart="0" markerEnd="0" shadowEnabled="0" shadowOffsetX="0" shadowOffsetY="2" shadowBlur="4" shadowOpacity="160" blurEnabled="0" blurRadius="4" transform="matrix(0.149761,0,0,0.149761,41.1665,48.6974)" pers-center="0,0" pers-size="0,0" pers-start="0,0" pers-end="0,0" locked="0" mesh="" flag=""/>
            <path id="shapePath10" d="M19.0093,43.5306 L22.4538,43.5306 L22.4538,46.9452 L25.6287,46.9452 L25.6287,43.5306 L29.0733,43.5306 L29.0733,53.8642 L25.6287,53.8642 L25.6287,50.4196 L22.4838,50.4196 L22.4838,53.8642 L19.0093,53.8642 M33.626,46.9751 L30.5858,46.9751 L30.5858,43.5306 L40.1256,43.5306 L40.1256,46.9751 L37.0705,46.9751 L37.0705,53.8642 L33.626,53.8642 M41.6382,43.5306 L45.2475,43.5306 L47.464,47.1698 L49.6804,43.5306 L53.2897,43.5306 L53.2897,53.8642 L49.8452,53.8642 L49.8452,48.7423 L47.434,52.4564 L45.0228,48.7423 L45.0228,53.8642 L41.6382,53.8642 M54.997,43.5306 L58.4415,43.5306 L58.4415,50.4496 L63.3237,50.4496 L63.3237,53.8642 L54.997,53.8642 " style="stroke:none;fill-rule:nonzero;fill:#000000;fill-opacity:1;"/>
        </g>
        <g id="Shape11">
            <desc shapeID="11" type="0" basicInfo-basicType="0" basicInfo-roundedRectRadius="12" basicInfo-polygonSides="6" basicInfo-starPoints="5" bounding="rect(-181.4,-205.7,362.8,411.4)" text="" font-familyName="" font-pixelSize="20" font-bold="0" font-underline="0" font-alignment="1" strokeStyle="0" markerStart="0" markerEnd="0" shadowEnabled="0" shadowOffsetX="0" shadowOffsetY="2" shadowBlur="4" shadowOpacity="160" blurEnabled="0" blurRadius="4" transform="matrix(0.149761,0,0,0.149761,41.1141,89.4025)" pers-center="0,0" pers-size="0,0" pers-start="0,0" pers-end="0,0" locked="0" mesh="" flag=""/>
            <path id="shapePath11" d="M18.8895,114.068 L13.9474,58.5966 L68.2808,58.5966 L63.3387,114.038 L41.0691,120.208 " style="stroke:none;fill-rule:nonzero;fill:#818181;fill-opacity:1;"/>
        </g>
        <g id="Shape12">
            <desc shapeID="12" type="0" basicInfo-basicType="0" basicInfo-roundedRectRadius="12" basicInfo-polygonSides="6" basicInfo-starPoints="5" bounding="rect(-74.15,-174.75,148.3,349.5)" text="" font-familyName="" font-pixelSize="20" font-bold="0" font-underline="0" font-alignment="1" strokeStyle="0" markerStart="0" markerEnd="0" shadowEnabled="0" shadowOffsetX="0" shadowOffsetY="2" shadowBlur="4" shadowOpacity="160" blurEnabled="0" blurRadius="4" transform="matrix(0.149761,0,0,0.149761,52.2189,89.3202)" pers-center="0,0" pers-size="0,0" pers-start="0,0" pers-end="0,0" locked="0" mesh="" flag=""/>
            <path id="shapePath12" d="M41.1141,115.491 L41.1141,63.1494 L63.3237,63.1494 L59.0855,110.474 " style="stroke:none;fill-rule:nonzero;fill:#919191;fill-opacity:1;"/>
        </g>
        <g id="Shape13">
            <desc shapeID="13" type="0" basicInfo-basicType="0" basicInfo-roundedRectRadius="12" basicInfo-polygonSides="6" basicInfo-starPoints="5" bounding="rect(-57,-128.65,114,257.3)" text="" font-familyName="" font-pixelSize="20" font-bold="0" font-underline="0" font-alignment="1" strokeStyle="0" markerStart="0" markerEnd="0" shadowEnabled="0" shadowOffsetX="0" shadowOffsetY="2" shadowBlur="4" shadowOpacity="160" blurEnabled="0" blurRadius="4" transform="matrix(0.149761,0,0,0.149761,32.5777,89.2004)" pers-center="0,0" pers-size="0,0" pers-start="0,0" pers-end="0,0" locked="0" mesh="" flag=""/>
            <path id="shapePath13" d="M24.0413,69.9335 L41.1141,69.9335 L41.1141,76.7327 L31.4994,76.7327 L32.1284,83.6966 L41.1141,83.6966 L41.1141,90.4808 L25.8983,90.4808 M26.1978,93.8954 L33.027,93.8954 L33.5062,99.3317 L41.1141,101.368 L41.1141,108.467 L27.1563,104.573 " style="stroke:none;fill-rule:nonzero;fill:#ebebeb;fill-opacity:1;"/>
        </g>
        <g id="Shape14">
            <desc shapeID="14" type="0" basicInfo-basicType="0" basicInfo-roundedRectRadius="12" basicInfo-polygonSides="6" basicInfo-starPoints="5" bounding="rect(-56.9,-128.55,113.8,257.1)" text="" font-familyName="" font-pixelSize="20" font-bold="0" font-underline="0" font-alignment="1" strokeStyle="0" markerStart="0" markerEnd="0" shadowEnabled="0" shadowOffsetX="0" shadowOffsetY="2" shadowBlur="4" shadowOpacity="160" blurEnabled="0" blurRadius="4" transform="matrix(0.149761,0,0,0.149761,49.6056,89.1854)" pers-center="0,0" pers-size="0,0" pers-start="0,0" pers-end="0,0" locked="0" mesh="" flag=""/>
            <path id="shapePath14" d="M58.127,69.9335 L41.0842,69.9335 L41.0842,76.7327 L57.498,76.7327 M56.884,83.6966 L41.0842,83.6966 L41.0842,90.4958 L49.4708,90.4958 L48.6771,99.3317 L41.0842,101.368 L41.0842,108.437 L55.012,104.573 " style="stroke:none;fill-rule:nonzero;fill:#ffffff;fill-opacity:1;"/>
        </g>
        <g id="Shape15">
            <desc shapeID="15" type="0" basicInfo-basicType="0" basicInfo-roundedRectRadius="12" basicInfo-polygonSides="6" basicInfo-starPoints="5" bounding="rect(-137.9,-47,275.8,94)" text="" font-familyName="" font-pixelSize="20" font-bold="0" font-underline="0" font-alignment="1" strokeStyle="0" markerStart="0" markerEnd="0" shadowEnabled="0" shadowOffsetX="0" shadowOffsetY="2" shadowBlur="4" shadowOpacity="160" blurEnabled="0" blurRadius="4" transform="matrix(0.273416,0,0,0.273416,327.596,75.9999)" pers-center="0,0" pers-size="0,0" pers-start="0,0" pers-end="0,0" locked="0" mesh="" flag=""/>
            <path id="shapePath15" d="M309.66,81.0034 C309.66,82.0151 309.77,82.8353 309.961,83.4368 C310.18,84.0383 310.453,84.6945 310.836,85.4054 C310.973,85.6241 311.027,85.8429 311.027,86.0343 C311.027,86.3077 310.863,86.5811 310.508,86.8545 L308.785,88.0029 C308.539,88.1669 308.293,88.2489 308.074,88.2489 C307.801,88.2489 307.528,88.1122 307.254,87.8661 C306.871,87.456 306.543,87.0186 306.27,86.5811 C305.996,86.1163 305.723,85.5968 305.422,84.9679 C303.29,87.4834 300.61,88.7411 297.384,88.7411 C295.087,88.7411 293.255,88.0849 291.916,86.7725 C290.576,85.4601 289.892,83.7102 289.892,81.5229 C289.892,79.1989 290.713,77.3123 292.38,75.8905 C294.048,74.4688 296.263,73.7579 299.079,73.7579 C300.009,73.7579 300.966,73.8399 301.977,73.9766 C302.989,74.1133 304.028,74.3321 305.122,74.5781 L305.122,72.5822 C305.122,70.5042 304.684,69.0551 303.836,68.2076 C302.962,67.36 301.485,66.9498 299.38,66.9498 C298.423,66.9498 297.439,67.0592 296.427,67.3053 C295.415,67.5514 294.431,67.8521 293.474,68.2349 C293.037,68.4263 292.708,68.5356 292.517,68.5903 C292.326,68.645 292.189,68.6724 292.08,68.6724 C291.697,68.6724 291.505,68.3989 291.505,67.8248 L291.505,66.485 C291.505,66.0476 291.56,65.7195 291.697,65.5281 C291.834,65.3367 292.08,65.1453 292.462,64.9539 C293.419,64.4618 294.568,64.0516 295.907,63.7235 C297.247,63.3681 298.669,63.204 300.173,63.204 C303.426,63.204 305.805,63.9423 307.336,65.4187 C308.84,66.8951 309.606,69.1372 309.606,72.1447 L309.606,81.0034 L309.66,81.0034 M298.56,85.1593 C299.462,85.1593 300.391,84.9953 301.376,84.6672 C302.36,84.3391 303.235,83.7376 303.973,82.9173 C304.411,82.3978 304.739,81.8237 304.903,81.1675 C305.067,80.5113 305.176,79.7184 305.176,78.7887 L305.176,77.6404 C304.383,77.449 303.536,77.285 302.661,77.1756 C301.786,77.0662 300.938,77.0115 300.091,77.0115 C298.259,77.0115 296.919,77.367 296.017,78.1052 C295.115,78.8434 294.677,79.8824 294.677,81.2495 C294.677,82.5345 295.005,83.4915 295.689,84.1477 C296.345,84.8312 297.302,85.1593 298.56,85.1593 M320.515,88.1122 C320.023,88.1122 319.695,88.0302 319.476,87.8388 C319.257,87.6748 319.066,87.292 318.902,86.7725 L312.476,65.6374 C312.312,65.0906 312.23,64.7352 312.23,64.5438 C312.23,64.1063 312.449,63.8602 312.887,63.8602 L315.566,63.8602 C316.086,63.8602 316.441,63.9423 316.632,64.1337 C316.851,64.2977 317.015,64.6805 317.179,65.2 L321.773,83.3001 L326.038,65.2 C326.175,64.6531 326.339,64.2977 326.557,64.1337 C326.776,63.9696 327.159,63.8602 327.651,63.8602 L329.838,63.8602 C330.358,63.8602 330.713,63.9423 330.932,64.1337 C331.151,64.2977 331.342,64.6805 331.451,65.2 L335.771,83.5188 L340.502,65.2 C340.666,64.6531 340.857,64.2977 341.048,64.1337 C341.267,63.9696 341.623,63.8602 342.115,63.8602 L344.657,63.8602 C345.095,63.8602 345.341,64.079 345.341,64.5438 C345.341,64.6805 345.314,64.8172 345.286,64.9812 C345.259,65.1453 345.204,65.364 345.095,65.6648 L338.506,86.7998 C338.342,87.3467 338.15,87.7021 337.931,87.8661 C337.713,88.0302 337.357,88.1396 336.892,88.1396 L334.541,88.1396 C334.022,88.1396 333.666,88.0575 333.447,87.8661 C333.229,87.6748 333.037,87.3193 332.928,86.7725 L328.69,69.1372 L324.479,86.7451 C324.343,87.292 324.179,87.6474 323.96,87.8388 C323.741,88.0302 323.358,88.1122 322.866,88.1122 L320.515,88.1122 M355.649,88.8504 C354.227,88.8504 352.805,88.6864 351.438,88.3583 C350.071,88.0302 349.005,87.6748 348.294,87.2646 C347.856,87.0186 347.556,86.7451 347.446,86.4991 C347.337,86.253 347.282,85.9796 347.282,85.7335 L347.282,84.3391 C347.282,83.7649 347.501,83.4915 347.911,83.4915 C348.075,83.4915 348.239,83.5188 348.403,83.5735 C348.567,83.6282 348.813,83.7376 349.087,83.8469 C350.016,84.2571 351.028,84.5852 352.094,84.8039 C353.188,85.0226 354.254,85.132 355.348,85.132 C357.071,85.132 358.41,84.8312 359.34,84.2297 C360.27,83.6282 360.762,82.7533 360.762,81.6323 C360.762,80.8667 360.516,80.2378 360.023,79.7184 C359.531,79.1989 358.602,78.7341 357.262,78.2966 L353.297,77.0662 C351.301,76.4374 349.825,75.5078 348.923,74.2774 C348.02,73.0743 347.556,71.7346 347.556,70.3129 C347.556,69.1645 347.802,68.1529 348.294,67.2779 C348.786,66.403 349.442,65.6374 350.262,65.0359 C351.083,64.4071 352.012,63.9423 353.106,63.6142 C354.2,63.2861 355.348,63.1494 356.551,63.1494 C357.153,63.1494 357.781,63.1767 358.383,63.2587 C359.012,63.3407 359.586,63.4501 360.16,63.5595 C360.707,63.6962 361.226,63.8329 361.719,63.9969 C362.211,64.161 362.594,64.325 362.867,64.4891 C363.25,64.7078 363.523,64.9266 363.687,65.1726 C363.851,65.3914 363.933,65.6921 363.933,66.0749 L363.933,67.36 C363.933,67.9341 363.715,68.2349 363.304,68.2349 C363.086,68.2349 362.73,68.1255 362.265,67.9068 C360.707,67.1959 358.957,66.8405 357.016,66.8405 C355.457,66.8405 354.227,67.0865 353.379,67.606 C352.532,68.1255 352.094,68.9184 352.094,70.0394 C352.094,70.805 352.368,71.4612 352.915,71.9807 C353.461,72.5002 354.473,73.0197 355.922,73.4845 L359.805,74.7148 C361.773,75.3437 363.195,76.2186 364.043,77.3396 C364.89,78.4606 365.3,79.7457 365.3,81.1675 C365.3,82.3431 365.054,83.4095 364.589,84.3391 C364.097,85.2687 363.441,86.0889 362.594,86.7451 C361.746,87.4287 360.734,87.9208 359.559,88.2763 C358.328,88.6591 357.043,88.8504 355.649,88.8504 Z" style="stroke:none;fill-rule:nonzero;fill:#252f3e;fill-opacity:1;"/>
        </g>
        <g id="Shape16">
            <desc shapeID="16" type="0" basicInfo-basicType="0" basicInfo-roundedRectRadius="12" basicInfo-polygonSides="6" basicInfo-starPoints="5" bounding="rect(-137.11,-30.8785,274.219,61.757)" text="" font-familyName="" font-pixelSize="20" font-bold="0" font-underline="0" font-alignment="1" strokeStyle="0" markerStart="0" markerEnd="0" shadowEnabled="0" shadowOffsetX="0" shadowOffsetY="2" shadowBlur="4" shadowOpacity="160" blurEnabled="0" blurRadius="4" transform="matrix(0.273416,0,0,0.273416,323.981,103.867)" pers-center="0,0" pers-size="0,0" pers-start="0,0" pers-end="0,0" locked="0" mesh="" flag=""/>
            <path id="shapePath16" d="M360.816,102.138 C351.821,108.782 338.752,112.31 327.514,112.31 C311.766,112.31 297.575,106.486 286.857,96.8069 C286.01,96.0413 286.775,95.0023 287.787,95.6038 C299.38,102.33 313.679,106.404 328.471,106.404 C338.451,106.404 349.415,104.326 359.504,100.061 C361.008,99.377 362.293,101.045 360.816,102.138 Z" style="stroke:none;fill-rule:evenodd;fill:#b2b2b2;fill-opacity:1;"/>
        </g>
        <g id="Shape17">
            <desc shapeID="17" type="0" basicInfo-basicType="0" basicInfo-roundedRectRadius="12" basicInfo-polygonSides="6" basicInfo-starPoints="5" bounding="rect(-28.1762,-27.7551,56.3523,55.5103)" text="" font-familyName="" font-pixelSize="20" font-bold="0" font-underline="0" font-alignment="1" strokeStyle="0" markerStart="0" markerEnd="0" shadowEnabled="0" shadowOffsetX="0" shadowOffsetY="2" shadowBlur="4" shadowOpacity="160" blurEnabled="0" blurRadius="4" transform="matrix(0.273416,0,0,0.273416,360.998,101.386)" pers-center="0,0" pers-size="0,0" pers-start="0,0" pers-end="0,0" locked="0" mesh="" flag=""/>
            <path id="shapePath17" d="M364.562,97.8732 C363.414,96.3967 356.961,97.1623 354.036,97.5177 C353.161,97.6271 353.024,96.8615 353.817,96.2874 C358.957,92.6783 367.406,93.7172 368.39,94.9203 C369.374,96.1507 368.117,104.599 363.304,108.646 C362.566,109.275 361.855,108.947 362.183,108.126 C363.277,105.419 365.711,99.3223 364.562,97.8732 Z" style="stroke:none;fill-rule:evenodd;fill:#b2b2b2;fill-opacity:1;"/>
        </g>
        <g id="Shape18">
            <desc shapeID="18" type="0" basicInfo-basicType="0" basicInfo-roundedRectRadius="12" basicInfo-polygonSides="6" basicInfo-starPoints="5" bounding="rect(-6.12071,-4.8,12.2414,9.6)" text="" font-familyName="" font-pixelSize="20" font-bold="0" font-underline="0" font-alignment="1" strokeStyle="0" markerStart="0" markerEnd="0" shadowEnabled="0" shadowOffsetX="0" shadowOffsetY="2" shadowBlur="4" shadowOpacity="160" blurEnabled="0" blurRadius="4" transform="matrix(0.429366,0,0,0.429366,512.961,124.267)" pers-center="0,0" pers-size="0,0" pers-start="0,0" pers-end="0,0" locked="0" mesh="" flag=""/>
            <path id="shapePath18" d="M511.578,124.182 C511.578,124.439 511.535,124.697 511.535,124.997 L512.609,123.065 L512.48,122.421 L513.553,122.249 L513.94,124.954 L514.412,123.28 C514.455,123.108 514.455,122.979 514.455,122.851 C514.455,122.722 514.455,122.593 514.412,122.421 L515.528,122.206 C515.571,122.421 515.614,122.636 515.571,122.851 C515.571,123.108 515.485,123.409 515.314,123.881 L514.412,126.328 L513.081,126.328 L512.78,124.525 L511.75,126.328 L510.462,126.328 C510.505,124.654 510.462,123.58 510.333,122.464 L511.449,122.292 C511.578,122.851 511.621,123.495 511.578,124.182 Z" style="stroke:none;fill-rule:nonzero;fill:#646464;fill-opacity:1;"/>
        </g>
        <g id="Shape19">
            <desc shapeID="19" type="0" basicInfo-basicType="0" basicInfo-roundedRectRadius="12" basicInfo-polygonSides="6" basicInfo-starPoints="5" bounding="rect(-3.35001,-4.75,6.7,9.5)" text="" font-familyName="" font-pixelSize="20" font-bold="0" font-underline="0" font-alignment="1" strokeStyle="0" markerStart="0" markerEnd="0" shadowEnabled="0" shadowOffsetX="0" shadowOffsetY="2" shadowBlur="4" shadowOpacity="160" blurEnabled="0" blurRadius="4" transform="matrix(0.429366,0,0,0.429366,517.096,124.246)" pers-center="0,0" pers-size="0,0" pers-start="0,0" pers-end="0,0" locked="0" mesh="" flag=""/>
            <path id="shapePath19" d="M518.534,123.237 C518.019,123.495 517.804,123.623 517.332,123.924 L516.816,126.285 L515.657,126.285 L516.473,122.378 L517.503,122.206 L517.461,122.765 C517.847,122.55 518.19,122.378 518.534,122.206 L518.534,123.237 Z" style="stroke:none;fill-rule:nonzero;fill:#646464;fill-opacity:1;"/>
        </g>
        <g id="Shape20">
            <desc shapeID="20" type="0" basicInfo-basicType="0" basicInfo-roundedRectRadius="12" basicInfo-polygonSides="6" basicInfo-starPoints="5" bounding="rect(-2.8,-6.8,5.6,13.6)" text="" font-familyName="" font-pixelSize="20" font-bold="0" font-underline="0" font-alignment="1" strokeStyle="0" markerStart="0" markerEnd="0" shadowEnabled="0" shadowOffsetX="0" shadowOffsetY="2" shadowBlur="4" shadowOpacity="160" blurEnabled="0" blurRadius="4" transform="matrix(0.429366,0,0,0.429366,519.607,123.366)" pers-center="0,0" pers-size="0,0" pers-start="0,0" pers-end="0,0" locked="0" mesh="" flag=""/>
            <path id="shapePath20" d="M519.221,122.378 L520.423,122.206 L519.564,126.285 L518.405,126.285 L519.221,122.378 M519.607,120.618 L520.81,120.446 L520.552,121.691 L519.35,121.863 L519.607,120.618 Z" style="stroke:none;fill-rule:nonzero;fill:#646464;fill-opacity:1;"/>
        </g>
        <g id="Shape21">
            <desc shapeID="21" type="0" basicInfo-basicType="0" basicInfo-roundedRectRadius="12" basicInfo-polygonSides="6" basicInfo-starPoints="5" bounding="rect(-3.45001,-6.1,6.90001,12.2)" text="" font-familyName="" font-pixelSize="20" font-bold="0" font-underline="0" font-alignment="1" strokeStyle="0" markerStart="0" markerEnd="0" shadowEnabled="0" shadowOffsetX="0" shadowOffsetY="2" shadowBlur="4" shadowOpacity="160" blurEnabled="0" blurRadius="4" transform="matrix(0.429366,0,0,0.429366,522.377,123.709)" pers-center="0,0" pers-size="0,0" pers-start="0,0" pers-end="0,0" locked="0" mesh="" flag=""/>
            <path id="shapePath21" d="M522.57,123.194 L522.141,125.169 C522.141,125.212 522.141,125.255 522.141,125.255 C522.141,125.298 522.184,125.341 522.269,125.341 C522.484,125.341 522.699,125.255 522.913,125.169 L523.128,125.985 C522.785,126.157 522.312,126.328 521.84,126.328 C521.239,126.328 520.938,126.028 520.981,125.556 C520.981,125.513 520.981,125.427 521.024,125.384 L521.497,123.151 L520.895,123.151 L521.11,122.206 L521.711,122.206 L521.926,121.262 L523.128,121.09 L522.913,122.206 L523.858,122.206 L523.6,123.151 L522.57,123.151 L522.57,123.194 Z" style="stroke:none;fill-rule:nonzero;fill:#646464;fill-opacity:1;"/>
        </g>
        <g id="Shape22">
            <desc shapeID="22" type="0" basicInfo-basicType="0" basicInfo-roundedRectRadius="12" basicInfo-polygonSides="6" basicInfo-starPoints="5" bounding="rect(-4.05269,-4.85,8.10539,9.7)" text="" font-familyName="" font-pixelSize="20" font-bold="0" font-underline="0" font-alignment="1" strokeStyle="0" markerStart="0" markerEnd="0" shadowEnabled="0" shadowOffsetX="0" shadowOffsetY="2" shadowBlur="4" shadowOpacity="160" blurEnabled="0" blurRadius="4" transform="matrix(0.429366,0,0,0.429366,525.384,124.289)" pers-center="0,0" pers-size="0,0" pers-start="0,0" pers-end="0,0" locked="0" mesh="" flag=""/>
            <path id="shapePath22" d="M523.944,123.709 C524.159,122.808 524.588,122.206 525.833,122.206 C526.606,122.206 527.164,122.55 527.121,123.194 C527.078,123.967 526.692,124.353 525.704,124.611 C525.232,124.74 525.189,124.74 524.846,124.868 L524.803,125.126 C524.76,125.255 524.803,125.427 525.017,125.427 C525.447,125.427 526.048,125.212 526.606,124.997 L526.778,125.813 C526.263,126.114 525.49,126.371 524.803,126.371 C523.987,126.371 523.643,126.028 523.643,125.341 C523.643,125.212 523.686,125.04 523.729,124.868 L523.944,123.709 M526.048,123.323 C526.048,123.194 525.919,123.108 525.704,123.108 C525.275,123.108 525.146,123.366 525.103,123.666 L525.06,123.967 C525.275,123.924 525.361,123.881 525.576,123.838 C525.876,123.709 526.048,123.58 526.048,123.323 Z" style="stroke:none;fill-rule:nonzero;fill:#646464;fill-opacity:1;"/>
        </g>
        <g id="Shape23">
            <desc shapeID="23" type="0" basicInfo-basicType="0" basicInfo-roundedRectRadius="12" basicInfo-polygonSides="6" basicInfo-starPoints="5" bounding="rect(-2.75,-6.75,5.5,13.5)" text="" font-familyName="" font-pixelSize="20" font-bold="0" font-underline="0" font-alignment="1" strokeStyle="0" markerStart="0" markerEnd="0" shadowEnabled="0" shadowOffsetX="0" shadowOffsetY="2" shadowBlur="4" shadowOpacity="160" blurEnabled="0" blurRadius="4" transform="matrix(0.429366,0,0,0.429366,530.148,123.387)" pers-center="0,0" pers-size="0,0" pers-start="0,0" pers-end="0,0" locked="0" mesh="" flag=""/>
            <path id="shapePath23" d="M530.127,120.661 L531.329,120.489 L530.127,126.285 L528.968,126.285 L530.127,120.661 Z" style="stroke:none;fill-rule:nonzero;fill:#646464;fill-opacity:1;"/>
        </g>
        <g id="Shape24">
            <desc shapeID="24" type="0" basicInfo-basicType="0" basicInfo-roundedRectRadius="12" basicInfo-polygonSides="6" basicInfo-starPoints="5" bounding="rect(-4.05269,-4.85,8.10539,9.7)" text="" font-familyName="" font-pixelSize="20" font-bold="0" font-underline="0" font-alignment="1" strokeStyle="0" markerStart="0" markerEnd="0" shadowEnabled="0" shadowOffsetX="0" shadowOffsetY="2" shadowBlur="4" shadowOpacity="160" blurEnabled="0" blurRadius="4" transform="matrix(0.429366,0,0,0.429366,532.897,124.289)" pers-center="0,0" pers-size="0,0" pers-start="0,0" pers-end="0,0" locked="0" mesh="" flag=""/>
            <path id="shapePath24" d="M531.458,123.709 C531.673,122.808 532.102,122.206 533.347,122.206 C534.12,122.206 534.678,122.55 534.635,123.194 C534.592,123.967 534.206,124.353 533.218,124.611 C532.746,124.74 532.703,124.74 532.36,124.868 L532.317,125.126 C532.274,125.255 532.317,125.427 532.531,125.427 C532.961,125.427 533.562,125.212 534.12,124.997 L534.292,125.813 C533.776,126.114 533.004,126.371 532.317,126.371 C531.501,126.371 531.157,126.028 531.157,125.341 C531.157,125.212 531.2,125.04 531.243,124.868 L531.458,123.709 M533.562,123.323 C533.562,123.194 533.433,123.108 533.218,123.108 C532.789,123.108 532.66,123.366 532.617,123.666 L532.574,123.967 C532.789,123.924 532.875,123.881 533.089,123.838 C533.39,123.709 533.562,123.58 533.562,123.323 Z" style="stroke:none;fill-rule:nonzero;fill:#646464;fill-opacity:1;"/>
        </g>
        <g id="Shape25">
            <desc shapeID="25" type="0" basicInfo-basicType="0" basicInfo-roundedRectRadius="12" basicInfo-polygonSides="6" basicInfo-starPoints="5" bounding="rect(-3.84999,-4.8,7.7,9.6)" text="" font-familyName="" font-pixelSize="20" font-bold="0" font-underline="0" font-alignment="1" strokeStyle="0" markerStart="0" markerEnd="0" shadowEnabled="0" shadowOffsetX="0" shadowOffsetY="2" shadowBlur="4" shadowOpacity="160" blurEnabled="0" blurRadius="4" transform="matrix(0.429366,0,0,0.429366,536.417,124.31)" pers-center="0,0" pers-size="0,0" pers-start="0,0" pers-end="0,0" locked="0" mesh="" flag=""/>
            <path id="shapePath25" d="M534.764,126.114 L535.022,125.255 C535.322,125.341 535.666,125.47 536.095,125.47 C536.481,125.47 536.524,125.341 536.567,125.169 C536.61,124.997 536.481,124.911 536.052,124.654 C535.236,124.224 535.193,123.924 535.322,123.323 C535.494,122.464 535.752,122.249 536.868,122.249 C537.254,122.249 537.727,122.335 538.07,122.421 L537.855,123.28 C537.555,123.194 537.125,123.151 536.868,123.151 C536.524,123.151 536.481,123.194 536.439,123.409 C536.396,123.58 536.439,123.623 536.825,123.838 C537.727,124.31 537.855,124.482 537.727,125.126 C537.512,126.028 537.254,126.371 536.052,126.371 C535.623,126.371 535.107,126.242 534.764,126.114 Z" style="stroke:none;fill-rule:nonzero;fill:#646464;fill-opacity:1;"/>
        </g>
        <g id="Shape26">
            <desc shapeID="26" type="0" basicInfo-basicType="0" basicInfo-roundedRectRadius="12" basicInfo-polygonSides="6" basicInfo-starPoints="5" bounding="rect(-3.85001,-4.8,7.70001,9.6)" text="" font-familyName="" font-pixelSize="20" font-bold="0" font-underline="0" font-alignment="1" strokeStyle="0" markerStart="0" markerEnd="0" shadowEnabled="0" shadowOffsetX="0" shadowOffsetY="2" shadowBlur="4" shadowOpacity="160" blurEnabled="0" blurRadius="4" transform="matrix(0.429366,0,0,0.429366,539.723,124.31)" pers-center="0,0" pers-size="0,0" pers-start="0,0" pers-end="0,0" locked="0" mesh="" flag=""/>
            <path id="shapePath26" d="M538.07,126.114 L538.328,125.255 C538.628,125.341 538.972,125.47 539.401,125.47 C539.788,125.47 539.831,125.341 539.874,125.169 C539.917,124.997 539.788,124.911 539.358,124.654 C538.542,124.224 538.5,123.924 538.628,123.323 C538.8,122.464 539.058,122.249 540.174,122.249 C540.561,122.249 541.033,122.335 541.376,122.421 L541.162,123.28 C540.861,123.194 540.432,123.151 540.174,123.151 C539.831,123.151 539.788,123.194 539.745,123.409 C539.702,123.58 539.745,123.623 540.131,123.838 C541.033,124.31 541.162,124.482 541.033,125.126 C540.818,126.028 540.561,126.371 539.358,126.371 C538.929,126.371 538.414,126.242 538.07,126.114 Z" style="stroke:none;fill-rule:nonzero;fill:#646464;fill-opacity:1;"/>
        </g>
        <g id="Shape27">
            <desc shapeID="27" type="0" basicInfo-basicType="0" basicInfo-roundedRectRadius="12" basicInfo-polygonSides="6" basicInfo-starPoints="5" bounding="rect(-1.95,-3,3.89999,6)" text="" font-familyName="" font-pixelSize="20" font-bold="0" font-underline="0" font-alignment="1" strokeStyle="0" markerStart="0" markerEnd="0" shadowEnabled="0" shadowOffsetX="0" shadowOffsetY="2" shadowBlur="4" shadowOpacity="160" blurEnabled="0" blurRadius="4" transform="matrix(0.429366,0,0,0.429366,542.085,126.2)" pers-center="0,0" pers-size="0,0" pers-start="0,0" pers-end="0,0" locked="0" mesh="" flag=""/>
            <path id="shapePath27" d="M541.247,127.187 L541.891,126.285 L541.462,126.285 L541.763,124.911 L542.922,124.911 L542.621,126.371 L541.677,127.488 L541.247,127.187 Z" style="stroke:none;fill-rule:nonzero;fill:#646464;fill-opacity:1;"/>
        </g>
        <g id="Shape28">
            <desc shapeID="28" type="0" basicInfo-basicType="0" basicInfo-roundedRectRadius="12" basicInfo-polygonSides="6" basicInfo-starPoints="5" bounding="rect(-5.19017,-6.85,10.3803,13.7)" text="" font-familyName="" font-pixelSize="20" font-bold="0" font-underline="0" font-alignment="1" strokeStyle="0" markerStart="0" markerEnd="0" shadowEnabled="0" shadowOffsetX="0" shadowOffsetY="2" shadowBlur="4" shadowOpacity="160" blurEnabled="0" blurRadius="4" transform="matrix(0.429366,0,0,0.429366,547.563,123.43)" pers-center="0,0" pers-size="0,0" pers-start="0,0" pers-end="0,0" locked="0" mesh="" flag=""/>
            <path id="shapePath28" d="M547.559,126.285 L547.559,125.942 C547.259,126.2 546.829,126.371 546.271,126.371 C545.412,126.371 545.198,125.856 545.412,124.954 L545.627,123.881 C545.842,122.936 546.099,122.206 547.774,122.206 C547.903,122.206 548.16,122.206 548.246,122.249 L548.59,120.661 L549.792,120.489 L548.59,126.285 L547.559,126.285 M546.486,125.083 C546.443,125.298 546.486,125.384 546.7,125.384 C547.13,125.384 547.43,125.169 547.645,124.954 L548.031,123.194 C547.903,123.151 547.731,123.151 547.602,123.151 C547.001,123.151 546.872,123.452 546.786,123.838 L546.486,125.083 Z" style="stroke:none;fill-rule:nonzero;fill:#646464;fill-opacity:1;"/>
        </g>
        <g id="Shape29">
            <desc shapeID="29" type="0" basicInfo-basicType="0" basicInfo-roundedRectRadius="12" basicInfo-polygonSides="6" basicInfo-starPoints="5" bounding="rect(-4.55601,-4.9,9.112,9.8)" text="" font-familyName="" font-pixelSize="20" font-bold="0" font-underline="0" font-alignment="1" strokeStyle="0" markerStart="0" markerEnd="0" shadowEnabled="0" shadowOffsetX="0" shadowOffsetY="2" shadowBlur="4" shadowOpacity="160" blurEnabled="0" blurRadius="4" transform="matrix(0.429366,0,0,0.429366,551.574,124.267)" pers-center="0,0" pers-size="0,0" pers-start="0,0" pers-end="0,0" locked="0" mesh="" flag=""/>
            <path id="shapePath29" d="M549.62,125.04 C549.62,124.954 549.62,124.869 549.663,124.74 L549.878,123.795 C550.092,122.765 550.608,122.164 552.024,122.164 C553.098,122.164 553.57,122.765 553.527,123.495 C553.527,123.58 553.527,123.666 553.484,123.795 L553.27,124.74 C553.055,125.684 552.583,126.371 551.123,126.371 C550.092,126.371 549.577,125.77 549.62,125.04 M552.325,123.623 C552.325,123.323 552.153,123.151 551.767,123.151 C551.337,123.151 551.08,123.366 550.994,123.752 L550.779,124.74 C550.779,124.783 550.779,124.869 550.736,124.911 C550.736,125.212 550.908,125.384 551.295,125.384 C551.724,125.384 551.982,125.169 552.067,124.783 L552.282,123.795 C552.325,123.709 552.325,123.666 552.325,123.623 Z" style="stroke:none;fill-rule:nonzero;fill:#646464;fill-opacity:1;"/>
        </g>
        <g id="Shape30">
            <desc shapeID="30" type="0" basicInfo-basicType="0" basicInfo-roundedRectRadius="12" basicInfo-polygonSides="6" basicInfo-starPoints="5" bounding="rect(-7.45622,-4.8,14.9124,9.6)" text="" font-familyName="" font-pixelSize="20" font-bold="0" font-underline="0" font-alignment="1" strokeStyle="0" markerStart="0" markerEnd="0" shadowEnabled="0" shadowOffsetX="0" shadowOffsetY="2" shadowBlur="4" shadowOpacity="160" blurEnabled="0" blurRadius="4" transform="matrix(0.429366,0,0,0.429366,558.446,124.224)" pers-center="0,0" pers-size="0,0" pers-start="0,0" pers-end="0,0" locked="0" mesh="" flag=""/>
            <path id="shapePath30" d="M560.569,123.58 C560.569,123.537 560.569,123.495 560.569,123.452 C560.569,123.366 560.526,123.323 560.397,123.323 C560.183,123.323 559.667,123.537 559.324,123.709 L558.766,126.285 L557.606,126.285 L558.165,123.58 C558.165,123.537 558.165,123.495 558.165,123.452 C558.165,123.366 558.122,123.323 557.993,123.323 C557.778,123.323 557.263,123.537 556.962,123.709 L556.404,126.285 L555.245,126.285 L556.061,122.378 L557.091,122.206 L557.048,122.636 C557.692,122.335 558.165,122.164 558.637,122.164 C559.023,122.164 559.238,122.335 559.324,122.636 C559.925,122.292 560.483,122.164 560.955,122.164 C561.471,122.164 561.685,122.464 561.642,122.979 C561.642,123.108 561.642,123.28 561.599,123.452 L560.998,126.243 L560.011,126.243 L560.569,123.58 Z" style="stroke:none;fill-rule:nonzero;fill:#646464;fill-opacity:1;"/>
        </g>
        <g id="Shape31">
            <desc shapeID="31" type="0" basicInfo-basicType="0" basicInfo-roundedRectRadius="12" basicInfo-polygonSides="6" basicInfo-starPoints="5" bounding="rect(-4.55601,-4.9,9.112,9.8)" text="" font-familyName="" font-pixelSize="20" font-bold="0" font-underline="0" font-alignment="1" strokeStyle="0" markerStart="0" markerEnd="0" shadowEnabled="0" shadowOffsetX="0" shadowOffsetY="2" shadowBlur="4" shadowOpacity="160" blurEnabled="0" blurRadius="4" transform="matrix(0.429366,0,0,0.429366,564.154,124.267)" pers-center="0,0" pers-size="0,0" pers-start="0,0" pers-end="0,0" locked="0" mesh="" flag=""/>
            <path id="shapePath31" d="M562.201,125.04 C562.201,124.954 562.201,124.869 562.244,124.74 L562.458,123.795 C562.673,122.765 563.188,122.164 564.605,122.164 C565.678,122.164 566.151,122.765 566.108,123.495 C566.108,123.58 566.108,123.666 566.065,123.795 L565.85,124.74 C565.635,125.684 565.163,126.371 563.703,126.371 C562.673,126.371 562.158,125.77 562.201,125.04 M564.906,123.623 C564.906,123.323 564.734,123.151 564.347,123.151 C563.918,123.151 563.66,123.366 563.575,123.752 L563.36,124.74 C563.36,124.783 563.36,124.869 563.317,124.911 C563.317,125.212 563.489,125.384 563.875,125.384 C564.304,125.384 564.562,125.169 564.648,124.783 L564.863,123.795 C564.906,123.709 564.906,123.666 564.906,123.623 Z" style="stroke:none;fill-rule:nonzero;fill:#646464;fill-opacity:1;"/>
        </g>
        <g id="Shape32">
            <desc shapeID="32" type="0" basicInfo-basicType="0" basicInfo-roundedRectRadius="12" basicInfo-polygonSides="6" basicInfo-starPoints="5" bounding="rect(-3.35001,-4.75,6.7,9.5)" text="" font-familyName="" font-pixelSize="20" font-bold="0" font-underline="0" font-alignment="1" strokeStyle="0" markerStart="0" markerEnd="0" shadowEnabled="0" shadowOffsetX="0" shadowOffsetY="2" shadowBlur="4" shadowOpacity="160" blurEnabled="0" blurRadius="4" transform="matrix(0.429366,0,0,0.429366,567.675,124.246)" pers-center="0,0" pers-size="0,0" pers-start="0,0" pers-end="0,0" locked="0" mesh="" flag=""/>
            <path id="shapePath32" d="M569.113,123.237 C568.598,123.495 568.383,123.623 567.911,123.924 L567.396,126.285 L566.237,126.285 L567.052,122.378 L568.083,122.206 L568.04,122.765 C568.426,122.55 568.77,122.378 569.113,122.206 L569.113,123.237 Z" style="stroke:none;fill-rule:nonzero;fill:#646464;fill-opacity:1;"/>
        </g>
        <g id="Shape33">
            <desc shapeID="33" type="0" basicInfo-basicType="0" basicInfo-roundedRectRadius="12" basicInfo-polygonSides="6" basicInfo-starPoints="5" bounding="rect(-4.0527,-4.85,8.1054,9.7)" text="" font-familyName="" font-pixelSize="20" font-bold="0" font-underline="0" font-alignment="1" strokeStyle="0" markerStart="0" markerEnd="0" shadowEnabled="0" shadowOffsetX="0" shadowOffsetY="2" shadowBlur="4" shadowOpacity="160" blurEnabled="0" blurRadius="4" transform="matrix(0.429366,0,0,0.429366,570.853,124.289)" pers-center="0,0" pers-size="0,0" pers-start="0,0" pers-end="0,0" locked="0" mesh="" flag=""/>
            <path id="shapePath33" d="M569.414,123.709 C569.629,122.808 570.058,122.206 571.303,122.206 C572.076,122.206 572.634,122.55 572.591,123.194 C572.548,123.967 572.162,124.353 571.174,124.611 C570.702,124.74 570.659,124.74 570.316,124.868 L570.273,125.126 C570.23,125.255 570.273,125.427 570.487,125.427 C570.917,125.427 571.518,125.212 572.076,124.997 L572.248,125.813 C571.732,126.114 570.96,126.371 570.273,126.371 C569.457,126.371 569.113,126.028 569.113,125.341 C569.113,125.212 569.156,125.04 569.199,124.868 L569.414,123.709 M571.518,123.323 C571.518,123.194 571.389,123.108 571.174,123.108 C570.745,123.108 570.616,123.366 570.573,123.666 L570.53,123.967 C570.745,123.924 570.831,123.881 571.045,123.838 C571.346,123.709 571.475,123.58 571.518,123.323 Z" style="stroke:none;fill-rule:nonzero;fill:#646464;fill-opacity:1;"/>
        </g>
        <g id="Shape34">
            <desc shapeID="34" type="0" basicInfo-basicType="0" basicInfo-roundedRectRadius="12" basicInfo-polygonSides="6" basicInfo-starPoints="5" bounding="rect(-1.7,-1.60001,3.40001,3.2)" text="" font-familyName="" font-pixelSize="20" font-bold="0" font-underline="0" font-alignment="1" strokeStyle="0" markerStart="0" markerEnd="0" shadowEnabled="0" shadowOffsetX="0" shadowOffsetY="2" shadowBlur="4" shadowOpacity="160" blurEnabled="0" blurRadius="4" transform="matrix(0.429366,0,0,0.429366,573.493,125.598)" pers-center="0,0" pers-size="0,0" pers-start="0,0" pers-end="0,0" locked="0" mesh="" flag=""/>
            <path id="shapePath34" d="M573.063,124.911 L574.223,124.911 L573.922,126.285 L572.763,126.285 L573.063,124.911 Z" style="stroke:none;fill-rule:nonzero;fill:#646464;fill-opacity:1;"/>
        </g>
        <g id="Shape35">
            <desc shapeID="35" type="0" basicInfo-basicType="0" basicInfo-roundedRectRadius="12" basicInfo-polygonSides="6" basicInfo-starPoints="5" bounding="rect(-25.1438,-21.1516,50.2876,42.3033)" text="" font-familyName="" font-pixelSize="20" font-bold="0" font-underline="0" font-alignment="1" strokeStyle="0" markerStart="0" markerEnd="0" shadowEnabled="0" shadowOffsetX="0" shadowOffsetY="2" shadowBlur="4" shadowOpacity="160" blurEnabled="0" blurRadius="4" transform="matrix(0.429366,0,0,0.429366,476.351,110.078)" pers-center="0,0" pers-size="0,0" pers-start="0,0" pers-end="0,0" locked="0" mesh="" flag=""/>
            <path id="shapePath35" d="M466.967,102.885 C464.992,105.676 465.25,109.368 466.752,112.331 C466.752,112.417 466.795,112.503 466.838,112.589 C466.838,112.632 466.881,112.674 466.924,112.717 C466.924,112.76 466.967,112.76 466.967,112.803 C467.01,112.846 467.01,112.889 467.053,112.932 C467.096,113.018 467.139,113.104 467.182,113.19 C467.225,113.233 467.225,113.276 467.268,113.319 C467.311,113.404 467.396,113.49 467.439,113.576 C467.482,113.619 467.482,113.662 467.525,113.705 C467.611,113.834 467.697,113.92 467.783,114.048 C467.783,114.048 467.826,114.091 467.826,114.091 C467.912,114.177 467.955,114.306 468.04,114.392 C468.083,114.435 468.083,114.478 468.126,114.478 C468.212,114.564 468.255,114.65 468.341,114.735 C468.384,114.778 468.384,114.778 468.427,114.821 C468.513,114.95 468.599,115.036 468.727,115.122 C468.813,115.208 468.899,115.337 469.028,115.422 C469.071,115.465 469.071,115.465 469.114,115.508 C469.2,115.594 469.243,115.637 469.329,115.723 C469.371,115.766 469.371,115.766 469.414,115.809 C469.5,115.895 469.629,115.981 469.715,116.109 C469.715,116.109 469.758,116.152 469.758,116.152 C469.844,116.238 469.93,116.324 470.058,116.41 C470.101,116.453 470.144,116.453 470.187,116.496 C470.273,116.539 470.359,116.625 470.445,116.668 C470.488,116.711 470.531,116.711 470.574,116.753 C470.66,116.839 470.745,116.882 470.831,116.925 C470.874,116.968 470.874,116.968 470.917,117.011 C470.917,117.011 470.917,117.011 470.96,117.011 C471.046,117.054 471.132,117.14 471.218,117.183 C471.261,117.226 471.304,117.226 471.347,117.269 C471.475,117.355 471.604,117.44 471.733,117.526 C471.776,117.526 471.819,117.569 471.862,117.569 C471.948,117.612 472.077,117.698 472.162,117.741 C472.205,117.784 472.291,117.784 472.334,117.827 C472.42,117.87 472.463,117.913 472.549,117.956 C472.549,117.956 472.592,117.956 472.592,117.999 C472.635,117.999 472.635,118.042 472.678,118.042 C472.806,118.085 472.892,118.17 473.021,118.213 C473.064,118.213 473.064,118.213 473.107,118.256 C473.236,118.299 473.365,118.385 473.493,118.428 C473.536,118.428 473.536,118.471 473.579,118.471 C473.708,118.514 473.837,118.557 473.966,118.6 C473.966,118.6 474.009,118.6 474.009,118.6 C474.137,118.643 474.309,118.686 474.438,118.729 C474.481,118.729 474.524,118.772 474.524,118.772 C474.653,118.814 474.824,118.857 474.953,118.9 C484.399,120.618 487.147,113.233 487.147,113.233 C484.829,116.238 480.75,117.011 476.842,116.152 C476.714,116.109 476.542,116.066 476.413,116.024 C476.37,116.024 476.327,116.024 476.327,115.981 C476.198,115.938 476.027,115.895 475.898,115.852 C475.898,115.852 475.855,115.852 475.855,115.809 C475.726,115.766 475.597,115.723 475.468,115.68 C475.426,115.68 475.383,115.637 475.383,115.637 C475.254,115.594 475.125,115.508 474.996,115.465 C474.953,115.465 474.953,115.422 474.91,115.422 C474.781,115.38 474.696,115.337 474.567,115.251 C474.524,115.251 474.524,115.208 474.481,115.208 C474.395,115.165 474.309,115.122 474.223,115.079 C474.18,115.036 474.095,115.036 474.052,114.993 C473.966,114.95 473.837,114.864 473.751,114.821 C473.708,114.778 473.665,114.778 473.665,114.778 C473.536,114.693 473.408,114.607 473.279,114.521 C473.236,114.478 473.193,114.478 473.15,114.435 C473.064,114.392 472.935,114.306 472.849,114.263 C472.806,114.22 472.806,114.22 472.763,114.177 C472.678,114.134 472.592,114.048 472.506,113.963 C472.463,113.92 472.42,113.92 472.377,113.877 C472.291,113.834 472.205,113.748 472.119,113.705 C472.077,113.662 472.034,113.662 471.991,113.619 C471.905,113.533 471.776,113.447 471.69,113.361 C471.69,113.361 471.647,113.361 471.647,113.319 C471.561,113.233 471.432,113.104 471.347,113.018 C471.304,112.975 471.304,112.975 471.261,112.932 C471.175,112.846 471.089,112.803 471.046,112.717 C471.003,112.674 471.003,112.674 470.96,112.632 C470.874,112.546 470.788,112.417 470.66,112.331 C470.574,112.245 470.488,112.116 470.359,111.988 C470.316,111.945 470.316,111.945 470.273,111.902 C470.187,111.816 470.144,111.73 470.058,111.644 C470.016,111.601 470.016,111.601 469.973,111.558 C469.844,111.515 469.758,111.386 469.672,111.301 C467.525,108.381 466.752,104.302 468.47,100.996 " style="stroke:none;fill-rule:nonzero;fill:#646464;fill-opacity:1;"/>
        </g>
        <g id="Shape36">
            <desc shapeID="36" type="0" basicInfo-basicType="0" basicInfo-roundedRectRadius="12" basicInfo-polygonSides="6" basicInfo-starPoints="5" bounding="rect(-18.282,-15.5962,36.5639,31.1925)" text="" font-familyName="" font-pixelSize="20" font-bold="0" font-underline="0" font-alignment="1" strokeStyle="0" markerStart="0" markerEnd="0" shadowEnabled="0" shadowOffsetX="0" shadowOffsetY="2" shadowBlur="4" shadowOpacity="160" blurEnabled="0" blurRadius="4" transform="matrix(0.429366,0,0,0.429366,479.813,105.545)" pers-center="0,0" pers-size="0,0" pers-start="0,0" pers-end="0,0" locked="0" mesh="" flag=""/>
            <path id="shapePath36" d="M473.021,100.523 C471.604,102.584 471.69,105.289 472.806,107.436 C472.978,107.78 473.193,108.166 473.451,108.467 C473.665,108.767 473.88,109.111 474.18,109.368 C474.266,109.497 474.395,109.583 474.481,109.712 C474.524,109.755 474.524,109.755 474.567,109.798 C474.653,109.884 474.782,110.012 474.91,110.098 C475.039,110.227 475.168,110.313 475.297,110.399 C475.34,110.442 475.34,110.442 475.383,110.485 C475.511,110.571 475.64,110.699 475.769,110.785 C475.812,110.828 475.898,110.871 475.941,110.914 C475.984,110.914 475.984,110.957 476.027,110.957 C476.113,111 476.241,111.086 476.327,111.129 C476.327,111.129 476.37,111.129 476.37,111.172 C476.456,111.215 476.542,111.258 476.628,111.301 C476.671,111.301 476.671,111.343 476.714,111.343 C476.757,111.386 476.842,111.386 476.885,111.429 C476.885,111.429 476.885,111.429 476.928,111.429 C477.057,111.472 477.186,111.558 477.315,111.601 C477.358,111.601 477.358,111.644 477.401,111.644 C477.487,111.687 477.615,111.73 477.701,111.773 C477.744,111.773 477.787,111.816 477.83,111.816 C477.916,111.859 478.002,111.902 478.131,111.902 C478.174,111.902 478.216,111.945 478.259,111.945 C478.388,111.988 478.517,112.03 478.689,112.073 C485.988,113.276 487.663,107.651 487.663,107.651 C486.16,109.841 483.197,110.871 480.063,110.055 C479.934,110.012 479.805,109.97 479.633,109.927 C479.59,109.927 479.548,109.884 479.505,109.884 C479.419,109.841 479.29,109.841 479.204,109.798 C479.161,109.798 479.118,109.755 479.075,109.755 C478.989,109.712 478.861,109.669 478.775,109.626 C478.732,109.626 478.732,109.583 478.689,109.583 C478.56,109.54 478.431,109.454 478.302,109.411 C478.259,109.368 478.174,109.325 478.131,109.325 C478.088,109.325 478.045,109.283 478.002,109.283 C477.916,109.24 477.83,109.197 477.744,109.154 C477.744,109.154 477.701,109.154 477.701,109.111 C477.615,109.068 477.487,108.982 477.401,108.939 C477.358,108.939 477.358,108.896 477.315,108.896 C477.272,108.853 477.186,108.81 477.143,108.767 C477.014,108.681 476.885,108.596 476.757,108.467 C476.714,108.424 476.714,108.424 476.671,108.381 C475.297,107.307 474.223,105.805 473.708,104.13 C473.15,102.37 473.279,100.438 474.223,98.8489 " style="stroke:none;fill-rule:nonzero;fill:#646464;fill-opacity:1;"/>
        </g>
        <g id="Shape37">
            <desc shapeID="37" type="0" basicInfo-basicType="0" basicInfo-roundedRectRadius="12" basicInfo-polygonSides="6" basicInfo-starPoints="5" bounding="rect(-11.1647,-9.65467,22.3294,19.3093)" text="" font-familyName="" font-pixelSize="20" font-bold="0" font-underline="0" font-alignment="1" strokeStyle="0" markerStart="0" markerEnd="0" shadowEnabled="0" shadowOffsetX="0" shadowOffsetY="2" shadowBlur="4" shadowOpacity="160" blurEnabled="0" blurRadius="4" transform="matrix(0.429366,0,0,0.429366,482.225,102.136)" pers-center="0,0" pers-size="0,0" pers-start="0,0" pers-end="0,0" locked="0" mesh="" flag=""/>
            <path id="shapePath37" d="M478.131,98.7631 C477.315,100.008 477.229,101.511 477.787,102.885 C478.388,104.345 479.633,105.461 481.093,105.976 C481.136,106.019 481.222,106.019 481.265,106.019 C481.308,106.019 481.308,106.019 481.351,106.062 C481.437,106.105 481.523,106.105 481.608,106.148 C485.645,106.921 486.718,104.087 487.018,103.658 C486.074,105.032 484.442,105.375 482.467,104.903 C482.295,104.86 482.124,104.817 481.995,104.774 C481.823,104.688 481.608,104.645 481.437,104.559 C481.093,104.388 480.75,104.173 480.449,103.958 C478.689,102.627 477.572,100.051 478.732,97.9902 " style="stroke:none;fill-rule:nonzero;fill:#646464;fill-opacity:1;"/>
        </g>
        <g id="Shape38">
            <desc shapeID="38" type="0" basicInfo-basicType="0" basicInfo-roundedRectRadius="12" basicInfo-polygonSides="6" basicInfo-starPoints="5" bounding="rect(-0.309692,-1.2,0.619374,2.4)" text="" font-familyName="" font-pixelSize="20" font-bold="0" font-underline="0" font-alignment="1" strokeStyle="0" markerStart="0" markerEnd="0" shadowEnabled="0" shadowOffsetX="0" shadowOffsetY="2" shadowBlur="4" shadowOpacity="160" blurEnabled="0" blurRadius="4" transform="matrix(0.429366,0,0,0.429366,571.651,105.032)" pers-center="0,0" pers-size="0,0" pers-start="0,0" pers-end="0,0" locked="0" mesh="" flag=""/>
            <path id="shapePath38" d="M571.604,104.517 L571.775,105.204 C571.818,105.375 571.69,105.547 571.518,105.547 " style="stroke:none;fill-rule:nonzero;fill:#333333;fill-opacity:1;"/>
        </g>
        <g id="Shape39">
            <desc shapeID="39" type="0" basicInfo-basicType="0" basicInfo-roundedRectRadius="12" basicInfo-polygonSides="6" basicInfo-starPoints="5" bounding="rect(-1.8,-8.25,3.59999,16.5)" text="" font-familyName="" font-pixelSize="20" font-bold="0" font-underline="0" font-alignment="1" strokeStyle="0" markerStart="0" markerEnd="0" shadowEnabled="0" shadowOffsetX="0" shadowOffsetY="2" shadowBlur="4" shadowOpacity="160" blurEnabled="0" blurRadius="4" transform="matrix(0.429366,0,0,0.429366,558.122,106.9)" pers-center="0,0" pers-size="0,0" pers-start="0,0" pers-end="0,0" locked="0" mesh="" flag=""/>
            <path id="shapePath39" d="M558.894,103.357 C558.852,103.529 558.809,103.787 558.766,103.915 L557.349,110.442 L558.809,103.572 L558.894,103.357 Z" style="stroke:none;fill-rule:nonzero;fill:#333333;fill-opacity:1;"/>
        </g>
        <g id="Shape40">
            <desc shapeID="40" type="0" basicInfo-basicType="0" basicInfo-roundedRectRadius="12" basicInfo-polygonSides="6" basicInfo-starPoints="5" bounding="rect(-18.4098,-18.75,36.8196,37.5)" text="" font-familyName="" font-pixelSize="20" font-bold="0" font-underline="0" font-alignment="1" strokeStyle="0" markerStart="0" markerEnd="0" shadowEnabled="0" shadowOffsetX="0" shadowOffsetY="2" shadowBlur="4" shadowOpacity="160" blurEnabled="0" blurRadius="4" transform="matrix(0.429366,0,0,0.429366,563.879,109.733)" pers-center="0,0" pers-size="0,0" pers-start="0,0" pers-end="0,0" locked="0" mesh="" flag=""/>
            <path id="shapePath40" d="M571.775,105.204 L571.389,103.486 C571.088,102.241 570.187,101.683 568.169,101.683 L559.667,101.683 C559.453,101.683 559.281,101.769 559.238,101.983 L556.018,117.269 C555.975,117.483 555.975,117.612 555.975,117.698 C556.018,117.784 556.361,117.784 556.576,117.784 L559.538,117.784 C559.753,117.784 560.097,117.784 560.182,117.741 C560.311,117.698 560.354,117.398 560.397,117.226 L561.428,111.859 L562.716,105.891 C562.759,105.719 562.93,105.547 563.145,105.547 L571.561,105.547 C571.69,105.547 571.818,105.375 571.775,105.204 Z" style="stroke:none;fill-rule:nonzero;fill:#333333;fill-opacity:1;"/>
        </g>
        <g id="Shape41">
            <desc shapeID="41" type="0" basicInfo-basicType="0" basicInfo-roundedRectRadius="12" basicInfo-polygonSides="6" basicInfo-starPoints="5" bounding="rect(-20.7497,-21.85,41.4994,43.7)" text="" font-familyName="" font-pixelSize="20" font-bold="0" font-underline="0" font-alignment="1" strokeStyle="0" markerStart="0" markerEnd="0" shadowEnabled="0" shadowOffsetX="0" shadowOffsetY="2" shadowBlur="4" shadowOpacity="160" blurEnabled="0" blurRadius="4" transform="matrix(0.429366,0,0,0.429366,576.123,108.359)" pers-center="0,0" pers-size="0,0" pers-start="0,0" pers-end="0,0" locked="0" mesh="" flag=""/>
            <path id="shapePath41" d="M583.755,98.9777 C583.54,98.9777 580.019,98.9777 580.019,98.9777 C579.805,98.9777 579.59,99.1924 579.461,99.3642 L572.892,108.982 C572.763,109.154 572.634,109.154 572.591,108.939 L572.119,106.835 C572.076,106.663 571.861,106.492 571.69,106.492 L567.482,106.492 C567.267,106.492 567.181,106.663 567.224,106.835 L569.113,113.447 C569.156,113.619 569.156,113.963 569.113,114.134 L568.212,117.483 C568.169,117.655 568.298,117.741 568.469,117.741 L572.634,117.741 C572.849,117.741 573.021,117.698 573.063,117.483 L573.965,114.091 C574.008,113.92 574.137,113.662 574.266,113.49 L584.957,99.3212 C585.086,99.1495 585.043,98.9777 584.871,98.9777 L583.755,98.9777 Z" style="stroke:none;fill-rule:nonzero;fill:#333333;fill-opacity:1;"/>
        </g>
        <g id="Shape42">
            <desc shapeID="42" type="0" basicInfo-basicType="0" basicInfo-roundedRectRadius="12" basicInfo-polygonSides="6" basicInfo-starPoints="5" bounding="rect(-18.5532,-18.7,37.1063,37.4)" text="" font-familyName="" font-pixelSize="20" font-bold="0" font-underline="0" font-alignment="1" strokeStyle="0" markerStart="0" markerEnd="0" shadowEnabled="0" shadowOffsetX="0" shadowOffsetY="2" shadowBlur="4" shadowOpacity="160" blurEnabled="0" blurRadius="4" transform="matrix(0.429366,0,0,0.429366,531.945,109.712)" pers-center="0,0" pers-size="0,0" pers-start="0,0" pers-end="0,0" locked="0" mesh="" flag=""/>
            <path id="shapePath42" d="M539.873,101.683 L536.052,101.683 C535.837,101.683 535.666,101.769 535.623,101.94 L534.378,107.823 L533.132,113.447 C533.089,113.619 532.918,113.619 532.703,113.619 L530.213,113.619 C527.722,113.619 528.023,112.073 528.538,109.712 C528.538,109.669 530.127,101.94 530.127,101.94 C530.17,101.769 530.041,101.683 529.826,101.683 L526.22,101.683 C526.005,101.683 525.833,101.769 525.79,101.94 L524.33,109.712 C523.6,113.92 523.6,117.612 528.452,117.741 C528.538,117.741 536.138,117.741 536.138,117.741 C536.353,117.741 536.524,117.655 536.567,117.483 L538.242,109.669 L539.873,101.854 C539.873,101.854 539.959,101.683 539.873,101.683 Z" style="stroke:none;fill-rule:nonzero;fill:#333333;fill-opacity:1;"/>
        </g>
        <g id="Shape43">
            <desc shapeID="43" type="0" basicInfo-basicType="0" basicInfo-roundedRectRadius="12" basicInfo-polygonSides="6" basicInfo-starPoints="5" bounding="rect(-6.23458,-4.4,12.4692,8.8)" text="" font-familyName="" font-pixelSize="20" font-bold="0" font-underline="0" font-alignment="1" strokeStyle="0" markerStart="0" markerEnd="0" shadowEnabled="0" shadowOffsetX="0" shadowOffsetY="2" shadowBlur="4" shadowOpacity="160" blurEnabled="0" blurRadius="4" transform="matrix(0.429366,0,0,0.429366,499.434,103.572)" pers-center="0,0" pers-size="0,0" pers-start="0,0" pers-end="0,0" locked="0" mesh="" flag=""/>
            <path id="shapePath43" d="M502.003,101.683 L497.924,101.683 C497.71,101.683 497.538,101.726 497.495,101.94 L496.765,105.118 C496.722,105.289 496.851,105.461 497.066,105.461 L500.973,105.461 C501.188,105.461 501.359,105.289 501.402,105.075 L502.089,101.854 C502.089,101.854 502.175,101.683 502.003,101.683 Z" style="stroke:none;fill-rule:nonzero;fill:#333333;fill-opacity:1;"/>
        </g>
        <g id="Shape44">
            <desc shapeID="44" type="0" basicInfo-basicType="0" basicInfo-roundedRectRadius="12" basicInfo-polygonSides="6" basicInfo-starPoints="5" bounding="rect(-13.4194,-21.05,26.8388,42.1)" text="" font-familyName="" font-pixelSize="20" font-bold="0" font-underline="0" font-alignment="1" strokeStyle="0" markerStart="0" markerEnd="0" shadowEnabled="0" shadowOffsetX="0" shadowOffsetY="2" shadowBlur="4" shadowOpacity="160" blurEnabled="0" blurRadius="4" transform="matrix(0.429366,0,0,0.429366,495.219,115.53)" pers-center="0,0" pers-size="0,0" pers-start="0,0" pers-end="0,0" locked="0" mesh="" flag=""/>
            <path id="shapePath44" d="M496.808,106.492 C496.593,106.492 496.422,106.663 496.379,106.835 L495.82,109.283 L494.575,114.907 C494.575,114.907 493.931,117.87 493.845,118.085 C493.845,118.085 493.287,120.231 491.999,120.145 C491.398,120.103 490.711,119.974 490.711,119.974 C490.325,119.845 490.325,120.231 490.282,120.446 L489.466,123.924 C489.423,124.096 489.552,124.267 489.724,124.31 C489.724,124.31 491.484,124.568 492.729,124.568 L492.944,124.568 C495.992,124.568 497.624,122.765 498.654,117.87 L499.857,112.159 L500.973,106.878 C501.016,106.706 500.887,106.492 500.715,106.492 " style="stroke:none;fill-rule:nonzero;fill:#333333;fill-opacity:1;"/>
        </g>
        <g id="Shape45">
            <desc shapeID="45" type="0" basicInfo-basicType="0" basicInfo-roundedRectRadius="12" basicInfo-polygonSides="6" basicInfo-starPoints="5" bounding="rect(-18.2916,-18.75,36.5831,37.5)" text="" font-familyName="" font-pixelSize="20" font-bold="0" font-underline="0" font-alignment="1" strokeStyle="0" markerStart="0" markerEnd="0" shadowEnabled="0" shadowOffsetX="0" shadowOffsetY="2" shadowBlur="4" shadowOpacity="160" blurEnabled="0" blurRadius="4" transform="matrix(0.429366,0,0,0.429366,547.544,109.69)" pers-center="0,0" pers-size="0,0" pers-start="0,0" pers-end="0,0" locked="0" mesh="" flag=""/>
            <path id="shapePath45" d="M549.491,101.64 C542.621,101.64 540.99,105.891 540.088,110.055 C539.186,114.349 539.272,117.741 546.357,117.741 L546.615,117.741 C549.448,117.741 552.84,117.741 552.84,117.741 C553.012,117.741 553.227,117.569 553.27,117.355 L553.957,114.65 C554,114.478 553.871,114.392 553.656,114.392 L547.259,114.392 C544.94,114.392 544.124,113.662 544.21,112.073 C544.21,111.902 544.425,111.429 544.596,111.429 L554.429,111.429 C554.858,111.429 554.858,111.172 554.858,111.172 C555.932,106.706 555.975,101.64 549.491,101.64 M551.295,108.381 C551.295,108.596 550.608,108.553 550.608,108.553 L545.283,108.51 C545.112,108.51 545.026,108.252 545.026,108.08 C545.026,108.08 545.026,107.866 545.069,107.823 C545.498,106.406 546.7,105.59 548.675,105.59 C550.865,105.59 551.338,106.663 551.338,107.909 " style="stroke:none;fill-rule:nonzero;fill:#333333;fill-opacity:1;"/>
        </g>
        <g id="Shape46">
            <desc shapeID="46" type="0" basicInfo-basicType="0" basicInfo-roundedRectRadius="12" basicInfo-polygonSides="6" basicInfo-starPoints="5" bounding="rect(-22.988,-24.0003,45.9759,48.0007)" text="" font-familyName="" font-pixelSize="20" font-bold="0" font-underline="0" font-alignment="1" strokeStyle="0" markerStart="0" markerEnd="0" shadowEnabled="0" shadowOffsetX="0" shadowOffsetY="2" shadowBlur="4" shadowOpacity="160" blurEnabled="0" blurRadius="4" transform="matrix(0.429366,0,0,0.429366,512.464,107.436)" pers-center="0,0" pers-size="0,0" pers-start="0,0" pers-end="0,0" locked="0" mesh="" flag=""/>
            <path id="shapePath46" d="M519.865,113.319 C519.865,113.319 521.797,108.638 522.227,105.976 C522.828,102.37 521.024,97.1315 514.026,97.1315 C507.113,97.1315 504.107,102.112 502.948,107.565 C501.789,113.018 503.291,117.784 510.204,117.741 L520.724,117.741 C520.938,117.741 521.11,117.569 521.153,117.398 L522.055,114.006 C522.098,113.834 521.969,113.662 521.797,113.662 L520.938,113.662 L520.08,113.662 C519.908,113.662 519.822,113.533 519.822,113.404 C519.865,113.404 519.865,113.361 519.865,113.319 M516.258,110.485 L515.485,113.19 C515.443,113.361 515.228,113.49 515.013,113.49 L510.934,113.49 C507.843,113.49 507.07,111.086 507.843,107.522 C508.616,103.873 510.075,101.64 513.124,101.382 C517.289,101.082 518.148,104.001 517.117,107.393 L516.258,110.485 Z" style="stroke:none;fill-rule:nonzero;fill:#333333;fill-opacity:1;"/>
        </g>
        <g id="Shape47">
            <desc shapeID="47" type="0" basicInfo-basicType="0" basicInfo-roundedRectRadius="12" basicInfo-polygonSides="6" basicInfo-starPoints="5" bounding="rect(-49.4697,-41.0088,98.9395,82.0176)" text="" font-familyName="" font-pixelSize="20" font-bold="0" font-underline="0" font-alignment="1" strokeStyle="0" markerStart="0" markerEnd="0" shadowEnabled="0" shadowOffsetX="0" shadowOffsetY="2" shadowBlur="4" shadowOpacity="160" blurEnabled="0" blurRadius="4" transform="matrix(0.317902,0,0,0.317902,481.282,65.864)" pers-center="0,0" pers-size="0,0" pers-start="0,0" pers-end="0,0" locked="0" mesh="" flag=""/>
            <path id="shapePath47" d="M477.196,52.8273 L465.555,78.9008 L473.169,78.9008 L475.432,73.3748 L487.132,73.3748 L489.395,78.9008 L497.008,78.9008 L485.339,52.8273 L477.196,52.8273 M481.331,58.9748 L483.306,63.9327 L485.281,68.8913 L481.342,68.9006 L477.404,68.9105 L479.367,63.9426 L481.331,58.9748 L481.331,58.9748 Z" style="stroke:none;fill-rule:evenodd;fill:#8c96a1;fill-opacity:1;"/>
        </g>
        <g id="Shape48">
            <desc shapeID="48" type="0" basicInfo-basicType="0" basicInfo-roundedRectRadius="12" basicInfo-polygonSides="6" basicInfo-starPoints="5" bounding="rect(-49.4697,-41.0088,98.9395,82.0176)" text="" font-familyName="" font-pixelSize="20" font-bold="0" font-underline="0" font-alignment="1" strokeStyle="0" markerStart="0" markerEnd="0" shadowEnabled="0" shadowOffsetX="0" shadowOffsetY="2" shadowBlur="4" shadowOpacity="160" blurEnabled="0" blurRadius="4" transform="matrix(0.317902,0,0,0.317902,537.742,65.864)" pers-center="0,0" pers-size="0,0" pers-start="0,0" pers-end="0,0" locked="0" mesh="" flag=""/>
            <path id="shapePath48" d="M533.656,52.8273 L522.016,78.9008 L529.629,78.9008 L531.892,73.3748 L543.592,73.3748 L545.855,78.9008 L553.469,78.9008 L541.799,52.8273 L533.656,52.8273 M537.791,58.9748 L539.766,63.9327 L541.741,68.8913 L537.803,68.9006 L533.864,68.9105 L535.828,63.9426 L537.791,58.9748 L537.791,58.9748 Z" style="stroke:none;fill-rule:evenodd;fill:#888888;fill-opacity:1;"/>
        </g>
        <g id="Shape49">
            <desc shapeID="49" type="0" basicInfo-basicType="0" basicInfo-roundedRectRadius="12" basicInfo-polygonSides="6" basicInfo-starPoints="5" bounding="rect(-47.6647,-41.2916,95.3293,82.5832)" text="" font-familyName="" font-pixelSize="20" font-bold="0" font-underline="0" font-alignment="1" strokeStyle="0" markerStart="0" markerEnd="0" shadowEnabled="0" shadowOffsetX="0" shadowOffsetY="2" shadowBlur="4" shadowOpacity="160" blurEnabled="0" blurRadius="4" transform="matrix(0.317902,0,0,0.317902,569.532,65.864)" pers-center="0,0" pers-size="0,0" pers-start="0,0" pers-end="0,0" locked="0" mesh="" flag=""/>
            <path id="shapePath49" d="M555.46,52.7374 L564.107,52.7374 L569.636,61.0516 L575.497,52.7374 L584.019,52.7374 L573.751,65.375 L584.685,78.9907 L576.038,78.9907 L569.76,70.1141 L563.608,78.9907 L554.379,78.9907 L565.52,65.4997 L555.46,52.7374 Z" style="stroke:none;fill-rule:evenodd;fill:#888888;fill-opacity:1;"/>
        </g>
        <g id="Shape50">
            <desc shapeID="50" type="0" basicInfo-basicType="0" basicInfo-roundedRectRadius="12" basicInfo-polygonSides="6" basicInfo-starPoints="5" bounding="rect(-51.2012,-59.8008,102.402,119.602)" text="" font-familyName="" font-pixelSize="20" font-bold="0" font-underline="0" font-alignment="1" strokeStyle="0" markerStart="0" markerEnd="0" shadowEnabled="0" shadowOffsetX="0" shadowOffsetY="2" shadowBlur="4" shadowOpacity="160" blurEnabled="0" blurRadius="4" transform="matrix(0.317902,0,0,0.317902,512.783,60.7134)" pers-center="0,0" pers-size="0,0" pers-start="0,0" pers-end="0,0" locked="0" mesh="" flag=""/>
            <path id="shapePath50" d="M518.879,41.7026 L508.528,51.8835 L512.091,55.1078 L515.462,51.719 L515.839,51.7196 L515.839,71.1607 C515.839,73.6287 513.852,75.6156 511.384,75.6156 L507.844,75.6156 C505.376,75.6156 503.389,73.6287 503.389,71.1607 L503.389,69.0856 L496.506,69.0856 L496.506,71.6698 C496.506,76.1319 500.098,79.7242 504.56,79.7242 L513.705,79.7242 C518.167,79.7242 521.759,76.1319 521.759,71.6698 L521.759,51.7333 L522.026,51.7339 L525.964,55.1079 L529.06,51.8835 L518.879,41.7026 L518.879,41.7026 Z" style="stroke:none;fill-rule:nonzero;fill:#8c96a1;fill-opacity:1;"/>
        </g>
        <g id="Shape51">
            <desc shapeID="51" type="0" basicInfo-basicType="0" basicInfo-roundedRectRadius="12" basicInfo-polygonSides="6" basicInfo-starPoints="5" bounding="rect(-51.2012,-59.8008,102.402,119.602)" text="" font-familyName="" font-pixelSize="20" font-bold="0" font-underline="0" font-alignment="1" strokeStyle="0" markerStart="0" markerEnd="0" shadowEnabled="0" shadowOffsetX="0" shadowOffsetY="2" shadowBlur="4" shadowOpacity="160" blurEnabled="0" blurRadius="4" transform="matrix(0.317902,0,0,0.317902,505.993,47.9341)" pers-center="0,0" pers-size="0,0" pers-start="0,0" pers-end="0,0" locked="0" mesh="" flag=""/>
            <path id="shapePath51" d="M499.897,66.9449 L510.248,56.764 L506.684,53.5396 L503.313,56.9285 L502.937,56.9279 L502.937,37.4868 C502.937,35.0188 504.924,33.0318 507.392,33.0318 L510.932,33.0318 C513.4,33.0318 515.387,35.0188 515.387,37.4868 L515.387,39.5619 L522.27,39.5619 L522.27,36.9777 C522.27,32.5156 518.677,28.9233 514.215,28.9233 L505.07,28.9233 C500.608,28.9233 497.016,32.5156 497.016,36.9777 L497.016,56.9142 L496.75,56.9136 L492.812,53.5396 L489.716,56.7639 L499.897,66.9449 L499.897,66.9449 Z" style="stroke:none;fill-rule:nonzero;fill:#8c96a1;fill-opacity:1;"/>
        </g>
        <g id="Shape52">
            <desc shapeID="52" type="0" basicInfo-basicType="0" basicInfo-roundedRectRadius="12" basicInfo-polygonSides="6" basicInfo-starPoints="5" bounding="rect(-187.368,-79.9004,374.736,159.801)" text="" font-familyName="" font-pixelSize="20" font-bold="0" font-underline="0" font-alignment="1" strokeStyle="0" markerStart="0" markerEnd="0" shadowEnabled="0" shadowOffsetX="0" shadowOffsetY="2" shadowBlur="4" shadowOpacity="160" blurEnabled="0" blurRadius="4" transform="matrix(0.317902,0,0,0.317902,525.12,53.6878)" pers-center="0,0" pers-size="0,0" pers-start="0,0" pers-end="0,0" locked="0" mesh="" flag=""/>
            <path id="shapePath52" d="M505.07,28.2873 C500.608,28.2873 497.016,31.8796 497.016,36.3417 L497.016,56.2782 L496.75,56.2776 L492.812,52.9036 L489.715,56.128 L499.896,66.3089 L510.247,56.128 L506.684,52.9036 L503.313,56.2925 L502.937,56.2919 L502.937,36.8508 C502.937,34.3828 504.924,32.3959 507.392,32.3959 L510.932,32.3959 C513.4,32.3959 515.387,34.3828 515.387,36.8508 L515.387,38.9259 L522.269,38.9259 L522.269,36.3417 C522.269,31.8796 518.677,28.2873 514.215,28.2873 L505.07,28.2873 M518.879,41.0668 L508.528,51.2477 L512.091,54.472 L515.462,51.0832 L515.839,51.0838 L515.839,70.5248 C515.839,72.9929 513.852,74.9798 511.384,74.9798 L507.844,74.9798 C505.376,74.9798 503.389,72.9929 503.389,70.5248 L503.389,68.4498 L496.506,68.4498 L496.506,71.034 C496.506,75.4961 500.098,79.0883 504.56,79.0883 L513.705,79.0883 C518.167,79.0883 521.759,75.4961 521.759,71.034 L521.759,51.0974 L522.026,51.0981 L525.964,54.472 L529.06,51.2477 L518.879,41.0668 M555.46,52.1014 L565.52,64.8641 L554.379,78.355 L563.608,78.355 L569.76,69.478 L576.038,78.355 L584.685,78.355 L573.751,64.7393 L584.019,52.1014 L575.497,52.1014 L569.636,60.4159 L564.107,52.1014 L555.46,52.1014 M477.196,52.1915 L465.555,78.265 L473.169,78.265 L475.432,72.739 L487.132,72.739 L489.395,78.265 L497.008,78.265 L485.339,52.1915 L477.196,52.1915 M533.657,52.1915 L522.016,78.265 L529.629,78.265 L531.893,72.739 L543.592,72.739 L545.855,78.265 L553.469,78.265 L541.799,52.1915 L533.657,52.1915 M481.331,58.339 L483.306,63.2969 L485.281,68.2554 L481.342,68.2648 L477.404,68.2747 L479.367,63.3069 L481.331,58.339 M537.791,58.339 L539.766,63.2969 L541.741,68.2554 L537.803,68.2648 L533.865,68.2747 L535.828,63.3069 L537.791,58.339 Z" style="stroke:none;fill-rule:evenodd;fill:#888888;fill-opacity:1;"/>
        </g>
        <g id="Shape53">
            <desc shapeID="53" type="0" basicInfo-basicType="0" basicInfo-roundedRectRadius="12" basicInfo-polygonSides="6" basicInfo-starPoints="5" bounding="rect(-127.397,-140.389,254.794,280.778)" text="" font-familyName="" font-pixelSize="20" font-bold="0" font-underline="0" font-alignment="1" strokeStyle="0" markerStart="0" markerEnd="0" shadowEnabled="0" shadowOffsetX="0" shadowOffsetY="2" shadowBlur="4" shadowOpacity="160" blurEnabled="0" blurRadius="4" transform="matrix(0.27948,0,0,0.27948,420.944,80)" pers-center="0,0" pers-size="0,0" pers-start="0,0" pers-end="0,0" locked="0" mesh="" flag=""/>
            <path id="shapePath53" d="M417.731,41.6013 C419.677,40.4876 422.211,40.4826 424.155,41.6013 C433.936,47.1278 443.719,52.6455 453.498,58.1753 C455.337,59.2114 456.567,61.2583 456.549,63.3776 L456.549,96.6267 C456.562,98.8337 455.21,100.93 453.27,101.942 C443.522,107.438 433.779,112.941 424.032,118.437 C422.046,119.572 419.461,119.485 417.537,118.256 C414.614,116.562 411.687,114.876 408.764,113.184 C408.167,112.828 407.493,112.544 407.072,111.965 C407.445,111.463 408.111,111.4 408.653,111.181 C409.873,110.793 410.993,110.17 412.114,109.566 C412.397,109.372 412.743,109.446 413.015,109.62 C415.514,111.053 417.991,112.527 420.499,113.946 C421.033,114.255 421.575,113.845 422.032,113.59 C431.598,108.184 441.176,102.798 450.74,97.3894 C451.095,97.2189 451.291,96.8427 451.262,96.4545 C451.269,85.4864 451.264,74.5162 451.265,63.548 C451.306,63.1076 451.051,62.7026 450.653,62.5223 C440.938,57.0515 431.229,51.5723 421.516,46.1001 C421.172,45.8633 420.717,45.8627 420.372,46.0984 C410.659,51.5723 400.951,57.0566 391.239,62.5271 C390.842,62.7076 390.576,63.1059 390.623,63.548 C390.624,74.5162 390.623,85.4864 390.623,96.4562 C390.588,96.8441 390.799,97.2125 391.151,97.3793 C393.743,98.8491 396.338,100.309 398.932,101.773 C400.393,102.56 402.187,103.027 403.797,102.424 C405.217,101.915 406.213,100.465 406.186,98.957 C406.199,88.0528 406.179,77.147 406.196,66.2445 C406.16,65.7604 406.62,65.3605 407.09,65.406 C408.336,65.3976 409.583,65.3893 410.828,65.4094 C411.348,65.3976 411.706,65.9189 411.641,66.4066 C411.636,77.3798 411.655,88.3533 411.633,99.3265 C411.636,102.251 410.435,105.433 407.73,106.864 C404.397,108.59 400.278,108.224 396.986,106.569 C394.136,105.146 391.416,103.468 388.616,101.944 C386.671,100.937 385.326,98.8323 385.339,96.627 L385.339,63.3776 C385.319,61.2144 386.598,59.1303 388.495,58.1094 C398.241,52.6089 407.986,47.1043 417.731,41.6013 Z" style="stroke:none;fill-rule:nonzero;fill:#b8b8b8;fill-opacity:1;"/>
        </g>
        <g id="Shape54">
            <desc shapeID="54" type="0" basicInfo-basicType="0" basicInfo-roundedRectRadius="12" basicInfo-polygonSides="6" basicInfo-starPoints="5" bounding="rect(-54.1258,-56.9889,108.252,113.978)" text="" font-familyName="" font-pixelSize="20" font-bold="0" font-underline="0" font-alignment="1" strokeStyle="0" markerStart="0" markerEnd="0" shadowEnabled="0" shadowOffsetX="0" shadowOffsetY="2" shadowBlur="4" shadowOpacity="160" blurEnabled="0" blurRadius="4" transform="matrix(0.27948,0,0,0.27948,429.581,80.4521)" pers-center="0,0" pers-size="0,0" pers-start="0,0" pers-end="0,0" locked="0" mesh="" flag=""/>
            <path id="shapePath54" d="M426.234,64.6332 C430.485,64.3596 435.036,64.4712 438.861,66.5653 C441.823,68.1701 443.464,71.5381 443.517,74.8284 C443.434,75.2722 442.97,75.517 442.546,75.4866 C441.313,75.4849 440.079,75.5033 438.846,75.4782 C438.323,75.4983 438.019,75.0159 437.953,74.5534 C437.599,72.9791 436.74,71.4199 435.258,70.6605 C432.984,69.5216 430.346,69.5789 427.866,69.6027 C426.055,69.6988 424.108,69.8556 422.574,70.9204 C421.396,71.727 421.038,73.3552 421.459,74.6666 C421.855,75.6081 422.942,75.9119 423.831,76.192 C428.954,77.5318 434.383,77.3985 439.408,79.1617 C441.488,79.8805 443.523,81.2779 444.236,83.4562 C445.167,86.3756 444.759,89.8652 442.682,92.2089 C440.997,94.1376 438.544,95.1874 436.097,95.7575 C432.842,96.4833 429.464,96.5018 426.158,96.1795 C423.05,95.8251 419.815,95.0085 417.416,92.8906 C415.364,91.1089 414.361,88.3328 414.461,85.6535 C414.485,85.201 414.935,84.8855 415.369,84.9226 C416.611,84.9126 417.853,84.9092 419.095,84.9243 C419.591,84.8888 419.959,85.3175 419.984,85.7851 C420.213,87.2851 420.777,88.8594 422.085,89.7487 C424.609,91.3772 427.776,91.2657 430.667,91.3113 C433.061,91.2051 435.749,91.1729 437.704,89.5902 C438.735,88.6875 439.04,87.1772 438.761,85.8779 C438.46,84.7809 437.312,84.2698 436.327,83.9355 C431.269,82.3358 425.78,82.9163 420.772,81.1072 C418.739,80.3886 416.772,79.0301 415.991,76.9413 C414.901,73.9849 415.401,70.3282 417.696,68.0636 C419.933,65.811 423.163,64.9435 426.234,64.633 L426.234,64.6332 Z" style="stroke:none;fill-rule:nonzero;fill:#b8b8b8;fill-opacity:1;"/>
        </g>
        <g id="Shape55">
            <desc shapeID="55" type="0" basicInfo-basicType="0" basicInfo-roundedRectRadius="12" basicInfo-polygonSides="6" basicInfo-starPoints="5" bounding="rect(-27.8167,-18.9185,55.6334,37.8369)" text="" font-familyName="Helvetica" font-pixelSize="20" font-bold="0" font-underline="0" font-alignment="1" strokeStyle="0" markerStart="0" markerEnd="0" shadowEnabled="0" shadowOffsetX="0" shadowOffsetY="2" shadowBlur="4" shadowOpacity="160" blurEnabled="0" blurRadius="4" transform="matrix(1.23833,0,0,1.23833,239.044,92.4368)" pers-center="0,0" pers-size="0,0" pers-start="0,0" pers-end="0,0" locked="0" mesh="" flag=""/>
            <path id="shapePath55" d="M207.195,88.1716 C216.238,82.4306 224.829,76.0228 234.118,70.2235 C237.211,68.2924 242.33,68.7947 245.577,70.8157 C254.048,76.0879 261.32,81.809 269.673,86.8533 C273.695,89.2819 274.987,94.3006 271.356,96.6709 C262.025,102.763 253.13,108.738 245.577,114.128 C242.197,116.54 236.962,116.419 233.123,113.885 C225.226,108.673 216.483,102.833 207.782,97.0574 C203.018,93.8953 204.265,90.0316 207.195,88.1716 Z" style="stroke:none;fill-rule:evenodd;fill:#333333;fill-opacity:1;"/>
        </g>
        <g id="Shape56">
            <desc shapeID="56" type="0" basicInfo-basicType="0" basicInfo-roundedRectRadius="12" basicInfo-polygonSides="6" basicInfo-starPoints="5" bounding="rect(-27.8167,-18.9185,55.6334,37.8369)" text="" font-familyName="Helvetica" font-pixelSize="20" font-bold="0" font-underline="0" font-alignment="1" strokeStyle="0" markerStart="0" markerEnd="0" shadowEnabled="0" shadowOffsetX="0" shadowOffsetY="2" shadowBlur="4" shadowOpacity="160" blurEnabled="0" blurRadius="4" transform="matrix(1.23833,0,0,1.23833,239.044,83.5215)" pers-center="0,0" pers-size="0,0" pers-start="0,0" pers-end="0,0" locked="0" mesh="" flag=""/>
            <path id="shapePath56" d="M207.195,79.2564 C216.238,73.5154 224.829,67.1075 234.118,61.3083 C237.211,59.3772 242.33,59.8794 245.577,61.9005 C254.048,67.1727 261.32,72.8938 269.673,77.9381 C273.695,80.3666 274.987,85.3853 271.356,87.7557 C262.025,93.8479 253.13,99.8228 245.577,105.213 C242.197,107.625 236.962,107.504 233.123,104.97 C225.226,99.7578 216.483,93.9173 207.782,88.1421 C203.018,84.9801 204.265,81.1164 207.195,79.2564 Z" style="stroke:none;fill-rule:evenodd;fill:#4b4b4b;fill-opacity:1;"/>
        </g>
        <g id="Shape57">
            <desc shapeID="57" type="0" basicInfo-basicType="0" basicInfo-roundedRectRadius="12" basicInfo-polygonSides="6" basicInfo-starPoints="5" bounding="rect(-27.8167,-18.9185,55.6334,37.8369)" text="" font-familyName="Helvetica" font-pixelSize="20" font-bold="0" font-underline="0" font-alignment="1" strokeStyle="0" markerStart="0" markerEnd="0" shadowEnabled="0" shadowOffsetX="0" shadowOffsetY="2" shadowBlur="4" shadowOpacity="160" blurEnabled="0" blurRadius="4" transform="matrix(1.23833,0,0,1.23833,239.044,73.174)" pers-center="0,0" pers-size="0,0" pers-start="0,0" pers-end="0,0" locked="0" mesh="" flag=""/>
            <path id="shapePath57" d="M207.195,68.9089 C216.238,63.1679 224.829,56.76 234.118,50.9608 C237.211,49.0297 242.33,49.5319 245.577,51.553 C254.048,56.8251 261.32,62.5463 269.673,67.5906 C273.695,70.0191 274.987,75.0378 271.356,77.4082 C262.025,83.5004 253.13,89.4753 245.577,94.8656 C242.197,97.2777 236.962,97.1564 233.123,94.6226 C225.226,89.4102 216.483,83.5698 207.782,77.7946 C203.018,74.6326 204.265,70.7688 207.195,68.9089 Z" style="stroke:none;fill-rule:evenodd;fill:#727272;fill-opacity:1;"/>
        </g>
        <g id="Shape58">
            <desc shapeID="58" type="0" basicInfo-basicType="0" basicInfo-roundedRectRadius="12" basicInfo-polygonSides="6" basicInfo-starPoints="5" bounding="rect(-5.53223,-7.17285,11.0645,14.3457)" text="B" font-familyName="Helvetica" font-pixelSize="20" font-bold="0" font-underline="0" font-alignment="1" strokeStyle="0" markerStart="0" markerEnd="0" shadowEnabled="0" shadowOffsetX="0" shadowOffsetY="2" shadowBlur="4" shadowOpacity="160" blurEnabled="0" blurRadius="4" transform="matrix(1.38912,-0.861095,1.37322,0.952832,240.338,71.4544)" pers-center="0,0" pers-size="0,0" pers-start="0,0" pers-end="0,0" locked="0" mesh="" flag=""/>
            <path id="shapePath58" d="M238.687,70.4782 C239.827,69.7718 240.557,69.1139 240.877,68.5043 C241.38,67.5465 240.992,66.624 239.714,65.7369 C238.426,64.8437 237.03,64.5699 235.525,64.9156 C234.678,65.112 233.666,65.5745 232.491,66.3033 L227.675,69.2885 L233.777,73.5223 L238.687,70.4782 M248.688,76.2236 C250.343,75.1977 251.05,74.1373 250.807,73.0425 C250.652,72.3521 250.149,71.7123 249.3,71.123 C247.869,70.1305 246.248,69.8552 244.436,70.297 C243.472,70.5308 242.424,70.998 241.294,71.6988 L235.936,75.0204 L242.869,79.8311 L248.688,76.2236 M222.803,69.3837 L231.363,64.0775 C233.697,62.6312 236.044,62.0801 238.407,62.4243 C239.799,62.6301 241.027,63.102 242.091,63.8402 C243.334,64.7025 243.996,65.6311 244.077,66.6261 C244.127,67.1475 243.978,67.745 243.63,68.4186 C245.036,68.0518 246.234,67.879 247.223,67.9 C248.977,67.9405 250.609,68.485 252.12,69.5333 C253.389,70.4142 254.136,71.4608 254.359,72.6731 C254.694,74.4857 253.55,76.2049 250.927,77.8307 L242.503,83.0527 L222.803,69.3837 Z" style="stroke:none;fill-rule:nonzero;fill:#ffffff;fill-opacity:1;"/>
        </g>
        <g id="Shape59">
            <desc shapeID="59" type="0" basicInfo-basicType="0" basicInfo-roundedRectRadius="12" basicInfo-polygonSides="6" basicInfo-starPoints="5" bounding="rect(-181.4,-205.7,362.8,411.4)" text="" font-familyName="" font-pixelSize="20" font-bold="0" font-underline="0" font-alignment="1" strokeStyle="0" markerStart="0" markerEnd="0" shadowEnabled="0" shadowOffsetX="0" shadowOffsetY="2" shadowBlur="4" shadowOpacity="160" blurEnabled="0" blurRadius="4" transform="matrix(0.149761,0,0,0.149761,163.949,89.4025)" pers-center="0,0" pers-size="0,0" pers-start="0,0" pers-end="0,0" locked="0" mesh="" flag=""/>
            <path id="shapePath59" d="M141.724,114.068 L136.782,58.5966 L191.116,58.5966 L186.173,114.038 L163.904,120.208 " style="stroke:none;fill-rule:nonzero;fill:#b1b1b1;fill-opacity:1;"/>
        </g>
        <g id="Shape60">
            <desc shapeID="60" type="0" basicInfo-basicType="0" basicInfo-roundedRectRadius="12" basicInfo-polygonSides="6" basicInfo-starPoints="5" bounding="rect(-74.15,-174.75,148.3,349.5)" text="" font-familyName="" font-pixelSize="20" font-bold="0" font-underline="0" font-alignment="1" strokeStyle="0" markerStart="0" markerEnd="0" shadowEnabled="0" shadowOffsetX="0" shadowOffsetY="2" shadowBlur="4" shadowOpacity="160" blurEnabled="0" blurRadius="4" transform="matrix(0.149761,0,0,0.149761,175.054,89.3202)" pers-center="0,0" pers-size="0,0" pers-start="0,0" pers-end="0,0" locked="0" mesh="" flag=""/>
            <path id="shapePath60" d="M163.949,115.491 L163.949,63.1494 L186.158,63.1494 L181.92,110.474 " style="stroke:none;fill-rule:nonzero;fill:#c7c7c7;fill-opacity:1;"/>
        </g>
        <g id="Shape61">
            <desc shapeID="61" type="0" basicInfo-basicType="0" basicInfo-roundedRectRadius="12" basicInfo-polygonSides="6" basicInfo-starPoints="5" bounding="rect(-50.8,-128.65,101.6,257.3)" text="" font-familyName="" font-pixelSize="20" font-bold="0" font-underline="0" font-alignment="1" strokeStyle="0" markerStart="0" markerEnd="0" shadowEnabled="0" shadowOffsetX="0" shadowOffsetY="2" shadowBlur="4" shadowOpacity="160" blurEnabled="0" blurRadius="4" transform="matrix(0.149761,0,0,0.149761,156.116,90.0902)" pers-center="0,0" pers-size="0,0" pers-start="0,0" pers-end="0,0" locked="0" mesh="" flag=""/>
            <path id="shapePath61" d="M150.749,70.9943 L163.724,70.8233 L163.724,77.6225 L155.637,77.6225 L155.479,84.5864 L163.724,84.5864 L163.724,91.3706 L148.508,91.3706 M148.808,94.7852 L155.637,94.7852 L156.116,100.222 L163.724,102.258 L163.724,109.357 L149.766,105.463 " style="stroke:none;fill-rule:nonzero;fill:#ebebeb;fill-opacity:1;"/>
        </g>
        <g id="Shape62">
            <desc shapeID="62" type="0" basicInfo-basicType="0" basicInfo-roundedRectRadius="12" basicInfo-polygonSides="6" basicInfo-starPoints="5" bounding="rect(-52.75,-128.94,105.5,257.88)" text="" font-familyName="" font-pixelSize="20" font-bold="0" font-underline="0" font-alignment="1" strokeStyle="0" markerStart="0" markerEnd="0" shadowEnabled="0" shadowOffsetX="0" shadowOffsetY="2" shadowBlur="4" shadowOpacity="160" blurEnabled="0" blurRadius="4" transform="matrix(0.149761,0,0,0.149761,171.594,90.0168)" pers-center="0,0" pers-size="0,0" pers-start="0,0" pers-end="0,0" locked="0" mesh="" flag=""/>
            <path id="shapePath62" d="M177.39,70.7066 L163.694,70.8234 L163.694,77.6225 L172.053,77.556 L172.517,81.5034 L179.274,81.5034 M179.494,84.5864 L163.694,84.5864 L163.694,91.3856 L172.081,91.3856 L171.287,100.222 L163.694,102.258 L163.694,109.327 L177.622,105.463 " style="stroke:none;fill-rule:evenodd;fill:#ffffff;fill-opacity:1;"/>
        </g>
        <g id="Shape63">
            <desc shapeID="63" type="0" basicInfo-basicType="0" basicInfo-roundedRectRadius="12" basicInfo-polygonSides="6" basicInfo-starPoints="5" bounding="rect(-26.8165,-34.1698,53.633,68.3396)" text="" font-familyName="Helvetica" font-pixelSize="20" font-bold="0" font-underline="0" font-alignment="1" strokeStyle="0" markerStart="0" markerEnd="0" shadowEnabled="0" shadowOffsetX="0" shadowOffsetY="2" shadowBlur="4" shadowOpacity="160" blurEnabled="0" blurRadius="4" transform="matrix(0.140291,0,0,0.140291,158.469,48.1707)" pers-center="0,0" pers-size="0,0" pers-start="0,0" pers-end="0,0" locked="0" mesh="" flag=""/>
            <path id="shapePath63" d="M154.707,52.8364 C154.707,52.8364 154.746,49.7508 154.746,49.7508 C154.746,49.7508 159.067,49.7433 159.067,49.7433 C159.067,49.7433 159.161,43.377 159.161,43.377 C159.161,43.377 162.231,43.3959 162.231,43.3959 C162.231,43.3959 162.117,52.9644 162.117,52.9644 C162.117,52.9644 154.707,52.8364 154.707,52.8364 Z" style="stroke:none;fill-rule:evenodd;fill:#000000;fill-opacity:1;"/>
        </g>
        <g id="Shape64">
            <desc shapeID="64" type="0" basicInfo-basicType="0" basicInfo-roundedRectRadius="12" basicInfo-polygonSides="6" basicInfo-starPoints="5" bounding="rect(-27.624,-33.3453,55.248,66.6906)" text="" font-familyName="Helvetica" font-pixelSize="20" font-bold="0" font-underline="0" font-alignment="1" strokeStyle="0" markerStart="0" markerEnd="0" shadowEnabled="0" shadowOffsetX="0" shadowOffsetY="2" shadowBlur="4" shadowOpacity="160" blurEnabled="0" blurRadius="4" transform="matrix(0.140291,0,0,0.140291,169.315,48.1124)" pers-center="0,0" pers-size="0,0" pers-start="0,0" pers-end="0,0" locked="0" mesh="" flag=""/>
            <path id="shapePath64" d="M165.554,43.483 C165.554,43.483 173.191,43.4343 173.191,43.4343 C173.191,43.4343 173.158,46.6773 173.158,46.6773 C173.158,46.6773 170.061,46.6611 170.061,46.6611 C170.061,46.6611 173.11,49.8393 173.11,49.8393 C173.11,49.8393 173.11,52.7904 173.11,52.7904 C173.11,52.7904 165.44,52.7742 165.44,52.7742 C165.44,52.7742 165.505,49.8555 165.505,49.8555 C165.505,49.8555 168.456,49.8231 168.456,49.8231 C168.456,49.8231 165.456,46.5963 165.456,46.5963 C165.456,46.5963 165.554,43.483 165.554,43.483 Z" style="stroke:none;fill-rule:evenodd;fill:#000000;fill-opacity:1;"/>
        </g>
    </g>
</svg>
