<?xml version="1.0"?>
<svg version="1.1" xmlns="http://www.w3.org/2000/svg" xmlns:xlink="http://www.w3.org/1999/xlink" width="100" height="100">
    <desc iVinci="yes" version="4.6" gridStep="20" showGrid="no" snapToGrid="no" codePlatform="0"/>
    <g id="Layer1" name="Layer 1" opacity="1">
        <g id="Shape1">
            <desc shapeID="1" type="0" basicInfo-basicType="2" basicInfo-roundedRectRadius="150" basicInfo-polygonSides="6" basicInfo-starPoints="5" bounding="rect(-512.198,-512.222,1024.41,1024.42)" text="" font-familyName="Helvetica" font-pixelSize="20" font-bold="0" font-underline="0" font-alignment="1" strokeStyle="0" markerStart="0" markerEnd="0" shadowEnabled="0" shadowOffsetX="0" shadowOffsetY="2" shadowBlur="4" shadowOpacity="160" blurEnabled="0" blurRadius="4" transform="matrix(0.0976157,0,0,0.0976157,50.0097,50.0095)" pers-center="0,0" pers-size="0,0" pers-start="0,0" pers-end="0,0" locked="0" mesh="" flag=""/>
            <path id="shapePath1" d="M0.0111198,14.651 C0.0111198,6.56421 6.56676,0.00861359 14.6536,0.00861359 L85.3681,0.00861359 C93.4548,0.00861359 100.01,6.56421 100.01,14.651 L100.01,85.3654 C100.01,93.452 93.4548,100.008 85.3681,100.008 L14.6536,100.008 C6.56676,100.008 0.0111198,93.452 0.0111198,85.3654 L0.0111198,14.651 Z" style="stroke:none;fill-rule:evenodd;fill:#f8f8f8;fill-opacity:1;"/>
        </g>
    </g>
    <g id="Layer2" name="Layer 2" opacity="1">
        <g id="Shape2">
            <desc shapeID="2" type="0" basicInfo-basicType="0" basicInfo-roundedRectRadius="12" basicInfo-polygonSides="6" basicInfo-starPoints="5" bounding="rect(-123.073,-426.155,246.144,852.312)" text="" font-familyName="" font-pixelSize="20" font-bold="0" font-underline="0" font-alignment="1" strokeStyle="0" markerStart="0" markerEnd="0" shadowEnabled="0" shadowOffsetX="0" shadowOffsetY="2" shadowBlur="4" shadowOpacity="160" blurEnabled="0" blurRadius="4" transform="matrix(0.0978611,0,0,0.0978607,50,50)" pers-center="0,0" pers-size="0,0" pers-start="0,0" pers-end="0,0" locked="0" mesh="" flag=""/>
            <path id="shapePath2" d="M53.4758,8.49734 C53.075,8.77139 52.2526,9.76956 52.0474,10.2393 C51.969,10.4252 51.7048,10.9831 51.46,11.4821 C51.0002,12.4412 50.9711,12.588 51.1272,13.0479 C51.2153,13.3023 51.1861,13.4394 50.8338,14.1342 C50.3741,15.0443 50.1682,15.1715 49.6009,14.8975 C49.3562,14.7898 49.2095,14.6039 49.0333,14.232 C48.7691,13.6253 48.5441,13.4002 48.0254,13.2241 C47.4187,13.0186 47.311,13.136 47.311,14.046 C47.311,14.6626 47.3599,14.8975 47.536,15.24 C47.8101,15.7489 47.9275,16.3654 47.8003,16.61 C47.7122,16.7666 47.6828,16.7666 47.2914,16.6198 C46.8314,16.4535 46.1171,15.9641 45.7647,15.5825 C45.6376,15.4455 45.3146,15.2693 45.0308,15.1715 C44.747,15.0834 44.3458,14.9073 44.1305,14.7898 C43.9152,14.6626 43.4063,14.4962 43.0051,14.4081 C42.6039,14.3201 41.8797,14.0754 41.3904,13.87 C40.9109,13.6546 40.3335,13.4589 40.1084,13.4198 C39.7365,13.361 39.6876,13.3806 39.4429,13.6645 C39.0417,14.1439 39.0026,14.1048 40.5097,14.8975 C41.1066,15.2009 41.7231,15.5531 41.8797,15.6804 C42.046,15.7978 42.3103,15.925 42.4767,15.9544 C42.8094,16.0326 43.7782,16.7275 44.0914,17.1287 C44.199,17.2559 44.5121,17.4419 44.796,17.5299 C45.0699,17.6278 45.4125,17.8039 45.5495,17.9311 C45.6865,18.0486 45.9898,18.2443 46.2346,18.3519 C47.1348,18.763 48.0352,19.3991 48.2603,19.7905 C48.3874,19.996 48.4853,20.2211 48.4853,20.2797 C48.4853,20.4168 48.1428,20.5734 47.3893,20.7594 C47.0468,20.8474 46.6456,21.004 46.4792,21.1018 C46.0779,21.3465 45.4908,21.4737 44.3164,21.5813 C43.7684,21.6303 43.1911,21.7379 43.0247,21.826 C42.8584,21.9141 42.3984,22.051 42.007,22.1293 C41.6155,22.2174 41.0283,22.4132 40.7054,22.5599 C40.3825,22.7165 39.8735,22.9123 39.5702,23.0003 C39.0319,23.1471 38.1805,23.7342 37.9848,24.0866 C37.8576,24.3312 38.161,24.5955 38.6796,24.7129 C39.1494,24.8108 40.0791,24.6346 40.9109,24.2823 C41.1164,24.1942 41.7329,24.0376 42.2712,23.93 C42.8094,23.8125 43.5923,23.6267 44.0131,23.4896 C44.7862,23.2548 45.3048,23.196 45.5201,23.333 C45.5788,23.3722 45.6571,23.5679 45.6963,23.7637 C45.755,24.0866 45.7159,24.2139 45.344,24.8205 C45.1091,25.2022 44.7666,25.7209 44.5904,25.9557 C44.4143,26.2003 44.1892,26.6603 44.0914,26.9734 C43.9935,27.2866 43.8173,27.6683 43.7,27.8151 C43.514,28.0499 43.5042,28.1086 43.6217,28.2847 C43.7097,28.4218 43.8859,28.5001 44.1207,28.5197 C44.4339,28.549 44.5514,28.4903 44.9036,28.1674 C45.1287,27.9618 45.3831,27.7466 45.4614,27.6976 C45.618,27.5997 46.1758,26.8854 47.0272,25.6817 C47.536,24.9673 47.7611,24.752 48.7593,24.0279 L49.1899,23.7245 L49.6204,23.8908 C49.8554,23.9789 50.0801,24.0964 50.1099,24.1551 C50.1487,24.204 50.1882,24.6541 50.2076,25.1532 C50.2174,25.6426 50.2763,26.1515 50.3249,26.2884 C50.3741,26.445 50.3741,26.8071 50.3151,27.2475 C50.2368,27.7857 50.2368,28.0597 50.3346,28.3729 C50.3935,28.5979 50.4427,28.823 50.4427,28.8817 C50.3346,29.7527 50.3158,32.9136 50.4427,34.2641 C50.668,36.7791 50.6285,37.5913 50.736,37.8653 C50.9808,38.4917 51.0397,40.3804 51.0294,46.7217 C51.0197,50.3621 51.01,53.6307 51.01,53.983 C51.0002,54.3353 51.01,55.8717 51.0294,57.4081 C51.0495,60.2656 50.9219,63.3093 50.7263,64.6989 C50.4524,66.5774 50.4226,71.0793 50.6868,72.1357 C50.9219,73.0949 51.01,74.0149 50.9219,74.5338 C50.8338,75.0527 50.6285,79.3382 50.6674,79.7689 C50.7263,80.356 50.648,82.5191 50.5502,82.9988 C50.501,83.2634 50.433,85.2005 50.4032,87.2946 C50.3741,89.3888 50.3249,91.1309 50.3054,91.1605 C50.2076,91.3266 50.6285,91.6395 51.01,91.6891 C51.3428,91.7277 51.4503,91.6987 51.6264,91.5127 C51.8026,91.3266 51.8323,91.1991 51.8026,90.8566 C51.7734,90.6217 51.8123,90.3288 51.8809,90.1813 C52.0474,89.8588 52.0668,89.1539 51.9593,87.6964 C51.9107,87.05 51.8907,85.4651 51.9204,84.173 C51.9496,82.8809 51.9398,81.6578 51.9107,81.4621 C51.8809,81.267 51.9107,80.7964 51.9787,80.4153 C52.0474,80.0432 52.1257,79.0454 52.1549,78.184 C52.1846,77.3322 52.2533,76.4812 52.3116,76.2951 C52.478,75.7666 52.439,73.1246 52.263,72.4299 C52.1749,72.1067 52.0868,71.4025 52.0668,70.8643 C52.0474,70.3261 51.9787,69.484 51.9204,69.0044 C51.7734,67.9379 51.8421,66.558 52.1063,65.09 C52.2235,64.493 52.351,63.5735 52.4093,63.0353 C52.6055,61.2346 52.7032,56.6741 52.6152,54.1297 C52.566,52.7793 52.5272,51.4581 52.5272,51.1939 C52.5174,50.92 52.4585,50.4306 52.3996,50.0881 C52.3116,49.6185 52.3116,49.3346 52.3996,48.9138 C52.5368,48.2484 52.566,46.9174 52.5174,43.3651 C52.478,40.2042 52.3802,39.0006 52.1257,38.5797 C52.0085,38.384 51.9204,37.9926 51.8809,37.4935 C51.8518,37.0629 51.7831,36.3582 51.7242,35.9277 C51.6756,35.4971 51.7249,34.0292 51.6659,32.6591 C51.5973,30.9173 51.5779,30.1148 51.4898,29.968 C51.4212,29.8506 51.4624,29.4916 51.46,29.2477 C51.4521,28.4401 51.5754,27.7335 51.46,26.8952 C51.4952,26.6709 51.5262,26.4459 51.5481,26.2199 C51.5785,25.9042 51.5481,25.5838 51.6167,25.2707 C51.8615,24.1061 52.0085,23.9985 52.928,24.3704 C53.2802,24.5073 53.6131,24.6248 53.6817,24.6248 C53.8773,24.6248 55.805,25.5936 56.4118,25.9948 C57.7038,26.856 57.7328,26.8756 58.2517,26.8952 C58.6624,26.9147 58.8002,26.8756 58.9663,26.7092 L59.1716,26.5037 L58.9174,26.0634 C58.6927,25.6817 57.1752,24.2529 56.2945,23.5875 L56.0109,23.3722 L56.2654,23.0786 C56.6565,22.6089 57.3416,22.4914 58.5452,22.697 C60.8448,23.0688 61.6476,23.0884 61.9412,22.7655 C62.088,22.5991 62.088,22.5795 61.8723,22.4229 C61.7455,22.3349 61.4126,22.0902 61.1191,21.8749 C60.8351,21.6694 60.5512,21.4933 60.5023,21.4933 C60.4437,21.4933 60.0916,21.3367 59.7098,21.141 C58.8388,20.7006 56.5095,20.1722 55.805,20.27 L55.3356,20.3287 L55.3356,19.9373 C55.3356,19.4969 55.502,19.3599 56.314,19.1446 C56.5587,19.0859 57.058,18.8804 57.4297,18.6945 C57.8113,18.5085 58.1635,18.3618 58.2317,18.3618 C58.291,18.3618 58.5645,18.215 58.8195,18.0388 C59.0834,17.8626 59.5238,17.618 59.8077,17.5103 C60.4238,17.2559 61.2851,16.7079 61.354,16.5122 C61.3837,16.4338 61.3148,16.2773 61.2073,16.1696 C60.8841,15.8369 59.6513,15.8956 58.5163,16.2871 C58.0367,16.4535 57.4394,16.6394 57.1947,16.6981 C56.9499,16.7568 56.4707,16.9819 56.1184,17.1874 C55.7661,17.3929 55.355,17.618 55.1983,17.6767 C54.846,17.8039 53.8184,18.4204 53.4272,18.7336 C53.2019,18.9195 53.0652,18.9587 52.7616,18.9195 C52.5465,18.8902 52.331,18.8217 52.2727,18.763 C52.0966,18.5867 52.0668,17.2168 52.2332,16.6688 C52.6346,15.328 52.8302,14.4474 52.8497,13.8993 C52.8594,13.498 52.9572,13.0577 53.1727,12.5097 C53.3392,12.0693 53.4758,11.5702 53.4758,11.3941 C53.4758,11.2179 53.6325,10.7579 53.8184,10.3665 C54.1318,9.72064 54.3468,9.03559 54.3571,8.66376 C54.3571,8.57562 54.249,8.45826 54.1123,8.39948 C53.7989,8.2527 53.8578,8.24292 53.4758,8.49734 Z" style="stroke:none;fill-rule:evenodd;fill:#000000;fill-opacity:1;"/>
        </g>
    </g>
</svg>
