<?xml version="1.0"?>
<svg version="1.1" xmlns="http://www.w3.org/2000/svg" xmlns:xlink="http://www.w3.org/1999/xlink" width="100" height="100">
    <desc iVinci="yes" version="4.6" gridStep="20" showGrid="no" snapToGrid="no" codePlatform="0"/>
    <g id="Layer1" name="Layer 1" opacity="1">
        <g id="Shape1">
            <desc shapeID="1" type="0" basicInfo-basicType="2" basicInfo-roundedRectRadius="150" basicInfo-polygonSides="6" basicInfo-starPoints="5" bounding="rect(-512.201,-512.217,1024.42,1024.41)" text="" font-familyName="Helvetica" font-pixelSize="20" font-bold="0" font-underline="0" font-alignment="1" strokeStyle="0" markerStart="0" markerEnd="0" shadowEnabled="0" shadowOffsetX="0" shadowOffsetY="2" shadowBlur="4" shadowOpacity="160" blurEnabled="0" blurRadius="4" transform="matrix(0.0976157,0,0,0.0976157,50.01,50.0091)" pers-center="0,0" pers-size="0,0" pers-start="0,0" pers-end="0,0" locked="0" mesh="" flag=""/>
            <path id="shapePath1" d="M0.0111198,14.651 C0.0111198,6.56421 6.56676,0.00862122 14.6536,0.00862122 L85.3681,0.00862122 C93.4548,0.00862122 100.01,6.56421 100.01,14.651 L100.01,85.3654 C100.01,93.452 93.4548,100.008 85.3681,100.008 L14.6536,100.008 C6.56676,100.008 0.0111198,93.452 0.0111198,85.3654 L0.0111198,14.651 Z" style="stroke:none;fill-rule:evenodd;fill:#f8f8f8;fill-opacity:1;"/>
        </g>
    </g>
    <g id="Layer2" name="Layer 7" opacity="1">
        <g id="Shape2">
            <desc shapeID="2" type="0" basicInfo-basicType="0" basicInfo-roundedRectRadius="12" basicInfo-polygonSides="6" basicInfo-starPoints="5" bounding="rect(-148.481,-89.9912,296.961,179.982)" text="" font-familyName="Helvetica" font-pixelSize="20" font-bold="0" font-underline="0" font-alignment="1" strokeStyle="0" markerStart="0" markerEnd="0" shadowEnabled="0" shadowOffsetX="0" shadowOffsetY="2" shadowBlur="4" shadowOpacity="160" blurEnabled="0" blurRadius="4" transform="matrix(0.101728,0,0,0.101728,20.8646,60.346)" pers-center="0,0" pers-size="0,0" pers-start="0,0" pers-end="0,0" locked="0" mesh="" flag=""/>
            <path id="shapePath2" d="M6.39065,52.1186 C6.39065,52.1186 8.27766,51.1914 8.27766,51.1914 C8.27766,51.1914 9.95872,54.5117 9.95872,54.5117 C9.95872,54.5117 13.8693,57.6143 13.8693,57.6143 C13.8693,57.6143 23.6296,60.1996 23.6296,60.1996 C23.6296,60.1996 35.9692,62.7424 35.9692,62.7424 C35.9692,62.7424 35.0842,68.5348 35.0842,68.5348 C35.0842,68.5348 33.7969,69.5006 33.7969,69.5006 C33.7969,69.5006 28.3666,69.5006 28.3666,69.5006 C28.3666,69.5006 20.2411,67.9716 20.2411,67.9716 C20.2411,67.9716 16.6208,66.9659 16.6208,66.9659 C16.6208,66.9659 10.8685,64.9549 10.8685,64.9549 C10.8685,64.9549 8.57568,62.0182 8.57568,62.0182 C8.57568,62.0182 7.77125,60.812 7.77125,60.812 C7.77125,60.812 6.56445,55.6628 6.56445,55.6628 C6.56445,55.6628 5.75996,53.9331 5.75996,53.9331 C5.75996,53.9331 6.39065,52.1186 6.39065,52.1186 Z" style="stroke:none;fill-rule:evenodd;fill:#fbbbb8;fill-opacity:1;"/>
        </g>
        <g id="Shape3">
            <desc shapeID="3" type="0" basicInfo-basicType="0" basicInfo-roundedRectRadius="12" basicInfo-polygonSides="6" basicInfo-starPoints="5" bounding="rect(-176.774,-90.902,353.549,181.806)" text="" font-familyName="Helvetica" font-pixelSize="20" font-bold="0" font-underline="0" font-alignment="1" strokeStyle="0" markerStart="0" markerEnd="0" shadowEnabled="0" shadowOffsetX="0" shadowOffsetY="2" shadowBlur="4" shadowOpacity="160" blurEnabled="0" blurRadius="4" transform="matrix(0.101728,0,0,0.101728,73.6855,63.6545)" pers-center="0,0" pers-size="0,0" pers-start="0,0" pers-end="0,0" locked="0" mesh="" flag=""/>
            <path id="shapePath3" d="M70.8153,54.5092 C71.5453,54.1444 72.412,54.8567 73.1895,55.1028 C75.5973,55.8645 77.9814,56.7002 80.366,57.5308 C83.1973,58.5171 86.1178,59.2906 88.8373,60.5524 C89.9178,61.0541 91.405,61.5976 91.6431,62.765 C91.8784,63.9167 90.4097,64.773 89.9167,65.8402 C88.8785,68.0875 88.8066,70.9426 87.057,72.6928 C86.3084,73.4407 85.0657,71.9611 84.0351,71.7218 C81.4992,71.1326 78.8701,70.9472 76.3731,70.2108 C74.938,69.7873 73.7289,68.7903 72.3263,68.2683 C68.973,67.0203 65.4082,66.3454 62.1314,64.9092 C59.8939,63.9289 54.6443,63.1665 55.8917,61.0657 C57.6107,58.1701 62.6603,60.1805 65.7437,58.8259 C67.776,57.9326 68.8299,55.5021 70.8153,54.5092 Z" style="stroke:none;fill-rule:evenodd;fill:#fbbbb8;fill-opacity:1;"/>
        </g>
    </g>
    <g id="Layer3" name="skin" opacity="1">
        <g id="Shape4">
            <desc shapeID="4" type="0" basicInfo-basicType="0" basicInfo-roundedRectRadius="12" basicInfo-polygonSides="6" basicInfo-starPoints="5" bounding="rect(-374.511,-249.633,749.021,499.267)" text="" font-familyName="Helvetica" font-pixelSize="20" font-bold="0" font-underline="0" font-alignment="1" strokeStyle="0" markerStart="0" markerEnd="0" shadowEnabled="0" shadowOffsetX="0" shadowOffsetY="2" shadowBlur="4" shadowOpacity="160" blurEnabled="0" blurRadius="4" transform="matrix(0.101728,0,0,0.101728,45.9011,38.7832)" pers-center="0,0" pers-size="0,0" pers-start="0,0" pers-end="0,0" locked="0" mesh="" flag=""/>
            <path id="shapePath4" d="M7.97971,50.2509 C7.55504,48.623 8.02333,46.8865 8.06307,45.2048 C8.12066,42.7717 7.6814,40.2677 8.27164,37.9067 C8.79503,35.8131 10.2164,34.0501 11.316,32.1933 C12.5399,30.1264 13.6165,27.9206 15.2361,26.1463 C16.1522,25.1428 17.5341,24.6893 18.7391,24.0612 C19.8318,23.4917 21.0169,23.115 22.117,22.5599 C22.537,22.348 23.2045,22.231 23.2848,21.7676 C23.4876,20.5952 22.8919,19.4122 22.8677,18.2227 C22.836,16.664 22.4505,14.9611 23.1179,13.552 C23.3711,13.0175 24.2493,13.9376 24.7444,14.261 C25.6223,14.8343 26.5508,15.4015 27.2048,16.221 C27.8488,17.0276 27.9119,18.1955 28.5393,19.0151 C28.8191,19.3806 29.3308,19.6211 29.7905,19.599 C33.7268,19.4097 37.6215,18.6904 41.5508,18.3896 C43.2558,18.259 44.9762,18.1641 46.6803,18.3061 C48.6617,18.4713 50.631,18.8272 52.5605,19.307 C55.894,20.136 59.2502,20.9611 62.4442,22.2262 C63.5815,22.6768 64.3341,23.803 65.4053,24.3949 C66.5889,25.0493 67.8316,25.6743 69.1584,25.9379 C69.9295,26.0911 70.7916,25.9587 71.4938,25.6042 C72.6403,25.0254 73.361,23.7661 74.5272,23.2275 C76.2288,22.4418 78.1054,21.3202 79.9402,21.7043 C80.7883,21.8818 79.5607,23.3959 79.4054,24.2486 C79.209,25.325 78.6053,26.4324 78.8863,27.4897 C79.3388,29.1881 80.5097,30.6158 81.4882,32.0757 C81.9581,32.7762 82.914,33.1425 83.206,33.9338 C83.7767,35.4816 84.0912,37.1769 83.9754,38.8224 C83.7767,41.6582 83.2912,44.5242 82.2767,47.1799 C81.3793,49.5293 79.8115,51.5783 78.3272,53.6087 C77.0156,55.4037 75.7555,57.361 73.9189,58.6139 C71.4167,60.3213 68.4701,61.2969 65.6075,62.2876 C64.0189,62.8374 62.3052,62.922 60.6482,63.2059 C58.6466,63.5494 56.6634,64.1404 54.6326,64.1705 C50.4785,64.2325 46.3214,63.9017 42.1882,63.4816 C38.6279,63.1201 35.1062,62.4417 31.5806,61.8287 C28.5077,61.294 25.4557,60.6457 22.3965,60.0374 C20.6799,59.6967 18.874,59.6422 17.2534,58.9812 C14.924,58.0316 12.5185,56.9862 10.6869,55.2619 C9.30458,53.9605 8.45895,52.0879 7.97971,50.2509 Z" style="stroke:none;fill-rule:evenodd;fill:#fff9ed;fill-opacity:1;"/>
        </g>
        <g id="Shape5">
            <desc shapeID="5" type="0" basicInfo-basicType="0" basicInfo-roundedRectRadius="12" basicInfo-polygonSides="6" basicInfo-starPoints="5" bounding="rect(-28.2503,-36.7768,56.5007,73.5536)" text="" font-familyName="Helvetica" font-pixelSize="20" font-bold="0" font-underline="0" font-alignment="1" strokeStyle="0" markerStart="0" markerEnd="0" shadowEnabled="0" shadowOffsetX="0" shadowOffsetY="2" shadowBlur="4" shadowOpacity="160" blurEnabled="0" blurRadius="4" transform="matrix(0.101728,0,0,0.101728,37.7194,66.1232)" pers-center="0,0" pers-size="0,0" pers-start="0,0" pers-end="0,0" locked="0" mesh="" flag=""/>
            <path id="shapePath5" d="M36.5803,69.8644 C36.5803,69.8644 34.8456,68.3384 34.8456,68.3384 C34.8456,68.3384 36.1415,62.3612 36.1832,62.382 C36.225,62.4029 39.9036,62.988 39.9036,62.988 C39.9036,62.988 39.5691,65.1618 39.5691,65.1618 C39.5691,65.1618 38.6913,65.3709 38.6913,65.3709 C38.6913,65.3709 39.4228,66.7504 39.4228,66.7504 C39.4228,66.7504 40.5933,67.5024 40.5933,67.5024 C40.5933,67.5024 36.5803,69.8644 36.5803,69.8644 Z" style="stroke:none;fill-rule:evenodd;fill:#fcf6e5;fill-opacity:1;"/>
        </g>
        <g id="Shape6">
            <desc shapeID="6" type="0" basicInfo-basicType="0" basicInfo-roundedRectRadius="12" basicInfo-polygonSides="6" basicInfo-starPoints="5" bounding="rect(-39.4046,-59.4398,78.8091,118.881)" text="" font-familyName="Helvetica" font-pixelSize="20" font-bold="0" font-underline="0" font-alignment="1" strokeStyle="0" markerStart="0" markerEnd="0" shadowEnabled="0" shadowOffsetX="0" shadowOffsetY="2" shadowBlur="4" shadowOpacity="160" blurEnabled="0" blurRadius="4" transform="matrix(0.101728,0,0,0.101728,91.2184,68.7931)" pers-center="0,0" pers-size="0,0" pers-start="0,0" pers-end="0,0" locked="0" mesh="" flag=""/>
            <path id="shapePath6" d="M87.2099,72.4715 C87.2099,72.4715 89.9659,65.4792 89.9659,65.4792 C89.9659,65.4792 91.4687,62.7464 91.4687,62.7464 C91.4687,62.7464 95.227,65.0922 95.227,65.0922 C95.227,65.0922 94.6349,66.9595 94.6349,66.9595 C94.6349,66.9595 91.7648,68.0759 91.7648,68.0759 C91.7648,68.0759 92.2433,69.6929 92.2433,69.6929 C92.2433,69.6929 94.4072,71.1731 94.4072,71.1731 C94.4072,71.1731 93.0863,73.3596 93.0863,73.3596 C93.0863,73.3596 88.9862,74.8399 88.9862,74.8399 C88.9862,74.8399 87.893,74.1116 87.893,74.1116 C87.893,74.1116 87.2099,72.4715 87.2099,72.4715 Z" style="stroke:none;fill-rule:evenodd;fill:#fcf6e5;fill-opacity:1;"/>
        </g>
    </g>
    <g id="Layer4" name="Layer 5" opacity="1">
        <g id="Shape7">
            <desc shapeID="7" type="0" basicInfo-basicType="0" basicInfo-roundedRectRadius="12" basicInfo-polygonSides="6" basicInfo-starPoints="5" bounding="rect(-118.136,-92.2041,236.274,184.408)" text="" font-familyName="Helvetica" font-pixelSize="20" font-bold="0" font-underline="0" font-alignment="1" strokeStyle="0" markerStart="0" markerEnd="0" shadowEnabled="0" shadowOffsetX="0" shadowOffsetY="2" shadowBlur="4" shadowOpacity="160" blurEnabled="0" blurRadius="4" transform="matrix(0.101728,0,0,0.101728,45.7169,42.0499)" pers-center="0,0" pers-size="0,0" pers-start="0,0" pers-end="0,0" locked="0" mesh="" flag=""/>
            <path id="shapePath7" d="M35.8228,34.6291 C36.621,33.6037 37.8941,32.6834 39.1935,32.6704 C41.2342,32.6503 43.1393,33.7552 45.024,34.538 C45.5463,34.755 45.7917,35.4345 46.3221,35.6312 C47.5969,36.1037 49.1171,35.8405 50.3077,36.4967 C50.7936,36.7644 50.8614,37.5412 50.786,38.0909 C50.6682,38.9502 49.7074,39.6167 49.7611,40.4823 C49.8458,41.8463 50.3627,43.2309 51.1732,44.3313 C51.614,44.9298 52.5961,44.8045 53.2302,45.1923 C53.7043,45.4825 53.9578,46.068 54.4462,46.3334 C54.8862,46.5725 55.5922,46.2679 55.9143,46.6511 C56.777,47.6768 57.5261,48.9138 57.7306,50.2385 C57.799,50.6814 57.0122,50.8262 56.5748,50.9245 C56.211,51.0063 55.8367,50.6806 55.47,50.7467 C54.9091,50.8476 54.4418,51.5642 53.8946,51.4072 C52.4797,51.001 51.2999,50.0075 50.0712,49.1969 C49.0638,48.5324 48.2904,47.5086 47.2001,46.9909 C46.0529,46.4462 44.7675,46.1773 43.5015,46.0776 C42.0121,45.9604 40.5172,46.4617 39.0275,46.3474 C38.1211,46.2779 37.2085,45.9944 36.4242,45.5347 C35.4221,44.9474 34.0257,44.4042 33.7764,43.2699 C33.4113,41.6087 34.4372,39.9324 34.829,38.2774 C35.1196,37.051 35.0486,35.6238 35.8228,34.6291 Z" style="stroke:none;fill-rule:evenodd;fill:#ffffff;fill-opacity:1;"/>
        </g>
    </g>
    <g id="Layer5" name="Layer 6" opacity="1">
        <g id="Shape8">
            <desc shapeID="8" type="0" basicInfo-basicType="0" basicInfo-roundedRectRadius="12" basicInfo-polygonSides="6" basicInfo-starPoints="5" bounding="rect(-54.6364,-29.1184,109.274,58.2371)" text="" font-familyName="Helvetica" font-pixelSize="20" font-bold="0" font-underline="0" font-alignment="1" strokeStyle="0" markerStart="0" markerEnd="0" shadowEnabled="0" shadowOffsetX="0" shadowOffsetY="2" shadowBlur="4" shadowOpacity="160" blurEnabled="0" blurRadius="4" transform="matrix(0.0715196,0,0,0.0715196,30.3136,29.5215)" pers-center="0,0" pers-size="0,0" pers-start="0,0" pers-end="0,0" locked="0" mesh="" flag=""/>
            <path id="shapePath8" d="M27.1376,30.4913 C26.6576,30.0113 26.1037,28.9877 26.6017,28.5264 C27.552,27.6465 29.0822,27.2641 30.3529,27.5142 C31.8437,27.8076 33.4602,28.6684 34.1636,30.015 C34.5155,30.6886 33.1725,31.3129 32.4369,31.5036 C31.435,31.7633 30.3575,31.4597 29.3407,31.2654 C28.5762,31.1194 27.6881,31.0418 27.1376,30.4913 Z" style="stroke:none;fill-rule:evenodd;fill:#fbbbb8;fill-opacity:1;"/>
        </g>
        <g id="Shape9">
            <desc shapeID="9" type="0" basicInfo-basicType="0" basicInfo-roundedRectRadius="12" basicInfo-polygonSides="6" basicInfo-starPoints="5" bounding="rect(-35.9709,-18.6384,71.9414,37.277)" text="" font-familyName="Helvetica" font-pixelSize="20" font-bold="0" font-underline="0" font-alignment="1" strokeStyle="0" markerStart="0" markerEnd="0" shadowEnabled="0" shadowOffsetX="0" shadowOffsetY="2" shadowBlur="4" shadowOpacity="160" blurEnabled="0" blurRadius="4" transform="matrix(0.101728,0,0,0.101728,58.2033,35.4501)" pers-center="0,0" pers-size="0,0" pers-start="0,0" pers-end="0,0" locked="0" mesh="" flag=""/>
            <path id="shapePath9" d="M54.5888,34.7406 C54.9555,34.0435 55.8454,33.5302 56.6327,33.5549 C58.1883,33.6039 59.7723,34.1164 61.0891,34.9449 C61.6256,35.2823 62.1291,36.2758 61.7027,36.7438 C61.0758,37.4309 59.8846,37.401 58.9635,37.2752 C57.7022,37.1033 56.5076,36.5234 55.4062,35.8853 C55.0007,35.6502 54.3704,35.1555 54.5888,34.7406 Z" style="stroke:none;fill-rule:evenodd;fill:#fbbbb8;fill-opacity:1;"/>
        </g>
    </g>
    <g id="Layer6" name="Layer 3" opacity="1">
        <g id="Shape10">
            <desc shapeID="10" type="0" basicInfo-basicType="0" basicInfo-roundedRectRadius="12" basicInfo-polygonSides="6" basicInfo-starPoints="5" bounding="rect(0,0,0,0)" text="" font-familyName="Helvetica" font-pixelSize="20" font-bold="0" font-underline="0" font-alignment="1" strokeStyle="0" markerStart="0" markerEnd="0" shadowEnabled="0" shadowOffsetX="0" shadowOffsetY="2" shadowBlur="4" shadowOpacity="160" blurEnabled="0" blurRadius="4" transform="matrix(0.117047,0,-0.0068686,0.116709,3.19521,8.88788)" pers-center="0,0" pers-size="0,0" pers-start="0,0" pers-end="0,0" locked="0" mesh="" flag=""/>
            <path id="shapePath10" d="M3.19521,8.88788 Z" style="stroke:none;fill-rule:evenodd;fill:#000000;fill-opacity:1;"/>
        </g>
        <g id="Shape11">
            <desc shapeID="11" type="0" basicInfo-basicType="0" basicInfo-roundedRectRadius="12" basicInfo-polygonSides="6" basicInfo-starPoints="5" bounding="rect(-19.6286,-11.1477,39.2574,22.2958)" text="" font-familyName="Helvetica" font-pixelSize="20" font-bold="0" font-underline="0" font-alignment="1" strokeStyle="0" markerStart="0" markerEnd="0" shadowEnabled="0" shadowOffsetX="0" shadowOffsetY="2" shadowBlur="4" shadowOpacity="160" blurEnabled="0" blurRadius="4" transform="matrix(0.117047,0,-0.0068686,0.116709,39.0852,27.3093)" pers-center="0,0" pers-size="0,0" pers-start="0,0" pers-end="0,0" locked="0" mesh="" flag=""/>
            <path id="shapePath11" d="M36.839,26.7086 C36.7569,26.4213 37.1675,25.9747 37.468,26.0103 C38.2082,26.0983 38.7471,26.7264 39.4224,27.0156 C39.9542,27.2433 40.6589,27.1663 41.0788,27.5566 C41.3258,27.7862 41.4659,28.5559 41.118,28.5917 C40.0373,28.703 38.9685,28.2993 38.0015,27.8738 C37.4948,27.6508 36.9918,27.2421 36.839,26.7086 Z" style="stroke:none;fill-rule:evenodd;fill:#000000;fill-opacity:1;"/>
        </g>
        <g id="Shape12">
            <desc shapeID="12" type="0" basicInfo-basicType="0" basicInfo-roundedRectRadius="12" basicInfo-polygonSides="6" basicInfo-starPoints="5" bounding="rect(0,0,0,0)" text="" font-familyName="Helvetica" font-pixelSize="20" font-bold="0" font-underline="0" font-alignment="1" strokeStyle="0" markerStart="0" markerEnd="0" shadowEnabled="0" shadowOffsetX="0" shadowOffsetY="2" shadowBlur="4" shadowOpacity="160" blurEnabled="0" blurRadius="4" transform="matrix(0.117047,0,-0.0068686,0.116709,3.19527,8.88788)" pers-center="0,0" pers-size="0,0" pers-start="0,0" pers-end="0,0" locked="0" mesh="" flag=""/>
            <path id="shapePath12" d="M3.19527,8.88788 Z" style="stroke:none;fill-rule:evenodd;fill:#7a7476;fill-opacity:1;"/>
        </g>
        <g id="Shape13">
            <desc shapeID="13" type="0" basicInfo-basicType="0" basicInfo-roundedRectRadius="12" basicInfo-polygonSides="6" basicInfo-starPoints="5" bounding="rect(0,0,0,0)" text="" font-familyName="Helvetica" font-pixelSize="20" font-bold="0" font-underline="0" font-alignment="1" strokeStyle="0" markerStart="0" markerEnd="0" shadowEnabled="0" shadowOffsetX="0" shadowOffsetY="2" shadowBlur="4" shadowOpacity="160" blurEnabled="0" blurRadius="4" transform="matrix(0.117047,0,-0.0068686,0.116709,3.19521,8.88788)" pers-center="0,0" pers-size="0,0" pers-start="0,0" pers-end="0,0" locked="0" mesh="" flag=""/>
            <path id="shapePath13" d="M3.19521,8.88788 Z" style="stroke:none;fill-rule:evenodd;fill:#000000;fill-opacity:1;"/>
        </g>
        <g id="Shape14">
            <desc shapeID="14" type="0" basicInfo-basicType="0" basicInfo-roundedRectRadius="12" basicInfo-polygonSides="6" basicInfo-starPoints="5" bounding="rect(0,0,0,0)" text="" font-familyName="Helvetica" font-pixelSize="20" font-bold="0" font-underline="0" font-alignment="1" strokeStyle="0" markerStart="0" markerEnd="0" shadowEnabled="0" shadowOffsetX="0" shadowOffsetY="2" shadowBlur="4" shadowOpacity="160" blurEnabled="0" blurRadius="4" transform="matrix(0.117047,0,-0.0068686,0.116709,3.19521,8.88788)" pers-center="0,0" pers-size="0,0" pers-start="0,0" pers-end="0,0" locked="0" mesh="" flag=""/>
            <path id="shapePath14" d="M3.19521,8.88788 Z" style="stroke:none;fill-rule:evenodd;fill:#000000;fill-opacity:1;"/>
        </g>
        <g id="Shape15">
            <desc shapeID="15" type="0" basicInfo-basicType="0" basicInfo-roundedRectRadius="12" basicInfo-polygonSides="6" basicInfo-starPoints="5" bounding="rect(-0.083974,-0.0138957,0.167928,0.0278049)" text="" font-familyName="Helvetica" font-pixelSize="20" font-bold="0" font-underline="0" font-alignment="1" strokeStyle="0" markerStart="0" markerEnd="0" shadowEnabled="0" shadowOffsetX="0" shadowOffsetY="2" shadowBlur="4" shadowOpacity="160" blurEnabled="0" blurRadius="4" transform="matrix(0.117047,0,-0.0068686,0.116709,44.2245,30.3333)" pers-center="0,0" pers-size="0,0" pers-start="0,0" pers-end="0,0" locked="0" mesh="" flag=""/>
            <path id="shapePath15" d="M44.2148,30.3317 C44.2586,30.339 44.2148,30.3317 44.2148,30.3317 Z" style="stroke:none;fill-rule:evenodd;fill:#000000;fill-opacity:1;"/>
        </g>
        <g id="Shape16">
            <desc shapeID="16" type="0" basicInfo-basicType="0" basicInfo-roundedRectRadius="12" basicInfo-polygonSides="6" basicInfo-starPoints="5" bounding="rect(-13.2703,-18.3877,26.5407,36.7757)" text="" font-familyName="Helvetica" font-pixelSize="20" font-bold="0" font-underline="0" font-alignment="1" strokeStyle="0" markerStart="0" markerEnd="0" shadowEnabled="0" shadowOffsetX="0" shadowOffsetY="2" shadowBlur="4" shadowOpacity="160" blurEnabled="0" blurRadius="4" transform="matrix(0.117047,0,-0.0068686,0.116709,45.5518,31.7363)" pers-center="0,0" pers-size="0,0" pers-start="0,0" pers-end="0,0" locked="0" mesh="" flag=""/>
            <path id="shapePath16" d="M44.1984,30.2363 C44.4088,30.5002 44.9474,30.4202 45.0899,30.7281 C45.3054,31.1942 45.0931,31.7787 45.1517,32.2966 C45.2062,32.7813 45.2128,33.298 45.4279,33.7274 C45.5031,33.8776 45.7692,33.9242 45.9258,33.8424 C46.1142,33.744 46.2532,33.5026 46.2535,33.296 C46.2545,32.8661 45.9683,32.4923 45.9294,32.0665 C45.9013,31.7599 45.8198,31.3547 46.0561,31.1391 C46.2616,30.9515 46.613,31.3453 46.859,31.2182 C47.0637,31.1124 47.2441,30.77 47.1269,30.5855 C46.9067,30.2386 46.4397,30.1258 46.0605,29.96 C45.7712,29.8333 45.453,29.7686 45.1376,29.7156 C44.8412,29.6657 44.5047,29.5018 44.2327,29.6526 C44.0578,29.7496 44.0804,30.0882 44.1984,30.2363 Z" style="stroke:none;fill-rule:evenodd;fill:#000000;fill-opacity:1;"/>
        </g>
        <g id="Shape17">
            <desc shapeID="17" type="0" basicInfo-basicType="0" basicInfo-roundedRectRadius="12" basicInfo-polygonSides="6" basicInfo-starPoints="5" bounding="rect(0,0,0,0)" text="" font-familyName="Helvetica" font-pixelSize="20" font-bold="0" font-underline="0" font-alignment="1" strokeStyle="0" markerStart="0" markerEnd="0" shadowEnabled="0" shadowOffsetX="0" shadowOffsetY="2" shadowBlur="4" shadowOpacity="160" blurEnabled="0" blurRadius="4" transform="matrix(0.117047,0,-0.0068686,0.116709,3.19521,8.88788)" pers-center="0,0" pers-size="0,0" pers-start="0,0" pers-end="0,0" locked="0" mesh="" flag=""/>
            <path id="shapePath17" d="M3.19521,8.88788 Z" style="stroke:none;fill-rule:evenodd;fill:#000000;fill-opacity:1;"/>
        </g>
        <g id="Shape18">
            <desc shapeID="18" type="0" basicInfo-basicType="0" basicInfo-roundedRectRadius="12" basicInfo-polygonSides="6" basicInfo-starPoints="5" bounding="rect(-18.169,-9.45452,36.338,18.9091)" text="" font-familyName="Helvetica" font-pixelSize="20" font-bold="0" font-underline="0" font-alignment="1" strokeStyle="0" markerStart="0" markerEnd="0" shadowEnabled="0" shadowOffsetX="0" shadowOffsetY="2" shadowBlur="4" shadowOpacity="160" blurEnabled="0" blurRadius="4" transform="matrix(0.117047,0,-0.0068686,0.116709,50.8518,31.372)" pers-center="0,0" pers-size="0,0" pers-start="0,0" pers-end="0,0" locked="0" mesh="" flag=""/>
            <path id="shapePath18" d="M48.9352,30.3227 C48.3964,30.5174 49.3574,31.398 49.805,31.7118 C50.4334,32.1527 51.2171,32.4274 52.0028,32.4742 C52.3574,32.4953 52.8105,32.2375 52.9371,31.8982 C53.0295,31.6504 52.6629,31.4343 52.4263,31.3392 C52.0534,31.1891 51.5987,31.3164 51.2111,31.2036 C50.4268,30.9752 49.7304,30.0352 48.9352,30.3227 Z" style="stroke:none;fill-rule:evenodd;fill:#000000;fill-opacity:1;"/>
        </g>
        <g id="Shape19">
            <desc shapeID="19" type="0" basicInfo-basicType="0" basicInfo-roundedRectRadius="12" basicInfo-polygonSides="6" basicInfo-starPoints="5" bounding="rect(0,0,0,0)" text="" font-familyName="Helvetica" font-pixelSize="20" font-bold="0" font-underline="0" font-alignment="1" strokeStyle="0" markerStart="0" markerEnd="0" shadowEnabled="0" shadowOffsetX="0" shadowOffsetY="2" shadowBlur="4" shadowOpacity="160" blurEnabled="0" blurRadius="4" transform="matrix(0.117047,0,-0.0068686,0.116709,3.19521,8.88788)" pers-center="0,0" pers-size="0,0" pers-start="0,0" pers-end="0,0" locked="0" mesh="" flag=""/>
            <path id="shapePath19" d="M3.19521,8.88788 Z" style="stroke:none;fill-rule:evenodd;fill:#000000;fill-opacity:1;"/>
        </g>
        <g id="Shape20">
            <desc shapeID="20" type="0" basicInfo-basicType="0" basicInfo-roundedRectRadius="12" basicInfo-polygonSides="6" basicInfo-starPoints="5" bounding="rect(-21.9974,-6.39031,43.9945,12.7806)" text="" font-familyName="Helvetica" font-pixelSize="20" font-bold="0" font-underline="0" font-alignment="1" strokeStyle="0" markerStart="0" markerEnd="0" shadowEnabled="0" shadowOffsetX="0" shadowOffsetY="2" shadowBlur="4" shadowOpacity="160" blurEnabled="0" blurRadius="4" transform="matrix(0.117047,0,-0.0068686,0.116709,71.1738,41.5504)" pers-center="0,0" pers-size="0,0" pers-start="0,0" pers-end="0,0" locked="0" mesh="" flag=""/>
            <path id="shapePath20" d="M68.648,41.0173 C68.5205,41.3162 68.9347,41.5946 69.1879,41.7746 C69.4336,41.9493 69.7621,41.9971 70.0691,42.0271 C70.6989,42.0883 71.3443,42.0018 71.9763,42.0465 C72.4462,42.0796 72.9074,42.4028 73.3662,42.26 C73.6194,42.1813 73.8691,41.669 73.6629,41.5221 C73.1078,41.1274 72.3303,41.1542 71.6461,41.0367 C70.9712,40.9206 70.2858,40.8275 69.5946,40.8229 C69.2766,40.8209 68.7754,40.7193 68.648,41.0173 Z" style="stroke:none;fill-rule:evenodd;fill:#000000;fill-opacity:1;"/>
        </g>
        <g id="Shape21">
            <desc shapeID="21" type="0" basicInfo-basicType="0" basicInfo-roundedRectRadius="12" basicInfo-polygonSides="6" basicInfo-starPoints="5" bounding="rect(-14.5589,-7.87548,29.1179,15.7512)" text="" font-familyName="Helvetica" font-pixelSize="20" font-bold="0" font-underline="0" font-alignment="1" strokeStyle="0" markerStart="0" markerEnd="0" shadowEnabled="0" shadowOffsetX="0" shadowOffsetY="2" shadowBlur="4" shadowOpacity="160" blurEnabled="0" blurRadius="4" transform="matrix(0.117047,0,-0.0068686,0.116709,71.5186,44.3626)" pers-center="0,0" pers-size="0,0" pers-start="0,0" pers-end="0,0" locked="0" mesh="" flag=""/>
            <path id="shapePath21" d="M69.8449,43.8523 C69.8478,43.5018 70.4915,43.4331 70.8426,43.4446 C71.5303,43.467 72.2799,43.5515 72.8187,43.9495 C73.1507,44.1948 73.2544,44.7361 73.1571,45.1534 C73.109,45.3576 72.7029,45.2825 72.5325,45.1729 C72.3639,45.0642 72.4508,44.7942 72.2579,44.7325 C71.7962,44.5849 71.295,44.7716 70.831,44.6291 C70.426,44.5049 69.8409,44.2817 69.8449,43.8523 Z" style="stroke:none;fill-rule:evenodd;fill:#000000;fill-opacity:1;"/>
        </g>
        <g id="Shape22">
            <desc shapeID="22" type="0" basicInfo-basicType="0" basicInfo-roundedRectRadius="12" basicInfo-polygonSides="6" basicInfo-starPoints="5" bounding="rect(0,0,0,0)" text="" font-familyName="Helvetica" font-pixelSize="20" font-bold="0" font-underline="0" font-alignment="1" strokeStyle="0" markerStart="0" markerEnd="0" shadowEnabled="0" shadowOffsetX="0" shadowOffsetY="2" shadowBlur="4" shadowOpacity="160" blurEnabled="0" blurRadius="4" transform="matrix(0.117047,0,-0.0068686,0.116709,3.19521,8.88788)" pers-center="0,0" pers-size="0,0" pers-start="0,0" pers-end="0,0" locked="0" mesh="" flag=""/>
            <path id="shapePath22" d="M3.19521,8.88788 Z" style="stroke:none;fill-rule:evenodd;fill:#000000;fill-opacity:1;"/>
        </g>
        <g id="Shape23">
            <desc shapeID="23" type="0" basicInfo-basicType="0" basicInfo-roundedRectRadius="12" basicInfo-polygonSides="6" basicInfo-starPoints="5" bounding="rect(-17.123,-6.99917,34.2459,13.9986)" text="" font-familyName="Helvetica" font-pixelSize="20" font-bold="0" font-underline="0" font-alignment="1" strokeStyle="0" markerStart="0" markerEnd="0" shadowEnabled="0" shadowOffsetX="0" shadowOffsetY="2" shadowBlur="4" shadowOpacity="160" blurEnabled="0" blurRadius="4" transform="matrix(0.117047,0,-0.0068686,0.116709,71.3861,48.1126)" pers-center="0,0" pers-size="0,0" pers-start="0,0" pers-end="0,0" locked="0" mesh="" flag=""/>
            <path id="shapePath23" d="M69.4185,47.7063 C69.3177,47.3603 70.0981,47.3167 70.4665,47.298 C70.9671,47.2724 71.4416,47.4665 71.9219,47.5788 C72.3518,47.6794 72.8691,47.6479 73.1936,47.936 C73.4004,48.1196 73.4282,48.5321 73.2718,48.7784 C73.1461,48.9768 72.8095,48.9382 72.587,48.8933 C72.4167,48.8589 72.3697,48.5857 72.1971,48.5615 C71.7603,48.5001 71.2788,48.7795 70.8605,48.6509 C70.3055,48.48 69.5807,48.2624 69.4185,47.7063 Z" style="stroke:none;fill-rule:evenodd;fill:#000000;fill-opacity:1;"/>
        </g>
        <g id="Shape24">
            <desc shapeID="24" type="0" basicInfo-basicType="0" basicInfo-roundedRectRadius="12" basicInfo-polygonSides="6" basicInfo-starPoints="5" bounding="rect(-21.0624,-5.9908,42.1249,11.9815)" text="" font-familyName="Helvetica" font-pixelSize="20" font-bold="0" font-underline="0" font-alignment="1" strokeStyle="0" markerStart="0" markerEnd="0" shadowEnabled="0" shadowOffsetX="0" shadowOffsetY="2" shadowBlur="4" shadowOpacity="160" blurEnabled="0" blurRadius="4" transform="matrix(0.117047,0,-0.0068686,0.116709,15.6859,31.6582)" pers-center="0,0" pers-size="0,0" pers-start="0,0" pers-end="0,0" locked="0" mesh="" flag=""/>
            <path id="shapePath24" d="M14.6573,32.1333 C14.3309,32.1929 14.0144,32.4225 13.7017,32.3395 C13.4395,32.2699 13.1059,31.9256 13.2451,31.681 C13.4824,31.2639 14.1418,31.1122 14.61,31.0432 C15.3204,30.9386 15.8932,31.1005 16.5999,31.1871 C16.9617,31.2314 17.3774,30.8352 17.696,30.9989 C17.9955,31.1526 18.2977,31.6721 18.0653,31.9396 C17.7145,32.3437 17.0528,32.3395 16.5321,32.3395 C16.2747,32.3395 16.0339,32.0954 15.7814,32.0572 C15.3788,31.9965 15.0656,32.059 14.6573,32.1333 Z" style="stroke:none;fill-rule:evenodd;fill:#000000;fill-opacity:1;"/>
        </g>
        <g id="Shape25">
            <desc shapeID="25" type="0" basicInfo-basicType="0" basicInfo-roundedRectRadius="12" basicInfo-polygonSides="6" basicInfo-starPoints="5" bounding="rect(-16.7498,-5.93895,33.4996,11.878)" text="" font-familyName="Helvetica" font-pixelSize="20" font-bold="0" font-underline="0" font-alignment="1" strokeStyle="0" markerStart="0" markerEnd="0" shadowEnabled="0" shadowOffsetX="0" shadowOffsetY="2" shadowBlur="4" shadowOpacity="160" blurEnabled="0" blurRadius="4" transform="matrix(0.117047,0,-0.0068686,0.116709,14.4081,34.4736)" pers-center="0,0" pers-size="0,0" pers-start="0,0" pers-end="0,0" locked="0" mesh="" flag=""/>
            <path id="shapePath25" d="M12.4837,34.5974 C12.9473,34.2251 13.5545,34.0627 14.1264,33.9388 C14.3797,33.8839 14.6166,34.1009 14.873,34.0799 C15.2094,34.0524 15.5413,33.6996 15.8567,33.7977 C16.1331,33.8837 16.5312,34.321 16.3091,34.5267 C15.8084,34.9907 15.0442,35.038 14.3847,35.1618 C14.1819,35.1999 14.0079,35.0077 13.8047,34.9972 C13.4426,34.9782 13.0542,35.1782 12.7118,35.0746 C12.5415,35.023 12.3386,34.7139 12.4837,34.5974 Z" style="stroke:none;fill-rule:evenodd;fill:#000000;fill-opacity:1;"/>
        </g>
        <g id="Shape26">
            <desc shapeID="26" type="0" basicInfo-basicType="0" basicInfo-roundedRectRadius="12" basicInfo-polygonSides="6" basicInfo-starPoints="5" bounding="rect(-23.2998,-6.30188,46.5996,12.604)" text="" font-familyName="Helvetica" font-pixelSize="20" font-bold="0" font-underline="0" font-alignment="1" strokeStyle="0" markerStart="0" markerEnd="0" shadowEnabled="0" shadowOffsetX="0" shadowOffsetY="2" shadowBlur="4" shadowOpacity="160" blurEnabled="0" blurRadius="4" transform="matrix(0.117047,0,-0.0068686,0.116709,12.5067,37.8619)" pers-center="0,0" pers-size="0,0" pers-start="0,0" pers-end="0,0" locked="0" mesh="" flag=""/>
            <path id="shapePath26" d="M9.83051,37.9044 C10.4124,37.207 11.5359,37.2909 12.417,37.1481 C12.8743,37.0738 13.3296,37.2103 13.7825,37.2636 C14.2579,37.3196 14.794,37.24 15.2003,37.4756 C15.3464,37.5605 15.1435,37.8938 14.9787,37.9574 C14.5094,38.1382 13.9903,38.0481 13.4994,38.1308 C12.7333,38.2602 11.9761,38.6407 11.2109,38.5934 C10.6871,38.5611 9.48383,38.3199 9.83051,37.9044 Z" style="stroke:none;fill-rule:evenodd;fill:#000000;fill-opacity:1;"/>
        </g>
        <g id="Shape27">
            <desc shapeID="27" type="0" basicInfo-basicType="0" basicInfo-roundedRectRadius="12" basicInfo-polygonSides="6" basicInfo-starPoints="5" bounding="rect(-86.1208,-80.492,172.24,160.986)" text="" font-familyName="Helvetica" font-pixelSize="20" font-bold="0" font-underline="0" font-alignment="1" strokeStyle="0" markerStart="0" markerEnd="0" shadowEnabled="0" shadowOffsetX="0" shadowOffsetY="2" shadowBlur="4" shadowOpacity="160" blurEnabled="0" blurRadius="4" transform="matrix(0.117047,0,-0.0068686,0.116709,48.5278,41.7516)" pers-center="0,0" pers-size="0,0" pers-start="0,0" pers-end="0,0" locked="0" mesh="" flag=""/>
            <path id="shapePath27" d="M38.9937,32.5232 C39.0583,33.0858 39.5753,33.5507 40.0856,33.7811 C40.9633,34.1775 42.0192,34.0732 42.9595,34.3148 C43.656,34.4937 44.3602,34.6924 44.9811,35.039 C45.4153,35.2812 45.6316,35.8113 46.0685,36.049 C46.726,36.4068 47.4705,36.605 48.2037,36.7923 C48.7442,36.9305 49.3676,36.7939 49.8722,37.021 C50.1451,37.1438 50.2902,37.473 50.3638,37.7642 C50.4372,38.0556 50.3962,38.387 50.2906,38.6791 C50.0783,39.2671 49.5875,39.7548 49.4276,40.3563 C49.3238,40.746 49.4149,41.164 49.5301,41.5379 C49.7238,42.1676 50.0953,42.7209 50.342,43.3293 C50.5647,43.8786 50.6365,44.3369 51.042,44.7637 C51.3046,45.04 51.7391,45.1028 52.0902,45.26 C52.6272,45.5004 53.0043,45.8563 53.4575,46.2244 C53.6767,46.4027 53.9927,46.6973 54.2567,46.8051 C54.6311,46.958 55.0007,46.6756 55.3303,46.9049 C55.8187,47.2451 56.0441,47.8569 56.3471,48.3693 C56.5487,48.7105 56.5574,49.1773 56.8378,49.4564 C57.1182,49.7357 57.0678,49.6572 57.1773,50.0424 C57.2787,50.3993 56.1362,50.1344 55.9108,50.804 C55.8106,51.173 56.2347,51.1782 56.441,51.1162 C56.8054,51.0069 57.6437,50.9162 57.8546,50.5965 C58.0411,50.3141 58.1999,50.088 58.0805,49.7883 C57.9594,49.4845 58.1402,49.2052 57.8552,49.0465 C57.584,48.8957 57.4571,48.7761 57.266,48.5342 C56.9166,48.0922 56.9073,47.4446 56.6107,46.9644 C56.4137,46.6461 56.1409,46.3591 55.8106,46.1797 C55.3396,45.9235 54.7476,45.925 54.2652,45.6891 C53.92,45.5203 53.7,45.165 53.3624,44.9828 C52.9169,44.7424 52.3853,44.6714 51.9384,44.4333 C51.6652,44.2878 51.3769,44.1138 51.2254,43.8447 C50.8595,43.1952 50.7067,42.4384 50.4241,41.7453 C50.3094,41.4643 50.0592,41.2313 50.034,40.9242 C50.0098,40.6268 50.1643,40.3271 50.2849,40.0452 C50.4438,39.6743 50.7153,39.3519 50.8672,38.9785 C51.0156,38.6132 51.1916,38.2295 51.1795,37.8444 C51.1695,37.5291 50.8958,37.2919 50.8044,36.9946 C50.7199,36.7186 50.9041,36.279 50.6553,36.1361 C50.0121,35.7669 49.1968,35.7751 48.4546,35.6455 C48.1995,35.601 47.9149,35.6992 47.6724,35.615 C47.1047,35.4174 46.5806,35.1188 46.0675,34.8152 C45.6459,34.5656 45.3234,34.1649 44.8763,33.9603 C44.3254,33.7077 43.8867,33.7245 43.3407,33.4625 C43.1399,33.3661 42.8095,33.1614 42.6008,33.0819 C42.3115,32.9716 42.0882,32.9765 41.7749,32.9521 C41.3759,32.921 40.9787,32.8616 40.5957,32.7606 C40.3608,32.6987 40.1765,32.503 39.9347,32.4671 C39.6278,32.4217 38.9584,32.2157 38.9937,32.5232 Z" style="stroke:none;fill-rule:evenodd;fill:#000000;fill-opacity:1;"/>
        </g>
        <g id="Shape28">
            <desc shapeID="28" type="0" basicInfo-basicType="0" basicInfo-roundedRectRadius="12" basicInfo-polygonSides="6" basicInfo-starPoints="5" bounding="rect(0,0,0,0)" text="" font-familyName="Helvetica" font-pixelSize="20" font-bold="0" font-underline="0" font-alignment="1" strokeStyle="0" markerStart="0" markerEnd="0" shadowEnabled="0" shadowOffsetX="0" shadowOffsetY="2" shadowBlur="4" shadowOpacity="160" blurEnabled="0" blurRadius="4" transform="matrix(0.117047,0,-0.0068686,0.116709,3.19527,8.88788)" pers-center="0,0" pers-size="0,0" pers-start="0,0" pers-end="0,0" locked="0" mesh="" flag=""/>
            <path id="shapePath28" d="M3.19527,8.88788 Z" style="stroke:none;fill-rule:evenodd;fill:#000000;fill-opacity:1;"/>
        </g>
        <g id="Shape29">
            <desc shapeID="29" type="0" basicInfo-basicType="0" basicInfo-roundedRectRadius="12" basicInfo-polygonSides="6" basicInfo-starPoints="5" bounding="rect(-98.5164,-75.609,197.03,151.216)" text="" font-familyName="Helvetica" font-pixelSize="20" font-bold="0" font-underline="0" font-alignment="1" strokeStyle="0" markerStart="0" markerEnd="0" shadowEnabled="0" shadowOffsetX="0" shadowOffsetY="2" shadowBlur="4" shadowOpacity="160" blurEnabled="0" blurRadius="4" transform="matrix(0.117047,0,-0.0068686,0.116709,44.9615,42.9967)" pers-center="0,0" pers-size="0,0" pers-start="0,0" pers-end="0,0" locked="0" mesh="" flag=""/>
            <path id="shapePath29" d="M35.2745,35.0194 C35.0195,35.5159 34.9009,36.0664 34.7694,36.6023 C34.5744,37.3988 34.487,38.2125 34.2967,39.0097 C34.1265,39.7225 33.8226,40.4097 33.6892,41.1282 C33.5534,41.8596 33.3568,42.6237 33.4932,43.3393 C33.571,43.7475 33.9827,44.0019 34.2884,44.2739 C34.8498,44.7736 35.448,45.2366 36.0827,45.6434 C36.7402,46.0651 37.4065,46.5004 38.1539,46.7521 C38.4724,46.8592 38.8436,46.6541 39.1822,46.6868 C39.8976,46.7561 40.5751,47.0434 41.297,47.0564 C42.2019,47.0726 43.1226,46.672 44.0169,46.7737 C45.1099,46.8982 46.1332,47.3274 47.1442,47.722 C47.7629,47.9636 48.3619,48.2723 48.8833,48.6737 C49.4811,49.1338 49.8603,49.8378 50.4702,50.2824 C51.2096,50.8216 52.0152,51.3023 52.8924,51.5965 C53.508,51.8031 54.2052,51.8919 54.86,51.7551 C55.2875,51.6658 55.682,51.3294 55.9294,50.9621 C56.069,50.7543 56.1206,50.2729 55.8807,50.2371 C55.3384,50.1559 54.8159,50.7129 54.2624,50.7129 C53.7232,50.7129 53.2227,50.4597 52.7451,50.2371 C52.0661,49.9204 51.4089,49.5498 50.8122,49.1042 C50.3994,48.7961 50.15,48.3073 49.7414,47.9939 C49.1287,47.5243 48.4526,47.1354 47.7682,46.7704 C47.2597,46.4992 46.7275,46.2616 46.1721,46.0907 C45.495,45.8824 44.8007,45.6935 44.0856,45.6376 C43.7185,45.6088 43.3531,45.8071 42.9829,45.8416 C42.1325,45.9206 41.2752,46.0247 40.4299,45.9774 C39.7765,45.941 39.1546,45.7309 38.5211,45.5924 C37.9804,45.4741 37.4013,45.4437 36.9077,45.2071 C36.3577,44.9434 35.9319,44.4864 35.4492,44.1195 C35.0474,43.8142 34.4194,43.6713 34.2541,43.1905 C34.0466,42.5872 34.3522,41.8885 34.4596,41.242 C34.5849,40.488 34.7728,39.7416 34.9507,38.995 C35.0481,38.5869 35.1975,38.1888 35.2851,37.7789 C35.3617,37.42 35.3723,37.0534 35.4428,36.6937 C35.6029,35.8772 36.0584,35.0661 35.9767,34.2522 C35.9432,33.9202 35.4318,34.7131 35.2745,35.0194 Z" style="stroke:none;fill-rule:evenodd;fill:#000000;fill-opacity:1;"/>
        </g>
        <g id="Shape30">
            <desc shapeID="30" type="0" basicInfo-basicType="0" basicInfo-roundedRectRadius="12" basicInfo-polygonSides="6" basicInfo-starPoints="5" bounding="rect(-327.936,-175.712,655.873,351.42)" text="" font-familyName="Helvetica" font-pixelSize="20" font-bold="0" font-underline="0" font-alignment="1" strokeStyle="0" markerStart="0" markerEnd="0" shadowEnabled="0" shadowOffsetX="0" shadowOffsetY="2" shadowBlur="4" shadowOpacity="160" blurEnabled="0" blurRadius="4" transform="matrix(0.117047,0,-0.0068686,0.116709,45.4766,44.2515)" pers-center="0,0" pers-size="0,0" pers-start="0,0" pers-end="0,0" locked="0" mesh="" flag=""/>
            <path id="shapePath30" d="M18.878,23.9295 C18.8197,23.5338 18.0282,23.8661 17.6618,24.061 C16.7266,24.5588 15.8716,25.2242 15.0898,25.9453 C14.5207,26.4701 14.1047,27.139 13.6487,27.7623 C13.1214,28.4827 12.6204,29.2219 12.1419,29.9737 C11.0939,31.6203 9.9593,33.2253 9.07,34.9558 C8.3932,36.2729 7.80989,37.654 7.46415,39.0767 C7.2346,40.0213 7.39393,40.9971 7.36873,41.957 C7.327,43.5457 7.18264,45.1424 7.26352,46.7225 C7.3343,48.1082 7.46912,49.5016 7.82242,50.8279 C8.09964,51.8681 8.53126,52.8793 9.13704,53.7548 C10.0106,55.0177 10.9103,56.3574 12.2142,57.176 C14.3129,58.4934 16.735,59.2917 19.1282,60.0275 C20.6918,60.5078 22.4076,60.4464 24.0112,60.8015 C26.3049,61.3091 28.5059,61.9093 30.8227,62.3276 C32.6119,62.6503 34.4865,62.7661 36.2816,63.0216 C38.185,63.2928 40.0098,63.6989 41.9367,63.8912 C45.2014,64.2174 48.5348,64.5633 51.8232,64.7081 C53.0321,64.7614 54.2555,64.8118 55.4665,64.6369 C59.1251,64.1102 62.7669,63.3866 66.3954,62.6097 C67.9748,62.2714 69.6392,62.0761 71.0749,61.2934 C72.9856,60.2512 74.642,58.7512 76.2277,57.2484 C77.3267,56.2064 78.2091,54.9519 79.0729,53.7131 C80.008,52.3732 80.9118,50.9973 81.611,49.5311 C82.3845,47.9084 82.9795,46.2069 83.4696,44.4922 C83.7906,43.3709 83.9122,42.2103 84.0316,41.0618 C84.1283,40.1315 84.1428,39.197 84.1162,38.2693 C84.0901,37.3721 83.9893,36.4818 83.8734,35.5968 C83.7958,35.0042 83.728,34.4016 83.5368,33.8415 C83.4273,33.5229 83.2338,33.2276 82.9858,33.0039 C82.5009,32.5664 81.9957,31.5983 81.3712,31.8869 C80.8341,32.1352 81.841,32.9151 82.122,33.4028 C82.3862,33.8611 82.9117,34.191 83.005,34.7192 C83.2715,36.2274 83.2396,37.7972 83.1724,39.3465 C83.1272,40.389 82.8723,41.4251 82.6695,42.4579 C82.3966,43.8462 82.2078,45.2584 81.7449,46.6065 C81.348,47.7639 80.7072,48.8385 80.1099,49.9175 C79.6314,50.7828 79.0625,51.5995 78.5219,52.4305 C78.0503,53.1553 77.6007,53.8962 77.0747,54.5846 C76.573,55.2421 76.0626,55.9077 75.4444,56.4595 C74.281,57.4975 73.0447,58.4592 71.7545,59.3317 C71.0494,59.8085 70.2846,60.2141 69.4863,60.4881 C68.0779,60.9725 66.6139,61.2332 65.1747,61.5912 C63.5502,61.9956 61.9251,62.3959 60.2966,62.7748 C59.0556,63.0639 58.1165,63.2464 56.8575,63.3611 C56.3593,63.4063 55.6339,63.2343 55.1363,63.2435 C54.2745,63.2603 53.5285,63.4909 52.6666,63.5118 C51.901,63.5303 51.0691,63.4202 50.3103,63.3611 C48.8538,63.247 47.3844,63.2424 45.9246,63.1543 C44.5117,63.0697 43.0942,63.0083 41.6932,62.8432 C39.4748,62.5813 37.2717,62.2349 35.0729,61.8745 C32.8963,61.5182 30.739,61.079 28.5691,60.6932 C27.9217,60.5785 27.2639,60.5072 26.6212,60.3734 C25.3282,60.1057 24.0543,59.7691 22.7643,59.4899 C21.3341,59.1799 19.854,59.0339 18.4615,58.6058 C17.0557,58.1736 15.7191,57.5583 14.4053,56.9196 C13.6076,56.5319 12.8331,56.0835 12.1431,55.5347 C11.3731,54.9224 10.5731,54.2922 10.0517,53.4574 C9.41385,52.4361 9.04063,51.2501 8.73195,50.073 C8.39882,48.8021 8.18092,47.4841 8.13707,46.1551 C8.09037,44.7401 8.34714,43.3137 8.4622,41.8932 C8.53555,40.9881 8.63062,40.0836 8.70205,39.1784 C8.73565,38.7526 8.66972,38.3186 8.77726,37.9008 C8.90419,37.4078 9.15168,36.9445 9.39408,36.4902 C10.0874,35.1909 10.8253,33.913 11.581,32.6461 C12.2971,31.4457 13.0484,30.2647 13.8084,29.0896 C14.3519,28.2492 14.8083,27.337 15.4911,26.6005 C16.1479,25.892 17.0141,25.4116 17.7726,24.8135 C18.143,24.5214 18.9441,24.3778 18.878,23.9295 Z" style="stroke:none;fill-rule:evenodd;fill:#000000;fill-opacity:1;"/>
        </g>
        <g id="Shape31">
            <desc shapeID="31" type="0" basicInfo-basicType="0" basicInfo-roundedRectRadius="12" basicInfo-polygonSides="6" basicInfo-starPoints="5" bounding="rect(0,0,0,0)" text="" font-familyName="Helvetica" font-pixelSize="20" font-bold="0" font-underline="0" font-alignment="1" strokeStyle="0" markerStart="0" markerEnd="0" shadowEnabled="0" shadowOffsetX="0" shadowOffsetY="2" shadowBlur="4" shadowOpacity="160" blurEnabled="0" blurRadius="4" transform="matrix(0.117047,0,-0.0068686,0.116709,3.19521,8.88788)" pers-center="0,0" pers-size="0,0" pers-start="0,0" pers-end="0,0" locked="0" mesh="" flag=""/>
            <path id="shapePath31" d="M3.19521,8.88788 Z" style="stroke:none;fill-rule:evenodd;fill:#000000;fill-opacity:1;"/>
        </g>
        <g id="Shape32">
            <desc shapeID="32" type="0" basicInfo-basicType="0" basicInfo-roundedRectRadius="12" basicInfo-polygonSides="6" basicInfo-starPoints="5" bounding="rect(-122.197,-70.2732,244.393,140.543)" text="" font-familyName="Helvetica" font-pixelSize="20" font-bold="0" font-underline="0" font-alignment="1" strokeStyle="0" markerStart="0" markerEnd="0" shadowEnabled="0" shadowOffsetX="0" shadowOffsetY="2" shadowBlur="4" shadowOpacity="160" blurEnabled="0" blurRadius="4" transform="matrix(0.117047,0,0,0.133232,19.8211,61.0453)" pers-center="0,0" pers-size="0,0" pers-start="0,0" pers-end="0,0" locked="0" mesh="" flag=""/>
            <path id="shapePath32" d="M5.89361,52.2397 C5.60301,52.7769 5.48662,53.4561 5.52567,54.0855 C5.57149,54.8243 5.95369,55.4851 6.13891,56.1951 C6.46353,57.44 6.72238,58.7066 7.05464,59.9487 C7.18662,60.4423 7.27839,60.9696 7.53035,61.3983 C7.86806,61.9724 8.37569,62.3907 8.78853,62.8976 C9.40711,63.6572 9.89122,64.583 10.6244,65.1965 C11.2952,65.7573 12.133,66.0007 12.909,66.3437 C13.6102,66.6536 14.3171,66.9641 15.0508,67.153 C16.0857,67.4189 17.1617,67.4386 18.1966,67.704 C18.9848,67.9062 19.7167,68.3418 20.5033,68.5516 C21.2412,68.748 22.0084,68.7625 22.7539,68.9171 C23.6408,69.1014 24.5174,69.3453 25.3974,69.5678 C26.4465,69.8331 27.4732,70.2444 28.5411,70.3812 C29.2874,70.4768 30.041,70.2827 30.7916,70.2589 C31.7558,70.2288 32.7512,70.493 33.6852,70.2184 C33.9843,70.1309 34.1698,69.6292 34.1139,69.2833 C34.0616,68.9606 33.7225,68.7005 33.4352,68.6732 C32.5058,68.5863 31.5799,69.0168 30.6488,68.9577 C28.767,68.8395 26.9067,68.4421 25.0402,68.1449 C23.8805,67.9601 22.7218,67.7613 21.5714,67.5128 C21.0531,67.4004 20.5514,67.2057 20.0389,67.0626 C19.4676,66.9033 18.8962,66.7428 18.3205,66.6049 C16.8955,66.2631 15.4366,66.0835 14.0375,65.6235 C13.0685,65.3055 12.0922,64.915 11.251,64.2817 C10.5486,63.7528 10.0822,62.9011 9.50062,62.2076 C9.08453,61.7117 8.55813,61.3085 8.25819,60.7135 C7.81418,59.8323 7.57676,58.8335 7.31072,57.8636 C7.1062,57.1181 7.0587,56.3238 6.84996,55.5797 C6.68055,54.9757 6.19639,54.4705 6.18103,53.8369 C6.16383,53.1256 6.88396,52.5032 6.75853,51.8061 C6.69533,51.4547 6.05879,51.9343 5.89361,52.2397 Z" style="stroke:none;fill-rule:evenodd;fill:#000000;fill-opacity:1;"/>
        </g>
        <g id="Shape33">
            <desc shapeID="33" type="0" basicInfo-basicType="0" basicInfo-roundedRectRadius="12" basicInfo-polygonSides="6" basicInfo-starPoints="5" bounding="rect(-8.32673,-24.3185,16.6537,48.6371)" text="" font-familyName="Helvetica" font-pixelSize="20" font-bold="0" font-underline="0" font-alignment="1" strokeStyle="0" markerStart="0" markerEnd="0" shadowEnabled="0" shadowOffsetX="0" shadowOffsetY="2" shadowBlur="4" shadowOpacity="160" blurEnabled="0" blurRadius="4" transform="matrix(0.117047,0,0,0.133232,35.4529,65.7867)" pers-center="0,0" pers-size="0,0" pers-start="0,0" pers-end="0,0" locked="0" mesh="" flag=""/>
            <path id="shapePath33" d="M34.4946,68.3471 C34.4184,67.719 34.6269,67.0858 34.7518,66.4688 C34.8989,65.7411 35.1618,65.0488 35.3089,64.3217 C35.4126,63.8096 35.2176,63.1746 35.5018,62.7603 C35.6821,62.4979 36.2651,62.4539 36.3805,62.7603 C36.5621,63.2429 36.1653,63.7817 36.0805,64.2974 C35.958,65.0424 35.9203,65.8066 35.7591,66.5418 C35.5776,67.3691 35.5224,68.3048 35.0553,68.9716 C34.8924,69.2045 34.5303,68.642 34.4946,68.3471 Z" style="stroke:none;fill-rule:evenodd;fill:#000000;fill-opacity:1;"/>
        </g>
        <g id="Shape34">
            <desc shapeID="34" type="0" basicInfo-basicType="0" basicInfo-roundedRectRadius="12" basicInfo-polygonSides="6" basicInfo-starPoints="5" bounding="rect(-20.5581,-28.4795,41.1161,56.9587)" text="" font-familyName="Helvetica" font-pixelSize="20" font-bold="0" font-underline="0" font-alignment="1" strokeStyle="0" markerStart="0" markerEnd="0" shadowEnabled="0" shadowOffsetX="0" shadowOffsetY="2" shadowBlur="4" shadowOpacity="160" blurEnabled="0" blurRadius="4" transform="matrix(0.117047,0,0,0.133232,38.5157,66.5707)" pers-center="0,0" pers-size="0,0" pers-start="0,0" pers-end="0,0" locked="0" mesh="" flag=""/>
            <path id="shapePath34" d="M36.381,69.1489 C37.2237,68.6964 38.2199,68.7265 39.0791,68.3158 C39.4249,68.1507 39.8394,67.8766 39.9155,67.4589 C39.9632,67.1976 39.4748,67.2428 39.3091,67.0539 C39.1027,66.8193 38.9878,66.4989 38.8281,66.2208 C38.6323,65.8802 38.1654,65.5945 38.2424,65.1971 C38.3171,64.8118 38.9921,64.9578 39.1417,64.6021 C39.3496,64.1079 38.9125,63.4121 39.1836,62.9596 C39.3529,62.6769 39.929,62.7372 40.0829,63.0309 C40.2785,63.404 39.9322,63.8843 39.8947,64.3165 C39.8624,64.6879 40.0111,65.0963 39.8738,65.4352 C39.7741,65.6814 39.1993,65.6044 39.2672,65.8639 C39.3705,66.2585 39.8925,66.2857 40.1665,66.554 C40.447,66.8291 40.9616,67.0644 40.9195,67.4827 C40.8608,68.0649 40.353,68.4948 39.9365,68.8395 C39.4842,69.2138 38.9099,69.3459 38.3888,69.5776 C37.7663,69.854 37.1694,70.267 36.5066,70.3632 C36.3215,70.3899 36.1367,70.1193 36.1149,69.9084 C36.0869,69.6379 36.1647,69.2653 36.381,69.1489 Z" style="stroke:none;fill-rule:evenodd;fill:#000000;fill-opacity:1;"/>
        </g>
        <g id="Shape35">
            <desc shapeID="35" type="0" basicInfo-basicType="0" basicInfo-roundedRectRadius="12" basicInfo-polygonSides="6" basicInfo-starPoints="5" bounding="rect(-78.4069,-30.5055,156.815,61.0109)" text="" font-familyName="Helvetica" font-pixelSize="20" font-bold="0" font-underline="0" font-alignment="1" strokeStyle="0" markerStart="0" markerEnd="0" shadowEnabled="0" shadowOffsetX="0" shadowOffsetY="2" shadowBlur="4" shadowOpacity="160" blurEnabled="0" blurRadius="4" transform="matrix(0.117047,0,0,0.133232,81.1126,69.2546)" pers-center="0,0" pers-size="0,0" pers-start="0,0" pers-end="0,0" locked="0" mesh="" flag=""/>
            <path id="shapePath35" d="M71.9926,68.1889 C73.0429,69.3233 74.5,69.8661 75.8505,70.46 C76.256,70.6384 76.6506,70.7699 77.0695,70.9026 C77.5399,71.0521 77.9646,71.1158 78.4315,71.278 C79.2322,71.5561 80.0804,71.6065 80.906,71.7624 C81.8984,71.9501 82.8868,72.1772 83.8861,72.3075 C84.2036,72.3492 84.9319,72.5891 85.2401,72.6847 C85.9967,72.9182 86.2615,73.4755 87.0257,73.2768 C87.6885,73.1047 87.9074,72.0839 88.2232,71.3991 C88.9677,69.7821 89.6693,68.1275 90.1918,66.4016 C90.3025,66.0372 90.3778,65.4468 90.0858,65.251 C89.795,65.0557 89.3106,65.3645 89.1542,65.7052 C88.4613,67.2133 88.2852,68.9728 87.6641,70.5208 C87.4416,71.0758 87.1056,71.6169 86.6531,71.9443 C86.4405,72.0984 86.1456,71.9773 85.9081,71.8805 C85.3959,71.6726 84.9522,71.3956 84.418,71.278 C83.8693,71.1569 83.2946,71.1905 82.7419,71.0961 C81.4465,70.8754 80.1696,70.5092 78.9106,70.0967 C78.0984,69.8308 77.5428,69.8731 76.7299,69.6118 C76.3702,69.4959 75.774,69.1269 75.4247,68.9762 C74.653,68.6431 74.0522,67.8291 73.2434,67.6437 C72.8054,67.5429 71.6687,67.839 71.9926,68.1889 Z" style="stroke:none;fill-rule:evenodd;fill:#000000;fill-opacity:1;"/>
        </g>
        <g id="Shape36">
            <desc shapeID="36" type="0" basicInfo-basicType="0" basicInfo-roundedRectRadius="12" basicInfo-polygonSides="6" basicInfo-starPoints="5" bounding="rect(-83.1344,-72.5204,166.271,145.039)" text="" font-familyName="Helvetica" font-pixelSize="20" font-bold="0" font-underline="0" font-alignment="1" strokeStyle="0" markerStart="0" markerEnd="0" shadowEnabled="0" shadowOffsetX="0" shadowOffsetY="2" shadowBlur="4" shadowOpacity="160" blurEnabled="0" blurRadius="4" transform="matrix(0.117047,0,0,0.133232,85.9116,65.5047)" pers-center="0,0" pers-size="0,0" pers-start="0,0" pers-end="0,0" locked="0" mesh="" flag=""/>
            <path id="shapePath36" d="M77.1407,56.8643 C78.5092,57.2211 79.8226,57.8138 81.1527,58.3248 C82.4273,58.8138 83.6793,59.3775 84.9551,59.8647 C85.9272,60.2361 86.926,60.5148 87.8941,60.9 C88.3738,61.0912 88.8611,61.2859 89.2933,61.5906 C90.2753,62.2818 91.1663,63.1277 92.1159,63.8739 C92.5967,64.2516 93.0846,64.6201 93.5857,64.9625 C93.9403,65.2046 94.4727,65.2197 94.6819,65.6264 C94.8215,65.897 94.61,66.3321 94.3788,66.5024 C93.7589,66.9589 93.022,67.1901 92.3024,67.379 C91.9235,67.478 91.4931,67.1762 91.1362,67.3523 C90.8905,67.4734 90.6513,67.8604 90.7399,68.1489 C90.927,68.7596 91.438,69.1732 91.8361,69.6356 C92.1454,69.9953 92.5041,70.2966 92.8534,70.6048 C93.1228,70.8418 93.4148,70.9657 93.4907,71.3435 C93.5735,71.7519 93.5312,72.1888 93.2167,72.4072 C92.4154,72.9645 91.4189,73.0375 90.5534,73.4523 C90.2845,73.5815 90.1096,73.906 89.8373,74.0265 C89.5331,74.1615 89.1925,74.2524 88.8692,74.1985 C88.5447,74.1447 88.3089,73.7165 87.9816,73.7165 C87.7864,73.7165 87.4851,74.0033 87.5778,74.1985 C87.7962,74.6597 88.2076,75.1377 88.6676,75.1632 C89.5615,75.213 90.412,74.6985 91.27,74.4054 C91.9809,74.1621 92.7288,73.9859 93.3679,73.5555 C93.8267,73.2472 94.2276,72.782 94.4773,72.2467 C94.7212,71.7259 95.0735,71.0069 94.7902,70.5127 C94.3487,69.7433 93.343,69.679 92.6923,69.135 C92.5139,68.9861 92.1814,68.6304 92.3592,68.4803 C92.9357,67.9954 93.7838,68.1228 94.3968,67.6999 C94.8209,67.4073 95.1674,66.9288 95.3614,66.4091 C95.5816,65.8211 95.7253,65.1293 95.5897,64.5083 C95.5277,64.2238 95.1077,64.3014 94.8742,64.178 C94.5347,63.9984 94.1992,63.8096 93.8736,63.6004 C92.6298,62.8021 91.4149,61.9475 90.1681,61.1555 C89.6102,60.801 89.0482,60.4505 88.4619,60.1614 C87.6044,59.739 86.729,59.3624 85.8432,59.0241 C84.7025,58.5878 83.5298,58.2645 82.3856,57.8405 C81.5438,57.5289 80.7269,57.1344 79.8869,56.8169 C79.0404,56.4971 78.1708,56.2611 77.3284,55.9295 C76.4206,55.5723 75.3714,56.4031 77.1407,56.8643 Z" style="stroke:none;fill-rule:evenodd;fill:#000000;fill-opacity:1;"/>
        </g>
        <g id="Shape37">
            <desc shapeID="37" type="0" basicInfo-basicType="0" basicInfo-roundedRectRadius="12" basicInfo-polygonSides="6" basicInfo-starPoints="5" bounding="rect(0,0,0,0)" text="" font-familyName="Helvetica" font-pixelSize="20" font-bold="0" font-underline="0" font-alignment="1" strokeStyle="0" markerStart="0" markerEnd="0" shadowEnabled="0" shadowOffsetX="0" shadowOffsetY="2" shadowBlur="4" shadowOpacity="160" blurEnabled="0" blurRadius="4" transform="matrix(0.117047,0,-0.0068686,0.116709,3.19521,8.88788)" pers-center="0,0" pers-size="0,0" pers-start="0,0" pers-end="0,0" locked="0" mesh="" flag=""/>
            <path id="shapePath37" d="M3.19521,8.88788 Z" style="stroke:none;fill-rule:evenodd;fill:#000000;fill-opacity:1;"/>
        </g>
        <g id="Shape38">
            <desc shapeID="38" type="0" basicInfo-basicType="0" basicInfo-roundedRectRadius="12" basicInfo-polygonSides="6" basicInfo-starPoints="5" bounding="rect(-28.3469,-32.9451,56.6938,65.8902)" text="" font-familyName="Helvetica" font-pixelSize="20" font-bold="0" font-underline="0" font-alignment="1" strokeStyle="0" markerStart="0" markerEnd="0" shadowEnabled="0" shadowOffsetX="0" shadowOffsetY="2" shadowBlur="4" shadowOpacity="160" blurEnabled="0" blurRadius="4" transform="matrix(0.117047,0,-0.0068686,0.116709,25.6576,16.5733)" pers-center="0,0" pers-size="0,0" pers-start="0,0" pers-end="0,0" locked="0" mesh="" flag=""/>
            <path id="shapePath38" d="M22.7902,20.3539 C23.0592,20.6338 23.6364,19.9345 23.7189,19.5398 C23.8541,18.8922 23.4195,18.2802 23.3585,17.633 C23.3065,17.0818 23.3622,16.5194 23.3817,15.9619 C23.4001,15.4285 23.3371,14.8846 23.4723,14.3614 C23.5017,14.248 23.7164,14.2289 23.8158,14.283 C24.3176,14.5562 24.751,14.9352 25.1901,15.2966 C25.6197,15.6501 25.9987,16.0603 26.4186,16.4248 C26.6246,16.6035 26.8438,16.7507 26.9651,16.9963 C27.1075,17.2845 27.0535,17.5938 27.1485,17.9029 C27.2455,18.2185 27.4274,18.5036 27.6305,18.7597 C27.8134,18.9902 27.9881,19.3719 28.2919,19.3448 C28.5819,19.319 28.8254,18.9396 28.853,18.651 C28.882,18.3509 28.5679,18.139 28.4326,17.8788 C28.249,17.5255 28.0729,17.1681 27.8964,16.8109 C27.7142,16.4421 27.6605,15.9757 27.3568,15.7008 C26.5595,14.9793 25.5351,14.5415 24.6742,13.8948 C24.2673,13.5892 24.0119,13.0951 23.5628,12.8514 C23.3346,12.7276 22.9396,12.6486 22.7637,12.8581 C22.4892,13.1849 22.5709,13.6759 22.5234,14.0895 C22.4377,14.8357 22.3901,15.5843 22.3646,16.3315 C22.3439,16.9396 22.3216,17.5516 22.3851,18.1519 C22.4639,18.8971 22.2812,19.8245 22.7902,20.3539 Z" style="stroke:none;fill-rule:evenodd;fill:#000000;fill-opacity:1;"/>
        </g>
        <g id="Shape39">
            <desc shapeID="39" type="0" basicInfo-basicType="0" basicInfo-roundedRectRadius="12" basicInfo-polygonSides="6" basicInfo-starPoints="5" bounding="rect(-40.6614,-28.9924,81.3231,57.985)" text="" font-familyName="Helvetica" font-pixelSize="20" font-bold="0" font-underline="0" font-alignment="1" strokeStyle="0" markerStart="0" markerEnd="0" shadowEnabled="0" shadowOffsetX="0" shadowOffsetY="2" shadowBlur="4" shadowOpacity="160" blurEnabled="0" blurRadius="4" transform="matrix(0.117047,0,-0.0068686,0.116709,75.6307,24.3676)" pers-center="0,0" pers-size="0,0" pers-start="0,0" pers-end="0,0" locked="0" mesh="" flag=""/>
            <path id="shapePath39" d="M71.4683,24.8053 C71.1548,25.1172 70.634,25.5918 70.8327,25.9602 C71.0077,26.2858 71.6201,25.9088 71.9613,25.7205 C72.6826,25.322 73.2353,24.6522 73.9491,24.2389 C74.6263,23.8469 75.365,23.573 76.1008,23.3238 C77.0411,23.0053 77.9941,22.7015 78.9657,22.5394 C79.125,22.5129 79.3927,22.6205 79.3666,22.7791 C79.2502,23.4918 78.7786,24.1256 78.5908,24.8272 C78.384,25.5999 78.1894,26.3925 78.1899,27.1803 C78.1905,27.4181 78.3608,27.7042 78.5937,27.7468 C78.8064,27.7858 79.0636,27.5624 79.1412,27.3546 C79.3765,26.7273 79.3405,26.0442 79.4749,25.3937 C79.5439,25.0625 79.6545,24.739 79.7513,24.4132 C79.9998,23.5769 80.3498,22.7601 80.5108,21.9075 C80.5647,21.6209 80.614,21.2237 80.3857,21.0579 C80.1447,20.8822 79.764,21.064 79.4628,21.1451 C78.4628,21.4141 77.4912,21.7968 76.5005,22.1036 C75.7329,22.3415 74.9224,22.4421 74.1883,22.7791 C73.7903,22.9616 73.5296,23.3659 73.1768,23.6288 C72.6218,24.0422 71.9595,24.3174 71.4683,24.8053 Z" style="stroke:none;fill-rule:evenodd;fill:#000000;fill-opacity:1;"/>
        </g>
        <g id="Shape40">
            <desc shapeID="40" type="0" basicInfo-basicType="0" basicInfo-roundedRectRadius="12" basicInfo-polygonSides="6" basicInfo-starPoints="5" bounding="rect(0,0,0,0)" text="" font-familyName="Helvetica" font-pixelSize="20" font-bold="0" font-underline="0" font-alignment="1" strokeStyle="0" markerStart="0" markerEnd="0" shadowEnabled="0" shadowOffsetX="0" shadowOffsetY="2" shadowBlur="4" shadowOpacity="160" blurEnabled="0" blurRadius="4" transform="matrix(0.117047,0,0,0.133232,35.3033,75.1666)" pers-center="0,0" pers-size="0,0" pers-start="0,0" pers-end="0,0" locked="0" mesh="" flag=""/>
            <path id="shapePath40" d="M35.3033,75.1666 Z" style="stroke:none;fill-rule:evenodd;fill:#000000;fill-opacity:1;"/>
        </g>
        <g id="Shape41">
            <desc shapeID="41" type="0" basicInfo-basicType="0" basicInfo-roundedRectRadius="12" basicInfo-polygonSides="6" basicInfo-starPoints="5" bounding="rect(0,0,0,0)" text="" font-familyName="Helvetica" font-pixelSize="20" font-bold="0" font-underline="0" font-alignment="1" strokeStyle="0" markerStart="0" markerEnd="0" shadowEnabled="0" shadowOffsetX="0" shadowOffsetY="2" shadowBlur="4" shadowOpacity="160" blurEnabled="0" blurRadius="4" transform="matrix(0.117047,0,0,0.133232,54.5896,73.289)" pers-center="0,0" pers-size="0,0" pers-start="0,0" pers-end="0,0" locked="0" mesh="" flag=""/>
            <path id="shapePath41" d="M54.5896,73.289 Z" style="stroke:none;fill-rule:evenodd;fill:#000000;fill-opacity:1;"/>
        </g>
        <g id="Shape42">
            <desc shapeID="42" type="0" basicInfo-basicType="0" basicInfo-roundedRectRadius="12" basicInfo-polygonSides="6" basicInfo-starPoints="5" bounding="rect(0,0,0,0)" text="" font-familyName="Helvetica" font-pixelSize="20" font-bold="0" font-underline="0" font-alignment="1" strokeStyle="0" markerStart="0" markerEnd="0" shadowEnabled="0" shadowOffsetX="0" shadowOffsetY="2" shadowBlur="4" shadowOpacity="160" blurEnabled="0" blurRadius="4" transform="matrix(0.117047,0,0,0.133232,56.8222,75.3665)" pers-center="0,0" pers-size="0,0" pers-start="0,0" pers-end="0,0" locked="0" mesh="" flag=""/>
            <path id="shapePath42" d="M56.8222,75.3665 Z" style="stroke:none;fill-rule:evenodd;fill:#000000;fill-opacity:1;"/>
        </g>
        <g id="Shape43">
            <desc shapeID="43" type="0" basicInfo-basicType="0" basicInfo-roundedRectRadius="12" basicInfo-polygonSides="6" basicInfo-starPoints="5" bounding="rect(-173.233,-38.4756,346.467,76.9513)" text="" font-familyName="Helvetica" font-pixelSize="20" font-bold="0" font-underline="0" font-alignment="1" strokeStyle="0" markerStart="0" markerEnd="0" shadowEnabled="0" shadowOffsetX="0" shadowOffsetY="2" shadowBlur="4" shadowOpacity="160" blurEnabled="0" blurRadius="4" transform="matrix(0.117047,0,-0.0068686,0.116709,49.5527,22.0632)" pers-center="0,0" pers-size="0,0" pers-start="0,0" pers-end="0,0" locked="0" mesh="" flag=""/>
            <path id="shapePath43" d="M29.4569,19.7092 C29.8051,20.1255 30.5159,20.0574 31.0746,20.0724 C31.6573,20.0882 32.2367,19.8634 32.8208,19.8 C35.0277,19.5606 37.24,19.4372 39.4449,19.1644 C40.0976,19.0837 40.7287,18.7498 41.3821,18.7407 C42.2012,18.7293 42.9697,19.119 43.789,19.1039 C44.6332,19.0883 45.4642,18.6133 46.3046,18.6499 C47.588,18.7057 48.795,19.18 50.0561,19.3762 C50.8725,19.5033 51.7292,19.433 52.5309,19.6183 C54.314,20.0305 56.0511,20.5942 57.7822,21.1619 C59.4675,21.7146 61.1847,22.2157 62.7751,22.9779 C63.4807,23.3163 63.9193,24.0503 64.6018,24.4307 C65.5982,24.9862 66.7436,25.2605 67.7708,25.7623 C68.1949,25.9692 68.4672,26.4701 68.9388,26.5493 C69.192,26.5917 69.4938,26.3149 69.5744,26.0649 C69.6607,25.7964 69.5518,25.4546 69.3473,25.278 C68.9585,24.9417 68.4157,24.8225 67.9278,24.6424 C67.2651,24.398 66.502,24.3683 65.9013,24.0069 C64.8167,23.355 64.0583,22.4404 62.9523,21.8229 C62.3915,21.5099 61.6465,21.4605 61.0231,21.2831 C59.6929,20.9045 58.4027,20.4166 57.0927,19.9816 C55.8819,19.5792 54.709,19.0646 53.461,18.771 C52.3832,18.5174 51.2429,18.5312 50.1471,18.3473 C48.8969,18.1374 47.6969,17.6961 46.4277,17.5906 C45.3725,17.5029 44.2944,17.7661 43.2299,17.7722 C42.5499,17.7761 41.8861,17.5726 41.2052,17.6209 C40.3087,17.6844 39.4305,17.9927 38.5359,18.1052 C38.1416,18.1548 37.747,18.0639 37.3521,18.1052 C36.39,18.2055 35.4348,18.4041 34.474,18.5288 C33.5687,18.6463 32.6596,18.7079 31.7546,18.8316 C31.2556,18.8997 30.7404,18.9221 30.2644,19.1039 C29.9526,19.223 29.2533,19.4657 29.4569,19.7092 Z" style="stroke:none;fill-rule:evenodd;fill:#060606;fill-opacity:1;"/>
        </g>
        <g id="Shape44">
            <desc shapeID="44" type="0" basicInfo-basicType="0" basicInfo-roundedRectRadius="12" basicInfo-polygonSides="6" basicInfo-starPoints="5" bounding="rect(0,0,0,0)" text="" font-familyName="Helvetica" font-pixelSize="20" font-bold="0" font-underline="0" font-alignment="1" strokeStyle="0" markerStart="0" markerEnd="0" shadowEnabled="0" shadowOffsetX="0" shadowOffsetY="2" shadowBlur="4" shadowOpacity="160" blurEnabled="0" blurRadius="4" transform="matrix(0.117047,0,-0.0068686,0.116709,44.1637,18.9305)" pers-center="0,0" pers-size="0,0" pers-start="0,0" pers-end="0,0" locked="0" mesh="" flag=""/>
            <path id="shapePath44" d="M44.1637,18.9305 Z" style="stroke:none;fill-rule:evenodd;fill:#000000;fill-opacity:1;"/>
        </g>
        <g id="Shape45">
            <desc shapeID="45" type="0" basicInfo-basicType="0" basicInfo-roundedRectRadius="12" basicInfo-polygonSides="6" basicInfo-starPoints="5" bounding="rect(-6.44852,-19.6944,12.8974,39.3889)" text="" font-familyName="Helvetica" font-pixelSize="20" font-bold="0" font-underline="0" font-alignment="1" strokeStyle="0" markerStart="0" markerEnd="0" shadowEnabled="0" shadowOffsetX="0" shadowOffsetY="2" shadowBlur="4" shadowOpacity="160" blurEnabled="0" blurRadius="4" transform="matrix(0.117047,0,-0.0068686,0.116709,43.6086,21.1465)" pers-center="0,0" pers-size="0,0" pers-start="0,0" pers-end="0,0" locked="0" mesh="" flag=""/>
            <path id="shapePath45" d="M44.0415,18.8547 C43.6186,18.956 43.576,19.6078 43.4279,20.0174 C43.2852,20.4127 43.282,20.8382 43.1784,21.2432 C43.0621,21.6984 42.7798,22.1319 42.7693,22.5955 C42.7628,22.8781 42.9284,23.1552 43.131,23.3412 C43.2491,23.4495 43.4946,23.4903 43.6232,23.379 C43.7389,23.2789 43.6119,23.0835 43.5984,22.9367 C43.5836,22.7757 43.4903,22.6147 43.5379,22.4565 C43.6951,21.9356 44.0246,21.4696 44.1968,20.9526 C44.324,20.5711 44.4598,20.1695 44.4308,19.7772 C44.4058,19.4392 44.3786,18.7741 44.0415,18.8547 Z" style="stroke:none;fill-rule:evenodd;fill:#000000;fill-opacity:1;"/>
        </g>
        <g id="Shape46">
            <desc shapeID="46" type="0" basicInfo-basicType="0" basicInfo-roundedRectRadius="12" basicInfo-polygonSides="6" basicInfo-starPoints="5" bounding="rect(-5.85512,-18.937,11.7103,37.8739)" text="" font-familyName="Helvetica" font-pixelSize="20" font-bold="0" font-underline="0" font-alignment="1" strokeStyle="0" markerStart="0" markerEnd="0" shadowEnabled="0" shadowOffsetX="0" shadowOffsetY="2" shadowBlur="4" shadowOpacity="160" blurEnabled="0" blurRadius="4" transform="matrix(0.117047,0,-0.0068686,0.116709,46.8265,21.5818)" pers-center="0,0" pers-size="0,0" pers-start="0,0" pers-end="0,0" locked="0" mesh="" flag=""/>
            <path id="shapePath46" d="M47.0089,19.474 C46.6968,19.9686 46.6069,20.5627 46.4431,21.1169 C46.3006,21.6002 46.067,22.0891 46.0908,22.5829 C46.1109,23.0007 46.2865,23.4249 46.5688,23.7203 C46.6939,23.8511 46.9752,23.7838 47.1294,23.6697 C47.2494,23.5809 47.2439,23.3808 47.2182,23.24 C47.1801,23.0312 46.9797,22.8816 46.9474,22.6713 C46.9012,22.3705 46.905,22.0491 46.989,21.7487 C47.1067,21.3278 47.4495,20.9741 47.5413,20.5481 C47.6181,20.1921 47.6359,19.7895 47.4796,19.474 C47.4117,19.337 47.0945,19.3382 47.0089,19.474 Z" style="stroke:none;fill-rule:evenodd;fill:#000000;fill-opacity:1;"/>
        </g>
        <g id="Shape47">
            <desc shapeID="47" type="0" basicInfo-basicType="0" basicInfo-roundedRectRadius="12" basicInfo-polygonSides="6" basicInfo-starPoints="5" bounding="rect(-5.00101,-16.3116,10.0019,32.6232)" text="" font-familyName="Helvetica" font-pixelSize="20" font-bold="0" font-underline="0" font-alignment="1" strokeStyle="0" markerStart="0" markerEnd="0" shadowEnabled="0" shadowOffsetX="0" shadowOffsetY="2" shadowBlur="4" shadowOpacity="160" blurEnabled="0" blurRadius="4" transform="matrix(0.117047,0,-0.0068686,0.116709,50.5169,22.1719)" pers-center="0,0" pers-size="0,0" pers-start="0,0" pers-end="0,0" locked="0" mesh="" flag=""/>
            <path id="shapePath47" d="M50.2589,20.4052 C50.109,20.78 50.3405,21.192 50.3027,21.5875 C50.2545,22.0917 50.0931,22.5855 50.0029,23.0864 C49.9471,23.3966 49.7637,23.7309 49.865,24.0203 C49.9116,24.1535 50.2003,24.0193 50.2874,23.8998 C50.6118,23.4549 50.8502,22.9468 51.0235,22.4311 C51.1268,22.1237 51.1374,21.789 51.1024,21.4745 C51.0595,21.0885 51.0291,20.6599 50.7932,20.3607 C50.6863,20.2253 50.326,20.2372 50.2589,20.4052 Z" style="stroke:none;fill-rule:evenodd;fill:#000000;fill-opacity:1;"/>
        </g>
    </g>
    <g id="Layer7" name="old_text" opacity="1">
        <g id="Shape48">
            <desc shapeID="48" type="0" basicInfo-basicType="0" basicInfo-roundedRectRadius="12" basicInfo-polygonSides="6" basicInfo-starPoints="5" bounding="rect(-3.69508,-15.4596,7.39026,30.9193)" text="" font-familyName="" font-pixelSize="20" font-bold="0" font-underline="0" font-alignment="1" strokeStyle="0" markerStart="0" markerEnd="0" shadowEnabled="0" shadowOffsetX="0" shadowOffsetY="2" shadowBlur="4" shadowOpacity="160" blurEnabled="0" blurRadius="4" transform="matrix(0.200202,0.0124539,-0.0124539,0.200202,68.6177,80.5188)" pers-center="0,0" pers-size="0,0" pers-start="0,0" pers-end="0,0" locked="0" mesh="" flag=""/>
            <path id="shapePath48" d="M68.2215,77.6231 C67.889,78.1248 67.8224,81.1357 68.1393,83.145 C68.2059,83.6919 68.6225,83.7782 69.0315,83.3413 C69.2464,83.1131 69.2592,82.9132 69.1103,82.4016 C69.0124,82.0338 68.9255,80.8426 68.9139,79.7366 C68.9226,78.6312 68.882,77.6643 68.8281,77.5605 C68.7018,77.3317 68.418,77.374 68.2215,77.6231 Z" style="stroke:none;fill-rule:evenodd;fill:#000000;fill-opacity:1;"/>
        </g>
        <g id="Shape49">
            <desc shapeID="49" type="0" basicInfo-basicType="0" basicInfo-roundedRectRadius="12" basicInfo-polygonSides="6" basicInfo-starPoints="5" bounding="rect(-9.68792,-19.8322,19.376,39.6641)" text="" font-familyName="" font-pixelSize="20" font-bold="0" font-underline="0" font-alignment="1" strokeStyle="0" markerStart="0" markerEnd="0" shadowEnabled="0" shadowOffsetX="0" shadowOffsetY="2" shadowBlur="4" shadowOpacity="160" blurEnabled="0" blurRadius="4" transform="matrix(0.200202,0.0124539,-0.0124539,0.200202,62.0907,81.2222)" pers-center="0,0" pers-size="0,0" pers-start="0,0" pers-end="0,0" locked="0" mesh="" flag=""/>
            <path id="shapePath49" d="M60.8203,77.3839 C60.7491,77.5605 60.7352,77.7807 60.789,77.8844 C60.8418,78.0084 60.7531,78.1434 60.5689,78.1921 C60.3024,78.2761 60.2566,78.6955 60.1981,81.2441 C60.1303,84.2747 60.2948,85.1889 60.8412,85.1229 C61.1865,85.0638 61.2687,84.3854 61.1847,82.5111 C61.1308,81.4428 61.2369,81.349 62.3081,81.2545 C62.935,81.1931 63.085,81.0419 63.6702,80.0332 C64.1452,79.1781 64.2704,78.7841 64.1441,78.5553 C63.855,78.035 62.9234,77.4945 61.9112,77.2912 C61.1581,77.1237 60.9356,77.1498 60.8203,77.3839 M62.7287,78.6886 C63.4459,79.115 62.8805,80.1248 61.8058,80.2789 C61.1552,80.3994 61.1563,80.3791 61.205,79.5981 C61.2322,79.1578 61.2033,78.6538 61.1546,78.4696 C61.0706,78.2031 61.1731,78.1695 61.7079,78.3033 C62.0833,78.407 62.5346,78.5756 62.7287,78.6886 Z" style="stroke:none;fill-rule:evenodd;fill:#000000;fill-opacity:1;"/>
        </g>
        <g id="Shape50">
            <desc shapeID="50" type="0" basicInfo-basicType="0" basicInfo-roundedRectRadius="12" basicInfo-polygonSides="6" basicInfo-starPoints="5" bounding="rect(-12.4268,-16.7904,24.8537,33.5804)" text="" font-familyName="" font-pixelSize="20" font-bold="0" font-underline="0" font-alignment="1" strokeStyle="0" markerStart="0" markerEnd="0" shadowEnabled="0" shadowOffsetX="0" shadowOffsetY="2" shadowBlur="4" shadowOpacity="160" blurEnabled="0" blurRadius="4" transform="matrix(0.200202,0.0124539,-0.0124539,0.200202,74.8082,81.9932)" pers-center="0,0" pers-size="0,0" pers-start="0,0" pers-end="0,0" locked="0" mesh="" flag=""/>
            <path id="shapePath50" d="M74.7184,78.8311 C74.1675,78.9579 73.8923,79.1816 73.5736,79.7853 C72.8709,81.068 72.2828,82.4381 72.2556,82.8784 C72.2081,83.6391 73.3546,84.5951 74.8899,85.1124 C76.4658,85.6327 76.971,85.5835 76.9119,84.9166 C76.8945,84.5539 76.6819,84.4201 75.7931,84.1635 C74.0754,83.6751 73.4722,83.3558 73.4219,82.8703 C73.3732,82.3651 73.8407,80.9874 74.2382,80.4092 C74.6999,79.7748 75.6483,79.3913 76.3401,79.575 C77.0921,79.7627 77.5886,79.5321 77.4559,79.0819 C77.3383,78.7129 75.9194,78.5843 74.7184,78.8311 Z" style="stroke:none;fill-rule:evenodd;fill:#000000;fill-opacity:1;"/>
        </g>
        <g id="Shape51">
            <desc shapeID="51" type="0" basicInfo-basicType="0" basicInfo-roundedRectRadius="12" basicInfo-polygonSides="6" basicInfo-starPoints="5" bounding="rect(-16.7671,-19.0565,33.5343,38.1131)" text="" font-familyName="" font-pixelSize="20" font-bold="0" font-underline="0" font-alignment="1" strokeStyle="0" markerStart="0" markerEnd="0" shadowEnabled="0" shadowOffsetX="0" shadowOffsetY="2" shadowBlur="4" shadowOpacity="160" blurEnabled="0" blurRadius="4" transform="matrix(0.200202,0.0124539,-0.0124539,0.200202,51.789,81.1079)" pers-center="0,0" pers-size="0,0" pers-start="0,0" pers-end="0,0" locked="0" mesh="" flag=""/>
            <path id="shapePath51" d="M54.3103,77.8387 C54.2366,78.0553 54.0651,78.2251 53.945,78.2181 C53.8049,78.2089 53.5722,78.3954 53.4171,78.6272 C53.2608,78.8786 52.9181,79.2193 52.6253,79.4018 C52.0386,79.7876 51.7458,79.6486 50.359,78.3566 C49.5993,77.6463 49.4041,77.5536 49.0326,77.7112 C48.8049,77.8178 48.6134,77.9864 48.6084,78.0669 C48.5935,78.3068 50.4647,80.2123 50.7249,80.2285 C50.825,80.2343 50.8388,80.3357 50.7713,80.4521 C50.685,80.5471 50.7489,80.8125 50.8979,81.0025 C51.1945,81.4029 51.5178,82.9909 51.4655,83.8315 C51.4119,84.6924 52.1753,85.343 52.4768,84.6982 C52.5931,84.4445 52.3343,81.1723 52.1841,81.0025 C52.1465,80.9596 52.8746,80.2412 53.809,79.4354 C54.7246,78.608 55.4352,77.8485 55.3628,77.7234 C55.1658,77.3288 54.4366,77.4244 54.3103,77.8387 Z" style="stroke:none;fill-rule:evenodd;fill:#000000;fill-opacity:1;"/>
        </g>
        <g id="Shape52">
            <desc shapeID="52" type="0" basicInfo-basicType="0" basicInfo-roundedRectRadius="12" basicInfo-polygonSides="6" basicInfo-starPoints="5" bounding="rect(-18.3876,-27.002,36.775,54.0041)" text="" font-familyName="" font-pixelSize="20" font-bold="0" font-underline="0" font-alignment="1" strokeStyle="0" markerStart="0" markerEnd="0" shadowEnabled="0" shadowOffsetX="0" shadowOffsetY="2" shadowBlur="4" shadowOpacity="160" blurEnabled="0" blurRadius="4" transform="matrix(0.200202,0.0124539,-0.0124539,0.200202,35.4276,82.0682)" pers-center="0,0" pers-size="0,0" pers-start="0,0" pers-end="0,0" locked="0" mesh="" flag=""/>
            <path id="shapePath52" d="M34.3353,76.8369 C34.2365,77.1324 32.5975,81.5123 32.2386,82.4346 C31.8323,83.4746 31.7448,83.9108 31.5537,85.3662 C31.3628,86.8215 31.5068,87.4136 31.9997,87.2433 C32.225,87.1767 32.3774,86.6639 32.5372,85.3876 C32.762,83.7133 33.147,82.3703 33.4285,82.368 C33.5098,82.353 34.2531,82.3587 35.1177,82.3524 L36.6454,82.3466 L37.21,83.2863 C37.5205,83.788 37.7646,84.3859 37.7509,84.6061 C37.736,84.8465 37.9037,85.058 38.1603,85.1344 C39.3415,85.529 39.1986,84.5956 37.7151,81.9515 C37.0078,80.7215 36.323,79.4527 36.1803,79.1625 C36.0188,78.8513 35.8423,78.4585 35.7521,78.2917 C35.642,78.1243 35.4692,77.6712 35.3514,77.3021 C35.131,76.6457 34.5066,76.345 34.3353,76.8369 M35.1006,79.3971 C35.2408,79.7273 35.4912,80.225 35.6727,80.5378 C35.9619,81.0581 35.9606,81.0784 35.614,81.1572 C34.8409,81.3101 33.7434,81.1815 33.7572,80.9613 C33.7809,80.5807 34.5737,78.8218 34.7337,78.8316 C34.7938,78.8351 34.9791,79.0877 35.1006,79.3971 Z" style="stroke:none;fill-rule:evenodd;fill:#000000;fill-opacity:1;"/>
        </g>
        <g id="Shape53">
            <desc shapeID="53" type="0" basicInfo-basicType="0" basicInfo-roundedRectRadius="12" basicInfo-polygonSides="6" basicInfo-starPoints="5" bounding="rect(-15.2548,-17.2984,30.5096,34.5969)" text="" font-familyName="" font-pixelSize="20" font-bold="0" font-underline="0" font-alignment="1" strokeStyle="0" markerStart="0" markerEnd="0" shadowEnabled="0" shadowOffsetX="0" shadowOffsetY="2" shadowBlur="4" shadowOpacity="160" blurEnabled="0" blurRadius="4" transform="matrix(0.200202,0.0124539,-0.0124539,0.200202,43.9416,81.1907)" pers-center="0,0" pers-size="0,0" pers-start="0,0" pers-end="0,0" locked="0" mesh="" flag=""/>
            <path id="shapePath53" d="M41.3175,77.6735 C41.0485,77.7975 41.0211,77.9163 41.1613,78.2465 C41.3216,78.5779 41.5581,78.6532 42.5591,78.7152 L43.7803,78.7911 L43.6002,79.4232 C43.4978,79.7783 43.1627,80.6422 42.8401,81.3055 C42.5163,81.9886 42.1987,82.8935 42.1137,83.2898 C41.97,83.9845 42.005,84.0667 42.5707,84.3437 C43.3316,84.7121 46.0943,84.8842 46.5159,84.5684 C46.6835,84.4584 46.821,84.1855 46.8336,83.9856 C46.8548,83.645 46.7358,83.6177 45.4083,83.6357 C44.6038,83.6461 43.7441,83.5725 43.5302,83.4584 L43.0997,83.2707 L43.581,81.9944 C43.8461,81.2876 44.3186,80.1514 44.6426,79.4678 C44.9927,78.6857 45.1464,78.1527 45.0338,78.0252 C44.8085,77.7703 41.7317,77.4783 41.3175,77.6735 Z" style="stroke:none;fill-rule:evenodd;fill:#000000;fill-opacity:1;"/>
        </g>
        <g id="Shape54">
            <desc shapeID="54" type="0" basicInfo-basicType="0" basicInfo-roundedRectRadius="12" basicInfo-polygonSides="6" basicInfo-starPoints="5" bounding="rect(-18.9857,-21.0595,37.9716,42.119)" text="" font-familyName="" font-pixelSize="20" font-bold="0" font-underline="0" font-alignment="1" strokeStyle="0" markerStart="0" markerEnd="0" shadowEnabled="0" shadowOffsetX="0" shadowOffsetY="2" shadowBlur="4" shadowOpacity="160" blurEnabled="0" blurRadius="4" transform="matrix(0.200202,0.0124539,-0.0124539,0.200202,24.644,82.0431)" pers-center="0,0" pers-size="0,0" pers-start="0,0" pers-end="0,0" locked="0" mesh="" flag=""/>
            <path id="shapePath54" d="M21.1926,77.7882 C20.9951,78.057 20.8348,81.926 20.9827,83.1009 C21.1019,84.0934 21.2509,84.6049 21.7279,85.6594 C21.9921,86.259 22.3525,86.281 24.4319,85.8077 C25.1651,85.6524 25.9571,85.5203 26.1573,85.5331 C27.4186,85.6113 28.587,84.9207 28.244,84.2961 C28.1902,84.1924 27.2005,84.2718 26.0632,84.4618 C24.9058,84.6513 23.6484,84.8344 23.2443,84.8697 L22.4961,84.9438 L22.1278,83.755 C21.8435,82.8327 21.7732,82.0245 21.8178,80.3391 C21.8737,79.1167 21.9022,78.013 21.9108,77.8728 C21.9083,77.5912 21.3903,77.5188 21.1926,77.7882 Z" style="stroke:none;fill-rule:evenodd;fill:#000000;fill-opacity:1;"/>
        </g>
    </g>
</svg>
