<?xml version="1.0"?>
<svg version="1.1" xmlns="http://www.w3.org/2000/svg" xmlns:xlink="http://www.w3.org/1999/xlink" width="80" height="40">
    <desc iVinci="yes" version="4.6" gridStep="20" showGrid="no" snapToGrid="no" codePlatform="0"/>
    <g id="Layer1" name="Layer 1" opacity="1">
        <g id="Shape1">
            <desc shapeID="1" type="0" basicInfo-basicType="2" basicInfo-roundedRectRadius="8" basicInfo-polygonSides="6" basicInfo-starPoints="5" bounding="rect(-39.6531,-19.0976,79.3063,38.1953)" text="" font-familyName="Helvetica" font-pixelSize="20" font-bold="0" font-underline="0" font-alignment="1" strokeStyle="0" markerStart="0" markerEnd="0" shadowEnabled="0" shadowOffsetX="0" shadowOffsetY="2" shadowBlur="4" shadowOpacity="160" blurEnabled="0" blurRadius="4" transform="matrix(1,0,0,1,40.0237,20)" pers-center="0,0" pers-size="0,0" pers-start="0,0" pers-end="0,0" locked="0" mesh="" flag=""/>
            <path id="shapePath1" d="M0.370613,8.90235 C0.370613,4.48408 3.95234,0.902353 8.37061,0.902353 L71.6769,0.902353 C76.0952,0.902353 79.6769,4.48408 79.6769,8.90235 L79.6769,31.0976 C79.6769,35.5159 76.0952,39.0976 71.6769,39.0976 L8.37061,39.0976 C3.95234,39.0976 0.370613,35.5159 0.370613,31.0976 L0.370613,8.90235 Z" style="stroke:none;fill-rule:evenodd;fill:url(#linearGradientFill1);fill-opacity:1;"/><defs><linearGradient id="linearGradientFill1" gradientUnits="userSpaceOnUse" x1="37.9708" y1="39.0976" x2="39.0767" y2="0.902353"><stop offset="0" stop-color="#65d4ac" stop-opacity="1"/><stop offset="1" stop-color="#59bc99" stop-opacity="1"/></linearGradient></defs>
        </g>
        <g id="Shape2">
            <desc shapeID="2" type="0" basicInfo-basicType="0" basicInfo-roundedRectRadius="12" basicInfo-polygonSides="6" basicInfo-starPoints="5" bounding="rect(-18.5693,-7.40234,37.1387,14.8047)" text="WIP" font-familyName="Arial Rounded MT Bold" font-pixelSize="20" font-bold="0" font-underline="0" font-alignment="1" strokeStyle="0" markerStart="0" markerEnd="0" shadowEnabled="0" shadowOffsetX="0" shadowOffsetY="2" shadowBlur="4" shadowOpacity="160" blurEnabled="0" blurRadius="4" transform="matrix(1.18573,0,0,1.18573,40,20)" pers-center="0,0" pers-size="0,0" pers-start="0,0" pers-end="0,0" locked="0" mesh="" flag=""/>
            <path id="shapePath2" d="M31.4486,25.8128 L28.7043,15.6346 L25.9253,25.8128 C25.7091,26.5848 25.5374,27.1387 25.41,27.4745 C25.2826,27.8103 25.0607,28.1114 24.7442,28.3777 C24.4277,28.644 24.0069,28.7772 23.482,28.7772 C23.0574,28.7772 22.7081,28.698 22.4341,28.5398 C22.16,28.3815 21.9381,28.1577 21.7683,27.8682 C21.5984,27.5787 21.4595,27.2352 21.3514,26.8376 C21.2433,26.4401 21.1468,26.0715 21.0619,25.7318 L18.2366,14.3029 C18.0667,13.6391 17.9818,13.1334 17.9818,12.786 C17.9818,12.346 18.1362,11.9755 18.445,11.6744 C18.7538,11.3734 19.1359,11.2228 19.5913,11.2228 C20.2166,11.2228 20.6373,11.4235 20.8535,11.825 C21.0696,12.2264 21.2588,12.8092 21.4209,13.5734 L23.6441,23.4854 L26.1337,14.2103 C26.319,13.5001 26.4849,12.9597 26.6316,12.5892 C26.7783,12.2187 27.0176,11.8983 27.3495,11.6281 C27.6815,11.3579 28.1331,11.2228 28.7043,11.2228 C29.2833,11.2228 29.733,11.3637 30.0533,11.6455 C30.3737,11.9272 30.5956,12.2341 30.7191,12.566 C30.8426,12.898 31.0086,13.4461 31.217,14.2103 L33.7298,23.4854 L35.953,13.5734 C36.0611,13.0562 36.1634,12.651 36.2599,12.3576 C36.3564,12.0643 36.5223,11.8018 36.7578,11.5702 C36.9932,11.3386 37.3348,11.2228 37.7826,11.2228 C38.2303,11.2228 38.6105,11.3714 38.9231,11.6686 C39.2358,11.9658 39.3921,12.3383 39.3921,12.786 C39.3921,13.1025 39.3072,13.6082 39.1373,14.3029 L36.312,25.7318 C36.119,26.5038 35.9588,27.0692 35.8314,27.4282 C35.7041,27.7871 35.4879,28.1017 35.183,28.3719 C34.8781,28.6421 34.4477,28.7772 33.8919,28.7772 C33.3669,28.7772 32.9462,28.6459 32.6297,28.3835 C32.3132,28.121 32.0932,27.8257 31.9697,27.4977 C31.8462,27.1696 31.6725,26.608 31.4486,25.8128 M41.8006,26.6813 L41.8006,13.3071 C41.8006,12.6124 41.9589,12.0913 42.2754,11.7439 C42.5919,11.3965 43.001,11.2228 43.5028,11.2228 C44.02,11.2228 44.4388,11.3946 44.7591,11.7381 C45.0795,12.0816 45.2397,12.6046 45.2397,13.3071 L45.2397,26.6813 C45.2397,27.3838 45.0795,27.9087 44.7591,28.2561 C44.4388,28.6035 44.02,28.7772 43.5028,28.7772 C43.0087,28.7772 42.6015,28.6016 42.2811,28.2503 C41.9608,27.8991 41.8006,27.3761 41.8006,26.6813 M55.6611,21.8759 L52.5115,21.8759 L52.5115,26.6813 C52.5115,27.3683 52.3494,27.8894 52.0252,28.2445 C51.701,28.5996 51.2918,28.7772 50.7978,28.7772 C50.2806,28.7772 49.8637,28.6016 49.5472,28.2503 C49.2307,27.8991 49.0725,27.3838 49.0725,26.7045 L49.0725,13.6198 C49.0725,12.8632 49.2461,12.3229 49.5935,11.9986 C49.9409,11.6744 50.4929,11.5123 51.2494,11.5123 L55.6611,11.5123 C56.9657,11.5123 57.9693,11.6127 58.6718,11.8134 C59.3665,12.0064 59.9667,12.3267 60.4724,12.7745 C60.978,13.2222 61.362,13.7703 61.6245,14.4187 C61.887,15.0672 62.0182,15.7967 62.0182,16.6072 C62.0182,18.3364 61.4855,19.6468 60.4202,20.5384 C59.3549,21.4301 57.7686,21.8759 55.6611,21.8759 M54.8274,14.0945 L52.5115,14.0945 L52.5115,19.2821 L54.8274,19.2821 C55.638,19.2821 56.3154,19.1972 56.8596,19.0273 C57.4038,18.8575 57.8187,18.5796 58.1044,18.1936 C58.39,17.8076 58.5328,17.302 58.5328,16.6767 C58.5328,15.9279 58.3128,15.3181 57.8728,14.8472 C57.3787,14.3454 56.3636,14.0945 54.8274,14.0945 Z" style="stroke:none;fill-rule:nonzero;fill:#ffffff;fill-opacity:1;"/>
        </g>
    </g>
</svg>
