<?xml version="1.0"?>
<svg version="1.1" xmlns="http://www.w3.org/2000/svg" xmlns:xlink="http://www.w3.org/1999/xlink" width="40" height="20">
    <desc iVinci="yes" version="4.6" gridStep="20" showGrid="no" snapToGrid="no" codePlatform="0"/>
    <g id="Layer1" name="Layer 1" opacity="1">
        <g id="Shape1">
            <desc shapeID="1" type="0" basicInfo-basicType="2" basicInfo-roundedRectRadius="8" basicInfo-polygonSides="6" basicInfo-starPoints="5" bounding="rect(-39.6531,-19.0976,79.3063,38.1953)" text="" font-familyName="Helvetica" font-pixelSize="20" font-bold="0" font-underline="0" font-alignment="1" strokeStyle="0" markerStart="0" markerEnd="0" shadowEnabled="0" shadowOffsetX="0" shadowOffsetY="2" shadowBlur="4" shadowOpacity="160" blurEnabled="0" blurRadius="4" transform="matrix(0.492171,0,0,0.492171,19.9721,9.96016)" pers-center="0,0" pers-size="0,0" pers-start="0,0" pers-end="0,0" locked="0" mesh="" flag=""/>
            <path id="shapePath1" d="M0.45599,4.49821 C0.45599,2.32366 2.21881,0.560844 4.39336,0.560844 L35.5509,0.560844 C37.7254,0.560844 39.4882,2.32366 39.4882,4.49821 L39.4882,15.4221 C39.4882,17.5966 37.7254,19.3595 35.5509,19.3595 L4.39336,19.3595 C2.21881,19.3595 0.45599,17.5966 0.45599,15.4221 L0.45599,4.49821 Z" style="stroke:none;fill-rule:evenodd;fill:url(#linearGradientFill1);fill-opacity:1;"/><defs><linearGradient id="linearGradientFill1" gradientUnits="userSpaceOnUse" x1="18.9617" y1="19.3595" x2="19.506" y2="0.560844"><stop offset="0" stop-color="#65d4ac" stop-opacity="1"/><stop offset="1" stop-color="#59bc99" stop-opacity="1"/></linearGradient></defs>
        </g>
        <g id="Shape2">
            <desc shapeID="2" type="0" basicInfo-basicType="0" basicInfo-roundedRectRadius="12" basicInfo-polygonSides="6" basicInfo-starPoints="5" bounding="rect(-18.5693,-7.40234,37.1387,14.8047)" text="WIP" font-familyName="Arial Rounded MT Bold" font-pixelSize="20" font-bold="0" font-underline="0" font-alignment="1" strokeStyle="0" markerStart="0" markerEnd="0" shadowEnabled="0" shadowOffsetX="0" shadowOffsetY="2" shadowBlur="4" shadowOpacity="160" blurEnabled="0" blurRadius="4" transform="matrix(0.583581,0,0,0.583582,19.9604,9.96015)" pers-center="0,0" pers-size="0,0" pers-start="0,0" pers-end="0,0" locked="0" mesh="" flag=""/>
            <path id="shapePath2" d="M15.7517,12.8211 L14.401,7.81162 L13.0333,12.8211 C12.9269,13.201 12.8423,13.4736 12.7796,13.6389 C12.717,13.8042 12.6077,13.9523 12.452,14.0834 C12.2962,14.2145 12.0891,14.28 11.8308,14.28 C11.6218,14.28 11.4499,14.2411 11.315,14.1632 C11.1801,14.0853 11.0709,13.9751 10.9873,13.8327 C10.9037,13.6902 10.8353,13.5211 10.7821,13.3254 C10.7289,13.1298 10.6814,12.9484 10.6397,12.7812 L9.24909,7.15623 C9.16551,6.82948 9.12371,6.58063 9.12371,6.40965 C9.12371,6.19309 9.1997,6.01072 9.35167,5.86255 C9.50365,5.71437 9.69172,5.64028 9.91588,5.64028 C10.2236,5.64028 10.4307,5.73907 10.5371,5.93663 C10.6435,6.1342 10.7365,6.42105 10.8163,6.79719 L11.9105,11.6756 L13.1358,7.11064 C13.227,6.76109 13.3087,6.49514 13.3809,6.31277 C13.4531,6.1304 13.5709,5.97273 13.7342,5.83975 C13.8976,5.70677 14.1199,5.64028 14.401,5.64028 C14.686,5.64028 14.9073,5.70962 15.065,5.8483 C15.2226,5.98698 15.3319,6.138 15.3927,6.30137 C15.4534,6.46475 15.5351,6.7345 15.6377,7.11064 L16.8744,11.6756 L17.9686,6.79719 C18.0218,6.54263 18.0722,6.34317 18.1196,6.19879 C18.1671,6.05441 18.2488,5.92524 18.3647,5.81126 C18.4806,5.69727 18.6487,5.64028 18.8691,5.64028 C19.0894,5.64028 19.2766,5.71342 19.4304,5.8597 C19.5843,6.00597 19.6612,6.18929 19.6612,6.40965 C19.6612,6.56543 19.6194,6.81429 19.5359,7.15623 L18.1453,12.7812 C18.0503,13.1611 17.9715,13.4394 17.9088,13.6161 C17.8461,13.7928 17.7397,13.9476 17.5896,14.0806 C17.4396,14.2135 17.2277,14.28 16.9542,14.28 C16.6958,14.28 16.4888,14.2154 16.333,14.0863 C16.1772,13.9571 16.0689,13.8118 16.0082,13.6503 C15.9474,13.4888 15.8619,13.2124 15.7517,12.8211 M20.8466,13.2485 L20.8466,6.66611 C20.8466,6.32417 20.9245,6.06771 21.0803,5.89674 C21.2361,5.72577 21.4374,5.64028 21.6844,5.64028 C21.939,5.64028 22.1451,5.72482 22.3027,5.89389 C22.4604,6.06296 22.5393,6.32037 22.5393,6.66611 L22.5393,13.2485 C22.5393,13.5942 22.4604,13.8526 22.3027,14.0236 C22.1451,14.1945 21.939,14.28 21.6844,14.28 C21.4412,14.28 21.2408,14.1936 21.0831,14.0207 C20.9255,13.8478 20.8466,13.5904 20.8466,13.2485 M27.6684,10.8834 L26.1182,10.8834 L26.1182,13.2485 C26.1182,13.5866 26.0385,13.8431 25.8789,14.0179 C25.7193,14.1926 25.5179,14.28 25.2748,14.28 C25.0202,14.28 24.8151,14.1936 24.6593,14.0207 C24.5035,13.8478 24.4256,13.5942 24.4256,13.2599 L24.4256,6.81998 C24.4256,6.44765 24.5111,6.18169 24.6821,6.02212 C24.8531,5.86255 25.1247,5.78276 25.4971,5.78276 L27.6684,5.78276 C28.3105,5.78276 28.8044,5.83215 29.1501,5.93093 C29.4921,6.02592 29.7875,6.18359 30.0363,6.40395 C30.2852,6.62432 30.4742,6.89407 30.6034,7.21322 C30.7326,7.53237 30.7972,7.8914 30.7972,8.29034 C30.7972,9.14139 30.535,9.78633 30.0107,10.2252 C29.4864,10.664 28.7056,10.8834 27.6684,10.8834 M27.2581,7.05365 L26.1182,7.05365 L26.1182,9.60682 L27.2581,9.60682 C27.657,9.60682 27.9904,9.56502 28.2582,9.48144 C28.5261,9.39785 28.7303,9.26107 28.8709,9.07111 C29.0115,8.88114 29.0817,8.63228 29.0817,8.32453 C29.0817,7.95599 28.9735,7.65584 28.7569,7.42408 C28.5137,7.17712 28.0141,7.05365 27.2581,7.05365 Z" style="stroke:none;fill-rule:nonzero;fill:#ffffff;fill-opacity:1;"/>
        </g>
    </g>
</svg>
